<?xml version="1.0" encoding="UTF-8" standalone="no"?>
<!-- Generator: Adobe Illustrator 13.0.0, SVG Export Plug-In . SVG Version: 6.00 Build 14948)  -->

<svg
   xmlns:dc="http://purl.org/dc/elements/1.1/"
   xmlns:cc="http://creativecommons.org/ns#"
   xmlns:rdf="http://www.w3.org/1999/02/22-rdf-syntax-ns#"
   xmlns:svg="http://www.w3.org/2000/svg"
   xmlns="http://www.w3.org/2000/svg"
   xmlns:sodipodi="http://sodipodi.sourceforge.net/DTD/sodipodi-0.dtd"
   xmlns:inkscape="http://www.inkscape.org/namespaces/inkscape"
   version="1.1"
   id="圖層_1"
   x="0px"
   y="0px"
   width="372px"
   height="587px"
   viewBox="0 0 372 587"
   enable-background="new 0 0 372 587"
   xml:space="preserve"
   inkscape:version="0.91 r13725"
   sodipodi:docname="8-3.svg"><metadata
     id="metadata266"><rdf:RDF><cc:Work
         rdf:about=""><dc:format>image/svg+xml</dc:format><dc:type
           rdf:resource="http://purl.org/dc/dcmitype/StillImage" /></cc:Work></rdf:RDF></metadata><defs
     id="defs264" /><sodipodi:namedview
     pagecolor="#ffffff"
     bordercolor="#666666"
     borderopacity="1"
     objecttolerance="10"
     gridtolerance="10"
     guidetolerance="10"
     inkscape:pageopacity="0"
     inkscape:pageshadow="2"
     inkscape:window-width="1366"
     inkscape:window-height="699"
     id="namedview262"
     showgrid="false"
     inkscape:zoom="0.40204429"
     inkscape:cx="-73.92161"
     inkscape:cy="293.5"
     inkscape:window-x="0"
     inkscape:window-y="27"
     inkscape:window-maximized="1"
     inkscape:current-layer="圖層_1" />
     <rect
  	 style="opacity:1;fill:#fffaf0;fill-opacity:1;stroke:none;stroke-width:10;stroke-linejoin:miter;stroke-miterlimit:100;stroke-dasharray:none;stroke-opacity:1"
  	 id="rect4370"
  	 width="372"
  	 height="587"
  	 x="0"
  	 y="0" />
     <g
     id="g4522"><g
       id="g5"><g
         id="g7"><g
           id="g9"><path
             d="m 187.711,285.413 c -37.754,0 -74.185,6.624 -109.293,19.212 -33.117,12.58 -63.588,30.466 -91.406,54.31 l 0,262.298 400.075,0 0,-262.298 C 359.929,335.091 329.459,317.206 295.68,304.625 261.235,292.037 224.805,285.413 187.711,285.413 Z"
             id="path11"
             
             style="fill:#858585" /></g></g><g
         id="g13"><g
           id="g15"><path
             d="m 187.711,282.101 c -37.094,0 -73.524,5.964 -107.966,19.212 -35.108,12.581 -66.238,31.127 -94.722,54.97 l -1.323,0.666 0,267.597 406.698,0 0,-267.598 -0.662,-0.666 c -27.818,-23.843 -59.614,-42.389 -94.72,-54.97 -34.444,-13.248 -70.874,-19.211 -107.305,-19.211 z M 82.395,307.27 c 33.78,-12.58 68.885,-18.545 105.316,-18.545 35.768,0 70.213,5.965 103.994,18.545 34.441,12.582 64.912,29.808 92.07,52.99 l 0,257.661 -393.451,0 0,-257.661 c 27.818,-23.183 58.287,-40.408 92.071,-52.99 z"
             id="path17"
              /></g></g><g
         id="g19"><g
           id="g21"><path
             d="m 194.997,586.135 c -7.949,13.248 -13.247,25.163 -15.896,35.098 l 4.635,-9.269 c 3.975,-8.609 8.612,-17.227 13.91,-25.17 15.896,-25.175 37.094,-47.692 65.575,-66.896 25.835,-17.226 54.315,-29.808 86.108,-36.432 l 27.822,-4.644 9.935,-2.646 -39.08,4.638 c -31.133,5.963 -60.276,17.878 -87.435,35.771 -28.479,19.205 -49.676,42.389 -65.574,69.55 z"
             id="path23"
              /></g></g><g
         id="g25"><g
           id="g27"><path
             d="m 233.415,594.737 c -5.298,6.624 -8.61,12.589 -11.923,18.552 -1.985,5.298 -2.648,7.943 -1.325,7.943 2.651,-6.623 7.95,-15.227 15.236,-25.162 14.57,-19.211 32.456,-34.451 54.313,-46.366 21.197,-12.588 44.38,-19.871 67.563,-22.523 l 21.856,-1.993 7.95,-1.318 -7.95,-0.66 -21.856,0.66 c -24.509,2.651 -47.692,9.936 -69.55,22.523 -23.182,12.581 -41.067,28.473 -54.314,48.344 z"
             id="path29"
              /></g></g><g
         id="g31"><g
           id="g33"><path
             d="m 42.65,540.428 c 22.521,-7.283 47.693,-10.595 73.524,-9.275 25.169,0.66 49.016,5.304 72.862,14.573 11.921,3.979 21.857,7.95 29.144,11.262 l -7.286,-3.972 -20.535,-9.936 c -23.843,-9.936 -48.352,-14.579 -74.185,-15.899 -26.495,-0.66 -51.004,2.652 -74.187,10.596 -7.947,1.991 -14.57,5.304 -21.193,8.616 l -7.288,3.972 7.948,-3.312 21.196,-6.625 z"
             id="path35"
              /></g></g><g
         id="g37"><g
           id="g39"><path
             d="m 30.066,556.987 c 19.871,-1.993 41.066,0 60.938,5.298 19.87,4.638 38.42,13.914 55.641,25.829 l 15.234,10.603 5.96,3.978 -5.297,-4.645 -13.911,-12.581 c -17.222,-12.581 -35.767,-21.857 -56.965,-27.161 -21.857,-5.292 -42.391,-6.625 -61.6,-3.972 -11.262,0.658 -19.208,2.651 -25.172,5.963 l 25.172,-3.312 z"
             id="path41"
              /></g></g><g
         id="g43"><g
           id="g45"><path
             d="m 196.983,468.886 c -31.13,4.645 -58.288,16.56 -80.809,34.452 -7.949,6.623 -14.573,13.248 -18.548,19.871 l 20.534,-17.892 c 22.521,-16.56 49.678,-27.815 79.485,-32.454 29.144,-5.956 57.629,-3.978 86.772,4.639 8.609,1.986 16.559,5.298 24.509,9.275 l 8.609,3.972 c -7.286,-5.304 -17.886,-11.261 -33.118,-15.898 -27.819,-9.277 -56.963,-11.922 -87.434,-5.965 z"
             id="path47"
              /></g></g><g
         id="g49"><g
           id="g51"><path
             d="m 234.74,450.348 -15.896,12.581 -5.301,5.298 c 5.301,-4.632 13.247,-9.275 23.184,-15.233 18.549,-12.582 38.42,-21.857 59.613,-29.141 19.872,-7.291 41.069,-13.248 64.252,-15.9 l 26.495,-4.638 -27.158,1.986 c -21.856,1.326 -43.055,6.623 -65.574,14.573 -19.873,7.29 -39.743,17.226 -59.615,30.474 z"
             id="path53"
              /></g></g><g
         id="g55"><g
           id="g57"><path
             d="m 157.904,474.19 -17.223,-9.936 c -19.207,-8.616 -39.742,-13.907 -63.586,-15.24 -22.523,-1.319 -43.717,1.333 -64.915,8.616 l -18.546,6.624 -6.623,3.312 25.833,-7.283 c 20.534,-5.964 41.728,-7.957 63.589,-7.29 23.182,0.666 44.377,5.958 62.925,13.914 9.937,4.631 18.546,9.27 23.847,12.581 l -5.301,-5.298 z"
             id="path59"
              /></g></g><g
         id="g61"><g
           id="g63"><path
             d="M 186.388,472.863 C 181.75,465.574 174.463,457.631 164.529,449.014 145.321,430.475 122.8,417.228 96.967,407.951 71.795,399.335 45.963,396.023 18.805,396.69 l -31.793,4.638 8.609,-0.66 23.184,-0.666 c 27.82,0 53.654,3.978 76.836,12.581 24.51,7.957 46.367,20.538 66.901,37.764 l 17.882,15.893 5.964,6.623 z"
             id="path65"
              /></g></g><g
         id="g67"><g
           id="g69"><path
             d="m 206.26,380.132 c -13.911,7.289 -25.172,15.893 -34.445,25.169 -7.95,7.949 -13.91,15.24 -17.885,22.523 5.3,-7.283 11.924,-13.908 19.871,-20.531 21.196,-19.872 49.018,-33.785 82.797,-43.055 31.133,-7.956 61.603,-9.275 93.396,-3.979 15.896,3.313 28.484,6.624 37.094,10.603 0.663,-0.667 -2.648,-2.652 -9.272,-4.645 l -27.158,-8.604 -95.381,2.646 c -17.224,4.638 -33.785,11.263 -49.017,19.873 z"
             id="path71"
              /></g></g><g
         id="g73"><g
           id="g75"><path
             d="m 228.117,371.522 c 0,-0.66 -2.649,-1.327 -7.288,-3.313 l -20.534,-5.304 -71.535,-2.646 c -24.51,3.313 -47.029,9.936 -67.563,21.198 -6.624,3.972 -12.585,7.943 -17.882,11.921 l -5.961,5.299 c 5.961,-4.632 14.57,-9.276 25.169,-14.568 20.534,-10.602 43.718,-17.226 66.901,-20.537 l 69.55,2.646 21.193,3.978 7.95,1.326 z"
             id="path77"
              /></g></g><g
         id="g79"><g
           id="g81"><path
             d="m 227.454,404.641 c -16.56,-0.66 -33.119,1.32 -48.353,5.964 l -13.911,4.632 -3.975,2.651 19.208,-4.638 47.03,-4.638 c 16.559,0.66 32.455,2.652 47.028,7.949 l 18.546,5.958 -4.635,-2.646 -13.911,-5.958 c -14.572,-5.963 -29.805,-9.274 -47.027,-9.274 z"
             id="path83"
              /></g></g><g
         id="g85"><g
           id="g87"><path
             d="m 204.271,390.067 -14.57,3.312 c -3.975,1.327 -5.301,2.646 -4.638,2.646 l 5.297,-1.318 14.574,-1.993 c 13.91,-2.646 29.807,-1.979 47.692,0.666 16.559,1.985 31.793,6.624 46.367,13.248 l 18.544,7.949 c -3.975,-3.312 -9.935,-7.283 -17.223,-10.596 -13.91,-7.289 -29.807,-12.588 -47.028,-14.579 -16.559,-2.647 -33.119,-2.647 -49.015,0.665 z"
             id="path89"
              /></g></g><g
         id="g91"><g
           id="g93"><path
             d="m 238.053,371.522 -16.561,2.651 16.561,0 39.08,5.292 c 13.246,3.312 25.832,7.289 36.43,11.927 l 15.237,5.965 c 0.659,-0.666 -4.639,-3.312 -13.911,-8.616 -11.262,-5.964 -23.847,-10.596 -37.094,-13.247 l -39.742,-3.972 z"
             id="path95"
              /></g></g><g
         id="g97"><g
           id="g99"><path
             d="m 88.354,333.765 c -19.87,-3.312 -39.743,-3.312 -57.625,0.666 l -17.223,5.292 -5.301,3.312 c 5.301,-2.646 13.249,-4.632 23.184,-5.957 17.222,-3.313 36.43,-2.646 56.965,0.666 17.886,2.646 36.431,7.284 55.639,13.907 l 22.523,8.609 c 0.66,-0.666 -6.623,-3.978 -21.196,-10.602 -18.547,-7.943 -37.094,-12.581 -56.966,-15.893 z"
             id="path101"
              /></g></g><g
         id="g103"><g
           id="g105"><path
             d="m 58.548,313.894 19.208,-1.985 45.043,5.297 c 19.209,4.639 34.441,9.937 45.04,13.914 l 17.887,5.958 -17.222,-8.609 c -10.6,-5.305 -25.834,-10.596 -44.381,-14.574 l -46.367,-4.638 -14.571,1.992 c -3.311,1.318 -4.637,1.979 -4.637,2.645 z"
             id="path107"
              /></g></g><g
         id="g109"><g
           id="g111"><path
             d="m 114.85,294.023 -5.298,1.326 20.534,1.984 c 17.219,2.646 32.456,6.625 47.689,12.582 20.534,7.289 35.107,13.914 45.703,18.552 l 18.549,8.609 c 0,-0.666 -5.301,-3.979 -17.223,-10.602 -11.262,-6.624 -26.495,-13.248 -45.703,-21.191 -16.56,-5.304 -32.457,-9.276 -48.355,-11.261 l -15.896,0 z"
             id="path113"
              /></g></g><g
         id="g115"><g
           id="g117"><path
             d="m 274.482,325.815 -13.91,-8.61 c -7.286,-4.638 -19.208,-10.602 -36.431,-17.885 -15.896,-5.964 -28.481,-9.937 -38.416,-11.922 l -16.56,-1.325 15.896,3.971 37.756,13.249 36.432,16.559 c 10.596,3.978 15.233,6.624 15.233,5.963 z"
             id="path119"
              /></g></g><g
         id="g121"><g
           id="g123"><path
             d="m 247.987,503.997 c -18.544,-4.638 -39.742,-6.623 -62.262,-4.638 -22.521,1.326 -43.056,7.29 -59.614,15.894 -6.623,2.651 -11.262,5.963 -16.56,9.276 l -4.638,4.638 5.96,-3.313 c 5.301,-2.646 10.601,-5.957 16.56,-8.61 17.223,-7.283 37.095,-12.587 58.954,-13.906 l 61.6,3.312 25.169,5.291 -6.623,-3.312 -18.546,-4.632 z"
             id="path125"
              /></g></g><g
         id="g127"><g
           id="g129"><path
             d="m 142.67,488.758 -5.301,-3.313 -16.559,-5.957 c -17.221,-6.625 -35.768,-9.937 -56.302,-9.27 -19.872,0.66 -39.079,3.972 -56.303,9.936 l -15.896,7.283 -5.299,3.312 5.961,-1.991 15.898,-5.958 c 17.885,-5.298 36.432,-7.949 55.64,-8.609 18.548,0 37.093,2.652 55.642,7.943 l 22.519,6.624 z"
             id="path131"
              /></g></g></g><g
       transform="translate(-20,0)"
       id="g133"><g
         id="g135"><g
           id="g137"><path
             d="m 88.354,197.978 c 6.624,1.327 17.223,4.637 33.12,11.921 l 31.131,-25.17 c -7.949,-5.297 -21.859,-8.608 -41.731,-10.601 -11.921,-1.319 -23.843,0.667 -35.767,3.978 l -13.248,4.638 19.209,3.972 0.662,0 -0.662,0 c -7.947,-1.32 -16.56,0 -25.834,4.638 l -10.598,7.951 27.158,-3.313 16.56,1.986 z"
             id="path139"
             
             style="fill:#fcce00" /></g></g><g
         id="g141"><g
           id="g143"><path
             d="m 119.488,212.551 3.311,0 31.793,-25.835 1.327,-2.652 -1.327,-2.645 c -9.271,-5.298 -23.846,-8.609 -43.054,-10.602 -13.249,-1.32 -25.169,0.666 -36.431,3.978 -7.288,1.326 -11.923,3.312 -15.233,5.298 l -1.326,2.651 0,0.66 2.648,2.651 c -7.283,1.987 -13.247,6.625 -19.208,11.256 l -0.664,1.993 0.664,1.985 c 0,1.325 1.326,1.985 3.313,1.325 l 37.756,-1.992 5.298,0.667 c 6.624,1.326 16.559,4.639 31.133,11.262 z m -35.108,-24.509 0.663,-1.327 c 0,-1.32 -0.663,-1.986 -2.648,-2.652 l -7.951,-2.645 c 11.926,-3.313 23.846,-5.298 36.431,-3.979 13.911,0.667 25.173,3.313 35.108,7.29 l -25.172,21.198 C 104.25,199.304 93.657,195.991 89.018,194.665 l -4.638,-0.667 -22.521,-1.319 c 6.625,-2.651 12.584,-3.312 18.549,-2.651 2.649,0.66 3.972,0.001 3.972,-1.986 z"
             id="path145"
              /></g></g><g
         id="g147"><g
           id="g149"><path
             d="m 125.449,219.176 7.949,0.658 25.169,0 29.144,8.617 c 21.197,7.943 35.768,17.219 43.718,29.141 l -0.663,-11.922 c -1.985,-9.936 -5.961,-17.885 -11.922,-23.184 l 5.298,2.653 10.599,11.914 c 0,-5.957 -1.325,-11.254 -5.96,-17.878 -7.951,-13.248 -23.184,-21.198 -43.718,-24.51 l 9.272,-7.29 c 5.96,-6.623 10.599,-14.566 13.248,-22.516 -7.288,4.637 -14.571,7.95 -20.535,8.609 4.638,-2.652 7.287,-6.624 7.287,-11.922 l -29.807,7.95 c -13.911,4.632 -24.507,9.936 -31.793,15.233 -7.95,5.958 -12.585,13.249 -14.574,21.858 -15.897,9.275 -25.832,14.572 -30.47,16.559 l -11.922,-0.66 -10.599,0.66 c -3.312,1.327 -5.297,3.973 -6.623,7.95 l -1.986,5.298 c -2.648,1.992 -4.638,5.305 -7.286,9.275 -1.986,5.299 -3.313,9.275 -3.975,13.248 l 7.285,-4.639 c 5.299,-3.977 9.273,-6.623 11.923,-6.623 l 10.599,-0.666 c 4.638,-0.66 7.949,-1.32 11.262,-4.631 3.311,-3.313 9.936,-7.95 18.545,-13.249 9.273,-5.963 15.897,-9.275 20.535,-9.933 z"
             id="path151"
             
             style="fill:#fcce00" /></g></g><g
         id="g153"><g
           id="g155"><path
             d="m 87.691,223.146 -11.922,-0.66 -10.599,0.66 c -3.312,1.327 -5.297,3.973 -6.623,7.95 l -1.986,5.298 c -2.648,1.992 -4.638,5.305 -7.286,9.275 -1.986,5.299 -3.313,9.275 -3.975,13.248 l 7.285,-4.639 c 5.299,-3.977 9.273,-6.623 11.923,-6.623 l 10.599,-0.666 c 4.638,-0.66 7.949,-1.32 11.262,-4.631 l 1.985,-1.993 c 4.638,-7.283 6.624,-13.907 7.95,-21.19 l -8.613,3.971 z"
             id="path157"
             
             style="fill:#d96038" /></g></g><g
         id="g159"><g
           id="g161"><path
             d="m 196.323,159.561 -2.651,-1.325 -29.808,8.61 c -14.569,4.638 -25.831,9.276 -33.118,15.899 -7.947,5.298 -13.248,13.248 -15.896,21.857 -13.91,8.609 -23.184,13.248 -28.48,15.232 l -9.273,-0.658 -13.911,0.658 c -4.637,2.652 -7.95,7.951 -9.935,14.575 l -7.287,11.261 c -1.986,4.633 -3.313,9.275 -3.975,13.248 l 1.988,3.313 3.973,0 17.222,-11.928 5.962,0 8.612,-0.66 c 3.312,-0.66 6.624,-1.986 8.609,-4.632 3.312,-3.978 9.935,-7.957 17.886,-12.588 8.609,-5.964 15.234,-9.276 19.209,-9.937 l 33.118,0.66 29.144,9.276 c 19.872,7.283 33.781,16.56 41.069,27.155 l 3.975,1.325 c 1.985,-0.666 1.985,-1.985 1.985,-3.312 l 0.663,-1.326 -3.312,-17.219 c 1.323,1.319 2.648,1.986 3.975,1.319 1.986,-0.66 1.986,-1.319 1.986,-3.313 0,-5.957 -1.986,-11.254 -5.961,-17.878 -7.95,-13.248 -21.197,-21.198 -39.743,-26.496 9.273,-6.625 15.234,-15.9 18.546,-26.495 l 0,-1.325 -1.986,-2.646 c -0.663,-0.667 -1.988,-0.667 -3.975,0 l -8.61,4.632 1.323,-5.298 0,0 -1.324,-1.984 z M 75.77,225.8 c 5.961,1.319 10.6,1.319 12.585,0 4.638,-1.326 15.896,-6.624 31.134,-15.9 l 1.986,-1.985 c 1.324,-8.609 5.959,-15.234 13.246,-19.872 6.623,-5.957 17.223,-10.603 30.47,-15.233 l 23.847,-6.625 -3.975,5.298 c -0.663,0 -1.326,1.327 -1.326,1.986 l 0,1.326 c 0.663,1.985 1.326,2.645 3.312,1.985 l 13.91,-3.97 c -4.635,7.943 -10.599,14.566 -17.222,18.544 -1.323,1.326 -1.986,1.985 -1.986,3.312 l 0,0 c 0,1.986 0.663,3.313 2.649,3.313 17.886,3.312 29.807,9.936 35.107,21.198 l 1.322,0 7.288,5.298 c -1.327,-2.646 -3.976,-4.64 -8.61,-5.298 l -2.652,0.658 -1.322,2.652 c 0,0.66 0.663,1.32 1.322,1.987 5.301,5.297 8.613,13.246 11.263,23.849 -9.937,-9.275 -24.51,-17.226 -43.055,-23.849 l -26.495,-7.95 0,0 -24.509,0 -7.947,-0.66 -1.326,0 c -5.297,0.66 -12.585,3.971 -21.857,10.596 -8.613,5.304 -14.573,9.936 -19.208,13.907 -1.989,1.993 -6.624,3.312 -12.587,3.312 l -7.948,0.666 c -1.988,0 -6.623,1.986 -11.925,6.625 1.99,-5.299 3.975,-9.936 7.288,-11.922 l 1.326,-1.993 c 1.322,-5.957 3.311,-9.269 6.624,-11.254 1.985,-0.661 4.634,-0.661 9.271,-10e-4 z m 145.059,-6.624 -1.322,0 c 4.635,0.658 7.283,2.651 8.61,5.298 l -7.288,-5.298 z"
             id="path163"
              /></g></g><g
         id="g165"><g
           id="g167"><path
             d="m 173.141,193.339 c -8.612,1.993 -16.56,6.624 -21.861,13.249 -1.322,1.326 -0.662,1.992 0,2.651 0.664,1.319 1.326,1.319 2.65,0 5.3,-5.964 11.924,-9.935 19.871,-11.927 l 11.262,-0.66 1.985,-1.986 c 0,-1.326 0,-1.985 -1.985,-1.985 l -11.922,0.658 z"
             id="path169"
              /></g></g><g
         id="g171"><g
           id="g173"><path
             d="m 73.785,234.409 c -0.664,-1.986 -1.99,-3.313 -3.977,-3.313 -1.989,0 -2.648,1.326 -1.989,3.979 0,2.644 0.665,3.311 3.313,3.311 1.989,0.001 3.311,-1.332 2.653,-3.977 z"
             id="path175"
              /></g></g><g
         id="g177"><g
           id="g179"><path
             d="m 151.943,46.958 c -1.986,-1.993 -5.299,-3.313 -9.936,-5.304 -8.609,-3.972 -19.209,-5.958 -30.47,-7.943 L 75.106,35.03 61.858,39.674 c 6.625,0.66 13.248,2.646 19.209,5.292 -7.947,-2.646 -16.56,-1.32 -26.496,3.312 l -11.258,7.29 27.818,-2.646 16.559,3.972 c 5.965,0.66 16.559,5.298 31.797,13.248 l 32.456,-23.184 z"
             id="path181"
             
             style="fill:#fcce00" /></g></g><g
         id="g183"><g
           id="g185"><path
             d="m 155.254,46.958 -1.324,-3.313 c -8.609,-5.963 -22.521,-9.935 -42.392,-13.248 -19.872,-2.651 -36.431,0 -51.664,6.624 -1.326,0 -1.326,0.66 -1.326,2.652 l 0,0.66 c 0,0.66 0,1.32 1.988,1.986 -5.302,1.326 -9.276,3.312 -13.911,5.958 l -5.301,4.644 -1.322,2.646 0,1.326 c 0.664,1.986 1.986,1.986 3.975,1.986 12.585,-3.312 24.508,-3.312 37.754,0 l 4.639,1.327 c 5.96,0.659 16.559,5.297 31.129,13.248 l 3.313,-0.66 33.119,-23.849 1.323,-1.987 z m -66.9,6.623 -5.298,-1.326 -22.521,-2.646 19.209,-1.333 c 1.985,0 3.312,-0.66 3.975,-2.646 l 0.66,-0.666 -2.649,-3.312 -7.287,-2.646 36.431,-1.986 c 13.911,1.986 25.173,5.298 34.446,9.936 L 118.824,66.167 C 102.264,58.878 91.666,54.241 88.354,53.581 Z"
             id="path187"
              /></g></g><g
         id="g189"><g
           id="g191"><path
             d="m 187.048,37.682 c 4.638,-2.652 7.949,-6.624 7.949,-11.256 l -30.469,5.958 c -13.911,3.312 -25.17,7.95 -32.456,13.247 -7.949,5.298 -13.911,12.582 -15.897,21.198 -16.56,8.61 -26.495,13.248 -31.795,14.567 l -11.259,-1.32 -11.262,0 c -2.649,1.32 -5.298,3.312 -6.625,7.283 l -1.984,5.305 c -3.313,1.319 -5.301,4.631 -7.949,9.27 -1.986,4.638 -3.977,8.609 -4.635,13.247 l 7.283,-5.297 c 5.301,-3.312 9.936,-5.964 11.925,-5.964 l 11.259,0 c 3.975,0 7.949,-0.66 10.598,-3.312 4.639,-3.972 11.262,-7.284 19.871,-11.921 9.272,-5.298 16.56,-8.61 21.197,-8.61 l 7.947,1.32 24.508,1.333 29.146,10.595 c 20.534,8.61 34.444,19.212 42.391,31.126 l 0,-12.58 c -1.985,-9.936 -5.298,-17.886 -10.595,-23.85 l 4.634,3.978 10.6,11.921 c 0,-5.298 -1.326,-11.255 -5.961,-17.879 -7.287,-13.248 -21.197,-22.523 -41.731,-27.162 l 9.936,-6.624 c 6.623,-6.624 11.262,-13.914 13.911,-21.857 -7.29,4.631 -14.573,7.284 -20.537,7.284 z"
             id="path193"
             
             style="fill:#fcce00" /></g></g><g
         id="g195"><g
           id="g197"><path
             d="m 47.949,109.883 c 5.301,-3.312 9.936,-5.964 11.925,-5.964 l 11.259,0 c 3.975,0 7.949,-0.66 10.598,-3.312 l 3.313,-1.986 c 4.637,-6.624 6.623,-13.248 7.949,-21.197 l -8.612,3.972 -11.259,-1.32 -11.263,0 c -2.649,1.32 -5.298,3.312 -6.625,7.283 l -1.984,5.305 c -3.313,1.319 -5.301,4.631 -7.949,9.27 -1.986,4.638 -3.977,8.609 -4.635,13.247 l 7.283,-5.298 z"
             id="path199"
             
             style="fill:#d96038" /></g></g><g
         id="g201"><g
           id="g203"><path
             d="m 210.895,31.058 0,-0.66 -0.663,-2.651 -4.635,-0.66 -8.613,4.632 1.326,-5.292 -1.326,-2.651 -2.648,-0.66 -30.471,5.958 c -14.569,3.978 -25.831,8.61 -33.778,14.573 -7.949,5.298 -13.911,11.922 -16.56,20.532 L 83.72,78.083 74.444,76.764 c -5.959,-1.326 -10.595,-1.326 -13.247,0 -5.962,2.652 -9.272,7.284 -11.259,13.908 -3.313,2.652 -5.301,5.964 -7.949,10.595 -1.986,3.978 -3.975,8.616 -4.635,13.247 l 0,0.667 c 0,1.326 0.66,1.986 1.322,2.646 l 3.975,-0.66 c 8.609,-5.963 13.911,-9.276 17.886,-9.936 l 5.962,0 c 7.945,1.326 13.247,-0.66 17.882,-3.972 l 18.548,-11.928 c 8.61,-4.631 15.233,-7.943 19.871,-7.943 l 32.455,2.652 29.146,10.596 c 19.208,8.609 32.455,18.544 39.742,29.807 0.663,0.66 1.326,1.32 3.313,0.66 l 2.648,-1.986 0,-4.637 -1.985,-13.908 3.975,0.66 2.648,-3.312 0,0 c 0,-6.624 -2.648,-12.588 -6.623,-19.871 -6.625,-11.922 -19.209,-20.531 -36.432,-26.495 9.271,-6.625 15.896,-15.235 19.208,-26.496 z m -21.195,-0.661 -4.638,4.632 c -0.663,0.667 -1.326,1.992 -1.326,2.652 l 0,1.326 c 0.663,1.986 1.326,2.646 3.312,1.986 l 13.91,-3.312 -12.584,13.248 -6.624,4.638 c -0.662,0.667 -1.326,1.326 -1.326,3.312 l 0,0 c 0,1.327 0.664,2.646 1.989,3.313 17.882,3.978 29.145,11.921 34.441,23.183 l 1.326,0 6.624,6.624 c -0.663,-3.312 -3.976,-5.297 -7.95,-6.624 l -2.648,0.667 -1.323,1.979 1.323,1.992 c 4.638,6.624 7.949,14.567 9.272,25.168 -9.272,-9.935 -23.184,-19.204 -41.065,-26.494 -11.261,-5.298 -20.534,-8.61 -25.832,-9.27 l -1.327,0 -23.845,-1.333 -7.286,-1.319 -1.324,0 c -5.301,0 -13.247,3.312 -23.184,8.609 -8.611,4.638 -15.235,9.27 -19.87,13.248 -2.649,1.986 -6.624,3.313 -13.247,1.986 l -6.624,0 c -3.313,0 -7.288,2.652 -13.249,5.964 2.65,-5.304 5.299,-9.276 7.947,-11.262 l 1.327,-1.986 c 1.985,-5.304 3.975,-8.616 7.285,-9.936 l 9.937,0 11.922,0.66 c 5.301,-0.66 16.559,-5.298 32.455,-13.908 l 1.99,-1.992 c 1.986,-7.943 6.623,-14.567 14.57,-19.872 7.285,-4.632 17.885,-9.27 31.132,-12.581 l 24.51,-5.298 z m 28.481,54.977 -1.326,0 c 3.975,1.327 7.287,3.313 7.95,6.624 l -6.624,-6.624 z"
             id="path205"
              /></g></g><g
         id="g207"><g
           id="g209"><path
             d="m 171.814,56.893 c -9.272,1.32 -16.561,5.298 -23.184,11.922 0,1.326 0,1.986 0,3.312 l 3.313,-0.666 c 5.961,-5.958 12.585,-9.269 20.535,-11.255 l 11.258,0 c 0.663,0.659 1.326,0 1.989,-1.327 l -1.326,-1.986 -12.585,0 z"
             id="path211"
              /></g></g><g
         id="g213"><g
           id="g215"><path
             d="m 70.473,91.998 c -0.664,-2.646 -1.988,-3.978 -3.975,-3.978 -1.327,0.667 -2.649,1.992 -2.649,3.978 0,1.986 1.322,3.312 3.312,3.312 2.648,0 3.312,-1.327 3.312,-3.312 z"
             id="path217"
              /></g></g><g
         id="g219"><g
           id="g221"><path
             d="m 264.547,80.076 c -11.261,-3.312 -23.183,-4.638 -35.104,-3.312 l -14.574,1.986 c 6.623,1.326 13.248,4.638 18.546,7.95 l -26.495,-1.327 -12.585,5.298 27.82,2.652 c 4.635,0.66 9.937,3.312 15.897,5.297 5.96,1.986 15.896,7.95 29.144,18.545 L 303.627,98.62 c -6.624,-6.622 -19.871,-13.246 -39.08,-18.544 z"
             id="path223"
             
             style="fill:#fcce00" /></g></g><g
         id="g225"><g
           id="g227"><path
             d="m 306.939,99.288 -0.663,-2.652 c -7.947,-7.95 -21.857,-13.907 -40.403,-19.872 -11.924,-3.312 -24.509,-4.638 -36.43,-3.972 l -15.237,2.646 c -1.986,0 -2.648,1.326 -2.648,3.312 0,1.326 0.662,1.986 2.648,1.986 -5.298,1.326 -9.936,2.652 -15.232,4.638 l -6.625,3.313 -1.326,1.986 0.663,1.326 c 0,1.986 1.326,2.646 3.312,1.986 l 22.521,1.326 13.911,4.638 5.961,1.986 c 4.638,1.985 13.909,7.95 27.82,17.885 l 3.313,0 36.431,-17.885 1.984,-2.647 z m -39.08,13.907 c -13.247,-9.936 -22.521,-15.24 -28.481,-17.219 l -4.638,-1.993 c -7.286,-3.312 -13.911,-5.297 -20.534,-5.297 l -1.323,-0.667 1.323,0.667 17.223,1.326 c 1.986,0 3.312,0 4.638,-1.992 l 0.66,-1.319 -1.986,-3.313 -7.286,-3.312 c 13.247,-1.326 24.509,0 36.431,3.312 14.573,3.972 25.832,9.276 33.781,15.233 l -29.808,14.574 z"
             id="path229"
              /></g></g><g
         id="g231"><g
           id="g233"><path
             d="m 301.642,135.052 26.495,14.574 c 19.207,11.921 32.455,24.502 37.753,37.09 l 1.326,-11.921 c 0,-9.935 -1.986,-18.545 -6.624,-25.169 l 3.975,3.972 8.609,13.906 c 0.663,-5.957 0.663,-11.914 -2.648,-19.205 -5.298,-13.914 -17.886,-25.168 -37.093,-33.119 l 9.935,-5.297 c 7.287,-4.638 13.911,-11.262 17.223,-19.211 -7.95,3.972 -15.233,5.304 -21.197,4.638 5.301,-1.986 8.612,-5.298 9.936,-9.936 L 317.537,86.7 c -13.91,1.319 -25.169,3.972 -33.118,8.609 -9.272,3.978 -15.896,9.936 -19.872,18.545 l -33.118,9.276 -10.6,-2.652 -10.598,-1.986 c -3.312,1.326 -5.961,3.312 -8.609,6.624 l -3.313,4.639 c -2.649,1.319 -5.961,3.971 -8.609,7.943 -2.652,3.977 -5.301,7.29 -5.964,11.928 l 7.949,-3.972 c 5.961,-2.653 9.937,-3.979 12.585,-3.979 l 9.936,1.986 11.925,-1.986 c 5.298,-2.645 11.922,-5.957 21.193,-9.269 9.937,-3.978 17.223,-5.964 22.521,-5.304 l 7.95,2.652 23.847,5.298 z"
             id="path235"
             
             style="fill:#fcce00" /></g></g><g
         id="g237"><g
           id="g239"><path
             d="m 183.736,149.626 7.949,-3.972 c 5.961,-2.653 9.937,-3.979 12.585,-3.979 l 9.936,1.986 11.925,-1.986 3.313,-1.985 c 5.297,-5.304 8.609,-11.928 11.921,-19.211 l -9.936,2.652 -10.6,-2.652 -10.598,-1.986 c -3.312,1.326 -5.961,3.312 -8.609,6.624 l -3.313,4.639 c -2.649,1.319 -5.961,3.971 -8.609,7.943 -2.652,3.976 -5.301,7.289 -5.964,11.927 z"
             id="path241"
             
             style="fill:#d96038" /></g></g><g
         id="g243"><g
           id="g245"><path
             d="m 317.537,83.388 c -14.572,1.986 -26.495,4.632 -35.768,8.61 -7.95,4.638 -14.573,10.602 -18.548,18.545 l -31.793,9.276 -9.273,-2.652 c -5.301,-1.986 -9.936,-3.312 -13.247,-1.986 -5.301,1.326 -9.935,5.299 -13.248,11.922 -3.312,2.652 -5.96,5.304 -8.612,9.276 l -6.624,12.587 0,0.66 c 0,0.659 0,1.985 0.664,2.651 l 3.975,0.66 c 9.272,-5.304 15.896,-7.95 19.208,-7.95 l 5.301,1.326 18.546,-1.326 c 3.975,-3.313 10.598,-5.957 19.87,-9.27 l 20.535,-5.304 c 6.624,2.651 17.223,5.964 32.455,7.951 l 26.496,14.573 c 18.545,11.256 29.807,23.184 35.104,35.105 l 3.312,1.986 3.312,-1.986 1.326,-13.914 -0.663,-5.958 0.663,1.326 c 0.663,0.66 1.986,1.986 3.312,1.32 l 2.649,-2.646 0.664,-4.637 c 0,-7.284 -1.986,-15.234 -6.625,-21.858 -5.961,-10.601 -15.896,-19.205 -29.807,-26.495 10.6,-5.297 18.546,-13.247 23.184,-22.516 l 0,-1.992 0,-1.986 -4.638,-0.667 -9.273,2.652 1.989,-4.632 0.659,-0.667 -1.321,-1.986 -2.65,-1.326 -31.134,1.328 z m 14.574,28.482 c -1.326,1.325 -1.989,1.985 -1.989,3.311 l 0,0 c 0,1.986 0.663,3.313 1.326,3.313 16.559,6.624 27.158,16.559 30.47,28.481 0.66,-0.66 0.66,-0.66 0.66,0 l 6.623,7.283 c -0.659,-2.646 -3.312,-5.958 -7.283,-7.283 -1.326,-0.66 -1.989,-0.66 -2.651,0 l -1.986,2.652 0.663,1.985 c 3.975,6.624 5.961,13.915 5.961,22.517 l 0,2.651 c -7.95,-10.595 -19.872,-21.856 -36.431,-31.792 -10.6,-6.623 -19.209,-11.262 -24.509,-13.248 l -0.66,0 -23.847,-5.298 -7.287,-2.653 -1.326,0 c -5.298,-0.659 -13.247,1.327 -24.506,5.965 -8.612,3.311 -15.236,6.624 -20.534,9.276 l -13.247,0.659 -7.287,-1.325 -13.911,4.637 c 3.313,-5.303 6.624,-9.276 9.936,-10.595 l 1.327,-1.993 c 2.648,-5.298 5.961,-7.943 9.272,-8.61 l 9.272,1.327 c 3.975,2.651 7.95,3.312 11.262,3.312 5.961,-0.66 16.559,-3.972 34.444,-9.936 l 1.986,-1.326 c 6.623,-14.573 23.183,-22.516 50.341,-25.168 l 25.169,-1.326 -5.96,3.978 c -0.663,0.66 -1.326,1.319 -1.326,2.646 l 0,0.667 c 0,1.979 1.326,2.645 2.651,2.645 l 13.907,-1.326 c -3.312,4.638 -7.946,8.616 -13.247,11.261 l -7.283,3.313 z m 30.467,35.104 c 0,-0.66 0,-0.66 -0.66,0 3.972,1.325 6.624,4.637 7.283,7.283 l -6.623,-7.283 z"
             id="path247"
              /></g></g><g
         id="g249"><g
           id="g251"><path
             d="m 321.512,111.87 c -8.612,0 -17.222,3.311 -24.509,8.609 -0.663,1.325 -0.663,1.992 0,2.652 l 2.648,0 c 6.625,-4.638 13.911,-6.625 21.86,-7.285 l 11.26,1.32 c 0.663,0.66 1.325,0 1.988,-0.66 0,-1.326 0,-2.651 -0.663,-3.312 l -12.584,-1.324 z"
             id="path253"
              /></g></g><g
         id="g255"><g
           id="g257"><path
             d="m 215.532,131.74 c 0.663,-2.646 0,-4.638 -1.989,-4.638 -1.985,0 -3.312,1.326 -3.972,3.312 -0.663,2.651 0.66,3.972 2.648,3.972 2.65,0.666 3.313,-0.66 3.313,-2.646 z"
             id="path259"
              /></g></g></g></g>
             <path
             id="PATH77"
             stroke-miterlimit="100"
             d="m 364.58157,579.58157 -357.1631356,0 0,-572.1631344 357.1631356,0 0,572.1631344 0,0 z"
             
             style="fill:none;stroke:#000000;stroke-width:14.83686829;stroke-miterlimit:100;stroke-dasharray:none" />
</svg>
