<?xml version="1.0" encoding="UTF-8" standalone="no"?>
<!-- Created with Inkscape (http://www.inkscape.org/) -->

<svg
   xmlns:dc="http://purl.org/dc/elements/1.1/"
   xmlns:cc="http://creativecommons.org/ns#"
   xmlns:rdf="http://www.w3.org/1999/02/22-rdf-syntax-ns#"
   xmlns:svg="http://www.w3.org/2000/svg"
   xmlns="http://www.w3.org/2000/svg"
   xmlns:sodipodi="http://sodipodi.sourceforge.net/DTD/sodipodi-0.dtd"
   xmlns:inkscape="http://www.inkscape.org/namespaces/inkscape"
   width="372"
   height="587"
   viewBox="0 0 371.99999 587.00004"
   id="svg4177"
   version="1.1"
   inkscape:version="0.91 r13725"
   sodipodi:docname="cardback.svg">
  <defs
     id="defs4179">
    <filter
       inkscape:collect="always"
       id="filter7685">
      <feGaussianBlur
         inkscape:collect="always"
         stdDeviation="0.85215953"
         id="feGaussianBlur7687" />
    </filter>
  </defs>
  <sodipodi:namedview
     id="base"
     pagecolor="#ffffff"
     bordercolor="#666666"
     borderopacity="1.0"
     inkscape:pageopacity="0.0"
     inkscape:pageshadow="2"
     inkscape:zoom="0.49497475"
     inkscape:cx="18.068466"
     inkscape:cy="287.72556"
     inkscape:document-units="px"
     inkscape:current-layer="layer1"
     showgrid="false"
     units="px"
     inkscape:window-width="1366"
     inkscape:window-height="699"
     inkscape:window-x="0"
     inkscape:window-y="27"
     inkscape:window-maximized="1" />
  <metadata
     id="metadata4182">
    <rdf:RDF>
      <cc:Work
         rdf:about="">
        <dc:format>image/svg+xml</dc:format>
        <dc:type
           rdf:resource="http://purl.org/dc/dcmitype/StillImage" />
        <dc:title></dc:title>
      </cc:Work>
    </rdf:RDF>
  </metadata>
  <g
     inkscape:label="Layer 1"
     inkscape:groupmode="layer"
     id="layer1"
     transform="translate(0,-465.36212)">
    <rect
       style="opacity:1;fill:#aa4400;fill-opacity:1;stroke:none;stroke-width:15;stroke-linejoin:miter;stroke-miterlimit:100;stroke-dasharray:none;stroke-opacity:1"
       id="rect4725"
       width="372"
       height="587"
       x="-3.0517585e-05"
       y="465.36218" />
    <g
       transform="translate(-286.39365,-2698.654)"
       id="g7695">
      <path
         
         id="path4664"
         d="m 477,3352.5938 c -12.02711,0.8605 -23.05864,6.4625 -33.0625,12.875 -1.00656,5.244 3.16947,14.3267 -4.78287,14.4261 -16.56003,4.1887 -31.8526,15.3543 -37.35144,31.9782 -4.58505,10.9388 -6.07213,22.69 -5.64694,34.5019 0.37704,20.7276 0.13133,42.6837 9.875,61.4688 6.44011,10.9566 14.53773,21.2547 26.25,26.9687 14.44473,7.5458 30.92425,10.1232 46.90625,12.4375 14.23989,-2.1577 29.39525,-3.9291 40.78125,-13.6875 12.18283,-8.3647 20.67301,-21.0631 24.71875,-35.1875 7.1137,-24.9884 7.52243,-52.0693 1.46875,-77.3125 -4.00712,-12.8447 -8.90566,-27.1668 -21.875,-33.4687 -5.49579,-3.1053 -11.7678,-5.0403 -17.46875,-7.5938 -2.99457,-8.1205 -3.85658,-18.1268 -12,-22.8125 -5.14871,-3.5721 -11.55477,-4.9646 -17.8125,-4.5937 z"
         style="color:#000000;display:inline;overflow:visible;visibility:visible;fill:#f4eede;fill-opacity:1;fill-rule:nonzero;stroke:none;stroke-width:1px;marker:none;filter:url(#filter7685);enable-background:accumulate" />
      <g
         transform="matrix(0.56109285,0,0,0.56109285,-178.26739,2864.1078)"
         id="g4714">
        <path
           
           id="path11608"
           transform="matrix(1.7822362,0,0,1.7822362,317.7146,534.619)"
           d="m 471.375,167.15625 c -1.77339,0.004 -3.95855,0.25 -7.1875,0.25 l -3.09375,0.84375 0.28125,1.40625 c 3.36656,0.37406 4.49719,1.50469 3.375,3.375 l -31.4375,3.375 c -0.74827,1.49513 -17.63793,1.76316 -24.125,21.3125 -0.18701,20.99391 -0.37549,23.40733 -0.5625,35.0625 l -1.125,3.65625 -1.09375,4.5 -3.40625,7.5 -3.90625,12.6875 c -2.34907,2.65285 -1.23175,20.74274 -0.84375,30.125 0.6034,14.59128 1.70472,29.48334 2.34375,33.09375 0.36476,4.49406 2.07813,9.40567 4.3125,14.125 -0.37032,17.57919 1.17182,34.17629 -2.8125,53.5625 -2.45848,5.14472 -1.6141,14.63723 -20.5625,15.90625 -2.72167,-1.16309 -3.14106,-0.012 -1.875,2.8125 2.89308,1.96803 3.04265,3.46394 11.40625,6.34375 3.22696,-1.2096 5.05644,3.14435 14.78125,-13.28125 3.83961,-8.29682 5.52804,-16.99212 6.90625,-25.78125 0.76982,-4.64871 2.57496,-2.12553 4.3125,0 19.27225,17.17522 25.72074,16.00084 31.59375,19.0625 l 4.3125,0 2.25,2.625 -2.625,5.96875 -0.9375,2.4375 0.1875,2.0625 -2.8125,0.9375 -3.75,-0.1875 -2.78125,1.5 -1.125,1.125 0.75,1.6875 3.34375,2.21875 2.0625,2.25 2.4375,-1.875 2.0625,-0.375 1.6875,-4.46875 0.5625,-5.25 1.5,-3.375 1.65625,-3.71875 3.1875,1.3125 1.875,-2.25 1.5,-1.875 3.9375,1.125 3.15625,2.625 2.4375,0.75 2.4375,-2.0625 1.3125,-0.75 3,0.5625 0.9375,-0.375 3.15625,2.0625 2.8125,-2.0625 3.5625,-1.6875 3.71875,-1.5 2.8125,0.375 1.6875,2.625 -0.1875,1.6875 2.0625,1.875 2.25,1.84375 0.5625,5.625 0,2.0625 2.625,2.4375 3.71875,0.375 5.625,-0.375 3.1875,-1.6875 3.53125,-1.5 -1.6875,-1.6875 -2.59375,-2.8125 -2.25,0.375 -6,0.1875 -0.1875,-3.375 -1.125,-2.21875 -3.15625,-3.5625 -2.4375,-3.1875 -2.8125,-1.6875 2.625,-0.9375 3.1875,0.1875 0.90625,-1.5 0.375,-2.40625 -0.75,-2.25 0.5625,-4.3125 -0.1875,-3.75 0.15625,-2.75 c 5.81594,-3.02759 10.37615,-6.58813 13.6875,-9.59375 l 4.6875,-3.34375 c 17.9598,-16.55841 20.18517,-35.76068 22.3125,-52.0625 2.8255,-21.6524 3.0304,-44.38977 -7.90625,-70.0625 -6.71578,-7.32217 -1.56933,-12.05823 -33.46875,-24.875 l -0.875,0.46875 c 0.0515,-2.69371 -0.36831,-5.74383 -0.25,-10.59375 -0.95343,-2.2344 -2.73058,-3.25518 -4.78125,-3.84375 0.38892,-0.34684 0.74378,-0.73921 0.96875,-1.25 1.10151,-1.188 2.04281,-2.44803 0.4375,-4.71875 -0.69884,-11.35279 -0.67759,-14.13585 -12.625,-19.625 -2.55742,-0.1152 -5.81546,-0.43889 -9.40625,-0.53125 0.20195,-1.03207 0.33623,-2.3534 0.15625,-4.53125 -3.73832,-3.77982 -5.57561,-4.47613 -8.53125,-4.46875 z m -16.5625,11.78125 c 1.81364,-0.0138 3.7038,0.0474 5.65625,0.21875 -5.41555,2.30623 -10.46644,6.25778 -14.25,12.9375 -2.43368,5.56587 -1.56366,8.65089 -1.125,12.0625 l 0.25,-0.21875 -0.8125,1.90625 c 0.0329,3.03639 0.29893,5.98314 0.84375,9.28125 l -0.5625,-0.5625 -9.53125,2.78125 -1.96875,0.84375 0.84375,1.96875 3.9375,-1.96875 1.40625,0 4.75,-1.125 1.40625,-0.5 c 0.53658,2.92863 1.25986,6.17549 2.25,10.0625 0.30002,2.13139 2.85929,2.02182 5.34375,1.96875 8.16469,0.75534 10.2941,-0.0703 15.71875,0 7.93582,1.51638 14.32887,0.0538 19.90625,-0.5625 5.01555,-0.74812 9.92354,-1.50188 13.46875,-2.25 1.93341,-2.99244 2.6774,-5.16542 2.9375,-7.375 l 0.4375,0.25 c 22.93287,6.68957 27.13564,14.85189 31.59375,23 8.02295,17.58659 10.69225,31.98314 10.28125,44.53125 -0.98786,30.15717 -0.10273,52.90028 -24.5,77.625 -8.68374,7.24031 -17.55652,11.32654 -26.6875,13.34375 -4.73616,0.79439 -9.63229,1.44874 -15.375,1.59375 -0.15597,10e-4 -0.31263,0.031 -0.46875,0.0312 -0.53446,0.0105 -1.10628,-4.9e-4 -1.65625,0 -5.13676,-0.0804 -10.339,-0.59018 -15.65625,-1.3125 -1.21239,-0.1647 -2.36362,-0.34098 -3.5,-0.53125 -2.48566,-0.44623 -5.14503,-1.01208 -7.9375,-1.65625 -13.82432,-3.57266 -21.70789,-9.51283 -31.78125,-16.59375 l -10.4375,-14.40625 -0.78125,-1.25 -3.53125,-7.09375 -0.5625,-5.25 -1.125,-4.46875 -2.25,-20.03125 0,-5.96875 -0.5625,-4.3125 0.1875,-4.84375 -0.5625,-3.9375 -1.5,-12.15625 -0.375,-5.0625 1.875,-5.96875 1.125,-5.625 1.5,-5.78125 1.125,-5.625 3.71875,-4.875 2.625,-6.34375 3.75,-3.1875 3.5625,-4.09375 4.09375,-1.5 3.9375,-2.25 0.375,-2.4375 -3,0.9375 c -2.71535,1.48352 -5.4409,2.41968 -8.15625,5.78125 l -3,0.1875 -0.0625,-0.5312 c 2.27192,-0.80489 1.4666,-5.74165 1.6875,-9.28125 3.50515,-11.98846 -5.23064,-22.34606 18.5,-37.03125 7.2617,-1.48698 14.29551,-3.28048 22.625,-3.34375 z m 20.75,1.90625 c 3.34518,-0.0275 7.1031,0.25153 11.34375,0.875 8.43715,2.43949 6.54779,6.45353 7.84375,9.28125 l 1.78125,3.8125 -0.9375,-0.75 c -3.71028,-1.42337 -3.76954,-3.43415 -11.5,-4.1875 -5.10067,0.15219 -15.26775,-1.3525 -33.375,7.28125 l -0.3125,0.21875 -0.53125,-3.03125 c 4.46706,-7.58948 11.19174,-13.38064 25.6875,-13.5 z m 5.5625,10.53125 c 0.89887,0.0218 1.78112,0.0668 2.6875,0.15625 4.77888,1.01763 5.05071,3.38423 10.65625,5.34375 l 3.9375,4.21875 0.75,0.875 c -0.063,-0.0128 -0.12417,-0.019 -0.1875,-0.0312 -4.86108,6.19428 -35.09014,9.13938 -49.9375,2.5 l -2.15625,-1.34375 4.96875,-3.40625 c 3.4139,-1.75492 15.79817,-8.63974 29.28125,-8.3125 z M 420.03125,360.5 c 10.26757,7.35925 19.76526,12.60841 28.53125,16.15625 l -0.28125,0.4375 1.3125,1.125 0.1875,12.15625 c -11.53427,-4.14687 -22.6359,-9.88692 -29.75,-29.75 l 0,-0.125 z"
           style="fill:#000000;stroke:none" />
        <g
           style="fill:#000000;stroke:none"
           id="g11641">
          <path
             style="fill:#000000;stroke:none"
             d="m 1028.3333,1022.6667 2.3334,0.3333 59.6666,-45 7.6667,-6 8,-3 3,2.33333 91.3333,107.33337 -4.6666,3.3333 c 0,0 -4,5.6667 -5.6667,6 -1.6667,0.3333 -4.6667,1 -4.6667,1 l -5.6666,6.3333 -35.3334,29 -39,34.3334 -8,5 L 1094,1165 l -10.3333,-9.3333 -33,-34.6667 L 1034,1104.3333 1030.3333,1079 l 2,-0.6667 29.3334,28.6667 33.6666,32.3333 5.6667,5.3334 66.6667,-55.3334 14,-13.3333 -0.3334,-1 -39,-45.3333 -30,-32.6667 -10.6666,-12 -1.6667,0 -30.6667,24.6667 -23.6666,20.3333 -13.6667,13.6667 -2,0 -2,-14 z"
             id="path11633"
              />
          <path
             style="fill:#000000;stroke:none"
             d="m 1047.3333,1026.6667 1.3334,6 80,83 L 1136,1116 1131.6667,1126.6667 1118,1131 l -2.6667,-6.6667 -79.6666,-80.6666 -4.3334,-2 5.3334,-11 z"
             id="path11635"
              />
          <path
             style="fill:#000000;stroke:none"
             d="m 1055.6667,1018.6667 6.6666,1.3333 17.3334,15.6667 4.6666,4.6666 4.3334,-1.6666 2,-6 5,-1.3334 L 1109,1022 l 18.3333,-11.3333 -3.3333,-9 -8.6667,-2.00003 -13.6666,11.33333 -10,9 -5.6667,-1.3333 -12.3333,-16.6667 -10.3334,4 z"
             id="path11637"
              />
          <path
             style="fill:#000000;stroke:none"
             d="m 1081.6667,1066.6667 41,-26.3334 4,-1.6666 17.3333,22 8.6667,7.3333 -0.6667,3 -9.6667,7.6667 -16.3333,16.6666 -6.3333,7.3334 -0.6667,3 -11.3333,-7.3334 -4.3334,-9 4.3334,0.6667 6,-3 19.6666,-18 -0.3333,-3.3333 -12,-10.3334 -3.3333,-0.6666 -10.6667,7.6666 -12.3333,10.3334 -1,3 1.6666,8.6666 -13,-10 z"
             id="path11639"
              />
        </g>
        <g
           style="fill:#000000;stroke:none"
           id="g11683">
          <path
             style="fill:#000000;stroke:none"
             d="m 1198,970.66667 0,5.66666 c -4.494,20.61209 -27.5577,44.78127 -30.3333,44.66667 l -0.6667,2.6667 3.6667,-0.6667 c 17.9423,-17.5237 20.393,-23.78081 29.6666,-35 L 1202,987.33333 c 1.1171,-2.3514 2.6607,-5.98204 4.6667,-11 L 1208.3333,971 c -2.2138,-5.03354 -6.4167,-2.11101 -10.3333,-0.33333 z"
             id="path11647"
             
             sodipodi:nodetypes="cccccccccc" />
          <path
             style="fill:#000000;stroke:none"
             d="m 1202.3333,980.66667 c 7.5667,3.24434 15.574,2.96352 22.3334,12.66666 1.8174,5.77382 3.2926,11.26247 -5.3334,8.33337 -4.1372,-3.74506 -7.8458,-6.20424 -13.6666,-15.00003 l -5,-3.66667 z"
             id="path11649"
             
             sodipodi:nodetypes="cccccc" />
          <path
             style="fill:#000000;stroke:none"
             d="m 1189.6667,999.33333 c 7.2222,0.22602 14.4444,1.05387 21.6666,-7.33333 l 7.6667,3 -2.3333,6 -3,1.3333 -1.3334,2.6667 0.6667,8.3333 9,-0.3333 6,-1.6667 c 0,0 -3,7.6667 -4.3333,7.6667 -1.3334,0 -4,-1.3333 -4,-1.3333 l -5.3334,4.6666 -0.6666,1.6667 1,2.6667 2.6666,-3.6667 5.3334,0 2.6666,1.3333 2.6667,4.3334 -2.6667,1 c 0,0 -3,1.3333 -4.3333,1 -1.3333,-0.3334 -3.3333,-0.3334 -3.3333,-0.3334 l -1.3334,4.3334 -2.6666,2.3333 0.3333,3.6667 c 0,0 0,1.3333 4,-0.6667 4,-2 6.6667,-2.6667 6.6667,-2.6667 L 1230,1039 l 1,1.6667 -3.6667,3 -7.6666,2 -4.3334,3.6666 -4.6666,0.6667 c 0,0 2,-1 -0.3334,2.6667 -2.3333,3.6666 -1.6666,4 -3,4.3333 -1.3333,0.3333 3,2.3333 -3.6666,0 -6.6667,-2.3333 -5,-3 -9,-4.3333 -4,-1.3334 -4,2.6666 -6,-2.6667 -2,-5.3333 -4.3334,-11.6667 -4.3334,-11.6667 l 0,-5.3333 4,0.6667 8.3334,4.3333 8.6666,6.3333 2.3334,-4 L 1206,1034 l -0.6667,-11 -5.3333,2.6667 -5.6667,1.3333 -4.3333,-2.3333 -1.6667,-4.6667 4,-1 6.6667,0.6667 4.3333,-2.3334 0,-4 1,-2.6666 -2.6666,-1.3334 -4.6667,2 -4.6667,-0.6666 -6,-2 0,-4.3334 z"
             id="path11651"
             
             sodipodi:nodetypes="cccccccccsccccccccccccccscccccccscscsccccccccccccccccccccccc" />
          <path
             style="fill:#000000;stroke:none"
             d="m 1226.3333,961.66667 10.3334,1.66666 9.3333,-0.66666 4.3333,-2 2,3.66666 -2,5.66667 0.3334,3.66667 -2,0.66666 c 0,0 -4.3334,-4.33333 -5.3334,-2.66666 -1,1.66666 -1.6666,4.66666 -1.6666,4.66666 l -7.6667,7 -7.3333,3.33334 -4,-1 0,-2.66667 3.6666,-3 L 1229,974.66667 1235.6667,969 1228,965.33333 l -2,-1.66666 z"
             id="path11653"
              />
          <path
             style="fill:#000000;stroke:none"
             d="m 1231,984.66667 c 1.3333,0.33333 7.3333,1.66666 7.3333,1.66666 l 4.6667,-1 9.6667,-2.33333 9,-2.33333 4,-0.66667 4,4.33333 L 1273,989 l 3.3333,1.66667 -2.3333,5 -6,4.66663 -3.3333,7.6667 c 0,0 -1,4 -2.3334,4 -1.3333,0 -6,0 -6,0 l 0,3.3333 3.3334,1.6667 6.6666,-2 2.6667,0.6667 4.6667,6.3333 4.3333,4.3333 -1.6667,6.6667 -4.3333,9 -3.3333,9 -6,0.3333 -6.3334,9.3334 -2,6 -7.6666,-0.6667 -5.6667,-6.6667 0.3333,-2.6666 4,2 9,-3.3334 L 1260,1049 l 3.3333,-9 1,-7 c 0,0 0,-3 0,-5.3333 0,-2.3334 0,-4 0,-4 0,0 -0.3333,-1 -2.3333,-1.3334 -2,-0.3333 -1.3333,-0.6666 -3.3333,0.6667 -2,1.3333 -5.3334,3 -5.3334,3 l -7,1.3333 c 0,0 -2.3333,-1.3333 -5,-1.6666 C 1238.6667,1025.3333 1238,1027 1238,1027 l 1.6667,7.6667 -1.6667,2 3.6667,8.3333 0.6666,2.6667 -5,8 c 0,0 -4.6666,-5.6667 -7,-8 -2.3333,-2.3334 -3,-3.6667 -3,-3.6667 l -1,-8.6667 -0.3333,-4.6666 c 0,0 1,-3 2.3333,-5 1.3334,-2 3.6667,-3.6667 3.6667,-3.6667 l 3.6667,-2.3333 7.3333,3.3333 1.3333,-0.6667 7.3334,-7 -0.6667,-6.6666 c 0,0 6.6667,-0.6667 6,-2 -0.6667,-1.3334 -1,-7.33337 -1,-7.33337 l 2.6667,-5.66666 -0.3334,-5 c 0,0 -5,2 -7.3333,3 -2.3333,1 -6,1.66666 -6,1.66666 l -5.3333,0 L 1235,990.66667 1232.3333,991 1227,989 l -2.3333,-4.33333 4,-1.33334 z"
             id="path11655"
              />
          <path
             style="fill:#000000;stroke:none"
             d="m 1223.6667,985.33333 -1.6667,5.33334 1.6667,7 1.3333,7.00003 0.3333,5.6666 4.6667,3.6667 4.3333,3.3333 4.3334,1 3.6666,-2.6666 4.3334,-3 6.6666,0.3333 1.3334,-3.3333 L 1250,1009 l -5.3333,-0.3333 -4,2 -2.6667,2 -0.3333,-6.3334 -2,-6 -1.6667,-4.99997 0.6667,-5 -4.6667,-6 z"
             id="path11657"
              />
          <path
             style="fill:#000000;stroke:none"
             d="m 1236.3333,1003.3333 c 1.3334,-0.3333 4.3334,-2.3333 4.3334,-2.3333 0,0 2.6666,1 4.6666,0.3333 2,-0.6666 5,-1.3333 5,-1.3333 l 5.3334,-1 5.3333,2 -5,4.6667 -4,-0.6667 -3.6667,0.3333 -2.6666,0.3334 -3,1.6666 -4,0 -4.3334,-1.6666 z"
             id="path11659"
              />
          <path
             style="fill:#000000;stroke:none"
             d="m 1243.6667,1015.6667 0.3333,5 2.6667,10.6666 -0.6667,14 0.3333,9.6667 2,3.6667 c 0,0 7.3334,-1.6667 6.3334,-3 -1,-1.3334 -1,-12 -1,-12 l 1.3333,-11 1,-9.6667 -2,-9.3333 -5.3333,-3.3334 -4.6667,1 z"
             id="path11661"
              />
          <path
             style="fill:#000000;stroke:none"
             d="m 1195.6667,1094.6667 -2,2 4.3333,5.6666 2.3333,1.6667 -2,5 -1,7.6667 0,7.3333 1.3334,4 5,3.6667 0.6666,-5.3334 1,-5.6666 3,-5.3334 0.3334,-8.6666 -3,-6 L 1208,1096 l -4.3333,-5 -5.6667,3.3333 z"
             id="path11663"
              />
          <path
             style="fill:#000000;stroke:none"
             d="m 1180.6667,1109.6667 -2.6667,3 5.6667,4 2,6 7,2 4.6666,-3 10,-5 8,-4.6667 7.6667,-2.6667 3.6667,-3.6666 -3.3334,-6.3334 -4,-0.3333 -2.6666,4 c 0,0 -2.6667,2.3333 -4,2.6667 -1.3334,0.3333 -4.6667,0.6666 -4.6667,0.6666 l -10.3333,3.6667 -3,-1.3333 -8.3334,1.3333 -4,-1.3333 z"
             id="path11665"
              />
          <path
             style="fill:#000000;stroke:none"
             d="m 1192.3333,1129 5.6667,1 9.3333,-3.3333 6,-1.6667 5.3334,-2 4.3333,2.6667 3.3333,4.3333 -0.3333,5 -5,9.3333 -4.3333,7 -2,0.6667 -2.3334,-4 1,-3 1.6667,-10.3333 -1,-3.3334 c 0,0 -2,-0.6666 -3.3333,-0.3333 -1.3334,0.3333 -6.6667,2.3333 -6.6667,2.3333 l -2.3333,2.6667 -5,-0.6667 L 1194,1134 l -3.3333,-2.3333 z"
             id="path11667"
              />
          <path
             style="fill:#000000;stroke:none"
             d="m 1180.6667,1132.3333 5.3333,-1 6,5.3334 -0.3333,7.3333 -2.6667,6 0.6667,6.6667 4.3333,-3 12.6667,0 4.6666,-3.3334 5.6667,0.3334 -4,6.3333 -5.3333,0.3333 -5.6667,3.3334 -10,1.6666 -4,0.3334 -4.6667,-8.6667 -3,-5.3333 L 1181,1141 l -0.6667,-5.6667 z"
             id="path11669"
              />
          <path
             style="fill:#000000;stroke:none"
             d="m 1192,1141.6667 6,1.3333 4,-3.3333 7,-1 6.3333,-3 -1.3333,5.6666 c 0,0 -1.3333,1.3334 -2.6667,1.3334 -1.3333,0 -5.6666,0 -5.6666,0 l -6.6667,4.6666 -3,0.3334 -7.6667,-3.3334 -0.3333,-2 z"
             id="path11671"
              />
          <path
             style="fill:#000000;stroke:none"
             d="m 1198.6667,1161 -0.6667,4.6667 0.6667,2 -8.3334,1 -9,2.3333 -6.6666,2.3333 L 1171,1174 l 1.6667,2.3333 5.3333,4.3334 4,-0.3334 1.6667,1 5.3333,-3.6666 7.3333,-1.6667 4.3334,-1.3333 -2.3334,8 -4.6666,-0.3334 2,2.3334 5,5.6666 L 1203,1187 l 3,-8 2.3333,-7.3333 6.6667,0 4,-0.6667 4.3333,-4 5,-3.6667 -10.6666,-0.6666 -5.3334,1 -2.3333,-3 -4.3333,-4 -4.3334,1.6666 z"
             id="path11673"
              />
          <path
             style="fill:#000000;stroke:none"
             d="m 1221.6667,1107 7.6666,1 4,-4 4,3.6667 11.6667,-7.3334 5.6667,-2.6666 4.6666,4 5.6667,0.6666 0.6667,4 -1.3334,6.3334 -2,21.3333 0.3334,17 -1.3334,13.3333 -0.3333,7 -8.3333,9 L 1250,1179 l -1.3333,-2 -8,-2.6667 -7.6667,-3 -0.3333,-5.6666 6,2 8,-1.3334 2,1.3334 2,-12.6667 1,-12.3333 1,-7.3334 -0.3334,-13.3333 -0.3333,-8.6667 -6.3333,-0.3333 -5.3334,2.6667 -10.6666,0.6666 -5,-4 -9,-3.3333 1,-2.3333 z"
             id="path11675"
              />
          <path
             style="fill:#000000;stroke:none"
             d="m 1229,1116 1.3333,19 0.3334,14.3333 -3,9 -0.3334,10 -1,6.3334 -4,1.6666 L 1218,1176 l 0,2.6667 2.6667,4 3,-1.3334 5.6666,-3 4.3334,-5.6666 L 1236,1165 l 1.3333,-7.6667 1.6667,-12.6666 0.3333,-8.6667 2,-6.3333 0,-9 L 1243,1114 l -4.3333,-4 -6.6667,2.6667 z"
             id="path11677"
              />
          <path
             style="fill:#000000;stroke:none"
             d="m 1241,1130 7,-2 5,-2.6667 3.3333,11.6667 -4.6666,4.6667 -4.3334,-2.3334 -5,-2 -5.6666,-1.6666 0,-4.3334 z"
             id="path11679"
              />
          <path
             style="fill:#000000;stroke:none"
             d="m 1237.6667,1150.3333 c 1.6666,-0.3333 6.3333,-1 6.3333,-1 l 5,-3.3333 5.3333,-2.3333 3,7.6666 -4.3333,8 -3.3333,0 -5,-2.6666 -9.3334,3.3333 -2.6666,-4 z"
             id="path11681"
              />
        </g>
      </g>
    </g>
  </g>
  <path
  id="PATH77"
  stroke-miterlimit="100"
  d="m 364.58157,579.58157 -357.1631356,0 0,-572.1631344 357.1631356,0 0,572.1631344 0,0 z"
  
  style="fill:none;stroke:#000000;stroke-width:14.83686829;stroke-miterlimit:100;stroke-dasharray:none" />
</svg>
