<svg xmlns="http://www.w3.org/2000/svg" height="100%" viewBox="0 0 372 587"><path fill="#fffaf0" d="M0 0h372v587H0z"/><path fill="#D96038" d="M142.02 72.37c5.95 1.32 14.56.66 27.14-4.64-2.65-5.3-5.96-11.25-9.93-17.87-3.3-4.63-7.95-7.27-16.55-8.6l-10.6-1.32c13.25-3.32 21.2-7.95 23.84-13.24l9.93-28.47-15.23.66c-7.94 0-13.9 1.32-18.53 3.97-5.3 2.64-9.94 6.62-13.92 11.25l-4.63 5.96c-1.32-5.3-4.63-9.93-9.93-15.24C99 .2 85.08-4.42 63.9-7.73l1.33 14.56c.66 7.94 1.98 14.56 3.3 17.87 3.98 6.62 10.6 10.6 20.53 12.58-10.6.66-19.86 3.3-26.48 7.28-7.28 3.98-11.92 12.58-15.23 25.82l17.87 2.65L85.75 77c7.28-1.98 13.24-5.3 17.87-10.6l-1.32 3.32c-2 3.3-2.65 7.28-2.65 12.58 0 5.96 1.98 10.6 5.96 15.9l6.63 6.6c0-2.64 2.64-5.3 6.62-9.26l9.26-9.27c2-4.63 2-11.92 0-21.18l4 1.97 9.92 5.3z"/><path d="M60.6-7.73v1.33C61.9-4.42 61.9-1.1 61.9 4.2c.66 10.57 1.98 17.86 3.97 22.5 1.3 3.3 5.3 6.62 9.92 9.27L60.6 41.25c-7.95 5.3-13.25 13.9-16.56 28.47v.66l1.33 2.65h3.3c2 0 7.3.66 14.57 3.3l22.5 3.32L97 75.68l-.66 6.62c0 5.96 2.65 12.58 6.62 17.87l7.28 6.62 3.3 1.32 2-2.65c0-2 2.64-4.64 6.62-9.27l7.94-8.6c2-2.65 2.65-5.96 2.65-10.6l-.66-5.3 9.25 3.32c5.96 1.98 15.23 1.33 28.47-3.98l2.65-1.97v-2.64l-10.6-18.56c-3.3-4.62-8.6-7.93-15.88-9.26 6.6-3.97 11.24-7.27 13.23-10.6l9.27-29.1.66-.67-1.33-1.98-3.3-1.34-9.27.68c-9.93-.67-18.54 1.33-24.5 4.64-7.28 3.3-12.57 7.27-16.54 13.24l-8.6-11.26C102.3-1.1 95-4.42 83.1-7.06l-19.2-3.98c-1.32-.67-1.98 0-3.3 1.33v1.97zm100.6 9.26l-8.6 23.17c-1.32 5.3-9.26 9.27-21.18 12.58-1.98 0-2.64 1.33-2.64 2.65v.66c0 1.98 1.32 2.64 3.3 2.64 12.58 0 20.53 3.3 23.84 8.6l8.6 13.9c-9.93 3.32-17.87 3.98-21.84 3.32l-9.27-3.97-3.3-3.32c-2-.67-3.3-.67-4.63 0l-.67 3.3v.67l1.33 11.9-1.33 6.63-6.62 7.3-6.62 7.93c-5.96-5.95-8.6-11.25-8.6-17.2 0-7.3.66-11.26 2.64-13.24l1.33-.67v-2l-.66-2.64h-4.65c0 .66 0 .66 0 0-4.63 5.3-9.93 8.6-16.55 9.93L65.22 69.7l-13.24-3.3c2.65-9.94 6.62-15.9 11.92-19.2 6.62-3.32 15.22-5.97 25.82-6.63l2.64-3.32c0-1.98-.66-3.3-2.64-3.3-9.27-1.33-15.23-5.3-17.88-10.6-1.98-3.3-2.65-9.93-3.3-19.2v-7.94C85.73-.46 97 3.52 100.96 6.84c4.63 4.62 7.94 9.92 9.27 13.9l3.3 2.64c1.33 0 2 0 3.32-2l3.97-5.94c3.97-3.98 7.94-7.3 12.58-9.93 4.64-1.98 11.92-3.3 21.85-3.3l5.96-.67z"/><path d="M81.78 8.15l-2.65.67-.66 1.32.66 1.32 12.58 9.27c8.6 7.95 15.9 15.23 20.53 22.5V56.5c0 10.6-.67 19.86-2 25.82l-.65.66 1.98 2c.67 0 2 0 2-2 3.3-8.6 3.3-22.5 1.98-41.04V40.6C108.24 29.33 97 18.07 81.77 8.14z"/><path d="M144.66 16.1c0-1.33-1.32-1.33-2.64-1.33-5.3 3.3-11.92 8.6-19.2 15.23l-10.6 10.6c-13.9 10.58-28.46 15.88-42.36 16.54-1.33.66-1.98 1.33-1.33 2.65 0 1.98.67 1.98 2 1.98 14.55-1.33 29.78-6.62 45-18.54l9.94-9.93c6.62-6.6 13.23-11.9 17.87-14.55 2-.67 2.65-1.33 1.32-2.64z"/><path d="M115.54 40.6h-3.3c0 1.32 0 2.64.65 2.64l10.58 7.28c7.94 4.64 15.23 7.95 21.18 9.27 1.33.65 2 0 2.65-1.33l-1.3-2c-5.97-1.3-12.6-4.62-20.53-9.26l-9.93-6.6z"/><path fill="#FCCE00" d="M280.37 220.65c6.62 2.65 17.2 2.65 30.45 0-2.65-13.24-5.96-21.84-7.94-25.8l-11.25-7.3-9.27-3.97 14.56-4.63c4.63-2.65 10.6-13.24 17.2-31.1-11.9-3.32-20.5-5.3-27.8-3.32-4.63 1.32-9.92 3.3-15.88 7.94l-8.6 6.62c-.67-6.63-3.32-12.6-7.3-17.22l-18.52-15.23-13.9-9.93v7.95l-.67 20.52c-.66 10.58.67 19.18 4.64 26.47-7.95.66-14.57 2.64-20.53 5.95L185.7 190.2l27.15 15.9c5.96 2.64 12.58 1.3 19.2-3.98l-2 3.97c-1.3 4.62-1.97 8.6-1.97 13.23 0 7.94 3.3 16.55 10.6 27.14 10.58-4.63 18.53-11.9 23.16-20.52 3.97-8.6 5.96-13.9 5.3-16.55l2.64 3.3c2.65 3.32 5.96 5.97 10.6 7.95z"/><path d="M314.8 144.53c-11.92-3.3-21.85-5.3-29.8-3.3-5.3 1.3-12.57 5.28-20.52 11.9-1.98-5.3-3.97-9.93-7.28-13.24l-18.53-15.23-14.56-10.6-3.3-.66c-1.33 1.34-2 2-2 3.32V126l-.65 18.53v5.95c0 7.3.66 13.24 3.3 18.54-7.27.66-13.23 3.3-17.2 5.96l-19.86 12.58c-1.34 0-2 1.32-2 2.64 0 1.33.66 2 2 2.65l27.13 15.9c3.97 2.64 9.27 2.64 13.9 0l-.66 10.58v.66c0 8.6 3.3 17.2 10.6 28.46 1.3 1.32 2.64 1.98 3.96.66 11.92-5.3 19.86-12.58 25.16-21.85l4.62-10.6c2.65 2.66 5.96 5.3 9.27 6.63 7.94 2.65 19.2 3.3 33.1.66l1.97-1.98.67-1.32v-1.33c-2.65-13.9-5.96-22.5-8.6-26.48-2-2.65-6.63-5.96-13.9-8.6l6.6-2c5.97-3.3 11.93-14.55 18.54-33.1l.67-1.3-.67-1.34-2-1.97zm-27.8 3.3l22.5 2c-5.3 15.88-10.6 24.5-13.9 25.8l-13.9 5.3c-2 0-2.65 1.33-2.65 2.65 0 2 .66 2.65 2.65 3.3 3.3.68 6.62 2.66 10.6 4.65 4.62 1.98 6.6 3.97 7.93 5.3l6.62 20.5H281.7l-9.27-6.6-2-2v-1.32c-1.3-1.3-1.97-1.97-4.62-1.3-1.32 1.3-1.98 1.98-1.98 3.3v.66c0 2.65-1.98 7.28-5.3 14.57-3.3 5.95-9.26 11.9-19.2 17.2-5.3-8.6-7.93-15.88-7.93-21.84v-.67l1.3-11.92 2.66-5.28-1.33-2.65c-1.32-.66-2.64-.66-4.63 0-5.3 4.64-10.6 5.96-14.56 3.97l-22.5-13.24 15.2-9.93c4.65-2.64 11.27-4.63 18.55-5.3l2.64-1.98.66-1.33-.66-2c-2.65-5.28-3.98-11.9-3.98-19.2v-4.62l.67-19.86v-2.66c15.22 9.93 23.17 17.2 26.48 21.2 3.3 3.96 5.96 8.6 6.62 14.55 0 1.98.67 2.64 2.65 3.3l3.3-1.32 7.3-5.3c5.95-4.63 10.6-6.62 15.22-7.94z"/><path d="M238.67 146.5c0-.65-.67-1.3-2.65-.65l-.66 2 15.88 34.4c-5.95 16.56-8.6 29.8-8.6 40.4 0 1.3 1.32 1.98 2.65 1.98l1.97-2c0-5.95 1.33-14.55 3.97-25.15l3.98-15.22v-1.32l-16.55-34.43z"/><path d="M294.27 159.75c-.66-1.32-1.98-2-2.64-1.32-13.9 3.97-26.48 10.6-39.72 21.18l-25.15 5.97-12.58 2c-1.98 0-1.98 0-1.98 1.3l1.97 2 13.24-2 26.5-5.3.65-.65 10.6-7.94c9.26-5.96 17.87-10.6 27.14-12.58 1.97 0 1.97-1.32 1.97-2.65z"/><path d="M285.67 204.1c1.32-.66 1.32-1.98 0-2.64l-18.54-13.24-12.58-7.95-2.64.66c-1.32.67-.66 1.33 0 2.65l12.58 7.28 19.2 13.24c.66 1.33 1.32 1.33 2 0z"/><path fill="#FCCE00" d="M114.2 360.34l-40.37-17.22 16.55 76.13.67 83.4-10.6 25.16 28.47-3.3 2.64-18.53-1.32-83.4 3.97-62.23z"/><path d="M117.53 360.34l-2-3.3-40.37-17.23-3.3.67-1.34 2.65v.67l16.55 76.77.67 80.76-10.6 25.16v3.3l3.3 1.32 29.8-3.32c1.32 0 2-1.3 2-3.3l2.63-18.53-1.32-83.42 3.98-62.2zm-39.06-11.92l31.77 13.9-3.3 60.24 1.3 83.4-1.97 15.23-20.52 3.3 7.94-21.18.66-.66.66-12.58c0-39.72-.66-63.55-1.33-70.83l-15.23-70.83z"/><path fill="#FCCE00" d="M253.23 342.45l-58.26 13.24 12.58 17.2c9.27 13.25 17.2 23.18 23.83 29.8l3.3 20.52 3.32 27.14c0 3.3-3.97 12.58-10.6 26.48l-13.23 24.5-12.58 17.87 31.1-2.64c25.83-41.04 39.07-66.85 39.73-78.12 0-7.94-2.65-25.8-9.27-54.93l-9.93-41.05z"/><path d="M255.88 341.14c0-2-1.33-2.65-3.97-2l-57.6 13.25c-1.3 0-1.97.65-2.64 1.98v1.3l.67 1.35 12.57 17.86L228.07 404c3.98 25.16 6.62 41.04 6.62 46.34 0 3.3-3.32 11.92-9.94 25.16l-13.24 23.83-12.58 17.87c-.66.66-.66 2 0 3.3 0 1.33 1.33 2 2.65 2l31.77-2.65 1.98-2c26.48-41.03 39.72-67.5 40.4-79.43 0-7.94-2.66-25.8-8.62-54.27l-11.25-43.03zm-21.2 60.9l-1.3-2c-8.62-9.26-19.87-23.16-33.1-42.35l50.3-11.27c11.92 47.66 18.54 78.1 18.54 90.03v1.32c-.66 10.6-13.24 35.75-37.74 75.47l-23.17 1.98 7.96-11.9 13.24-24.5c7.94-14.57 11.9-23.84 11.9-28.47l-3.3-27.14-3.3-21.2z"/><path fill="#FCCE00" d="M304.2 290.83l-15.22-7.3c-29.8-11.9-54.95-18.52-76.13-17.86-11.92.66-28.47 4.63-50.3 11.25-13.92 5.3-23.85 4.64-29.14 0-6.6-6.62-11.9-11.9-15.22-17.87-5.96-9.93-4.63-21.85 2-34.42 7.93-5.3 14.55-10.6 19.85-17.22l26.48-26.47 2-8.6c1.98-1.33 2.64-3.3 2.64-7.28l-2.65-10.6-4.64-8.6c-1.32 0-5.96 1.32-14.56 4.63l-20.53 5.96c-15.22 2.65-25.15 4.64-29.78 7.95-4-5.3-8.62-13.25-13.92-24.5l2-13.9 1.3-15.9-4.62-1.98h-3.3l-5.3 13.24L65.2 98.2H60.6l-4.64 1.97c-.67.66 0 8.6 3.3 24.5l3.32 24.5 27.8 26.47c-14.56 17.2-23.83 31.1-27.8 41.7-2 5.96-2.65 16.55-2 32.44l1.34 35.75-1.33 31.78c0 12.58 3.3 22.5 9.26 29.8 7.28 9.93 20.52 17.2 38.4 23.17 18.53 5.95 34.42 7.27 49.64 5.95 19.2-2.65 47.67-10.6 84.08-24.5l56.27-31.77c10.6-10.6 16.54-17.2 16.54-19.86 0-2.65-3.98-5.3-10.6-9.27z"/><path d="M290.3 280.23h-.66c-29.13-11.9-54.28-18.53-76.8-17.87-13.23.66-28.46 3.97-47 9.93l-19.2 5.95c-3.96 0-7.93-1.33-9.92-3.3l-4.63-3.98-9.94-10.6c-3.3-5.3-4.63-9.93-4.63-15.22 0-5.3 1.32-11.26 5.3-17.88l19.85-17.2 26.48-27.15 2.65-9.27c1.33-1.32 2.65-4.63 2.65-7.94v-1.32l-2.64-11.25c-2.64-5.3-3.97-8.6-5.95-9.93-.66-.66-2.65-.66-4.64 0l-13.23 4.63-19.86 5.3c-12.56 2-21.17 3.97-28.45 6.62l-10.6-20.52 2.65-27.8v-2c-1.32-2.64-4.63-4.62-10.58-4.62l-3.98 1.33-1.98 6.62-6.62-16.55c-2.65-3.3-5.96-3.3-12.58 0l-.66.66c-2 1.33-2.65 2.65-2.65 5.3 0 5.96 2.65 21.84 6.62 47l1.32 2 25.15 24.48c-13.9 17.2-21.85 30.45-25.82 40.38-1.32 5.3-2.65 12.58-2.65 22.5l.67 58.93-.67 17.2c0 14.57 3.3 25.83 9.93 35.1 7.96 9.92 21.2 17.2 39.73 23.16 18.54 6.63 35.75 8.6 50.97 6.63 19.86-2.64 47.67-10.6 84.74-25.15l57.6-31.12.65-.66c11.25-11.9 17.2-19.2 17.2-22.5 0-5.3-9.93-11.92-27.8-19.87zm11.92 13.24l9.26 6.62-15.22 17.2-55.6 31.78c-37.08 13.24-64.88 21.2-83.42 23.83-14.56 1.34-30.45 0-48.32-5.94-17.2-5.3-29.8-12.58-36.4-21.2-6.63-8.6-9.28-18.52-9.28-31.1l1.33-16.55.66-12.57-1.33-47.66c0-9.27.67-15.9 2-19.2 3.3-9.93 12.57-23.83 26.47-41.04l1.32-2-1.33-2.64-26.48-25.83c-3.98-24.5-6.63-39.05-6.63-44.35l3.3-2 9.28 21.86 3.3 2 3.32-2 3.97-11.25 2.65.66-2.66 27.13-.66.66.66 1.32c5.3 13.24 9.93 21.18 13.24 24.5 1.32 1.98 2.64 1.98 4.63 1.3 4-2.63 13.92-4.62 28.48-7.27l20.52-6.62c6.62-1.98 11.25-3.3 13.24-3.97l3.3 7.28 2 9.27-1.33 3.98c-.65.66-1.3 1.33-1.3 2.65v1.32l-2 5.96-2.64 2.66-22.5 23.17-19.2 16.55-2 .66c-3.97 7.94-5.95 15.9-5.95 22.5s2 12.6 5.96 18.54l11.26 11.92 3.3 3.3c3.98 4.64 9.28 5.97 15.23 5.97l21.2-5.96c18.52-6.6 34.4-9.26 45-9.92 21.18-.66 45.68 5.3 74.14 17.2l.66.67 14.56 6.62z"/><path fill="#FCCE00" d="M224.1 323.93l-1.98 6.62c-1.33 5.95-1.33 12.57 0 19.2.66 6.6 5.3 13.23 12.57 21.83 7.28 8.62 11.25 14.57 12.57 17.88l12.58 45.67c1.32 3.3-3.3 13.9-11.92 33.1L230.06 502l-4.63 5.95-6.62 10.6h26.5l3.96-20.53 17.87-28.46c10.6-17.88 16.55-29.78 17.87-33.76 0-3.3-.66-10.6-3.97-21.2-3.3-10.58-5.3-17.85-3.97-21.83 1.32-4.64 3.97-11.26 9.93-19.86l10.58-19.18c1.33-4.64 3.3-13.24 3.97-24.5v-16.55l-77.45 11.26z"/><path d="M304.86 312.67c0-2.65-.66-3.3-3.3-3.3-2 0-3.32.65-3.32 3.3v16.55c-.66 11.26-1.98 18.54-3.3 23.17l-9.28 15.22c-6.62 11.24-10.6 19.2-11.9 24.48v3.98c0 3.98 1.3 10.6 4.62 19.86l3.3 16.55v2.63c-1.3 5.3-9.92 21.2-26.47 47l-9.25 14.57-3.98 18.54h-17.2l7.93-11.26c19.86-37.07 30.46-59.58 30.46-68.18l-.67-2-11.92-45c-1.33-3.98-5.3-9.27-11.26-16.56l-8.6-11.25c-2.65-3.98-5.3-7.95-5.3-11.93l-1.32-9.26c0-3.97.66-7.28 1.32-9.92l2-3.98v-1.98l-2-2.65c-1.32-1.32-3.3-.66-3.97 1.32l-2.65 7.27c-1.32 6.62-1.32 13.24 0 20.53 1.33 5.95 6.62 15.22 15.9 25.8 5.95 7.3 9.26 11.93 9.92 13.92l11.92 45.67c.66 2.64-2.65 13.23-11.26 29.78L227.4 500l-4.62 5.96-6.62 11.25c-.67.67-.67 2 0 2.66l2.64 2h26.48l3.3-2.66 4-20.52 7.93-13.24c17.88-27.8 26.5-44.36 27.8-48.98.67-3.98-.65-11.92-3.96-22.5-3.3-9.94-4.63-16.57-3.97-20.53 1.32-3.98 4.63-11.93 11.25-22.5l9.27-15.9c1.3-5.3 3.3-13.24 3.96-25.16v-17.2z"/><path fill="#FCCE00" d="M138.04 425.2l15.23-64.86L97 347.1c5.3 6.62 9.27 19.2 13.24 38.38l5.3 31.78 2.64 43.03c.67 25.15.67 39.7 0 43.02l-7.94 19.86h11.25l17.2-2-1.98-18.52c-.66-43.7-.66-70.17 1.32-77.46z"/><path d="M149.96 359.67l-9.27 39.72-5.97 25.14c-1.32 7.95-1.98 34.43-1.32 78.12l2 16.55-20.52.67 6.62-15.23.66-15.88-1.32-43.03-2-29.13-1.98-6.62c-4.63-33.76-9.93-54.94-16.55-64.22l-4.62-1.3c-.66 1.3-2 1.97-2 2.64l1.34 2.64c5.3 7.3 10.6 27.8 15.9 61.57l1.3 7.28 2 30.46 1.32 42.36-.67 11.26-7.94 19.86V525.84c1.32.65 2 .65 3.3.65l29.14-2c1.98 0 2.65-1.32 2.65-3.3l-2-18.54c-1.3-42.37-.65-67.53 1.33-76.8l5.96-25.15 9.28-39.7c0-2-.66-3.32-2.65-3.98-1.98 0-3.97.67-3.97 2.65z"/><path fill="#FCCE00" d="M36.1 122.68c-2 0-3.3 0-3.97 2l-2 3.3c-.65 1.32 2 5.3 6.63 13.23l7.95 11.27-15.88 9.93c-2.65 0-1.33 2.65 1.98 7.94l11.26-1.32 13.24-2 30.45 19.2 6.62-8.6-26.48-26.47L62.57 126c-.66-1.33-1.98-2.66-2.65-3.32l-3.97.66c-1.98.66-2.65 2.65-3.3 7.95v6.6C44.03 128 38.08 122.7 36.1 122.7z"/><path d="M33.45 129.3l2-3.3c1.97.65 6.6 5.3 15.2 14.55l3.33.67c1.32 0 1.98-1.33 1.98-3.3v-1.34c0-4.63 0-8.6 1.32-9.93l2-.66 3.3 25.15 1.32 1.32 26.48 27.14c2 1.33 3.3 1.33 5.3 0v-1.98l-.67-2.64-25.8-25.82-3.3-24.5c-1.33-3.3-3.98-5.3-9.28-4.63H55.3c-2.65 1.33-4.64 4.64-5.3 9.93-6.62-6.62-11.25-9.93-13.9-10.6-3.3 0-5.96 1.33-7.94 5.3L27.5 126l-.67 2.64c0 2.65 4.64 10.6 13.24 23.17l-11.9 7.3c-2 0-2.66.65-3.32 1.97v2c0 2.64 1.32 5.95 3.3 9.26 1.33 1.32 2.66 1.98 5.3 1.98l12.58-1.97 7.95-2 29.78 18.55c2 1.32 3.32.66 4.64-.66.66-2 .66-3.3-1.33-4.64l-29.8-19.2-1.97-.66-9.93 2-12.58 1.97-1.33-3.32 15.22-8.6 1.32-2.65v-.66l-.67-1.33c-7.94-11.9-13.24-19.2-13.9-21.84z"/><path fill="#FCCE00" d="M89.06 196.16l-3.3-10.6-13.25-2.64-23.16 2 3.97 7.93c3.98 5.96 8.62 9.27 13.9 11.25 6.63 1.33 11.93 0 16.56-2.64l5.3-5.3z"/><path d="M89.06 186.23c.66-1.98 0-3.97-2-3.97-17.86-3.3-30.44-3.97-38.38 0-2 .66-2.65 2-2.65 3.3l4.63 9.94c3.98 5.96 9.27 9.93 16.55 11.92 6.63 1.32 12.6.66 18.55-3.3l6.62-5.3c1.32-2 .66-3.32-.66-4.64h-4.63l-5.3 4.63c-3.96 2.66-8.6 3.32-13.23 2-6.62-2-11.25-6.62-14.56-13.24l31.77 1.32 2.65-.66.66-2zM140.03 166.37l-18.54.66c-5.96 2-9.94 7.3-12.58 15.23 0 2 0 3.3 1.32 3.3 2 .67 3.3 0 3.97-1.32 2-6.62 4.65-9.93 9.28-12.57l15.23-.67c1.33 1.33 2.65 0 3.32-1.32l-2-3.3z"/><path d="M135.4 178.95l-2-4.63c-1.3-1.33-1.98-2-3.96-2-1.33 0-3.3.67-4.64 2-1.32 1.32-1.32 3.3-1.32 4.63l1.32 3.97 4.64 2.65 3.97-2.65 2-3.97zM81.11 214.7c-.65-1.33-1.3-2-2.63-1.33l-17.2 5.3c-1.34.66-2 1.98-1.34 3.3.66.67 1.33.67 2.65.67l17.2-5.3c1.33 0 2-1.32 1.33-2.64zM61.92 233.9l13.23-4.64c1.33-.66 2-1.32 1.33-2-.66-1.97-1.32-1.97-2.65-1.97l-13.24 5.28c.66-.66 1.98 0 1.98 1.33l-.66 2zM71.2 238.53c-.68-1.33-1.34-1.33-2-1.33l-8.6 4.64c1.32 0 1.32 0 1.98.66v2.65l7.94-3.3.67-3.32zM159.23 292.15c0-2-.66-2-2.65-2l-17.2 3.32c-.67 0-1.34.67-1.34 2 .67 1.3 1.33 1.98 2 1.3l17.86-2.63 1.33-2zM155.92 304.07c0-.67-1.33-1.34-2.65-.67l-10.6.67c-1.32 0-2.64.66-2.64 1.97 0 1.34 1.32 2 2.65 2l11.9-1.33c1.34 0 1.34-.65 1.34-2.63zM154.6 316.64l-2.65-1.98-5.3.66-2-.66-1.97 1.98c-.66.67 0 1.33.66 2l3.3.65 5.97-.67 2-2zM149.3 325.9h-4.64c-1.98 0-1.98.67-1.98 2 0 1.3 0 1.98 1.98 1.98h4.64l1.98-1.98-1.98-2zM198.94 278.9l-1.98-1.98-16.55 4.64c-1.3 0-1.3.66-1.3 1.98 0 1.33 1.3 2 2.63 1.33l15.9-3.3c1.3 0 1.3-1.34 1.3-2.66zM199.6 290.16l-1.98-2.64-7.28 1.98-4.63.66c-1.32.67-1.98 1.33-1.98 3.3.66.68 1.32 1.34 2.65.68l11.25-2.65 2-1.34zM196.3 301.42l-2-1.33-9.26 1.32c-1.98 0-2.64 1.3-1.98 1.98 0 1.33.66 1.98 2.65 1.98l9.27-1.98 1.33-1.98zM197.62 310.7c0-1.34-.66-2-1.98-1.34l-6.62.66-1.33 2.65 1.98 1.33 5.96-.67 1.98-2.64zM225.43 275.6c-1.33 0-2 .66-2 2-.65 1.3 0 1.97 2 1.97l6.6.66 11.93 1.33c1.32.66 2 0 2.65-1.33.67-.66 0-1.98-1.32-1.98l-12.57-2.65h-7.27zM227.4 287.52c-1.97 0-1.97.66-1.97 1.98 0 1.33 0 2 1.32 2l13.9 1.3 2-2.64-2-1.98-13.24-.66zM228.74 296.1c-1.33 0-2.65.68-2.65 2 0 1.32 0 2 1.97 2l10.6 1.3c.66.02 1.98.02 2.64-1.3 0-1.34-.65-2.66-2.63-2.66l-9.93-1.32zM235.35 306.7h-5.95c-.66 0-1.33 0-1.33 1.34 0 1.98.67 1.98 1.33 1.98h5.95l2-1.98-2-1.33zM281.7 292.8c0-1.3 0-1.97-1.33-2.64l-11.92-3.97c-.66-1.33-1.98-.67-2.64.65 0 1.33 0 2.65 2 3.3l11.25 4 2.64-1.34zM277.72 302.73c.66-1.98 0-2.64-.66-2.64l-7.94-3.32c-1.33-.67-2-.67-2.65.66-.66 1.32 0 2.65 1.32 2.65l7.28 3.3 2.64-.67zM276.4 310.02c.66-.66 0-1.98-1.32-2.64l-7.95-3.32c-1.32 0-1.98 0-2.65 1.98 0 .67 0 1.33 1.33 2l7.95 3.3c1.32 0 2 0 2.65-1.32zM273.75 319.95c.66-.67 0-1.98-1.32-2.64l-3.97-1.33c-1.33 0-2.65 0-2.65 1.34-.65 1.32 0 2.65 1.33 2.65l3.97 1.32c1.33 0 2.65 0 2.65-1.32zM236.02 498.7l-6.62 1.3c-1.32 0-1.32 1.33-1.32 2.66.66 1.32 1.32 1.98 2.64 1.32l5.96-1.32 11.92-1.33c1.98 0 2.64 0 2.64-1.98l-1.98-2-13.24 1.33z"/><path d="M219.47 497.36l-5.3.66c-1.32 0-1.98.66-1.32 2l2.65 1.3h3.97l10.6 1.34c1.3.66 1.97 0 1.97-1.33 1.33-1.32.67-1.98-.66-1.98l-11.9-2zM123.48 501.33l-6.62 1.33c-1.32 0-1.32.66-1.32 1.98.66 1.33 1.32 2 2.64 1.33l5.96-1.33h12.58l2-1.98-2-2.65-13.24 1.33zM99 500h-7.96c-1.32 0-1.98 1.33-1.98 2.66 0 .66.66 1.98 1.98 1.98H99l11.9.67 2.65-1.98c0-1.32 0-2-2-2L99 500.03z"/><path fill="#858585" d="M6.3 539.07l2 50.3h367.4v-56.92c-68.85-14.57-150.94-17.88-246.92-9.93-47.67 3.97-88.7 9.26-122.47 16.55z"/><path d="M130.1 519.2c-47.66 3.98-89.36 9.28-124.45 16.56-2 0-2.65 1.32-2.65 3.3l2 50.32c0 2.65.65 3.3 3.3 3.3h367.4c1.98 0 3.3-.65 3.3-3.3v-56.93c0-1.33-1.32-2.65-2.64-2.65-68.2-15.23-150.27-18.54-246.26-10.6zM9.62 541.06C52 533.77 96.34 527.8 142.68 524.5c89.36-5.95 165.5-1.98 229.7 11.26v50.3H10.95l-1.32-45z"/><path fill="#FCCE00" d="M334 505.97c13.23-23.17 27.13-56.93 43.02-100.63l-7.28-137.02c-25.82 60.24-43.03 104.6-51.64 133.7-5.95 20.54-11.25 37.75-16.55 50.33-6.62 13.23-13.9 26.47-24.5 40.38-13.9 18.53-29.12 49.65-45.67 91.35l66.2-1.32c11.26-27.8 23.83-53.62 36.4-76.8z"/><path d="M371.06 265c-1.98 0-3.3 0-3.97 2-27.15 62.88-45.02 107.23-52.3 133.7-5.96 21.86-11.26 38.4-17.22 50.98-5.95 13.24-13.24 25.82-23.17 39.06-13.9 18.54-29.1 49-46.33 92.02l.67 3.3 2.64 1.33 66.2-1.33 3.3-2c11.27-28.45 23.18-53.6 36.42-76.12 12.57-23.17 27.14-57.58 42.36-101.94l.67-1.3-7.28-136.38c0-1.33-.66-3.3-2-3.3zm-67.52 190c5.3-13.25 11.25-31.12 17.87-52.3 8.62-29.13 23.18-68.84 46.35-120.48l5.96 121.8-14.55 39.07c-11.26 26.46-20.52 46.98-27.8 61.54-12.6 21.2-24.5 46.34-36.42 74.8l-58.9 1.33c16.54-40.38 31.1-69.5 43.68-86.06 9.94-13.23 17.88-26.47 23.84-39.7z"/><path d="M323.4 384.17c-2 0-2 1.3-2 1.98l-1.97 36.4c-1.33 24.5-3.3 41.7-5.3 50.32l-5.96 26.48c-11.25 50.3-19.2 84.07-21.18 100.6l1.3 2c2 0 2.66 0 2.66-1.33 1.33-10.6 8.6-44.34 21.2-101.27l5.94-25.82c2-8.6 3.32-25.16 5.3-50.3l1.32-37.08-1.32-1.98zM296.92 458.97c-1.32 0-2 .66-2 1.98l-1.97 23.17-4.63 40.38-7.95 37.74c-5.3 19.2-7.94 31.1-7.94 35.74 0 1.33 1.32 2 2.65 2l1.98-2c0-2.64 2-15.22 7.28-35.08l7.95-38.4 4.62-39.72 1.32-23.83c.67-1.32 0-1.98-1.32-1.98zM267.13 559.6c3.3-8.62 4.64-15.9 3.3-21.2-.65-5.3 2-20.52 7.95-45.67.67-.66 0-1.33-.66-2-1.32-.65-2.64 0-2.64 1.34-6.62 25.8-9.93 42.36-8.6 47 .65 3.97-.67 10.6-3.32 19.2-4.64 11.25-7.28 22.5-9.27 33.76 0 1.98.65 1.98 1.3 1.98l2.66-1.3c2.65-11.93 5.3-22.52 9.27-33.1zM340.6 337.17c-1.98 0-2.64.65-2.64 1.97l-1.32 69.5c-2 48.34-3.3 80.78-5.3 96l1.33 2 1.98-2c2.65-15.22 3.97-47 5.96-95.32l1.33-69.5-1.32-2.65z"/><path fill="#D96038" d="M262.5 524.5l-17.22 11.26 9.27 3.3c7.95 3.32 15.9 6.63 23.17 10.6 11.26 5.96 21.85 8.6 31.78 6.62l-2 9.27c-1.3 6.62-1.97 12.58-.65 17.2l5.3 29.14 31.1-23.84c3.98-2.65 5.97-7.95 5.3-15.23l-1.32-8.6 3.98 4.63c3.98 3.3 8.6 5.96 14.57 8.6 8.6 3.3 20.52 3.3 35.08 0l-1.32-12.57c-2.65-9.28-5.96-17.23-10.6-23.18l-12.57-12.57-3.97-1.34c5.28-.64 11.9-3.95 18.52-9.92 6.62-6.62 11.26-18.52 13.9-35.74l-32.43-2.64c-3.32.66-7.96 3.97-14.58 9.93l-7.94 8.6 1.32-19.2c-.66-3.97-5.95-10.6-14.56-20.52l-13.24-12.56-7.94 9.93c-4.64 7.28-7.95 13.9-8.6 19.85-2 8.6 0 19.86 4.63 33.77l-23.18.65c-3.98 1.98-13.25 6.6-25.82 14.55z"/><path d="M243.96 539.07l9.93 3.3 21.84 9.94c9.27 5.3 19.2 7.95 29.13 7.95-1.33 5.96-2 11.25-2 15.23l1.33 8.6 4.64 27.8c0 1.33.66 2.65 1.98 3.32l3.3-.67 31.13-23.83c4.63-3.97 6.62-9.27 6.62-16.55v-1.32l12.57 7.28c8.6 3.98 21.85 3.98 37.74.67l1.98-3.3c-.66-15.23-4.63-28.47-13.24-37.74l-11.25-11.26 13.24-8.6c6.63-7.28 11.92-19.2 15.23-37.07v-.67l-.66-1.98c0-.66-1.32-1.32-1.98-1.32l-34.44-2.65c-3.97 1.32-9.93 5.3-17.87 12.58l1.3-9.93c-.65-4.64-4.62-11.92-13.23-20.53l-15.88-15.88h-2c-1.32 0-1.98 0-2.65.66l-7.94 10.6c-5.3 8.6-8.6 15.22-9.26 21.17l-1.32 6.62c0 6.62 1.98 14.57 5.3 24.5l-19.86 1.32c-5.3 1.98-13.24 5.95-25.82 13.9-10.6 6.6-16.55 9.92-19.2 11.25-.66 1.32-1.32 1.98-.66 3.3 0 2 0 2.65 1.98 3.32zm66.2-63.55c.66-5.96 5.3-14.57 13.9-25.82 14.56 14.56 23.17 24.5 23.83 29.13l-1.33 19.2 1.32 3.3 4.63-1.32c8.6-10.58 15.88-15.88 20.52-17.2l27.8 2.65c-2.64 13.9-6.62 23.83-12.57 29.8-5.3 5.94-11.26 8.6-16.56 9.25-1.98 0-2.64.67-2.64 2.65v.66l1.98 2.66 3.98 2 11.25 11.9c5.95 7.28 9.92 17.88 11.24 31.12l-31.1-1.33c-4.64-1.98-8.62-4.63-12.6-7.94l-3.96-3.96c-1.32-1.33-2.65-2-4.63-1.33-.67 1.34-1.33 2-1.33 3.32v1.33l1.33 8.6c0 5.3-1.33 8.6-3.98 11.26l-26.48 20.53-5.3-30.45 1.98-11.92 1.33-5.96v-1.32l-.65-2-3.3-1.3c-9.28 1.98-19.2-.66-30.47-5.97-7.94-4.6-16.54-8.6-26.47-12.57 19.86-11.9 32.44-18.52 38.4-21.18l21.18-.65 2.65-.67.66-2.64v-.68c-3.32-9.93-5.96-19.86-5.96-27.15l1.32-5.95z"/><path d="M379 557.6c-6.6-2.65-16.54-8.6-27.8-16.55l-16.55-11.9-.66-1.34-49 3.32c-.66 0-1.32 0-1.32 1.33 0 1.98.66 1.98 1.32 1.98l48.33-1.98 17.2 13.24c10.6 7.27 19.87 13.23 27.15 15.88 1.33.66 2 .66 2-.67l-.67-3.3z"/><path d="M327.37 472.2c-1.98 0-2.65.67-2.65 1.33l-.66 14.56c0 14.56 2.65 28.46 7.28 42.36-1.32 15.23-4.63 31.78-9.93 49v.65l2 2c.66 0 1.32 0 1.98-1.33 5.3-18.53 8.6-35.08 9.93-50.3v-1.33c-1.3-3.98-3.3-9.27-3.96-15.9-3.3-13.23-3.97-26.47-2.64-38.4 0-1.3-.67-2.63-1.33-2.63z"/><path d="M375.7 502.66c-.66-1.33-1.33-1.33-2.65-1.33-8.6 5.3-21.85 14.57-40.38 27.15-1.33.66-1.33 1.32-.66 2.64l2.65.67 15.9-10.6c10.58-7.95 19.2-13.25 24.5-15.9l.65-2.64z"/><path fill="#D96038" d="M359.15 67.73c5.3-6.62 9.26-18.53 11.25-35.74l-13.9 1.97-18.54.66c-5.95 2-10.6 5.3-13.9 9.27l-4.63 6.62c0-12.58-2-20.52-5.96-26.48-2-3.97-8.6-9.27-17.2-16.55L283-2.45c.66 6.62-1.32 19.2-4.63 37.07-1.34 7.95 0 15.9 3.96 23.84-2.65-3.3-7.95-5.3-14.57-5.3-7.3-1.32-15.23.66-22.5 4.63l-9.94 5.96 3.3 9.93c3.98 7.27 9.28 12.57 14.57 14.56 9.27 4.63 19.86 5.95 31.77 3.3l-13.23 11.26c-2.65 2.65-3.32 6.62-3.32 11.92 0 1.98 0 4.63.67 6.62l11.25-1.33 11.25-1.98c3.98-2 7.3-6.62 9.27-11.92l-1.33 3.97c-.66 3.3-.66 6.62.66 10.6 1.32 5.3 7.28 10.6 17.87 14.56 7.95-7.95 11.92-15.23 11.92-20.52 0-3.3-1.32-7.95-2.65-11.92l-1.98-4.63c2.63 5.28 9.92 7.93 21.83 8.6h18.54c.66-6.63-2.65-13.9-7.95-20.53-3.97-4.63-7.94-7.94-11.25-9.27l-5.3-.66 5.96-.66c3.97-.66 8.6-3.97 11.92-7.95z"/><path d="M285-5.1l-3.3-.65c-1.33.66-2 2-2 3.32V.22l-1.98 18.53-2.64 15.22-.67 3.97c0 2.65.68 6.62 2.66 13.24l-9.27-1.3c-7.3-1.34-15.9 0-23.84 4.6l-11.25 6.63-.66 2.66v.66l3.98 11.27c4.63 7.26 9.27 12.56 15.9 15.87l22.5 4.63-4.64 3.97c-2.65 2.65-4.63 7.95-4.63 13.24 0 3.32 0 5.97.66 9.28l2.65 2h2.65l7.95-1.34 13.9-1.98 3.97-3.3v3.3c1.32 6.62 7.94 12.57 19.85 17.2 1.33.67 2.65 0 3.32-.65l7.27-8.6c3.97-5.96 5.95-9.93 5.95-14.56L332 106.8c9.27 3.96 21.2 4.63 34.42 3.3l2.65-3.3v-.67c0-7.94-2.65-15.23-9.27-22.5L352.53 77l9.26-7.28c5.95-6.6 9.26-19.2 11.9-37.06V32l-1.3-2.65c-1.34-.67-2.66-.67-3.32 0l-12.58 1.3-19.86.67c-5.3 2-9.93 5.3-14.57 9.27-.66-7.95-2.64-13.9-5.3-18.54L298.92 5.5 285-5.1zm81.43 42.38c-3.3 14.57-6.62 23.83-9.93 28.47-3.97 4.63-8.6 7.28-13.24 7.28h-2c-1.3 0-2.63.66-3.3 3.3 0 1.33 1.33 2.66 3.3 3.32h1.34c3.3 0 7.28 3.3 11.9 8.6 4.65 4.64 6.63 9.94 7.96 15.23-20.52 1.33-31.78-1.32-34.43-8.6h-.66c-.66-2-2.65-2-3.97-1.33-2 .66-2 1.33-2 2.65v2l3.32 5.28 2 11.26c0 4.63-3.32 9.93-9.28 16.55-8.6-3.32-12.58-7.3-13.9-11.27l-1.32-5.3 1.98-7.94v-.67c0-1.32-.66-2.65-2.65-3.3-1.32-1.33-2.64 0-3.3 1.98h-.67c-1.98 4.64-3.97 8.6-7.94 10.6l-9.93 1.32h-7.93v-3.3c0-3.98.66-6.63 2.64-8.6 7.3-6.63 10.6-9.94 12.6-9.94l1.3-3.3-.65-1.34c-.66-1.32-1.98-1.98-3.3-1.98-11.26 1.98-21.2 1.32-29.14-2.65-7.93-3.96-13.23-10.58-16.54-20.5 9.94-6.63 19.2-9.94 28.47-8.62 6.62 0 11.25 2 13.9 4.63l1.32 4c1.32 1.3 2.65 1.3 4.64 1.3 1.3-.65 1.3-1.3 1.3-3.3 0-2.65-.65-4.63-2.64-6.62-3.3-6.62-4.63-13.24-4.63-18.54l2.65-17.87 1.98-15.9c13.24 9.28 21.85 16.56 25.16 21.86 3.97 4.63 5.3 12.58 5.3 24.5 0 1.32 1.32 2.64 2.64 3.3 2 0 2.65-.66 3.32-1.98l3.97-5.3c3.97-4.63 7.94-6.62 12.57-8.6l17.22-1.33 10.6.66z"/><path d="M294.93 24.04c0-1.3-.66-1.98-2.64-1.3-.67.64-.67 1.3-.67 2.63 7.28 17.87 12.57 36.4 15.22 54.28l2 9.93 2.63 21.85c0 1.32.67 1.32 2.65 1.32l1.33-1.32-2-21.85-2.64-10.6c-3.3-18.53-8.6-37.06-15.9-54.94z"/><path d="M351.2 50.52c-.66-.66-1.32-1.3-3.3-.66-9.94 3.3-23.18 12.58-39.73 27.14-9.93 1.33-19.86-.66-31.1-3.97l-15.24-4.63c-.66-.67-1.32 0-2.64 1.32-.67.66 0 2 1.3 2L275.75 77l33.1 4.64 1.32-.67 13.24-11.25c10.6-8.6 19.2-13.9 26.48-16.55 1.32 0 1.32-1.32 1.32-2.65z"/><path d="M322.08 81.64c-7.3-2.65-11.26-3.98-13.24-3.98-.67-.66-1.33-.66-1.33.67L292.3 96.2l-6.63 6.62c-.67.66-.67 2 0 2l2.64.65 6.63-6.62 14.57-17.2c15.22 4.62 25.8 8.6 33.76 13.9l1.98-.67v-2.65c-6.62-3.97-13.9-7.28-23.16-10.6z"/><path fill="#D96038" d="M314.13 150.48c-1.98-2.64-7.94-7.28-18.53-15.22-3.98-2.65-9.93-3.97-19.2-3.3l-12.58 1.3 1.33 11.27c0 5.95 0 9.93 1.98 13.24 2.65 4.63 9.27 9.93 20.52 14.56L265.8 171c-3.97 0-9.92 2-15.88 5.3l-8.6 5.3 12.57 11.9c5.3 5.97 11.24 9.28 15.88 9.94 8.6.66 15.22-2.65 21.85-8.6l-3.32 3.97c-1.97 3.98-3.3 8.6-3.96 13.9-1.98 9.28.66 20.53 7.28 35.76 2-3.3 5.3-6.62 10.6-9.93l14.56-11.92c6.62-7.27 10.6-14.55 11.25-21.83l2.65 3.97 7.28 8.6c3.98 3.3 11.92 4.64 21.85 4.64-1.98-2.65-1.98-5.96-1.98-10.6 0-5.95 0-9.92-1.32-12.57l-6.62-9.92-4.63-4.64 2.64 1.33 8.6-1.33c4.63-1.98 10.6-7.94 19.2-16.54l-11.26-7.3c-5.96-4.62-10.6-7.27-13.24-7.93l-10.6 2-4.62 3.3c4.63-3.3 7.27-7.95 8.6-13.24.66-3.3.66-7.95 0-13.24l-.66-7.96c-6.62.66-13.24 3.3-19.86 7.95-3.3 3.3-6.62 7.93-8.6 12.56l-1.33 6.62z"/><path d="M297.58 132.6c-3.97-3.3-10.6-4.62-19.2-3.96l-15.22 1.32-2 2.65v3.32l.68 6.62c0 8.6.66 13.9 2.64 16.55l7.94 8.6h-6.6c-4.65 0-10.6 1.98-17.23 5.3l-9.27 5.95c-.67.66-1.33 1.98-1.33 3.3l2 2 8.6 7.94c7.94 9.92 15.22 13.9 20.5 14.55l13.92-2.65-2 7.95-.65 4.63c0 9.27 3.3 20.52 8.6 32.43l2.65 2.66 3.3-2.65c.67-1.97 3.98-4.6 9.94-8.6l14.56-11.9 9.94-15.9 5.95 7.28c4.65 3.32 12.6 5.3 24.5 5.3 1.33 0 2.65-1.32 3.3-2.64v-.66l-.64-2.65-1.33-4.63v-8.6l-1.33-8.62-6.6-9.93h3.96c5.3-1.98 11.92-7.94 20.52-17.87l1.33-2-.66-1.3c-.66-1.33-1.32-2-2.64-2l-7.95-5.3c-7.28-6.6-12.58-9.26-16.55-9.92l-5.3.66 2-3.97.65-8.6-.66-9.28-.67-5.3-3.3-2.64c-7.95.66-15.24 3.3-21.86 9.27-4.63 3.3-7.94 8.6-9.93 15.22l-14.56-11.9zm-3.97 5.3l2 1.33c9.26 7.28 14.56 11.92 15.88 13.24l3.98 1.32 1.98-2.66 1.32-6.62c2-3.97 3.98-7.94 7.3-9.92 4.62-3.98 9.26-6.62 15.2-7.3l.67 9.94-.66 5.96c-1.32 4.63-3.97 9.27-7.28 11.92v.66l-1.33 1.98.66 2 4.63.65 3.98-2.64c2.64-1.32 5.95-1.98 8.6-1.98 2.65.66 7.28 3.3 12.58 7.94l6.62 5.3-15.23 11.9-5.28 1.34-2-.66c-1.97-.67-2.64-.67-3.96 1.32l-.66 2 1.32 2.63 3.97 3.3 5.95 9.94.66 5.3v12.57c-6.6 0-11.24-1.33-14.55-3.3-2-2.66-4.64-4.65-5.96-7.96l-2.66-3.96c0-1.32-1.32-2.65-3.3-1.98-1.33 0-2.65.66-3.32 2.64-.66 7.3-4.63 13.9-9.93 19.86l-13.25 10.6-8.6 7.28c-3.98-10.6-5.96-18.54-5.96-24.5l.65-3.97c.66-4.63 1.32-9.27 3.97-12.58l2.65-3.32.66-2.64v-2c-1.32-1.98-3.3-1.98-4.63-.65-6.62 5.28-13.24 8.6-20.52 7.93-3.98-.66-9.27-4.63-15.9-11.9l-6.6-5.97c7.93-5.3 13.9-7.95 18.52-7.95l21.2 1.34c1.3.66 3.3 0 3.96-2v-1.3l-2.65-2.66c-9.92-5.3-16.54-9.27-17.86-13.9-1.32-1.33-1.98-5.96-1.98-13.24v-6.62l25.15 2z"/><path d="M354.5 169.68l-1.97-1.98c-10.6 0-19.2 1.98-28.47 4.63l-10.6 5.3-31.76 4.63h-13.24c-1.33 0-2 .66-2 2 0 1.3.67 1.97 2 1.97l13.24-.66 33.1-4.63 10.6-4.64c8.6-2.65 17.86-3.97 27.13-4.63l1.98-2z"/><path d="M332.67 141.88l-2.65.66-7.28 13.24c-4.64 8.6-7.95 16.55-10.6 23.17-1.32 15.23-5.95 29.13-13.9 41.04-.66.65-.66 1.98 0 2.64l3.32-.66c8.6-12.58 13.24-26.48 15.22-42.37l9.93-23.16 6.63-11.9c1.32-1.34.66-2-.66-2.66z"/><path d="M285 147.84c-.66 0-1.32 0-2.64 1.32-.66.66 0 2 1.32 2.65l11.92 7.95c8.6 6.62 13.9 13.24 16.55 20.52l1.98.66 8.6 4.64c5.96 4.63 11.92 10.6 16.56 18.53l2.63 1.33 1.33-2-.66-1.3c-7.3-11.93-15.9-19.87-27.15-24.5-3.3-7.3-8.6-14.57-17.2-21.2l-13.25-8.6z"/><path fill="#858585" d="M285 60.45c-3.97-.66-8.6-3.97-13.9-9.27-5.95-5.3-11.25-8.6-15.88-9.93-6.62-1.32-13.24-1.32-19.86 2l-8.6 4.62c2.64-3.3 3.96-7.94 3.3-13.9l-4.63-16.55c-3.3-7.28-4.64-12.58-4.64-15.22-13.25 11.25-21.85 19.86-25.16 25.15-1.32 3.3-2.65 6.62-2.65 10.6l.66 3.97c-5.3-3.98-13.24-5.3-23.17-5.3-5.3 0-11.93 2-17.9 3.97l-11.9 3.96 5.3 12.58c3.97 9.27 7.28 15.23 11.25 17.2 5.3 3.32 11.25 4.65 15.88 4l-13.9 15.87c-1.32 2.66-3.97 8.62-6.62 15.9l-4.63 13.9c20.53-.66 33.77-2.64 39.72-7.28 5.95-3.3 11.25-10.6 15.22-21.84l2.65 6.62 6.62 15.88c2.63 3.98 7.93 7.3 16.54 11.26 9.93 3.97 15.22 6.62 16.55 7.28l-1.34-28.47c0-4.63-1.98-9.93-5.3-17.2l-4.63-8.6 7.28.65 15.24-.66c7.28-1.33 15.9-7.95 28.46-21.2z"/><path d="M285.67 57.8c-3.3-1.32-7.3-3.97-11.92-7.93-5.96-5.97-11.9-9.94-17.87-11.93-7.28-1.98-14.57-1.32-23.17 2.65l.67-6.63-4.63-17.2L224.1 2.2l-1.98-3.3-3.3 1.3c-13.25 11.26-21.86 19.87-25.83 25.17-2 3.3-3.32 7.28-3.32 11.25-4.64-2.65-11.26-3.3-19.86-3.3-6.62 0-13.9 1.98-21.18 5.3l-7.95 2.63-2.66 1.33-.66 1.98v.67l5.96 15.22c4.63 9.27 8.6 14.57 12.58 16.55 3.3 2.65 6.62 3.3 9.93 3.97l-9.27 11.26c-2 3.97-4.63 9.93-7.28 19.2l-3.97 10.6-.67 1.97.67 2 3.3 1.3 17.88-1.3c11.26-1.33 19.2-3.32 22.52-5.97 5.3-3.3 9.27-8.6 13.24-16.55l6.62 15.9c3.3 5.3 10.6 9.92 23.17 13.9l10.6 5.3 3.3.65c2 0 2.65-1.32 2.65-3.3l-1.33-28.48c0-4.63-1.98-12.57-7.28-22.5h17.2c7.28-1.33 17.2-8.6 30.45-21.85l.67-3.3-2.65-2zM218.8 8.82l3.32 10.6 4.63 15.2v2c0 3.97-1.32 7.28-2.65 9.93l-.66 1.32 1.33 2.65c1.32 1.33 2.64 1.33 3.97 0l8.6-3.97c5.96-3.3 11.26-3.3 16.55-2.65 4.63 1.33 9.93 4.64 15.22 10.6l9.93 7.28c-10.6 9.93-17.87 15.88-23.17 16.55l-13.9.66-7.94-.67c-1.32 0-2 0-3.3 1.32v3.3l5.95 11.26c2.63 5.3 3.96 9.94 3.96 13.25l.66 22.5-7.28-2.64c-10.6-4.62-17.2-7.93-19.2-11.24-2.64-4.63-5.3-9.93-6.62-15.23l-1.98-7.28c0-1.32-.66-1.98-2.65-1.98-1.33-.67-2.66 0-3.98 1.32-3.98 10.58-7.95 17.86-13.9 21.83-4.64 2.65-15.9 4.64-32.44 5.3l1.98-6.62c2.65-8.6 4.64-13.9 7.3-17.2 3.3-5.3 7.93-9.93 13.23-15.23l.65-2.64-.66-1.33c0-1.32-1.34-1.98-3.32-1.98-3.98 0-8.6-.67-13.24-3.3-3.98-2-8.6-9.94-13.9-24.5l5.3-2.66c8.6-2.64 15.22-4.63 20.5-4.63 8.62 0 15.24 1.32 20.53 4.63.67 1.33 2.65 1.33 3.98 0l1.32-2.64-.66-.67v-3.3c0-2.65 1.33-5.96 2.66-9.27 1.97-3.3 8.6-9.93 19.85-19.86z"/><path d="M215.5 26.7c-.67-.66-1.33 0-2.65.65-4.64 12.58-7.28 24.5-7.28 36.4v1.34l-13.9 16.54-21.85 21.84-.66 2 .66 1.3c1.33 1.34 2 1.34 2.65 0l36.4-39.7.67-.67c-.66-11.9 2-24.48 7.28-37.72 1.33-1.33.66-1.98-1.32-1.98z"/><path d="M224.1 61.1l-16.55 2.66c-8.6 0-18.53-1.98-29.8-5.96l-14.55-5.95c-.66-.67-2 0-2.65.67-.66 1.3 0 2.64 1.33 2.64 1.98 1.33 7.28 3.3 14.56 6.62l31.1 6.62 16.56-3.3c11.26-2 21.2-2 28.47 0l2.64-2-1.97-2c-7.94-1.3-17.88-1.3-29.13 0z"/><path d="M209.54 65.1c-.66-1.34-1.33-1.34-2.65-1.34-1.33 1.33-1.33 2-1.33 2.65l7.28 15.9 11.9 23.17 2.66.66.67-2.65-18.53-38.4z"/><path stroke-miterlimit="100" d="M364.58 579.58H7.42V7.42h357.16v572.16z" fill="none" stroke="#000" stroke-width="14.84"/></svg>