<svg xmlns="http://www.w3.org/2000/svg" height="100%" viewBox="0 0 372 587"><path fill="#fffaf0" d="M0 0h372v587H0z"/><path fill="#222" d="M374.35-5.7H1.8v599.82h372.55V-5.68z"/><path fill="#FDF5ED" d="M354.36 14.3H21.8v559.82h332.56V14.3z"/><path fill="#009844" d="M354.36 14.3H21.8v559.82h332.56V14.3z"/><path fill="#009844" d="M354.36 14.3H21.8v559.82h332.56V14.3z"/><path fill="#009844" d="M354.36 14.3H21.8v559.82h332.56V14.3z"/><path fill="#009844" d="M354.36 14.3H21.8v559.82h332.56V14.3z"/><path fill="#009844" d="M354.36 14.3H21.8v559.82h332.56V14.3z"/><path fill="#009844" d="M354.36 14.3H21.8v559.82h332.56V14.3z"/><path fill="#009844" d="M354.36 14.3H21.8v559.82h332.56V14.3z"/><path fill="#009844" d="M354.36 14.3H21.8v559.82h332.56V14.3z"/><path fill="#009844" d="M354.36 14.3H21.8v559.82h332.56V14.3z"/><path fill="#A7754A" d="M374.35 594.1V-5.68H1.8v599.82h372.55z"/><path fill="#FDF5ED" d="M354.36 14.3H21.8v559.82h332.56V14.3z"/><path fill="#D96038" d="M373.7 80.95v-85.3H2.46v99.3c15.33 1.32 26.66 1.32 34-.67 14.65-3.34 26.65-6 35.98-6.67 16-.66 24 3.34 26 11.34 1.32 4.66-.68 26.66-5.34 65.3-6.66 44.67-8.66 83.32-8 115.3 1.34 29.33 3.34 66.65 8 111.98 2 33.32-.66 53.32-8 61.97-11.32 13.32-38.64 19.98-82.63 19.98v119.97H373.7V496.8c-56-9.32-92.65-13.32-110.65-12.65l-42 4.67-39.97-2c-14-4-22.66-9.33-26-17.33-3.33-6.68-4-17.34-2-31.33l7.34-62.65c2-30 4-54.65 4-73.97 0-10-3.34-36-9.33-78.65-6-39.32-8-69.98-6.68-90.63.67-24.66 8-38.66 22-42.66 8-2 18.66-2.66 33.98-.65l169.3-8z"/><path fill="#636361" d="M170.42 89.6c-14 4-21.33 18-22 42.66-1.33 20.66.67 51.32 6.67 90.64 5.98 42.66 9.32 68.65 9.32 78.65 0 19.32-2 43.98-4 73.97l-7.33 62.65c-2 14-1.35 24.65 2 31.32 3.32 7.98 11.98 13.3 25.98 17.3l39.98 2.02 42-4.67c17.98-.67 54.64 3.33 110.63 12.66V80.96l-169.3 8c-15.32-2-26-1.34-33.98.66zM36.46 94.28c-7.33 2-18.66 2-34 .67v378.53c44 0 71.32-6.66 82.65-20 7.34-8.65 10-28.64 8-61.96-4.66-45.33-6.66-82.65-8-111.97-.66-32 1.34-70.64 8-115.3 4.67-38.65 6.67-60.65 5.34-65.3-2-8-10-12-26-11.34-9.32.68-21.32 3.34-35.98 6.68z"/><path d="M199.07 2.3l-2.66-2H177.1l-1.33.67L75.1 89.6c-.65 1.34-.65 2 0 2.68l2.68 2h37.32l-79.97 87.97-.67 2v1.33c.66.66 1.33 2 2 2H49.8L6.46 236.23l-1.34 2v50.65l2 2.67 3.34-.67L95.1 172.25l.67-2.67-2.66-1.32H80.45l52.65-56-58 108.64-.66 1.34.67 1.32c0 .67 1.34.67 2 .67h22L58.45 294.2v2.68l2.66.66h19.34l-43.98 71.32-1.34 1.32 1.34 2c2 1.34 3.33 1.34 4-.66l47.3-74.65v-2.66l-2.65-2H65.13l41.32-69.3v-2c-.67-1.33-1.34-2-2.67-2h-22L147.1 96.3v-.67l-1.34-2.66h-3.34l-69.97 75.98c-.67 1.33-.67 2-.67 3.33l2.66 1.33h14l-77.3 107.3V238.9l46.64-52.65.67-2v-1.34l-3.33-.65h-12L123.1 93.6v-2.66c0-1.33-1.34-2-2-2H84.44l93.97-83.3h12.67L135.1 72.28l-.67 2 .66 1.34 2 1.32h40.65l-67.98 125.3v2.67l2.66 1.34h27.33L97.1 274.22l-.66 1.33.67.67 2.67 1.33h33.33l-25.33 48-.67 1.3 1.34 2.02c1.33 1.33 3.33 1.33 3.33-.66l28-51.98v-2l-2-2h-33.33l41.98-67.3 1.34-1.35-.67-1.33-2-1.33h-28l67.98-125.28v-2.67l-2.67-1.33h-39.97l56.64-66.64V2.3zM251.06 440.16c1.33.67 2 0 3.33-2l24.65-46.64-8 25.32v.67l.67 1.34 2 1.33h32.65l-24 59.3v1.35l2 2c1.34 1.33 2.68.66 3.34-1.33l24.67-63.32v-2.67c0-.66-.67-.66-2-.66H277.7l15.34-50.65.67-.68-1.32-2.66c-1.34 0-2.67 0-3.34 1.33l-39.3 73.97c-.68 1.33-.68 2.66 1.32 4z"/><path d="M365.7 74.95c-1.35 0-2 .67-2.68 1.33l-103.3 204.6.67 2.66 2 1.34h16.65l-27.33 46.66v2.66l2.67 1.33h17.98l-18.66 37.98-.66.68 2 2.67c1.33.67 2.66.67 3.33-1.33l20.65-41.32v-2.66l-2.67-1.34h-18l27.33-46.65v-2.67l-2.65-1.33H266.4l97.3-192.6 2 17.32-73.32 156.62V262.88l2.66 1.32h24.66l-21.33 44v2.65l2.67.67h27.32L299.7 401.5l-.66.68.67 2 2.67.67h38.66L321.7 502.8v.67c0 1.35.67 2 2.67 2l2.66-2 19.33-101.3-.67-1.33-1.34-1.33H305.7l28.66-89.3v-2.66l-2.66-.67h-26.66l21.33-43.98v-.68l-.67-2c0-.67-.67-1.33-2-1.33h-24.66l71.98-153.3v-1.33L367.7 77.6l-2-2.65zM286.38 5.64c-1.33-.66-2 0-2.67.66l-55.97 102.64c-.66.66 0 2 .67 2 .66 1.33 1.33 1.33 2.66 0l56-101.97c1.32-2 .65-2.67-.68-3.33zM214.4 137.6h-2.67l-95.3 173.27c-.66.67 0 2 .67 2.66l2.67-1.32 95.3-172.6c.66-.67.66-2-.67-2zM263.05 157.6l-2 1.32-30 55.32c-.65 1.33 0 2 .68 2.66.67.67 2 0 2.66-1.33l29.98-54.65c.67-2 0-2.66-1.33-3.33zM227.73 224.23c-1.33 0-2 0-2.67 1.34l-42.65 77.97c-.65.67 0 1.34.68 2.66 2 .67 2.67 0 2.67-1.32l42.65-77.32c.66-1.33 0-2-.67-3.33zM377.02 25.63c-1.34-.66-2.67 0-2.67.67L307.7 144.93c0 .66 0 1.33.67 2.66l3.33-.68 65.98-117.95c.67-2 0-2.67-.66-3.34zM285.7 187.58c-.65-1.34-1.32-.67-2.65.67l-71.32 128.62c-1.33 1.34-.66 2 .67 2.66.67 1.34 2 .67 2.67-.66l71.98-128.63c.66-1.33 0-2.66-1.34-2.66zM181.75 554.8c0 1.33.66 2 2 2h141.28l2-2-2-2H183.75c-1.34 0-2 .66-2 2zM71.1 552.8H11.14c-1.33 0-2.66.66-2.66 2 0 1.33 1.33 2 2.66 2H71.1l2-2-2-2zM262.4 534.8c0 1.33.65 2 2.65 2h44l2-2-2-2h-44c-2 0-2.66.66-2.66 2zM176.4 532.8h-75.3c-1.33 0-2.66.66-2.66 2 0 1.33 1.33 2 2.66 2h75.31l2.68-2-2.67-2zM67.12 532.8h-56c-1.32 0-2.65.66-2.65 2 0 1.33 1.33 2 2.66 2h56l1.98-2-1.98-2zM254.4 512.14H132.42c-1.34 0-2 1.33-2 2.67 0 .68.66 2 2 2H254.4l2-2-2-2.66zM91.77 512.14H11.13c-1.33 0-2.66 1.33-2.66 2.67 0 .68 1.33 2 2.66 2h80.64l1.34-2-1.33-2.66zM186.4 494.15c0 1.33.68 2 2 2h77.32l2-2-2-2h-77.3c-1.34 0-2 .66-2 2zM91.77 492.15H11.13c-1.33 0-2.66.66-2.66 2s1.33 2 2.66 2h80.64l2.67-2-2.67-2zM81.1 471.5H11.14c-1.33 0-2.66.66-2.66 2.65 0 .67 1.33 1.34 2.66 1.34H81.1l2-1.35-2-2.66zM67.12 451.5h-56c-1.32 0-2.65.66-2.65 2 0 1.33 1.33 2 2.66 2h56l1.98-2-1.98-2zM57.78 430.83H11.13c-1.33 0-2.66.68-2.66 2.67 0 .67 1.33 1.34 2.66 1.34h46.65l2-1.34-2-2.67zM53.8 410.84H11.12c-1.33 0-2.66.67-2.66 2s1.33 2 2.66 2H53.8l2-2-2-2zM53.12 390.85h-42c-1.32 0-2.65 0-2.65 1.33 0 2 1.33 2 2.66 2h42l2-2-2-1.33zM59.78 370.18H11.13c-1.33 0-2.66.67-2.66 2 0 1.34 1.33 2 2.66 2h48.65l2-2-2-2z"/><path d="M302.37 138.93c3.33 5.33 5.33 10 6 14.66.67 4 .67 7.32 0 8-2 1.98-5.33 3.32-9.33 4l-8.66-1.35-1.34-2c-1.33-4.66-5.33-6.66-11.33-6h-11.3l-20.67 2.67c-4 .67-8 5.33-11.34 12-2.67 4.67-4.67 10-5.34 14-3.33 2.66-6.66 4-11.33 2.66-2.66-.67-5.33-2.66-6-5.33-3.33-10-3.33-16.66-2-19.33l1.34-.66c4.66 0 8-1.34 11.33-4.67 3.33-3.34 4.67-6 4.67-8.67 0-3.34-5.34-8.67-17.33-14.67l-17.33 1.34-6.66 2c-.66-1.34-2.66-4-3.33-8.67-2-6-2.65-9.33-1.32-10.66l3.33-4.67c4.68-8 8-11.33 10-11.33l10 4 17.33 6 13.33-1.33c1.34-.67 2.67-2 1.34-3.33-.67-2-1.34-2-3.34-2l-10.66 2c-4-1.33-10-3.33-16-6l-11.33-4c-4-1.33-9.33 3.34-16 13.34l-2.65 4.66c-.67 2-1.34 5.34-.67 10 2 8.66 4 14 7.33 16.66l11.33-1.33 13.34-2c8 4.66 13.33 7.33 14.66 10l-3.33 5.33c-2.67 2-4.67 3.33-8 3.33-2 0-4 .66-5.33 2.65-3.33 4-3.33 12 .67 24 1.34 4.67 4.67 6.66 10 8.66 6 1.35 11.33 0 16.66-3.98l.67-1.34c4.66-14.66 8.66-22 14-24l18.66-1.32 11.98-.67 4 .66 2 2 3.33 4.66 12 2c6-1.33 10-3.33 12.67-6 2-2.66 2.67-6 1.33-12-1.33-5.32-3.33-11.32-6.66-16.66-.67-1.32-2-2-4-.66-.67.66-1.33 2-.67 3.33zM375.02 18.97c2-5.34.66-10-3.34-15.34-7.33-9.32-23.32-12.66-49.3-10-1.35.68-2.68 1.35-2.68 2-3.33 10.67-7.33 22-14 34.66-13.32 26-29.32 46.64-47.98 61.98l-4.66 3.33c1.33-1.32 2.66-1.32 3.33.67 1.32 1.34 1.32 2.67-.68 3.33l5.33-3.33c18-14.65 34-33.98 46.65-57.97 8-14 13.33-27.33 16.67-39.33 23.32-2 37.32.67 43.3 8 2.68 3.33 3.35 6.66 2.02 10.66-2.02 32.66-16.68 59.98-43.33 81.3-8 6.68-17.33 12-27.33 16.67l-12.66 5.33c-2 .67-2.67 2-1.33 3.34 0 2 1.33 2 3.33 2l12.66-5.34c10.66-5.33 20-11.33 28.66-18 28-21.98 42.65-49.98 45.32-83.96z"/><path d="M299.7 115.6c-2.66 2-6 4-10.66 5.33-8 2.67-16 1.34-23.32-3.33-5.33-2.66-8-6.66-9.33-10.67 0-2.66.66-6.66 2.65-10.66l2.67-4.66.67-2.65-1.35-1.34-13.33-1.32c-6.66 2.67-11.32 6.66-14 12.66-5.32 14.66-1.32 28.66 12.67 43.32 9.32 10 21.98 13.33 36.65 10.66 12.66-1.32 21.32-6.66 26-15.32 3.32-6.67 1.32-14-5.34-22h-4zm4.67 20c-4 6.66-11.33 10.66-22 12-13.32 2.65-23.98-.68-31.98-8.67-12.67-13.33-16.67-26-11.34-37.32 2-5.33 5.33-8.66 10-10 2.66-.66 4-.66 6.66 0-3.33 4-4.66 9.34-4.66 13.34l.66 2.67c.67 6 4 11.34 10.67 14.67 12.65 8 25.98 7.33 38.64-1.34 2 3.34 4 6.67 4 10l-.67 4.67zM312.37 72.28c0-1.33 0-2-1.33-1.33-2 0-2 0-2 1.33 1.33 14 0 28.66-4 42-.67 1.32 0 2 .66 2.65 2 .67 2.67 0 3.34-1.33 4-14.66 5.33-29.32 3.33-43.32zM327.7 49.62c-.67-1.33-2-2-2.67-1.33-1.33.66-2 1.32-1.33 2.66 4.66 14.66 4.66 31.32 1.33 50.65 0 .67 0 2 1.34 2.67l2.66-2c3.33-20 3.33-37.3-1.33-52.65zM344.36 36.96c0-1.33-1.33-1.33-2.67-1.33l-2 2c4 20 5.32 35.32 3.33 46.65-.67 1.33 0 2 2 2.66l2-1.33c2-12 .66-27.98-2.67-48.64z"/><path d="M239.73 126.26l-2-.66c-4 4-8 8.66-11.33 14l-4 8.66c0 .67 0 2 1.33 2.66 1.33 0 2 0 2.67-1.33l3.33-7.34c3.33-6 6.67-10 10-13.33 1.33-1.33 1.33-1.33 0-2.67zM208.4 177.58c-2 0-2.66 0-2.66 2-1.34 10 0 19.33 3.33 28 6 13.32 16 23.32 30 29.98l3.32-1.33v-3.33c-2.67-2.67-4-7.33-6-12-4-10.67-5.34-22-4-33.32 0-2 0-2.66-2.67-3.33-1.33 0-2 1.33-2 2.66l-1.33 9.34c0 11.33 2.66 22.66 7.33 31.33-15.33-9.33-22.66-24-22.66-43.32v-4c0-1.33-1.33-2.67-2.67-2.67zM165.08 154.93l-.66-5.34c0-8.67 2-15.34 7.33-20.67l7.33-6.66 2-3.33-.67-.67c-1.32-2-2-2.67-3.32-1.34-4.67 2-8 6-12 10.67-6.66 10.67-8.66 23.32-4 37.32l2 1.33c2 .67 2.67 0 2.67-1.33l5.33-9.33c4-7.34 8-12.68 13.33-15.34l1.34-4-4-.66c-6.66 4-12.66 10.66-16.66 19.33zM309.04 160.92c-1.34 0-2.67 1.33-3.34 2.66-1.33 12-10 20.67-24.65 24 4.66-7.34 8-14.67 9.33-22l-2-3.32c-2 0-2.67.66-2.67 2-2 10-6.65 18-13.32 24.65-1.33 1.34-1.33 2-.66 3.35l2.66 2 17.33-5.34c11.34-4.65 18-13.32 20-24.65 0-2-.66-2.66-2.66-3.33zM131.1 311.54l-3.34-.67-51.3 35.32c-14 10-22.67 24.65-25.34 43.97-2 12-1.33 25.34 2 38.66 4 12.67 10 25.33 18.66 36.66 15.33 21.3 34.66 34.64 56.65 40.64 23.32 6 42.65 3.33 59.3-8.66l48.66-39.32c1.32-.67 2-2 .66-4h-4l-48.65 38c-15.32 11.98-33.3 14.64-54.64 9.32-21.33-6-39.32-19.33-53.31-38.66-8.67-11.32-14.67-22.66-18-35.32s-4-25.32-2-36.65c2-17.34 10-30.67 23.33-40l50.65-35.98c1.33-.67 1.33-2.66.66-3.33z"/><path d="M185.08 301.55c-22.66-6-41.32-2.67-57.32 9.32-16.66 12-24.66 29.32-26 52.65-.66 22.66 6.67 44 21.34 64.65 15.33 20 33.32 33.33 55.98 39.32 22 5.98 40.65 3.32 57.31-9.34 16-11.34 24.65-29.32 26-52 .65-22.65-6.68-44.63-21.34-65.3-15.33-20-33.32-33.32-55.98-39.3zm-54.65 13.32c15.33-10.66 32.66-14 53.98-8 20.67 5.34 38 18 52 37.33 14.66 19.32 21.32 39.3 20 60.65 0 21.98-8 38.64-23.34 49.3-14.66 10.68-32.65 13.34-53.3 8-20.67-5.33-38-18-52-37.3-14.66-19.34-21.32-39.33-20.65-60.66.67-22 8-38 23.33-49.32z"/><path d="M176.4 314.2c-15.32-2.66-28.65.68-39.97 9.33-13.33 10-20 24-21.33 43.32 0 18.67 6 37.33 18 54 12.66 16.65 27.98 27.3 45.98 32.64 18.66 4.66 34.66 2 48.65-8 13.33-9.34 20-24 20.66-43.32.66-18.67-5.34-36.66-17.34-53.98-15.33-19.33-33.32-30.66-54.65-34zm3.35 135.96c-17.33-5.33-31.33-16-43.32-31.98-12-16-18-33.33-17.33-50.66.67-18 7.33-32 19.33-40.66 10.66-8.65 23.32-11.32 37.32-8.65 20.66 2.67 37.32 13.34 51.98 32.66 11.33 16 17.33 33.32 16.66 50.65 0 18.67-6.67 32-19.34 41.33-12.66 9.33-27.32 11.33-45.3 7.33zM84.44 374.2c-3.33-1.35-6.66-4.02-11.33-9.34l-5.32-6.67-2.66-.68c-.67.67-.67 2-.67 3.34l6 7.33c4.66 5.32 8.66 8.65 12.66 9.32l22 6.66 2.67-2c.67-.66 0-1.33-1.33-2l-22-6zM88.44 406.84c-6.66-5.33-12-8-16.66-7.33-8.66 1.34-14 0-17.33-2.66H51.8c-2 .67-2 1.34 0 2.67 3.32 4 10.65 4.68 20.65 4 4 0 8 1.35 12.66 6l13.34 8 21.33 1.34c1.33-.66 1.33-1.33 1.33-2l-1.33-2h-1.34l-18.66-.67-11.33-7.33zM152.42 452.16c1.34-.66.67-1.33 0-2-6.66-3.34-12.66-6-18-6l-18 1.34-3.32.66-8.67.66-4.66-3.33-5.33-6.67c-4.67-5.33-8.66-8-12.66-9.33l-12-2.66-10-4-4-2.66c-.66-.68-2-.68-2.66 0-1.33.66-1.33 2 0 2.66l4.66 3.33 11.33 4.67 11.34 2c4 1.33 7.33 4 11.33 8.66l4.67 6 6.67 5.33 10-.67 4.67-.67 16-1.33c5.32 0 10.65 2.66 16 5.32 1.98.66 2.65 0 2.65-1.34zM139.1 471.5c10-5.35 18-9.34 25.32-10.68 1.33 0 1.33-1.33 1.33-2.66l-2.66-1.34c-7.35 1.34-15.35 5.34-26 11.34-6.67 3.33-11.34 6-14 6.66-5.34.67-10 0-14-2.66-7.33-4.67-16-9.34-26-12L69.8 456.8c-.67-.66-1.33 0-2 1.34 0 1.33.67 2 2 2l12 3.33c10 3.32 18 6.65 24.66 11.32 5.33 4 11.32 5.33 16.66 4 3.33-.66 8.66-3.33 16-7.33zM189.08 465.5c-9.33 8.65-20 15.32-32.66 21.98-12 6.67-26.66 9.33-44 7.34-1.32 0-1.98.66-1.98 2 0 1.33.66 2 1.33 2 18 2 33.32-.67 46.65-8l23.32-14.67 10-8c.67-.66.67-1.33 0-2.66-1.33-1.34-2-1.34-2.66 0z"/><path d="M179.08 330.2c-13.33-4-24-2-33.32 4.67-6.67 5.32-10.67 11.32-12.66 19.32-2 7.33-2.67 15.32-1.34 24l3.33 7.32c3.33 5.33 8 8.66 14 11.32l14.65-1.33 8.67-7.32c3.33-4.67 2.66-11.33-2.67-20l-8-11.33c8-8.65 18.67-11.32 32.66-9.32 6.67.67 12 3.33 17.34 6-9.34-12.67-19.33-20-32.66-23.33zM228.4 384.18c-2.67-5.33-7.34-9.32-13.33-11.33l-15.33.67c-3.33 1.34-6.66 4-8.67 7.33-3.33 5.33-2 12 2.67 20l8.66 11.32c-8 8.67-19.32 12-32.65 9.34l-17.33-5.33c8.66 11.33 19.33 19.33 32.66 22.66 12.66 4 23.32 2 33.32-4.66 6-4.67 10-10.67 12.66-18.66 2-8 2-15.33.67-24.65l-3.33-6.67zM367.7 187.58c-.68 0-2 0-2 1.33l-44.67 119.3c-.66 2 0 2.67.67 2.67 1.33.67 2.67 0 2.67-.67l44.65-119.96c0-1.33 0-2.66-1.33-2.66zM371.02 236.23c-2 0-2.67 0-3.33 1.33L326.36 401.5c0 1.34 0 2.68 2 2.68.66 0 2 0 2.66-2l41.32-163.28c0-1.34 0-2.67-1.33-2.67zM159.75-2.36h-2L3.15 130.94c-1.35.66-1.35 1.33-.68 3.32 1.33.67 2 .67 2.67 0L159.73.3c1.34-.66 1.34-1.33 0-2.66zM123.77.97L121.1.3 3.14 92.94c-1.34 1.34-1.34 2.67-.67 3.33h2.67L123.1 3.63l.67-2.66zM101.77-2.36l-2-.67L-4.86 66.95c-1.33.67-1.33 1.34-.67 2.67l2.67.66L101.77.3c1.33 0 1.33-1.33 0-2.66zM79.78 467.5l-4-.68c-1.33.67-1.33 2-.67 3.33l13.34 20.66c4 9.34 6 14.68 4.67 17.35L78.46 520.8c-8.67 6-14 10.67-15.33 15.33-.67 6.67 1.33 12.67 5.33 19.33 4 5.33 9.33 8 14.66 8.66l24.67-1.33 23.32-2.68 24.65 3.33 16.67 2.67c4-.66 10-5.33 18-14 9.32-10.65 16-15.32 20.65-15.32l14.66 2.66 30.66 2c6-2.66 11.98-6.66 15.98-14 3.34-5.32 6.67-8 10-8.65h18.66c18.66 1.33 31.32-.66 36.65-4 5.33-3.32 8-10 9.33-20.65l-.67-15.33-2-1.33c-1.33-.68-2 0-2.67 1.32l-7.34 13.33c-4.66 5.33-8.66 8.66-12.66 9.33h-16.66l-24 .67c8.67-13.33 18-21.33 27.33-22.67 1.34-.66 2-1.32 2-2.66h-.66c0-2-.66-2.67-2-2.67l-16.66 2c-12 2-20 6-24.65 12.67l-7.35 13.33-8 12.66-8.66 5.33-14.67-2-12-1.33-12.66 1.34-17.33 8c-12 6-20 9.33-24 9.33l-7.98 1.32-50.66-2c0-1.34.67-2 2-3.33l8-2.67c8.66-2 14.66-4 18-6.66 4.66-4 5.33-10.66 2-19.33-1.34-1.32-2-2-3.34-1.32-2 .67-2.66 2-1.33 3.33 2.66 6 2 10-1.33 13.34-2 2-7.33 4-14.67 6l-10.66 3.33c-3.33 2-4 4.67-3.33 8.66.66 4 6 7.33 16 8l39.98-2 8-.66c4.66-.67 13.33-4.67 26.65-10.67 6.67-4 12.67-7.33 16-8l20.66.67 17.33 2c4.66-.66 8-2.67 12-7.33l8-13.33 8-13.3c4-4.7 11.32-8.02 21.98-10.68-8 6.66-14.66 14-20.66 24.66v2.68l3.33.66 28.67-2h18c6.66-.66 13.32-6 20-16.66-.68 10.67-3.34 16.67-7.34 20-3.34 2-8 3.33-15.33 3.33h-37.32c-4 .67-6.67 2-9.33 4.67l-5.33 6.67c-3.34 5.33-8 10-13.33 11.33l-13.34 1.34-13.33-3.34-16.66-2.66c-3.33 0-8 1.33-12.66 5.33l-12 11.33-14.65 12.66-15.33-2-25.33-4-24 2.66-23.32 1.33c-4-.67-7.33-2.67-10.67-6.67-3.98-4.67-5.32-10-4.65-15.33.66-2 4.66-6.67 13.33-11.33 8-5.34 13.33-10.66 16-14.66 3.32-8.65-2.67-22.65-18-43.3z"/><path stroke-miterlimit="100" d="M364.58 579.58H7.42V7.42h357.16v572.16z" fill="none" stroke="#000" stroke-width="14.84"/></svg>