<svg xmlns="http://www.w3.org/2000/svg" height="100%" viewBox="0 0 372 587"><path fill="#fffaf0" d="M0 0h372v587H0z"/><path fill="#333" d="M63.43 39.06l-1.32-3.3-3.93-1.3c-2.63 0-3.95 1.3-3.95 4.6 0 3.28 1.32 5.25 3.95 5.25l3.94-1.3 1.33-3.94zM44.36 33.13c0-3.28-1.32-5.26-4.6-5.26-1.32 0-1.98 1.32-3.3 1.98l-1.97 3.28c0 2.64 1.97 4.6 5.25 4.6 3.3 0 4.6-1.96 4.6-4.6zM47 85.1c0-3.3-2-4.6-4.62-4.6-3.28 0-4.6 1.3-4.6 4.6 0 3.28 1.32 4.6 4.6 4.6 2.63 0 4.6-1.32 4.6-4.6zM92.37 50.9c0-3.3-1.32-5.27-4.6-5.27-3.3 0-5.27 1.98-5.27 5.26s1.97 4.6 5.26 4.6c3.3 0 4.6-1.32 4.6-4.6zM127.22 29.85c0-2.64-1.3-3.95-3.95-3.95-3.28 0-5.26 1.3-5.26 3.95 0 3.28 2 5.26 5.27 5.26 2.64 0 3.95-1.97 3.95-5.25zM96.97 28.54l-1.32-3.3-3.28-1.97c-3.3 0-4.6 1.98-4.6 5.27s1.3 4.6 4.6 4.6l3.28-.66 1.32-3.94zM128.54 52.2c0-3.28-1.32-4.6-4.6-4.6s-5.27 1.32-5.27 4.6c0 3.3 1.97 4.6 5.26 4.6s4.6-1.3 4.6-4.6zM65.4 60.1c0-2.63-1.32-4.6-4.6-4.6s-5.26 1.97-5.26 4.6l1.97 3.94 3.3 1.32 3.28-1.32 1.32-3.95zM40.4 65.36c0-3.3-1.96-4.6-4.6-4.6-1.3 0-1.96.66-3.28 1.3l-1.32 3.3c0 3.3 1.32 5.26 4.6 5.26 2.64 0 4.6-1.97 4.6-5.26zM76.58 22.6c0-3.27-1.97-5.25-4.6-5.25-1.32 0-1.97.66-3.3 1.98l-1.3 3.28c0 2.65 1.3 3.96 4.6 3.96 2.63 0 4.6-1.3 4.6-3.95zM43.04 117.32l-1.97-3.3-3.3-1.97c-1.3 0-2.62 1.32-3.28 1.98l-1.32 3.3c0 2.6 1.3 4.6 4.6 4.6s5.26-2 5.26-4.6zM63.43 106.8l-1.32-3.3-3.93-1.97c-2.63 0-3.95 1.97-3.95 5.26 0 2.62 1.32 4.6 3.95 4.6 3.28 0 5.26-1.98 5.26-4.6zM39.1 159.4c0-2.62-1.32-4.6-4.6-4.6-3.3 0-5.27 1.98-5.27 4.6l1.97 3.95 3.3 1.3 3.28-1.3 1.32-3.95zM48.96 139.67l-1.32-3.28-3.28-1.33c-3.3 0-4.6 1.32-4.6 4.6 0 3.3 1.3 4.6 4.6 4.6 3.28 0 4.6-1.3 4.6-4.6zM48.96 195.57c0-3.28-1.32-5.26-4.6-5.26-3.3 0-4.6 2-4.6 5.27 0 2.63 1.3 3.95 4.6 3.95 3.28 0 4.6-1.32 4.6-3.95zM39.1 241.6l-1.32-3.28-3.3-1.97c-1.3 0-2.62 1.3-3.28 1.97-1.3.66-1.97 1.97-1.97 3.3l1.97 3.28 3.3 1.3 3.28-1.3 1.32-3.3zM36.47 182.42c0-3.3-1.98-4.6-5.27-4.6-.65 0-1.97.65-3.28 1.3-.66 1.33-1.32 1.98-1.32 3.3l1.32 3.95 3.28 1.3c3.3 0 5.27-1.96 5.27-5.25zM41.73 216.62l-1.32-3.3-3.28-1.3c-3.3 0-5.26 1.3-5.26 4.6s1.97 5.26 5.26 5.26 4.6-1.97 4.6-5.26zM61.45 246.87c0-3.3-1.3-5.26-4.6-5.26s-5.26 1.98-5.26 5.27c0 2.63 1.96 4.6 5.25 4.6 3.3 0 4.6-1.97 4.6-4.6zM56.2 171.24l-1.32-3.3-3.3-1.3c-3.28 0-4.6 1.3-4.6 4.6s1.32 5.27 4.6 5.27l3.3-1.3 1.3-3.96zM45 268.58l-.64-3.3-3.95-1.32c-2.62 0-4.6 1.33-4.6 4.62 0 2.62 1.98 4.6 4.6 4.6 3.3 0 4.6-1.98 4.6-4.6zM39.1 342.88c0-3.3-1.32-5.25-4.6-5.25-3.3 0-5.27 1.96-5.27 5.25l1.97 3.3 3.3 1.3 3.28-1.3 1.32-3.3zM48.96 360.65c0-3.3-1.32-4.6-4.6-4.6-3.3 0-4.6 1.3-4.6 4.6 0 3.28 1.3 5.25 4.6 5.25 3.28 0 4.6-1.97 4.6-5.25zM39.75 381.7c0-3.3-1.97-5.28-4.6-5.28-1.3 0-1.97.67-3.3 1.98l-1.3 3.3c0 2.62 1.3 4.6 4.6 4.6 2.63 0 4.6-1.98 4.6-4.6zM266.64 19.98c-.66 0-1.97.66-3.3 1.32-.65 1.3-1.3 1.97-1.3 3.3l1.3 3.94 3.3 1.3c3.3 0 5.26-1.97 5.26-5.25 0-3.3-1.97-4.62-5.26-4.62zM254.8 28.54l-1.97-3.3-3.3-1.97c-3.28 0-4.6 1.98-4.6 5.27s1.32 4.6 4.6 4.6l3.3-.66 1.97-3.94zM235.07 22.6c0-3.27-1.97-4.6-4.6-4.6-1.32 0-1.98.67-3.3 1.33l-1.3 3.28 1.3 3.96c1.32 1.3 1.98 1.3 3.3 1.3 2.63 0 4.6-1.96 4.6-5.25zM267.95 44.98c0-3.3-1.97-5.27-5.26-5.27-3.3 0-4.6 2-4.6 5.28 0 2.62 1.3 4.6 4.6 4.6s5.25-1.98 5.25-4.6zM337 26.56c0-3.3-1.97-4.6-5.25-4.6-3.3 0-4.6 1.3-4.6 4.6l1.3 3.3c1.32 1.3 2.64 1.3 3.3 1.3l3.94-1.3 1.3-3.3zM350.16 46.3c0-3.3-1.97-5.27-5.26-5.27s-4.6 1.97-4.6 5.26c0 2.62 1.3 4.6 4.6 4.6s5.26-1.98 5.26-4.6zM332.4 54.84c0-2.63-1.3-4.6-4.6-4.6s-5.26 1.97-5.26 4.6l1.97 3.94c.67.66 2 .66 3.3.66 3.3 0 4.6-1.3 4.6-4.6zM348.2 231.74c0-2.62-1.33-3.95-3.96-3.95-3.3 0-5.26 1.32-5.26 3.94 0 3.3 1.97 5.26 5.26 5.26 2.63 0 3.95-1.97 3.95-5.26zM331.75 244.24c0-3.3-1.97-5.26-5.26-5.26-2.65 0-4.62 1.97-4.62 5.26 0 3.28 1.98 4.6 4.6 4.6 1.32 0 2.64-.66 3.95-1.32l1.32-3.28zM346.87 265.3c0-3.3-1.97-4.62-5.26-4.62-2.62 0-3.93 1.32-3.93 4.6s1.3 5.26 3.94 5.26c3.3 0 5.27-1.96 5.27-5.25zM349.5 212c0-3.27-1.3-4.6-4.6-4.6s-4.6 1.33-4.6 4.6 1.3 5.27 4.6 5.27 4.6-1.97 4.6-5.26zM348.2 374.45l-1.33-3.28c-1.3-1.32-2.63-1.32-3.94-1.32-1.3 0-1.98 0-3.3 1.3l-1.3 3.3c0 2.64 1.3 4.6 4.6 4.6s5.26-1.96 5.26-4.6zM340.95 391.55l-1.97-3.3-3.3-1.96c-1.3 0-1.96.65-3.27 1.96l-1.3 3.3 1.3 3.93c1.32.65 1.98 1.3 3.3 1.3 1.3 0 2.62-.65 3.28-1.3l1.97-3.95zM349.5 408c0-3.3-1.3-4.6-4.6-4.6s-4.6 1.3-4.6 4.6c0 2.62 1.3 4.6 4.6 4.6s4.6-1.98 4.6-4.6zM342.27 426.4c0-3.28-1.3-5.26-4.6-5.26s-5.26 1.98-5.26 5.27c0 2.64 1.98 3.95 5.27 3.95s4.6-1.3 4.6-3.94zM348.2 492.17c0-3.28-1.33-4.6-3.96-4.6-1.97 0-2.63 0-3.3 1.32-1.3.64-1.96 1.95-1.96 3.27 0 3.3 1.97 4.6 5.26 4.6 2.63 0 3.95-1.3 3.95-4.6zM329.77 500.06c0-2.63-1.3-4.6-4.6-4.6s-5.26 1.97-5.26 4.6c0 3.3 1.98 5.27 5.27 5.27 3.3 0 4.6-1.98 4.6-5.27zM345.56 515.2c0-2.64-1.32-4.62-4.6-4.62-2.64 0-4.6 1.98-4.6 4.6 0 3.3 1.97 5.27 4.6 5.27 3.28 0 4.6-1.97 4.6-5.26zM87.76 69.3c0-3.28-1.97-5.25-4.6-5.25-1.32 0-1.98 1.3-3.3 1.97L77.9 69.3l1.97 3.3c1.3 1.3 1.97 1.3 3.3 1.3 2.62 0 4.6-1.3 4.6-4.6zM116.7 75.23l-1.32-3.3c-1.3-.65-1.97-1.3-3.28-1.3-1.32 0-2.64.65-3.3 1.3-1.3 1.32-1.97 1.98-1.97 3.3l1.98 3.94c.66 1.32 1.98 1.32 3.3 1.32l3.28-1.33 1.32-3.94zM109.46 46.3l-1.3-3.3c-.67-.66-2.64-1.3-3.96-1.3-.66 0-1.97.64-3.3 1.3-.65 1.3-1.3 2.63-1.3 3.3l1.3 3.93c1.33.66 2.64 1.32 3.3 1.32l3.95-1.32 1.3-3.94zM158.13 26.56c0-3.3-1.32-4.6-4.6-4.6s-5.26 1.3-5.26 4.6 1.97 4.6 5.26 4.6 4.6-1.3 4.6-4.6zM147.6 42.34c0-3.28-1.3-4.6-4.6-4.6s-4.6 1.32-4.6 4.6c0 3.3 1.3 4.6 4.6 4.6s4.6-1.3 4.6-4.6z"/><path d="M363.97 39.06c-1.3-.66-2.63 0-3.3 1.97-7.88 21.04-19.06 44.06-33.53 70.37l-20.38 32.22c-1.32.66-1.32 2.63.65 3.95l3.96-1.32 19.73-32.88c14.46-25.65 26.3-49.32 34.2-71.03 1.3-1.3 0-2.63-1.33-3.28z"/><path fill="#858585" d="M321.22 154.14c-5.9-16.44-9.86-30.25-12.5-42.1-3.28-15.1-2.62-38.13 1.98-69.04 1.98-15.13 4.6-29.6 7.24-42.75h-23.02c-6.58 35.52-9.87 64.46-9.87 88.13-.65 11.83 1.98 27.6 7.24 48 3.93 16.45 5.25 26.3 3.28 28.94-2.63 5.26-13.82 15.13-33.54 27.63-2.63-10.53-6.58-34.2-11.84-71.03l-7.23-57.2c0-3.96-1.98-7.25-4.6-8.57l-7.24-1.3c-1.3.65 0 23 4.6 68.38l9.2 80.24c-62.47 39.45-114.42 67.07-154.54 84.17l-7.24-5.26c-5.26-1.98-9.2-2.63-11.84-1.3l-14.46 7.88c-5.92 3.94-9.2 8.55-8.55 12.5 2.64 20.38 19.74 59.84 50.65 119.7 42.74 80.88 89.44 141.38 140.07 182.15l152.58-3.93L233.1 433c23.68-21.72 69.06-57.24 134.16-108.53v-24.34c-15.12 13.16-65.1 51.3-149.94 115.75-38.15-41.43-64.45-74.3-78.92-99.3l98.65-71.02 55.24-39.46c15.77-10.53 25.63-19.73 28.92-25.65 3.3-5.92 3.3-14.47 0-26.3z"/><path d="M52.9 311.98l-2.62-.66c-.66.66-1.32 1.97-.66 2.63L64.08 335l30.9 41.43 58.54 66.43c71.03 78.25 111.15 124.28 121 138.1l2 .66c1.3-.66 1.96-1.32 1.3-2.64-10.52-15.12-51.3-61.16-121-139.4L98.27 373.8l-30.9-40.78-14.47-21.04zM102.23 423.12l-2.63.66c-.66 1.3-.66 1.3 0 2.63l47.35 47.36c32.88 32.88 53.27 55.24 62.48 67.08l48.66 58.52 3.28.66c.66-.66.66-1.97 0-3.28L212.7 538.2c-9.2-11.18-30.24-34.2-63.12-67.08l-47.35-48zM61.45 286.33l-3.28-.66c-.66 1.3-.66 1.97 0 2.63l23.67 32.22c19.07 23.02 36.17 40.78 51.95 53.93 13.15 11.18 36.17 36.18 68.4 76.3-30.92-42.1-52.62-68.4-65.77-78.93-15.8-13.15-32.9-31.56-51.96-54.58l-23.02-30.9zM315.96 590.16l-21.7-28.28c-28.94-38.15-55.24-69.7-78.92-95.35l75.63 97.32 22.36 29.6h2.63c1.32-.66 1.32-1.97 0-3.3zM252.17 479.02h-2.63c-1.3 1.3-1.3 1.97 0 3.3l37.5 42.08c25.63 29.6 42.08 49.32 49.3 59.84l2.64.66c1.3-.66 1.97-1.32.66-2.64-7.24-10.5-23.68-30.24-48.67-59.84l-38.8-43.4z"/><path d="M320.56-1.72l-2.63-1.32h-23c-2 0-2.64 1.32-3.3 2.64-6.58 36.17-9.87 65.76-9.87 88.78l-.65.65c0 11.85 2.64 28.94 7.9 49.98l4.6 21.72-.65 3.3c-1.98 3.93-11.84 11.82-29.6 23.66-1.97-13.8-5.92-36.83-10.52-69.7l-6.58-53.27c0-4.6-1.97-7.9-4.6-10.52-3.3-1.97-6.58-3.3-11.18-2.63l-1.97 1.3c-.66 1.33-1.32 4.62-1.32 7.9 0 7.9 1.97 28.94 5.26 62.48 3.95 40.78 6.58 66.43 8.55 78.92-61.17 37.5-111.15 65.1-149.95 81.54-9.2-6.58-16.44-8.55-21.7-5.26l-5.92 3.3-13.15 7.87c-3.95 3.96-5.92 7.9-5.27 12.5 0 5.27 5.28 17.76 13.17 38.82 11.18 26.96 23.67 53.92 37.48 80.88 43.4 82.2 90.76 143.37 141.4 184.14l1.97.66 152.57-3.95 3.28-1.3v-2l-.66-1.95L238.36 433c24.33-21.72 67.74-56.58 130.2-105.9l2-2.63v-24.34l-2.64-3.28-3.3.66L218 411.95c-35.52-38.8-61.17-70.37-74.98-94.7 33.54-23.02 65.77-46.04 96.02-69.05l36.83-26.32 31.56-22.35c7.9-6.58 13.82-12.5 16.45-17.1 1.98-3.3 3.3-7.9 3.3-13.16s-1.98-15.13-6.58-27.62L312 111.4c-1.32-6.58-1.98-14.47-1.98-23.02 0-24.33 3.95-53.93 11.18-86.8V.24l-.66-1.97zm-23 5.26h16.43c-7.24 37.5-10.53 65.1-10.53 84.84 0 9.86.65 17.1 1.97 24.33l9.2 31.58c3.95 12.5 5.93 21.04 5.93 25 0 3.94-1.32 7.23-2.64 9.85-2.62 3.95-7.9 9.87-15.78 16.44l-29.6 21.05-37.48 26.3c-28.93 21.7-61.8 45.38-98.64 71.03l-1.32 2.63v1.32c14.48 25.64 41.44 58.52 80.24 100.6h4.6c73-55.23 121-92.06 144.03-111.13v15.78l-58.53 45.38c-35.5 28.28-59.85 48.67-74.3 61.17l-1.33 2.62v.66l.67 1.97 153.9 161.78-144.7 3.3c-49.98-40.78-96-100.63-138.1-180.86-13.8-26.3-26.3-53.27-36.83-79.58-8.55-21.05-13.15-34.2-13.15-38.15v-.66c0-3.96 4.6-8.56 14.46-12.5l7.23-3.95 6.57.66c3.3 1.32 5.92 2.64 7.9 5.27h3.28c40.77-16.45 92.73-44.72 155.2-84.17l1.97-2.64v-.65c-1.97-7.9-5.26-31.57-8.54-69.7-3.3-39.47-5.92-63.8-5.92-74.32l3.3.66c1.96 1.3 2.62 2.63 2.62 5.92l7.23 57.87c5.27 36.17 9.22 59.85 11.85 70.37l1.3 2.63 3.3-.66c21.04-13.16 32.22-23.02 35.5-28.28l1.33-6.6-4.6-23c-5.27-22.37-7.9-38.8-7.9-48.67l.66-.66c0-21.04 3.3-49.3 9.2-84.83z"/><path fill="#858585" d="M198.9 590.16c-38.8-19.07-84.83-49.98-140.73-90.75l-71.7-56.55-6.56 11.83 71.7 55.9c55.9 41.44 101.92 72.34 140.73 91.4l6.57-11.82z"/><path d="M200.22 587.53c-37.5-19.07-83.52-49.32-138.77-90.1l-73-57.2-2.62-.66-1.98 1.96-6.57 11.2c-1.32 1.95-1.32 3.28.66 4.6l73 56.54c55.9 41.44 101.93 71.7 139.4 90.76 2.64 1.32 3.3 1.32 4.62-1.3l6.57-11.85.66-1.98-1.98-1.97zm-5.92 3.95l-3.94 5.92c-55.25-28.28-123.64-76.3-206.5-143.37l3.28-5.92 79.58 61.17c49.98 36.83 92.72 64.45 127.58 82.2z"/><path fill="#F00" d="M81.19 100.22c-4.62 41.43-3.96 89.44 1.3 144.68 11.84 108.5 44.06 196.63 96.02 263.72l130.2-5.27c-55.23-64.45-90.1-151.26-105.87-260.43C195.6 189 192.98 141 196.27 99.55l-115.1.67z"/><path d="M198.25 96.93l-1.98-.67-115.74.67c-1.98 0-2.63 1.3-2.63 3.28-4.6 42.76-3.95 91.42 1.97 146 11.84 109.84 44.06 197.3 96 264.38.67 1.33 2 1.33 2.65 1.33l130.2-5.26 3.3-1.3c0-1.34 0-2.65-.66-3.3-54.58-64.46-88.78-150.6-104.56-257.8-7.9-53.93-10.53-101.94-7.24-144.03l-1.3-3.27zm-5.93 5.9l-.65 28.3c0 57.2 5.92 112.45 18.4 166.38 18.43 82.2 49.34 150.6 92.08 203.22l-122.32 4.6c-37.48-48.66-64.45-109.17-80.9-182.82C87.77 271.2 81.2 217.27 81.2 160.72c0-21.7 1.32-40.77 2.63-57.22l108.52-.66z"/><path d="M143.66 139c-.66-1.3-1.97-2.6-3.3-1.3L115.4 141h-13.15c-1.32-.66-2.63 0-3.3 1.96 0 1.32 1.33 2.63 2.64 3.3h14.47c10.52 0 19.07-1.33 25.65-3.3l1.96-3.95z"/><path d="M122.62 121.92c-1.98-.66-2.64 0-2.64 1.97l-3.28 32.22c0 23 5.26 42.74 15.12 57.2l3.3.67c1.96-1.32 1.96-1.98 1.3-3.96-9.86-13.8-14.46-32.22-14.46-55.24l2.63-30.25c.65-1.32-.67-2.63-1.98-2.63z"/><path d="M140.37 156.12l-1.3-1.98c-1.98-.65-2.64 0-3.3 1.3l-5.26 15.8c-5.9 2.63-10.5 5.92-15.12 9.2-3.94 3.3-7.23 6.6-9.86 11.18-3.3 3.95-4.6 7.24-4.6 10.53v2.63c.65 1.98 2.62 3.95 5.9 3.95 8.56.66 17.77-9.87 26.98-33.54l22.36-1.33c5.26 3.3 8.55 6.58 9.86 10.52.66 5.26-1.97 11.18-7.9 19.07l-16.43 19.07-2 2.63c-5.9 5.92-7.88 10.52-5.9 14.47 1.3 4.6 5.26 6.58 11.18 6.58l3.3-1.98c0-2.63-1.33-3.3-2.64-3.3-3.95 0-6.58-1.3-7.24-3.28-1.32-1.96.66-4.6 4.6-8.54l2.64-2.63 17.75-21.06c5.9-8.55 7.88-15.78 7.23-21.7-.66-5.92-4.6-10.52-12.5-14.47l-21.05-.66 3.3-11.17v-1.3zm-21.7 28.27l8.55-5.27c-7.9 16.44-14.47 25-19.73 24.34l-1.32-.66-.66-.65c0-3.95 4.6-9.87 13.15-17.76zM130.5 285.02l7.24-.66c2.63-2.63 5.92-6.58 7.24-13.16l1.97-11.18v-.65l7.23 1.97c5.26 3.3 7.24 7.24 7.24 13.15-.66 3.94-2.63 7.88-5.26 12.48-3.3 3.95-6.58 6.58-10.52 7.9-1.98 0-2.64 1.97-1.98 3.3.66 1.96 1.98 1.96 3.3 1.96 5.25-1.97 9.85-5.26 13.14-9.87 3.3-5.25 5.92-10.52 5.92-15.78.66-7.25-2.63-13.16-9.2-17.77l-19.08.66c-3.94 1.97-6.57 5.25-9.2 9.85-1.98 3.95-3.3 7.9-2.63 11.2.66 3.28 1.98 5.9 4.6 6.57zm.67-7.24l-.66-.66c0-2.63 1.33-5.26 3.3-7.9 1.3-3.28 3.94-5.26 6.57-7.22l1.32-.66c-1.33 9.86-3.96 16.44-6.6 18.4l-2.62.67-1.3-2.62zM153.53 311.32c-.66-1.32-1.98-1.32-3.3-.66l-1.96 1.97v1.32l11.83 29.6c-11.83 1.3-18.4 3.28-20.4 7.9l-1.3 2.62c0 3.3 1.97 5.9 5.26 7.23l12.5 3.3c5.26 0 8.55-1.33 10.52-3.95l1.3-4.6-1.3-7.24 3.94.66c9.2 0 13.8.66 13.8 3.3v.65c.02 2.64-1.3 4.6-5.25 6.58-1.3.67-2.63 1.32-2.63 3.3h.66c.66 1.97 1.32 2.62 2.63 1.97l7.23-3.95c2.63-2.63 3.3-5.92 2.63-9.86-.66-3.94-5.27-6.58-13.82-7.23l-10.52-.65c-1.97-9.2-5.92-19.74-11.84-32.23zm-7.24 45.38l-2.64-2.63.66-.66c.66-1.97 6.58-3.28 17.1-3.94l1.3 6.57v1.32l-7.22 1.97-9.2-2.63z"/><path d="M172.6 316.58c-1.32-1.97-1.97-2.63-3.3-1.97l-15.78 3.3s-.65 0-1.3.65l-.67 1.98c0 1.3 1.32 2.62 2.63 2.62l17.1-3.3c1.97-.64 1.97-1.95 1.32-3.27zM161.42 382.34c-1.98-.65-3.3 0-3.3 1.32 0 1.97 0 2.63 1.98 3.3l4.6.65 10.53-1.3-10.52 20.38-.65 1.97.66 1.32 3.3.65c3.28-1.97 8.54-3.94 13.15-5.26l15.12-1.97 2.63 2.62-1.3 5.9c-2 3.3-6.6 6.6-13.16 8.57l-15.8 3.28-2.62 1.3v2.64l21.05 38.8c4.6 7.9 9.86 13.16 16.44 16.44l21.05 1.32c5.26-3.3 8.55-12.5 10.52-28.27l.66-25.65c0-1.3-1.3-1.97-2.63-1.97-1.97 0-3.3.66-3.3 1.98.67 10.52.67 19.73-.65 28.93-1.3 11.82-3.3 18.4-7.23 19.72l-16.44-.66c-5.26-2.63-9.86-7.24-13.15-13.8l-19.73-36.18 17.1-3.95c5.92-2.63 9.86-5.92 12.5-9.2l1.97-7.24-.66-4.6c-.65-2.64-3.28-3.95-5.9-4.62-5.27-1.96-13.82-.65-24.34 3.3l9.86-21.05v-.65l-.66-2.63c-1.3-.66-2.63-.66-3.28 0-5.93 4.6-11.2 5.9-17.76 4.6z"/><path fill="#D96038" d="M360.68 308.7c0-7.9-5.26-13.82-14.46-17.1l-13.82-2c-.65-3.93-1.97-7.22-4.6-11.16-5.26-7.24-12.5-11.2-21.04-12.5-8.55-.65-15.8 3.3-21.7 11.84-2.64 4.6-4.6 9.2-5.92 13.15l-11.18 1.32c-8.55 1.97-12.5 7.88-14.47 16.44-1.33 8.53 1.96 15.1 9.85 21.02 4.6 3.3 8.55 4.6 12.5 5.93l61.8-.66c3.96-1.32 7.9-3.3 11.85-5.93 8.55-5.26 11.84-12.5 11.18-20.38z"/><path d="M286.37 271.2c-3.95 3.95-7.23 9.87-9.86 16.44-5.26 0-10.52 1.32-15.12 3.95-5.92 3.28-9.87 9.2-11.18 16.43-.66 8.54 1.97 15.78 7.9 21.7 4.6 3.95 10.5 7.23 17.1 9.2l62.47-.65.65-.65 13.16-6.58c8.55-5.27 12.5-12.5 12.5-21.05v-1.97c0-7.23-3.95-12.5-10.53-16.44-5.26-3.3-11.18-4.62-18.4-5.27-5.27-14.47-14.48-22.37-27.64-23.68-8.54-.65-15.1 1.98-21.03 8.55zm19.73-1.97c7.9 1.3 14.47 4.6 19.07 11.18l4.6 9.87c.66 1.32 1.98 2.63 3.3 2.63l11.83 1.98c7.9 2.63 12.5 7.23 12.5 13.8V310c0 9.86-6.58 17.1-20.4 21.7l-60.5.66c-13.15-3.94-19.72-10.52-19.72-20.38v-2.64c1.3-7.23 5.26-11.83 11.83-13.8l10.53-1.32c1.98 0 3.3-.66 3.3-2.63.65-3.96 3.28-7.9 5.25-11.85 4.6-7.9 11.18-11.17 18.42-10.52z"/><path fill="#FFE700" d="M335.04 313.95c-5.92-11.18-15.13-16.44-26.97-16.44s-20.4 5.92-25.65 16.45c-3.28 4.6-4.6 9.86-5.26 15.78 10.52 5.26 24.33 7.24 41.44 5.26l23-4.6c-1.3-5.92-3.28-10.54-6.56-16.45z"/><path fill="#D96038" d="M309.4 338.28c0-3.94-.67-7.9-3.96-11.18-3.3-3.95-7.9-5.9-13.15-6.58-5.93-.66-9.87 0-13.82 2.63-4.6 1.98-6.58 5.92-7.24 10.53-.65 3.95.66 7.9 3.95 11.18 3.28 3.94 7.22 5.92 13.14 6.57 5.27.66 9.87-.65 13.82-2.63 4.6-2.63 6.57-5.92 7.23-10.52z"/><path d="M305.44 350.12c3.95-2.63 6.58-6.58 7.23-11.18v-1.97c0-3.96-1.3-7.24-3.94-10.53-3.3-5.25-9.2-8.54-16.44-9.2-6.6-.66-13.16 0-17.77 4.6-3.94 2.63-5.92 5.92-6.58 11.18-1.3 4.6.66 9.86 4.6 13.8 3.96 4.6 9.22 6.6 15.13 7.9 7.24 1.3 13.16-.65 17.76-4.6zM289 348.15c-4.6-.66-7.9-1.98-11.18-4.6-2.63-3.3-3.94-6.58-3.3-9.87 0-2.62 1.33-5.26 3.96-6.58 3.28-3.28 7.23-3.95 13.15-3.28 5.92.66 9.86 3.28 12.5 6.57 1.3 2.62 1.97 4.6 1.97 7.9-.66 2.62-1.32 5.25-3.95 6.56-3.3 2.63-7.9 3.94-13.15 3.3z"/><path fill="#D96038" d="M348.2 334.34c-.67-3.95-2.64-7.24-6.6-10.53-4.6-2.6-9.2-3.27-14.46-2.6-5.26 0-9.86 2.62-13.15 5.9s-5.27 7.24-4.6 11.2c0 4.58 2.62 8.53 6.56 10.5 4.6 2.64 9.2 3.95 14.47 3.3 5.26-.66 9.86-2.64 13.15-5.93 3.3-3.3 4.6-7.9 4.6-11.83z"/><path d="M345.56 348.15c4.6-4.6 5.92-8.56 5.92-14.47-.66-3.95-2.63-7.9-6.58-10.53-5.26-4.6-11.18-5.9-17.76-5.25-6.57.65-11.83 2.63-15.78 7.23-3.95 3.94-5.92 8.55-5.26 13.8 0 4.6 2.63 9.22 7.9 12.5 4.6 3.3 10.5 4.6 17.1 3.95 5.9-.65 10.5-2.63 14.46-7.23zM344.9 335v1.3c0 2.64-1.32 5.27-3.95 7.9-3.28 2.63-6.57 3.95-10.52 4.6l-11.83-1.97c-3.3-2.62-5.92-5.26-5.92-8.55-.66-3.94 1.3-6.57 3.94-9.2 2.63-2.64 6.58-4.6 11.18-5.27 4.6 0 9.2.67 13.15 3.96 2.63 2.63 3.95 4.6 3.95 7.24zM298.2 290.93c0-1.3-1.3-1.97-2.62-1.3-1.32.64-1.32 1.3-1.32 2.62l5.92 21.7c.66.66 1.32 1.3 2.63.66 1.33 0 2-.65 1.33-2.62l-5.92-21.05z"/><path fill="#DA8E55" d="M314 314.6l6.56-21.7-2.63 5.93c-1.97 5.25-3.28 10.52-3.94 15.78z"/><path d="M321.22 290.93c-1.3 0-2.62 0-2.62.66l-2.64 7.23-3.94 15.12c0 1.32 0 2.63 1.97 2.63l1.3-1.97 3.95-14.47 2.63-5.9c.66-1.98.66-2.64-.66-3.3zM336.35 298.17c-1.3-.66-1.97-.66-2.63 0l-5.26 7.23-2.63 5.92c-.66.66 0 1.97 1.3 2.63l2-.66c3.28-5.93 5.9-9.88 7.22-12.5v-2.63zM281.77 299.48c-.66-1.3-1.98-1.3-2.63 0-.66 1.3-.66 1.98 0 2.63 5.92 5.27 9.86 9.22 10.52 11.85l2.63.66c1.3 0 1.96-.65.65-2.62l-5.27-7.23-5.9-5.27z"/><path fill="#D96038" d="M309.4 206.1l13.14-3.95c9.2-3.3 14.47-9.87 15.13-17.76.65-7.9-2.64-13.82-10.53-19.08l-13.15-4.6-2.64-11.84c-3.95-7.9-9.86-13.8-19.07-15.78-7.9-2.63-16.45 0-23.03 7.23l-7.9 11.83-11.83-1.3c-7.9 1.3-13.8 5.25-17.1 13.8-2.63 7.9-.66 15.8 5.92 22.37 3.95 3.94 7.23 6.57 11.18 8.54l59.85 10.53z"/><path d="M317.28 158.1c-2.63-15.14-10.52-24.34-24.33-28.3-7.24-1.96-14.47-1.3-21.05 3.96-5.26 3.94-9.2 9.2-12.5 15.12l-16.43.66c-6.58 1.97-10.53 6.58-13.16 14.47-3.27 7.24-1.96 15.13 3.3 21.7 3.3 5.92 8.55 9.87 15.12 12.5l.66.66 60.5 10.53h.67c4.6 0 9.2-1.34 15.12-3.96 9.86-3.95 15.12-11.18 15.78-20.4l.66-2.62c0-6.57-3.28-11.83-9.2-16.44-3.94-3.95-9.2-6.58-15.12-7.9zm-25.65-21.72c7.23 1.32 13.15 6.58 16.44 13.16l2.63 11.18c0 1.97 1.32 3.3 2.63 3.3 2.64 0 5.92 1.3 11.18 3.28 6.6 3.94 9.88 8.54 9.88 15.12v1.32c-.66 6.57-5.26 11.83-12.5 15.12l-11.83 3.95-59.85-10.52c-10.52-6.57-15.78-13.15-15.78-20.4l1.3-5.9c2.64-6.58 7.25-10.53 13.82-11.84l10.53 1.3c1.97.67 2.62 0 3.94-1.95l7.9-10.54c5.92-6.58 12.5-8.55 19.73-6.58z"/><path fill="#FFE700" d="M291.63 202.8c7.9.67 15.78.67 23.02-.65 0-5.26-.66-11.18-2.63-17.1-4.6-12.5-12.5-19.07-23.68-21.04-11.83-1.97-21.04 1.98-28.93 10.53L252.18 189c9.2 7.9 22.36 13.15 39.46 13.8z"/><path fill="#D96038" d="M281.77 204.78c1.3-4.6.65-8.54-1.98-12.5-2.64-3.94-6.58-7.23-11.2-8.54-5.25-1.98-9.85-1.98-15.1 0-3.96 1.3-7.25 4.6-8.56 8.55-1.98 3.94-1.32 7.88 1.97 12.48 2.64 3.95 6.6 6.57 11.85 7.9l13.8.65c4.6-1.32 7.24-4.6 9.22-8.55z"/><path d="M285.7 200.18l-1.96-7.9c-3.3-5.9-7.9-9.86-14.47-11.83l-19.07.66c-3.95 2.64-7.23 5.93-8.55 10.52-1.97 3.95-1.3 8.56 1.3 13.16 3.3 5.26 7.25 9.2 14.48 11.18l18.42-.66c4.6-2.62 7.23-5.9 9.2-9.86l.66-5.26zm-7.22 3.3c-.66 1.96-2.63 4.58-5.92 5.9l-13.15.66c-4.6-1.3-7.9-4.6-10.5-8.55-2-2.64-2-5.93-.67-8.55.66-1.98 1.97-3.95 5.26-5.92l13.14-.66c5.92 1.97 9.2 5.25 11.18 9.2 1.32 2.63 1.32 4.6.66 7.9z"/><path fill="#D96038" d="M320.56 208.06c0-4.6-1.3-8.54-5.26-11.83-3.28-3.28-7.23-5.26-13.15-5.92-5.26 0-9.86 1.32-13.8 3.3-3.96 3.3-5.93 6.58-6.6 11.18 0 3.95.67 7.23 4.62 11.18 3.3 3.3 7.9 5.26 13.15 5.92 5.92 0 9.86-.66 14.47-3.3 3.94-3.28 5.9-6.57 6.56-10.52z"/><path d="M302.15 187.03c-5.92-.66-11.18 1.3-16.44 4.6-3.93 3.28-6.56 7.23-7.22 12.5 0 5.26 1.3 9.86 5.92 13.8 3.94 3.95 8.55 6.58 15.12 7.24 5.92 0 11.84-1.32 15.8-4.6 5.25-3.3 7.88-7.9 8.54-12.5 0-5.26-1.98-9.87-5.92-13.8-3.95-4.6-9.2-6.6-15.8-7.24zm-11.83 9.2c3.28-1.97 7.23-2.63 11.83-2.63 3.95.66 7.24 1.97 10.52 4.6 2.63 1.98 4.6 5.27 4.6 8.55v.66c-.65 3.95-1.97 5.93-5.9 7.9-3.3 2.63-7.25 3.3-11.85 3.3-3.94-.67-7.23-1.98-10.52-5.27-3.3-1.98-3.95-5.26-3.95-8.55.66-3.3 1.98-5.92 5.27-8.54zM279.14 156.12c0-1.98-.66-1.98-1.98-1.98-1.3 0-1.3 0-1.3 1.98l1.96 21.7c0 1.97.66 2.63 1.32 1.97l1.97-2-1.96-21.7zM302.15 160.06l-3.3.66-3.27 5.26L289 181.1c-.66 1.32 0 1.98.66 2.64 1.3 0 2.63 0 2.63-1.32l6.56-14.47 3.3-5.26c1.3-1.32.65-1.98 0-2.63zM315.3 169.93c-.65-1.32-1.3-1.98-2.62-.66-2.63 1.97-6.58 5.9-9.87 11.18-.64 1.3-.64 1.97 0 3.3l3.3-.67c4.6-5.92 7.23-9.2 9.2-10.52.66-.66.66-1.97 0-2.63zM262.04 160.72h-3.3c-.65.66-.65 1.97 0 3.3 4.6 5.9 7.24 9.85 7.9 12.5.66 1.3 1.97 1.3 2.63 1.3l1.97-1.98-5.26-8.54-3.94-6.58z"/><path fill="#D96038" d="M68.7 456.66c-8.56 0-15.14 4.6-19.74 14.46-1.97 4.6-3.95 8.56-3.95 13.15-3.93 0-7.88 1.33-11.82 2.64-7.24 3.3-11.84 9.22-11.84 17.77-.66 8.54 3.3 15.12 11.84 20.4 4.6 1.95 8.55 3.27 13.15 3.93l61.16-7.23 11.17-7.9c7.24-6.58 9.87-13.15 8.55-21.7-1.3-7.9-6.58-12.5-16.44-14.47l-13.15-1.3-6.58-9.87C85.13 459.3 77.9 456 68.7 456.66z"/><path d="M49.62 463.24c-3.95 5.26-6.58 11.17-7.9 17.75-5.9 1.3-10.52 3.27-15.12 5.9-5.26 3.95-8.55 10.53-8.55 17.77v1.3c0 7.9 3.3 14.47 9.86 19.08 5.28 3.95 11.2 6.58 17.77 7.24H47l60.5-7.25 1.3-.66c4.6-1.98 8.55-4.6 12.5-8.56 7.9-7.22 10.52-15.13 9.2-23.67-1.3-7.9-5.25-13.15-12.5-15.78-5.9-2-11.17-3.3-18.4-3.3-7.24-13.8-17.1-20.4-30.9-19.73-7.9 0-14.48 3.3-19.08 9.87zm1.97 9.2c4.6-7.9 9.86-12.5 17.75-12.5 7.23-.65 13.8 2.64 19.07 8.56l5.92 9.2c.65 1.32 1.97 1.98 3.28 1.98l13.16 1.3c7.9 1.33 12.5 5.27 13.15 11.85v3.3c0 5.9-1.97 10.5-7.9 15.78-3.93 3.3-7.22 5.26-9.85 6.58l-59.85 7.23c-4.6-.64-8.55-1.97-11.84-3.93-6.6-3.95-9.87-9.2-9.87-15.78v-.67c0-7.9 3.3-12.5 9.86-15.13 3.28-1.3 6.57-2.63 9.86-2.63 2.63 0 3.28-.66 3.28-2.63.66-3.95 1.98-8.55 3.95-12.5z"/><path fill="#FFE700" d="M47 522.42l41.42 1.32c8.55-1.97 15.78-4.6 22.36-7.24-1.97-5.92-4.6-11.17-8.55-15.78-7.23-9.87-16.44-15.12-28.28-13.15-11.18 1.32-19.73 7.9-23.67 19.07-2.64 5.26-3.3 10.52-3.3 15.78z"/><path fill="#D96038" d="M79.87 528.35c0-4.6-1.97-8.56-5.26-11.2-3.94-3.28-8.54-4.6-13.8-5.24-5.92 0-9.87 1.32-13.8 4.6-3.96 2.64-5.93 6.58-5.93 10.52 0 4.6 1.97 8.56 5.26 11.2 3.95 3.28 8.55 4.6 13.8 5.24 5.27 0 9.88-1.3 13.82-4.6 3.95-2.63 5.92-6.57 5.92-10.5z"/><path d="M83.16 528.35c0-4.6-1.98-8.56-5.26-12.5-3.95-4.6-9.87-7.23-17.1-7.23-6.58 0-12.5 2.62-17.76 6.57-3.3 3.93-5.26 7.88-5.26 11.82 0 4.6 1.32 8.56 5.26 12.5 3.95 3.94 9.87 6.57 17.1 7.23 7.23 0 13.15-1.97 17.76-6.58 3.28-3.28 4.6-7.23 5.26-11.82zm-6.58 0l-3.3 7.23c-3.27 2.63-7.22 4.6-13.14 4.6-5.26-.66-9.86-1.97-12.5-5.26-2.63-2.63-3.28-4.6-3.28-7.9 0-1.96.65-4.6 3.28-7.23 3.95-2.64 7.9-4.6 13.16-4.6s9.2 1.96 12.5 5.25c2.63 2.63 3.28 5.26 3.28 7.9z"/><path fill="#D96038" d="M117.36 519.8c-.66-4.6-3.3-7.24-7.24-9.87l-14.47-1.3c-5.26.64-9.86 3.27-13.15 7.2-2.63 3.96-3.3 7.9-2.63 12.5 1.3 3.96 3.94 6.6 7.9 9.22l14.46 1.3c5.26-.64 9.2-3.27 11.84-7.22 3.3-3.28 4.6-7.9 3.3-11.84z"/><path d="M120.64 519.13c-.65-5.26-3.94-9.2-9.2-11.84-4.6-2.63-10.53-3.3-17.1-1.97-6.58 1.3-11.84 4.6-15.13 10.52-2.62 3.94-3.28 9.2-2.62 13.15 1.32 4.6 4.6 9.2 9.2 11.18l17.1 1.97c5.93-1.3 11.2-3.94 14.47-8.55 3.3-4.6 4.6-9.87 3.3-14.47zm-6.57 1.32l.65 1.97c0 2.64-1.3 5.93-3.94 7.9l-9.87 5.26-11.82-.66c-3.3-1.97-5.27-4.6-6.58-7.9 0-1.96 0-5.25 1.97-7.88 2.63-3.94 6.58-6.58 11.18-7.23l11.84.66c3.94 1.97 5.9 4.6 6.57 7.9zM63.43 482.3c-.66-1.3-1.98-1.3-2.63-1.3-1.32.65-1.32 1.3-1.32 2.62l8.55 20.4c0 1.3 1.32 1.3 2.63 1.3 1.32 0 1.98-1.3.66-2.62l-7.9-20.4zM85.8 479.68c-1.33-.66-1.98 0-1.98 1.3l-2.63 6.58-1.33 15.8 1.32 1.97L83.8 504l1.97-15.1 1.3-6.6c.66-1.3 0-2.62-1.3-2.62zM102.23 484.94l-3.3.66c-1.3 1.96-3.28 6.57-5.9 13.15-.67 1.97 0 2.63 1.3 3.3 1.32 0 1.98 0 2.64-1.33l5.26-13.15c1.3-1.32.66-1.97 0-2.63zM48.3 492.17c-1.3-.66-1.97-.66-3.3 0-.64 1.32-.64 1.97 0 3.3l10.54 10.5 2.63.67c1.3-.66 1.3-1.3 1.3-2.64l-5.9-6.57-5.27-5.26z"/><path fill="#D96038" d="M302.15 430.35c5.92-.65 9.87-3.94 13.16-8.55 3.3-5.26 4.6-10.52 3.3-16.44-.67-5.25-3.3-9.87-8.56-13.15-4.6-3.28-10.52-5.25-15.78-3.94-5.26 1.32-9.87 3.95-13.8 8.56-3.3 5.25-4.62 10.52-3.3 16.44 1.3 5.25 3.94 9.86 8.55 13.15 5.27 3.95 10.53 5.26 16.45 3.95z"/><path d="M294.26 385.63c-6.58.66-11.84 3.95-15.78 9.86-3.95 5.26-5.26 11.18-3.95 17.76 1.32 6.57 4.6 11.83 9.87 15.12 5.26 3.95 11.18 5.26 17.76 4.6 6.57-1.32 11.83-4.6 15.78-9.86 3.28-5.92 4.6-11.84 3.94-17.76-1.3-6.58-4.6-12.5-9.86-15.78-5.92-3.3-11.18-5.26-17.76-3.95zm.66 5.26c4.6-1.32 9.86 0 13.8 2.63 3.95 3.3 6.6 7.23 7.24 12.5l.66 3.28c0 4.6-1.3 8.56-4.6 11.84-2.63 3.95-6.58 5.27-10.52 6.58-5.26.65-9.87-.65-13.82-3.3-4.6-2.62-6.57-7.22-7.9-11.82-.64-5.26 0-9.87 2.64-13.82 3.3-4.6 7.24-7.23 12.5-7.88z"/><path d="M302.15 387.6c-.65-1.3-1.3-1.3-2.63-1.3-1.3 0-1.97.65-1.3 1.96.64 8.56-1.33 16.44-6.6 25l-8.54 10.52c-.66 1.3-1.3 1.97-.66 2.63 1.32 1.32 2.64 1.32 3.3 0l9.86-11.17c5.26-9.87 7.23-18.42 6.57-27.62z"/><path d="M304.13 409.3l-9.87.67c-1.3 0-1.97 1.3-1.97 1.97l3.28 1.97 7.9-.64c5.9 0 10.5 1.97 12.5 5.25h2.62c1.3 0 1.97-1.3.65-2.6-3.3-3.96-7.9-5.93-15.13-6.6z"/><path fill="#D96038" d="M196.93 70.62c5.92-1.32 9.86-3.95 13.8-8.55 3.3-5.26 4.62-10.52 3.3-16.44-.66-5.27-3.94-9.86-8.55-13.15-5.26-3.3-10.52-4.6-15.78-3.3-5.92.67-10.52 3.3-13.82 8.56-3.28 4.6-4.6 9.86-3.28 15.78.66 5.92 3.94 10.52 8.55 13.8 4.6 3.3 9.86 4.62 15.78 3.3z"/><path d="M216.66 45.63c-.66-6.58-3.95-11.84-9.87-15.78-5.92-3.95-11.2-5.26-17.76-3.95-6.58 1.3-11.84 4.6-15.8 9.87-3.27 5.92-5.25 11.83-3.27 18.4.65 6.6 3.94 11.2 9.86 15.13 5.26 3.3 11.18 4.6 17.1 3.95 6.58-1.3 12.5-4.6 15.78-9.87 3.96-5.9 5.28-11.17 3.96-17.75zm-4.6 3.95c0 4.6-1.32 7.9-3.3 11.18-3.28 3.95-7.88 6.57-12.5 7.24-5.25.65-9.85 0-13.8-2.64-4.6-3.3-6.58-7.9-7.9-12.5-.65-5.26 0-9.86 3.3-13.8 2.63-4.6 6.57-6.58 11.83-7.9 4.6-.66 9.86 0 13.8 3.3 4.6 3.28 7.24 7.23 7.9 11.83l.66 3.28z"/><path d="M196.93 27.87l-2.63-1.3c-1.32 0-1.32 1.3-1.32 2.62.66 7.88-.65 16.43-6.57 24.98l-8.54 9.87c-.66 1.3-.66 1.97 0 3.28 1.3 1.32 1.97 1.32 3.3 0l9.2-11.83c5.9-9.2 7.23-18.42 6.57-27.63z"/><path d="M199.56 49.58l-9.86 1.3c-1.32 0-1.97 0-1.97 1.98l2.63 1.32h8.54c5.27 0 9.87 1.32 12.5 4.6l2.63.66c1.3-.65 1.3-1.97 0-3.3-2.63-3.93-7.9-5.9-14.47-6.56z"/><path fill="#D96038" d="M253.5 263.96c5.9-1.3 10.5-3.94 14.46-9.2 3.28-4.6 4.6-9.86 3.28-15.78-1.3-5.92-3.94-10.52-8.55-13.8-5.27-3.3-10.53-3.96-16.45-3.3-5.92.66-9.86 3.95-13.15 9.2-3.3 4.6-4.6 9.87-3.94 15.13.65 5.94 3.94 10.53 9.2 14.48 4.6 3.28 9.86 3.95 15.13 3.28z"/><path d="M263.35 223.2c-4.6-3.95-10.52-4.6-17.1-3.95-6.57.66-12.5 3.95-15.78 9.87-3.94 5.25-4.6 11.17-3.94 17.75.65 6.57 3.94 11.84 9.86 15.13 5.9 3.94 11.82 5.25 17.75 3.94h.65c5.92-.65 11.18-3.94 14.47-9.86 3.95-4.6 5.92-11.18 3.95-17.76-.66-6.58-3.95-11.84-9.87-15.12zm-2.63 4.6c4.6 2.63 7.23 6.57 7.9 11.84l.65 3.28c0 4.6-1.3 8.55-4.6 11.84-2.63 3.3-6.58 5.9-11.18 6.58-4.6.66-9.87 0-13.82-3.3-4.6-3.28-6.58-6.57-7.9-11.83-1.3-4.6 0-9.85 3.3-14.46 3.28-3.95 7.23-6.57 11.83-7.23 5.27-1.3 9.87 0 13.83 3.3z"/><path d="M253.5 221.22l-2-1.97c-1.96.66-1.96 1.97-1.96 2.63 1.97 7.9 0 16.44-5.92 25l-8.55 11.17c-1.3.66-1.3 1.3 0 2.62 1.3.67 1.97.67 2.63 0l9.2-11.82c5.93-9.87 8.56-19.08 6.6-27.63z"/><path d="M256.12 242.93l-9.87.65c-1.3.66-1.3 1.32-1.3 1.98l1.96 1.96 8.56-.65c5.92.65 10.52 1.98 13.15 5.27h2.64c.66-.67 1.32-1.33 0-2.64-2.63-3.94-8.55-6.57-15.12-6.57z"/><path fill="#D96038" d="M76.58 419.83c1.97-3.28 2.63-7.9 1.32-11.84-1.98-4.6-4.6-7.24-8.55-9.22l-11.84-.65c-4.6 1.3-7.22 3.94-9.2 7.9-1.97 3.94-1.97 7.9-.66 12.48.66 3.96 3.95 6.6 7.24 8.57l12.5 1.3c3.94-1.96 7.23-4.6 9.2-8.54z"/><path d="M70.66 396.8l-13.8-1.3c-5.27 1.3-8.56 4.6-11.2 9.86-1.96 3.95-1.96 8.55-.65 13.8 1.33 4.6 4.62 8.56 9.22 10.54l13.8.65c5.28-1.3 9.22-4.6 11.2-8.55 1.97-5.26 1.97-9.87.65-14.47-1.97-5.26-4.6-8.55-9.2-10.52zm-12.5 3.3l9.87 1.32c5.26 1.97 7.9 5.92 7.9 11.84l-1.32 5.9-7.88 6.6-9.87-.67c-3.3-1.98-5.92-3.95-6.57-7.9-1.32-3.3-1.32-6.57.65-9.86.66-3.3 3.95-5.27 7.24-7.24z"/><path fill="#D96038" d="M338.98 463.9c1.97-3.95 2.63-7.9 1.3-12.5-1.96-3.95-4.6-6.58-8.53-8.55l-12.5-.66c-3.94 1.3-7.23 3.94-8.55 7.9-1.97 3.27-2.63 7.87-1.3 11.82 1.96 3.95 4.6 7.24 8.53 9.2l11.84 1.33c4.6-1.98 7.24-4.62 9.2-8.56z"/><path d="M332.4 440.22l-13.8-.66c-4.6 1.32-7.9 3.95-10.53 9.2-2.63 4.6-2.63 9.2-.66 13.82 1.33 5.25 4.62 8.54 8.57 10.52l14.46 1.3c4.6-1.3 7.9-4.6 11.18-9.2 1.98-4.6 2.64-9.2.67-13.8-1.32-5.26-4.6-8.55-9.87-11.18zm-1.97 4.6c4.6 3.28 7.9 6.57 7.9 11.84l-1.32 5.92c-1.96 3.3-4.6 5.9-8.54 6.58h-9.86c-3.3-1.98-5.92-4.6-6.58-7.9-.66-3.3-.66-6.58.66-9.87 1.97-3.3 4.6-5.92 7.9-6.58h9.85z"/><path fill="#D96038" d="M356.74 101.53c1.97-4.6 1.97-7.9 1.3-12.5-1.96-3.94-4.6-7.23-8.54-9.2l-11.84-.66c-3.94 1.3-7.23 3.94-9.2 7.9-1.97 3.94-2.63 7.9-.66 11.83 1.3 4.6 3.94 7.9 7.9 9.2l11.83 1.32c3.95-1.3 7.23-4.6 9.2-7.9z"/><g><path d="M325.17 100.22c1.32 4.6 3.95 7.9 9.2 10.52l13.82.66c5.25-1.32 9.2-4.6 11.17-9.2 1.97-3.95 1.97-8.56.66-13.82-1.98-4.6-4.6-8.55-9.2-11.18L337 76.54c-5.25 1.98-8.54 5.26-11.17 9.2-1.98 4.6-1.98 9.22-.66 14.48zm5.26-1.98c-1.3-3.28-1.3-6.57.66-9.86 1.3-3.3 3.93-5.92 7.22-6.58h9.87c5.25 2.64 7.22 6.58 7.22 12.5l-.66 5.92c-1.97 3.3-4.6 5.26-7.9 6.57l-9.86-.67c-3.28-1.3-5.9-3.94-6.57-7.9z"/></g><path stroke-miterlimit="100" d="M364.58 579.58H7.42V7.42h357.16v572.16z" fill="none" stroke="#000" stroke-width="14.84"/></svg>