<svg xmlns="http://www.w3.org/2000/svg" height="100%" viewBox="0 0 372 587"><path fill="#fffaf0" d="M0 0h372v587H0z"/><path fill="#D96038" d="M258.38 339.53l-14.72-14.72-3.35 20.1c-.66 12.7 4.7 17.4 14.73 14.7 9.38-3.34 10.72-10.03 3.35-20.07z"/><path d="M241.65 324.15l-3.35 16.06c-1.34 9.37 0 16.06 3.35 19.4 3.35 3.36 8.03 4.03 14.06 2.02 6.03-1.34 9.37-4.68 10.05-9.37.66-5.35-2.02-11.37-8.7-18.74l-11.38-10.02-2.68-.68-1.35 1.35zm18.74 26.1v.67c-.68 2.67-3.36 4-6.7 6.02l-8.03-.68c-2-2-2.68-5.34-2.68-9.36 0-4.7.66-10.04 2.67-16.73 10.04 8.03 14.72 14.72 14.72 20.07z"/><path d="M233.62 292.7c-1.33 0-2 1.33-1.33 3.33l9.35 30.12c.68 1.34 1.34 2 3.35 1.34 1.34 0 2-1.35 1.34-3.35l-9.37-30.12c-.67-1.34-1.34-2.68-3.35-1.34z"/><path fill="#D96038" d="M151.98 53.78l20.08 2c-2.02-6.68-5.36-12.7-9.38-18.06-7.35-10.04-14.05-10.7-19.4-2-6.7 8.03-3.35 14.72 8.7 18.06z"/><path d="M152.65 27.02c-4.02 0-8.03 2-12.05 6.7-4.02 5.34-4.02 10.03-2 14.04 3.34 6.7 14.7 10.04 33.46 10.7l2.67-1.33v-2.68c-6.02-17.4-13.38-26.77-22.08-27.43zM142.6 43.08c0-1.35.68-3.35 2.7-6.03 2-3.34 4.67-4.68 6.68-4.68 4.68.67 10.04 7.36 16.06 20.08-14.05 0-22.75-2.68-24.76-7.37l-.67-2z"/><path d="M170.04 53.78c-1.33 2-1.33 3.35.68 4.02l26.1 18.07c2 1.34 2.67 1.34 3.34-.68 1.34-1.34 1.34-2.68 0-4.02l-26.77-17.4c-1.34-1.34-2.68-1.34-3.36 0z"/><path fill="#D96038" d="M50.93 323.48c10.7-.68 13.38-6.7 8.03-18.07L48.26 288l-8.04 18.75c-2.68 12.7.67 18.06 10.7 16.73z"/><path d="M48.25 286l-2 .67c-8.7 17.4-11.38 29.44-7.37 34.8 2 4 6.03 5.35 12.05 5.35 6.7-.67 10.7-3.34 12.7-7.36 1.35-4.68.68-11.37-4-19.4l-9.37-13.4c0-.66-.67-.66-2-.66zm10.04 31.46c-.68 2-3.35 3.34-7.37 3.34-4.02.67-6.7 0-8.04-2l-.67-4.7c0-4.68 2-11.37 6.02-20.74 7.36 9.37 10.7 16.73 10.7 21.42l-.66 2.68z"/><path d="M45.57 253.88c-1.34 0-2 1.34-2 2.68l2 32.1c.67 2.03 1.34 2.7 2.68 2.03l2-.7.68-2-2.68-31.44c0-2-.67-2.68-2.68-2.68z"/><path fill="#858585" d="M368.8 114.68l2-40.82c-52.2 40.82-95.7 70.94-129.15 89.68-21.42 12.04-42.82 26.77-63.57 45.5l-26.1 23.42c-24.76-28.77-56.88-56.88-95.7-85-19.4-14.04-36.8-25.42-51.52-33.45v23.44c26.1 18.73 55.54 46.84 88.33 83.65 16.72 18.72 30.77 35.45 42.15 50.84-5.36 24.77-8.7 63.58-7.37 115.1-25.42-16.72-53.53-30.78-85.65-40.82L2.08 336.18v18.08l46.17 23.42c34.8 18.73 60.23 38.8 76.3 57.55 16.72 19.4 32.1 50.2 46.84 93.7 6.68 22.08 12.03 41.48 16.05 58.88h133.17c-10.04-10.7-22.1-30.1-38.14-57.54-16.73-29.45-30.12-50.2-39.5-61.57-19.4-23.43-32.1-45.52-38.8-64.92l-4.02-22.75c-1.33-8.04-1.33-23.42 0-44.85l2-30.1c2.68-8.03 7.37-16.74 13.4-28.1 8.7-14.74 18.73-29.46 30.1-43.5 16.74-21.42 57.56-61.58 123.14-119.8z"/><path d="M370.8 117.36l1.35-2.68 2-40.82-1.33-2.68h-4.02c-52.86 41.5-95.7 70.93-129.16 89.68-18.07 10.7-37.47 23.42-56.2 39.48l-31.46 27.44c-24.1-28.1-55.55-55.55-94.36-83.65L6.1 110.67H2.73c-.67.66-1.33 2-1.33 3.34v23.44l1.34 3.34c24.76 16.73 51.53 42.83 83 76.96 19.4 21.4 34.1 39.5 46.16 55.54-5.35 22.75-7.36 58.23-7.36 106.4v1.35c-24.76-16.06-52.87-29.45-82.98-38.82l-39.48-9.36-2.68.67-.67 2.7v18.06l2 2.68 46.85 24.1c33.46 18.72 58.9 37.47 74.3 56.88 16.72 18.72 31.43 48.84 45.5 91.67 7.35 21.4 12.7 41.48 16.72 58.9.67 2 1.34 2.66 3.35 2.66h133.17l2.68-2 .66-1.35-.66-2c-10.04-11.37-23.43-31.45-40.16-60.22-14.72-27.44-27.43-46.85-36.8-58.9-17.4-21.4-30.12-40.82-36.8-58.88-4.02-10.04-6.7-19.4-6.7-25.44l2.68-75.6c2.67-6.7 6.7-16.07 12.7-26.1 8.04-14.74 18.08-30.12 30.12-44.18 16.07-20.75 57.56-60.23 122.47-119.12zm-4-36.14l-.67 32.13-56.9 51.52c-34.12 32.13-56.2 54.88-66.24 67.6-11.4 14.04-20.75 28.1-30.12 42.82-6.7 12.04-11.38 22.08-14.05 29.44v1.33l-2.02 76.96c0 6.7 2.03 16.73 6.04 27.44 7.36 18.07 20.07 38.8 37.47 60.9 9.38 10.7 22.1 30.12 36.82 57.55 15.4 25.43 27.44 44.83 36.14 55.54H190.12c-17.4-72.27-38.14-123.13-62.9-151.24-15.4-18.73-38.8-36.8-69.6-54.87-17.4-10.04-34.8-18.74-52.2-26.77V340.2c14.73 2.68 30.12 6.7 46.18 12.7 28.1 9.4 52.2 21.44 73.6 36.82h4.03l2-2.67v-6.02c0-50.2 2-85.66 7.37-107.75v-1.34l-.68-2-42.15-50.2c-32.8-37.47-62.24-65.58-87.67-83.65v-16.74c18.06 11.38 38.14 24.77 59.56 40.16 32.8 25.42 60.22 50.2 81.64 74.95l2.68 1.33 2-1.33 26.1-23.42c21.42-18.07 42.84-32.13 62.9-44.17 32.13-18.07 73.62-46.17 123.82-85.66z"/><path d="M251.7 552.35c-18.75 8.7-37.48 15.4-56.22 18.73-.67.67-1.34 1.34-.67 2.67l2 1.35c18.76-4.02 37.5-10.04 56.23-18.74l23.42-12.04v-3.35h-2.68l-22.08 11.38zM238.3 582.46c-1.33 0-2 1.33-1.33 2.68 0 .67 1.34 1.33 2.68.67 19.4-6.7 36.14-14.04 50.2-23.4 2-.68 2-1.36.65-2.7-.66-.66-1.33-.66-2-.66-15.4 8.7-32.13 16.73-50.2 23.42zM190.12 552.35c36.8-13.4 61.57-22.76 73.62-29.45 1.33 0 2-1.34 1.33-2.68l-2.67-.67c-12.72 6.03-36.8 16.07-73.6 29.45-.68 0-1.35 1.33-.68 2 0 1.35.67 2 2 1.35zM252.36 499.48c-11.38 5.35-26.77 10.03-46.18 16.06l-26.1 7.36c-1.33 0-2 1.34-1.33 2.68l2.67 1.33c30.12-8 54.2-16.05 72.28-24.08l1.34-2c0-1.34-1.34-2-2.68-1.34zM236.3 478.06c-10.04 4.02-23.42 8.03-41.5 12.04l-23.4 4.7c-2.02 0-2.7 0-2.02 2 0 1.34.67 1.34 2 1.34l24.77-4.02c17.4-4.02 31.45-8.03 42.16-12.7 1.34 0 1.34-1.35 1.34-2.7-.66-.66-2-1.33-3.34-.66zM224.92 455.98c-17.4 6.02-38.14 10.7-61.57 13.38-1.33 0-1.33.67-1.33 2.02l2 2c24.1-3.35 44.84-7.36 62.24-13.4 1.34 0 2-1.32 1.34-2.66-.67-1.34-1.34-2-2.68-1.34zM146.62 442.6c-1.33 0-1.33.66-1.33 2 0 1.34 0 2 1.32 2l66.26-4.67.66-.67.68-1.35c-.68-1.32-1.34-2-2-1.32l-65.6 4zM141.27 419.84l52.2-2 1.34-2-2-1.35-51.53 1.32c-1.34 0-2 .67-2 2.02-.67 1.33 0 2 2 2zM139.26 391.07c-.66.66.67 2 2 2l50.87 2 2-2-2-2-50.86-1.35c-1.34-.66-2 0-2 1.35zM186.77 364.97l-46.84-4.7c-1.33 0-2 0-2 1.35-.67 2 0 2 1.33 2L186.1 369l2.02-2c.67-1.35 0-2-1.35-2zM135.92 332.84c-.67.67 0 2 1.34 2l17.4 3.36 32.12 2.68 2-1.35-2-2.67-32.13-2.67-16.05-2.7c-2.02-.66-2.68 0-2.68 1.34zM188.12 314.1l-44.84-8.03c-1.34 0-2 0-2 1.35-.68 1.33 0 2.67.66 2.67l46.18 8.02 2-1.34c0-2 0-2.67-2-2.67zM145.96 275.96c-.67.67 0 1.34.66 2l15.4 7.37c10.7 4.68 20.74 8.03 29.44 8.7l2-1.34c0-1.35 0-2-2-2.7-8.03-.66-17.4-4-28.1-8.68l-14.73-6.7c-.67-.66-2 0-2.67 1.34zM158.67 249.2l46.85 27.43c1.33 0 2.67 0 2.67-.67.66-2 0-2.68-1.35-2.68-8.02-4.02-18.06-9.36-29.44-16.73l-15.38-10.7h-3.35c-.67.67-.67 2 0 3.34zM216.22 256.56l-36.14-30.8c-1.33-1.33-1.33-1.33-2.67 0-1.33.68-1.33 1.35 0 2.7l36.14 31.44 2.68-.67c.67-1.34.67-2.68 0-2.68zM228.94 237.15l-29.45-30.1h-2.7c-1.32.65-1.32 2 0 2.66l29.46 30.8c.67.66 2 .66 2.68-.68v-2.67zM216.9 190.3c-.68 0-.68 1.34-.68 2.68l6.7 10.7c6.02 8.7 11.37 15.4 16.72 20.75.67 1.34 1.34 1.34 2.7 0 .65-1.34.65-2 0-3.34-5.37-4.7-10.05-11.4-16.08-20.1l-6.7-10.03c-.66-1.34-1.33-1.34-2.67-.66zM260.4 204.36l-12.06-14.73-8.03-11.37-2-.67c-2 1.32-2 2-1.33 2.67L245 192.3l12.7 15.4 2.7-.66v-2.68zM273.77 189.63c.68 1.34 2.02 1.34 2.68 0 .67-.67.67-2 0-2.67l-11.38-14.06-6.02-10.03c0-2-1.34-2-2.68-1.34-1.34.66-1.34 1.34-.66 2.68l6.7 10.7 11.37 14.73zM293.85 169.56l-13.38-20.08c0-2-.67-2-2-1.34-2.02.67-2.02 1.34-1.35 2.68l4.68 8.03 9.38 13.38 2.67.67c1.34-1.34 1.34-2.67 0-3.34zM310.58 156.85l-10.7-18.75c-.67-1.33-1.35-2-2.7-.66-1.32 0-1.32.66-.65 2l10.7 20.08h3.35c1.34-1.34 1.34-2 0-2.67zM315.94 124.72h-2.02l8.7 19.4c.67 1.34 1.34 2 2.68.68 1.34 0 1.34-.67.67-2l-9.37-20.1-.66 2.02zM334.68 108c-1.34 0-1.34 1.33-1.34 2.67l6.02 17.4c0 1.33.67 1.33 2.67 1.33l1.34-2-6.7-18.07c0-1.34-.66-2-2-1.34zM352.07 93.94c-1.34 0-2 .67-1.34 2.68l4.7 19.4c0 1.34 1.33 1.34 2 1.34l2-2.68-5.35-18.74c0-2-.67-2-2-2zM123.2 394.42c-1.33 0-2 .66-1.33 2l1.33 11.38c2 10.04 2 20.08 2 30.78 0 1.33.68 2 2.02 2l2-2c.67-10.7-.66-20.74-1.33-30.78l-2.7-12.72c0-.66-.66-1.34-2-.66zM103.12 415.82c0 1.34 0 2.02 2.02 2.02l1.33-2 .67-34.8-2 2c-1.34 0-2.02-.68-2.02-2v34.78zM84.4 371.66l-3.36 26.77c-.67 1.33 0 2 1.34 2.68l2.68-2 2.67-18.07v-9.37c.68-.67 0-1.34-1.34-2-1.34 0-2 .66-2 2zM64.98 361.62c-.67 0-1.34.67-.67 2l.68 6.7-1.34 16.73c-.67.67 0 2 1.34 2.67l2.68-2 .67-17.4-.67-7.37c0-1.33-.67-2-2.68-1.33zM49.6 377l-2.02-22.74-2-1.34c-1.35.67-2 1.34-1.35 2l1.34 22.1c0 .67.67 1.33 2 1.33L49.6 377zM28.84 366.3l-2-18.73c0-.67-1.34-1.34-2.68-.67-1.34 0-2 0-1.34 2l2 17.4c0 .68.68 1.35 2.02 1.35l2-1.35zM136.58 263.25l8.7-24.1c.68-1.33 0-2-.66-2.67-1.34 0-2.68 0-2.68 1.34l-2 6.7-7.37 16.72c-.67 1.33 0 2 .67 2.68 2 .67 2.68.67 3.34-.67zM126.55 219.07l-2 7.37-8.04 14.06c-.66 1.33 0 2.67 1.35 3.34l2-.67 8.7-15.4 2-8.02c.68-1.34 0-2-2-2-.67-.68-2 0-2 1.32zM108.48 203.7l-3.35 9.35-6.7 14.73c-1.33 1.33-.66 2 0 2.68l3.36-.68 6.68-15.4 3.35-9.36c.67-1.33 0-2-.67-2-1.34-.68-2.68 0-2.68.67zM96.43 179.6l-8.02 26.76 1.34 2.68 2-1.34 9.38-26.77c0-1.34 0-2-1.34-2-1.34-.68-2.68 0-3.35.66zM74.35 174.24L73 172.9l-6.68 20.75c0 1.34 0 2.67 1.34 2.67l2.68-1.33 6.7-22.1c0 1.34-1.35 2-2.7 1.34zM54.95 147.47l-7.37 27.44c0 1.35 0 2.02.67 2.7 1.34 0 2.68 0 2.68-1.35l6.02-16.73 2.67-11.38-2-2h-1.34l-1.34 1.33zM32.2 158.85l6.68-24.1c.67-.66 0-2-1.34-2-1.34-.67-2 0-2 1.34l-6.7 23.4c-.66.68 0 2.02.67 2.7 1.35.66 2.7 0 2.7-1.35z"/><path fill="#FFCDDE" d="M279.13 193.65l-7.36-10.7-6.02-5.36c3.34-4.7 5.35-10.72 7.35-16.08l-10.7-4-2.68-11.4c-6.02.7-11.38 2.02-16.73 4.7l-6.03 3.35c-2-4.7-5.36-8.7-10.04-12.05l-6.02-3.35-8.02 6.03-12.72-1.34c-1.33 7.36-1.33 15.4-.67 24.1l-12.05 6.02-6.03 4 6.7 10.05-5.36 10.03c4.7 2.68 12.72 5.36 22.76 7.36 1.33 8.7 4.68 16.73 9.36 22.76l10.04-4.7 10.04 6.7c6.02-4.02 11.38-10.04 14.72-17.4l22.1.67-2.02-12.7 9.37-6.7z"/><path d="M276.45 161.52l-2.68-3.34-8.7-3.35-2-8.7-3.35-3.34c-8.03.66-15.4 3.33-21.42 6.68-2.67-4.02-6-7.37-10.03-10.04l-6.02-3.34h-3.35l-6.7 5.35-10.7-1.33c-2.67 0-3.35.66-4 2.67-1.36 4.67-2.02 10.02-2.02 15.38v8.03c-2.68.68-6.7 3.36-10.04 5.36l-6.03 4.02-1.33 2 .68 2.02 4.68 8.03-3.35 8.7-.67 1.33 1.35 2.68c6.02 3.35 12.7 6.02 22.1 7.36 2 8.7 5.34 16.07 9.36 22.1.67 2 1.34 2.66 4.02 1.32l8.7-4 8.03 6c1.34.68 2.68.68 3.35 0l14.72-16.72c6.02 2 12.7 2 21.42 0l2.67-3.35-1.33-10.7 7.36-6.03 1.34-2.67v-.67c-2-5.36-6.02-10.04-12.7-16.06l6-14.73.68-.68zm-15.4-.66l7.37 2-6.02 13.4v1.33l.67 3.33c6.02 3.35 9.37 8.03 12.04 12.05l-6.68 5.35-2 2 .66.68 1.34 9.38-20.08-1.34-2 2c-3.35 5.36-6.7 10.7-12.05 14.73l-8.04-5.35h-3.35l-6.68 3.35c-3.34-5.36-6.02-11.4-7.36-19.4 0-1.35-1.34-2.7-2.68-2.7-8.03-2-14.72-3.34-19.4-5.35l4-7.36.68-1.33-1.34-2.02-4.68-6.68c7.36-4.68 12.05-6.7 14.72-8.02l2.68-3.35-.67-9.37 1.34-10.7 9.38.66 2.68-.67 6.02-4.68c5.35 3.33 10.04 7.35 12.04 13.37l2.68 1.34 3.35-.66 4-2.68c4.7-2 8.7-3.34 13.4-3.34l2 7.36 2 2.68z"/><path d="M220.9 175.58c-2.67 2-4 4.7-4 8.7 0 3.35 1.33 6.7 4 9.37 2.68 2.68 5.36 4 9.37 4 3.35 0 6.7-1.32 9.37-4 2.7-2.68 3.35-6.02 3.35-9.37 0-4-.67-6.7-3.36-8.7-2.67-2.68-6.02-4.68-9.37-4.68-4 0-6.7 2-9.36 4.68zm14.73 14.05c-1.34 2-2.68 2.68-5.36 2.68-2 0-4-.66-5.35-2.67-2-1.34-2.67-3.34-2.67-5.35 0-2 .66-4 2.67-5.36 1.34-2 3.35-2.67 5.35-2.67 2.68 0 4.02.67 5.36 2.67 1.34 1.35 2.68 3.35 2.68 5.36l-2.67 5.35z"/><path d="M224.92 193.65l-1.34 14.05c0 2 .67 2.68 2.68 3.35l2.68-2.02 1.33-15.38c0-1.35-.66-2.68-2-2.68-2 0-3.35.67-3.35 2.68zM238.98 186.96c-.67 2-.67 2.67.67 3.35l14.05 7.36c2 1.34 2.68 1.34 3.34-.66 1.34-1.35.68-2.68-.66-4.02l-13.4-6.7c-2-1.33-3.33-.67-4 .68zM215.56 182.94l-12.05 3.35c-1.33 0-2 1.33-1.33 3.33 0 1.34 1.34 2 3.35 1.34l11.37-3.34c2-.67 2.67-1.34 2-3.35 0-1.34-2-2-3.34-1.34zM216.22 160.86c-1.34 0-1.34 2-1.34 3.34l4.02 12.05c.67 1.34 2 2 4.02 1.34 1.34 0 2-1.35 1.34-3.36l-4.7-11.38c0-2-1.33-3.34-3.34-2zM246.34 167.55l-6.03 5.35-3.33 1.34c-1.34 1.34-2 2-.67 4.02 0 1.33 1.34 2 3.34 1.33l4.02-2.68 7.36-6.02c1.34-1.34.67-2.68-.67-4.02l-4 .67z"/><path fill="#FFCDDE" d="M32.86 101.96l-7.36 8.7c3.34 4.7 8.7 8.7 17.4 12.05-2.68 6.03-4.02 12.06-4.02 18.08l11.38 2 4.7 10.05c9.35-2.68 16.04-6.7 20.06-12.7 6.02 6 12.05 10.7 19.4 11.36l6.7-7.37 12.04-1.34-1.33-16.74-2.68-7.37 15.4-14.06-8.04-7.36 2.02-11.38-14.06-2H95.1l-8.7-14.73-5.36-6-9.37 6.68-10.7-4.02c-4.7 5.35-8.7 12.04-10.04 20.08L36.2 87.26l-7.36 3.34 4.02 11.36z"/><path d="M62.3 62.48c-1.34 0-2.68 0-4 1.34-4.03 4.68-7.37 10.7-10.05 18.74l-14.05 2-6.7 2.7c-1.34.65-2 2-2 3.33v.66l3.34 10.04-6.02 7.36-.67 2 .67 2c2.68 4.7 8.03 8.05 16.06 12.06-2 5.36-2.68 10.7-3.35 16.06 0 2 1.34 3.35 3.35 3.35l8.7 2 4.7 8.04c1.33 2 2 2 4 1.33 7.36-2 14.06-6.02 18.74-10.7 6.02 5.35 12.7 8.7 19.4 10.03.68 0 2-.66 2.68-1.33l5.36-6.7 10.7-.67 3.35-3.34v-2.02c0-6.02-1.33-13.38-3.34-21.4l14.06-12.06.67-2.68-1.35-2-6.7-6.7 2.02-9.36v-.67c0-2 0-3.34-2-3.34l-22.76-2-8.7-14.73-4.68-5.35c-2-1.34-2.68-1.34-4.7 0l-7.34 5.35-9.38-3.35zM50.26 89.25h2.67l1.34-2c1.34-6.7 4.02-12.72 8.04-18.08l8.7 3.35h3.35l6.7-5.35c4 5.35 8.02 11.37 10.7 17.4l3.35 2.67 20.08.67-2.02 8.04v1.34l.68 2 6 5.36-12.7 11.38-1.34 2.67v.66l2 6.7 2.02 13.38-9.37 1.34c-.67 0-2 0-2 .67l-5.36 6.02c-6.03-2-11.38-5.36-14.73-10.03-.67 0-2-.67-3.35-.67l-2 1.33c-4.02 4.7-9.37 8.03-16.07 10.04l-4.02-7.36-2-1.34-8.03-1.34c0-5.35 1.33-10.7 2.67-14.05l.67-1.34-2-2.66-14.06-9.38 5.36-6.7.66-2-.66-1.33-2.68-8.7c7.36-2.68 13.38-4.02 17.4-2.68z"/><path d="M64.3 101.96c-1.33 2.02-2 4.7-2 7.37l.67 2.67c.67 4.02 2 6.03 5.36 8.7l10.04 1.34c3.34-.67 6.7-2.67 8.02-6.02 2-2.67 2.67-6.02 2-10.04-.67-3.35-2.67-6.02-5.35-8.03-3.35-2-6.7-2.68-10.04-2-4 1.33-6.68 3.34-8.7 6zm3.36 8.7c0-2 0-4 .67-6.02l5.35-3.34 6.02 1.34 3.35 4.68c.67 2 0 4-1.34 6.03l-4.67 3.34-5.35-.68c-2.02-1.34-3.35-3.35-4.02-5.35z"/><path d="M73.68 82.56c-2 0-2 1.34-2 2.67l2 14.06 2.67 2.66c2.02-.66 2.02-1.33 2.02-2.67l-1.34-14.73c-.68-2-2-2-3.35-2zM46.24 102.64c0 1.33 0 3.34 1.34 3.34l15.4 4.7 3.34-2.7c.67-1.33 0-2-2-2.67l-14.73-4.67c-2.02 0-2.7 0-3.36 2zM98.44 96.62c-2.67.66-6.7 2.67-11.37 6.02-1.34 1.33-2 3.34-.68 4 1.33 1.35 2.67 1.35 4 .68 4.7-3.34 8.05-4.68 9.38-5.36 2-.66 2.68-1.33 2-3.34 0-1.34-1.33-2.68-3.34-2zM88.4 114.68c.67 1.34 0 2.68-1.33 3.35l-3.35-.67 6.7 10.7c.66 1.35 1.33 2.02 3.34 1.35 1.34-1.33 2-2 1.34-3.34l-6.7-11.38zM67.66 116.02l-3.35 3.35-6 7.36c-.68 1.33 0 2.67 1.32 3.35 1.34.66 2.02.66 3.35-.68l5.36-6.7 2.67-2.66c.67-.67 1.34-2.68.67-4.02h-4z"/><path fill="#FFCDDE" d="M26.84 420.5l-4.7 10.72H10.78c-.66 6.02 1.34 13.4 4.7 23.42-6.7 6.7-12.05 12.7-16.07 20.08l9.37 6.7-.67 11.36c7.36 3.35 14.72 4.7 22.75 4.02 0 6.02 3.35 12.7 10.04 19.4l10.03-7.35 10.7 4.68c2.68-2 4.02-6.7 5.36-12.04l1.33-8.05 18.06-2-1.34-10.7 8.03-7.37c-3.36-5.35-7.37-9.37-12.06-12.72l-6.02-3.34c3.35-4.02 4.68-9.37 5.35-14.73v-7.37L71 431.9l-4.68-11.4c-6.7 1.35-14.72 5.36-22.1 10.72-2-2-5.34-4.7-10.7-7.36l-6.68-3.35z"/><path d="M28.18 417.84c-2.02-1.35-3.35-.68-4.02 1.33l-4.7 8.7h-9.35c-2 0-2.67 1.34-2.67 3.35v.67c0 6 1.34 13.37 4.02 22.07C5.42 460 .73 466.67-3.28 472.7l-.67 2.02 2 2 7.37 5.36-.67 10.7c0 1.35.67 2.02 2 2.68 6.03 3.35 13.4 4.68 21.43 4.68 1.33 6.03 5.35 12.05 10.7 18.75h4.7l8.02-6.04 8.7 3.35c1.34 1.35 3.34.67 4-.66 2.7-3.35 5.36-9.37 7.37-18.74l16.06-2c1.34 0 2-1.35 2-3.35l-1.33-9.37 6.7-6.7 1.33-2-.67-2c-4-6.7-10.04-12.06-16.06-16.07 2.68-6 4.7-12.04 4.7-16.72l-.68-3.35-2-2.67-8.04-3.35-4.02-10.03c-1.33-1.33-2-2.68-4-2-4.02.67-11.4 4.02-21.43 10.03l-10.04-6.7-6.02-2.66zm-6.03 16.73l2.68-2.68 4-6.7 14.07 8.7 4 .67c6.03-4.7 11.4-8.04 17.4-10.04l4.03 8.7 1.33 1.34 7.37 3.34.66.68c0 6.03-2 11.37-5.36 16.73l-.67 2.02v.67l2 2 4.7 3.34 10.03 9.37-5.35 5.36-1.34 2.68v.67l1.35 7.37-14.72 1.33c-1.34 0-3.35 1.35-3.35 3.35-.67 6.7-2 12.05-4.68 15.4l-8.04-2.68h-3.34l-7.36 5.36c-4.68-6.03-7.36-10.72-7.36-15.4l-1.34-2-2.68-.68-18.73-3.35.66-8.7-1.33-3.34-6.7-4.7 13.4-16.04 1.34-2.68v-1.35c-2.67-6.02-4-12.04-4.68-18.74h8.03z"/><path d="M38.88 454.64c-3.34 2-5.35 4.68-6.02 8.03-.67 4-.67 7.36 1.34 10.04l8.03 6.03 9.37-.67c3.35-2 6.02-4.7 6.7-8.03 1.33-4.02 0-7.36-1.35-10.04-2-3.36-4.02-5.36-8.03-6.7l-10.04 1.34zm-1.34 10.04c1.34-2.68 2.68-4.02 4.02-4.7 1.33-1.32 3.35-2 6.02-1.32l4.7 3.34 1.33 4.68c0 2.68-2 4.7-4 6.7h-6.03l-4.7-3.35c-1.33-2-1.33-3.35-1.33-5.35z"/><path d="M34.87 466.68l-13.38 5.36c-1.35 1.33-1.35 2-1.35 3.35.66 2 2 2.66 4 1.32l12.73-5.35c2-.67 2-2 1.34-3.34-.68-2-1.34-2.68-3.35-1.35zM47.58 474.72c-1.34.67-2.67 2-2.67 3.34v15.4c0 1.34 1.34 2.67 2.68 2.67 2 0 3.35-1.33 3.35-2.68l-.67-15.38c0-2-.67-3.35-2.68-3.35zM27.5 443.93c-1.33.68-2 2-.66 4.02l9.36 8.7h4.02c.67-1.34.67-2.68-.67-4.02l-8.7-8.02c0-1.34-2-1.34-3.35-.67zM55.6 443.26l-8.7 9.37c-.66.67-.66 2 .68 4l3.35-.65 8.7-9.37c1.33-1.33 1.33-2 0-3.34-1.34-1.33-2.68-1.33-4.02 0zM53.6 468.03c-.67 2-.67 3.35.67 4l4.02 2.7 9.36 3.33 2.68-2.67c.66-2.03 0-2.7-2-3.36l-7.38-2-3.34-2h-4z"/><path fill="#FFCDDE" d="M277.12 249.86l2.68-10.7c-3.35-2-7.36-3.36-13.4-3.36l-7.34-.66-2.7-12.05-1.33-6.03-11.37 3.35-8.7-6.7c-6.7 6.03-11.38 12.72-12.7 20.08-5.37-2.68-10.05-4.02-16.08-3.34l-6.02.66-2.67 10.04-10.73 6.03c3.35 7.35 8.04 14.04 14.06 20.07-2.68 4.68-5.35 10.7-8.03 19.4l10.7 3.34 2.7 11.4c5.34-.67 12.7-3.35 22.07-8.04 7.36 6.02 14.06 10.04 21.4 12.7l5.37-10.03 11.37-1.33c2.02-4.7 2.7-10.04 2.02-15.4l-1.34-7.35c6.7-1.34 12.72-5.36 18.74-13.4l-8.7-8.7z"/><path d="M287.83 256.56l-7.37-7.37 2.68-9.38v-.67l-1.34-2.67c-4.68-3.35-11.37-4.7-19.4-4.7l-4.7-15.38c-.66-2-2-2.67-4-2.67l-8.7 2.67-8.03-5.35h-4.02c-6.02 5.35-10.04 11.37-13.38 18.74l-14.05-2.7-6.7.68c-1.33.67-2 2-2 2.68l-2 8.7-9.38 5.35c-1.34.68-2 2.02-2 2.7v2c2.67 5.35 6.68 11.37 13.37 18.73-2.66 5.35-4.67 10.7-7.35 18.07v.67c0 1.34.67 2.67 2.68 3.34l8.7 2.7 1.34 9.36c.67 1.34 2.67 2.68 4 2.68 5.37-.67 12.73-3.35 22.1-8.03 6.7 6.03 13.38 10.05 20.75 12.72 1.33 0 3.34 0 4-2l4.02-8.04 10.04-1.33 2.68-2.02 2-13.38-.66-8.7c6.02-2.67 12.04-6.68 17.4-13.38l.67-2-1.34-2zm-14.06-6.7l.68 2.67 6.7 6.7c-4.7 5.36-10.05 8.03-14.74 9.37l-1.33 1.34-1.34 2v.67l1.34 10.05-1.34 8.7-8.7 1.34-2.67 1.33-4.02 7.36c-6.02-2.02-12.04-6.03-18.07-11.4h-4c-6.7 3.36-12.73 6.7-17.4 7.38l-2.02-8.04-2-2.67-8.04-2.67c2.02-6.7 4.7-11.4 6.7-14.74l.68-2-1.34-2.67-11.38-15.4 7.36-5.36 2-1.34 2.02-8.7c6.7-.67 12.72.67 17.4 2.68h3.34l2-2c1.35-5.37 4.7-11.38 10.05-16.07l6.7 4.7 2.67.67 8.03-2.68 2.68 14.7c0 1.35.67 2.7 3.36 2.7 6.7-.68 11.37 0 16.73 2l-2.03 8.7v.66z"/><path d="M236.97 248.52c-4.02-.67-6.7.67-10.04 2.68-2.68 2-4 5.36-4.68 8.7 0 4.02.67 7.37 2.67 10.04 2 2.67 4.7 4.02 8.7 4.68 3.35.67 6.7-.66 9.37-2.68 3.34-2 5.34-5.35 5.34-8.7v-2c0-3.35-1.34-5.36-2.67-8.03-2.68-2.66-5.36-4-8.7-4.68zm-6.7 7.36c2.02-2 3.35-2.67 6.03-2 2.68 0 4 1.33 5.35 2.67 1.34 2 1.34 4.02 1.34 6.02l-3.36 5.36-5.35 2c-2.02-.67-4.03-2-5.36-3.34-.67-2-2.02-4.03-1.34-6.03 0-1.34 1.34-3.34 2.67-4.7z"/><path d="M237.64 268.6c-1.34.67-2 2-1.34 4L245 284c.67 2 1.34 2.67 3.34 1.33 1.34-1.33 1.34-2.68.68-4l-7.37-12.06c-1.34-2-2-2-4-.67zM261.73 253.2l-15.4 2c-2 .68-2.67 1.35-2.67 2.7 0 2 2 2.67 3.34 2.67l15.4-2.68c1.34 0 2.67-1.35 2-3.35-.66-1.34-1.33-2.02-2.67-1.34zM222.9 269.26l-7.34 10.04c-.68 1.35-.68 2.68.66 4.02 2 .68 2.68.68 3.35-.67l7.36-10.04c1.34-1.32 1.34-2.66-.67-4-1.34-1.33-2.68-1.33-3.34.66zM210.2 251.2c-.67 2-.67 2.68.67 4l10.7 6.7c1.35 1.35 2 1.35 4.02-.66.66-1.34.66-2.68-1.35-4l-10.7-6.7c-1.34-.68-2-.68-3.35.66zM238.3 237.82l-3.34 12.04c-.67 1.34 0 2.67 1.34 3.35 1.34.68 2.68.68 3.34-.66l3.35-14.06c0-2-.67-2.68-2.7-2.68-.66 0-.66 0-1.32.68l-.67 1.34z"/><path fill="#858585" d="M283.14 59.14c14.05 1.34 23.43-2.68 28.78-12.05 2-5.37 3.34-10.05 2.68-15.4l-14.73 1.34c-10.7 4.02-16.06 12.7-16.73 26.1z"/><path d="M317.27 31.7l-2-2.68c-9.37-2-17.4 0-24.1 5.36-6.02 5.35-10.03 13.38-10.7 24.76 0 1.34 1.33 2.67 2.67 3.34 10.7.68 20.08-2 26.1-8.03 6.02-5.35 8.7-13.38 8.03-22.75zm-5.35 2.68c-.67 7.35-2.68 12.7-6.7 16.06-4.68 4.68-10.03 6.7-18.73 6.7.66-8.71 3.34-14.73 8.02-18.08 4.7-4.02 10.04-5.35 17.4-4.7z"/><path fill="#858585" d="M184.77 157.5c6.7-13.37 5.35-23.4-1.34-31.44l-13.4-8.03-4.66 14.72c0 11.38 6.7 18.74 19.4 24.76z"/><path d="M178.75 119.37l-8.03-3.35c-.68-.67-2 0-2.68 1.34l-3.35 7.36c-2 6.02-2 11.38 0 16.06 2 8.7 8.7 14.72 18.73 18.74 2 .67 3.34 0 4.02-1.34 4.68-10.04 5.35-18.74 2-26.77-2.68-5.34-6.02-8.7-10.7-12.03zm-10.04 14.05c0-4.02.68-8.03 2.68-12.05 6.7 2.68 10.7 6.7 13.4 12.72l1.33 7.35c0 3.34-.66 7.36-2.67 11.38-8.03-3.35-12.04-8.04-14.05-13.4l-.67-6z"/><path fill="#858585" d="M95.1 77.2c12.7-6.02 18.06-14.72 17.4-25.43l-4.7-14.72c-5.34 2-9.36 5.36-12.7 9.38-6.7 8.02-6.7 18.06 0 30.78z"/><path d="M109.81 35.72c-1.32-.68-2-1.34-3.33-.68-8.7 2.68-14.72 8.7-18.07 16.73-2.68 7.37-1.33 16.73 4.68 26.77.68 1.35 1.34 2 3.35.67 10.04-4.67 16.07-11.36 18.07-19.4 2-8.7.67-16.05-4.7-24.08zm.02 23.42c-2 4.68-6.7 10.03-13.4 14.05-2.66-5.36-4-9.38-4-12.72l1.34-6.7c1.34-4.68 6.02-9.37 12.7-12.7 2.02 3.33 3.36 8.02 3.36 12.7v5.36z"/><path fill="#858585" d="M297.2 292.7l-14.72-2.7.66 14.74c4.02 10.7 12.72 16.06 26.77 16.06 1.35-14.06-3.33-23.42-12.7-28.1z"/><path d="M305.23 295.37c-3.35-4.02-8.7-6.03-14.73-7.36l-8.02-.66c-2.02 0-2.68.67-2.68 2l-.67 8.04c.67 6.02 2.67 11.37 6.02 16.06 4.7 6.7 13.4 10.04 24.76 10.04 1.35 0 2.7 0 2.7-2 .66-11.4-2.02-20.1-7.37-26.1zm-20.75-2.68c7.36 0 12.05 2 16.73 6.68 4.03 4.02 6.03 9.37 6.03 17.4v.68c-8.02-.68-14.05-3.35-18.06-7.37-2.68-3.36-4.7-8.7-4.7-15.4v-2z"/><path fill="#858585" d="M366.8 171.56c-13.4-5.35-23.43-4.68-30.8 3.35l-7.35 12.72 14.72 4.02c10.04-.67 18.07-7.36 23.43-20.08z"/><path d="M367.46 168.88l-27.43-1.33c-4.02 2.68-8.04 6.7-11.38 12.04-2 3.34-2.68 6-2.68 7.36l.67 3.35 8.03 2.68h16.06c8.7-3.35 14.73-10.04 18.07-20.75.67-1.33.67-2.67-1.34-3.35zm-24.1 4.02h19.42c-3.34 7.37-7.36 12.7-13.38 14.73L332 186.3c1.33-6.7 5.35-10.72 11.37-13.4z"/><path fill="#858585" d="M128.56 530.93c1.33-14.06-3.35-23.42-12.72-28.77l-14.72-2.68.67 15.4c4 10.7 12.7 15.38 26.76 16.05z"/><path d="M123.2 504.83c-3.35-3.34-8.03-6.7-14.05-7.36l-8.7-.67c-1.34 0-2 1.34-2 2l-.68 8.7c.67 6.03 2 10.72 5.35 15.4 5.36 6.02 13.4 10.04 25.44 10.7 1.33 0 2.67-1.33 2.67-2.67.67-12.04-1.34-20.08-8.03-26.1zm-20.08 0v-2.67c8.04.66 13.4 2.67 16.73 6.68 4.02 4.02 6.03 9.38 6.03 17.4v1.34c-8.03-.67-14.05-3.34-18.07-8.03-3.34-4-4.68-8.7-4.68-14.7z"/><path fill="#858585" d="M95.1 296.7c4.68-13.38 2-23.42-6.7-30.1l-13.38-6.03-2 15.4c1.33 10.7 8.7 17.4 22.08 20.74z"/><path d="M72.34 259.9c-.67.67-1.34 3.35-2 8.03-.68 6.03 0 12.05 2.67 16.07 3.35 8.02 11.4 12.7 22.1 15.38 1.33.67 2.67 0 3.34-2 3.35-10.7 2.68-19.4-2-26.77-3.36-4-8.04-7.35-13.4-10.03-3.34-1.34-6-2.68-8.02-2.68-1.34 0-2 1.33-2.68 2zm2.68 12.7l2-8.68c6.7 2.67 11.4 5.35 14.73 9.36 2 3.35 3.35 7.37 3.35 12.05l-1.34 8.03c-8.7-2.67-14.06-6.7-16.07-11.38-1.35-2.68-2.68-6.02-2.68-9.37z"/><path fill="#D96038" d="M165.37 431.22c2.67-3.34 4-8.04 4.68-14.73v-8.03l-12.72-.67-5.35-9.37c-3.34.67-7.36 2.68-12.05 6.02l-5.35 5.35-10.7-7.36-5.36-2.68-5.36 9.37-11.37 1.34c-.68 9.37.66 17.4 4.67 23.43-5.35 1.34-10.04 4.02-13.38 8.03l-4.7 5.35 5.36 8.7-4.02 12.05c6.7 3.35 15.4 4.68 24.1 5.35 1.33 4.7 3.34 11.38 7.35 18.74l10.03-4 9.37 6 7.36-12.7 3.35-8.7 24.1-4.7-2.67-11.38 7.35-8.7c-1.33-4.68-4.68-8.7-8.7-12.7l-6-4.02z"/><path d="M173.4 408.47c-.68-2.02-2.02-3.35-3.36-3.35h-10.7l-4.7-8.7c-.65-1.34-1.33-2-3.33-1.34-4.68.67-11.37 4.02-17.4 10.04l-14.05-8.7c-1.33 0-3.34 0-4 1.34l-4.7 8.7-9.36.67c-2.02.67-2.7 1.34-3.36 2.67v5.36c0 6.02 1.34 11.37 3.35 16.73-4.03 2.67-8.04 4.67-12.06 8.68l-4 4.7-.68 2v1.34l4.68 8.02-3.35 11.4 2 3.33 22.76 4.68 6.7 18.07c.66 2 2 2.68 4 1.34l9.37-4 7.37 5.34 4.68-.67c3.34-4 7.36-11.37 10.03-20.08 8.72-.66 16.74-2.68 23.44-5.35l2-2.67v-1.35l-2-8.7 6.7-8.03v-3.34c-2.7-6.02-7.37-12.03-13.4-16.72 2.02-4.68 3.35-10.04 3.35-16.73v-4.68zm-6.7 3.34v1.35c0 6.7-1.33 12.05-4 15.4l-.68 2.67 1.33 2 4.7 4.7c4 2.66 6.68 6 8.68 10.03l-6.7 6.7s-.65.66-.65 2v1.34l2.68 7.35-20.75 4c-1.33.68-2.67.68-3.34 2.02l-8.03 18.07-6.7-4.68h-3.34l-7.37 3.34c-2.68-6.7-4.68-12.05-5.35-16.06-.67-1.34-2-2-3.35-2L94.43 466l2-9.36v-2l-4-6.7c4-5.34 8.68-9.36 14.7-11.37l2.68-2v-.68l-.65-2c-2.68-4.02-4.02-10.05-4.02-16.74v-2l8.03-.68 2.68-1.33 4-6.7c4.7 2 8.72 4.68 12.06 7.36h4.68c4.7-4 8.7-7.35 13.4-9.36l4.67 7.36 2.68 1.35 9.37.66z"/><path d="M143.28 452.63c3.34-2.68 4.68-5.35 4.68-9.37 0-3.35-1.34-6.7-4-8.7-2.02-3.34-5.36-4.68-9.38-4.68-3.35 0-6.7 1.35-9.37 4.02-2 2.67-3.33 6.02-4 9.36 0 3.35 1.33 6.7 4 8.7 2.02 2.7 5.36 4.68 9.38 4.68 3.34 0 6.02-1.33 8.7-4zm-3.35-14.72c2 1.35 2 3.36 2 5.36 0 2 0 4.02-2 5.36l-5.35 2.68c-2.68 0-4.7-1.35-6.02-2.68-1.34-2-2.02-3.35-2.02-5.36 0-2 .68-4 2.02-5.35 2-2 4-2.67 6.02-2.67 2 0 4.02 1.34 5.35 2.68z"/><path d="M141.27 448.62c0 1.33.67 2.68 2 3.34l14.06 3.35c1.34.68 2.68 0 2.68-2 1.35-1.34 0-2.68-1.33-3.35l-14.05-3.34c-1.34 0-2.68 0-3.35 2.02zM147.96 421.18l-9.36 12.04h3.34c1.34.67 1.34 1.35.67 3.35l9.38-12.04c1.33-2 1.33-3.35 0-4.02-2-.66-3.35-.66-4.02.68zM133.24 456.64c-2 0-2.68 1.35-2 3.35l1.33 10.7c-.67 2 .67 2.68 2.68 2.68l2.67-2-1.34-13.4c-.66-1.34-2-2-3.34-1.34zM124.54 449.95l-12.7 2c-2.02 0-2.7 1.35-2.02 2.7l2.68 2 12.7-2 2.02-2.7c0-2-.67-2.66-2.68-2zM121.2 422.52c-1.35 1.34-1.35 2.68 0 4l5.35 10.05c0 2 2 2.68 3.34 2l2-3.34c-2-4.68-4.02-8.7-6.7-12.05l-4-.66z"/><path fill="#D96038" d="M77.03 358.94l-5.35 9.37-11.38 1.35c-.68 9.37.66 16.73 4 23.42-8.02 2.68-14.04 6.7-17.4 13.38l4.7 8.7-3.35 12.05c6.7 2.68 14.72 4.7 23.43 4.7 1.33 6 3.34 12.03 7.35 19.4l10.7-4.7 8.7 6.7 8.04-12.72 3.35-8.7c8.7 0 16.73-2 24.1-5.35l-2.7-10.7 7.38-8.7-9.37-12.7-6.03-4.7c2.68-2.68 4.68-7.36 4.68-13.4v-8.68l-12.7-.67-5.36-9.37c-3.35.68-6.7 2.68-11.37 6.03l-6.03 4.7-10.7-6.7-4.7-2.7z"/><path d="M141.94 407.13v-1.34c-3.34-6.7-7.36-12.73-14.06-16.74 2-4.68 3.35-10.04 3.35-16.73v-4.68c0-2.02-1.34-3.35-3.35-3.35h-10.03l-4.7-8.04c-1.32-2-2-2.67-3.33-2-4.68.67-10.04 4.02-18.07 10.04-2-2.68-5.36-4.02-8.7-6.02l-4.68-2.02c-1.34-1.33-3.35-.66-4.02.68l-4.7 8.03-9.35 1.33c-2 .68-2.68 1.35-3.35 3.35v4.7c0 6 .67 11.36 3.35 16.72-7.37 3.34-12.72 8.02-16.07 13.38l-.66 2 .66 1.35 3.35 8.03-2.67 10.7v.67l2 2.68c6.03 3.34 13.4 4.7 22.76 5.35l4.02 12.05 2.67 6.02c.68 2 2.02 2.68 4.02 1.34l8.7-4.02 7.36 6.02 5.36-1.33c3.33-4 6.68-10.7 10.03-20.07 8.7-.66 16.73-2 23.42-5.35l2-3.35-2.67-10.04 6.7-6.7.66-2.67zM90.4 371h4.7c4-4.03 8.7-7.37 13.38-9.38l4.68 7.36c0 1.34 1.34 1.34 2.02 1.34l9.36.67v1.33c0 7.35-1.34 12.05-3.35 15.4l-1.35 2 .68.67 1.34 2.67 4.68 3.34 8.03 10.05-6.02 7.37-.68 2v.67l2 8.03-20.07 4c-2 0-3.33 1.35-3.33 2.7l-8.03 17.4-6.7-4.02-3.33-.67-7.36 3.35-6.02-16.06-3.34-2.68-19.42-3.35 2.68-8.7v-1.34l-.67-2.02-3.35-6.7c3.35-4.67 8.7-8.68 14.73-10.03l2-2v-3.33c-2.67-4.02-4-10.04-4-16.73V373l8.02-1.34 2.68-1.34 4.02-6.7c5.35 2 8.7 4.7 12.04 7.37z"/><path d="M101.8 411.8c2.66-2 4-5.35 4-8.7 0-4-1.34-6.7-4-10.03-2.02-2-5.37-3.35-8.7-3.35-4.03 0-6.7 1.35-9.38 3.35-2.68 2-4.02 5.36-4.02 9.37 0 4.02 1.34 6.7 3.35 9.37 2.68 2.7 5.36 3.36 9.37 4.03 3.34 0 6.02-1.34 9.37-4.02zm-3.36-14.7l2 5.34-2 5.36-6.02 2.67c-2 0-4-.67-5.35-2.67-2-1.35-2-3.35-2-5.36 0-2.68 0-4 2-6.02 1.34-1.34 3.34-2 6.02-2 2 0 3.33.66 5.34 2.67z"/><path d="M99.78 407.8c-.67 2 0 3.35 2 3.35l13.4 3.34c2 .66 3.34 0 3.34-1.35.67-2 0-3.35-2-3.35l-13.4-4c-2-.68-3.34.65-3.34 2zM101.12 395.08l9.37-12.05c.66-1.33.66-2-.68-3.35-1.34-1.33-3.35-1.33-4.02.68l-8.03 10.7 2.68.67 1.34 2-.68 1.35zM91.08 415.16c-1.34.66-2.67 2-2 3.34l2 11.38c0 2 .67 3.34 2 3.34l3.35-2-2-13.38c0-2-1.35-2.68-3.35-2.68zM82.38 408.47l-12.04 2.68c-2 0-2.68 1.33-2.68 3.34l3.34 2 12.72-2c1.34-.68 2-1.35 1.34-3.35 0-1.35-.67-2.68-2.68-2.68zM79.7 381.7c-1.33 1.33-1.33 2.68-.67 3.34l6.03 11.37c0 1.36 1.33 2.03 3.35 1.36 1.34 0 2-1.35 1.34-3.34-1.33-4.7-3.35-9.38-6.7-12.72H79.7z"/><path fill="#D96038" d="M309.9 83.9l-2-6.03-10.7 3.35-8.7-7.36c-4.7 4-8.7 8.7-10.7 13.4l-2.7 6.68c-4.67-2.68-9.35-3.35-15.38-3.35l-6.7.66-2.67 10.04-10.7 6.02c3.34 6.7 7.35 13.4 13.38 20.08L245 146.13l11.38 4.02 2 11.37c5.36-.66 12.72-3.34 22.1-8.02 6.68 6.02 14.04 10.04 21.4 12.7l5.35-10.03h12.06c1.32-5.35 2-10.04 1.32-16.05l-.67-7.37c6.7-1.34 12.72-5.35 18.74-12.7l-8.7-9.38 2.67-10.7-12.72-4.03h-7.36l-2.7-12.04z"/><path d="M312.6 81.9l-2.02-4.7c-.67-2-1.34-2.67-4-2.67l-8.7 2.68-7.38-5.35c-1.33-1.33-2.67-1.33-4 0-6.03 4.7-10.05 10.7-13.4 18.07l-14.05-2.67-6.7.66c-1.33.68-2.67 1.35-2.67 2.7l-2 8.7-9.38 4.68c-1.34.66-2 2-2 3.34v1.34c2.68 5.35 6.7 12.05 13.38 19.4l-8.03 17.4v.67c0 2 .67 3.35 2 3.35l9.38 3.35 2 9.36c0 1.34 1.34 2.67 3.35 2.67 4.7-.67 12.05-3.35 21.42-7.36l14.05 8.7 6.7 3.36c2 .67 3.34 0 4.68-2l4.02-8.04h10.04l3.33-2.68 1.33-14.05-.66-8.04c6.7-2 12.72-6.7 17.4-12.72l1.33-2-1.34-2.68-7.36-7.36 2.68-9.37v-.67l-1.34-2.68c-4.7-3.35-11.38-4.7-19.4-4.7l-2.7-10.7zm-17.4 2h3.33l7.37-1.34 3.34 13.38c0 2 .67 3.35 3.35 3.35l16.05 2.66-2 8.7.66 2.7 6.04 6.68c-4.7 6.02-9.38 8.7-13.4 9.37-1.33 0-2.67.68-2.67 1.35l-.67 2v1.34l.67 8.7-.67 10.03h-10.03l-2.68 2-4.03 7.36-16.73-11.38h-4c-7.37 3.35-13.4 5.35-18.75 6.7l-1.34-8.04-2.02-2-7.36-3.35c2-6.03 4.02-11.38 6.7-14.72v-2l-.67-2.68-12.04-16.06 8.7-4.68 1.34-2.02 2-8.02c7.37 0 13.4.67 18.07 3.35h2.68l2-2.7 2-5.35c2.7-3.34 5.37-7.36 8.72-10.03l6.02 4.68z"/><path d="M298.53 110.67c-2.67-2.02-6-3.35-9.36-3.35-4.02 0-6.7 1.33-9.37 3.35-2.68 3.34-4 6.02-4 10.04 0 3.35 1.32 6.7 4 8.7 2.68 2.68 5.35 4.02 9.37 4.02 3.35 0 6.7-1.34 9.36-4.02 2-2 4.02-5.35 4.02-8.7 0-4-2-6.7-4.02-10.03zm-15.4 15.4c-1.33-2.02-2-3.36-2-5.36 0-2.67.67-4.68 2-6.02 2.02-1.33 3.36-2 6.04-2 2 0 4 .67 5.35 2 2 1.34 2 3.35 2 6.03 0 2 0 3.35-2 5.36-1.34 1.34-3.34 2-5.35 2-2.68 0-4.02-.66-6.03-2z"/><path d="M289.84 129.4c-1.34.68-1.34 1.34 0 3.35l6.7 12.04c2 2 3.33 2 4 1.33 2-1.34 2-2 1.34-4.02l-8.03-12.7h-4zM313.92 114l-14.05 2.02 2 2-1.33 2.7 14.72-2.03 2-2.68c-.66-2-1.32-2.67-3.34-2zM271.77 142.8c2.68-1.35 5.35-5.36 8.03-10.05.66-2 .66-3.35-.67-4.02-2-.67-2.68-.67-4.02.67l-6 9.37c-2.02.67-2.02 2-.68 4.02h3.35zM273.77 122.7l4.02-1.33c1.33-1.33 1.33-2-.68-3.34l-10.7-7.36-3.35.66c-1.34 1.34-.67 2.68.66 3.35l10.04 8.03zM291.18 98.62c-.68 4.02-1.34 7.36-3.35 12.05-1.34.66-.67 2 1.34 3.34 1.33.68 2.67 0 3.35-1.33 2.67-4.68 4-8.7 4-13.38 0-2.02-.66-3.36-2.67-3.36-1.33 0-2.67 1.34-2.67 2.68z"/><path fill="#D96038" d="M218.23 44.4c-2-2.67-6.02-5.34-12.05-7.35l-8.03-1.33-3.34 11.37-11.37 3.34c0 5.35 2 12.04 6.7 19.4-3.36 2-6.7 4.7-9.38 8.03l-4 4.7 8.02 8.02-1.34 10.7 23.42 1.34c.67 8.7 3.35 15.4 8.7 20.75l10.04-2.7 10.7 6.7c4-6.03 8.03-13.4 10.04-22.76l20.74-2-1.33-11.38 8.02-7.36-10.7-10.04-7.36-5.36c2-9.36 2.68-17.4.67-24.75h-10.7l-6.7-10.04c-5.35 1.34-9.36 3.36-14.72 6.7l-6.02 4z"/><path d="M276.45 86.58l.67-2.68-.67-1.34-16.73-15.4.67-13.38-.68-10.7-3.35-2.68H247l-5.35-8.03c-1.34-1.34-2-2-3.35-1.34-6.02 1.34-12.7 4.68-20.07 9.37-2.67-2.68-7.36-4.7-12.05-6.7l-7.35-1.33c-2.02-.67-3.35 0-4.02 2l-2.67 9.38-9.37 3.34-2.68 2.67v1.33c0 4.7 2 10.7 5.36 18.07-2.68 2-5.36 4.7-7.37 7.37l-3.34 4-1.34 2.02 1.33 2 6.7 6.7-1.35 9.37v.67l2 2.68 22.1 2.68c1.34 7.35 4.68 14.05 8.7 19.4h3.34l8.7-2 9.37 5.35h4.68c4-6 7.36-12.7 10.04-20.74l19.4-2.68c1.34 0 2-1.34 2-3.34L269.1 92.6l7.35-6.02zm-60.23-39.5l2 .68 2-.67 5.37-3.35c4-2.68 8.02-4.7 11.37-6.03l6.02 8.03c0 1.34 1.33 1.34 2.67 1.34h8.03v6.68l-1.34 14.05v.67l1.34 2.68 15.4 12.72-6.03 5.35c-.67 0-.67 1.34-.67 2v1.35l.67 8.03-16.06.67c-1.33 0-3.34 1.34-4 2.68-1.35 7.35-4.02 13.38-8.04 18.73l-8.03-5.34h-2l-8.04 2c-4.02-5.35-6.7-10.7-6.7-16.72l-1.33-2.68-22.1-1.34 1.35-8.03-1.34-2.7-5.36-5.34c2-3.35 5.36-6.7 10.72-10.04l1.33-2.67v-2c-3.35-5.37-5.35-10.72-6.7-15.4l8.7-2 2.68-2.7 2-8.7c8.04 1.35 12.73 4.7 16.07 8.04z"/><path d="M234.3 71.18c-1.35-3.34-4.7-5.35-8.04-6.02l-10.04.67c-2.68 2-4.68 4.68-6.02 8.03-.67 4-.67 7.36 1.34 10.04l8.03 6.7c3.35.66 6.7 0 10.04-1.35 3.36-2 5.36-4.68 6.03-8.03.67-4 .67-7.36-1.34-10.04zM216.2 81.22c-.66-.67-.66-2-.66-3.35 0-3.34.66-5.35 3.34-7.36h6.02l4.7 3.36c.65 1.33 1.33 3.35.65 6.03l-3.34 4.67-6.02.66-4.68-4z"/><path d="M235.63 55.8l-6.7 13.38c-1.33 1.33-.66 2 .68 3.34 2.02 1.34 2.7 0 3.36-1.34l7.35-12.72c1.35-1.33.68-2.67-.66-3.34-2-1.34-3.34-.67-4 .67zM204.84 55.8c-1.33.66-1.33 2 0 3.34l9.38 12.04c-1.34-1.33-1.34-2 .66-3.34h4.02L208.86 55.8h-4.02zM235.63 82.56c-.67 1.34 0 2 2 2l12.05 2.02c2 0 3.35-.67 3.35-2.68 0-1.34-.67-2.68-2.68-2.68L238.3 79.9c-2-.7-2.67.65-2.67 2.66zM226.26 89.25l-.67 12.7 2.67 2.7c1.34 0 2.68-.68 2.68-2.02l1.34-13.38c0-1.34-.7-2-2.7-2-1.33-.67-2.67 0-3.34 2zM214.88 78.54l-14.05 3.35c-2 .66-2 2-1.34 4 .66 1.35 2 1.35 3.34.68 3.34-2 7.36-2.68 12.04-2.68l1.34-.67.67-2c0-2.02-.68-2.7-2.02-2.7z"/><path fill="#D96038" d="M72.34 190.97l-.67-8.03-11.37.67-6.7-10.02c-7.36 2-14.72 5.34-20.07 10.7-2.68-3.35-6.7-5.36-12.72-7.36l-8.02-2-3.35 11.37-10.7 3.33c0 5.36 2 12.05 6.7 20.08-4.7 3.35-9.38 6.7-13.4 12.05l7.36 8.03-.67 10.72 23.42 2c0 8.03 3.34 15.4 8.7 20.74l10.04-3.34 10.02 6.7 8.7-14.07 2-8.02 21.42-2-2.67-11.38 8.7-7.36-10.7-10.03-7.37-5.36 1.34-17.4z"/><path d="M74.35 206.36l1.34-12.7-.68-10.72-3.34-3.34H62.3l-5.35-7.37c-1.34-2-2.68-2-4.02-2-6.7 2-12.7 4.68-19.4 9.37-2.68-2.68-7.37-4.7-12.72-6.7l-7.35-1.34c-1.34-.66-2.68.67-4.02 2.02l-2 10.03-9.37 2.7c-2 0-2.68 1.33-2.68 3.33v.68c0 6.03 2 12.04 6.03 18.74l-12.04 10.7-.67 2 .66 2.7 6.7 6.02-1.34 9.36v.68l2.67 3.34 22.07 2.68c1.34 7.36 4.7 13.38 9.37 18.73 0 1.34 1.34 1.34 2.68 1.34l8.7-2.68 9.37 6.02c1.32.67 3.33 0 4.67-1.34 3.35-4 6.7-10.7 10.04-20.74l19.42-2.02c1.34 0 2.67-2 2.67-3.34l-.67-.67-1.34-9.37 6.68-6.02 1.34-2.67-.67-2c-3.34-5.37-9.37-10.05-17.4-15.4zm-6.02-20.07l.67 7.35-1.34 14.05v.67l1.34 2.68 15.4 12.04-6.03 6c-.67.7-1.34.7-1.34 2.03v.66l1.34 8.02-16.73 1.34c-1.34 0-2.68 1.34-3.35 2.68l-2.02 6.02-6.02 12.7-8.03-5.33-2.68-.67-7.36 2.67c-4.7-5.35-6.7-11.37-6.7-16.73l-1.34-2.67-22.08-2 .66-8.04-.66-2.7-6.03-5.34 11.38-9.38 1.34-2.67-.67-2c-3.34-5.35-5.36-10.7-6.02-15.4l8.7-2.66 2-2 2.68-8.72c8.03 2.02 13.38 4.02 15.4 7.37 1.33.66 1.33 1.33 2.67 1.33l2-1.34c5.36-4.03 10.7-6.7 16.74-8.7l5.35 8.02c.67.67 2 1.34 3.34 1.34l7.37-.67z"/><path d="M41.56 204.36c-4.02-.67-7.36-.67-10.04 2-2.68 1.34-5.36 4.02-6.02 7.37-1.34 4-.67 6.7 1.34 10.04 2 2.67 4 5.34 7.36 6.02l10.03-.7c3.35-2 6.03-4.67 6.7-8.68.67-3.34 0-6.7-1.34-10.04-2.02-2.68-4.7-4.7-8.04-6.02zm-7.36 6.02l6.02-.67 4.7 3.36c1.32 2.67 1.32 4.68.65 6.7l-3.34 4-6.7.67-4.68-3.34c0-1.35-.67-2.03-.67-4.03 0-2.67 1.34-4.7 4.02-6.7z"/><path d="M50.93 195.65l-6.7 12.72c-1.33 1.34-.66 2.68.68 4 2 .68 2.68.68 3.35-1.32l6.7-12.72c1.33-2 1.33-2.68-.68-4-1.34-.68-3.34-.68-3.34 1.32zM50.26 221.75c0 1.34.67 2.68 2.67 2.68l12.05 2 3.35-2.66c0-2.02-.67-3.35-2.68-3.35l-12.04-.67c-2-.68-2.67 0-3.34 2zM42.23 229.1l-1.34 12.06c0 2 .66 2.68 2.67 3.35l2.67-2.67 1.34-12.72c0-2-1.34-2.66-3.35-2.66-1.33 0-2 0-2 2.67zM19.47 223.1c1.34 1.33.68 2.67-.66 3.34l6.7-2.67 4.68-.68c1.34 0 2-.68 2-2.68 0-1.35-.66-2.68-2-2.68l-5.35 1.33c-4.02 0-6.02.68-8.7 2.02 1.34-.68 2.68 0 3.34 2z"/><path fill="#D96038" d="M276.45 182.94c-2 4.7-3.34 12.7-4.68 23.42-5.36 1.34-10.7 4.02-16.06 6.7l-6.02 4 5.35 10.05-5.35 10.05c4.7 6.02 10.7 10.7 18.74 13.4-2.68 6-2 13.37 1.34 22.73l12.04-2.67 7.37 8.7c4.68-2.67 10.04-8.02 14.05-16.05 6.02 3.34 11.38 5.35 17.4 6.7l3.34-10.72 10.04-4c-.67-5.37-2-11.4-4.68-16.08l-4.02-6.02c6.7-4.02 11.38-10.03 14.06-16.73l-7.37-7.36.67-12.7H316.6l-8.03.66-7.36-10.7-4.67-6.7-9.37 7.36-10.7-4.02z"/><path d="M342.7 216.4l-1.33-2.67-6.03-6.7.68-10.7c0-2-.68-3.35-2.68-3.35l-23.43.67-10.7-16.06c-1.33-1.35-2.67-1.35-4.68-.68l-7.36 6.02-8.7-3.35c-2 0-3.35 0-4.7 2-2 4.7-4 12.05-4.67 22.1l-15.4 6.68-6.7 4-.66 2.7v2l4.68 8.03-4.68 9.38v3.34c5.35 6.02 10.7 10.04 18.06 12.7l-1.33 6.04c0 4.68 1.33 10.7 3.34 15.4.68 2 2.02 2.67 3.36 2.67l10.04-2.67 6.7 7.35 4 .68c4.7-2 9.37-6.7 14.73-14.05l14.72 5.35c2.68 0 3.35-.67 4-2.67l2.7-9.36 9.37-3.35c.66 0 1.33-1.35 1.33-2.7v-.65c-.67-8.04-3.35-14.73-7.36-20.75 6-4.7 10.03-10.7 12.03-16.73l.68-.67zm-52.86-26.77l6.7-5.35 8.7 14.72c.66 1.34 1.33 2 4 1.34l6.7-.67h13.38l-.67 9.37 1.34 2 5.34 5.36c-2.67 6.7-6.7 10.7-12.04 14.06-1.34.67-1.34 2-1.34 2.67l.67 2.68 3.34 4.7c2 3.34 4.02 8.02 4.68 12.7l-7.35 2.68-2.68 2-2 8.04-13.4-5.35c-2-.67-3.34-.67-4.68 1.34l-10.7 12.72-6.03-6.7-3.33-.65-8.7 2-2-11.38 1.33-6.03.67-1.33-.67-1.35-2-2c-6.03-2.02-11.38-6.04-16.07-10.72l4.7-7.37.65-2-.66-1.33-4.02-7.36c6.02-4 12.05-6.68 19.4-8.7l2-3.34c.7-6.7 2.02-13.38 4.03-19.4l7.36 3.35 3.34-.67z"/><path d="M306.57 237.82c2-2.68 2.67-6.03 1.34-10.04-.67-3.35-2.67-6.03-5.35-8.03l-10.03-2c-4.02 1.32-6.7 3.34-8.7 6.02-.68 2.67-1.34 4.67-1.34 7.35v2.68c.66 3.35 2.67 6.02 6.02 8.7 2.68 1.34 6.02 2 10.03 1.34 3.35-.67 6.03-2.68 8.04-6.02zm-3.35-8.03l-1.34 5.34-5.35 3.35-5.35-.68-4.02-4.7 1.34-6.68c1.34-1.34 2.68-2.67 4.68-3.34l6.7 1.33 3.34 5.36z"/><path d="M284.48 229.8c2 0 2.68-.7 2.68-2.7 0-1.33-.67-2.67-2.68-2.67h-14.72c-1.34 0-2.68 1.34-2.68 2.68 0 2 1.34 2.7 2.68 2.7h14.72zM282.48 253.88c0 2 0 2.68 1.33 3.35 2.02.66 3.36 0 3.36-1.35l6.7-14.05c-.68 1.34-2.02 2-4.02 1.34-.67-.67-1.34-2-.67-3.35l-6.7 14.06zM287.16 201c-1.34.68-2 2.02-2 3.36l4.68 12.04c.66 2 2 2.67 3.34 1.34 2-.67 2.68-1.34 1.34-3.35l-4.02-10.7-3.34-2.7zM313.26 212.38l-11.38 4.7c-2 1.33-2.67 2.67-2 4 .66 2 2 2 3.34 1.34l12.04-5.35c1.34-.67 2-1.34 1.34-3.34-.66-1.35-2-2-3.34-1.35zM300.54 234.47c-1.33.67-1.33 2-.67 3.35l2.68 4.68 6.7 6.7 4-1.34c.67-1.34.67-2.02-.66-3.35l-6.03-5.35-2-3.34c-1.35-2-2.02-2.67-4.03-1.33z"/><path fill="#D96038" d="M127.22 127.4l-16.73 2-6.04 3.35c-2.67-5.35-5.35-9.37-9.36-13.38l-5.36-3.35-8.7 5.35L69 118.03c-2.68 7.35-4 15.4-3.35 24.76l-19.4 8.02 5.35 10.04-5.36 9.37c4.02 3.35 11.38 6.7 22.1 9.36C69 188.95 71 197 75 203.7l10.04-3.36 9.37 7.36c7.36-4 12.04-8.7 16.73-16.06 4.68 4 12.04 4.7 22.08 2.68v-12.05l8.7-6.02c0-3.35-2.68-7.37-6.7-12.05l-5.35-4.68 8.7-16.73-9.37-4.7-2-10.7z"/><path d="M96.43 116.7l-5.35-4.03h-3.35l-6.7 4.7-11.37-2.7c-2 0-3.34.68-3.34 2.7-2.67 6.68-4 13.37-4 22.75l-18.09 7.35c-.66.67-1.33 2-1.33 3.35l.67 2 4 8.04-4.67 8.02v1.35l1.34 2.67c3.34 3.35 10.03 6.7 20.74 10.04 1.34 8.03 3.35 16.06 6.7 22.75.66 1.34 2 2 4 1.34l9.38-2.68 7.36 6.02h4c5.37-3.34 11.4-8.04 15.4-14.73l21.42 2c2-.65 3.34-1.32 3.34-3.33v-10.7l8.04-4.7.67-2.67v-.67c-.68-5.35-4.7-11.38-10.72-17.4l7.36-14.05v-1.34l-1.34-2.68-8.7-4.02-1.33-9.37c-.68-2-1.34-2.68-3.35-2.68-8.7-.66-15.4.67-22.08 4.02l-8.7-11.38zm-13.38 7.35l6.7-4.68c5.35 4.68 9.36 9.36 11.37 14.72l2 2 3.35-.68 4.7-2.67 13.37-2 1.34 8.02 2 2 6.7 4.03-6.7 12.05-1.33 2.67 1.33 2c4.7 4.02 8.04 8.04 10.72 12.72l-7.37 5.36-1.34 2.67v8.7l-17.4-2-2.68-.67-2 1.33L95.1 203.7l-7.37-6.04-3.34-.66-8.05 2.67c-2.67-6.7-4.67-13.38-4.67-20.08l-3.35-2.68c-7.37-2.68-13.38-4.7-17.4-7.36l3.34-6.7.68-2v-1.34l-4.02-7.37c6.7-3.34 11.38-5.34 15.4-6.02 2-.67 2.67-2 2.67-3.34v-1.35c0-7.36.66-14.05 2.68-18.74l8.7 1.35h2.67z"/><path d="M106.47 170.23c2-2.68 3.35-6.03 3.35-9.37 0-3.35-1.34-6.7-4.68-9.37-2.02-2.02-5.36-3.36-9.38-3.36-4 0-6.7 2-8.7 4.68-2.67 2.68-4 5.36-4 8.7.66 4.02 2 7.36 4.67 9.38 2.68 2.67 5.35 4 8.7 3.34 4.02 0 7.37-1.34 10.04-4zm-4.68-14.73c1.32 2 2.66 4.02 2.66 5.36v.66l-2.67 5.36c-1.35 2-3.36 2.68-5.37 2.68-2 0-3.34-.68-5.35-2.68l-2.67-5.36c0-2 .67-4 2.68-5.35.67-2 2.68-2.67 5.35-2.67 2 0 3.35.67 5.36 2z"/><path d="M88.4 170.23l-2.67 14.72c-.67 1.34.66 2.68 2 2.68l3.35-1.34 2.68-14.74c0-2-.67-2.68-2-2.68-2.02-.66-3.35 0-3.35 1.35zM103.12 165.54c-1.33.67-1.33 2 0 4.02l13.4 8.03 3.33-.68c1.34-1.34 1.34-2.68 0-3.34l-13.38-8.7c-1.33-1.34-2-1.34-3.35.66zM80.38 158.85l-12.05 2c-2 .67-2.68 2-2 3.35l2.67 2 12.7-2c1.35-.66 2.02-1.33 2.02-3.34-.67-1.34-2-2.68-3.34-2zM83.72 137.44c-2 0-2.68 1.33-2 3.34l2.67 12.05c0 1.34 1.33 2 3.33 2 1.34-.66 2-2 2-3.34l-3.34-12.06c0-2-1.34-2.67-2.68-2zM112.5 146.8l-10.04 6.03c-2 .67-2.68 2-1.34 3.34 0 2 1.34 2 3.34 2 4.7-2 8.7-4 12.05-7.35 1.35-1.34 1.35-2.68 0-4-1.33-.7-3.34-.7-4 0z"/><path stroke-miterlimit="100" d="M364.58 579.58H7.42V7.42h357.16v572.16z" fill="none" stroke="#000" stroke-width="14.84"/></svg>