<svg xmlns="http://www.w3.org/2000/svg" height="100%" viewBox="0 0 372 587"><path fill="#fffaf0" d="M0 0h372v587H0z"/><path fill="#D96038" d="M301.83 51.77c13.9 0 19.03-5.13 15.37-16.1-3.66-10.25-10.98-11.7-21.96-3.66l-15.37 16.1 21.96 3.67z"/><path d="M309.88 23.96c-5.85-.73-12.44 2.2-20.5 9.5l-11.7 12.46c-.73.72-.73 2.2-.73 2.92l2.2 1.46 16.82 3.66c10.25 1.47 17.57 0 21.96-4.4 2.93-2.92 3.66-8.03 2.2-14.62-2.93-6.6-5.86-10.25-10.25-10.98zm4.4 13.17c1.45 3.66 1.45 7.32-.74 8.8-3.66 3.64-13.17 4.37-28.54 0 10.24-11.72 17.56-17.58 23.4-16.12 2.2 0 4.4 2.2 5.87 7.33z"/><path d="M280.6 50.3c2.2 0 2.93-1.45 2.2-3.66 0-1.46-2.2-2.2-3.66-1.46L246.2 56.16c-2.2.73-2.2 1.46-2.2 3.66.74 1.46 2.2 2.2 3.67 1.46L280.6 50.3z"/><path fill="#D96038" d="M303.3 519.42l10.24 20.5c7.32 10.98 14.64 11.7 21.96 2.2 6.58-8.8 2.92-15.38-10.25-19.77l-21.96-2.93z"/><path d="M303.3 517.24l-2.2.73c0 1.45-.73 2.2 0 2.93 6.58 19.02 14.63 29.27 23.42 30 4.4.73 9.5-1.47 13.17-7.32 4.38-5.12 5.1-10.25 2.2-14.63-2.2-4.4-8.8-8.06-19.04-10.26l-17.57-1.46zm31.46 14.63l.74 2.2-2.93 6.58-7.32 5.12c-5.13-1.46-10.98-8.78-16.84-22.68 15.4 1.45 24.17 3.64 26.36 8.77z"/><path d="M276.95 496.74c-1.47-.73-2.93-.73-4.4.73-.73 2.2 0 3.66.74 5.13l28.53 19.75c1.46.73 2.92.73 4.4-.73.72-2.2.72-2.93-.74-4.38l-28.55-20.5z"/><path fill="#D96038" d="M283.53 313.77l-16.1-14.64-2.93 21.23c0 13.9 5.13 19.76 16.1 15.37 10.98-4.4 11.7-11.7 2.93-21.96z"/><path d="M264.5 298.4l-2.92 16.84c-.74 10.98.73 18.3 4.4 21.95 3.65 2.92 9.5 3.65 15.36.73 6.58-1.47 10.24-5.13 10.98-10.25 1.46-8.78-7.32-19.02-23.42-30.74l-2.93-.74-1.47 2.2zm2.2 21.96c0-4.4 1.46-8.78 2.93-16.1 10.98 8.78 16.83 16.1 16.83 21.96v.73c0 2.93-2.93 4.4-6.6 5.85h-9.5c-2.2-2.92-3.66-6.58-3.66-12.44z"/><path d="M258.65 264.75c-1.47-1.48-2.93-1.48-3.66-.74-2.94 0-3.67 1.47-2.2 3.67l11.7 32.2c.73 1.47 1.47 2.2 3.66 1.47 2.2 0 2.93-1.47 1.47-3.66l-10.98-32.93z"/><path fill="#D96038" d="M85.93 20.3c-1.46-7.32-3.66-14.64-5.85-21.23-5.13-13.17-12.45-15.36-20.5-8.04C51.53-.94 53 6.38 65.44 12.97l20.5 7.32z"/><path d="M58.12-10.44c-5.86 4.4-7.32 8.78-5.86 13.9 2.2 8.8 13.18 15.38 32.94 19.77l2.93-.74.73-2.2C85.93-.2 80.8-11.9 72.03-14.84c-4.4-1.45-9.52-.72-13.9 4.4zM57.4.54c0-2.2 1.45-4.4 4.38-7.32 2.93-2.2 5.85-3.66 8.78-2.2 4.4 1.46 8.78 10.25 11.7 25.62C67.64 11.52 59.6 7.12 57.4 2V.54z"/><path d="M88.13 18.83l-4.4-.73c-1.46 1.47-1.46 2.93 0 4.4l23.42 25.6h4.4c.73-.73.73-2.18 0-3.65L88.12 18.83z"/><path fill="#858585" d="M128.38 48.1c-4.4-1.46-15.37 9.52-33.67 32.2-20.48 24.9-35.85 49.78-46.83 73.93-22.68-25.62-39.52-41-51.23-46.1l1.46 46.84 28.55 46.83 33.66 54.9c3.67 7.3 6.6 32.2 9.53 76.1 2.2 45.38 1.46 73.2-2.2 81.98-5.85 14.64-27.07 37.32-65.13 70.98V589.7h59.28l57.08-84.18c4.4-8.05 10.98-26.35 19.76-53.42 8.06-26.35 12.44-43.18 13.18-50.5 0-4.4 0-12.44-2.93-24.9-2.93-12.42-3.66-20.47-2.93-24.87.74-14.64 5.86-38.06 16.1-71 11.7-43.17 25.62-72.45 39.52-89.27l-5.85-4.4c-4.38-2.92-9.5-2.2-14.63 2.2-4.4 4.4-14.64 19.02-29.27 43.9l-31.47 54.9c-8.8-31.47-15.37-53.43-21.23-64.4l-16.83-24.88-9.5-11.72c1.45-12.44 4.38-27.08 9.5-43.9 10.98-32.94 25.6-60.02 45.38-80.5 4.4-9.53 5.12-13.9.73-14.65z"/><path d="M134.97 51.77l-1.47-3.66-4.4-3.65c-5.1-1.47-17.56 9.5-36.58 32.93-19.03 23.42-34.4 47.57-45.38 70.27-21.22-22.7-37.32-37.34-48.3-43.2h-3.66c-1.47.74-2.2 2.2-2.2 3.67l1.47 46.84.73 2.2 61.48 101c3.65 6.6 6.58 31.46 9.5 74.64 2.2 44.65 1.47 71.73-2.18 80.5-5.13 13.18-26.35 36.6-63.67 69.53l-1.46 2.93V589.7c0 2.9 1.47 3.65 3.66 3.65h59.28l2.2-1.47 57.8-84.9c4.4-8.04 11.72-26.33 20.5-53.42 8.06-27.07 12.45-43.9 13.18-51.23 0-5.12-.73-13.9-3.66-26.35-2.2-11.7-2.93-19.75-2.2-24.15.74-13.9 5.86-37.33 16.1-70.26 11.7-42.44 24.9-71.7 38.8-87.1 1.46-1.45 1.46-2.9 0-4.38-2.93-5.13-7.32-7.33-12.45-8.06-4.4-.73-8.78 1.46-13.17 5.12-5.86 3.66-19.76 24.88-40.25 62.2l-17.57 29.3c-6.6-25.63-13.17-44.66-19.03-57.1-5.12-10.98-13.9-22.68-25.6-35.86 9.5-51.96 27.07-92.2 53.4-120.76l.75-.73c2.92-5.12 4.4-9.5 4.4-12.43zm-41 35.13c15.38-19.76 27.1-31.47 33.68-34.4L124 60.55c-19.77 21.23-34.4 48.3-44.66 80.5-5.12 16.84-8.78 32.2-10.24 46.1l.73 2.94 10.25 11.7c7.3 8.78 12.43 16.1 16.1 23.42 5.12 10.98 11.7 32.2 20.5 64.4l2.18 2.2c1.47.73 2.93 0 3.66-1.46l21.96-37.33c21.22-36.6 34.4-57.08 38.8-60.74 2.92-2.2 5.84-3.67 8.04-2.94 2.2.73 3.66 1.46 5.85 2.93-14.63 16.82-27.08 46.83-39.52 89.27-9.5 30.75-13.9 54.9-15.37 70.26v2.92l2.2 22.7 3.66 21.22v2.2c-.74 7.3-5.12 24.15-13.17 50.5-8.8 27.07-14.64 44.64-19.77 51.96l-55.62 82.7H6.16v-98.07c37.32-33.67 59.28-57.1 65.13-71 2.2-5.84 2.92-18.3 2.92-39.5 0-21.97-.73-47.58-3.66-74.67-2.93-27.08-4.4-43.2-7.32-48.3l-31.47-51.24-30-49.03-.74-40.25c10.98 8.78 25.62 21.95 43.91 42.44.74 1.47 2.2 1.47 3.67 1.47l2.94-2.2c8.77-21.96 23.4-44.65 42.44-68.8z"/><path d="M17.14 496.74c-.74-1.46-1.47-1.46-3.66-.73-.74.74-1.47 1.47 0 2.94l16.1 23.4c13.17 16.12 26.34 27.1 39.52 33.68 1.46.73 2.2.73 2.93-.73.73-1.47 0-2.2-.74-2.95-13.18-6.58-26.36-17.55-38.8-33.66l-15.36-21.96zM29.58 477.7c0-1.45-1.47-2.2-2.93-.72-.73.73-1.46 1.46-.73 2.93l15.36 21.23c12.45 14.63 25.62 25.6 39.53 32.93l2.93-1.46c1.47-.72.74-2.2-1.46-2.93-12.44-6.58-25.62-16.83-38.06-32.2L29.6 477.7zM45.68 462.35c-.74-1.48-2.2-1.48-2.93 0-1.47.72-1.47 2.18 0 2.92l17.56 16.1c13.92 12.44 28.56 23.42 42.46 32.2 1.47.74 1.47.74 2.93-.73 1.45-1.46.72-2.2-.74-2.92-13.9-8.8-27.8-19.77-41.72-31.48l-17.56-16.1zM61.78 446.24c-1.47-1.46-1.47-1.46-2.93 0-.73 1.47-.73 2.93.73 3.66l21.96 12.45 37.32 20.48c1.47 0 2.93 0 3.66-1.46.74-.73 0-2.2-1.46-2.93L83.74 458.7l-21.96-12.46zM78.6 424.28c-.72-1.46-2.18-1.46-2.18.74-.74 1.46 0 2.92 1.46 2.92l17.57 5.86 34.4 8.78 2.92-2.2c0-.73 0-1.46-2.2-2.2l-33.66-8.77-18.3-5.12zM82.27 397.94l-2.2 2.2c-.73.73 0 2.2 1.47 2.2l57.08 8.78 2.2-1.48-2.2-2.18-38.8-5.86-17.55-3.66zM83 374.52c-1.46 0-2.2 0-2.2 2.2 0 1.46.74 2.2 1.47 2.2l19.03 1.45h34.4l2.2-2.2-2.2-2.92h-34.4l-18.3-.73zM134.23 349.64c0-1.47-.73-2.2-2.92-1.47l-51.22 3.66c-1.47 0-2.2 0-2.2 1.47 0 2.2.73 2.2 2.2 2.2l52.7-3.67 1.45-2.2zM127.65 326.22c0-2.2-1.47-2.93-2.2-2.2l-45.37 3.66c-1.47 0-2.2.73-2.2 2.2 0 1.46.73 2.2 2.2 2.2l46.1-3.67 1.47-2.18zM115.2 302.8l-2.2-2.2-21.95 2.92-12.44.74c-.72 0-1.45 0-1.45 1.47 0 2.2.73 2.2 1.46 2.2h12.45L113 305l2.2-2.2zM104.96 275.72c-.73-1.47-1.47-1.47-2.93-1.47l-17.56 2.93-9.52.73c-.73 0-1.46.75-1.46 2.2l1.45 2.2 10.25-.73 18.3-2.92c1.46 0 2.2-1.47 1.46-2.93zM96.9 238.4H94c-4.4 5.12-12.44 8.78-22.7 12.44-1.45 0-2.18 1.45-1.45 2.93 0 .73 1.46 1.46 2.93.73 10.98-3.66 19.03-8.05 24.15-12.45 1.47-1.46 1.47-2.92 0-3.66zM81.54 209.12c-.73-.74-2.2-.74-2.93 0L59.6 228.15c-1.46 1.46-1.46 2.2 0 2.92.73 1.47 1.47 1.47 2.93 0l19.04-18.3c.73-1.46.73-2.92 0-3.65zM61.78 191.56c-1.47-.74-2.2-.74-2.93.73l-3.66 5.84-9.52 11.72c-.74 1.45-1.47 2.18-.74 2.92l3.66.74 10.25-12.46 4.4-6.58-1.47-2.92zM51.53 169.6c-1.46-.73-2.93-.73-2.93.73l-3.66 7.32-13.17 17.57c-.73 2.18 0 2.92.74 3.66l2.93-.74 13.17-18.3 3.66-7.3c.74-1.48 0-2.94-.73-2.94zM35.43 150.57c-1.46-.74-2.92 0-3.66.73l-3.66 5.85-8.77 11.72c0 1.46 0 2.92.73 3.66l2.93-.74 8.77-13.18 3.66-5.13v-2.93zM14.94 133.74L3.96 155.7c-.73 1.45-.73 2.2 1.46 2.93.74.72 1.47 0 2.93-.74l10.98-22.7c-1.46.73-2.2 1.47-3.66.73l-.73-2.2zM6.9 530.4H4.7c-1.47 1.48-2.2 2.2-.74 2.93 15.37 21.96 32.2 36.6 49.04 43.9l2.92-1.45c.74-.73 0-2.2-.73-2.92-10.26-4.4-21.23-12.45-32.94-24.9L6.9 530.4zM127.65 296.94c0-2.2-1.47-2.2-2.93-2.2-1.47.74-2.2 2.2-1.47 2.94l6.6 13.9c5.12 10.24 10.97 18.3 17.55 24.15l2.93-.73-.73-2.2c-5.85-6.58-10.98-13.9-16.1-23.42l-5.85-12.44zM140.1 276.45c-.74-1.46-1.48-1.46-2.94-1.46-1.46.72-2.2 1.45-1.46 3.65l5.12 9.5c4.4 6.6 8.78 12.45 13.17 16.85 1.46 1.46 1.46 1.46 2.92 0 1.46-.74 1.46-1.48 0-2.93l-12.44-16.1-4.4-9.52zM149.6 253.03h-2.2c-1.46.74-1.46 1.47-.72 2.92l15.36 19.77h2.93c1.46-.73 1.46-1.47.73-2.93l-16.1-19.77zM162.04 234h-3.66c-1.46.73-1.46 1.47 0 2.2l11.7 15.36c0 1.47 1.48 1.47 2.94.73.73 0 1.47-1.46.73-2.93L162.05 234zM173.75 214.24l-.73 2.2h-3.66l9.52 12.44 2.92 1.46.74-3.66-8.8-12.44zM58.12 159.35c-1.46-1.46-2.2-1.46-2.93-.72-1.47.72-1.47 2.18-.74 2.92l5.85 7.3 11 14.65c1.46.74 2.2.74 3.65 0 .74-1.46.74-2.92 0-3.66l-11.7-13.9-5.13-6.6zM67.63 135.93c0-.73-1.46-.73-2.92 0-1.46.74-1.46 1.47-.73 2.93l4.4 6.58 9.5 11.7c.74.75 1.47.75 2.94 0 .74-1.45.74-2.9 0-3.65l-8.77-10.25-4.4-7.32zM80.8 113.24c-.72-1.46-2.2-1.46-2.92-1.46-1.46.73-1.46 2.2-1.46 3.66l2.92 5.12 6.6 10.25c.72 1.47 1.45 1.47 2.92.74.73-1.46 1.46-2.2.73-2.93L83 118.38l-2.2-5.13zM90.32 95.68l6.6 9.5 2.9.74.75-2.92-5.86-9.5-1.45 2.18h-2.93z"/><path fill="#858585" d="M32.5 285.96l-5.85 15.38c-2.2 12.43 4.4 21.95 18.3 28.54 7.3-13.18 8.04-24.15.73-32.94L32.5 285.96z"/><path d="M33.97 283.77l-3.66.73-4.38 8.05C23 298.4 23 305 23.72 310.85c2.2 8.8 8.05 16.1 19.76 21.95l3.66-1.46c5.86-10.25 8.05-19.76 5.12-28.54-1.46-5.86-5.12-10.25-10.97-13.9l-7.33-5.13zm0 6.6c6.6 3.65 10.97 8.76 13.17 13.9l.73 7.3c0 3.67-1.46 8.06-4.4 14.65-8.04-5.86-13.16-10.98-13.9-16.84l-.72-4.4c0-5.12 1.46-10.23 5.12-14.62z"/><path fill="#858585" d="M251.33 9.32l16.83.73c10.98-2.2 17.57-11.7 19.76-27.07-15.37-2.93-25.6.73-32.2 10.24l-4.4 16.1z"/><path d="M290.85-16.3c0-2.2-.73-3.65-2.93-3.65-11.7-2.2-21.95 0-28.54 5.85-4.4 3.66-8.05 8.79-9.52 14.64l-2.2 8.78c0 2.2.74 2.93 2.94 3.66l8.05.73c7.32 0 13.17-.72 18.3-4.38 7.32-5.12 11.7-13.9 13.9-25.6zm-6.58 2.2C282.8-5.32 279.14.54 273.3 4.2c-5.14 3.66-11.72 5.12-19.04 3.66.73-8.06 3.66-13.9 8.78-18.3 5.12-3.66 12.44-5.13 21.23-3.66z"/><path fill="#858585" d="M127.65 157.9c2.2-11-3.66-21.23-16.1-29.3-9.52 12.46-10.25 23.44-3.66 33.7 3.64 4.37 7.3 8.03 12.43 10.96 3.66-4.4 5.85-8.8 7.32-15.37z"/><path d="M130.57 149.83c-1.46-9.5-7.3-17.56-17.56-24.14l-4.38.72c-6.6 10.25-9.5 20.5-7.32 29.27 2.93 9.5 8.05 16.1 17.56 20.48l3.66-.73c6.6-8.05 8.8-16.82 8.05-25.62zm-24.15-1.45c0-4.4 1.46-8.8 5.12-15.37 8.06 5.86 12.45 11 13.18 17.57v2.92c0 5.12-2.2 10.97-5.86 15.36-5.85-3.66-9.5-9.5-11.7-14.63l-.74-5.85z"/><path fill="#858585" d="M144.48 202.54c-9.5-7.32-20.5-7.32-33.67.73 6.6 13.17 15.38 20.5 27.82 19.02 5.86-.74 10.98-2.2 15.37-5.86-2.2-5.13-5.13-9.52-9.52-13.9z"/><path d="M138.63 195.95c-8.8-2.93-19.03-1.47-29.28 5.1-1.46.75-2.2 1.5-1.46 3.67 5.1 10.98 12.43 17.57 21.94 19.77 8.8 2.18 17.57 0 25.62-5.14l1.46-3.66c-3.66-10.24-10.24-16.1-18.3-19.75zm-23.43 8.77c7.32-4.4 14.64-5.84 21.23-2.92 5.85 2.2 10.25 6.58 13.17 13.9-5.12 3.66-12.44 4.4-19.03 3.66-5.85-2.2-10.97-6.58-15.37-14.64z"/><path fill="#858585" d="M356.72 304.26c0-5.12-1.46-10.98-3.66-15.37-5.85-10.25-16.83-14.65-32.2-13.18 1.46 15.37 7.32 24.88 19.03 28.54h16.82z"/><path d="M350.13 279.38c-7.32-5.86-16.83-8.05-29.27-6.6-1.47 0-2.93 1.47-2.93 2.94 1.46 13.17 5.86 21.22 13.17 27.07 7.32 5.12 16.1 7.32 26.35 5.12l2.2-2.92c0-10.98-2.93-19.04-9.52-25.62zm-25.6-.73c9.5-.74 16.82.73 21.2 5.12 4.4 4.4 7.33 10.25 8.06 18.3-8.06 1.45-14.65 0-19.04-4.4-5.85-3.65-8.78-10.24-10.24-19.02z"/><path fill="#858585" d="M342.8 484.3c-6.57-10.25-17.55-13.9-32.2-10.98 2.2 15.37 9.52 24.15 21.23 27.08l16.1-.73c-.73-5.86-1.46-10.98-5.12-15.37z"/><path d="M350.87 498.94c-.74-10.25-4.4-18.3-11.72-23.43-7.3-5.83-17.56-7.3-29.27-5.1-1.47.72-2.93 1.45-2.2 3.65 2.2 11.7 6.6 21.23 14.64 25.62 8.05 4.4 16.84 5.85 27.08 2.93l1.47-3.66zM335.5 479.9c5.85 4.4 8.05 9.52 9.5 17.57-8.04 1.47-13.9.73-19.75-2.2-4.4-3.65-8.05-10.24-10.98-19.02 9.52-1.47 16.1-.74 21.23 3.66z"/><path fill="#858585" d="M173.75 529.67c8.8-7.32 10.98-19.02 6.6-32.93-15.38 3.66-23.43 11.7-24.16 24.15-.74 5.1 0 10.97 2.92 16.1 5.12-.74 10.24-3.67 14.63-7.33z"/><path d="M182.54 495.28c0-1.47-1.47-2.2-3.66-1.47-11.7 3.67-19.76 9.53-23.42 17.58-3.66 8.78-3.66 17.56.73 27.07l2.92 1.47c10.24-1.47 18.3-6.6 22.68-14.64 4.4-8.04 4.4-17.56.74-30zm-5.13 5.12l2.2 10.25c0 4.4-.72 8.04-2.92 11.7-2.93 5.86-8.78 9.52-16.1 10.98l-1.47-10.25c0-2.18 0-5.84 1.48-9.5 2.93-5.86 8.78-10.25 16.83-13.18z"/><path fill="#FFCDDE" d="M337.7 130.08l-3.67-10.98c-5.85 0-12.44 1.46-17.56 3.66l-6.6 4.4c-2.92-5.13-6.58-9.52-10.97-13.18l-7.3-3.66-8.07 7.32-13.9-2.2c-1.47 7.32-2.2 16.83-.73 27.08-3.66.73-8.06 2.92-13.9 5.86l-6.6 5.1 7.33 9.53-5.13 11.72c4.4 2.93 13.18 5.86 24.88 8.05 1.47 9.52 5.13 18.3 9.52 25.6l10.98-5.83 10.97 7.3c6.6-4.38 12.44-11.7 16.1-19.02 5.86 3.66 14.64 3.66 24.16 0l-.72-13.17 9.5-7.32-8.77-11.7-6.58-5.14c3.66-5.85 5.86-12.44 8.05-18.3l-10.98-5.12z"/><path d="M337.7 117.64c-.74-2.2-2.2-2.2-3.67-2.2-8.78 0-16.83 2.2-23.42 6.6l-10.97-11.72-5.85-3.66-3.66.73-7.32 5.84-12.44-1.46c-2.2 0-3.66 0-4.4 2.2-.73 5.85-1.46 11.7-1.46 17.56v8.05l-17.56 10.97c-1.46 0-2.2.73-2.2 2.92l.74 1.46 5.85 8.78-4.4 8.78v2.2l.74 2.93c4.4 2.2 12.44 5.85 24.88 8.04 1.47 8.78 5.13 16.83 9.52 24.15 1.46 2.2 2.2 2.93 4.4 1.46l9.5-4.38 9.52 5.86h3.65c5.12-3.66 10.97-9.52 15.37-17.57 7.3 2.2 14.63 2.2 24.15-.72 1.46 0 2.2-1.47 2.2-3.66l-.74-10.98 7.32-6.58 2.2-2.93v-1.47c-2.2-5.12-6.6-10.98-13.9-16.83l6.58-16.1v-.74l-2.2-3.67-10.24-3.66-2.2-10.23zm-2.2 16.1l8.05 2.93-5.86 14.63-.74 2.2 1.46 2.2c5.86 5.1 10.25 9.5 12.44 13.17l-7.3 6.58c-.75.73-.75 1.47-.75 2.2v.73l.75 9.52-19.03-.74h-2.93l-1.48 1.47c-3.65 6.6-8.05 12.43-13.9 16.83l-8.05-5.85h-3.66l-8.04 3.67c-3.66-7.32-5.85-13.9-7.32-21.96l-2.93-2.2c-6.57-.72-13.9-2.9-21.2-6.57l3.65-7.32.73-2.2-.73-1.45-5.13-7.32 16.1-8.78 2.93-2.93v-1.46l-.73-9.52 1.47-12.44 9.5 2.2 2.93-1.47 6.6-5.12c6.57 2.94 10.23 7.33 13.9 13.9l2.92 2.2 2.93-.72 5.12-2.93c4.4-2.2 9.5-3.66 14.64-4.4l2.2 8.8 1.46 2.2z"/><path d="M302.56 146.17c-4.4 0-8.05.74-10.98 3.66-2.92 2.93-3.66 5.86-3.66 10.25s.74 8.05 3.66 10.25c3.66 2.93 6.6 4.4 10.98 4.4 3.66 0 7.32-1.47 10.25-4.4 2.2-2.2 3.67-5.86 3.67-10.25s-1.47-7.32-3.66-10.25c-2.92-2.92-6.58-3.66-10.24-3.66zm5.86 8.06c1.46 1.46 2.2 3.66 2.2 5.85l-2.2 5.86c-2.2 2.2-3.66 2.93-5.86 2.93-2.93 0-4.4-.74-6.6-2.93-1.45-1.47-2.18-3.65-2.18-5.86 0-2.2.73-4.4 2.2-5.85 2.2-2.2 3.65-2.92 6.58-2.92 2.2 0 3.66.73 5.86 2.93z"/><path d="M299.63 167.4c-2.2 0-3.66 1.47-3.66 2.93l-.73 14.64c0-1.47.73-1.47 2.93-1.47 1.47 0 2.93.74 2.93 3.66l1.46-16.83-2.93-2.93zM315.73 161.55c-2.2-.74-2.92 0-3.66 1.46-1.46 2.2-1.46 2.94.74 3.67l15.38 8.78c1.46.73 2.92.73 3.65-1.46.74-1.47 0-2.94-.73-4.4l-15.37-8.05zM287.92 163.74c2.2-1.46 2.93-2.2 2.2-3.66-1.46-2.2-2.2-2.2-3.66-2.2l-12.44 3.67c-1.47 0-2.93 1.46-2.93 3.66 0 1.47 1.45 2.93 2.92 2.93l13.9-4.4zM295.24 149.83l-4.4-13.9c0-2.2-2.18-2.2-3.65-2.2-2.2 1.47-2.2 2.2-2.2 4.4l5.12 13.18c.73 2.2 1.46 2.2 3.66 2.2 1.46-1.47 2.2-2.2 1.46-3.67zM324.52 141.78l-3.66-.72-11.7 8.77c-1.48 1.48-2.2 2.93-.74 4.4 1.46 1.46 2.2 1.46 4.4 0l11.7-8.06c1.46-1.45 1.46-2.92 0-4.38z"/><path fill="#FFCDDE" d="M188.4 414.04l-3.67-11.72c-5.85 0-12.44 1.48-18.3 4.4l-5.85 4.4c-2.2-5.14-6.6-10.25-10.98-13.9l-6.58-3.67-8.8 6.6-13.9-1.48c-1.46 8.05-2.2 16.84-.72 27.08l-13.18 5.85-6.6 5.13 6.6 10.24-5.85 11.72c5.12 2.9 13.9 5.83 25.6 7.3 1.48 9.5 5.14 18.3 9.53 25.62l11.7-5.13 10.98 6.58c4.4-2.93 8.06-6.6 11.7-12.44l3.67-6.6 24.9.74-1.48-13.17 9.52-8.05c-.74-2.92-3.67-7.3-8.8-10.97l-6.58-5.85 5.86-12.45 2.2-5.84-11-4.4z"/><path d="M188.4 400.87c0-1.47-2.2-2.2-3.67-2.2-8.05 0-15.37 2.2-23.42 7.3l-10.96-11.7-5.86-4.38-3.66 1.45-7.32 5.13-12.44-1.47c-2.2 0-2.93 1.48-4.4 2.94-.72 4.38-1.45 10.24-1.45 16.84v8.04l-18.3 10.25-.72 3.66.73 2.2 5.13 8.78-4.4 8.8-.72 2.2 2.2 2.17c4.4 2.94 11.7 5.86 23.42 8.8 2.93 8.77 5.86 16.82 10.25 23.4.73 2.2 2.2 2.2 4.4 2.2l9.5-5.12 8.8 5.86c1.45 1.47 2.9 1.47 4.38 0 6.58-4.38 11.7-10.97 15.37-17.56 7.32 2.2 14.64 2.2 24.15 0l2.92-3.66v-.73l-1.47-10.98 8.05-5.86 1.47-3.65v-1.45c-2.2-4.4-6.6-10.25-14.64-16.84l5.13-10.98 2.2-5.12v-.72l-2.2-3.66-9.5-3.66-2.94-10.25zm-3.67 13.9l2.2 2.2 8.05 3.65-6.6 13.9-.72 2.2 1.46 2.93c6.6 4.4 10.25 8.8 13.17 13.18l-7.32 5.86-1.46 2.9v.75l.73 9.5-19.03-1.46h-2.2c-1.46.72-2.2 1.45-2.93 2.2l-2.93 5.1-9.52 11-8.78-5.13-2.93-.74-8.78 3.66c-3.66-7.33-6.6-14.65-7.32-21.23l-3.66-2.92c-8.05-1.48-15.37-3.66-20.5-5.86l3.67-8.06.73-1.47-.73-2.2-5.12-7.3c5.85-4.4 10.97-6.6 16.1-8.06l2.93-3.65-.74-.73v-10.24l1.47-11.72 9.5.74h2.93l7.32-5.13c5.85 2.2 10.24 7.3 13.17 13.17l2.93 2.94 2.92-1.48 5.13-2.92 14.64-4.4 2.2 8.8z"/><path d="M167.9 444.05c0-4.4-1.47-7.32-5.13-10.98-2.2-2.93-5.85-3.66-9.5-3.66-4.4 0-7.33.74-10.25 3.67-2.93 3.66-4.4 6.58-4.4 10.98 0 3.66 1.47 7.32 4.4 9.5 2.92 2.94 5.85 4.4 10.24 4.4 3.66 0 7.32-1.46 9.5-4.4 3.68-2.18 5.14-5.84 5.14-9.5zm-8.78-6.6c1.46 1.47 2.92 3.67 2.92 6.6 0 2.2-1.46 3.66-2.92 5.85-2.2 1.47-3.66 2.2-5.86 2.2-2.92 0-5.12-.73-5.85-2.2-2.2-2.2-2.92-3.66-2.92-5.85 0-2.93.73-5.13 2.93-6.6.74-2.2 2.94-2.2 5.86-2.2 2.2 0 3.66 0 5.86 2.2z"/><path d="M150.34 451.37c-2.2 0-2.94 0-2.94 2.2l-1.46 16.1c0 2.18 0 2.92 2.2 2.92l2.92-.75.74-2.18 1.46-15.38c0-2.2-1.46-2.93-2.92-2.93zM166.44 445.5c-1.47-1.45-2.93-.72-3.67.74-.73 1.47-.73 3.66 1.47 4.4l14.64 8.05 3.66-1.5c1.46-1.44.73-2.9-1.47-3.65l-14.63-8.04zM140.82 443.3c-.73-2.18-2.2-2.9-3.66-1.45l-11.7 3.66c-2.2 0-2.94.74-2.94 2.94 0 1.46.73 2.93 2.93 2.93 3.66 0 8.05-1.47 13.17-3.66 2.2-1.46 2.2-2.92 2.2-4.4zM142.28 419.16c-1.46-1.46-2.2-2.2-3.66-1.46-2.2.74-2.92 2.2-2.2 3.66l4.4 13.9c0 1.47 1.46 1.47 3.66 1.47 1.46-1.47 2.92-2.2 1.46-3.66l-3.66-13.9zM175.22 425.75l-3.66-1.47-10.98 8.8c-2.2 1.45-2.2 2.18-1.46 4.38 1.46 1.46 2.92 1.46 4.4.73l11.7-8.8c1.46-1.46 1.46-2.2 0-3.65z"/><path fill="#FFCDDE" d="M162.77 37.13h-11.7l-6.6-10.98-13.16 10.24-7.3 6.58-18.3-4.38-8.8-.73-1.45 11.7-11.7 5.86c.72 8.78 2.9 16.1 8.04 23.42-4.4 2.2-7.33 6.6-10.26 12.44l-3.66 8.04 11.7 5.86 1.47 12.44c5.86 1.46 13.18 0 21.96-3.66l11 16.83 10.23-7.3 11.7 4.38c5.14-9.5 7.33-17.56 5.87-25.62 9.5.74 17.56-1.45 23.42-5.84l-.73-10.25 8.77-10.98-13.9-11-7.33-4.37.73-14.64v-8.07z"/><path d="M165.7 34.2l-2.93-.73h-10.24l-5.13-8.78c-1.46-2.2-2.92-2.2-5.12-1.47-4.4 2.2-10.97 7.32-19.76 15.37l-16.83-3.66-8.8-.73c-1.46 0-2.92.74-3.65 2.93l-.74 10.24-10.23 4.4c-1.46.73-2.2 1.46-2.2 3.66.74 7.3 2.2 14.63 6.6 23.42-5.13 3.66-9.52 10.98-12.45 19.02v1.47l2.2 3.66 9.5 5.12 1.47 9.5 2.2 3.67 21.94-2.2L121.8 133l4.38.74 8.8-5.86 9.5 2.93c2.2 1.47 3.66.74 4.4-1.45 4.38-6.6 6.57-15.37 6.57-23.43 8.8 0 16.1-2.2 21.96-6.58l1.48-2.93v-9.5l7.32-9.52.73-2.2-.73-2.92c-5.13-5.86-12.45-10.98-20.5-14.64l.73-15.36v-5.13l-.73-2.92zm-18.3 5.13c.74 1.46 2.2 1.46 3.66 1.46h8.06v1.46l-.74 16.83v.73c0 1.45.74 2.92 2.2 2.92l5.86 3.66c5.12 3.67 8.78 5.86 11.7 8.8l-6.58 8.04-.73 2.93.73 8.05c-5.86 3.66-12.44 5.12-19.76 4.4-.73 0-2.2.72-2.2.72-1.46 1.47-1.46 1.47-1.46 2.92V105.2c0 5.12-.73 10.97-4.4 17.56l-8.77-2.93-2.93 1.46-6.6 4.4-8.77-13.2c-1.47-2.18-2.2-2.92-5.13-2.18-5.12 3.66-10.97 4.4-17.56 3.66l-.73-9.52-2.2-2.93-8.78-4.38c2.93-7.32 6.6-12.45 10.98-14.64l1.46-2.92.75-.73-.74-1.47c-3.65-5.85-5.84-13.17-6.57-19.76l8.78-4.4 2.2-2.92 1.47-8.04c7.3 0 14.63.72 21.95 4.38l4.4-.72c5.12-5.87 10.24-10.98 16.1-14.64l4.38 8.05z"/><path d="M140.82 86.17c1.46-3.66 2.2-7.32 1.46-10.98-.73-3.67-2.92-7.33-5.85-8.8-3.66-2.2-7.32-3.66-10.98-2.2-4.4.74-7.32 2.94-8.78 5.86-2.2 2.2-2.93 5.13-2.93 8.06l.73 2.92c.73 4.4 2.2 7.32 5.86 8.78 3.66 2.2 7.32 3.67 10.98 2.2 3.67 0 6.6-2.2 9.52-5.85zm-8.05-14.64l4.4 4.4c0 2.92 0 5.1-2.2 6.58-.74 2.2-2.2 3.67-5.13 3.67l-5.85-.73c-2.2-.74-3.67-2.93-3.67-5.86-1.47-1.46-.73-3.66.73-5.86l5.12-3.66 6.6 1.47z"/><path d="M110.8 57.62l-4.38 1.47c-.73.72-.73 2.18.73 3.65l11.7 9.5 4.4-.72c.74-.73.74-2.2-.73-3.66l-11.7-10.25zM120.33 84.7c0-2.2-1.47-2.2-3.66-1.46l-14.64 8.78c-1.46.74-2.2 1.47-1.46 3.66.73 1.47 2.2 2.2 3.66 1.47l15.37-8.8c2.2 0 2.2-2.18.73-3.65zM140.1 49.57c-1.48-.73-2.94 0-3.67 2.2l-3.66 12.44c0 2.2.73 3.67 2.2 3.67l3.65-2.2 3.66-12.44c0-2.2 0-3.66-2.2-3.66zM142.28 72.26c-1.46 0-2.2.73-3.66 2.93 0 1.45 0 2.92 2.2 3.65l13.9 2.93 3.66-2.2c0-2.2-.73-2.93-2.93-3.66l-13.17-3.66zM130.57 86.9c-1.46 0-2.92.73-2.92 2.93l-.74 4.38 1.48 11c.73 1.46 1.46 2.2 3.66 1.46 1.46 0 2.2-1.47 1.46-3.66 0-2.2-.73-5.13-.73-8.8l.73-4.37c0-1.47-.73-2.93-2.93-2.93z"/><path fill="#FFCDDE" d="M210.35 221.56c-2.93-2.2-7.32-5.12-12.44-8.04l-7.3-4.4-5.87 11.7-11.7.74c-.74 5.86.72 14.64 5.12 25.62-8.06 6.6-13.18 13.17-17.57 21.22l10.25 7.32-.73 13.17c7.32 3.65 16.1 4.38 24.88 4.38 0 6.6 3.66 13.9 11.7 21.22l11-8.04 10.97 5.12c2.92-2.92 4.4-7.32 5.85-13.9l1.46-8.06 19.77-2.2-1.47-12.43 8.05-8.07c-2.9-5.84-7.3-10.24-12.43-13.9l-6.6-3.66c5.14-7.32 7.33-15.37 5.87-22.7l-10.25-5.1-5.13-12.45c-4.4 1.46-10.24 3.66-16.1 7.32l-7.32 5.12z"/><path d="M210.35 217.17l-18.3-10.98c-2.2-.74-3.66 0-4.4 2.18l-5.1 8.8-10.26.72c-2.2 0-2.94 2.2-2.94 3.66v1.46c0 6.6 1.47 14.64 4.4 23.43-6.6 6.58-11.72 13.16-16.1 20.48l-.74 1.47 2.2 2.93 8.04 6.58-.73 11c0 1.46.73 2.2 2.2 2.92 6.6 2.93 13.9 5.12 23.42 5.12 1.46 6.58 5.12 13.18 11.7 19.76l4.4.73 9.5-6.6 9.53 3.67 4.4-.73c4.38-4.4 6.58-11.7 8.04-20.5l17.57-2.18 2.18-3.67v-.73l-1.46-10.25 7.3-7.32.75-2.2v-2.18c-4.4-6.6-10.25-12.46-18.3-16.84 3.66-6.58 5.85-13.16 5.85-19.02l-.73-3.66-2.2-2.2-8.78-3.66-4.4-10.98c-.73-2.18-2.2-2.92-4.4-2.92-7.3 2.2-15.36 6.58-22.67 11.7zm-24.9 7.32l2.94-1.48 3.65-8.78 16.1 9.52 3.66.73 6.6-4.4 13.9-5.86 3.66 9.52 1.47 1.46 8.78 3.66c0 7.32-2.2 13.17-5.85 19.02l-.73 1.47.73 1.47 2.2 2.2 5.12 3.65 10.24 10.23-6.57 5.86-.73 2.2v.72l.73 8.78-14.64 1.46c-2.94 0-3.67.74-4.4 3.66-.73 7.32-2.93 12.44-5.12 17.56l-8.78-3.66h-2.93l-8.8 5.86c-5.84-5.86-8.04-11.7-8.04-16.1l-1.46-3.66h-2.2l-21.22-3.66.73-10.24-1.46-2.93-7.32-5.14c5.12-7.3 10.25-13.9 15.37-17.56l.73-2.92-.73-1.47-4.4-20.48 8.8-.73z"/><path d="M197.17 255.95c-1.46 4.4-.73 8.06 1.47 10.98 2.2 3.66 4.4 5.13 8.05 6.6l10.96-1.47c3.66-1.47 6.6-4.4 7.32-8.05.74-4.4.74-8.05-1.46-10.97-1.46-3.66-5.12-6.58-8.78-7.32l-10.98 1.48c-2.93 2.2-5.12 5.1-6.6 8.77zm6.6 8.06c-.74-2.2-1.48-3.65-.74-6.57l3.66-5.14 6.57-.74c2.2.73 4.4 1.47 5.13 4.4l.73 3.65c0 3.67-1.47 5.87-3.66 8.07h-6.6l-5.1-3.66z"/><path d="M203.03 261.08c-.74-1.47-2.2-2.93-3.66-1.47l-14.64 6.6c-1.46 1.47-2.2 2.2-.73 4.4 0 .72 1.46 1.46 3.66.72l14.63-6.58c.73-.73 1.46-1.47.73-3.66zM216.2 272.06c0-1.47-.73-2.93-2.93-2.93-1.46 0-2.93 1.46-2.93 2.93v17.56c0 1.47 1.47 2.93 3.66 2.93 1.47 0 2.93-1.46 2.93-2.93l-.73-17.56zM195.7 236.93l-.72 2.93h-3.66l9.5 9.5h4.4c1.47-2.18.74-3.65-.72-4.38l-8.8-8.05zM225.72 234c-.74-1.46-2.2-1.46-3.66 0l-8.8 10.98h3.67c1.47.73 1.47 1.47.73 2.93l8.06-9.5c2.2-1.47 2.2-2.93 0-4.4zM224.25 261.08c-1.46-.73-2.93-.73-4.4.73-1.45 1.47-1.45 2.2.74 3.67l4.38 2.93 10.25 3.66 2.93-2.2c.73-2.2-.73-2.93-2.2-3.66l-8.05-2.93-3.65-2.2z"/><path fill="#FFCDDE" d="M270.36 378.18c-.73 5.85 1.46 14.64 5.85 25.62-8.04 6.58-13.9 13.16-17.55 21.22l10.24 7.32-.74 12.44c7.32 3.66 16.1 5.12 24.15 5.12 0 6.6 3.67 13.17 11.73 21.22l10.24-8.05 12.44 5.13c2.2-2.93 4.4-7.32 5.13-13.17l2.2-8.8 19.76-2.18-1.47-11.7 8.05-8.8c-2.93-5.1-7.32-10.25-13.18-13.9l-5.85-3.67c2.93-4.4 5.12-9.5 5.12-16.1v-7.3l-10.24-4.4-4.4-12.45c-5.12 1.48-10.97 3.66-16.1 7.32l-8.05 5.13-12.44-8.05-7.32-4.4-5.12 11.72-12.44.73z"/><path d="M280.6 374.52h-10.97c-1.47 0-2.93 2.2-2.93 3.66v.73c0 5.86 1.46 13.92 5.12 24.16-7.32 6.58-12.44 13.17-16.83 20.5V425l1.45 2.92 8.78 5.86-.73 10.98c0 2.2.73 2.93 1.47 3.66 7.32 2.93 14.64 5.1 24.15 5.1 1.46 6.6 5.12 13.2 11.7 19.78l4.4.73 9.5-6.6 8.8 3.67 4.4-.73c4.38-4.4 6.58-11.72 8.04-20.5l17.57-2.2 2.92-3.65-1.46-10.98 7.3-7.32.74-2.2v-1.46c-5.12-8.06-10.98-13.92-18.3-17.57 3.66-6.6 5.12-13.18 5.12-18.3l-.73-4.4-1.46-2.92-9.52-2.92-4.4-11.7c0-1.47-2.18-2.2-3.65-2.2-7.32 2.2-14.64 5.85-23.42 11.7l-11.7-7.32-5.86-3.65c-2.2-.73-3.66 0-5.12 1.47l-4.4 10.25zm-.73 29.28l-.73-1.48-5.12-20.48 8.78-.73 3.66-2.2 3.66-8.04 15.37 9.5 4.38.75 6.6-4.4 13.16-5.84 3.66 9.5 2.2 1.48 8.05 3.66c0 7.32-1.47 13.17-5.13 19.03l-.73 1.46v1.46l2.2 2.2 5.1 3.64 11 9.53-6.6 6.6c-.73.7-.73 2.17-.73 2.9v.74l.73 8.05-15.37 1.46c-2.2 0-3.66 1.47-3.66 3.66-1.46 7.32-2.93 12.45-5.85 16.84l-8.05-3.66-3.66.73-8.05 5.86c-5.85-6.58-8.78-11.7-8.78-16.1l-.73-3.66h-2.92l-20.5-3.66.73-10.24-2.2-2.92-7.3-5.14c3.65-5.84 8.77-11.7 14.63-17.56l2.2-2.92z"/><path d="M301.83 403.8c-3.66 2.2-6.6 4.4-6.6 8.78-1.45 4.38-.72 8.04.74 10.97 2.93 3.66 5.86 5.86 8.78 6.6 4.4 1.45 8.06.72 10.98-1.47l7.32-8.06c.73-4.4 0-8.04-2.2-10.98-1.46-3.66-4.4-5.84-8.05-7.32l-10.97 1.48zm-1.46 10.24l4.38-5.12 5.86-.73c2.94 0 4.4 1.44 5.87 3.64l.73 4.4c0 2.92-1.47 5.85-4.4 8.04h-6.58c-2.2 0-3.66-2.2-5.13-3.66-1.47-2.18-1.47-5.1-.73-6.58z"/><path d="M280.6 426.48c.74 1.46 2.93 2.2 4.4 1.46l14.63-5.85c1.47-1.48 2.2-2.94 1.47-4.4-1.47-2.2-2.2-2.92-3.66-1.47l-14.64 6.6c-2.2.72-2.2 2.2-2.2 3.65zM313.54 429.4c0-2.2-.73-3.65-2.93-3.65-1.45 0-2.2 1.46-2.2 3.66v16.84c0 1.47 1.48 2.2 2.94 2.2 2.2 0 2.93-.73 2.93-2.2l-.73-16.83zM292.3 392.82c-.72-1.47-2.18-1.47-3.64 0-.74.73-.74 2.2 0 3.66l10.24 9.5h3.66c1.47-1.45 1.47-2.92 0-4.38l-10.25-8.78zM323.8 390.62l-3.68.73-10.24 9.52c-.73 1.45-.73 2.93.73 5.1l3.67-.7L324.52 395c.73-1.45.73-2.92-.73-4.38zM321.6 417.7l-4.4.74c-.73.72-.73 2.18.73 3.65l5.12 2.92 9.52 3.66 2.93-2.2c.73-2.2 0-3.66-1.47-3.66-2.93-.73-5.85-1.46-8.78-2.93l-3.66-2.2z"/><path fill="#FFCDDE" d="M102.03 365.73c-2.93-2.18-8.05-3.66-13.9-3.66h-8.8l-2.18-13.9-2.2-5.85-11.7 2.93-10.25-6.6c-8.06 6.6-12.44 13.92-13.9 21.24-5.13-2.2-11-3.67-16.84-2.94l-7.32.73L12 367.92.3 375.25c2.93 7.32 8.78 14.64 15.37 21.96-2.93 5.12-5.85 11.72-8.78 21.24l11.7 3.65 2.2 11.7c6.58 0 14.63-3.66 24.88-8.78 7.3 6.58 15.37 11.7 23.42 13.9l5.85-10.98 13.18-1.46c1.46-4.4 1.46-10.25 1.46-16.84l-.74-7.32c6.6-1.45 13.17-5.84 19.02-14.63l-8.78-9.52 2.93-12.45z"/><path d="M80.08 345.98l-2.2-5.13c-.73-2.2-2.93-2.92-4.4-2.2L64 341.6l-8.8-5.87c-1.45-1.46-2.92-1.46-4.38 0-5.86 5.13-10.98 11.7-13.9 19.76l-16.1-2.2-7.33.73-2.2 2.93-2.2 8.77-10.23 6.6c-1.47.72-2.2 1.46-2.2 2.93l.73 1.45c2.2 5.87 7.32 13.2 13.9 20.5-2.92 5.87-5.1 12.45-8.04 19.77v1.47c0 1.46.73 2.2 2.93 2.92l9.5 2.93 2.2 10.96c.74 2.2 1.47 2.93 3.67 2.2 5.12 0 13.9-2.93 23.4-8.04 8.06 5.84 15.38 10.24 22.7 13.16l5.13-2.18 4.4-8.8 10.97-1.46 3.66-2.2 1.45-14.63-.74-9.5c6.6-2.2 13.2-7.32 19.04-13.9v-2.2l-.73-2.2-7.3-8.8 2.2-9.5v-1.47l-1.48-2.92c-5.12-2.9-12.43-4.4-21.95-4.4L80.07 346zm-4.4 16.1c.74 2.2 2.2 3.65 4.4 3.65l17.56 2.2-2.2 8.78v1.48l.73 2.2 7.32 7.3c-5.86 6.6-11 10.26-15.37 11l-2.2 1.46-.73 2.2.73 10.96-1.46 10.25-9.52.73-3.66 2.2-3.67 7.32c-6.58-2.2-13.17-5.86-19.03-11.7-1.46-1.48-3.66-1.48-4.4 0-8.77 3.65-15.35 6.58-19.75 7.3l-2.2-8.04-2.2-2.92-8.77-2.93c2.2-7.32 5.12-12.44 8.05-16.83v-1.46l-.73-2.2c-5.86-5.84-9.52-12.43-13.18-18.3l8.05-5.1 2.2-2.2 2.2-8.8c6.58-.7 13.17-.7 19.75 2.95h2.93l2.2-2.94c1.46-5.85 5.12-11.7 10.24-16.82l7.3 4.4 3.67.73 8.8-2.2 2.9 15.37z"/><path d="M44.94 378.9c-3.65 2.94-5.85 5.86-5.85 10.26 0 3.66 0 7.32 2.92 10.98 2.92 2.92 5.85 4.4 9.5 5.12 4.4.72 7.33-.73 11-2.94 2.92-2.18 5.1-5.84 5.1-9.5v-2.2c0-3.66-.72-6.6-2.9-8.78-2.2-3.66-5.14-5.13-9.53-5.13-3.67-.72-7.33 0-10.26 2.2zm16.84 12.45l-2.93 5.86c-2.2 1.47-3.66 2.94-6.6 2.2-2.9-.73-4.37-1.46-5.1-2.92-2.2-2.2-2.2-4.4-2.2-7.32 0-1.47 1.46-3.66 3.65-5.13 1.47-1.46 3.66-2.2 5.86-2.2 2.2.74 4.4 2.2 5.85 3.67l1.48 5.85z"/><path d="M60.3 398.67h-4.38c-1.46.73-1.46 1.47-.73 3.65l8.77 13.2c0 1.44 2.2 2.18 3.66 1.44 2.2-2.18 2.2-3.66.73-4.38l-8.05-13.9zM85.2 383.3c0-1.46-1.47-2.93-2.93-2.2l-16.83 2.93c-2.2 0-2.93 1.47-2.93 2.93.74 2.2 1.47 2.93 3.67 2.2l16.1-2.93c2.93 0 3.66-.73 2.93-2.93zM43.48 398.67c-2.2-1.46-2.92-1.46-4.4.73l-6.58 10.24c-1.46.74-1.46 2.2-.73 3.66l4.4.74 8.77-11.72c.74-2.18 0-3.65-1.46-3.65zM30.3 378.18c-2.2-.73-3.65 0-4.38 1.46-1.47.73-1.47 2.2.73 4.4l11.7 7.3c1.47 1.48 2.94.74 4.4-1.45.73-.74.73-2.2-1.47-3.67l-10.97-8.05zM59.58 362.07c-2.2 0-3.66.74-3.66 2.93L53 378.18c-.74.73-.74 2.2 1.46 3.66 1.46.73 2.2 0 3.66-1.47 2.2-5.12 4.4-9.5 4.4-14.64 0-2.18-.74-3.66-2.94-3.66z"/><path fill="#D96038" d="M37.63 455.03c-3.66-1.48-7.32-3.66-13.18-6.6l-8.05-2.2-3.66 12.46L.3 460.86c.73 5.86 2.93 14.64 8.78 24.16-6.58 7.32-10.97 15.37-13.9 23.4l10.98 5.88.73 13.18 24.87.73c1.47 6.6 6.6 13.18 15.37 19.77l8.78-9.52 12.44 2.93c2.2-2.93 2.93-8.05 3.66-13.9l.74-8.8c6.58 0 13.17-1.44 19.02-4.37l-2.93-11.7 7.32-10.25c-4.38-4.4-9.5-8.05-14.63-10.98l-7.32-2.93c2.93-5.12 3.66-10.24 3.66-16.83l-.73-7.3-10.98-2.93-6.6-10.98c-8.04 2.9-15.35 8.04-21.95 14.63z"/><path d="M9.82 455.03l-10.25 2.2c-1.46-.02-2.93 1.46-2.93 3.64.73 5.86 2.93 13.9 8.78 24.16-6.58 7.32-10.97 14.64-13.17 21.96l-.73 1.44c0 2.2.73 2.94 2.2 2.94l8.78 5.86.73 10.97c0 .75 1.46 2.2 2.93 2.2l24.15 2.2c2.2 5.86 7.32 12.44 14.64 18.3h4.4l8.05-8.78 10.23 2.92c1.47.73 2.93 0 3.66-1.46 2.92-3.66 4.38-10.98 5.1-21.95l16.85-4.4 2.2-2.92v-.72l-2.94-10.25 6.6-8.05.73-2.93-.73-2.2c-5.85-5.85-12.44-10.98-20.5-13.9l2.94-13.9-1.47-8.8-2.2-2.92-9.5-2.2-5.86-10.24c-.72-1.47-2.2-2.94-4.38-1.47-7.32 2.2-13.9 7.32-21.22 13.9l-12.45-5.85-7.32-2.2c-1.46 0-3.66 0-4.4 2.2l-2.9 10.25zm3.66 7.32l2.2-2.93 2.92-8.05c8.05 2.2 13.17 4.4 16.83 7.32l4.4-.75c5.1-5.85 11.7-10.24 18.3-13.17l5.1 8.77 2.2 1.48 8.06 2.2.72 5.12c0 5.85-1.46 10.97-2.93 14.63l-.74 1.46.73 2.2 2.2 1.46 5.1 2.2 12.45 8.78-5.12 7.32-.73 2.2v.73l2.2 8.05-14.64 3.66c-2.93 0-3.66 1.46-3.66 3.65v2.2c0 5.84-1.47 11.7-2.93 16.1l-9.52-2.2c-.73 0-2.2 0-2.92 1.46l-7.32 6.6c-5.84-5.87-9.5-10.26-10.97-15.38l-1.46-2.2-2.2-.73H10.55l-.73-10.24-2.2-2.92-8.05-4.4c3.66-8.04 7.32-13.9 12.44-19.02l.74-2.93v-1.46c-4.4-8.06-6.58-14.64-8.05-20.5l8.78-.72z"/><path d="M44.94 479.17c-3.65 0-7.3 1.47-9.5 5.13-2.93 2.2-4.4 5.85-4.4 9.5 0 4.4 1.47 7.33 4.4 10.26 2.2 2.93 5.85 4.4 10.24 4.4 3.66 0 7.32-1.47 10.24-4.4 2.93-2.93 4.4-6.6 4.4-10.25 0-4.38-1.46-7.3-4.4-10.23-2.92-2.93-6.58-4.4-10.98-4.4zm-5.85 8.8c2.2-2.2 4.38-2.94 5.84-2.94 2.94 0 4.4.73 6.6 2.93 1.46 1.46 2.92 3.66 2.92 5.85l-2.93 5.87c-1.46 2.2-2.93 2.93-5.85 2.93-2.2 0-4.4-.74-6.6-2.93-1.45-1.47-2.18-3.66-2.18-5.86 0-2.18.73-4.38 2.2-5.84z"/><path d="M36.16 495.28l-4.4-.73-13.16 8.05c-1.46 1.46-1.46 3.66-.73 4.4.73 1.45 2.2 2.18 4.4.72l13.16-8.05c1.47-.73 2.2-2.93.73-4.4zM50.8 505.52l-2.2 2.2-3.66-2.2 2.94 16.83c0 2.2.72 2.94 2.92 2.94l2.2-3.67-2.2-16.1zM24.45 471.85H20.8c-1.47 1.47-1.47 2.2 0 3.66l5.85 5.15 5.12 3.65 4.4-1.47c1.46-1.46.73-2.92-.74-3.66l-10.98-7.32zM55.2 465.27l-4.4.74-7.32 11.7c-1.46 1.47-.73 2.94.73 3.67 1.48 1.46 2.94 1.46 3.67-.73l8.05-10.97c.73-1.48.73-2.94-.73-4.4zM56.66 492.35c-1.47-.73-2.93-.73-4.4 1.46 0 1.48 0 2.94 1.47 3.67l5.12 2.2 10.25 2.2c2.2 0 2.93-1.47 2.93-2.93 0-2.2-.74-2.93-2.93-2.93l-8.78-2.2-3.66-1.45z"/><path fill="#D96038" d="M234.5-4.6l-10.98-.72L214-15.55c-3.65 2.93-8.05 6.6-12.43 12.44L195.7 4.2 181.8.54l-8.05-1.47-1.46 12.44-11.72 5.14c2.2 5.85 5.86 13.17 13.17 21.95-4.4 8.77-7.3 17.56-8.78 25.6l11.7 3.67 3.67 13.17c8.05 0 16.83-1.46 24.15-4.4 2.92 5.87 9.5 11.72 18.3 16.84l7.3-10.97h13.18c2.2-5.12 2.2-12.44 0-22.68 5.86-2.2 11.7-4.4 17.56-8.05L255 40.8l5.84-11c-5.12-4.38-10.24-7.3-16.83-8.77l-7.3-.73c2.2-9.52 1.46-17.57-2.2-24.9z"/><path d="M225.72-8.97l-8.06-8.8h-5.12C206.7-14.1 200.1-8.24 194.98-.2l-13.9-2.92-7.33-1.47c-2.2 0-3.66 1.48-3.66 2.94l-1.47 10.98-9.5 3.66c-1.48.73-2.2 2.2-2.2 3.66v.73c2.2 6.6 5.84 13.9 13.16 21.96-4.4 8.78-7.33 16.1-8.8 24.88 0 2.2.74 3.67 2.94 3.67l9.5 3.66 2.94 10.25 3.66 2.92 23.42-3.66c3.66 5.86 9.5 10.98 17.56 15.38l4.4-.74 6.58-9.5h10.98l3.66-2.2.73-10.25-.73-10.98c8.05-3.66 13.9-5.86 16.1-8.8l1.46-2.18v-2.2l-5.12-8.78 4.4-9.52.72-1.47-1.46-2.9c-6.58-5.87-13.9-9.53-22.68-10.26l.73-5.86-1.48-11.7-2.2-5.13c-.73-.73-1.46-2.2-2.92-2.2l-8.78-.72zm-2.93 7.3l9.5.74 1.47 12.45-.73 7.3v1.48l.73 2.2c1.46.73 2.2 1.46 2.92 1.46l5.85.73c5.12 1.45 9.5 2.92 13.18 6.58l-3.67 7.32-.73 2.2.73 1.46 3.67 7.3-13.9 6.6c-1.47.73-2.2 2.2-2.2 3.66v.73l.73 13.18v5.12h-9.52l-2.93.73-5.84 8.78c-6.6-3.66-11.7-8.05-13.9-13.17l-1.47-2.2-3.67.72c-5.86 2.2-13.17 3.66-19.76 3.66l-2.93-10.24-2.93-2.93-8.04-2.2c.73-6.57 4.4-13.9 8.05-21.2v-3.67c-5.84-7.32-9.5-13.17-11.7-18.3l8.05-3.65 2.2-2.93 1.46-8.8L195 7.86c1.46 0 2.93 0 4.4-2.2l3.65-5.1c3.66-4.4 7.3-8.07 10.97-11l6.6 8.06 2.2.74z"/><path d="M197.17 42.98c1.47 3.66 2.93 6.6 5.86 9.52 3.66 2.2 7.32 2.93 10.98 2.2 4.4-1.47 7.32-2.93 9.52-6.6 2.2-2.92 2.93-6.57 2.2-10.97-.74-2.92-2.93-5.85-6.6-8.78-2.92-2.2-6.58-2.94-10.97-2.2-3.66 1.47-6.6 3.66-8.78 6.58-2.2 2.94-2.93 6.6-2.2 10.25zm7.32-7.3c.72-2.2 2.2-2.95 5.1-3.67l6.6 1.47c2.2 1.47 2.93 2.92 3.66 5.13l.73 2.2c0 4.38-2.94 7.3-7.33 8.04l-6.58-.73-3.67-5.85c0-2.2 0-4.38 1.46-6.58z"/><path d="M203.03 43.7c-1.47-1.44-2.93-1.44-4.4 0l-11.7 11c-.73 1.46-.73 2.92 0 4.4 1.46 1.45 2.92 1.45 4.4 0l10.96-11c2.2-1.46 2.2-2.92.73-4.4zM224.25 65.67L218.4 50.3c.73 1.47 0 2.93-1.47 2.93-1.46.73-2.93.73-3.66-1.46l5.86 16.1c0 2.2 2.2 2.2 3.66 2.2 2.18-1.47 2.92-2.2 1.45-4.4zM186.93 22.5l-4.4.73c-.73.73-.73 2.92.74 4.4l13.17 5.84c2.2 0 2.93 0 3.66-2.2.73-1.46.73-2.92-1.46-3.65-6.6-2.2-10.25-3.66-11.7-5.13zM215.47 10.78c-2.2-1.46-3.66-.73-3.66 1.47l-5.84 12.44c0 2.2 0 3.65 2.2 4.38 1.45.73 2.2 0 3.65-1.46l5.13-13.18c.73-1.46 0-2.92-1.46-3.66zM222.06 37.13c-1.47-.74-3.66 0-3.66 1.47-.73 2.2 0 3.66 2.2 3.66l5.12 1.45h10.24c2.2-.72 2.93-1.44 2.93-2.9-.74-2.2-2.2-3.67-3.67-2.93h-8.78l-4.4-.74z"/><path fill="#D96038" d="M211.8 446.24l-12.43 7.3c3.66 7.33 8.78 14.65 16.1 21.97-3.66 4.4-7.32 11-9.5 20.5l11.7 3.67 2.2 12.43c5.85-.72 13.9-3.66 24.88-8.77 7.3 6.6 14.63 11.7 23.4 13.9L273.3 507l13.16-.74c1.47-5.86 2.2-10.98 2.2-17.57l-.73-8.06c6.58-.73 13.17-5.13 19.76-13.9l-8.8-9.53 2.93-12.42c-2.93-2.2-8.05-3.66-13.9-4.4h-8.8l-2.18-13.17-2.93-5.84-11.7 2.92-8.8-7.32c-8.77 6.6-13.16 13.9-14.63 21.96-5.86-2.93-11-4.4-16.84-3.66H214l-2.2 10.98z"/><path d="M195.7 453.56l.74.73c2.93 6.57 7.32 13.9 13.9 21.2l-5.85 12.46-2.2 7.32v.73c0 1.47.73 2.94 2.2 2.94l9.5 3.66 2.2 10.24c.73 2.2 1.46 2.92 4.4 2.92 7.3-.72 15.36-3.65 23.4-8.04 7.33 5.86 14.65 10.24 22.7 13.9l4.4-2.2 5.1-8.77 11-.73 2.92-2.93 2.2-15.38-.74-8.8c7.32-2.18 13.18-6.57 19.03-13.9l.74-2.2-1.46-2.2-7.32-8.76 2.93-9.52v-1.46l-2.2-2.93c-4.4-2.93-11.72-5.12-20.5-5.12-2.2-9.52-2.93-14.64-5.12-16.84-.73-1.46-2.2-2.94-4.4-2.2l-10.24 2.92-8.05-6.58c-1.47-.74-2.94-.74-3.67 0-7.32 5.13-11.7 11.7-14.64 19.76l-16.1-2.2H214c-1.46.74-2.2 1.47-2.92 3.66l-2.93 8.8-10.24 5.84c-.73.73-2.2 1.47-2.2 3.66zm44.65-11.7l2.2-2.94c1.46-5.85 5.12-11.7 10.98-16.83l7.3 5.1 2.95.74 8.78-2.2 2.92 14.65c0 2.92 1.47 3.65 3.66 3.65l18.3 2.92-2.2 8.8V459.4l7.32 7.3c-5.12 6.6-10.98 10.26-15.37 10.26l-2.93 1.46v2.93l.73 10.25-1.47 10.98-10.24.73c-.75 0-2.2.73-2.94 1.46l-4.4 8.78-19.02-13.18-3.66-.73-20.5 8.05-1.46-8.78-2.92-2.93-8.06-2.92c2.93-7.32 5.13-12.44 7.32-16.1l.74-1.47-.74-2.9c-5.85-5.87-9.5-11.73-13.17-17.57l9.5-5.13 1.47-2.2 2.2-8.78c6.58-1.46 12.44 0 19.02 2.93h3.65z"/><path d="M263.77 457.2c-2.2-2.9-5.85-4.37-9.5-4.37-4.4 0-7.33 1.46-10.26 4.38-3.65 2.95-4.38 5.87-4.38 10.26 0 4.4.73 7.32 4.4 9.52 2.92 3.66 5.84 4.4 10.24 4.4 3.66 0 7.32-.74 9.5-4.4 2.94-2.2 4.4-5.13 4.4-9.52 0-4.4-1.46-7.3-4.4-10.25zm-16.1 3.68c2.2-1.46 3.66-2.2 6.6-2.2 2.18 0 4.38.74 5.1 2.2 2.2 2.2 2.94 3.65 2.94 6.58 0 2.2-.72 4.4-2.92 5.86-.73 2.2-2.93 2.2-5.12 2.2-2.93 0-4.4 0-6.6-2.2-1.45-1.47-2.92-3.65-2.92-5.86 0-2.93 1.47-4.4 2.93-6.58z"/><path d="M258.65 477.7c0-2.2-1.47-2.2-3.66-.72-1.47 1.46-1.47 2.2-.74 3.66l8.05 13.17c.74 2.2 2.93 2.2 4.4 1.48 1.46-1.47 2.2-2.2.73-3.66l-8.78-13.9zM268.16 464.53c0 2.2-.73 3.67-2.93 3.67l17.57-2.2c1.46-.73 2.2-1.47 1.46-3.65 0-1.48-1.46-2.94-3.65-2.94l-16.1 2.95 3.66 2.18zM243.28 476.98c-2.2-1.47-3.66-1.47-4.4.73l-7.3 10.26c-1.47.73-2.2 2.2-.74 3.66l4.4.73c2.92-2.93 5.84-6.6 8.77-11.7.74-1.48.74-2.94-.72-3.67zM229.38 457.2c-1.47-1.44-2.93-1.44-3.66 0-1.47 2.22-1.47 3.67 0 4.4l11.7 8.07c2.2.73 2.93.73 4.4-1.47 1.46-1.47.73-2.2-1.47-3.67l-10.97-7.3zM258.65 440.4c-1.47 0-2.93 1.45-2.93 3.65 0 3.66-.73 8.05-3.66 11.7-.73 2.2-.73 3.67 1.47 4.4 1.46.73 3.65.73 4.4-1.46 2.2-5.15 3.65-10.26 4.38-14.65 0-1.47-1.46-2.93-3.65-3.66z"/><path fill="#D96038" d="M-4.82 53.23c0 5.86 2.2 13.18 7.32 21.23-5.86 3.66-10.25 8.05-14.64 13.9l8.05 8.8-1.45 11.7 19.03 2.92 7.3-1.46c0 9.5 3.67 17.56 8.8 22.7l10.98-2.94 11.7 7.32 8.05-15.37 3.68-8.05 22.68-2.2-2.2-12.44L94 90.55c-2.2-2.92-5.85-6.58-11.7-10.97l-8.06-5.86 1.46-19.03-.73-8.06h-11.7L55.9 35.66c-8.78 2.2-16.1 5.87-22.68 11.7-2.93-2.9-6.6-6.57-13.18-8.76l-8.78-1.47-4.4 12.44-11.7 3.66z"/><path d="M64.7 42.98l-5.85-9.5c-.73-.75-2.93-1.47-3.66-1.47-7.33 1.47-13.92 5.13-21.96 10.26-2.93-2.93-7.32-5.13-13.9-7.32L12 33.47c-2.18 0-3.65 0-4.38 2.2L4.7 46.63l-10.25 2.93-2.93 2.93v1.46c0 6.6 2.2 12.45 6.6 19.77l-9.53 8.05-3.67 4.4-.73 2.18.73 2.2 7.32 7.3-1.46 10.26v.73c0 1.47.72 2.93 2.9 2.93 8.06 3.66 16.12 4.4 23.43 3.66 2.2 8.05 5.13 14.64 9.52 20.5l3.66.73 9.52-2.2 10.25 5.86 5.12-.74c3.65-4.4 7.3-11.72 11.7-21.96l20.5-2.2c2.2-.73 2.92-2.2 2.92-3.66v-1.46l-2.2-9.52 8.05-7.3 1.47-2.95-.73-2.2c-3.65-5.1-10.24-10.97-19.02-16.1l1.46-15.36-.73-10.98c0-1.47-1.45-2.94-3.65-2.94H64.7zm-31.46 8.05l2.2-1.46c5.85-4.4 11.7-7.3 19.02-8.78l5.85 8.05 2.94 1.45h8.05l.73 6.6L70.56 73v.72l1.47 3.66 16.83 13.17-6.6 5.86-1.45 2.94 1.47 8.78-18.3 2.2c-1.46 0-3.66 0-3.66 2.2l-2.18 6.58-7.32 13.17-8.05-5.12-3.66-.73-8.06 2.2c-4.4-5.13-6.6-11-6.6-18.3l-2.18-2.2-2.93-.73-20.5-1.48.74-8.78-.73-2.93-6.6-5.84L4.7 77.38l1.46-2.92-.74-2.2C1.76 66.4-.43 60.55-1.16 55.4l9.5-2.2 2.2-2.92 2.94-9.5c8.78 2.18 14.63 5.1 16.83 8.77l2.94 1.46z"/><path d="M24.45 79.58c-1.46 3.66-.73 7.32 1.47 10.98 1.46 2.93 4.4 5.86 8.05 6.6l10.97-1.48c3.66-1.46 5.86-4.4 7.32-8.78.74-3.66 0-7.32-1.46-10.98-2.2-2.93-5.12-5.12-8.78-5.85l-10.98.73c-2.93 1.46-5.85 4.4-6.6 8.78zm9.52-3.66l6.6-.73 5.1 3.65c1.47 2.93 1.47 5.12.74 7.32l-3.65 4.4L35.43 92l-5.12-4.4c0-1.45-.72-2.18-.72-4.38 0-2.93 1.46-5.85 4.4-7.32z"/><path d="M55.92 59.09c-1.46-1.48-2.92-1.48-3.66.72l-7.32 13.9c-1.46 1.47-.72 3.66.74 3.66 2.2 1.47 2.92 1.47 3.66-.73l8.05-13.9c.72-2.2.72-2.93-1.48-3.66zM23 59.09h-4.4c-1.46 1.45-1.46 2.9 0 4.38l9.5 13.17c-.72-1.46-.72-2.93 1.48-4.4l3.66.74L23 59.1zM54.46 86.17c-2.2 0-2.93.73-2.93 2.2 0 2.18.73 3.65 2.93 3.65L66.9 93.5c1.47 0 2.93 0 3.66-2.2.73-1.47.73-2.94-1.46-3.67l-14.64-1.46zM44.94 93.5c-1.46 0-2.2.7-2.92 2.18l-.73 14.64c0 1.46 0 2.2 2.18 2.92 2.2 0 3.66-1.46 3.66-2.92l.74-13.9-.74-2.2-2.2-.73zM31.77 86.9c0-1.46-1.46-2.2-2.92-2.2h-5.13c-4.4.74-7.32 1.47-10.24 3.66-1.47.74-1.47 1.47-.74 3.66.74 1.47 2.2 2.2 3.66 1.47 2.2-1.48 5.13-2.95 8.05-2.95l5.13-.72c1.46 0 2.2-.73 2.2-2.93z"/><path fill="#D96038" d="M246.94 359.15l-4.4-7.32-10.97 4.4-10.98-6.6c-6.6 5.12-12.45 11.72-16.1 19.76l-15.38-2.2-8.78 1.46 2.2 13.18-10.25 8.05c1.45 5.1 6.57 10.97 15.35 16.82-2.92 5.86-5.85 11.72-7.3 18.3l10.97 4.4 3.65 11.7c9.52-.73 18.3-3.66 24.16-8.78 4.4 8.05 10.24 13.9 17.56 16.83l8.77-6.6 13.18 1.48 2.2-18.3-1.47-8.8c5.85-1.44 13.17-5.83 20.5-10.97l-7.33-10.24 5.12-11.7c-2.92-1.47-8.05-3.67-15.37-5.13l-9.5-2.2-5.86-17.55z"/><path d="M246.2 348.9l-5.1-.73-8.8 4.4-10.24-5.86c-.74-.72-2.2-.72-3.66 0-4.4 3.67-10.25 9.53-15.37 17.58l-15.37-.73-8.05 2.18-2.92 2.93v.73l1.46 10.97-8.05 6.6-1.47 2.92.73 1.45c2.2 5.13 6.6 10.98 13.9 16.1-2.92 5.85-5.85 11-6.58 16.83v.74c0 1.47.73 2.92 2.2 3.66l9.5 3.66 2.94 10.24c.73 1.47 2.2 2.2 3.66 2.2 8.05-.73 15.37-2.2 22.68-7.32 5.13 6.6 10.98 12.44 18.3 14.64h3.66l7.32-5.86 11.7 1.47 3.67-2.92 2.2-16.1-.73-9.52 18.3-10.24 1.46-2.94-.73-2.18-5.85-8.8 4.4-9.5v-1.47l-1.48-2.92c-3.66-2.92-11.7-5.12-24.15-8.05l-5.85-16.82-3.66-7.32zm-16.82 11h3.65l8.05-3.67c3.66 5.84 6.6 13.16 8.78 21.22 0 1.46.74 2.92 2.2 2.92l21.23 5.86-3.67 7.32-.73 2.2.73 1.46 5.12 7.33c-8.05 5.1-12.44 8.05-16.1 8.77-1.47 1.48-2.93 2.2-2.93 3.66l.73.74.73 10.98-1.46 10.97-9.5-.73h-2.94l-6.6 5.86c-6.57-2.2-10.97-7.32-14.63-13.9l-2.2-1.47h-2.92c-5.12 4.4-11.7 6.6-19.76 7.33l-2.2-8.05-2.2-2.93-8.04-2.93 6.6-13.9v-2.2l-1.48-2.93c-5.12-3.67-9.5-7.32-12.44-12.45l7.33-6.6 1.46-2.9-1.47-10.26 18.3.72 3.65.73 1.47-2.2c3.66-6.58 7.32-11.7 13.17-16.1l8.06 5.14z"/><path d="M212.54 391.35c-2.2 3.66-2.93 7.32-2.2 10.97 0 3.66 1.47 7.32 5.13 9.52 2.93 2.94 6.6 2.94 10.98 2.94 3.66-.74 6.6-2.93 9.5-5.86 2.2-2.93 2.94-6.6 2.94-10.25-1.47-4.4-2.94-7.32-5.86-9.5-3.66-2.94-7.32-3.67-10.98-2.94-4.4 0-6.6 2.2-9.52 5.12zm5.12 3.66c1.47-2.18 3.66-2.92 5.13-3.65 2.92 0 5.1 0 6.57 2.2l3.66 5.12-2.2 6.6-5.1 3.65-6.6-1.46c-1.47-1.48-3.66-3.66-3.66-5.86v-1.46l2.2-5.13z"/><path d="M230.1 370.86c-1.46-.73-2.92 0-2.92 2.2l-1.47 16.1c.02 1.46.75 2.2 2.94 2.92 1.47 0 2.93-.73 2.93-2.92l1.46-16.1c0-1.47-.73-2.2-2.92-2.2zM200.1 384.76c-1.46-.73-2.93-.73-3.66.74-.73 2.2-.73 3.66 1.47 4.4l13.9 7.3c-.72-.72-1.45-1.46 0-3.65 0-1.47 2.2-2.2 3.67-.73l-15.37-8.06zM257.2 394.28c0-1.46-1.48-2.93-2.94-2.93l-13.9 4.4c-2.2.73-2.93 1.46-1.47 3.65.72 1.47 1.45 2.2 3.65 1.47l11.7-3.66c1.47 0 2.94-.72 2.94-2.92zM238.9 408.2c-1.47-2.22-2.2-2.22-3.67-2.22-2.2 1.48-2.93 2.2-2.2 3.66l4.4 13.18c.73 2.2 2.2 2.93 3.66 2.2 2.18-.74 2.9-2.2 2.18-3.66l-4.4-13.17zM220.6 405.98c-1.47-1.45-2.94-2.18-4.4-1.45-.73 0-2.2 1.45-4.4 2.93l-8.04 7.32c-.73.73-.73 2.18.73 3.66h3.65l6.6-6.6 3.65-2.2c2.2 0 2.2-1.45 2.2-3.66z"/><path fill="#D96038" d="M253.53 192.3l-16.1-8.8-7.32-2.2c2.2-5.1 2.93-10.97 1.47-16.83l-2.2-7.32-10.97-1.46-8.05-10.98c-7.32 3.66-13.18 10.25-19.76 17.56-2.94-1.47-8.06-2.93-13.92-4.4l-8.05-1.46-2.2 12.45-11.7 3.66c.73 6.58 5.12 13.9 11.7 23.42-5.85 8.77-9.5 16.83-10.97 24.88l10.97 4.4 3.66 13.16 24.88-2.93c1.46 6.58 7.3 12.43 16.83 17.56l8.06-10.24 12.44 2.17c1.47-3.65 2.2-8.77 1.47-14.63l-.74-8.78 19.03-7.32-4.4-10.98 5.87-10.97z"/><path d="M234.5 159.35l-1.47-4.38-2.92-1.48-9.5-1.47-7.33-9.52-5.12-.72c-5.12 2.94-11.7 8.8-18.3 16.1l-13.17-3.65-7.32-1.47c-1.46-.73-2.93.73-4.4 2.93l-2.2 10.24-9.5 2.93c-1.46.73-2.2 2.2-2.2 3.66v.73c.74 5.12 4.4 13.17 10.98 22.7-5.12 8.04-8.78 16.08-10.24 24.14v.73l2.92 2.93 9.52 4.4 2.2 10.23 2.92 3.65 23.42-2.2c2.93 5.86 8.78 12.44 16.83 16.84 2.2.73 3.67.73 4.4-.75l7.32-9.5 10.25 2.2c1.46 0 2.93-1.47 3.66-2.94 1.46-2.9 2.2-7.3 2.2-13.9v-8.04c8.77-2.2 13.9-3.66 16.83-6.6l1.46-2.92-.73-1.46-3.67-9.52 5.12-8.78.73-2.2-1.46-2.2c-6.6-6.58-13.9-10.24-21.96-11.7l2.2-8.78-1.46-10.25zm-19.03-1.46c.73.72 2.2 1.45 2.93 1.45l8.05 1.46 2.2 8.8-2.2 10.24v1.47l.73 2.2c.73.74 1.46 1.47 2.2 1.47l6.58 1.46c4.4 1.47 8.05 4.4 12.44 7.32l-4.4 8.05v2.92l3.67 8.06c-5.12 2.92-10.24 4.4-14.64 5.12-2.2 0-3.66 2.2-3.66 3.66v.73l.74 9.5-.73 8.8-8.78-1.47c-1.47 0-2.94 0-3.67 1.46l-6.58 8.04c-6.6-5.12-10.98-9.5-12.44-13.9l-2.2-2.93h-2.18l-20.5 2.93-2.93-10.24-2.2-2.94-8.05-2.93c2.92-9.5 6.58-16.1 9.5-20.5l.74-2.18-.74-2.2-10.24-18.3 8.78-2.92 2.2-2.93 1.46-8.8 17.56 5.14c2.2.73 2.93.73 4.4-.73 5.12-6.57 10.24-10.97 16.1-15.37l5.85 8.06z"/><path d="M201.56 185.7c-4.4 1.46-8.05 2.93-9.5 5.86-2.2 2.92-3.67 6.58-2.94 10.24.73 4.4 2.2 7.32 5.86 10.24 2.93 2.2 6.6 2.93 10.97 2.2 3.66-.73 6.6-2.2 9.52-5.12 1.46-2.93 2.2-5.86 2.2-8.8v-2.18c0-3.66-2.2-7.32-5.86-9.5-2.92-2.2-5.85-3.67-10.24-2.94zm.73 5.86c2.2-.74 4.4 0 6.6 2.2l2.9 5.12-1.45 6.58-5.86 3.66-5.86-2.2-3.66-5.12c0-2.92.73-5.13 2.2-7.32.73-1.47 2.2-2.92 5.1-2.92z"/><path d="M194.25 202.54h-4.4l-11.7 10.24c-1.47.74-1.47 2.2-.74 3.66h4.4l11.7-9.52c2.2-1.46 2.2-2.2.75-4.38zM204.5 212.04l4.38 16.1c.73 2.2 1.47 2.2 3.66 2.2 2.2-.73 2.93-2.2 1.46-3.66l-3.65-16.1-2.2 2.94c-2.2.72-3.66 0-3.66-1.48zM180.34 180.58c-1.46-.74-2.93-.74-3.66 0-1.46 2.2-1.46 2.92 0 4.4 1.46 2.18 5.86 4.38 12.44 6.58 2.2 1.46 2.93.73 3.66-.74.73-2.2.73-3.66-1.46-3.66l-10.98-6.58zM209.6 170.33c-2.18-.73-3.65-.73-3.65 1.46l-6.58 12.44c-.73 2.2 0 2.92 1.46 3.66 1.46 1.46 2.93.73 3.66-.74l5.85-13.17c1.46-1.47.73-2.2-.74-3.67zM214 197.4c-1.46-1.45-2.92 0-3.65 1.48-.74 2.18 0 2.92 1.46 3.66l5.87 2.18 10.24.74 2.2-3.66c0-2.2-.72-2.92-2.92-2.92l-8.78-.74-4.4-.73z"/><path fill="#D96038" d="M335.5 191.56l-17.57-.74-8.78 1.47-7.32-12.46-5.86-6.58-9.5 8.05-11.72-4.38c-2.2 5.85-4.4 13.9-5.12 25.6-6.6 2.2-11.7 4.4-18.3 7.33l-6.6 4.4 5.87 10.97-5.86 11.7c5.86 5.87 12.44 10.98 20.5 13.92-2.93 5.85-2.2 14.63 1.46 24.15l13.17-2.2 8.05 9.5c5.86-2.92 10.98-8.05 16.1-17.56 5.86 3.66 12.45 5.85 19.03 6.58l3.66-10.97 11-4.4c-.74-6.58-2.2-12.43-5.86-17.56l-4.4-6.6c8.06-4.4 12.45-10.97 15.37-19.03l-7.3-7.3v-13.9z"/><path d="M298.9 171.8l-4.4-1.47-8.77 6.6-9.52-3.67c-2.18-.73-3.65 0-4.38 2.2-2.93 5.12-5.12 13.17-5.85 24.15-5.13 2.2-10.98 5.12-16.1 7.32l-7.33 5.12-1.46 2.2v2.2l5.86 8.78-5.86 9.5v2.2l.74 2.2c5.12 5.86 10.97 10.25 19.75 13.9l-1.46 6.6c0 5.13 1.47 11.7 2.94 16.83 1.46 2.2 2.93 2.93 4.4 2.2l10.97-2.2 7.33 8.05 4.4.73c5.1-2.2 9.5-7.32 15.36-15.37L322.3 275c2.2.72 3.66 0 4.4-2.2l2.2-9.53 10.23-3.66 2.2-3.65c-1.46-10.24-4.4-17.56-9.52-23.4 7.32-5.13 11.7-11.72 14.64-18.3v-1.47l-.73-2.2-6.6-6.6v-12.42c0-1.47-.72-3.66-2.9-3.66l-25.63.73-11.7-16.84zm-10.24 12.44l6.58-5.13 10.25 15.38c.72 1.47 2.9 2.2 4.38 1.47l7.32-.73 14.63-.74v13.18l6.6 6.58c-2.93 6.6-7.33 11.7-13.18 14.64-.73.73-1.47 2.2-1.47 2.93l.74 2.93 3.66 5.13 5.12 13.9-8.05 2.93-2.2 2.2-2.2 8.77-14.63-5.86c-2.2-.7-3.66-.7-5.13 1.47-2.93 5.86-7.32 10.98-12.44 13.9l-5.86-6.58-3.66-1.47-9.5 2.2-2.2-11.72c0-2.9.72-5.1 1.46-7.3V249.36l-2.93-2.2c-6.6-2.2-11.7-5.85-16.83-10.97l5.12-8.78v-3.66l-4.4-8.06c8.06-5.12 14.64-8.04 20.5-9.5l2.93-3.66c0-8.06 2.18-14.64 3.65-21.23l8.05 3.67 3.66-.73z"/><path d="M302.56 217.17c-3.66-1.47-7.32-2.93-10.98-1.47-3.66.74-7.3 2.93-8.78 5.86-2.2 2.93-2.2 5.86-2.2 8.05v2.94c.74 4.4 3.67 7.32 6.6 9.5l10.97 1.48c4.4-.73 7.32-2.93 8.78-5.86 2.2-3.66 2.93-7.32 2.2-10.98-.73-4.4-2.93-7.32-6.6-9.5zm-9.5 3.66l5.84 1.46 4.4 5.12-.74 6.58-5.85 4.4-6.58-1.47-3.66-5.86c0-2.2 0-3.65 1.47-6.58.73-1.48 2.92-2.94 5.12-3.67z"/><path d="M286.46 225.22c0-1.46-1.46-2.2-2.93-2.2h-16.1c-1.46 0-2.93.74-2.93 2.2 0 2.2 1.47 2.93 2.93 2.93h16.1c1.47 0 2.93-.73 2.93-2.93zM293.78 241.32c-1.46 1.47-2.2 2.2-4.4 1.47-1.46-.75-2.2-1.48-1.46-2.94l-7.3 14.64c-.75 2.2 0 2.93 2.18 3.65 1.46.73 2.93 0 3.66-1.46l7.32-15.38zM294.5 211.3l-5.1-11.7c0-1.46-1.48-2.2-2.94-2.2-2.2 0-2.93.74-2.2 2.93l4.4 13.9 4.4 1.47c2.18-1.46 2.18-2.92 1.45-4.4zM317.93 210.58c-.73-1.46-1.46-2.2-3.66-1.46l-12.44 5.12c-2.2 1.46-2.2 2.2-2.2 4.4 1.47 1.46 2.93 2.2 4.4 1.46l13.17-5.86c1.46-.72 2.2-1.46.73-3.66zM304.75 234c-1.46-1.46-2.2-1.46-4.38 0-1.47.73-1.47 2.2 0 3.66l9.5 10.98c1.47 1.47 2.94 1.47 3.67 0 2.2-1.46 2.2-2.93.73-3.66l-9.5-10.98z"/><path stroke-miterlimit="100" d="M364.58 579.58H7.42V7.42h357.16v572.16z" fill="none" stroke="#000" stroke-width="14.84"/></svg>