<svg xmlns="http://www.w3.org/2000/svg" height="100%" viewBox="0 0 372 587"><path fill="#fffaf0" d="M0 0h372v587H0z"/><path d="M102.22 125.76l-11.6 87.06c-7.75 65.14-10.97 116.73-10.97 154.78 0 1.93 1.3 2.57 2.58 2.57 1.93 0 2.58-.64 2.58-2.57 0-38.05 3.23-89 10.97-154.13l11.6-87.07c0-1.3-.64-2.58-1.92-3.22-1.94 0-3.23.64-3.23 2.58z"/><path fill="#9260C7" d="M122.2 329.55l-16.1 7.73 17.4 6.45c10.97 2.58 16.12 0 16.12-7.73-.64-7.75-6.44-9.67-17.4-6.45z"/><path d="M142.2 335.36c-.64-3.88-2.57-7.1-5.8-9.03-3.87-1.94-9.67-.65-18.06 2.58-3.87 1.3-7.73 3.23-13.54 6.46l-1.3 1.92 1.3 2.6 14.2 5.15c9.02 2.57 14.82 2.57 18.7 0 3.22-1.3 4.5-4.52 4.5-9.67zm-30.3 1.92c10.96-6.44 18.7-8.37 22.57-6.44 1.93 1.3 1.93 3.22 1.93 5.16.65 2.58 0 4.5-1.93 4.5-3.23 3.23-10.97 1.3-22.57-3.22z"/><path d="M105.45 335.36l-22.58.64c-1.93 0-3.22 1.28-3.22 2.58.65 1.93 1.93 3.23 3.22 2.57l23.22-.64c1.28 0 2.57-1.28 2.57-3.22 0-1.92-1.3-1.92-3.22-1.92z"/><path fill="#9260C7" d="M120.28 283.1c-4.5 3.23-9.67 7.1-13.54 12.26l18.05 1.3c11.6-.65 16.12-4.52 14.18-12.25-2.58-7.08-9.03-7.74-18.7-1.3z"/><path d="M133.82 276.66c-7.1-1.93-16.77 3.88-29.02 16.12l-.64 3.23 2.58 1.3c16.76 3.23 27.73 1.94 32.9-3.22 2.56-2.58 2.56-6.45 1.28-10.32-1.3-3.88-3.23-6.44-7.1-7.1zm-21.92 16.12c9.67-8.37 16.12-12.24 20.63-11.6l3.87 4.5c0 1.95 0 3.88-.64 5.18-3.23 3.22-10.97 3.86-23.86 1.92z"/><path d="M106.1 292.78l-21.94 7.1c-1.93 0-2.58 1.94-1.93 3.23.64 1.94 1.93 1.94 3.22 1.94l21.93-7.73c1.94-.64 2.58-1.3 1.94-3.22-.65-1.3-1.94-1.94-3.23-1.3z"/><path fill="#9260C7" d="M52.56 357.27l10.97-14.82-18.06 3.22c-11.6 2.58-15.48 7.73-10.96 14.2 4.52 7.08 10.33 6.44 18.06-2.6z"/><path d="M62.88 340.5l-14.83 1.3c-8.38 1.93-14.83 5.16-16.77 9.68-1.3 3.22-1.3 6.45 1.3 9.67 1.93 3.87 5.15 5.8 8.38 5.8 7.73 0 15.47-7.74 24.5-23.22v-1.92l-2.58-1.3zm-4.5 5.17c-7.1 10.96-12.9 16.12-17.42 16.12l-4.52-3.23-.64-3.23.64-1.94c1.94-3.86 9.03-6.44 21.93-7.73z"/><path d="M81.58 328.9l-20 11.6c-1.28 1.3-1.28 2.6-.63 3.23.64 1.94 1.93 1.94 3.87 1.3l20-12.26c1.28-.64 1.28-1.93 0-3.22 0-1.94-1.94-1.94-3.24-.64z"/><path fill="#9260C7" d="M46.76 280.54l18.06 1.93-10.96-14.83c-8.4-7.75-14.84-7.75-18.7-1.3-3.23 7.1.64 11.62 11.6 14.2z"/><path d="M57.73 269.57c-5.8-7.1-11.6-10.96-16.13-10.32-3.22 0-6.45 1.94-8.38 5.8-2.58 3.88-2.58 7.74-.65 10.97 3.87 5.8 14.84 9.03 32.25 8.4l1.93-1.3v-2.58c-1.93-3.22-5.16-7.1-9.02-10.97zm-16.13-5.15c4.5-.66 10.32 5.15 18.06 15.46-12.9-1.28-20-3.22-22.57-7.1l-.66-1.9 1.3-3.24c1.28-2.58 1.93-3.22 3.86-3.22z"/><path d="M62.24 280.54c-.65 1.93 0 3.22 1.3 3.87l20.62 10.97 3.87-1.3c.65-1.3 0-1.93-1.93-3.2l-20.64-11c-.64-.63-1.93-.63-3.22.67z"/><path fill="#9260C7" d="M52.56 241.2l17.42 5.8-8.4-16.13c-7.08-9.03-12.9-11.6-17.4-5.8-5.16 6.45-1.94 11.6 8.38 16.12z"/><path d="M65.46 232.17c-4.5-7.74-9.67-12.25-14.18-12.9-3.23 0-6.45 1.3-9.04 4.5-3.22 3.88-3.86 7.75-2.57 10.33 1.93 3.87 6.44 7.75 15.47 10.97l14.2 3.87 2.57-.64v-2.6l-6.44-13.53zm-21.28-1.3L46.1 227c1.95-1.93 3.24-2.57 4.53-1.93 4.5 0 9.67 6.45 14.83 17.42-12.25-2.6-19.35-6.46-20.63-10.33l-.65-1.3z"/><path d="M68.04 245.07c-1.3 1.28-1.3 2.57.65 3.23l17.4 14.82h3.87c1.3-1.3 1.3-2.58-.64-3.87L71.9 244.4c-1.92-.63-3.2-.63-3.86.67z"/><path fill="#9260C7" d="M106.73 253.45l17.42-3.87c10.96-4.5 14.2-9.03 9.67-15.48-4.5-5.8-10.32-5.15-17.4 3.87l-9.7 15.48z"/><path d="M126.73 227.65c-3.87.64-9.68 4.52-14.83 11.6l-7.74 12.9v2.6l2.58 1.28c18.06-1.94 27.73-6.45 30.95-13.54 1.93-3.24 1.28-6.46-1.3-9.7-2.58-3.85-5.8-5.15-9.67-5.15zm.64 5.16c1.94 0 3.23 1.3 4.52 2.6l1.28 3.86v1.93c-1.94 3.87-9.68 6.44-21.93 9.02 6.45-11.6 12.25-17.4 16.12-17.4z"/><path d="M105.45 250.87L86.1 264.42c-1.3 1.28-1.3 2.57-.65 3.86l3.87.65 18.7-13.54c1.94-1.3 1.94-1.95.65-3.88l-3.22-.66z"/><path fill="#9260C7" d="M113.83 205.08l17.4-1.94c11.62-2.57 14.84-7.1 11.62-13.54-3.22-7.1-9.67-6.45-18.06 1.3-4.52 3.86-7.75 8.37-10.97 14.18z"/><path d="M111.25 205.72l2.58 1.3c17.4.64 27.73-2.58 31.6-8.4 1.94-3.2 1.94-6.44 0-10.95-1.93-3.22-4.5-5.16-9.03-5.8-6.45-.65-14.83 7.1-25.15 21.28v2.57zm29.67-15.47l.64 3.22-.64 2.58c-1.94 3.22-9.68 5.8-22.57 6.45 7.73-10.32 13.54-15.48 18.05-15.48 1.94 0 3.22 1.3 4.52 3.23z"/><path d="M111.9 202.5l-20.64 10.97c-1.3.64-1.94 1.92-.65 3.22.66 1.92 1.95 1.92 3.88 1.28l20.64-10.96c1.3-1.3 1.3-1.94.65-3.88-.65-.64-1.94-1.3-3.87-.64z"/><path fill="#9260C7" d="M76.43 189.6l-8.4-16.12c-6.44-9.68-12.24-11.6-17.4-5.8-4.52 6.44-1.94 11.6 8.38 16.12l17.43 5.8z"/><path d="M75.78 192.18l2.58-1.28v-2.6c-6.45-16.1-12.9-24.5-20-26.42-3.86 0-7.1 1.28-9.67 4.5-2.6 3.23-3.23 6.45-2.6 10.32 1.95 3.88 6.47 7.75 15.5 10.97l14.18 4.5zm-24.5-18.7l1.28-3.87c1.94-1.92 3.23-2.57 5.16-2.57 3.87.65 9.03 7.1 14.2 18.7-12.26-3.22-19.35-6.45-20.64-10.96v-1.3z"/><path d="M74.5 187.67c-1.3 1.93-1.3 2.58 0 3.23l18.05 15.47 3.22-.65c1.3-1.28 1.3-2.58 0-3.23L78.37 187l-3.88.65z"/><path fill="#9260C7" d="M91.26 383.73l-9.03-16.13-5.16 17.4c-1.93 11.62 1.3 16.77 9.03 15.5 7.74-.65 9.03-6.46 5.16-16.77z"/><path d="M81.58 365.02l-1.93 1.28c-1.3 3.23-3.22 7.75-4.5 14.2-1.95 9.02-1.95 15.47 1.28 19.35 1.93 3.22 5.15 3.86 9.67 3.22 4.5 0 7.1-1.94 8.38-5.8 3.23-6.45 0-16.77-10.32-30.96 0-1.28-1.28-1.28-2.58-1.28zm4.52 33.53c-3.22 0-4.52-.64-5.16-1.93l-1.3-5.8c0-4.53 1.3-10.32 3.23-17.43 5.16 9.03 7.74 15.47 7.74 19.34v2.6c-1.28 1.93-2.57 2.57-4.5 3.2zM188 192.18c-1.94 0-2.6.64-2.6 1.94 3.24 96.74 3.88 195.4 1.95 296.65-.65 1.3 0 1.93 1.93 1.93l2.58-1.93c2.58-101.25 2.58-199.9-.64-296.65l-3.23-1.94z"/><path fill="#9260C7" d="M195.73 508.82l-6.45-18.05-7.74 16.77c-4.5 11.6-2.58 17.4 5.8 18.06 7.75.64 10.97-5.16 8.4-16.78z"/><path d="M191.86 489.48l-2.58-1.93-1.93 1.93-7.74 13.55c-3.22 9.02-3.86 15.47-1.93 20 1.3 3.22 4.52 4.5 9.67 5.14 3.87.66 7.1-1.28 9.68-4.5 3.22-3.88 3.22-10.32.64-19.36l-5.8-14.82zm-9.67 30.96l-.66-3.87c0-4.52 2.58-10.97 7.1-20.64 3.22 7.74 5.16 14.2 5.16 19.34l-1.3 5.8c-.64 1.95-1.93 1.95-5.15 1.95-1.94 0-3.23-.64-5.16-2.58z"/><path fill="#9260C7" d="M231.85 426.93c-5.16-5.8-10.97-3.87-17.42 6.45-2.57 5.16-5.15 10.3-7.1 16.12l16.78-5.8c10.33-5.16 12.9-10.97 7.75-16.77z"/><path d="M233.78 425.64c-3.22-3.22-6.45-4.52-9.67-3.88-6.44 1.3-12.9 10.33-19.34 27.1l.64 2.58 2.58.64 14.2-4.52c8.38-3.87 13.53-7.73 14.82-12.24.65-3.23 0-6.45-3.22-9.68zm-9.03.64c1.94 0 3.23.65 5.16 2.6l1.95 3.85v1.3c-1.3 4.5-7.74 7.73-20.64 11.6 5.17-11.6 9.68-18.06 13.55-19.35z"/><path d="M205.4 448.2l-16.76 15.48c-1.3 1.3-1.3 2.58-.65 3.88.64.64 2.57.64 3.86 0l16.77-16.12c1.93-1.3 1.93-2.58.65-3.23-1.3-1.28-1.94-1.28-3.88 0z"/><path fill="#9260C7" d="M151.88 454.66l18.06 2.57-10.97-14.82c-8.38-7.74-13.54-9.02-18.05-1.93-3.87 6.45 0 11.6 10.96 14.2z"/><path d="M163.5 443.7c-5.82-7.1-10.98-10.32-16.14-10.32-3.22 0-6.44 1.93-8.38 5.8-2.58 3.23-2.58 7.1-.64 10.32 2.58 3.87 7.73 7.1 16.76 8.4l14.84 1.92 2.58-1.3v-2.57l-9.03-12.26zm-20-1.94c1.3-2.58 2.57-3.22 3.87-3.22 5.15 0 10.96 5.15 17.4 16.12-12.25-1.3-19.98-3.22-21.92-7.74l-.65-1.93 1.3-3.24z"/><path d="M168 455.95c-1.3 1.94-1.3 2.58.65 3.22l20 12.26c1.92.64 3.2.64 3.2-.65 1.3-1.93.66-3.22-.63-3.87l-20-12.24c-1.93-.65-2.57 0-3.22 1.3z"/><path fill="#9260C7" d="M234.43 385c-4.52-5.8-10.32-4.5-17.42 5.17-3.2 5.16-5.8 9.68-8.37 16.13l17.4-5.17c10.98-4.5 13.56-10.3 8.4-16.12z"/><path d="M238.94 393.4c1.3-3.23.64-6.45-2.58-9.68-2.58-3.88-5.8-5.8-9.03-4.52-4.5.65-9.67 4.52-14.2 12.9L206.7 405c-.65 1.3-.65 1.93 0 3.22l2.58.65c17.4-3.87 27.08-9.02 29.66-15.47zm-5.16-1.3c-1.3 3.23-7.74 7.1-20.64 10.3 5.16-11.58 10.32-17.4 14.2-18.68 1.92 0 3.22 1.3 5.15 3.23l1.28 3.23v1.92z"/><path d="M207.34 403.7l-18.7 15.5c-.65.64-.65 1.92 0 3.22l3.22.64 18.7-14.84c1.3-1.28 1.3-1.92 0-3.22l-3.22-1.3z"/><path fill="#9260C7" d="M153.8 406.94l18.07 4.5c-3.22-6.44-6.45-11.6-9.67-15.47-7.1-9.02-12.9-10.32-18.06-3.87-4.5 6.45-1.3 10.97 9.67 14.84z"/><path d="M142.2 390.17c-2.57 3.87-3.22 7.1-1.28 10.32 2.58 7.08 12.9 10.95 30.3 12.9l2.6-.66v-2.58l-7.75-12.9c-5.16-7.1-10.32-11.6-14.83-11.6-3.88 0-6.45 1.3-9.04 4.5zm3.23 8.38v-1.28l.64-3.87c1.94-2.58 3.23-3.23 4.52-2.58 5.15 0 9.66 5.8 16.1 17.4-12.9-2.58-19.33-5.8-21.27-9.67z"/><path d="M169.3 409.52c-.65 1.28-.65 2.57.64 3.87l19.34 13.53 3.23-.65c1.3-1.94.65-3.22-.64-3.86l-18.7-12.9c-1.3-1.3-2.58-1.3-3.87 0z"/><path fill="#9260C7" d="M226.04 332.13c-5.8-4.52-11.6-1.94-15.48 8.38-2.58 5.82-3.87 11.62-5.16 17.43l15.48-8.4c9.68-7.08 11.6-12.25 5.16-17.4z"/><path d="M232.5 339.22c0-3.22-1.3-6.45-5.17-9.03-3.22-2.6-6.45-3.87-9.67-2.6-4.52 1.95-8.38 7.1-10.97 16.13l-3.87 14.2c-.65.64 0 1.93 1.28 1.93l2.6.64c3.86-1.93 7.73-3.87 12.9-7.1 7.73-4.5 11.6-9.67 12.9-14.18zm-12.9-6.45l4.5 1.3c1.94 1.3 3.23 2.57 3.23 4.5-.64 4.52-7.1 9.68-18.7 14.83 3.22-12.25 6.45-19.34 10.96-20.63z"/><path d="M203.47 356.63l-14.83 18.06c-.65 1.28-.65 2.58.65 3.86l3.2-.64 14.84-18.07.65-1.92-.66-1.3h-3.87z"/><path fill="#9260C7" d="M150.6 372.75l18.7-.64-13.55-12.24c-9.68-6.46-14.83-6.46-18.06.64-2.6 7.1 1.93 11.6 12.9 12.25z"/><path d="M136.4 370.17c4.52 5.8 16.12 7.1 32.9 4.52l2.57-1.95-.64-1.92c-12.26-13.56-21.3-19.35-28.38-18.07-3.22.64-6.45 2.6-7.1 7.1-1.93 4.52-1.28 7.74.65 10.3zm7.74-12.24c4.5-1.3 10.96 3.22 19.35 12.24-12.9.66-20.65-.64-23.23-3.87-.65-.64-.65-2.58 0-5.15.65-1.3 1.93-3.22 3.87-3.22z"/><path d="M166.7 370.83c-.63 1.92-.63 3.22 1.3 3.86l21.93 7.73 3.87-1.3c0-1.93 0-3.2-1.94-3.2l-21.92-8.4c-1.3-.64-3.23 0-3.23 1.3z"/><path fill="#9260C7" d="M217.66 256.67l-9.03 15.48 18.06-4.5c10.3-3.9 13.53-9.68 9-16.13-5.14-5.8-10.95-4.52-18.04 5.15z"/><path d="M239.6 260.54c1.28-3.23.63-6.45-1.95-10.32-3.23-3.22-6.45-5.15-9.67-4.5-3.87.63-9.03 5.14-14.2 12.25-2.57 3.86-5.15 8.37-7.1 12.9v2.56c.66.66 1.3 1.3 2.6.66 17.4-2.6 27.73-7.1 30.3-13.56zm-4.53-3.23l-.65 1.3c-1.3 3.88-8.38 7.1-20.63 9.68 5.8-10.97 10.3-16.76 15.46-17.4 1.3 0 2.6 0 4.52 2.57l1.3 3.86z"/><path d="M207.34 270.2l-18.7 13.56c-1.3 1.93-1.3 2.57 0 3.87l3.22.65 18.7-14.2c1.3-1.3 1.3-2.57.65-3.87-.64-.63-2.57-1.27-3.86 0z"/><path fill="#9260C7" d="M150.6 282.47l18.05-.65-13.55-12.25c-9.02-6.45-15.47-6.45-18.05.64-2.58 7.12 1.93 10.98 13.54 12.27z"/><path d="M134.47 269.57c-1.3 3.86-1.3 7.1 1.28 10.3 3.88 4.54 15.48 6.46 33.54 4.54l1.93-1.93-1.3-2.6-10.3-10.3c-7.1-5.8-12.26-8.38-17.43-7.74-3.22.65-5.8 3.23-7.73 7.74zm5.16 1.3c1.3-2.6 1.93-3.88 3.22-3.88 4.5-.66 10.96 3.2 20 12.88-12.26.66-20 0-23.23-3.22-.64-1.93-.64-3.23 0-5.8z"/><path d="M166.07 280.54c-.65 1.93-.65 3.22 1.93 3.22l21.28 8.38c1.94.64 2.58 0 3.23-1.93.66-1.28 0-2.57-1.28-3.2l-21.93-7.76c-1.3 0-3.23 0-3.23 1.3z"/><path fill="#9260C7" d="M208.63 215.4c-1.94 5.8-3.87 10.97-4.5 17.42l16.1-8.4c9.04-6.44 10.97-12.25 4.52-17.4-5.8-4.52-10.96-1.94-16.12 8.38z"/><path d="M201.54 234.74h3.22c16.12-5.8 25.15-12.9 25.8-20 .64-3.2-.65-6.44-3.87-9.66-3.24-2.58-6.46-3.87-10.33-2.58-4.5 1.94-8.38 6.44-11.6 15.48l-3.23 14.2c-.65.63-.65 1.92 0 2.56zm24.5-21.27c-1.3 4.5-7.73 9.03-18.7 14.82 3.23-12.9 7.1-19.36 10.96-20.64 1.94-.64 3.23 0 5.16 1.3 1.3 1.28 2.58 3.2 2.58 3.86v.65z"/><path d="M201.54 231.52l-14.83 17.42c-1.3 1.28-1.3 2.58.65 3.86l3.87-.64 14.2-17.42c1.27-1.28 1.27-2.57 0-3.86l-3.88.64z"/><path fill="#9260C7" d="M151.88 234.74l17.4 3.23-10.3-14.83c-7.1-8.4-12.9-10.3-17.42-3.87-3.87 6.45-.64 12.25 10.32 15.47z"/><path d="M139.63 217.98c-2.58 3.86-3.23 7.1-1.94 10.3 3.22 6.46 14.18 10.34 31.6 12.27.64 0 1.93 0 2.57-1.3v-2.57c-8.38-15.48-16.12-23.86-23.22-23.86-4.5 0-7.1 1.93-9.03 5.16zm8.38 0c4.52.64 10.33 5.8 16.78 16.76-12.9-1.93-20.64-5.15-21.93-9.02l-.65-1.3 1.3-3.22 4.5-3.22z"/><path d="M166.7 236.04c-.63 1.93-.63 3.22 1.3 3.87l19.35 12.9 3.87-.64c.64-1.3.64-2.58-.65-3.87l-20-12.9c-1.28-.66-1.92-.66-3.86.64z"/><path fill="#9260C7" d="M237.65 290.2c-3.87-6.44-9.67-5.15-17.4 3.24-3.24 4.5-7.1 9.67-9.7 15.46l17.43-3.22c10.96-3.87 14.18-9.02 9.67-15.47z"/><path d="M207.98 306.98v2.58c.65 1.3 1.3 1.93 2.58 1.93 17.42-2.6 28.38-5.82 30.96-12.27 1.93-3.22 1.3-6.45-1.3-10.3-2.57-3.24-5.15-5.82-9.02-5.82-4.5.66-9.67 3.9-14.83 11.62l-8.4 12.26zm7.1-1.3c6.45-11.6 12.25-16.76 16.12-16.76l5.16 2.58.64 3.87v1.3c-1.93 3.86-9.67 6.44-21.92 9z"/><path d="M208.63 306.34l-19.35 12.9c-1.3.64-1.3 1.92-.64 3.22l3.22.64 19.35-12.9c1.94-.64 2.6-1.3 1.3-3.22l-3.87-.64z"/><path fill="#9260C7" d="M150.6 322.46l18.7-.66-13.55-12.24c-9.68-7.1-14.83-7.1-18.06.65-2.6 7.74 1.93 11.6 12.9 12.26z"/><path d="M171.23 322.46v-2.58l-10.97-10.32c-7.74-5.8-12.9-7.74-17.4-7.1-3.88 0-6.46 3.22-7.75 7.1-1.92 3.87-.63 7.1 1.3 10.32 4.52 5.8 15.48 7.1 32.9 4.5l1.93-1.92zm-7.74-2.58c-12.9 1.28-20.65-.65-23.23-3.23-.65-1.3-.65-3.22-.65-5.16 1.3-2.6 2.58-3.88 3.88-4.52 4.5-.64 10.96 3.87 20 12.9z"/><path d="M169.3 319.23c-.65-.65-1.94 0-3.23 1.93 0 1.3 0 2.58 1.93 3.22l21.93 7.75c1.94.64 2.58 0 3.23-1.3 1.28-1.92.64-3.22-1.3-3.22l-22.57-8.37zM309.88 181.87l-9.68 52.87c-6.44 42.58-10.96 83.84-12.25 123.2 0 1.27.65 1.92 2.58 1.92 1.3 0 1.94-.65 1.94-1.93 1.93-39.35 5.8-80.6 12.25-122.53l9.67-52.25c.64-1.93 0-3.23-1.3-3.23-1.93 0-3.22 0-3.22 1.95z"/><path fill="#9260C7" d="M298.27 374.7l-7.74-16.77-6.45 18.05c-2.57 11.6 0 17.42 7.74 16.76 8.38-.64 10.32-6.45 6.45-18.05z"/><path d="M290.53 354.7c-1.3 0-1.93.65-2.58 1.93l-5.8 14.2c-2.58 9.67-2.58 16.12 0 20 2.58 3.2 5.8 4.5 9.67 4.5 5.16 0 8.38-1.93 9.68-5.16 2.58-4.52 1.93-10.97-1.94-20l-7.1-13.54-1.93-1.93zm7.1 29.03l-.65 3.86c-.64 1.28-1.93 2.57-5.16 2.57l-5.16-1.94-1.3-5.16c0-5.15 1.95-11.6 5.17-20 4.52 9.04 7.1 16.13 7.1 20.66z"/><path fill="#9260C7" d="M320.84 305.04c-3.87 4.52-7.1 9.67-9.67 14.84l17.4-3.23c10.97-3.86 14.2-8.4 9.7-14.84-4.53-6.44-10.33-5.8-17.43 3.24z"/><path d="M331.16 295.37c-4.5 0-9.67 3.86-14.83 10.97l-7.74 12.9v2.56l2.57.66 14.83-2.58c8.4-1.94 14.2-5.17 16.12-9.68 1.3-3.22.65-7.1-1.93-10.3-2.6-3.9-5.8-5.18-9.04-4.53zm-15.48 21.28c5.8-10.97 11.6-16.12 16.13-16.77 1.3 0 2.6.65 4.52 2.57l1.3 3.88-.65 1.93c-1.3 3.87-9.03 7.1-21.3 8.4z"/><path d="M311.8 322.46c1.95-.66 1.95-1.94 1.3-3.88-1.3-1.3-1.93-1.3-3.86 0l-18.7 12.9c-1.94.65-1.94 1.93-1.3 3.88 1.3 1.28 2.58 1.28 3.87 0l18.7-12.9z"/><path fill="#9260C7" d="M335.03 272.8c11.6-2.6 14.83-6.45 11.6-13.55-3.22-7.1-9.67-6.45-17.4 1.3-4.52 3.2-8.4 7.74-12.26 12.88l18.06-.64z"/><path d="M314.4 272.8v1.93l2.57 1.93 14.84-.64c9.04-1.3 14.84-3.87 17.42-7.74 1.94-3.22 1.94-6.45 0-10.3-2.58-3.9-5.16-6.46-8.38-6.46-7.1-.66-16.13 6.45-26.45 21.27zm29.66-12.26l1.3 3.22-.65 1.3c-1.93 3.87-9.67 5.8-22.57 6.45 8.4-10.3 14.2-14.83 18.06-14.2 1.92 0 3.22.67 3.86 3.24z"/><path d="M315.7 271.5l-20.65 10.32c-1.94.65-2.58 1.94-1.3 3.87 1.3 1.3 1.94 1.3 3.23.63l20.64-9.67c1.94-1.28 2.58-2.57 1.94-3.87-1.3-1.93-1.94-2.6-3.88-1.3z"/><path fill="#9260C7" d="M332.45 212.17l-10.96 14.2 18.7-3.23c10.3-2.58 14.18-7.74 9.66-14.2-3.87-6.44-9.67-5.8-17.4 3.23z"/><path d="M336.97 227c9.02-1.93 14.18-5.16 16.12-9.02 2.57-3.23 1.92-6.45-.66-10.96-2.58-3.23-5.16-5.17-9.03-5.17-3.86.65-9.66 3.87-15.46 10.97-3.23 3.23-5.8 7.74-8.4 12.25v2.58c.66.64 1.3 1.3 2.6 1.3l14.83-1.94zm6.44-19.98c1.95 0 3.24 1.28 4.53 3.22l1.3 3.23v1.92c-2.6 3.22-9.7 6.44-21.94 7.74l8.37-10.97c3.23-3.22 5.8-5.15 7.75-5.15z"/><path d="M320.84 224.43l-20 11.6c-1.92 1.3-1.92 2.6-.63 3.88.65 1.3 1.3 1.95 3.23 1.3l20-12.9.64-3.23c-.65-1.93-1.94-1.93-3.23-.64z"/><path fill="#9260C7" d="M253.13 316c-10.97-3.87-16.77-1.93-17.42 5.8-.63 7.75 4.53 10.33 16.14 8.4l17.4-5.8c-5.8-3.24-10.95-5.82-16.1-8.4z"/><path d="M238.3 312.8c-3.23 1.9-5.16 5.13-5.16 9-.65 3.88.64 7.1 3.87 9.68l18.7.65 14.2-5.16 1.93-2.6-1.93-1.9c-14.2-9.68-24.5-12.9-31.6-9.68zm-.65 9.66c.65-3.23 1.3-4.52 2.58-4.52 3.87-2.58 11.6 0 22.57 6.44-11.6 4.53-19.35 5.17-22.57 3.23-1.3-1.27-2.58-3.22-2.58-5.14z"/><path d="M269.25 322.46h-1.93l-1.3 1.93c0 1.28.65 2.57 2.6 3.2l23.2 1.3 3.23-2.57c0-1.3-1.3-1.94-3.23-1.94l-22.57-1.94z"/><path fill="#9260C7" d="M277.63 264.42l-10.3-14.84c-7.75-8.4-13.55-10.32-17.42-3.87-4.5 6.46-1.3 11.6 9.68 15.5l18.05 3.22z"/><path d="M277 267l2.57-.66v-2.58l-7.74-12.9c-5.8-7.73-10.32-11.6-15.48-11.6-3.22 0-6.45 1.93-9.03 5.15-1.93 3.9-3.22 7.12-1.3 10.34 2.6 4.5 7.75 7.74 16.78 9.68L277 267zm-26.45-14.84l-.65-1.3 1.94-3.22 4.5-3.23c3.9 0 9.7 5.82 16.14 16.8-12.9-1.95-20-4.53-21.93-9.04z"/><path d="M298.27 275.38l-19.35-12.9-3.87.64c-.64 1.3 0 2.58.65 3.87l19.35 12.88 3.87-.64c1.28-1.92.64-2.58-.65-3.87zM-39.66-24.5c-1.3 1.28-1.3 2.57.65 3.22C-2.26 0 33.2 32.9 68.7 76.74c17.4 22.58 31.6 43.2 41.9 61.92.65 1.93 1.94 1.93 3.23.64 1.94-.65 2.58-1.3 1.3-3.22-10.97-19.35-24.52-40-42.57-62.56C37.1 28.38.33-4.5-36.44-25.15c-1.93-1.3-3.22-1.3-3.22.64z"/><path fill="#858585" d="M-6.12 49.02c7.1-10.97 7.74-20.64 2.58-29.03l-10.96-9.04-5.8 12.26c-1.95 10.3 2.57 18.7 14.18 25.8z"/><path d="M-15.8 9.03l-4.5 6.45c-2.6 5.16-3.88 10.96-2.6 15.47 1.3 7.75 5.8 14.84 14.84 20l3.87-.65c5.82-9.03 7.75-16.77 5.82-24.5-1.3-5.16-3.87-9.03-7.74-12.9l-7.1-4.52-2.58.65zm-1.93 21.28v-2.57c0-4.5 1.3-9.03 4.5-13.54 5.17 3.86 9.04 7.73 10.33 12.88v4.52c0 3.87-1.3 8.38-3.87 12.9-6.45-3.87-10.32-8.38-10.96-14.2z"/><path d="M-19.02-13.54l-1.94 3.22 3.87 21.28 3.24 2.6c1.3-.66 2.58-1.3 2.58-3.24L-15.8-11.6l-3.22-1.94z"/><path fill="#858585" d="M34.5 76.74c6.46-10.96 6.46-20.63.65-28.37l-11.6-8.4-5.17 12.9C17.08 63.2 22.9 71.6 34.5 76.75z"/><path d="M24.83 37.4c-1.93-.64-2.57 0-3.22.65l-3.86 7.1c-1.94 5.8-2.58 10.3-1.3 15.47 1.94 7.74 7.1 14.2 16.78 18.7 1.3.65 2.58.65 3.22-1.28 5.8-9.04 6.45-17.42 4.52-24.5-1.94-4.52-4.52-9.04-9.68-12.26l-6.45-3.88zM21.6 59.33l-.64-3.87c0-4.5 1.3-8.38 3.87-12.25C30 46.44 34.5 50.96 35.8 55.47l.64 5.8c0 3.88-.64 7.74-3.22 12.26-6.45-4.52-10.32-9.03-11.6-14.2z"/><path d="M16.45 16.77c-1.3 0-1.94 1.3-1.3 3.23l5.8 20.63c.66 1.94 1.95 1.94 3.24 1.94 1.92-1.3 2.57-1.94 1.92-3.23l-6.45-21.28c0-1.3-1.3-1.94-3.22-1.3z"/><path fill="#858585" d="M64.82 116.08c7.74-10.32 9.03-20 3.87-28.37l-10.33-9.66-6.45 12.9c-2.58 9.67 1.93 18.05 12.9 25.14z"/><path d="M65.46 79.97L59 75.45c-.63-.64-1.92-.64-3.2 1.3l-3.88 6.44c-2.58 4.5-3.87 9.67-3.23 14.82.64 7.74 5.8 14.2 14.83 20.64l3.22-.64c6.45-9.03 8.38-16.77 6.45-24.5-.64-5.17-3.22-9.04-7.74-13.55zM68.7 94.8v3.87c0 3.87-1.3 8.38-5.17 13.54-5.8-5.15-9.03-9.66-9.67-14.82v-1.93c0-4.52 1.28-9.03 4.5-14.2 5.17 3.88 8.4 8.4 10.33 13.55z"/><path d="M53.85 54.17c-1.93 0-2.58 1.3-1.93 2.58l3.87 21.93c0 1.3.63 2.58 2.57 1.93l1.93-2.56-3.22-21.93c-.65-1.93-1.94-2.57-3.23-1.93z"/><path fill="#858585" d="M78.36 154.13c10.96-7.74 14.2-16.12 11.6-25.8l-7.1-12.9-9.66 10.33c-5.16 9.02-3.22 18.7 5.16 28.37z"/><path d="M81.58 113.5c-1.28 0-3.22 1.94-6.44 5.16-3.88 3.87-6.45 9.03-7.1 13.55-1.3 8.4 1.94 16.13 8.4 23.87l3.86.64c9.02-6.44 12.9-14.17 13.54-21.9 0-4.53-1.3-9.7-4.52-14.85l-4.5-5.8-3.24-.65zm6.45 20.64v.65c0 5.14-3.22 10.3-9.03 15.46-3.87-5.8-5.8-10.32-5.8-14.83v-2.58c1.3-4.5 3.87-9.03 9.03-13.54 3.87 5.17 5.8 9.68 5.8 14.84z"/><path d="M82.23 94.16l-2.58 21.28c0 1.93 1.3 3.22 2.58 3.22 1.93 0 2.58-.64 2.58-2.58l2.6-21.92c0-1.3-.66-2.6-2.6-2.6-1.92-.63-2.57.02-2.57 2.6z"/><path fill="#858585" d="M2.9-27.73L-8.7-18.7l11.6 8.38c9.04 3.23 18.7 0 27.1-9.03-9.04-9.02-18.06-12.25-27.1-8.38z"/><path d="M31.93-21.28C24.2-29.02 16.45-32.88 9.36-31.6c-8.4 0-14.84 3.87-20.64 10.96v3.23c5.8 7.08 12.9 10.3 20.64 10.95 7.73.65 15.47-3.22 22.57-11.6 1.3-.65 1.3-1.94 0-3.23zM9.36-26.44c5.8-.65 10.96 1.93 16.76 7.1-5.8 5.15-10.96 7.73-16.76 7.73-4.52-.65-9.03-2.6-14.84-7.1 5.16-5.16 10.32-7.74 14.84-7.74z"/><path d="M-8.7-21.93h-21.93c-1.3 0-2.58 1.3-2.58 3.23 0 1.3 1.28 1.93 2.57 1.93H-8.7c1.93 0 2.58-.64 2.58-1.93 0-1.94-.65-3.23-2.58-3.23z"/><path fill="#858585" d="M33.22 10.96l12.9 7.1C55.78 20 64.8 16.76 71.9 5.8 62.23-2.58 52.55-3.87 43.53.65l-10.32 10.3z"/><path d="M73.2 3.87C65.46-2.58 57.72-5.8 49.34-3.87c-4.5.65-9.03 3.23-12.9 7.74l-5.16 5.8c-.64.65 0 2.58.65 3.23l6.45 4.5c4.5 2.6 10.3 4.53 14.83 3.88 7.75-.64 14.84-5.8 21.3-14.2.64-1.28.64-2.57-1.3-3.2zM68.04 5.8c-4.5 6.45-9.67 9.68-15.48 10.32-5.15.65-10.32-1.93-15.47-5.8 3.86-5.16 8.37-8.4 13.53-9.67C55.8 0 61.6 1.95 68.03 5.8z"/><path d="M33.22 8.38l-21.28 2.58c-1.94.65-2.58 1.3-2.58 3.23s.64 2.57 3.22 2.57l21.28-3.22c1.93 0 2.58-1.3 2.58-3.23 0-1.3-1.3-2.58-3.22-1.94z"/><path fill="#858585" d="M110.6 50.95c-9.67-9.03-18.05-11.6-27.73-8.38L71.9 50.95l10.97 9.03c9.68 3.87 18.06.64 27.73-9.03z"/><path d="M89.32 38.7c-4.5.64-9.67 1.93-14.18 5.8l-5.8 5.16c-.66 1.3-.66 2.58 0 3.22l5.8 5.8c4.5 3.23 9.67 5.17 14.18 5.17 8.4.64 15.48-3.23 22.57-10.97 1.93-.64 1.93-1.93 0-3.22-7.1-8.4-14.84-11.6-22.58-10.96zm0 20c-4.5 0-9.67-2.6-14.18-7.75 4.5-4.52 9.67-6.45 14.18-7.1 5.16-.64 10.96 1.94 16.77 7.1-5.8 5.8-11.62 8.38-16.78 7.74z"/><path d="M46.76 50.95c0 1.93 1.3 3.22 2.58 3.22H71.9c1.3 0 2.6-1.3 2.6-3.22 0-1.3-1.3-1.94-2.6-1.94H49.35c-1.3.02-2.58.66-2.58 1.95z"/><path fill="#858585" d="M137.7 83.2c-9.68-9.04-18.07-11.6-27.74-8.4L99 83.2l10.96 8.37c9.67 4.52 18.06 1.3 27.73-8.38z"/><path d="M139.63 85.13c1.3-.65 1.3-1.94 0-3.87-7.74-7.74-14.84-10.97-23.22-10.97-4.5.64-9.67 2.57-14.18 6.44l-5.8 5.16c-.65 1.3-.65 1.94 0 2.58l5.8 6.45c4.5 3.23 9.68 5.16 14.2 5.16 8.37 0 15.47-3.23 23.2-10.97zm-37.4-1.94c5.15-5.17 9.67-7.1 14.82-7.75 4.52 0 10.32 2.58 16.13 7.74-6.45 5.15-11.6 7.73-16.13 7.73-5.15 0-10.3-3.22-14.83-7.74z"/><path d="M73.85 83.2c0 1.28 1.3 2.57 2.58 2.57h21.92l2.58-2.58c0-1.94-.64-2.6-1.93-2.6H76.43c-1.3 0-2.58.66-2.58 2.6z"/><path fill="#858585" d="M135.75 168.32c1.94-12.25-.64-21.28-9.02-27.1l-13.55-3.86-.64 14.2c2.58 9.67 10.32 15.47 23.2 16.76z"/><path d="M133.82 144.46c-3.22-3.87-7.74-6.45-13.54-8.38l-7.1-1.3-2.58 1.3-1.28 8.38c0 5.8 1.28 10.32 3.86 14.83 3.87 7.08 11.6 10.95 21.93 11.6l2.6-1.3c1.93-10.95 1.28-18.7-3.88-25.14zm-16.77 12.25c-1.93-3.2-2.58-7.08-2.58-11.6l.65-5.16c6.45 1.3 11.6 3.87 14.83 7.74 2.58 3.22 3.87 7.75 3.87 12.9l-.64 4.52c-7.74-1.3-12.9-4.52-16.13-8.4zM348.57-39.34c1.3-.64 1.3-1.93 0-3.22h-3.22C318.9-20 298.9 25.14 286.65 94.16c-6.44 34.18-10.3 69-11.6 101.9 0 1.3.65 2.57 2.58 3.2 1.3 0 2.58-1.27 2.58-3.2 1.3-30.96 5.17-63.85 11.62-98.68 12.26-69 30.95-114.15 56.75-136.72z"/><path fill="#858585" d="M240.88 193.47c13.54-.65 21.92-5.8 25.15-14.83l.64-14.2c-4.5-.64-9.03.66-13.54 2.6-9.03 4.5-12.9 12.9-12.25 26.43z"/><path d="M269.25 163.8l-1.93-1.93c-8.4-.64-16.13 1.93-21.3 7.74-5.8 5.17-8.37 13.55-7.08 23.87 0 1.94.64 2.58 1.94 2.58 10.96 0 18.7-3.23 23.85-9.68 4.52-6.44 6.46-13.54 4.52-22.57zm-4.52 5.8c0 5.17-1.28 10.33-4.5 13.55-3.23 3.87-8.4 6.45-16.78 7.1v-.65c0-7.73 2.58-12.9 5.8-16.12 3.88-4.5 9.03-6.45 15.48-6.45v2.58z"/><path d="M269.25 166.38l14.2-16.76c1.28-1.3 1.28-2.58-.66-3.87l-3.23.64-14.2 16.76c-1.93.64-1.93 1.94 0 3.22h3.88z"/><path fill="#858585" d="M238.94 132.85c12.25 2.58 21.28 0 27.1-8.38 3.2-4.52 3.86-9.03 4.5-13.55l-14.2-.64c-9.66 1.93-16.1 9.67-17.4 22.57z"/><path d="M273.12 110.92l-1.94-1.93c-8.38-3.24-15.48-2.6-22.57 1.28-6.44 4.5-10.95 11.6-12.24 21.92-.65 1.94 0 2.58 1.3 3.23 10.95 2.58 18.7.65 25.14-3.87 6.45-5.16 9.68-11.6 10.32-20.64zm-13.54 16.77c-3.87 3.2-9.68 3.86-17.42 3.2 1.3-7.72 4.52-12.88 9.03-15.46 4.5-3.23 10.3-3.87 16.76-2.58-1.93 6.45-4.5 11.6-8.38 14.83z"/><path d="M287.3 96.1L269.26 109c-1.3 1.28-1.93 1.92-.64 3.2l3.23 1.3 18.7-12.9c1.3-1.28 1.3-1.93.65-3.22l-3.87-1.3z"/><path fill="#858585" d="M276.35 89.64c2.57-4.5 3.87-9.03 3.22-14.2l-13.54 1.3c-9.68 3.23-15.48 10.97-16.12 23.87 13.55 1.94 22.58-2.58 26.45-10.96z"/><path d="M274.4 97.38c5.82-5.8 8.4-12.9 7.75-21.93l-1.94-1.93c-8.37-1.94-16.1-.65-21.92 4.5-6.44 4.53-9.67 11.62-10.96 22.6 0 1.92 1.3 2.56 2.58 3.2 10.32.65 19.35-1.28 24.5-6.44zm2.6-19.34c0 6.44-1.95 11.6-5.82 14.83-4.5 4.5-10.3 5.8-18.05 5.15.64-7.1 3.22-12.9 7.74-16.12 4.5-3.22 9.03-4.5 16.12-3.87z"/><path d="M295.05 59.33l-16.77 14.2c-1.93 1.28-1.93 1.92-.65 3.86l3.87.64 16.77-14.84c1.3-1.3 1.3-1.93 0-3.87l-1.3-.64-1.92.63z"/><path fill="#858585" d="M284.73 36.12c3.23-3.23 5.8-7.74 6.45-12.26-3.87-1.93-9.03-3.22-13.55-3.22-10.3.64-18.05 7.1-21.92 19.34 12.26 4.52 21.93 3.87 29.03-3.86z"/><path d="M279.57 42.56c7.74-3.22 12.25-9.67 14.2-18.05 0-1.28 0-2.57-1.95-2.57-7.1-4.52-14.83-5.16-22.57-1.94-7.1 2.57-12.9 9.02-16.12 19.34-.65 1.3 0 2.58 1.93 3.22h24.5zm-7.74-18.05l16.12.65c-2.58 6.45-5.8 10.97-10.32 12.9h-18.05c3.22-7.1 7.1-11.6 12.25-13.54z"/><path d="M309.88 12.25l-20 9.68c-1.28 0-1.28 1.3-1.28 3.22.65 1.3 1.93 1.94 3.22 1.3l20-9.68c1.93-.65 2.57-1.3 1.93-3.23-1.3-1.3-2.58-1.93-3.87-1.3z"/><path fill="#858585" d="M269.9-7.74c10.96 7.1 20.63 8.4 28.37 2.58 4.52-3.22 7.74-7.1 9.67-10.96-3.22-2.58-7.74-5.16-12.9-5.8-9.67-1.3-18.7 3.22-25.14 14.18z"/><path d="M267.96-9.03c-1.3 1.3-1.3 1.94.65 3.23C277 .65 285.38 2.58 293.1 0c7.75-2.58 13.55-7.1 17.43-15.48l-.65-2.58c-7.1-5.16-14.2-7.74-21.92-7.1-8.4 1.94-14.84 6.46-20 16.13zm23.86 3.87c-5.8 1.3-11.6 0-18.05-3.87 5.15-6.45 9.67-9.67 14.83-10.96 5.15 0 10.3 1.3 16.12 4.52-3.87 5.16-7.74 9.03-12.9 10.32z"/><path d="M328.58-23.22L307.3-18.7c-1.93 0-2.58 1.93-1.93 3.22 0 1.94 1.28 1.94 2.57 1.94l21.93-5.16c1.3 0 2.58-1.3 1.94-2.58-.64-1.94-1.28-1.94-3.22-1.94z"/><path fill="#858585" d="M332.45 65.14c6.45-11.6 6.45-21.3 0-29.02l-11.6-8.4-4.52 13.55c-1.3 9.68 4.5 17.42 16.12 23.87z"/><path d="M334.4 65.78c5.8-9.03 6.44-16.77 3.86-24.5-1.3-5.16-4.52-8.4-9.68-12.26-3.22-2.58-5.16-3.87-7.1-3.87-.64 0-1.93 0-2.57 1.3l-3.86 6.44c-1.94 5.8-1.94 10.95-.65 16.1 1.93 7.1 7.1 13.55 16.76 18.07 1.94 1.3 2.58.65 3.23-1.3zm-.66-23.22l.65 6.45c0 3.24-.66 7.75-3.24 11.62-7.1-3.22-10.32-7.74-11.6-12.9l-1.3-4.5c0-3.88 1.3-8.4 3.23-11.62 5.8 1.93 9.66 5.8 12.24 10.96z"/><path d="M311.8 7.74l6.46 20.64c.65 1.93 1.94 1.93 3.23 1.93 1.92-.63 2.57-1.92 1.92-3.22L316.97 5.8c-.64-1.3-1.93-1.93-3.22-1.3-1.94 0-2.58 1.3-1.94 3.24z"/><path fill="#858585" d="M359.54-3.87l-14.2-3.87v14.2c2.6 9.66 10.33 15.47 23.87 16.76 1.94-12.9-1.28-22.57-9.66-27.1z"/><path d="M353.1-9.03l-7.75-1.3-1.94 1.3c-.63 1.94-1.28 3.87-1.28 8.4 0 5.14 1.3 10.95 3.87 14.82 4.5 6.44 12.25 10.3 22.56 10.95l3.23-1.93c1.28-10.32 0-18.7-5.8-24.5-3.24-3.88-7.1-6.46-12.9-7.75zm-5.82 8.4v-4.53c6.46.65 11.6 3.23 15.48 7.74 2.58 3.23 3.87 7.74 3.87 12.9v4.5c-7.74-1.28-13.54-4.5-16.12-9.02-1.93-3.22-3.22-7.1-3.22-11.6z"/><path d="M330.52-27.73c-1.3 1.3-1.3 2.58 0 3.87l12.9 17.4c1.3 1.3 2.57 1.3 3.22.66 1.93-1.3 1.93-2.58.64-3.23l-12.9-18.06-3.86-.63z"/><path fill="#858585" d="M320.84 188.96c1.94-13.54-1.93-21.93-10.3-27.1l-14.2-3.2.64 14.17c2.58 9.68 10.96 14.84 23.86 16.13z"/><path d="M295.7 156.07c-.65 0-1.3.64-1.95 1.93-.64.65-1.28 3.23-1.28 7.74.64 5.8 2.58 10.96 5.15 14.83 4.52 6.45 12.26 9.68 23.22 10.33 1.3 0 2.58-.65 2.58-1.94 1.3-10.96-.65-18.7-5.8-24.5-3.87-3.88-8.4-6.46-13.55-7.1l-8.38-1.3zm5.8 21.28c-1.94-3.23-3.23-7.1-3.23-12.9v-3.22c6.45.65 12.25 2.57 15.48 6.45 3.22 3.87 4.5 9.02 4.5 15.47v2.58c-7.73-1.28-13.53-4.5-16.75-8.38z"/><path d="M280.86 139.3c-1.94 1.93-1.94 2.58-.65 3.87l14.2 17.4h3.87v-3.22l-13.54-17.4-3.87-.65z"/><path fill="#858585" d="M317.62 145.75c3.87-11.6 2.58-21.28-4.52-27.73l-12.9-6.45-2.57 13.54c.64 10.33 7.1 17.43 20 20.65z"/><path d="M319.55 121.9c-2.58-4.53-6.44-8.4-11.6-10.33L300.2 109c-1.28 0-1.93 0-2.57 1.28-.65 1.93-1.94 5.16-2.58 7.74-.65 5.16 0 10.32 1.93 14.83 3.23 7.74 9.68 12.26 20 15.48 1.3.65 2.58 0 3.22-1.3 3.22-10.3 3.22-18.7-.65-25.14zm-19.35 1.28l1.3-9.03c6.44 3.22 11.6 6.45 13.54 10.32 1.93 3.22 2.58 6.44 2.58 9.67l-1.94 7.74c-7.74-2.58-11.6-5.8-14.2-10.32l-1.28-8.38z"/><path d="M288.6 89.64c-1.3.65-1.94 1.94-.65 3.23l9.68 20c.64 1.28 1.93 1.92 3.22.63 1.3-.64 2.58-1.3 1.3-3.22L291.8 90.93c-.64-1.3-1.3-2.58-3.22-1.3z"/><path fill="#858585" d="M327.94 107.06c4.5-12.9 2.57-22.58-5.8-29.02l-12.9-5.8-1.94 14.18c.64 10.32 7.74 16.77 20.64 20.64z"/><path d="M309.88 70.3l-3.23 1.3-1.93 7.72c-.65 5.16 0 10.32 1.93 14.84 3.87 7.1 10.97 12.25 20.64 14.83 1.93 0 2.57 0 3.22-1.95 3.22-9.67 2.58-18.05-1.3-25.15-2.57-3.87-6.44-7.1-12.25-9.67l-7.1-1.94zm0 13.54l1.3-8.4c6.44 2.6 10.3 5.82 13.53 9.7 1.95 2.57 2.6 6.44 2.6 9.66l-1.3 7.74c-7.74-1.94-12.25-5.16-14.83-10.32-.65-2.58-1.3-5.16-1.3-8.38z"/><path d="M297.63 50.95c-1.94 1.3-2.58 1.93-1.3 3.87l10.97 18.7c.64 1.93 1.3 1.93 3.23 1.3 1.3-1.3 1.93-1.95.64-3.23l-10.32-19.36c-.65-1.3-1.93-1.94-3.22-1.3z"/><path fill="#858585" d="M282.8 234.74c8.38-9.67 9.67-19.35 5.15-28.37l-10.32-10.32-7.1 12.9c-1.92 9.67 1.95 18.06 12.26 25.8z"/><path d="M278.93 194.12h-3.23c-.65 1.3-2.58 3.23-4.52 6.45-2.58 5.15-3.86 10.32-3.22 14.83.64 8.38 4.5 15.48 13.54 21.28l3.87-.64c6.45-7.75 9.03-16.12 7.1-23.87-.65-5.15-3.23-9.67-7.1-12.9l-6.44-5.15zm9.02 21.93c0 4.5-1.93 9.02-5.8 14.82-5.8-5.15-9.03-9.67-9.68-15.48v-1.3c0-5.15 1.94-10.3 5.8-14.83 5.8 5.17 8.4 9.68 9.68 14.2v2.58zM122.2-55.46h-3.86c-1.3 1.3-1.3 1.93 0 3.22 11.6 14.84 23.86 35.47 36.76 60.62 24.5 50.3 38.7 103.83 42.57 158.65 0 1.3.64 2.58 2.57 1.94 1.3 0 1.94-1.3 1.94-2.6-3.22-55.45-17.4-108.97-43.2-160.57-12.26-25.8-24.5-46.43-36.77-61.26z"/><path fill="#858585" d="M163.5 170.25c12.24-3.22 19.33-9.67 21.27-19.35l-2.58-14.18c-4.53.64-9.04 2.58-12.9 5.16-7.75 6.45-9.68 15.47-5.8 28.37z"/><path d="M182.2 134.14c-9.04.65-15.5 4.52-20 11.6-3.87 6.46-4.52 14.84-1.94 25.16.65 1.93 1.94 1.93 3.23 1.93 10.3-2.58 17.4-7.1 21.27-14.18 3.22-7.1 3.87-14.84.64-23.22-.63-.65-1.92-1.3-3.2-1.3zm-15.5 14.2c3.24-4.53 8.4-7.1 14.2-9.04l1.3 7.74-2.6 9.03c-1.93 4.5-7.08 8.38-14.18 10.3l-1.93-7.08c0-4.52 1.28-7.75 3.2-10.97z"/><path d="M191.86 116.08l-10.96 19.35c-1.3.65-1.3 2.58.64 3.23 1.3 1.28 2.58.64 3.23-.65l10.96-19.34c1.3-1.3 1.3-2.58-.64-3.22-1.3-1.3-3.24-.65-3.24.64z"/><path fill="#858585" d="M157.04 125.1c12.25-3.86 18.7-11.6 19.35-21.27l-3.24-14.2c-4.5 1.3-8.38 3.24-12.25 7.1-7.1 7.1-8.38 16.77-3.86 28.38z"/><path d="M175.74 88.35c-.65-.64-1.3-1.3-3.22-.64l-7.1 2.6c-5.16 2.57-9.03 5.8-11.6 10.3-3.23 7.1-3.23 15.48 1.28 25.16.65 1.93 1.3 2.58 3.23 1.93 9.67-3.23 16.12-9.04 19.34-16.13 1.3-4.52 1.94-10.32.65-15.48l-2.58-7.75zm-1.93 14.2l-1.28 7.08c-1.94 4.52-6.45 9.03-13.55 11.6-1.93-3.2-1.93-7.08-1.93-9.02 0-3.2 0-6.44 1.93-9 2.58-3.88 6.45-7.75 12.9-10.33l1.94 9.67z"/><path d="M179.6 68.36l-8.37 20c-1.3 1.93-.65 2.57 1.3 3.86 1.28.65 2.56.65 3.2-1.3l9.04-19.98c.64-1.94.64-2.58-1.3-3.87-1.28 0-2.57 0-3.86 1.3z"/><path fill="#858585" d="M137.7 85.13c12.24-1.94 19.34-8.4 21.27-18.06l-1.3-14.83c-5.15.64-9.02 2.58-13.53 5.16-7.74 6.45-10.32 15.47-6.45 27.73z"/><path d="M160.26 51.6c-.64-.65-1.3-1.94-3.22-1.94-8.4 1.3-14.84 4.5-19.35 11.6-4.52 5.8-5.17 14.2-3.23 25.16l3.22 1.3c10.95-1.95 18.05-6.46 21.27-12.9 3.87-7.75 4.52-15.5 1.3-23.23zm-4.5 3.86l1.28 7.1-2.58 9.03c-1.94 5.14-7.1 8.37-14.83 10.3l-1.3-6.45c0-3.87 1.3-8.38 3.23-11.6 3.23-4.52 7.74-7.1 14.2-8.4z"/><path d="M166.7 32.9l-10.95 18.05c-1.3 1.3-.65 3.22.64 3.87 1.28.64 2.57.64 3.86-.65l10.97-19.35c1.3-1.3 1.3-1.93-.65-3.22-1.3-1.3-2.58-.65-3.87 1.3z"/><path fill="#858585" d="M128.02 43.85c11.6-5.8 17.4-14.18 16.12-23.86l-4.5-12.9c-4.53 1.28-8.4 3.86-11.62 8.38-6.45 7.74-6.45 17.4 0 28.37z"/><path d="M146.07 27.09c2.58-7.1.65-14.85-4.5-21.94l-2.6-1.3c-9.02 3.24-14.18 8.4-16.76 16.13-2.57 7.1-1.92 16.12 3.88 25.14l3.23.65c9.68-4.53 14.84-10.97 16.77-18.7zm-3.87-5.17l-1.28 4.5c-1.3 5.17-4.52 9.7-11.6 13.55-2.6-5.16-3.24-8.38-3.24-11.6l.65-6.45c1.93-5.16 5.8-8.38 11.6-11.6 2.6 3.86 3.87 7.73 3.87 11.6z"/><path d="M148.65-13.54c0-1.94 0-3.23-1.93-3.23-1.3 0-2.58 0-3.22 1.3L137.05 5.8c-.65 1.3 0 3.23 1.93 3.23 1.3 1.3 2.58 0 3.22-1.93l6.45-20.64z"/><path fill="#858585" d="M227.33 136.72l-14.2.64 4.53 13.55c5.8 7.75 15.48 10.98 27.73 7.75-1.95-12.9-8.4-20-18.07-21.93z"/><path d="M220.24 133.5l-7.74 1.3c-1.3 0-1.94 1.28-1.94 2.56l1.3 7.75c2.57 5.8 5.15 9.68 9.02 12.26 6.45 5.16 14.83 6.44 25.15 3.87l1.94-2.58c-1.94-10.97-5.8-17.4-12.9-21.93-4.5-2.58-9.03-3.87-14.83-3.23zm3.87 20.63c-3.86-3.23-6.44-8.38-7.73-14.83 5.16-1.3 10.96-1.3 16.12 1.93 4.5 3.23 7.73 7.75 9.66 15.48-7.73 1.3-13.54.65-18.05-2.57z"/><path d="M192.5 123.18c-.64 1.93-.64 2.58 1.3 3.86l18.06 12.26c1.28 1.3 2.57 1.3 3.22-.65 1.3-1.3 1.3-2.57-.64-3.87l-18.06-12.25c-1.3-.64-1.94-.64-3.87.65z"/><path fill="#858585" d="M211.85 99.96c7.1 7.1 16.77 7.74 28.38 2.58-3.87-11.6-10.96-18.06-21.28-18.06l-14.2 3.23 7.1 12.26z"/><path d="M226.7 83.2l-15.5-.65c-3.86.64-6.44 1.93-7.1 2.58-1.92 1.3-1.92 1.93-1.92 3.22l3.22 7.74c2.58 4.5 6.45 7.73 10.97 10.3l25.15-.64 1.93-3.87c-4.5-10.32-9.67-16.13-16.76-18.7zM207.97 89l16.77-1.3c5.16 1.94 9.03 6.46 12.26 13.55l-18.7.64c-4.5-2.6-7.74-7.1-10.32-12.9z"/><path d="M182.2 78.03c-.66 1.94 0 2.58 1.92 3.23l20 8.38c1.28 1.3 2.57.65 3.22-1.3.64-1.28.64-2.57-1.3-3.2l-20.63-8.4c-1.28-1.3-2.57 0-3.2 1.3z"/><path fill="#858585" d="M195.73 67.07c5.8 8.38 15.48 10.96 28.38 7.74-3.22-12.9-9.02-20.63-19.34-21.92l-13.54 1.3 4.5 12.9z"/><path d="M226.7 74.17c-2.6-10.32-6.46-17.42-13.56-21.3-4.5-1.92-9.67-3.2-15.47-3.2l-7.74 1.92-1.3 2.57 1.94 7.74c1.3 5.17 4.52 9.7 8.4 12.27 7.08 4.5 15.47 5.8 25.14 2.58 1.94 0 2.6-1.3 2.6-2.58zM210.55 57.4c3.87 1.93 7.1 7.74 9.68 14.83-7.74 1.3-13.55.64-18.06-1.94-4.52-3.23-7.1-8.4-8.4-14.84 6.47-1.3 11.62-1.3 16.78 1.94z"/><path d="M169.94 41.27c-.65 1.3-.65 1.94 1.3 3.23l18.04 11.6 3.87-.64c1.3-1.3.65-2.58-.64-3.22l-18.7-12.26c-1.28-.64-2.57-.64-3.86 1.3z"/><path fill="#858585" d="M187.35-2.58L173.8 2.58l9.03 10.96c8.4 6.45 18.06 5.8 28.38-1.3-6.44-11.6-14.18-16.1-23.85-14.82z"/><path d="M172.52.65c-1.3 1.28-1.3 1.93-.65 3.22l3.87 6.45c3.23 5.16 7.74 7.74 12.9 9.67 7.1 1.93 15.48 0 24.5-5.8 1.3-.65 1.3-1.95.65-3.88-5.82-9.03-12.26-14.2-19.36-15.48l-15.48 2.58-6.44 3.23zm5.15 3.22C182.83.65 188-.63 193.8 0c4.5.65 9.67 4.5 14.18 10.96-7.1 3.87-12.9 5.16-18.05 3.23-5.16-1.3-9.68-5.17-12.26-10.33z"/><path d="M149.94-2.58c-.64 1.94.65 2.58 1.94 3.23l21.28 5.15c1.93 0 2.58-.64 3.23-1.93L174.44.64l-21.28-5.16c-1.3-.64-2.58.65-3.23 1.94z"/><path fill="#858585" d="M198.3 205.72c10.33-9.02 12.9-18.7 9.7-27.72l-7.75-11.62-9.03 10.97c-4.5 9.67-1.94 18.7 7.1 28.37z"/><path d="M211.85 184.45c0-4.52-1.3-9.68-4.5-14.2l-5.82-5.8c-.64-.65-2.58-.65-3.22 0l-5.8 5.8c-3.22 3.88-5.16 9.03-5.8 13.55-.64 8.38 2.58 15.47 10.32 23.22h3.87c7.08-7.1 10.95-14.2 10.95-22.57zm-4.5.64v.63c0 4.52-2.6 9.68-8.4 15.48-4.5-5.15-7.1-10.95-7.1-15.47v-1.28c0-5.17 3.24-10.32 7.75-14.2 5.16 4.52 7.1 9.68 7.74 14.84z"/><path stroke-miterlimit="100" d="M364.58 579.58H7.42V7.42h357.16v572.16z" fill="none" stroke="#000" stroke-width="14.84"/></svg>