<svg xmlns="http://www.w3.org/2000/svg" height="100%" viewBox="0 0 372 587"><path fill="#fffaf0" d="M0 0h372v587H0z"/><path fill="#333" d="M141.3 505.22c3.3 0 4.6-1.97 4.6-5.26s-1.3-4.62-4.6-4.62c-1.3 0-2.63.66-3.28 1.32l-1.98 3.3c0 3.3 1.98 5.26 5.27 5.26zM85.33 521.03l1.3-3.95c0-2.64-1.3-3.95-4.6-3.95s-4.6 1.3-4.6 3.95c0 3.3 1.3 5.27 4.6 5.27l3.3-1.32zM136.04 542.77c3.3 0 5.27-1.33 5.27-4.62l-1.3-3.3-3.96-1.3c-2.63 0-4.6 1.3-4.6 4.6s1.97 4.62 4.6 4.62zM213.1 538.15c3.3 0 4.6-1.97 4.6-5.26 0-2.65-1.3-4.63-4.6-4.63s-5.27 1.98-5.27 4.62l1.97 3.94c1.32 1.3 1.97 1.3 3.3 1.3zM340.2 349.8c2.64 0 4.62-2 4.62-4.6 0-3.3-1.98-4.63-4.62-4.63-1.3 0-1.97.66-3.3 1.32l-1.3 3.3c0 2.6 1.3 4.6 4.6 4.6zM326.38 386.67c3.3 0 5.26-1.97 5.26-4.6l-1.97-3.3-3.3-1.32c-3.3 0-4.6 1.32-4.6 4.6 0 2.65 1.3 4.62 4.6 4.62zM338.23 429.48c3.3 0 4.6-1.97 4.6-5.26 0-3.3-1.3-4.62-4.6-4.62s-5.27 1.32-5.27 4.62 1.98 5.26 5.27 5.26zM323.08 416.3c3.3 0 5.27-1.96 5.27-4.6 0-3.3-1.97-4.6-5.27-4.6s-4.6 1.3-4.6 4.6c0 2.64 1.3 4.6 4.6 4.6zM344.82 403.13c2.63 0 4.6-1.96 4.6-5.26s-1.97-4.62-4.6-4.62c-1.98 0-2.64.67-3.3 1.33-1.32.65-1.97 1.97-1.97 3.3l1.97 3.28 3.3 1.97zM325.06 318.84c3.3 0 4.6-1.32 4.6-3.96l-1.3-3.3-3.3-1.96c-3.3 0-5.27 1.97-5.27 5.27 0 2.62 1.96 3.94 5.26 3.94zM340.2 457.15c3.3 0 5.28-1.33 5.28-4.62 0-2.63-1.98-4.6-5.28-4.6-2.63 0-3.94 1.97-3.94 4.6 0 3.3 1.3 4.62 3.94 4.62zM328.35 544.74c2.64 0 4.6-1.32 4.6-4.6s-1.96-4.62-4.6-4.62c-3.3 0-5.27 1.32-5.27 4.6l1.98 3.3 3.3 1.32zM264.46 545.4l1.98 3.95 3.3.66c2.63 0 3.95-1.3 3.95-4.6 0-2.63-1.33-4.6-3.96-4.6-3.3 0-5.28 1.97-5.28 4.6zM155.8 530.9c2.63 0 4.6-1.3 4.6-4.6s-1.97-4.62-4.6-4.62c-3.3 0-4.6 1.33-4.6 4.62s1.3 4.6 4.6 4.6zM256.57 532.9l1.3-3.3c0-3.3-1.3-4.62-4.6-4.62S248 526.3 248 529.6s1.98 5.26 5.27 5.26l3.3-1.97zM244.05 546.06l1.32-3.3-1.32-3.3c-.66-1.3-2.64-1.3-3.3-1.3-3.3 0-4.6 1.3-4.6 4.6s1.3 5.27 4.6 5.27l3.3-1.97zM223.64 567.8c3.3 0 4.6-1.98 4.6-5.28l-1.3-3.3-3.3-1.3c-3.3 0-5.28 1.3-5.28 4.6s1.98 5.27 5.28 5.27zM169.63 540.8c-2.64 0-4.6 1.97-4.6 4.6 0 3.3 1.96 4.6 4.6 4.6 3.3 0 5.27-1.3 5.27-4.6 0-2.63-1.98-4.62-5.27-4.62zM109.7 505.88l1.97-3.95-1.98-2.64c-.66-1.32-1.98-1.98-3.3-1.98-1.3 0-1.98.65-3.3 1.98l-1.3 2.63 1.3 3.95c1.32.66 2 1.32 3.3 1.32l3.3-1.32zM71.5 556.6c3.3 0 5.26-1.98 5.26-4.6l-1.3-3.3-3.97-1.98c-2.64 0-4.62 1.97-4.62 5.26 0 2.63 1.98 4.62 4.6 4.62zM50.42 499.96c3.3 0 5.27-1.98 5.27-4.62l-2-3.3-3.28-1.96c-3.3 0-4.6 1.97-4.6 5.26 0 2.64 1.3 4.62 4.6 4.62zM36.6 455.82c3.28 0 5.26-1.97 5.26-5.26 0-3.3-1.98-4.62-5.27-4.62-2.65 0-4.62 1.33-4.62 4.62 0 3.3 1.97 5.26 4.6 5.26zM33.95 477.56c2.64 0 4.6-1.32 4.6-4.6s-1.96-5.28-4.6-5.28c-3.3 0-5.27 1.98-5.27 5.27l1.98 3.3c.66.65 1.98 1.3 3.3 1.3zM39.23 538.15l1.3-3.3c0-3.3-1.3-4.6-4.6-4.6s-4.6 1.3-4.6 4.6 1.3 4.62 4.6 4.62l3.3-1.32zM58.32 530.25c2.64 0 3.96-1.98 3.96-4.6 0-3.3-1.32-5.28-3.96-5.28-3.3 0-5.27 1.98-5.27 5.27 0 2.63 1.98 4.6 5.27 4.6zM58.98 546.06l-1.98-3.3c-.65-1.32-1.97-1.32-3.3-1.32-1.3 0-1.96 0-3.28 1.33l-1.3 3.3c0 3.28 1.3 4.6 4.6 4.6 3.28 0 5.26-1.32 5.26-4.6zM35.93 565.15c3.3 0 4.6-1.97 4.6-5.26s-1.3-4.62-4.6-4.62c-.66 0-1.98.66-3.3 1.3-.65 1.33-1.3 2.65-1.3 3.3l1.3 3.95c1.32.66 2.64 1.32 3.3 1.32zM106.4 557.9c3.3 0 5.27-1.96 5.27-5.26l-1.98-3.3c-.66-.65-1.98-1.3-3.3-1.3-1.3 0-1.98.65-3.3 1.3l-1.3 3.3c0 3.3 1.3 5.27 4.6 5.27zM114.97 534.85l1.3-3.3c0-3.28-1.3-5.25-4.6-5.25s-5.27 1.97-5.27 5.26l1.98 3.3c1.3 1.32 1.97 1.32 3.3 1.32l3.3-1.33zM93.9 546.72c2.62 0 4.6-1.98 4.6-5.28 0-2.63-1.98-4.6-4.6-4.6-3.3 0-5.28 1.97-5.28 4.6 0 3.3 1.98 5.28 5.27 5.28zM143.28 569.1c3.3 0 5.27-1.97 5.27-4.6l-1.32-3.3c-1.3-1.3-2.63-1.97-3.94-1.97-1.33 0-2 .66-3.3 1.97l-1.98 3.3c0 2.63 1.97 4.6 5.26 4.6zM177.53 526.3c2.63 0 3.95-1.32 3.95-4.62s-1.3-4.6-3.95-4.6c-3.3 0-5.27 1.3-5.27 4.6s1.98 4.62 5.27 4.62zM200.6 557.9c3.28 0 4.6-1.96 4.6-5.26s-1.32-4.6-4.6-4.6c-1.33 0-2.65.65-3.3 1.3l-2 3.3 2 3.95c.65 1.3 1.97 1.3 3.28 1.3zM180.16 567.8c3.3 0 4.6-1.98 4.6-4.62 0-3.3-1.3-5.27-4.6-5.27-2.63 0-4.6 2-4.6 5.28 0 2.64 1.97 4.6 4.6 4.6zM317.15 564.5c3.3 0 5.28-1.32 5.28-4.6s-1.98-5.28-5.28-5.28c-.65 0-1.97 1.32-3.3 1.98-.65 1.3-1.3 1.97-1.3 3.3l1.3 3.28 3.3 1.3zM255.9 564.5l1.32-3.3-1.32-3.3c-1.3-1.3-2.63-1.96-3.95-1.96-1.3 0-1.97.65-3.3 1.97l-1.3 3.3 1.3 3.3c1.33 1.32 2 1.32 3.3 1.32 1.32 0 2.64 0 3.95-1.33zM300.03 548.03c3.3 0 5.27-1.97 5.27-5.26 0-3.3-1.97-4.62-5.27-4.62-2.64 0-3.95 1.32-3.95 4.62s1.3 5.26 3.95 5.26zM282.9 563.84c3.3 0 4.62-1.32 4.62-4.6s-1.32-4.63-4.6-4.63-5.28 1.34-5.28 4.63 1.98 4.6 5.27 4.6zM344.16 565.82l1.32-3.96c0-2.63-1.98-4.6-5.28-4.6-2.63 0-3.94 1.97-3.94 4.6 0 3.3 1.3 4.6 3.94 4.6l3.96-.64zM342.84 529.6l1.98-3.3c0-3.3-1.98-4.62-5.27-4.62s-4.6 1.33-4.6 4.62l1.3 3.3c.66.65 1.98 1.3 3.3 1.3l3.3-1.3zM128.14 477.56l1.3-3.3c0-3.28-1.96-4.6-5.26-4.6-2.63 0-4.6 1.3-4.6 4.6s1.97 5.28 4.6 5.28l3.96-1.98zM128.14 557.9l1.3-3.3-1.3-3.28-3.96-1.97c-2.63 0-4.6 1.97-4.6 5.26 0 3.3 1.97 4.63 4.6 4.63l3.96-1.32zM84.67 567.8c2.63 0 3.95-1.98 3.95-4.62 0-3.3-1.32-5.27-3.95-5.27-3.3 0-5.27 2-5.27 5.28 0 2.64 1.97 4.6 5.27 4.6z"/><path d="M304.64 148.26l-7.9 54.66c-5.93 42.8-9.22 84.96-9.22 125.14 0 1.97 1.3 3.3 2.63 3.3 1.98 0 2.64-1.33 2.64-3.3.65-39.52 3.28-81.67 9.2-125.14l7.9-53.35c0-1.3 0-2.63-2.62-3.3-1.32-.65-1.98.67-2.64 2z"/><path fill="#9260C7" d="M299.38 345.2l-9.23-17.14-5.93 19.1c-1.97 11.85.66 17.12 9.22 17.12 7.9-.66 9.9-7.25 5.94-19.1z"/><path d="M290.15 325.43c-1.32 0-1.97.65-2.63 1.96-1.98 3.95-3.95 8.56-4.6 14.5-2.65 9.87-2.65 16.46 0 20.4 2.62 3.3 5.9 4.6 10.52 4.6 3.95-.64 7.25-2.62 9.23-5.9 1.97-3.97.66-11.2-2.64-19.77l-7.24-14.5-2.65-1.3zm8.56 29.63l-.64 3.3c-.66 1.97-1.98 2.63-5.27 2.63l-5.94-1.33-.66-5.93c0-5.26 1.32-11.85 3.95-19.76 5.93 9.22 8.56 16.46 8.56 21.08z"/><path fill="#9260C7" d="M319.8 273.4c-3.96 5.26-6.6 9.87-9.9 15.8l18.45-3.95c10.54-4.6 13.83-9.88 9.22-15.8-4.6-5.94-10.54-5.28-17.78 3.94z"/><path d="M307.94 291.17c.65.66 1.32 1.32 1.97.66 18.45-1.97 29-6.58 31.63-13.17 1.3-3.3.66-6.6-1.98-10.54-2.64-3.95-5.93-5.26-9.22-4.6-4.6 0-9.88 3.94-15.15 11.85-3.3 4.6-5.92 9.88-7.9 13.17 0 .66 0 1.98.66 2.63zm7.24-4.6c5.27-11.86 11.2-17.8 15.15-17.8 1.97-.65 3.3 0 5.27 2l1.3 3.93-.65 2c-1.3 3.28-8.56 6.57-21.07 9.87z"/><path d="M308.6 287.22l-19.1 14.5c-1.98.65-1.98 1.97-.67 3.28l3.3.67 19.76-13.84c1.3-1.3 1.3-2.63.65-3.3l-3.96-1.3z"/><path fill="#9260C7" d="M326.38 227.3c-3.95 4.6-7.9 9.2-11.2 15.14l17.78-1.98c11.86-2.63 15.8-7.9 11.86-14.5-3.3-6.57-9.88-6.57-18.44 1.33z"/><path d="M346.8 224.65c-1.98-3.95-4.6-5.93-7.9-5.93-7.26-.65-15.82 7.25-26.35 21.74-.66.66-.66 1.98 0 2.64.65.66 1.3 1.3 2.63 1.3 17.78.67 28.32-2.62 32.27-8.55 1.98-3.3 1.98-7.25-.66-11.2zm-8.57-.65c1.32 0 3.3.65 4.6 3.3l.67 3.28-.66 1.98c-1.97 3.95-9.88 6.58-23.05 6.58 7.9-9.88 13.82-15.14 18.43-15.14z"/><path d="M313.2 239.8L292.8 251c-2 .65-2 1.32-1.33 3.3 1.32 1.3 1.98 2.63 3.95 1.3l21.08-11.2c.65-.64 1.32-1.96.65-3.94-.65-1.32-1.97-1.32-3.95-.65z"/><path fill="#9260C7" d="M325.72 186.46c-3.96 4.6-6.6 9.87-9.22 16.46l17.12-5.27c11.2-3.95 14.5-9.88 9.22-15.8-4.6-6.6-10.53-4.6-17.12 4.6z"/><path d="M347.45 191.07c1.32-3.95.66-7.9-1.97-11.2-2.64-3.3-5.93-4.6-9.88-4.6-4.6 1.3-9.23 5.26-14.5 13.16l-7.24 13.17c-.66 1.32-.66 1.32 0 2.64.66.65 1.98 1.3 2.64.65 17.78-1.98 28.32-7.25 30.95-13.83zm-4.6-3.3v.66c-1.98 4.6-9.23 7.9-22.4 10.54 6.58-11.2 11.85-17.78 15.8-17.78 1.98 0 3.3.64 5.27 1.96l1.32 4.6z"/><path d="M314.52 200.95l-18.44 13.82c-1.98 1.32-1.98 2.64-.66 3.95 1.32 1.98 1.98 1.98 3.3.67l19.1-14.5c1.3-1.32 1.3-2.64.65-3.95h-3.95z"/><path fill="#9260C7" d="M249.32 256.93c-5.93 5.27-3.3 10.53 7.25 16.46 4.6 3.3 10.53 5.26 17.12 6.58l-7.25-16.47c-5.93-10.52-11.86-12.5-17.13-6.57z"/><path d="M273.03 282.62l2.63-.66.66-2.64c-6.58-17.12-13.17-27-19.1-28.32-3.95-.66-7.24 1.32-9.88 3.95-3.3 3.3-3.95 6.58-3.3 9.88 1.98 7.25 11.86 13.83 29 17.8zm-23.7-20.43l1.3-3.3c1.98-1.97 3.3-3.3 5.27-2.63 4.62.66 8.57 7.25 13.84 19.76-12.52-3.95-19.76-8.57-20.42-12.5v-1.33z"/><path d="M271.7 278.66c-1.3 1.32-1.3 1.98.67 3.3l17.13 16.46c.65 1.32 2.63 1.32 3.3 0 .64-1.98.64-3.3 0-3.96l-17.14-15.8c-1.32-1.97-2.63-1.97-3.95 0z"/><path fill="#9260C7" d="M281.6 225.97l-3.3-18.44c-3.96-11.2-8.56-14.5-15.15-9.88-6.58 3.95-5.93 9.88 3.3 17.78l15.14 10.54z"/><path d="M280.27 227.95h2.64l1.32-1.98c-1.3-18.44-5.27-28.32-11.85-31.6-3.3-2-7.24-1.33-11.2.65-3.3 2.63-4.6 5.93-4.6 9.22 0 5.27 3.95 9.88 10.53 15.8 5.93 3.96 9.88 7.25 13.17 7.9zm-10.53-29.64c3.95 2.65 6.58 9.9 8.56 22.4-11.2-6.58-17.13-11.86-17.13-16.46 0-1.98 1.32-3.3 3.3-4.6 1.97-1.33 3.3-1.33 5.27-1.33z"/><path d="M280.27 224c-1.97.65-1.97 1.97-.65 3.3l12.5 20.4c1.33 1.33 1.98 1.33 3.96.66 1.32-1.3 1.32-1.97.66-3.95l-13.17-19.75c-.66-1.97-1.98-1.97-3.3-.65zM62.93 138.38c-1.32 0-2.63 1.3-1.97 3.3l14.5 90.88c7.9 73.1 7.9 142.92 0 210.1 0 1.3 1.3 2.63 3.28 2.63l1.3-.67 1.33-1.32c7.25-67.17 7.25-137.63-.65-211.4l-14.5-91.55c-.65-1.97-1.3-2.63-3.3-1.97z"/><path fill="#9260C7" d="M85.33 460.44l-6.6-17.8-8.55 17.8c-3.3 11.85-.66 17.78 7.9 18.43 7.9 0 10.54-5.92 7.25-18.43z"/><path d="M80.72 441.34l-1.98-1.32c-.66 0-1.98 0-1.98 1.32-3.3 4.6-5.27 8.56-7.24 14.48-3.95 9.23-3.95 16.47-1.32 20.42 1.98 3.3 5.27 4.62 9.88 4.62 4.6 0 7.9-1.32 9.88-4.62 1.97-3.95 1.97-10.54-.66-19.75l-6.58-15.16zM84.67 469l-1.32 4.6c-1.3 1.98-2.63 2.64-5.27 2.64-2.63 0-3.95-.66-5.92-2.63v-3.94c0-5.27 1.97-12.5 6.58-21.08 3.3 8.57 5.93 15.15 5.93 20.42z"/><path fill="#9260C7" d="M116.28 391.85L103.1 406.7l18.45.8c11.86-1.6 16.47-7.06 13.17-15.66h-18.44z"/><path d="M136.04 404.46c2.63-3.3 2.63-6.6 1.3-10.54-1.96-3.96-4.6-6.6-7.9-7.25-4.6-.66-10.52 1.98-17.77 7.9l-10.54 11.2v2.64l1.98 1.98c17.8 1.98 28.33 0 32.94-5.92zm-3.3-8.57l-.65 5.26c-2.65 3.3-10.55 5.27-23.72 3.95 9.22-9.87 15.8-13.8 19.76-13.16l4.6 3.95z"/><path d="M101.8 405.1l-21.75 8.58c-1.3 1.3-1.97 2.63-1.3 3.95 0 1.97 1.3 2.63 3.3 1.3l22.37-8.55 1.32-3.95c-.65-1.97-1.97-2.63-3.95-1.3z"/><path fill="#9260C7" d="M45.15 399.84l17.13 5.28-7.9-16.47c-6.6-9.88-12.52-11.2-17.8-5.27-4.6 5.93-2.63 11.2 8.57 16.46z"/><path d="M65.57 404.46c-6.6-17.13-13.17-26.34-21.08-27-3.96-.67-7.26.66-9.9 3.95-2.62 2.64-3.28 6.6-2.62 9.9 2.63 7.23 12.5 12.5 30.3 16.45.65 0 1.3 0 2.63-.66l.67-2.64zm-28.32-15.8l1.98-3.96c1.3-1.98 2.63-2.64 4.6-2.64 4.6 1.32 9.22 7.9 14.5 19.1-12.52-3.3-19.1-7.24-21.1-11.2l.02-1.3z"/><path d="M60.3 403.8c-1.32.66-1.32 2.63.66 3.3l17.78 15.8c1.3.66 3.3.66 3.95 0 .65-1.97.65-2.64-.67-4.6l-17.78-15.16-3.95.66z"/><path fill="#9260C7" d="M114.97 343.86c-3.96 3.95-7.25 9.22-10.55 14.5l17.8-2.64c11.84-2.64 15.13-7.9 11.18-14.5-3.95-6.58-10.54-5.92-18.43 2.64z"/><path d="M126.82 333.98c-4.6 0-9.88 3.96-15.8 10.54l-9.23 13.17v2.63c1.3.66 1.3.66 2.62.66l15.15-2c8.57-1.3 14.5-4.6 16.47-8.55 1.98-2.64 1.98-6.6 0-11.2-2.63-3.3-5.27-5.27-9.22-5.27zm5.92 11.86l-1.3 1.98c-2 3.95-9.23 6.58-21.75 7.24 6.58-10.54 13.16-15.8 17.12-15.8l4.6 3.3 1.32 3.28z"/><path d="M103.1 356.38l-21.06 11.85c-1.32.66-2 2.63-.67 3.95.66 1.98 1.98 1.98 3.96 1.32l19.76-12.52c1.96-.66 2.62-2.63 1.3-3.3-.66-1.96-1.98-2.62-3.3-1.3z"/><path fill="#9260C7" d="M45.15 359l18.44 3.3c-3.3-5.27-6.6-11.2-10.55-15.15-7.9-9.2-13.82-9.88-18.44-3.3-3.94 6.6-.65 11.2 10.55 15.16z"/><path d="M63.6 364.94c.65 0 1.97-.66 1.97-1.32V361c-8.57-15.82-16.46-23.73-23.7-23.73-3.96 0-6.6 1.33-9.23 5.28-1.98 3.3-3.3 7.24-1.32 9.87 3.95 7.25 14.5 11.2 32.27 12.52zM41.85 341.9c3.95.65 9.88 5.92 16.46 17.1-12.5-1.97-19.76-4.6-22.4-8.55v-1.97l1.32-3.3 4.62-3.3z"/><path d="M61.6 361c-1.3.65-1.3 2.62.68 3.28l19.75 13.17c1.32.67 2.63.67 3.3-.66 1.3-1.98 1.3-2.64 0-3.96l-20.42-12.5c-1.3-1.33-2.62-1.33-3.3.65z"/><path fill="#9260C7" d="M107.06 291.17c-2.64 5.28-5.27 10.54-6.58 17.13l17.12-7.25c9.88-5.92 11.85-11.85 6.58-17.78-5.92-4.6-11.2-2.63-17.12 7.9z"/><path d="M125.5 281.95c-2.64-3.3-6.58-4.6-10.53-3.3-3.96 1.33-8.57 6.6-11.86 14.5-1.97 5.27-3.94 9.23-5.26 14.5l.66 2.62 2.63.66 13.84-5.93c8.56-3.95 13.17-8.56 14.48-13.17.66-3.3-.66-6.58-3.95-9.88zm-1.32 7.25v1.32c-1.3 4.6-7.9 8.56-19.75 13.82 3.95-12.5 7.9-19.1 12.5-21.07 1.33 0 3.3.66 4.62 1.98l2.63 3.95z"/><path d="M98.5 306.32L82.03 324.1c-.66 1.32-.66 2.64 0 3.96 1.32.66 3.3.66 3.95 0l15.8-17.8c1.32-1.3 1.32-1.96 0-3.94-.65-.65-1.97-.65-3.28 0z"/><path fill="#9260C7" d="M42.52 324.1l19.1-1.97c-4.62-4.6-9.22-8.56-14.5-11.86-9.88-5.93-15.8-5.93-18.44 1.32-2.63 7.9 2.64 11.84 13.84 12.5z"/><path d="M63.6 320.8c-13.18-13.16-23.06-19.1-29.65-17.1-3.3.64-5.92 2.63-7.9 7.9-1.32 3.95-.66 7.24 1.98 9.87 3.3 3.96 9.2 5.93 18.44 5.27l15.14-1.98c1.33 0 2-.66 2-1.97v-2zm-32.28-7.9c.66-1.97 1.32-3.94 3.3-4.6 4.6-.66 11.85 3.3 21.07 12.5-13.18 1.33-21.1.67-23.72-2.62-1.32-.66-1.32-3.3-.66-5.27z"/><path d="M62.28 319.5c-1.98 0-3.3 0-3.3 1.97-.66 1.32 0 3.3 1.32 3.3L83.35 332c1.32 0 2.64 0 3.3-1.3.65-1.98 0-3.3-1.98-3.3l-22.4-7.9z"/><path fill="#9260C7" d="M102.45 198.3l-7.24 17.13 17.13-7.24c10.53-5.28 12.5-10.55 7.24-16.48-5.27-5.26-11.2-3.3-17.12 6.6z"/><path d="M124.84 199.63c1.32-3.3 0-6.6-3.3-9.88-3.28-3.3-6.57-4.6-9.87-3.3-5.27 1.32-9.22 5.93-13.17 14.5l-5.93 13.83.66 2.63 2.63.67 14.5-5.27c7.9-3.96 13.17-8.56 14.48-13.17zm-7.24-5.93l1.97 3.95v.66c-1.3 4.62-7.9 9.23-19.76 13.18 3.97-11.85 8.58-18.44 13.18-20.4 2 0 3.3.64 4.62 2.62z"/><path d="M93.23 214.12L76.1 230.58c-.65.66-.65 1.98 0 3.3h3.96l16.46-16.47c1.98-1.3 1.98-2.63.66-3.28-1.97-1.32-2.64-1.32-3.95 0z"/><path fill="#9260C7" d="M37.24 231.9l18.45-1.32c-3.97-5.27-8.58-9.22-13.84-12.5-9.88-6.6-15.8-5.94-18.44 1.3-1.98 7.9 2.63 11.86 13.82 12.52z"/><path d="M21.44 219.4c-1.97 3.94-1.32 7.23 1.32 9.86 3.3 3.96 9.22 5.27 18.44 5.27l15.15-1.97 1.97-1.98v-2.63c-13.17-12.52-23.05-18.44-29.64-16.47-3.3 0-5.92 2.64-7.24 7.9zm4.6 6.57c-.65-1.32-.65-3.3 0-5.26.67-2.63 2-3.94 3.3-4.6 4.6-.67 11.86 3.3 21.08 11.85-13.18 1.98-21.07 1.3-24.37-1.98z"/><path d="M53.7 229.26c-.65 1.32 0 3.3 1.33 3.3l23.05 7.25c1.32.66 2.64 0 3.3-1.97.65-1.32 0-2.64-1.98-3.3L57 227.3c-1.97 0-3.3 0-3.3 1.96z"/><path fill="#9260C7" d="M91.25 156.82c-2.63 5.27-3.3 11.85-4.6 17.78 6.58-2.63 11.85-5.93 16.46-9.88 8.57-6.58 9.88-13.17 3.3-17.78-5.93-4.6-11.2-1.32-15.15 9.88z"/><path d="M112.98 154.84c.67-3.95-1.3-7.24-4.6-9.88-3.3-2.63-6.6-3.3-10.54-1.3-6.6 2.62-11.2 13.16-13.17 30.94l.66 2.64h3.3c15.8-7.9 24.35-15.8 24.35-22.4zm-13.17-6.58l5.3.65c1.96 1.33 3.28 2.65 3.28 4.63-.66 4.6-6.6 9.87-17.78 16.46 2.63-13.18 5.92-19.77 9.2-21.74z"/><path d="M85.33 173.28L71.5 193.04c-1.32 1.32-1.32 1.98.66 3.3h3.3l13.82-19.76c.65-1.98.65-3.3-.66-3.3h-3.3z"/><path fill="#9260C7" d="M106.4 241.12c-2.63 4.6-5.27 10.53-7.24 16.46l17.12-6.58c10.54-5.27 13.17-10.54 7.9-16.47-5.27-5.27-11.2-3.95-17.78 6.6z"/><path d="M126.16 232.56c-3.3-2.63-6.6-3.96-9.88-3.3-4.6.67-9.22 5.27-13.17 13.84l-6.58 13.83c0 .65 0 1.97.66 2.63l2.63.66c17.8-4.6 27.02-9.88 29.65-17.78.66-3.3 0-6.6-3.3-9.88zm-3.95 3.3l1.98 4.6v.66c-1.32 4.6-8.56 9.22-21.07 12.5 5.28-12.5 9.88-18.43 14.5-19.74 1.32 0 3.3.65 4.6 1.97z"/><path d="M97.84 255.6l-17.8 16.48c-1.3 1.3-1.3 2.63 0 3.3l3.3.65 17.8-16.46c1.3-.67 1.3-2.64 0-3.96-1.33-.65-2.64-.65-3.3 0z"/><path fill="#9260C7" d="M40.54 272.74l18.44-1.98c-3.95-4.6-8.56-8.56-13.83-11.86-9.88-6.58-15.8-5.92-18.44 1.32-1.96 7.9 2.65 11.85 13.84 12.52z"/><path d="M60.3 273.4l1.98-1.32-.67-3.3c-13.16-12.5-23.04-18.44-29.62-16.46-3.3 0-5.93 3.3-7.24 7.9-1.98 3.95-.67 7.24 1.3 9.88 3.3 3.95 9.23 5.27 18.45 5.27l15.8-1.98zm-30.95-11.87c.65-2.63 1.97-3.95 3.3-4.6 4.6-.66 11.84 3.3 21.06 11.85-13.16 1.98-21.06 1.32-23.7-1.97-1.32-1.3-1.32-2.63-.65-5.27z"/><path d="M57 270.1c-.65 1.98 0 3.3 1.98 3.3l22.4 7.24c1.97 0 2.63 0 3.3-1.98.65-1.32-.02-2.63-2-3.3L60.3 268.8c-1.98-.66-3.3 0-3.3 1.32zM98.5-77.65L95.86-75c2.64 43.45-4.6 92.2-22.4 147.52-9.87 27-19.1 50.7-29.63 69.8 0 1.33 0 2.65 1.98 3.3 1.32 1.32 2.64 1.32 3.3-.65 9.88-19.76 19.76-42.81 28.98-71.14C96.52 17.85 104.42-31.55 101.13-75c0-2-1.32-2.65-2.63-2.65z"/><path fill="#858585" d="M55.03-7.83c13.83.66 21.73-3.96 26.34-13.84l1.98-14.48-14.5 1.97C59-29.58 55.04-21 55.04-7.83z"/><path d="M60.96-32.2c-5.93 5.27-8.56 13.17-8.56 24.37 0 1.3 1.3 2.63 2.63 2.63 10.54 0 19.1-2.63 23.7-8.56 5.93-5.93 7.9-13.83 6.6-22.4l-1.98-2.63c-8.56-.65-16.47 1.33-22.4 6.6zm-3.3 21.74c.66-8.57 2.64-13.84 6.6-17.8 3.94-3.3 9.2-4.6 15.8-4.6 0 6.6-1.32 11.85-4.6 15.8-3.97 3.96-9.9 5.93-17.8 6.6z"/><path d="M96.52-53.94L81.37-37.47c-1.32 1.32-1.32 2.63 0 3.3.67 1.3 1.98 1.3 3.3 0l15.8-15.15c1.32-1.98 1.32-3.3 0-4.62-.66-.66-1.97-.66-3.95 0z"/><path fill="#858585" d="M47.12 36.3c13.18 1.3 22.4-2.64 27-11.87l2.64-14.48-14.48 1.3c-9.23 3.3-14.5 11.87-15.16 25.04z"/><path d="M72.16 32.34c5.26-5.93 7.9-13.17 7.24-22.4 0-1.3-.66-1.97-1.98-1.97-8.56-1.3-16.46-.66-22.4 4.62-6.58 4.6-9.87 12.5-10.53 23.7 0 1.3.65 2.63 2.62 3.3 10.55.64 18.45-2 25.04-7.26zM68.2 28.4c-4.6 4.6-9.88 5.9-17.78 5.26.66-7.9 3.3-13.83 7.9-17.12 3.96-3.3 9.88-4.6 15.8-3.3 0 5.93-1.96 11.2-5.92 15.15z"/><path d="M95.2-2.57c1.32-.65 1.32-2.63.66-3.94-.65-.67-2.63-.67-3.95 0L75.46 7.96c-1.32 1.32-1.98 2.64-.66 3.95.65 1.32 1.96 1.32 3.94 0L95.2-2.58z"/><path fill="#858585" d="M37.24 90.96c13.18.66 22.4-3.3 26.35-13.17l2.63-14.5-14.5 1.98c-9.2 3.94-14.48 11.84-14.48 25.68z"/><path d="M66.88 61.32h-7.9c-6.58 0-11.2 1.97-15.15 5.27-6.58 5.92-9.2 13.16-9.2 24.36 0 1.32 1.3 1.97 2.62 1.97 11.2 1.32 19.1-1.97 24.37-7.24 3.95-3.3 5.93-8.58 7.24-14.5v-7.9l-1.98-1.98zM47.12 71.2c3.96-3.3 9.23-5.27 16.47-5.27 0 6.6-2 11.85-5.28 16.47-4.6 3.94-9.88 5.93-17.78 5.93 0-8.57 2.63-13.84 6.58-17.13z"/><path d="M80.72 46.17L64.25 61.32c-.66 1.32-.66 3.3 0 3.96l3.95.65 16.46-15.8c.67-.66.67-2.64 0-3.96h-3.94z"/><path fill="#858585" d="M12.88 123.9c13.17 4.6 22.4 3.28 28.98-5.28l5.93-13.17c-3.97-1.32-9.24-2.64-13.85-1.98-10.53.66-17.78 7.9-21.07 20.42z"/><path d="M50.42 106.1l-1.32-2.63-7.9-2.63-15.15 1.97c-7.24 2.65-13.17 9.9-15.8 21.1-.66 1.3 0 2.62 1.97 3.28l25.02-1.32c4.62-2.63 8.57-6.58 11.2-11.85l1.98-7.9zm-15.15 15.16l-19.1.65c3.3-7.23 6.6-11.85 11.86-14.48h17.12c-1.98 6.6-5.27 11.2-9.88 13.84z"/><path d="M66.88 92.93l-20.4 10.54c-1.33.66-2 1.98-.67 3.95.67 1.32 1.33 1.32 3.3.67l19.76-10.56c1.32-.66 2.63-1.97 1.32-3.3l-3.3-1.3z"/><path fill="#858585" d="M134.06-15.08c2.64-13.17 0-22.4-9.2-28.3l-13.2-4.63-.65 14.48c1.98 10.54 9.23 15.8 23.06 18.44z"/><path d="M111.67-50.64l-2.63 1.97c-.66.66-.66 3.3-1.32 7.24 0 5.93.66 11.86 3.3 15.8 3.95 6.6 11.84 11.2 21.72 13.2 1.98 0 3.3-.67 3.3-2 2.63-10.53 1.3-18.43-3.3-25.67-3.3-3.96-7.9-7.25-13.17-9.22l-7.9-1.32zm3.95 22.4c-1.97-3.3-2.64-6.6-2.64-10.55l.67-6.58c5.92 1.32 11.2 3.95 14.5 8.57 2.62 3.94 3.94 7.23 3.94 12.5l-.67 5.93c-8.57-2.64-13.17-5.93-15.8-9.88z"/><path d="M97.84-69.08c-1.32 1.3-1.98 1.97-1.32 3.95l13.17 19.1c.65.66 1.97 1.3 3.28 0 1.98-1.32 1.98-2.64.67-3.3l-12.52-19.1-3.3-.65z"/><path fill="#858585" d="M122.86 43.54c4.62-12.52 3.3-22.4-4.6-28.98l-13.17-6.6-2.65 14.5c.66 10.54 7.24 17.13 20.4 21.08z"/><path d="M124.84 18.5c-1.98-3.94-6.58-7.9-11.86-10.53l-7.9-2.63c-.65 0-1.97 0-1.97 1.32-1.3 2.63-1.97 5.26-2.62 7.9-.67 5.92-.67 11.2 1.3 15.8 3.3 7.25 9.9 12.52 20.43 15.8 1.98 0 2.65 0 3.3-1.97 3.95-9.9 3.3-18.44-.66-25.7zM105.1 20.5c0-3.3.64-5.93 1.3-9.22 7.25 2.64 11.86 5.93 13.83 9.88 1.32 3.3 2.63 5.93 2.63 9.88l-1.3 8.57c-7.26-2.65-12.53-6.6-15.16-11.2-.66-1.98-1.3-5.28-1.3-7.9z"/><path d="M93.9-14.42c-2 1.32-2 1.98-1.33 3.96L103.1 9.29c.67 1.3 2 1.96 3.3 1.3 1.98-.65 1.98-1.97 1.32-3.94L97.18-13.1c-.66-1.32-1.97-1.98-3.3-1.32z"/><path fill="#858585" d="M118.26 92.93c3.3-12.5 0-21.73-7.9-28.32L96.5 60l-1.3 14.5c2.62 9.87 9.87 16.46 23.04 18.43z"/><path d="M117.6 67.9c-2.63-3.95-7.25-6.58-12.5-8.55l-8.58-2-1.98 2-1.97 7.24c-.66 5.92.66 11.2 3.3 15.8 3.94 6.58 11.2 11.85 22.4 13.17l2.62-1.32c2.63-10.54 1.96-19.1-3.3-26.34zm-17.13 11.86c-1.97-3.3-2.63-6.6-2.63-10.54l.66-6.58c6.6 1.97 11.2 4.6 14.48 8.56 2.64 3.96 3.96 7.9 3.96 12.5l-.66 5.94c-7.9-1.98-13.17-5.27-15.8-9.88z"/><path d="M82.7 39.6c-1.33.64-1.33 1.3-.67 3.28l12.5 18.44c.68 1.32 2 1.97 3.97 1.32 1.3-1.32 1.3-3.3 0-3.95L86.64 39.6H82.7z"/><path fill="#858585" d="M106.4 133.77c3.3-12.5 0-21.74-7.9-27.67l-13.83-5.26-1.32 14.5c1.98 9.87 9.88 16.45 23.05 18.43z"/><path d="M82.03 100.17l-1.3 7.92c-.68 5.9.64 11.18 2.62 15.8 4.6 6.57 11.86 11.2 22.4 13.16 1.97 0 2.63-.66 3.3-1.98 2.62-11.2 1.3-19.75-3.96-25.68-2.65-3.95-6.6-7.25-12.53-9.23l-7.9-1.3c-1.32 0-2.64 0-2.64 1.3zm4.6 3.96c6.6 1.32 11.2 3.96 14.5 7.9 1.98 3.3 3.96 7.25 3.96 13.18l-.67 5.27c-7.9-1.97-13.18-5.26-15.8-9.88-2-2.64-3.3-5.93-3.3-9.9 0-2.62.65-5.25 1.3-6.57z"/><path d="M70.84 79.76c-1.98 1.32-1.98 2.64-.67 3.95l11.86 18.46c1.32 1.97 2.63 1.97 3.95 1.3 1.98-1.3 1.98-2.62.66-3.94L74.8 81.08c-1.33-1.98-2.64-1.98-3.96-1.32z"/><path fill="#858585" d="M18.15 171.3c13.17.66 21.73-3.28 25.68-13.16l2.64-14.5-13.83 1.33c-9.88 3.94-14.5 12.5-14.5 26.34z"/><path d="M47.12 141h-7.9c-5.92.67-10.54 2.65-14.48 5.94-6.6 4.6-9.23 13.17-9.23 24.37 0 .66.67 1.98 2 1.98 11.18 1.32 19.1-1.97 25.02-7.9 3.3-3.3 5.92-8.56 6.58-13.83v-7.9L47.12 141zm-19.1 9.9c3.96-3.96 9.22-5.28 15.8-4.62 0 5.93-1.3 11.86-5.26 15.8-4.6 4.62-9.88 5.94-17.78 5.94.66-7.9 2.64-13.18 7.25-17.13zM362.6-108.6l-3.3.66c-9.87 17.12-19.1 39.5-27.66 67.84-18.43 55.98-25.02 112.62-19.75 168.6 0 1.97 1.3 2.63 2.63 2.63 1.97-.66 2.63-1.32 2.63-2.63-4.6-55.98 1.3-111.97 19.1-166.64 8.56-27.65 17.78-50.05 27.66-66.5.65-1.98.65-3.3-1.32-3.96z"/><path fill="#858585" d="M327.7 110.05c2.63 10.54 11.2 15.16 24.36 16.47 1.98-13.83-1.98-22.4-10.54-27.66l-14.5-3.3.68 14.5z"/><path d="M334.94 94.25l-7.9-1.32c-1.32 0-1.98 1.32-1.98 1.98-1.32 1.32-1.32 3.96-1.32 7.9 0 5.94 1.98 11.2 5.27 15.16 3.96 5.93 12.53 10.54 23.07 11.2 1.97 0 2.63-.66 2.63-1.98 1.3-10.54 0-19.1-5.93-25.03-3.3-4.6-8.57-6.58-13.83-7.9zm-1.98 21.08c-2.63-3.3-3.3-7.9-3.3-13.17v-3.3c6.6 0 11.86 2.64 15.16 6.6 3.95 3.94 5.26 8.55 5.26 15.14l-.65 2.63c-7.9-1.32-13.17-3.95-16.47-7.9z"/><path d="M311.9 75.8c-2 1.32-2 2.65-.67 3.96l13.83 17.8H329c1.33-1.33 1.33-2 .67-3.3l-14.5-17.8-3.28-.65z"/><path fill="#858585" d="M329 61.32c1.33 10.54 9.23 16.46 22.4 19.1 3.3-12.5 0-22.4-7.9-28.32l-13.83-5.27-.66 14.5z"/><path d="M350.75 55.4c-3.3-4.62-7.9-7.25-13.18-9.23l-7.9-1.98c-.66 0-1.98.65-2.64 1.97-.65.66-.65 3.3-1.3 7.9 0 5.93.64 11.2 3.28 15.15 3.96 7.25 11.2 11.86 21.74 13.18l3.3-1.32c2.63-11.2 1.32-19.76-3.3-25.68zm-4.62 2.63c2.64 3.3 3.3 7.9 3.3 12.5v5.94c-7.9-1.98-13.17-5.27-16.47-9.88-1.32-2-1.97-5.28-1.97-9.9l.64-6.58c7.25 1.32 11.2 3.95 14.5 7.9z"/><path d="M316.5 26.41c-1.98.02-2.64 1.33-1.32 3.3l11.85 18.45c1.98 1.97 2.64 1.97 3.96 1.32 1.96-1.32 1.96-2.64 1.3-3.95l-12.5-19.1h-3.3z"/><path fill="#858585" d="M336.9 23.12c2.65 9.88 9.9 15.8 23.06 17.78 2.64-12.5.67-22.4-8.56-27.66l-13.17-5.27-1.32 15.15z"/><path d="M359.3 16.54c-3.3-4.62-7.9-7.25-13.16-9.23l-7.9-1.96-2.64 1.97c-.66.67-.66 3.3-1.32 7.92-.66 5.92.66 11.2 3.3 15.14 3.95 7.25 11.2 11.2 21.73 13.18l3.3-1.98c1.97-10.54 1.32-19.1-3.3-25.02zm-19.75-5.28c6.58.67 11.85 3.96 15.15 8.57 2.63 3.3 3.95 7.24 3.95 11.85L358 37.6c-7.92-1.3-13.18-4.6-15.82-9.87-1.98-2.63-2.63-5.92-2.63-10.54v-5.94z"/><path d="M323.74-12.45c-1.3 1.32-1.3 2.64-.66 3.3l13.18 19.1 3.3.66c1.3-1.3 1.96-2.63.64-3.94L327.7-11.8l-3.96-.64z"/><path fill="#858585" d="M348.1-28.25c.67 10.54 7.26 17.8 19.77 21.73 5.26-12.5 3.3-22.4-3.95-28.98l-12.52-6.58-3.3 13.83z"/><path d="M351.4-44.72c-.65-.66-1.97 0-2.63 1.32l-2.64 7.9c-.65 5.93-.65 10.54 1.32 15.8 3.3 7.25 9.88 12.53 20.42 15.82 1.3.66 2.63 0 3.3-1.98 3.28-9.88 3.28-18.44 0-25.7-2.64-3.94-6.6-7.9-11.87-10.52l-7.9-2.64zm1.32 5.93c6.6 1.33 10.54 5.28 13.17 9.9l2.63 9.2-1.98 9.9c-7.24-3.3-12.5-7.25-13.83-12.53-1.3-1.97-1.97-3.94-1.97-7.24l1.97-9.22z"/><path d="M340.2-65.13c-1.3 1.3-1.97 2.63-.65 3.94l9.22 19.77c.66 1.98 1.98 2.64 3.95 1.98 1.32-1.3 1.32-1.98 1.32-3.3L343.5-63.8c-.66-1.3-1.3-1.97-3.3-1.3z"/><path fill="#858585" d="M275.66 135.1c13.17-1.33 21.08-6.6 23.72-17.14v-14.5c-5.28 0-9.23 1.33-13.84 3.96-8.56 5.27-12.5 14.5-9.88 27.67z"/><path d="M299.38 100.84c-9.23 0-15.8 3.3-21.74 9.87-4.6 5.28-6.6 13.85-4.6 24.4l2.62 2.62c11.2-1.32 18.44-5.27 23.06-11.86 4.6-6.58 5.26-13.83 3.3-23.05l-2.64-1.96zM282.25 114c3.3-4.6 7.9-6.58 14.5-7.9l.64 4.62c0 4.6-.66 8.56-3.3 11.85-2.63 4.6-7.9 7.9-16.47 9.22l-.65-3.96c0-5.93 1.98-10.54 5.27-13.83z"/><path d="M310.57 84.37l-13.18 17.8c-.66.64-.66 1.96 0 3.28h3.95l13.83-17.8c1.3-1.96.66-3.28-.66-3.94l-3.95.67z"/><path fill="#858585" d="M297.4 49.47l-14.5-1.32c-9.87 1.97-16.45 9.2-19.1 22.4 12.53 3.94 22.4.65 28.33-7.25 3.3-3.95 4.6-8.57 5.26-13.83z"/><path d="M298.7 46.83L275 48.15c-7.24 3.95-11.85 11.2-14.48 21.73 0 1.32.65 2.64 2.63 2.64 10.54 3.3 19.1 1.97 25.7-2.64 6.57-3.95 10.53-11.2 11.18-20.4l-1.32-2.65zM277 52.76l17.12-1.32c-1.3 6.6-4.6 11.86-8.56 14.5-4.6 3.3-11.2 3.94-18.44 1.97 2.64-7.9 5.93-13.17 9.88-15.14z"/><path d="M315.18 35.64l-19.1 11.85c-1.98.65-1.98 1.97-.66 3.28l3.3.66 19.1-11.2c1.97-.65 1.97-2.63 1.3-3.95-1.3-1.32-2.62-2-3.94-.66z"/><path fill="#858585" d="M276.32 39.6c13.83.64 22.4-3.3 27-11.87 2.64-4.6 3.3-9.22 3.3-14.5l-14.5 1.33c-9.87 2.63-15.14 11.2-15.8 25.03z"/><path d="M309.26 13.24c0-1.3-.67-1.98-2.64-2.63-8.56-1.3-16.47 0-23.05 4.62-5.93 5.27-9.23 13.17-9.88 24.37 0 1.3.64 1.96 2.62 1.96 10.54 1.32 19.1-.66 24.37-6.58 5.92-5.27 9.2-13.18 8.56-21.74zm-29.64 23.7c.65-7.9 3.3-13.82 7.24-17.1 4.6-3.3 9.88-4.62 16.47-3.96 0 7.24-2.64 11.85-5.94 15.14-3.95 4.62-10.54 5.93-17.78 5.93z"/><path d="M325.72-3.22h-3.96l-17.12 14.48-1.3 1.98.64 1.98h3.96L325.06.72c1.32-1.3 1.32-2.63.66-3.94z"/><path fill="#858585" d="M305.96-32.2c-9.88 3.3-14.5 11.86-15.15 25.68 13.84.66 22.4-3.3 26.35-13.17 2.64-4.6 3.3-9.2 2.64-14.48l-13.84 1.98z"/><path d="M298.06-30.9c-5.93 5.28-9.23 13.2-9.23 24.38 0 1.32.67 1.98 1.98 1.98 11.2 1.32 19.1-1.98 25.04-7.25 5.27-5.9 7.9-13.16 7.24-22.38 0-1.32-.65-1.97-2.63-1.97-8.56-1.98-16.47 0-22.4 5.26zm-3.96 21.1c.67-7.9 2.64-13.18 7.25-16.47 4.6-3.95 9.88-5.93 15.8-5.28 0 6.6-1.3 11.86-5.26 15.8-4.63 4.62-9.9 6.6-17.8 5.94z"/><path d="M334.94-51.3l-16.47 15.8c-1.32 1.32-1.32 2.64 0 3.3.66 1.32 1.98 1.32 3.96 0l16.46-15.15c.65-.66.65-1.97 0-3.3l-3.96-.66z"/><path fill="#858585" d="M305.96 140.35c-3.95 9.22-1.32 18.44 7.9 27.67 9.88-9.23 12.52-18.45 9.22-27.67l-8.56-11.85-8.56 11.85z"/><path d="M313.2 125.86l-5.93 5.93c-3.94 5.26-5.26 9.87-5.92 15.14-.66 7.25 2.63 15.15 11.2 23.05.65 1.3 2.63 1.3 3.3 0 7.9-7.26 11.84-15.16 11.18-23.06 0-5.27-1.3-9.88-5.27-15.15l-5.27-5.94c-1.32-.65-2.64-.65-3.3 0zm-6.58 22.4v-1.32c0-5.27 3.3-10.54 7.9-15.15 5.27 5.26 7.24 9.87 7.9 15.14v1.32c0 4.6-2.63 9.88-8.56 15.14-4.6-5.26-7.24-10.54-7.24-15.14zM124.18-80.28c-1.3 1.32-1.3 2.63.67 3.3 28.97 19.1 54 61.9 77.05 130.4 11.86 34.24 19.75 67.17 25.7 98.13l.64 1.98h2.64l1.3-1.32.67-1.97c-6.6-32.93-15.14-67.18-26.34-100.76-23.04-67.85-48.73-111.3-79.03-130.4-1.3-1.32-2.63-1.32-3.3.65z"/><path fill="#858585" d="M239.44 131.8c4.6 8.55 13.83 12.5 27 11.18-.66-13.82-5.92-21.72-15.8-25.02l-13.83-.66 2.64 14.5z"/><path d="M258.54 119.28c-3.95-3.3-8.56-5.27-14.5-5.27l-7.9.67c-1.97.66-1.97 1.3-1.97 2.63-.65.66-.65 3.3 0 7.9 1.98 5.27 3.95 9.88 7.24 13.83 5.94 5.93 14.5 7.9 25.7 6.6l1.98-3.3c-.66-10.54-4.62-18.44-10.54-23.05zm5.27 21.07c-7.9 0-13.82-1.32-17.77-5.26-4.6-3.96-6.6-9.24-6.6-15.82 6.6-.66 11.86 1.32 16.47 4.6 3.96 3.3 6.6 8.57 7.9 16.47z"/><path d="M217.05 100.84c-.66 1.3-.66 3.3.66 3.95l16.47 14.48 3.95-.66c1.32-1.32 1.32-2.64 0-3.3L221 100.85h-3.95z"/><path fill="#858585" d="M225.6 82.4c4.62 9.22 13.84 13.17 27 11.2-1.3-13.84-5.92-21.74-15.8-24.38l-14.48-1.3 3.3 14.48z"/><path d="M244.05 69.88c-3.3-3.3-8.56-4.6-14.5-5.27l-7.9 1.33c-1.3 0-1.97.66-1.97 1.98-.65 1.33 0 3.3.66 7.9 1.3 5.94 3.95 10.55 7.25 13.84 6.57 5.93 15.13 7.9 25.67 6.6 1.32 0 1.98-.67 1.98-2.65-.66-11.2-4.6-19.1-11.2-23.72zm-19.1.66c6.58-.66 12.5.66 16.46 3.95 4.62 3.3 6.6 8.55 7.92 16.46-7.9.66-13.17-1.32-17.8-5.27-3.93-3.96-6.57-9.23-6.57-15.16z"/><path d="M203.22 52.1c-1.32 1.32-1.32 2.63 0 3.95l17.12 13.83h3.95c.65-1.3.65-2.64 0-3.95l-17.8-14.5-3.28.67z"/><path fill="#858585" d="M215.07 42.88c6.58 8.56 15.8 11.2 28.98 7.9-2.64-13.17-9.23-21.07-19.1-22.4l-14.5 1.33 4.62 13.18z"/><path d="M232.85 28.4c-4.6-1.98-9.2-3.3-15.14-3.3-3.94.66-6.58 1.3-7.9 1.97-1.3 0-1.97 1.32-1.97 2.64l1.97 7.9c1.98 5.28 4.62 9.23 9.23 12.52 6.6 4.6 15.14 5.93 25.68 2.64 2 0 2.65-1.32 2-2.64-2.65-10.53-6.6-18.44-13.85-21.73zM213.75 31L230.9 33c3.95 2.64 7.24 7.9 9.88 15.15-7.9 1.32-13.83.66-18.44-1.98-4.6-3.3-7.9-8.56-8.56-15.15z"/><path d="M189.4 15.88c-1.33 1.3-.67 2.63.64 3.95l19.1 11.85c1.98 1.32 2.64.67 3.96-1.3.66-.67.66-2.65-1.32-3.3L193.34 15.2l-3.95.66z"/><path fill="#858585" d="M200.6-9.8c7.88 6.58 17.1 6.58 28.96 0-5.92-12.52-14.5-17.8-24.37-16.47l-13.84 4.6 9.22 11.86z"/><path d="M190.04-22.98c-1.3 0-1.3 1.3-1.3 2.64l4.6 7.24c3.3 4.6 7.24 7.9 11.85 9.88 7.9 1.97 15.8.66 25.68-4.6 1.97-.67 1.97-2 .65-3.97-4.6-9.87-11.2-15.13-18.44-17.1l-15.8 1.97-7.26 3.95zm21.74 0c5.27.66 9.22 4.6 13.83 11.85-7.24 3.3-12.5 4.62-17.77 2.63-5.93-1.96-9.88-5.92-13.18-11.84 5.94-3.3 11.86-4.62 17.13-2.64z"/><path d="M167.66-28.25c-.67 1.98 0 2.63 1.3 3.3l22.4 5.92c1.32.65 2.64 0 2.64-1.98.66-1.32 0-1.98-1.98-2.64l-21.07-6.58c-1.98-.67-2.64.65-3.3 1.97z"/><path fill="#858585" d="M180.16-49.33c8.56 3.95 18.44 1.32 28.32-7.24-8.56-10.54-17.77-13.83-27-10.54l-12.5 7.9 11.18 9.88z"/><path d="M167-61.19c-1.33 1.34-1.33 2 0 3.3l5.26 5.94c4.6 3.95 9.22 5.93 14.5 6.58 7.9 1.32 15.14-1.97 23.7-9.22.66-1.3.66-2.63 0-3.95-6.58-7.9-13.83-12.5-22.4-12.5-4.6 0-9.87 1.97-14.48 5.26l-6.6 4.6zm20.4 10.56c-6.57-.67-11.85-3.96-15.14-8.56 5.27-4.62 10.54-6.6 15.8-6.6s10.54 3.3 16.48 9.23c-6.6 4.6-12.52 7.24-17.13 5.93z"/><path d="M143.94-61.19c0 2 .66 2.65 1.98 2.65l22.4 1.98c2.63 0 3.28-1.32 3.28-2.63 0-2-.65-2.64-2.63-2.64l-22.4-1.98c-1.3 0-2.63 1.32-2.63 2.63z"/><path fill="#858585" d="M151.84-17.7c-5.26-.68-9.87 1.3-13.82 3.28-9.23 5.27-13.18 14.5-11.2 27.66 13.83-1.32 21.73-6.58 24.37-16.46l.65-14.5z"/><path d="M154.48-18.38l-2.63-1.96c-9.23-.67-15.8 2.63-21.74 8.55-5.26 5.94-7.24 14.5-5.92 25.04 0 1.98.66 2.64 2.64 2.64 11.2-1.32 18.44-5.27 23.7-11.2 4.62-6.6 5.94-14.5 3.96-23.05zM134.06-7.82c3.96-4.62 9.23-7.25 15.15-7.25v3.95c0 4.62-.65 9.22-3.28 12.5-3.3 4.63-8.56 7.26-16.47 8.58l-.65-3.3c0-5.92 1.97-11.2 5.26-14.48z"/><path d="M163.7-36.8l-14.5 17.1c-.65 1.32-.65 3.3.67 3.96 1.98 1.32 2.63.66 3.95-.65l13.84-17.12c1.3-1.32 1.3-2.63 0-3.95l-3.96.66z"/><path fill="#858585" d="M113.65-45.38c-8.56 4.62-12.52 13.83-11.86 27 13.82-.65 22.38-5.92 25.68-15.8l.66-14.5c-5.28 0-9.88 1.33-14.5 3.3z"/><path d="M130.77-48.67l-2.63-2.64c-8.57 0-16.47 2.63-21.74 8.56-5.93 5.27-7.9 13.83-6.6 25.03 0 1.3 1.33 1.96 2 1.96 11.18-.65 19.1-3.95 24.36-10.53 4.6-5.93 6.58-13.18 4.6-22.4zm-5.27 3.3l.66 2.63c0 5.27-1.3 9.88-4.6 13.83-3.3 3.94-8.57 6.58-16.47 7.23l-.67-1.3c0-6.6 1.97-11.87 5.26-16.48 4.6-3.95 9.87-5.93 15.8-5.93z"/><path d="M140.65-67.1L126.15-50c-1.3 1.3-1.3 2.63 0 3.95 1.32.65 2.64.65 3.3 0l15.15-17.8v-3.94l-3.95.66z"/><path fill="#858585" d="M192.02 120.6c-7.9 6.58-10.54 16.46-6.6 28.97 12.53-2.63 20.43-9.22 22.4-19.1l-1.97-15.14c-4.6.65-9.22 2.63-13.83 5.27z"/><path d="M197.95 115.33c-5.93 1.97-9.88 5.27-12.52 9.22-3.95 5.93-5.27 14.5-2.63 25.68 1.32 1.32 1.98 1.98 3.3 1.98 10.53-1.97 17.78-7.23 21.73-13.82 1.97-4.6 3.3-9.88 2.63-15.8l-1.97-7.9c-.67-1.33-2-2-3.3-2l-7.25 2.65zm-9.88 30.3l-1.32-6.6c0-3.94.66-7.9 3.3-11.85 2.63-4.6 7.9-7.9 14.48-8.56l.66 7.24-2 9.23c-2.6 5.25-7.9 8.55-15.13 10.52z"/><path d="M215.07 94.9l-11.2 19.1c-1.3 1.33-.65 3.3.66 3.96 1.98.66 3.3.66 3.3-.66l11.85-19.76c1.32-1.32 1.32-1.97-.65-3.3l-3.96.67z"/><path fill="#858585" d="M181.48 75.8c-6.58 6.6-7.9 16.48-2.63 29 12.5-5.28 19.1-12.52 19.1-22.4l-3.3-14.5c-4.6 1.32-9.22 3.96-13.17 7.9z"/><path d="M196.63 66.6c-.66-.67-1.98-1.33-2.63-.67-1.98 0-3.96.66-7.9 3.3-4.62 2.63-8.57 6.58-11.2 10.53-3.3 7.9-2.64 16.46 1.97 25.7.66 1.96 1.32 2.62 3.3 1.96 10.54-3.95 16.46-9.88 19.1-17.78 1.97-4.6 1.97-9.88 0-15.15l-2.64-7.9zm-1.98 21.73c-2.63 5.26-6.58 9.2-13.82 12.5-2-4.6-2.64-7.9-2.64-10.53l1.96-7.9c1.98-4.6 6.6-8.57 12.52-11.2 1.97 3.96 2.63 7.25 2.63 11.2l-.65 5.93z"/><path d="M200.6 46.17l-9.24 21.07c0 1.98 0 2.64 1.98 3.3 1.3.66 1.97.66 3.3-1.32l8.55-21.07c1.3-1.32 0-1.98-1.32-3.3-1.98-.66-2.64 0-3.3 1.32z"/><path fill="#858585" d="M168.3 38.27c-7.23 7.9-7.9 17.78-1.96 29.64 11.85-5.26 18.44-13.17 18.44-23.7l-3.95-13.84c-5.28 1.32-9.23 3.95-12.52 7.9z"/><path d="M185.43 36.3l-3.3-6.6c0-1.97-.65-1.97-2.62-1.97l-7.24 3.95c-4.6 2.63-8.56 6.6-10.54 11.2-3.3 7.9-2.63 16.47 2.64 26.35 0 .65 1.3 1.3 3.3.65 9.87-3.95 15.8-9.88 18.43-17.12 1.97-5.27 1.3-10.54-.67-16.47zm-17.78 27.65c-1.98-4.6-2.63-7.9-2.63-11.2l1.97-7.9c1.97-4.6 5.92-8.56 11.85-11.2 1.98 4.62 2.63 7.9 2.63 11.2l-.65 5.93c-1.98 5.27-5.93 9.22-13.18 13.17z"/><path d="M186.1 8.63l-7.9 21.08c-.67 1.32 0 3.3 1.3 3.3 1.98.66 2.64 0 3.3-1.32l8.56-21.07c0-1.97 0-3.3-1.97-3.3-1.33-.64-2.65-.64-3.3 1.33z"/><path fill="#858585" d="M227.6 165.38c0 9.88 6.57 17.78 19.74 21.08 5.27-11.86 3.3-21.74-3.94-28.98l-13.18-6.58-2.63 14.48z"/><path d="M227.6 150.23l-2.65 7.25c-.66 5.92-.66 10.54 1.32 15.8 3.3 7.25 10.54 12.5 20.42 15.8 1.3.67 2.62 0 3.28-1.3 3.95-10.54 3.95-19.1 0-26.35-2.64-3.95-6.6-7.9-11.86-9.88l-7.24-3.3c-1.32 0-2.64 0-3.3 1.98zM246 183.16c-7.9-3.3-12.5-6.58-15.14-11.85l-.66-7.9c0-2.63.66-5.92 1.3-9.2 5.94 1.96 11.2 5.25 13.18 10.52 1.98 1.98 2.64 5.27 2.64 8.56l-1.32 9.88z"/><path fill="#F00" d="M122.86 92.93C120.9 141 122.2 193.7 127.48 251c10.54 115.9 36.22 199.56 75.08 250.93l130.4-5.27c-42.8-54-72.44-138.3-86.27-250.93-6.6-56.64-9.9-107.35-8.58-153.45l-115.26.65z"/><path d="M240.76 89.64l-2.64-.66-115.26.66c-1.97 0-3.3 1.32-3.3 3.3-1.96 48.73-.65 102.08 5.28 160.7 10.54 115.25 36.23 198.9 75.08 250.27.67 1.32 1.32 1.32 2.64 1.32l130.4-5.26 3.3-1.33-.66-3.3c-42.8-54-71.14-136.97-84.96-248.28-7.25-56.64-9.88-108.02-9.23-154.77l-.64-2.64zm-5.93 5.93v11.85c0 59.28 5.27 116.58 14.5 173.2 14.48 93.54 40.82 164.67 77.05 213.4l-121.85 4.6c-30.95-40.82-52.7-102.73-65.86-185.7-9.22-54.02-13.17-113.3-13.17-177.18l.66-39.52 108.67-.65z"/><path stroke-miterlimit="100" d="M364.58 579.58H7.42V7.42h357.16v572.16z" fill="none" stroke="#000" stroke-width="14.84"/></svg>