<svg xmlns="http://www.w3.org/2000/svg" height="100%" viewBox="0 0 372 587"><path fill="#fffaf0" d="M0 0h372v587H0z"/><path fill="#858585" d="M301.42 284.5l8.5-19.62c-24.2 2.6-41.2 13.08-51.65 32.7-5.23 9.14-7.85 18.95-7.85 28.1l51 32.05c8.5-17.66 22.9-35.3 41.85-54.93l25.5-22.9c-16.34-8.5-32.04-9.8-48.38-5.22l-18.98 9.8z"/><path d="M307.96 276l4.58-10.47.65-.65-.66-2.62-3.27-.65c-24.85 2.62-43.16 13.74-53.62 34.66-5.23 9.8-7.85 19.62-8.5 29.43l1.96 2.6 50.36 32.04 2.62.66 1.96-1.96c8.5-17 22.88-34.66 41.2-52.97l25.5-24.2 1.3-2.6-1.3-2.62c-21.58-10.47-42.5-11.12-62.78-.66zm-9.8 8.5l1.3 1.95h3.93l16.98-8.5c13.74-3.92 27.47-3.27 41.86 3.27-9.16 7.85-18.97 16.35-28.12 26.8-15.04 15.05-26.16 30.75-34 45.13l-46.43-29.42c1.3-9.8 3.92-18.97 9.14-27.47 8.5-14.4 22.24-23.54 41.2-27.46l-5.9 14.38v1.3z"/><path d="M340 283.2c-17.65 6.52-33.35 15.68-47.73 28.1-7.2 5.9-13.08 11.77-17 17.66-.66.65 0 1.96.65 2.6h2.62l16.34-17.64c13.74-11.77 30.08-20.93 46.43-26.8 1.32 0 1.97-.67 1.32-2.63-.66-1.3-1.3-1.3-2.62-1.3z"/><path d="M287.7 281.88l-5.24 11.1c-3.27 9.17-3.27 18.32.66 28.78 0 .66 1.3 1.3 2.6.66.66 0 1.32-.66.66-1.96-2.6-9.8-3.27-17.66-.65-26.16 1.3-4.58 3.27-7.85 5.23-9.8l-.65-2.62h-2.6z"/><path fill="#858585" d="M256.3 462.35l-4.57 32.7c-1.3 24.2 3.92 41.2 15.7 51 1.95-5.9 7.18-13.73 13.72-24.85l18.3 18.3c18.98 12.43 44.48 18.97 76.52 20.28l-7.85-97.43c-5.88-6.54-13.73-12.42-23.54-18.3-19.62-12.43-38.58-17.66-58.2-17l-30.07 35.3z"/><path d="M253.7 459.73l-.66 1.3-4.58 35.33c-1.3 24.84 4.57 42.5 17 52.3l2.6.66 1.98-1.96 11.1-19.62c6.55 7.85 15.05 14.4 26.82 20.27 17.66 9.16 39.9 13.74 67.35 15.05l2.63-1.3 1.3-1.97-7.84-98.08-.66-1.97c-7.2-6.53-15.04-13.07-25.5-18.96-19.62-12.42-39.24-17.65-58.86-17-.65 0-1.3 0-1.96.65l-30.73 35.3zm12.4 81.1c-7.18-9.82-11.1-22.9-11.1-39.9 0-14.4 1.3-26.8 4.57-37.93l28.78-32.7c17-.65 34 4.6 51.65 14.4 10.46 5.88 18.3 12.42 24.85 18.96l7.2 92.2c-29.43-1.3-52.97-7.2-70.63-18.97l-17.65-17c-.65-1.32-1.3-1.97-2.62-1.97l-3.27 1.3c-5.23 8.5-9.15 15.7-11.77 21.6z"/><path d="M287.7 447.97c-1.97 0-1.97 1.3-1.32 2.6l24.2 33.36c18.96 25.5 37.92 45.12 57.54 61.47h2.6c1.32-1.3.67-1.97 0-3.28-19.6-15.7-38.57-35.96-57.53-60.8l-23.55-32.7c-.65-1.3-1.3-1.96-1.96-.65z"/><path d="M293.58 459.73c-1.3 1.3-2.62 7.2-4.58 16.35-1.96 13.08-2.62 24.2-1.3 34.66l1.95 1.96 1.96-2.6c-1.3-9.82-.64-20.94 1.32-33.36l4.58-16.35c0-.67 0-1.32-1.96-1.98-.66-.65-1.3-.65-1.96 1.3zM313.85 487.2l.65 14.38c.65 11.12 2.62 20.93 5.88 30.08l1.97 1.3c1.96-.64 1.96-1.3 1.96-2.6-3.26-9.16-5.22-18.97-5.88-28.78l-.65-13.73c0-1.3-.65-1.96-1.96-1.96-.65 0-1.95 0-1.95 1.3zM308.62 481.97c0 .65.65 1.3 2.6 1.3l18.97 2.62c14.38 1.3 28.1 4.57 39.22 8.5 1.3.64 2.62 0 2.62-1.32.65-.65.65-1.96-1.3-2.6-11.12-3.94-24.86-7.2-39.9-8.5l-19.6-2.63c-1.97 0-2.62.66-2.62 2.62z"/><path fill="#858585" d="M136 432.93l-11.13.65c-9.15 2.6-18.3 7.2-26.8 15.7l-20.93 22.88c-5.23 5.23-9.8 8.5-14.4 9.8l35.32 1.97-40.54 54.93 24.85 6.54c19.62 2.6 37.27 1.3 53.62-4.58 15.68-5.9 29.42-13.08 41.84-20.93l13.73-9.8-3.27 12.4c-1.96 9.16-5.23 15.05-7.85 18.32 7.85-2.62 16.35-7.85 24.2-14.4 17.65-13.72 27.46-32.03 29.42-53.6L136 432.9z"/><path d="M237.34 472.8l-1.96-3.26-98.74-39.9H136l-11.78.67c-9.8 2.62-18.96 7.86-28.77 16.36-6.54 5.88-13.08 13.07-19.62 20.27l-6.54 8.5c-1.97 1.3-5.24 3.27-7.2 3.27-1.3.65-2.62 1.3-2.62 3.27l2.62 3.27 28.77 3.27c-18.3 22.9-30.08 39.24-35.3 47.74l-1.32 2.62.66.65 1.97 1.97 26.15 7.2c20.27 2.6 37.93 1.3 53.62-4.58 19.62-7.86 36.62-16.36 50.35-26.17-3.28 11.12-6.55 17.66-9.16 20.93l-.66 1.96.66 1.3c.65 1.97 1.96 2.62 3.27 1.97 9.16-3.28 17-8.5 26.16-15.7 17.66-15.05 28.12-32.7 30.08-55.6zm-136.66 9.82c-.65-.65-1.96-1.96-3.27-1.96L72.57 480l9.16-9.15c5.23-7.2 11.77-13.73 18.3-19.6 7.85-6.55 16.35-11.13 24.2-13.75l10.46-1.3 95.47 37.92c-3.27 26.8-17 46.43-41.85 59.5 3.27-7.84 5.88-15.7 6.54-22.88v-.65l-1.3-2.63-3.28.65-14.38 9.8c-12.43 7.86-26.16 14.4-41.2 19.63-20.92 7.85-44.47 7.85-71.93-.65l37.93-51 .65-1.97-.65-1.3z"/><path d="M171.3 463c-15.7 16.35-34.66 31.4-56.24 46.43l-29.42 17c-.66.65-1.3 1.3-.66 2.62l1.97.65 29.42-17c22.9-15.7 41.85-30.73 57.54-46.43.67-1.3.67-2.6 0-3.27h-2.6z"/><path d="M137.95 492.43l-3.92 13.73c-3.93 9.15-9.16 16.35-15.7 22.23-1.3.65-1.96 1.3-.65 2.6.65 1.32 1.96 1.32 2.62 0 7.84-5.22 13.07-13.07 17.65-23.53l3.92-14.4-1.3-1.95-2.62 1.3zM175.22 467.58c-.65 0-1.3.65-1.3 1.96l-.66 14.4c-2.62 11.1-7.2 20.9-15.04 28.76-.65.65-.65 1.3 0 1.96 1.3 1.3 2.62 1.3 3.27 0 8.5-8.5 13.07-18.3 15.68-29.42l.66-15.7c0-1.96-.66-2.6-2.62-1.96zM145.8 485.9l-35.3 3.26c-1.32 0-1.97 0-1.32 1.96l2.62 1.3 11.1-1.3 22.9-1.3 2.6-1.3-2.6-2.63zM100.03 464.3c-1.3 0-1.97 1.32-1.3 2.63l2.6.65 14.4-3.27 29.4 1.32 1.97-1.3c.66-1.32 0-1.97-1.3-1.97l-30.74-1.96-15.03 3.9zM209.22 460.4c-1.96 0-1.96.64-1.96 2.6l.66 13.08c0 9.8-1.3 18.3-3.93 24.2 0 1.3 0 2.6.65 2.6 1.96.66 2.6 0 2.6-.64 3.28-6.54 4.6-15.7 5.24-25.5l-1.32-14.4c0-1.95-.65-1.95-1.96-1.95z"/><path fill="#858585" d="M118.33 372.1c-4.57-3.9-11.1-7.84-19.6-11.1-16.36-7.85-33.36-9.16-51.02-5.9L51 361c1.96 3.92 5.23 7.85 8.5 10.46l-15.7 7.85c-11.76 8.5-22.88 19.62-33.34 34.66 3.27 2.62 7.85 5.23 13.08 7.2 11.12 5.22 22.23 7.84 32.7 8.5 17.65 1.3 31.38.65 41.2-.66 14.37-1.96 26.8-8.5 35.3-18.3 8.5-9.16 8.5-18.32 0-27.47l-14.4-11.12z"/><path d="M142.53 396.96l-.66-3.92c-1.3-8.5-8.5-15.7-21.57-23.54-7.2-5.23-14.4-9.8-21.58-13.08-17-6.54-34-7.85-52.3-4.58l-1.97 1.3v3.29l2.6 4.58 6.55 9.15c-16.35 7.2-31.4 20.93-45.12 41.85l-1.3 1.97 1.96 3.27c13.72 9.15 28.77 14.38 47.07 15.7 17.67 1.3 32.7.64 42.52-1.32 15.7-2.62 27.46-8.5 36.62-18.96 5.22-5.24 7.2-10.47 7.2-15.7zm-26.16-22.23l.66.65 9.15 5.23c5.23 4.6 8.5 9.17 9.8 13.74.66 4.58-1.3 9.16-5.22 13.74-8.5 9.15-19.62 15.03-33.35 17.65-9.8 1.3-23.53 1.96-41.2.65-14.37-1.3-27.45-5.23-40.53-13.08 9.16-13.07 19.62-24.2 30.74-31.38l13.74-7.2 2.6-2.6v-.66l-1.3-2.62-8.5-11.1c15.7-2.63 30.74 0 45.78 6.53 7.84 3.27 13.07 7.2 17.65 10.46z"/><path d="M115.72 387.8c-18.96 1.32-38.58 4.6-58.2 11.13l-25.5 9.15c-1.3 0-1.96 1.3-1.3 2.6.65.67 1.3 1.32 2.6.67 6.55-2.62 14.4-5.9 24.86-8.5 20.27-5.9 39.23-9.82 58.2-11.12l1.3-1.3-1.96-2.62z"/><path d="M69.3 366.88c-.66 1.3 0 1.97 1.3 1.97l11.12 5.22c8.5 4.58 17 10.47 23.54 18.32 1.3 1.3 1.96 1.3 3.26 0 .66-1.32.66-1.98 0-3.28-7.84-7.2-16.34-13.74-24.84-18.32l-11.77-5.88c-1.95 0-2.6.65-2.6 1.96z"/><path d="M98.72 390.42c-8.5 13.08-17 20.93-24.85 24.85-.65.65-1.3 1.96-.65 2.62.65 1.95 1.3 1.95 2.6.64 8.5-3.92 17.67-12.43 26.17-26.15 1.3-1.32.64-1.98 0-1.98H98.7zM52.94 387.15c-.65 1.3 0 1.97 1.3 2.62l7.86 1.96c5.23 1.96 10.46 3.27 14.38 5.88 1.3.67 2.62 0 2.62-.64 1.3-1.96.66-2.6-.65-2.6-4.58-2.63-9.16-4.6-15.7-6.55l-7.84-1.95c-.65-.66-1.96 0-1.96 1.3z"/><path fill="#858585" d="M112.45 245.9c-.66 5.9-2.62 11.13-5.23 15.7-5.23-3.26-11.12-6.53-18.3-9.8-15.05-7.2-27.47-9.8-38.6-9.8l3.93 9.8c1.96 8.5 1.96 17 0 24.85-1.96 10.46-1.3 20.92 1.96 32.04 4.6 10.45 9.82 17.64 17.67 20.9l31.38 8.5c14.4 3.28 24.2 7.2 29.43 11.13l9.8-9.15c6.55-6.54 9.82-13.08 9.16-17.66-.65-9.15-2.6-19.62-5.88-30.73-7.2-22.9-18.96-41.2-34.66-53.63l-.65 7.84z"/><path d="M111.8 235.45c-1.97 0-1.97 1.3-1.97 2.62v1.3c0 5.9-1.3 11.77-3.92 17.66-7.18-4.58-14.38-8.5-22.22-11.77-12.42-4.58-23.54-6.54-34-6.54-.66 0-1.96.65-1.96 1.96v3.27c.65 0 1.96 3.27 3.27 9.16 1.95 7.2 1.95 15.05 0 23.55-1.98 10.46-1.32 21.57 2.6 32.7 3.93 12.4 10.46 19.6 19.62 22.88 5.88 2.6 13.08 4.58 22.23 6.54l20.93 5.23c6.53 1.96 11.76 4.57 15.7 7.84h3.9c15.05-10.46 21.6-20.27 20.93-29.42-.64-10.47-2.6-21.58-6.52-32.7-7.85-22.88-18.97-41.2-35.3-54.27h-3.3zm-55.6 53.62l3.28-24.2c0-6.53-1.96-13.07-3.92-19.6 10.46.64 21.58 3.9 33.35 10.45l16.36 9.16h2.6l1.97-1.3c3.27-5.24 5.23-11.13 5.9-18.32 13.07 13.08 22.87 29.43 29.4 49.7 2.63 10.46 4.6 18.96 5.24 27.46v1.3c0 5.24-5.23 12.43-16.34 21.58-6.54-4.58-18.97-9.15-37.27-13.07l-20.93-5.9c-5.88-1.95-10.46-6.53-13.73-13.72-3.92-7.18-5.9-15.03-5.9-23.53z"/><path d="M68.64 255.07c-1.3 1.3-1.96 1.96-1.3 3.27l21.57 26.8c16.35 20.93 32.7 37.28 49.05 50.36 1.3.65 1.3.65 2.62 0 .65-.66.65-1.96 0-3.27-15.7-12.43-32.04-29.43-49.05-49.05L70.6 255.72l-1.96-.65z"/><path d="M64.06 286.45c0 1.3 0 2.62 1.3 3.27 10.47 4.58 21.6 6.54 32.7 4.58l1.3-1.3c0-1.97-.64-2.62-2.6-1.97-9.8 1.3-19.62-.65-29.43-5.23-1.3-.66-1.96 0-3.27.65zM119 264.88l-2.63 13.73c-1.96 10.47-6.54 17.66-11.77 21.6-1.3.64-1.3 1.95-.65 2.6l2.62.65c6.53-4.57 11.1-13.07 13.73-22.88l2.6-15.7-1.95-1.3c-1.3 0-1.96 0-1.96 1.3zM72.56 308.7c0 .64 0 1.3 1.3 1.95 18.32 5.9 34 8.5 45.78 8.5l1.96-2.6-1.96-1.33c-11.77.66-26.8-2.6-44.46-8.5-1.3 0-2.62 0-2.62 1.97zM131.4 284.5c-.64 0-1.3 1.3-1.3 1.95l.66 12.43c0 8.5-2.62 17-5.9 23.54-.64 1.3 0 2.6 1.32 2.6 1.3.67 1.96.67 1.96-.64 3.93-7.85 6.54-15.7 6.54-25.5l-.65-12.43c0-1.3-.66-1.96-2.62-1.96z"/><path fill="#D96038" d="M181.1 355.77v75.85h91.55v-75.85H181.1z"/><path d="M181.1 353.15c-1.3 0-2.6 1.3-2.6 2.62v75.85c0 1.96 1.3 2.6 2.6 2.6h91.55c1.96 0 3.27-.64 3.27-2.6v-75.86c0-1.3-1.3-2.6-3.27-2.6H181.1zm88.94 5.23v71.28h-86.32v-71.28h86.32z"/><path d="M225.57 370.8l-1.3 44.47c0 1.3 1.3 1.96 2.6 1.96l1.97-1.96.65-43.8-1.97-2.62c-1.3 0-1.96.65-1.96 1.96zM243.23 374.07l-.66 39.24c0 1.32.66 1.97 1.3 1.97l2.63-1.96v-39.23l-1.3-1.96c-1.97-.64-1.97 0-1.97 1.97zM207.92 372.1l-.66 41.2c0 1.32 0 1.97 1.97 1.97l1.96-1.96.64-41.2-1.96-1.95c-1.3 0-1.96.66-1.96 1.96z"/><path fill="#D96038" d="M337.4 395c0-3.92-4.6-7.2-13.74-10.46-9.8-3.27-18.3-2.62-26.16 1.96-11.77 7.2-18.3 30.73-18.3 71.93l14.38 5.88 20.92 1.32c3.93-3.27 7.2-9.15 9.16-18.3 1.96-11.12 4.57-19.62 5.88-24.2l5.9-16.35 1.95-11.77z"/><path d="M331.5 384.54c-5.88-2.62-11.1-3.93-17-4.58-7.2-.65-13.08 1.3-18.96 4.58-12.43 7.85-18.96 32.7-18.96 73.9l1.96 1.95 15.7 7.18c10.45 2.62 17.64 2.62 21.57-.65 3.28-1.97 5.9-5.9 8.5-10.46l7.2-32.7 2.62-5.88c3.92-10.48 5.88-18.32 5.88-22.9 0-3.27-2.6-6.54-8.5-10.46zm-32.7 3.92c3.93-2.6 9.82-3.92 15.7-3.27 4.58 0 9.8 1.95 14.4 3.92l5.87 5.88-5.88 21.58-1.98 5.88-4.57 16.35c-1.97 13.74-5.23 21.6-9.8 24.2-1.97 1.96-7.2 1.96-13.74 0-5.22-.65-11.1-3.27-16.34-6.53 0-38.58 5.23-60.82 16.35-68z"/><path fill="#D96038" d="M203.34 446.66l-2.62 13.73c-.65 9.14.66 15.68 3.27 18.3 2.6 1.96 9.15 3.92 19.6 5.88 11.78 1.97 19.63 4.58 22.9 5.9 3.27 2.6 7.2 1.95 11.77-1.32 5.9-5.9 10.46-9.15 13.73-9.8l13.73-6.55c2.62-2.6 3.92-5.22 5.23-8.5.65-3.26 0-7.84-2.6-14.38l-3.3-9.8c-6.52-3.93-15.02-6.54-25.5-8.5-19.6-1.97-38.56 2.6-56.22 15.04z"/><path d="M201.38 444.7l-.66 1.96c-3.92 17.65-3.27 29.42 1.97 33.35 2.6 2.62 10.45 5.24 21.57 7.2l20.92 5.88 9.8 1.3 17.65-12.4c7.2-3.28 12.43-5.9 14.4-7.86 3.26-1.96 5.22-5.23 6.53-9.16.65-3.27 0-8.5-1.96-15.03l-4.58-11.12-1.3-1.3c-6.55-3.92-15.7-6.54-26.16-7.85-20.28-2.6-39.9 1.97-58.2 15.05zm4.57 3.92c16.35-11.77 33.35-15.7 51-14.4 10.47.67 18.97 3.28 25.5 7.2 3.93 9.16 6.55 15.7 6.55 20.93l-.65 1.3c-.66 2.62-1.97 5.24-3.93 6.55l-13.73 6.54-17.66 12.42-5.9-.66c-3.26-1.96-10.45-4.57-21.57-6.53-11.1-1.96-17.65-3.27-19.6-5.9-1.98-1.3-2.63-5.22-2.63-9.8 0-3.27.65-9.8 2.6-17.65z"/><path fill="#D96038" d="M175.88 352.5l-6.54-15.7c-5.23-11.1-11.77-17.65-18.97-19.6-7.2-1.97-13.07-.66-18.96 5.87l-9.8 13.08c-1.96 1.96-5.23 7.85-9.15 18.96l-9.8 30.1c-3.93 9.8-5.9 16.34-5.24 18.96 0 3.27 1.97 6.53 5.9 9.8 5.88 3.93 13.73 7.85 24.84 12.43 6.54-1.97 13.08-5.9 20.27-12.43 15.05-13.74 23.55-34.66 27.48-61.47z"/><path d="M151.03 314.57c-5.9-1.96-9.8.65-13.08 6.54 3.27-1.95 7.2-2.6 11.12-1.3 9.8 2.62 18.3 13.73 24.2 32.7-3.28 24.84-11.78 43.8-24.2 57.54-7.2 7.2-14.4 11.77-20.93 13.73l-9.8-3.93c-5.24-3.27-9.82-5.88-13.1-8.5-3.25-1.96-5.2-4.57-5.2-7.2-.02-3.26 1.94-9.14 5.2-18.3l6.55-19.6c4.57-17.02 9.15-26.17 11.1-28.13l6.55-7.2c3.27-4.56 5.9-7.83 8.5-9.14-5.23-.65-9.8 1.3-13.08 6.54l-5.23 5.23c-3.27 2.62-7.85 13.08-13.08 31.4l-6.53 19.6c-3.27 9.8-5.24 16.35-5.24 20.28.65 3.28 2.6 7.2 7.2 11.12 5.87 4.58 13.72 8.5 24.84 12.43l1.3.65c7.85-1.96 15.7-6.54 22.9-13.73 14.38-14.4 23.53-34.66 27.45-62.12v-1.3l-7.2-16.36c-6.54-11.77-13.08-18.97-20.27-20.93z"/><path fill="#D96038" d="M192.88 416.58c-9.16-11.12-21.58-17.65-37.27-19.62h-8.5c-6.54 0-11.1.66-14.38 2.62-4.58 3.92-11.12 13.07-19.62 28.12-1.3 2.6 0 7.84 2.62 15.03 3.27 8.5 5.23 14.4 5.23 17.66 0 3.9 9.15 9.14 27.46 13.72l34 8.5c3.94 1.3 7.2 0 11.13-5.9 3.27-5.87 6.54-14.37 8.5-26.14 1.96-12.42-.65-23.54-9.15-34z"/><path d="M155.6 394.35h-9.8c-6.54 0-11.12.65-14.4 3.27-3.26 1.96-6.53 6.54-11.76 14.38l-8.5 15.04c-1.96 3.27-1.3 9.8 3.27 18.97 1.97 6.54 3.93 11.12 3.93 14.4 0 3.92 4.58 7.84 13.08 11.76l49.7 13.08h7.2c6.54-3.27 12.42-15.04 16.35-34.65 2.6-11.13-.66-22.25-7.85-32.7-9.15-13.75-22.9-20.94-41.2-23.55zm-10.46 4.57l9.8.66c16.36 1.96 28.78 9.15 37.94 20.92 4.58 7.85 7.2 15.7 7.2 22.9l-.67 6.53c-3.26 17.65-7.83 27.46-13.06 30.08h-2.62l-17-3.92c-28.77-6.54-43.8-11.77-43.8-15.7l-3.93-17c-2.63-7.18-3.94-11.76-3.28-13.72 7.2-15.04 13.73-24.85 18.96-28.12 1.96-1.3 5.88-1.96 10.46-2.62z"/><path fill="#D96038" d="M298.8 319.8c-9.8-3.92-17-5.88-20.92-5.23-4.57.65-9.8 4.58-17 12.43l-8.5 11.77c.65 14.4 6.54 27.46 16.35 39.9 4.58 5.87 9.15 11.1 13.73 14.37l21.58-5.23c7.2-3.26 13.07-5.87 17-8.5 3.92-2.6 5.88-11.1 4.58-25.5-.66-14.38-2.62-22.22-7.2-24.84l-19.6-9.16z"/><path d="M259.57 324.38l-9.8 13.08v1.3c.65 15.05 6.53 28.78 16.34 40.55l14.4 15.7 1.96.65c6.54-.65 13.73-2.6 22.23-5.23l17.65-9.15c2.6-1.96 4.57-6.54 5.88-13.73.66-5.9.66-11.77 0-17.66-.65-13.07-3.27-20.92-7.85-22.88l-1.96-.66c-19.6-10.46-32.7-15.04-41.2-14.38-4.57.65-10.45 4.57-17.65 12.42zm9.16 50.35c-7.85-11.12-12.43-22.9-13.73-35.3l11.1-13.74c5.24-5.9 9.17-8.5 11.78-8.5 5.24-.67 18.3 3.9 37.93 13.72l1.97 1.3c2.62.66 3.93 6.55 5.23 17.66l.66 7.85c0 11.12-1.97 17.65-4.58 19.6-3.27 1.98-8.5 4.6-16.35 7.86l-20.27 5.22c-4.58-4.57-9.8-9.8-13.73-15.7z"/><path fill="#D96038" d="M187 304.1c-5.9 2.62-9.82 6.55-13.1 11.78-3.9 4.58-4.56 13.08-2.6 22.9 1.3 5.2 3.27 9.8 4.58 13.72 17.65 6.54 35.3 8.5 55.58 3.92 10.46-1.96 18.3-4.58 24.84-7.85 3.93-3.27 7.2-10.46 9.16-22.88 1.3-11.78.65-19.63-1.96-22.9-1.3-3.27-7.2-6.54-17-9.8l-20.93-6.55c-3.27-1.3-6.54-.65-10.46 1.3l-12.42 8.5-15.7 7.86z"/><path d="M200.72 294.3l-10.46 5.23c-3.92 1.96-7.2 3.27-9.15 4.58-3.92 2.62-6.53 5.9-9.8 9.82-5.88 9.15-5.23 22.23 2.62 39.9l.65 1.3c17.66 6.53 36.62 7.84 56.9 3.92 10.45-1.3 18.3-4.58 26.14-7.85 5.24-3.93 8.5-12.43 10.47-24.86 1.3-12.42.66-20.27-1.96-24.85-2.6-3.28-9.14-7.2-19.6-11.78l-20.27-6.54-9.16.66c-1.96.65-4.58 2.6-8.5 5.23l-7.84 5.23zm-24.84 22.9c1.96-3.94 5.23-6.55 7.84-7.86 1.3-1.3 4.58-3.27 9.16-5.23l11.1-5.22 15.05-9.8 5.9-.67 21.57 7.2c8.5 3.93 13.07 6.55 15.03 8.5 1.97 3.28 1.97 10.47 1.3 21.6-1.3 11.1-3.9 17.64-7.83 20.26-5.9 3.27-14.4 5.88-24.2 7.84-18.96 3.93-36.6 2.62-52.96-3.27-3.27-8.5-4.58-15.7-4.58-21.57 0-5.23.65-9.16 2.62-11.77z"/><path fill="#D96038" d="M165.4 413.3c-5.87 7.86-9.14 13.74-9.8 17 0 2.62 5.24 8.5 15.05 16.36 7.84 7.85 14.38 12.42 18.96 14.4h51c2.63 0 5.24-4.6 8.5-13.1 3.94-10.45 7.2-17.65 9.82-20.26l-84.35-26.16-9.16 11.77z"/><path d="M175.22 398.93l-2.6.65-10.47 13.73c-5.24 7.86-7.85 13.74-8.5 16.36 0 3.92 4.57 10.46 15.03 19.6L188.3 463c5.23 2.62 22.23 3.27 52.3.66l5.9-3.93 5.23-12.42c3.92-9.14 7.2-15.68 8.5-17.65l1.3-2.6-1.95-1.97-84.36-26.15zm-17 31.38c.66-3.26 6.54-12.4 17.66-26.15L255 429l-15.04 30.08-49.04-.65-19.62-13.73c-8.5-7.85-13.08-11.77-13.08-14.4z"/><path fill="#D96038" d="M220.34 361.65c.66-18.3-1.3-28.77-5.88-32.7-9.8-8.5-16.35-11.1-20.27-8.5l-16.36 15.7c-3.93 2.62-11.12 8.5-20.27 18.3-10.47 11.12-16.35 20.28-17.66 26.82-.64 6.54.66 12.42 4.6 15.7l9.14 5.22c1.97 1.95 7.85 1.95 17.66 0 3.27-3.93 6.54-8.5 12.42-14.4 10.47-11.1 23.54-19.6 36.62-26.15z"/><path d="M204 318.5l-11.12.65-15.7 15.04c-5.23 1.95-12.42 8.5-21.57 18.3-11.1 11.77-17.65 21.57-18.3 28.77-1.3 9.8 2.6 17 11.77 22.23l2.6.65 20.28.66 1.96-.65 11.8-15.03c11.1-10.47 22.22-18.97 35.3-24.86l1.96-2.6c0-19.63-2.62-31.4-6.54-34.66L204 318.5zm8.5 12.42c3.92 2.6 5.22 11.1 5.22 26.15v2.62c-12.42 5.87-23.54 14.37-33.35 24.18-6.53 5.9-11.1 11.12-14.38 16.35l-15.05.65-3.27-2.6c-7.2-3.28-10.46-9.16-9.8-16.36 1.3-6.54 7.18-15.04 17.65-26.16 9.15-9.15 15.7-15.04 20.27-17l15.7-15.7c2.6-2.6 8.5 0 17 7.86z"/><path fill="#D96038" d="M248.46 440.12c3.27 3.27 6.54 5.88 9.15 6.54l15.05 3.27h15.7c3.26-.66 5.88-3.27 7.84-6.54l9.14-16.36c3.28-6.54 3.93-11.12 3.28-15.04l-5.9-6.54c-.64-.65-.64-3.27 0-5.88.66-3.93 0-6.54-1.3-9.16-1.96-3.27-6.54-5.88-15.04-5.88H274.6c-3.26 9.15-13.07 26.15-30.72 49.7l4.58 5.88z"/><path d="M242.57 433.58c-1.3.65-1.3 1.3 0 2.6l3.93 5.25c3.27 3.92 6.54 6.53 9.8 7.84l16.35 3.27H289c2.62-.65 5.23-2.6 7.2-5.23l11.1-19.6c3.28-5.9 4.58-10.47 3.93-14.4 0-2.6-2.6-5.88-5.23-8.5l-.65-.64v-3.27c.65-4.6 0-8.5-1.3-12.44-2.63-3.92-7.86-5.88-15.05-6.54h-15.04c-1.3 0-1.96.66-1.96 1.96-3.27 8.5-13.08 24.85-29.43 49.7zm16.35 10.46c-3.92-.65-7.2-3.92-11.77-9.8l14.38-20.28c7.85-12.42 11.78-20.92 14.4-26.8 13.07-1.32 21.57.64 22.88 3.9 1.97 2.63 1.97 5.24.66 8.5 0 3.94 0 6.55 1.96 7.86l.66 1.3c2.6 1.97 3.27 3.93 3.92 5.24 0 3.27-.65 6.54-3.27 11.12l-5.23 9.8c-3.27 7.85-6.54 11.78-9.16 11.78H273.3l-14.38-2.62z"/><path fill="#D96038" d="M224.27 346.6l-5.9 13.74c10.47 1.3 22.24 5.9 37.93 15.04l19.62 13.73c3.93 0 9.8-3.26 17-8.5 7.85-5.87 10.47-11.1 8.5-14.37-8.5-15.7-16.34-24.85-23.54-27.47l-20.92-8.5c-9.15-3.27-15.7-3.92-19.62-1.3-3.92 2.6-7.85 8.5-13.07 17.65z"/><path d="M236.03 326.34c-3.92 2.62-9.15 9.16-13.73 18.97l-6.54 13.74.66 2.6 1.3 1.32c9.82 1.3 22.24 5.9 37.28 15.04 7.2 3.92 13.73 9.15 19.6 13.08l1.32.65c3.27 0 8.5-1.96 13.73-5.9 6.54-3.9 11.12-7.83 13.08-11.76 1.96-3.27 2.62-5.88 1.3-9.15l-10.45-16.35c-4.58-6.54-10.46-9.8-15.04-11.77l-26.8-11.1-15.7.64zm3.27 4.58l12.43.65c2.62.66 7.85 2.6 15.04 5.9l9.8 4.56c5.9 1.3 13.74 9.8 22.24 25.5l.66.66-.65 3.26-10.45 9.8-11.77 4.6c-5.24-4.6-12.43-8.52-20.27-13.74-13.07-7.2-24.84-12.43-34-13.74 5.23-15.04 11.12-23.54 17-27.46z"/><path fill="#D96038" d="M192.88 385.2l1.96-4.6-9.8-1.95c-7.2-.65-11.13 0-13.1 1.96-1.95 2.63-3.9 7.2-4.57 13.74-1.96 6.54-1.96 11.12.66 14.4l11.77 12.42c5.23 5.22 10.46 8.5 14.4 8.5 5.87.65 15.68-2.62 28.76-9.16l-7.2-8.5c-6.53-3.27-12.42-7.85-18.3-14.4-3.93-3.9-5.24-7.83-4.58-12.4z"/><path d="M170.65 378.65c-2.62 3.27-4.58 8.5-5.9 15.04-1.3 7.18-1.3 13.07.67 16.34l11.76 12.42c6.54 5.9 12.43 9.16 17 9.8 5.9.67 15.7-1.95 29.43-9.14l1.97-1.96-1.3-2.62-6.54-7.85-.66-1.32c-6.54-2.6-12.42-7.2-17.65-13.72-3.27-2.62-4.58-5.9-4.58-9.16l1.96-4.58.66-2.6-1.96-1.32-24.85.65zm3.92 3.27l16.35.66c-.66 1.3-.66 2.6-.66 5.23 0 3.93 1.3 7.85 4.58 11.78 5.23 4.57 11.1 9.15 18.96 14.38l4.58 5.9c-11.12 5.22-18.96 7.84-24.2 7.18-3.26 0-7.2-3.27-13.07-7.85L170 407.4c-1.97-2.6-1.97-6.54 0-13.08 1.3-5.88 2.6-9.8 4.57-12.42z"/><path fill="#D96038" d="M223.6 351.84c-3.26-2.6-6.53-3.27-9.8-2.6l-10.46 1.3c-3.93.65-7.2 3.27-9.8 8.5-3.28 5.88-3.94 10.46-3.28 15.7.65 4.57 3.92 6.53 7.85 6.53l35.32-6.54c2.6 0 3.92-.65 5.23-2.6.65-1.32 0-4.6-3.92-9.82-3.92-4.57-7.2-8.5-11.12-10.46z"/><path d="M224.92 349.23c-4.58-2.62-10.46-3.27-17-1.96l-4.58.65c-3.27.65-6.54 1.96-9.8 6.54-5.24 6.54-7.2 13.73-5.9 20.92 1.32 5.23 3.93 7.2 7.85 8.5l41.84-7.2 3.27-2.6c1.32-3.27 0-7.85-3.9-13.08-3.28-5.9-7.2-9.16-11.78-11.77zm-9.16 2.6c1.97 0 4.58.67 6.54 1.98l9.8 9.16 3.94 8.5L196.8 378c-1.96 0-3.27-1.3-3.92-3.27-1.3-5.9.65-11.77 4.58-17l6.54-4.58 11.76-1.3z"/><path fill="#D96038" d="M238.65 372.1l8.5 3.28c6.54 3.93 11.1 12.43 12.42 24.2l3.93 2.6 12.42-.64c5.23-2.62 7.2-7.2 6.54-15.04l-4.58-18.3c-1.3-4.6-4.57-8.5-9.8-11.13-5.24-2.6-9.82-3.92-15.05-3.92-3.27 0-6.53 1.96-9.15 5.23-1.3 2.62-3.92 7.2-5.23 13.73z"/><path d="M246.5 359.04c1.96-2.62 3.92-3.28 6.54-3.28 4.57 0 9.15 1.3 13.07 3.28 5.24 2.6 8.5 5.88 9.16 9.8l3.93 17.66c3.26-3.92 3.9-9.16 1.95-15.7l-1.3-3.26c-.66-5.23-4.6-9.16-10.47-12.43-5.88-3.26-10.46-4.57-16.35-4.57-3.92 0-7.85 1.97-10.46 5.24-2.62 3.27-5.23 9.15-6.54 15.7l.66 2.6 9.8 3.93c5.88 3.92 9.15 11.1 9.8 22.23l.66.65 5.88 3.92 14.4-.65c5.22-2.6 5.87-7.2 1.95-15.04 0 5.24-.66 8.5-3.94 9.82l-13.07-.65c-1.97-9.8-5.24-17-9.17-21.58-3.27-3.93-7.2-5.24-11.1-5.9 1.3-5.88 3.26-9.15 4.57-11.76z"/><path fill="#D96038" d="M259.57 399.58L240.6 412c-3.9 1.96-13.07 1.96-24.84 0l.66 6.54c.65 4.58 1.3 7.85 2.6 9.15 6.55 8.5 15.05 10.46 28.13 5.88 9.15-3.27 15.7-8.5 18.96-15.04 3.94-7.2 1.32-13.73-6.53-18.96z"/><path d="M260.88 397.6h-2.6l-18.32 11.78-12.43 1.3-11.1-1.3c-.67-.65-1.97-.65-2.63.66-.65.65-.65.65-.65 1.96 0 8.5 1.3 13.73 3.92 17.66 6.54 9.15 17 11.1 31.4 6.53 5.88-2.62 11.1-5.24 15.03-9.16 4.58-3.92 6.54-8.5 6.54-13.08 1.3-6.54-1.97-11.77-9.16-16.34zm4.58 15.05v1.3c-.65 3.28-2.62 6.55-5.9 9.82l-13.06 7.2c-11.12 4.57-19.62 2.6-25.5-4.58-.66-1.97-1.97-5.9-1.97-11.78l23.54-.66 17-11.1c3.27 2.6 5.9 5.87 5.9 9.8z"/><path fill="#D96038" d="M291.6 88.98l9.17-6.54 22.23 5.9c18.3 2.6 33.35.64 47.08-5.9V4.64l-338.7-.67 3.9 11.12c4.6 8.5 10.47 15.03 18.97 19.6 7.85 4.6 24.85 7.2 49.7 7.85l35.3.66v11.12c1.32 7.2 5.9 12.43 12.43 15.04 12.43 4.58 23.54 4.58 35.3 0l5.9 12.43c7.2 6.53 17.65 7.83 33.35 3.26l11.1 6.54c9.82 3.92 18.98 5.88 28.13 5.23 9.15 0 17.66-3.27 26.15-7.85z"/><path d="M373.35 4.63c0-1.96-.65-3.27-3.27-3.27L31.38.7c-1.32 0-1.98.66-2.63 1.3l-.65 2.63c0 2.6 1.3 7.2 4.57 12.42 3.93 9.16 10.47 15.7 19.62 20.27 13.07 7.2 39.88 9.8 83.04 9.16v1.96c0 12.42 5.23 20.27 15.7 23.54l33.34 1.96c1.96 5.23 5.23 9.8 9.8 13.08l31.4 1.3c11.76 8.5 24.84 12.43 39.88 11.78 13.73-1.3 26.16-5.23 35.96-13.73 7.2 2.6 16.35 5.23 26.16 5.88 16.35 1.3 31.4-.65 43.8-6.54l1.97-3.26V4.64zm-75.2 75.85L289 87.02c-7.2 3.92-15.7 6.54-23.54 6.54-9.16 0-17.65-1.3-26.16-5.23l-11.1-6.54h-2.63c-11.77 3.9-21.58 3.9-28.1 0l-5.9-7.86-1.3-4.58-1.97-2.6-1.96-.67-11.12 2.6c-7.85.66-15.04 0-21.58-2.6-6.54-1.97-9.8-6.55-11.77-13.1-.65-3.9-.65-7.18 0-9.14l-.65-3.27-1.96-.66h-35.3c-24.86-.66-40.55-3.93-48.4-8.5C46.4 26.2 39.2 18.36 35.94 7.24l330.87.66v72.58c-12.4 5.23-26.8 6.54-43.8 4.58l-21.58-5.9c-1.96 0-2.6 0-3.27 1.32z"/><path d="M285.07 59.55c0-1.3 0-1.96-1.96-2.6-.64-.67-1.3 0-1.95.64-2.6 6.53-6.54 11.1-12.42 13.07-4.58 1.3-9.8 1.3-15.7-1.96-.65 0-1.95 0-2.6.66 0 1.3 0 1.97 1.3 2.62 6.54 3.27 13.08 3.92 18.3 1.96 6.55-1.96 11.78-7.2 15.05-14.4zM340.65 68.7c3.27-4.57 3.27-9.8 0-14.38-2.6-5.23-6.53-7.2-12.42-6.54-5.88 0-9.8 4.58-12.42 12.43l-3.26 7.2c-2.62 4.58-7.2 9.8-13.73 13.73-.65.66-.65 1.3 0 2.62l2.62.65c7.2-5.23 11.12-9.8 14.4-15.04L323 54.32c1.3-1.96 2.6-1.96 5.23-2.6 3.92-.67 7.2 1.3 9.15 4.56 2.62 3.27 1.97 6.54 0 9.8-2.6 3.28-5.88 4.6-11.1 3.93-1.32 0-1.97.67-1.97 1.98l1.3 1.96c6.56 1.3 11.8-1.3 15.05-5.23zM264.8 3.32c-1.3-1.3-1.96-1.3-2.6 0-6.55 11.77-15.7 20.92-26.82 27.46-9.15 5.9-17.65 9.16-24.85 9.8l-71.27.67c-1.3 0-1.96.65-1.96 1.96 0 1.3.65 1.97 1.96 1.97l71.93-.66c8.5-.64 17.64-4.56 28.1-11.1 10.47-7.2 19.62-17 26.16-28.12.65-.65.65-1.96-.65-1.96z"/><path d="M369.43 29.48l-17 3.27-39.9-.66c-10.45-1.97-18.95-1.97-26.8 0-6.54 1.3-11.12 4.57-13.08 9.15-3.27 4.58-2.6 9.15 1.3 14.38 4.6 4.58 12.43 7.85 24.86 9.16l18.32.64 1.3-2.62c0-.65-.65-1.96-1.95-1.96-20.93 1.3-34-1.3-39.9-8.5-1.96-2.6-2.6-5.88-.65-9.15 1.96-3.9 5.9-5.88 12.43-7.18 6.54-1.97 14.4-1.97 23.54 0l40.53.65 18.3-3.92c1.32 0 1.97-1.3 1.32-2.62-.66-.65-1.3-1.3-2.62-.65zM233.42 50.4c-1.3 0-1.96 1.3-1.3 2.62 0 1.3 1.3 1.3 1.95 1.3l5.9-1.3 8.5 1.3c2.6 1.3 3.9 3.93 4.56 7.85 0 6.54-3.92 11.77-13.07 16.35l-13.73 4.58c-1.96 0-2.62.65-1.96 1.96 0 1.96 1.3 1.96 2.6 1.96l16.36-5.9c9.8-5.22 14.4-11.76 13.08-18.95 0-5.9-2.6-9.16-5.88-11.12-2.6-1.96-6.54-2.6-11.12-1.96l-5.88 1.3zM209.22 42.55c0 8.5-3.92 15.7-11.1 20.27l-11.13 4.58c-1.97 0-2.62 1.3-1.97 2.62 0 .65.66 1.96 2.62 1.96l12.42-5.9c7.85-5.22 13.08-13.07 13.08-23.53l-1.96-1.96c-1.32 0-1.97.65-1.97 1.95zM243.23 213.22c-17.66 5.9-29.43 7.85-35.97 6.54l-5.88-.65-39.23-1.3c-1.3.65-1.97 1.3-1.97 3.27 0 1.3 1.3 1.96 3.27 1.96l37.27 1.3 5.9 1.3c6.53.67 19.6-1.95 37.92-7.83 1.96 0 2.6-1.3 1.96-3.27-.66-1.3-1.96-1.96-3.27-1.3zM276.58 242.64l37.92 5.9c4.58 1.95 9.8 3.9 13.73 7.18l3.27-.65c.66-.65.66-1.96 0-3.27-4.58-3.27-9.8-6.54-15.7-7.85l-37.26-6.54c-4.58-1.3-9.16-3.26-13.73-5.22-4.57-2.6-7.18-5.88-8.5-9.8l-1.3-5.9c0-1.95-.65-2.6-1.96-2.6-2.62 0-3.27.65-3.27 1.96l1.3 7.84c1.97 5.23 5.24 9.8 11.12 12.42 4.57 3.27 9.8 5.9 14.38 6.54z"/><path fill="#D96038" d="M256.3 133.44c-1.3-2.6-3.92-2.6-6.53-2.6l-7.2 5.22-7.2 5.88c-2.6 1.97-5.22 5.9-5.87 11.77l-1.96 10.47c-.66 3.27 3.92 5.9 15.03 6.54l27.47-1.95c4.57-8.5 5.88-16.34 5.23-22.88-.66-3.27-3.27-5.9-6.54-6.54l-7.85-1.96-4.57-3.93z"/><path d="M272.65 170.06c3.93-7.85 5.9-14.38 5.9-20.92v-3.27c-1.32-7.2-5.9-11.12-14.4-11.12h-1.96l-1.97-1.96c-3.27-3.94-7.2-5.9-10.47-5.24-3.92 1.3-7.84 3.92-12.42 8.5l-3.92 3.27c-3.93 3.27-6.54 9.8-8.5 19.6l-.66 4.6c-.65 1.95 0 3.9 1.96 5.22 3.27 3.27 9.8 4.58 19.62 5.23l25.5-2.6 1.3-1.32zm-.65-23.54v2.62c0 5.23-1.3 11.1-3.93 16.34l-22.88 1.96-14.4-3.27.66-3.92c1.3-8.5 3.27-13.07 5.88-15.7l4.58-3.9c3.92-3.28 7.2-5.9 8.5-6.55 1.3 0 2.6.65 5.23 3.27l3.92 3.27 9.8 1.96 2.63 3.92z"/><path fill="#D96038" d="M300.12 142.6c-1.3-1.3-3.28-1.96-4.58-1.96-3.27 0-9.8 3.92-18.96 11.77-1.3 1.32-3.27 5.24-4.58 10.47l-1.3 7.2 42.5 17.65 8.5-22.23c1.3-5.24 1.3-9.17 0-13.1l-3.28-6.53-6.54-.66-7.2.67c-1.3 0-2.6-1.3-4.56-3.27z"/><path d="M294.88 137.37c-3.92 0-11.1 4.57-20.27 13.08-3.26 2.6-5.87 9.15-7.18 19.6 0 1.97.65 2.63 1.96 3.28l42.5 17c1.97 1.3 3.28 0 3.93-1.3l9.16-22.9c2.62-9.14.66-16.34-4.57-22.22l-9.82-1.3h-5.23l-2.62-1.96c-2.6-2.62-5.23-3.27-7.85-3.27zm-15.7 17.65c7.2-7.2 13.1-11.1 16.36-11.1 0 0 1.3 0 2.6 1.3 1.32 1.96 3.94 3.92 6.55 3.92l11.1-.66 1.97 2.62 1.3 7.85-.65 5.23-6.54 18.96-37.27-15.04c1.32-7.84 2.63-11.77 4.6-13.08z"/><path fill="#FFE000" d="M256.3 156.33c-4.57-2.6-9.15-3.92-13.07-3.27-5.9.65-11.77 3.27-18.96 9.15-.66.67-3.27 1.32-7.2 1.97l-9.8 2.62c-3.28.64-5.9 2.6-7.86 5.22l-5.2 6.54c-2.63 1.96-9.17 6.54-18.97 12.42-.66 2.62 0 5.24 1.96 7.85 2.6 2.62 5.87 4.58 10.45 5.9 7.2 2.6 19.6 1.3 35.96-3.28 7.2-3.27 13.74-3.27 19.63 0 9.8-1.96 15.7-7.85 19.6-18.3l2.63-15.7c-1.96-4.58-4.58-8.5-9.15-11.12z"/><path d="M257.6 153.72c-5.22-3.27-10.45-4.58-15.03-3.93-5.88.65-11.77 3.26-18.96 9.15h-.64l-16.35 4.58c-3.92 1.3-7.84 4.57-12.4 9.8l-2.63 2.62-17.66 12.42-1.95 1.96c-.65 3.27 0 6.54 2.62 9.8 2.6 3.93 6.54 6.55 12.42 7.86 7.84 2.6 20.26 1.3 37.27-3.94l19.6.66c9.16-1.96 15.7-6.54 19.63-15.7 3.27-6.53 5.23-13.73 5.23-21.57v-.65c-1.96-5.9-5.9-9.8-11.12-13.08zm-14.37 2.6c3.27-.64 7.2.66 10.46 2.63 4.57 1.96 7.18 5.23 8.5 9.15 0 5.23-1.32 10.46-2.62 15.04-3.27 8.5-8.5 13.08-16.35 15.04-6.54-2.62-13.73-2.62-20.93 0-15.04 4.58-26.15 5.88-34 3.92-6.54-1.96-9.8-5.23-9.8-9.15l18.3-12.43 2.62-3.92c3.92-3.27 6.53-5.88 8.5-6.54l18.96-5.88c6.54-5.23 12.42-7.2 16.35-7.85z"/><path fill="#FFE000" d="M341.96 221.06c1.3 0 .66-3.27-1.96-7.84-3.92-5.23-5.23-8.5-5.88-10.46l-3.93-17.66c0-1.3-1.97-1.96-5.24-3.92-3.92-1.3-6.54-3.93-8.5-5.9-2.6-3.26-7.84-6.53-14.38-8.5l-26.16 1.97-7.85 11.77c-5.88 9.8-9.15 18.97-9.8 26.16h7.2c5.22 1.3 9.14 2.62 12.4 3.92l9.82 7.85c3.9 3.27 8.5 5.9 13.72 6.54 5.88.65 13.73.65 24.2-.66l16.34-3.28z"/><path d="M343.93 224.34l1.96-2.62c.64-1.96-.66-5.23-3.93-10.46l-4.58-9.8-3.94-17c-1.3-2.63-3.27-4.6-7.2-5.9l-7.18-5.23c-3.27-4.58-7.85-7.2-14.4-9.15l-29.4 1.3-1.97.66-8.5 13.73c-5.88 9.8-9.15 18.3-9.8 26.16l1.3 3.27 1.97.65c7.85 0 14.38 1.3 17.65 3.27l5.23 4.58c6.54 5.23 13.08 9.15 20.27 9.8 5.9 1.3 13.73 1.3 24.2 0l18.3-3.26zm-30.08-47.1l13.07 9.17 4.58 16.36c0 1.96 1.96 6.54 5.23 11.77l1.96 4.58-16.35 2.62c-8.5.66-15.05.66-20.28 0-5.23-.65-10.46-3.92-16.34-9.15L279.2 208c-3.28-2.63-9.82-4.6-17-4.6 1.3-9.8 7.18-20.26 15.68-32.03l24.2-1.3c5.88 1.95 9.8 3.9 11.77 7.18z"/><path fill="#D96038" d="M321.04 209.95c1.3-1.96 1.3-5.23.65-7.85-.66-2.6-2.62-5.23-4.6-5.88l-8.48-1.3c-3.28 1.3-4.58 3.26-6.54 5.22-.66 2.62-1.3 5.23 0 7.85.65 3.26 2.6 5.22 5.23 6.53l7.85.65 5.9-5.23z"/><path d="M317.77 194.25l-9.8-1.3c-3.28 1.3-5.9 3.27-7.2 6.54-1.96 3.26-1.96 6.53-1.3 9.8 1.3 3.27 3.26 5.23 6.53 6.53l9.15 1.3c3.93-1.3 6.54-3.26 7.2-5.87 1.96-3.27 2.6-6.54 1.3-9.8-1.3-3.28-3.26-5.9-5.88-7.2zm-9.15 2.62l6.53.66c2.62.65 3.27 2.6 4.58 5.23l.65 1.96-1.3 4.58-4.58 3.92-6.54-.65c-2.6-.66-3.27-2.62-3.92-4.58-1.3-2.63-1.3-4.6 0-6.55 1.3-1.96 2.6-3.27 4.58-4.58z"/><path fill="#D96038" d="M300.12 187.06l.65-5.88-3.93-4.58h-5.88c-1.96 0-3.27 1.96-4.58 3.27-.65 1.96-.65 3.92-.65 5.9.65 2.6 1.96 3.9 3.92 4.56h5.9l4.57-3.27z"/><path d="M302.08 180.52c-.66-1.96-2.62-3.92-4.58-5.23l-7.2-1.32c-2.6 1.3-4.57 2.62-5.22 5.24-1.96 2.6-1.96 4.57-.66 7.2.66 2.6 1.97 4.57 4.58 5.22l7.2 1.3 5.88-4.57c.65-2.6.65-5.23 0-7.85zm-10.47-1.96h3.94l3.27 3.27v1.3c0 3.28-1.3 5.24-3.92 5.9l-3.92-.66-3.27-3.27c-1.32-3.27 0-5.88 3.9-6.54z"/><path fill="#D96038" d="M207.92 191.64c2.6 1.3 4.57 2.62 7.84 3.27 2.62 0 4.58-1.3 7.2-3.26 2.6-1.96 3.27-3.92 3.27-6.54.65-3.27-.66-5.88-2.62-7.85-1.95-1.96-3.9-3.27-7.18-3.92-2.62 0-5.23.65-7.2 3.27-2.6 1.96-3.26 3.92-3.9 7.2-.67 2.6.63 5.22 2.6 7.84z"/><path d="M216.42 172.02c-3.27 0-6.54.66-9.16 3.27-1.96 1.95-3.27 4.57-3.92 7.84v.65c0 3.26.65 5.88 3.27 9.15 2.62 1.96 5.9 3.27 9.16 3.27 2.62.65 5.23-.65 8.5-3.27 2.62-1.96 3.93-4.58 3.93-7.85.64-3.92-1.32-6.54-3.28-9.15-1.96-2.62-4.58-3.93-8.5-3.93zm-5.9 5.9c1.32-1.32 3.28-2.63 5.9-2.63 2.6.65 3.92 1.3 5.88 3.26 1.3 1.3 1.97 3.27 1.97 5.9 0 2.6-.66 4.57-2.62 5.87-1.3 1.97-3.92 2.62-5.9 2.62-2.6 0-4.56-1.3-5.87-3.27-1.96-1.3-2.62-3.27-2.62-5.9 0-2.6 1.3-4.56 3.27-5.87z"/><path fill="#D96038" d="M236.7 177.25c1.3 1.97 3.26 2.62 5.22 2.62l5.23-1.3 2.6-5.24-1.95-5.9c-1.3-1.95-2.62-1.95-5.23-2.6-2.6 0-3.92.65-5.88 1.96-1.32 1.95-1.97 3.26-2.63 5.22 0 1.96 1.3 3.93 2.62 5.23z"/><path d="M249.1 166.14c-1.95-1.96-3.9-2.62-6.53-3.27-2.6 0-4.57.65-6.54 2.6-1.96 1.32-3.27 3.28-3.27 6.55 0 1.96.66 4.58 2.62 6.54 1.3 1.96 3.27 3.27 6.54 3.27l6.54-1.96c1.96-1.96 3.27-4.58 3.27-6.54.65-3.27-.66-5.23-2.62-7.2zm-6.53.65c3.27 0 5.23 1.95 5.23 5.88-.65 3.92-1.96 5.88-5.88 5.88-1.96 0-2.62-1.3-3.92-1.96l-1.3-3.92v-.66l1.95-3.27c.65-1.3 1.96-1.96 3.92-1.96z"/><path fill="#D96038" d="M275.92 168.75c0-1.96 0-3.27-1.96-4.58l-4.58-.65-6.54 7.2-19.6 28.77-.67 5.22c.66 3.27 2.62 5.88 7.2 7.84l12.42-.65 3.9-3.9 9.82-39.25z"/><path d="M277.88 173.98c1.3-5.22.66-9.8-2.6-11.76h-8.5l-6.55 7.2-19.62 28.76v.65c-.64 2.62-1.3 4.58-.64 7.85 1.3 3.27 3.92 5.9 8.5 7.85l12.43.65 7.83-5.88.66-1.3 8.48-34.02zm-5.23-7.2l.66 1.97-.65 5.9-8.5 32.03c-4.58 4.58-8.5 5.9-13.73 3.27-3.92-1.3-5.23-3.92-5.23-7.2l.64-1.96L264.8 172l5.24-5.23h2.6z"/><path fill="#D96038" d="M265.46 226.3c1.96-.66 3.27-3.27 3.92-5.23l-1.3-7.2c-1.3-2.6-3.28-3.92-5.9-4.57l-6.53 1.96c-2.6 1.3-3.92 3.27-4.57 5.23-.66 2.6 0 4.57 1.3 7.18l5.9 3.92 7.18-1.3z"/><path d="M271.34 219.1c0-6.53-2.6-9.8-8.5-11.1l-8.5 1.3c-2.6 1.96-4.57 3.92-5.23 6.53-.64 3.27 0 6.54 1.32 8.5l7.2 5.23 8.5-1.3c2.6-1.97 3.92-3.93 5.22-7.2v-1.96zm-15.03-6.53c1.97-1.3 3.28-1.3 5.9-1.3l3.92 3.26c1.3 1.96 1.96 3.92 1.3 5.88l-3.27 4.6-5.23.65-5.23-3.27c-.66-1.3-.66-3.27-.66-5.24 0-1.96 1.96-3.92 3.27-4.57z"/><path fill="#D96038" d="M247.15 222.38c2.62-1.3 3.27-3.27 3.92-5.9l-1.3-7.18c-.66-1.97-3.28-3.27-5.9-3.93l-6.53 1.3c-1.96 1.32-3.92 3.28-3.92 5.9-.66 1.96 0 4.57.65 6.54l5.9 3.93 7.18-.66z"/><path d="M236.7 204.72c-3.28 1.3-4.6 4.58-5.9 7.2-.65 2.6 0 5.88 1.96 8.5 1.3 2.6 3.93 3.9 7.2 5.22l8.5-1.3c1.96-1.97 3.92-4.6 4.57-7.2v-2.6c0-2.63 0-5.24-1.96-6.55-1.3-2.63-3.92-3.94-5.88-4.6l-8.5 1.32zm-.67 13.73c-.65-1.96-1.3-3.92-.65-5.88 0-1.3 1.3-3.27 3.27-4.58l5.23-.67 4.58 3.27.65 5.24c0 2.6-1.95 3.92-3.26 5.23l-5.23.65-4.57-3.27z"/><path fill="#D96038" d="M66.02 95.52l-6.54-6.54c-3.27-1.96-5.23-2.62-7.84-1.96-2.62 1.3-5.23 3.27-7.2 7.2-3.26 3.92-4.57 8.5-4.57 12.42-.66 3.92 0 7.84 1.3 12.42l3.93 8.5c.65 1.96 8.5 3.27 24.2 4.58 15.68.65 24.2-.66 27.45-3.27 3.93-4.58 3.93-10.47 0-17-5.23-8.5-10.46-13.74-15.04-14.4-7.83.67-13.06.67-15.68-1.95z"/><path d="M50.98 83.75c-3.27 1.3-6.53 3.92-9.8 8.5-2.62 4.58-4.58 9.16-4.58 14.4-.66 5.22.65 11.1 3.92 18.3l1.3 3.26c1.32 2.63 3.93 3.94 9.16 4.6l24.85 3.26c12.42 0 20.27-1.96 22.9-5.23 2.6-1.96 3.25-5.23 3.25-9.15l-1.3-7.85-1.96-3.92-5.23-8.5c-4.6-4.57-7.86-6.53-11.8-7.2h-7.18L68 92.9l-2.63-2.6c-5.9-5.24-10.46-7.86-14.4-6.55zm9.8 11.12l3.28 3.27c1.96 1.96 5.23 2.6 11.12 2.6h5.88c3.92.66 7.85 4.6 12.43 12.43 3.26 5.9 3.26 10.47.64 13.08l-22.23 2.62-24.2-3.93-1.3-1.96c-1.95-5.88-3.26-10.46-3.26-14.38v-1.3c0-3.93 1.3-7.2 3.27-11.13 2.62-3.92 4.58-5.88 6.54-5.88 1.3-.67 4.58 1.3 7.85 4.57z"/><path fill="#D96038" d="M153 99.44c-4.6-9.8-8.5-15.7-11.78-17.65l-15.04-7.86c-6.54-3.27-10.46-1.96-11.77 4.58-1.3 3.92-2.6 6.54-4.57 8.5l-6.53 4.58c-1.97 1.96-3.93 5.23-4.58 10.46l-1.3 7.2 1.3 9.14c1.3 6.54 4.58 10.47 8.5 11.12 7.2 1.96 22.23-8.5 45.77-30.08z"/><path d="M151.03 88.33c-2.62-4.58-5.9-7.85-8.5-9.8l-15.04-7.2c-4.6-2.62-7.86-2.62-11.13-1.97-1.96 1.3-4.58 4.58-5.23 9.16-1.3 3.27-3.27 5.88-6.54 8.5l-3.27 1.96c-4.57 3.92-7.2 11.1-7.2 20.27-.64 1.96-.64 5.88 1.32 11.77 1.96 6.54 5.88 11.12 11.1 11.77 5.24 1.3 13.1-2.63 25.52-11.78l22.88-19.62c1.3-.65 1.96-1.96.66-3.27l-4.57-9.8zm-11.77-3.93c2.6 1.3 5.88 5.9 9.8 14.4l-24.2 19.6c-9.14 5.9-15.03 9.16-17 8.5-4.57-.65-7.18-7.2-7.18-17l1.3-8.5c1.3-3.92 1.97-5.88 3.28-6.54l8.5-6.53 5.88-13.08 5.23 1.96 14.4 7.2z"/><path fill="#FFE000" d="M98.72 150.45l-2.62-19.62c-9.15-11.12-20.27-15.7-33.35-13.73-6.54.65-11.77 2.6-17 5.88l-9.8 7.2c-3.93 3.92-6.55 8.5-7.85 12.42-1.3 2.6-1.3 5.88-1.3 9.8 0 3.28-.67 5.24-1.97 7.86-5.88 7.2-7.85 11.76-5.23 14.38 1.96 1.96 6.54 3.92 13.73 3.92l28.12-1.96c9.15-1.3 18.96-6.54 27.46-15.04l9.82-11.1z"/><path d="M62.75 114.48c-7.2 0-13.07 1.96-18.3 5.23-3.28 1.32-7.2 4.6-11.12 8.5-3.93 4.6-6.54 9.17-8.5 13.1-.66 2.6-1.3 5.88-1.3 10.45l-1.32 5.9c-7.18 9.14-9.14 15.68-5.22 18.95 2.62 2.62 7.85 4.58 15.04 5.23l30.08-1.96c10.46-1.3 19.6-6.54 28.12-15.7l11.1-12.42.67-2.6-2.63-18.32-.65-1.96c-9.8-11.12-21.58-16.35-35.97-14.4zM31.37 143.9c1.3-3.92 3.27-7.84 6.54-11.1l9.82-7.2c4.57-2.62 9.8-4.58 15.7-4.58 11.76-1.3 21.56 1.96 30.07 11.77l1.95 16.34-11.77 12.42c-7.2 5.9-15.04 10.46-22.9 11.77l-27.45 1.96c-6.54 0-10.46-1.97-11.77-3.28-.65-.65 1.3-3.92 5.23-9.8 2.6-2.62 3.26-6.54 3.26-11.12l1.3-7.2z"/><path fill="#D96038" d="M50.98 168.75l7.85-1.3 4.58-6.54c.66-3.26.66-5.22-1.3-7.84-1.3-2.6-3.27-3.92-6.54-5.23l-7.85 1.3c-1.95 1.32-3.9 3.93-4.56 6.55-.66 3.27-.66 5.23 1.3 7.84 1.3 2.62 3.28 3.92 6.54 5.23z"/><path d="M46.4 147.18c-2.6 1.96-3.92 4.57-5.22 8.5-1.3 3.27 0 6.53 1.3 9.15 1.97 2.6 3.93 5.23 7.2 5.23l9.8-1.3c4.58-1.97 6.54-5.24 6.54-10.47l-1.96-5.9c-1.96-3.26-4.58-5.22-7.85-6.53l-9.8 1.3zm9.16 3.27l5.23 3.27c.65 1.96 1.3 3.92.65 6.54l-3.93 5.23-6.54 1.3c-1.96-.66-3.92-1.97-5.23-4.6-1.3-1.95-1.3-3.26-1.3-5.87 1.3-2.6 1.96-3.92 4.57-5.23l6.54-.65z"/><path fill="#D96038" d="M66.68 141.3l5.88-.66 3.27-4.58c.66-1.96 0-4.58-.65-5.88l-4.58-3.93c-1.96 0-4.58 0-5.88 1.3-1.97.66-2.62 2.63-3.93 5.24 0 1.3 0 3.26 1.3 5.22l4.58 3.27z"/><path d="M59.48 131.48c-.65 2.62-.65 4.58 1.3 7.85l5.24 3.92 7.85-.65c1.96-1.96 3.27-3.27 3.92-6.54l-.66-6.54-6.54-4.58-6.54 1.3c-2.6 1.32-4.58 3.28-4.58 5.24zm12.43 7.85h-4.57l-3.27-1.96-1.3-4.58c.65-1.32 1.3-2.62 3.26-3.28l3.93-1.3c1.96.65 2.6 1.3 3.92 2.6v3.28c0 1.96-.65 3.92-1.96 5.23z"/><path fill="#FFE000" d="M176.53 115.8l-15.04-13.74c-3.28-1.3-7.86-3.27-15.05-5.9-4.58-1.3-11.1-.64-20.27 3.94-13.08 6.54-19.62 17-20.92 32.7v5.88c0 4.57 1.3 8.5 3.92 11.77 15.7 2.6 28.77 2.6 41.85 0 18.96-3.93 32.04-9.16 39.23-14.4 1.96-1.95 1.3-5.22-2.6-10.45-3.28-4.58-7.2-7.85-11.13-9.8z"/><path d="M162.8 100.1l-15.04-7.2-10.46.66c-6.54 1.3-12.43 3.27-17 6.54-11.78 6.54-17.66 17.65-18.3 32.7v6.53c.64 4.58 2.6 9.15 4.56 13.08l1.96 1.32 14.4 1.96 28.76-1.96c19.62-3.93 32.7-9.16 39.9-15.04 2.6-1.3 3.26-3.93 2.6-6.54 0-3.93-2.6-7.2-6.53-11.12L162.8 100.1zm-17.66-1.3l2.62 1.3 12.42 5.23 5.24 5.88c3.92 3.94 7.2 6.55 9.15 7.2 3.27 1.3 5.88 3.93 9.15 7.85l3.93 6.54v.64c-6.54 5.9-19.62 10.47-37.28 13.74-9.8 1.96-22.88 1.96-38.57 0-2.62-3.27-3.27-7.2-3.27-11.78v-2.6c.65-11.13 4.57-19.63 12.42-25.5 3.92-3.94 9.8-5.9 15.7-7.2l8.5-1.3z"/><path fill="#D96038" d="M167.38 127.56c0-2.62-.66-5.23-3.27-7.2-2.6-1.96-4.57-2.6-7.2-2.6-3.26 0-5.87.64-7.83 3.26-1.97 1.96-3.27 4.58-2.62 7.2 0 3.26 1.3 5.88 3.27 7.84 1.96 1.3 4.58 2.62 7.85 2.62 2.6 0 4.58-1.3 7.2-3.27l2.6-7.84z"/><path d="M156.9 115.8c-3.9 0-6.53 1.3-9.14 3.9-2.62 2.63-3.27 5.24-3.27 8.5 0 3.94 1.3 6.55 3.9 9.17 2.63 1.96 5.24 3.27 9.17 3.27 3.27 0 6.54-1.3 8.5-3.92s3.27-5.24 3.27-8.5c0-3.93-1.3-7.2-3.92-9.16-3.27-2.62-5.9-3.93-8.5-3.27zm6.55 18.3c-1.96 1.96-3.92 2.62-5.88 2.62-2.62 0-5.23-.66-6.54-2.62l-2.62-5.9c0-1.95.67-3.9 2.63-5.87.65-1.3 3.27-2.62 5.88-2.62 1.98 0 4.6.67 5.9 1.97 1.96 1.97 2.62 3.93 2.62 5.9 0 2.6-.66 5.22-1.97 6.53z"/><path fill="#D96038" d="M137.3 119.7l-2.62-5.22c-1.96-1.3-3.27-1.96-5.23-1.96-2.62.65-4.58.65-5.88 2.6-1.3 1.32-1.97 3.28-1.97 5.25 0 2.6 1.3 3.92 2.62 5.23 1.96 1.96 3.27 1.96 5.23 1.96l5.23-2.62 2.6-5.23z"/><path d="M129.45 110.56c-3.27.65-5.23 1.3-7.2 2.6-1.3 1.97-2.6 4.6-2.6 7.2 0 2.62 1.3 5.24 3.26 7.2 1.97 1.3 3.94 1.96 6.55 1.96 3.27 0 5.23-1.3 6.54-3.27 1.95-1.3 3.26-3.27 3.26-6.54 0-2.6-1.3-5.22-3.27-6.53-1.97-1.96-4.6-2.6-6.55-2.6zm-4.58 5.88c1.3-1.3 2.62-1.96 4.58-1.96l3.27 1.96 1.96 3.27-1.3 4.6c-.66.64-1.97 1.95-3.93 1.95l-3.92-1.96-1.96-3.93c0-1.97.65-2.62 1.3-3.93zM100.03 166.8l-6.54 11.1c-6.55 8.5-13.1 13.74-20.94 17l-39.23 1.97c-1.3-.65-2.62 0-3.27 1.96 0 1.3.65 2.62 2.6 2.62l13.74 1.96c11.12.66 20.28-.64 28.78-3.9 7.84-3.28 15.04-9.17 22.23-17.67l7.86-13.08c.65-1.96 0-3.27-1.96-3.27-1.3-1.3-2.62-.65-3.27 1.3zM197.46 154.37l-3.93-.65c-11.77 9.8-22.9 15.03-34.65 16.34l-24.2-3.92-13.08-5.23c-1.3-.64-1.96 0-3.27 1.32-.65 1.3 0 2.6 1.3 3.27l13.1 5.87 27.45 3.92c11.77-1.97 24.2-7.2 36.62-17l.66-3.93z"/><path fill="#D96038" d="M119 155.68l-18.97-45.78c-1.97-2.6-3.93-3.27-6.54-1.96-1.98 1.96-3.28 3.27-2.63 5.9 3.92 29.4 7.85 45.1 11.12 46.41 4.57 2.62 9.14 2.62 13.06 0l3.93-4.57z"/><path d="M102 107.94c-1.97-3.27-5.24-3.92-8.5-2.6-3.28 1.95-5.25 4.57-5.25 7.83v1.96c3.93 29.43 8.5 45.13 12.43 47.74l13.73.65 7.2-6.54v-1.3l-8.5-26.16c-5.23-11.77-8.5-19.62-11.1-21.58zm-8.5 5.23c0-1.3.64-1.96 1.95-3.27l2.6 1.3c1.97 1.97 5.24 8.5 9.82 19.63l8.5 24.85c-3.27 4.58-7.85 5.23-13.08 1.96-3.28-.65-6.55-15.04-9.82-43.16v-1.3z"/><path fill="#D96038" d="M128.14 168.75c1.3-1.96 1.97-4.58 1.3-7.2 0-2.6-1.3-4.57-3.26-5.87l-7.85-1.3c-1.96.64-3.92 1.95-5.23 4.57-1.3 1.96-1.96 4.58-1.3 6.54 0 1.94 1.3 4.56 3.92 5.87l7.2 1.3 5.22-3.92z"/><path d="M118.33 152.4c-3.27 1.32-5.23 2.62-6.54 5.24-1.97 2.6-2.62 5.23-1.97 7.84.66 3.27 1.96 5.9 5.23 7.85 2.62 1.3 4.58 1.96 7.85 1.3l7.2-4.57c1.3-3.27 2.62-5.88 1.3-9.15 0-2.6-1.95-5.22-4.56-6.53-2.62-1.96-5.24-1.96-8.5-1.96zm1.3 3.93l5.24 1.3 3.27 4.6v1.3c0 3.92-1.96 6.53-5.88 7.2l-5.9-.67c-1.3-1.3-2.6-3.27-3.26-4.58 0-1.96.66-4.57 1.96-5.88.66-1.96 2.62-2.6 4.58-3.27z"/><path fill="#D96038" d="M110.5 172.02c1.3-1.96 1.3-4.58 1.3-6.54-.66-1.96-1.96-4.57-3.93-5.88l-7.2-1.3c-1.95.65-3.9 1.95-5.88 3.92-1.3 2.6-1.3 4.57-1.3 7.2 0 2.6 1.95 3.9 3.9 5.87l7.2 1.3c1.97-.65 3.93-1.96 5.9-4.58z"/><path d="M108.53 157.64c-1.96-1.3-5.23-1.96-8.5-1.3-2.62.64-4.58 2.6-6.54 4.57-1.98 3.28-2.63 5.9-1.98 9.16.66 3.27 1.97 5.23 5.24 6.54l8.5 1.96c2.6-.65 4.58-1.96 6.54-5.23 1.96-2.62 2.6-5.23 1.3-7.85 0-3.26-1.96-5.88-4.57-7.84zm1.3 9.8l-1.3 3.93-3.93 3.27-5.88-1.3-3.27-4.6c0-1.95 0-3.26 1.3-5.22l4.58-3.27 5.23.66 3.27 4.6v1.94z"/><path stroke-miterlimit="100" d="M364.58 579.58H7.42V7.42h357.16v572.16z" fill="none" stroke="#000" stroke-width="14.84"/></svg>