<svg xmlns="http://www.w3.org/2000/svg" height="100%" viewBox="0 0 372 587"><path fill="#fffaf0" d="M0 0h372v587H0z"/><path d="M162.88 590.3c1.32 1.32 2.64 1.98 3.3.67 60.04-25.08 111.5-65.33 154.4-120.1 21.1-27.7 36.95-52.78 46.2-75.87.64-1.98 0-3.3-1.34-3.3-1.32-.67-1.97-.67-3.3.66-9.9 23.1-25.07 48.16-46.18 75.22-42.23 54.1-92.38 93.7-151.1 119.43-1.98 0-2.64 1.32-1.98 3.3z"/><path d="M331.13 424.7c-1.3 0-2.63.65-2.63 2.62l-.67 24.43c0 1.97 1.32 2.63 2.65 2.63 1.97 0 3.3-.66 3.3-2.63v-24.43c0-1.97-.66-2.63-2.65-2.63z"/><path fill="#D96038" d="M330.48 389.06c-3.3 0-5.94 1.32-6.6 2.64-2.65 2.63-3.3 7.26-3.3 13.86 0 5.93 1.98 11.87 5.27 15.83l5.28 5.92 5.28-5.93c3.3-3.97 4.63-9.9 4.63-16.5s-.66-10.57-3.3-13.2c-.66-1.98-3.3-2.64-7.25-2.64z"/><path d="M330.48 386.42c-3.96 0-7.26 1.98-9.24 3.96-1.98 2.64-3.96 7.9-3.96 15.18.66 10.55 4.62 19.13 12.54 23.75h2.63c7.92-4.6 11.22-13.2 11.22-24.4 0-6.6-.65-11.88-3.3-15.18-1.98-2-5.27-3.3-9.9-3.3zm0 5.28c3.3 0 5.27.66 5.94 1.98 1.3 1.32 2.63 5.28 2.63 11.2v.68c0 6.6-2.63 13.2-7.92 18.47-5.27-5.28-7.9-11.22-7.9-18.47v-.67c0-5.94.65-9.9 1.97-11.22l5.28-1.98zM302.76 462.3c-1.98 0-2.63 1.3-2.63 2.64l-2 25.07c0 1.33 1.33 2.65 2.65 2.65 1.98 0 2.65-.66 2.65-1.98l1.3-25.73c0-1.33-.65-2.64-1.97-2.64z"/><path fill="#D96038" d="M304.08 427.32c-3.95 0-6.6.67-7.92 2-1.98 2.63-3.3 7.24-3.3 13.84-.65 5.94 1.32 11.88 4.62 16.5l5.28 5.28 4.62-4.63c3.96-4.6 5.94-9.88 6.6-15.82 0-7.26-.66-11.87-3.3-13.86-.66-1.97-3.3-2.63-6.6-3.3z"/><path d="M313.32 428.65c-1.98-2.64-5.28-3.96-9.24-3.96-4.62 0-7.25.65-9.9 3.3-2.64 3.3-3.95 7.9-3.95 15.16-.67 7.26 1.3 12.54 4.6 17.82l5.95 6.6h3.3c7.26-5.28 11.88-12.54 12.54-23.1 0-7.26-.66-13.2-3.3-15.83zm-9.24 1.3c2.64.67 3.96.67 5.28 1.34 1.32 1.96 1.32 5.26 1.32 9.88v2.64c0 7.26-2.64 13.86-7.92 17.82-5.28-3.96-7.92-9.9-7.92-17.16v-1.32c.66-5.94 2-9.9 3.3-11.87l5.94-1.34zM277.7 488.7c-.67-1.33-1.33-2-3.3-2s-2.65.67-2.65 3.3l3.3 24.43c0 1.97 1.32 1.97 3.3 1.97l2.64-2.64-3.3-25.07z"/><path fill="#D96038" d="M269.1 451.75c-3.3.65-5.26 1.97-7.25 3.3-1.3 2.63-1.3 7.25-.66 14.5.65 5.95 3.3 11.22 7.25 15.2l5.94 4.6 4.6-5.94c2.65-5.26 3.97-10.54 2.65-16.5-.66-7.24-2.64-11.85-4.62-13.18-1.98-1.98-4.62-2.64-7.92-1.98z"/><path d="M258.55 470.2c1.32 6.6 3.3 11.9 8.58 16.5l6.6 4.63h2.64l4.62-6.6c3.3-5.94 3.95-11.88 3.3-19.13-.67-6.6-3.3-11.22-5.95-14.52-1.98-1.98-5.28-2.64-9.9-1.98-3.96 1.3-7.25 2.64-8.58 5.28-1.98 3.3-1.98 7.92-1.32 15.83zm6.6-13.84c1.32-1.32 2.64-1.32 4.62-1.98l5.28.66c1.98 1.97 3.3 5.94 4.62 11.87v3.98c0 5.93-1.98 10.56-5.28 15.17-6.6-4.6-9.9-9.9-10.57-17.15l-.66-6.6c0-2.64.66-4.62 1.98-5.94zM353.57 450.42c-1.32-1.98-1.98-2.64-3.3-1.98l-24.42 6.6c-1.97.66-2.63 1.98-1.97 3.3.65 1.97 1.97 2.64 3.3 2.64l24.4-7.26c1.33-.66 2-1.98 2-3.3z"/><path fill="#D96038" d="M386.56 439.2c-1.32-3.3-2.64-4.62-4.62-5.94l-13.85 1.32c-5.95 1.33-10.57 4.62-14.53 9.9l-3.3 6.6 6.6 3.3c5.94 1.98 11.87 1.98 17.8 0 5.95-1.98 10.57-3.96 11.9-7.26 1.3-1.97 1.3-4.62 0-7.92z"/><path d="M388.54 438.55c-.66-3.97-3.3-6.6-5.94-7.26l-15.84.65c-5.94 1.97-11.2 5.93-14.5 10.55-2 2.65-3.3 5.28-4.63 7.92l1.32 1.98 7.26 4.62h19.14c6.6-2.64 11.22-5.28 13.2-8.57 1.32-2.65 1.98-5.94.66-9.9h-.66zm-4.62 1.97l.66 3.3c0 3.3-3.3 5.28-11.22 7.93-7.92 2.63-14.5 1.97-19.8-2 3.3-5.93 8.6-10.54 15.18-12.53l11.88-1.97c1.32.66 2.64 2.63 3.3 5.27zM323.88 486.7c-1.32-1.96-2.65-2.63-3.3-1.96L296.16 492c-1.98 0-2.63 1.97-1.98 3.3.66 1.97 1.98 2.63 3.3 1.97l23.75-7.26c2 0 2.65-1.96 2.65-3.3z"/><path fill="#D96038" d="M356.87 476.15c-1.32-3.3-2.64-5.27-4.62-5.94l-14.52.68c-5.28 1.98-10.55 5.27-13.85 9.9l-3.3 6.6 6.6 3.3h17.15c6.6-2 11.22-3.97 12.54-6.6 1.32-2 1.32-4.63 0-7.93z"/><path d="M358.85 485.4c1.32-2.65 1.32-5.95 0-10.56-.66-3.96-3.3-6.6-5.94-7.26l-15.83.66c-5.94 2.64-11.22 5.93-14.52 11.2-1.97 2.65-3.3 4.63-4.62 7.27 0 .67 0 2 1.33 2.65l7.26 3.96c6.6 2 12.53 2 19.13 0 6.6-2.63 11.22-5.26 13.2-7.9zm-19.8-11.9l11.88-1.3 3.3 4.6.66 3.3c0 3.3-3.3 5.95-11.23 7.94-7.25 2.63-13.85 2.63-19.8-1.33 2.65-6.6 7.26-11.2 15.18-13.2zM300.78 517.73c0-1.33-.65-2.64-2.64-2.64l-25.07 1.3c-1.98 0-2.64.66-2.64 1.98 0 1.98.66 2.65 3.3 2.65h24.4c2 0 2.65-1.33 2.65-3.3z"/><path fill="#D96038" d="M335.75 516.4c0-3.3-1.32-5.93-2.63-7.26-2.65-1.97-6.6-2.64-13.86-2.64-5.94 0-11.88 2-15.83 5.94l-5.3 5.3 5.3 5.26c4.6 3.3 10.55 4.62 16.5 4.62l13.84-3.3c1.98-1.98 2.65-4.62 1.98-7.92z"/><path d="M334.43 506.5c-3.3-1.97-7.9-3.3-15.17-2.63-6.6.66-12.54 2.63-17.82 6.6l-5.28 5.93v3.3l5.94 5.28c5.28 3.96 11.22 5.94 18.48 5.28 6.6-.66 11.87-1.98 15.17-3.96 1.98-1.97 3.3-5.27 2.65-9.9-.67-4.6-1.33-7.9-3.97-9.9zm-3.3 15.84c-1.98 2-5.27 2-11.2 2.64-7.93 0-13.87-1.98-18.5-7.25 3.97-5.3 9.9-7.93 17.83-8.58l11.87 1.98c1.32.66 2 2.64 2 5.27v1.33l-2 4.6z"/><path fill="#858585" d="M246.02 481.44l-7.92-7.26-8.58 7.26c-5.27 5.93-7.92 13.2-8.57 20.45 0 7.9 2.63 14.5 7.9 19.78l8.6 6.6 7.9-6.6c5.95-5.28 8.6-11.88 8.6-18.48.65-7.9-2.65-15.16-7.93-21.76z"/><path d="M236.78 471.54l-9.24 8.57c-5.94 6.6-9.24 13.87-9.24 21.8 0 7.9 2.65 15.16 8.58 21.1l8.58 7.92c1.32.66 1.98.66 2.64 0l9.24-7.26c5.93-5.93 9.23-12.53 9.23-20.46.67-8.57-1.98-15.83-7.92-22.43l-9.23-9.23h-2.64zm14.52 30.35v.65c0 10.55-4.62 17.8-13.86 22.43-9.24-5.28-13.86-13.2-13.86-22.43v-.66c.67-9.25 4.62-17.83 14.52-24.42 9.24 6.6 13.2 15.17 13.2 24.4z"/><path d="M237.44 525.64c-1.98 0-2.64.66-2.64 2.64l-1.32 21.1c0 1.34.66 2 1.98 2.65l2.64-2.64 1.98-21.12c0-1.32-1.32-1.98-2.64-2.64z"/><path fill="#858585" d="M210.38 516.4l-5.93-9.23-9.9 5.27c-7.26 5.3-11.88 11.22-13.2 18.48-1.98 6.6-.66 13.86 3.3 20.46l6.6 8.57 9.24-3.96c6.6-4.62 11.2-9.9 12.53-17.82 1.97-6.6.66-13.85-2.65-21.78z"/><path d="M213.03 515.74l-7.27-10.55-2.63-.67-10.56 5.94c-7.26 5.93-11.88 11.87-13.86 19.13-1.97 7.92-.64 15.18 3.3 23.1l7.27 9.23 2.64.66c3.3-1.33 6.6-2.65 9.9-5.28 7.26-4.63 11.88-10.56 13.86-17.83 2-7.92 1.32-15.84-2.63-23.76zm-1.32 15.84l-.65 5.94c-2.64 9.9-9.24 16.5-19.14 19.8-5.93-5.94-9.23-12.54-9.23-19.8l1.32-6.6c1.97-9.24 8.57-16.5 19.8-21.12 4.6 7.26 7.9 14.53 7.9 21.78z"/><path d="M191.9 557.32c-1.97 0-3.3 0-3.3 1.97l-6.6 19.78c0 1.33.67 3.3 2.66 3.3 1.3 1.33 2.63 0 3.3-1.97l5.93-19.78c0-1.33-.67-3.3-2-3.3z"/><path fill="#858585" d="M253.27 556l6.6 8.57c5.28 5.94 11.88 7.9 19.8 7.9 7.26 0 13.86-1.96 20.46-7.9l7.25-8.58-7.26-7.92c-6.6-5.3-13.2-8.6-21.1-8.6-7.27 0-13.87 3.3-19.15 8.6-3.3 2.64-5.28 5.94-6.6 7.9z"/><path d="M251.3 557.32l6.6 9.9c6.6 5.27 13.2 8.56 21.77 8.56 7.92 0 14.52-3.3 21.77-8.57l8.58-9.88v-2.65l-8.58-8.58c-7.26-5.94-14.5-8.58-22.43-8.58s-14.5 2.64-21.1 8.57c-3.3 3.3-5.95 6.6-6.6 9.23v2zm52.78-1.33c-7.25 9.9-15.84 14.5-24.4 14.5-9.25 0-17.17-4.6-23.1-14.5 4.6-8.58 11.87-13.2 22.43-13.2s18.48 4.62 25.08 13.2z"/><path d="M226.88 552.7c-1.98 0-2.63 1.32-2.63 3.3 0 1.32.65 1.97 2.63 1.97l26.4 1.32c1.3 0 2.64-1.33 2.64-2.65 0-1.98-1.32-2.63-2.65-2.63l-26.4-1.33zM294.2 247.85c0-1.32-1.34-2.64-3.3-1.32-1.33 0-1.33 1.32-1.33 2.64l2.64 13.86c1.33 11.88 1.33 23.1 0 34.3-4.6 36.3-21.76 65.34-52.12 87.77l-34.97 24.4c-45.52 31.68-77.85 58.08-96.32 78.53C76.44 523 55.98 562.6 47.4 606.8c-.65 1.98 0 3.3 2 3.3l3.3-1.98c7.9-44.2 28.36-83.14 59.38-116.8 19.13-19.78 50.8-45.52 96.33-77.2l34.98-25.06c31-23.1 49.48-53.45 54.1-91.06 1.33-11.88 1.33-23.75 0-34.97l-3.3-15.17z"/><path fill="#D96038" d="M294.2 212.88c-2-1.32-3.97-1.97-7.93-1.32-3.3 0-5.28 1.98-6.6 3.3-1.98 2.65-1.98 7.26-1.32 13.86 1.32 6.6 3.3 11.22 7.92 15.84l5.94 3.95 4.63-5.93c2.63-4.6 3.3-10.55 2.63-17.15-1.32-6.6-3.3-10.56-5.27-12.54z"/><path d="M285.6 208.92c-3.96 0-6.6 2-7.9 4.62-2 1.32-2.65 4.62-2.65 8.58l.66 7.25c1.33 7.27 3.97 12.54 8.6 17.16l6.58 4.62 3.3-.65c6.6-5.94 9.24-14.53 7.26-25.08-.66-7.26-3.3-13.2-6.6-15.18-1.98-1.97-5.28-1.97-9.23-1.32zm-3.95 7.26l5.28-2.64 4.6 1.32c2.66.66 3.98 5.28 5.3 11.22v3.96c0 6.6-2 11.22-5.3 15.17-5.26-3.28-9.22-8.56-10.54-16.48l-.67-6.6 1.32-5.94zM310.02 269.63c-1.98-.66-2.64 0-3.3 1.32l-13.2 21.1c-1.3.67-.66 2 .66 3.97 1.32.67 2.65 0 3.3-1.32l13.2-21.1c1.32-2 .66-2.65-.66-3.97z"/><path fill="#D96038" d="M327.83 239.94c-3.3-1.98-5.27-1.98-7.25-1.98-3.3 1.3-6.6 5.27-9.9 10.55-3.3 5.3-3.96 11.23-3.96 16.5l1.98 7.26 7.26-1.3c5.27-2.65 9.9-6.6 12.54-11.9 3.95-5.93 5.27-10.55 4.62-13.2 0-2.63-2.64-4.6-5.3-5.92z"/><path d="M329.82 237.96c-3.97-2.64-7.26-3.3-9.9-2-3.96.68-7.26 4.64-11.88 10.57-5.28 9.9-5.94 18.48-1.32 26.4l1.98 1.98c9.24-.65 16.5-5.27 21.77-14.5 3.96-5.95 5.95-11.23 5.28-15.2 0-2.63-2.63-5.26-5.93-7.24zm.66 9.24c0 2.63-1.32 5.93-3.96 10.55-3.3 6.6-9.24 9.9-15.84 11.88-.66-1.98-1.32-3.96-1.32-7.26 0-4.62 1.32-9.24 3.96-12.54 2.64-5.27 5.28-8.57 7.26-8.57l5.94.65c2.63 1.34 3.96 2.66 3.96 5.3zM307.38 315.15h-3.96L284.3 331c-1.33 1.3-1.33 2.63-.67 3.95h3.96l19.12-15.83c.66-.67 1.32-2.64.66-3.97z"/><path fill="#D96038" d="M333.77 292.72c-2.64-3.3-4.62-3.96-6.6-3.96-3.3 0-7.9 1.98-13.2 6.6-4.6 3.96-7.25 8.58-9.23 13.86v7.26c7.92 2.64 15.84.66 23.1-5.94 5.28-3.96 8.58-7.92 8.58-11.22.65-1.98-.67-3.96-2.65-6.6z"/><path d="M302.76 309.22l-.66 7.92 1.98 1.98c9.24 3.3 17.16.66 25.74-6.6 5.93-4.62 8.58-8.58 9.23-12.53.67-2.66-.65-5.96-3.3-9.9-3.3-3.3-5.93-4.64-9.23-3.98-3.3 0-8.58 1.98-13.86 6.6s-8.58 9.9-9.9 16.5zm23.76-18.48c1.3 0 3.3 1.32 4.6 3.3l2.66 4.62c0 1.98-2.65 5.94-7.26 10.56-5.94 3.96-11.88 6.6-19.14 5.93 0-7.25 3.3-13.2 8.58-18.46 4.62-3.98 7.92-5.96 10.56-5.96zM263.17 365.97c0 2.63 1.32 2.63 3.3 1.97l23.76-6.6c1.3-.66 2.63-1.97 1.3-3.3 0-1.97-1.3-2.63-3.3-1.97l-23.74 6.6c-1.33.65-2 1.97-1.33 3.3z"/><path fill="#D96038" d="M306.72 342.2c-5.94 1.33-10.56 4.63-13.86 9.9-1.98 2.64-2.63 4.63-3.3 6.6l6.6 3.3h17.16c6.6-1.97 10.56-3.96 11.88-6.6 1.32-1.97 1.32-4.6.66-7.9-1.32-3.3-2.64-5.3-5.28-5.95l-13.86.66z"/><path d="M327.18 356.73c1.97-2.65 1.97-5.94.65-9.9-1.3-4.62-3.3-7.25-6.6-7.92l-15.17.68c-6.6 1.97-11.88 5.93-15.18 10.55-2.64 3.96-3.95 5.94-3.95 7.9 0 .68 0 1.34.65 2.66l7.26 3.94c5.94 1.98 12.54 1.98 19.14 0 6.6-2.64 11.22-5.27 13.2-7.9zm-7.26-13.2c.66 0 1.98 1.98 3.3 4.6l.66 3.3c0 3.3-3.96 5.95-11.22 7.94-7.92 2.63-14.52 1.97-19.8-2 1.98-5.93 7.26-10.54 14.52-12.53l12.54-1.3zM243.38 389.72l24.4-.66c2-.66 2.65-1.33 2.65-3.3 0-1.32-.66-2.64-2.64-1.98l-25.08 1.32c-1.32 0-2.64.66-2.64 2.63 0 1.33 1.32 2 3.3 2z"/><path fill="#D96038" d="M305.4 384.44c-.66-3.96-1.32-5.94-2.64-7.92-2.64-1.32-7.26-1.98-14.52-1.98-5.93.66-11.2 2.64-15.17 6.6l-5.28 5.28 5.93 5.28c4.6 2.63 9.9 3.96 16.5 3.3 6.6 0 10.55-1.32 13.2-3.3 1.3-1.98 2.63-3.97 1.97-7.26z"/><path d="M265.15 385.1c-.66.66-.66 1.32 0 2.63l6.6 5.3c5.28 3.94 11.22 5.26 18.48 5.26 7.25-.67 12.53-2.64 14.5-5.28 2.65-1.32 3.3-4.62 3.3-9.24-.65-4.62-1.97-7.92-3.95-9.24-3.3-2.64-7.92-2.64-15.84-2.64-7.25 0-12.53 2.64-17.15 6.6l-5.95 6.6zm23.1-7.92l12.53 1.32c.66 1.32 1.98 3.3 1.98 5.93v1.33l-1.98 4.62-11.22 1.98c-7.92.66-13.2-1.33-18.47-6.6 3.95-5.28 9.9-7.92 17.14-8.58zM283.63 279.52h-3.3c-1.98 0-2.64 1.33-1.32 3.3l12.54 21.12c1.32 1.98 2.64 1.98 3.96 1.3 1.98-1.3 1.98-2.62 1.33-3.94l-13.2-21.78z"/><path fill="#D96038" d="M274.4 279.52l6.6 1.33 1.97-6.6c.66-5.94-1.32-11.22-4.62-16.5-3.3-5.94-6.6-9.24-9.9-9.9-1.3-.65-3.96 0-7.25 1.98-3.3 1.32-4.62 3.3-4.62 5.28-.66 3.3.66 7.93 4.62 13.2 3.3 5.95 7.25 9.25 13.2 11.22z"/><path d="M283.63 282.82c3.96-8.57 3.3-17.8-2.64-26.4-3.97-6.6-7.27-9.9-11.23-11.2-2.64-.66-5.94-.66-9.9 1.98-3.3 2.63-5.93 5.27-5.93 7.9-.67 3.97.65 9.25 4.6 15.2 5.95 9.23 13.2 13.85 22.45 13.85 1.97 0 2.63-.66 2.63-1.33zm-3.3-10.56l-.66 5.95c-7.26-.65-12.54-4.6-16.5-10.55-2.63-4.62-4.62-7.92-4.62-11.22 0-1.98 2-3.3 3.96-4.62l5.3-1.97c2.63 1.32 5.27 4.62 8.57 9.24 2.64 3.96 3.96 8.58 3.96 13.2zM267.8 316.48c-1.33 1.3-1.33 2.63-.67 3.96l13.2 21.77c.66 1.33 1.98 1.33 3.3 0 1.3 0 1.98-1.97.66-3.3l-13.2-21.76c-.67-1.32-2-1.32-3.3-.66z"/><path fill="#D96038" d="M249.32 286.8c-2.64 1.96-4.62 3.94-4.62 5.92-.66 3.3.65 7.92 3.95 13.2 3.3 5.93 7.92 9.23 13.2 11.22l7.26 1.98 2-7.27c0-5.93-.67-11.2-3.97-16.5-3.96-5.93-7.26-9.23-10.56-9.9-1.97-.65-4.62 0-7.25 1.34z"/><path d="M271.75 319.78l1.98-7.93c.66-5.93-1.32-12.53-5.28-18.47-3.3-5.94-7.26-9.23-10.56-10.56-3.3-1.32-6.6 0-9.9 1.98-3.3 2-5.28 4.62-6.6 7.26-.66 3.96.65 8.58 5.27 15.84 3.97 5.28 7.92 9.24 14.52 11.88l7.9 1.97 2.65-1.97zm-15.18-32.33c1.98 1.3 4.62 4.6 7.92 9.24 2.63 3.94 3.95 9.22 3.95 13.18l-.66 5.94c-7.26 0-12.55-3.97-16.5-10.57-3.3-5.27-4.62-8.56-4.62-11.2l.66-.66 3.3-3.98c2.63-1.98 3.96-1.98 5.93-1.98zM249.97 348.8c-.65-1.97-1.97-2.63-3.3-1.3-1.97.64-1.97 1.97-1.3 3.94l11.87 21.13c.65 1.97 2.63 2.63 3.95 1.97 1.3-1.32 1.97-2.64.65-3.96l-11.88-21.77z"/><path fill="#D96038" d="M236.78 315.82c-1.98-.67-5.28 0-7.92 1.32-3.3 1.98-4.62 3.3-4.62 5.27-.66 3.3.66 7.93 3.96 13.87 2.64 5.94 6.6 9.24 12.54 11.87l7.26 1.33 1.97-6.6c.67-5.94-1.32-11.22-3.95-17.16-3.3-5.92-6.6-9.22-9.24-9.88z"/><path d="M228.2 315.15c-3.95 1.33-6.6 3.97-6.6 6.6l-.65 2.64c0 3.3 1.3 7.9 4.6 13.2 5.95 9.23 12.55 14.5 22.45 14.5l1.97-.66c4.62-8.57 3.97-17.15-1.97-26.4-3.3-6.6-6.6-10.55-9.9-11.86-3.3-.66-6.6-.66-9.9 1.97zm1.98 3.97l5.94-.67 7.92 8.6c1.98 4.6 3.3 8.56 3.3 12.52l-1.32 7.26c-6.6-1.32-11.88-5.28-15.84-11.88-2.64-4.62-3.96-8.57-3.96-10.56l.66-1.32 3.3-3.96zM219.63 375.86c-.67-1.32-1.32-1.98-3.3-1.32-1.33 0-1.98.66-1.98 2.64l3.95 24.4c.66 2 1.98 2.65 3.3 2.65 1.98-.66 2.64-1.97 2.64-3.3l-4.62-25.07z"/><path fill="#D96038" d="M217.65 340.9l-7.92-1.32c-3.97.65-5.94 2.63-7.27 3.95-1.3 2.64-1.3 7.9 0 14.5 1.33 5.95 3.97 10.57 8.6 14.54l5.92 3.95 3.97-5.28c2.63-5.94 3.3-11.2 1.97-17.8-1.32-6.6-2.64-10.57-5.27-12.55z"/><path d="M225.56 352.77c-1.3-6.6-3.3-11.22-6.6-13.86-1.98-1.97-5.28-2.62-9.9-1.97-3.95 1.32-6.6 2.65-7.9 5.28-2 1.33-2.65 3.97-2.65 7.27l1.33 9.23c1.98 9.9 7.92 17.16 15.83 20.46l2.64-.66c7.26-5.94 9.9-14.52 7.26-25.73zm-20.45 3.96l-.65-7.26.66-4.63c.66-1.3 2.65-1.97 5.28-2.63l5.28.67c2.64 1.97 3.96 5.27 5.28 11.2v5.3c0 5.27-1.98 9.9-4.62 13.85-5.94-3.3-9.23-8.58-11.2-16.5z"/><path fill="#858585" d="M255.25 440.52l8.6-7.25-6.6-8.58c-5.95-6.6-12.55-9.9-19.8-10.57-7.93-1.32-14.53.66-20.47 5.94l-7.92 7.92 5.94 8.56c5.28 5.94 11.22 9.24 19.14 9.9 7.26 1.32 13.86-1.3 21.1-5.94z"/><path d="M256.57 443.16l9.24-8.58.67-2.63-7.92-9.9c-6.6-6.6-13.85-9.9-21.1-10.56-8.6-.67-15.85 1.3-22.45 6.6-3.3 2.62-5.94 5.27-7.25 7.9-.67 1.32-.67 2-.67 2.65l6.6 9.9c5.28 5.93 11.88 9.9 19.8 10.55 7.92 1.32 15.17-1.32 23.1-5.94zm-19.8-27.05c9.25 1.32 17.17 6.6 23.77 16.5-7.92 8.58-16.5 12.55-26.4 11.22-9.9-1.32-17.16-5.94-21.78-15.83l7.92-7.28c4.62-3.3 10.56-5.27 16.5-4.6z"/><path d="M189.27 422.05c-1.3 0-3.3.66-3.3 2.64 0 1.3.67 2.62 2.64 2.62l20.47 3.3c1.98 0 2.64-.65 2.64-2.63.66-2 0-2.65-1.97-3.3l-20.46-2.65z"/><path fill="#858585" d="M211.7 479.45l9.25-5.94-5.94-9.88c-4.62-6.6-11.2-11.22-18.47-12.54-7.26-1.98-13.86-.66-21.1 3.3l-7.27 6.6 3.96 9.9c3.95 6.6 9.9 9.9 17.15 11.87 7.26 1.32 15.18.66 22.44-3.3z"/><path d="M197.2 448.44c-7.93-1.32-15.2-.66-22.44 3.3l-9.24 7.26v2.64c0 2.64 1.32 5.94 4.62 10.56 4.62 6.6 11.22 11.87 18.47 13.2 7.93 1.97 15.85.65 23.76-3.3l9.9-7.26 1.32-2.64-6.6-10.56c-5.27-7.26-11.87-11.22-19.8-13.2zm-17.83 6.6c5.94-2.64 11.22-3.3 16.5-1.32 9.9 1.98 16.5 7.92 21.78 18.48-9.9 7.9-19.14 9.9-27.72 8.57-9.24-2.63-15.83-9.23-19.13-19.13 1.97-2.64 4.62-4.62 8.57-6.6z"/><path d="M148.37 453.06c-2-.66-2.65.66-3.3 1.98-.67 1.98 0 2.64 1.3 2.64l21.13 5.93 2.64-1.96c.65-1.32 0-2.64-1.32-3.3l-20.45-5.28z"/><path fill="#858585" d="M167.5 516.4l7.92-7.26-6.6-9.24c-5.94-5.93-12.54-9.23-19.8-9.9-7.25 0-13.85 1.33-20.45 6.6l-6.6 7.93 5.28 8.57c5.28 5.94 11.22 9.24 18.47 9.9 7.26.66 15.18-1.32 21.78-6.6z"/><path d="M127.25 493.97l-7.92 9.23v2c0 1.97 1.98 5.27 5.94 9.9 5.94 5.93 12.53 9.23 20.45 10.54 7.92.66 15.84-1.3 23.1-6.6l9.24-7.9v-3.3c-.67-2.65-3.3-5.95-7.26-9.9-6.6-6.6-13.2-9.9-21.78-10.57-7.92-.66-15.17 1.32-21.77 6.6zm21.77-1.32c5.28.66 10.56 2.64 15.84 7.25l7.25 8.6c-7.24 8.56-15.82 12.53-25.72 11.86-8.58-.66-16.5-5.93-21.77-15.83 6.6-8.58 14.53-12.54 24.42-11.88z"/><path d="M101.5 498.6c-1.96 0-2.62.65-3.3 2.63 0 1.97.68 2.64 2 3.3l21.1 1.97c2 .67 2.65 0 3.3-1.97 0-1.33-1.3-2.64-2.63-3.3l-20.46-2.64z"/><path fill="#858585" d="M135.17 555.33l7.25-9.24-9.24-7.26c-6.6-4.62-14.5-5.94-21.1-5.28-7.27.66-13.87 4.62-18.5 10.56l-5.26 9.23 7.26 7.27c6.6 4.6 13.2 6.6 20.45 5.27 7.26-.67 13.85-4.63 19.14-10.57z"/><path d="M134.5 536.2c-7.9-4.62-15.17-6.6-23.1-5.28-7.9.66-14.5 5.28-19.78 11.87-3.96 4.62-5.94 7.92-5.94 9.9v1.97l8.58 7.92c7.25 5.27 14.52 7.25 22.43 6.6 7.25-1.33 14.5-5.28 20.45-11.88l7.25-9.9v-3.3l-9.9-7.92zm-43.54 16.5c5.93-9.9 12.53-15.18 21.1-16.5 9.9-1.32 18.5 1.98 26.4 9.9-5.28 10.55-13.2 16.5-23.1 17.8-9.88.67-17.8-3.28-24.4-11.2z"/><path d="M90.3 552.7c0-1.98-.66-1.98-2.64-1.98L67.2 552.7c-1.98 0-3.3 1.32-2.63 2.63 0 2 1.32 2.65 2.63 2l21.12-1.34c1.98 0 2.64-1.33 1.98-3.3z"/><path fill="#858585" d="M185.97 358.7l-7.9-7.26-7.93 7.26c-5.28 6.6-7.92 13.86-7.92 21.12 0 7.9 2.64 14.5 8.58 19.8 2.64 2.64 5.27 5.27 7.9 5.94l8.6-6.6c4.6-5.3 7.9-11.88 7.9-19.14-.65-7.92-3.3-14.52-9.23-21.12z"/><path d="M179.37 348.8c-.65-.66-1.3-.66-2.63 0l-8.58 9.24c-5.94 6.6-9.24 13.86-9.24 21.78.66 8.58 3.3 15.18 9.24 21.77l9.23 6.6h1.97l9.24-7.27c5.95-5.93 9.25-13.2 9.25-21.1-.66-7.93-3.3-15.2-9.24-22.45l-9.23-8.57zm12.54 31.02c0 5.94-1.3 11.2-5.27 15.84l-7.9 6.6c-9.25-4.63-13.87-12.54-13.87-22.44 0-9.24 3.96-17.82 13.2-25.08 9.23 7.26 13.85 15.18 13.85 25.08z"/><path d="M178.7 402.92c-1.3 0-2.63 1.3-2.63 2.64l-.65 26.4c0 1.96.65 2.63 2.64 2.63l2.63-2 .66-27.04c0-1.33-.67-2.64-2.65-2.64z"/><path fill="#858585" d="M144.4 392.36l-9.23-7.26-7.26 8.57c-4.6 7.26-6.6 14.52-5.93 21.78 0 7.26 3.3 13.2 9.9 19.13 2.63 2.64 5.93 3.97 8.57 5.28l7.92-7.25c4.62-6.6 6.6-13.2 5.94-20.45-.66-7.26-3.96-13.85-9.9-19.8z"/><path d="M156.94 412.15c-1.32-7.92-4.62-15.18-10.56-21.12l-9.9-7.9h-3.3l-7.9 9.23c-5.3 7.9-7.27 15.83-6.6 23.1 1.3 8.56 4.6 15.16 11.2 20.45 3.3 2.65 6.6 5.28 9.24 5.95h2.65l8.57-7.93c5.28-6.6 7.26-13.85 6.6-21.77zm-5.28 0v2.64c0 9.22-3.96 16.5-11.88 21.76l-7.9-5.94c-4.63-4.6-6.6-9.23-7.27-15.83l-.65-2c0-7.9 3.96-16.48 11.22-24.4 10.55 6.6 15.83 14.52 16.5 23.75z"/><path d="M143.08 439.2l-3.3-1.98c-.66 0-1.3.66-1.3.66l-.68 1.98.67 21.12c0 1.32 1.3 2.63 3.3 2.63 1.3 0 2.63-1.3 2.63-2.62l-1.32-21.78z"/><path fill="#858585" d="M105.48 441.85l-7.27-7.27-9.22 6.6c-5.28 6.6-8.58 13.2-8.58 20.46 0 7.92 1.98 14.5 7.26 20.45l7.92 6.6c3.3-1.33 5.93-3.3 8.58-5.95 5.93-5.27 8.57-11.87 9.23-19.13 0-7.92-2-14.52-7.92-21.77z"/><path d="M99.53 431.95c-.65-.66-1.97-.66-2.64 0l-9.9 8.57c-5.94 6.6-8.58 13.86-9.24 21.12-.66 8.57 1.98 15.83 7.92 21.77l8.58 7.27 2.63.66 9.23-7.26c5.94-5.93 9.24-12.53 9.24-20.46.66-7.9-1.98-15.82-7.26-22.42l-8.56-9.23zm-16.5 31.66v-1.3c.67-9.9 5.3-17.82 15.2-24.41 7.9 7.9 11.86 16.48 11.86 24.4v1.3c0 10.58-4.62 17.17-14.52 21.8-8.58-5.95-12.54-13.2-12.54-21.8z"/><path d="M95.58 486.05c-2 0-2.64 1.32-2.64 2.64l-1.32 21.1c-.66 1.33 0 2 1.97 2.64l3.3-2.64 1.3-21.1c0-1.33-.64-2-2.62-2.65z"/><path fill="#858585" d="M58.63 493.97l-9.9-6.6-6.6 9.9c-3.96 7.26-5.28 14.52-3.3 21.77 1.32 7.26 5.28 13.2 11.88 17.15l9.25 4.62 7.25-7.93c3.97-6.6 5.3-13.2 3.3-21.1-1.3-6.6-5.28-13.2-11.88-17.83z"/><path d="M46.75 485.4l-7.26 10.55c-3.3 8.58-5.3 15.84-3.3 23.75 1.3 7.93 5.93 13.86 13.2 18.48 4.6 3.3 7.9 5.28 9.9 5.28l2.62-.67 7.27-8.58c4.6-7.26 5.92-14.52 4.6-23.1-1.98-7.25-6.6-13.85-13.2-19.8-5.27-3.95-8.57-5.93-11.2-5.93h-2.65zm-5.94 33v-5.3c0-7.9 3.3-15.17 8.6-22.43 10.54 5.28 16.5 12.53 19.12 22.43l.67 4.63c0 8.57-3.3 15.17-9.9 19.8-9.9-2.65-15.85-9.25-18.5-19.14z"/><path d="M61.92 538.84l-2.63-.66c-1.33 0-2 1.3-2 3.3l3.3 20.45c.67 1.98 2 2.64 3.3 1.98 2 0 2.64-1.3 2-2.63l-3.3-20.45-.68-1.98zM228.2 79.6c-1.32 0-2.64.66-2.64 1.98 0 19.8-1.98 40.9-7.26 65.32-9.24 48.17-25.73 86.44-48.83 114.15-10.55 13.2-28.37 29.04-52.78 48.83-29.04 23.75-50.16 44.86-63.35 62.7-21.78 30.34-38.27 69.27-48.83 118.1 0 1.3.66 2.63 1.98 2.63l3.3-1.97c9.9-46.85 26.4-85.77 47.5-115.47 13.2-17.82 34.3-38.93 62.68-62.02 24.42-18.48 42.24-35.63 54.1-49.5 23.1-28.37 40.26-67.3 49.5-116.1 4.62-25.1 7.26-46.87 7.26-66.66 0-1.32-.66-1.98-2.64-1.98z"/><path fill="#D96038" d="M237.44 58.48c-1.32-1.97-3.3-2.63-7.26-3.3-3.3 0-5.94.67-7.92 1.98-1.98 2.64-3.3 6.6-3.96 13.86 0 5.94 1.32 11.88 4.62 16.5l5.28 5.28 5.28-4.62c3.96-4.62 5.27-9.9 5.94-15.84.66-7.26-.66-11.88-1.98-13.86z"/><path d="M230.18 53.2c-3.3-.65-6.6 0-9.23 2-2.64 2.62-4.62 7.9-5.3 15.16 0 7.26 1.33 13.2 5.3 18.48l5.27 5.93 2.64.67 6.6-5.94c3.96-4.62 5.94-9.9 6.6-17.16.66-7.92-.66-13.2-3.3-15.83-1.98-2.64-4.62-3.3-8.58-3.3zM221.6 73v-1.98c0-5.94.66-9.9 3.3-11.87l5.28-.67c1.98 0 3.96 0 4.62 1.32 1.98 1.98 2.64 4.62 2.64 8.58l-.66 3.3c0 8.58-3.3 14.52-8.58 17.82-4.62-3.96-6.6-9.9-6.6-16.5zM212.36 118.53c-.65-1.98-1.3-1.98-3.3-.66-1.3 0-1.98 1.32-.65 3.3l11.22 21.77c1.33 1.32 1.98 2.64 3.96 1.32 1.32-1.32 1.32-1.98.66-3.3l-11.88-22.43z"/><path fill="#D96038" d="M191.9 86.86c-3.3 1.32-4.6 3.3-5.27 5.94-.66 2.64.66 7.25 3.96 13.2 3.3 5.27 7.25 9.9 12.53 11.87l7.25 1.98 1.98-7.26c1.32-5.95-.65-11.23-3.3-16.5-3.3-5.95-6.6-9.9-9.9-10.56-1.3-.66-3.95-.66-7.25 1.3z"/><path d="M201.15 82.9c-3.3-1.32-6.6-.66-9.9 1.98-3.96 1.97-5.94 4.62-6.6 7.9-.66 3.3.66 8.6 3.96 14.53 3.3 5.95 7.27 10.57 13.2 12.55l8.58 2.64 1.98-1.33c4.62-8.58 4.62-16.5-.65-26.4-3.95-6.6-7.25-9.9-10.55-11.87zm-7.92 6.6l5.28-1.32c2.65 1.32 5.3 3.96 8.58 8.57 1.98 4.62 3.3 7.92 3.3 12.54l-1.97 7.25c-6.6-.66-11.2-5.28-15.83-11.88-1.98-4.62-3.3-7.92-3.3-9.9 0-1.97 1.32-3.96 3.96-5.27zM201.8 157.46c-1.3-1.32-2.63-1.32-3.95 0-1.98.66-1.98 1.32-.66 3.3l13.85 21.1c.66 1.33 1.98 2 3.96.67.66-1.3 1.33-2.64 0-3.96l-13.2-21.1z"/><path fill="#D96038" d="M178.06 127.77c-2.65 1.97-3.97 4.62-4.62 6.6-.67 3.3 1.32 7.9 5.27 13.2 3.3 4.6 7.93 8.57 13.2 10.55l7.27 1.32 1.98-7.26c0-5.94-1.98-11.22-5.28-16.5-3.96-5.94-7.26-9.24-10.56-9.9-1.97 0-3.94.66-7.24 2z"/><path d="M198.5 134.36c-4.6-6.6-7.9-9.9-11.87-11.2-2.64-.67-5.94 0-9.9 2.63s-5.27 5.26-5.93 8.56c0 3.3 1.32 8.58 5.27 14.52 6.6 8.58 14.52 13.2 23.1 13.2l2.64-1.32c3.3-8.58 2.65-17.82-3.3-26.4zm-22.43 1.32c0-1.98 1.32-3.3 3.3-5.28 2.64-1.3 4.62-1.97 5.94-1.3 2.66 0 5.3 3.3 8.6 7.9 2.63 3.96 4.6 8.58 4.6 13.86l-.65 5.28c-7.26-.66-12.54-3.96-17.16-10.56-2.64-4.62-4.63-7.92-4.63-9.9zM187.3 201.67c0-2-2-2.64-3.3-1.32-2 0-2 1.32-1.33 3.3l10.56 23.1c1.32 1.3 1.98 1.97 3.96 1.3 1.3-1.3 1.3-2.63 1.3-3.95l-11.2-22.43z"/><path fill="#D96038" d="M168.82 168.68c-3.3 1.97-5.28 3.3-5.94 5.27-.66 3.3 0 7.92 3.3 13.86 2.64 5.95 6.6 9.9 11.88 12.55l7.25 1.97 2.66-6.6c.65-5.27 0-11.87-2.65-17.15-3.3-5.94-6.6-9.9-9.23-11.22l-7.25 1.33z"/><path d="M187.3 177.25c-3.3-5.93-6.6-9.9-9.9-11.87l-9.9.65c-4.62 2.65-6.6 4.62-7.26 7.92-1.32 3.3.66 8.58 3.96 15.18 2.64 5.94 7.26 10.55 12.54 13.2l7.92 2.64c.65 0 1.98 0 2.63-1.32 4.6-7.92 4.6-16.5 0-26.4zm-11.88-6.6c2.64.67 4.62 3.3 7.25 9.24 2 3.95 2.64 7.25 2.64 11.2l-1.3 8.58c-7.26-1.97-11.88-5.93-15.18-12.53-2.65-5.28-3.3-8.58-3.3-10.56 0-1.98.65-3.97 3.95-5.28l5.95-.67zM165.52 237.96c0-1.32-1.32-2-3.3-1.32-1.32 0-1.98 1.32-1.32 3.3l7.92 23.1c.66 1.97 2.64 1.97 3.95 1.97 2-.65 2.65-1.97 1.32-3.95l-8.58-23.1z"/><path fill="#D96038" d="M149.68 203.65c-3.3 1.32-4.6 3.3-5.28 4.62-1.98 3.3-1.32 7.9 1.32 13.85s5.95 11.22 10.56 13.85l6.6 2.65 3.3-6.6c1.98-5.28 1.98-11.2-.66-17.16-2.64-5.94-4.62-9.9-7.26-11.2h-8.58z"/><path d="M168.16 214.2c-2.64-7.25-5.94-11.22-9.24-12.53l-9.9-.66c-3.95 1.32-6.6 3.97-7.25 7.27-2 3.3-.67 8.57 1.3 15.17 2.65 6.6 6.6 11.22 11.9 14.52l7.9 3.3 2.65-.66 3.3-7.26c1.97-6.6 1.32-13.2-.66-19.13zm-11.88-8.58c2.64 1.32 4.62 4.62 6.6 9.9l1.98 9.24c0 3.96-.66 7.26-2.64 10.56-6.6-1.98-10.56-6.6-13.85-13.86-2-3.96-2.65-7.25-2.65-9.9 0-2.64 1.98-4.62 5.28-5.94h5.28zM238.76 131.73c-1.32-2-2.64-2-3.96 0l-16.5 19.13c-1.32 1.32-.65 1.98 0 3.3h3.3l17.16-18.48c1.32-1.32 1.32-2.64 0-3.95z"/><path fill="#D96038" d="M261.85 105.33c-2.64-2.64-4.6-3.3-7.26-2.64-3.3 0-6.6 3.3-11.22 7.9-4.62 4.63-6.6 9.9-6.6 15.84-.66 2.65 0 5.3 0 7.26l7.26-.66c5.93-.65 10.55-3.95 14.5-8.57 4.63-5.28 6.6-9.24 6.6-12.54 0-2.64-.65-3.96-3.3-6.6z"/><path d="M263.83 103.35c-3.3-3.3-6.6-3.96-9.9-3.96-3.3.65-7.25 3.95-12.53 9.9-4.62 4.6-7.26 10.55-7.26 16.5-.66 5.26-.66 7.24.66 8.56l1.98 1.98 7.92-.65c6.6-1.34 11.87-4.63 16.5-9.9 4.6-5.3 6.6-9.9 6.6-13.2.65-3.3-.67-6.6-3.97-9.25zm-18.48 9.24c3.97-4.63 7.27-7.27 9.24-7.93 1.97 0 3.3 1.32 5.27 2.64l3.3 5.3c0 1.97-1.98 5.27-5.93 9.9-5.3 5.93-11.22 8.56-18.48 8.56v-3.3c0-5.27 2.64-10.56 6.6-15.17zM233.48 175.27c-1.32-1.32-1.98-1.98-3.96-1.32l-21.1 14.52c-1.33.66-1.33 1.98-.67 3.3.66 1.98 1.98 1.98 3.96.66l20.46-13.86c1.98-1.32 1.98-2.64 1.32-3.3z"/><path fill="#D96038" d="M261.85 155.48l-5.93-4.62c-2.65 0-7.92 1.32-13.2 4.62-4.62 3.96-8.58 8.58-10.56 13.85l-1.32 7.26 7.26 1.32c5.94.65 11.22-.67 16.5-4.63 5.94-3.97 9.24-7.27 9.9-10.57 0-1.97-.67-3.95-2.65-7.25z"/><path d="M264.5 154.16c-2.65-3.3-5.95-5.28-8.58-5.94-3.97-.66-8.58 1.32-14.52 5.94-5.94 3.3-9.9 7.92-11.22 14.52l-1.98 7.9 1.98 2 7.92 1.97c6.6 0 12.54-1.32 17.82-5.27 5.93-3.96 9.9-7.92 11.2-11.22.67-3.3 0-6.6-2.63-9.9zm-9.25-.66c2 0 2.64.66 4.62 3.3l1.98 4.62c0 2.64-3.3 5.94-8.58 9.23-6.6 4.62-13.2 5.94-19.13 3.97.66-6.6 3.96-12.54 10.56-16.5 4.62-3.3 8.57-5.28 10.55-4.63zM226.22 212.22c-.66-1.98-1.32-1.98-3.3-1.98l-24.4 5.28c-1.33 0-2.65 1.32-2 3.3l2.65 1.98 25.07-5.28c1.32-.66 1.98-1.3 1.98-3.3z"/><path fill="#D96038" d="M260.54 204.3c-1.33-3.3-2.65-5.93-3.97-6.6-3.3-1.97-7.92-1.97-14.52 0-5.93 1.32-10.55 4.62-14.5 9.24-2 1.98-3.3 3.97-3.97 5.94l6.6 3.96 16.5 1.32c7.26-1.32 11.2-3.3 13.2-5.94 1.3-1.98 1.3-3.95.66-7.9z"/><path d="M257.24 195.07c-3.3-1.32-9.24-1.32-15.84 0-6.6 1.98-11.88 5.28-16.5 9.9l-3.95 7.25.65 2.64 6.6 4.62 19.14 1.32c7.26-1.98 11.88-3.96 13.85-7.26 1.97-1.98 2.64-5.27 1.97-9.9-1.32-4.6-3.3-6.6-5.93-8.57zm.65 13.2c0 3.3-3.96 5.27-11.88 7.25-7.26 2-13.86 1.32-19.14-3.3 2.64-6.6 7.92-10.55 15.84-11.87h11.87l3.3 4.62v3.3zM201.8 250.5c-.65-2-1.97-2.64-3.3-2l-24.4 7.27c-1.98.66-1.98 1.98-1.98 3.3.65 1.98 1.97 2.64 3.3 1.98l24.4-7.25c2-.67 2-2 2-3.3z"/><path fill="#D96038" d="M234.8 239.94c-.66-3.3-2.64-5.28-4.62-6.6l-13.85 1.32c-5.94 1.98-10.57 5.28-14.52 9.9l-3.3 6.6 6.6 3.3h17.16c6.6-1.33 11.22-3.96 12.54-6.6.66-2 .66-4.63 0-7.92z"/><path d="M237.44 238.62c-1.32-3.96-3.3-6.6-5.94-7.26l-15.84.66c-6.6 2.64-11.2 5.94-15.17 11.22l-3.97 7.26.66 2.63 7.9 3.97 18.48.65c6.6-2.64 11.22-5.28 13.2-8.58 1.32-2.64 1.98-5.93.66-9.9v-.66zm-8.58-2.65l3.3 4.63 1.32 3.96c0 2.64-3.96 5.27-11.88 7.25-6.6 2.65-13.2 2-19.8-1.97 3.3-5.93 8.58-9.9 15.18-12.53l11.88-1.33z"/><path fill="#858585" d="M139.78 240.6l-7.9-7.26-8.6 7.92c-5.27 6.6-7.9 13.2-7.9 20.45 0 7.93 3.3 13.86 8.57 19.15l7.92 6.6 8.58-6.6c5.27-5.94 8.57-12.54 7.92-19.8 0-7.25-2.65-14.52-8.6-20.45z"/><path d="M129.88 231.36l-8.57 8.58c-5.93 6.6-8.57 13.86-8.57 21.77.66 7.93 3.3 15.2 9.24 21.12l9.23 6.6c.67 1.32 1.98 1.32 1.98 0l9.24-6.6c5.95-6.6 9.24-13.2 8.58-21.77 0-7.92-3.3-14.52-8.58-21.78l-9.24-8.57-3.3.66zm2 52.8c-8.6-4.64-13.2-12.55-13.87-22.45v-.65c0-9.24 4.63-17.15 13.87-24.4 9.23 6.58 13.85 14.5 13.85 24.4v.66c0 9.25-4.62 16.5-13.85 22.45z"/><path d="M131.87 284.8c-1.32 0-2 1.32-2 2.65l-.64 13.2c0 1.97.65 2.63 2.64 2.63 1.3 0 2.64-.66 2.64-2.64l.67-13.2c0-1.32-1.32-2.64-3.3-2.64z"/><path fill="#858585" d="M208.4 299.98l7.26-7.92-7.9-7.9c-6.6-5.96-13.2-7.93-21.13-7.93-7.26 0-13.86 3.3-19.13 9.23-2.64 3.3-5.28 5.28-5.94 7.92l6.6 8.57c5.93 4.63 12.53 7.27 19.8 7.27 7.25 0 13.85-3.3 20.45-9.24z"/><path d="M166.18 303.94c6.6 5.28 13.86 8.58 21.78 7.9 7.9 0 15.17-3.3 22.43-9.22l7.9-9.9v-2.63l-9.24-8.6c-7.25-5.27-14.5-8.57-22.43-7.9-7.92.65-14.5 3.95-21.1 9.22-2.65 3.3-4.63 6.6-6.6 9.9v2.64l7.25 8.58zm-1.32-10.55c4.6-9.25 12.53-13.87 22.43-14.54 9.9-.65 17.8 3.96 25.06 13.2l-7.9 7.93c-5.95 3.94-10.57 5.92-16.5 6.58-9.25 0-17.17-3.96-23.1-13.2z"/><path d="M140.45 290.74c-1.98 0-2.65 1.32-2.65 2.65 0 1.96.67 2.62 2.65 2.62h21.1c1.33 0 2.65-.66 2.65-2.63 0-1.34-1.32-2.66-2.64-2.66h-21.1z"/><path fill="#858585" d="M94.92 258.4l-9.9-5.27-5.94 8.58c-3.96 7.93-5.28 15.85-3.3 22.45 1.32 7.9 5.94 13.2 12.54 17.8 3.3 2 6.6 3.3 9.24 3.97l6.6-8.58c3.95-6.6 4.6-13.2 3.3-21.1-1.98-6.6-5.95-13.2-12.54-17.83z"/><path d="M85.68 250.5c-.66-.67-1.98-.67-2.64.65-1.32.66-3.96 3.96-7.25 9.9-3.3 8.58-4.63 16.5-3.3 23.75 2.62 7.92 6.58 14.52 13.84 18.48 4.62 3.3 8.58 5.27 10.55 5.27l1.98-.65 7.9-9.24c3.98-7.26 5.3-14.5 3.3-22.43-1.97-7.92-6.6-14.52-13.18-19.8-5.28-3.96-9.24-5.93-11.22-5.93zm-8.58 27.05c0-7.26 3.3-14.52 8.58-21.12 10.56 4.62 16.5 11.22 19.13 21.12l.68 5.27c0 7.27-3.3 13.87-8.6 19.8-9.88-2.64-16.48-9.23-18.46-18.47l-1.32-6.6z"/><path d="M100.2 305.25c0-1.97-1.32-2.63-3.3-1.97-1.32 0-2 1.32-2 2.64l3.98 20.46c0 1.97 1.3 2.63 2.63 2.63 2 0 2-1.3 2-3.3l-3.3-20.44z"/><path fill="#858585" d="M149.68 315.15c-6.6-1.97-13.85-1.3-21.1 3.3l-7.93 5.94 4.62 9.23c3.96 7.26 9.9 11.88 17.16 13.2 6.6 1.98 13.85.66 21.77-3.3l9.24-5.94-5.28-9.9c-5.28-7.26-10.56-11.22-18.48-12.55z"/><path d="M151 312.52c-8.58-2.64-15.83-1.32-23.1 3.3l-9.23 6.6-.66 2.63 5.3 10.56c3.95 6.6 9.88 11.23 18.47 13.2 7.25 2.64 15.17 1.33 23.1-2.63l10.54-6.6.67-2.64-5.93-11.22c-5.28-6.58-11.88-11.86-19.14-13.18zm-18.47 6.6l16.5-1.98c9.9 2.64 16.5 9.24 21.77 19.8-9.9 6.6-19.14 9.23-28.38 7.25-9.24-2-15.83-8.6-19.13-18.5 2.63-3.28 5.27-5.26 9.23-6.58z"/><path d="M108.78 318.45c-2-.65-3.3 0-3.3 1.33-.67 1.97 0 2.64 1.3 3.3l13.2 3.95c2 0 3.3 0 3.3-1.32 0-1.97 0-3.3-1.97-3.3l-12.52-3.95z"/><path fill="#858585" d="M128.57 369.27l6.6-8.6-8.58-7.9c-6.6-4.63-13.87-6.6-21.12-5.94-7.27.66-13.86 3.96-18.48 9.9-3.3 2.64-4.62 5.27-5.94 8.57l7.26 7.27c5.94 5.27 12.53 7.25 19.8 6.6 7.25-.67 13.85-3.97 20.45-9.9z"/><path d="M137.8 362c.67-.66.67-1.97-.65-3.3l-8.58-7.9c-7.92-5.3-15.18-7.27-23.1-6.6-8.58.64-15.17 3.94-20.45 10.54-3.3 3.3-5.94 6.6-6.6 9.9l.67 1.98 7.9 8.58c6.6 5.28 13.2 7.26 21.78 6.6 7.9 0 14.5-3.96 21.1-9.9l7.92-9.9zm-32.32-12.53c9.9-.66 19.13 2.64 26.4 11.87-6.6 9.9-14.53 14.52-23.77 15.18-10.54 1.32-18.46-3.3-24.4-11.22 1.98-3.3 3.3-6.6 6.6-9.23 3.96-3.96 9.23-6.6 15.18-6.6z"/><path d="M83.7 365.3l-3.3-2.63H61.92c-1.32.65-2.63 1.97-2.63 3.3 0 1.97 1.3 2.63 2.62 2.63l19.14-.66c1.32 0 2.64-1.32 2.64-2.64z"/><path fill="#858585" d="M102.18 410.83l6.6-9.24-7.92-7.27c-7.27-5.27-13.86-7.25-21.78-6.6-7.26.67-13.2 3.97-18.48 9.9-3.3 3.3-4.6 5.28-5.93 8.58l7.25 7.93c5.95 4.62 12.54 7.26 20.46 6.6 6.6-1.32 13.2-4.62 19.8-9.9z"/><path d="M102.18 391.7c-7.26-5.28-15.18-7.27-23.1-6.6-7.92.66-15.18 3.96-20.45 9.9-2.64 3.96-5.28 7.26-5.94 9.9v2.63l7.9 8.58c6.6 5.3 13.2 7.92 21.78 6.6 7.9-.65 14.5-3.95 21.1-10.55l7.93-9.24v-3.28l-9.22-7.92zm-23.1-1.32c9.9-1.32 19.13 2.64 26.4 11.2-6.6 9.9-13.86 15.85-23.76 16.5-9.9 0-17.82-3.3-23.75-12.52 1.32-2.65 3.3-5.94 5.93-7.93 4.62-4.6 9.9-6.6 15.18-7.25z"/><path d="M57.3 405.56c0-1.33-1.3-2-2.63-2l-19.14.67c-1.32 0-2.64.66-2.64 2.64l3.3 2h18.47c1.32 0 2.63-.68 2.63-3.3z"/><path fill="#858585" d="M73.8 450.42l3.3-11.22c-3.3-1.32-6.6-2.64-10.56-3.95-7.92-1.33-15.83-.67-22.43 2.63s-11.2 9.24-13.2 16.5l-1.97 9.9 9.9 4.62 20.46-1.32c6.6-3.97 11.2-9.9 14.5-17.16z"/><path d="M67.2 432.6c-9.23-1.3-17.15-.65-24.4 2.65-6.6 3.96-11.9 9.9-14.53 17.8-1.32 4.63-1.97 7.93-1.97 11.23l1.3 2.63 9.9 4.64c8.6 2.64 16.5 1.97 23.1-1.98 6.6-3.96 11.88-9.24 15.84-17.8l3.3-12.55-1.32-1.98-11.22-4.6zm-35.63 31c1.32-11.2 5.94-19.12 13.86-23.08 8.57-4.6 18.47-4.6 28.37.66 0 3.3-1.32 7.26-3.3 11.22-3.3 5.28-7.26 9.9-11.88 12.54-8.57 3.96-17.8 3.3-27.05-1.33z"/><path d="M31.57 463.6c-.66-1.96-1.97-1.96-3.96-1.3l-17.14 7.9c-1.32.68-1.98 2-1.32 3.97.66 1.33 1.98 1.33 3.96.67l16.5-7.93c1.97 0 2.63-1.96 1.97-3.3z"/><path fill="#858585" d="M54 299.32l-9.9-3.96-4.6 9.9c-3.3 7.92-3.3 15.18-.67 21.77 2.64 7.26 7.26 11.88 15.18 15.84l9.9 2.64 5.3-8.57c2.62-7.92 3.28-14.52 0-21.1-2-7.27-7.28-12.55-15.2-16.5z"/><path d="M44.1 292.72c-.65-.66-1.3 0-1.97.67l-5.94 11.2c-2.65 8.58-2.65 16.5 0 23.75 3.3 7.26 8.57 13.2 16.5 16.5 3.3 1.98 6.6 3.3 10.54 3.96l2.65-1.3 5.92-9.9c3.3-7.92 3.3-15.18.67-23.1-3.3-7.26-8.6-13.2-16.5-17.8-5.3-2.66-9.25-3.98-11.9-3.98zm1.33 5.28c10.56 2.64 18.47 9.24 21.77 18.48l1.98 9.23c0 5.3-1.98 11.23-6.6 17.17-10.55-1.98-17.8-7.26-21.1-16.5-1.33-3.3-2-6.6-2-9.9 0-5.27 2-11.22 5.95-18.47z"/><path d="M65.9 344.85c0-1.98-2-1.98-3.3-1.98-2 .66-2 1.98-2 3.3l5.3 13.2c0 1.97 1.3 1.97 3.3 1.97 1.3-.66 1.3-1.97 1.3-3.3l-4.6-13.2z"/><path fill="#858585" d="M23 340.23l-10.56-3.96-3.96 10.56c-2.64 8.58-1.98 15.17.66 22.44 3.3 6.6 8.57 11.87 15.83 14.5l9.9 2.65 4.62-9.24c3.3-7.9 2.63-14.5 0-21.1-3.3-7.27-8.6-12.55-16.5-15.85z"/><path d="M13.1 333.63c-1.32 0-1.98.66-3.3 1.98l-3.96 10.57c-2.64 9.24-2.64 17.16.66 24.4 3.3 7.27 9.24 12.55 16.5 15.85l11.2 2.64 2.65-.66 5.28-10.56c3.3-8.57 2.64-15.84-.66-23.1-2.64-7.25-8.57-12.53-16.5-16.5l-11.87-4.6zm-3.96 23.75c0-5.27 1.98-11.2 4.62-17.8 11.87 3.3 19.13 9.23 23.1 17.15l1.97 9.9c0 6.6-1.32 11.87-5.28 16.5-10.55-.67-17.8-5.95-21.77-14.53-1.98-3.3-2.64-7.26-2.64-11.22z"/><path d="M37.5 385.1c-.65-1.32-1.97-1.98-3.3-1.32-1.97.65-1.97 1.98-1.97 3.95l5.28 11.9c0 1.96 2 2.63 3.3 1.96 2-1.33 2-2.64 1.33-3.3l-4.62-13.2z"/><path stroke-miterlimit="100" d="M364.58 579.58H7.42V7.42h357.16v572.16z" fill="none" stroke="#000" stroke-width="14.84"/></svg>