<svg xmlns="http://www.w3.org/2000/svg" height="100%" viewBox="0 0 372 587"><path fill="#fffaf0" d="M0 0h372v587H0z"/><path fill="#858585" d="M186.9 263.93c-36.8 0-71.66 6.46-105.87 18.73-32.93 12.26-62.63 29.7-89.1 52.94v255.67H381.9V335.6c-26.47-23.24-56.82-40.68-89.1-52.94-34.22-12.27-69.73-18.73-105.9-18.73z"/><path d="M186.9 260.7c-36.14 0-71 5.82-105.23 18.73C48.1 291.7 17.1 309.77-10.65 333l-.65.66V594.5h396.43V333.66l-.65-.65c-27.76-23.23-58.75-41.3-92.97-53.57-33.57-12.9-68.43-18.73-104.6-18.73zm-102 24.54c32.28-12.27 66.5-18.08 102-18.08 34.88 0 68.45 5.8 102.03 18.08 33.57 12.26 63.27 29.05 89.74 51.65v251.14H-4.83V336.9c26.46-22.6 56.16-39.4 89.73-51.66z"/><path d="M11.94 521.55c8.4-4.53 18.08-7.76 27.77-10.34 18.08-4.5 36.8-7.1 56.82-7.74 23.24-.64 45.84 1.95 68.44 7.1 34.22 8.4 72.96 25.83 114.92 51.66l43.26 29.05-10.33-9.03c-9.03-7.1-19.36-14.85-31.63-22.6-41.32-26.48-80.05-44.55-115.56-52.95-22.6-5.17-45.84-7.75-69.73-6.46-20 .64-38.73 3.87-56.16 8.4-10.97 3.22-20.66 7.1-27.76 12.9zM239.2 442.77c-19.36.65-38.73 4.53-57.45 10.98-16.14 5.8-30.35 12.27-43.26 20.02-10.34 6.45-19.38 13.55-25.2 20.65l26.48-18.07c30.34-17.44 63.92-27.77 99.43-29.7 33.58-2.58 67.8 3.23 103.3 16.8L371.58 477l10.33 5.16c-8.4-7.1-21.3-13.56-38.74-21.3-34.22-14.2-69.1-20.67-103.95-18.1z"/><path d="M210.16 440.84c-6.46-3.88-14.2-7.75-22.6-12.27-25.83-13.55-52.3-21.95-79.42-26.47-29.7-5.17-58.1-4.52-83.3.65-14.2 2.58-25.17 5.8-32.9 9.68l9.03-1.3 24.53-5.8c25.83-4.53 53.6-3.88 82 .64 24.53 4.52 51 12.27 79.4 24.54l30.36 16.15-7.1-5.8z"/><path d="M183.04 455.04l-7.1-3.87-19.37-7.75c-20.02-8.4-41.97-14.2-67.15-17.43-25.83-2.6-49.07-2.6-70.37 1.28l-20.02 3.88c-5.16 1.93-7.75 2.58-7.1 3.22l27.76-4.52c20-2.58 42.6-2.58 68.43 0 22.6 3.23 45.2 7.75 67.15 16.14l27.76 9.04zM125.58 465.37l23.24 3.88s-7.1-2.58-21.95-6.46c-16.14-5.17-34.87-8.4-56.17-10.34-18.08-2.58-36.16-1.93-56.17.64l-16.8 3.88-5.8 2.58 22.6-3.23c22.6-1.93 41.32-1.93 56.17 0 21.3 1.94 40.03 4.52 54.88 9.04zM219.2 507.33c-34.22 10.34-68.44 27.77-103.3 52.96-9.7 7.08-19.38 14.83-27.12 21.93l-9.05 9.04c9.05-7.74 21.3-18.07 37.45-29.06 36.16-24.5 70.38-41.3 103.3-51.64 38.74-12.9 76.84-18.07 113.64-16.14l35.5 3.23 12.28 1.3c-11.63-3.23-27.77-6.46-47.14-7.1-38.1-2.6-76.18 2.57-115.57 15.48z"/><path d="M242.44 521.55c-12.92 3.87-18.73 7.1-18.08 8.38l18.73-5.8 47.12-9.04 47.77-1.95 19.36-.64-19.37-1.94c-12.92-1.28-29.06-1.28-47.78 1.3-14.2 1.3-29.7 4.52-47.78 9.7zM262.45 536.4c-9.68 2.58-14.2 4.52-14.2 5.16l15.5-1.94 36.8-5.8 36.15-3.24 15.5-1.93-15.5-.65-36.8 1.93c-13.56 1.3-25.83 3.88-37.45 6.46zM24.86 531.23c27.76-4.53 54.87-3.23 81.35 3.23 25.83 6.46 51 18.07 73.6 35.5 5.82 5.17 12.28 9.7 19.38 16.15l7.1 5.17c-5.8-6.46-14.2-14.84-25.18-23.24-22.6-18.73-47.13-31-74.25-36.8-28.4-7.75-55.52-7.75-82.64-2.58-13.55 3.23-24.52 6.45-32.27 10.97 7.75-3.23 18.72-5.8 32.93-8.4zM203.7 405.98c-7.1 4.5-13.56 9.04-19.37 13.55-3.87 3.87-6.46 5.8-5.8 5.8l7.1-4.5 20-12.27c21.96-12.27 46.5-20.02 72.32-22.6 23.24-2.58 48.42.64 75.54 9.7l21.3 9.02 7.74 3.23-7.1-5.15-21.3-9.7c-26.48-9.67-51.66-13.55-76.84-10.97-26.47 3.23-51 10.98-73.6 23.9zM226.3 326.56c-20.66 3.87-40.03 9.68-59.4 17.43-16.8 7.74-31.64 15.5-44.55 25.17-9.7 7.75-18.08 15.5-23.9 22.6 7.76-6.46 16.15-13.56 25.2-20.02 28.4-20 63.26-34.2 102.65-41.97 38.1-7.1 74.9-6.45 111.7 1.94l32.27 9.05 11.63 3.87c-10.33-5.82-24.54-10.98-43.26-16.14-37.45-8.4-74.9-9.7-112.34-1.94z"/><path d="M210.8 404.03l-7.1-4.5-22.6-10.34c-21.95-10.34-47.77-16.8-77.48-21.96-29.7-3.23-56.8-3.23-80.06 1.93l-23.9 5.8c-5.15 1.95-8.38 3.9-7.73 3.9l32.28-7.12c23.9-3.87 49.72-3.87 78.78 0 28.4 3.88 54.23 10.34 77.47 20.02l30.35 12.26z"/><path d="M225.65 345.93c-21.3 4.52-39.38 10.98-55.52 20l-15.5 9.7-5.8 3.88 6.45-3.22c5.16-2.6 10.33-5.8 16.14-7.76 16.78-8.38 35.5-14.84 54.88-18.72 20-5.16 39.38-7.1 58.1-7.1h24.54l-5.8-1.93-18.74-.65c-18.72-1.3-38.73.65-58.75 5.8zM226.3 363.36c-13.56 2.58-26.48 7.75-38.74 14.2-4.52 1.94-8.4 4.52-10.98 6.46l-3.87 3.23 15.5-7.1c15.5-6.46 28.4-10.98 38.74-13.56l41.32-7.1 16.8-2.6c-.66-.64-6.47-.64-17.44 0-12.27 0-25.83 2.6-41.32 6.46zM148.82 296.22c-20.02-5.18-39.4-8.4-57.46-9.7l-18.08.65-6.46 1.3h7.1l17.44.65c18.07 1.92 37.44 5.8 56.17 11.6 23.24 6.47 41.32 12.92 54.88 19.38l22.6 7.75-21.95-10.33c-12.26-6.46-31-13.56-54.23-21.3z"/><path d="M297.32 285.24l-19.37-3.88-47.78.65c-17.43 3.24-32.93 7.12-45.84 12.92-5.16 1.94-9.7 3.88-12.9 6.46l-4.53 2.58 18.08-6.46c16.14-5.8 31.63-9.03 45.84-11.6l47.13-1.95 19.37 1.3z"/><path d="M202.4 295.57L192.1 293l9.04 5.15 22.6 10.34 21.95 11.6 9.68 3.88-7.75-6.46-21.95-12.9c-6.46-3.24-14.85-6.47-23.24-9.05zM259.23 300.73c-7.75-5.16-16.8-9.04-26.48-12.27l-10.97-3.22 10.33 5.8 25.2 12.92 24.52 13.56c6.46 4.52 9.7 6.46 10.33 6.46.65-.65-2.58-3.23-8.4-8.4l-24.52-14.85zM261.16 283.3l-8.4-1.3 7.1 3.9 17.44 9.02 16.8 10.34c5.15 3.23 7.1 4.5 7.1 3.87l-5.17-6.46c-5.17-3.87-10.98-7.75-16.8-10.98-5.8-3.23-12.26-6.46-18.07-8.4zM60.37 300.73l-18.73.65 18.08 1.3 43.26 7.73c10.33 1.3 23.9 5.18 41.97 10.35l17.43 5.16-16.8-7.73c-11.6-4.53-25.8-8.4-42.6-12.27l-42.62-5.17zM72 320.1l-39.4-4.5-16.78 1.27 16.14 1.3 39.38 5.8 38.1 7.76 16.14 3.87c0-.65-5.17-2.6-14.85-5.82L72 320.1z"/><path stroke-miterlimit="100" d="M364.58 579.58H7.42V7.42h357.16v572.16z" fill="none" stroke="#000" stroke-width="14.84"/></svg>