<svg xmlns="http://www.w3.org/2000/svg" height="100%" viewBox="0 0 372 587"><path fill="#D96038" d="M2.48 590.8H372.2V-4.6H2.48v595.4z"/><path fill="#FFF" d="M157.14 260.92c31.2 0 57.75-10.62 80.3-33.2 22.58-21.9 33.87-49.1 33.87-80.3 0-31.87-11.28-58.42-33.85-80.32-22.56-21.9-49.1-33.2-80.3-33.2-31.2 0-57.76 11.3-80.33 33.2-21.9 21.9-33.85 48.45-33.85 80.32 0 31.2 11.95 58.4 33.85 80.3 22.57 22.58 49.12 33.2 80.32 33.2z"/><path d="M240.1 65.1c-22.56-23.23-51.1-34.5-82.96-34.5-32.53 0-59.74 11.27-82.3 34.5-23.24 22.58-35.2 49.8-35.2 82.32 0 32.52 11.95 60.4 35.2 82.97 22.56 22.55 49.77 33.84 82.3 33.84 31.86 0 60.4-11.3 82.97-33.85 23.24-22.58 34.53-50.46 34.53-82.98 0-32.53-11.3-59.74-34.52-82.32zm-4.63 3.98c21.9 21.9 32.52 47.8 32.52 78.34 0 30.53-10.63 57.08-32.53 78.3-21.25 21.92-47.8 31.88-78.33 31.88-29.87 0-56.42-9.96-77.66-31.87-21.9-21.23-33.2-47.78-33.2-78.3 0-30.55 11.3-56.44 33.2-78.35 21.24-21.23 47.8-31.86 77.66-31.86 30.53 0 57.08 10.63 78.33 31.86z"/><path fill="#858585" d="M187.67 284.15c-37.83 0-74.34 6.64-109.52 19.25-33.2 12.6-63.73 30.53-91.6 54.43v262.85h401.58V357.83c-27.2-23.9-58.4-41.82-91.6-54.43-35.18-12.6-71.7-19.25-108.86-19.25z"/><path d="M187.67 280.83c-37.17 0-73 5.98-108.2 19.26-34.5 12.6-66.37 31.18-94.9 55.07l-1.34.67V624h408.22V355.84l-1.33-.67c-27.87-23.9-59.74-42.48-94.9-55.09-34.53-13.27-70.38-19.25-107.55-19.25zM82.8 306.06c33.18-12.6 68.36-18.6 104.87-18.6 35.85 0 70.36 6 104.22 18.6 34.5 12.6 65.7 29.87 92.9 53.1v258.2H-10.12v-258.2c27.87-23.24 58.4-40.5 92.92-53.1z"/><path d="M94.08 552.32c-22.57-8.63-47.8-11.95-75.67-9.96l-31.85 5.97 31.86-3.3c27.22-.68 52.45 2.64 74.35 10.6 19.92 7.3 41.15 21.9 62.4 41.82l21.9 23.23-5.3-7.3-14.6-17.9c-20.6-20.6-41.17-35.2-63.07-43.16zM261.35 582.85c-33.2-31.2-67.7-53.76-103.55-66.38-21.24-7.3-43.15-11.95-66.38-13.27l-55.75 3.98c-13.94 2-25.9 5.98-35.18 10.62 11.27-3.32 23.22-5.97 35.83-7.96 42.48-6.64 82.97-3.32 120.15 10.6 32.52 11.97 67.03 33.86 102.88 65.07l35.84 35.18-7.96-10.62c-7.3-8.62-15.93-17.9-25.9-27.2z"/><path d="M72.84 503.2c-11.3 9.3-19.9 17.9-25.9 26.55l27.9-24.56c36.5-27.9 77-45.15 122.8-51.8 42.47-5.96 86.94-1.98 132.74 11.3 13.28 3.98 25.9 8.63 38.5 13.94l13.94 5.97c-11.94-7.95-29.2-15.92-51.77-22.56-45.14-14.6-90.28-18.58-134.1-12.6-25.2 3.3-48.44 10.6-72.34 21.9-18.57 8.63-36.5 19.24-51.76 31.86z"/><path d="M263.34 446.1l-3.98 3.33 17.92-7.97c14.6-6.64 29.87-11.28 44.48-12.6 15.93-2.66 31.86-2.66 47.13.66l19.23 2.65-18.58-5.97-48.46-1.33c-16.6 1.33-31.2 6.63-45.14 13.94l-12.62 7.3zM49.6 445.45c-13.27 1.33-24.56 3.98-33.85 8.63 11.3-2.66 22.57-4.65 33.86-5.98 57.1-3.32 108.2 2 153.34 17.26 41.82 14.6 87.62 40.5 135.4 76.33l49.8 41.15-11.96-12.6-35.84-31.2c-47.13-35.85-92.27-61.74-136.07-77-46.47-16.6-98.24-21.9-154.66-16.6z"/><path d="M182.36 446.1l-19.25-14.6c-24.55-17.25-49.1-27.2-74.33-29.2-14.6-2-29.2 0-43.8 3.32-13.3 3.32-23.9 8.63-33.87 14.6-7.96 5.3-13.93 11.28-17.92 16.6 5.98-5.32 12.6-9.96 19.92-13.94 9.3-5.97 19.9-10.62 31.86-13.27 14.6-3.98 29.2-4.65 43.14-3.98 23.9 2.65 48.46 11.3 73.68 27.88l26.55 19.25-5.97-6.63z"/><path d="M153.16 448.1l6.63 3.32-5.32-5.3c-5.3-3.32-11.28-6.64-18.58-9.96-21.25-9.96-43.15-14.6-66.38-13.94-20.58 1.32-41.82 7.3-64.4 19.9-6.63 3.33-11.94 6.65-17.25 10.63l-5.97 5.3 24.56-13.93c23.23-11.28 44.47-17.26 63.72-17.92 21.9-.66 43.8 3.32 64.4 12.6 6.63 2.66 12.6 5.98 18.58 9.3zM183.7 367.78c17.9-4.64 36.5-6.63 55.08-5.97 32.53 0 65.05 8.64 97.58 26.56 15.27 7.97 27.2 15.27 35.84 22.57l-9.3-7.96c-7.3-5.98-15.92-11.3-25.2-17.26-32.54-18.58-65.06-27.2-98.92-28.53-18.58 0-37.83 2-56.42 6.63-15.93 4.65-30.53 9.96-43.14 16.6-9.96 5.3-17.26 11.28-23.24 17.92 7.97-5.97 15.93-11.28 24.56-15.26 12.62-6.64 27.22-11.3 43.15-15.28z"/><path d="M183.03 387.04c16.6-4.65 31.2-6.64 43.14-6.64l18.6-2-18.6-1.32c-13.94 0-28.54 2-44.47 5.98-13.94 3.98-27.22 9.95-40.5 18.57l-10.6 7.3-3.33 4 15.27-9.3c15.26-7.96 28.54-13.27 40.5-16.6zM218.2 399.65l13.28-2-13.27-.66c-9.95 0-20.57 1.98-31.2 5.3-9.3 2-19.24 5.97-29.86 11.95l-10.62 7.97 11.94-5.98c10.63-4.65 19.92-7.97 29.2-10.62 9.3-2.65 19.26-4.65 30.55-5.97zM165.1 434.16l35.18-10.62 35.85-5.3-11.28-1.33-25.9 3.33c-9.95 2-17.92 5.3-24.55 8.62-6.64 2.65-9.3 4-9.3 5.3zM388.13 357.83c0-1.33-3.98-2-12.6-4.64l-33.2-.68c-11.28 1.33-21.24 4.65-31.2 9.96l-7.96 4.64-2.66 2.66 11.96-4.65c9.3-4.65 19.25-7.3 30.54-9.3 10.62-1.32 21.24-1.32 31.86 0l13.27 2zM220.86 448.77l21.9 9.95c16.6 6.64 33.86 15.93 51.78 25.9 15.93 9.94 31.86 20.57 47.13 32.52l19.25 14.6-17.26-17.26c-13.94-11.94-29.87-23.23-47.13-33.2-19.25-11.27-36.5-19.24-52.44-25.2l-16.6-5.98-6.64-1.33zM139.88 466.7l31.86 7.3c23.23 7.3 47.13 17.24 73.02 30.52 20.58 11.3 43.14 25.9 66.37 41.82 17.26 13.28 26.56 19.25 26.56 19.25 0-1.34-7.98-7.98-24.57-21.25C289.9 526.43 268 512.5 246.1 501.2c-25.24-13.94-50.46-23.9-73.7-29.87l-23.9-4.64h-8.62zM69.52 345.2c17.26.68 33.85 4.67 50.45 10.64 13.27 4 20.57 6.64 20.57 5.97 0-.65-6.64-3.3-19.9-9.28-15.94-5.97-32.53-9.96-50.45-11.95l-51.8 2-15.26 3.98-5.3 2.65 20.57-4c20.59-1.97 37.84-1.97 51.12 0zM173.07 352.52l23.23 9.96-21.9-13.28c-19.25-9.3-37.84-16.6-57.1-22.57-21.9-5.3-42.47-7.3-61.06-5.97l-18.58 3.32c-4.65 1.32-6.64 2-6.64 2l25.22-2.66c19.25-.67 39.17 1.98 59.74 7.3 18.6 5.3 37.18 11.94 57.1 21.9zM111.34 307.38l17.26 5.3c13.27 4 26.55 9.3 41.8 15.94 13.3 5.98 26.56 13.28 38.5 21.25l15.94 9.3-13.94-11.96c-10.62-7.96-23.9-15.26-39.16-21.9-14.6-7.3-29.2-12.6-42.48-15.26L116 307.4h-4.66zM163.77 284.8l19.92 2.67c15.26 3.32 31.2 8.63 47.12 15.93 14.6 7.3 29.2 16.6 41.15 26.56l15.93 13.27c0-1.34-4.65-6.64-13.94-14.6-11.94-11.3-25.9-20.58-41.8-29.2-17.27-7.98-33.87-12.62-47.8-14.62l-15.27-.65-5.33.66z"/><path stroke-miterlimit="100" d="M364.58 579.58H7.42V7.42h357.16v572.16z" fill="none" stroke="#000" stroke-width="14.84"/></svg>