<svg xmlns="http://www.w3.org/2000/svg" height="100%" viewBox="0 0 372 587"><path fill="#fffaf0" d="M0 0h372v587H0z"/><path fill="#333" d="M59 395c2.63 0 4.6-1.97 4.6-4.6 0-3.3-1.97-4.64-4.6-4.64-2 0-2.65.67-3.3 1.33-1.32.65-2 1.96-2 3.3 0 2.63 2 4.6 5.3 4.6zM45.8 428c3.3 0 4.62-1.98 4.62-5.28 0-3.3-1.33-4.62-4.63-4.62-1.32 0-2 .66-3.3 1.32l-2 3.3 2 3.97c1.32.64 1.98 1.3 3.3 1.3zM83.4 385.1c3.3 0 4.63-1.97 4.63-4.6 0-3.3-1.32-4.63-4.62-4.63s-4.6 1.32-4.6 4.62c0 2.63 1.3 4.6 4.6 4.6zM45.8 366.63c3.3 0 4.62-1.32 4.62-3.96l-1.33-3.3c-.67-1.32-2-1.98-3.3-1.98-3.3 0-5.28 1.97-5.28 5.27 0 2.64 1.97 3.96 5.27 3.96zM328.9 538.87c3.3 0 4.62-1.33 4.62-4.63s-1.32-5.27-4.62-5.27c-1.32 0-1.98.66-3.3 1.97l-1.98 3.3c0 3.3 1.98 4.63 5.28 4.63zM343.42 560.64l.66-3.3-.66-3.3c-1.33-1.3-2.64-1.97-3.96-1.97-1.32 0-2.64.66-3.3 1.97l-1.98 3.3 1.98 3.3c.66 1.33 1.98 1.33 3.3 1.33 1.32 0 2.63 0 3.96-1.33zM303.82 553.38c3.3 0 5.28-1.3 5.28-4.6s-1.98-5.3-5.28-5.3c-.66 0-1.98.66-3.3 2-.66.65-1.32 1.96-1.32 3.3l1.32 3.3c1.32.65 2.64 1.3 3.3 1.3zM287.98 565.27l1.98-3.97c0-2.63-1.98-4.62-5.28-4.62s-4.62 2-4.62 4.62c0 3.3 1.32 4.63 4.62 4.63l3.3-.66zM342.75 511.15l1.33-3.3-1.32-3.3-3.3-1.98c-3.3 0-5.28 1.98-5.28 5.28 0 3.3 1.98 4.62 5.27 4.62l3.3-1.32zM322.3 560.64l1.32-3.3c0-3.3-1.98-5.27-5.28-5.27-2.64 0-4.62 1.97-4.62 5.27s1.98 4.63 4.62 4.63l3.96-1.33zM65.6 532.93l1.3-3.96c0-2.64-1.97-4.63-5.27-4.63-2.64 0-4.62 2-4.62 4.63.02 3.3 2 5.27 4.63 5.27l3.96-1.3zM43.82 524.35l1.3-3.96-1.3-3.3-3.96-1.33c-2.64 0-4.62 1.32-4.62 4.62s1.98 5.27 4.62 5.27l3.96-1.32zM45.13 559.98l.66-3.95-.67-3.3c-1.3-.66-2.64-1.33-3.95-1.33-2.65 0-4.62 1.33-4.62 4.63s1.97 5.27 4.62 5.27l3.95-1.32zM76.8 567.24c3.3 0 5.3-1.3 5.3-4.6s-2-4.64-5.3-4.64c-2.63 0-4.6 1.33-4.6 4.63s1.97 4.6 4.6 4.6zM81.43 412.16c2.64 0 3.96-1.97 3.96-5.27 0-2.65-1.33-3.97-3.97-3.97-3.3 0-5.28 1.32-5.28 3.96l1.98 3.95 3.3 1.3zM45.8 134.34l1.3-3.3c0-3.3-1.3-4.6-4.6-4.6s-5.28 1.3-5.28 4.6l1.97 3.3c1.32 1.32 1.98 1.32 3.3 1.32l3.3-1.32zM41.18 167.34c2.64 0 4.62-1.98 4.62-5.28s-1.98-4.62-4.62-4.62c-3.3 0-5.28 1.32-5.28 4.62s1.98 5.28 5.28 5.28zM68.23 197.7c3.3 0 4.62-1.33 4.62-4.63s-1.32-4.62-4.62-4.62-4.62 1.32-4.62 4.62l1.33 3.3c.66.66 1.98 1.32 3.3 1.32zM49.1 189.78c3.3 0 4.62-2 4.62-5.3 0-2.63-1.33-4.6-4.63-4.6s-4.62 1.98-4.62 4.6l1.32 3.97c1.32.67 2.63 1.33 3.3 1.33zM29.96 153.48c2.64 0 4.62-1.32 4.62-4.62s-1.98-5.28-4.62-5.28c-1.32 0-1.98.66-3.3 1.98l-1.32 3.3 1.32 3.3c1.32 1.32 1.98 1.32 3.3 1.32zM31.28 189.78c2.64 0 4.6-2 4.6-5.3s-1.96-4.6-4.6-4.6c-1.98 0-2.65 0-3.3 1.3-1.32.67-1.98 2-1.98 3.3l1.98 3.97 3.3 1.33zM31.28 380.5c2.64 0 4.6-1.34 4.6-4.63 0-3.3-1.96-5.28-4.6-5.28-3.3 0-5.28 1.97-5.28 5.26l1.98 3.3 3.3 1.33zM46.45 402.93l1.33-3.3-1.33-3.3c-.66-1.32-2.63-1.98-3.96-1.98-2.64 0-3.97 1.98-3.97 5.27 0 3.3 1.33 4.63 3.96 4.63l3.95-1.32zM29.96 442.52c2.64 0 4.62-1.98 4.62-5.28 0-3.3-1.98-4.62-4.62-4.62-3.3 0-4.62 1.32-4.62 4.62l1.32 3.3c1.32 1.32 1.98 1.98 3.3 1.98zM33.26 472.22l1.32-3.97-1.32-3.3c-.66-1.3-1.98-1.97-3.96-1.97-2.64 0-3.96 1.97-3.96 5.27s1.32 4.63 3.96 4.63l3.96-.66zM59 556.03c2.63 0 4.6-1.33 4.6-4.63s-1.97-5.27-4.6-5.27c-2 0-2.65 1.3-3.3 1.98-1.32.67-2 1.98-2 3.3l2 3.97 3.3.66zM29.96 545.47c2.64 0 4.62-1.98 4.62-4.63 0-3.3-1.98-5.27-4.62-5.27-1.32 0-1.98.66-3.3 1.97l-1.32 3.3c0 2.64 1.32 4.63 4.62 4.63zM251.03 41.95c3.3 0 4.62-1.3 4.62-3.96l-1.32-3.3c-.66-1.33-2.64-2-3.3-2-3.3 0-4.62 2-4.62 5.3 0 2.64 1.33 3.95 4.63 3.95zM207.47 28.75l.66-3.95c0-2.65-1.32-4.63-4.62-4.63s-5.26 1.98-5.26 4.63l1.97 3.95c1.34.66 2 1.32 3.3 1.32 1.33 0 2.66-.66 3.97-1.32zM41.18 36.67c3.3 0 4.62-1.32 4.62-4.62s-1.32-4.6-4.62-4.6c-2.65 0-4.62 1.3-4.62 4.6s1.97 4.62 4.62 4.62zM65.6 30.07c3.3 0 4.6-1.97 4.6-4.62l-1.3-3.3-3.3-1.97c-1.33 0-2 1.32-3.3 1.97l-2 3.3c0 2.65 2 4.63 5.3 4.63zM31.94 56.47c3.3 0 4.62-1.98 4.62-4.62 0-3.3-1.32-5.28-4.62-5.28s-4.62 1.98-4.62 5.28c0 2.64 1.32 4.62 4.62 4.62zM224.63 41.3l1.32-3.96-1.32-3.3c-.66-1.33-2.64-2-3.3-2-3.3 0-4.62 2-4.62 5.3s1.33 4.6 4.63 4.6l3.3-.65zM229.9 64.4c3.3 0 4.63-2 4.63-5.3 0-2.63-1.32-4.6-4.62-4.6-2.63 0-4.6 1.97-4.6 4.6 0 3.3 1.97 5.3 4.6 5.3zM216.05 80.9c2.64 0 4.62-1.33 4.62-4.63S218.7 71 216.05 71c-1.32 0-1.98.65-3.3 1.97l-1.32 3.3 1.32 3.3c1.32 1.32 1.98 1.32 3.3 1.32zM276.76 35.35c2.64 0 3.96-1.3 3.96-3.95 0-3.3-1.32-5.3-3.96-5.3-1.97 0-2.64.67-3.3 2-1.3.65-1.97 1.3-1.97 3.3 0 2.64 1.96 3.95 5.26 3.95zM239.15 31.4c2.64 0 4.62-1.32 4.62-4.62s-1.98-4.63-4.62-4.63c-3.3 0-4.62 1.32-4.62 4.62l1.32 3.3c1.32 1.33 1.98 1.33 3.3 1.33zM311.08 29.4c2.64 0 4.62-1.3 4.62-4.6s-1.98-4.62-4.62-4.62c-3.3 0-4.62 1.32-4.62 4.62l1.32 3.3c1.32 1.3 1.98 1.3 3.3 1.3zM345.4 28.1l1.32-3.3c0-3.3-1.33-4.62-4.63-4.62s-5.28 1.32-5.28 4.62 1.98 4.6 5.27 4.6l3.3-1.3zM297.88 40.64c3.3 0 5.28-2 5.28-4.63 0-3.3-1.98-4.6-5.28-4.6s-4.62 1.3-4.62 4.6c0 2.65 1.32 4.64 4.62 4.64zM346.7 175.92l1.34-3.96-1.33-3.3c-.65-.67-2.62-1.32-3.3-1.32-1.3 0-2.62.65-3.3 1.32-1.3 1.32-1.96 1.98-1.96 3.3l1.97 3.96c.68.66 2 1.3 3.3 1.3l3.3-1.3zM328.9 189.78l1.32-3.3-1.32-3.3c-1.32-1.33-2.64-1.33-3.96-1.33-2.64 0-4.62 1.33-4.62 4.63s1.98 5.27 4.62 5.27c1.32 0 2.64-.66 3.96-1.97zM342.1 204.95c3.3 0 4.6-1.32 4.6-4.62s-1.3-4.6-4.6-4.6-5.28 1.3-5.28 4.6 1.98 4.62 5.27 4.62zM343.42 226.07c3.3 0 5.27-1.32 5.27-4.62s-2-5.28-5.28-5.28-4.62 1.98-4.62 5.28 1.3 4.62 4.62 4.62zM315.04 206.93c2.64 0 4.62-1.98 4.62-5.28 0-2.63-1.98-4.62-4.62-4.62-3.3 0-4.62 2-4.62 4.62l1.32 3.97c1.32.65 1.98 1.3 3.3 1.3zM111.13 189.78l1.32-3.3-1.33-3.3-3.3-1.33c-3.3 0-4.6 1.33-4.6 4.63s1.3 5.27 4.6 5.27l3.3-1.97zM91.33 208.25c3.3 0 4.62-1.32 4.62-4.62s-1.32-4.6-4.62-4.6c-1.32 0-2.64.64-3.3 1.3l-1.32 3.3c0 3.3 1.33 4.62 4.63 4.62zM31.94 278.86c2.64 0 3.96-1.32 3.96-4.62s-1.32-4.62-3.96-4.62c-3.3 0-5.28 1.32-5.28 4.62s1.98 4.62 5.28 4.62zM31.94 338.25c2.64 0 3.96-1.32 3.96-4.62s-1.32-5.27-3.96-5.27c-3.3 0-5.28 1.98-5.28 5.27 0 3.3 1.98 4.63 5.28 4.63zM29.3 414.14c3.3 0 4.62-1.32 4.62-4.62s-1.32-4.62-4.62-4.62-4.62 1.33-4.62 4.63 1.32 4.62 4.62 4.62zM43.82 452.42c3.3 0 4.6-1.98 4.6-5.28l-1.3-3.3c-1.33-.66-2-1.32-3.3-1.32-3.3 0-4.62 1.32-4.62 4.62s1.32 5.28 4.62 5.28zM84.73 179.88c3.3 0 4.62-1.32 4.62-4.62l-1.32-3.3-3.3-1.98c-3.3 0-4.62 1.98-4.62 5.27s1.33 4.63 4.63 4.63z"/><path fill="#D96038" d="M204.83 61.75l-26.4 3.3c-18.47 4.62-32.33 13.2-40.9 25.74 14.5 1.97 31-2.65 46.85-13.2l20.45-15.85z"/><path d="M204.83 59.77l-27.05 3.3c-19.14 4.62-33 13.2-42.24 26.4-.66.66-.66 1.32-.66 1.98l2.64 1.32c15.18 1.97 31.02-1.98 47.52-11.88l21.12-17.17.65-2.64-1.97-1.33zm-6.6 4.62c-19.13 16.5-36.95 25.07-56.1 24.4 7.27-7.9 17.17-14.5 29.7-19.13 8.6-2.64 17.17-4.62 26.4-5.28z"/><path fill="#FFE000" d="M37.22 74.3c5.93 6.6 13.86 12.53 23.1 17.8 19.8 10.57 38.27 12.54 55.43 7.27-13.2-11.88-30.36-19.8-50.82-23.1l-27.7-1.98z"/><path d="M36.56 72.3l-1.98 2 .65 1.97c7.26 6.6 15.18 13.2 25.08 17.82 19.8 10.54 38.3 13.2 56.1 7.24l2-1.3-.68-2.65c-13.85-12.55-31-20.47-52.13-23.77L36.55 72.3zm35.63 7.27c14.5 3.3 27.7 9.9 38.27 18.47-13.2 2.65-27.06 1.32-41.58-5.27-9.9-3.3-18.48-8.58-26.4-15.84l29.7 2.64z"/><path fill="#D96038" d="M81.43 39.97c-.66 6.6.66 13.87 2.64 21.78 4.62 16.5 15.84 29.04 31.68 37.6-.66-17.8-5.94-32.98-17.16-46.18l-17.17-13.2z"/><path d="M80.1 38l-1.3 1.3c0 7.27.65 15.2 3.3 23.77 5.27 16.5 16.5 29.7 33 38.27h1.97l1.32-1.98c-.68-18.47-6.6-34.3-18.5-47.5L82.1 37.98h-2zm8.6 29.03c-3.3-7.26-5.3-15.18-5.3-23.1 6.6 3.96 11.9 9.24 16.5 15.84 7.92 9.9 11.88 21.78 13.2 34.97-11.2-6.6-19.8-16.5-24.4-27.7z"/><path fill="#D96038" d="M94.63 119.83l15.18-11.9-23.1-.64c-12.53 7.24-18.47 17.14-17.8 29.68 0 5.28 1.3 10.56 3.3 15.18 3.3-11.22 11.2-21.78 22.43-32.33z"/><path d="M112.45 107.3l-1.98-1.33-23.76-1.33-1.3.66c-13.2 7.93-19.8 18.48-19.15 31.02 0 5.94 1.32 12.54 3.96 17.16l2 1.3 2.63-1.3c2.64-11.22 9.9-21.12 20.46-31.68l16.5-11.87.65-2.64zM72.2 146.2l-2-10.56c0-9.9 5.95-19.13 16.5-26.4l16.5.67c-15.17 10.55-25.07 23.1-31 36.3z"/><path fill="#D96038" d="M62.3 57.8c2.63 7.25 6.6 14.5 13.2 21.77 11.87 13.86 27.05 21.12 45.52 21.77-8.57-15.84-21.1-28.37-36.95-36.3-8.58-3.95-15.18-6.6-21.78-7.25z"/><path d="M60.3 56.47c-.65 1.32-.65 1.32 0 2.64 2 7.27 6.6 14.53 13.2 21.8 13.2 15.17 28.4 22.43 47.52 23.1l2-1.34v-1.97c-8.6-16.5-21.13-29.05-37.63-37.63-7.93-3.3-15.85-5.94-23.1-6.6-.67-.66-2-.66-2 0zm56.1 41.57c-13.2-.65-25.07-6.6-34.97-15.84-6.6-5.93-11.88-12.53-15.84-21.1 7.9 1.97 15.83 5.27 23.1 9.9 11.2 6.6 20.45 15.83 27.7 27.04z"/><path fill="#FFE000" d="M117.07 34.7c-3.96 5.27-7.26 13.2-9.25 21.1-3.3 17.17.67 32.35 13.2 45.54 5.28-17.15 7.26-33.65 3.3-48.83-1.3-7.9-4.6-13.85-7.25-17.8z"/><path d="M115.08 33.37c-3.96 5.94-7.26 13.2-9.23 22.44-.66 3.97.66 7.27 2.64 10.57.65-8.58 3.3-17.82 8.57-27.06 4.6 9.9 7.25 20.47 7.25 31.7 0 6.6-1.3 15.17-4.62 25.07-6.6-8.58-9.9-17.82-9.9-27.06-3.3 12.55 0 23.77 9.25 33.67l2.63 1.32 1.32-1.33c5.94-17.82 7.26-34.98 3.3-50.16-1.32-7.9-3.96-14.5-7.26-19.13l-1.97-1.32-1.98 1.32z"/><path fill="#D96038" d="M152.7 28.1c-7.26 4.6-13.2 11.87-19.8 20.45-11.88 17.82-16.5 35.64-13.2 53.45 14.52-11.2 23.76-27.7 29.04-47.5 3.3-9.9 3.96-19.15 3.96-26.4z"/><path d="M151.38 56.47c2.64-10.56 3.96-19.8 3.96-28.37l-1.32-2h-2.64c-6.6 5.3-13.86 12.55-19.8 21.8-13.2 17.8-17.16 36.3-13.86 54.76l1.33 1.33h2.63c13.86-11.9 23.76-27.73 29.7-47.53zm-1.32-23.1c-.66 9.24-1.98 18.48-5.28 27.72-5.28 14.5-13.2 26.4-23.1 35.63l-.66-5.94c0-20.47 9.9-39.6 29.04-57.43z"/><path fill="#FFE000" d="M30.62 102.67l30.35 6.6c23.1 2.63 42.24-1.33 57.42-11.88-16.5-7.93-36.3-9.9-58.75-4.63-11.22 1.98-20.45 5.27-29.03 9.9z"/><path d="M60.3 89.47c-11.2 2.63-21.77 6.6-31 10.56l-.66 2.64.66 1.32c9.9 3.94 21.12 6.6 32.33 7.9 23.1 2 42.24-1.97 58.07-12.53l.67-1.98-.67-2c-17.15-7.9-36.3-10.55-59.4-5.93zM37.23 102c9.9-4.6 20.45-7.26 31.67-7.9 16.5-2.65 31-1.33 43.55 3.94C92 109.26 66.9 110.58 37.22 102z"/><path fill="#FFE000" d="M188.34 42.6c-9.9 2.65-20.46 7.94-31.68 15.2C134.88 71 121.02 86.16 116.4 104c17.82-4.63 34.98-15.85 52.14-34.33l19.8-27.06z"/><path d="M169.2 71.65c11.22-11.88 18.48-21.1 21.1-28.38 1.34-.66 1.34-1.32 0-1.98l-2.62-1.33c-10.56 3.97-22.44 8.58-33 15.84-21.78 13.87-35.64 29.05-40.9 46.86-.67 1.33-.67 1.98.64 1.98l2 1.32c18.46-4.62 35.62-15.17 52.78-34.3zm-18.48-7.26c9.9-6.6 20.46-13.2 31.68-17.16-18.48 27.7-39.6 45.53-62.03 52.13 5.27-12.54 15.83-24.42 30.35-34.98z"/><path fill="#858585" d="M148.08 134.34c-1.98-3.96-2.64-11.2-3.3-23.1l-.66-15.18c-5.94-.66-11.22.67-14.52 3.3l-4.62 4.63-13.2-1.34-9.23 1.98c2.64 5.95 5.28 9.9 9.24 13.86l18.47 17.16c7.9 7.92 15.83 30.36 25.73 67.3l12.54 54.12c3.3-5.27 3.96-13.85 4.62-24.4l-.66-15.2c-11.22-42.9-19.8-70.6-24.42-83.14z"/><path d="M146.1 96.07l-1.98-3.3c-9.24 0-15.84 2.63-19.8 7.92l-22.43 1.97c-.67 0-1.33 0-2 1.32v1.97l7.27 11.22 21.1 20.44c7.27 7.26 15.85 29.04 25.75 66l11.88 54.1c0 1.33 1.32 1.98 2.64 1.98.66 0 1.98-.65 2.64-1.3 3.3-5.95 3.96-13.87 4.62-25.1l-.66-15.83c-10.56-41.58-19.14-69.96-25.08-83.82-1.98-6.6-3.96-19.14-3.96-37.6zm-4.62 2.63c0 17.16.66 29.04 3.96 36.3 4.62 12.54 13.2 40.26 24.42 83.15l-.66 27.72c-4.62-21.8-9.9-42.24-14.52-60.72-8.58-27.7-15.84-44.87-23.1-51.47l-9.24-9.24c-7.26-6.6-12.54-12.54-15.83-17.8l17.16-.68 2.64.67 1.32-1.33 3.3-3.3c2.64-1.97 5.94-2.64 10.56-3.3z"/><path fill="#858585" d="M227.27 482.1c-15.84-5.26-34.97-8.56-55.43-9.88-42.24-4.63-75.9 0-100.3 14.52l1.3 11.87c2 7.93 3.97 12.55 7.27 14.53l16.5.66c5.3 5.27 7.93 9.23 7.27 12.53l-5.94 9.24c-3.3 4.62-5.94 7.92-5.94 9.9 0 3.3 3.3 8.57 9.9 13.2l36.28-1.33 19.8 3.3c4.62.66 7.92 0 9.9-1.97 4.62-9.24 9.9-13.86 14.52-14.53 3.3 0 6.6 1.33 9.9 3.3l9.9 4.63c5.27 1.97 11.87 1.97 19.13-1.33 3.96-1.97 6.6-7.25 8.58-16.5 3.3-12.53 2-29.7-2.63-52.13z"/><path d="M227.93 479.48c-17.16-4.63-36.95-8.6-58.07-10.56-41.58-3.3-74.57 1.32-99.65 15.83l-1.3 2 1.3 14.5c2 7.92 4.63 12.54 8.6 14.52H94.62c3.96 4.62 6.6 8.57 6.6 9.9l-3.96 5.27C92 538.2 90 542.84 90 545.47c0 5.27 3.3 9.9 9.9 15.17l7.27 1.33 30.35-2 25.08 3.3c3.3 0 5.94-1.3 6.6-3.3l1.32-1.3c4.62-7.27 7.92-11.23 11.88-11.23 3.3-.66 7.26 1.33 12.54 3.96l5.93 3.3c5.94 2.64 13.2 1.32 22.44-1.98 4.63-1.98 7.93-8.58 9.9-18.48 2-13.85 1.33-31-3.3-52.13l-1.97-2.62zm-62.7-5.3c21.8 1.34 41.58 4.63 59.4 10.57 3.3 11.88 3.96 23.1 3.96 33s-.67 17.82-3.97 24.42l-3.96 5.94c-7.26 3.3-12.54 3.97-17.16 1.33l-5.93-2.65c-5.93-3.95-10.56-5.27-15.17-4.6-5.28 0-10.56 5.26-16.5 13.2l-.66 1.96-27.06-2.64-34.97 1.33c-5.27-3.96-7.9-7.26-7.9-10.56 0-2 1.97-5.3 6.6-11.23l4.6-7.25c.67-3.97-1.97-9.26-8.57-15.2l-7.92-.66c-4.6.67-7.25.67-8.57 0-4.62-1.97-6.6-9.9-6.6-22.43 22.44-12.52 52.8-17.15 90.4-14.5z"/><path d="M198.23 486.74c-11.22 14.5-29.7 27.7-54.1 40.9l-34.32 14.53c-1.3.66-1.3 1.97-1.3 2.64.65 1.33 1.3 1.33 3.3 1.33 11.2-3.96 23.08-9.25 35.62-15.84 24.42-12.56 42.9-26.4 54.1-40.92v-2.65c-1.3-1.32-2.62-1.32-3.3 0z"/><path d="M157.32 520.4l-37.6 3.95c-1.34 0-2 1.32-1.34 1.98 0 1.3 0 1.98 2 1.3l36.94-3.3 1.32-1.96-1.32-1.98zM157.32 547.44l17.82-34.97-.66-2.64c-.66-.66-1.98 0-2.64 1.32l-5.94 11.88c-3.96 9.24-8.58 16.5-11.88 21.78-1.32.67-1.32 1.33 0 2.64h3.3zM199.56 500.6c-5.94 18.47-11.22 30.34-13.86 33.64-.66.67-.66 1.33.66 2 1.32 1.3 1.98 1.3 2.64 0 3.3-3.97 8.58-15.2 14.5-34.33.67-.65 0-1.97-1.3-2.62-1.33-.67-2 0-2.64 1.3z"/><path fill="#858585" d="M308.44 228.05c-4.62 3.3-7.92 6.6-8.58 10.56-3.3 11.22-5.28 19.14-5.28 24.42.66 5.94-2.64 11.22-9.9 16.5-2.64 2.64-7.92 1.32-17.15-1.98-20.46 16.5-32.34 35.63-33.66 56.1-1.98 19.13 3.3 31 16.5 36.3 9.24 3.3 20.46 3.95 32.33 2.63l15.18-3.96c13.86-1.97 34.32-9.9 62.03-25.07l3.3-42.9c-11.2 3.3-19.12 3.3-22.42 0-1.32-2.63-1.98-6.6-1.32-14.5l2.63-13.86c.66-1.33 0-4.63-2.64-9.9l-13.2-27.72c-3.96-6.6-6.6-9.9-8.58-9.9-1.98 0-5.28 1.32-9.24 3.3z"/><path d="M307.12 226.07c-5.28 3.3-8.58 7.26-9.9 11.88-3.3 13.2-4.62 21.12-4.62 25.07 0 4.62-2.64 9.24-9.24 14.52-1.98 1.32-6.6.67-13.86-3.3l-3.3.67c-13.85 11.22-23.75 24.42-29.7 38.94-5.27 11.22-6.6 23.1-5.27 33 2.64 13.2 8.58 21.77 17.82 25.72l50.15-1.97c13.2-1.34 33.66-9.9 61.37-24.43l1.32-2.64 4.6-42.23-1.3-2.64H343.4c-2.64-2.64-2.64-11.22 1.32-25.74.65-2.64-.66-7.26-4.62-13.86l-11.88-25.73c-4.62-7.26-7.92-10.56-10.56-11.22-2.64-.65-6.6.67-10.56 3.97zm3.3 3.96c3.3-1.98 5.94-3.3 6.6-2.65l7.26 8.6 15.84 36.28c-4.62 15.18-4.62 25.08-.66 29.7 3.3 4.6 10.56 5.28 21.1 2.64l-3.95 37.6c-29.02 14.53-48.82 22.45-58.72 23.77l-15.83 3.96c-11.9 1.32-21.78.66-31.02-2.64-7.26-3.3-12.54-9.9-13.86-20.47l-.66-7.26c0-9.23 2-19.13 7.27-28.37 5.28-11.23 13.86-21.12 24.42-31.02 9.22 3.96 15.16 3.96 19.12 1.33 6.6-5.94 10.56-12.54 9.9-18.48 0-5.27 1.98-13.2 5.28-23.75 1.32-3.3 3.3-6.6 7.92-9.24z"/><path d="M314.38 243.88c-1.32 0-1.98.67-1.32 2 1.32 21.76.66 38.26-3.3 48.82l-11.88 19.14c-7.92 11.87-13.86 22.43-18.48 30.36-7.9 13.85-12.53 28.37-15.83 42.9-.67 1.3 0 2.63.66 2.63 1.97 0 2.64 0 2.64-1.98 3.3-13.86 8.58-27.72 15.83-41.58l30.36-50.15c3.3-7.26 3.96-17.16 3.96-30.35l-.66-19.8-1.98-2z"/><path d="M363.2 319.77c.67-.65 1.33-1.97.67-2.63-.66-1.33-1.98-1.98-2.64-1.33-37.6 17.17-65.33 27.07-82.48 31.03-1.33 0-1.33.67-1.33 2.64l1.98.66c17.82-3.3 44.88-13.86 83.8-30.36z"/><path d="M331.54 316.47l-.66-2.63c-.66-.67-1.32-.67-1.98 0-9.24 9.9-15.18 17.16-18.48 23.1v3.3l3.3-.67c1.98-3.96 5.94-8.57 10.56-15.17l7.26-7.93zM330.88 268.96c-10.56 13.2-19.8 24.42-25.08 33-1.32 1.3-.66 1.98.66 2.64l2.64-.66 25.08-33-.66-1.98h-2.64zM282.7 297.34l-1.98-1.98c-1.32 0-2.64 1.3-2.64 1.98l1.32 15.83c1.32 9.9 3.96 17.16 7.26 20.46.66.67 1.98.67 3.3 0 .66-.66.66-1.97 0-2.63-5.28-4.63-7.26-15.84-7.26-33.66zM258.95 310.54h-1.98l11.88 58.07 1.98 1.33c1.97 0 2.63-.67 1.97-2.64l-11.87-58.1-1.98 1.34z"/><path fill="#858585" d="M342.75 72.97c2.64-5.94 3.3-13.2.66-21.12-3.28-8.58-5.92-11.2-9.88-9.24-1.98.67-5.94 3.3-11.22 6.6l-11.88 6.6c-2.64.67-5.28.67-7.92 0l-9.24-3.95c-2.64-.66-5.94 1.32-7.92 5.3l-3.96 7.9C279.4 69 274.12 71 267.53 71l-6.6-4.63-5.94-7.92c-1.33-1.98-3.97-1.3-5.3 1.32l-6.6 7.92c-2.63 3.3-4.6 7.9-3.95 13.85 0 3.3.66 5.94 1.32 8.58 0 22.43 4.62 40.9 13.86 55.43 7.92 11.88 15.17 17.82 22.43 18.48l13.86 4.62c6.6 3.3 10.56 3.96 13.86 3.3 6.6 0 15.84-5.28 28.38-15.18 2.63-2.64 3.3-5.94 1.32-9.9l-3.96-9.24-9.9-.66c-5.28 0-7.26-1.32-5.94-4.62 1.98-2.63 5.28-5.28 11.22-8.58l11.22-5.28c3.3-1.97 5.27-5.27 5.93-9.9.66-4.6 0-7.26-2.64-7.26-7.24 0-10.54-2.64-10.54-8.57 0-1.98.66-4.62 3.96-7.92l9.24-11.88z"/><path d="M345.4 74.3c1.32-3.3 1.98-7.27 1.98-11.9 0-9.23-2-15.83-6.6-20.45-2.64-2.64-5.28-3.3-7.92-1.98l-23.1 13.2-9.24-1.32-6.6-2.64c-5.94-.65-9.9 3.3-13.2 11.9l-1.32 3.3-4.6 1.97-7.28 1.32-10.56-11.23-5.27-1.98c-1.33.65-3.97 2.64-6.6 6.6l-3.97 5.27c-3.3 3.3-4.62 7.92-4.62 14.52l1.33 9.9c0 22.43 4.62 41.56 15.17 56.74 7.92 12.54 15.18 19.14 23.1 19.14l13.2 3.95c7.26 3.3 12.54 4.63 15.18 4.63 7.92-1.32 17.82-6.6 29.7-16.5 3.3-2.64 3.96-6.6 2.64-11.88-.67-3.3-2.64-7.25-4.63-10.55-1.32-2-4.62-2.65-9.9-2.65h-5.28c1.98-2.64 6.6-5.94 13.86-9.24l7.9-3.96 4.63-5.94 2.65-8.57-.66-2.64c-.66-2.64-2.65-3.96-5.28-3.96-5.94 0-7.92-1.98-7.92-6.6 0-1.98 1.32-3.96 3.96-6.6l9.23-11.88zm-3.3-16.5c.65 5.27 0 9.9-2 13.2l-7.9 11.2c-3.3 3.97-5.28 7.27-5.28 10.57 0 7.92 3.96 11.22 13.2 11.22.66 0 .66.64 0 1.97l-.67 6.6-3.3 3.3-7.26 3.3c-9.24 4.62-15.18 8.57-16.5 11.87-1.32 2.64-1.98 4.62-.66 5.94 1.32 1.32 4.62 1.98 10.56 1.98l5.94.67 3.95 7.9c.66 3.3.66 5.95-1.32 6.6-11.88 9.9-21.12 15.2-27.06 15.85-1.98 0-6.6-1.32-13.2-3.3-5.94-3.3-10.56-4.62-13.86-4.62-5.93-1.32-12.53-6.6-19.13-17.16-9.9-14.52-14.52-32.34-14.52-54.77v-.66c-1.3-1.98-1.3-4.62-1.3-8.58 0-4.63 1.3-8.6 2.63-11.23l8.58-9.9.67.66 3.3 4.62c3.3 5.94 7.26 7.92 10.56 7.92l9.9-1.32c3.3-1.32 5.27-3.3 6.6-4.62l1.3-3.96c2.65-5.94 5.3-8.58 7.27-8.58l5.28 1.97 13.86 1.32 23.1-13.2 1.98 1.3c2.63 2 3.96 5.95 5.27 11.9z"/><path d="M329.56 57.8L302.5 85.5c-19.8 21.79-34.3 40.92-42.9 58.08-1.3.66-1.3 1.98.66 3.3.67 0 2 0 2.64-1.32 8.6-17.16 23.1-36.3 42.24-57.4 9.24-10.57 18.48-19.8 27.06-27.07.66-1.33.66-2 0-3.3-1.32-1.33-1.98-1.33-2.64 0z"/><path d="M295.24 64.4c-1.98 10.55-3.3 21.77-2.64 33l1.98 1.97 1.98-1.98c-.66-11.23.66-21.13 2.64-32.35l-1.98-1.98c-.66 0-1.32 0-1.98 1.32zM257.63 77.6c-1.32 0-2.64.65-2.64 1.97l1.97 20.46c1.32 15.83 3.3 28.37 5.93 38.93l2 1.32c1.3 0 1.97-1.32 1.3-2.64-1.98-10.56-4.6-23.1-5.27-38.27l-1.32-19.8-1.97-1.98z"/><path d="M276.1 82.87c0-1.32 0-1.98-1.98-1.98-.66-.67-1.32 0-1.97 1.3-4.62 17.83-9.25 29.7-12.54 35.64-1.3 1.32-.65 2 .66 2.64l2.64-.65c3.3-5.94 7.93-18.5 13.2-36.96zM320.98 108.6c-20.46 9.24-36.3 14.53-48.18 15.18-1.3 0-1.98 0-1.98 1.98 0 1.32.66 1.32 1.98 1.32 12.54 0 29.7-5.28 50.16-14.52.66-1.32 1.32-1.98.66-3.3 0-.66-.66-1.32-2.64-.66zM317.02 88.15l-28.38 13.2c-1.32.65-1.32 1.3-1.32 2.64.66 1.97 1.98 1.97 2.64 1.3l29.7-13.85.66-1.98c-.66-1.32-1.32-1.98-3.3-1.32zM317.02 146.88l-46.2-2.64c-1.3 0-2.63 0-2.63 1.32 0 1.98.65 2.63 1.97 3.3l47.5 1.98c2 0 2-.66 2-1.98s-.67-1.98-2.65-1.98z"/><path fill="#858585" d="M93.3 237.95c-3.3-1.32-5.27-1.98-6.6-3.3l-6.6-10.57c-3.3-5.93-6.6-7.9-9.9-8.57l-14.5-5.27-12.55-1.32c-1.97 1.33-2.63 4.63-1.97 11.23 1.3 7.92 1.3 12.54 0 15.18-1.32 4.62-.66 10.57 2.64 17.82 3.3 7.92 6.6 12.54 9.9 14.52l9.23 5.28c2.64 1.32 3.96 3.96 3.96 6.6 0 3.96-1.3 7.26-2.63 9.24-1.98 2.65-3.96 3.96-6.6 2.65l-5.94-.66c-1.32 0-3.3 1.32-4.62 3.3-3.95 5.28-6.6 9.23-6.6 12.53 0 2 2 3.97 5.95 6.6l11.22 3.3 21.12-3.95c1.3.65 1.97 1.98 2.63 4.62 0 3.3-.66 5.93-2.64 7.26l-11.9 10.56c-5.27 5.94-7.9 9.24-7.9 11.2 0 2 3.3 4.64 9.9 7.27 7.9 3.3 14.5 3.97 21.1 3.3l25.08-7.26c11.88-3.96 21.12-5.27 29.04-3.3l12.54-31.67c7.92-23.76 10.55-42.23 7.25-55.43-9.88.65-18.46 3.3-24.4 5.27-3.96 1.33-6.6 0-6.6-4.62v-18.47c0-6.6-2.64-13.2-7.92-19.8-5.94-5.28-9.9-7.26-13.86-5.28-2.64 1.32-3.95 5.28-5.94 11.22-.66 5.93-1.97 9.23-3.96 9.88l-7.9.67z"/><path d="M99.9 234.65h-5.93l-5.28-1.98-3.3-4.62c-5.3-9.9-10.57-15.18-15.2-15.18l-8.57-3.3c-10.55-3.3-17.15-4.62-19.8-2.64-3.3 2.64-4.6 7.25-2.63 15.18v12.55c-1.98 4.62-.67 11.22 2.63 19.8 3.3 7.9 6.6 13.2 10.56 15.83l10.55 5.94.66 3.3c0 4.62-.65 7.92-2.62 9.24h-2.65l-7.25-.66-5.94 4.62c-4.62 4.62-6.6 9.24-7.26 12.54-.66 1.98.66 4.6 2.64 6.6l7.92 5.27 9.9 1.33 19.8-3.3.65 2.64-2 4.6-9.9 9.25c-7.25 7.26-11.2 11.88-11.2 14.52l3.3 4.62c2.63 2.63 7.25 5.26 13.2 6.6l18.47 2.63 17.82-5.94c15.82-5.3 27.04-7.27 34.3-5.3l3.3-1.97c4.62-6.6 8.58-17.82 13.2-33 7.92-23.1 9.9-41.57 7.26-55.42-.66-1.98-1.32-2.64-2.64-1.98l-25.74 5.94h-1.98c-1.32 0-1.32-4.62-.66-11.22v-9.9c0-5.27-1.32-9.9-4.62-15.17-3.3-4.62-6.6-8.6-10.55-11.22-3.96-1.98-7.26-1.98-10.56-.67-2.63 2-4.6 5.94-6.6 13.86l-3.3 6.6zm-29.7-16.5c2 0 5.95 4.62 11.23 13.2l3.3 4.62 7.92 3.96 9.24-.66c2.62-.66 4.6-3.96 5.92-9.9 2-6.6 3.3-9.9 4.63-11.22l5.27 1.32c3.3 1.98 6.6 5.28 8.58 9.24 2.64 3.97 3.96 8.58 3.96 12.55v9.23c-.66 9.24.66 14.53 2.64 15.84l7.92.66c4.62-1.97 11.88-3.96 21.12-4.6l.66 8.56c0 19.14-6.6 42.9-20.46 72.6-7.92-2-20.46 0-35.63 5.93L90 354.1l-19.13-2.65-9.24-5.28c0-1.3 1.98-4.6 7.26-9.23l11.2-10.57c3.3-2.63 4.63-5.93 3.3-9.9 0-3.3-1.3-5.93-3.95-6.6L57 313.85l-5.92-1.32-6.6-3.96-1.32-1.98c.66-2.64 2.64-5.94 5.93-10.56l3.3-2.64 4.62.66 6.6-.66c3.95-2.64 5.27-7.26 5.27-13.86 0-2.64-.67-5.28-2-7.25-1.3-.66-3.3-2-6.6-3.3l-4.6-3.3c-3.3-1.33-6.6-6.6-9.24-13.2-2.64-6.6-3.96-12.54-2.64-16.5v-14.52c-.66-6.6 0-9.9.66-9.9 1.32-1.32 6.6 0 14.5 3.3l11.23 3.3z"/><path d="M58.33 227.38c-1.32.67-1.98 2-1.32 2.65l26.4 34.3c22.45 26.4 44.88 48.2 68.64 65.34l2.64-.66c.66-1.3.66-1.96 0-2.63-23.1-17.15-46.2-38.27-67.97-64l-26.4-34.32c-.65-1.32-1.3-1.98-1.97-.67z"/><path d="M115.75 240.58l2.63 59.4c-.66 1.32 0 1.98 1.33 1.98l1.98-1.32c1.33-10.56 1.33-24.42 0-39.6l-1.97-21.12c0-1.97-.66-1.97-1.98-1.97-1.3 0-1.97 1.32-1.97 2.63z"/><path d="M121.68 277.54l-15.17-23.76c-.65-1.3-1.3-1.3-3.3-1.3-.65.64-1.3 1.96-.65 3.3l4.62 8.56 11.87 15.84 2.64.66c1.32-1.32 1.32-1.98 0-3.3zM86.7 262.37L57 247.84h-3.3c-.65 1.32 0 1.97 1.33 3.3l8.58 4.62 21.8 10.55 2.63-1.3c.66-.68 0-2-1.32-2.65zM76.8 300.64l35-7.26c1.3-.66 1.3-1.98 1.3-2.64-.65-1.32-1.3-1.98-3.3-1.32l-33 7.92c-1.97 0-1.97.66-1.97 1.98l1.98 1.32zM145.44 323.74c1.32-.67 1.98-1.98 1.32-3.3-.66-.67-1.32-.67-2.64-.67l-65.33 21.8c-.67 0-1.33 1.3-.67 1.96l1.98 1.33 65.34-21.13z"/><path d="M96.6 320.44c-1.3 0-1.97.66-1.97 2.63l1.98 1.33h9.9c6.6.66 11.88 2.64 15.18 6.6.66.66 1.32.66 2.64 0 .66-.66.66-1.33 0-3.3-3.95-3.96-9.23-5.94-17.15-7.26H96.6z"/><path fill="#FFE000" d="M344.08 422.72c-.66-11.22-17.16-13.2-48.84-5.28-31 7.92-47.5 15.18-48.83 21.78-1.97 6.6 14.53 7.92 48.84 5.28 33.66-2.64 50.15-9.9 48.84-21.78z"/><path d="M244.43 438.56c-.66 1.32 0 3.3 1.98 3.96 5.3 4.62 19.15 5.94 40.92 4.62 23.1-.66 39.6-4.62 49.5-10.56 6.6-3.3 9.9-7.26 9.9-12.54v-1.32c-.66-7.26-6.6-11.22-19.14-11.87-13.2-.66-30.36 2.64-50.82 9.24-20.45 7.24-31.67 13.2-32.33 18.46zm34.97-14.52c21.12-7.25 37.62-9.9 49.5-8.58 7.92.66 12.54 3.3 13.2 7.26.65 5.94-4.62 9.9-15.18 13.2-13.2 4.62-29.04 7.26-48.84 7.26-17.82 0-27.7-1.32-29.7-3.96 1.33-3.96 11.9-9.24 31.02-15.18z"/><path fill="#FFE000" d="M154.02 403.6c-5.28 10.54 7.92 20.44 39.6 29.68 30.35 9.24 48.17 10.56 52.8 5.94 4.6-5.28-8.6-15.18-39.6-29.7-31.02-15.17-48.18-16.5-52.8-5.93z"/><path d="M166.56 395c-7.92 0-12.54 2.65-15.18 7.92-.66.67-.66 2.64-.66 3.97 0 5.93 3.3 10.55 11.22 15.82 10.56 6.6 27.06 12.54 48.83 17.16 21.12 3.96 33.66 4.62 36.96.66l.66-5.28c-3.3-5.94-13.87-14.52-33.67-24.4-19.8-10.57-36.3-15.86-48.17-15.86zm-11.22 9.25c2.64-4.63 9.24-5.3 19.8-3.96 13.2 2.62 29.03 9.22 45.53 19.12 15.84 9.24 23.76 15.18 23.76 18.48l-34.32-2.64c-21.76-4.62-36.94-10.56-47.5-17.82-6.6-4.62-8.58-9.24-7.26-13.2z"/><path fill="#FFE000" d="M270.82 443.84c16.5-1.98 25.08-7.92 26.4-15.84.66-8.58-7.26-9.9-24.42-5.28-16.5 4.62-25.07 9.9-25.73 15.84-.66 5.94 7.26 7.26 23.75 5.28z"/><path d="M262.25 424.04c-11.22 4.62-17.82 9.24-17.82 14.52 0 1.32.66 3.3 2.64 4.62 3.3 2.64 8.58 3.96 17.16 3.3 7.92 0 15.17-1.32 21.77-3.96 7.92-3.96 12.54-8.58 13.2-13.86v-1.97c0-4.64-3.3-7.28-9.24-7.94-7.9-1.32-16.5.66-27.7 5.28zm-12.54 15.84l-1.3-1.32c.65-2.64 5.93-6.6 15.83-10.56 9.9-4.6 18.47-5.94 25.07-5.28 3.96.67 5.28 2.64 5.28 4.62-.66 4.62-3.96 7.92-10.56 10.56-5.94 2.64-12.54 3.96-19.8 4.62-7.25 0-12.53-.66-14.5-2.64z"/><path fill="#FFE000" d="M258.3 488.7c8.56 0 9.88-7.25 5.26-24.4-5.93-17.16-11.2-25.08-17.15-25.74-5.93 0-7.25 7.26-4.6 23.76 3.3 16.5 8.57 25.73 16.5 26.4z"/><path d="M247.07 435.92c-2.64 0-3.96.66-5.94 3.3-1.32 1.98-2.64 6.6-2.64 12.53 0 9.9 2.63 17.83 5.93 26.4 3.3 7.26 8.57 11.9 13.86 12.54 5.92 0 9.22-3.3 9.22-9.9.66-7.92-.66-16.5-5.93-27.72-4.63-10.56-9.9-16.5-14.53-17.16zm-1.98 5.94l1.3-1.32c3.3.66 7.27 5.28 11.23 15.18 3.96 9.9 6.6 17.82 5.94 24.42 0 3.95-1.98 5.94-4.62 5.94-4.62-.67-7.92-3.97-10.56-9.9-2.65-5.94-3.97-12.54-4.63-20.46-.66-6.6 0-11.88 1.32-13.86z"/><path fill="#FFE000" d="M223.97 484.75c5.94 5.3 12.54.66 19.14-15.83 6.6-16.5 7.93-26.4 3.3-30.36-4.6-4.62-10.55.66-18.47 15.18-8.58 15.18-9.9 25.07-3.96 31z"/><path d="M247.73 436.58c-.66-1.32-3.3-1.32-5.28-.66-3.96.66-7.92 4.62-13.2 11.22-4.62 6.6-7.92 13.2-9.24 19.8l-1.97 8.58c0 4.62 1.98 7.92 3.96 10.56 4.6 3.96 9.23 3.3 13.85-1.33 5.28-5.27 9.24-13.2 12.54-25.07 3.3-11.88 3.3-19.8-.67-23.1zm-3.96 3.3h1.32c2.63 2.64 1.97 9.24-.67 19.14-3.3 9.9-7.26 17.82-11.88 22.43-2.64 3.3-4.62 3.3-7.26 1.33-2-2.64-3.3-7.26-1.33-13.86 1.32-6.6 4.62-12.54 9.24-19.14 3.97-5.94 7.27-9.24 10.57-9.9z"/><path fill="#FFE000" d="M195.6 446.48c-.66 8.57 6.6 10.56 24.4 6.6 16.5-3.96 25.75-8.58 27.07-14.52.66-5.94-7.26-8.57-23.76-6.6-17.15 1.33-25.73 6.6-27.7 14.52z"/><path d="M193.6 446.48v1.97c0 3.97 3.3 7.27 8.6 7.93 7.9 1.32 16.5 0 28.37-3.96 11.22-3.97 17.16-9.24 17.82-13.2.65-2.64 0-4.62-2-5.94-2.63-2.64-8.57-3.96-17.15-3.96-7.92 0-15.18 1.32-21.78 3.97-8.57 2.62-12.53 7.24-13.86 13.18zm50.17-9.9l.66 1.32c0 3.3-5.94 6.6-15.84 10.56-10.57 3.3-18.5 4.62-25.1 3.96-4.6-.67-5.92-2.64-5.26-5.28.66-3.96 3.96-7.26 10.56-9.9 5.93-1.98 12.53-3.3 20.45-3.3 7.26 0 11.88 1.32 14.52 2.64z"/><path fill="#FFE000" d="M252.35 393.03c-1.98-31.68-7.26-48.83-14.52-50.82-7.92-1.97-9.9 12.55-5.94 44.23 4.6 32.33 9.23 49.5 15.17 50.8 5.28 2 7.26-13.2 5.28-44.2z"/><path d="M250.37 362.67c-2.64-13.86-6.6-21.12-12.54-22.44-3.96-.66-6.6 1.32-8.58 6.6-2.64 9.24-1.98 26.4 1.98 51.47 3.96 25.74 9.24 39.6 15.18 40.92l3.97-.66c3.3-2.64 4.62-13.2 4.62-29.7 0-17.8-1.33-33-4.63-46.2zm-16.5-15.84c.66-1.98 1.98-2.63 3.3-2.63 3.96 1.97 7.92 10.55 10.56 28.36 2.64 13.87 3.3 27.06 2.64 40.93 0 13.18-1.32 20.44-3.3 21.76-3.3-1.98-6.6-14.52-11.22-38.27-4.62-24.44-4.62-40.93-1.98-50.17z"/><path fill="#D96038" d="M214.73 397.65c-7.26 3.3-5.28 11.2 6.6 24.4 11.22 12.55 19.8 17.83 25.74 16.5 5.28-1.97 3.3-9.9-5.94-23.75-9.9-14.5-18.48-19.8-26.4-17.15z"/><path d="M231.9 401.6c-5.95-5.27-11.9-7.9-17.17-5.94-3.96 1.33-6.6 3.97-6.6 7.93l1.32 5.26c2.64 6.6 8.58 13.86 17.82 21.78 9.24 8.58 15.84 11.88 20.46 9.9 1.98-.66 3.3-1.98 3.3-4.62.66-3.96-.66-9.9-4.62-16.5-3.95-7.26-8.57-13.2-14.5-17.82zm-16.5-1.98c3.95-.66 8.57.67 13.85 5.28 5.28 4.62 9.24 9.24 12.54 15.84 3.95 6.6 5.27 11.22 4.6 14.52l-.65.66c-2.64 1.32-7.92-1.98-16.5-9.23-7.92-7.28-13.2-13.88-15.18-19.8-1.32-3.97-.66-5.95 1.32-7.27z"/><path fill="#D96038" d="M270.82 473.54c21.78 19.8 37.62 27.05 46.86 21.1 9.9-6.6 1.98-18.46-23.76-35.62-26.4-17.16-42.23-23.76-47.5-20.46-5.3 3.96 2.63 15.18 24.4 34.98z"/><path d="M245.1 436.58c-3.3 1.98-2 6.6 2.63 13.86 7.26 11.88 18.48 23.75 33 34.97 17.15 12.55 30.35 15.85 38.93 10.58 2.64-1.33 3.96-3.97 3.96-7.27l-2.64-8.56c-5.28-8.6-18.48-19.8-38.28-31.02-19.8-11.88-32.33-15.83-37.6-12.54zm11.2 17.82c-5.93-7.92-8.57-11.88-8.57-14.52 3.3-1.32 14.52 3.3 33 13.86 19.8 11.2 32.33 21.1 36.95 29.7 2.64 4.6 1.98 7.25-.66 8.57-7.26 5.3-19.8.68-36.96-13.2-9.24-7.9-17.16-15.82-23.75-24.4z"/><path fill="#FFE000" d="M246.4 439.88c-5.93 1.98-1.3 16.5 15.85 44.87 17.15 27.73 29.7 39.6 38.93 34.98 9.24-3.96 3.96-18.48-15.84-44.22-19.14-25.06-32.33-36.94-38.93-35.62z"/><path d="M245.75 437.9c-1.32 0-2.64 1.32-2.64 3.3-1.97 5.94 2.65 17.82 13.2 36.95 9.9 18.48 19.8 31.68 29.04 39.6 6.6 4.62 11.88 6.6 17.16 4.62 3.3-1.32 4.62-4.62 4.62-9.24l-1.32-7.92c-4.62-11.87-13.86-26.4-29.04-43.55-15.83-17.15-25.73-25.07-31-23.75zm10.56 30.35c-7.9-15.17-10.55-23.75-8.57-25.73 3.3-.66 12.54 6.6 26.4 23.1 15.17 17.16 24.4 31 27.7 42.23 2 5.28 1.33 8.58-1.3 9.9-4.63 1.98-11.23-1.98-19.15-10.56-8.58-9.9-17.15-22.45-25.07-38.95z"/><path fill="#FFE000" d="M287.32 465.62c30.36 12.53 48.84 13.86 53.46 4.62 5.27-9.24-8.58-17.82-40.26-26.4-32.34-7.92-49.5-9.9-53.45-4.62-3.96 4.62 9.24 13.2 40.25 26.4z"/><path d="M244.43 437.24c-.66 1.98-.66 3.3 0 5.28 3.3 5.28 13.86 12.53 33.65 21.12 19.8 9.24 35.64 13.85 48.18 14.5 8.58 0 13.85-1.96 16.5-6.6l1.32-4.6c0-4.62-3.3-7.92-8.6-11.9-11.2-6.6-27.7-12.52-50.8-17.14-23.1-4.6-36.3-4.6-40.25-.66zm40.25 5.28c23.1 4.62 39.6 10.56 49.5 17.16 5.28 3.96 5.94 6.6 4.62 9.24-1.98 4.62-9.9 5.93-21.78 3.3-13.86-2.64-29.04-7.27-44.87-15.84-15.18-7.26-23.1-13.2-23.76-16.5l36.28 2.64z"/><path fill="#D96038" d="M287.32 409.52c23.1-24.4 30.36-39.6 23.1-46.85-7.92-6.6-21.12 2.64-40.26 28.38-19.13 25.07-26.4 40.9-23.1 46.2 3.3 5.93 16.5-3.96 40.26-27.73z"/><path d="M257.63 405.56c-11.22 17.16-15.84 28.38-13.2 33.66.66.66 2.64 1.32 5.28 1.32 6.6-.66 17.82-8.58 34.32-24.42 16.5-16.5 26.4-30.36 29.7-41.57l1.32-5.28c0-3.3-1.32-5.94-3.3-8.57-5.28-3.97-12.54-2.65-21.78 5.93-10.56 7.92-21.77 21.12-32.33 38.93zm-9.24 30.36c-1.33-3.3 2.63-13.2 13.85-29.7 11.87-17.16 21.77-30.35 32.33-38.27 5.94-4.62 11.22-6.6 14.52-3.3 1.98 1.98 1.32 7.92-1.98 15.18-6.6 11.22-17.16 23.76-32.34 37.6-13.85 13.2-23.1 19.15-26.4 18.5z"/><path fill="#FFE000" d="M247.07 387.1c-5.94 29.7-5.94 46.18 0 50.14 5.28 3.3 13.2-8.58 23.76-38.28 9.9-29.03 9.9-45.53 0-49.5-10.56-4.6-18.48 7.94-23.76 37.63z"/><path d="M254.33 356.73c-5.94 11.22-9.9 26.4-12.54 46.86-2 20.44-.67 32.32 3.3 35.62 1.97.66 3.3.66 5.93 0 4.62-3.3 10.56-13.2 17.82-29.7 7.9-17.82 11.2-33 11.2-44.87v-1.98c-.65-8.57-3.3-13.2-9.23-15.84-5.93-2.63-11.87.67-16.5 9.9zm7.26 57.4c-6.6 13.87-10.57 21.13-13.87 21.13-2.64-1.97-3.3-12.54-.66-31.67 1.98-20.47 5.94-35.65 11.22-45.55 3.3-5.28 7.25-7.92 11.2-7.25 5.3 2.63 7.26 9.9 5.3 22.43-1.34 12.53-5.95 26.4-13.2 40.9z"/><path fill="#D96038" d="M278.08 453.08c25.74 5.27 40.92 2.64 44.22-6.6 3.96-9.9-7.92-14.52-34.32-16.5-27.05-.66-41.57 1.32-44.2 6.6-3.3 5.94 7.9 11.88 34.3 16.5z"/><path d="M241.13 435.92c0 1.32 0 3.3.66 4.62 3.3 4.6 11.87 8.58 25.72 12.54 15.18 3.96 27.72 5.27 38.94 3.96 9.9-.66 15.84-3.96 17.82-9.9l1.32-3.96c0-3.96-2.64-7.26-8.58-9.9-9.24-3.96-23.1-5.94-42.9-5.28-19.8.66-30.35 3.3-33 7.92zm17.16 9.9c-7.93-3.3-11.9-5.94-12.55-7.92 1.98-2.64 11.22-4.6 28.37-5.28 18.48-.66 32.34.66 40.92 5.28 5.28 1.98 7.26 4.62 5.28 7.92-2.64 6.6-13.2 9.23-32.34 6.6l-29.7-6.6z"/><path fill="#D96038" d="M243.77 437.24c-6.6-1.32-5.94 14.52 1.32 46.2 7.9 31 16.5 45.53 28.36 44.2 11.22-1.97 11.22-16.5-.66-46.2-12.53-29.02-21.77-42.88-29.03-44.2z"/><path d="M240.47 437.24c-3.3 5.28-3.3 16.5 0 35.64 3.96 19.13 8.58 34.97 15.84 45.53 5.3 8.6 11.23 12.54 17.82 11.23 6.6-.66 9.9-5.3 9.9-13.86v-.66c0-11.87-5.94-28.36-16.5-48.82-9.9-20.46-17.8-30.36-23.1-31.02-1.97-.66-3.3.66-3.95 1.98zm15.18 70.6c-5.28-11.86-9.24-25.72-11.22-42.22-2.64-15.84-2.64-24.42 0-26.4 3.3.66 9.9 10.56 19.8 29.7 9.9 19.8 15.17 35.63 15.17 46.85 0 5.94-1.98 9.24-5.94 9.9-5.94.66-12.53-5.28-17.8-17.82z"/><path fill="#FFE000" d="M248.4 548.77c10.55 3.3 13.85-14.53 9.9-52.14-3.3-37.6-7.93-57.4-14.53-59.4-5.94-1.97-9.24 15.2-9.9 52.15-.66 36.95 3.96 56.75 14.52 59.4z"/><path d="M244.43 435.26l-3.96.66c-2.64 2.64-5.28 9.9-6.6 21.12-1.98 11.88-2.64 24.4-2.64 37.6 0 14.53.66 27.07 3.3 36.3 3.3 11.9 7.26 18.5 13.2 19.8 5.28 2 9.24-1.3 11.88-8.57 3.96-11.88 3.3-32.34-.65-60.72-3.96-29.03-8.58-44.2-14.52-46.2zm-7.26 34.32c1.32-18.48 3.96-29.04 6.6-30.36 3.3 2.64 7.26 17.16 10.56 44.22 4.62 29.04 4.62 48.17 0 58.73-.66 3.3-3.3 4.6-5.94 4.6-4.63-1.3-8.6-9.23-10.57-24.4-2.64-15.84-2.64-33-.66-52.8z"/><path fill="#FFE000" d="M212.75 539.53c9.9 3.3 18.48-11.9 27.06-45.54 7.93-33.66 9.25-51.48 4.63-56.1-5.28-4.6-14.52 11.22-27.06 46.2-13.2 34.97-14.52 53.44-4.62 55.43z"/><path d="M243.77 435.26l-2.64.66c-5.94 3.3-13.2 15.83-22.44 37.62-9.9 22.44-13.87 40.9-13.87 54.1v3.3c.66 6.6 3.3 9.9 7.26 11.23 6.6 1.97 12.53-2.64 18.47-13.2 6.6-13.2 11.22-30.36 15.18-53.45 3.96-23.1 3.96-36.3-.66-39.6l-1.33-.66zm-19.8 38.28c9.24-21.12 15.84-33 19.14-33.66 2 2.64 1.33 15.17-1.97 36.96-3.96 23.1-9.9 40.9-16.5 52.13-3.96 6.6-7.26 9.9-11.22 8.57-2.63-.65-4.6-4.6-4.6-11.2.65-12.55 5.93-30.36 15.17-52.8z"/><path fill="#FFE000" d="M163.26 509.18c1.98 7.25 17.16-.67 43.55-25.1 26.4-24.4 38.3-38.92 36.97-44.86-1.98-5.94-15.84 2.64-43.56 24.42-27.7 22.44-39.58 37.6-36.94 45.54z"/><path d="M211.43 452.42c-15.83 11.22-28.37 23.1-38.93 33.66-7.92 9.23-11.88 16.5-11.88 21.1l.66 2.65c1.32 3.3 4.62 4.62 9.9 3.3 9.9-3.3 25.08-15.18 46.2-34.98 20.45-21.1 30.35-34.3 29.03-39.6l-3.3-2.63c-5.27-1.32-15.17 3.96-31.67 16.5zm5.94 1.32c13.86-9.9 21.78-14.52 24.42-13.86.65 3.96-9.25 15.84-29.05 35.64-20.45 19.8-34.97 31-44.2 33.65l-3.3-.66c-1.33-3.95 3.3-11.87 14.5-23.1 10.56-10.55 23.1-21.76 37.62-31.66z"/><path fill="#FFE000" d="M295.24 427.34c31.02-13.2 44.87-24.4 40.9-34.98-4.6-10.55-20.44-7.25-48.82 9.9-27.7 16.5-41.57 28.38-40.25 34.98.66 6.6 17.16 3.3 48.17-9.9z"/><path d="M244.43 437.9c0 1.32.66 2.64 3.3 3.96 6.6 1.32 19.8-1.32 40.25-9.24 21.78-7.92 36.3-16.5 44.88-25.73 3.96-3.3 5.94-7.27 5.94-11.24l-1.32-4.6c-1.98-6.6-8.58-7.93-20.46-5.3-12.54 3.3-27.72 11.23-46.2 24.43-18.47 13.2-27.05 22.42-26.4 27.7zm75.9-48.17c7.25-1.98 11.87-.67 13.2 3.3 1.96 4.62-1.34 9.9-10.57 17.16-11.22 7.9-25.74 15.16-44.22 21.1-17.82 5.28-27.7 7.92-30.35 5.28 0-3.3 9.23-11.22 26.38-23.76 18.48-13.2 33.66-20.46 45.54-23.1z"/><path fill="#D96038" d="M231.9 516.43c9.9 3.96 16.5-7.25 19.8-32.34 3.95-25.08 2.63-39.6-2.65-43.56-5.28-3.3-11.88 7.9-19.8 33-7.92 25.74-6.6 39.6 2.64 42.9z"/><path d="M256.3 468.92c.67-17.17-1.97-27.06-5.93-29.7h-5.28c-4.63 3.3-9.9 11.22-14.53 24.42-5.94 14.5-8.58 26.4-8.58 36.3v4.6c1.3 7.93 4.6 12.55 9.23 14.53 6.6 1.98 11.88-1.32 16.5-9.9 4.62-9.9 7.26-23.1 8.58-40.25zm-18.47-11.22c4.62-9.24 7.92-14.52 9.9-15.18 3.3 1.98 3.96 10.56 3.3 26.4-.66 16.5-3.3 29.7-7.26 38.27-3.3 5.93-6.6 8.57-10.56 7.25-5.93-1.98-7.9-10.56-5.27-25.07 1.98-10.57 5.28-20.46 9.9-31.68z"/><path fill="#FFE000" d="M192.96 515.77c7.9 9.9 18.47 1.32 33-27.06 14.5-27.7 19.8-44.86 15.17-50.14-3.3-5.94-14.52 3.96-32.34 27.06-17.83 23.76-23.76 40.25-15.84 50.15z"/><path d="M234.53 475.52c9.24-21.12 12.54-33.66 9.24-38.28-1.98-1.32-3.3-1.98-5.28-1.32-4.63 0-13.2 6.6-23.1 17.82-10.57 12.54-18.5 24.4-23.77 34.97-2.64 7.28-3.96 13.2-3.96 17.18 0 4.6 1.32 8.57 3.96 11.87 3.96 5.28 9.9 5.28 15.84.66 9.24-6.6 17.82-20.45 27.06-42.88zm-29.04-1.98c6.6-9.9 13.85-17.82 21.77-24.42 6.6-6.6 10.56-9.9 12.54-9.24 2 3.3-1.3 15.17-9.23 34.97-9.24 21.13-18.48 34.32-26.4 40.26l-9.23-.65c-3.3-3.3-3.3-9.24-1.32-15.84 1.98-7.25 5.94-15.82 11.87-25.06z"/><path fill="#FFE000" d="M259.6 445.15c2-2.63 2.65-5.27 2-8.57 0-2.64-1.34-4.62-4.64-6.6L246.42 428c-3.3.66-6.6 2-9.23 4.62-2.64 3.3-3.3 5.94-2.64 8.58 0 2.64 1.98 5.28 5.28 7.25l9.9 1.33c3.97-.66 7.27-1.98 9.9-4.63z"/><path d="M264.23 436.58c0-3.96-2.64-6.6-5.94-8.58-3.97-1.98-7.93-2.64-11.9-1.98-5.27.67-9.23 3.3-11.87 6.6-2.64 2.64-3.3 5.94-2.64 9.24.65 3.3 2.63 5.28 5.27 7.26 3.96 3.3 8.58 3.96 13.2 3.3 3.96-.67 7.26-3.3 10.56-5.94 3.3-3.3 3.96-6.6 3.3-9.9zm-27.72 3.96c0-1.32.67-3.96 1.33-5.28 1.98-2.64 5.28-4.62 9.24-5.27l7.92 1.96c2.63.66 4.6 3.3 5.26 5.28v1.32l-3.3 5.28c-2.63 1.98-4.6 3.3-7.26 3.96-4.6.65-7.9-.66-9.9-1.98-1.97-1.32-2.63-3.3-3.3-5.28z"/><path fill="#9260C7" d="M276.76 253.12c7.92-54.77 11.22-102.94 8.58-143.86l-115.48-6.6c1.32 40.92-3.96 89.1-13.86 143.2C134.88 354.1 95.3 439.23 37.22 501.92l130 11.23c56.1-64 92.4-151.12 109.54-260z"/><path d="M279.4 255.77c8.58-55.44 11.22-103.6 9.24-146.5-.66-2.64-1.32-3.3-3.3-3.3l-114.82-6.6-2.64.66c-.66.66-1.32 1.3-1.32 2.63 1.32 42.23-3.96 90.4-14.52 143.86C130.92 354.1 92 438.56 34.58 499.28c-.66 1.3-.66 1.97-.66 3.95l2.64 1.98 130.66 11.23 2.64-.66c55.43-64.67 91.73-151.12 109.54-260zm2.65-143.2l.65 20.45c0 56.75-5.94 111.52-18.47 166.3-19.8 87.1-52.8 156.4-98.33 210.5L43.82 499.3c52.8-58.74 89.75-136.6 111.52-234.94 11.88-54.77 17.82-107.56 17.82-157.05v-1.34l108.9 6.6z"/><path stroke-miterlimit="100" d="M364.58 579.58H7.42V7.42h357.16v572.16z" fill="none" stroke="#000" stroke-width="14.84"/></svg>