<svg xmlns="http://www.w3.org/2000/svg" width="372" height="587" viewBox="0 0 372 587"><path fill="#fff" d="M0 0h372v587H0z"/><path fill="#858585" d="M150.42 624.7c21.23-76.7 24.78-142.17 11.8-197.62-3.54-17.1-9.44-32.45-16.52-44.84l-8.85-14.15c-15.93 4.7-33.04 17.65-52.5 38.3-38.94 40.7-69.02 99.7-89.67 175.8l155.74 42.47z"/><path d="M138.62 365.72c-.6-.6-1.77-1.17-2.95-.6-16.52 5.9-35.4 18.9-54.27 39.54-38.94 41.3-69.02 100.3-89.67 176.98-.6 1.77.6 2.95 1.77 3.53 2.36.6 2.95 0 4.13-1.76 19.47-70.8 46-126.2 81.4-166.32 19.48-23 38.94-38.35 56.64-46.02 6.5 8.85 12.38 20.65 17.7 35.4 8.85 25.96 12.98 55.45 12.98 89.07 0 38.95-5.9 82-18.88 128.03v1.18c0 1.2 1.18 2.37 2.36 2.96 1.77.6 3.54-.6 3.54-1.78 20.64-77.3 24.77-142.77 12.38-198.23-3.54-17.1-9.43-33.05-16.5-46-3.55-7.7-7.1-13-10.63-15.96z"/><path fill="#FFE700" d="M129.77 391.68l11.8-15.33c5.9-10.63 5.3-17.1-1.77-19.48-7.67-1.77-11.8 3.55-11.8 15.93 0 6.5.6 12.98 1.77 18.88z"/><path d="M147.47 361.6c-.6-2.95-2.95-5.32-7.67-6.5a10.3 10.3 0 0 0-10.03 1.77c-4.72 5.32-5.9 17.12-1.77 35.4l1.77 2.36 2.36-1.18c12.4-13.57 17.7-24.78 15.34-31.85zm-14.16-1.18l5.35-1.18 4.13 3.53.6 1.78c0 4.7-3.55 12.38-11.8 21.82l-1.2-12.98c0-7.1.6-11.2 2.96-13z"/><path d="M130.95 389.32c-1.77 0-2.95 0-2.95 1.77A3466.4 3466.4 0 0 0 60.16 615.8c-.6 1.77 0 2.36 1.18 2.95L64.3 617a5276.87 5276.87 0 0 1 53.66-179.93 6205.42 6205.42 0 0 1-44.83 181.1v.6c0 1.17.6 2.35 1.77 2.35 1.78 0 2.37 0 2.96-1.77 22.4-83.78 40.7-159.3 54.86-227.13 0-1.18-.6-2.36-1.77-2.95z"/><path d="M110.3 380.47c-1.76 0-2.36 1.18-2.36 2.36l2.37 10.62a71.84 71.84 0 0 0 10.07 23c.58 1.78 1.76 1.78 2.94 1.2 1.77-1.2 1.77-1.78.6-2.96-3.54-7.7-7.1-14.8-8.86-22.46l-2.36-9.44c0-1.76-.6-2.35-2.35-2.35zm-16.5 14.16c-1.8 0-2.37.6-2.37 2.36a289.06 289.06 0 0 0 5.9 18.25c4.13 12.98 8.26 23.6 12.98 31.27l3.57.6c1.18 0 1.77-1.8 1.18-2.96-4.7-7.7-9.43-17.7-13.56-30.7l-5.33-17.7c-.58-1.17-1.18-1.76-2.35-1.17zm-18.3 18.3c-1.77.6-2.36 1.76-1.77 2.94l5.9 18.3c5.9 14.14 13.57 27.72 21.83 40.7l4.13.58c.54-.6 1.13-1.77.54-3.54-8.84-11.8-15.92-25.32-21.82-39.5l-6.5-17.1c0-1.76-1.17-2.35-2.35-2.35zm-17.7 23c-1.77 0-1.77 1.18-1.77 2.95l11.2 25.95c8.27 17.7 17.12 32.45 24.78 43.07h3.6c1.17-.6 1.17-1.77 0-2.95-7.68-10.62-15.94-24.2-24.8-43.07L60.75 437.1c-.6-1.18-1.77-1.76-2.95-1.18zm-5.9 51.9c8.85 19.47 18.88 37.17 30.68 51.9l2.95.6c1.18-1.17 1.18-2.35.6-3.53-11.22-14.75-21.25-31.85-30.1-51.32L45.4 460.7c0-1.18-1.76-1.76-2.94-1.18-1.76.6-1.76 1.2-1.76 2.95l11.2 25.37zm21.83 82.6l2.95.6c1.18-.6 1.77-1.2.6-2.96C67.82 554.5 57.2 536.8 46 515.57l-14.15-28.9c-1.18-1.2-1.77-1.78-3.54-1.2-1.14.6-2.32 1.78-1.14 2.96l14.16 29.5c11.8 21.82 22.4 39.52 32.44 52.5zm-7.67 27.72l2.95.6c1.8-.6 1.8-2.36.6-3.54-12.4-14.7-24.2-33.6-34.8-56l-13.54-30.1c0-1.2-1.18-1.8-2.95-1.2-1.2.6-1.77 1.78-1.2 2.96l13 30.08c11.2 23 23 42.48 36 57.22z"/><path d="M149.83 392.27c-5.9 8.26-14.75 15.34-25.96 21.83-1.77 1.18-1.77 1.77-1.18 3.54 1.14 1.18 1.73 1.18 3.5.6 11.8-6.5 21.24-14.76 27.14-23.02 1.18-1.17 1.18-2.36-.6-2.95h-2.94zm7.07 20.06c-14.15 14.75-27.13 25.96-40.1 32.44-1.78.6-1.78 1.78-.6 3.54 0 1.2 1.77 1.8 2.95.6 12.98-6.5 26.55-18.3 41.3-33 1.18-1.2 1.18-2.96 0-3.54h-3.54zm6.5 25.97c-13.57 12.96-31.27 24.76-53.1 35.38-1.18.6-1.77 1.18-1.18 2.95 1.18 1.18 1.77 1.77 2.95 1.18 23-11.2 40.7-23 54.28-36.53 1.77-.6 1.77-1.78 0-2.95h-2.95zm3.54 27.7c-23.6 19.48-44.84 32.45-64.3 40.72-1.78.58-2.37 1.77-1.18 3.53.58 1.2 1.77 1.78 2.95.6 19.5-7.67 41.3-21.25 65.5-41.3 1.2-.6 1.2-1.77.6-2.95-1.2-1.18-2.35-1.77-3.53-.6zm1.18 28.33l-21.24 15.92c-17.7 12.4-34.8 22.42-52.5 28.9-1.77.6-1.77 1.78-1.2 3.55 1.2 1.18 1.78 1.18 2.97.6 17.1-6.5 34.8-16.53 53.1-28.92l21.82-16.52c1.18-.58 1.18-2.36 0-3.53-.6-1.18-1.77-1.18-2.95 0zm-1.18 29.5c-28.9 20.05-56.05 35.98-80.23 46.6-1.73.6-2.32 1.77-1.14 2.95.6 1.76 1.18 2.36 2.95 1.76 24.77-11.2 51.3-26.54 80.8-47.78 1.8-.58 1.8-1.76 1.2-3.53-1.2-1.18-2.36-1.18-3.54 0zm-2.36 24.77l-25.96 18.88c-21.23 14.15-41.3 23.6-59 30.67-1.76 0-2.35 1.18-1.17 2.95 0 1.18 1.18 1.77 2.95 1.18 18.3-6.5 38.34-17.1 59.58-31.26l26.55-19.47c1.17-.6 1.17-1.77 0-2.95h-2.95z"/><path fill="#858585" d="M323.86 250.1c-9.44-16.5-19.48-31.26-30.68-42.47l-13.57-12.4c-14.12 9.45-28.9 28.33-43.6 54.87-28.9 54.28-43.67 123.88-43.67 210l-46.6-2.35v38.94c1.78 33 8.86 69 21.84 106.14h199.4V460.1c0-86.12-14.17-155.73-43.07-210z"/><path d="M327.4 250.1c-9.44-17.1-19.47-31.26-30.68-43.06l-15.34-14.16a3.77 3.77 0 0 0-3.54 0c-15.34 11.2-30.67 29.5-44.83 56.63-28.9 53.1-43.62 122.15-43.62 207.1l-18.28-2.36-25.38.6c-1.17 0-2.35 1.2-2.94 2.36v40.7c1.77 33.03 9.44 68.43 22.42 106.2a2.54 2.54 0 0 0 2.36 2.35h199.4l2.34-1.2 1.2-2.35V460.1c0-86.12-14.76-156.32-43.08-210zM233 262.5c14.17-28.9 29.5-49.56 46.6-63.72 17.12 14.16 33.04 34.8 46.6 63.7 25.38 52.5 37.77 118 37.77 197.63v139.85h-194.1c-14.74-43.65-22.4-83.77-22.4-120.34 0-6.5.58-13 1.18-19.47l43.06 2.96 2.4-1.2 1.18-1.76c0-79.63 12.4-145.1 37.76-197.6z"/><path fill="#FFE700" d="M271.94 202.9c1.77 7.1 4.72 13 7.67 19.47a78.5 78.5 0 0 0 7.7-19.46c2.96-12.94 1.2-19.43-7.66-19.43-8.25 0-10.6 6.5-7.66 19.47z"/><path d="M279.6 181.08c-4.7 0-7.66 1.77-9.43 5.3-2.35 4.14-2.35 11.22.6 21.25a65.33 65.33 0 0 0 7.07 15.93c0 1.18.6 1.18 1.77 1.18l1.8-1.18 7.1-15.93c3.53-10.03 3.53-17.1 1.17-21.24a11.58 11.58 0 0 0-10.03-5.35zm5.9 7.08l1.2 5.9c0 5.3-2.96 12.98-7.1 23-4.7-10.02-7.07-17.7-7.07-23l1.77-5.9c.6-1.18 2.95-1.77 5.3-1.77 2.96 0 4.73.55 5.9 1.73z"/><path fill="#FFE700" d="M143.93 466.6c5.3 4.13 11.8 7.08 18.3 9.44-1.78-7.08-3.55-13.57-7.1-19.47-6.48-11.8-12.38-14.74-18.87-9.43-6.5 5.9-3.54 12.38 7.67 19.46z"/><path d="M134.5 445.36a11.9 11.9 0 0 0-3.55 10.62c1.18 7.08 11.8 14.75 30.68 22.42l2.35-.6 1.18-2.35c-5.9-19.47-12.97-30.68-20.64-33.04-2.95-1.13-6.5 0-10.03 3zm9.43 1.78c2.95 1.17 5.9 4.12 8.85 10.02l5.9 14.75c-14.16-5.9-22.42-11.8-23-17.1v-.6c0-2.32.58-3.5 2.35-5.3 1.77-1.73 3.54-2.33 5.9-1.73z"/><path d="M281.97 222.37c0-1.77-1.18-1.77-2.36-1.77-1.73 0-2.32 0-2.32 1.77-5.3 79.05-7.67 168.13-7.67 266.65l1.18 74.33c-22.42-15.93-46.6-35.4-73.15-59l-33.6-29.5-2.96-.58c-.6.6-1.2 2.36-.6 3.54l31.26 37.2c26.56 29.5 55.47 55.47 86.14 77.3l1.18 1.17h1.18l1.18-1.18c31.28-21.83 60.2-47.8 86.73-77.28l30.67-37.16c.6-1.76.6-2.94 0-3.53l-3.55.6-33.63 29.5c-26.54 23.6-50.72 43.06-72.55 59l.6-74.34c0-98.53-2.96-187.6-7.68-266.66zm-7.67 347.47l1.18-2.36-.6-78.46c0-70.2 1.78-143.35 4.73-220.04 3.58 76.7 4.76 149.84 4.76 220.04l-.6 78.46 1.78 2.36h1.78c24.8-17.7 54.87-41.3 89.68-71.97-29.5 34.8-61.94 64.3-96.75 90.25a542.42 542.42 0 0 1-97.33-90.25c32.43 28.9 61.93 53.1 89.06 71.97h2.36z"/><path d="M256.02 216.47c-1.78 0-1.78 1.18-1.78 2.95l5.32 10.03c4.13 7.67 10.03 14.75 17.1 21.83 1.18 1.18 2.36 1.18 3.54 0a3.7 3.7 0 0 0 0-3.54 137.9 137.9 0 0 1-17.1-20.65l-4.13-9.47c-.6-1.77-1.78-1.77-2.95-1.2zm-13.58 18.88c-1.77 1.18-2.35 1.77-1.17 3.54L251.9 256c8.24 12.4 15.9 22.42 23 29.5l3.53-.6c1.18-1.17 1.18-2.35-.6-2.94-6.48-7.08-14.74-16.52-22.4-28.9l-10.04-16.53c-.6-1.18-1.8-1.76-3-1.18zm-11.2 26.55c-.6-1.77-1.18-2.36-2.95-1.18-1.2 1.18-1.2 1.77-.6 3.54l11.8 16.52a255.7 255.7 0 0 0 34.8 36.57l2.92-.6c.6-1.17.6-1.76 0-3.53-12.4-10.6-23.6-22.4-34.2-35.4l-11.8-15.92zm6.48 50.73l-18.28-23-2.95-.6c-1.2 1.2-1.2 2.37-.6 3.55l18.3 23c14.1 17.1 27.1 30.1 38.3 38.94 1.77 1.18 2.95.6 3.54-.6 1.18-.58 1.18-2.35-.6-3.53-11.2-8.3-24.18-20.7-37.75-37.8zm-30.67 5.3c-.6 1.2-1.18 2.37 0 3.55l17.7 23.6c15.34 17.7 31.27 33.03 47.2 45.42l2.94-.6c1.14-1.17 1.14-1.76 0-3.53-15.96-11.8-31.3-26.55-46.6-44.25l-17.7-23.6-3.58-.58zm-7.08 31.87c-1.18.6-1.18 1.77 0 2.95l23 26.55c18.3 19.46 34.22 34.8 48.38 46h3.54c.55-1.17.55-2.35-.6-3.53-14.2-11.8-30.1-27.14-47.8-46.02l-23-25.95h-3.56zm-4.13 25.95c-1.18 1.2-1.18 1.77-.6 3.55l22.43 27.13c18.3 20.65 35.98 37.76 53.68 49.56h2.95c.6-1.8.6-3-.6-3.58-17.1-12.4-34.2-28.32-52.5-48.97l-21.82-27.13c-1.18-1.78-2.36-1.78-3.54-.6zm-2.94 28.9c-1.2.6-1.2 1.78-.6 2.96l25.37 31.3c18.88 21.24 36.57 36.58 53.68 46.6 1.18.6 2.36 0 2.95-1.17.6-1.17.6-2.35-.6-3.54-16.5-8.85-34.2-24.78-53.08-46l-24.78-29.5c-.6-1.78-1.18-1.78-2.95-.6zm-1.77 34.23c-1.78.58-1.78 2.36-.6 2.95l22.42 28.9c19.47 20.65 38.34 36.57 58.4 47.2 1.18 1.17 2.95 1.17 3.54-.6 0-1.18 0-2.35-1.2-3.53-19.5-10.62-38.36-26.55-57.2-46.6l-21.87-27.74c-.6-1.17-2.36-1.77-3.53-.58z"/><path d="M304.98 219.42c0-1.76 0-2.95-1.18-2.95h-2.36l-.6 1.2c-4.12 10.02-11.2 20.04-21.23 30.07-1.14.6-1.14 2.36 0 3.54 1.2 1.18 1.8 1.18 3 0 10.6-10.6 18.87-21.24 22.4-31.86zm12.98 19.48c1.17-1.78.6-2.37-1.18-3.55-1.18-.58-2.36 0-2.95 1.18-10.62 19.47-21.24 34.8-33.04 45.43-1.2.6-1.2 1.77 0 2.95l2.9.6c11.8-11.2 23.6-26.52 34.23-46.6zm10.02 23l-11.8 15.93a238.53 238.53 0 0 1-33.62 35.4c-1.77 1.76-1.77 2.35-.6 3.53l3.55.6c20.1-17.7 36-35.4 46.05-53.1 1.2-1.77 1.2-2.36-.6-3.54-1.16-1.18-2.94-.6-2.94 1.18zm-2.95 53.68l18.3-23c1.18-1.18 1.18-2.36-.6-3.55l-2.95.6c-19.47 26.54-38.34 47.2-56.04 60.76-1.18 1.14-1.18 2.9-.6 3.5l3.55.6c11.2-8.86 23.55-21.84 38.3-38.95zm23.6 2.95l-17.7 23.6c-15.33 17.7-30.67 32.44-46.6 44.24-1.18 1.77-1.18 2.36-.6 3.54 1.2 1.8 2.37 1.8 3.55.6 16.52-12.4 31.86-27.7 47.2-45.4l17.7-23.6c1.17-1.17 1.17-2.35-.6-3.53-1.18-.6-2.36-.6-2.95.6zm11.2 34.22c.6-1.18.6-2.36-.6-2.95h-3.52c-24.74 30.08-48.34 53.68-70.75 71.97-1.18 1.18-1.18 2.36-.6 3.54h3.55c22.4-18.25 46.6-42.44 71.96-72.52zm-74.33 99.7c-1.76.6-1.76 1.76-.58 3.54h3.54c17.1-11.8 35.4-28.95 53.1-49.6l21.82-27.14c1.18-1.78 1.18-2.37 0-3.55l-3.54.6L338 403.5c-18.27 20.65-35.38 36.58-52.5 48.96zm.6 28.3c-1.77 1.2-2.36 2.37-1.18 3.55.6 1.18 1.77 1.77 3.54 1.18 16.52-10.03 34.22-25.37 53.68-46.6l24.78-31.27c1.18-1.14.6-2.32-.6-2.9-1.17-1.2-2.35-1.2-2.94.6l-24.2 29.5c-19.45 21.22-37.15 37.14-53.08 46zm-.6 33.05c-1.17 1.18-1.76 2.35-1.17 3.53 1.18 1.77 2.36 1.77 3.54.6 19.46-10.63 39.52-26.55 57.8-47.2l23.02-28.9c.55-.6.55-2.37-.6-2.96-1.8-1.18-2.4-.58-2.98.6L342.7 467.2c-18.86 20.03-37.74 35.96-57.2 46.6zM181.1 456c-1.2 0-1.77 1.16-1.77 2.93l.58 35.4c0 1.77 1.2 2.95 3 2.95 1.2 0 2.36-1.18 2.36-2.95l-1.2-36.58c-.58-1.18-1.17-1.76-2.94-1.76zm26.54 2.94c-1.18 0-1.77 1.17-1.77 2.35l1.18 19.43c0 14.75 0 26.54-1.18 36 0 1.76 1.18 2.34 2.36 2.34 1.77.6 2.36 0 2.36-1.78 1.14-10.04 1.14-21.84 1.14-36.6l-1.18-20.04c-.6-1.2-1.2-1.77-2.96-1.77zm27.14 27.72l-2.36-2.96c-1.18 0-1.77.6-1.77 1.2l-.6 1.76-1.76 48.96c0 1.18.55 2.36 2.32 2.36l2.94-1.77 1.18-49.5zm18.28 64.9V501.4c0-1.17-1.18-2.35-2.36-2.35-1.77 0-2.36 1.18-2.36 2.95v48.96c0 1.18 0 2.36 1.78 2.36 1.77 0 2.94-.6 2.94-1.77z"/><path d="M178.15 498.45c1.76 0 2.35-.58 2.35-2.35 0-1.18-.6-1.77-2.35-1.77l-32.45-2.95c-1.77 0-2.95 0-2.95 1.77v1.77l1.77.6 10.03 1.76 23.6 1.17zm22.4 20.65l-53.1-2.95c-1.75 0-2.34.6-2.34 1.78-.55 1.77.6 2.95 2.4 2.95l53.1 2.95c1.17 0 2.35-.6 2.35-1.78 0-1.77-1.18-2.95-2.36-2.95zm20.65 25.37l2.96-1.77c0-1.77-1.18-2.95-2.36-2.95l-70.2-1.18c1.18 0 1.77 1.18 1.77 2.36 0 1.77-.6 2.36-1.77 2.36l69.6 1.14zm-67.24 20.65c0 1.17.6 2.35 2.36 2.35l33.03 1.78c24.2.6 44.24.6 58.4-1.18 1.2 0 2.37-.6 2.37-2.36 0-1.73-1.18-2.32-2.95-2.32-14.16 1.18-33.63 1.77-57.82.6l-33.03-1.2c-1.77 0-2.36.6-2.36 2.37zm153.37-64.3l-1.17 20.06c-1.18 13.56-1.18 24.77-.6 31.26 0 1.77 1.2 2.36 2.37 2.36 1.77 0 2.35-1.18 2.35-2.95-.58-6.5-.58-17.1 0-30.67l1.78-19.48c0-1.77-.6-2.95-1.78-2.95-2.35 0-2.94.6-2.94 2.37zm23.6 34.8l-1.17-49.55c0-1.77-1.18-2.36-2.36-2.36-1.77 0-2.36.6-2.36 1.8l.6 50.74 2.94 1.78c1.76 0 2.35-1.17 2.35-2.35zm15.34-71.97l-.6 56.05c0 1.18 1.2 2.35 2.96 2.35 1.18 0 2.36-1.17 2.36-2.95l.55-55.45c0-1.77-1.18-2.36-2.95-2.36-1.17 0-2.35.55-2.35 2.32zm-.6 67.85c-.6 1.17 0 2.35 1.2 2.94l19.46 11.2c1.18.6 2.36 0 2.95-1.76.6-1.18 0-2.36-.6-2.95l-19.46-10.03c-1.18-1.17-2.95-1.17-3.54.6zm-17.7 17.7c-.6 1.17-.6 2.35.6 2.94l11.8 5.9a185.6 185.6 0 0 0 26.55 7.67l2.35-1.73c.6-1.77 0-2.95-1.76-2.95-7.63-1.2-15.9-3.54-25.33-7.67l-11.2-4.72c-1.18-1.17-2.37-1.17-2.96.6zm-19.45 17.1c-1.18 1.18-.6 1.77 1.18 2.95l15.33 7.67c12.98 5.3 26.55 9.44 41.3 13.57 1.77 0 2.95 0 2.95-1.2.6-1.8 0-2.98-1.18-2.98-14.75-4.13-28.32-8.26-41.3-14.16l-15.33-7.08c-1.2-1.2-1.77-.6-2.95 1.16z"/><path stroke-miterlimit="100" d="M367 582H5V5h362v577z" fill="none" stroke="#000" stroke-width="10"/></svg>