<svg xmlns="http://www.w3.org/2000/svg" width="372" height="587" viewBox="0 0 372 587"><path fill="#fffaf0" d="M0 0h372v587H0z"/><path fill="#858585" d="M150.42 624.7c21.23-76.7 24.78-142.17 11.8-197.62-3.54-17.1-9.44-32.45-16.52-44.84l-8.85-14.15c-15.93 4.7-33.04 17.68-52.5 38.33-38.94 40.7-69.02 99.7-89.67 175.8l155.74 42.47z"/><path d="M138.62 365.72c-.6-.6-1.77-1.17-2.95-.6-16.52 5.9-35.4 18.9-54.27 39.54-38.94 41.3-69.02 100.3-89.67 176.98-.6 1.77.6 2.95 1.77 3.53 2.36.6 2.95 0 4.13-1.76 19.47-70.8 46-126.24 81.4-166.35 19.48-23 38.94-38.35 56.64-46.02 6.5 8.85 12.38 20.65 17.7 35.4 8.85 25.96 12.98 55.45 12.98 89.07 0 38.94-5.9 82-18.88 128.02v1.18c0 1.18 1.18 2.36 2.36 2.95 1.77.6 3.54-.6 3.54-1.77 20.64-77.28 24.77-142.76 12.38-198.22-3.54-17.1-9.43-33.03-16.5-46-3.55-7.68-7.1-13-10.63-15.94z"/><path fill="#FFE700" d="M129.77 391.68l11.8-15.33c5.9-10.63 5.3-17.1-1.77-19.48-7.67-1.77-11.8 3.55-11.8 15.93 0 6.5.6 12.98 1.77 18.88z"/><path d="M147.47 361.6c-.6-2.95-2.95-5.32-7.67-6.5-3.54-1.18-7.08-.58-10.03 1.77-4.72 5.32-5.9 17.12-1.77 35.4l1.77 2.36 2.36-1.18c12.4-13.57 17.7-24.78 15.34-31.85zm-14.16-1.18l5.32-1.18 4.13 3.53.6 1.78c0 4.7-3.55 12.38-11.8 21.82l-1.2-12.98c0-7.08.6-11.2 2.96-12.98z"/><path d="M130.95 389.32c-1.77 0-2.95 0-2.95 1.77-22.4 66.06-45.42 140.4-67.84 224.75-.6 1.77 0 2.36 1.18 2.95l2.95-1.77C79.62 562.17 97.32 502 117.96 437.1c-13.56 58.4-28.3 118.57-44.83 181.1v.6c0 1.18.6 2.36 1.77 2.36 1.78 0 2.37 0 2.96-1.77 22.4-83.78 40.7-159.3 54.86-227.13 0-1.18-.6-2.36-1.77-2.95z"/><path d="M110.3 380.47c-1.76 0-2.36 1.18-2.36 2.36l2.37 10.62c1.78 7.67 5.3 15.93 10.04 23 .58 1.78 1.76 1.78 2.94 1.2 1.77-1.2 1.77-1.78.6-2.96-3.54-7.68-7.1-14.76-8.86-22.43l-2.36-9.44c0-1.77-.6-2.36-2.35-2.36zM93.8 394.63c-1.8 0-2.37.6-2.37 2.36 1.18 4.12 2.95 10.02 5.9 18.28 4.13 12.98 8.26 23.6 12.98 31.27l3.54.6c1.18 0 1.77-1.8 1.18-2.96-4.7-7.7-9.43-17.7-13.56-30.7l-5.32-17.7c-.58-1.17-1.18-1.76-2.35-1.17zM75.5 412.92c-1.77.6-2.36 1.77-1.77 2.95l5.9 18.3c5.9 14.14 13.57 27.72 21.83 40.7l4.13.58c.57-.6 1.16-1.77.57-3.54-8.84-11.8-15.92-25.35-21.82-39.5l-6.5-17.12c0-1.77-1.17-2.36-2.35-2.36zM57.8 435.93c-1.77 0-1.77 1.18-1.77 2.95l11.2 25.95c8.27 17.7 17.12 32.45 24.78 43.07h3.56c1.18-.6 1.18-1.77 0-2.95-7.67-10.62-15.93-24.2-24.78-43.07L60.75 437.1c-.6-1.18-1.77-1.76-2.95-1.18zM51.9 487.84c8.85 19.46 18.88 37.16 30.68 51.9l2.95.6c1.18-1.18 1.18-2.36.6-3.54-11.22-14.75-21.25-31.85-30.1-51.32L45.4 460.7c0-1.18-1.76-1.76-2.94-1.18-1.76.6-1.76 1.2-1.76 2.95l11.2 25.37zM73.73 570.43l2.95.6c1.18-.6 1.77-1.2.6-2.96C67.82 554.5 57.2 536.8 46 515.57l-14.15-28.9c-1.18-1.2-1.77-1.78-3.54-1.2-1.17.6-2.35 1.78-1.17 2.96l14.16 29.5c11.78 21.82 22.4 39.52 32.43 52.5zM66.06 598.15l2.95.6c1.78-.6 1.78-2.36.6-3.54-12.4-14.74-24.2-33.62-34.8-56.04l-13.57-30.08c0-1.18-1.18-1.78-2.95-1.18-1.18.6-1.77 1.77-1.18 2.95l12.97 30.08c11.2 23 23 42.48 36 57.22z"/><path d="M149.83 392.27c-5.9 8.26-14.75 15.34-25.96 21.83-1.77 1.18-1.77 1.77-1.18 3.54 1.17 1.18 1.76 1.18 3.53.6 11.8-6.5 21.24-14.76 27.14-23.02 1.18-1.17 1.18-2.36-.6-2.95h-2.94zM156.9 412.33c-14.15 14.75-27.13 25.96-40.1 32.44-1.78.6-1.78 1.78-.6 3.54 0 1.2 1.77 1.8 2.95.6 12.98-6.5 26.55-18.3 41.3-33.03 1.18-1.18 1.18-2.96 0-3.54h-3.54zM163.4 438.3c-13.57 12.96-31.27 24.76-53.1 35.38-1.18.6-1.77 1.18-1.18 2.95 1.18 1.18 1.77 1.77 2.95 1.18 23-11.2 40.7-23 54.28-36.56 1.77-.6 1.77-1.78 0-2.95h-2.95zM166.94 466c-23.6 19.48-44.84 32.45-64.3 40.72-1.78.58-2.37 1.77-1.18 3.53.58 1.2 1.77 1.78 2.95.6 19.47-7.67 41.3-21.25 65.48-41.3 1.18-.6 1.18-1.77.6-2.95-1.18-1.18-2.36-1.77-3.54-.6zM168.12 494.33l-21.24 15.92c-17.7 12.4-34.8 22.42-52.5 28.9-1.77.6-1.77 1.78-1.2 3.55 1.2 1.18 1.78 1.18 2.97.6 17.1-6.5 34.8-16.53 53.1-28.92l21.82-16.52c1.18-.58 1.18-2.36 0-3.53-.6-1.18-1.77-1.18-2.95 0zM166.94 523.83c-28.9 20.05-56.05 35.98-80.23 46.6-1.76.6-2.35 1.77-1.17 2.95.6 1.76 1.18 2.36 2.95 1.76 24.77-11.2 51.32-26.54 80.82-47.78 1.77-.58 1.77-1.76 1.18-3.53-1.18-1.18-2.36-1.18-3.54 0zM164.58 548.6l-25.96 18.88c-21.23 14.15-41.3 23.6-59 30.67-1.76 0-2.35 1.18-1.17 2.95 0 1.18 1.18 1.77 2.95 1.18 18.3-6.5 38.34-17.1 59.58-31.26l26.55-19.47c1.17-.6 1.17-1.77 0-2.95h-2.95z"/><path fill="#858585" d="M323.86 250.1c-9.44-16.5-19.48-31.26-30.68-42.47l-13.57-12.4c-14.15 9.45-28.9 28.33-43.64 54.87-28.9 54.28-43.66 123.88-43.66 210l-46.6-2.35v38.94c1.77 33.03 8.85 69 21.83 106.17h199.4V460.1c0-86.12-14.17-155.73-43.07-210z"/><path d="M327.4 250.1c-9.44-17.1-19.47-31.26-30.68-43.06l-15.34-14.16c-1.18-.6-2.36-.6-3.54 0-15.34 11.2-30.67 29.5-44.83 56.63-28.9 53.1-43.65 122.12-43.65 207.07l-18.28-2.36-25.37.6c-1.18 0-2.36 1.2-2.95 2.36v40.7c1.77 33.04 9.44 68.44 22.42 106.2 0 1.18 1.18 2.36 2.36 2.36h199.4l2.34-1.2 1.2-2.35V460.1c0-86.12-14.76-156.32-43.08-210zM233 262.5c14.17-28.9 29.5-49.56 46.6-63.72 17.12 14.16 33.04 34.8 46.6 63.7 25.38 52.5 37.77 118 37.77 197.63v139.82h-194.1c-14.74-43.65-22.4-83.77-22.4-120.34 0-6.5.58-12.98 1.18-19.47l43.06 2.96 2.37-1.18 1.18-1.77c0-79.63 12.4-145.1 37.76-197.6z"/><path fill="#FFE700" d="M271.94 202.9c1.77 7.1 4.72 13 7.67 19.47 3.55-6.48 5.9-12.38 7.68-19.46 2.95-12.97 1.18-19.46-7.67-19.46-8.25 0-10.6 6.5-7.66 19.47z"/><path d="M279.6 181.08c-4.7 0-7.66 1.77-9.43 5.3-2.35 4.14-2.35 11.22.6 21.25 1.76 5.9 4.12 11.2 7.07 15.93 0 1.18.6 1.18 1.77 1.18l1.78-1.18 7.08-15.93c3.54-10.03 3.54-17.1 1.18-21.24-2.36-3.55-5.9-5.32-10.03-5.32zm5.9 7.08l1.2 5.9c0 5.3-2.96 12.98-7.1 23-4.7-10.02-7.07-17.7-7.07-23l1.77-5.9c.6-1.18 2.95-1.77 5.3-1.77 2.96 0 4.73.58 5.9 1.76z"/><path fill="#FFE700" d="M143.93 466.6c5.3 4.13 11.8 7.08 18.3 9.44-1.78-7.08-3.55-13.57-7.1-19.47-6.48-11.8-12.38-14.74-18.87-9.43-6.5 5.9-3.54 12.38 7.67 19.46z"/><path d="M134.5 445.36c-2.96 2.95-4.14 6.5-3.55 10.62 1.18 7.08 11.8 14.75 30.68 22.42l2.35-.6 1.18-2.35c-5.9-19.47-12.97-30.68-20.64-33.04-2.95-1.16-6.5 0-10.03 2.96zm9.43 1.78c2.95 1.17 5.9 4.12 8.85 10.02l5.9 14.75c-14.16-5.9-22.42-11.8-23-17.1v-.6c0-2.35.58-3.53 2.35-5.3 1.77-1.76 3.54-2.36 5.9-1.76z"/><path d="M281.97 222.37c0-1.77-1.18-1.77-2.36-1.77-1.76 0-2.35 0-2.35 1.77-5.3 79.05-7.67 168.13-7.67 266.65l1.18 74.33c-22.42-15.93-46.6-35.4-73.15-59l-33.6-29.5-2.96-.58c-.6.6-1.2 2.36-.6 3.54L191.72 515c26.56 29.5 55.47 55.45 86.14 77.27l1.18 1.18h1.18l1.18-1.18c31.27-21.82 60.18-47.78 86.72-77.27l30.67-37.17c.6-1.76.6-2.94 0-3.53l-3.53.6-33.63 29.48c-26.54 23.6-50.72 43.07-72.55 59l.6-74.33c0-98.52-2.96-187.6-7.68-266.65zm-7.67 347.47l1.18-2.36-.6-78.46c0-70.2 1.78-143.35 4.73-220.04 3.55 76.7 4.73 149.84 4.73 220.04l-.6 78.46 1.78 2.36h1.78c24.78-17.7 54.86-41.3 89.67-71.97-29.5 34.8-61.94 64.3-96.75 90.25-35.98-25.95-68.43-56.04-97.33-90.25 32.44 28.9 61.94 53.1 89.07 71.97h2.36z"/><path d="M256.02 216.47c-1.78 0-1.78 1.18-1.78 2.95l5.32 10.03c4.13 7.67 10.03 14.75 17.1 21.83 1.18 1.18 2.36 1.18 3.54 0 .6-1.18.6-2.36 0-3.54-6.5-6.5-12.38-13.57-17.1-20.65l-4.13-9.44c-.6-1.77-1.78-1.77-2.95-1.2zM242.44 235.35c-1.77 1.18-2.35 1.77-1.17 3.54L251.9 256c8.24 12.4 15.9 22.42 23 29.5l3.53-.6c1.18-1.17 1.18-2.35-.6-2.94-6.48-7.08-14.74-16.52-22.4-28.9l-10.04-16.53c-.6-1.18-1.78-1.76-2.96-1.18zM231.24 261.9c-.6-1.77-1.18-2.36-2.95-1.18-1.2 1.18-1.2 1.77-.6 3.54l11.8 16.52c10.62 13.57 21.82 25.36 34.8 36.57l2.95-.6c.6-1.17.6-1.76 0-3.53-12.4-10.6-23.6-22.4-34.2-35.4l-11.8-15.92zM237.72 312.63l-18.28-23-2.95-.6c-1.2 1.2-1.2 2.37-.6 3.55l18.3 23c14.14 17.1 27.12 30.1 38.33 38.94 1.77 1.18 2.95.6 3.54-.6 1.18-.58 1.18-2.35-.6-3.53-11.2-8.27-24.18-20.66-37.75-37.77zM207.05 317.94c-.6 1.18-1.18 2.36 0 3.54l17.7 23.6c15.34 17.7 31.27 33.03 47.2 45.42l2.94-.6c1.17-1.17 1.17-1.76 0-3.53-15.93-11.8-31.27-26.55-46.6-44.25l-17.7-23.6-3.55-.58zM199.97 349.8c-1.18.6-1.18 1.77 0 2.95l23 26.55c18.3 19.46 34.22 34.8 48.38 46h3.54c.58-1.17.58-2.35-.6-3.53-14.16-11.8-30.08-27.14-47.78-46.02l-23-25.95h-3.55zM195.84 375.75c-1.18 1.2-1.18 1.77-.6 3.55l22.43 27.13c18.3 20.65 35.98 37.76 53.68 49.56h2.95c.6-1.8.6-2.96-.6-3.55-17.1-12.4-34.2-28.32-52.5-48.97l-21.82-27.13c-1.18-1.78-2.36-1.78-3.54-.6zM192.9 404.66c-1.2.6-1.2 1.77-.6 2.95l25.37 31.27c18.88 21.24 36.57 36.58 53.68 46.6 1.18.6 2.36 0 2.95-1.17.6-1.18.6-2.36-.6-3.55-16.5-8.84-34.2-24.77-53.08-46l-24.78-29.5c-.6-1.77-1.18-1.77-2.95-.6zM191.13 438.88c-1.78.58-1.78 2.36-.6 2.95l22.42 28.9c19.47 20.65 38.34 36.57 58.4 47.2 1.18 1.17 2.95 1.17 3.54-.6 0-1.18 0-2.35-1.2-3.53-19.46-10.62-38.33-26.55-57.2-46.6l-21.84-27.74c-.6-1.17-2.36-1.77-3.53-.58z"/><path d="M304.98 219.42c0-1.76 0-2.95-1.18-2.95h-2.36l-.6 1.2c-4.12 10.02-11.2 20.04-21.23 30.07-1.17.6-1.17 2.36 0 3.54 1.2 1.18 1.78 1.18 2.96 0 10.62-10.6 18.88-21.24 22.42-31.86zM317.96 238.9c1.17-1.78.6-2.37-1.18-3.55-1.18-.58-2.36 0-2.95 1.18-10.62 19.47-21.24 34.8-33.04 45.43-1.2.6-1.2 1.77 0 2.95l2.94.6c11.8-11.2 23.6-26.55 34.22-46.6zM327.98 261.9l-11.8 15.93c-10.02 12.98-21.23 24.78-33.62 35.4-1.77 1.76-1.77 2.35-.6 3.53l3.55.6c20.07-17.7 36-35.4 46.02-53.1 1.2-1.77 1.2-2.36-.6-3.54-1.16-1.18-2.94-.6-2.94 1.18zM325.03 315.58l18.3-23c1.18-1.18 1.18-2.36-.6-3.55l-2.95.6c-19.47 26.54-38.34 47.2-56.04 60.76-1.18 1.17-1.18 2.94-.6 3.52l3.55.6c11.2-8.85 23.58-21.83 38.33-38.94zM348.63 318.53l-17.7 23.6c-15.33 17.7-30.67 32.44-46.6 44.24-1.18 1.77-1.18 2.36-.6 3.54 1.2 1.78 2.37 1.78 3.55.6 16.52-12.4 31.86-27.73 47.2-45.43l17.7-23.6c1.17-1.17 1.17-2.35-.6-3.53-1.18-.6-2.36-.6-2.95.6zM359.84 352.75c.6-1.18.6-2.36-.6-2.95h-3.53c-24.77 30.08-48.37 53.68-70.78 71.97-1.18 1.18-1.18 2.36-.6 3.54h3.55c22.4-18.28 46.6-42.47 71.97-72.55zM285.5 452.44c-1.76.6-1.76 1.77-.58 3.55h3.54c17.1-11.8 35.4-28.92 53.1-49.57l21.82-27.14c1.18-1.78 1.18-2.37 0-3.55l-3.54.6L338 403.48c-18.27 20.65-35.38 36.58-52.5 48.96zM286.1 480.76c-1.77 1.18-2.36 2.36-1.18 3.54.6 1.18 1.77 1.77 3.54 1.18 16.52-10.03 34.22-25.37 53.68-46.6l24.78-31.27c1.18-1.17.6-2.35-.6-2.94-1.17-1.18-2.35-1.18-2.94.6l-24.2 29.5c-19.45 21.23-37.15 37.15-53.08 46zM285.5 513.8c-1.17 1.18-1.76 2.35-1.17 3.53 1.18 1.77 2.36 1.77 3.54.6 19.46-10.63 39.52-26.55 57.8-47.2l23.02-28.9c.58-.6.58-2.37-.6-2.96-1.77-1.18-2.36-.58-2.95.6l-22.42 27.72c-18.87 20.05-37.75 35.98-57.22 46.6zM181.1 456c-1.2 0-1.77 1.16-1.77 2.93l.58 35.4c0 1.77 1.2 2.95 2.96 2.95 1.2 0 2.37-1.18 2.37-2.95l-1.2-36.58c-.58-1.18-1.17-1.76-2.94-1.76zM207.64 458.94c-1.18 0-1.77 1.17-1.77 2.35l1.18 19.46c0 14.75 0 26.54-1.18 36 0 1.76 1.18 2.34 2.36 2.34 1.77.6 2.36 0 2.36-1.77 1.17-10.03 1.17-21.83 1.17-36.58l-1.18-20.05c-.6-1.18-1.2-1.76-2.96-1.76zM234.78 486.66l-2.36-2.96c-1.18 0-1.77.6-1.77 1.2l-.6 1.76-1.76 48.96c0 1.18.58 2.36 2.35 2.36l2.94-1.77 1.18-49.54zM253.06 551.55V501.4c0-1.17-1.18-2.35-2.36-2.35-1.77 0-2.36 1.18-2.36 2.95v48.96c0 1.18 0 2.36 1.78 2.36 1.77 0 2.94-.6 2.94-1.77z"/><path d="M178.15 498.45c1.76 0 2.35-.58 2.35-2.35 0-1.18-.6-1.77-2.35-1.77l-32.45-2.95c-1.77 0-2.95 0-2.95 1.77v1.77l1.77.6 10.03 1.76 23.6 1.17zM200.56 519.1l-53.1-2.95c-1.76 0-2.35.6-2.35 1.78-.58 1.77.6 2.95 2.37 2.95l53.1 2.95c1.17 0 2.35-.6 2.35-1.78 0-1.77-1.18-2.95-2.36-2.95zM221.2 544.47l2.96-1.77c0-1.77-1.18-2.95-2.36-2.95l-70.2-1.18c1.18 0 1.77 1.18 1.77 2.36 0 1.77-.6 2.36-1.77 2.36l69.6 1.17zM153.96 565.12c0 1.17.6 2.35 2.36 2.35l33.03 1.78c24.2.6 44.24.6 58.4-1.18 1.2 0 2.37-.6 2.37-2.36 0-1.76-1.18-2.35-2.95-2.35-14.16 1.18-33.63 1.77-57.82.6l-33.03-1.2c-1.77 0-2.36.6-2.36 2.37zM307.33 500.82l-1.17 20.06c-1.18 13.56-1.18 24.77-.6 31.26 0 1.77 1.2 2.36 2.37 2.36 1.77 0 2.35-1.18 2.35-2.95-.58-6.5-.58-17.1 0-30.67l1.78-19.48c0-1.77-.6-2.95-1.78-2.95-2.35 0-2.94.6-2.94 2.37zM330.93 535.62l-1.17-49.55c0-1.77-1.18-2.36-2.36-2.36-1.77 0-2.36.6-2.36 1.78l.6 50.73 2.94 1.78c1.76 0 2.35-1.18 2.35-2.36zM346.27 463.65l-.6 56.05c0 1.18 1.2 2.35 2.96 2.35 1.18 0 2.36-1.17 2.36-2.95l.58-55.45c0-1.77-1.18-2.36-2.95-2.36-1.18 0-2.36.58-2.36 2.35zM345.68 531.5c-.6 1.17 0 2.35 1.18 2.94l19.47 11.2c1.18.6 2.36 0 2.95-1.76.6-1.18 0-2.36-.6-2.95l-19.46-10.03c-1.18-1.17-2.95-1.17-3.54.6zM327.98 549.2c-.6 1.17-.6 2.35.6 2.94l11.8 5.9c9.43 3.54 18.28 5.9 26.54 7.67l2.35-1.76c.6-1.77 0-2.95-1.76-2.95-7.66-1.2-15.92-3.55-25.36-7.68l-11.2-4.72c-1.18-1.18-2.37-1.18-2.96.6zM308.52 566.3c-1.18 1.18-.6 1.77 1.18 2.95l15.33 7.67c12.98 5.3 26.55 9.44 41.3 13.57 1.77 0 2.95 0 2.95-1.2.6-1.76 0-2.95-1.18-2.95-14.75-4.13-28.32-8.26-41.3-14.16l-15.33-7.08c-1.2-1.18-1.77-.6-2.95 1.17z"/><path stroke-miterlimit="100" d="M364.58 579.58H7.42V7.42h357.16v572.16z" fill="none" stroke="#000" stroke-width="14.84"/></svg>