<svg xmlns="http://www.w3.org/2000/svg" width="372" height="587" viewBox="0 0 372 587"><path fill="#fffaf0" d="M0 0h372v587H0z"/><path fill="#858585" d="M167.56 286.46l-8.62 17.24c-5.3 15.26-9.3 33.83-11.28 53.06-6.63 63.66 7.3 135.95 42.44 218.18l167.8-70.3C322.73 422.4 280.3 361.4 231.2 321.6c-15.25-12.6-30.5-22.54-46.42-29.17l-17.24-5.97z"/><path d="M167.56 283.15c-.67 0-2 0-3.32 1.32-2.65 3.98-5.97 10.6-9.28 19.9-5.3 15.9-9.29 33.15-11.28 53.7-5.96 63 8.63 135.3 43.1 218.2.67 2.64 2.66 2.64 4 1.98l2.64-3.32v-1.32c-29.18-68.96-43.77-131.96-43.77-187.66 0-24.54 2.66-45.76 7.96-65.66 3.32-12.6 6.64-22.54 11.28-29.84 21.9 6.63 45.1 20.56 70.3 42.44 45.1 39.8 83.56 97.5 115.4 173.1.65 1.98 1.98 2.64 3.97 1.32 2.65-.67 3.3-2 2-3.98-34.5-82.9-76.94-143.24-126-183.03-15.27-13.28-30.52-22.56-46.43-29.86-8.63-3.98-15.26-5.97-20.56-7.3z"/><path fill="#FFE700" d="M178.17 312.33c.66-7.3.66-14.6-.66-21.22-1.32-13.92-6.63-19.23-14.6-15.25-8.6 3.32-8.6 9.95 0 21.22l15.27 15.26z"/><path d="M161.6 272.54c-4 2-6.64 5.3-7.3 8.62-.67 5.96 2.65 12.6 9.28 20.56l13.26 12.6 2.65.66 1.32-2v-18.56c-.66-10.6-3.3-17.9-7.96-21.22l-11.27-.66zm-2 9.94c0-2.65 1.33-3.3 3.98-4.64 2.65-1.33 3.98-1.33 5.97 0 4.64 3.32 6.63 11.94 6.63 26.53v2.65c-11.27-10.6-16.58-18.57-16.58-23.87v-.66z"/><path d="M180.82 311.66c-1.33-1.32-2.65-2-3.3-1.32-2 .66-2.67 1.32-2 3.3l27.18 72.96c21.9 59.68 44.44 117.38 68.3 173.75 1.33 1.32 2 1.98 3.33.66l1.98-1.98v-1.32c-27.18-64.33-53.04-129.98-78.24-196.96 28.52 59.68 57.7 123.34 86.2 191.65 1.34 1.98 2 2.64 3.33 1.32 1.98-.67 2.64-1.33 1.98-3.32-38.46-89.53-74.94-169.77-108.76-238.74z"/><path d="M156.28 316.3c-1.32-1.32-1.98-1.32-3.3 0-1.34 1.33-1.34 2.66 0 3.98l8.6 7.3c7.97 5.97 15.92 9.94 25.2 13.93 1.34.67 2.66 0 3.32-1.32.67-2 0-2.65-1.98-3.32-7.96-3.98-16.58-8.62-23.88-13.26l-7.96-7.3zM150.98 339.5l-3.32.68c-1.32.66-1.32 2 0 3.98l17.25 12.6c12.6 7.96 24.54 13.92 33.83 17.9 2 0 2.65 0 3.98-1.32 0-2 0-3.32-1.98-3.32-9.95-3.98-20.56-9.95-33.16-18.57l-16.58-11.94zM147.66 368.7c-.66-.67-2.65-.67-3.3 1.32-.68.66-.68 2 0 3.32l19.22 11.27c14.6 8.63 30.5 15.92 47.08 21.23 2 .66 3.32-.66 3.32-2 0-1.98 0-2.64-1.33-3.3-16.58-5.3-31.83-11.94-47.08-19.9l-17.9-11.93z"/><path d="M201.38 299.73c0-2-.66-2.66-3.32-2.66-1.32 0-2 .67-2 2.66l-.65 11.27c-1.32 8.62-3.97 17.24-7.95 25.86 0 1.33 0 3.32 2 3.98 1.32 0 2.64 0 3.3-2 3.98-8.6 6.64-17.9 7.96-27.84l.68-11.27zM219.28 310.34c-2-.67-2.65.66-2.65 2l-3.3 19.88c-2.67 15.25-5.98 27.85-9.96 36.48-1.33 1.98-.67 2.65.66 3.3 2 1.34 3.32 0 3.32-1.32 4.64-9.94 8.62-21.88 11.27-36.47l2.65-21.87c0-1.33-.66-2-2-2zM242.5 328.24c-2 0-2.66.67-2.66 2.65l-4.64 19.9c-4.64 16.57-10.6 32.48-17.9 47.74-1.33 2-.67 2.65.66 3.3 2 1.34 2.65.67 3.98-1.3 7.96-15.27 13.92-31.84 18.57-48.42l4-21.23c0-1.33-.68-2.66-2-2.66z"/><path fill="#858585" d="M373.14 256.62c-10.6-18.57-21.9-34.48-34.5-47.08l-15.24-14.6c-16.58 11.28-33.16 31.84-49.07 61.68-33.16 61-49.74 139.93-49.74 236.1l-51.07 110.73h248.02V492.7c0-96.15-15.92-175.07-48.4-236.08z"/><path d="M325.4 192.3c-1.34-.67-2.66-.67-4 0-17.9 12.6-35.14 33.82-51.05 64.32-32.5 60.35-48.4 138.6-49.08 235.42l-50.4 110.1-.66 1.3.67 2 2.66 1.33h248.02c2.65 0 3.3-.66 3.3-3.32V492.7c0-96.82-15.9-175.07-48.4-236.08-9.94-19.23-21.22-35.15-33.82-48.4l-17.24-15.93zm-2 7.3c19.23 15.24 36.47 38.45 52.4 71.6 28.5 58.37 42.43 132.64 42.43 221.5v107.44h-239.4l49.08-106.1v-1.33c0-88.86 14.6-163.13 43.1-221.5 15.93-33.15 33.17-56.36 52.4-71.6z"/><path d="M323.4 216.83c-1.33 0-2.65 1.33-2.65 2.66l-4.65 118.03c-3.3 94.17-3.98 185.02-2.65 269.9 0 1.33.67 2.66 2.65 2.66 1.33 0 2.66-1.34 2.66-2.67l-1.33-88.2c0-78.25 2.65-161.15 5.97-248.02 3.3 86.9 5.97 169.78 5.97 248.03l-1.33 88.2c0 1.33 1.33 2.66 2.66 2.66 1.98 0 2.65-1.34 2.65-2.67 2-84.88.66-175.73-2-269.9l-5.3-118.04c0-1.34-.66-2.67-2.65-2.67z"/><path d="M300.2 221.47c-.67-1.32-2-1.98-3.33-1.32-1.98 1.32-2.65 2-1.98 3.3l5.3 11.3c5.3 8.6 11.93 16.57 19.88 24.53 1.33.66 2.66.66 3.32 0 2-1.33 2-2.66 0-3.32-6.63-7.3-13.26-15.25-17.9-23.2l-5.3-11.3zM284.94 242.7c-1.33-1.33-2-1.33-3.98-1.33-1.33 1.33-2 2-.66 3.98l11.93 19.23c8.63 14.6 17.9 25.2 25.87 33.16 1.98.66 2.65.66 3.97 0 1.33-2 1.33-3.32 0-3.98-8.6-7.96-16.57-17.9-25.86-32.5l-11.26-18.56zM282.28 289.12l-12.6-17.9c-.66-2-2.65-2-3.98-1.34-2 .67-2 2-1.32 3.32l13.26 19.23c11.94 15.25 25.2 28.52 39.13 41.12 2 .66 3.3.66 3.98 0 1.32-2 1.32-2.66-.67-4.65-13.92-11.27-26.52-24.53-37.8-39.78zM256.42 302.38c-2-1.33-2.65-1.33-3.98-.66-2 1.32-2 2.65-.66 3.98l20.55 25.86c16.58 19.23 30.5 33.82 43.77 43.77l3.32-.67c.66-.66.66-2.65 0-3.98-12.6-9.28-27.2-23.2-43.1-42.44l-19.9-25.86zM245.8 334.87c-1.3-.66-1.98-1.32-3.3-.66-2 1.34-2 2.66-1.33 4l20.56 26.52c17.24 19.9 35.15 37.13 53.05 51.06l3.98-.66c.66-1.33.66-2-.66-3.98-17.9-13.27-35.15-29.84-51.73-49.74l-20.56-26.53zM237.2 370.02h-3.33c-1.32.66-1.32 2 0 3.98l25.87 29.18c20.55 21.9 38.46 39.12 54.38 51.73h3.3c1.33-1.32 1.33-2.65 0-3.97-15.9-12.6-33.8-29.84-53.7-51.73l-26.53-29.18zM233.2 399.86c-.65-1.32-2.64-2-3.97-.66-1.32 1.33-2 2.65-.66 3.98l25.2 30.5c19.9 23.88 40.45 42.45 59.68 56.37l3.98-.66c1.33-2 1.33-2.66-.66-3.33-19.23-13.92-39.13-32.5-59.02-55.7l-24.54-30.5zM223.26 430.37h-3.98c-1.98 0-1.98 1.33 0 3.3l30.5 34.5c23.88 25.2 45.1 43.1 63.67 54.38 2 .66 3.32 0 3.98-1.33 1.33-1.33.67-2.65-.66-3.98-18.57-9.94-39.8-27.85-63-53.05l-30.5-33.83z"/><path fill="#FFE700" d="M323.4 219.5c3.3-7.3 6.63-14.6 8.62-21.9 3.98-14.6 1.33-21.88-8.62-21.88s-12.6 7.3-8.62 21.88c2 7.3 5.3 14.6 8.62 21.9z"/><path d="M334 178.37c-1.98-3.32-5.3-5.3-10.6-5.3-4.64 0-8.62 1.98-10.6 5.3-3.33 4.64-2.66 13.26.65 24.54 2.66 6.64 4.65 13.27 7.3 17.9.66.67 1.32 1.34 2.65 1.34l2.65-1.33 7.3-17.9c3.3-11.27 3.98-19.9.66-24.53zm-17.23 3.3c1.33-1.97 3.3-3.3 6.63-3.3 3.31 0 5.3 1.33 6.63 3.3.67.68.67 2.67.67 5.32 0 5.96-2 14.58-7.3 26.52-4.64-11.94-7.3-20.56-7.3-26.53l.67-5.3zM223.93 473.47c-.67-1.32-2-1.32-3.32 0-1.32.67-1.32 2.66 0 3.32l28.53 27.84c23.2 21.22 44.43 37.14 65 48.4 1.3 1.34 2.64.68 3.3-.65 1.33-2 .67-3.33-.66-4-19.9-11.26-41.12-27.18-64.33-47.74l-28.5-27.2zM210 500l-3.98-.66c-1.32 1.32-1.32 2 0 3.98l33.16 30.5c26.52 21.88 51.06 38.46 74.94 49.07 1.98.66 2.65.66 3.98-1.33.65-1.33 0-2.66-1.33-3.32-23.2-10.6-47.75-26.52-74.28-48.4L210 500zM199.4 525.2c-1.34-1.33-2.66-1.33-4 0-1.32 1.33-1.32 2.65 0 3.98l21.9 19.9c17.24 14.58 32.5 25.2 45.75 33.15 1.33.66 2.65 0 3.32-1.32.66-1.32.66-1.98-.67-3.3-12.6-7.3-27.85-18.58-45.1-32.5l-21.2-19.9zM349.93 220.15c-1.33-.66-2.65 0-3.32 1.32-3.97 11.28-11.93 22.55-23.2 34.5-1.33.65-1.33 1.98 0 3.3.66 1.33 2.65 1.33 3.32 0 12.6-11.93 20.56-23.87 25.2-35.8 0-2 0-2.66-2-3.32zM365.18 241.37c-1.33-.67-2.65 0-3.32 1.33-11.93 21.88-24.53 39.12-36.47 51.06-2 .66-2 2-.67 3.98 1.32.66 1.98.66 3.97 0 13.27-12.6 25.87-29.85 37.8-52.4 1.33-1.98.67-2.64-1.32-3.97zM381.1 269.88c-1.33-.66-2.66-.66-3.32 1.33l-13.26 17.92c-11.28 15.25-23.88 28.5-37.8 39.8-1.33 1.97-1.33 2.64-.67 4.63.67.66 2.65.66 3.98 0 13.93-12.6 27.2-25.87 38.46-41.12l13.26-19.23c1.32-1.33.66-2-.66-3.32zM394.36 301.72l-3.32.66-20.56 25.86c-15.9 19.23-30.5 33.16-43.1 42.44-.67 1.33-.67 3.32 0 3.98l3.3.67c13.28-9.95 27.87-24.54 43.78-43.77l20.56-25.86c1.33-1.33 1.33-2.66-.66-3.98zM404.97 334.2l-3.98.67-19.9 26.53c-16.58 19.9-34.5 36.47-52.4 49.74-1.32 1.98-1.32 2.65 0 3.98l3.32.66c17.9-13.93 35.8-31.17 53.05-51.06l19.9-26.53c1.32-1.34 1.32-2.66 0-4zM412.93 370.02h-3.98c-27.2 33.82-53.72 60.35-79.58 80.9-1.33 1.33-1.33 2.66 0 4h3.3c15.93-12.62 33.83-29.86 54.4-51.74L412.92 374c1.32-2 1.32-3.32 0-3.98zM417.57 399.2c-1.33-1.33-2.66-.66-3.98.66l-24.55 30.5c-19.9 23.22-39.12 41.8-59.02 55.7-1.33.68-1.33 1.34-.66 3.33l3.98.65c19.23-13.92 39.8-32.5 59.68-56.37l25.2-30.5c.66-1.33.66-2.65-.66-3.98zM427.52 430.37h-3.32l-31.17 33.82c-23.2 25.2-44.43 43.1-63 53.04-1.33 1.33-1.33 2.65-.66 3.98.66 1.33 2 2 3.98 1.33 18.56-11.27 39.8-29.18 63.66-54.38l31.18-34.5c1.32-1.97 1.32-3.3-.66-3.3zM426.2 473.47c-1.34-1.32-2.66-1.32-3.33 0l-28.5 27.2c-22.56 20.55-44.44 36.47-64.34 47.74-1.33 1.34-1.33 2.66-.66 4 .66 1.32 2 1.32 3.3.65 20.57-11.27 42.45-27.2 65-48.4l28.52-27.86c1.98-.67 1.98-2.66 0-3.33zM440.78 499.34l-3.32.66-32.5 29.84c-26.52 21.9-51.72 37.8-74.93 48.4-1.33.67-2 2-1.33 3.33 1.33 2 2 2 3.98 1.32 23.88-10.62 49.07-27.2 75.6-49.08 13.27-11.27 23.88-21.22 32.5-30.5.66-2 .66-2.66 0-3.98zM451.4 525.2c-.67-1.33-2-1.33-4 0-23.86 23.2-45.75 40.45-65.64 52.4-2 1.3-2 1.98-1.33 3.3 1.33 1.33 2 2 3.98 1.33 20.57-11.94 43.12-29.84 67-53.05 1.32-1.33 1.32-2.65 0-3.98z"/><path fill="#858585" d="M91.3 199.6c-15.92-26.54-30.5-44.44-45.1-54.4-14.6 9.96-29.18 27.87-45.1 54.4-30.5 53.7-48.4 122-52.38 206.9l11.27 227.46h211.54c36.47-57.7 59.68-118.7 68.97-183.03 3.32-19.9 3.98-39.13 3.98-57.03l-.66-21.9c-25.2.67-49.74 6.64-72.95 17.92l-27.2 16.57c-3.97-84.9-21.87-153.2-52.37-206.9z"/><path d="M47.52 142.56c-.66-.67-1.98-.67-3.3 0-16.6 10.6-31.84 30.5-47.1 57.03-30.5 53.04-47.74 122-51.72 206.9l11.27 227.46c0 2.65.66 3.32 3.32 3.32h211.54c1.32 0 1.98-.67 2.65-1.33 36.46-57.03 59.67-118.7 69.62-183.03 2.65-20.56 3.98-39.8 3.98-59.03l-1.33-22.55c0-1.33-.66-2.65-3.3-2.65-21.23.66-41.8 5.3-62.35 12.6-13.27 5.96-24.54 11.93-33.82 19.23-5.3-82.9-22.55-149.88-53.06-202.27-14.58-25.86-29.84-45.1-46.41-55.7zm-1.32 7.3c17.24 13.26 33.82 34.48 48.4 63 27.2 51.72 42.45 116.05 45.77 193.63 0 1.32.66 2 2 3.3l3.3-.65 26.53-15.92c21.88-11.27 44.43-16.58 68.3-17.9l.67 21.22c0 30.5-3.98 61.67-11.94 94.83-11.94 49.07-31.83 95.5-59.68 139.26H-36.7L-47.96 406.5c3.32-77.6 18.57-141.92 45.76-193.64 15.24-28.52 31.16-49.74 48.4-63z"/><path fill="#FFE700" d="M46.2 175.05c3.98-6.63 6.63-14.6 8.62-21.88 3.98-14.6.66-21.22-8.62-21.22-9.3 0-11.94 6.63-8.62 21.22 2 7.3 4.64 15.25 8.62 21.88z"/><path d="M46.2 128.63c-5.3 0-8.62 2-10.6 5.3-4.65 7.96-2 22.56 8.6 42.45 0 1.32 1.34 2 2 2 1.32 0 2-.68 2.65-2 9.95-19.9 12.6-34.48 7.96-42.44-1.98-3.32-5.96-5.3-10.6-5.3zm5.97 7.96l2 6.62c0 5.97-3.33 14.6-7.97 25.86-5.3-11.27-7.3-19.9-7.3-25.86l1.33-6.63c.66-1.34 3.31-2.66 5.97-2.66 2.65 0 4.64 1.32 5.97 2.65z"/><path d="M46.2 173.06c-2 0-2.65.66-2.65 2-5.97 89.52-7.96 189-7.96 299.74v82.9l-37.8-28.52h-3.33l-.66 2-1.32 17.23.67 2 51.06 41.1 1.34.68h1.32l1.33-.67c55.03-36.46 101.45-78.9 139.25-128.64 18.57-24.53 31.83-45.76 39.8-63.66.66-2 0-2.65-.67-3.32-2-1.32-2.65-.66-3.32.67-15.25 18.57-33.15 39.78-53.7 61.67-42.45 45.76-79.6 78.92-113.4 100.14l1.3-83.56c0-110.75-3.3-210.22-8.6-299.75 0-1.33-1.34-2-2.66-2zm5.97 392.6h2.65c26.53-16.6 55.7-41.12 88.2-72.3 21.9-22.54 44.43-45.75 65.65-71.6-14.6 25.2-33.15 49.06-55.04 72.94-31.17 34.48-66.98 64.32-106.77 91.5C32.26 575.6 15.7 563-2.2 547.1l.65-10.6c15.92 12.6 29.18 22.54 39.13 29.17h2.65l1.33-1.98-.67-88.87c0-78.25 1.32-160.48 5.3-247.36 3.98 86.88 5.97 169.1 5.97 247.36l-1.33 88.86 1.33 2z"/><path d="M23 169.75c-.67-1.33-2-1.33-3.33-1.33-2 .67-2.65 2-2 3.32L23.66 183c5.3 8.63 11.28 16.6 18.57 24.55 2 .66 3.32.66 4.64 0 .67-1.33.67-2.65 0-3.98-7.95-7.3-13.92-14.6-19.23-23.2L23 169.74zM7.74 190.97c-.67-1.33-2-1.33-3.32-1.33-2 1.33-2.65 2-1.32 3.98l11.93 19.23c9.29 14.6 17.24 25.2 25.87 33.16 1.32.67 2.65.67 3.97 0 .67-1.32.67-3.3-.66-4.63-7.3-6.63-15.9-17.9-25.2-31.83L7.75 190.97zM43.55 277.84c-14.6-11.93-27.2-25.2-38.47-39.8l-12.6-18.55c-1.32-2-2-2.67-3.98-1.34-1.32.66-1.98 1.98-1.32 3.3L1.1 240.7c11.28 15.26 24.54 28.52 38.47 41.12l3.98-.66c.66-1.33.66-2.65 0-3.32zM42.22 322.94c1.33-1.33 1.33-2 0-3.98-12.6-9.3-27.2-23.87-43.1-42.45l-19.9-25.18-3.98-1.33c-1.33 1.32-1.33 2.64-.66 3.97l20.56 25.86c15.9 19.23 30.5 33.82 43.77 43.77.67.66 2 .66 3.32-.66zM40.9 364.05c1.32-2 1.32-3.3 0-3.98-17.9-13.26-35.15-30.5-51.73-50.4l-20.56-26.52c-1.32-.66-1.98-1.33-3.3-.66-2 1.97-2 3.3-1.33 3.96L-15.47 313c16.57 20.55 35.15 37.13 53.05 51.05h3.32zM40.9 403.18c.66-2 .66-2.65-.67-3.32-25.86-20.56-52.4-47.74-79.58-81.56l-3.97-.67c-1.33 1.33-1.33 3.32 0 3.98 27.85 33.83 54.37 61.68 80.23 82.24l4-.66zM40.23 437.66c.66-1.32.66-2.65-.66-3.98-19.23-13.26-38.47-31.83-59.02-55.04l-25.2-30.5c-.67-1.33-1.33-1.33-3.32-.66-1.33 1.32-1.33 2.65-.66 3.3l25.2 31.18c20.56 23.87 40.45 42.44 60.34 56.37l3.33-.67zM40.23 470.16c.66-2 .66-3.32-1.32-3.98-17.9-11.27-37.8-28.52-59.02-52.4l-27.85-33.15c-.66-2-2.65-2-3.3-.66-1.34 1.32-1.34 2.65-.68 3.98l27.86 33.82c21.9 23.87 41.78 41.78 61 52.4.68 1.3 2 1.3 3.33 0z"/><path d="M73.4 168.42c-2 0-3.33 0-3.33 1.33-4.64 11.27-12.6 22.54-24.53 33.82-.67 1.33-.67 2.65 0 3.98 2 1.32 3.3 1.32 3.98 0 12.6-11.94 21.22-23.88 25.2-35.8.66-1.34 0-2.67-1.33-3.33zM88.64 189.64c-2-.66-3.3 0-3.98 1.33-12.6 21.88-24.53 39.12-37.13 50.4-.67 1.33-.67 2.65 0 4.64 1.32.67 2.65.67 3.3 0 13.28-12.6 26.54-29.83 38.48-52.38 1.33-2 .67-3.32-.66-3.98zM103.9 218.16c-2-.67-3.32 0-4 1.33-11.26 19.22-28.5 38.45-51.05 58.34-1.32.67-1.32 2 0 3.32l3.32.66c23.2-19.9 41.1-39.8 52.4-60.35.65-1.32.65-2.65-.68-3.3zM117.16 250c-2-.67-2.66-.67-3.32 1.32l-20.56 25.2c-15.9 18.57-29.84 33.15-42.44 42.44-2 1.32-2 2.65-.66 3.98.66 1.32 2 1.32 3.98.66 12.6-9.95 26.52-24.54 43.1-43.77l20.56-25.86c.66-1.33.66-2.65-.66-3.98zM127.1 282.5l-3.3.65c-19.9 29.18-43.12 55.04-72.3 76.92-1.32.67-1.32 2-.66 3.98h3.98c18.57-13.92 35.8-30.5 52.4-51.06l21.2-26.54c.68-1.32 0-2.65-1.32-3.97zM135.06 317.63l-3.3.67c-27.87 33.82-54.4 61-79.6 81.56-1.32.67-1.32 1.33 0 3.32l3.32.66c25.2-20.56 51.73-48.4 80.25-82.23 1.32-1.32 1.32-2.64-.67-3.97zM140.37 347.48l-3.98.66-24.55 30.5c-19.9 23.22-39.8 41.78-59.68 55.05-1.33 1.3-1.33 2.64 0 3.96l3.3.67c19.9-13.93 39.8-32.5 60.36-56.37l25.2-31.17c.66-.67.66-2-.66-3.32zM143.68 379.97c-1.98-1.33-2.65-1.33-3.3.66l-27.2 33.16c-21.88 23.86-42.44 41.1-60.35 52.38-2 .66-2 2-.66 3.98 1.32 1.32 2 1.32 3.31 0 18.57-10.6 39.13-28.52 61.02-52.4l27.85-33.8c.66-1.34.66-2.66-.67-4z"/><path fill="#FFE700" d="M224.6 397.87l19.22-13.26c11.94-9.93 13.26-17.23 5.3-23.2-7.95-4.64-14.58-.66-19.23 13.93-2.66 6.63-4 14.6-5.3 22.54z"/><path d="M250.45 359.4c-3.98-2.64-7.96-3.3-11.93-1.98-5.3 2.65-9.3 9.95-12.6 21.22-2 5.97-2.66 12.6-3.32 19.23l1.32 2.66h2.66l15.9-10.6c8.63-7.97 13.94-14.6 13.94-19.9.66-4.65-2-7.97-5.97-10.62zm-9.94 3.33l6.64 1.32c2.65 1.33 3.98 3.32 3.98 5.3v.67c0 5.97-7.3 13.93-23.2 23.2 3.3-17.9 7.28-27.84 12.6-30.5zM197.4 377.3c-1.33-.65-2.65 0-2.65 2l-2 15.26-3.3 43.1c0 2 .65 2.65 1.98 2.65 2 0 2.65-.65 2.65-2.64l3.32-42.44 2.65-14.6c0-1.98-.66-3.3-2.65-3.3zM168.22 388.6c-1.32 0-2 .65-2.65 1.98l-1.33 24.54-.66 51.06c0 1.33.66 2.65 2.65 2.65 1.33 0 2-1.32 2-2.65l1.98-51.06.67-23.88-.66-1.33-1.98-1.3zM139.7 490.05c0-2 1.33-2.65 2.66-2.65 2 0 2.65.67 2.65 2.65l1.34-83.56c0-2-1.33-2.66-2.66-2.66-1.98 0-2.65.67-2.65 2.65l-1.33 83.55zM121.14 405.83c-1.33 0-2.66 1.33-2.66 2.65l-.66 31.83c-.66 25.2-.66 49.1.67 70.3-.02 2 .65 3.32 1.97 3.32 2-.66 3.32-1.32 3.32-3.3-.67-21.23-.67-45.1-.67-70.3l.66-31.84c0-1.32-.67-2.65-2.66-2.65zM99.9 429.04c-1.97 0-2.64 1.33-2.64 2.66l-.66 34.48c-.66 25.86 0 46.42.66 63 0 1.33 1.33 2 3.32 2 1.33 0 2.65-.67 2.65-2-1.32-16.58-2-37.14-1.32-63V431.7c0-1.33-.66-2-2-2.66zM75.38 450.93c-1.33 0-2.65.66-2.65 2.65v33.16l2 60.34 2.64 2.66c1.32 0 2.65-.67 2.65-2.66l-2-60.34v-33.16c0-2-.65-2.65-2.64-2.65zM194.75 444.96c1.32 2 2.65 2.65 3.98 2l45.1-18.58c-1.34.66-2.66 0-3.32-1.33 0-1.32 0-2.65.67-2.65l-44.43 17.24c-2 .66-2 2-2 3.32zM174.85 477.45l28.52-8.62c18.57-5.97 31.17-10.6 37.8-13.92 2-.66 2.65-1.32 1.32-3.3 0-1.34-2-2-3.32-1.34l-38.46 13.27-27.2 9.28c-1.98 0-2.64 1.34-1.98 3.33.66 1.32 2 2 3.3 1.32zM150.98 503.98l32.5-5.3c22.54-4.65 39.78-8.63 52.38-13.93 1.33 0 2-1.33 1.33-3.32-.67-1.32-1.34-1.32-3.33-1.32-12.6 4.65-29.84 9.3-52.4 13.27l-30.5 5.97c-2.64 0-3.3 1.32-2.64 2.65 0 1.98 1.32 2.64 2.65 1.98zM125.12 525.86c0 1.33.66 2 1.98 2 39.8-1.33 72.95-5.3 100.14-12.6 2-.67 2.65-1.33 2.65-3.32-.67-1.33-2-2.66-3.32-2-27.85 7.3-60.35 11.28-99.48 12.6-1.98 0-1.98 1.33-1.98 3.32zM97.26 549.74c0 1.32 1.33 2.65 2.65 2.65l118.72-9.96c2-.66 2-2 2-3.3 0-2-.67-2.67-3.33-2l-117.4 9.94c-1.3 0-2.64.67-2.64 2.66zM210.66 563.66c0-2-.66-2.65-2.65-2.65l-87.53 9.3-53.05 1.98c-2 0-2.65 1.33-2.65 2.65.66 2 1.33 2.66 2.65 2.66l53.72-2 88.2-8.62c1.32-.66 2-2 1.32-3.32z"/><path stroke-miterlimit="100" d="M364.58 579.58H7.42V7.42h357.16v572.16z" fill="none" stroke="#000" stroke-width="14.84"/></svg>