<svg xmlns="http://www.w3.org/2000/svg" width="372" height="587" viewBox="0 0 372 587"><path fill="#fff" d="M0 0h372v587H0z"/><path fill="#333" d="M72.68 38.78l-1.36-3.4c-1.37-1.37-2.05-2.05-3.4-2.05-1.37 0-2.73.68-3.4 2.04l-2.05 3.4c0 3.4 2.04 4.77 5.44 4.77 3.44 0 4.8-1.36 4.8-4.76zm-20.42-8.85c0-3.4-2.04-4.77-5.45-4.77-2.7 0-4.73 1.36-4.73 4.77 0 3.4 2.04 5.44 4.76 5.44 3.42 0 5.46-2.04 5.46-5.44zM44.1 85.06c0-3.4-2.05-4.77-5.45-4.77-2.72 0-4.77 1.33-4.77 4.74 0 3.4 2.05 5.44 4.77 5.44 3.4 0 5.44-2.05 5.44-5.45zm97.32-57.86c0-3.4-1.36-5.44-4.76-5.44-2.73 0-4.77 2.04-4.77 5.45a4.65 4.65 0 0 0 4.74 4.8c3.4 0 4.76-2.05 4.76-4.77zm-33.35 2.05c0-3.4-1.36-5.45-4.76-5.45-3.4 0-4.74 2.04-4.74 5.45 0 2.72 1.36 4.76 4.77 4.76 3.4 0 4.77-2 4.77-4.73zM223.77 9.5c-3.4 0-4.76 2.05-4.76 5.46 0 3.4 1.4 4.76 4.8 4.76s4.76-1.36 4.76-4.76c0-3.4-1.36-5.45-4.77-5.45zm-38.1 21.8c0-3.4-2.05-5.46-5.46-5.46-2.7 0-4.05 2.05-4.05 5.45 0 2.7 1.37 4.73 4.08 4.73 3.42 0 5.46-2.04 5.46-4.76zM36.6 122.5c0-3.4-1.35-5.45-4.76-5.45-1.36 0-2.72.67-3.4 2.04-.68.65-1.36 1.33-1.36 3.4l1.36 3.4c.68 1.33 2.04 1.33 3.4 1.33 3.4 0 4.77-1.36 4.77-4.76zm22.46 31.98c0-3.4-1.35-4.77-4.76-4.77-1.36 0-2.04.7-3.4 1.4-1.36 1.35-1.36 2.04-1.36 3.4l1.36 4.08 3.4 1.36c3.4 0 4.76-2.04 4.76-5.44zM48.18 181.7c0-3.4-2.05-5.44-5.45-5.44-3.4 0-4.76 2.04-4.76 5.45 0 2.75 1.36 4.1 4.76 4.1 3.4 0 5.45-1.35 5.45-4.07zm-12.26-130c0-3.4-2.04-5.44-5.44-5.44-2.72 0-4.77 2.04-4.77 5.45 0 3.4 2.08 4.8 4.8 4.8 3.4 0 5.44-1.37 5.44-4.77zm-1.35-36.74c0-3.4-2.05-5.45-5.45-5.45-2.72 0-4.1 2.07-4.1 5.48 0 3.4 1.38 4.76 4.1 4.76 3.4 0 5.45-1.36 5.45-4.76zm279.73 4.08l-1.37-3.4-4.08-2.05c-2.73 0-4.08 2-4.08 5.42s1.35 4.76 4.08 4.76l4.08-1.37 1.36-3.4zm-32.68 6.12l-1.36-3.4-3.4-2.04c-3.4 0-5.45 2.04-5.45 5.44 0 3.4 2.07 4.77 5.48 4.77l3.4-1.36 1.36-3.4zm61.94 13.62c0-3.4-1.36-4.77-4.76-4.77s-5.45 1.4-5.45 4.8 2.04 5.44 5.45 5.44c3.4 0 4.76-2.04 4.76-5.44zm12.24 23.14c0-3.4-2.03-5.45-4.75-5.45-1.36 0-2.04 1.36-3.4 2.04-1.37.7-1.37 2.07-1.37 3.4 0 2.76 1.36 4.8 4.77 4.8a4.65 4.65 0 0 0 4.76-4.76zM240.78 28.57c0-3.4-1.36-5.45-4.76-5.45-2.72 0-4.76 2.04-4.76 5.45 0 2.72 2.04 4.08 4.76 4.08 3.4 0 4.76-1.36 4.76-4.08zm116.4-12.94l-1.37-3.4a7.24 7.24 0 0 0-3.4-1.36c-3.4 0-5.42 1.36-5.42 4.76 0 3.4 2.05 5.45 5.45 5.45l3.4-1.36 1.37-4.1zm-34.72 25.2l-1.36-4.1-3.4-1.36c-3.4 0-5.45 1.36-5.45 5.45 0 3.4 2.04 4.76 5.45 4.76 1.36 0 2.04 0 3.4-1.36l1.36-3.4zm29.94 44.23l-2.04-3.4-3.4-1.37c-3.4 0-4.76 1.33-4.76 4.74 0 3.4 1.36 5.44 4.76 5.44l3.4-1.37 2.05-4.07zm-23.8 2.04l-1.38-3.4c-1.36-.68-2.03-1.37-4.08-1.37-2.72 0-4.08 1.36-4.08 4.77 0 3.4 1.36 5.44 4.08 5.44l4.08-1.36 1.37-4.08zm23.8 44.24l-2.04-3.4-3.4-2.05c-3.4 0-4.76 2-4.76 5.42 0 3.4 1.36 4.76 4.76 4.76l3.4-1.37 2.05-3.4zm-12.93-21.1l-.67-3.4c-1.37-1.37-2.73-2.05-4.1-2.05-2.7 0-4.76 2.02-4.76 5.42S332 115 334.7 115l4.1-1.37.68-3.4zm19.06 46.28c0-3.4-2.04-4.77-5.44-4.77-3.4 0-4.8 1.37-4.8 4.77 0 3.4 1.37 4.76 4.77 4.76 3.4 0 5.43-1.36 5.43-4.76zM264.6 14.27c0-3.4-1.36-5.44-4.76-5.44-2.72 0-4.76 2.04-4.76 5.44a4.66 4.66 0 0 0 4.76 4.77c3.4 0 4.77-2.04 4.77-4.77zm-98.68.7c0-3.4-1.36-5.46-4.76-5.46-2.73 0-4.77 2.07-4.77 5.48 0 3.4 2 4.76 4.74 4.76 3.4 0 4.76-1.36 4.76-4.76zm-78.95.66c0-3.4-2.04-4.76-5.44-4.76-3.4 0-4.77 1.36-4.77 4.76 0 3.4 1.37 5.45 4.77 5.45 3.4 0 5.44-2.04 5.44-5.45zM56.34 52.4c0-3.4-2.04-4.78-5.44-4.78-2.72 0-4.77 1.37-4.77 4.77 0 3.4 2.05 5.4 4.77 5.4 3.4 0 5.44-2.03 5.44-5.43zm-20.42 93.23c0-3.4-2.04-4.76-5.44-4.76-2.72 0-4.77 1.35-4.77 4.76 0 3.4 2.08 5.44 4.8 5.44 3.4 0 5.44-2.04 5.44-5.44zm.68 79.63c0-3.4-1.35-5.44-4.76-5.44-3.4 0-4.76 2.04-4.76 5.44 0 2.73 1.36 4.76 4.76 4.76 3.4 0 4.77-2.04 4.77-4.76zm28.6-111.62c0-3.4-2.05-4.76-4.77-4.76-3.4 0-4.77 1.36-4.77 4.76 0 3.4 1.36 5.45 4.77 5.45 2.72 0 4.76-2.07 4.76-5.48zm-20.43-4.76c0-3.4-2.04-5.45-5.44-5.45-2.73 0-4.1 2.04-4.1 5.45 0 3.4 1.38 4.76 4.1 4.76 3.4 0 5.44-1.36 5.44-4.76zm-10.9-34.03c0-3.4-2.03-4.77-5.43-4.77-2.72 0-4.76 1.37-4.76 4.77 0 3.4 2.04 4.77 4.76 4.77 3.4 0 5.44-1.37 5.44-4.77zm172.2-55.13c0-3.4-2.04-4.76-5.44-4.76-2.72 0-4.08 1.35-4.08 4.76 0 3.4 1.36 5.44 4.08 5.44 3.4 0 5.45-2.04 5.45-5.44zm23.83 26.54c0-3.4-2.05-4.76-5.45-4.76-3.4 0-4.76 1.36-4.76 4.76 0 3.4 1.33 4.77 4.73 4.77s5.45-1.37 5.45-4.77zM91.73 51.03c0-3.4-1.36-5.45-4.76-5.45-3.4 0-5.44 2.04-5.44 5.45 0 2.72 2.04 4.76 5.44 4.76 3.4 0 4.77-2.07 4.77-4.8zm30.63-38.13c0-3.4-1.36-4.75-4.76-4.75-3.4 0-5.45 1.36-5.45 4.76 0 2.75 2.04 4.8 5.45 4.8s4.76-2.05 4.76-4.77zm-57.86.7c0-3.4-2.03-4.77-5.44-4.77-2.72 0-4.76 1.36-4.76 4.76 0 3.4 2.04 4.74 4.76 4.74 3.4 0 5.45-1.36 5.45-4.77zm232.78-2.05l-2.04-3.4-3.4-1.36c-3.4 0-4.77 1.33-4.77 4.73s1.36 5.44 4.76 5.44l3.4-1.37 2.05-4.07zm39.47 2.05l-1.35-3.4a7.23 7.23 0 0 0-3.4-1.37c-3.4 0-5.46 1.36-5.46 4.76 0 3.4 2.05 5.42 5.45 5.42l3.4-1.36 1.33-4.1z"/><path fill="#858585" d="M265.3 79.6c-16.34 10.9-33.36 32-49.7 63.3-34.03 61.94-51.04 142.94-51.04 241.62L139.38 585.3H366.7V384.52c0-98.68-17.02-179.68-50.37-241.6-17-31.32-34.03-52.42-51.04-63.3z"/><path d="M267.33 76.2c-.68-.67-2.72-.67-3.4 0-19.06 12.94-36.75 34.72-53.1 66.7-32.66 61.26-49.67 142.25-49.67 241.62l-25.18 200.1v.68l1.35 2.04c.7.68 1.37 1.36 2.05 1.36H366.7c2.72 0 3.4-.68 3.4-3.4V384.52c0-99.37-17-180.36-49.68-241.6-16.34-32-34.72-53.78-53.1-66.7zm-55.13 80.32c15.65-32.67 34.03-57.85 53.1-73.5 19.73 15.65 38.1 40.83 53.76 73.5 29.95 61.25 44.24 136.8 44.24 228V581.9H143.46l24.5-196.7v-.68c0-91.2 14.97-166.75 44.24-228z"/><path d="M265.3 102.07c-1.37 0-2.06 1.36-2.06 2.72-2.03 38.8-4.08 87.8-5.44 147a8172.53 8172.53 0 0 0-2.72 338.25c0 2.04 1.36 2.72 2.72 2.72 2.05 0 2.73-.7 2.73-2.73l-.68-110.26c0-98.7 2.03-201.46 5.44-309.68 4.05 108.22 6.1 211 6.1 309.68l-.68 110.27c0 2.04.67 2.72 2.7 2.72 1.38 0 2.06-.7 2.06-2.74 2.03-106.86 1.35-219.16-1.37-338.26l-6.12-147c0-1.37-.67-2.73-2.7-2.73z"/><path d="M241.47 106.84c-.68-2.05-1.36-2.73-3.4-2.05-2.05.65-2.73 2.02-1.36 4.06l5.47 11.57c5.44 8.85 12.25 17 19.73 24.5 1.35 1.36 2.72 1.36 4.1 0 1.34-1.36 1.34-2.72-.7-4.08a89.23 89.23 0 0 1-18.37-23.83l-5.45-10.2zm-4.1 40.83l-11.56-19.74c-1.33-2.04-2-2.04-3.4-.68-2 .68-2 2.05-1.33 3.4L234 151.08c8.84 14.3 17.7 25.18 26.54 32.66a1.92 1.92 0 0 0 3.4 0c1.36-.68 1.36-2.04 0-3.4-7.5-8.17-16.34-19.05-26.55-32.67zm25.87 73.5c.7-2.03.7-3.4-.67-4.1-14.98-12.9-27.9-26.52-38.8-41.5l-13.6-19.05c-.7-1.36-2.05-2.04-3.4-.68-1.38.68-2.05 2.04-1.38 4.08l13.6 19.06c11.56 14.97 25.2 29.95 39.46 42.2h4.77zm-2.04 42.2c1.37-1.36 1.37-2.72 0-3.4-13.6-10.2-27.9-25.2-44.23-44.24l-20.42-26.54c-.68-1.4-2.73-1.4-4.1-.7-1.35 2.03-1.35 3.4 0 4.1l21.1 26.52c16.35 19.73 30.64 34.7 44.25 44.9l3.4-.66zm-.67 42.2c.68-2.04.68-2.72-.7-4.08-18.37-14.3-36.06-31.34-53.07-51.75l-20.42-26.55c-.68-2.03-2.72-2.03-4.1-.67-2.03.68-2.03 2.04-.66 3.4 0 2.05 6.8 10.9 21.1 27.23 17 20.42 35.38 38.1 54.45 52.4h3.4zm-84.4-47.64l-2.72.68c-.66 1.4-.66 2.07 0 3.4l26.57 30.66c21.1 22.46 40.16 40.16 56.5 53.77l3.4-.67.68-2.05-.7-2.03c-16.32-12.25-35.38-30.62-55.8-52.4L177.5 258.6c-.7 0-.7-.67-1.37-.67zm-3.4 31.3c-.68-1.36-2.04-2.03-3.4-.67-1.37 1.36-2.05 2.72-.7 4.08l25.2 31.3c21.1 24.5 42.2 43.57 61.93 57.86l4.08-.68c.7-2.04.7-2.72-1.36-3.4-19.73-14.3-39.48-33.35-60.57-57.18l-25.15-31.3zm-10.2 31.32l-4.1-.68c-.68 1.36-1.35 2.72 0 4.08l31.3 36.07c24.5 25.2 46.98 44.23 66.03 55.13 2.04.7 2.72.7 4.08-.7.7-2.02.7-3.4-1.36-4.07-18.37-11.56-40.84-29.26-64.66-54.45l-31.3-35.38z"/><path fill="#FFE700" d="M265.3 104.1l9.52-22.45c3.4-14.97.68-22.45-9.53-22.45-9.56 0-12.28 7.48-8.2 22.45 1.36 7.5 4.76 14.98 8.17 22.46z"/><path d="M275.5 87.1c4.08-11.57 4.08-19.74 1.36-24.5-2.04-4.1-5.45-6.13-11.57-6.13-4.8 0-8.2 2.04-10.9 6.13-3.4 4.76-2.75 12.93.66 24.5 2.72 6.8 5.45 12.93 8.16 18.38.7 1.36 1.37 1.36 2.05 1.36 2.03 0 2.7 0 2.7-1.37l7.5-18.37zm-10.2-25.18c3.4 0 5.44.68 6.8 2.72l1.35 6.8c0 6.13-2.7 14.98-8.16 26.55-4.8-11.6-7.5-20.45-7.5-26.58l1.34-6.8c1.37-2.04 3.4-2.72 6.13-2.72zM163.88 364.1a4.34 4.34 0 0 0-4.08 0c-1.37 1.37-1.37 3.4 0 4.1l29.94 29.25c23.14 21.1 44.92 37.43 66.02 49 2.04.7 2.72.7 4.08-.67.7-2.04.7-3.4-1.36-3.4-20.42-12.26-42.2-27.9-65.34-49.7l-29.26-28.58zm-14.98 27.22c-.68-.68-2.72-.68-4.08 0-.68 1.37-.68 3.4 0 4.1l34.03 31.3c27.23 22.46 53.1 39.48 77.6 50.37 1.35.65 3.4 0 4.08-.7 0-2.06 0-3.4-2.05-4.1-24.5-10.2-49-27.23-76.23-49.68l-33.34-31.3zm-10.88 26.55c-.7-1.36-2.04-1.36-3.4 0-2.05 1.37-2.05 2.72 0 4.1l22.46 20.4c17.7 14.98 32.66 26.54 46.27 34.03l3.4-.68c1.37-2.03.7-3.4-.67-4.08-12.94-7.5-27.9-19.06-45.6-33.35l-22.46-20.45zM293.2 104.8c-1.37-.7-2.73 0-3.4 2.04-4.77 10.9-12.26 22.46-24.5 34.03-.7 2.04-.7 3.4 0 4.08 1.35 1.36 2.7 1.36 3.4 0 12.93-12.25 21.77-24.5 26.54-36.07 0-2.04 0-3.4-2.04-4.1zm15.65 22.45c-1.36-1.36-3.4-1.36-3.4.68-12.94 23.15-25.2 40.16-38.1 52.4-2.06 1.37-2.06 2.05 0 3.4.66 1.38 2.7 1.38 3.4 0 13.6-12.24 26.53-29.93 38.78-53.07 1.36-1.36 1.36-3.4-.68-3.4zm16.35 28.6c-2.06-1.37-3.4-.7-4.1.67l-12.93 19.05a379.35 379.35 0 0 1-39.48 41.52c-1.38 1.34-1.38 2.7-.7 4.06h4.1c23.12-20.42 41.5-40.84 53.74-61.26.68-1.35 0-2.7-.67-4.07zm13.6 32.65l-4.1.7-20.4 26.53c-16.34 19.06-31.3 34.04-44.24 44.24-1.37.68-1.37 2.04 0 3.4l3.4.68c21.1-16.33 42.87-40.15 66-71.46.7-.7.7-2.07-.66-4.1zm10.2 34.04c-2.04-1.36-2.72-1.36-3.4.68l-21.1 26.54c-17 20.42-35.4 37.44-53.1 51.73-1.34 1.33-1.34 2-.66 4.05h4.08c18.38-14.3 36.75-32 54.44-52.4l20.43-27.23c.64-1.36.64-2.72-.7-3.4zm8.17 36.06h-4.08c-27.9 34.72-55.16 62.63-81.7 83.05l-.68 2.04.67 2 3.4.7c17-13.6 35.4-31.3 56.5-53.77L357.85 262c1.37-1.36.68-2.72-.68-3.4zm4.77 29.96l-3.4.68-25.87 31.3c-20.42 23.83-40.84 42.88-60.58 57.18-1.38.68-1.38 1.36-.7 3.4l4.1.7c19.72-14.3 40.8-33.37 61.23-57.87l25.87-31.3c.7-1.37.7-2.73-.7-4.1zM272.77 410.4c-1.36 1.35-2.03 2.03-1.36 4.07.7 1.37 2.76 1.37 4.1.68 19.75-10.9 40.85-29.94 66-55.13l31.35-36.07c.68-.68.68-2.72 0-4.08l-4.1.68-31.3 35.4c-24.5 25.17-45.6 42.87-64.66 54.44zm-1.37 35.37c.7 1.37 2.05 1.37 3.42.7 21.1-11.6 43.56-27.92 67.38-49.02l29.27-29.26c1.36-1.4 1.36-2.75-.7-4.1-.67-.7-2.03-.7-3.4 0l-28.57 28.6c-23.82 21.75-45.6 37.4-66.7 49.66-1.36 0-1.36 1.36-.7 3.4zm0 30.63c0 .7 2.05 1.37 3.42.7 24.5-10.9 50.37-27.92 77.6-50.38l33.34-31.3c1.36-.7 1.36-2.73 0-4.1-.68-.68-2.05-.68-3.4 0L349 422.65c-26.54 22.45-52.4 39.47-76.9 49.68-1.36.68-2.05 2.04-.7 4.08zm155.2-82.35c-.7-1.36-2.05-1.36-3.4 0l-42.9 38.12c-31.98 27.9-61.24 49-85.06 63.3-1.36 1.35-2.04 2.04-.68 4.07l3.4.7c24.5-14.3 53.76-36.08 86.43-64l42.2-38.1c1.33-.7 1.33-2.72 0-4.1zm0 40.83c-.7-1.35-2.05-1.35-3.4 0L380.3 473c-31.98 27.9-61.24 48.33-85.06 62.62-1.36 1.35-2.04 2.72-.68 4.08l3.4.67c24.5-13.6 53.76-35.38 86.43-63.28l42.2-38.15c1.33-1.36 1.33-2.72 0-4.1zm0 40.84l-3.4-.68-42.9 38.1c-31.98 27.92-61.24 49.03-85.06 63.3-1.36 1.37-2.04 2.05-.68 3.42l3.4 1.35c24.5-14.26 53.76-35.36 86.43-63.26l42.2-38.8c1.33-1.35 1.33-2.72 0-3.4z"/><path fill="#858585" d="M246.23 386.56c-70.1 25.87-139.53 79.63-208.94 158.6l161.95 140.2c68.75-78.96 111.65-155.2 127.3-228.7 5.44-23.14 7.5-44.24 6.12-63.3l-2.73-22.46c-21.1-2.7-49 2.73-83.7 15.66z"/><path d="M35.24 547.87l4.77-.7C104 473.7 168 423.33 234 395.43c35.4-15 66.7-22.47 93.93-21.1l1.36 25.85c0 33.36-6.8 69.43-22.46 108.9-21.77 56.5-59.2 115.03-110.25 174.23l-.7 2.07.7 2.72 5.43-.7c68.74-78.95 110.93-155.2 127.94-228 5.45-23.14 7.5-44.24 6.8-64.66l-3.4-24.5c0-2.04-.67-2.72-2.03-2.72-23.8-2.7-53.08 3.4-88.47 16.34-70.1 27.23-138.84 79.64-207.6 159.27-1.35 2.06-1.35 2.74.02 4.78z"/><path d="M314.98 388.6a4.32 4.32 0 0 0-4.1 0l-87.8 93.93A5329.95 5329.95 0 0 0 28.45 702.37c-1.36 2.04-.68 2.72.68 4.07l3.4-.67c74.87-89.16 157.22-181.04 245.7-274.97C199.95 530.17 121 624.1 40.7 713.25l-1.37 1.36c0 1.4.68 2.07 1.36 2.75 1.33 1.37 2.7 1.37 4.06 0C106.7 647.95 170 573.05 236 493.45l79.65-100.75c.67-1.38 0-3.4-.68-4.1z"/><path d="M290.47 372.27c-2.04-.67-2.72 0-3.4 2.04l-3.4 12.96a139.04 139.04 0 0 0-2.04 34.03c0 1.36 1.36 2.04 3.4 2.04l2.72-2.72c-1.36-11.56-.68-21.77.68-32.66l3.4-12.25c.68-1.37 0-2.05-1.36-3.4zm-27.9 6.8c-1.36-.67-2.73 0-3.4 2.05l-4.1 24.5c-2.03 18.38-3.4 33.35-1.35 45.6l2.72 2.05c1.36 0 2.04-.7 2.04-2.73a209.6 209.6 0 0 1 2.05-44.23l4.08-23.8c0-1.36 0-3.4-2-3.4zm-32.67 12.25c-2.05 0-2.73 0-3.4 2.05l-2.73 25.18c-.68 20.42 0 40.84 3.4 61.26 0 1.4.68 2.75 2.73 2.75 1.36-.68 2.72-2.04 2.04-3.4a298.95 298.95 0 0 1-2.04-60.57l2.04-23.83c.68-2.04-.68-3.4-2.04-3.4zm-40.16 23.15c-2.04 0-3.4.68-3.4 2.72l-1.36 35.36c0 27.23 1.36 50.36 4.76 67.38 0 1.37.68 2.05 3.4 2.05a3.74 3.74 0 0 0 2.05-3.4c-3.44-17-5.48-38.8-4.8-65.34l2.04-35.4c0-2.03-1.36-2.72-2.72-3.4zm-25.18 13.6c-2.04-.67-2.72 0-3.4 2.05l-2.04 36.07a365.5 365.5 0 0 0 6.8 79.6l1.36 2.05 2.04.68c2.05-.68 2.73-2.04 2.05-3.4-5.45-24.5-6.8-50.37-6.8-78.95l2.03-35.4c0-2.05-.68-2.73-2.04-2.73zm-32 22.47c-2.03 0-3.4 1.36-3.4 2.73l.7 42.87c1.35 32 4.07 59.22 7.47 81.67a3.74 3.74 0 0 0 3.4 2.08c2.05 0 2.05-1.37 2.05-3.4a581 581 0 0 1-7.5-80.32l-.67-42.87c0-1.38-.65-2.74-2-2.74zm-25.16 21.1c-2.05 0-2.73.68-2.73 2.05l-1.36 44.2c0 33.35 3.4 62.62 8.88 88.5a3.75 3.75 0 0 0 3.4 2.02c2.04-.68 2.72-2.04 2.04-3.4-5.43-25.18-8.84-54.45-8.84-87.12l1.36-43.55c0-1.36-.67-2.04-2.7-2.72zm-29.96 18.38c-1.36 0-2.72.68-2.72 2.7v49.7c2.04 38.12 6.8 68.07 14.97 90.53.65 1.36 1.33 2.04 3.4 1.36 1.33-.65 2.02-1.33 1.33-3.4-7.48-21.76-12.24-51.7-14.3-88.46v-49.7c0-2.02-.67-2.7-2.7-2.7z"/><path fill="#FFE700" d="M314.3 389.3a104.43 104.43 0 0 0 21.1-10.9c12.92-8.18 15.65-16.34 8.16-22.46-7.5-6.13-14.3-2.73-21.1 10.88-3.4 7.5-6.8 14.3-8.17 22.47z"/><path d="M349.7 364.8c.66-4.1-.7-7.5-4.1-10.9-4.1-3.4-7.5-4.1-12.25-3.4-5.45 1.35-10.9 8.16-15.65 19.72-2.04 3.4-3.4 9.54-6.12 18.4l.67 2.7 2.73.7c21.77-8.18 33.34-17.7 34.7-27.23zm-4.78-1.38v.68c-1.36 6.8-10.2 13.62-26.54 20.42 4.76-17 10.88-26.54 17.02-28.58 1.35-.68 4.07 0 6.12 2.04l3.4 5.44zM50.9 528.12c0-1.35-1.36-2.7-2.72-2.03-2.05 0-2.73.65-2.73 2.7l3.4 43.55c4.1 34.04 10.2 61.94 19.06 85.76.7 2.05 2.07 2.73 3.44 1.36 2.04 0 2.04-1.35 1.36-3.4-8.18-23.13-14.98-51.04-18.4-84.4l-3.4-43.55zm283.8-117.06c-1.35-2.03-2.03-2.72-3.4-1.35-11.56 6.16-25.85 9.56-44.23 10.24-2.04.67-2.04 2.04-2.04 3.4 0 2.04.68 2.72 2.72 2.04 18.37-.7 34.03-4.1 45.6-10.9 2.04-1.35 2.04-2.03 1.36-3.4zM258.48 456c.68 1.35 2.05 2.7 3.4 2.7 19.74-1.35 42.2-6.12 68.06-16.33 2.05-.68 2.73-2.04 2.05-3.4-.7-2.04-2.08-2.72-3.4-1.36-25.9 9.56-48.36 15-67.4 15-1.37 0-2.74 1.37-2.74 3.4zm-24.5 30.6c0 1.38 1.36 2.73 3.4 2.73 32.67 0 61.26-4.76 85.08-12.93 2.04 0 2.73-1.36 2.04-3.4-.68-1.36-2.04-2.04-3.4-1.36-23.82 8.17-51.73 11.57-83.72 11.57-2.04 0-3.4 1.4-3.4 3.4zm-27.9 34.73c0 2.03.68 2.72 2.72 2.72 27.9 1.36 61.94-2.04 102.1-11.58 1.35-.67 2.03-1.35 1.35-2.72 0-2.03-1.36-2.72-3.4-2.03l-34.03 6.8-66.02 4.08c-2.04 0-2.72 1.36-2.72 2.73zm-28.58 34.03c0 2.03 1.35 2.72 2.7 2.72l80.33-4.1 34.7-7.47c2.05-.65 2.73-1.33 2.73-2.7-.68-2.03-2.04-2.72-3.4-2.03l-35.4 6.8-78.94 4.08c-1.37 0-2.05 1.36-2.73 2.73z"/><path fill="#858585" d="M79.48 275.63l-16.33-14.98c-18.38 11.57-36.07 34.03-53.77 66.7-35.4 66.02-53.77 151.77-53.77 257.26h213.74c0-105.46-17.7-191.2-53.08-257.23-10.9-20.42-23.14-37.43-36.76-51.73z"/><path d="M64.5 257.25c-1.35-.68-2.03-.68-3.4 0-19.73 13.6-38.8 37.43-56.48 70.1-34.7 66.02-52.4 151.77-52.4 257.26 0 2.08 1.35 3.44 3.4 3.44 2.72 0 3.4-1.36 3.4-3.4 0-97.32 15.65-178.3 46.28-242.3 17.7-35.38 36.75-61.25 57.85-77.58 20.42 16.33 39.48 42.2 56.5 77.58 31.3 64 46.27 144.98 46.27 242.3 0 2.04 1.37 3.4 3.4 3.4 2.73 0 3.4-1.36 3.4-3.4 0-105.5-17.7-191.25-52.4-257.27-11.57-20.42-23.14-38.1-36.75-53.1l-19.06-17z"/><path d="M63.15 284.47c-2.04 0-3.4.68-3.4 2.05L54.3 415.15c-3.4 102.77-4.08 200.1-2.04 294.02 0 1.36.68 2.73 2.72 2.73a2.93 2.93 0 0 0 2.73-2.73l-1.34-95.96c0-91.2 2.05-181.7 6.8-272.9 3.4 98.7 6.14 189.9 6.14 272.9l-1.37 95.97a2.93 2.93 0 0 0 2.72 2.72c2.04 0 2.72-1.38 2.72-2.74 1.36-92.57 1.36-191.26-2.04-294.03L65.88 286.5c-.68-1.37-1.36-2.05-2.72-2.05z"/><path d="M37.3 289.24c-1.37-1.37-2.05-2.04-3.42-1.37-2.04.7-2.72 2.05-2.04 4.1l6.13 11.56a157.37 157.37 0 0 0 21.1 26.54c1.36 1.37 2.72 1.37 4.08 0 1.36-.68 1.36-2.72 0-3.4-8.17-8.17-14.97-17-20.42-25.86l-5.44-11.54zm-16.35 23.14c-.68-2.04-2.04-2.04-4.08-1.36-2.05 1.36-2.05 2.04-1.36 4.08l13.64 21.78c9.53 14.97 19.06 26.54 27.9 34.72 2.04.67 2.73.67 4.1 0 1.35-.7 1.35-2.73 0-4.1-8.86-7.48-18.4-19.73-28.6-34.02l-11.57-21.1zM3.95 343c-.7-2.04-2.74-2.04-3.4-1.35-2.06 1.35-2.74 2.04-1.38 4.08l14.3 20.4c12.25 15.68 26.54 31.32 42.2 44.93l4.08-.68c1.36-1.35 1.36-2.04 0-4.07a274.73 274.73 0 0 1-41.52-42.86L3.93 343zM57.7 452.58c-13.6-10.9-29.26-26.54-46.28-46.95l-22.46-27.9-3.4-.7c-1.36.7-1.36 2.05-.68 4.1l22.46 27.9C24.36 429.45 40.7 445.77 54.3 456h3.4c2.05-2.05 2.05-3.42 0-3.42zm-1.36 43.56C37.3 481.17 18.24 462.8-.16 441.7l-21.77-28.6c-.68-1.35-2.04-1.35-3.4-.67-2.04.68-2.04 2.04-.68 3.4l21.75 29.26c19.05 21.76 38.1 40.8 57.17 55.8 2.04.7 3.4.7 4.08-.7.7-1.36.7-2.7-.67-4.08zm0 46.96c1.37-1.35 1.37-2.72 0-4.08-17.7-14.3-37.43-32.67-58.53-55.8l-28.55-32.68h-4.1a4.33 4.33 0 0 0 0 4.08l28.6 32c21.78 23.82 41.52 42.87 59.2 57.16l3.4-.68zm0 37.44c.68-1.36.68-2.73-.68-4.1-21.1-14.28-42.2-34.7-64.66-59.88l-26.54-33.35h-4.08c-1.36.7-1.36 1.4-.68 3.4L-13.08 520a382.28 382.28 0 0 0 65.34 61.25l4.08-.66zm0 34.7c.68-1.35 0-2.72-1.36-4.08C35.24 599.6 12.1 581.2-13.76 554l-32.67-37.44h-4.08c-2.08.68-2.08 2.04-.7 3.4l33.34 37.43c26.54 27.2 49.68 46.94 70.1 59.2 2.04.7 2.72 0 4.08-1.38z"/><path fill="#FFE700" d="M63.15 285.84c3.4-8.17 6.8-15.66 8.17-22.46 4.08-14.98 1.36-23.15-8.17-23.15-10.2 0-13.6 8.17-8.85 23.15 2.04 6.8 4.76 14.3 8.85 22.46z"/><path d="M63.15 238.2c-5.44 0-9.53 1.36-11.57 4.76-2.72 5.44-2.72 13.6 1.36 25.86l6.8 17.7c1.37 1.36 2.05 2.04 3.4 2.04l2.05-2.04c10.86-20.42 13.6-34.7 8.14-43.56-2.04-3.4-5.45-4.77-10.2-4.77zm-6.8 8.16c1.36-2.04 3.4-3.4 6.8-3.4a7.14 7.14 0 0 1 6.12 3.4l.68 6.13c0 7.45-2.03 16.3-6.8 26.5-5.44-10.2-8.17-19.05-8.17-26.53l1.36-6.14zm0 402.24c.67-1.36 0-2.73-.7-3.4-21.77-12.25-44.9-29.96-70.1-51.73l-31.3-30.63h-3.4c-1.36 1.36-1.36 2.73-.7 4.08l32 29.95c25.2 23.15 48.33 40.16 70.8 53.1l3.4-1.37zm35.38-360.72c-1.36-.68-2.72 0-3.4 1.36-4.76 12.25-13.6 24.5-25.86 37.43-1.36.68-1.36 2.72 0 3.4 1.36 1.37 2.72 1.37 4.08 0 12.93-12.93 21.78-25.86 27.23-38.1 0-2.05 0-2.73-2.05-4.1zm17.02 23.14c-2.04-.68-3.4-.68-4.08 1.36-12.94 24.5-26.55 42.2-40.16 55.13-1.33 1.4-1.33 3.4 0 4.1 1.4.7 2.75.7 3.4 0 14.3-13.6 28.6-32 41.55-56.5 1.36-2.02.68-2.7-.68-4.06zm16.33 30.63c-1.36-.68-2.72-.68-3.4 1.36l-14.3 20.44a274.6 274.6 0 0 1-41.5 42.9c-1.37 2.02-1.37 2.7 0 4.06l4.07.67c24.5-21.77 43.56-43.55 55.82-65.33 1.35-2.04 1.35-2.73-.7-4.08zm14.3 35.38l-3.4.7c-23.83 32.65-46.3 57.84-68.06 74.85-1.37.7-1.37 1.37-.7 3.4h4.1c13.6-10.2 29.26-26.54 46.96-46.95l22.46-27.9c.68-2.05.68-3.4-1.36-4.1zm11.57 35.4c-1.36-.68-2.73-.68-3.4.68l-21.78 28.6c-18.38 21.1-37.44 39.5-57.17 54.46-1.37 1.37-1.37 2.73-.68 4.1 1.36 1.35 2.04 1.35 4.08.67 19.74-14.97 38.8-34.02 57.17-55.8l22.46-29.26c1.36-1.37 1.36-2.73-.68-3.4zm8.85 38.1h-3.4c-30.63 36.77-59.22 66.03-87.13 88.5-1.35 1.34-1.35 2.72 0 4.07l3.4.68c27.9-22.45 57.18-52.4 87.13-89.16 1.36-2.04 1.36-2.72 0-4.08zm5.44 32.67c-2.04-1.35-3.4-1.35-4.08 0l-26.55 33.36c-22.43 25.2-44.2 45.6-64.63 59.9-2.04 1.35-2.04 2.72-.68 4.08l4.1.67c21.1-15.6 42.86-35.35 64.64-61.22l27.22-33.35c1.36-2.03.68-2.7 0-3.4zm4.08 40.85l-4.08.68c-35.4 41.52-67.38 70.78-95.3 86.43-1.34 1.37-2.02 2.73-.67 4.08.68 1.37 2.05 2.05 4.1 1.37 29.25-17.7 61.24-46.93 95.95-88.45 2.05-1.36 2.05-3.4 0-4.08zm2.05 42.2c-1.37-.68-2.05-.68-3.4 0-34.04 35.38-66.7 61.25-98.02 78.94-1.35.65-2.03 2.02-.68 3.4.68 2.02 2.05 2.7 3.4 1.34 32.68-19.06 66.03-44.93 98.7-79.64 1.36-1.34 1.36-2.7 0-4.07z"/><path fill="#E61F19" d="M93.1 74.17c-4.77 42.88-4.77 92.56 1.36 148.37 12.25 113.66 44.92 204.18 99.36 274.28l134.77-5.44c-57.2-66.7-93.96-157.22-109.6-269.52-8.18-56.5-10.2-106.17-6.8-149.05L93.1 74.2z"/><path d="M214.24 70.76l-2.04-1.36-119.1 1.36c-2.05 0-3.4.68-3.4 2.72-4.77 44.24-4.77 94.6 2.03 151.1 12.26 113.66 45.6 204.87 100.05 273.6.68 1.36 1.36 2.05 2.04 2.05l135.44-5.45 2.73-2.04-.7-3.4c-55.8-66.02-91.9-155.18-108.2-266.8-8.2-55.8-10.9-105.5-7.5-149.05l-1.38-2.76zm-5.44 5.45l-1.36 29.97c0 58.54 6.12 115.7 19.06 171.5 19.05 85.77 51.04 155.88 95.96 210.33l-126.6 5.43c-39.47-51.05-67.37-113.66-84.4-189.9C99.9 251.13 93.8 195.33 93.8 136.1c0-22.46 0-42.2 2.04-58.53L208.8 76.2z"/><path d="M157.75 113.64c0-1.36-1.35-1.36-3.4-1.36l-25.18 4.1-13.6-.7c-2.05 0-3.42 0-3.42 2.04 0 2.05 0 2.73 2.04 3.4l14.95.7 27.23-4.77c2.02 0 2.02-1.36 1.34-3.4z"/><path d="M135.98 95.95c-1.37-.68-2.73.68-3.4 2.04l-2.73 33.32c0 24.5 5.44 43.56 16.33 59.2.68 1.37 2.04 1.37 3.4.7 1.37-.7 2.05-2.05.7-4.1-9.54-13.6-15-32.66-15-56.48l2.74-31.3c.68-2.05 0-2.73-2.04-3.4z"/><path d="M153 129.3c-1.37-.7-2.05 0-3.4 1.36L144.13 147a56.1 56.1 0 0 0-15.65 9.52c-9.54 8.85-14.98 16.33-14.98 22.46l.68 2.72c0 2.04 2.04 3.4 5.44 4.08 8.85 1.37 18.38-10.2 28.6-34.7l22.45-.7c5.43 2.74 8.84 6.14 9.52 10.9 1.34 5.45-1.4 11.57-7.5 19.74l-16.34 19.74-3.4 2.04c-4.78 6.13-6.8 11.57-5.46 14.97 2.06 4.77 5.46 6.8 12.27 6.8 2.04 0 2.72-.67 2.72-2.03 0-2.05-.7-3.4-2.74-3.4-4.1 0-6.8-1.37-7.5-3.4-.67-1.37.7-4.1 5.45-8.17l2.06-3.4 19.05-21.1c6.14-8.85 8.18-16.34 7.5-23.15-1.36-6.12-6.13-10.9-13.6-14.3l-21.8-1.35 4.1-11.57v-1.36l-2-2.04zm-34.04 49.68c0-4.08 4.76-10.9 13.6-17.7l8.18-6.12c-8.17 17.7-14.97 26.54-20.42 25.18h-1.36v-1.36zm55.8 91.2c4.1-5.44 6.13-10.2 6.8-16.33.7-7.5-2.7-14.3-10.2-17.7h-19.73c-3.4 2.72-6.8 6.13-8.85 10.2a23.96 23.96 0 0 0-3.4 12.26c0 2.76 2.04 4.8 5.44 6.16l6.8-.68c4.77-3.4 8.17-11.57 10.22-24.5v-.68c2.04-.7 4.08 0 6.8 1.35 5.45 3.4 7.5 8.16 7.5 13.6-.7 4.77-2.73 8.17-6.13 12.94-2.7 4.06-6.8 6.8-10.2 8.83-1.35 0-2.03 1.36-1.35 3.4 0 1.36 1.37 1.36 3.4 1.36 4.77-1.38 9.54-5.47 12.94-10.23zm-27.22-21.78c2.05-2.72 4.1-5.44 7.5-6.8l.67-1.37c-.65 10.9-3.4 17.02-6.8 19.75h-2.7l-1.35-2.73v-.68c0-2.04 1.35-4.76 2.7-8.17zm21.1 44.24c-.68-2.04-2.72-2.04-4.08-2.04l-1.36 2.72v1.36c5.44 11.57 9.53 21.78 11.57 31.3-12.25.7-19.74 3.4-21.78 7.5v3.4c0 2.72 1.33 4.77 5.4 7.5 3.4 2.03 7.5 2.7 12.27 2.7 5.43.7 8.83-.67 10.88-3.4l1.36-5.43-1.35-7.5h4.08c8.85.7 13.6 2.73 14.3 4.1v1.35c0 2.05-1.37 4.77-6.14 6.8-.7.7-1.37 1.37-1.37 2.05v1.36c.68 1.4 1.36 2.08 3.4 1.4 7.5-2.05 10.9-6.8 10.22-14.3-.7-3.4-6.13-6.13-15.66-6.8l-10.2-.7c-2.06-9.53-6.14-20.42-11.6-33.35zm8.85 45.6l-.7 2.04-6.8 1.37c-4.1 0-6.8-.68-8.86-2.05l-2.73-2.72v-.68c1.38-2.72 6.8-4.76 17.7-4.76l1.37 6.8z"/><path d="M187.7 297.4c-1.36-1.36-2.04-2.04-3.4-1.36l-15.66 3.4c-2.04 0-2.72.7-2.72 2.73 0 1.36.68 2.04 2.72 2.04 7.5 0 14.3-1.33 17.7-3.4 2.04-1.33 2.72-2 1.36-3.4zm32.67 90.53l-6.8-5.45c-5.45-1.36-13.62-.67-25.2 4.08l10.22-22.46.65-.68-1.36-2.04c-1.36-.68-2.04-.68-3.4 0-5.45 4.1-11.58 6.13-18.38 4.1-1.36-.7-3.4 0-3.4 2.03 0 1.4 0 2.75 2.04 3.4h4.76l10.9-2-10.9 22.45-.68.68.68 2.73h3.4c4.1-2.04 8.85-3.4 13.62-5.44l15.65-1.36 2.72 2.72c1.36 1.36.67 3.4-1.37 5.45-2.04 3.4-6.8 6.13-13.6 8.85l-16.34 3.4c-.7 0-2.04.7-2.04 1.37-1.36 1.36-1.36 2.05-.68 2.73l22.44 40.84c4.08 7.47 10.2 12.92 17.02 17h21.1c6.12-2.7 9.52-11.57 10.9-27.9l.67-27.23c0-1.37-1.36-2.05-2.7-2.05-.7 0-2.05 0-2.05 1.37l-.68 1.37c0 10.87 0 20.4-.7 29.92-2.03 11.58-4.07 18.38-7.48 20.43l-17-1.37c-6.14-2.72-10.9-8.16-14.3-14.3l-19.75-36.74 17-4.77c6.82-2.72 10.9-6.13 13.62-9.53l2.05-7.5-.68-4.07z"/><path stroke-miterlimit="100" d="M367 582H5V5h362v577z" fill="none" stroke="#000" stroke-width="10"/></svg>