<svg xmlns="http://www.w3.org/2000/svg" width="372" height="587" viewBox="0 0 372 587"><path fill="#fffaf0" d="M0 0h372v587H0z"/><path fill="#333" d="M72.68 38.78l-1.36-3.4c-1.37-1.37-2.05-2.05-3.4-2.05-1.37 0-2.73.68-3.4 2.04l-2.05 3.4c0 3.4 2.04 4.77 5.44 4.77 3.42 0 4.78-1.36 4.78-4.76zM52.26 29.93c0-3.4-2.04-4.77-5.45-4.77-2.7 0-4.75 1.36-4.75 4.77 0 3.4 2.04 5.44 4.76 5.44 3.42 0 5.46-2.04 5.46-5.44zM44.1 85.06c0-3.4-2.05-4.77-5.45-4.77-2.72 0-4.77 1.35-4.77 4.76 0 3.4 2.05 5.44 4.77 5.44 3.4 0 5.44-2.04 5.44-5.44zM141.42 27.2c0-3.4-1.36-5.44-4.76-5.44-2.73 0-4.77 2.04-4.77 5.45 0 2.73 2.03 4.77 4.76 4.77 3.4 0 4.76-2.04 4.76-4.76zM108.07 29.25c0-3.4-1.36-5.45-4.76-5.45-3.4 0-4.76 2.04-4.76 5.45 0 2.72 1.36 4.76 4.77 4.76 3.4 0 4.77-2.03 4.77-4.75zM223.77 9.5c-3.4 0-4.76 2.05-4.76 5.46 0 3.4 1.37 4.76 4.77 4.76 3.4 0 4.77-1.36 4.77-4.76 0-3.4-1.36-5.45-4.77-5.45zM185.66 31.3c0-3.4-2.04-5.46-5.45-5.46-2.7 0-4.07 2.05-4.07 5.45 0 2.7 1.37 4.75 4.08 4.75 3.42 0 5.46-2.04 5.46-4.76zM36.6 122.5c0-3.4-1.35-5.45-4.76-5.45-1.36 0-2.72.67-3.4 2.04-.68.67-1.36 1.35-1.36 3.4l1.36 3.4c.68 1.35 2.04 1.35 3.4 1.35 3.4 0 4.77-1.36 4.77-4.76zM59.06 154.48c0-3.4-1.35-4.77-4.76-4.77-1.36 0-2.04.7-3.4 1.38-1.36 1.35-1.36 2.04-1.36 3.4l1.36 4.08 3.4 1.36c3.4 0 4.76-2.04 4.76-5.44zM48.18 181.7c0-3.4-2.05-5.44-5.45-5.44-3.4 0-4.76 2.04-4.76 5.45 0 2.73 1.36 4.08 4.76 4.08 3.4 0 5.45-1.35 5.45-4.07zM35.92 51.7c0-3.4-2.04-5.44-5.44-5.44-2.72 0-4.77 2.04-4.77 5.45 0 3.4 2.06 4.77 4.78 4.77 3.4 0 5.44-1.36 5.44-4.76zM34.57 14.96c0-3.4-2.05-5.45-5.45-5.45-2.72 0-4.1 2.05-4.1 5.46 0 3.4 1.38 4.76 4.1 4.76 3.4 0 5.45-1.36 5.45-4.76zM314.3 19.04l-1.37-3.4-4.08-2.05c-2.73 0-4.08 2.03-4.08 5.44s1.35 4.76 4.08 4.76l4.08-1.36 1.36-3.4zM281.62 25.16l-1.36-3.4-3.4-2.04c-3.4 0-5.45 2.04-5.45 5.44 0 3.4 2.05 4.77 5.46 4.77l3.4-1.36 1.36-3.4zM343.56 38.78c0-3.4-1.36-4.77-4.76-4.77s-5.45 1.37-5.45 4.78c0 3.4 2.04 5.44 5.45 5.44 3.4 0 4.76-2.04 4.76-5.44zM355.8 61.92c0-3.4-2.03-5.45-4.75-5.45-1.36 0-2.04 1.36-3.4 2.04-1.37.7-1.37 2.05-1.37 3.4 0 2.74 1.36 4.78 4.77 4.78 2.72 0 4.76-2.04 4.76-4.76zM240.78 28.57c0-3.4-1.36-5.45-4.76-5.45-2.72 0-4.76 2.04-4.76 5.45 0 2.72 2.04 4.08 4.76 4.08 3.4 0 4.76-1.36 4.76-4.08zM357.17 15.63l-1.36-3.4c-.67-.68-2.7-1.36-3.4-1.36-3.4 0-5.44 1.36-5.44 4.76 0 3.4 2.05 5.45 5.45 5.45l3.4-1.36 1.37-4.1zM322.46 40.82l-1.36-4.1-3.4-1.35c-3.4 0-5.45 1.36-5.45 5.45 0 3.4 2.04 4.76 5.45 4.76 1.36 0 2.04 0 3.4-1.36l1.36-3.4zM352.4 85.06l-2.04-3.4-3.4-1.37c-3.4 0-4.76 1.35-4.76 4.76 0 3.4 1.36 5.44 4.76 5.44l3.4-1.36 2.05-4.08zM328.6 87.1l-1.38-3.4c-1.36-.68-2.03-1.37-4.08-1.37-2.72 0-4.08 1.36-4.08 4.77 0 3.4 1.36 5.44 4.08 5.44l4.08-1.36 1.37-4.08zM352.4 131.34l-2.04-3.4-3.4-2.05c-3.4 0-4.76 2.03-4.76 5.44 0 3.4 1.36 4.76 4.76 4.76l3.4-1.36 2.05-3.4zM339.47 110.24l-.67-3.4c-1.37-1.37-2.73-2.05-4.1-2.05-2.7 0-4.76 2.04-4.76 5.44 0 3.4 2.05 4.76 4.77 4.76l4.1-1.36.67-3.4zM358.53 156.52c0-3.4-2.04-4.77-5.44-4.77-3.4 0-4.78 1.37-4.78 4.77 0 3.4 1.37 4.76 4.77 4.76 3.4 0 5.43-1.36 5.43-4.76zM264.6 14.27c0-3.4-1.36-5.44-4.76-5.44-2.72 0-4.76 2.04-4.76 5.44 0 2.73 2.04 4.77 4.76 4.77 3.4 0 4.77-2.04 4.77-4.77zM165.92 14.96c0-3.4-1.36-5.45-4.76-5.45-2.73 0-4.77 2.05-4.77 5.46 0 3.4 2.03 4.76 4.76 4.76 3.4 0 4.76-1.36 4.76-4.76zM86.97 15.63c0-3.4-2.04-4.76-5.44-4.76-3.4 0-4.77 1.36-4.77 4.76 0 3.4 1.37 5.45 4.77 5.45 3.4 0 5.44-2.04 5.44-5.45zM56.34 52.4c0-3.4-2.04-4.78-5.44-4.78-2.72 0-4.77 1.37-4.77 4.77 0 3.4 2.05 5.43 4.77 5.43 3.4 0 5.44-2.04 5.44-5.44zM35.92 145.63c0-3.4-2.04-4.76-5.44-4.76-2.72 0-4.77 1.35-4.77 4.76 0 3.4 2.06 5.44 4.78 5.44 3.4 0 5.44-2.04 5.44-5.44zM36.6 225.26c0-3.4-1.35-5.44-4.76-5.44-3.4 0-4.76 2.04-4.76 5.44 0 2.73 1.36 4.76 4.76 4.76 3.4 0 4.77-2.04 4.77-4.76zM65.2 113.64c0-3.4-2.05-4.76-4.77-4.76-3.4 0-4.77 1.36-4.77 4.76 0 3.4 1.36 5.45 4.77 5.45 2.72 0 4.76-2.05 4.76-5.46zM44.77 108.88c0-3.4-2.04-5.45-5.44-5.45-2.73 0-4.1 2.04-4.1 5.45 0 3.4 1.38 4.76 4.1 4.76 3.4 0 5.44-1.36 5.44-4.76zM33.88 74.85c0-3.4-2.04-4.77-5.44-4.77-2.72 0-4.76 1.37-4.76 4.77 0 3.4 2.04 4.77 4.76 4.77 3.4 0 5.44-1.37 5.44-4.77zM206.08 19.72c0-3.4-2.05-4.76-5.45-4.76-2.72 0-4.08 1.35-4.08 4.76 0 3.4 1.36 5.44 4.08 5.44 3.4 0 5.45-2.04 5.45-5.44zM229.9 46.26c0-3.4-2.05-4.76-5.45-4.76-3.4 0-4.76 1.36-4.76 4.76 0 3.4 1.35 4.77 4.75 4.77s5.45-1.37 5.45-4.77zM91.73 51.03c0-3.4-1.36-5.45-4.76-5.45-3.4 0-5.44 2.04-5.44 5.45 0 2.72 2.04 4.76 5.44 4.76 3.4 0 4.77-2.05 4.77-4.77zM122.36 12.9c0-3.4-1.36-4.75-4.76-4.75-3.4 0-5.45 1.36-5.45 4.76 0 2.73 2.04 4.78 5.45 4.78s4.76-2.05 4.76-4.77zM64.5 13.6c0-3.4-2.03-4.77-5.44-4.77-2.72 0-4.76 1.36-4.76 4.76 0 3.4 2.04 4.76 4.76 4.76 3.4 0 5.45-1.36 5.45-4.77zM297.28 11.55l-2.04-3.4-3.4-1.36c-3.4 0-4.77 1.35-4.77 4.75s1.36 5.44 4.76 5.44l3.4-1.37 2.05-4.08zM336.75 13.6l-1.35-3.4c-.7-.7-2.73-1.37-3.4-1.37-3.4 0-5.46 1.36-5.46 4.76 0 3.4 2.05 5.44 5.45 5.44l3.4-1.36 1.35-4.1z"/><path fill="#858585" d="M265.3 79.6c-16.34 10.9-33.36 32-49.7 63.3-34.03 61.94-51.04 142.94-51.04 241.62L139.38 585.3H366.7V384.52c0-98.68-17.02-179.68-50.37-241.6-17-31.32-34.03-52.42-51.04-63.3z"/><path d="M267.33 76.2c-.68-.67-2.72-.67-3.4 0-19.06 12.94-36.75 34.72-53.1 66.7-32.66 61.26-49.67 142.25-49.67 241.62l-25.18 200.1v.68l1.35 2.04c.7.68 1.37 1.36 2.05 1.36H366.7c2.72 0 3.4-.68 3.4-3.4V384.52c0-99.37-17-180.36-49.68-241.6-16.34-32-34.72-53.78-53.1-66.7zm-55.13 80.32c15.65-32.67 34.03-57.85 53.1-73.5 19.73 15.65 38.1 40.83 53.76 73.5 29.95 61.25 44.24 136.8 44.24 228V581.9H143.46l24.5-196.7v-.68c0-91.2 14.97-166.75 44.24-228z"/><path d="M265.3 102.07c-1.37 0-2.06 1.36-2.06 2.72-2.03 38.8-4.08 87.8-5.44 147-3.4 118.43-4.08 231.4-2.72 338.27 0 2.04 1.36 2.72 2.72 2.72 2.05 0 2.73-.7 2.73-2.73l-.68-110.26c0-98.68 2.03-201.45 5.44-309.67 4.07 108.22 6.1 211 6.1 309.68l-.66 110.27c0 2.04.67 2.72 2.7 2.72 1.38 0 2.06-.7 2.06-2.73 2.04-106.86 1.36-219.16-1.36-338.26l-6.13-147c0-1.37-.67-2.73-2.7-2.73z"/><path d="M241.47 106.84c-.68-2.05-1.36-2.73-3.4-2.05-2.05.67-2.73 2.04-1.36 4.08l5.45 11.57c5.44 8.85 12.25 17 19.73 24.5 1.36 1.36 2.73 1.36 4.1 0 1.35-1.36 1.35-2.72-.7-4.08-7.48-6.8-13.6-14.98-18.36-23.83l-5.45-10.2zM237.38 147.67l-11.57-19.74c-1.35-2.04-2.03-2.04-3.4-.68-2.03.68-2.03 2.05-1.35 3.4l12.93 20.43c8.85 14.3 17.7 25.18 26.55 32.66.68 1.37 2.72 1.37 3.4 0 1.36-.68 1.36-2.04 0-3.4-7.5-8.17-16.34-19.05-26.55-32.67zM263.24 221.18c.7-2.04.7-3.4-.67-4.1-14.98-12.92-27.9-26.53-38.8-41.5l-13.6-19.06c-.7-1.36-2.05-2.04-3.4-.68-1.38.68-2.05 2.04-1.38 4.08l13.6 19.06c11.58 14.97 25.2 29.95 39.48 42.2h4.77zM261.2 263.38c1.37-1.37 1.37-2.73 0-3.4-13.6-10.22-27.9-25.2-44.23-44.25l-20.42-26.54c-.68-1.37-2.73-1.37-4.1-.7-1.35 2.05-1.35 3.4 0 4.1l21.1 26.54c16.35 19.73 30.64 34.7 44.25 44.9l3.4-.66zM260.53 305.57c.68-2.04.68-2.72-.7-4.08-18.37-14.3-36.06-31.32-53.07-51.73l-20.42-26.55c-.68-2.04-2.72-2.04-4.1-.68-2.03.68-2.03 2.04-.66 3.4 0 2.05 6.8 10.9 21.1 27.23 17 20.42 35.38 38.1 54.45 52.4h3.4zM176.13 257.93l-2.72.68c-.68 1.37-.68 2.05 0 3.4l26.55 30.64c21.1 22.46 40.16 40.16 56.5 53.77l3.4-.67.68-2.05-.7-2.04c-16.32-12.25-35.38-30.62-55.8-52.4L177.5 258.6c-.7 0-.7-.67-1.37-.67zM172.73 289.24c-.68-1.37-2.04-2.04-3.4-.68-1.37 1.36-2.05 2.72-.7 4.08l25.2 31.3c21.1 24.5 42.2 43.57 61.93 57.86l4.08-.68c.7-2.04.7-2.72-1.36-3.4-19.73-14.3-39.48-33.35-60.57-57.18l-25.17-31.3zM162.52 320.55l-4.1-.68c-.67 1.36-1.34 2.72 0 4.08l31.32 36.07c24.5 25.2 46.97 44.23 66.02 55.13 2.04.7 2.72.7 4.08-.7.7-2.02.7-3.4-1.36-4.07-18.37-11.56-40.84-29.26-64.66-54.45l-31.3-35.38z"/><path fill="#FFE700" d="M265.3 104.1l9.52-22.45c3.4-14.97.68-22.45-9.53-22.45-9.54 0-12.26 7.48-8.18 22.45 1.36 7.5 4.76 14.98 8.17 22.46z"/><path d="M275.5 87.1c4.08-11.57 4.08-19.74 1.36-24.5-2.04-4.1-5.45-6.13-11.57-6.13-4.77 0-8.18 2.04-10.9 6.13-3.4 4.76-2.73 12.93.68 24.5 2.72 6.8 5.45 12.93 8.16 18.38.7 1.36 1.37 1.36 2.05 1.36 2.03 0 2.7 0 2.7-1.37l7.5-18.37zm-10.2-25.18c3.4 0 5.44.68 6.8 2.72l1.35 6.8c0 6.13-2.7 14.98-8.16 26.55-4.77-11.58-7.5-20.43-7.5-26.56l1.36-6.8c1.37-2.04 3.4-2.72 6.13-2.72zM163.88 364.1c-1.36-.68-2.72-.68-4.08 0-1.37 1.37-1.37 3.4 0 4.1l29.94 29.25c23.14 21.1 44.92 37.43 66.02 49 2.04.7 2.72.7 4.08-.67.7-2.04.7-3.4-1.36-3.4-20.42-12.26-42.2-27.9-65.34-49.7l-29.26-28.58zM148.9 391.32c-.68-.68-2.72-.68-4.08 0-.68 1.37-.68 3.4 0 4.1l34.03 31.3c27.23 22.46 53.1 39.48 77.6 50.37 1.35.67 3.4 0 4.08-.7 0-2.04 0-3.4-2.05-4.08-24.5-10.2-49-27.23-76.23-49.68l-33.34-31.3zM138.02 417.87c-.7-1.36-2.04-1.36-3.4 0-2.05 1.37-2.05 2.72 0 4.1l22.46 20.4c17.7 14.98 32.66 26.54 46.27 34.03l3.4-.68c1.37-2.03.7-3.4-.67-4.08-12.94-7.5-27.9-19.06-45.6-33.35l-22.46-20.43zM293.2 104.8c-1.37-.7-2.73 0-3.4 2.04-4.77 10.9-12.26 22.46-24.5 34.03-.7 2.04-.7 3.4 0 4.08 1.35 1.36 2.7 1.36 3.4 0 12.93-12.25 21.77-24.5 26.54-36.07 0-2.04 0-3.4-2.04-4.1zM308.85 127.25c-1.36-1.36-3.4-1.36-3.4.68-12.94 23.15-25.2 40.16-38.1 52.4-2.06 1.37-2.06 2.05 0 3.4.66 1.38 2.7 1.38 3.4 0 13.6-12.24 26.53-29.93 38.78-53.07 1.36-1.36 1.36-3.4-.68-3.4zM325.2 155.84c-2.06-1.36-3.4-.68-4.1.68l-12.93 19.05c-12.25 14.98-25.18 28.6-39.48 41.52-1.36 1.36-1.36 2.7-.7 4.08h4.1c23.14-20.42 41.5-40.84 53.76-61.26.68-1.36 0-2.72-.67-4.08zM338.8 188.5l-4.1.7-20.4 26.53c-16.34 19.06-31.3 34.04-44.24 44.24-1.37.68-1.37 2.04 0 3.4l3.4.68c21.1-16.33 42.87-40.15 66-71.46.7-.7.7-2.05-.66-4.1zM349 222.54c-2.04-1.36-2.72-1.36-3.4.68l-21.1 26.54c-17 20.42-35.4 37.44-53.1 51.73-1.34 1.35-1.34 2.03-.66 4.07h4.08c18.38-14.3 36.75-32 54.44-52.4l20.43-27.23c.66-1.36.66-2.72-.7-3.4zM357.17 258.6h-4.08c-27.9 34.72-55.14 62.63-81.7 83.05l-.66 2.04.67 2.03 3.42.68c17-13.6 35.4-31.3 56.5-53.76l26.53-30.62c1.37-1.37.68-2.73-.68-3.4zM361.94 288.56l-3.4.68-25.87 31.3c-20.42 23.83-40.84 42.88-60.58 57.18-1.36.68-1.36 1.36-.7 3.4l4.1.7c19.74-14.3 40.83-33.37 61.25-57.87l25.87-31.3c.68-1.37.68-2.73-.7-4.1zM272.77 410.4c-1.36 1.35-2.03 2.03-1.36 4.07.7 1.37 2.74 1.37 4.1.68 19.73-10.9 40.83-29.94 66-55.13l31.33-36.07c.68-.68.68-2.72 0-4.08l-4.1.68-31.3 35.4c-24.5 25.17-45.6 42.87-64.66 54.44zM271.4 445.77c.7 1.37 2.05 1.37 3.42.7 21.1-11.6 43.56-27.92 67.38-49.02l29.27-29.26c1.36-1.38 1.36-2.73-.7-4.1-.67-.68-2.03-.68-3.4 0l-28.57 28.6c-23.82 21.77-45.6 37.42-66.7 49.68-1.36 0-1.36 1.36-.7 3.4zM271.4 476.4c0 .7 2.05 1.37 3.42.7 24.5-10.9 50.37-27.92 77.6-50.38l33.34-31.3c1.36-.7 1.36-2.73 0-4.1-.68-.68-2.05-.68-3.4 0L349 422.65c-26.54 22.45-52.4 39.47-76.9 49.68-1.36.68-2.05 2.04-.7 4.08zM426.6 394.05c-.7-1.36-2.05-1.36-3.4 0l-42.9 38.12c-31.98 27.9-61.24 49-85.06 63.3-1.36 1.35-2.04 2.04-.68 4.07l3.4.7c24.5-14.3 53.76-36.08 86.43-64l42.2-38.1c1.35-.7 1.35-2.72 0-4.1zM426.6 434.88c-.7-1.35-2.05-1.35-3.4 0L380.3 473c-31.98 27.9-61.24 48.33-85.06 62.62-1.36 1.35-2.04 2.72-.68 4.08l3.4.67c24.5-13.6 53.76-35.38 86.43-63.28l42.2-38.13c1.35-1.36 1.35-2.72 0-4.1zM426.6 475.72l-3.4-.68-42.9 38.1c-31.98 27.92-61.24 49.03-85.06 63.3-1.36 1.37-2.04 2.05-.68 3.42l3.4 1.35c24.5-14.28 53.76-35.38 86.43-63.28l42.2-38.8c1.35-1.35 1.35-2.72 0-3.4z"/><path fill="#858585" d="M246.23 386.56c-70.1 25.87-139.53 79.63-208.94 158.6l161.97 140.2C268 606.4 310.9 530.15 326.54 456.65c5.45-23.13 7.5-44.23 6.13-63.3l-2.73-22.45c-21.1-2.7-49 2.73-83.7 15.66z"/><path d="M35.24 547.87l4.77-.7C104 473.7 167.97 423.33 234 395.43c35.4-15 66.7-22.47 93.92-21.1l1.36 25.85c0 33.36-6.8 69.43-22.45 108.9-21.77 56.5-59.2 115.03-110.25 174.23l-.68 2.05.68 2.72 5.44-.68c68.74-78.96 110.93-155.2 127.94-228 5.45-23.15 7.5-44.25 6.8-64.67l-3.4-24.5c0-2.04-.67-2.72-2.03-2.72-23.8-2.7-53.08 3.4-88.47 16.33-70.1 27.23-138.84 79.64-207.6 159.27-1.35 2.05-1.35 2.73.02 4.77z"/><path d="M314.98 388.6c-1.37-.67-2.73-.67-4.1 0l-87.8 93.93C153 557.4 88.34 630.9 28.45 702.37c-1.36 2.04-.68 2.72.68 4.07l3.4-.67c74.87-89.16 157.22-181.04 245.7-274.97C199.95 530.17 121 624.1 40.7 713.25l-1.37 1.36c0 1.38.68 2.05 1.36 2.73 1.35 1.37 2.7 1.37 4.08 0 61.93-69.4 125.22-144.28 191.24-223.9l79.64-100.74c.67-1.38 0-3.4-.68-4.1z"/><path d="M290.47 372.27c-2.04-.67-2.72 0-3.4 2.04l-3.4 12.94c-2.04 10.9-2.72 21.8-2.04 34.03 0 1.37 1.36 2.05 3.4 2.05l2.72-2.72c-1.36-11.57-.68-21.78.68-32.67l3.4-12.25c.68-1.37 0-2.05-1.36-3.4zM262.57 379.08c-1.36-.68-2.73 0-3.4 2.04l-4.1 24.5c-2.03 18.38-3.4 33.35-1.35 45.6l2.72 2.05c1.36 0 2.04-.7 2.04-2.73-.68-11.57-.68-25.87 2.05-44.23l4.08-23.82c0-1.36 0-3.4-2.03-3.4zM229.9 391.32c-2.05 0-2.73 0-3.4 2.05l-2.73 25.18c-.68 20.42 0 40.84 3.4 61.26 0 1.37.68 2.73 2.73 2.73 1.36-.68 2.72-2.04 2.04-3.4-2.73-19.74-3.4-40.16-2.04-60.57l2.04-23.83c.68-2.04-.68-3.4-2.04-3.4zM189.74 414.47c-2.04 0-3.4.68-3.4 2.72l-1.36 35.38c0 27.23 1.36 50.36 4.76 67.38 0 1.37.68 2.05 3.4 2.05 1.37-.67 2.05-2.04 2.05-3.4-3.42-17-5.46-38.8-4.78-65.33l2.04-35.4c0-2.03-1.36-2.72-2.72-3.4zM164.56 428.08c-2.04-.68-2.72 0-3.4 2.04l-2.04 36.07c-.7 28.58 2.04 55.8 6.8 79.63l1.36 2.04 2.04.68c2.05-.68 2.73-2.04 2.05-3.4-5.45-24.5-6.8-50.37-6.8-78.95l2.03-35.4c0-2.04-.68-2.72-2.04-2.72zM132.57 450.54c-2.04 0-3.4 1.36-3.4 2.73l.68 42.87c1.36 32 4.08 59.22 7.48 81.67.7 1.38 2.05 2.06 3.4 2.06 2.05 0 2.05-1.37 2.05-3.4-3.4-21.1-6.8-48.32-7.5-80.32l-.67-42.87c0-1.37-.67-2.73-2.03-2.73zM107.4 471.64c-2.05 0-2.73.68-2.73 2.05l-1.36 44.22c0 33.35 3.4 62.62 8.86 88.48.68 1.36 2.04 2.04 3.4 2.04 2.04-.68 2.72-2.04 2.04-3.4-5.44-25.18-8.85-54.45-8.85-87.12l1.36-43.56c0-1.36-.67-2.04-2.7-2.72zM77.44 490.02c-1.36 0-2.72.68-2.72 2.7v49.7c2.04 38.12 6.8 68.07 14.97 90.53.67 1.36 1.35 2.04 3.4 1.36 1.35-.67 2.04-1.35 1.35-3.4-7.48-21.78-12.24-51.72-14.3-88.48v-49.7c0-2.02-.67-2.7-2.7-2.7z"/><path fill="#FFE700" d="M314.3 389.3c7.48-2.74 14.96-6.82 21.1-10.9 12.92-8.18 15.65-16.34 8.16-22.46-7.5-6.13-14.3-2.73-21.1 10.88-3.4 7.5-6.8 14.3-8.17 22.47z"/><path d="M349.7 364.8c.66-4.1-.7-7.5-4.1-10.9-4.1-3.4-7.5-4.1-12.25-3.4-5.45 1.35-10.9 8.16-15.65 19.72-2.04 3.4-3.4 9.54-6.12 18.4l.67 2.7 2.73.7c21.77-8.18 33.34-17.7 34.7-27.23zm-4.78-1.38v.68c-1.36 6.8-10.2 13.62-26.54 20.42 4.76-17 10.88-26.54 17.02-28.58 1.35-.68 4.07 0 6.12 2.04l3.4 5.44zM50.9 528.13c0-1.36-1.36-2.72-2.72-2.04-2.05 0-2.73.67-2.73 2.7l3.4 43.57c4.1 34.04 10.2 61.94 19.06 85.76.7 2.04 2.05 2.72 3.42 1.35 2.04 0 2.04-1.35 1.36-3.4-8.17-23.13-14.97-51.04-18.38-84.4l-3.4-43.55zM334.7 411.06c-1.35-2.03-2.03-2.72-3.4-1.35-11.56 6.14-25.85 9.54-44.23 10.22-2.04.67-2.04 2.04-2.04 3.4 0 2.04.68 2.72 2.72 2.04 18.37-.7 34.03-4.1 45.6-10.9 2.04-1.35 2.04-2.03 1.36-3.4zM258.48 456c.68 1.35 2.05 2.7 3.4 2.7 19.74-1.35 42.2-6.12 68.06-16.33 2.05-.68 2.73-2.04 2.05-3.4-.7-2.04-2.06-2.72-3.4-1.36-25.88 9.54-48.34 14.98-67.4 14.98-1.35 0-2.72 1.37-2.72 3.4zM233.98 486.6c0 1.38 1.36 2.73 3.4 2.73 32.67 0 61.26-4.76 85.08-12.93 2.04 0 2.73-1.36 2.04-3.4-.68-1.36-2.04-2.04-3.4-1.36-23.82 8.17-51.73 11.57-83.72 11.57-2.04 0-3.4 1.37-3.4 3.4zM206.08 521.33c0 2.03.68 2.72 2.72 2.72 27.9 1.36 61.94-2.04 102.1-11.58 1.35-.67 2.03-1.35 1.35-2.72 0-2.03-1.36-2.72-3.4-2.03l-34.03 6.8-66.02 4.08c-2.04 0-2.72 1.36-2.72 2.73zM177.5 555.36c0 2.03 1.35 2.72 2.7 2.72l80.33-4.1 34.7-7.47c2.05-.67 2.73-1.35 2.73-2.72-.68-2.03-2.04-2.72-3.4-2.03l-35.4 6.8-78.94 4.08c-1.37 0-2.05 1.36-2.73 2.73z"/><path fill="#858585" d="M79.48 275.63l-16.33-14.98c-18.38 11.57-36.07 34.03-53.77 66.7-35.4 66.02-53.77 151.77-53.77 257.26h213.72c0-105.48-17.7-191.23-53.08-257.25-10.9-20.42-23.14-37.43-36.76-51.73z"/><path d="M64.5 257.25c-1.35-.68-2.03-.68-3.4 0-19.73 13.6-38.8 37.43-56.48 70.1-34.7 66.02-52.4 151.77-52.4 257.26 0 2.06 1.35 3.42 3.4 3.42 2.72 0 3.4-1.36 3.4-3.4 0-97.32 15.65-178.3 46.28-242.3 17.7-35.38 36.75-61.25 57.85-77.58 20.42 16.33 39.48 42.2 56.5 77.58 31.3 64 46.27 144.98 46.27 242.3 0 2.04 1.37 3.4 3.4 3.4 2.73 0 3.4-1.36 3.4-3.4 0-105.5-17.7-191.25-52.4-257.27-11.57-20.42-23.14-38.1-36.75-53.1l-19.06-17z"/><path d="M63.15 284.47c-2.04 0-3.4.68-3.4 2.05L54.3 415.15c-3.4 102.77-4.08 200.1-2.04 294.02 0 1.36.68 2.73 2.72 2.73 1.37 0 2.73-1.37 2.73-2.73l-1.36-95.96c0-91.2 2.05-181.72 6.8-272.92 3.42 98.7 6.14 189.9 6.14 272.93l-1.36 95.97c0 1.36 1.36 2.73 2.72 2.73 2.04 0 2.72-1.37 2.72-2.73 1.36-92.56 1.36-191.25-2.04-294.02l-5.45-128.63c-.68-1.37-1.36-2.05-2.72-2.05z"/><path d="M37.3 289.24c-1.37-1.37-2.05-2.04-3.42-1.37-2.04.7-2.72 2.05-2.04 4.1l6.13 11.56c6.12 9.53 12.93 18.38 21.1 26.54 1.36 1.37 2.72 1.37 4.08 0 1.36-.68 1.36-2.72 0-3.4-8.17-8.17-14.97-17-20.42-25.86l-5.44-11.56zM20.95 312.38c-.68-2.04-2.04-2.04-4.08-1.36-2.05 1.36-2.05 2.04-1.36 4.08l13.62 21.78c9.53 14.97 19.06 26.54 27.9 34.72 2.04.67 2.73.67 4.1 0 1.35-.7 1.35-2.73 0-4.1-8.86-7.48-18.4-19.73-28.6-34.02l-11.57-21.1zM3.94 343c-.68-2.04-2.73-2.04-3.4-1.35-2.05 1.35-2.73 2.04-1.37 4.08l14.3 20.4c12.25 15.68 26.54 31.32 42.2 44.93l4.08-.68c1.36-1.35 1.36-2.04 0-4.07-15.66-12.93-29.27-27.22-41.52-42.88L3.93 343zM57.7 452.58c-13.6-10.9-29.26-26.54-46.28-46.95l-22.46-27.9-3.4-.7c-1.36.7-1.36 2.05-.68 4.1l22.46 27.9C24.36 429.45 40.7 445.77 54.3 456h3.4c2.05-2.05 2.05-3.42 0-3.42zM56.34 496.14C37.3 481.17 18.24 462.8-.16 441.7l-21.77-28.6c-.68-1.35-2.04-1.35-3.4-.67-2.04.68-2.04 2.04-.68 3.4l21.77 29.26c19.05 21.78 38.1 40.83 57.17 55.8 2.04.7 3.4.7 4.08-.68.7-1.36.7-2.7-.68-4.08zM56.34 543.1c1.37-1.35 1.37-2.72 0-4.08-17.7-14.3-37.43-32.67-58.53-55.8l-28.57-32.68h-4.1c-.67 1.36-.67 2.73 0 4.08l28.6 32c21.78 23.82 41.52 42.87 59.2 57.16l3.4-.68zM56.34 580.54c.68-1.36.68-2.73-.68-4.1-21.1-14.28-42.2-34.7-64.66-59.88l-26.54-33.35h-4.08c-1.36.7-1.36 1.37-.68 3.4l27.22 33.36c21.78 25.86 44.24 45.6 65.34 61.25l4.08-.66zM56.34 615.24c.68-1.35 0-2.72-1.36-4.08C35.24 599.6 12.1 581.2-13.76 554l-32.67-37.44h-4.08c-2.06.68-2.06 2.04-.7 3.4l33.36 37.43c26.54 27.22 49.68 46.96 70.1 59.2 2.04.7 2.72 0 4.08-1.36z"/><path fill="#FFE700" d="M63.15 285.84c3.4-8.17 6.8-15.66 8.17-22.46 4.08-14.98 1.36-23.15-8.17-23.15-10.2 0-13.6 8.17-8.85 23.15 2.04 6.8 4.76 14.3 8.85 22.46z"/><path d="M63.15 238.2c-5.44 0-9.53 1.36-11.57 4.76-2.72 5.44-2.72 13.6 1.36 25.86l6.8 17.7c1.37 1.36 2.05 2.04 3.4 2.04l2.05-2.04c10.88-20.42 13.6-34.7 8.16-43.56-2.04-3.4-5.45-4.77-10.2-4.77zm-6.8 8.16c1.36-2.04 3.4-3.4 6.8-3.4 2.72 0 4.77 1.36 6.12 3.4l.68 6.13c0 7.47-2.03 16.32-6.8 26.53-5.44-10.2-8.17-19.06-8.17-26.54l1.36-6.14zM56.34 648.6c.68-1.36 0-2.73-.68-3.4-21.78-12.25-44.92-29.96-70.1-51.73l-31.3-30.63h-3.4c-1.37 1.36-1.37 2.73-.7 4.08l32 29.95c25.18 23.15 48.32 40.16 70.78 53.1l3.4-1.37zM91.73 287.88c-1.36-.68-2.72 0-3.4 1.36-4.76 12.25-13.6 24.5-25.86 37.43-1.36.68-1.36 2.72 0 3.4 1.36 1.37 2.72 1.37 4.08 0 12.93-12.93 21.78-25.86 27.23-38.1 0-2.05 0-2.73-2.05-4.1zM108.75 311.02c-2.04-.68-3.4-.68-4.08 1.36-12.94 24.5-26.55 42.2-40.16 55.13-1.35 1.37-1.35 3.4 0 4.1 1.37.68 2.73.68 3.4 0 14.3-13.62 28.6-32 41.53-56.5 1.36-2.04.68-2.72-.68-4.08zM125.08 341.65c-1.36-.68-2.72-.68-3.4 1.36l-14.3 20.42c-12.24 15.66-25.85 29.95-41.5 42.9-1.37 2.02-1.37 2.7 0 4.06l4.07.68c24.5-21.77 43.56-43.55 55.82-65.33 1.35-2.04 1.35-2.73-.7-4.08zM139.38 377.03l-3.4.7c-23.83 32.65-46.3 57.84-68.06 74.85-1.37.7-1.37 1.37-.7 3.4h4.1c13.6-10.2 29.26-26.54 46.96-46.95l22.46-27.9c.68-2.05.68-3.4-1.36-4.1zM150.95 412.43c-1.36-.68-2.73-.68-3.4.68l-21.78 28.6c-18.38 21.1-37.44 39.47-57.17 54.44-1.37 1.37-1.37 2.73-.68 4.1 1.36 1.35 2.04 1.35 4.08.67 19.74-14.97 38.8-34.02 57.17-55.8l22.46-29.26c1.36-1.37 1.36-2.73-.68-3.4zM159.8 450.54h-3.4c-30.63 36.76-59.22 66.02-87.13 88.48-1.35 1.35-1.35 2.73 0 4.08l3.4.68c27.9-22.45 57.18-52.4 87.13-89.16 1.36-2.04 1.36-2.72 0-4.08zM165.24 483.2c-2.04-1.35-3.4-1.35-4.08 0l-26.55 33.36c-22.45 25.2-44.23 45.6-64.65 59.9-2.04 1.35-2.04 2.72-.68 4.08l4.1.67c21.1-15.63 42.87-35.37 64.65-61.24l27.22-33.35c1.36-2.03.68-2.7 0-3.4zM169.32 524.05l-4.08.68c-35.4 41.52-67.38 70.78-95.3 86.43-1.34 1.37-2.02 2.73-.67 4.08.68 1.37 2.05 2.05 4.1 1.37 29.25-17.7 61.24-46.95 95.95-88.47 2.05-1.36 2.05-3.4 0-4.08zM171.37 566.25c-1.37-.68-2.05-.68-3.4 0-34.04 35.38-66.7 61.25-98.02 78.94-1.35.67-2.03 2.04-.68 3.4.68 2.04 2.05 2.72 3.4 1.36 32.68-19.06 66.03-44.93 98.7-79.64 1.36-1.35 1.36-2.72 0-4.08z"/><path fill="#E61F19" d="M93.1 74.17c-4.77 42.88-4.77 92.56 1.36 148.37 12.25 113.66 44.92 204.18 99.36 274.28l134.77-5.44c-57.2-66.7-93.94-157.22-109.6-269.52-8.16-56.5-10.2-106.17-6.8-149.05L93.1 74.18z"/><path d="M214.24 70.76l-2.04-1.36-119.1 1.36c-2.05 0-3.4.68-3.4 2.72-4.77 44.24-4.77 94.6 2.03 151.1 12.26 113.66 45.6 204.87 100.05 273.6.68 1.36 1.36 2.05 2.04 2.05l135.44-5.45 2.73-2.04-.7-3.4c-55.8-66.02-91.88-155.18-108.2-266.8-8.17-55.8-10.9-105.5-7.5-149.05l-1.36-2.74zm-5.44 5.45l-1.36 29.95c0 58.54 6.12 115.7 19.06 171.5 19.05 85.77 51.04 155.88 95.96 210.33l-126.6 5.44c-39.47-51.05-67.37-113.66-84.4-189.9C99.9 251.13 93.8 195.33 93.8 136.1c0-22.46 0-42.2 2.04-58.53L208.8 76.2z"/><path d="M157.75 113.64c0-1.36-1.35-1.36-3.4-1.36l-25.18 4.1-13.6-.7c-2.05 0-3.42 0-3.42 2.04 0 2.05 0 2.73 2.04 3.4l14.97.7 27.23-4.77c2.03 0 2.03-1.36 1.35-3.4z"/><path d="M135.98 95.95c-1.37-.68-2.73.68-3.4 2.04l-2.73 33.34c0 24.5 5.44 43.56 16.33 59.2.68 1.37 2.04 1.37 3.4.7 1.37-.7 2.05-2.05.7-4.1-9.54-13.6-15-32.66-15-56.48l2.74-31.3c.68-2.05 0-2.73-2.04-3.4z"/><path d="M153 129.3c-1.37-.7-2.05 0-3.4 1.36L144.13 147c-6.8 2.7-11.57 6.12-15.65 9.52-9.54 8.85-14.98 16.33-14.98 22.46l.68 2.72c0 2.04 2.04 3.4 5.44 4.08 8.85 1.37 18.38-10.2 28.6-34.7l22.45-.7c5.43 2.74 8.84 6.14 9.52 10.9 1.36 5.45-1.37 11.57-7.5 19.74l-16.32 19.74-3.4 2.04c-4.78 6.13-6.8 11.57-5.46 14.97 2.05 4.77 5.45 6.8 12.26 6.8 2.04 0 2.72-.67 2.72-2.03 0-2.05-.68-3.4-2.72-3.4-4.1 0-6.8-1.37-7.5-3.4-.67-1.37.7-4.1 5.45-8.17l2.05-3.4 19.05-21.1c6.13-8.85 8.17-16.34 7.5-23.15-1.37-6.12-6.14-10.9-13.62-14.3l-21.78-1.35 4.08-11.57v-1.36L153 129.3zm-34.04 49.68c0-4.08 4.76-10.9 13.6-17.7l8.18-6.12c-8.17 17.7-14.97 26.54-20.42 25.18h-1.36v-1.36zM174.77 270.18c4.08-5.44 6.12-10.2 6.8-16.33.68-7.5-2.72-14.3-10.2-17.7h-19.74c-3.4 2.72-6.8 6.13-8.85 10.2-2.72 4.78-3.4 8.86-3.4 12.26 0 2.74 2.04 4.78 5.44 6.14l6.8-.68c4.77-3.4 8.17-11.57 10.22-24.5v-.68c2.04-.68 4.08 0 6.8 1.36 5.45 3.4 7.5 8.16 7.5 13.6-.7 4.77-2.73 8.17-6.13 12.94-2.72 4.08-6.8 6.8-10.2 8.85-1.37 0-2.05 1.36-1.37 3.4 0 1.36 1.37 1.36 3.4 1.36 4.77-1.37 9.54-5.46 12.94-10.22zm-27.23-21.78c2.05-2.72 4.1-5.44 7.5-6.8l.67-1.37c-.67 10.9-3.4 17.02-6.8 19.75h-2.7l-1.37-2.73v-.68c0-2.04 1.35-4.76 2.7-8.17zM168.64 292.64c-.68-2.04-2.72-2.04-4.08-2.04l-1.36 2.72v1.36c5.44 11.57 9.53 21.78 11.57 31.3-12.25.7-19.74 3.4-21.78 7.5v3.4c0 2.72 1.35 4.77 5.43 7.5 3.4 2.03 7.5 2.7 12.26 2.7 5.43.7 8.83-.67 10.88-3.4l1.36-5.43-1.36-7.5h4.08c8.85.7 13.6 2.73 14.3 4.1v1.35c0 2.05-1.37 4.77-6.14 6.8-.68.7-1.36 1.37-1.36 2.05v1.36c.68 1.37 1.36 2.06 3.4 1.37 7.5-2.04 10.9-6.8 10.22-14.3-.7-3.4-6.13-6.12-15.66-6.8l-10.2-.68c-2.05-9.54-6.13-20.43-11.58-33.36zm8.85 45.6l-.7 2.04-6.8 1.37c-4.08 0-6.8-.68-8.84-2.05l-2.73-2.72v-.68c1.37-2.72 6.8-4.76 17.7-4.76l1.36 6.8z"/><path d="M187.7 297.4c-1.36-1.36-2.04-2.04-3.4-1.36l-15.66 3.4c-2.04 0-2.72.7-2.72 2.73 0 1.36.68 2.04 2.72 2.04 7.5 0 14.3-1.35 17.7-3.4 2.04-1.35 2.72-2.03 1.36-3.4zM220.37 387.93l-6.8-5.45c-5.45-1.36-13.62-.67-25.2 4.08l10.22-22.46.67-.68-1.36-2.04c-1.35-.68-2.03-.68-3.4 0-5.44 4.1-11.57 6.13-18.37 4.1-1.36-.7-3.4 0-3.4 2.03 0 1.37 0 2.73 2.04 3.4h4.76l10.9-2.03-10.9 22.46-.68.68.68 2.73h3.4c4.1-2.04 8.85-3.4 13.62-5.44l15.65-1.37 2.73 2.72c1.36 1.36.67 3.4-1.37 5.45-2.04 3.4-6.8 6.12-13.6 8.84l-16.34 3.4c-.7 0-2.05.7-2.05 1.37-1.36 1.36-1.36 2.05-.68 2.73l22.45 40.84c4.08 7.48 10.2 12.93 17.02 17h21.1c6.12-2.7 9.52-11.56 10.9-27.9l.67-27.22c0-1.36-1.37-2.04-2.72-2.04-.7 0-2.05 0-2.05 1.37l-.68 1.37c0 10.88 0 20.4-.7 29.93-2.03 11.58-4.07 18.38-7.48 20.43l-17-1.37c-6.13-2.72-10.9-8.16-14.3-14.3l-19.74-36.74 17-4.77c6.82-2.72 10.9-6.13 13.62-9.53l2.05-7.5-.68-4.07z"/><path stroke-miterlimit="100" d="M364.58 579.58H7.42V7.42h357.16v572.16z" fill="none" stroke="#000" stroke-width="14.84"/></svg>