<svg xmlns="http://www.w3.org/2000/svg" width="372" height="587" viewBox="0 0 372 587"><path fill="#fffaf0" d="M0 0h372v587H0z"/><path fill="#E61F19" d="M373.36 231.83V2.56H67.66c12.53 63.25 46.8 116.6 104.1 160.1 57.32 42.8 124.52 65.87 201.6 69.17z"/><path d="M67.67-.73l-2.63.66-.66 2.63c12.52 64.57 48.1 118.6 106.07 162.07 57.97 44.14 125.17 67.2 202.25 70.5l2.64-.67 1.32-2.63V2.56c0-2.63-1.32-3.3-3.3-3.3H67.66zm302.4 6.6v222.66c-74.45-3.95-139.02-26.35-195-67.85C119.7 118.5 84.8 67.12 72.28 5.86h297.77z"/><path fill="#858585" d="M354.25 238.42c-13.83 13.83-26.35 31.62-36.9 52.7-12.5 23.72-22.4 54.68-28.32 92.23-3.3 19.1-4.6 34.9-5.93 48.75-25.03-10.54-44.8-15.15-57.97-15.15l-1.32 17.13c-.65 14.48.67 28.32 2 42.16 5.26 44.8 19.75 81.03 43.47 108.04h102.1l1.33-361.68c-5.27 3.3-11.86 8.57-18.45 15.82z"/><path d="M374.02 219.97c-.66-.66-2.64-.66-3.3 0-5.93 3.3-11.85 8.56-19.1 15.8-13.84 14.5-27 32.3-37.55 53.37-17.13 34.92-29 80.37-33.6 137.7-24.38-9.23-42.83-13.18-55.34-13.18-2.64 0-3.3 1.3-3.3 3.3l-1.3 17.77c-.67 13.84.64 28.34 1.96 42.82 5.93 45.47 20.4 81.7 44.8 109.36l1.97.68h102.1l3.3-3.3L376 222.6l-1.98-2.63zM320 292.44c14.5-27.67 30.3-49.4 49.4-63.25L368.1 581h-96.85c-17.14-19.77-29-44.15-36.24-73.14-5.26-20.42-7.9-42.16-7.9-65.22 0-10.54.66-18.44 1.32-22.4 12.52.66 30.3 5.27 53.36 15.15l3.3-.66 1.32-2.64c1.3-14.5 2.63-30.3 5.92-49.4 6.6-36.25 15.82-67.2 27.67-90.26z"/><path fill="#FFE700" d="M357.55 252.9c1.97-7.9 3.3-15.15 3.3-23.05 0-14.5-4.62-21.08-13.84-18.45-9.22 1.98-10.54 9.88-2.63 23.06 3.3 6.6 7.9 13.18 13.18 18.45z"/><path d="M357.55 210.74c-2.64-2.63-6.6-3.95-11.2-1.97-5.27.66-8.57 3.3-9.22 7.24-2.64 9.24 3.95 21.76 19.1 38.88l1.98.66 2.64-1.97c4.6-21.74 3.3-36.9-3.3-42.83zm-3.3 3.96c2.64 1.97 3.3 7.24 3.3 15.15l-1.32 17.8c-9.22-12.53-14.5-21.75-14.5-27.68V218c1.32-2.64 2.64-3.3 5.94-4.62 2.63-.66 5.26-.66 6.58 1.32z"/><path fill="#FFE700" d="M241.6 443.3c-1.32-8.56-2.64-16.47-5.27-23.05-4.6-14.5-11.2-19.1-19.77-13.18-7.9 5.26-5.92 12.5 5.93 23.06 5.26 4.6 11.85 8.56 19.1 13.17z"/><path d="M227.76 403.1c-3.95-1.96-7.9-1.3-11.85 1.33-3.94 2.64-6.58 5.93-6.58 10.54.65 9.23 10.54 19.1 30.3 30.3h3.3l1.3-2.63c-2.62-22.4-8.55-35.57-16.46-39.53zm10.55 34.93c-15.8-9.23-23.05-17.13-23.05-23.06v-.66c0-1.97.65-3.94 3.3-5.26l6.58-1.3c5.93 2.63 10.54 12.5 13.18 30.3z"/><path d="M353.6 248.96c-1.98 0-2.64.65-2.64 2.63L347 376.75l-5.27 172.6c-41.5-35.57-74.44-71.8-99.47-109.35-.66-1.3-1.98-1.97-3.3-1.3-1.3 1.3-1.97 1.97-1.3 3.28l23.7 42.82c20.43 34.27 46.12 65.88 75.1 95.53 1.33 1.98 2.64 1.98 3.96 0l.66-1.97-.66-1.32c-31.62-32.28-58.63-67.2-81.03-104.75 15.8 20.4 34.9 40.18 55.98 60.6l27.68 23.7 2.63.67 1.3-2.63c0-23.72 1.33-81.7 4.62-171.95l4.6-131.1c0-1.33-1.3-2.64-2.62-2.64z"/><path d="M285.73 430.8c-.65-1.33-1.97-2-3.95-1.33-1.3.66-1.97 1.97-.65 3.95l14.5 25.03c12.5 19.76 28.98 36.9 48.08 51.4.67 1.3 2.65 1.3 3.97-.66.65-.68.65-2-.66-3.3-19.1-14.5-34.9-30.98-47.43-50.74l-13.84-24.38zM288.37 400.48c-.65-1.32-1.3-2.63-3.3-1.32-1.3.66-1.97 1.98-.65 3.3l19.1 32.28c14.5 21.74 28.33 36.9 40.85 45.46 1.98 1.3 3.3 1.3 3.95-.66 1.32-.66.67-1.98-.65-3.3-12.52-8.56-25.7-23.7-40.2-45.45l-19.1-30.32zM294.3 367.54c-.66-1.32-1.97-1.98-3.3-.66-1.97.66-2.63 1.32-1.97 3.3l17.13 30.96c13.18 22.4 25.7 39.53 38.87 50.73 1.32 1.32 2.64 1.32 3.3 0 1.97-1.32 1.97-1.97 0-3.3-11.86-11.85-25.04-28.32-37.55-50.72-11.2-17.8-16.47-27.68-16.47-30.3zM300.23 341.2c0-1.33-1.98-2.65-3.3-1.33-1.97.66-1.97 1.98-1.3 3.95l15.15 27.02c12.5 19.76 23.7 33.6 35.56 44.13l3.96-.66c.66-.64.66-1.96-.66-3.28-11.2-9.88-22.4-23.7-34.92-43.48l-14.5-26.35zM306.82 319.44c-.66-1.97-1.98-1.97-3.3-1.3-1.97 1.3-1.97 2.62-1.3 3.94l14.48 24.37c10.54 17.14 21.08 30.97 30.3 40.86h3.96c1.32-1.32 1.32-2.63 0-3.3-9.88-9.87-19.76-23.7-30.3-40.84l-13.84-23.72zM314.72 299.68c-.65-1.97-1.97-1.97-3.3-1.3-1.96.65-2.63 1.96-1.3 3.28l10.54 19.77c9.22 15.14 17.78 27.66 27 38.2 1.98.66 3.3.66 3.96 0 1.32-1.97 1.32-2.63 0-3.95-8.57-10.54-17.13-22.4-26.36-36.9l-10.54-19.1zM323.95 281.9c-.66-1.32-1.98-2.64-3.3-1.32-1.97.66-2.63 1.32-1.97 3.3l7.25 15.14c5.92 11.86 13.83 22.4 22.4 32.94l4.6.66c1.32-1.32 1.32-1.98 0-3.95-8.56-9.88-15.8-21.09-22.4-32.28l-6.58-14.5zM333.83 266.08c.66 1.32 0 1.98-1.98 2.64-.65 1.3-1.97.66-3.3-.66l21.1 35.57c.65 1.33 1.97 1.33 3.95.66.65-.67.65-2.64.65-3.96l-20.42-34.25zM343.05 252.9c-.65-1.3-1.97-1.97-3.3-1.3-1.97 0-1.97 1.3-1.97 3.28l3.3 7.9 9.22 16.48 3.95 1.32c.66-1.32 1.32-2.64.66-4.6-3.3-4.63-6.58-9.9-8.55-15.17l-3.3-7.9zM249.5 552.66c-1.3 0-2.63.66-3.3 1.98 0 1.98 1.33 3.3 2.65 3.3l69.83 3.3c1.98 0 2.64-1.33 2.64-3.3 0-1.32-.66-1.98-2.64-1.98l-69.18-3.3zM239.62 530.92c-1.98-.66-3.3 0-3.3 1.98s.67 3.3 2.64 3.3l62.6 3.94 2.63-.65.64-1.33c0-1.98-1.3-2.63-3.3-3.3l-61.92-3.95zM233.03 511.15c-1.3 0-2.63 1.33-2.63 2.64-.66 1.97.65 2.63 1.97 2.63l54.68 4.6 2.64-1.96c0-2.64-1.33-3.3-2.64-3.3l-54.03-4.62zM229.08 491.4c-1.32-.66-3.3 0-3.3 1.32-.65 1.97 0 3.3 1.98 3.3 11.2 4.6 27.02 6.58 46.78 7.23 1.3 0 2.63-.65 2.63-2.63 0-1.32-.65-2.64-2.63-2.64-19.1-.66-34.92-2.63-45.46-6.6zM225.8 471.63c-1.33 0-2.65 0-3.3 1.98 0 1.32.65 2.65 2.63 3.3l35.57 5.93c1.98 0 3.3 0 3.3-1.98 0-1.3-.66-2.64-1.98-2.64l-36.23-6.57zM225.13 452.52c-1.98-.66-3.3 0-3.3 1.32-1.3 1.98-.66 3.3 1.32 3.3l26.35 7.24 3.3-1.98c0-1.97-.66-2.63-1.98-3.3l-25.7-6.58z"/><path d="M258.07 422.22c0-1.97-.66-1.97-2.64-1.97-1.32 0-2.64.65-2.64 1.97v14.5l-1.98 22.4c-.66 1.3 0 2.62 1.3 3.3 2 .65 3.3-.68 3.3-2l2.65-23.7v-14.5zM275.85 426.83c-1.3 0-2.63 0-2.63 1.97l-1.97 17.8-5.28 32.94c0 1.97.66 2.63 2.64 3.3 1.33 0 2.65-.67 3.3-2.64l4.62-32.94 1.97-17.8c0-1.97-.67-2.63-2.65-2.63zM292.32 446.6c-1.3 0-1.97.66-1.97 2.63l-1.98 17.14-5.27 31.6c-.66 2 .66 2.65 1.98 3.3 1.97.67 2.63 0 3.3-1.97l5.92-31.63.66-17.77c0-2-.65-3.3-2.64-3.3zM310.1 470.3c-1.96-.64-2.62 0-3.28 2.65l-1.98 14.5-5.93 27c-.65 1.98 0 2.64 2 3.3 1.3.65 2.62 0 3.28-1.98l5.93-26.35 2-16.47c0-1.32-.67-2.63-2-2.63zM326.58 488.1c-1.97 0-3.3.66-3.3 2.64l-1.97 15.8-3.94 25.7c-.66 1.32 0 2.64 1.32 3.3 1.98.66 2.64 0 3.3-1.98l5.26-25.7 1.32-17.12c0-1.32-.66-2.64-1.98-2.64zM341.08 501.27c-1.98 0-3.3 1.33-3.3 2.64l-.65 15.17-5.93 25.7c0 1.3 0 3.28 1.97 3.28 1.32 1.32 2.64 0 3.3-1.98l5.26-26.35 1.98-15.15c0-1.97-1.3-3.3-2.62-3.3z"/><path fill="#858585" d="M74.26 584.28c24.38-34.9 38.2-74.44 40.2-119.24 1.3-14.5.65-27.67-1.33-41.5l-1.97-15.8c-14.5 3.28-27.67 7.9-40.85 15.14-6.58-31.62-18.44-59.96-36.23-86.3L9.04 305.6 1.8 584.3h72.46z"/><path d="M114.45 407.07c0-1.32-1.32-2.64-3.95-1.98-11.86 1.97-25.04 6.58-38.2 13.17-6.6-30.3-18.46-57.98-35.6-84.33l-25.02-30.3-3.96-.66-1.97 2.64-7.25 278.66.66 2.64 2.63.66h72.46c1.32 0 1.98-.66 2.64-1.32 24.37-34.9 37.55-75.1 40.84-119.9 1.32-14.5.66-28.98-.65-42.16l-2.65-17.13zM67 423.54l2 1.97h2.63c11.86-5.92 24.37-10.53 36.9-13.16 1.97 11.2 2.63 24.38 2.63 37.56 0 49.4-12.52 92.88-38.87 131.1H5.1l7.23-266.82c27.67 30.3 46.12 67.2 54.69 109.36z"/><path d="M106.54 417.6c-1.97 0-2.63 0-3.3 1.32l-36.23 59.3c-27 42.16-48.08 72.46-63.23 90.26-.66 1.97-.66 2.63.66 3.95h3.95c17.8-21.1 46.78-63.9 85.65-127.15-10.54 25.04-27 55.34-49.4 90.9L13.64 583l-.65 1.3 1.3 2.64 3.96-1.32 38.2-58.63c27.03-44.14 43.5-79.72 51.4-106.07 0-1.32 0-1.98-1.32-3.3z"/><path fill="#FFE700" d="M98.64 434.08l16.47-16.47c9.23-11.85 9.23-19.75 1.32-23.7-8.56-3.3-14.5 1.96-17.13 16.47-.66 7.9-1.32 15.14-.66 23.7z"/><path d="M117.08 391.9l-11.85.67c-4.62 3.3-7.25 11.2-8.57 22.4l-.66 19.1 1.32 2.65 2.63-.67c4.62-2.63 9.23-7.25 14.5-13.17 7.9-9.22 11.2-15.8 9.88-21.74 0-3.95-2.63-7.24-7.25-9.23zm2.64 9.9v.65c0 6.6-6.6 15.16-18.45 26.35v-1.97c0-16.47 1.98-26.35 6.6-29.64 1.97-1.34 4.6-1.34 7.24 0 2.64.65 4.62 1.96 4.62 4.6zM71.63 420.25c-1.98-.67-2.64 0-3.96 1.97L49.88 449.9c-14.5 20.42-30.3 35.57-46.77 44.8-1.97 1.3-2.62 2.62-1.3 3.94.65 1.32 1.97 1.98 3.95.66 16.47-9.88 32.94-25.04 48.1-46.1l18.44-29c1.3-1.98.64-3.3-.67-3.95zM63.72 393.23c-.66-.66-1.97-.66-3.3 1.32L43.3 422.2C28.8 442 15.63 456.5 3.77 465.05c-1.98 1.32-1.98 1.98-.66 3.3.67 1.32 1.33 1.32 3.3.65 12.52-9.22 26.36-23.06 40.2-43.5l19.1-28.3c.66-1.34 0-3.3-1.98-3.97zM54.5 368.2c-1.32-.66-2.64 0-3.3 1.98l-15.15 25.68C23.53 414.3 13 427.5 3.77 435.4c-.66 1.32-1.32 1.97 0 3.3l3.95.65c9.23-8.57 19.77-21.74 32.28-40.2l15.82-27c.65-1.3.65-2.64-1.32-3.95zM43.3 347.78c-1.32-.66-1.98 0-3.3 1.3l-10.54 21.1c-8.56 14.5-17.13 25.68-25.03 33.6-.66 1.97-.66 3.3 0 3.95 1.32 1.3 2.63 1.3 3.95 0 8.56-7.9 16.47-19.77 25.7-34.93l10.54-21.73c1.32-1.32.66-2.63-1.32-3.3zM32.76 330.65c-1.98-.67-3.3 0-3.3 1.3l-5.93 13.2c-5.27 9.87-11.2 18.44-17.78 24.36-1.32.67-1.32 2 0 3.97 1.3 1.32 2.63 1.32 3.3 0 7.9-6.6 13.83-15.8 19.1-25.7l5.92-13.83c.66-1.98 0-3.3-1.3-3.3z"/><path d="M46.6 456.48c-1.98 0-2.64.66-2.64 1.97l.66 55.34c0 1.97 1.32 2.63 2.63 2.63l2.64-2.64-.67-55.35c0-1.3-1.32-1.97-2.64-1.97zM63.72 432.1c-1.3 0-2.63.66-2.63 1.98l-.67 21.08v34.26c0 1.97 1.32 2.63 2.63 2.63 1.98 0 2.64-1.3 2.64-2.63v-34.26l.65-21.08c0-1.32-.65-1.98-2.63-1.98zM82.17 418.92c0-1.97-1.32-3.3-2.64-3.3-1.97 0-2.63 1.33-2.63 3.3l1.3 42.82c.02 1.33 1.33 1.98 3.3 1.98 1.32 0 1.98-.65 1.98-2.63l-1.3-42.18zM113.13 441.98l-27.67 21.74c-.66 1.32-1.3 2.64 0 3.3l3.95.65 27.02-21.07c-1.3.65-2.63 0-3.3-1.33-1.3-.65-1.3-1.97 0-3.3zM114.45 463.73l-1.32.65c-14.5 11.87-28.33 21.75-42.16 28.34-1.32.65-1.98 1.97-1.32 3.3.66 1.3 1.98 1.96 3.95 1.3 13.84-7.24 28.33-16.47 42.83-29 1.32-.64 1.32-1.96 0-3.28l-1.98-1.3zM113.13 491.4l-3.3-.66c-21.07 15.15-39.52 25.03-54 28.98-2 0-2.65 1.32-2 3.3l3.3 1.3c15.8-3.94 34.26-13.82 56-28.97 1.32-1.32 1.32-1.98 0-3.96zM107.86 515.77c-1.32-1.32-1.98-1.32-3.3 0L84.8 526.3c-16.47 7.9-30.96 13.2-44.14 17.14-1.97 0-2.63 1.32-1.3 3.3 0 1.3.64 2.63 2.62 1.3 21.74-5.26 43.48-15.14 65.22-28.32 1.98-.65 1.98-1.98.66-3.95zM97.98 545.42c0-1.98-1.32-1.98-3.3-1.98-25.03 9.88-48.74 17.8-69.83 23.7-1.32 0-1.32 1.34-1.32 3.3.66 1.33 1.32 2 3.3 1.33 21.08-5.93 44.14-13.84 69.83-23.06 1.98-.65 2.63-1.97 1.32-3.28z"/><path fill="#FFF" d="M86.12 160.02c7.25-5.27 13.18-11.86 15.15-21.1 26.36-21.06 51.4-40.83 75.77-59.28l-88.94 40.2-12.52.65c-9.22 1.3-16.47 3.94-20.42 7.9-5.27 5.26-8.57 10.53-9.22 16.46-.66 5.93.65 13.84 3.3 24.38l7.9 27L62.4 218l-2.63 26.34c-.66 11.86-.66 21.1 1.32 26.35 2.62 7.9 8.55 16.46 15.8 23.7 9.88 9.9 22.4 17.14 36.23 23.07l24.38 19.76c21.75 12.52 48.76 16.47 80.38 13.18l1.98 8.57c1.3 5.94.66 11.2-.66 14.5l6.6-6.6c5.26-5.92 7.9-13.17 9.22-21.07l1.3 8.57c1.33 7.24.67 12.5-.65 15.14l6.6-5.9c5.26-5.28 7.23-12.53 8.55-21.75l2.64 9.22c1.98 7.9 1.98 13.84 1.98 19.1 6.58-7.24 10.54-16.46 10.54-27.67l2.63 7.25 2.65 10.54 6.6-7.26c3.94-5.92 5.26-12.5 4.6-18.44-.66-16.47-7.25-27-20.42-30.97-14.5-9.88-24.38-17.78-29-23.05-4.6-5.93-11.85-12.52-20.4-19.1-11.87-9.23-22.42-13.84-32.3-15.82l-31.62 1.98-20.4 2.63-21.76-5.27c-13.83-3.95-21.08-7.25-21.08-10.54v-14.5c0-6.58-.65-13.83-2.63-20.4l-9.22-22.4c-2.63-6.6-1.97-11.22 1.98-12.53 3.3-.66 7.25-1.98 10.54-4.6z"/><path fill="#858585" d="M228.43 317.47c2.63 1.98 3.3 3.95 1.97 6.6-1.32 3.95-5.27 5.92-11.86 4.6l-29.64-4.6c9.22 3.28 16.47 9.2 22.4 16.46l6.58 9.88 1.98 8.58c1.32 5.93.66 11.2-.66 14.5l6.6-6.6c5.26-5.92 7.9-13.18 9.22-21.08l1.3 8.57c1.33 7.24.67 12.5-.65 15.14l6.6-5.9c5.26-5.3 7.24-12.53 8.56-21.75l2.63 9.22c1.98 7.9 1.98 13.84 1.98 19.1 6.6-7.24 10.54-16.46 10.54-27.67l2.63 7.25 2.65 10.54 6.6-7.26c3.94-5.92 5.26-12.5 4.6-18.43-.66-16.47-7.25-27-20.42-30.97l-11.86-8.56c-1.32 3.95-3.95 5.93-8.56 6.6l-6.58-.67 2.63 3.96c1.32 3.3 1.32 5.92 0 7.24-2.63 3.3-6.6 3.95-13.17 1.98l3.95 3.3z"/><path fill="#DA8E55" d="M78.22 119.83c-11.2 1.32-18.45 4.6-23.06 8.56-5.93 5.92-9.22 12.5-9.22 19.75l10.53-3.3c5.28-.64 9.23-2.62 11.86-4.6 2.64-2.63 4.6-5.93 6.6-10.54l3.3-9.87z"/><path d="M179.67 78.33c-.66-1.98-2.63-2.64-3.95-1.32l-88.94 39.54c-15.8 0-27 3.3-34.26 9.88-6.58 6.6-9.88 13.83-9.88 23.06 0 4.6.66 11.2 3.3 20.42l6.58 23.06c3.95 12.5 6.6 21.08 6.6 25.7l-1.33 15.8-1.98 22.4c0 5.93.65 11.2 2.63 15.15 2.64 8.58 8.56 16.48 16.47 25.04 9.88 9.23 21.74 17.13 36.23 23.06 5.93 7.9 15.16 14.5 26.36 21.1 21.75 11.84 48.1 15.8 77.75 13.17l1.98 11.2-1.32 5.92v1.97l.66 2.63h3.96c5.27-3.3 9.22-8.56 13.17-15.8v.65l-1.32 7.25v1.3l.65 2 3.96 1.3c5.9-3.3 10.53-9.2 13.82-17.12l1.32 11.86v2.63c0 1.32.65 2.64 1.97 3.3l3.97-.66c3.95-4.6 7.25-9.88 9.22-17.12l.65 3.95v.66l1.32 3.3 3.95-.68c9.22-8.55 13.84-18.43 12.52-28.32-.66-17.8-8.57-28.98-22.4-33.6-14.5-9.88-23.72-17.13-27.67-22.4-4.6-5.93-11.2-12.52-19.76-19.76-12.5-9.23-24.37-14.5-34.9-16.47l-41.52 3.3-10.54 1.3-27-7.24c-8.57-1.97-12.53-4.6-13.18-5.93v-13.83c0-7.25-.66-14.5-2.64-21.08l-6.6-16.48-3.94-12.52v-.66l1.32-1.98L89.42 162c7.24-4.62 11.86-12.52 14.5-21.1 27-22.4 52.03-41.5 75.1-58.62l1.3-2.64-.65-1.3zM49.23 144.86c.66-5.27 3.3-9.88 7.24-13.83 3.96-3.3 10.55-6.6 19.77-7.9H88.1l1.3-.67L152 94.8l-52.7 41.5-1.32 1.32c-1.98 8.56-6.6 15.15-13.18 19.76-3.3 1.98-6.58 3.3-9.88 3.95h-.66c-2.63 1.32-3.95 2.64-4.6 4.62l-.67 3.95c0 2.63 1.3 7.25 4.6 15.15l6.6 15.15c1.3 6.6 1.97 12.52 1.97 19.77v14.5c0 7.24 15.15 13.83 45.46 19.1l13.17-1.32 39.53-3.3c8.56 1.32 18.45 5.93 29.64 14.5 8.57 5.93 15.82 12.52 20.43 19.1 4.6 5.28 14.5 13.18 29.65 23.72l.65.65c11.2 3.96 17.8 13.18 18.45 28.34v1.3c0 5.28-1.32 10.55-5.93 16.48l-3.96-11.85c-.65-1.34-1.97-2.65-3.94-2-1.32.66-2.64 1.33-2.64 3.3 0 5.28-1.32 11.2-4.6 17.8l-2.65-13.2-1.32-5.9c-1.3-1.34-1.96-2.65-3.94-2.65-1.3.66-2.63 1.98-2.63 3.3-.66 8.56-2.64 14.48-7.25 19.1 0-5.93-.66-11.2-1.97-15.8-.66-1.33-1.97-2.65-3.3-2.65-2.63.66-3.28 1.32-3.28 2.64-.67 7.24-3.3 13.18-7.9 19.1l-2.65-14.5c-1.3-1.96-1.97-2.63-3.95-2.63-30.3 3.3-55.34-.65-77.74-12.5l-23.7-19.1-1.33-1.33c-13.84-5.27-25.04-12.5-34.26-21.73-7.9-7.25-13.18-15.16-16.48-23.06-1.3-5.28-1.3-17.13.66-34.26L65.7 218c0-5.94-2.64-14.5-6.6-26.36l-7.24-23.06c-1.97-10.54-3.3-17.8-2.63-23.72z"/><path d="M185.6 347.78c-1.98-.66-3.3 0-3.96 2.63l-14.5 67.2-6.57 23.07-11.2 43.48c0 2.63.65 3.94 3.3 3.94 1.3.66 3.28 0 3.28-1.98 2.64-11.2 6.6-26.35 11.2-43.48l6.6-23.72 14.48-67.2c0-1.97-.65-3.28-2.63-3.94z"/><path d="M155.95 483.5c-.66-.67-1.97-1.33-3.3-1.33l-16.46.66-1.33.66-10.54 7.9c-1.32 1.3-1.32 2.63 0 3.95.66 1.3 1.98 1.3 3.3.66l9.88-7.9 8.57-.66-21.74 19.1c-1.32.66-1.32 2.64 0 3.96h3.3l27.66-23.72c.65-.65.65-1.98.65-3.3z"/><path d="M153.98 482.17c-1.32-.66-3.3 0-3.3 1.32 0 1.97 0 3.28 1.98 3.28l5.93 1.98 13.16.66c1.98 0 1.98-.66 1.98-2.64 0-1.3-1.32-2.63-2.63-2.63l-11.85-.66-5.27-1.33zM191.53 420.9c-12.52-11.86-24.38-30.3-36.9-54.02l-15.15-32.27c-1.3-1.32-3.3-1.98-5.27-1.32-1.3.66-1.3 1.98-1.3 3.3v.66l15.8 32.94c12.52 23.72 25.04 41.5 36.9 54.02l1.32 84.98 1.3 1.97c.67 1.33.67 1.33 2 1.33 1.97 0 3.28-1.33 3.28-3.3l-1.3-85.64-.67-2.64z"/><path d="M192.85 507.86c-.66-1.3-1.98-1.97-2.64-1.3l-27.66 3.28-.66.66-12.5 9.88c-1.33 1.32-1.33 2.64 0 3.95 1.3 1.98 2.62 1.98 3.28 0 4.6-3.95 7.9-7.25 11.2-8.56l16.47-2.64-11.86 7.9-13.83 12.52-.66 1.98.66 1.97c1.3 1.33 2.63 1.33 3.95 0l11.85-11.85 21.74-14.5.65-1.97v-1.32z"/><path d="M192.2 511.82l17.12 2.63c1.97 0 3.3-.66 3.3-1.97 0-2.64-.67-3.3-2.65-3.3l-19.76-2.63c-.65-.66-1.3 0-1.97 1.3l-16.47 30.32c-1.32 1.32-1.32 2.63.66 3.3 1.32 1.3 2.63 1.3 3.3-.67l16.47-28.98zM84.8 139.6l-1.98-3.3-3.3-1.98c-1.97 0-2.62.66-3.94 1.98-.66 1.32-1.98 1.97-1.98 3.95 0 1.32 1.32 2.64 1.98 3.96l3.95.66c3.3 0 5.27-1.3 5.27-5.27zM85.46 219.97c0-6.6-.66-13.84-2.63-20.42l-9.23-22.4c-2.63-6.6-1.97-11.2 1.98-12.52 0-1.98-.66-1.98-1.98-2.64-1.3-.67-3.95 2.63-6.58 9.2-1.32 2 0 6.6 3.3 13.85 4.6 7.9 7.24 15.15 7.9 21.08 1.97 15.8 1.97 27.02 0 34.92-1.98 4.6-7.9 11.2-18.45 19.1 0 3.95 0 7.25 1.32 10.54l1.3 1.97c1.32-4.6 4.62-10.54 7.9-15.15 6.6-9.88 15.16-15.8 24.4-16.47-5.94-2.64-9.24-5.27-9.24-6.6v-14.48zM88.1 116.54c-1.32 0-2.64.66-2.64 1.97 0 2.65.66 3.3 1.98 3.3l3.95 1.32 5.26 4.62c2.63 3.3 3.3 6.58 1.98 10.53 0 1.32.65 2.64 1.97 3.3 2 0 2.65-.66 2.65-1.98 1.32-5.94 1.32-11.2-1.32-15.16-1.98-2.64-5.27-4.6-8.56-5.93l-5.27-1.96zM129.6 248.3c-1.3-1.32-2.63-.66-3.3.66l-6.58 15.8c-3.3 11.2-1.32 21.1 4.6 29.65 5.94 7.92 14.5 14.5 25.7 19.78 15.82 7.9 38.87 13.17 67.86 17.13 7.9.66 13.18-.65 14.5-5.92l.65-3.3-1.3-4.6c3.94 0 6.58-1.98 7.9-3.3l1.97-5.27-1.98-4.6c7.25 0 11.86-2.64 13.17-8.57v-.66l-1.98-2.63c-1.98 0-2.63 0-3.3 1.97-1.3 3.97-5.27 5.94-12.5 3.97-1.33 0-2.65 0-2.65 1.97-.65.66-.65 1.98 0 3.3l2.64 2.63c.67 1.98 1.32 3.95.67 4.62l-10.54.65c-1.32 0-2.64.65-3.3 1.96 0 1.34 0 3.3 1.32 3.3l2.64 2c1.96 1.97 2.62 2.63 1.96 4.6-1.32 1.98-3.95 3.3-9.22 3.3-28.33-3.96-50.07-9.23-65.88-16.48-10.54-5.26-18.45-11.85-24.38-19.1-5.27-6.6-5.93-15.8-3.3-25.7l5.94-13.83c.66-.67.66-2-1.32-3.3z"/><path d="M125.65 259.5l-3.95-.66c-.66 1.97-.66 2.63 0 3.95 15.8 17.78 37.55 31.6 63.9 42.8 13.83 5.28 27 9.24 38.2 11.87 2 0 2.64-.66 3.3-2.63 0-1.33-.66-2.64-1.97-3.3-10.55-1.32-23.06-5.27-36.24-10.54-26.36-11.2-48.1-25.03-63.25-41.5zM152.66 245h-3.96c-1.3 1.32-1.3 3.3 0 3.96 15.16 12.5 33.6 25.7 56 38.87 11.2 6.58 20.43 11.85 28.33 15.8 1.98.67 2.64.67 3.96-1.3.64-1.33.64-2-1.33-3.3-7.9-3.96-17.8-9.23-29-15.82-21.73-12.5-39.52-25.68-54-38.2z"/><path d="M129.6 293.75c-1.97-1.3-3.3-.66-3.3 1.32s0 2.64 1.33 3.3l11.85 2.63c6.6 0 12.52-.66 15.8-3.3 3.3-2.63 3.97-5.92 3.97-9.88l-.66-1.97-2.65-.66c-1.3 0-1.97.65-1.97 2.62 0 2.64 0 4.62-1.98 5.93-3.95 2.64-11.2 2.64-22.4 0z"/><path d="M142.12 279.26c0 1.98.66 2.64 1.98 3.3 18.44 5.27 31.62 5.27 39.52 0 3.3-1.32 5.27-4.62 5.93-7.9.66-2-.66-2.65-1.97-3.3-1.98 0-2.64.66-2.64 2.63l-3.95 3.94-18.46 2.64-17.13-3.3c-1.3 0-2.62.66-3.28 1.98z"/><path d="M213.27 258.84c-1.32-.66-3.3-.66-3.3 1.3-1.3 2.65-3.3 5.3-5.92 6.6-6.6 2.64-15.16 1.98-27-1.97-1.33-1.32-2-.66-3.3.66 0 1.97 0 3.3 1.97 3.95 12.5 5.27 23.06 5.93 30.96 1.98 3.3-1.98 6.6-5.27 8.57-9.23 0-1.32 0-3.3-1.98-3.3zM196.8 304.96c0-1.33-1.32-1.98-3.3-1.98-1.3 0-1.97 1.3-1.97 2.64 0 2.63-.66 4.6-2.64 5.27-3.3 3.94-10.55 5.9-21.75 4.6-1.98-.66-3.3 0-3.3 1.97 0 1.98.67 3.3 2.64 3.3 12.5.66 21.73-.66 27-5.93 1.98-2.64 3.3-5.93 3.3-9.88z"/><path d="M213.27 287.82c-1.32-.66-1.98 0-2.64 1.98-.66 4.6-5.27 7.9-13.83 8.57l-12.52.65c-1.98 0-2.64.66-2.64 1.98 0 2.63.66 3.3 1.98 3.3h15.82c9.88-2.64 15.8-6.6 16.46-13.84 0-1.98-.65-2.64-2.63-2.64z"/><path d="M237.65 281.24c-1.32-.66-1.98-1.32-3.95 0-7.9 5.92-17.14 6.58-26.36 2.63-1.98-1.32-2.64-.66-3.95.66-.67 1.98 0 3.3 1.96 3.3l10.54 3.3c7.9.65 15.15-1.33 21.1-5.94 1.3-.67 1.96-2.64.65-3.96zM190.2 321.43c-1.3-.67-3.28 0-3.28 1.97-.66.66 0 1.98 1.3 3.3 8.58 3.3 15.16 8.56 21.1 15.15l5.93 9.88c.65 1.98 1.3 1.98 3.3 1.98 1.3-.66 1.97-2.63 1.3-3.95l-6.6-11.2c-6.57-7.24-14.47-13.17-23.04-17.13zM227.76 326.03l-3.95.66c-1.3.65-1.3 1.97.67 3.28 4.6 4.62 7.9 9.9 7.9 15.82 0 1.32.66 2.64 2.64 2.64 2 0 2.65-1.32 2.65-2.64 0-7.9-3.3-14.5-9.9-19.77zM238.96 310.88c-1.32-1.32-2.64-1.32-3.3 0l-.65 1.32.67 1.98c7.24 6.58 11.86 16.47 12.52 28.32 0 1.98.65 2.64 2.62 1.98 1.32 0 2.64-.66 2.64-2.64l-1.98-11.2c-2.63-8.56-6.58-15.14-12.52-19.76zM244.23 299.02l-3.3 1.32c-1.3 1.32-1.3 2.63.67 3.3 8.56 4.6 14.5 13.17 19.1 23.7 1.32 5.94 2.64 10.56 3.3 15.16 0 1.32.66 2.64 1.97 2.64 1.98 0 2.64-1.32 2.64-2.64 0-5.27-1.3-11.2-3.28-17.13-4.62-11.2-11.2-20.4-21.1-26.35z"/><path stroke-miterlimit="100" d="M364.58 579.58H7.42V7.42h357.16v572.16z" fill="none" stroke="#000" stroke-width="14.84"/></svg>