<svg xmlns="http://www.w3.org/2000/svg" width="372" height="587" viewBox="0 0 372 587"><path fill="#fffaf0" d="M0 0h372v587H0z"/><path fill="#858585" d="M33.3 211.4l-16.58-9.95 1.33 23.22c-.67 13.28 0 23.23.66 31.86 2 9.28 5.32 19.24 11.96 29.2l8.62 11.94-10.62 3.98c-7.96 4.65-16.6 11.95-25.2 22.56-7.98 10.63-13.28 24.57-15.28 40.5-1.32 7.96-1.32 15.26-.66 21.23 2.66-1.33 9.3-3.32 21.24-5.3 11.94-1.34 21.23-4.66 27.87-7.98 7.96-3.98 14.6-10.62 21.23-19.9l7.3-12.6 6.64 5.96c6.63 4 15.26 9.3 26.54 13.28 11.3 5.3 26.55 9.3 44.47 11.28l25.22 2c-7.3-4.65-15.26-12.6-21.9-23.23l-16.6-26.55c-4.63-5.97-10.6-10.62-18.57-13.94l-11.28-3.3c11.95-2.67 21.9-8.63 29.87-17.93 8.62-8.62 16.6-21.22 23.22-37.8h-19.24l-23.9 1.3c-13.26 3.33-24.55 9.97-33.17 18.6l-2-13.28c-2.65-9.95-7.3-17.92-13.27-24.55C55.2 226 45.25 218.7 33.3 211.4z"/><path d="M18.7 198.13l-3.97.66-1.33 2.65.67.66.66 12.62v18.58l.66 23.23c2.64 13.27 8.62 26.54 17.9 39.15-10.6 3.98-21.23 13.27-32.5 26.54-11.95 13.94-17.26 33.18-17.26 56.4l.66 7.98 1.33 2.65h3.32l16.6-3.98c14.6-2.66 25.87-5.98 33.17-9.3 10.62-5.96 19.9-15.92 27.87-29.86 6.63 4.66 16.58 10.64 30.52 16.6 17.9 7.97 41.8 12.6 71 13.28.67.66 2 0 3.32-2v-1.32l-2-2.65c-7.95-4.64-17.24-16.58-27.2-33.17l-9.3-15.93c-5.3-7.3-12.6-11.95-21.9-15.93 7.98-3.98 15.28-8.63 21.25-14.6 5.96-5.97 11.27-13.93 16.58-24.56l7.3-14.58v-1.33l-.67-2-3.3-1.33h-15.93l-27.87 1.33c-9.96 2.66-19.9 7.3-29.2 15.26-2.66-13.94-7.97-25.2-15.93-33.18-6.64-6.63-15.26-13.94-27.87-21.9l-16.6-9.95zm2.66 16.6l-.66-7.97c17.92 11.28 30.53 19.9 37.83 27.87 5.97 5.98 9.95 13.27 12.6 23.23l2 11.94c0 1.33.66 2.65 2 3.32l3.3-1.33c9.3-8.64 19.25-13.94 31.2-17.26l26.54-1.33h11.94c-6.62 14.6-13.26 24.56-20.56 32.52-7.96 7.97-17.9 13.94-29.2 16.6-1.32 0-2 1.33-2 3.3 0 1.34 1.34 2.67 2.67 3.33l10.63 2.66c7.96 3.32 13.27 7.97 17.9 13.94l8.64 14.6c9.3 13.94 16.6 23.9 21.9 29.2-25.88-2.65-45.13-6.64-58.4-12.6-11.28-4-19.24-8.64-25.22-13.28l-5.97-4.65-3.32-1.3-2.65 1.97c-7.3 13.94-15.92 23.9-27.2 29.87-6.64 3.3-16.6 6.63-30.53 9.3l-14.6 3.3v-3.3c0-21.9 5.3-39.17 15.93-52.44 7.97-9.95 15.93-16.6 23.9-21.9l9.95-3.3 2.65-2v-1.33l-.66-2-8.63-12.6c-5.96-9.28-9.28-18.58-11.27-27.87l-.67-21.9v-18.58z"/><path d="M30.66 228.66c-.67-.67-2-1.33-2.66-.67-1.32 1.32-2 1.98-.66 3.3l14.6 25.23c9.95 19.9 17.91 35.83 21.9 48.44l.66.66 17.25 16.6c14.6 13.26 31.2 23.88 48.45 33.84 1.32 0 2 0 2.65-.67v-1.32l-.66-2c-17.27-9.28-32.53-19.24-47.13-31.84l-17.25-17.26c-4.65-12.6-11.95-28.53-22.56-48.44l-14.6-25.88z"/><path d="M129.53 263.83c-1.33-1.33-1.33-2-2.65-.67-17.25 9.96-37.16 23.23-62.38 39.82-19.9 18.58-39.82 39.15-60.4 61.05-.65 1.33-.65 2 0 2.66 1.34 1.3 2 1.3 3.33 0l59.06-61.07c25.2-15.93 45.12-29.2 62.37-39.15.66-.67 1.33-2 .66-2.65z"/><path fill="#D96038" d="M189.26 387.26l-24.56 9.3c-11.94 3.3-22.56 9.28-30.52 15.25-9.3 7.3-16.6 15.28-22.57 25.23l-5.3 13.27c-2-4.64-11.28-9.95-26.54-17.25-9.3-4.65-20.57-7.3-34.5-9.3L28 423.1l5.3 21.9c1.34 11.28 4.65 20.57 8.64 25.87 4.64 5.98 11.28 11.95 21.23 16.6l11.95 5.3c-3.32.67-7.3 2-12.6 4-10.63 4.63-20.58 11.26-29.87 18.57-9.3 7.96-18.58 19.9-29.2 35.83l-11.95 21.9c32.52-.66 58.4-5.32 76.98-11.28 18.58-5.98 33.18-14.62 43.13-23.9l1.34 10.6c1.33 9.3 3.32 17.27 6.64 23.9 3.32 7.3 9.3 15.26 18.58 23.9l12.6 10.6c0-1.98 1.34-7.3 4.65-15.92 4-9.28 6-18.57 6.65-28.53V535.9l-.66-6.63 9.27 4.64 18.6 2c9.28-1.32 25.87-7.3 52.4-16.58L219.8 503.4l-24.57-18.6c-5.97-3.98-12.6-6.63-20.57-8.62l-10.62-.67 9.96-15.9 11.28-19.92c2-6.63 3.32-17.25 3.98-32.5v-19.92z"/><path d="M187.27 383.94l-18.58 7.96c-15.94 4.65-27.22 10.62-36.5 17.26-12.62 9.28-21.25 20.57-27.22 34.5-6.64-4.64-13.94-9.3-23.23-13.93-9.95-3.98-21.9-7.3-35.17-8.63L28 419.78c-1.32 0-2.65.66-2.65 2.65l-.67.66.67 2.64c1.32.67 2.65 5.97 3.3 14.6 2.67 15.94 6.65 26.55 10.63 32.53 5.98 8.62 15.26 15.25 25.88 19.24-11.94 5.32-23.9 11.95-34.5 20.58-15.27 13.27-29.2 32.52-42.48 59.06v3.33c.67.66 2 1.32 3.32 1.32 33.18-.67 59.07-5.33 78.3-11.3 14.6-5.3 27.88-12.6 39.16-20.57 2 11.3 3.98 21.24 7.3 29.86 5.3 11.28 16.6 23.22 32.52 35.17h3.32l2-2.66 3.3-11.26c4.65-11.3 7.3-22.57 7.97-33.2v-27.2c9.3 4 17.25 5.97 25.2 4l51.78-16.6 2.65-2.66v-.66l-2-2.66-20.56-15.26-25.22-19.24c-7.96-5.32-17.25-8.63-27.87-9.96l3.98-5.97c7.3-9.3 11.95-17.92 14.6-25.88 3.32-8.64 4.65-23.9 4.65-44.47v-9.28l-1.33-2.66c-1.33-.66-2.66-.66-3.98 0zm-1.33 8.63v3.3c0 20.6-1.33 35.18-3.98 43.15l-13.94 23.22-7.3 11.3v3.31l3.32 2 9.95.66c7.3 1.98 13.93 3.98 19.9 7.96 5.3 3.32 13.27 9.3 24.56 18.6l15.92 12.6-45.78 13.93-17.26-1.35-8.62-4.64c-.67-.65-2-.65-4 0l-.65 2.67v.66l.66 16.6v15.92c-.66 9.96-3.3 19.9-7.3 30.52l-2.65 7.96c-13.94-9.95-22.56-19.9-25.88-29.86-3.32-6.64-5.3-14.6-6.64-23.23l-1.33-9.95-2-3.33c-1.3-1.32-1.98-.66-3.3.67l-11.29 7.96c-9.3 6.64-19.9 11.95-30.52 15.93-17.25 5.3-40.48 8.62-71 9.96 13.93-24.58 26.54-41.16 37.82-51.12 8.63-7.96 18.58-13.27 28.54-17.9 5.3-2 9.95-3.33 13.27-4l2-3.3c0-1.34 0-2.66-2-3.32-14.6-4-25.22-10.62-31.86-20.58-3.33-5.3-6.64-15.26-9.3-29.2l-2.65-13.26c17.25 0 33.18 3.32 45.8 9.28 13.92 6.64 22.55 12.6 24.54 16.6.66.66 1.98 1.32 3.3 1.32l2.66-2 5.98-12.6c5.97-9.95 13.27-17.92 21.23-24.55 8.63-6.64 19.9-11.95 34.5-15.93l15.27-5.97z"/><path d="M172.67 408.5c-1.33-1.33-2-.67-2.66.66l-20.56 37.82c-13.93 25.9-24.55 43.14-29.86 51.1l-39.82 20.57c-27.87 14.6-48.44 27.2-63.7 36.5l-.67 1.33v1.32l2.65.67C33.3 548.5 55.2 535.9 83.08 521.3l38.5-19.9h1.32l29.2-51.1 21.23-39.16c1.33-1.32.66-1.98-.66-2.65z"/><path d="M47.9 436.37l-2.65.66c-.66 1.32-.66 2 0 2.66l24.56 20.56 49.78 41.14h1.32l94.24 15.26c1.33.66 2 0 2-1.33v-.66l-2-2-93.57-14.6-49.77-41.13-23.9-20.57z"/><path d="M122.9 499.4c-1.33-1.32-1.33-1.98-2.66-1.32-2 .66-2 1.33-.66 2.65l8.63 22.57c6.64 19.25 11.3 39.15 14.6 59.06.67 1.98 2 1.98 2.66 1.98l2-1.98c-4-20.57-9.3-40.48-15.94-59.73l-8.62-23.22z"/><path fill="#D96038" d="M341.22-22.86L318.66-7.6 296.1 9c-4.65 3.98-7.96 11.95-9.3 23.23l-1.32 14.6-6.63-15.93c-5.32-11.28-10.62-17.92-15.27-19.9l-50.43-21.24 3.32 21.9c1.32 11.94 2.65 21.9 5.3 28.53 3.32 11.94 11.3 22.55 23.23 32.5-19.9-.65-34.5 1.34-43.13 5.98-5.98 3.32-13.28 8.63-20.58 16.6l-9.96 11.94 20.57 7.96c10.63 4.64 19.92 6.64 25.9 5.3 9.95-1.98 20.56-6.63 32.5-13.26l-5.96 8.62c-3.98 7.97-6.64 15.93-8.63 25.9-2.64 16.58-.65 36.5 5.98 60.37 17.26-13.26 29.87-24.54 36.5-33.83 5.3-6.64 7.3-14.6 8.63-24.55l-.65-14.6 7.96 17.9c6.65 11.3 11.3 18.6 14.6 21.25 5.98 4.64 17.93 7.3 34.52 8.63l-2.66-21.9c-.66-9.96-2.65-17.25-4.64-21.24-2-5.3-5.98-10.62-11.95-17.25l-7.96-8.6 8.63 5.3c6.64 3.3 13.94 3.97 21.9 1.98 12.6-2.65 24.56-7.96 36.5-17.92L371.1 86.64c-5.32-5.97-9.97-10.62-14.62-12.6-5.97-2.66-12.6-5.3-20.56-7.97l-10.62-3.32 9.3-6.63c5.3-5.3 8.6-12.6 9.28-19.9.66-12.62 0-32.53-2.66-59.08z"/><path d="M209.83-10.24v1.32L212.48 9c2 15.27 3.32 25.9 5.98 31.86 3.3 9.95 9.3 19.24 18.58 28.53-16.6 0-29.2 2.64-37.16 6.62-5.32 2.66-12.6 8.64-20.58 16.6l-10.62 11.95-.66 2.65v.66l2.65 2 11.3 5.3 18.57 6.63 17.9 2c5.32-1.32 12.62-3.3 22.58-7.96-4.65 7.96-7.3 15.93-8.63 25.88-.67 3.98-.67 8.63-.67 13.28 0 14.6 2 30.52 6.64 48.44l2 2 3.3-.68c17.92-13.27 30.53-25.22 37.83-34.5 4.64-6.64 7.3-15.27 8.62-25.22 7.3 13.93 12.6 23.22 17.26 26.54 5.97 4.64 17.92 7.3 35.83 8.63l2-1.32 1.33-2v-.66l-2.65-16.6c-.67-12.6-2.66-22.55-5.3-27.85l-8.64-13.28h17.25c12.6-2.66 25.87-8.64 37.82-17.92l1.33-3.32-2-2.65-9.95-9.28c-6.63-6.64-11.94-11.95-16.6-14.6-7.95-3.32-15.9-6.64-24.54-8.63 7.96-7.3 12.6-15.94 13.93-25.9V25.6l-1.33-31.2-1.33-17.92-2-2.65-3.3.66L320-12.24c-13.95 9.28-22.57 15.26-25.9 18.58-5.97 4.64-9.28 13.27-10.6 25.88-6.65-13.93-13.28-22.56-18.6-24.55L214.48-12.9l-3.3.67-1.34 2zM323.3-6.26l15.27-10.62 2 43.13v9.3c-.67 7.3-3.33 13.27-8.64 18.58l-7.96 5.3c-.67 1.33-2 2-2 3.32 0 2 1.33 2.66 2.66 3.32l9.96 2.66c7.95 2.65 14.6 5.3 19.9 8.62 4.64 2 9.28 6.64 15.26 12.6l7.96 7.3c-11.94 7.98-22.56 13.28-31.85 14.6l-19.25-1.32-8.62-5.3h-4l-1.3 2.65 1.3 2.65 7.32 7.97c5.97 6.63 9.95 11.94 11.94 16.6 1.33 3.97 3.32 13.26 3.98 25.2l1.33 13.27c-13.94-2-23.23-4.64-27.2-7.96-5.98-3.97-13.28-16.58-21.9-37.15-1.34-2-2-2.66-4-2.66-1.32 1.32-2.64 2-2.64 3.3v.67l.66 7.97c0 12.6-2.67 21.23-7.97 27.87-4.65 7.3-15.27 17.26-31.86 31.2-3.3-15.92-5.3-29.86-5.3-42.47v-11.95c1.98-9.3 4.64-17.25 8.62-25.2l5.3-7.98 1.33-2-.66-1.98c-1.33-1.32-2.66-2-4.65-1.32-11.28 7.3-21.9 11.28-31.2 13.27-6.63 1.33-17.9-1.33-31.84-8.63l-7.97-3.32c9.97-11.28 17.93-19.9 25.23-23.22 8.63-4.65 22.56-6.64 42.47-5.98l2.65-1.98.67-1.33-1.33-1.98c-11.3-9.96-18.6-20.58-21.9-31.86-2.66-6.63-4-16.6-5.98-31.2L217.8-4.26l43.8 17.9c3.97 2 7.3 6 11.93 13.95l8.63 20.58c1.33 1.98 2.66 2.65 4.65 2.65 1.34-.66 2-1.98 2-3.98V45.5c0-16.6 3.32-28.54 9.3-34.5l25.2-17.27z"/><path d="M297.43 107.22l-13.94-23.9c-6.65-11.27-17.26-26.54-31.87-45.12l-19.9-25.22h-2.66c-.66.66-.66 2 0 2.66l19.25 24.55c14.6 18.57 25.2 33.84 31.85 45.12l13.94 23.9c10.63 18.57 21.24 33.17 30.53 44.45h3.32c.66 0 .66-1.33 0-2.65-9.95-10.62-19.9-25.23-30.52-43.8z"/><path d="M323.3 4.36l-43.13 78.96c-2 4-5.97 15.27-13.27 33.85-8.62 23.23-13.27 41.15-14.6 53.76l2 2.65 1.98-2c1.33-11.94 5.98-29.86 15.27-53.74l12.6-32.52L327.3 5.7l-3.33.65c-.67 0-1.33-.66-.67-2z"/><path d="M308.7 84.66L281.5 82c-15.26 1.32-33.18 4.64-54.42 9.95L199.2 98.6c-1.32 0-1.32 1.3-1.32 2.65l2.66 1.32 27.2-7.3c20.58-4.64 38.5-7.96 53.76-9.3l27.2 2.67 47.12 7.3 2-2c0-.66 0-1.98-1.34-1.98l-47.77-7.3z"/><path fill="#FFE000" d="M139.5 110.53l1.3-54.4c-3.97 4.63-12.6 11.27-27.2 19.23-13.26 8.63-21.9 15.27-25.2 21.9-7.3 11.94-11.96 25.22-13.28 39.82-8.63-6.64-17.26-11.3-26.55-15.27-5.3-1.98-15.26-3.3-28.53-3.3l-17.92.66c2.65 2.66 5.3 9.95 7.96 21.9 3.32 11.94 5.97 19.9 9.3 23.9 4.64 5.3 11.28 9.28 21.9 11.93l13.93 3.3-12.6 8.64c-9.3 7.96-14.6 14.6-17.92 21.23-5.3 10.63-11.28 25.22-18.58 44.47l21.9-3.32 21.24-4.65c10.6-3.98 20.57-11.94 30.52-23.22l5.3 9.95 11.96 21.24c3.98 5.3 11.94 11.28 25.88 18.58l18.58 7.96c-2-4.64-2.66-11.28-2-20.57l.67-24.55c-.66-7.3-2.66-15.92-8.63-24.55l-7.96-12.6 12.6 4.64 25.9 3.32c12.6-1.33 29.85-9.96 53.08-26.55-5.98-1.32-13.27-4.63-23.23-10.6l-24.54-15.27c-7.3-3.98-15.93-5.97-26.55-5.97l-13.26.66 8.63-15.26c2.65-7.96 3.98-15.26 3.32-23.23z"/><path d="M141.48 52.8c-1.33-.66-2.66 0-3.32 1.33-3.98 4.64-11.28 9.95-23.23 16.6-15.26 9.94-25.2 17.9-29.86 24.54-5.97 10.62-9.95 23.23-11.94 35.84-7.97-5.3-15.27-9.28-23.23-12.6-5.97-2-15.26-3.32-29.2-3.32l-19.25.66c-1.32 0-2.65.66-2.65 2V121.16c2.65 2.65 5.3 9.28 7.97 19.24 2.65 13.27 6.63 21.9 9.95 26.54 5.3 6.64 15.26 11.94 29.86 15.26-12.6 9.3-21.23 18.6-24.55 26.55-5.3 9.95-11.95 25.22-18.58 44.46l-.67 1.34 1.33 2 3.33 1.32 17.92-2.66c10.6-.66 19.24-2.66 25.21-5.3 9.3-4 18.58-11.3 27.87-21.24l15.93 27.2c3.98 5.3 11.95 11.95 25.88 19.25l19.9 9.3h4l.66-3.32c-1.33-4.64-2-9.95-2-16.6l.67-28.53c0-8.62-3.98-18.57-11.28-30.52l29.85 4.64c13.27-1.32 31.85-9.95 55.08-27.2 1.33-1.33 1.33-2.66 1.33-3.33l-2.66-2.65c-4.64-1.33-13.93-5.3-27.87-14.6l-19.24-10.62c-9.3-5.32-20.6-7.3-35.18-6.64 5.97-10.6 9.3-21.24 9.3-32.52l1.3-56.4c0-2-1.3-2.66-2.64-3.32zm-4.65 11.28l-.66 48.44c0 10.62-3.32 21.24-9.95 32.52l-1.33 2-.68 1.98.67 2c1.32 1.32 1.98 1.32 3.3 1.32l12.6-.66c9.97 0 17.93 2 25.23 5.3l18.58 11.3c8.64 5.3 16.6 9.94 23.9 12.6-20.57 13.93-35.83 21.23-46.45 22.56l-25.22-3.32-11.94-3.98c-2-.67-3.33-.67-4 .66l-.66 2 .67 2.65 7.97 11.27c5.3 8.64 7.3 16.6 7.96 23.23l-.66 28.54c0 3.3 0 7.3 1.33 11.93-21.24-9.28-33.2-17.25-37.83-24.55l-11.28-19.9L82.4 222l-2.66-2c-1.32 0-2 0-2.65 1.34-9.28 10.6-19.24 18.58-29.2 22.56l-22.55 4.64-13.94 1.33C17.4 234.62 22.7 222 28 211.4c2.66-5.97 8.63-12.6 17.25-19.9l11.3-8.64 1.97-2.65v-1.32c-.66-1.32-1.98-2-3.3-2l-13.28-2.64c-9.96-2.66-16.6-5.97-19.9-10.62-3.33-4.65-6.65-12.6-8.64-24.55L7.43 121.8c18.58-1.3 31.85 0 40.48 3.33 8.64 3.32 17.26 8.63 25.23 13.94l3.3.66 2-2.65c1.33-13.94 5.98-26.55 12.6-38.5 4-5.97 12.62-13.26 27.22-22.56l18.58-11.94z"/><path d="M127.54 80c-1.32-.66-2 0-2.65.67l-16.6 35.17c-10.62 25.88-18.58 47.78-21.9 65.04l-26.54 20.57c-16.6 14.6-28.54 26.54-35.84 35.17l-.66 1.33.66 2 3.32-.68c7.3-9.3 19.24-21.23 37.82-35.83l24.56-19.9v-1.34c5.97-27.2 18.58-60.38 38.5-99.54.65-.66 0-2-.68-2.66z"/><path d="M25.35 131.77c-.67-.66-2 0-3.32.66 0 1.33 0 2.66 1.33 2.66l24.55 16.58c17.93 12.6 30.53 23.22 38.5 31.85h2c29.2-1.33 62.37-.67 99.53 1.33l2.65-2.66-2-2c-36.5-1.32-69-1.98-99.53 0-7.96-8.6-21.23-19.23-39.15-31.84l-24.55-16.6z"/><path d="M89.72 181.54c0-2-1.33-2.66-2-1.33-1.32 0-1.32 1.34-1.32 2l11.28 27.88c8.63 19.9 17.25 36.5 25.22 49.1l2.65.66.67-3.3c-7.97-11.96-15.93-28.55-24.56-48.46l-11.94-26.54z"/><path fill="#858585" d="M241.68 420.44c-12.6 7.3-24.55 16.6-35.83 29.2l15.26 6.64 23.24 8.6 25.88-1.3 10.62-3.32-3.98 9.95c-2 8.64-2.66 16.6-2.66 25.23.67 13.94 3.32 27.2 7.97 42.46 2-3.32 7.96-9.3 16.6-17.92l21.22-20.57c3.97-5.3 7.3-12.6 7.96-20.56v-9.96l9.28 5.97c7.3 4 13.94 6.64 20.58 8.64l55.07 4.63-28.54-41.8c-2.65-4.65-7.96-9.3-14.6-13.27l-9.95-4.65 13.94-8.6c5.32-4 9.3-9.97 11.95-16.6 2.64-7.3 7.3-16.6 13.92-27.88l9.3-15.93-22.57 1.98-29.86 3.32c-9.3 2.65-17.93 7.96-25.22 13.93l-9.3 8.64c-.66-13.94-3.3-24.56-8.62-31.2l-33.2-39.14c0 4.64-1.97 11.93-5.3 22.55-3.98 9.96-5.97 19.25-6.63 25.88 0 13.94.66 27.88 2.65 43.14-8.62 1.98-17.9 5.96-29.2 11.94z"/><path d="M278.85 313.6c-1.33.66-2 1.98-2 3.32 0 3.98-2 10.6-5.3 19.9-4 11.94-5.98 21.24-6.64 28.53v7.3l2 33.2c-5.98 1.32-15.26 5.96-26.55 11.93-12.6 7.3-25.2 17.26-36.5 29.86l-.66 1.33v1.33l1.98 2.66 9.96 3.98c11.94 5.97 21.23 9.3 28.53 11.27l31.2-1.97c-2.66 7.3-4 15.92-4 25.2v4c.67 13.93 4 27.87 8.64 43.8l2.66 1.98 3.32-1.98c2.65-3.3 7.96-9.3 16.6-16.58l19.9-21.25c5.97-7.3 9.3-15.93 9.3-26.55 9.94 5.3 18.57 9.95 25.2 11.95l56.4 4.64 3.33-2V485.48L387.68 445c-4.64-6.65-11.28-12.62-20.57-16.6l.66-1.32 11.3-7.97c3.97-3.3 7.3-8.62 9.94-15.25 2-6.64 7.3-15.27 13.93-27.2l9.3-15.28v-2l-.67-1.98c-.66-1.33-2-1.33-3.98-1.33l-18.58 2-33.84 3.97c-10.62 2.65-20.57 7.97-30.53 17.25-2-11.95-4.64-19.9-8.62-25.22l-33.17-39.82-3.98-.66zM245 461.58c-7.3-1.98-16.6-5.3-26.54-9.96l-6.64-2.65c11.94-11.94 21.9-19.9 31.85-25.2 11.95-7.3 20.57-10.62 26.55-11.3l1.33-.66c1.32 0 2.65-1.97 2.65-3.3-2-12.6-2.65-24.56-2.65-35.84v-6.64c.66-7.3 2.65-16.6 6.63-26.54l3.98-15.26 28.54 34.5c4.64 5.98 7.3 15.27 7.96 28.54 0 2 1.33 2.66 2.66 2.66 1.98.66 2.65 0 3.3-.67l8.64-8.63c7.3-5.97 15.26-10.6 23.9-12.6L389 364.7l13.28-.67c-9.96 15.93-16.6 28.54-19.9 37.82l-7.98 13.28-9.95 6.63-6.64 4-1.32 2.64v.67l2.66 2.64 8.63 4c6.63 3.98 11.28 7.97 13.93 12.6l25.22 36.5-47.78-4.64-20.57-8.63-7.96-5.3-3.97-.67c-1.33.67-2 2-2 3.32l.67 3.3c0 9.97-2.65 18.6-7.96 25.9L298.1 517.3l-13.95 13.93c-3.98-13.93-5.97-25.88-6.63-35.83v-3.98c0-6.64.66-14.6 3.3-21.23l2.67-7.96.65-2-1.32-1.98-3.98-1.32c-9.96 5.3-21.24 6.63-33.85 4.64z"/><path d="M286.8 344.12c0-1.32-1.32-1.32-1.98-1.32-1.33 0-2 .66-2 2v.65l6.65 27.2c5.3 22.57 11.94 43.14 18.58 63.05l-5.98 31.2c-4.64 21.22-9.3 34.5-13.93 41.13v1.34l.66 1.98c1.32 0 2.65 0 2.65-1.33 5.3-6.63 9.96-21.23 14.6-41.8l5.98-31.85v-.67c-7.3-20.58-13.27-41.8-18.6-63.7l-6.62-27.88z"/><path d="M223.77 448.3l1.32 1.34 85.6-11.3.66-1.3c31.2-27.88 54.42-47.8 71-59.07.67-.66.67-1.32 0-2.66h-2.65c-15.25 10.63-39.14 30.54-70.33 58.4l-84.27 11.96c-.67 0-1.33.66-1.33 1.98v.67z"/><path d="M311.36 433.7l.67 2.67-2 1.98 75.66 38.5c1.3 1.32 1.98.66 2.64-.67 1.32-1.33.66-2.65-.66-2.65l-76.32-39.82z"/><path stroke-miterlimit="100" d="M364.58 579.58H7.42V7.42h357.16v572.16z" fill="none" stroke="#000" stroke-width="14.84"/></svg>