<svg xmlns="http://www.w3.org/2000/svg" width="372" height="587" viewBox="0 0 372 587"><path fill="#fffaf0" d="M0 0h372v587H0z"/><path fill="#FFE000" d="M149.97 429l-6.6 17.2c-3.32 7.94-5.3 16.53-6.63 23.8-1.98 8.6-1.98 15.88 0 23.15l2.65 7.93c-9.27-3.96-19.18-5.3-29.1-3.96-6.6 1.3-14.55 3.96-23.14 8.6l-11.25 5.94L88.5 526.2c4.63 6.63 10.58 11.9 16.53 14.56 7.28 2.64 13.9 3.96 21.83 3.96l9.25-1.98-5.95 3.3c-5.3 3.98-9.9 9.93-13.88 16.54-3.97 7.27-4.63 16.53-2.65 27.1.67 5.96 2 10.58 3.3 14.55 2-3.3 7.94-5.95 15.88-9.26 9.25-3.97 15.2-7.27 18.5-9.25 3.98-3.97 7.95-9.26 11.25-15.87l5.3-9.26v8.6c1.3 7.26 1.98 12.55 4.62 16.52 2.64 5.95 10.58 13.22 23.8 21.8 0-4.6 2.65-11.22 7.94-20.48 5.28-9.26 7.92-15.87 7.92-19.18l-3.3-16.53-3.3-8.6 9.9 3.32 21.17-.66c5.94-2 15.2-9.93 25.77-23.82l14.55-19.84-20.5-5.95-24.46-6.62-25.8 2.65-10.57 4.63 1.97-9.26c1.33-7.27 0-15.2-3.96-23.8-3.96-7.94-11.9-16.53-24.46-24.47L149.97 429z"/><path d="M151.95 425.7l-3.3.67-2 1.32-4.62 14.53c-4.62 9.26-7.27 18.52-8.6 27.1l-1.32 12.58c0 3.98 0 8.6 1.34 13.9l-24.47-2c-6.6 1.33-13.88 3.98-23.14 8.6-6.6 3.3-10.58 5.95-11.9 7.28-1.32 0-1.32 1.32-1.32 1.98l1.33 3.3 9.26 9.92c6.6 9.27 13.2 15.22 20.48 18.53l19.18 4.63c-3.97 4.63-7.28 8.6-9.26 13.22-3.3 4.64-4.63 11.25-4.63 19.18 0 8.6 1.33 17.2 4.63 25.13l2.65 1.98c1.98 0 2.64-.66 3.3-1.32 1.98-2 7.28-5.3 15.87-8.6 9.26-3.97 14.55-7.27 17.85-9.92 3.97-3.3 7.94-8.6 11.9-15.2.67 5.28 2 10.58 3.97 14.54 3.3 6.6 11.9 13.88 25.8 23.14h3.3l1.32-2.64c0-4.63 2.64-10.58 7.93-19.84 4.62-8.6 7.93-15.2 7.93-19.83 0-5.28-1.33-11.24-3.97-19.17 9.26 2.64 17.85 2.64 25.78 0 11.25-3.3 25.13-18.52 42.98-45.62v-3.3l-2.64-1.34-19.18-5.28-26.44-7.28c-10.58-1.98-21.16-.66-31.08 3.97v-6.6c0-6.62-1.32-13.9-4.63-20.5-3.3-9.26-11.9-17.86-25.12-26.45l-19.18-10.6zm-3.97 18.52l4.63-11.24c20.5 10.6 33.07 21.16 37.7 32.4 2.65 5.95 4.62 11.9 4.62 17.86 0 5.94-.65 9.92-2.64 11.9v.66l.66 3.3h3.97l10.6-4.63 23.8-1.98c7.26 1.32 15.86 3.3 24.46 7.27l15.86 3.96c-15.2 22.48-27.1 35.7-36.36 39.02h-19.18l-8.6-2.65-3.96.66-1.32 2 .66 1.96 2.64 7.94 3.3 15.2c0 3.3-2.63 8.6-6.6 16.53-3.97 6.6-6.6 13.22-7.93 17.85-11.24-7.94-17.2-13.9-19.18-17.86-2.65-5.95-3.98-13.23-3.98-23.15v-.66c0-1.32-1.32-2.65-2.64-3.3-1.98-.67-2.65.64-3.97 1.97l-4.62 8.6c-3.96 6.6-7.27 11.9-10.58 14.55L132.77 591c-4.63 2-9.9 4.64-13.88 7.95-2-6.62-3.32-12.57-3.32-18.52s1.33-11.24 3.3-15.88c3.98-6.6 7.94-11.9 12.57-15.2l5.3-3.3h.65c1.32 0 2-1.33 2-3.3v-.67c-.68-1.98-1.34-2.65-3.98-2.65-9.92 3.3-19.17 3.3-29.1-1.32-6.6-3.3-12.55-8.58-17.18-16.52l-7.94-8.6c11.24-7.27 21.16-11.24 29.1-12.56 9.9-.65 19.17 0 28.42 3.3l3.3-.65.67-1.98v-2c-3.3-3.97-3.98-9.92-3.98-17.2l.67-11.9c1.97-7.27 3.95-16.52 8.58-25.78z"/><path d="M161.2 449.5c-.65-1.97-1.98-1.97-2.64-1.97l-1.98 1.98v.68l7.93 25.78 9.93 47.6-23.14 23.8c-13.24 15.22-22.5 26.45-26.46 35.05v.67l.66 1.32c1.33 1.32 2.65 1.32 3.3-.67 3.3-7.93 13.23-19.84 27.78-35.7l21.15-21.82.67-1.98c-1.98-12.56-5.3-28.43-9.92-48.26l-7.27-26.45z"/><path d="M100.38 516.3c-2 0-2.65 0-2.65 1.3 0 2 .66 2 2 2l76.68 6.6 22.5-3.96 48.92-5.95 1.98-2-1.98-1.98-49.6 5.95-22.47 4.64-75.37-6.6z"/><path d="M178.4 523.57c0-.66-1.32-1.33-2.65-.66-1.32 0-1.98.67-.66 1.98l5.94 18.52c3.97 14.54 7.27 27.1 8.6 37.7l2.64 1.97 2-1.98-9.93-38.36-5.95-19.17z"/><path fill="#FFE000" d="M278.24 71.3l-7.28 6.62c-5.28-15.2-9.9-25.12-15.86-31.73l-16.53-11.26-14.55-9.25-1.98 17.18c-.66 12.56-1.32 21.16 0 25.78 1.32 7.28 5.3 13.9 11.24 18.52h-27.1l-17.2 9.26c-7.27 4.62-11.9 7.27-13.9 7.27l9.27 7.94 17.85 13.9c4.63 2.63 11.24 3.3 19.84 1.97l11.24-2.64c-3.97 2-7.94 3.98-11.24 6.62-9.26 5.3-14.55 11.9-16.53 18.5-1.3 5.97-2.64 15.22-2.64 27.12l-.66 23.8 45.63-27.76c7.93-6.62 13.22-13.23 14.54-21.16l.66 9.9c1.32 7.95 3.97 13.24 8.6 17.2 6.6 5.95 22.48 15.2 46.28 27.1 2.66-23.8 2-42.3-2.63-55.53-2.65-8.6-6.6-15.2-10.58-21.15l-6.62-5.96 14.54-6.6c10.58-5.96 16.53-11.25 19.18-17.86 3.97-9.92 7.93-25.12 10.58-44.96-21.82.66-37.7 3.3-46.95 6.6l-17.2 10.6z"/><path d="M344.36 52.8l-2.65-1.98c-21.8.65-37.68 3.3-46.93 7.27-7.94 3.3-15.87 7.92-22.48 14.53-4.64-13.22-9.93-23.14-14.56-28.43-3.97-3.96-10.58-8.6-20.5-13.88L226 23.04l-3.3-.66c-.67.66-1.33 1.33-2 2.65l-1.3 12.56-1.33 21.8.66 9.93c.66 4.63 3.3 9.25 6.6 13.9l-19.83.64c-3.96.66-10.58 3.97-19.17 9.92l-10.58 6.6c-1.32 0-3.3 0-3.3 2-.67 1.3-.67 2.63 0 3.3l9.9 8.6 18.53 13.2c3.3 2.66 7.93 3.98 15.2 3.98-7.27 5.3-11.9 11.24-13.88 17.2-1.32 6.6-2.65 15.2-2.65 26.44v11.24l-.66 13.22v1.32l.65 2.65h3.3l19.18-10.58 27.1-17.85 11.25-10.6c1.32 7.3 4.63 13.24 8.6 17.2 7.27 6.62 22.48 15.2 47.6 27.78l3.3-.66 1.33-2.65.67-23.15c0-14.55-.66-25.8-3.97-33.06-3.3-10.6-7.27-19.2-13.22-25.8 16.53-5.95 26.45-13.88 29.75-23.8 4.63-9.92 7.94-25.8 10.58-45.62l.67-.66-1.3-1.32zm-64.14 21.16l16.53-9.92c7.94-3.3 21.82-5.3 41.66-5.95-3.96 19.82-7.27 33.7-9.9 39.66-2 5.95-7.95 11.24-17.2 16.53l-13.9 5.94c-1.3 0-1.97 1.32-1.97 2.65l-.66.65 1.98 1.98 5.3 6.6c4.62 5.3 7.92 11.9 9.9 19.85 2.65 6.6 3.32 16.53 3.32 30.42l-.67 18.5c-22.48-11.23-36.36-19.83-41-24.46-5.28-4.63-7.93-12.56-7.93-22.48v-1.98c0-1.33-.66-2.64-3.3-3.3-1.33 0-3.3 1.3-3.3 3.3-1.33 6.6-5.3 12.56-13.23 17.85l-40.34 25.13.67-19.84c0-10.58 1.32-18.5 2.64-24.47 2-5.28 6.62-11.23 15.22-16.53 3.97-2.64 7.93-5.28 11.24-6.6 1.32-.67 1.98-1.32 1.98-3.3v-.67c-1.32-2-1.98-2.65-4.63-2l-13.2 2.66c-7.28 1.33-11.9 0-15.22-1.98-7.93-4.62-15.2-10.58-22.48-17.85l8.6-5.3c8.6-5.28 13.88-7.92 17.2-8.58h25.1c2 .65 2.66 0 3.32-1.33l.66-2-1.32-2.63c-5.3-3.97-8.6-9.92-9.92-16.53l-.66-8.6c0-5.93.66-15.2 1.98-27.76l7.27 3.97c9.26 5.3 15.2 9.92 18.52 13.23 5.3 5.3 9.92 15.2 15.2 30.42l2.65 1.98c1.33.66 2 0 2.65-.66l7.27-6.6z"/><path d="M308.65 185.04l-36.36-68.1c-2.66-8.6-9.93-21.83-19.85-39.68l-15.2-26.44c-1.33-1.33-2-1.33-3.32 0-1.32 0-1.32.66 0 1.98l14.55 25.12c10.58 18.52 17.2 32.4 20.5 40.33l36.36 68.77c.67 1.32 2 2 2.65 1.32.65-1.32 1.3-1.98.65-3.3z"/><path d="M325.84 70.65h-2.64c-5.3 6.6-15.2 15.87-29.1 27.1l-23.8 17.86c-15.2-7.26-32.4-11.9-50.9-13.88l-23.15-.66c-1.32 0-1.98.66-1.98 2.65l1.98 1.33 23.14.66c18.5 1.98 35.7 6.6 50.9 13.88l1.33-.66 23.14-16.53c15.86-12.57 26.44-21.83 31.73-29.77.67-.66.67-1.32-.66-1.98z"/><path d="M271.63 118.92l.66-2.64c-.67-.67-2-.67-3.32 0l-26.45 25.78C226 159.9 216.1 172.48 214.76 179.1c-.66.65 0 1.96.66 2.63 1.33 0 2.65 0 2.65-1.98 1.32-5.96 11.24-17.86 28.43-35.7l25.13-25.13z"/><path fill="#858585" d="M395.93 48.17l-21.82 3.3c-11.23.66-19.16 2-23.8 3.3-5.94 2.66-11.23 6.62-15.86 12.58l-6.6 8.6c-.67-11.25-4.64-21.83-12.57-31.75l-20.5-25.8L282.2 4.54l-3.96 23.8-3.97 29.1c-1.32 11.23 1.98 23.8 9.26 39-5.95-1.98-15.87-.66-29.76 2.65-8.6 2.64-18.5 7.28-29.75 14.55l-15.2 9.92c3.3 0 10.57 3.3 23.8 9.9 13.22 6.63 22.47 9.93 28.42 9.93 9.92 1.32 20.5 0 30.42-4.63l-5.3 7.94c-4.62 7.26-7.92 16.52-11.23 27.1-2.64 11.23-2.64 24.46 1.98 41.65 1.34 7.93 3.98 15.2 6.62 21.16 1.33-2.64 9.26-11.23 23.15-25.12 13.22-13.22 21.16-23.14 23.8-28.43 3.97-9.26 5.95-23.14 6.6-41l7.28 7.94c5.95 5.28 11.25 8.6 16.53 9.9 8.6 1.33 21.82-1.3 41-9.25-2.65-1.98-5.96-6.6-9.26-13.22l-12.56-18.5c-4.63-5.3-9.92-9.93-15.87-13.24l-8.6-2 8.6-4.62 15.2-13.22c5.95-7.28 11.24-19.84 16.53-37.7z"/><path d="M405.2 151.3v-.65l-1.34-1.98c-1.98-1.98-5.28-6.6-8.6-13.22l-12.56-19.17c-5.28-5.96-11.23-10.6-18.5-13.9 7.93-3.96 13.88-8.6 18.5-14.54 5.3-7.27 11.25-20.5 16.53-39v-.67l-.65-2.65-3.3-.66-21.17 3.3-25.1 3.97c-7.3 2.65-13.24 7.94-19.2 15.87-1.97-9.9-5.94-18.5-11.9-26.44l-20.5-25.13L284.86 1.9l-3.3-.67c-1.33 0-2.65 1.3-2.65 3.3l-3.3 23.14c-2.65 11.24-3.98 21.82-4.64 29.76l-.66 3.96c0 9.25 2.65 19.83 7.94 31.07l-25.13 3.97c-8.58 2.64-18.5 7.27-30.4 13.88l-15.2 10.58c-2 1.32-2 2.65-1.33 3.96l3.3 2c2 0 8.6 3.3 19.18 8.6 15.2 7.26 25.78 11.23 31.73 11.23l23.15-2c-4.63 8.6-8.6 17.86-11.9 28.44-.66 5.28-1.33 11.23-1.33 17.18 0 15.87 3.3 31.08 9.92 47.6l3.3 2 3.3-2c1.34-2.63 7.95-9.9 19.2-21.8 15.86-15.88 25.12-26.46 27.1-31.1 3.3-8.58 5.3-19.82 6.6-35.03 6.62 6.6 13.23 11.23 20.5 12.56 9.26 1.3 23.15-.67 42.32-8.6l2.65-2.65zM374.1 54.8l17.2-1.98c-5.3 15.86-10.58 26.45-13.9 31.08-3.3 4.62-7.92 8.6-14.54 11.9l-8.6 4.63c-1.3 0-1.97 1.32-1.97 3.3l2.63 3.32 7.94 1.98c5.95 3.3 10.58 6.6 14.54 11.24 3.32 3.97 7.3 9.92 11.9 18.5l6.62 10.6c-16.52 5.94-27.1 8.58-34.38 7.27-4.62-1.32-9.25-4.62-15.2-9.25l-6.62-7.27c-1.3-1.33-1.98-1.33-3.96-1.33-1.32 0-2 1.33-2 3.3l-1.3 14.56c-1.33 11.9-2.65 19.84-5.3 25.13-1.98 3.97-9.9 13.9-25.78 29.76l-17.2 18.5c-5.28-16.53-7.27-29.76-7.27-40.33 0-4.63.68-9.92 1.34-14.55 3.3-9.92 6.6-18.5 10.58-26.45l5.3-7.93.65-2-.66-1.97c-1.3-1.32-2.64-1.32-3.96-1.32-9.92 4.63-19.84 5.95-29.1 4.63-5.28 0-14.54-3.97-29.1-11.24l-15.2-6.6c15.2-9.93 27.78-16.54 38.36-19.85 12.56-3.32 21.8-3.98 27.1-2.65l3.3-.67 1.33-2.64-.66-1.33c-5.95-12.55-9.26-23.8-9.26-33.7l.67-3.3 3.97-29.77 3.3-16.53 27.78 33.72c4.63 5.96 7.93 12.57 9.92 20.5l1.98 10.6c0 1.3.66 2.63 2.65 2.63 1.32.66 3.3 0 3.96-1.33l5.3-7.93c4.62-5.96 9.9-9.92 15.2-11.9l22.48-3.32z"/><path d="M294.77 39.58c-.66-1.33-1.33-1.33-3.3-1.33l-.67 2.65 7.94 23.8c7.27 17.85 13.88 33.72 19.83 46.28-7.27 39-17.2 70.75-29.1 97.2v1.32l1.33 1.32c.66.66 1.98 0 2.64-1.32 11.9-27.1 21.82-59.5 29.76-98.52v-.66c-6.6-13.22-13.23-28.43-20.5-46.28l-7.93-24.47z"/><path d="M377.42 64.7c-1.33-1.32-2-1.98-3.3-.66-7.28 5.3-18.52 13.22-33.07 26.45L319.9 109l-52.24 8.6-27.1 3.3c-2 0-2 1.32-2 2.65l2 1.98 27.76-3.3 52.9-9.26.66-.66 20.5-18.5c15.2-12.57 26.44-21.16 33.7-26.45 1.34-.66 1.34-1.33 1.34-2.65z"/><path d="M321.88 109c-.66-.67-1.33 0-2.65 1.32-1.32.66-.66 1.32.66 2l19.83 11.88 40.33 22.5c.66.65 1.98 0 2.64-.67 0-.67 0-2-.66-2.65L341.7 120.9 321.9 109z"/><path fill="#D96038" d="M196.25 459.43l-20.5 9.92 26.45 19.83c10.58 9.25 19.84 13.9 27.1 14.55 12.57 1.32 25.8-2 41.66-9.92l-5.3 9.93c-3.96 7.93-7.26 15.87-9.24 22.48-3.3 11.9-2 27.12 3.3 48.27l17.2-13.22c10.57-6.6 17.18-13.23 21.15-19.17 5.3-5.95 9.26-14.55 12.56-23.8l3.97-13.24 1.98 10.6c2 7.26 5.3 13.88 10.58 19.16 3.97 4.64 12.56 8.6 23.14 11.9l15.2 2.65c-2.63-3.97-2.63-11.25-1.97-22.48 1.32-10.58.66-18.52-.66-23.14-2-5.3-5.3-11.9-10.58-18.52l-7.28-8.58c13.22-3.3 24.46-9.26 32.4-16.53 8.6-7.3 17.85-24.48 27.77-50.26-3.32.66-11.25.66-24.48 0l-28.43.66c-7.28 1.98-13.9 5.95-21.17 12.56l-9.92 9.92c.67-14.55-3.3-26.45-9.9-33.73l-33.06-35.7-5.95 24.47c-3.32 11.9-5.3 21.82-5.3 29.75-1.33 15.87.66 26.45 4.63 31.74l-39.68-1.97c-8.6 1.32-20.5 5.3-35.7 11.9z"/><path d="M195.6 456.12c-9.93 3.97-16.54 7.94-21.17 9.92-1.32.67-1.32 1.32-1.32 3.3-.65.67 0 1.33 1.33 2.65l14.55 11.24c9.25 7.27 15.87 12.55 19.83 15.2 7.95 4.63 14.56 7.94 20.5 8.6 9.27 1.3 21.16-.66 34.4-5.96-4.64 7.27-7.94 15.22-10.6 24.47-1.3 4.63-1.3 9.25-1.3 13.9 0 11.22 1.3 23.13 5.28 35.7l1.98 2.63c1.32 0 2.65 0 3.3-1.98 1.33-.66 4.64-3.3 11.25-7.94 14.56-9.9 23.15-17.85 27.78-23.8 5.3-7.93 9.25-15.87 12.56-25.8 2 6.62 5.3 13.24 10.58 18.53 7.94 9.25 21.82 14.53 40.33 15.86l2.65-1.33 1.32-1.97-.66-1.33c-1.32-2.64-2-5.95-2-9.92l1.34-23.13-1.33-12.56c-3.3-7.93-8.6-15.86-15.2-23.8 11.9-3.97 21.82-9.25 28.43-15.86 8.6-7.94 17.85-25.13 29.1-52.23v-.66l-1.33-2.64-3.3-.67c-2.65.67-9.92.67-21.82 0l-31.08.67c-8.6 2.64-17.2 8.6-26.45 17.85-1.32-11.9-4.62-21.82-10.58-27.77l-33.06-36.36c-.66-.67-1.98-.67-3.3-.67-1.98 0-2.65 1.33-2.65 2.64l-4.63 20.5c-4.62 13.88-6.6 25.12-6.6 34.38l-.67 5.3c0 7.92 1.32 15.85 2.65 22.46l-33.72-1.3c-9.26 1.3-21.17 5.27-36.37 11.88zm-2 22.48l-11.24-9.25c22.48-10.6 39-17.2 49.6-18.52l39 2c.67 0 2 0 3.3-1.34l.67-2-.66-1.97c-3.3-3.96-4.63-11.9-4.63-24.47l.66-5.28c0-7.94 2-18.52 6.6-31.74l3.98-15.87 27.77 31.08c6.6 7.27 9.26 17.84 9.26 31.73 0 1.98.67 3.3 2.65 3.3 1.32.67 3.3 0 3.97-.66l8.6-9.92c7.27-6.6 13.88-10.57 19.83-11.9l29.1-.65h17.85c-9.26 23.14-17.2 37.7-24.46 44.3-7.94 7.27-17.86 12.56-31.08 16.53-1.32 0-1.98 1.3-2.65 1.98v.66l1.33 2.64 6.62 7.94c4.63 6.6 7.93 12.57 9.9 17.85l1.34 9.92v11.24l-1.34 11.9 1.33 7.95c-15.22-2.64-25.8-7.27-31.75-13.22-4.63-4.64-7.27-11.25-9.26-17.86l-2-9.92c0-1.98-1.3-3.3-3.3-3.3-1.98 0-3.3.66-3.3 3.3l-3.97 11.9c-3.3 9.26-7.27 16.53-11.9 23.15-3.97 5.95-12.56 13.22-25.13 22.48l-8.6 5.28c-2.64-11.9-3.3-21.15-3.3-28.42 0-4.64 0-9.26 1.32-11.9 1.98-7.28 5.3-14.55 8.6-22.5l5.3-9.25.65-2-.66-1.97-4.62-.66c-14.55 7.93-27.77 10.57-38.35 9.26-5.3-.66-11.9-3.3-18.5-7.94-3.98-2.65-9.93-6.62-18.53-13.9z"/><path d="M267.66 553.32l1.32 1.98c1.32.66 1.98 0 2.65-.67L308 475.3v-1.33c-.67-7.93-3.98-24.46-11.25-50.24l-11.24-37.7c-.65-1.3-.65-1.97-2.63-1.3l-1.33 1.97 10.58 37.03c7.27 25.78 11.24 42.3 11.9 50.24l-35.7 78.7-.66.65z"/><path d="M201.54 473.98c0 1.3.66 1.98 1.98 1.98l34.38-2.64 67.44 3.3 2-.66c33.7-19.84 60.16-37.03 80-50.26 1.3-.65 1.3-1.97 0-2.64l-2-.66-49.58 31.08-30.42 19.17-68.1-3.3-34.38 2.64c-1.32 0-1.32.65-1.32 1.98z"/><path d="M308 472.65c-1.33-.66-2.66-.66-3.32 0-.66 1.32-.66 2.64 0 3.3l16.53 19.18c12.57 13.9 21.83 26.45 27.12 36.36 0 1.32 1.32 1.32 2.65 1.32 1.32-1.33 1.32-1.98.66-3.3-5.3-9.92-14.55-22.48-27.1-37.03l-16.54-19.85z"/><path fill="#D96038" d="M100.38-26.54L89.8-13.32 73.93 2.54c-5.3 5.96-9.92 15.22-11.9 25.8l-2.65 14.54c-8.6-9.25-18.5-17.2-31.07-21.82-7.26-3.3-17.84-3.96-31.73-3.3l-17.2 3.3c2.65 1.98 5.96 9.92 9.27 21.82C-7.4 54.12-3.43 62.05 2.52 66.02 13.1 73.96 25 78.58 38.22 80.57c-9.25 0-19.83 3.3-31.07 8.6-10.58 5.28-20.5 14.54-29.1 27.1l17.2 7.28c9.25 3.3 16.53 5.28 23.14 3.96 10.57-.65 19.83-5.28 29.08-12.55l-4.63 7.94c-3.97 7.26-6.6 15.2-8.6 24.45-1.98 9.26-1.32 19.83 2.65 31.07l5.95 14.55 16.53-17.85 19.18-21.16c5.3-7.93 7.27-20.5 6.6-36.37l2 11.23c1.98 7.94 5.94 13.9 10.57 17.86 7.94 6.6 17.85 11.9 32.4 16.52V146.7l-.66-21.17c-.66-6.6-3.97-13.22-8.6-19.17l-7.27-7.94 13.23.66c10.58 0 19.17-1.98 27.1-5.3 7.94-3.95 17.2-11.9 27.77-24.45l13.23-17.86-23.8-3.3-27.1-5.3-27.12 2-11.9 3.96c7.28-9.92 10.58-20.5 9.92-31.73 0-11.9-5.3-25.8-14.54-43.64z"/><path d="M97.07-27.87l-11.9 14.55L71.94.58C64 9.15 59.38 21.05 57.4 35.6c-9.92-7.93-18.5-13.88-27.77-17.84-11.9-5.3-29.75-5.3-50.9 0l-2.66 1.98v1.32l.67 1.98c2.64 2 5.3 7.94 7.93 17.2l5.3 15.86c2.63 5.3 6.6 9.92 10.57 13.23C6.5 73.3 13.76 77.26 23.02 79.9c-7.28 1.33-13.23 3.97-17.2 5.96-11.23 5.95-21.15 15.2-30.4 28.43l-.67 1.98.67 1.3 1.98 2 11.24 3.97c12.56 6.6 22.48 8.6 29.75 7.27 6.6-.66 13.22-2.65 19.83-6.6-2.65 6.6-5.3 13.87-7.28 22.47l-1.32 10.56c0 12.57 3.97 25.8 11.24 37.7l1.98 1.32 3.3-1.33 13.23-15.2c11.24-9.92 17.86-17.86 22.48-24.47 2.65-3.97 4.63-9.92 5.3-17.85l8.6 11.9c7.92 7.28 19.16 12.56 33.05 17.2l3.3-1.33 1.34-1.98-.66-6.62.66-21.15-.66-10.6c-.67-7.92-4.63-15.2-10.58-22.46 12.56.65 23.8-1.34 33.72-5.96 12.56-5.95 26.45-20.5 42.3-42.98V49.5c-.65-.67-1.97-1.33-3.3-1.33l-25.78-3.97-24.47-4.63c-11.23-.66-21.8 0-32.4 3.3 3.98-7.93 5.96-16.52 5.96-25.12v-1.32c0-11.9-5.95-26.45-15.2-44.3-.67-.66-1.33-1.98-2.65-1.98-1.32 0-2 1.32-3.3 1.98zM89.14-8.03l10.58-11.9C107-4.07 111.62 8.5 111.62 17.1v.66c0 10.57-2.65 19.83-9.26 29.1l-.66 1.97.66 2c1.33 1.97 2.65 1.97 3.97.64l11.9-3.3 25.13-1.98 24.46 4.62 21.16 3.3c-13.9 19.84-26.45 31.74-36.37 36.37-7.26 3.3-15.86 5.28-25.77 5.28h-11.9c-2-.67-3.3 0-3.97 1.32l-.66 1.32 1.32 2.64 7.27 7.28c3.96 5.3 6.6 11.9 7.26 17.2l.67 10.57-.67 22.5c-11.24-3.98-20.5-8.6-25.78-14.56-4.63-3.3-7.94-8.6-9.92-16.53l-1.98-10.56c-.66-1.33-2-2.65-3.97-2.65-1.97 0-2.64 1.3-2.64 3.3v5.95c0 13.22-2.64 23.14-5.95 28.43l-21.14 23.14-10.58 11.9c-5.3-10.57-7.94-20.5-7.94-29.75l1.33-9.26c1.98-9.24 4.62-16.52 7.93-23.8l3.97-7.26 1.32-2-1.33-2.63H45.5c-9.26 6.62-17.85 11.25-27.77 12.57-6.6.66-15.2-1.32-25.78-7.27l-8.6-3.3c8.6-10.6 17.2-17.86 25.78-21.83 9.92-5.3 19.84-8.6 29.1-8.6 2.64 0 3.3-1.32 3.3-3.3 0-2-.66-3.3-2.64-3.3-12.58-2-24.48-6.62-34.4-13.23C-.8 59.4-5.4 50.82-8.7 38.24c-1.98-5.94-4.63-10.57-6.6-15.2 18.5-3.97 33.05-3.3 42.97 1.33C38.9 29 48.8 35.6 57.4 44.87c.66 1.32 1.98 1.32 3.3 1.32l2-3.32 2.63-13.9c2-10.57 5.96-18.5 11.25-24.45L89.14-8.03z"/><path d="M97.07 2.54l-1.98 2-1.33-2-18.52 81.34-12.56 33.7c-8.6 23.8-13.23 41-15.22 52.25l1.32 2.65 2-2c1.97-10.57 7.92-28.42 15.86-52.23L79.22 85.2 97.07 2.53z"/><path d="M174.43 62.05c-.66-1.32-1.98-1.32-2.65-1.32C146 68 113.6 75.93 76.58 82.55 47.48 94.45 21.7 103.7-.78 109l-1.32 1.98c0 1.32 1.32 2 1.98 1.32 22.48-5.28 48.27-13.22 77.36-25.78 37.68-7.27 69.42-14.55 95.2-21.82 2-.66 2-1.32 2-2.65z"/><path d="M120.2 144.04c-12.55-22.48-26.43-42.98-41.64-60.82C60.7 68 34.26 50.82 1.2 30.98h-2.64c-.67 1.32-.67 1.98.66 3.3 33.72 19.84 58.84 37.03 76.7 51.58 14.54 17.85 29.08 37.7 41 60.83.65.65 1.97 1.3 3.3 0 .66 0 1.3-1.33 0-2.66z"/><path fill="#858585" d="M126.83 211.48l-1.33-23.14-42.98 27.77c-7.27 5.3-12.56 11.9-15.86 20.5-1.33 4.64-2.65 7.94-2.65 11.25-5.28-7.28-11.9-15.2-20.48-23.14-4.63-5.28-13.9-11.24-27.1-17.2L-.8 199.6c1.32 5.3 1.98 15.2.66 31.74-.67 15.86 0 26.45 3.3 33.06 2.65 6.6 9.26 13.22 17.86 17.85l13.22 5.95-29.75.66c-9.9 1.98-23.8 9.92-40.33 23.15 1.98.64 9.26 4.6 21.16 11.88 10.58 7.28 19.17 10.6 26.45 11.24 12.56 2 24.46-1.32 37.68-7.93v9.24c0 7.28 1.33 15.2 3.3 23.8 2.65 7.94 9.27 17.2 19.85 26.46l15.88 12.56c0-4.63 2.64-11.24 8.6-21.16 5.28-9.26 7.92-17.85 7.92-23.8 0-7.27-1.32-15.2-5.28-22.48l-5.95-7.94L107 328.5l24.45 5.3c5.96 0 15.87-5.3 29.76-15.86l17.86-15.87-17.85-13.23c-8.6-5.95-15.2-9.92-21.8-12.56l-23.82-3.3-11.9 1.32c5.3-4.63 11.9-13.23 17.85-25.13 3.97-7.93 5.3-20.5 5.3-37.7z"/><path d="M130.13 213.47l-1.32-25.13-1.97-3.3-3.3.66-43 27.76c-9.9 6.62-15.2 15.87-18.5 26.45l-15.87-17.84c-5.3-5.95-14.54-11.24-27.1-17.2l-19.18-7.93-3.3.66-.67 1.98v1.32c.67 2.65 1.33 7.27 1.33 13.9l-.66 29.07c0 9.26.66 16.53 3.3 21.83 3.3 6.6 9.26 13.22 18.52 18.5l-15.22 1.33c-9.92 2.65-23.8 9.92-41 23.8l-1.3 2.65v1.32l1.97 1.98 15.87 8.6c13.88 9.25 24.46 13.9 32.4 14.55 11.24 1.3 22.48-.66 35.04-5.96 0 8.6 1.32 17.86 3.3 28.44 2.65 9.27 9.26 18.52 19.84 28.43l17.2 13.23h3.3l1.98-3.3c0-4.63 2-9.93 7.27-18.5 5.95-10.6 9.26-19.85 9.26-26.46v-.66c0-7.94-1.97-15.87-5.94-23.15 11.24 3.97 20.5 6.6 29.1 6.6 6.6 0 16.52-5.28 29.74-15.2l20.5-17.86.66-2.64-1.32-2.64-13.22-8.6c-11.9-9.26-21.16-14.55-27.77-17.2-7.94-2.64-16.53-3.96-27.77-3.3l11.9-19.18c3.97-7.92 5.95-20.48 5.95-37zm-7.93-19.84l1.32 19.84c0 15.87-1.32 27.1-5.3 34.38C112.3 259.1 107 267.02 101.7 271l-1.32 3.3v1.32c1.32 1.32 1.98 1.98 3.97 1.98l11.23-1.32c8.6-.66 16.54.66 22.48 2.65 5.3 1.98 13.9 7.27 25.13 15.87l10.57 7.93c-20.5 18.5-35.04 27.77-42.32 27.77l-23.14-5.3-12.55-4.62c-1.98-.67-3.3 0-3.97 1.32l-1.32 1.98 1.32 1.98 5.3 7.94c3.3 6.6 4.62 13.22 4.62 19.84v.66c0 5.95-2.64 13.23-8.6 23.14-3.3 5.95-5.94 10.58-7.27 16.53-16.53-13.22-26.44-24.47-29.75-34.4-1.98-9.9-3.3-19.16-3.3-27.75v-4.63l-2-2.65-3.3-.67c-11.9 6.6-24.46 9.92-35.7 7.94-6.6-.66-16.53-4.63-29.1-13.23l-11.9-7.28c14.56-10.58 25.8-17.2 34.4-19.17l27.76-.66c2.64.65 3.97 0 4.63-2v-1.32c0-1.33-1.33-2.65-2.65-2.65l-11.9-5.95c-8.6-4.62-13.88-10.57-17.2-17.2-1.97-3.95-2.64-9.9-2.64-18.5v-39c19.18 7.93 31.08 15.2 37.7 21.8 8.6 7.94 15.2 15.88 19.83 23.15l3.98 1.32 2.64-2.64c0-2.63 1.32-6.6 2.65-10.57 2.64-7.93 7.93-14.55 13.88-18.5l38.35-25.8z"/><path d="M112.94 209.5c-.66 0-1.98 0-2.65 1.32l-16.53 32.4-28.44 54.88c-27.77 9.92-53.55 13.9-78.68 12.56-.66 0-1.32 0-1.32 1.33l1.32 2.63c16.53.66 35.05-.66 55.54-5.3l25.12-7.92 1.32-.66 29.1-54.87 15.86-33.06c.66-1.32 0-2.64-.66-3.3z"/><path d="M17.73 224.7c-1.32-1.32-2-1.32-2.65 0-1.32 1.33-1.98 1.33-.66 2.65l17.85 21.82c12.57 17.2 23.8 34.38 33.06 51.57l1.33 1.33 84.63 3.3c1.3.66 1.97 0 1.97-1.32l-1.32-2.64-50.9-2.64-33.07-.66c-8.6-17.2-20.5-34.4-33.72-52.23L17.73 224.7z"/><path d="M68.64 299.42c0-1.32-1.32-1.98-2.65-1.32-1.32 0-2 1.32-1.32 2.65l5.95 25.12 8.6 48.27c0 .66 1.3 1.98 2.63 1.98l1.33-2.64-9.27-48.93-5.3-25.13z"/><path stroke-miterlimit="100" d="M364.58 579.58H7.42V7.42h357.16v572.16z" fill="none" stroke="#000" stroke-width="14.84"/></svg>