<svg xmlns="http://www.w3.org/2000/svg" width="372" height="587" viewBox="0 0 372 587"><path fill="#fff" d="M0 0h372v587H0z"/><path fill="#FFE000" d="M149.97 429l-6.6 17.2c-3.32 7.94-5.3 16.53-6.63 23.8-1.98 8.6-1.98 15.88 0 23.15l2.65 7.93a54.9 54.9 0 0 0-29.1-3.96 83.9 83.9 0 0 0-23.16 8.6l-11.25 5.94 12.6 14.54c4.62 6.63 10.57 11.9 16.52 14.56a60.73 60.73 0 0 0 21.83 3.96l9.25-1.98-5.94 3.3c-5.3 3.98-9.9 9.93-13.88 16.54-3.97 7.27-4.63 16.53-2.65 27.1a67.75 67.75 0 0 0 3.3 14.55c2-3.3 7.94-5.95 15.88-9.26a155.1 155.1 0 0 0 18.5-9.25 61.15 61.15 0 0 0 11.27-15.87l5.3-9.26v8.6c1.3 7.24 1.98 12.53 4.62 16.5 2.63 5.95 10.57 13.22 23.8 21.8 0-4.6 2.64-11.2 7.93-20.48 5.28-9.26 7.92-15.87 7.92-19.18l-3.3-16.53-3.3-8.6 9.9 3.33 21.17-.66c5.95-2 15.2-9.93 25.78-23.82l14.55-19.84-20.5-5.94-24.46-6.62-25.8 2.65-10.58 4.62 1.97-9.26c1.32-7.27 0-15.2-3.97-23.8-3.95-7.94-11.9-16.53-24.45-24.47L150 429z"/><path d="M151.95 425.7l-3.3.67-2 1.32-4.62 14.5a91.84 91.84 0 0 0-8.6 27.1l-1.32 12.6c0 3.97 0 8.6 1.36 13.9l-24.47-2c-6.6 1.32-13.9 3.97-23.15 8.6-6.6 3.3-10.58 5.94-11.9 7.27-1.32 0-1.32 1.32-1.32 1.98l1.33 3.3 9.26 9.92c6.6 9.27 13.2 15.22 20.5 18.53l19.17 4.64c-3.98 4.63-7.3 8.6-9.27 13.22-3.3 4.64-4.62 11.25-4.62 19.18 0 8.6 1.34 17.2 4.64 25.13l2.66 1.98c1.98 0 2.64-.66 3.3-1.32 1.98-2 7.28-5.3 15.87-8.6 9.26-3.97 14.55-7.27 17.85-9.92 3.97-3.3 7.94-8.6 11.9-15.2.67 5.3 2 10.6 3.97 14.56 3.3 6.6 11.9 13.88 25.8 23.14h3.3l1.3-2.65c0-4.63 2.65-10.58 7.94-19.84 4.62-8.6 7.93-15.2 7.93-19.8 0-5.3-1.33-11.25-3.97-19.18 9.26 2.65 17.85 2.65 25.78 0 11.25-3.3 25.13-18.5 42.98-45.6v-3.3l-2.64-1.35-19.18-5.28-26.44-7.3a50.46 50.46 0 0 0-31.08 3.97v-6.6c0-6.62-1.32-13.9-4.63-20.5-3.3-9.26-11.9-17.86-25.13-26.45L152 425.72zm-3.97 18.52l4.63-11.24c20.5 10.6 33.1 21.16 37.7 32.4 2.67 5.95 4.64 11.9 4.64 17.86 0 5.94-.65 9.92-2.64 11.9v.66l.65 3.3h3.97l10.6-4.63 23.8-1.98c7.26 1.3 15.86 3.3 24.46 7.25l15.86 3.96c-15.2 22.5-27.1 35.7-36.36 39.03H216.1l-8.6-2.65-3.96.65-1.32 2 .66 1.96 2.64 7.94 3.3 15.2c0 3.3-2.63 8.6-6.6 16.53a78.23 78.23 0 0 0-7.93 17.85c-11.26-7.94-17.2-13.9-19.2-17.86-2.65-5.95-3.98-13.23-3.98-23.15v-.65c0-1.32-1.32-2.65-2.64-3.3-2-.67-2.66.64-3.98 1.97l-4.62 8.6c-3.96 6.6-7.27 11.9-10.58 14.55L132.77 591c-4.63 2-9.9 4.64-13.88 7.95-2-6.62-3.34-12.57-3.34-18.52s1.33-11.24 3.3-15.88c3.98-6.6 7.94-11.9 12.57-15.2l5.3-3.3h.65c1.3 0 2-1.33 2-3.3v-.67c-.7-1.98-1.35-2.65-4-2.65-9.9 3.3-19.16 3.3-29.1-1.32-6.6-3.3-12.54-8.56-17.17-16.5l-7.9-8.6c11.23-7.28 21.15-11.25 29.1-12.57 9.9-.65 19.16 0 28.4 3.3l3.3-.65.68-1.98v-2c-3.3-3.97-3.98-9.92-3.98-17.2l.67-11.9c1.97-7.27 3.95-16.52 8.58-25.78z"/><path d="M161.2 449.5c-.65-1.97-1.98-1.97-2.64-1.97l-1.98 1.98v.7L164.5 476l9.95 47.6-23.14 23.8c-13.23 15.22-22.5 26.45-26.45 35.05v.67l.66 1.3c1.34 1.33 2.66 1.33 3.3-.66 3.3-7.93 13.24-19.84 27.8-35.7l21.14-21.82.67-1.98c-1.97-12.56-5.3-28.43-9.9-48.26l-7.28-26.45z"/><path d="M100.38 516.3c-2 0-2.65 0-2.65 1.3 0 2 .66 2 2 2l76.68 6.6 22.5-3.96 48.94-5.95 1.98-2-1.97-2-49.6 5.95-22.47 4.64-75.37-6.6z"/><path d="M178.4 523.57c0-.66-1.32-1.33-2.65-.66-1.32 0-1.98.7-.66 2l5.92 18.5c3.97 14.56 7.27 27.1 8.6 37.7l2.64 2 2-2-9.93-38.35-5.95-19.17z"/><path fill="#FFE000" d="M278.24 71.3l-7.28 6.62c-5.28-15.2-9.9-25.12-15.86-31.73L238.57 34.9l-14.55-9.25-1.98 17.18c-.66 12.56-1.32 21.16 0 25.78a30.35 30.35 0 0 0 11.24 18.52h-27.1l-17.2 9.26c-7.27 4.63-11.9 7.28-13.9 7.28l9.27 7.93 17.85 13.9c4.63 2.64 11.24 3.3 19.84 1.98l11.24-2.64c-3.97 2-7.94 3.98-11.24 6.62-9.26 5.3-14.55 11.9-16.53 18.5-1.3 5.97-2.62 15.22-2.62 27.12l-.66 23.8 45.64-27.76c7.93-6.62 13.22-13.23 14.54-21.16l.66 9.9c1.32 7.95 3.97 13.24 8.6 17.2 6.6 5.95 22.48 15.2 46.28 27.1 2.66-23.8 2-42.3-2.63-55.53-2.65-8.6-6.6-15.2-10.6-21.15l-6.6-5.96 14.54-6.6c10.58-5.96 16.53-11.25 19.18-17.86 3.98-9.92 7.94-25.12 10.6-44.96-21.83.66-37.7 3.3-46.96 6.6l-17.2 10.6z"/><path d="M344.36 52.8l-2.65-1.98c-21.8.65-37.66 3.3-46.9 7.27-7.95 3.3-15.88 7.9-22.5 14.5-4.63-13.2-9.92-23.13-14.55-28.42-3.97-3.97-10.58-8.6-20.5-13.9L226 23.05l-3.3-.66a9.25 9.25 0 0 0-2 2.64l-1.3 12.56-1.33 21.8.66 9.92c.66 4.63 3.3 9.25 6.6 13.9l-19.83.64c-3.96.66-10.58 3.97-19.17 9.92l-10.58 6.6c-1.32 0-3.3 0-3.3 2-.67 1.3-.67 2.63 0 3.3l9.9 8.6 18.53 13.2c3.3 2.66 7.93 3.98 15.2 3.98-7.27 5.3-11.9 11.24-13.88 17.2-1.32 6.6-2.65 15.2-2.65 26.44v11.24l-.66 13.22v1.32l.63 2.65h3.3L222 192.95l27.1-17.85 11.26-10.6c1.32 7.3 4.63 13.24 8.6 17.2 7.27 6.62 22.48 15.2 47.6 27.78l3.3-.66 1.33-2.65.66-23.15c0-14.55-.66-25.8-3.97-33.06-3.3-10.6-7.28-19.2-13.23-25.8 16.53-5.95 26.45-13.88 29.75-23.8 4.63-9.92 7.94-25.8 10.58-45.62l.68-.66-1.3-1.32zm-64.14 21.16l16.53-9.92c7.94-3.3 21.82-5.3 41.66-5.95-3.94 19.8-7.25 33.7-9.9 39.64-2 5.95-7.93 11.24-17.2 16.53l-13.9 5.94c-1.3 0-1.95 1.33-1.95 2.66l-.66.65 1.97 2 5.3 6.6c4.62 5.3 7.92 11.9 9.9 19.84 2.65 6.6 3.32 16.53 3.32 30.42l-.68 18.5c-22.47-11.23-36.35-19.83-41-24.46-5.27-4.62-7.92-12.55-7.92-22.47v-1.98c0-1.33-.66-2.64-3.3-3.3-1.33 0-3.3 1.3-3.3 3.3-1.33 6.6-5.3 12.56-13.23 17.85l-40.34 25.13.68-19.84c0-10.6 1.33-18.5 2.65-24.5 2-5.27 6.62-11.22 15.22-16.52 3.97-2.65 7.93-5.3 11.24-6.6 1.33-.68 2-1.33 2-3.3v-.68c-1.33-2-2-2.65-4.64-2l-13.2 2.66c-7.28 1.33-11.9 0-15.22-1.98-7.92-4.62-15.2-10.58-22.47-17.85l8.6-5.3c8.6-5.28 13.88-7.92 17.2-8.58h25.1c2 .65 2.66 0 3.32-1.33l.65-2-1.3-2.63c-5.3-3.97-8.6-9.9-9.93-16.53l-.66-8.6c0-5.93.67-15.2 2-27.76l7.26 3.98c9.26 5.3 15.2 9.9 18.52 13.22 5.3 5.3 9.92 15.2 15.2 30.42l2.65 1.98c1.32.66 2 0 2.64-.66l7.27-6.6z"/><path d="M308.65 185.04l-36.36-68.1c-2.68-8.6-9.95-21.83-19.87-39.68l-15.2-26.44c-1.33-1.33-2-1.33-3.32 0-1.3 0-1.3.66 0 1.98l14.56 25.12c10.58 18.52 17.2 32.4 20.5 40.33l36.36 68.77c.67 1.32 2 2 2.65 1.32.65-1.32 1.3-1.98.65-3.3z"/><path d="M325.84 70.65h-2.64c-5.3 6.6-15.2 15.87-29.1 27.1l-23.8 17.86c-15.2-7.24-32.4-11.9-50.9-13.86l-23.15-.66c-1.32 0-1.98.66-1.98 2.65l1.98 1.33 23.14.66c18.5 2 35.7 6.6 50.9 13.9l1.3-.67 23.15-16.53c15.86-12.57 26.44-21.83 31.73-29.77.66-.66.66-1.32-.67-1.98z"/><path d="M271.63 118.92l.66-2.64c-.7-.67-2-.67-3.34 0l-26.45 25.78c-16.5 17.84-26.4 30.42-27.74 37.04-.66.65 0 1.96.66 2.63 1.33 0 2.65 0 2.65-1.98 1.32-5.96 11.24-17.86 28.43-35.7l25.13-25.13z"/><path fill="#858585" d="M395.93 48.17l-21.82 3.3c-11.2.66-19.14 2-23.8 3.3a40.63 40.63 0 0 0-15.84 12.58l-6.6 8.6c-.67-11.25-4.64-21.83-12.57-31.75l-20.5-25.8-12.6-13.86-3.96 23.8-3.97 29.1c-1.32 11.23 1.98 23.8 9.26 39-5.95-1.98-15.87-.66-29.76 2.65-8.6 2.62-18.5 7.26-29.75 14.53l-15.2 9.92c3.3 0 10.57 3.3 23.8 9.9 13.22 6.63 22.47 9.93 28.42 9.93 9.92 1.3 20.5 0 30.42-4.64l-5.3 7.94c-4.62 7.26-7.92 16.52-11.23 27.1-2.64 11.23-2.64 24.46 1.98 41.65a89.7 89.7 0 0 0 6.64 21.16c1.33-2.64 9.26-11.23 23.15-25.1 13.2-13.24 21.15-23.16 23.8-28.45 3.96-9.26 5.94-23.14 6.6-41l7.27 7.94c5.95 5.27 11.25 8.6 16.53 9.9 8.6 1.32 21.8-1.3 41-9.26-2.66-1.98-5.97-6.6-9.27-13.22l-12.56-18.5c-4.63-5.3-9.92-9.93-15.87-13.24l-8.6-2 8.6-4.63 15.2-13.22c5.95-7.28 11.24-19.84 16.53-37.7z"/><path d="M405.2 151.3v-.65l-1.34-1.98c-1.98-1.98-5.28-6.6-8.6-13.22l-12.56-19.17a54.56 54.56 0 0 0-18.5-13.9c7.93-3.96 13.88-8.6 18.5-14.54 5.3-7.27 11.25-20.5 16.53-39v-.67l-.65-2.65-3.3-.66-21.17 3.3-25.1 3.97c-7.3 2.65-13.22 7.94-19.2 15.87a64.08 64.08 0 0 0-11.9-26.44l-20.5-25.13L284.88 1.9l-3.3-.67c-1.33 0-2.65 1.3-2.65 3.3l-3.3 23.14A206.77 206.77 0 0 0 271 57.43l-.67 3.96c0 9.23 2.66 19.8 7.95 31.05l-25.13 3.97c-8.58 2.64-18.5 7.27-30.4 13.88l-15.2 10.6c-2 1.3-2 2.64-1.33 3.95l3.3 2c2 0 8.6 3.3 19.17 8.6 15.2 7.26 25.77 11.23 31.72 11.23l23.15-2c-4.63 8.6-8.6 17.86-11.9 28.44a139.48 139.48 0 0 0-1.33 17.18c0 15.87 3.3 31.08 9.92 47.6l3.3 2 3.3-2c1.34-2.63 7.95-9.9 19.2-21.8 15.86-15.88 25.12-26.46 27.1-31.1 3.3-8.58 5.3-19.82 6.6-35.03 6.62 6.6 13.23 11.23 20.5 12.56 9.26 1.3 23.15-.67 42.32-8.6l2.65-2.65zm-31.1-96.5l17.2-1.98c-5.3 15.86-10.58 26.45-13.9 31.08-3.3 4.62-7.92 8.6-14.54 11.9l-8.6 4.63c-1.3 0-1.97 1.32-1.97 3.3l2.6 3.32 7.95 1.98c5.95 3.3 10.58 6.6 14.54 11.24 3.3 3.97 7.3 9.92 11.9 18.5l6.6 10.6c-16.5 5.94-27.1 8.58-34.37 7.27-4.62-1.32-9.25-4.62-15.2-9.25l-6.62-7.3c-1.3-1.32-1.97-1.32-3.95-1.32-1.32 0-2 1.32-2 3.3l-1.3 14.55c-1.33 11.9-2.65 19.84-5.3 25.13-1.98 3.97-9.9 13.9-25.78 29.76l-17.2 18.5c-5.28-16.53-7.27-29.76-7.27-40.33 0-4.63.7-9.9 1.35-14.55 3.3-9.92 6.6-18.5 10.58-26.45l5.3-7.92.65-2-.66-1.97c-1.3-1.3-2.64-1.3-3.96-1.3-9.92 4.63-19.84 5.95-29.1 4.63-5.28 0-14.54-3.97-29.1-11.24l-15.2-6.6c15.2-9.94 27.78-16.55 38.36-19.86 12.56-3.32 21.8-3.98 27.1-2.65l3.3-.68 1.33-2.63-.66-1.34c-5.97-12.55-9.28-23.8-9.28-33.7l.67-3.3 3.96-29.77 3.3-16.54 27.78 33.72a53.92 53.92 0 0 1 9.92 20.5l1.98 10.6c0 1.3.66 2.63 2.65 2.63 1.3.66 3.3 0 3.95-1.33l5.3-7.93c4.62-5.96 9.9-9.92 15.2-11.9l22.48-3.32z"/><path d="M294.77 39.58c-.66-1.33-1.33-1.33-3.3-1.33l-.67 2.65 7.94 23.8c7.27 17.85 13.88 33.72 19.83 46.28-7.27 39-17.2 70.75-29.1 97.2v1.32l1.33 1.32c.66.66 1.98 0 2.64-1.32 11.9-27.1 21.82-59.5 29.76-98.52v-.66c-6.6-13.22-13.23-28.43-20.5-46.28l-7.93-24.47z"/><path d="M377.42 64.7c-1.33-1.32-2-1.98-3.3-.66-7.28 5.3-18.52 13.22-33.07 26.45L319.9 109l-52.24 8.6-27.1 3.3c-2 0-2 1.32-2 2.65l2 1.98 27.76-3.3 52.9-9.26.66-.66 20.5-18.5a712.27 712.27 0 0 1 33.7-26.43c1.34-.66 1.34-1.33 1.34-2.65z"/><path d="M321.88 109c-.66-.67-1.33 0-2.65 1.32-1.32.66-.66 1.32.66 2l19.8 11.88 40.34 22.5c.66.65 1.98 0 2.64-.67 0-.67 0-2-.67-2.65l-40.3-22.48-19.8-11.9z"/><path fill="#D96038" d="M196.25 459.43l-20.5 9.92 26.45 19.83c10.58 9.25 19.84 13.9 27.1 14.55 12.57 1.32 25.8-2 41.66-9.92l-5.3 9.95c-3.96 7.93-7.26 15.87-9.24 22.48-3.3 11.9-2 27.12 3.3 48.27l17.2-13.23c10.57-6.6 17.18-13.23 21.15-19.17 5.3-5.95 9.26-14.55 12.56-23.8l3.97-13.24 1.98 10.6c2 7.26 5.3 13.88 10.58 19.16 3.97 4.64 12.56 8.6 23.14 11.9l15.2 2.65c-2.63-3.97-2.63-11.25-1.97-22.48 1.32-10.6.66-18.54-.66-23.16a68.1 68.1 0 0 0-10.58-18.52l-7.3-8.58c13.22-3.3 24.46-9.26 32.4-16.53 8.6-7.3 17.85-24.47 27.77-50.25-3.32.66-11.25.66-24.48 0l-28.44.66c-7.28 2-13.9 5.96-21.17 12.57l-9.93 9.92c.67-14.56-3.3-26.46-9.9-33.74l-33.06-35.7-5.94 24.47c-3.32 11.9-5.3 21.82-5.3 29.75-1.33 15.86.66 26.44 4.63 31.73l-39.7-1.96c-8.6 1.32-20.5 5.3-35.7 11.9z"/><path d="M195.6 456.12c-9.93 3.97-16.54 7.94-21.17 9.92-1.32.67-1.32 1.32-1.32 3.3-.63.67 0 1.33 1.35 2.65L189 483.2c9.24 7.27 15.86 12.55 19.82 15.2 7.95 4.63 14.56 7.94 20.5 8.6 9.27 1.3 21.16-.66 34.4-5.96-4.64 7.27-7.94 15.22-10.6 24.47-1.3 4.63-1.3 9.25-1.3 13.9 0 11.22 1.3 23.13 5.28 35.7l1.98 2.63c1.32 0 2.65 0 3.3-1.98 1.33-.67 4.64-3.3 11.25-7.95 14.56-9.9 23.15-17.85 27.78-23.8a103.9 103.9 0 0 0 12.58-25.8c2 6.62 5.3 13.24 10.58 18.53 7.94 9.25 21.82 14.53 40.33 15.86l2.64-1.33 1.32-1.97-.66-1.33c-1.33-2.63-2-5.94-2-9.9l1.33-23.14-1.33-12.56c-3.3-7.93-8.6-15.86-15.2-23.8 11.9-3.97 21.82-9.25 28.43-15.86 8.6-7.94 17.85-25.13 29.1-52.23v-.64l-1.33-2.64-3.3-.66c-2.65.67-9.92.67-21.82 0l-31.08.67c-8.6 2.65-17.2 8.6-26.45 17.86-1.32-11.9-4.62-21.83-10.58-27.78l-33.06-36.37c-.64-.67-1.96-.67-3.3-.67-1.96 0-2.63 1.33-2.63 2.64l-4.63 20.5c-4.62 13.88-6.6 25.12-6.6 34.38l-.67 5.3c0 7.92 1.32 15.85 2.65 22.46l-33.7-1.3c-9.27 1.3-21.18 5.27-36.38 11.88zm-2 22.48l-11.24-9.25c22.48-10.6 39-17.2 49.6-18.52l39 2c.67 0 2 0 3.3-1.34l.67-2-.66-2c-3.3-3.95-4.63-11.9-4.63-24.46l.66-5.28c0-7.94 2-18.52 6.6-31.74l3.98-15.87 27.77 31.08c6.6 7.27 9.26 17.84 9.26 31.73 0 1.98.7 3.3 2.67 3.3 1.32.67 3.3 0 3.97-.66l8.6-9.9c7.27-6.6 13.88-10.58 19.83-11.9l29.1-.66h17.85c-9.25 23.14-17.2 37.7-24.45 44.3-7.94 7.27-17.86 12.56-31.08 16.53-1.33 0-2 1.3-2.66 1.98v.66l1.33 2.66 6.62 7.94c4.62 6.6 7.92 12.56 9.9 17.84l1.33 9.92v11.24l-1.33 11.9 1.33 7.95c-15.22-2.64-25.8-7.27-31.75-13.22-4.63-4.64-7.27-11.25-9.26-17.86l-2-9.92c0-1.98-1.3-3.3-3.3-3.3-2 0-3.3.66-3.3 3.3l-3.98 11.9a94.97 94.97 0 0 1-11.9 23.15c-3.97 5.95-12.56 13.22-25.13 22.48l-8.6 5.28a128.67 128.67 0 0 1-3.3-28.42c0-4.64 0-9.26 1.3-11.9 2-7.28 5.3-14.55 8.6-22.5l5.3-9.25.67-2-.66-2-4.6-.65c-14.56 7.93-27.78 10.57-38.36 9.26-5.3-.65-11.9-3.3-18.5-7.93a184.2 184.2 0 0 1-18.53-13.9z"/><path d="M267.66 553.32l1.32 1.98c1.32.66 1.98 0 2.65-.67L308 475.3v-1.33c-.67-7.93-3.98-24.46-11.25-50.24l-11.24-37.7c-.63-1.3-.63-1.97-2.6-1.3l-1.34 1.97 10.58 37.03c7.27 25.78 11.24 42.3 11.9 50.24l-35.7 78.7-.66.65z"/><path d="M201.54 473.98c0 1.3.66 1.98 1.98 1.98l34.38-2.64 67.44 3.3 2-.66a1639.52 1639.52 0 0 0 80-50.26c1.3-.65 1.3-1.97 0-2.64l-2-.66-49.58 31.08-30.42 19.17-68.1-3.3-34.38 2.64c-1.32 0-1.32.63-1.32 1.96z"/><path d="M308 472.65c-1.33-.66-2.66-.66-3.32 0-.66 1.32-.66 2.64 0 3.3l16.53 19.18c12.6 13.9 21.85 26.45 27.14 36.36 0 1.3 1.32 1.3 2.65 1.3 1.3-1.33 1.3-1.98.65-3.3-5.3-9.9-14.55-22.48-27.1-37.03L308 472.63z"/><path fill="#D96038" d="M100.38-26.54L89.8-13.32 73.93 2.54c-5.3 5.96-9.92 15.22-11.9 25.8l-2.65 14.54c-8.6-9.25-18.5-17.2-31.07-21.82-7.24-3.3-17.82-3.96-31.7-3.3l-17.2 3.3c2.64 1.98 5.95 9.92 9.26 21.82 3.94 11.24 7.9 19.17 13.86 23.14C13.1 73.96 25 78.58 38.22 80.57c-9.25 0-19.83 3.3-31.07 8.6-10.58 5.28-20.5 14.54-29.1 27.1l17.2 7.28c9.25 3.3 16.53 5.28 23.14 3.96 10.55-.63 19.8-5.26 29.06-12.53l-4.63 7.94c-3.97 7.27-6.6 15.2-8.6 24.46-1.98 9.26-1.32 19.83 2.65 31.07l5.94 14.55 16.53-17.85 19.18-21.16c5.3-7.93 7.27-20.5 6.6-36.37l2 11.22c1.98 7.94 5.94 13.9 10.57 17.86 7.94 6.6 17.85 11.9 32.4 16.52v-16.5l-.66-21.17c-.66-6.6-3.97-13.22-8.6-19.17l-7.27-7.94 13.22.66a68.3 68.3 0 0 0 27.1-5.3c7.93-3.95 17.2-11.9 27.76-24.45l13.22-17.86-23.8-3.3-27.1-5.3-27.12 2-11.9 3.96c7.28-9.92 10.58-20.5 9.92-31.73 0-11.9-5.3-25.8-14.54-43.64z"/><path d="M97.07-27.87l-11.9 14.55L71.94.58C64 9.15 59.38 21.05 57.4 35.6c-9.92-7.93-18.5-13.88-27.77-17.84-11.9-5.3-29.75-5.3-50.9 0l-2.66 1.98v1.32l.67 1.98c2.64 2 5.3 7.94 7.93 17.2l5.3 15.86c2.63 5.3 6.6 9.92 10.57 13.23A79.03 79.03 0 0 0 23.02 79.9a63.9 63.9 0 0 0-17.2 5.96c-11.23 5.95-21.15 15.2-30.4 28.43l-.67 1.96.67 1.3 1.98 2 11.24 3.97c12.56 6.6 22.48 8.6 29.75 7.27a47 47 0 0 0 19.8-6.6c-2.64 6.6-5.3 13.88-7.27 22.48l-1.32 10.56c0 12.57 3.98 25.8 11.25 37.7l1.98 1.32 3.3-1.33 13.23-15.2c11.24-9.92 17.86-17.86 22.48-24.47 2.65-3.97 4.63-9.92 5.3-17.85l8.6 11.9c7.92 7.3 19.16 12.58 33.05 17.2l3.3-1.3 1.33-2-.66-6.6.66-21.16-.66-10.6c-.67-7.92-4.63-15.2-10.58-22.46 12.55.65 23.8-1.34 33.7-5.96 12.57-5.94 26.46-20.5 42.3-42.97V49.5a5.03 5.03 0 0 0-3.3-1.33l-25.77-3.97-24.47-4.63c-11.23-.66-21.8 0-32.4 3.3a56.12 56.12 0 0 0 5.96-25.12v-1.32c0-11.9-5.95-26.45-15.2-44.3-.67-.66-1.33-1.98-2.65-1.98-1.32 0-2 1.32-3.3 1.98zM89.14-8.03l10.58-11.9C107-4.07 111.62 8.5 111.62 17.1v.66c0 10.57-2.65 19.83-9.26 29.1l-.66 1.97.66 2c1.33 1.97 2.65 1.97 3.97.64l11.9-3.3 25.13-1.98 24.46 4.6 21.16 3.3c-13.9 19.84-26.45 31.74-36.37 36.37-7.24 3.3-15.84 5.28-25.75 5.28h-11.9c-2-.67-3.3 0-3.97 1.32l-.66 1.32 1.33 2.63 7.27 7.28c3.96 5.3 6.6 11.9 7.26 17.2l.67 10.58-.67 22.5c-11.24-4-20.5-8.6-25.78-14.57-4.63-3.3-7.94-8.6-9.92-16.52l-1.98-10.56a4.46 4.46 0 0 0-3.97-2.65c-1.96 0-2.63 1.3-2.63 3.3v5.94c0 13.23-2.64 23.15-5.95 28.44L54.78 175.1 44.2 187c-5.3-10.56-7.94-20.5-7.94-29.74L37.6 148a111.5 111.5 0 0 1 7.92-23.8l3.97-7.26 1.3-2-1.33-2.63H45.5c-9.26 6.64-17.85 11.27-27.77 12.6-6.6.65-15.2-1.33-25.78-7.28l-8.6-3.3C-8.05 103.7.55 96.46 9.13 92.5c9.92-5.3 19.84-8.6 29.1-8.6 2.64 0 3.3-1.32 3.3-3.3 0-2-.66-3.3-2.64-3.3A86.88 86.88 0 0 1 4.5 64.03c-5.3-4.63-9.9-13.2-13.2-25.8-1.98-5.93-4.63-10.56-6.6-15.2 18.5-3.96 33.05-3.3 42.97 1.34a82.83 82.83 0 0 1 29.75 20.5c.66 1.32 1.98 1.32 3.3 1.32l2-3.34 2.63-13.9c2-10.57 5.96-18.5 11.25-24.45L89.14-8.02z"/><path d="M97.07 2.54l-1.98 2-1.35-2-18.52 81.34-12.56 33.7c-8.6 23.8-13.23 41-15.22 52.25l1.32 2.65 2-2c1.97-10.57 7.92-28.42 15.86-52.23l12.6-33.05L97.06 2.53z"/><path d="M174.43 62.05c-.66-1.32-1.98-1.32-2.65-1.32a1002.1 1002.1 0 0 1-95.2 21.82C47.48 94.45 21.7 103.7-.78 109l-1.32 1.98c0 1.32 1.32 2 1.98 1.32a458.98 458.98 0 0 0 77.36-25.78c37.68-7.27 69.42-14.55 95.2-21.82 2-.66 2-1.32 2-2.65z"/><path d="M120.2 144.04c-12.55-22.48-26.43-42.98-41.64-60.82C60.7 68 34.26 50.82 1.2 30.98h-2.64c-.67 1.32-.67 1.98.66 3.3 33.72 19.84 58.84 37.03 76.7 51.58 14.54 17.85 29.08 37.7 41 60.83.65.63 1.97 1.3 3.3 0 .66 0 1.3-1.35 0-2.68z"/><path fill="#858585" d="M126.83 211.48l-1.33-23.14-42.98 27.77a44.36 44.36 0 0 0-15.86 20.5c-1.33 4.66-2.65 7.96-2.65 11.27a156.23 156.23 0 0 0-20.46-23.14c-4.63-5.28-13.9-11.24-27.1-17.2L-.8 199.6c1.32 5.3 1.98 15.2.66 31.74-.67 15.86 0 26.45 3.3 33.06 2.65 6.6 9.26 13.22 17.86 17.85l13.22 5.95-29.75.66c-9.9 1.98-23.8 9.92-40.35 23.15 1.98.66 9.26 4.6 21.16 11.9 10.6 7.28 19.18 10.6 26.46 11.24 12.56 2 24.46-1.32 37.68-7.93v9.25c0 7.28 1.33 15.2 3.3 23.8 2.65 7.94 9.27 17.2 19.85 26.46l15.87 12.57c0-4.63 2.64-11.24 8.6-21.16 5.28-9.25 7.92-17.84 7.92-23.8 0-7.26-1.33-15.2-5.3-22.47l-5.94-7.94 13.24 4.6 24.45 5.3c5.96 0 15.87-5.3 29.76-15.86l17.88-15.87-17.85-13.23c-8.6-5.95-15.2-9.92-21.8-12.56l-23.82-3.3-11.9 1.32c5.3-4.63 11.9-13.23 17.86-25.13 3.97-7.93 5.3-20.5 5.3-37.7z"/><path d="M130.13 213.47l-1.32-25.13-1.95-3.3-3.3.66-43 27.76c-9.9 6.62-15.2 15.87-18.5 26.45L46.18 222.1c-5.3-5.95-14.54-11.24-27.1-17.2L-.1 196.94l-3.3.66-.68 1.98v1.32c.67 2.65 1.33 7.27 1.33 13.9l-.66 29.07c0 9.26.64 16.53 3.3 21.83 3.3 6.6 9.24 13.22 18.5 18.5l-15.2 1.33c-9.94 2.65-23.8 9.92-41 23.8l-1.3 2.65v1.32l1.95 1.98 15.87 8.6c13.88 9.25 24.46 13.9 32.4 14.55 11.24 1.3 22.48-.66 35.04-5.96 0 8.6 1.32 17.86 3.3 28.44 2.65 9.3 9.26 18.54 19.84 28.45l17.2 13.23h3.3l2-3.3c0-4.63 2-9.93 7.26-18.5 5.95-10.6 9.26-19.85 9.26-26.46v-.65c0-7.94-1.97-15.87-5.94-23.15 11.24 3.97 20.5 6.6 29.1 6.6 6.6 0 16.52-5.28 29.74-15.2l20.5-17.86.66-2.64-1.32-2.64-13.22-8.6c-11.9-9.26-21.16-14.55-27.77-17.2-7.94-2.64-16.53-3.96-27.77-3.3l11.9-19.18c3.97-7.92 5.95-20.48 5.95-37zm-7.93-19.84l1.32 19.84c0 15.87-1.32 27.1-5.3 34.38C112.3 259.1 107 267.02 101.7 271l-1.32 3.3v1.32c1.32 1.32 1.98 1.98 3.97 1.98l11.23-1.32c8.6-.66 16.54.66 22.48 2.65 5.3 1.98 13.9 7.27 25.13 15.87l10.55 7.93c-20.5 18.5-35.04 27.77-42.32 27.77l-23.14-5.3-12.56-4.62c-1.98-.67-3.3 0-3.97 1.32l-1.32 1.98 1.32 1.98 5.3 7.94a43.52 43.52 0 0 1 4.62 19.84v.66c0 5.95-2.65 13.23-8.6 23.14-3.3 5.95-5.95 10.58-7.28 16.53-16.53-13.22-26.44-24.47-29.75-34.4-1.98-9.9-3.3-19.16-3.3-27.75v-4.63l-2-2.67-3.3-.67c-11.9 6.6-24.46 9.92-35.7 7.94-6.6-.65-16.53-4.62-29.1-13.22l-11.9-7.28c14.56-10.58 25.8-17.2 34.4-19.17l27.76-.66c2.64.65 3.97 0 4.63-2v-1.32a2.84 2.84 0 0 0-2.65-2.65L23 279.55c-8.6-4.62-13.87-10.57-17.2-17.2-1.96-3.95-2.63-9.9-2.63-18.5v-39c19.18 7.93 31.08 15.2 37.7 21.8 8.6 7.94 15.2 15.88 19.83 23.15l4 1.32 2.63-2.64c0-2.63 1.32-6.6 2.65-10.57a36.4 36.4 0 0 1 13.88-18.5l38.35-25.8z"/><path d="M112.94 209.5c-.66 0-1.98 0-2.65 1.32l-16.55 32.4L65.3 298.1c-27.76 9.92-53.54 13.9-78.67 12.56-.66 0-1.32 0-1.32 1.33l1.33 2.6c16.53.67 35.05-.65 55.54-5.3l25.12-7.9 1.3-.67 29.1-54.87 15.87-33.06c.66-1.3 0-2.63-.66-3.3z"/><path d="M17.73 224.7c-1.32-1.32-2-1.32-2.65 0-1.32 1.33-1.98 1.33-.66 2.65l17.85 21.82c12.57 17.2 23.8 34.38 33.06 51.57l1.33 1.33 84.63 3.3c1.3.66 1.95 0 1.95-1.32l-1.32-2.64-50.9-2.62-33.07-.66c-8.6-17.2-20.5-34.4-33.72-52.22l-16.5-21.2z"/><path d="M68.64 299.42c0-1.32-1.32-1.98-2.65-1.32-1.34 0-2 1.32-1.34 2.65l5.95 25.12 8.6 48.27c0 .66 1.3 1.98 2.64 1.98l1.33-2.64-9.27-48.93-5.3-25.13z"/><path fill="none" stroke="#000" stroke-width="3" stroke-miterlimit="100" d="M370.6 585.26H3.9V2.74h366.7v582.52z"/><path stroke-miterlimit="100" d="M367 582H5V5h362v577z" fill="none" stroke="#000" stroke-width="10"/></svg>