<svg xmlns="http://www.w3.org/2000/svg" width="372" height="587" viewBox="0 0 372 587"><path fill="#fff" d="M0 0h372v587H0z"/><path fill="#333" d="M229.64 33.94c0-2.65-1.3-3.96-3.96-3.96-3.3 0-5.28 1.3-5.28 3.96 0 3.3 1.98 5.3 5.28 5.3 2.65 0 3.96-2 3.96-5.3zM201.9 21.4c0-3.32-1.98-4.63-5.3-4.63-3.3 0-4.6 1.3-4.6 4.62 0 3.3 1.3 5.26 4.6 5.26 3.32 0 5.3-2 5.3-5.3zm24.44 32.36l-1.32-3.3-3.3-2c-1.98 0-2.64 1.34-3.3 2-1.33 1.32-2 1.98-2 3.3 0 2.64 2 4.62 5.3 4.62s4.62-1.98 4.62-4.62zm-64.07-35c0-2.65-2-4.64-5.3-4.64-2.63 0-3.95 2-3.95 4.63 0 3.3 1.32 5.28 3.96 5.28l3.97-1.3 1.32-3.98zm18.5 9.9l-1.33-3.3a6.93 6.93 0 0 0-3.3-1.33c-3.3 0-4.63 1.32-4.63 4.63 0 3.3 1.35 5.28 4.66 5.28l3.3-1.32 1.32-3.96zM50.62 154.83l-1.33-3.3-3.3-2c-1.33 0-2.65 1.33-3.3 2a3.62 3.62 0 0 0-2 3.3c0 2.64 2 4.62 5.3 4.62s4.62-1.98 4.62-4.62zm-11.23 40.3c0-3.3-2-4.63-4.64-4.63-3.3 0-5.28 1.32-5.28 4.62s1.96 5.3 5.26 5.3c2.65 0 4.63-2 4.63-5.3zm-1.34-27.75c0-3.3-1.98-4.63-4.62-4.63a5 5 0 0 0-3.3 1.33c-1.32 1.32-1.98 1.98-1.98 3.3l1.98 3.97 3.3 1.3c2.64 0 4.62-1.97 4.62-5.27zm.67-35c0-3.3-1.98-4.64-4.63-4.64-1.3 0-1.96.67-3.3 1.32l-1.3 3.3c0 3.3 1.3 5.3 4.6 5.3 2.67 0 4.65-2 4.65-5.3zM54.6 183.9c0-3.3-1.33-4.63-4.63-4.63-.67 0-2 .65-3.3 1.32-.67 1.3-1.33 1.95-1.33 3.3 0 3.3 1.33 4.6 4.63 4.6s4.62-1.33 4.62-4.63zm-9.92 54.16c0-2.65-1.32-4.63-4.62-4.63s-4.63 1.98-4.63 4.63l1.33 3.96a4.24 4.24 0 0 0 3.3 1.32c3.3 0 4.62-1.98 4.62-5.28zm15.2-21.14c0-2.64-2-4.63-4.63-4.63-3.3 0-5.28 1.96-5.28 4.6 0 3.3 1.98 5.3 5.28 5.3 2.64 0 4.63-2 4.63-5.3zM39.4 280.34l-1.33-3.3-3.96-2c-2.6 0-4.6 2-4.6 5.3a4.5 4.5 0 0 0 4.6 4.62c3.34 0 5.3-1.98 5.3-4.62zm15.2-17.18c0-3.3-1.33-5.28-4.63-5.28s-4.63 1.98-4.63 5.28c0 3.3 1.33 4.63 4.63 4.63s4.62-1.36 4.62-4.66zm13.86-13.88a4.5 4.5 0 0 0-4.62-4.6c-3.3 0-4.63 1.97-4.63 4.6 0 3.3 1.36 5.3 4.66 5.3 2.64 0 4.62-2 4.62-5.3zm-11.9 31.06c0-3.3-1.97-5.3-5.3-5.3-1.3 0-1.96 1.33-3.3 2a5.04 5.04 0 0 0-1.3 3.3l1.3 3.3 3.33 1.98c3.3 0 5.25-1.98 5.25-5.28zm267.54 23.78c0 3.3 1.32 5.28 4.63 5.28 3.3 0 5.3-1.98 5.3-5.28 0-2.65-2-4.63-5.3-4.63s-4.62 1.96-4.62 4.6zm25.77-11.9l-1.32-3.3-3.97-1.97c-.65 0-1.97.65-3.3 1.97-.66.66-1.32 1.33-1.32 3.3 0 2.65 1.32 3.97 4.63 3.97s5.25-1.35 5.25-4zm-34.35 17.85l-.66-3.3c-1.32-.67-2.65-1.34-3.96-1.34-1.32 0-2.65.67-3.3 1.33l-2 3.3 2 3.97c.65 1.3 1.98 1.3 3.3 1.3l3.96-1.3.66-3.96zm-11.9 18.5c0-3.3-1.97-5.3-5.27-5.3s-4.63 1.98-4.63 5.3c0 3.3 1.32 4.62 4.63 4.62 3.3 0 5.28-1.36 5.28-4.66zm40.96 20.47l-1.32-3.3-3.3-1.33c-3.3 0-5.28 1.35-5.28 4.66 0 3.3 1.98 4.62 5.28 4.62s4.63-1.32 4.63-4.62zm-2.64-25.76c0-3.3-1.32-4.64-4.62-4.64s-5.3 1.33-5.3 4.64c0 3.3 2 5.27 5.3 5.27s4.62-1.97 4.62-5.27zm-7.26 44.92l-1.32-3.32-3.3-1.97c-3.3 0-5.3 2-5.3 5.3s2 4.64 5.3 4.64l3.3-1.33 1.32-3.3zm-9.9-35c0-3.32-1.33-4.65-4.64-4.65s-5.28 1.33-5.28 4.64c0 3.3 1.98 5.24 5.28 5.24 3.3 0 4.63-1.97 4.63-5.27zm-33.04-35.7c-1.32 0-2.65.67-3.3 2l-1.33 3.3 1.35 3.3a5.02 5.02 0 0 0 3.3 1.32c3.3 0 4.63-1.32 4.63-4.62s-1.32-5.3-4.62-5.3zm29.06 53.52c0-2.65-1.98-4.62-5.28-4.62-3.3 0-4.62 1.97-4.62 4.62l1.3 3.96 3.32.66c3.3 0 5.3-1.32 5.3-4.62zm-19.15-.66c0-2.65-1.33-4.63-4.63-4.63s-5.28 1.98-5.28 4.63l1.98 3.96c1.32 1.32 1.98 1.32 3.3 1.32 3.3 0 4.63-1.98 4.63-5.28zm-112.3 174.4c0-3.3-1.32-4.64-4.63-4.64-3.3 0-5.28 1.33-5.28 4.64 0 3.3 1.98 5.27 5.3 5.27 3.28 0 4.6-1.97 4.6-5.27zm-28.4 21.8c0-3.3-1.33-5.3-4.63-5.3s-4.63 2-4.63 5.3 1.3 4.62 4.6 4.62 4.63-1.33 4.63-4.63zm17.17-9.92c0-3.3-1.98-5.28-4.63-5.28-1.34 0-2 .66-3.3 1.98l-1.35 3.3 1.32 3.3c1.3 1.33 1.98 1.33 3.3 1.33 2.64 0 4.62-1.33 4.62-4.63zm23.78 13.2l-1.32-3.3c-1.32-1.3-1.98-1.97-3.97-1.97-.63 0-1.95.66-3.3 1.98-.63.66-1.3 1.33-1.3 3.3l1.3 3.3 3.3 1.33 4-1.33 1.3-3.3zm-62.1 5.3l-.65-3.3c-1.33-.66-2.65-2-3.97-2-1.32 0-2.64 1.34-3.3 2l-1.33 3.3c0 2.65 1.33 4.62 4.63 4.62s4.63-1.98 4.63-4.62zm68.04-44.94c0-2.62-1.98-4.6-5.28-4.6-2.64 0-3.96 1.97-3.96 4.6 0 3.32 1.32 5.3 3.96 5.3 3.3 0 5.28-1.98 5.28-5.3zm-29.72 47.58c0-3.3-1.98-5.3-4.63-5.3-1.34 0-2 .67-3.3 2l-1.35 3.3 1.32 3.3c1.3.66 1.98 1.32 3.3 1.32 2.64 0 4.62-1.3 4.62-4.62zm82.58-3.96c0-3.3-2-5.3-4.64-5.3-1.3 0-1.98 1.33-3.3 2l-1.3 3.3 1.3 3.96c1.32.66 2 .66 3.3.66 2.65 0 4.63-1.32 4.63-4.63zm24.43-8.6l-.66-3.3c-1.32-.65-2.64-2-3.96-2-2.6 0-4.6 2-4.6 5.3s2 4.63 4.63 4.63l3.97-1.32.65-3.3zm17.84 10.58c0-3.3-1.32-4.62-4.62-4.62s-5.3 1.3-5.3 4.62c0 2.64 2 4.62 5.3 4.62s4.62-1.98 4.62-4.62zM280.5 319.3l-1.3-3.3-3.98-1.3c-2.64 0-3.96 1.3-3.96 4.6 0 3.32 1.32 5.3 3.96 5.3l3.97-1.32 1.3-3.97zm66.73-281.4c0-3.3-2-4.62-5.3-4.62s-4.6 1.32-4.6 4.62c0 2.65 1.3 4.63 4.6 4.63s5.3-1.98 5.3-4.63zm-5.3 23.12c0-3.3-1.3-4.62-4.6-4.62-1.33 0-2.66 0-3.3 1.32l-2 3.3 2 3.97a5 5 0 0 0 3.3 1.3c3.3 0 4.6-2 4.6-5.3zm5.97 19.82c0-3.3-1.33-4.62-3.97-4.62-2 0-2.65 0-3.3 1.3-1.33.68-2 2-2 3.32 0 2.64 2 4.63 5.3 4.63 2.64 0 3.96-2 3.96-4.63zm-132.8-4.62c0-3.3-1.97-5.3-4.6-5.3-3.32 0-4.64 2-4.64 5.3s1.32 4.62 4.63 4.62c2.6 0 4.6-1.32 4.6-4.62zm21.15-3.96c-3.3 0-4.62 1.3-4.62 4.62 0 3.3 1.32 4.62 4.62 4.62 2.64 0 4.62-1.32 4.62-4.62s-1.98-4.62-4.62-4.62zm-15.2-55.5l-1.97-3.3-3.3-2c-3.3 0-4.63 2-4.63 5.3s1.32 4.63 4.62 4.63l3.3-1.35 2-3.3zm-15.2 21.8l-1.3-3.3c-1.33-.66-2.65-1.32-3.97-1.32-1.32 0-1.98.66-3.3 1.32l-1.33 3.3 1.33 3.97c1.32.66 1.98 1.32 3.3 1.32l3.96-1.32 1.32-3.97zm-169.1 183c0-3.3-2-5.3-4.62-5.3-1.98 0-2.64.66-3.3 2a3.63 3.63 0 0 0-1.98 3.3l1.98 3.3 3.3 1.3c2.64 0 4.63-1.3 4.63-4.6zm208.1-204.8l-1.33-3.3c-1.32-1.32-1.98-2-3.97-2-2.64 0-3.96 2-3.96 5.3s1.3 4.63 3.93 4.63c3.3 0 5.3-1.35 5.3-4.65z"/><path fill="#858585" d="M265.98 367.53l-13.87-5.95c2.67 7.94.68 20.5-3.94 37.66a27.5 27.5 0 0 0 .66 19.16l3.97 8.58-26.43-1.98c-3.96 0-11.23 3.97-22.46 13.22l-14.53 13.87 13.2 9.2c6.62 5.3 12.56 7.94 19.83 9.26 11.22 1.33 22.45.66 33.02-4.62l-6.6 6.6-14.53 18.5c-4.65 5.94-7.95 16.52-9.9 30.4l-2 19.8 27.73-9.9c12.55-3.3 21.8-7.94 25.76-12.55a55.1 55.1 0 0 0 11.22-20.48l3.32-10.57-.66 6.6a72 72 0 0 0 5.27 20.48c3.3 7.27 10.57 15.85 23.12 25.1l17.17 11.9c-.66-3.3 0-9.92 2.64-19.17 3.97-9.9 5.3-17.83 3.97-24.43-.65-7.94-3.96-15.86-9.9-23.8l-7.93-9.23 7.28 2.66h20.47l43.6-8.6c-17.84-21.13-32.38-34.34-41.6-36.98l-20.5-1.33-9.9 2c5.3-2 9.9-6.6 13.87-13.88 3.96-6.6 3.96-17.84.66-33.7l-16.53 6.6-17.17 7.28c-3.3 2.64-5.95 5.94-8.6 10.57l-1.97 7.93c1.32-13.2-.66-24.44-6.6-33.03-3.32-5.94-11.25-11.88-21.15-17.17z"/><path d="M248.8 362.25l.66 7.93a91 91 0 0 1-4.62 28.4l-2 7.93c0 5.3 2 11.25 4.64 16.54l-21.14-1.32c-3.96 0-11.9 3.3-21.8 11.9l-17.84 15.86c-.65 1.3-1.3 1.98-.65 3.3l1.97 1.98c1.33.66 4.63 3.3 9.26 6.6 8.58 7.28 15.85 11.24 24.44 12.55l23.12-1.3-13.2 16.5c-7.28 10.57-11.9 27.74-12.57 52.2l1.98 2.63h3.3l18.5-6.6c19.16-5.28 31.05-10.57 35.67-15.85a84.57 84.57 0 0 0 9.9-16.5l3.32 11.22c5.94 11.9 19.8 25.1 42.28 38.96l3.96-.65.65-2.64v-.66l-.66-3.3c0-2.66.66-6.6 3.3-13.2 3.3-9.27 4.64-16.54 4.64-21.83l-.64-5.28c-.66-9.27-4.62-17.2-11.23-26.44a43.62 43.62 0 0 0 18.5 0l28.4-5.3 15.2-3.95 1.98-1.3-.64-3.3c-17.84-22.47-32.37-35-42.94-38.3l-19.16-1.35 4.62-6.6c1.98-3.3 3.3-9.25 3.3-17.17l-1.97-19.17-1.32-2.62h-3.3l-16.52 7.27c-9.9 3.3-15.2 5.94-17.84 7.26-1.97 2-3.95 3.3-5.27 5.96-1.98-8.6-3.96-15.2-7.27-20.48-3.96-5.94-11.23-11.9-21.14-16.52-6.6-3.96-12.54-5.94-15.84-6.6h-3.3l-.67 2.64v.65zm7.26 7.93l-.65-3.96c15.2 6.6 24.47 13.2 29.1 19.8 3.95 5.95 5.93 14.54 5.93 25.1v6.6c0 1.34.68 2.66 2 3.32 2.64 0 3.96-.66 4.62-2.64l2.64-8.6c1.97-3.3 3.95-5.94 5.93-7.25l16.52-7.28 13.2-5.28 1.33 14.5c0 6.6-.66 10.57-1.98 13.2-3.3 5.96-7.94 9.92-13.2 11.9a5.05 5.05 0 0 0-1.34 3.3v1.33c.66 1.98 1.98 2.64 3.97 1.33l9.25-1.33 19.82.66c7.92 3.3 19.8 13.9 35.67 32.36l-37.65 7.28h-19.17l-6.6-1.98c-1.32-1.33-3.3-.66-3.97 1.3l-.65 1.34.66 2.66 8.6 9.24c4.6 7.26 7.9 14.53 8.56 21.14l.66 4.62c0 5.3-1.32 11.9-4.62 19.15l-3.3 13.9c-17.84-12.55-29.72-23.77-33.03-32.37-3.3-7.9-5.28-15.17-5.28-21.78l.64-3.3v-.67c0-1.97-1.32-3.3-2.64-3.3-2.64-.66-3.3 0-3.96 1.98v.66l-2.63 10.57c-3.3 7.92-6.6 13.87-10.55 19.14-4.63 3.98-15.2 8.6-32.36 14.56l-15.87 4.6c1.98-20.46 5.28-34.33 11.23-42.92l14.54-17.83 6.6-7.27.66-1.97v-1.33c-1.32-1.98-2.64-2.64-3.95-1.98a61.62 61.62 0 0 1-32.36 4.6c-6.6-1.3-13.2-4.6-20.47-11.2l-7.27-4.64 17.83-15.85c6.6-4.62 11.88-7.26 13.87-7.26l25.76 1.98 3.3-1.97.66-1.32-.65-1.97c-3.3-5.94-5.94-11.9-5.94-18.5 0-1.98.66-3.95 1.32-5.94a89.03 89.03 0 0 0 5.28-30.4z"/><path d="M240.87 522.1l16.52-18.5c11.86-15.84 22.43-33.02 30.36-50.85 19.82-17.84 33.03-33.7 38.3-45.58v-.66l-1.3-1.96c-.67 0-2 0-2.65.67-5.3 12.55-17.83 27.08-37.64 45.57v.67a247.58 247.58 0 0 1-29.73 48.88l-16.5 18.5c-1.34 1.33-1.34 2.66 0 3.3.64 1.34 1.3 1.34 2.62 0z"/><path d="M207.84 449.45l1.33 1.98 75.96 2.63c10.57 15.2 20.48 33.03 29.07 51.54l9.24 24.43c0 1.33.67 1.33 1.98 1.33 2 0 2-1.33 2-2.65-8.6-26.4-21.8-52.15-39.64-77.92l-1.33-.65-77.3-2.64c-.64 0-1.3.65-1.3 2z"/><path d="M269.27 389.34c-.65-.67-1.3-1.33-2.63-.67-1.33 0-1.33 1.32-1.33 2.64 6.64 11.27 11.26 24.48 15.2 40.3l4 20.5c0 1.3.65 1.98 1.3 1.98l58.8 3.97 21.8 5.3c1.3.64 2.64 0 3.3-1.33 0-.65 0-1.97-1.33-2.63l-22.45-5.3-58.1-4.6c-2.66-22.5-9.26-42.96-18.5-60.13z"/><path fill="#D96038" d="M304.3 94.7l-22.47 20.5c-5.95 5.94-9.9 13.86-12.55 23.77l-1.98 13.2c-5.3-10.55-12.55-19.8-21.8-25.75-4.63-3.96-13.2-7.26-24.44-9.9l-15.86-2 .66 21.15c0 9.9 1.98 18.5 5.3 25.77 3.3 7.26 9.9 13.2 18.48 17.83l12.55 5.95c-7.3.65-16.54 3.3-25.8 7.92-5.93 2.64-13.2 9.25-21.13 20.48l-11.24 15.2 13.88 7.92c10.58 4.62 19.16 6.6 26.43 6.6 11.23-1.32 21.14-5.28 29.72-13.87l-5.28 6.6c-3.3 5.3-5.95 11.9-6.6 17.85-.66 5.94 1.32 14.53 6.6 24.43l8.6 13.87c.65-1.97 5.94-5.94 14.52-12.54 9.24-6.6 13.86-11.9 15.85-17.18 1.3-5.94 2.64-11.23 1.3-15.85l-.64-6.6 15.86 19.8c6.6 6.6 17.82 10.58 36.32 10.58l-.67-20.48c-.65-11.23-1.97-19.15-4.62-23.12-1.98-5.28-5.28-7.93-10.56-9.24l-6.6-.7h9.9l20.48-3.3c9.9-3.3 21.14-14.54 34.35-35L362.4 170c-9.26-3.95-15.2-5.93-18.5-7.26-5.3-.66-11.9 0-20.48 3.3l-11.9 4.63c6.6-12.55 12.56-25.1 16.52-38.3 1.98-7.94 1.98-19.17-1.32-34.36l-5.28-20.5-17.18 17.2z"/><path d="M321.46 74.23c-.65-.66-1.97.67-3.3 1.33l-17.84 18.5-21.14 18.5c-6.6 7.9-11.22 17.82-13.87 30.37-5.9-8.58-11.2-14.52-17.14-19.16-5.95-4.6-14.53-7.92-25.76-10.56l-17.2-1.95c-.65 0-1.97 0-2.63 1.32l-.66 1.98v.67l.68 7.93v11.9c0 10.56 1.98 20.47 5.28 27.73 4.62 9.25 12.55 15.86 23.78 21.14l-16.5 6.6c-6.62 2.64-13.9 9.24-22.47 19.8l-11.23 16.53-.66 1.98 1.98 2.66 13.87 8.6c11.24 4.6 19.83 6.6 27.75 6.6 5.3-.68 11.23-2.65 18.5-6.6l-3.96 13.2v3.3c0 10.57 5.28 23.12 15.85 37.65.66 1.32 1.32 1.32 2.64 1.32l2.65-1.97c.66-.66 4.62-3.97 10.56-8.6l11.9-9.9c4.62-3.96 6.6-7.27 8.6-11.9l1.3-11.88 9.25 10.55c6.6 7.93 19.82 11.24 38.98 11.9a5 5 0 0 0 2.64-1.33l.66-1.97v-.67l-.66-13.87c-.66-15.85-1.98-26.43-4.63-31.05l-3.96-5.3 15.2-2.62c9.9-3.3 22.46-15.2 36.33-36.34v-3.3l-1.97-2-19.82-7.92-19.8-7.93c-6.6-.65-14.54.66-26.43 4.63 5.95-11.9 9.9-21.8 12.55-30.4l1.34-13.2c0-7.92-.66-17.83-3.96-29.06l-3.3-15.2c-.66-1.3-1.32-1.97-3.3-1.97zm-48.88 65.4c2.65-8.58 6.6-16.5 11.9-21.8l19.8-18.5 15.86-15.2a130.1 130.1 0 0 1 5.3 36.34l-.67 11.24c-3.96 12.58-9.25 24.47-16.52 37.68v1.32l.66 2.63 4 .66a61.06 61.06 0 0 1 14.53-5.3l15.86-2.64c3.96 1.32 9.9 3.3 19.15 7.92l15.85 5.93c-12.55 18.5-23.13 28.4-30.4 30.4l-26.42 3.3h-3.3c-2 0-3.3 1.33-3.3 3.3.65 2 1.97 3.3 3.3 3.3h3.3c5.28.68 9.25 3.3 11.23 7.94 2 3.3 3.3 13.2 3.98 28.4v9.9c-15.2 0-25.1-3.3-29.73-8.57l-16.52-19.83h-4.6l-.67 1.98v1.32l1.32 8.6-1.98 11.22c-2 5.27-7.28 11.2-17.84 18.5l-8.6 7.26c-8.58-12.56-12.54-22.47-12.54-30.4v-1.98c.65-5.94 3.3-11.23 5.94-16.5l4.62-6.62 1.32-1.98-1.32-2.64h-4.62c-8.6 7.93-17.18 11.9-27.74 13.2-7.93 0-19.82-3.96-35-11.88 10.55-17.84 20.46-28.4 29.05-32.37 8.6-3.97 17.18-6.6 24.44-7.27l3.3-3.3-2.63-3.3c-3.3-1.33-7.26-3.3-11.22-5.3-8.6-4.62-14.54-10.57-17.84-17.17-3.3-5.94-4.63-13.86-4.63-24.43v-5.94l-.65-11.23c17.2 1.98 28.4 5.94 35.68 11.23 7.93 6.6 14.54 14.53 20.48 25.1.66 1.33 1.32 1.33 3.3 1.33 1.32 0 2.64-1.33 2.64-3.3l1.98-12.56z"/><path d="M310.23 103.96c-1.32-.66-1.98.66-2.64 1.33l-13.9 36.96c-8.6 26.42-14.53 43.6-15.2 54.16l-19.15 75.3c0 1.33 0 2 1.98 2.65.66 0 1.98 0 2.64-1.33l17.83-75.97c2-9.9 6.6-27.74 16.53-54.17l13.2-36.32-1.32-2.64z"/><path d="M298.35 216.92l-16.52-21.8c-6.6-9.9-17.17-23.12-33.7-40.3l-24.43-23.1c-1.32-.68-1.98-.68-2.65 0-1.32.65-1.32 1.3 0 2.63l23.8 23.12c16.5 16.5 27.73 30.4 33.68 40.3l16.5 21.8c13.22 15.85 23.13 27.74 31.72 35 .66 1.32 1.32 1.32 2.64 0 1.3-.65 1.3-1.32 0-2.64l-31.07-35z"/><path d="M359.78 185.2l-79.93 9.92c-31.7 8.6-57.47 17.83-75.3 27.08-1.33.66-2 1.33-.67 2.65.66 1.98 1.32 1.98 2.64.66 17.84-8.56 42.28-17.8 73.98-27.05l78.62-9.26c-1.33-.66-1.33-.66-1.33-2s0-2 1.96-2z"/><path fill="#858585" d="M341.94.9l-60.77-5.27c-2.65 1.32-5.3 2.63-7.93 5.28a43 43 0 0 0-12.55 19.85c-4.66 13.87-5.3 25.76-4.66 35l23.12-3.95c17.18-3.98 29.07-8.6 35.68-13.9 11.9-7.9 20.47-20.47 27.08-37z"/><path d="M344.58-.4l-2.64-2-60.1-5.28-1.33.67c-1.95 0-5.25 1.3-9.22 5.24-5.94 5.3-10.57 12.56-13.2 21.8-4.63 13.88-5.95 25.77-5.3 36.34l2 1.97 1.97.67 24.44-4.64c17.16-3.95 29.05-8.57 36.32-13.85 11.24-8.6 20.5-21.14 27.1-38.32V-.4zm-7.26 4.6c-7.27 13.88-15.2 24.46-23.78 31.06-11.23 7.93-28.4 13.2-54.17 16.52v-1.33c0-9.25 1.98-19.16 4.62-28.4 3.94-11.9 9.9-19.82 17.8-23.12l55.5 5.28z"/><path d="M318.16-9.66c-1.32-1.32-2.64-.65-3.3 0-9.25 16.52-22.46 31.05-39.64 44.92-.65 1.32-.65 1.98 0 2.64l3.3.66c17.18-14.53 30.4-29.72 39.64-46.24 1.32-1.32.66-1.98 0-1.98z"/><path fill="#D96038" d="M110.74-21.55L54.6-17.6l-42.3 7.3L9 36.57C6.38 47.15 6.38 59.7 9 72.92c1.33 7.26 5.95 15.2 14.55 22.46l17.83 15.85c9.9-17.84 15.2-30.4 15.2-38.32V51.8l-1.34-11.9 3.96 7.25 11.9 17.17c5.3 5.3 14.54 10.58 27.75 17.18 11.9 5.28 20.48 7.93 25.76 8.6.7-13.22-1.3-27.1-5.9-41.63-3.3-8.58-7.94-15.85-15.2-20.48l-9.9-4.65h12.54l23.12-4.62c9.24-3.3 15.85-9.9 20.47-20.5-13.86-9.23-27.07-15.84-38.96-19.8z"/><path d="M111.4-24.2c-12.55-3.96-46.24-.65-99.75 10.58L9-10.98 5.7 36.58c-.66 3.96-1.97 9.9-1.97 17.83 0 7.3 1.3 12.6 1.98 18.54a40.9 40.9 0 0 0 9.27 18.5l13.88 13.2 9.24 7.93c1.32 1.32 2 1.98 3.3 1.98l2-1.98c10.55-17.84 16.5-31.05 16.5-39.63l.66-6.6-.66-11.24 9.23 11.22c4.63 5.96 14.54 11.9 28.4 18.5 12.56 5.3 21.8 7.93 26.43 8.6l3.3-.67.67-1.98V88.1a140 140 0 0 0-5.95-40.95c-3.3-7.92-7.93-15.2-15.2-20.48l23.78-4.62c9.25-3.97 16.52-11.23 22.47-21.8v-2l-1.33-2.62c-14.54-9.9-27.75-16.52-40.3-19.82zm16.52 40.3l-21.8 3.97H93.56c-2.64 0-3.3.66-3.3 3.3 0 1.32.66 3.3 2.65 3.3l9.27 3.96a37.14 37.14 0 0 1 13.2 19.16 116.06 116.06 0 0 1 5.96 36.3l-25.1-9.24c-10.56-5.3-18.5-10.57-22.45-14.53A97.16 97.16 0 0 1 62.52 46.5l-4.63-8.6c0-1.32-1.35-1.98-3.3-1.32-2 0-2.67 1.32-2.67 3.3l1.32 9.26.66 17.17-.65 5.98c0 7.26-5.3 18.5-13.2 33.03l-7.28-5.95a273.4 273.4 0 0 1-12.56-11.9c-4.6-4.62-7.26-9.9-7.92-15.85L10.3 54.4l1.98-17.17L15.62-7.7c50.86-10.56 81.9-13.86 93.8-10.56 9.9 2.65 21.8 8.6 35.67 17.84-4.66 7.92-9.94 13.86-17.2 16.5z"/><path d="M108.1 68.3c1.32 0 1.32-1.33.66-2.65L42.7-3.05h-2.64l-.66.66c-2.64 7.96-3.96 17.2-4.63 27.77-2.64 21.8-2.64 40.96 0 58.13l2 1.3 1.3-1.97c-1.3-9.25-1.3-17.83-1.3-27.08 0-17.84 1.3-35 5.27-53.5l63.4 66.05c.68 1.3 2 1.3 2.66 0z"/><path fill="#858585" d="M79.03 275.05c-4.62 7.93-5.94 15.86-5.94 25.1 0 4.63.63 8.6 1.3 11.23l-7.94-3.96-21.8-2c-6.6.68-14.53 3.32-21.8 7.3-7.93 4.6-13.2 6.6-15.85 6.6l9.26 14.53c7.27 9.9 13.87 15.85 21.14 19.15l19.16 5.28 5.95-.66-9.23 5.3c-7.27 5.27-13.2 10.56-16.5 17.82-3.98 5.95-5.3 14.53-3.98 24.44.64 11.23.64 19.82-.68 23.12 21.15-6.6 35.68-15.2 44.93-23.78a107.35 107.35 0 0 0 15.2-19.15l3.96-9.25.67 10.57c1.98 9.22 3.96 16.5 7.26 23.75 3.97 7.26 11.9 13.87 24.44 20.47l17.18 7.94c-.66-3.97 0-10.58 1.32-20.48 2.64-11.9 2.64-20.5 2.64-27.1 0-7.9-3.94-15.2-10.54-22.46l-8.6-7.27 7.27 2 15.2-.67c7.26-1.98 20.47-10.56 39.63-27.08-3.96-.66-9.9-3.97-16.5-9.9-7.94-7.28-14.55-11.23-19.83-13.22-5.95-1.98-13.2-1.98-22.46.67l-11.9 3.96c6.6-4.62 11.9-12.55 15.2-23.77 2.64-7.27 1.32-18.5-4.62-33.7l-9.9-21.13-23.8 15.85c-9.24 6.6-15.84 13.22-19.8 20.48z"/><path d="M44.02 302.13c-7.26.67-15.2 3.97-25.1 9.25L7.02 316l-2.63 2-.7 1.3.67 1.33 9.24 15.2C21.57 346.4 28.85 353 36.1 356.3l14.53 3.97a89.33 89.33 0 0 0-17.18 18.5c-3.3 5.27-4.62 11.22-4.62 19.14l1.32 20.5-1.32 9.26v.66l1.32 2.65 3.3.67c21.14-7.27 36.34-15.85 46.24-25.1a105.3 105.3 0 0 0 14.5-17.83c1.32 7.93 3.3 15.85 7.27 23.1 3.95 7.28 12.54 14.54 24.43 21.8l17.84 8.6 3.3-.67 2-2.63v-.67l-.67-3.3 1.97-15.18L153 395.3v-3.96c-.67-9.24-3.98-16.5-10.58-23.77l11.9-1.32c7.25-1.97 21.13-11.22 40.28-27.74l1.32-3.3-3.3-2.62c-3.3 0-7.93-3.3-14.53-9.9-7.95-6.6-15.2-10.58-20.5-12.56-7.27-2.63-15.2-2.63-25.1 0l7.92-15.84 2-7.92c0-7.93-3.32-18.5-7.94-30.4l-9.26-18.48-2.64-2-2 1.34-16.5 11.23c-7.26 3.96-12.55 7.26-15.2 9.9a43.98 43.98 0 0 0-12.54 15.2 54.08 54.08 0 0 0-6.62 26.42l.66 5.93c-9.25-3.3-17.83-4.6-26.42-3.3zm.66 6.6l19.82 1.34 8.6 3.96c1.3 1.3 2.63 1.3 3.3 0l1.3-2.65v-1.3l-1.3-10.6a46.4 46.4 0 0 1 5.93-23.1c1.98-4.63 5.95-9.25 10.58-13.22 3.3-1.98 7.95-5.28 14.55-9.9l13.88-9.25c9.26 17.86 14.55 32.4 14.55 42.3l-1.33 5.94c-3.97 10.58-8.58 17.85-15.2 22.47l-.65 2.64v1.98c1.3 2 2.63 2.66 3.95.68l11.9-3.3 21.13-.66c4.62 1.33 10.57 5.95 17.83 11.9l12.57 8.6c-17.18 13.86-28.4 21.78-33.7 23.1l-13.87.67-6.6-2c-2.65-1.3-3.3 0-4.64 1.34v1.98l1.32 2 8.6 7.9c5.94 6.63 9.24 13.23 9.24 20.5v3.3l-2.63 23.13-2 15.85c-17.85-7.92-29.08-15.85-34.37-25.1a74.85 74.85 0 0 1-7.26-22.46l-.66-10.58c0-1.32-1.3-3.3-3.3-3.3-1.97 0-2.63.66-3.3 2.64l-3.95 8.6c-3.3 7.25-7.93 12.54-13.87 17.82-7.28 7.27-20.5 13.88-39 21.15l.67-4.63-1.33-20.48c0-5.94 1.33-11.23 3.97-15.85a70.68 70.68 0 0 1 15.2-16.52c5.3-3.3 7.92-5.28 8.6-5.28l2.62-2.66-.66-1.3c-.66-1.34-1.98-2.66-3.97-2-4.64 1.32-12.56 0-22.47-4.62-8.6-3.3-17.18-12.55-26.43-27.75l9.27-4.62c9.9-4.63 17.84-7.93 23.12-8.6z"/><path d="M118 258.54c-1.3-.66-1.97-.66-2.64.65l-11.23 27.06c-6.6 19.82-9.9 38.3-9.9 54.17v1.98C86.3 349 81 355.6 77.7 363.56l19.85-18.5v-1.98c0-15.86 3.3-33.7 9.9-54.84l11.24-27.08c.65-1.32.65-2.64-.67-2.64zM51.95 399.9c1.32.66 2.64 0 2.64-1.32 1.95-9.9 9.22-21.14 23.1-35-15.86 11.88-25.1 23.77-27.75 34.34v.66l1.98 1.32z"/><path d="M163.58 339.8l2.65-1.34-2.65-2.63c-23.12-.67-44.92.66-67.37 5.94-7.24-6.6-19.8-11.23-37-14.53l-25.73-2.65c-.66 0-1.32.63-1.32 1.96 0 1.3.66 1.97 1.32 1.97l24.44 3.3c17.84 2.65 29.73 7.28 36.33 13.22l2 .66 21.12-3.3 46.24-2.63z"/><path d="M97.53 342.43c-.66-.66-1.32-1.32-2.64-.66-1.36.66-2 1.33-.7 2.64l13.9 24.48c10.54 17.83 17.8 33.7 22.43 46.9 0 1.32 1.33 1.98 2 1.32 1.3-.67 1.3-1.33 1.3-2.66-4.6-13.2-11.88-29.06-21.8-48.2l-14.52-23.8z"/><path fill="#D96038" d="M110.74 426.98l-2.64-24.43-22.46 17.83c-11.9 7.92-19.82 14.53-25.76 19.15-5.95 5.95-10.58 15.2-13.2 25.77l-2 15.85c-1.98-5.28-7.92-10.57-19.82-17.18-6.6-3.3-17.83-5.94-32.36-6.6l-19.82.66c3.96 3.97 7.26 12.55 10.57 25.1 2.64 12.56 5.94 21.8 9.9 25.77 4.63 5.95 11.9 9.9 22.47 12.55l13.87 1.98-9.28 6.6c-7.27 5.3-13.2 11.9-18.5 19.82-4.62 7.27-6.6 16.52-6.6 28.4l1.98 15.87c4.63-4.64 10.58-7.28 19.83-9.25 9.9-1.33 16.5-3.97 19.82-5.95 5.94-3.96 9.9-9.25 13.2-15.86l3.3-10.56 2.65 7.26 9.92 19.16c3.97 5.95 11.23 12.55 23.12 18.5 5.28 3.3 10.57 6.6 15.2 7.92-.66-4.62.66-11.9 3.96-21.13 3.96-9.9 5.94-16.5 5.28-20.45-.65-5.3-3.3-10.57-8.58-18.5l-7.27-9.9h9.9l23.13-2c6.6-1.97 15.85-9.9 28.4-24.43l16.52-21.13-21.8-2.65-25.1-3.97c-6.6 0-14.54 1.33-23.78 3.97l-11.9 4.62c6.6-7.26 12.55-15.86 15.86-27.08 1.98-6.6 2.64-17.85 1.98-35.7z"/><path d="M42.04 471.9c-3.97-3.3-8.6-7.26-15.2-10.56-7.26-3.97-18.5-6.6-33.68-7.28-7.27 0-13.87 0-20.48.67-1.32 0-2.65 0-3.3 1.32v1.98l.65 1.98c4.63 4.66 7.93 12.6 9.9 24.47 2.66 12.55 5.96 21.14 9.92 27.1 6.6 7.25 16.52 11.87 29.73 13.86C11.65 531.4 5.05 538.65-.9 547.9c-5.28 6.6-7.27 16.5-7.27 27.73l1.33 13.22.66 5.95 2.64 2.64 3.3-1.3c3.97-3.32 10.57-6.62 19.82-7.94 8.58-1.32 15.2-3.3 19.82-6.6a41.4 41.4 0 0 0 13.87-18.5l9.9 17.84c3.97 6.6 11.23 13.2 23.13 19.82l16.5 7.92 3.32-.66 1.3-2.64v-3.96c0-3.96 2-9.9 4.64-18.5l4.62-17.83v-1.35c-.65-5.94-4.62-14.53-12.55-25.1l26.42-1.98c12.56-3.3 28.4-18.5 47.57-46.9l.66-1.98-.66-2a5 5 0 0 0-2.64-1.3l-23.8-2.65-23.1-3.97c-7.27 0-15.86 1.3-25.77 4.62l9.28-18.5c1.98-4.62 1.98-11.9 1.98-21.14l-1.32-27.08-1.32-13.88-1.97-2.64c-2 0-3.3 0-3.3 1.32L85 416.46 57.9 437.6c-7.9 7.93-13.2 19.8-15.85 34.35zm7.93-5.94c2.64-10.57 6.6-17.84 12.55-23.78l26.42-20.48 16.5-12.55 2 33.7L106.1 462c-3.3 9.9-8.6 18.5-15.2 25.1-1.32.66-1.32 1.32-1.32 2.64l.66 2c.66 1.3 2.65 1.96 3.96.64l11.9-3.96 22.45-3.97 21.8 3.3 19.16 3.3c-17.82 23.8-31.03 37-40.3 38.98l-21.8 2h-9.9c-1.3 0-2.62 1.3-3.3 2.63v.66l.68 2.65c9.23 9.9 14.52 19.15 15.18 26.42v.63l-3.96 15.85c-3.3 8.57-5.3 15.2-5.3 19.8-16.5-7.92-27.74-15.2-33.03-23.1-3.3-6.6-6.6-12.56-8.6-18.5l-2.62-7.28-3.3-2.64c-2 0-3.3.65-3.3 2.63l-3.3 9.26c-2.66 7.25-6.62 11.87-11.24 15.17-3.3 2-8.6 3.97-17.16 5.3-8.6 1.3-14.53 3.95-18.5 6.6l-1.32-13.22c0-9.24 2-17.16 5.96-23.76A114.1 114.1 0 0 1 21.52 532c5.3-3.97 8.6-5.96 9.25-5.96l2-2.65v-1.3a3.63 3.63 0 0 0-3.3-2c-15.86 0-27.1-4.64-33.7-13.2-3.3-4.65-6.6-11.9-9.25-23.8-3.3-11.9-5.28-18.5-7.93-22.47 21.12-.66 36.3 1.33 44.9 6.6 9.9 4.64 15.86 9.9 17.84 14.55.66 1.96 1.98 2.63 3.3 1.96l3.3-2.65 2-15.2z"/><path d="M94.9 432.27c-1.34-.66-2-.66-2.66.66l-13.2 26.43c-9.92 21.13-15.86 40.3-19.16 57.46l-23.12 21.15c-13.88 13.87-23.8 25.1-28.4 33.68l-.67 1.32c0 1.33.63 1.33 1.3 1.33h2.63c4.63-9.25 15.2-20.48 29.73-35.68l21.8-19.16.66-1.3c2.64-16.53 8.6-36.34 18.5-56.82l13.2-26.43c.67-1.3.67-2.6-.65-2.6z"/><path d="M62.52 515.5c-7.93-8.6-21.14-18.5-38.97-28.4-11.9-7.93-19.82-12.55-24.45-14.53-1.32-.66-1.98-.66-2.64 1.3-.66.68-.66 2 .66 2l25.1 14.53c17.84 10.57 30.4 19.8 38.32 28.4.65 1.32.65 1.32 1.98 1.32 31.7-4.62 58.13-9.9 79.27-16.5 1.3 0 1.3-1.33 1.3-2-.67-1.32-1.3-1.98-3.3-1.32-19.17 5.95-45.6 11.24-77.3 15.2z"/><path d="M63.18 516.82l-2-.66c-1.3.66-1.97 2-1.3 2.65l12.54 19.84c8.6 15.86 13.88 29.07 17.18 40.95 0 1.32 1.32 1.32 1.98 1.32l1.33-2.63c-2.62-11.9-8.6-25.1-16.5-40.97l-13.2-20.47z"/><path fill="#9260C7" d="M72.42 56.4c0 44.25 2.65 94.46 8.6 150.6 11.22 112.97 31.7 199.5 62.1 259.62l149.28-3.96c-46.24-53.5-77.95-136.74-93.8-251.02-8.6-57.48-11.9-109-10.57-155.24H72.43z"/><path d="M190 53.76l-1.97-.66H72.43c-2.64 0-3.3.66-3.3 3.3 0 45.58 3.3 96.44 8.58 152.6 11.9 112.95 33.06 199.5 62.1 258.94l3.3 1.98 149.3-3.96 3.3-2-.64-3.3c-45.58-52.17-76.62-134.75-92.48-248.37-8.58-56.8-12.55-109-11.23-155.9L190 53.74zm-5.28 5.94V65c0 57.46 4.63 114.27 14.54 171.74 16.5 99.08 46.24 173.07 86.53 222.62l-140.07 3.96c-28.4-56.8-48.22-137.4-60.1-241.78C79 162.74 75.7 108.6 75.7 59.7h109z"/><path fill="none" stroke="#000" stroke-width="3" stroke-miterlimit="100" d="M370.6 585.26H3.9V2.74h366.7v582.52z"/><path stroke-miterlimit="100" d="M367 582H5V5h362v577z" fill="none" stroke="#000" stroke-width="10"/></svg>