<svg xmlns="http://www.w3.org/2000/svg" width="372" height="587" viewBox="0 0 372 587"><path fill="#fff" d="M0 0h372v587H0z"/><path fill="#222" d="M374.35-5.7H1.8v599.82h372.55V-5.68z"/><path fill="#A7754A" d="M374.35 594.1V-5.68H1.8v599.82h372.55z"/><path fill="#FDF5ED" d="M354.36 14.3H21.8v559.82h332.56V14.3z"/><path fill="#D96038" d="M373.7 80.95v-85.3H2.46v99.3c15.33 1.32 26.66 1.32 34-.67 14.65-3.34 26.65-6 35.98-6.67 16-.64 24 3.36 26 11.36 1.32 4.66-.68 26.66-5.34 65.3-6.66 44.67-8.66 83.32-8 115.3 1.34 29.33 3.34 66.65 8 111.98 2 33.32-.66 53.32-8 61.97-11.32 13.33-38.64 20-82.63 20v119.96H373.7V496.8c-56-9.32-92.65-13.32-110.65-12.65l-42 4.67-39.97-2c-14-4-22.66-9.33-26-17.33-3.33-6.7-4-17.36-2-31.35l7.34-62.65c2-30 4-54.64 4-73.96 0-10-3.34-36-9.33-78.65-6-39.34-8-70-6.7-90.65.67-24.66 8-38.66 22-42.66 8-2 18.66-2.67 34-.66l169.3-8z"/><path fill="#636361" d="M170.42 89.6c-14 4-21.33 18-22 42.66-1.33 20.66.67 51.32 6.67 90.64 5.96 42.66 9.3 68.65 9.3 78.65 0 19.32-2 43.98-4 73.97l-7.33 62.65c-2 14-1.35 24.65 2 31.32 3.32 7.96 11.98 13.3 25.98 17.3l39.98 2 42-4.67c17.98-.67 54.64 3.33 110.63 12.66V80.95l-169.3 8c-15.32-2-26-1.34-33.98.66zM36.46 94.28c-7.33 2-18.66 2-34 .67v378.53c44 0 71.32-6.66 82.65-20 7.36-8.65 10-28.64 8-61.96-4.64-45.33-6.64-82.65-8-111.97-.64-32 1.36-70.64 8-115.3 4.7-38.65 6.7-60.65 5.36-65.3-2-8-10-12-26-11.34-9.32.7-21.32 3.36-35.98 6.7z"/><path d="M199.07 2.3l-2.66-2h-19.3l-1.32.67L75.1 89.6c-.65 1.34-.65 2 0 2.68l2.68 2h37.32l-79.97 87.97-.67 2v1.33c.66.66 1.33 2 2 2H49.8L6.46 236.23l-1.34 2v50.65l2 2.67 3.34-.67L95.1 172.25l.67-2.67-2.66-1.32H80.47l52.65-56-58 108.64-.65 1.34.67 1.32c0 .67 1.35.67 2 .67h22L58.46 294.2v2.68l2.66.66h19.35L36.5 368.86l-1.35 1.32 1.34 2c2 1.34 3.32 1.34 4-.66l47.3-74.65v-2.66l-2.66-2h-20l41.33-69.3v-2c-.67-1.3-1.34-2-2.67-2h-22l65.3-122.6v-.67l-1.34-2.66h-3.34l-69.97 75.98c-.67 1.33-.67 2-.67 3.33l2.66 1.33h14l-77.3 107.3v-42l46.64-52.64.67-2v-1.34l-3.33-.64h-12L123.1 93.6v-2.66c0-1.33-1.34-2-2-2H84.44l93.97-83.3h12.7l-56 66.64-.67 2 .66 1.34 2 1.32h40.63l-67.98 125.3v2.67l2.66 1.36h27.34L97.1 274.22l-.66 1.33.67.67 2.7 1.33h33.32l-25.32 48-.67 1.3 1.35 2.02c1.33 1.33 3.33 1.33 3.33-.66l28-51.96v-2l-2-2H104.5l41.98-67.3 1.34-1.35-.67-1.34-2-1.33h-28L185.1 75.65v-2.67l-2.66-1.33h-39.96L199.08 5V2.3zm52 437.86c1.32.67 2 0 3.32-2l24.63-46.64-8 25.32v.67l.67 1.36 2 1.33h32.66l-24 59.3v1.34l2 2c1.34 1.33 2.68.66 3.34-1.33l24.67-63.3v-2.68c0-.65-.67-.65-2-.65H277.7l15.34-50.65.67-.68-1.3-2.66c-1.34 0-2.67 0-3.34 1.33l-39.3 73.97c-.68 1.33-.68 2.66 1.32 4z"/><path d="M365.7 74.95c-1.35 0-2 .67-2.68 1.33l-103.3 204.6.67 2.66 2 1.34h16.63l-27.33 46.66v2.66l2.68 1.33h17.98L253.7 373.5l-.66.7 2 2.66c1.33.67 2.66.67 3.33-1.33l20.65-41.32v-2.64l-2.67-1.34h-18l27.33-46.64v-2.67l-2.65-1.33H266.4l97.3-192.6 2 17.32-73.32 156.6v2l2.66 1.3h24.66l-21.33 44v2.66l2.67.67h27.32L299.7 401.5l-.66.68.67 2 2.7.67h38.65L321.7 502.8v.67c0 1.35.67 2 2.67 2l2.66-2 19.33-101.3-.67-1.33-1.36-1.33H305.7l28.66-89.3v-2.64l-2.66-.67h-26.66l21.33-44v-.67l-.67-2c0-.67-.67-1.33-2-1.33h-24.66l71.98-153.3v-1.34L367.7 77.6l-2-2.65zm-79.32-69.3c-1.33-.67-2 0-2.67.65l-55.95 102.64c-.66.66 0 2 .67 2 .67 1.33 1.34 1.33 2.67 0l56-101.97c1.3-2 .64-2.67-.7-3.33zM214.4 137.6h-2.67l-95.3 173.27c-.66.67 0 2 .67 2.66l2.67-1.32 95.3-172.6c.66-.65.66-2-.67-2zm48.65 20l-2 1.32-30 55.32c-.65 1.33 0 2 .68 2.66.67.67 2 0 2.66-1.33l29.96-54.65c.67-2 0-2.66-1.33-3.33zm-35.32 66.63c-1.33 0-2 0-2.67 1.34l-42.65 77.97c-.63.67 0 1.34.7 2.66 2 .67 2.67 0 2.67-1.32l42.65-77.32c.67-1.33 0-2-.66-3.33zm149.3-198.6c-1.35-.66-2.68 0-2.68.67L307.7 144.93c0 .66 0 1.33.67 2.66l3.33-.7 65.98-117.95c.67-2 0-2.67-.66-3.34zM285.7 187.58c-.65-1.34-1.32-.67-2.65.67l-71.32 128.62c-1.33 1.34-.66 2 .67 2.66.67 1.34 2 .67 2.67-.66l71.98-128.63c.66-1.33 0-2.66-1.34-2.66zM181.75 554.8c0 1.33.66 2 2 2h141.28l2-2-2-2H183.75c-1.34 0-2 .66-2 2zm-110.65-2H11.14c-1.33 0-2.66.66-2.66 2 0 1.33 1.33 2 2.66 2H71.1l2-2-2-2zm191.3-18c0 1.33.65 2 2.65 2h44l2-2-2-2h-44c-2 0-2.66.66-2.66 2zm-86-2h-75.3c-1.33 0-2.66.66-2.66 2 0 1.33 1.33 2 2.66 2h75.3l2.7-2-2.68-2zm-109.28 0h-56c-1.32 0-2.65.66-2.65 2 0 1.33 1.33 2 2.66 2h56l1.98-2-1.96-2zm187.28-20.66H132.42c-1.34 0-2 1.33-2 2.67 0 .7.66 2 2 2H254.4l2-2-2-2.64zm-162.63 0H11.13a2.86 2.86 0 0 0-2.66 2.67c0 .7 1.33 2 2.66 2h80.64l1.34-2-1.3-2.64zm94.63-18c0 1.34.68 2 2 2h77.32l2-2-2-2h-77.3c-1.34 0-2 .67-2 2zm-94.63-2H11.13c-1.33 0-2.66.67-2.66 2s1.33 2 2.66 2h80.64l2.67-2-2.67-2zM81.1 471.5H11.14c-1.33 0-2.66.66-2.66 2.65 0 .67 1.33 1.34 2.66 1.34H81.1l2-1.37-2-2.66zm-13.98-20h-56c-1.32 0-2.65.66-2.65 2 0 1.33 1.33 2 2.66 2h56l1.98-2-1.96-2zm-9.34-20.67H11.13c-1.33 0-2.66.68-2.66 2.67 0 .67 1.33 1.34 2.66 1.34h46.65l2-1.34-2-2.67zm-3.98-20H11.12c-1.33 0-2.66.68-2.66 2s1.33 2 2.66 2H53.8l2-2-2-2zm-.68-19.98h-42c-1.32 0-2.65 0-2.65 1.33 0 2 1.33 2 2.66 2h42l2-2-2-1.33zm6.66-20.67H11.13c-1.33 0-2.66.67-2.66 2 0 1.34 1.33 2 2.66 2h48.65l2-2-2-2z"/><path d="M302.37 138.93c3.33 5.33 5.33 10 6 14.66.67 4 .67 7.3 0 8-2 1.96-5.33 3.3-9.33 4l-8.66-1.37-1.34-2c-1.33-4.66-5.33-6.66-11.33-6h-11.3l-20.65 2.67c-4 .68-8 5.34-11.34 12-2.66 4.68-4.66 10-5.33 14-3.33 2.67-6.66 4-11.33 2.67-2.66-.67-5.33-2.66-6-5.33-3.33-10-3.33-16.66-2-19.33l1.34-.64c4.66 0 8-1.34 11.33-4.67 3.34-3.35 4.68-6 4.68-8.68 0-3.33-5.34-8.66-17.33-14.66l-17.33 1.34-6.65 2c-.66-1.34-2.66-4-3.33-8.67-2-6-2.65-9.32-1.32-10.65l3.33-4.67c4.68-8 8-11.32 10-11.32l10 4 17.33 6 13.33-1.33c1.34-.67 2.67-2 1.34-3.33-.67-2-1.34-2-3.34-2l-10.67 2c-4-1.34-10-3.34-16-6l-11.33-4c-4-1.34-9.33 3.33-16 13.33l-2.65 4.66c-.67 2-1.34 5.34-.67 10 2 8.66 4 14 7.33 16.66l11.35-1.33 13.34-2c8 4.66 13.32 7.33 14.65 10l-3.33 5.33c-2.66 2-4.66 3.33-8 3.33-2 0-4 .65-5.32 2.64-3.33 4-3.33 12 .67 24 1.34 4.67 4.67 6.66 10 8.66 6 1.34 11.33 0 16.66-4l.68-1.33c4.67-14.66 8.67-22 14-24l18.67-1.32 11.98-.67 4 .66 2 2 3.33 4.66 12 2c6-1.33 10-3.33 12.67-6 2-2.66 2.67-6 1.33-12-1.33-5.32-3.33-11.32-6.66-16.66-.68-1.32-2-2-4-.66-.68.66-1.34 2-.68 3.33zm72.65-119.96c2-5.34.66-10-3.34-15.34-7.33-9.32-23.32-12.66-49.3-10-1.35.68-2.68 1.35-2.68 2-3.33 10.67-7.33 22-14 34.66-13.32 26-29.32 46.62-47.98 61.96l-4.66 3.33c1.33-1.33 2.66-1.33 3.33.66 1.3 1.34 1.3 2.67-.7 3.33l5.33-3.34c18-14.65 34-33.98 46.65-57.97 8-14 13.32-27.34 16.66-39.34 23.32-2 37.32.67 43.3 8 2.68 3.33 3.35 6.66 2.02 10.66-2.02 32.66-16.68 59.98-43.33 81.3-8 6.68-17.33 12-27.33 16.67l-12.66 5.32c-2 .67-2.67 2-1.33 3.34 0 2 1.34 2 3.34 2l12.66-5.34a174 174 0 0 0 28.66-18c28-21.98 42.65-49.98 45.32-83.96z"/><path d="M299.7 115.6c-2.66 2-6 4-10.66 5.33-8 2.67-16 1.34-23.32-3.33a17.8 17.8 0 0 1-9.33-10.67c0-2.66.64-6.66 2.63-10.66l2.67-4.66.68-2.63-1.35-1.34-13.33-1.32c-6.66 2.68-11.32 6.67-14 12.67-5.32 14.66-1.32 28.66 12.67 43.32 9.32 10 21.98 13.32 36.65 10.65 12.66-1.32 21.32-6.66 26-15.32 3.32-6.67 1.32-14-5.34-22h-4zm4.67 20c-4 6.66-11.33 10.66-22 12-13.32 2.65-23.98-.68-31.98-8.67-12.7-13.33-16.7-26-11.36-37.32 2-5.3 5.33-8.64 10-10 2.66-.64 4-.64 6.66 0-3.32 4-4.65 9.36-4.65 13.36l.66 2.67c.7 6 4 11.34 10.7 14.67 12.64 8 25.97 7.32 38.63-1.35 2 3.34 4 6.67 4 10l-.67 4.67zm8-63.32c0-1.33 0-2-1.33-1.33-2 0-2 0-2 1.33 1.33 14 0 28.66-4 42-.67 1.32 0 2 .66 2.65 2 .67 2.67 0 3.34-1.33 4-14.66 5.33-29.32 3.33-43.32zm15.33-22.66c-.67-1.33-2-2-2.67-1.33-1.33.64-2 1.3-1.33 2.64 4.66 14.66 4.66 31.32 1.33 50.65 0 .66 0 2 1.34 2.66l2.66-2c3.33-20 3.33-37.3-1.33-52.65zm16.66-12.66c0-1.33-1.33-1.33-2.67-1.33l-2 2c4 20 5.3 35.32 3.3 46.65-.66 1.33 0 2 2 2.66l2-1.33c2-12 .67-27.96-2.66-48.62z"/><path d="M239.73 126.26l-2-.66c-4 4-8 8.66-11.33 14l-4 8.66c0 .67 0 2 1.33 2.66 1.33 0 2 0 2.67-1.33l3.33-7.36c3.33-6 6.67-10 10-13.33 1.33-1.32 1.33-1.32 0-2.66zm-31.33 51.32c-2 0-2.66 0-2.66 2-1.34 10 0 19.33 3.33 28 6 13.32 16 23.32 30 29.98l3.32-1.33v-3.33c-2.7-2.67-4-7.33-6-12a70.8 70.8 0 0 1-4-33.32c0-2 0-2.66-2.7-3.33-1.32 0-2 1.33-2 2.66l-1.32 9.36c0 11.33 2.65 22.66 7.32 31.33-15.33-9.34-22.66-24-22.66-43.33v-4a2.87 2.87 0 0 0-2.67-2.67zm-43.32-22.65l-.66-5.34c0-8.7 2-15.36 7.33-20.7l7.33-6.65 2-3.33-.67-.67c-1.3-2-2-2.67-3.3-1.34-4.67 2-8 6-12 10.68-6.66 10.66-8.66 23.3-4 37.3l2 1.34c2 .67 2.67 0 2.67-1.33l5.33-9.33c4-7.34 8-12.68 13.32-15.34l1.34-4-4-.66c-6.66 4-12.66 10.66-16.66 19.33zm143.96 6c-1.34 0-2.67 1.32-3.34 2.65-1.33 12-10 20.67-24.65 24 4.66-7.34 8-14.67 9.33-22l-2-3.32c-2 0-2.67.66-2.67 2-2 10-6.63 18-13.3 24.65-1.33 1.36-1.33 2-.66 3.37l2.66 2 17.32-5.34c11.34-4.65 18-13.32 20-24.65 0-2-.66-2.66-2.66-3.33zM131.1 311.53l-3.34-.67-51.3 35.32c-14 10-22.67 24.64-25.34 43.96-2 12-1.33 25.34 2 38.66 4 12.67 10 25.33 18.66 36.66 15.33 21.3 34.66 34.64 56.65 40.64 23.32 6 42.65 3.33 59.3-8.66l48.66-39.32c1.3-.67 2-2 .64-4h-4l-48.65 38c-15.33 11.98-33.3 14.64-54.65 9.32-21.33-6-39.32-19.33-53.3-38.66-8.68-11.32-14.68-22.66-18-35.32s-4-25.32-2-36.65c2-17.33 10-30.66 23.32-40l50.65-35.97c1.33-.67 1.33-2.66.66-3.33z"/><path d="M185.08 301.55c-22.66-6-41.32-2.67-57.32 9.32-16.66 12-24.66 29.32-26 52.65-.66 22.66 6.67 44 21.34 64.65 15.33 20 33.32 33.33 55.98 39.32 22 5.96 40.65 3.3 57.3-9.36 16-11.34 24.66-29.32 26-52 .66-22.65-6.67-44.63-21.33-65.3-15.33-20-33.32-33.32-55.98-39.3zm-54.65 13.32c15.33-10.66 32.66-14 53.98-8 20.7 5.34 38 18 52 37.33 14.68 19.32 21.34 39.3 20 60.65 0 21.98-8 38.64-23.32 49.3-14.66 10.68-32.65 13.34-53.3 8-20.67-5.33-38-18-52-37.3-14.66-19.34-21.32-39.33-20.65-60.66.67-22 8-38 23.33-49.34z"/><path d="M176.4 314.2c-15.32-2.66-28.65.68-39.97 9.33-13.33 10-20 24-21.33 43.32 0 18.67 6 37.33 18 54 12.66 16.65 27.98 27.3 45.98 32.64 18.66 4.64 34.66 2 48.65-8 13.33-9.36 20-24 20.66-43.34.64-18.67-5.36-36.66-17.36-53.98-15.33-19.34-33.32-30.67-54.65-34zm3.35 135.96c-17.33-5.33-31.33-16-43.32-31.98-12-16-18-33.33-17.33-50.66.67-18 7.33-32 19.33-40.66 10.66-8.65 23.32-11.32 37.32-8.65 20.66 2.7 37.32 13.36 51.98 32.68 11.33 16 17.33 33.32 16.66 50.65 0 18.67-6.7 32-19.36 41.33-12.66 9.33-27.32 11.33-45.3 7.33zm-95.3-75.96c-3.34-1.35-6.67-4.02-11.34-9.34l-5.3-6.67-2.66-.7c-.67.67-.67 2-.67 3.34l6 7.33c4.66 5.32 8.66 8.65 12.66 9.32l22 6.65 2.67-2c.66-.66 0-1.33-1.34-2l-22-6zm4 32.64c-6.67-5.33-12-8-16.67-7.33-8.66 1.36-14 0-17.33-2.64H51.8c-2 .67-2 1.34 0 2.67 3.32 4 10.65 4.68 20.65 4 4 0 8 1.35 12.66 6l13.36 8 21.33 1.34c1.32-.66 1.32-1.33 1.32-2l-1.32-2h-1.34l-18.66-.67-11.33-7.34zm63.97 45.32c1.34-.66.67-1.33 0-2-6.66-3.34-12.66-6-18-6l-18 1.34-3.32.66-8.67.66-4.66-3.33-5.33-6.7c-4.67-5.32-8.66-8-12.66-9.32l-12-2.67-10-4-4-2.65c-.66-.68-2-.68-2.66 0-1.33.66-1.33 2 0 2.66l4.66 3.34 11.33 4.67 11.36 2c4 1.34 7.33 4 11.33 8.67l4.66 6 6.67 5.32 10-.68 4.67-.67 16-1.33c5.3 0 10.64 2.66 16 5.32 1.97.66 2.64 0 2.64-1.34zM139.1 471.5c10-5.35 18-9.34 25.32-10.68 1.33 0 1.33-1.33 1.33-2.66l-2.66-1.34c-7.37 1.34-15.37 5.34-26 11.34-6.7 3.33-11.36 6-14 6.66-5.36.67-10 0-14-2.66-7.35-4.67-16-9.34-26-12l-13.3-3.36c-.68-.66-1.34 0-2 1.34 0 1.33.66 2 2 2l12 3.33c10 3.32 18 6.65 24.65 11.32 5.33 4 11.32 5.3 16.66 4 3.34-.68 8.67-3.35 16-7.35zm49.98-6c-9.33 8.65-20 15.32-32.66 21.98-12 6.67-26.66 9.33-44 7.34-1.32 0-1.98.66-1.98 2 0 1.33.66 2 1.33 2 18 2 33.32-.67 46.65-8l23.32-14.67 10-8c.67-.66.67-1.33 0-2.66-1.33-1.36-2-1.36-2.66 0z"/><path d="M179.08 330.2c-13.33-4-24-2-33.32 4.67-6.67 5.32-10.67 11.32-12.66 19.32a57.18 57.18 0 0 0-1.34 24l3.33 7.3c3.3 5.33 8 8.66 14 11.32l14.63-1.33 8.67-7.33c3.34-4.67 2.67-11.33-2.66-20l-8-11.33c8-8.65 18.67-11.32 32.66-9.32 6.67.67 12 3.33 17.34 6-9.34-12.67-19.33-20-32.66-23.33zm49.32 53.98a22.62 22.62 0 0 0-13.33-11.33l-15.33.67a18.5 18.5 0 0 0-8.67 7.33c-3.33 5.33-2 12 2.67 20l8.66 11.32c-8 8.67-19.32 12-32.65 9.34l-17.33-5.3c8.66 11.32 19.33 19.32 32.66 22.65 12.66 4 23.32 2 33.32-4.66 6-4.68 10-10.68 12.66-18.67 2-8 2-15.33.67-24.65l-3.33-6.67zm139.3-196.6c-.68 0-2 0-2 1.33l-44.67 119.3c-.66 2 0 2.7.67 2.7 1.33.66 2.67 0 2.67-.68l44.65-119.95c0-1.33 0-2.66-1.33-2.66zm3.32 48.65c-2 0-2.67 0-3.33 1.33L326.34 401.5c0 1.34 0 2.68 2 2.68.66 0 2 0 2.66-2l41.33-163.28c0-1.34 0-2.67-1.33-2.67zM159.75-2.37h-2L3.15 130.93c-1.35.68-1.35 1.35-.68 3.34 1.33.67 2 .67 2.67 0L159.74.3c1.33-.66 1.33-1.33 0-2.66zM123.77.98L121.1.3 3.14 92.94c-1.34 1.34-1.34 2.67-.67 3.33h2.67L123.1 3.63l.67-2.66zm-22-3.33l-2-.67L-4.86 66.95c-1.33.67-1.33 1.34-.67 2.67l2.67.66L101.77.3c1.33 0 1.33-1.33 0-2.66zm-22 469.86l-4-.67c-1.32.67-1.32 2-.66 3.33l13.36 20.66c4 9.35 6 14.7 4.67 17.36L78.46 520.8c-8.67 6-14 10.67-15.33 15.33-.67 6.67 1.33 12.67 5.33 19.33 4 5.33 9.33 8 14.66 8.66l24.67-1.33 23.3-2.7 24.65 3.33 16.67 2.67c4-.65 10-5.32 18-14 9.32-10.64 16-15.3 20.65-15.3l14.66 2.65 30.66 2c6-2.66 11.97-6.66 15.97-14 3.34-5.32 6.67-8 10-8.65h18.66c18.66 1.33 31.32-.66 36.65-4 5.32-3.32 8-10 9.32-20.65l-.67-15.33-2-1.33c-1.33-.7-2 0-2.67 1.3l-7.34 13.33c-4.66 5.33-8.66 8.66-12.66 9.33H305l-24 .67c8.67-13.33 18-21.33 27.33-22.67 1.34-.66 2-1.32 2-2.66h-.66c0-2-.67-2.66-2-2.66l-16.67 2c-12 2-20 6-24.65 12.67L259 502.16l-8 12.66-8.66 5.34-14.67-2-12-1.33-12.66 1.35-17.32 8c-12 6-20 9.33-24 9.33l-7.97 1.32-50.65-2c0-1.35.67-2 2-3.34l8-2.67c8.66-2 14.66-4 18-6.68 4.66-4 5.33-10.66 2-19.33-1.34-1.33-2-2-3.34-1.33-2 .67-2.65 2-1.32 3.33 2.66 6 2 10-1.33 13.35-2 2-7.33 4-14.67 6l-10.66 3.33c-3.33 2-4 4.67-3.33 8.66.66 4 6 7.33 16 8l40-2 8-.66c4.64-.67 13.3-4.67 26.63-10.67 6.67-4 12.67-7.3 16-8l20.66.7 17.32 2c4.66-.67 8-2.68 12-7.34l8-13.33 8-13.3c4-4.7 11.32-8.02 21.98-10.68-8 6.66-14.65 14-20.65 24.66v2.7l3.33.65 28.67-2h18c6.66-.66 13.32-6 20-16.66-.68 10.66-3.34 16.66-7.34 20-3.32 2-8 3.32-15.3 3.32h-37.33c-4 .68-6.67 2-9.33 4.68l-5.33 6.67c-3.33 5.33-8 10-13.32 11.33l-13.34 1.34-13.33-3.34-16.65-2.66c-3.33 0-8 1.33-12.66 5.33l-12 11.33-14.66 12.66-15.33-2-25.32-4-24 2.66-23.32 1.33c-4-.67-7.33-2.67-10.67-6.67a19.28 19.28 0 0 1-4.66-15.33c.66-2 4.66-6.67 13.33-11.33 8-5.34 13.33-10.66 16-14.66 3.32-8.65-2.67-22.65-18-43.3z"/><path fill="none" stroke="#000" stroke-width="3" stroke-miterlimit="100" d="M370.6 585.26H3.9V2.74h366.7v582.52z"/><path stroke-miterlimit="100" d="M367 582H5V5h362v577z" fill="none" stroke="#000" stroke-width="10"/></svg>