<svg xmlns="http://www.w3.org/2000/svg" width="372" height="587" viewBox="0 0 372 587"><path fill="#fff" d="M0 0h372v587H0z"/><path fill="#858585" d="M131.5-.63l-38.2-1.3c-1.3 13.83.7 29.63 7.28 47.4 13.17 34.9 40.83 59.93 81.66 76.4 3.3-5.27 5.93-12.5 7.24-21.73 3.3-19.1 1.3-38.86-6.6-60.6-7.23-21.07-24.35-34.24-51.35-40.17z"/><path d="M115.05 7.28c-1.32-1.32-2.63-.66-3.3 1.32-1.32 1.3-1.32 2.63.66 3.3l19.8 19.74c16.45 20.42 30.94 47.42 44.1 81.67 1.3 2 1.98 2.66 3.3 2 1.97-.66 1.97-1.97 1.97-3.3-13.83-36.2-28.98-63.87-44.8-84.3l-21.7-20.4z"/><path d="M114.4 7.94c-2 0-2 0-2.65 1.3-3.95 11.87-4.6 27.02-1.32 44.8 0 1.3.67 1.97 1.98 1.3 1.35-.65 2-1.3 1.35-2.62a157.04 157.04 0 0 1-.66-30.3l2.63-12.5c0-.67 0-1.98-1.3-1.98zm17.1 15.8c-1.3-.66-2.62 0-2.62 1.3l-1.98 20.43c-1.3 13.83-1.98 25.03-1.3 31.62l1.3 1.94h1.32l1.97-1.97c-1.34-6.6-1.34-17.8 0-31.63l2.6-19.75c.66-.67 0-1.33-1.3-1.98zm15.82 21.73c-1.32 0-1.98 0-1.98 1.98-2.63 19.76-3.95 35.56-3.3 48.07 0 1.32.67 1.98 1.98 1.98 1.98 0 1.98-.66 1.98-1.98-.66-12.5.65-28.3 3.3-48.07 0-1.32 0-1.98-1.98-1.98zM161.8 70.5l-2.63 1.97-1.32 13.18c-.66 11.2 0 20.4 1.97 28.97l2.64 1.32 1.32-2.63c-1.98-7.9-2.64-17.1-1.98-27.63l1.32-13.18-1.3-1.98zm-26.34-42.15c-.66 0-1.98 0-1.98 1.32-.65 1.32 0 1.97 1.32 2.63l13.83 5.27c10.54 4.6 19.76 9.23 26.35 13.83.65 1.32 1.3 1.32 2.63-.65 1.34 0 .7-1.32 0-2.64-7.9-4.6-16.44-9.85-27.63-13.8l-14.5-5.93zM153.9 56l-1.97 2c-.66 1.3 0 1.97.65 2.62l12.52 3.3c7.9 3.3 13.82 6.58 16.46 8.55h3.3l-.67-3.3c-2.66-1.96-8.6-5.25-17.8-8.55l-12.5-4.6zM173 81.03l-7.25-.65c-1.3 0-1.97.65-1.97 1.97l1.97 1.98 6.6.65c5.26.67 9.87 3.3 14.48 6.6l2.63-.67c.66-.62.66-1.94-.66-2.6-4.6-3.95-9.88-5.93-15.8-7.25z"/><path fill="#F00" d="M102.54 102.1c.65 41.5 5.92 88.9 15.8 142.9 18.44 107.35 49.4 191 90.87 251.57l131.1-3.95c-50.7-67.17-85.6-152.12-106.7-255.5-9.88-51.37-15.8-96.16-15.8-135H102.54z"/><path d="M221.07 102.1c0-1.96-1.3-3.28-3.3-3.28H102.55c-1.32 0-1.98.66-3.3 1.3v2c1.32 42.8 6.6 91.52 16.47 144.87 19.1 107.96 49.4 190.94 90.88 250.9.66 1.3 1.98 1.94 2.63 1.94l131.06-3.95 2.62-1.97v-3.3c-49.4-65.85-84.95-150.14-105.36-252.2-10.54-51.38-15.8-96.82-16.47-136.33zm-115.24 3.3H214.5a749 749 0 0 0 19.08 146.85c21.08 94.84 54 173.86 100.1 237.08l-122.48 3.94c-38.86-55.97-67.84-134.33-86.93-233.1a1007.83 1007.83 0 0 1-18.44-154.77z"/><path fill="#858585" d="M49.2 456.4a78.73 78.73 0 0 1 5.26 18.44l3.3 19.76c1.97 5.26 5.27 9.88 9.87 16.46l13.17 16.47 39.5 65.18H173c-6.6-6.55-19.76-25-38.2-55.3-17.78-27.65-28.97-46.1-31.6-52.66l-7.25-20.42-6.58-19.1-7.9-12.5-13.84-19.1c-4.6-7.24-16.46-36.22-35.56-87.6l-28.3-74.4L-3.5 360.3l52.7 96.13z"/><path d="M7.05 250.28l-3.3-1.98-3.3 3.3-7.23 108v1.97l53.34 96.15c1.98 4.6 3.95 11.85 5.27 21.73l2.63 15.8c1.98 5.93 6.6 13.83 15.15 22.4l9.25 11.85 38.85 64.54c.65 1.3 1.3 1.97 2.62 1.97H173l3.3-1.94-.67-3.95c-6.58-5.93-19.1-24.37-38.2-54.66l-31.6-52.03-7.25-22.4-5.92-16.44-9.22-15.15-13.17-17.77c-3.95-6.58-15.8-35.56-35.57-86.27L7.05 250.28zM58.4 478.14c-1.96-11.2-3.94-19.1-5.92-23.7L-.2 358.94l6.6-91.54C39.3 356.3 59.06 405.7 65 414.9L78.17 434l8.56 13.18 5.93 15.8 7.9 23.06 27.66 46.75c16.46 27.64 29.63 46.1 37.54 56.6H122.3l-38.2-63.2-9.88-12.5c-7.25-8.57-11.2-15.15-13.17-19.76l-2.64-15.8z"/><path d="M51.17 455.74c-6.6-21.07-17.12-50.04-30.95-85.6L.46 323.38c0-1.32-.66-1.98-1.98-.66-1.3 0-1.3.66-1.3 1.97l19.08 47.4a1587.53 1587.53 0 0 1 30.96 84.94c.65 1.32 1.32 1.32 2.64 1.32 1.3-.66 1.3-1.32 1.3-2.64zm1.3-38.84L26.8 347.1 3.77 285.17c-.67-1.3-1.32-1.97-3.3-1.3-1.3.64-1.3 1.3-.66 2.62l23.07 60.6 25.7 70.42 9.2 30.3c3.96 13.17 6.6 22.4 9.22 26.34 2.63 4.6 8.55 11.86 18.43 21.73l12.53 13.17 55.3 84.3c0 1.97 1.33 1.97 2.65.66.66-.66 1.3-1.32.66-1.98l-55.3-85.6-12.53-13.18-17.78-20.4-9.88-25.7-8.56-30.3z"/><path d="M72.9 418.2l-2.63 1.98-.66 15.8c0 11.2 2.66 19.1 6.6 25.03 5.94 9.9 13.84 16.5 24.37 20.45l2.64-.66c.66-2 0-2.64-1.32-3.3a43.87 43.87 0 0 1-22.38-18.44c-3.98-5.27-5.3-13.17-5.95-23.7l.65-14.5c.02-1.32.02-1.97-1.3-2.63zm28.98 89.57c-.66-1.32-1.32-1.98-2.63-1.32l-28.33 6.58c-1.3.67-1.97 1.33-1.3 2.64l1.96 1.98 28.32-7.9 1.97-1.98zm8.55 13.17c0-1.32-.65-1.32-1.97-1.32l-27.66 5.93c-1.3.65-1.97 1.3-1.3 2.63 0 1.32 1.3 1.32 1.96 1.32l27.66-5.93 1.3-2.63zm12.52 19.1l-2.64-1.98-28.3 4.6c-1.3.66-1.96 1.33-1.3 2.64 0 1.98 0 1.98 1.98 1.98l28.97-4.62 1.32-2.63zm9.22 13.83c-.66-1.33-1.98-1.98-2.64-1.33l-28.3 6.6c-1.33 0-2 .65-1.33 1.97 0 1.34.66 2 2.64 1.34l27.65-6.6c1.95 0 1.95-1.3 1.95-1.95z"/><path fill="#858585" d="M85.4 231.84c-3.28-54.66-8.55-96.8-15.13-126.44C59.73 57.33 41.95 20.45 18.24-5.23h-38.2l2.64 69.8C-11.4 105.4-.85 151.5 14.95 202.2 45.9 304.3 84.75 380 132.17 429.4a1203.8 1203.8 0 0 1-21.07-69.8c-15.15-52.68-23.7-95.5-25.7-127.76z"/><path d="M7.05 24.4c-.66-1.98-1.98-2.63-3.3-1.98-1.97.66-2.63 1.98-1.3 3.3l13.8 38.85C26.8 94.87 34.05 122.53 38 148.2l1.98 10.56c9.2 50.04 17.12 89.56 25.68 119.85 14.48 54 33.58 100.1 56.63 138.3 1.3 1.3 2.6 2 3.3 1.3 1.94-.64 2.6-2.6 1.3-3.93-23.07-38.85-41.5-84.3-56-137.63-8.56-30.95-17.1-70.46-25-118.54l-2.65-11.2c-3.96-25-11.2-53.34-21.74-84.3L7.06 24.4zm46.1 45.44c1.3-.66 1.97-1.32 1.3-2.63-15.8-25-32.25-42.8-51.35-55.3H.45c-.66 1.3-.66 2.64.66 3.3 4.6 2.63 10.55 7.23 16.48 13.16 12.52 12.52 23.7 25.7 33.6 40.83l1.97.65z"/><path d="M19.56 59.97c-.66-.67-1.32-.67-2.63 0-.66.65-.66 1.96 0 2.63 21.07 21.07 36.22 38.85 47.4 54l2.64.65.66-3.3c-11.2-15.13-27.65-32.92-48.07-53.98zm15.14 50.7c-1.3-.66-1.97-.66-2.63 0-.66 1.32-.66 1.98 0 2.64 14.5 13.2 28.98 29.66 40.83 49.4 0 1.3 1.32 2 2.63.67 1.32-.65 1.98-1.97.67-2.63-12.52-21.07-26.35-37.54-41.5-50.05zm9.88 46.75c-1.3-1.3-1.97-1.3-3.3 0-1.3.67-1.3 1.98 0 2.64l15.16 16.46c10.53 13.17 19.1 25.7 25.02 36.22l2.63 1.32c1.3-.66 1.3-1.97 1.3-3.3-6.6-11.2-15.8-23.04-26.35-36.2l-14.5-17.14zm7.25 41.48H49.2c-1.33.67-1.33 2 0 2.65l13.16 17.12a345.88 345.88 0 0 1 21.73 34.9c0 1.32 1.3 1.32 1.95 1.32l1.32-3.3c-4.62-9.9-12.52-21.1-21.74-34.9l-13.8-17.8zm11.85 54.67l-.66 2.63-2.63-.65 34.2 50.7 2.64.67 1.32-2.64-34.9-50.7zM79.5 308.9l-.67 2.62-2.63-.65 26.34 32.93h3.3v-1.98L79.5 308.88zm18.43 50.04a2 2 0 0 0-2.64 0c-1.35.66-1.35 1.32 0 2.63l23.7 23.7c1.3 1.33 1.95 1.33 3.3 0v-2.62l-24.4-23.7zM8.36 31.64c-1.3 0-1.97.66-1.97 2C1.75 94.2.43 138.34 3.1 165.98l1.97 1.96L7.05 166c-1.98-27.67-1.32-71.8 3.3-131.72 0-1.98-.67-2.64-2-2.64z"/><path d="M32.07 102.77c-1.32-.66-1.97 0-2.63 1.3l-7.25 34.26c-3.98 27.66-5.3 54.66-3.3 81 0 1.98.64 2.63 1.96 1.98l1.97-1.95c-1.97-26.34-.66-52.7 3.3-79.68l7.24-34.25c0-1.3 0-1.96-1.33-2.62zm10.53 50.05c-1.3 0-1.97 0-2.62 1.97L34.7 189c-2.63 27-3.3 52.68-1.3 77.04 0 1.33 1.3 1.98 2.62 1.98L38 265.4c-2.63-23.7-1.98-49.4.66-76.37l5.92-33.6-1.97-2.62zm9.88 55.98c-1.3 0-1.97 0-1.97 1.97-.63 1.3-1.3 11.2-2.6 30.95-.66 23.05 0 41.48 1.3 54.66 0 1.3.66 1.97 1.97 1.97l2-1.97c-2-13.84-2-31.6-.68-54.66l1.97-30.95c0-1.32 0-1.98-1.98-1.98zm13.84 59.26c-1.98-.65-2.64 0-2.64 1.3l-.66 25.04c-.66 17.12 0 28.98 1.32 36.22.66 1.32 1.98 1.98 2.63 1.98 1.32-.66 1.98-1.98 1.32-3.3-2-6.58-2-18.43-2-35.55l1.3-23.7-1.3-2zm16.46 70.46l1.3-14.48c0-1.32 0-1.98-1.3-1.98l-2.64 1.32-.65 15.15c-.7 10.53 0 20.4 2.6 28.97l1.97 1.32c1.3 0 1.97-.66 1.3-2.63-1.96-7.28-2.62-17.16-2.62-27.7zm16.46 25.03c-.66 0-1.98 0-1.98 1.97l-1.3 11.2c0 8.56.65 15.8 3.28 21.73 0 1.32 1.32 1.98 1.98 1.32 1.32 0 1.32-1.32 1.32-1.98a51.27 51.27 0 0 1-2.64-21.1l.66-10.53c0-1.34 0-2.65-1.32-2.65z"/><path fill="#858585" d="M355.4 87.62c-13.16-44.78-37.53-75.08-71.77-89.56l-36.2 1.3c-5.94 18.46-9.24 42.16-10.56 69.82-2.63 56.64 7.25 108.66 28.32 156.73 22.36 47.45 48.05 83 77.7 104.1 15.13 11.2 27 17.1 37.5 19.1-12.5-15.8-25-36.9-37.52-64.56-25.04-54-35.57-111.3-33.6-170.56l17.13 17.78c13.83 11.2 27 17.78 38.86 19.76.65-19.75-2.64-40.82-9.9-63.87z"/><path d="M296.14 224.6c-10.53-30.3-16.46-67.83-18.44-111.3-1.97-31.6-7.24-58.6-16.46-80.34L248.07 8.6l-3.3-.66c-1.3 1.3-1.3 3.3-.65 3.95L257.3 34.9c7.9 21.73 13.14 48.07 14.45 78.37 2.64 44.77 9.23 82.3 19.1 113.26 13.83 42.15 36.88 79.7 67.83 109.98 1.3 1.97 3.3 1.97 3.95 0 1.3-.66 1.3-1.98 0-3.3A257.4 257.4 0 0 1 296.1 224.6z"/><path d="M248.07 11.23c.66-1.32 0-1.98-.66-2.64l-2.6.63c-2 2.64-3.95 7.25-5.93 13.17-3.3 11.87-4.6 26.35-3.95 44.14 0 1.3 0 1.97 1.98 1.97l1.32-1.95c0-17.12 1.97-31.6 5.26-42.8l4.6-12.52zm15.15 28.32c-1.98-1.32-2.64-.66-2.64.66-3.3 5.3-5.92 12.54-9.22 21.1-5.93 17.78-9.87 35.56-10.53 52.68 0 1.32.66 2.64 1.3 2.64l2.65-2.63c.66-16.47 4.6-33.6 9.88-51.37 3.3-8.55 6.58-15.14 9.22-20.4.65-1.3.65-2.64-.66-2.64zm10.54 43.47c.65-1.33.65-2.64-1.32-2.64-1.32 0-1.98 0-2.64.65l-8.56 26.35c-5.93 21.07-8.56 40.16-8.56 57.3 0 1.3.65 1.96 1.98 1.96l1.97-1.97c0-16.46 3.3-35.56 8.56-55.98 2.6-9.9 5.24-18.46 8.54-25.7zm3.3 52.02c-.67 0-2 0-2.65 1.3-6.55 21.74-9.85 46.1-9.85 73.1 0 1.33.66 2.65 1.98 2.65l1.98-2.67c0-16.46 2-32.93 5.3-50.05l4.6-21.08c0-1.98 0-2.63-1.3-3.3zm7.88 57.3c-1.3 0-1.97 0-1.97 1.3-1.32.67-1.98 8.57-1.98 21.74a145.2 145.2 0 0 0 3.3 45.44l2.6 1.3c1.32 0 1.32-.64 1.32-1.96-3.3-13.84-3.95-28.32-3.95-44.78l2.62-21.08c0-1.3 0-1.97-2-1.97zm21.74 62.56l-2.63-2.65c-.66 0-1.32 1.32-1.32 2.64l.66 17.1c1.3 13.16 3.26 23.7 5.9 30.94 0 1.32 1.3 1.98 1.97 1.32 1.97 0 1.97-1.32 1.97-1.98-2.64-7.9-4.6-17.8-5.93-30.96l-.65-16.46zm23.72 42.8c-.67 0-1.33.65-2 1.97l.67 9.88c0 7.24 1.3 13.17 3.95 19.1l1.98 1.32 1.32-2.64c-1.98-5.27-3.3-11.2-3.96-18.44v-9.25l-1.97-1.98z"/><path d="M297.46 73.8c1.98 0 2.64-1.33 1.32-2.64-7.25-16.47-17.13-30.95-30.3-43.46L250.7 13.2l-2.63.67a2 2 0 0 0 0 2.63l17.12 13.83c13.14 11.85 23.02 27 29.6 42.8 1.32.66 2 1.32 2.64.66zm5.94 39.5a226.5 226.5 0 0 0-25.04-48.73l-12.5-17.12c-1.32-1.32-1.98-1.32-2.64 0-1.32.66-1.32 1.3 0 1.98l11.85 17.12a234.43 234.43 0 0 1 24.37 48.07c1.3.66 1.3 1.98 2.63 1.32l1.32-2.63zm-29-21.73c-.64-1.3-1.3-1.3-2.62-.66-.66 1.35-1.32 2-.66 2.67l11.85 17.77c7.9 13.17 13.83 24.38 17.78 33.6 0 1.3.66 1.3 2.64 1.3l.63-2.63c-3.3-9.87-9.23-20.4-17.12-33.6L274.4 91.6zm3.96 51.37c-.66-1.32-1.98-.66-3.3.65 0 1.3 0 1.96 1.32 2.6l8.56 8.57c7.9 8.55 13.84 17.77 19.1 29.63 0 .67 1.32 1.3 2.64.67.66-.67 1.32-1.34.66-2.65-5.27-11.2-11.2-21.73-19.1-29.63l-9.88-9.9zm6.58 46.1h-2.63c-1.3.65-.63 1.97.7 3.3l9.2 7.23a87.28 87.28 0 0 1 17.1 23.7l2.66.67c1.32 0 1.98-1.32.66-2.63a92.76 92.76 0 0 0-17.77-24.35l-9.88-7.9zm17.8 57.96c-1.33 0-2 0-2.64 1.3 0 1.32 0 1.98 1.3 2.64l7.9 3.95 17.8 13.8c.65 1.32 1.97 1.32 2.63 0a2 2 0 0 0 0-2.64L311.3 251.6l-8.57-4.6zm24.36 45.42a5 5 0 0 0-2.64 1.33l1.98 2.63L335 299c5.92 1.33 11.2 3.96 13.83 7.25l2.63.67c.66-.67 1.32-1.33.66-3.3a54.36 54.36 0 0 0-15.15-9.22l-9.88-1.98zM275.07 13.2l-3.3.67a4.2 4.2 0 0 0 0 3.95l34.25 32.92c24.36 28.32 40.17 59.27 48.73 90.88.66 1.32 1.32 1.98 3.3 1.32 1.3 0 1.97-1.32 1.97-3.3-8.56-32.26-25.7-62.55-50.05-92.2l-34.9-34.23z"/><path d="M311.95 51.4c-1.32 0-1.98 1.32-1.98 2.64V73.8c.66 15.14 2.63 29.63 5.93 41.48.66 1.32 1.3 1.32 2.64 1.32 1.3 0 1.97-1.32 1.3-2.64-3.28-11.85-5.92-25.02-5.92-40.17V54c0-1.32-.65-2.64-1.97-2.64zm20.4 29.63c-1.3 0-1.97.66-1.97 1.98l.66 17.8c1.32 13.84 2.64 25.7 5.93 35.57 0 .66.66 1.32 2.64 1.32.68-.67 1.34-1.33.68-2.64-2.63-9.88-3.94-21.08-5.27-34.25l-.67-17.8-1.97-1.97zm-21.72-47.4l-16.46-2c-1.32 0-2.64.67-2.64 2.65 0 .66 1.32 1.3 2.64 1.3l16.46 2c12.52 1.97 23.7 5.26 33.58 11.18l3.3-.65-.63-2.6c-10.53-5.93-23.05-9.9-36.22-11.85z"/><path d="M317.22 58c-1.98-.67-2.64 0-2.64 1.3-.66 1.32 0 1.98 1.32 1.98l14.48 4.6a323.6 323.6 0 0 1 27.66 9.9c.66 1.3 1.98.65 1.98-1.33l-.66-1.98c-7.24-3.95-17.12-7.24-28.32-10.53L317.22 58zm19.1 27.65c-2 0-2.64 0-2.64 1.3-.66 1.33 0 2 .65 3.3l9.88 3.3 15.18 8.56c.66.7 1.98 0 2.63-1.3.66-.65 0-1.96-.65-1.96-3.3-2.63-8.56-5.27-15.15-8.56l-9.9-4.6z"/><path fill="none" stroke="#000" stroke-width="3" stroke-miterlimit="100" d="M370.6 585.26H3.9V2.74h366.7v582.52z"/><path stroke-miterlimit="100" d="M367 582H5V5h362v577z" fill="none" stroke="#000" stroke-width="10"/></svg>