<svg xmlns="http://www.w3.org/2000/svg" width="372" height="587" viewBox="0 0 372 587"><path fill="#fff" d="M0 0h372v587H0z"/><path fill="#858585" d="M294.83-5.66l-26.8.67c-5.36 7.4-10.05 16.1-15.4 26.16-8.72 20.1-12.74 35.5-10.73 47.57l29.48 73.04c16.08 40.87 24.12 75.7 24.8 103.2 0 22.76-3.36 53.6-10.73 92.44-2 33.5 7.37 66.35 28.8 97.84 0-14.73.68-31.48 2.02-50.24 2.68-36.86 9.38-66.34 18.1-87.1 10.7-23.47 18.08-61.66 23.44-113.9 4.7-50.27 4.7-86.45 0-109.23-4.66-19.43-12.03-36.18-23.42-49.58C325 13.8 311.6 3.1 294.84-5.65z"/><path d="M272.72-15.04c-1.34.66-2 1.34-1.34 3.35 8.7 23.48 17.42 50.28 26.13 79.76C314.3 127.7 322.3 173.92 321 206.08c0 22.78-5.36 53.6-16.08 93.8l-6.7 33.5c-2.7 18.1-2.7 42.22 2 72.37 0 2.68 1.34 2.68 2.7 2.68 2 0 2.66-.67 2.66-3.34-4.02-29.5-4.7-53.6-2.68-71.04l7.37-32.82 10.05-45.55c4-18.78 5.35-35.53 6.02-49.6 1.34-33.5-7.37-79.06-24.12-138.7-8.04-29.47-16.75-56.94-26.13-81.06-.67-1.34-1.34-2-3.35-1.34z"/><path d="M278.75-2.98c-1.34-.67-2.68 0-3.35.67-10.05 28.8-16.75 53.6-20.1 74.34l2 2.68c1.35 0 2.02-1.34 2.02-2 2.68-20.78 9.38-44.9 20.1-73.04.67-1.35 0-2-.67-2.7z"/><path d="M276.74-7.68c-1.34 0-2 0-2 2.02-.68.67 0 1.33.66 2l24.8 16.08c17.4 14.75 28.8 33.5 33.5 56.3 0 1.33.66 2 2 2 2-.67 2-1.34 2-2.68-5.35-23.45-16.74-43.55-35.5-58.97L276.74-7.68zm12.06 36.85c-.67 0-1.34 0-2 1.35-9.4 26.13-14.75 50.25-15.42 73.03 0 1.34.67 1.34 1.34 1.34l2.68-1.37c0-13.4 3.35-30.15 8.04-48.24l7.37-23.45c0-.67 0-2-2-2.7zm14.07 45.57c-.67 0-1.34 0-2.68 1.34l-10.75 27.47c-7.37 21.44-11.4 41.54-11.4 60.3 0 1.34.68 1.34 1.35 1.34l2.7-1.37c0-18.76 4-38.2 10.7-58.96l11.4-26.8c.67-1.35.67-2.7-1.34-3.36z"/><path d="M292.15 35.2c-1.34-.66-2-.66-3.35 0-.67 1.35-.67 2.7 0 3.36l16.75 18.76c12.73 14.07 21.44 26.13 26.8 35.5.67.68 2 1.35 3.35.68.67-.67 1.34-2 0-2.68-5.36-9.38-14.07-22.1-26.8-36.18L292.15 35.2zm13.4 48.92c-.67-.67-1.34-.67-2.68 0-.67.67-.67 2 0 2.68l12.06 12.06c8.04 9.38 14.07 15.42 16.08 19.43 4.05 6.7 6.7 12.7 7.4 20.1l2.68 1.3 1.34-2.67a66.6 66.6 0 0 0-8.03-20.77l-16.1-19.42-12.75-12.74zm8.7 34.84c-2-.67-2.67 0-2.67 1.34l-20.1 51.6c-2.68 7.36-3.35 16.07-4.02 24.1 0 2.02 0 2.7 1.34 2.7l2.68-2.02c.67-8.04 1.34-16.08 4.02-23.45l10.72-29.48 8.7-22.1c.68-1.35 0-2.7-.66-2.7zm3.35 12.74c-1.33-1.35-2-1.35-3.34 0-1.34.66-1.34 2 0 2l13.4 18.1c8.7 13.4 14.74 24.1 15.4 32.15 0 1.34.68 2 2.02 2l1.34-2c-.67-8.7-5.36-20.1-14.74-33.5L317.6 131.7zm4.03 29.48c-.67-.68-2-.68-2.68.66l-12.73 25.46c-8.04 17.43-12.06 30.15-12.06 38.2 0 .66.67 2 1.34 2l2.68-2c0-8.05 4.02-20.1 12.06-37.52l12.06-24.13c.67-1.34 0-2-.67-2.67zm2.67 12.72h-3.34c-1.34.68-1.34 1.34 0 2.68l8.7 16.08c6.04 12.73 9.4 26.13 9.4 38.2 0 1.33.66 2 2 2l2-2a106.43 106.43 0 0 0-9.37-39.53l-9.4-17.43zm.68 18.76c-2-.67-2.68-.67-2.68 1.34l-12.73 22.78c-7.37 16.08-12.06 29.48-14.07 39.53 0 1.37 0 2.7 2 2.7 1.35 0 2.02-.65 2.02-1.33 2-10.05 6.03-23.45 14.74-39.52l11.4-22.8c0-.65 0-1.33-.68-2.67zm-3.35 46.9l-2.68.67-13.4 22.1c-9.38 15.42-14.07 26.82-16.08 34.85 0 .67 0 2.02 2 2.02l2.7-1.35c1.33-8.04 6.02-18.76 14.73-34.84l13.4-20.74c.67-.66 0-1.34-.67-2.68z"/><path d="M323.64 228.84c-.67-1.34-1.34-1.34-2-1.34-2.02.68-2.02 1.34-2.02 3.35l6.03 15.4c3.35 12.74 6.03 22.8 6.7 31.5 0 2 .67 2 2 2l2.02-2c-.67-8.7-3.35-19.42-6.7-32.16l-6.03-16.77zm-4.7 28.8c0-1.33-.66-2-2-1.33-1.34 0-2 .7-1.34 2.7l4.02 17.4c2.68 13.4 4.7 24.15 4.7 32.2 0 2 .66 2.68 1.33 2.68l2.68-2.68c0-8.06-2-19.44-4.7-32.84l-4.68-18.1zm-9.37 40.2c0-.66-.67-1.33-2-.66-1.35 0-2.02.67-1.35 2.02l4.7 14.73c3.34 10.72 4.68 19.43 4.68 26.8 0 .68.67 1.35 2.68 1.35l1.34-1.35c0-8.03-1.34-16.75-4.7-28.13l-5.35-14.75z"/><path d="M308.23 305.9c-.67-1.35-2-1.35-2.68-1.35l-8.7 6.7c-5.37 5.36-9.4 13.4-11.4 22.78 0 1.35 0 2.02 2 2.02 1.35 0 2.02 0 2.02-1.34 2-8.7 5.36-16.05 10.05-20.75l7.37-5.35c1.3-.7 1.3-1.36 1.3-2.7zm-7.37 45.56h-2.68l-4.7 5.35c-2.67 4.7-4 10.75-4.68 18.1 0 .7 0 1.37 2 1.37l2.02-1.34c.67-6.7 2-11.4 4.03-16.07 2-2.68 2.67-4.02 4-4.02.68-1.34.68-2.67 0-3.34z"/><path d="M300.86 342.75c-1.34-1.34-2-1.34-2.68 0-.67.66-1.34 2 0 2.68.67 0 3.35 3.35 7.37 10.72 4.7 8.7 6.7 16.75 6.7 25.46 0 1.37.67 2.04 2.68 2.04l1.34-2c0-9.4-2-18.77-7.37-27.5l-8.04-11.37z"/><path fill="#858585" d="M333.02 413.77c0 2.68.67 14.06 2.68 32.83l2 34.17-8.03 49.58 2.68 23.45c.67 14.74 0 28.14-3.35 41.54h40.2V205.4l-22.1 142.03c-1.35 19.44-2.7 31.5-4.03 37.53l-5.36 14.07-4.66 14.74z"/><path d="M369.2 202.7c-2 0-3.35 1.35-3.35 2.7L344.4 346.75v2.02c-1.33 18.75-2.67 30.15-4 35.5l-4.7 11.4-4.7 17.42c-.66 3.33 0 14.7 1.35 33.5l2.68 33.5-7.37 49.56.67 12.06 1.34 22.1a88.8 88.8 0 0 1-3.35 30.16v2.67l2.68.67h40.2c1.35 0 2-.67 2-2V205.38l-2-2.7zm-23.45 182.26l4.02-35.5v-2.03c.67-9.37 6.03-45.55 16.08-107.87V592h-33.5c2-9.4 3.35-18.77 3.35-26.8l-2.68-23.47-.67-10.05v-1.33l8.04-52.27-2.04-32.15-2.68-29.48v-2.02c.66-3.35 2.67-8.7 5.35-16.07l4.7-13.4z"/><path d="M352.45 393l-2-1.34c-1.35 0-2.02 0-2.02 2l-.67 32.84c-2 24.78-5.36 43.55-12.73 56.95l.67 2 4.7 11.4c2.67 8.7 4.68 15.4 4.68 20.1 0 9.38 1.34 26.8 4.02 54.94.67.64 2 1.32 2.68 1.32l1.34-2.02v-.66c-2.68-26.8-4.02-44.9-4.02-53.6 0-4.7-1.34-11.4-4.02-18.76l-6.03-13.4c9.38-18.77 13.4-45.57 13.4-79.07V393z"/><path fill="#FFE000" d="M287.46 294.5c3.35-3.35.67-12.05-8.7-25.45 31.48 19.43 48.9 27.46 52.25 24.1 1.37-2-5.33-11.37-21.4-27.45l-38.2-33.5a148.45 148.45 0 0 0-28.8-15.42c-8.7-4.02-15.4-6.03-20.1-6.03-3.36 0-7.38 3.35-11.4 8.7-4.7 6.04-8.04 11.4-9.38 16.76-2.67 4.7-6.02 9.4-10.7 12.76-5.37 4.02-10.06 5.36-14.08 3.35l-9.37-2.7c-3.35-1.3-5.36-3.33-4.7-6l-1.33-18.1c0-2 0-4.7 1.34-8.04 2-5.36 5.36-10.05 11.4-13.4-12.07 0-22.12 3.35-28.82 10.05l-6.7-1.33c-4.7 0-8.04 1.34-9.38 2.68l-8.7 10.05c-4.03 5.34-5.37 11.37-4.03 17.4.68 6.03 3.36 10.05 7.38 12.73 3.36 3.35 6.04 5.36 6.04 8.04 0 4.02-1.33 7.37-2.67 10.05-2 2-4.02 3.35-7.37 2.68l-20.77 1.35c-11.4 1.34-18.77 4.7-22.12 7.38-5.35 4.68-8.03 22.1-10.04 52.92 0 10.73.67 26.13 3.35 46.23 3.36 20.78 6.7 31.5 10.06 30.83 4.7-.65 8.7-18.1 10.73-50.22.67 15.4 4.02 22.77 9.38 20.77 4.7-1.35 8.05-13.4 8.05-34.85 2 16.07 5.36 22.77 10.05 20.1 4.7-2.68 8.04-14.74 10.05-36.2l1.34 7.4c2 5.34 4.02 8.02 7.37 8.02 4.7 0 8.04-9.37 9.38-28.8l2 6.03c3.36 3.35 8.05 5.36 14.75 6.03l8.05 4.7c6.7 5.35 13.4 11.38 18.76 20.1 18.1 26.12 30.17 63.64 34.86 111.22l-.66-37.52c-2.68-29.48-7.37-52.93-15.4-71.7l12.05 8.72c9.37 8.7 17.4 18.75 26.12 29.48 26.8 36.17 42.88 78.4 48.9 128.64 1.35-15.4-1.33-33.5-7.36-55.6-10.7-44.9-32.15-85.1-63.64-121.3-12.72-19.42-20.1-35.5-23.44-46.22 2-8.03 8.7-16.08 19.43-26.13 20.1 14.75 31.5 20.78 36.17 17.43 4.7-2.68 1.35-9.38-8.7-20.1 22.78 16.07 35.5 22.1 38.86 19.43z"/><path fill="#D96038" d="M241.9 354.13l-4.7-10.05c-4.68-6.7-9.37-12.05-15.4-13.4-6.03-2-12.06 0-18.76 4.7-4.02 2.68-6.03 5.35-8.7 8.04-6.7 4.7-11.4 8.04-14.08 11.4-5.36 6.7-6.03 13.4-3.35 20.1l24.8 67c14.1 36.17 22.1 53.6 24.14 53.6 2.68 0 6.03-10.73 9.38-30.83 3.36-22.14 4.03-38.2 2-48.94L254 439.88c11.4 20.1 20.1 39.52 24.8 58.3 6 22.1 10.03 37.5 13.4 44.9 2 7.34 4 10.7 6.7 11.36s4-6.03 6-21.44c2-16.08 1.34-30.82-.67-44.9-4-20.1-10.7-42.2-20.76-66.32-12.06-30.14-26.13-52.92-41.54-67.67zm-112.56-138.7l-8.7 10.06c-4.03 5.33-5.37 11.36-4.03 17.4.7 4.7 2.04 8.03 5.4 10.7 0 .68 2 2.03 6.7 2.7l16.07-.66c6.03-1.35 12.06-8.72 17.42-20.77l-.68-9.4c0-2 0-4.68 1.35-8.03 2-5.36 5.36-10.05 11.4-13.4-12.07 0-22.12 3.35-28.82 10.05l-6.7-1.35c-4.7 0-8.04 1.34-9.38 2.68z"/><path d="M289.47 296.5c2-1.32 2.68-3.34 2.68-5.34 0-3.35-1.34-7.38-4.02-12.06 26.8 14.73 40.87 20.1 44.9 16.08l1.33-4.03c-1.34-4.7-9.38-14.74-25.46-30.15l-36.18-31.5c-8.7-6.02-18.1-12.05-28.8-16.07-10.06-4.02-16.76-6.03-21.45-6.03-4.02 0-8.7 3.35-14.07 10.05a51.16 51.16 0 0 0-10.05 17.43c-1.34 4-4.7 8.03-9.38 11.38-4.02 2.68-8.04 4.02-11.4 2.68l-3.34-.66c-6.03-2.02-8.7-2.68-8.04-4.03l-1.37-14.74v-4l.67-6.7c2-5.35 5.37-9.4 10.06-11.4l2-4.7c-.66-1.3-2-2-3.34-2-12.06.7-22.1 4.05-29.48 10.07-9.38-2-14.74-1.34-17.42 2l-2 1.35-9.4 11.4c-3.34 6.04-4 12.06-2.67 18.76.67 5.36 4.02 10.73 10.05 14.74 2.02 2 3.36 3.35 3.36 4.68 0 4.7-1.34 7.37-2.68 8.7l-3.35.67-22.1 1.34c-11.4 1.34-20.1 4.7-23.46 8.04-6.03 5.36-10.05 23.46-10.72 53.6l-.67 2c0 9.4.67 23.46 3.35 41.56 2 22.1 5.36 34.15 9.38 37.5 1.37 1.35 3.38 1.35 4.7 1.35 5.38-.68 9.4-12.73 12.08-33.5l2 3.35 6.7.68c3.36-1.35 6.7-7.37 8.72-18.76l3.34 4c2 .7 4.02.7 6.03 0 4.02-2.66 7.37-11.37 10.05-24.77 2.02 2.68 4.03 4.02 7.38 4.02 6.03 0 10.05-7.37 11.4-22.1 3.34 2.66 8.03 4 13.4 4.68l8.7 5.36a104.37 104.37 0 0 1 17.42 20.1c18.1 26.15 29.48 61.67 33.5 108.57 0 2 2 2.68 3.35 2.68l3.35-3.35V460c0-34.17-3.35-64.32-12.06-89.78 15.4 13.4 29.48 30.15 41.54 50.9 18.1 30.84 30.15 66.35 34.84 105.88.67 2.68 2 3.35 4.03 3.35 2 0 2.67-.67 2.67-3.35.68-15.4-2-34.84-7.37-56.95-12.06-44.9-33.5-85.1-64.32-121.94-12.06-18.73-19.43-33.5-22.1-43.53 1.33-6.02 6.02-13.4 16.07-22.1 19.43 14.73 32.16 19.43 37.52 15.4l2.68-5.35-.67-5.36c14.74 10.05 24.12 12.73 28.14 9.38zm-14.07-25.45l7.37 12.73 2.68 8.05c-2 .67-6.7-2.02-13.4-6.03l-21.44-13.4h-4.66c-1.34 2-1.34 3.35 0 5.35 6.7 6.7 10.05 11.4 9.38 14.75-1.33.66-5.35-.67-11.4-4.02a107.9 107.9 0 0 1-20.75-13.4l-4.7.66c-10.7 10.05-17.4 18.76-19.42 27.47l-.67.7.67.67c2.68 11.4 10.05 26.8 23.45 47.58 20.77 24.12 37.52 52.25 50.25 82.4-10.72-22.77-24.12-42.2-40.87-58.95l-20.77-18.1-4.02.66c-.67 0-1.34.68-1.34 2v1.35c6.03 13.4 10.05 31.5 13.4 53.6-7.37-29.45-18.76-52.23-33.5-68.32-8.04-8.7-14.74-14.73-20.77-16.75h-1.34c-5.35-.65-8.7-2-11.38-4.67l-2-4.03c0-2-1.35-3.35-3.36-3.35-2.7.68-3.36 2-3.36 3.35l-2.67 16.75-3.35 8.7-3.34-4.67-2-7.37c0-2.67-1.35-3.35-3.36-3.35-1.34 0-3.35.68-3.35 3.35L122 356.17c-2 6.7-3.35 10.7-5.36 12.06-1.33-1.34-3.34-6.7-4.68-17.42 0-2.66-1.34-3.33-3.35-3.33-2 0-3.33.67-3.33 3.35l-2 20.78-3.37 10.73c-1.34 0-2.68-1.34-3.36-5.36l-2-12.05c0-2.68-.67-3.36-3.35-3.36-1.37 0-2.7.68-3.37 3.35l-2.68 27.48c-2.02 9.38-3.35 16.08-4.7 18.75-2-4.02-4.02-13.4-6.7-29.48-2-14.74-3.35-27.47-3.35-38.85v-4.7l.68-1.35c.68-28.8 4.03-44.87 8.7-48.9 2.7-3.35 9.4-5.36 20.1-6.7l19.45-1.34c2.67.7 6.02 0 8.03-2 4.02-2.66 6.02-8.03 6.02-14.06 0-4.02-2.67-7.37-6.02-10.05a18 18 0 0 1-8.04-11.4c-2.02-6.7 2-14.74 10.7-22.78l2.02-2h12.73l3.35-1.34c2.68-2.67 8.04-5.35 15.4-7.36-3.35 5.36-5.35 10.72-5.35 16.75v5.35l1.34 10.05v3.35c0 4.7 4 8.04 12.07 10.05l4.02 1.34c5.35 2 11.37.67 16.74-3.35 6.03-4.03 10.05-9.4 12.06-14.75 1.33-5.37 4.7-10.73 9.37-15.4 4.02-5.38 6.7-8.06 8.7-8.06 4.03 0 10.06 2 19.44 5.36 10.07 4.7 18.78 9.38 26.8 16.08l33.5 28.14c13.4 12.06 20.8 20.77 23.47 26.13-8.7-2.67-23.45-10.7-44.9-23.44h-4.68c-.68 2.04-1.35 3.37-.68 4.7z"/><path d="M146.76 212.1c-2-.67-2.68 0-2.68.66-1.34 1.34-.67 2.68.67 2.68l7.37 4.02 2.68.67c1.34-1.34 1.34-2 0-2.68l-8.04-5.36zm-2.68 17.4c.67-3.34-.67-5.35-4.7-5.35-3.34 0-5.35 1.34-5.35 4.7-.67 3.35.67 5.35 4.7 5.35 2.67.68 5.35-.67 5.35-4.7zm-52.26 60.3l-2 1.35a243.48 243.48 0 0 0 0 76.38l2 1.35 2-2.68a271.5 271.5 0 0 1 0-73.7c0-1.35 0-2.7-2-2.7zm15.4-2c-.66 0-2 1.35-2 2-1.34 19.45-1.34 40.2 1.34 61.66l2 1.34 2.02-2.02c-2-21.43-2.68-41.53-.67-60.97l-2.65-2zm19.44 1.35c-1.34 0-2 0-2 2a204.8 204.8 0 0 0 2 43.56c.67 1.37 1.34 2.04 2 2.04 2.02-.67 2.02-1.34 2.02-2-2-17.44-3.35-32.17-2-43.57l-2.02-2zm14.07-9.4l.67.68 3.35 41.55c0 2 0 2 2 2l1.35-2.68-1.34-26.12c3.35 6.02 7.37 9.37 11.4 11.38 2 0 2.67-.66 2.67-1.33l1.34-4.03 1.34-9.37v-1.35c3.38 4.03 7.4 5.37 11.4 6.7l2.7-2c1.34-7.38.67-14.75-2.7-22.78-.65-.67-1.32-1.35-3.33-.67l-.67 1.33v1.34c2 4.7 3.34 9.38 3.34 14.75v3.35a17.96 17.96 0 0 1-10.05-6.7l-2-4.7h-.7v-.67c0-1.33 0-1.33-2-1.33l-1.35 2 .67 10.73-.67 9.38c-4.02-1.32-7.37-6-10.05-12.03l-3.34-10.05c0-1.33 0-1.33-2-1.33-1.35 0-2.02 1.33-2.02 2z"/><path d="M130.68 259l-3.35.66c-.67 1.34-.67 1.34.67 2.68l5.36 4.7a31.3 31.3 0 0 1 8.04 13.4c0 1.34.67 2 2.68 1.34.67-.68 1.34-.68.67-2.7a40.27 40.27 0 0 0-8.04-14.73l-6-5.35z"/><path d="M128.67 311.26l5.36-.68c3.35-2.68 6.7-8.7 8.04-17.42l1.34-15.4-2-2.02c-1.32 0-2 .67-2 2l-1.33 15.42c-1.34 8.04-4.02 12.07-6.03 14.07h-1.34l-2.7-2.68c-.66-.67-1.33-1.34-2.67-.67s-1.34 1.35-1.34 2.02l1.32 2.68 3.35 2.68zM126 276.4c.66-1.32 0-2-2.02-2-.67 0-2 0-2 1.35l-3.36 25.45c-1.34 7.38-3.35 11.4-4.7 11.4l-2.67-.67-1.34-4.03-2-2.67c-1.32 0-2 .67-2 2.67l.67 2.68c0 2.02.68 4.02 2.02 4.7l6.02 2c3.36-.67 6.04-6.02 8.7-16.08l2.7-24.8zm-17.43 0c0-.65 0-2-2-2-1.35 0-2.02 1.35-2.7 2l-3.34 30.16c-1.34 8.72-2.68 13.4-4.03 14.07h-2.67a17.9 17.9 0 0 1-2-8.7l-2.03-2.02c-2 0-2.68.7-2 2.05 0 6.02 1.34 9.37 4.02 11.38 1.33 1.35 3.35 1.35 5.35 1.35 5.37-1.34 9.4-17.42 11.4-48.24zm-41.54 33.5l2 4.7 4.03 3.35c2.68 1.35 5.36 0 7.37-3.35 3.35-4.7 6.7-12.06 8.04-21.44l2-13.4-1.33-2c-2 0-2 .67-2 2L85.1 292.5c-2 8.7-4.7 15.4-8.04 19.43l-2 2.67-3.36-4.02-2-2.67-2.7 2zm213.07-39.52c.66-1.33.66-2-.68-2.68-24.12-20.1-42.88-32.16-56.95-37.52-.67-.67-2 0-2 .67-.68 1.34 0 2.68.66 3.35 14.07 4.7 32.83 16.75 56.28 36.86l2.7-.68zm-65-19.43c-.67 0-1.34 0-2.68 1.35 0 .66 0 2 2 2 8.05 3.35 19.44 10.73 32.84 22.1 1.34 1.35 2 1.35 3.35 0 .7-1.32.7-2-.64-3.34-14.07-11.38-25.46-18.76-34.84-22.1zm-9.38 13.4c-.67-.67-2 0-2 1.34-1.35.64-.68 2 .66 2l15.4 11.4h2.7v-2.7l-16.76-12.07z"/><path d="M183.6 250.95c-1.33 0-2 0-2.67 1.35 0 .66 0 2 .67 2l16.75 8.04c10.05 4.02 16.75 6.7 20.1 5.36 3.35 0 5.36-2 6.7-3.35l1.34-5.36-.7-2.04-2-1.33-2 2 .65 1.35-.67 2.67-3.36 2.67c-4.7.68-16.75-3.35-34.84-13.4zm45.57-13.4c4.7 4.7 6.03 8.04 5.36 10.73-4.02 1.33-16.08-1.35-35.5-8.72-1.35 0-2.02 0-2.7 1.34-.66 1.34 0 2 1.35 2.68 20.77 7.37 33.5 10.05 37.52 8.7l2.68-2.67c.67-2 .67-4-1.34-8l-4.02-6.04-2-1.34c-1.35 1.35-1.35 2-1.35 3.36zm-4.02-13.4l-14.74-5.36c-1.3 0-2 0-2 1.3-1.32 1.36-.65 2 .7 2.7l15.4 4.7 21.44 4.7c2.68 0 5.36-1.36 6.03-3.37 2-2.68.67-6.03-1.34-10.05l-2.67-1.36c-2 .68-2 1.34-.67 3.35 1.33 2.67 2 4.7 1.33 6.7l-2.68.67-20.77-4.03zm-22.78 72.35l-1.34-2-7.37 42.22 1.34 2 2.68-1.34 7.37-42.2-2.68 1.33zm6.03 22.13c-.67 0-1.34.67-1.34 2l-2 10.05-2.7 14.08c0 1.34 0 2.67 2.02 3.35.67 0 2 0 2.68-2l2-14.72 1.35-10.73c.7-1.33 0-2-2-2zm10.05 18.07c-.67-.65-2 0-2.68 1.36l-2 13.4c-.68.67 0 1.34 1.33 2l2.68-2 2.68-12.73c0-1.35 0-2.02-2-2.02zm-49.58-2c0-1.34-.67-2-2-1.34-2.02.67-2.02 1.35-2.02 2.02l1.34 9.38c.64 7.37-.7 14.74-2.7 23.45 0 .7 0 1.37 1.33 2.04l2.68-2c2-8.05 3.36-16.76 2.7-24.14l-1.34-9.38zm12.73 10.73c-.67 0-1.34.67-2 2l-1.35 11.4-3.35 19.43c0 1.34 0 2.67 1.34 2.67 1.34.68 2 0 2-1.33l4.03-20.1 1.34-11.4c.7-1.34 0-2.67-2-2.67zm12.73 16.07c-2 0-2.68 0-2.68 1.35l-.67 10.05-4.02 16.08c0 .67 0 2 1.34 2.68.67 0 2 0 2.68-2l3.35-15.43 1.34-10.05c0-2-.67-2.67-1.34-2.67zm8.7 16.76c-1.33 0-2 0-2 1.34l-.67 8.7-2.68 14.08c-.67 2 0 2.68.67 2.68 1.34.67 2.68 0 2.68-.68l3.35-16.07.67-8.7-2-1.32z"/><path fill="#858585" d="M128 165.2c19.43-15.42 32.16-35.52 38.86-60.3 8.7-32.84 6.7-69.7-8.7-110.56-12.74 2.68-24.8 8.03-38.2 15.4-26.8 14.75-42.88 33.5-48.24 55.62-4.7 21.44-4.7 52.93 0 95.14l6.03 66.33c3.35-6.03 8.04-13.4 14.07-21.44 11.4-16.78 23.45-30.18 36.18-40.2z"/><path d="M166.86-.3l-3.35.67c-12.7 14.07-26.1 34.17-39.5 58.95-26.8 48.92-42.2 100.5-46.9 153.44l2.68 3.35c2.02 0 2.7-.64 2.7-2 4.68-52.9 20.1-103.83 46.22-152.1 12.72-24.1 26.12-43.52 38.85-57.6.67-2 .67-3.34-.67-4.7zm-13.4 2.67c-.67-1.33-2-1.33-2.68-1.33l-27.47 13.4c-18.73 10.72-31.46 20.1-38.83 27.47-.67 1.37-.67 2.04.67 2.7h2.68c6.7-7.36 19.44-16.74 38.2-26.8 9.38-4.7 18.1-9.4 26.13-12.72 1.34-.67 2-1.34 1.34-2.7z"/><path d="M153.46 19.12c-.67-1.33-2-2-2.68-1.33-9.38 4.65-19.43 10.7-30.15 18.05-22.1 14.08-38.86 29.5-50.25 44.9-.67 1.34-.67 2.68 0 2.68 1.34 1.34 2.68.67 3.35 0 10.72-15.4 26.8-30.15 48.9-44.9 11.4-6.7 20.78-12.72 29.5-16.74 1.33-.67 2-2 1.33-2.7zm-19.43 28.82h-2.68A236.1 236.1 0 0 0 109.9 66.7c-16.07 15.4-28.8 28.8-36.85 40.87-1.33.67-1.33 2 .68 2.68.67 1.34 1.34 1.34 2.67 0 12.74-19.43 32.17-38.86 57.63-58.96V47.9zm-22.1 43.56h-2.7c-19.42 24.1-32.15 43.54-38.85 58.28 0 1.34 0 2 1.34 2.68 1.34.67 2 0 3.35-.67 5.36-14.77 18.1-33.5 36.85-56.98 1.34-1.34 1.34-2.68 0-3.35zM74.4 171.23c-.67.66-.67 2 .67 2.67h2.68l14.07-22.1h-2c-1.35 0-1.35-1.35 0-1.35L74.4 171.23zM162.84 6.4c-.67-1.34-1.34-1.34-2.68-1.34-1.34.66-1.34 1.34-1.34 2.68l4.7 19.43c2 16.08 2 33.5 1.33 50.92l2 2.65 1.35-2c2.68-28.82.67-52.95-5.36-72.37z"/><path d="M148.77 26.5c-.67-2-1.34-2-2-2-1.35 0-2.02.66-2.02 2 4.7 38.2 6.03 69 3.35 93.13l1.34 2c2 0 2 0 2-1.33 3.36-24.8 2.02-55.6-2.67-93.8zm-15.4 30.15c0-2-.68-2-2.7-2-.66 0-1.33.66-1.33 2 4.02 37.52 4.7 65 2.68 83.75 0 1.34 0 2 2 2l1.35-2c2.68-18.76 2-46.9-2-83.75zm-18.1 31.5a2.88 2.88 0 0 0-2.68-2.7c-.7.68-2.04 1.35-2.04 2.7l3.35 26.8c1.35 18.75 2 33.5 1.35 43.54 0 .64 0 2 2 2l1.35-2c1.35-10.08.68-24.8-1.33-43.58l-2-26.8zM98.52 131.7c0-2.02-1.34-2.7-2-2.02-2.02 0-2.7.67-2.02 2l2.68 18.77 2.68 30.15 1.34 2c.67 0 2-.66 2.68-2l-2.68-30.15-2.68-18.76zM83.78 5.06c-.67-.67-2-.67-3.35.66-10.73 18.1-20.78 39.54-31.5 64.33-20.1 50.25-30.8 93.13-30.14 130.65 0 21.44 1.3 41.55 4 59.63.65 10.72 4 24.13 7.35 40.88 6.03 24.8 8.05 46.25 8.72 65 .65 29.5-2.02 60.3-7.38 93.8-4.7 29.5-10.74 54.3-16.76 73.05-1.35 1.34-.68 2.68 1.33 3.36 2.02 0 3.35 0 3.35-2.02 6.7-18.76 12.74-42.88 17.43-73.03 4.7-33.5 8.04-65.66 7.37-95.14-.67-18.76-2.68-40.86-8.7-65.66l-7.38-40.87c-2.68-17.42-4.02-37.52-4.7-58.96 0-36.84 10.06-79.72 30.16-128.63 10.73-24.12 20.78-45.56 31.5-63 .67-1.32.67-2.66-1.34-4z"/><path d="M40.23 326l-3.35-.67c-.68 0-.68 1.33-.68 2.68l7.38 14.1 14.74 36.18c0 1.34 1.34 2 2 1.34 1.35 0 2.02-1.33 1.35-2a249.18 249.18 0 0 0-14.74-36.86L40.23 326zM77.75 19.12l-2.68-1.33-1.34 2c3.35 18.1 3.35 32.14 1.34 41.52 0 .67 0 2 2 2l2.02-2c2-9.38 1.3-23.45-1.37-42.22zm-16.08 33.5c0-1.33-1.34-2-2.02-1.33-1.33 0-2.67 0-2.67 1.3 3.35 34.18 4.7 60.98 2.68 81.08 0 1.33.67 2 2 2l2.02-2c1.34-20.1.67-46.9-2-81.08zM44.25 94.85l-2.68-2.02c-.67 0-1.34.68-1.34 2.02l2.67 27.47 2.02 46.9c0 1.36 1.33 2.7 2 2.7l2.7-2.7-2.7-47.55-2.67-26.8zM31.52 138.4l-2.02 1.33-2.68-1.34 18.1 87.74c0 1.34 1.33 2.02 2 1.34 1.35 0 2.02 0 1.35-2l-16.75-87.1zm-8.04 54.93C22.8 192 22.14 192 20.8 192c-1.35 0-1.35 1.33-1.35 2l9.4 33.5c7.35 23.45 12.72 40.2 16.07 50.25 1.33 1.35 2 1.35 3.35 1.35 1.34-.67 1.34-1.35 1.34-3.35-4.66-9.4-10.02-26.14-16.72-49.6l-9.38-32.82zm6.02 81.07l-2.68-1.34c-1.33 1.34-1.33 2.02-.67 2.7l14.07 22.77 14.75 24.12 2.68.66c1.34-.63 2-2 .67-2.65l-14.75-24.78L29.5 274.4zm14.08 87.78c-.68-.67-2-1.35-2.68-.67-1.35 0-1.35.7-1.35 2l7.38 30.85 10.05 43.55 2 1.34c1.35 0 2.02-.67 1.35-1.35-.68-8.05-3.35-22.8-8.7-43.57l-8.05-32.15zm-3.35 62.98c0-2-1.34-2-2-2-1.35.66-2.03 2-1.35 2.67l3.34 12.06 4.7 20.74 2 1.34 1.35-2.03-4.7-20.76-3.34-12.06zm-5.36 42.88c-.67-2-1.34-2-2.68-1.34-2.05.67-2.05 2-2.05 2.68l3.35 7.37 2.7 13.4 2 2 2-2-3.33-14.07-2-8.04zm6.7-121.94c-1.34-1.34-2.02-.67-2.68 1.33l-9.4 19.44a1185.4 1185.4 0 0 0-14.75 33.5c0 1.34 0 2 1.33 2.68 1.34 0 2.7 0 2.7-1.34l14.72-33.5 9.37-19.4c0-1.35 0-2.7-1.34-2.7zm0 52.26H38.9l-8.72 13.4c-5.36 11.4-10.73 22.77-15.4 32.82 0 .68.66 1.35 1.32 2.7.67.65 2.02-.68 2.7-1.35l15.4-31.5 8.04-13.4c1.34-2 .66-2.67-.67-2.67zm-4.7-84.43c-1.33-1.33-2-1.33-2.7.68l-9.35 20.8c-7.37 16.08-12.07 27.47-14.75 36.85 0 1.34 0 2.68 2.02 2.68l2-1.33c2.65-8.7 7.35-21.45 14.05-36.2l10.05-21.43c0-1.34 0-2.02-1.33-2.02zM46.93 85.46c0-1.34-1.33-2-2.67-.67C23.48 96.15 8.76 106.9.02 115.6c-.67 1.35-.67 1.35 0 2.7 1.35.66 2.02.66 3.35 0 4.7-6.04 13.4-12.74 25.47-20.1l17.4-10.06c1.36 0 2.03-1.34.68-2.68z"/><path d="M63 48.6c-.66-1.33-1.33-2-2.67-.66-21.44 8.7-38.86 18.76-53.6 31.48-1.34.68-1.34 2.02-.68 2.7.67 1.33 2.02 1.33 3.35 0C23.48 70.04 40.9 60 61.67 51.28L63 48.6zm17.43-34.16c-.67-1.34-2-1.34-2.68-1.34C60.33 17.8 42.9 25.82 25.5 36.55L4.7 51.95c-1.33 1.35-1.33 2.02 0 2.7 1.35 1.33 2.02 1.33 2.7 0 5.35-4.03 12.05-9.4 20.1-14.75 17.42-10.73 34.17-18.1 50.92-22.1 2-.68 2-2.03 2-3.36zM237.88-9c-2-.68-2.68 0-4.02 1.32-6.7 12.74-13.4 29.5-19.43 50.93a381.57 381.57 0 0 0-16.08 128.64c0 2 .67 2 2.68 2a2.88 2.88 0 0 0 2.68-2.7c-2-42.88 3.38-84.4 15.44-126.63 6.03-20.1 12.73-36.86 19.43-50.26.67-1.33.67-2-.67-3.34z"/><path d="M235.2-1.64c-.67-.67-1.34-1.34-3.35-.67-.67.64-1.34 1.3 0 3.32 7.37 16.75 12.06 34.17 12.73 52.26 0 1.33.67 2 1.34 2l2.68-2c-.67-18.77-5.36-37.54-13.4-54.95z"/><path d="M235.2-1.64l-3.35-.67c-3.35 2-10.05 6.7-19.43 14.7-14.07 12.07-24.12 22.8-30.82 34.2-.67 1.32-.67 2 .67 2.65l2.68-.66c6.7-10.7 16.75-22.1 30.15-33.5l19.43-14.07c.67 0 .67-1.34.67-2.68zm-10.05 24.1c0-1.32-.67-1.32-2.68-1.32-.67 0-1.34 1.33-.67 2.68 9.38 31.5 12.73 58.95 10.05 81.07 0 1.3.67 2 2 2 1.35 0 2.02 0 2.02-2 2.68-22.15-.67-50.28-10.72-82.45zm-4.02 10.06c-.67-1.33-2-1.33-2.68 0-18.1 17.43-30.15 32.84-36.85 45.57 0 .64 0 2 1.34 2 1.34 1.32 2 1.32 2.68-.7 6.03-11.4 18.1-26.8 35.5-44.2 1.35-.67 1.35-2 0-2.7zm-11.4 37.53l-1.33.67c-3.35 2.68-8.7 9.38-16.08 19.43-10.05 15.4-16.75 30.82-20.77 45.56 0 2.05 0 2.7 2 2.7 1.35 0 2.02 0 2.02-1.33 3.35-13.4 9.38-26.13 16.75-38.86 6.03-9.4 11.4-16.75 16.75-22.8 6.7 14.76 10.05 26.8 10.05 34.86l2.68 1.34 2-2.03c-.66-7.37-2.67-15.4-6.02-24.8l-6.7-13.4-1.34-1.33z"/><path d="M203.7 116.95l-2.67.67c-9.38 10.72-16.08 24.12-19.43 40.2-.67.67 0 2 .67 2.68 1.34 0 2.68 0 2.68-2 4.02-15.42 10.05-28.15 18.76-38.2.7-1.34.7-2 0-3.35z"/><path d="M204.38 113.6c0-.67-1.34-1.34-2.68-.67s-1.34 1.34-.67 2.68l4.7 14.77 6.02 23.45c0 2 0 2 2 2l1.35-2-5.36-23.44-5.36-16.75z"/><path fill="none" stroke="#000" stroke-width="3" stroke-miterlimit="100" d="M370.6 585.26H3.9V2.74h366.7v582.52z"/><path stroke-miterlimit="100" d="M367 582H5V5h362v577z" fill="none" stroke="#000" stroke-width="10"/></svg>