<svg xmlns="http://www.w3.org/2000/svg" width="372" height="587" viewBox="0 0 372 587"><path fill="#fff" d="M0 0h372v587H0z"/><path fill="#84B5DA" d="M287.42 310.45c4.66-.67 7.98 0 7.98 2.65s-1.34 7.3-5.32 14.6c-4.64 8.64-5.98 14.6-5.3 18.6.66 4.64 4.64 10.62 13.27 17.92l16.6 17.25c2.64 4.65.66 10.62-5.98 18.6-6.64 9.3-9.3 17.26-6.64 25.9 2.65 7.3 8.62 13.26 19.25 16.58l39.16 2.65-3.32-25.22c-19.24 3.32-29.2 2.65-30.53-2-.7-1.98 2-7.3 6.6-13.93 5.3-7.97 8.64-15.27 9.3-22.57 1.33-7.96-3.3-15.27-11.95-23.9l-16.6-14.6c-1.32-2.65 1.34-6.64 5.98-13.28 5.98-7.97 9.96-16.6 11.3-24.56.66-9.3-4-15.94-13.95-19.92l-15.94-2-193.84 7.32c-7.3.66-10.62 3.98-9.3 9.96l5.32 18.57c1.32 4.66-1.33 7.98-5.98 9.96l-18.6 2.66c-8.6 1.3-32.5 1.3-70.35.63l-5.3 23.9c62.4 1.33 100.9.67 114.83-2 8.63-1.32 13.94-5.97 15.27-11.94 1.33-4.65.67-9.3-1.32-16.6-.68-4.64 1.32-7.96 7.3-9.96l30.53-3.32 117.5-1.98z"/><path fill="#6FC7E6" d="M338.54 306.46l.66-3.3c0-6.65-2-12.62-6.63-17.28-6.64-7.3-17.26-11.28-31.87-11.28l-193.84 7.96c-6.64.67-11.95 3.32-15.27 7.98-1.35 2.65-2.68 5.3-2.68 8.62 0 3.98 1.33 8.63 4.64 15.27l2 6.64-17.27 2c-9.95 1.32-33.2 1.32-69.7.66H1.97l-9.3 40.5 126.8-1.34c9.3-2.68 15.94-6.67 19.26-12.64a22.46 22.46 0 0 0 3.98-13.27l-2.65-12.6 30.54-4 114.86-1.33-2.66 4.65c-4.66 8.62-7.3 15.26-7.3 20.58 0 7.98 5.96 16.6 16.6 26.57l5.96 5.3 9.3 9.97-5.32 9.3c-6.63 7.96-9.3 16.58-9.3 23.9l1.33 9.28c3.98 10.63 11.95 17.94 24.57 21.92 15.93 5.3 29.87 5.98 43.8 2.66l7.3-1.34-5.97-41.8-27.2 3.3 1.98-3.3c7.3-10.64 11.28-19.93 11.94-27.23l.65-3.3c0-6.65-2.65-13.3-7.97-19.93l-20.58-19.25 2.66-3.3c7.97-10.64 12.62-20.6 13.28-30.56zm-37.18-15.26c9.3 0 15.93 2 19.25 5.97 1.37 2 2 3.98 2 7.3-.63 6.64-3.95 14.6-10.6 21.9l-6 9.3c-1.3 3.32-1.3 6.64 0 10.62 1.35 2.62 5.34 6.6 11.98 11.92l11.3 10.62c3.96 3.98 5.96 7.97 5.3 11.3-.67 5.96-4 13.27-9.3 20.57-5.97 8.64-7.97 14.6-6.63 19.26 1.98 9.3 12.6 11.94 31.2 9.3l1.32 9.28-27.22-3.32C315.97 432.6 312 428.6 310 423.3c-1.33-4.65.65-10.62 5.3-17.93 7.3-9.3 9.96-17.92 8.63-24.56-2-4.6-6.64-10.6-15.26-17.22l-5.32-4.66c-6.64-5.96-10.62-10.6-11.28-13.26 0-2.66 1.98-6.64 5.3-13.28l5.32-13.28c1.96-4.64 1.3-8.62-.7-11.94-3.3-3.98-7.97-5.97-15.26-4.65l-116.84 1.34-29.86 2.65c-6.64 2-11.3 4.63-13.28 7.96-3.32 4.64-3.98 8.62-2.65 13.27 2 6.65 2.67 11.96.68 13.95-1.33 2-4.64 3.98-8.63 4.65-11.3 2.65-45.8 3.3-102.9 1.32l2-7.3c33.85.66 55.1.66 65.05-.67L99.54 337a18.95 18.95 0 0 0 9.97-6.63 12.82 12.82 0 0 0 2.66-7.98l-.67-6-5.98-16.6 3.32-.67 192.5-7.95z"/><path d="M301.36 285.22l9.3 1.33c6.63.67 11.3 3.32 14.6 6.64 3.32 2.62 4 6.6 3.32 11.92-.66 7.97-4.65 17.26-11.3 25.23-5.3 5.97-6.63 9.95-5.3 12.6.67 2.66 4 5.98 9.96 9.96l13.28 13.3c3.98 4.64 5.97 9.96 5.3 15.26-1.32 5.98-4.64 13.94-9.95 22.58-4.65 7.3-6.64 11.95-5.97 14.6 1.32 5.98 11.28 7.3 30.54 3.98l3.3 20.6-36.5-2.67C312 437.9 306 432.6 304 425.3c-1.97-7.3 0-15.27 6.65-23.9 5.32-7.97 7.97-13.95 6.64-18.6-1.35-3.3-5.3-8.62-12.64-14.6l-5.97-5.3c-7.3-6.65-11.3-12.62-12.6-17.27-.68-3.32 1.3-9.3 5.96-16.6 4.64-9.3 6.64-15.26 4.64-18.58-1.3-1.34-4.62-2.66-9.27-2l-117.5 1.33c-21.9.67-34.52 4-38.5 9.3-1.33 1.33-2 3.98-1.33 7.3 1.98 7.97 1.98 14.6 0 18.6-2 3.97-6.65 5.96-13.28 7.95l-41.16 2c-.67 0-2 .65-2 2 0 1.3 1.33 1.97 2 1.97l42.48-2.65c7.3-1.33 11.95-3.98 15.27-9.3 2.7-4.64 3.35-12.6.7-21.9-.67-2-.67-2.66.65-3.98 3.32-4.65 14.62-6.64 35.2-7.3l118.15-1.33 5.3.67c.67 2.67-1.3 6.66-4.64 13.97-5.3 8.62-7.3 15.26-6.64 19.9 1.34 5.32 5.98 11.95 13.95 19.26l5.98 4.66c6.64 5.96 10.62 10.6 11.94 12.6.65 3.32-2 8.62-6.66 15.93-7.96 9.3-9.96 18.6-6.64 27.22 2 8.63 8.64 14.6 20.6 17.92 13.93 4.65 27.2 5.32 39.15 2.66l2-2-3.32-25.88-.67-.67-1.33-.66-18.58 2c-6.64 0-9.96-.67-9.96-2.66 0-1.33 1.3-4.65 5.3-10.62 5.96-9.3 9.94-17.26 10.6-24.56a23.3 23.3 0 0 0-5.95-18.58l-23.23-21.9c0-2 .67-4.65 4.65-8.64l7.97-10.62c2.65-5.3 3.98-11.28 4.64-16.6 1.32-5.97-.67-11.28-4-15.93a35.33 35.33 0 0 0-16.6-7.97l-10.6-.66-194.5 7.96c-4.66 0-7.98 1.34-9.97 4.66-2 3.3-1.32 9.3 2 19.24l2.66 6.64v4.65c-1.33 1.98-6.64 3.3-16.6 4.63l-5.97.67c-1.33 0-2 .67-2 2 0 1.32.67 2 2 2l17.92-2.67 7.97-4.65c1.32-2 1.32-4.64.65-7.96l-2.65-7.28c-2.65-7.97-4-12.62-2.65-15.28 1.33-1.98 4-2.65 7.96-2.65l193.2-7.98z"/><path d="M298.7 299.16c6.65 0 11.95 2 13.95 5.3 1.32 2 2 3.33 1.32 6L300.03 335c-2 5.32-2.65 10.63-1.32 14.6 2 3.33 6.67 8.64 15.3 14.62l10.62 8.62c2.66 3.32 4 6.64 3.33 9.96l-13.28 29.88c-2 4.64-2 9.28 0 13.27 2.65 5.3 10.63 8.63 23.23 9.96l21.25-1.3 1.32-2c0-2-.66-2.64-1.98-2l-21.9.68c-10.64-1.32-15.96-3.32-17.94-7.3-2-3.32-2-6.64-.67-10.62l5.96-11.3c4.66-7.95 7.3-13.93 7.98-18.57.67-4-.66-7.98-3.98-12.63L316 360.9c-7.3-5.3-11.96-9.95-13.28-13.27-1.33-4.65 1.32-13.27 8.63-24.56l5.97-11.3c1.33-3.97.66-7.3-1.32-9.28-3.32-4.67-8.64-6.66-17.26-8-4-.64-33.86-.64-89.62 1.35-59.75 1.33-90.95 3.98-94.27 7.97-2.65 2.66-2.65 5.3-2.65 7.3s.66 3.33 2.65 6.65c2 5.3 3.32 8.63 2.66 11.95l-4 7.96-13.25 2.65-25.24 1.3c-1.3.66-2.64 1.32-2.64 2L75 345.6l25.9-1.32 15.28-3.32c2.65-1.33 4.64-5.3 5.3-11.28.67-3.32-.66-8.63-3.32-13.95l-2.65-5.3c0-1.34.68-2.66 2-4 3.3-3.3 32.53-5.3 87.63-6.63 51.1-2 82.3-2 93.6-.66zM38.5 333.02l-2.67-2.65H8.6l-2.64 1.98-4.65 23.23.7 1.34.66 1.32 39.83.66 2-1.98-2-2-36.5-.66 3.96-19.9h25.9l2.65-1.34z"/><path d="M5.96 342.98l2 2-2 1.98 29.87-.66c1.33 0 1.33 0 1.33-2l-2-1.33H5.96z"/><path fill="#858585" d="M182.54 95.36c3.98-25.23-.66-47.8-14.6-66.38C152 6.4 131.4-2.22 106.84 2.43c-24.55 3.98-38.5 16.6-44.47 38.5A448.33 448.33 0 0 0 43.13 94.7c-12.6 41.16-17.92 77-16.6 107.54 2.66 49.13 5.32 81 8.64 97.58 5.3 31.2 15.27 54.44 30.53 69.7l-2-55.1c0-39.82 1.34-67.7 5.32-85.63a353.9 353.9 0 0 1 17.93-55.1l11.28-23.26-9.3 43.82c-4.64 33.85-1.98 62.4 7.98 85.63 6.66-16.6 16.6-30.54 27.24-43.15 24.56-26.55 31.2-74.35 21.9-144.05l9.97 9.97c7.3 8.64 13.28 17.26 16.6 25.9 4.64-9.3 7.96-19.92 9.95-33.2z"/><path d="M171.25 88.73c-4.64-20.58-11.94-36.5-21.9-46.47-10.62-11.3-25.9-16.6-46.47-15.93l-29.2 3.98-1.34 2V35l9.96 17.26c3.98 13.93 3.32 29.2-2 45.14L77 107.3c-13.95 37.85-23.24 71.04-27.23 99.6-7.3 51.77-3.98 103.55 10.62 153.34 0 1.98 1.3 2.65 3.3 1.98l1.32-2.65v-.67a358.36 358.36 0 0 1-13.94-98.24c0-29.2 3.97-59.08 11.27-90.28a597.38 597.38 0 0 1 19.25-61.74l3.32-9.3c3.32-9.3 5.32-18.58 5.32-27.87 0-13.95-4-26.55-11.3-36.5l30.55-2.67c15.93 0 27.2 4.64 35.84 13.28 9.96 9.95 16.6 25.22 20.58 45.14l3.32 27.88c0 2 1.33 2.66 3.32 2.66l1.33-.67.66-2c0-9.3-1.32-19.27-3.32-29.9z"/><path d="M100.22 26.98c-1.32-1.32-2.65-.66-3.3.67-1.34 2-.68 2.66.65 4l5.97 4.63c5.3 4.65 9.3 9.96 13.28 16.6 11.28 21.24 15.27 47.13 11.28 79-1.32 13.94-6.64 31.86-14.6 52.44-4.65 13.94-8.63 25.9-11.3 35.18-3.97 15.27-6.63 31.2-8.62 48.46 0 1.32 1.33 2 2.66 2.66 2 0 2.65-.67 2.65-2.66 2-16.6 4.62-32.53 7.94-46.47l20.58-60.4 5.3-28.58c4.66-33.86.68-61.07-11.28-82.32L107.5 32.3c-2.64-2.66-5.3-4.65-7.3-5.3zM85.62 70.8c-6.64 7.97-14.6 16.6-21.9 26.56-15.28 19.9-25.23 37.84-30.54 54.43-.67 1.3 0 1.96 1.33 2.63 1.35.66 2.68 0 2.68-1.33 4.64-15.92 14.6-34.5 29.87-54.43 7.97-9.95 14.6-17.92 21.9-25.23 1.34-1.32 1.34-1.32 0-2.65-1.32-1.35-1.98-1.35-3.3 0zm-7.3 33.86a375.68 375.68 0 0 0-19.25 25.9c-13.28 20.57-22.57 39.82-28.55 58.4 0 2 0 2.66 2 2.66l2-1.33c5.3-18.6 14.6-37.87 27.87-57.78L81.6 107.3c.66-1.33.66-2-.66-2.65-.67-.67-2-.67-2.66 0zm-19.26 61.07L45.8 185.65c-8.64 14.6-13.95 27.88-15.94 40.5l2 1.98 1.98-1.33c2-11.94 7.3-25.22 15.27-39.83l13.3-18.58-.66-3.35-2.66.66zm-8.62 45.15c-2 3.98-4.65 10.6-8.63 21.23-5.3 15.97-7.94 28.58-9.3 39.2 0 .66 0 2 1.36 2l2-2c1.32-9.96 4.64-23.23 9.95-37.84l7.97-21.24c0-.65 0-2-1.33-2-.67-.65-2 0-2 .7zm-3.32 59.07l-4.65 15.27c-3.32 11.95-5.3 21.24-5.3 27.88 0 1.33 1.32 2.65 1.98 2.65l2-2.65c0-6.64 1.32-15.27 4.64-26.55l4.62-15.27c0-1.33 0-2.66-1.33-3.32-.67 0-2 0-2 2zm7.96 49.8c.67-2 0-2.66-1.32-3.33-.67 0-1.33 0-2 1.33l-3.32 7.96c-2 6.67-3.32 11.3-3.32 16.6 0 1.36.67 2 2 2l2-1.3c0-5.3 1.32-9.96 3.3-15.93l2.66-7.3z"/><path d="M80.3 46.24c0 .66 0 2 2 2.66l12.6 7.96c7.98 9.3 13.28 23.23 14.62 41.82 0 2 .66 2 2.65 2l1.33-2c-1.33-19.9-7.3-35.85-16.6-45.14l-13.94-9.3c-1.32 0-2.65 1.34-2.65 2zm5.32 33.2c-1.33 1.32-2 2.65-.67 3.3l7.3 15.95c4.65 13.24 6.64 26.52 6.64 41.8 0 1.32.64 1.32 2 1.32l1.3-1.33c0-15.27-2-29.88-6.65-43.15l-7.3-16.6-2.65-1.33zM77 111.3c-1.34.66-2 1.32-1.34 2.65l3.32 15.93c2.65 13.28 3.32 26.55 3.98 40.5 0 1.33.67 1.33 2 1.33l2-1.3c0-22.57-3.33-41.82-7.98-57.76 0-1.32-1.33-2-2-1.32zm-13.3 39.16c-1.32.67-1.32 1.33-1.32 2.65l3.32 13.98 3.32 31.2c0 1.32.67 2 2 2 1.32 0 2-.68 1.32-2 0-9.96-.66-21.25-3.32-31.87l-3.32-14.6c0-1.33 0-1.33-2-1.33zM51.76 204.9c-1.32.66-2 2-1.32 3.32l3.32 8.62 5.97 23.9 2.66 1.33 1.3-2-5.98-24.55-3.98-9.3c0-1.32-1.33-1.32-2-1.32zm-4.64 55.76c-1.33.66-1.33 2 0 2.65l6.64 8c5.3 6.64 8.63 13.94 11.94 21.24 0 .67 1.33.67 2.66.67.66 0 .66-1.33.66-2.65-3.32-7.3-6.63-14.62-11.94-21.25l-7.3-8.65c-.67-.67-1.34-.67-2.66 0zm3.32 49.8c0 1.3 0 2.64 1.32 2.64.67 0 3.32 1.33 5.98 4a28.23 28.23 0 0 1 9.3 15.25c.66.67 1.98 1.34 2.65.67 1.3 0 1.96-.67 1.3-2-2-7.3-5.98-12.6-10.63-17.25l-7.97-4c-.66-.66-2 0-2 .68zm79.66-218.4c-13.94 19.24-23.24 38.5-27.22 58.4-.67 1.33 0 2 2 2 .65.66 1.98 0 1.98-.67 2.66-12.64 7.96-25.9 15.27-39.86l10.63-17.26c1.32-.67.66-2-.67-2.66h-2zm-2 46.44l-15.93 16.6c-10.62 11.96-17.26 20.6-20.58 26.56-.7.66 0 2 .64 2.66 1.33.66 2.65 0 2.65-.67 2.66-5.3 9.96-14.6 20.6-25.88l15.25-15.94c1.33-1.33 1.33-2.65 0-3.32-.66-1.3-2-1.3-2.66 0zm-10.62 38.52l-12.6 11.28c-8.64 7.96-14.6 15.27-16.6 20.58-1.33 1.33-.67 2.66.66 2.66 1.33.66 2.65 0 2.65-1.33 2-5.3 7.94-11.92 16.6-19.9l11.92-9.94c.66-.67 1.32-2 0-3.32h-2.66zm-12.6 37.83l-9.3 9.96c-6.64 7.3-9.96 13.97-11.3 20.6l1.33 2.67c2 0 2.67-1.33 2.67-2 .67-5.97 4-12.6 10.62-19.25 4.63-6.63 7.3-9.3 7.95-9.3l.66-2.64c-.65-1.32-2-1.32-2.64 0zM137.4 3.1c-8.63 2.65-17.26 7.3-23.9 14.6l-8.63 9.95c-1.33 1.33-.66 2 .66 3.32l2.65-.67 7.98-9.95C122.8 13.7 130.1 9.07 138.73 6.4c1.32 0 1.32-.65 1.32-2.65-.66-.66-1.32-1.32-2.65-.66zm21.9 9.3a99.58 99.58 0 0 0-27.88 9.94l-11.28 6.64c-1.33.66-1.33 1.32 0 3.32h2l10.62-6.64c9.3-4.64 17.9-7.96 27.2-9.95l2-2.63c-.67-.66-2-1.33-2.65-.66zm-22.56 21.9c-1.33 0-1.33 1.32-1.33 2.64.7 1.34 1.36 2 2.68 1.34l11.95-2 25.9 1.33c.67.7 2 0 2.66-1.3 0-.66 0-2-2-2l-26.6-2-13.25 2zm14.6 16.6c0 1.32.66 1.98 1.33 1.98l11.28 2.65c7.97 2.66 14.6 6.64 18.6 10.62 1.3 1.33 1.97 1.33 3.3 0 .67-.66.67-2 0-2-5.3-5.3-11.94-9.28-20.57-11.93l-11.95-3.32c-.66 0-2 .66-2 2zm9.96 17.9c-1.33.67-.67 2 .66 2l10.63 9.3c5.3 5.3 7.3 8.63 7.93 12.6l2 2 1.98-2.65c0-4.65-3.3-9.96-9.95-16.6l-11.28-7.97c-.67-.67-1.34 0-2 1.33z"/><path d="M132.1 35.62l13.26 46.47c.67.63 1.33 1.3 2.65.63l1.37-2c-2.66-5.3-5.32-15.26-8.63-28.53l-4.65-17.92c0-1.34-.67-2-2.66-1.34-1.33 0-1.33.66-1.33 2.66zm29.2 33.18l-2.66 8.64c-2 6.64-2.65 14.6-2.65 23.24 0 1.32.63 2 1.95 2l2-2c0-7.97.66-15.27 2.66-21.9l2-8.65c.67-1.32 0-1.98-1.3-2.65-.68 0-2 0-2 1.33zm-32.53 16.6c-.67 1.33-.67 2 0 3.33l7.3 10.62c5.3 9.3 8.63 19.9 10.62 31.2l2.63 1.33c1.32 0 1.98-1.33 1.32-2-2-11.94-5.97-22.57-11.28-32.52l-7.3-11.3-3.33-.65zm1.33 45.15c-1.33.66-1.33 1.33-1.33 3.32l5.97 15.26c4.65 12.62 7.3 24.57 7.97 36.5 0 2 .7 2.67 2.68 2l1.33-2c-.66-11.93-4-24.54-7.96-37.16l-6.64-16.6c-.7-1.32-1.35-1.32-2-1.32zm-9.3 38.5c-1.32 0-2 1.33-1.32 2.66l4.64 16.6c3.32 12.64 4.65 23.26 4.65 33.2 0 1.34 0 2 1.33 2l2-2c.65-9.94-.68-21.23-3.33-33.84l-5.3-17.26c-.67-1.34-1.34-2-2.67-1.34zm-13.28 37.17l-1.32 2.66 3.32 11.28c2 8.63 2.65 17.27 2.65 25.9 0 2 0 2 1.33 2l2-1.34c.66-9.3 0-18.6-2-27.88l-3.32-11.28c-1.33-.67-1.33-2-2.66-1.34z"/><path fill="#858585" d="M132.1 530.18c-23.92 9.3-66.4 17.25-126.8 24.55l-.67 33.2H370.4v-82.98L335.22 497c-26.55-5.33-49.8-7.3-69.04-6-19.9 1.34-43.8 6.65-70.36 15.28l-63.73 23.9z"/><path d="M2.64 589.26l2 1.32H370.4a2.85 2.85 0 0 0 2.66-2.66v-82.97l-2-2-35.18-8.62c-27.2-5.3-50.44-7.3-69.7-5.98-17.92 1.34-38.5 5.3-62.4 13.27l-72.36 25.9c-23.9 8.63-65.72 17.26-126.13 23.9-2 0-2.68 1.33-2.68 3.3l-.67 33.2.67 1.34zm4.65-4l.63-28.53c58.42-7.3 100.23-15.27 124.8-23.9l15.27-5.97c25.24-9.96 44.5-16.6 57.77-20.58 22.56-6.64 43.15-11.3 60.4-12.62 29.22-1.32 62.4 2.66 100.9 13.28v78.33H7.27z"/><path d="M49.77 560.05L4.63 564.7c-1.33 0-2 .66-2 2l2.66 1.98 45.12-4c33.85-4.63 61.06-9.95 80.98-17.25l79.67-27.87c17.93-5.32 35.2-9.3 51.78-11.3 18.6-1.98 41.82 0 69.7 5.32l37.18 9.3c.66.66 2 0 2-1.34.66-1.32 0-1.98-1.34-1.98a572 572 0 0 0-37.2-9.96c-28.54-5.3-51.77-7.3-71.02-4.65-16.6 1.33-33.87 5.3-52.45 11.3l-79.66 27.2c-19.93 6.64-46.48 12.62-80.34 16.6z"/><path d="M156.65 548.1L45.12 585.94c-1.32 0-1.32.66-1.32 1.98 0 1.34 1.33 2 2 1.34l112.17-37.18c51.13-18.6 87.63-28.54 108.88-29.87l48.46 2.68c19.95 3.32 38.5 6.64 54.46 11.3l2-1.34c.66-1.33 0-2-1.34-2.65a300.96 300.96 0 0 0-55.1-10.64l-49.1-3.32c-21.25 1.34-57.76 11.3-109.54 29.88z"/><path d="M201.12 546.77c-22.56 7.3-54.43 18.6-94.26 33.2-1.33.65-1.33 1.3-.66 2.65.66 1.32 1.32 1.98 2.65 1.32 39.83-14.6 70.37-25.9 93.6-33.2 21.25-6.63 43.15-10.6 67.05-12.6 35.85-2 69.04 2.66 100.24 13.94.66.67 2 .67 2-.67.65-1.95 0-2.62-1.34-3.3-31.2-11.3-65.05-15.25-101.56-13.26a290.17 290.17 0 0 0-67.72 11.95z"/><path d="M152 577.97c-2 0-2 1.33-.66 2.65 0 .67 1.33 1.33 2 .67 19.25-8 42.48-14.6 69.03-19.95 53.77-11.28 100.24-9.96 140.07 2 1.32.66 2.66 0 2.66-.66 0-1.34 0-2.66-1.34-2.66-39.83-13.27-87.62-13.94-141.4-2.66-27.2 5.3-50.44 11.94-70.36 20.56z"/><path fill="#FCCE00" d="M110.18 406.7c.66 2.66-2 6.65-9.3 11.3 2 5.3 4.65 8.62 7.97 9.95l4.65-.67c5.98-7.96 7.96-14.6 6.64-19.9l-8.64-14.62-7.3-9.3 5.98 23.25z"/><path d="M103.54 380.8c-1.33.67-2 2-2 3.33l5.32 23.24-1.33 3.32-6.63 5.3c-.67 0-.67 1.3-.67 2.63 2 5.97 5.3 9.95 8.63 10.62l5.3 1.33 2.66-.67.67-.66 4.62-9.3c2.66-5.3 3.32-9.94 2.66-13.26-.68-3.3-3.33-7.97-8-14.6l-8.6-9.96c-.68-2-2-2-2.67-1.33zm14.6 27.23v1.33c0 3.98-1.98 9.3-5.97 15.93h-3.32l-4.64-6.67c6-3.32 8-7.96 8-11.28v-1.33l-2.66-11.95 8.62 13.93z"/><path fill="#FCCE00" d="M28.53 457.82c2 2.65 9.3 2.65 21.9.66 4.65-7.3 5.98-11.28 4.65-12.6l-3.98-.68c-5.98 3.32-10.62 4-13.28 4-2-1.34-7.96-9.97-15.93-26.57-.7 2.65 0 7.97 1.96 17.27 1.33 9.96 3.32 15.93 4.65 17.92z"/><path d="M57.08 443.88c-1.33-1.33-3.32-2-6.64-1.33-6.64 2.65-9.96 4-11.95 3.32-2-.67-6.67-9.3-14.64-23.9 0-1.98-1.33-1.98-2.65-1.98l-2 1.95c-.65 2.66 0 8.63 2 18.6 1.33 10.6 3.33 16.6 4.65 18.58l24.57 1.33 2-1.33c4.64-7.3 6.63-12.6 4.64-15.27zm-19.92 7.3c3.32 1.33 8.63-.66 15.27-3.98l-4 8.63-17.9.67c-1.34-2.66-3.33-9.96-5.32-21.25 5.34 10.62 10 15.27 11.98 15.93z"/><path fill="#FCCE00" d="M91.6 403.4c-.67-.68-5.98-3.33-14.6-6l-20.6-4.64-7.3 13.28c-5.3 9.3-7.3 15.27-7.3 17.92.67 2.66 2 5.98 4 9.3l5.3 7.96-.66 14.6c-.67 8.64 0 13.95 2 17.93 2.64 4.64 7.95 6.64 15.92 7.96l-5.98 16.6c-.66 3.35 2 6.67 8.64 9.3l16.6 2c-5.32-3.3-8.64-7.95-8.64-11.3-.66-5.94 3.32-12.6 13.94-18.55l7.3-3.32 5.3 2.66c4 2 6.65 4 7.32 5.96 1.98 4 5.97 6.64 13.28 9.3 3.98 1.33 12.6-.66 25.88-5.3l-21.9-6.65c-9.96-4-13.28-10.62-9.96-20.57v-21.9c-.66-5.32-4.65-11.3-13.28-17.26L94.9 414.7c-1.3-1.33-1.3-2.67-1.97-5.3l-1.33-6z"/><path d="M152.67 485.7l-21.25-5.97c-6.64-2.66-9.3-6.64-9.3-12.62l1.34-11.92-1.33-15.26c-.67-9.3-9.96-17.92-25.9-27.2l-2.64-9.97c-.7-2.65-6.67-4.65-16.6-7.3l-20.6-5.3c-.68 0-1.34.65-2.67 1.97-2 3.98-4.64 8.63-7.96 13.94-4 8.62-6.65 14.6-6.65 17.92v.66c0 3.32 2.65 7.3 5.97 11.3l3.3 5.96-1.3 20.58c0 5.3 1.3 9.96 3.3 12.6 2 4 6.64 6.65 14.6 7.98L60.37 497l-.67 2.66c0 1.98.65 3.32 2.64 5.3 2 3.32 6.64 4.66 11.96 6.64l13.94.67 2-2v-.65l-1.33-2c-4.63-3.32-7.3-6.64-7.3-9.3l-.65-1.32c0-4.64 4.65-9.3 13.28-14.6l5.97-2.65c5.97 1.98 9.3 3.98 9.95 6.64 2.66 4.63 7.96 7.95 15.27 9.94 4 2 13.28-.66 27.22-5.3l1.98-2v-.67l-1.98-2.65zm-98.9-45.14l-9.3-16.6c0-3.98 4.64-13.27 13.27-27.88l18.6 4c7.3 2.64 11.93 3.97 13.26 5.3l.67 3.3c0 4 1.32 6.65 2 7.98l1.32.67c4.6 2 8.6 5.3 13.24 8.63 6.64 5.3 9.96 9.95 9.96 13.94l1.33 15.26-.66 5.3c-.66 2-.66 4.66-.66 6.65 0 8 3.34 13.97 11.97 17.95l13.28 4-15.27 2.64c-5.98-2-9.96-4.66-11.3-7.98l-7.3-6.62c-3.3-1.33-5.96-2-7.96-2.66h-1.3l-6.64 2.67c-11.3 6.63-16.6 13.27-16.6 19.9v2c.67 2.65 2 4.65 4.65 7.97-6.62-.66-11.93-2.66-14.6-5.32l-.65-1.98.66-.67 5.33-16.6v-.67l-.67-1.3-1.33-1.34c-7.96-.7-12.6-3.34-13.94-6.66-2-2.65-2.66-5.97-2.66-9.96l1.33-18.6v-3.3z"/><path d="M58.4 392.76l-2-2c-1.32 0-1.98 1.33-1.98 2l.66 3.32 3.32 7.3 5.32 6.65c3.32 3.32 5.3 5.97 5.97 8.62l.63 2c1.33 6.64 4.65 11.94 9.96 16.6 4.65 3.3 8.63 8.62 11.95 13.27 5.97 9.3 7.97 17.92 5.97 25.9-.66.65 0 1.97.67 2.64 2 0 2.64 0 2.64-2 2-8.62.67-17.9-5.97-27.87-3.32-6-7.3-10.66-12.6-15.3l-6.65-7.3-2.66-6.64v-2.65a29 29 0 0 0-6.63-9.95l-5.32-5.98-2.64-6-.67-2.64zm-3.98 33.86c3.32 0 4.64-1.33 4.64-4l-.66-3.3c-1.33-1.33-2.65-2-3.32-2-1.33-.65-2.65 0-3.32 1.33-1.32.67-2 2-2 3.32 0 3.32 2 4.65 4.66 4.65zm29.2-13.94l1.33-3.32-1.32-3.32-3.32-1.33c-2.62 0-4.62 1.36-4.62 4.68 0 2.65 1.33 4 4.65 4l3.33-.68zm17.93 108.2c.67.66 2 .66 2-.66v-2.66l-15.28-10.6h-2.65c-.67.65-.67 1.3-.67 2.64l1.33 16.6c0 1.32.67 1.98 2.66 1.32l1.33-2-1.33-12.6 12.6 7.96z"/><path d="M104.2 502.96l-17.92 3.98c-1.33 0-1.33 1.32-1.33 2.66 0 1.32.67 1.98 2 1.32l18.58-3.98c1.33 0 1.33-.66 1.33-2-.66-1.98-1.33-1.98-2.65-1.98zM150 487.7l-8.62 13.93c-.66 1.33-.66 2 .66 3.32l2.66-1.33 6.63-10.6 4.66 13.92c0 1.33 1.3 1.33 2.62 1.33 1.33-.66 1.33-2 1.33-2.65l-6.64-17.27-1.32-1.98c-.68 0-2 .66-2 1.32zM92.92 369.53l.67.67 8.6 12.6-11.95.67c-.67 0-1.33.66-1.33 2.65 0 1.33 1.33 1.33 2.65 1.33l3.98-.66 10.62.63c.66 0 2-.66 2-1.33v-2l-11.3-16.6h-3.3l-.68 2z"/><path d="M108.2 367.54c-2 4.64-3.34 10.62-3.34 17.9-.66 1.35 0 2 1.33 2l2.63-2c0-6.62 1.33-11.93 3.32-15.9 0-1.34 0-2.66-1.33-2.66-1.32-.67-2 0-2.66.66zm-85.65 37.83c-2 4-2.65 10.63-2 19.92.02 1.3.68 1.3 2 1.3l2-2c-.67-8.6 0-14.6 1.32-17.9 1.33-.68.67-1.35-.66-2.67-1.3-.66-2.62 0-2.62 1.32z"/><path d="M17.9 425.3l4.66-1.34 2-1.33-.68-2-11.28-11.27c-1.33-2-2-2-3.32 0V412l9.3 8.64c-5.32 1.33-9.3 2-11.96 3.32l-.66 2v.66c.66 1.32 2 1.98 3.32 1.32 2-1.32 5.3-2 8.63-2.65z"/><path fill="#FCCE00" d="M225.7 475.74l-33.87 19.92 77 132.1 33.2-19.92-76.34-132.1z"/><path d="M224.35 473.75l-33.85 19.92-1.32 2V497l77 132.1c.66 1.3 2 1.96 3.32.64l34.52-19.9 1.33-.67-.67-2.66-76.34-131.43-4-1.32zM195.82 497l29.2-17.28 73.7 127.46-29.22 16.6-73.68-126.8z"/><path d="M218.4 489.02c-1.34.67-2 1.33-1.34 3.32l71.7 122.14c0 1.34 1.32 1.34 2.65.67 1.36-.67 1.36-1.33.7-2.65l-71.04-122.8c-1.32-.68-1.98-1.35-2.65-.68zm-11.96 6.64l-.66 2.64 71.68 122.82 3.32.66.67-2.65-71.7-122.8c-.65-1.34-2-1.34-3.3-.67z"/><path fill="#FCCE00" d="M224.35 485.7c2-3.32 3.32-6.64 1.34-9.96-1.36-2-4-3.32-8.66-3.32s-8.63 1.33-13.94 4a30.6 30.6 0 0 0-10.6 9.95c-2 3.32-2.67 6.64-.68 9.3 1.33 2.63 4 3.97 8.63 3.97 4.65 0 8.64-1.33 13.94-3.98l9.93-9.96z"/><path d="M229 479.06l-.66-4c-2.65-3.3-5.97-5.3-10.62-5.3-5.3 0-9.96 2-15.93 4.65-6.67 4.68-11.98 9.3-13.3 15.3-.67 2.66 0 5.3.66 7.3 1.98 2.66 3.98 4 6.64 4.65 5.98 1.33 11.95 0 19.9-3.98 7.33-4.64 11.97-9.3 13.3-15.27v-3.33zm-12.6-4c3.3 0 5.97.68 6.63 2l.67 4c-1.33 4.63-5.3 8.63-11.28 11.94-5.98 3.32-10.63 4.65-15.28 3.32L194.5 495c-1.33-1.34-1.33-2.66-.67-4 1.32-4.64 4.64-8.62 10.6-11.94 4.67-2.65 8-3.32 11.97-4z"/><path fill="#FCCE00" d="M290.74 640.37L321.28 491l-39.16-7.95-29.87 149.36 38.5 8z"/><path d="M248.93 632.4l.66 1.33 1.96 2 37.84 7.3 3.33-2 31.2-149.36c0-1.98-1.33-2.65-2.66-3.32l-38.5-7.96-1.33.63-2 1.33-30.52 150.03zm35.84-146.03l33.2 6.64-29.88 144.07-33.2-6.64 29.85-144.03z"/><path d="M304.02 497l-28.54 139.4 1.98 2.65 2-2L308 498.3l-2-2.64c-.65 0-1.3 0-1.98 1.33zm-39.17 138.73l2-1.33 28.54-138.74c0-1.33 0-2.65-1.36-2.65-1.32 0-1.98.7-2.65 2l-28.55 138.75c0 .67 0 2 2 2z"/><path fill="#FCCE00" d="M313.98 497c3.98-1.34 6.63-3.33 7.3-6 0-2.65-1.33-5.3-4.65-8.62-3.3-3.32-7.96-4.65-12.6-5.97l-14.6.7c-4 1.3-6.65 2.64-7.3 5.97 0 2.65.65 5.97 3.97 8.62 3.32 3.3 7.96 4.64 13.27 5.97l14.6-.66z"/><path d="M318.63 480.4c-4-3.33-8.64-5.33-13.95-6.65-8.62-1.33-15.26-.66-19.9 2.66-2.66 2-4 3.35-5.32 6 0 3.3 0 5.97 2 7.3 3.3 5.3 9.28 9.3 17.25 10.63 8.66 1.32 15.3 1.32 19.95-2.65 2.65-1.32 3.98-3.32 5.3-5.98v-2c0-3.32-1.98-6.64-5.3-9.3zm-33.2 3.3l2-3.3c3.3-2 8.63-2 15.93-1.34 4.64.67 8.63 2.65 11.28 4.65 3.32 2.7 4 4.67 4 6.67l-2.67 2.66-15.93 2c-7.3-2-11.28-4-13.94-7.97-.66-1.33-1.33-2-.66-3.32z"/><path fill="#FCCE00" d="M118.8-16.82l-43.14 9.3c-9.3 19.9-15.93 31.85-20.58 37.16l-12.6 14.6c-5.98 7.32-10.63 14.6-13.95 21.9C21.9 78.12 12.6 98.7.65 128.57l4.65 75.68c5.3-25.23 16.6-55.77 33.2-92.94 15.26-33.84 27.2-53.75 35.17-62.4 8.63-9.3 23.9-31.2 45.14-65.7z"/><path d="M121.46-18.82l-3.32-.66L75-10.85c-1.33 0-2 .66-2.66 1.33C63.7 10.38 57.07 23 52.44 28.32l-2 1.98C40.48 42.26 32.5 53.54 25.87 65.5L-2 127.22v1.33l4.64 75.68 2.65 2.65 2.63-2c5.3-25.23 16.6-56.43 33.86-92.94 15.27-33.2 26.55-53.1 33.85-61.07 8.63-9.3 23.9-31.88 45.8-66.4v-3.32zM55.08 33.63l2-1.32c4.64-6.62 11.94-19.23 19.9-37.82l36.52-7.97C93.6 19 78.98 39.6 71.68 46.9c-7.3 7.97-17.92 25.9-31.87 55.1-14.6 31.87-25.85 59.75-32.5 84.97l-4.64-58.4c9.3-21.26 18.6-42.5 27.88-61.1 5.3-9.95 13.28-21.23 24.56-33.85z"/><path d="M75.66 16.37c0 1.32 0 2.65 1.33 2.65l13.9 7.3c-.65-.66-.65-2-.65-2.65.66-1.33 2-1.33 2.65-1.33L79 15.7c-2 0-2.65 0-3.32.67zM62.38 36.94l11.3 11.96c1.32.66 1.98.66 3.3 0 .67-1.33.67-2.66 0-3.32L65.7 34.96l-.66 1.98h-2.66zM43.13 54.2c-1.33 1.34-1.33 2 0 3.33 5.98 5.3 12.62 7.96 20.58 7.96l2-2.7-2-1.97c-6.6.66-13.24-1.33-17.9-6.64-.65-1.33-2-1.33-2.65 0zm-7.96 20.6c-1.33.65-1.33 1.3 0 2.64l4.64 4.65c4 3.3 7.34 5.3 10.66 6.6.66 0 2 0 2-1.32.65-1.34 0-2-.68-2.66-2.65-.67-5.97-2.66-9.3-5.98l-4.64-3.98c-.66-.68-2-.68-2.65 0zM25.2 92.7c-.65 1.34-.65 2 0 2.66l5.32 5.98a42.45 42.45 0 0 0 8.63 7.96l2.65-.66c.67-.66.67-1.33-.66-2.66l-8.63-7.3-3.95-5.97H25.2zm5.32 39.18l-13.28-19.26c-.66-.66-1.32-1.32-2.65-.66-1.36 0-2 1.32-.7 2l4 7.96 9.3 13.27h3.3v-3.34zm222.38 13.27l-2 1.33-4.63 35.18-26.56-21.24-1.96.67c-1.33.63-1.33 1.95 0 2.62l28.55 23.23h2l1.3-1.33 5.3-38.5c0-2-.66-2-2-2z"/><path d="M285.44 300.5c0 1.98 1.32 2.64 3.32 1.98 1.98-.67 2.65-2 1.32-3.32L223.03 107.3c0-1.32-1.33-1.98-3.32-1.32-1.3.67-1.3 2-1.3 3.32l67.06 191.2z"/><path fill="#858585" d="M284.1 138.5l16.6-11.94c-25.9-7.3-48.45-12.6-67.05-15.93l-2-11.3-19.9 5.33 1.33 10.62-53.77 45.14 23.26 3.32a155.96 155.96 0 0 0 53.1-5.3 162.24 162.24 0 0 0 48.46-19.93z"/><path fill="#FFE000" d="M279.46 122.58l-9.96-3.32a109.32 109.32 0 0 1-47.13 19.25l-36.5 2-7.3 7.3 41.14-.64c23.27-3.98 43.18-11.94 59.78-24.56z"/><path d="M284.77 141.83l17.27-13.27.66-2v-.66l-1.33-2-65.72-15.9-1.34-9.3-1.95-1.32H231L211.08 102c-1.32 0-1.98 1.33-1.98 2.66v.66l1.32 8.63-17.26 13.95c-17.92 14.6-30.53 24.55-35.85 30.53l-.63 2v1.32l2 2 23.9 2.64c19.24.64 36.5-.7 53.76-4.67a186.06 186.06 0 0 0 48.47-19.92zM231 110.63c0 1.33.66 2 2 2a597.93 597.93 0 0 1 61.73 15.27c-15.93 12.6-35.85 22.56-59.08 28.53l-70.37 2.66c6.64-7.3 17.26-15.96 31.2-27.24l18.6-14.6.65-2-.66-8.63 13.94-3.98 2 7.96z"/><path d="M233 108.64l-20.58 4.64c-.67.67-1.34 1.34-1.34 2 .67 2 1.34 2 2 2l5.97-1.34 15.26-3.98c1.37 0 1.37-1.33 1.37-2.65-.67-.64-1.34-.64-2.66-.64z"/><path d="M215.07 113.95l-40.5 56.43c-1.32 1.33-1.32 2 0 3.32l2.66-1.33 41.16-56.43c.63-1.32.63-2-.7-2.66l-2.65.67zm7.3-2.65c-1.33.66-2 1.32-1.33 2.65l8.63 54.44 2.66 1.96 1.32-2-8.63-55.76a5.1 5.1 0 0 0-2.65-1.3z"/><path d="M216.4 113.95l-13.94 56.43c-.67 1.33 0 2.65.66 3.32 2 0 2.65 0 2.65-2l15.27-57.08c0-.67 0-2-1.98-2.66-.67 0-2 0-2.66 2zm9.3-3.32c-.68.67-.68 1.33 0 2.65l30.52 47.14c.66 1.33 2 1.33 2.66.67l.66-2.7L229 110.6h-3.3z"/><path d="M282.78 147.8c1.32.67 2 .67 2.66-.66.66-1.33.66-2-.67-2.65l-52.44-35.2-3.32.64c-.64 1.34 0 2 .7 2.66l53.1 35.2z"/><path fill="#FFF" d="M278.8 275.26l-5.98 5.98-11.95 5.98 2 11.28c1.98-1.33 5.3-2 9.3-3.32l13.27-3.98c4.64-2 7.3-4.65 8.62-8.64 0-2.65-.66-5.97-1.98-7.96l-5.32-.66h-3.98c-.66-.67-1.33-.67-3.98 1.32z"/><path d="M285.44 271.28l-1.34.66-1.98-.66-5.98 3.32-4.65 3.98-11.97 6.64c-1.33 0-1.33 1.33-1.33 2.66l2.66 11.28 1.33 1.34h2.64l21.24-6.64c5.97-2.66 9.3-5.98 9.95-10.63 1.32-3.32 0-6.64-2-9.96-1.98-2.65-5.3-3.32-8.62-2zm1.98 5.3h2l2 4.66v.66c-.68 3.32-3.33 5.32-7.32 7.3l-18.58 5.32-1.33-5.32 9.92-5.97 7.98-6.64h5.3z"/><path fill="#FFE000" d="M222.37 427.28l1.32 16.6 13.9 4.64 9.3-1.98-2-23.9-22.55 4.64z"/><path d="M246.27 421.3l-1.33-.65-22.57 5.3-2 1.34 1.34 17.22 1.36 1.33L237 450.5h1.32l9.3-2 1.34-2.64-2-23.23-.66-1.33zm-3.32 4l2 19.9-7.32 1.34-11.94-4-1.36-13.27 18.6-3.98z"/><path fill="#FFE000" d="M172.6 428.6l-1.35 16.6 13.28 5.98 9.3-1.32 1.32-23.24-22.56 2z"/><path d="M171.92 425.95c-.67 0-2 .67-2 2l-.65 17.25c0 .67 0 .67.66 1.34l13.27 5.97 1.33.7 9.95-.67 1.34-2.64 1.32-23.25-.66-1.33-1.33-.66-23.23 1.32zm1.33 17.27l.66-13.28 19.28-1.33-.66 19.94-7.96.67-11.28-5.97z"/><path fill="#9260C7" d="M245.6 376.17c-13.94-6.64-25.9-9.96-35.84-9.3-6.64.67-14.6 5.98-25.23 16.6l-14.6 15.93-5.32 27.9c.7 1.98 4 3.96 11.3 5.96l13.96 3.98c2.66 0 8.63-3.32 17.92-8.63l27.9 4c3.3 0 6.63-1.32 10.6-3.3l7.97-6.64c2-2.66-.66-17.93-8.63-46.47z"/><path d="M248.93 376.17l-1.34-2c-15.3-7.96-27.9-11.28-38.5-9.95-6.66 1.32-14.64 6.64-25.9 17.25l-15.3 16.6-.65 1.33c-3.98 17.27-5.3 26.56-5.3 28.55.66 2.65 4.64 5.3 13.27 7.96l14.6 4c2 0 6.64-2.64 14.6-6.62l4-2 27.2 4.65c3.33-.66 7.3-1.98 11.95-4.64 3.98-2 6.63-4.65 8.62-6.64 2.65-3.32 0-19.26-7.3-48.46zm-39.17-6.64c7.96-.67 19.25 2 34.5 9.3 5.33 20.57 8 33.85 8 40.5v1.98l-7.32 5.34-9.3 3.32-29.2-4-4.65 3.33c-6 3.3-9.98 5.3-11.98 5.3l-11.95-2.66c-6.65-2.65-9.97-4.64-11.3-5.3l6-25.9 16.58-17.92c9.3-8.6 15.93-12.6 20.58-13.26z"/><path d="M219.72 372.85c-.66-2-1.33-2-2-2l-2 2 .68 11.28-2.66 37.18-7.96 5.34v3.3h3.32l7.3-5.97 1.32-1.33c2.66-23.23 4-39.82 2-49.78z"/><path fill="#D96038" d="M156 267.3c-.68 1.32-.68 15.26.65 39.83l3.98 61.73c2.66 8.64.66 21.25-7.96 36.5l29.87 4 28.54-4 3.32-13.26v-7.3a23.93 23.93 0 0 0 11.95 7.96l31.86 4.65c-3.95-9.3-7.3-21.2-9.25-35.15L246.28 343c2.66 4.63 5.98 7.3 11.28 9.3l5.98.65c5.97-13.28 7.96-29.88 5.3-47.8l-5.3-23.24-17.92 4.67c-5.97-13.94-9.95-23.23-13.27-27.88-2-2.67-6.64-5.3-13.28-7.3l-9.95-3.33-3.32-8.63-21.9 2-6.65 8.62-9.96 6.64c-6.66 5.3-10.64 8.62-11.3 10.6z"/><path d="M272.16 305.8l-5.98-24.56c-.66-1.33-1.33-2-3.32-1.33l-15.93 4-11.95-26.54c-3.32-5.3-11.95-8.63-23.9-11.95l-2.65-7.3c0-.66-1.33-1.33-2.65-1.33l-21.9 1.33-2 1.97-6.64 7.97c-12.6 9.3-19.92 15.27-21.9 18.58l-.67 7.3 3.32 79 3.3 22.57c0 7.95-3.3 17.9-8.65 27.9l-.66 1.95.66.67 2 1.33 29.88 4.64 29.2-3.98 1.33-1.32c2.65-4.64 3.32-10.6 3.32-15.92l9.3 5.3 32.5 4 2.66-.67v-3.3c-5.3-11.3-9.3-26.56-11.28-45.15 4.62 3.32 9.27 5.3 14.6 5.3l1.97-1.97c5.98-13.95 7.96-30.54 5.98-48.47zm-114.2-32.53l.68-5.3c.67-2.67 7.3-7.98 19.92-15.28l.66-.7 6.64-8.62 18.58-1.34 2 6.64 2.66 2 11.94 4c4.65 1.98 7.97 3.3 8.63 5.3 3.32 4.64 7.96 13.27 12.62 27.88.63 2 1.95 2 3.3 2l16.6-4.66c3.3 10.62 5.3 21.9 5.3 34.52 0 11.3-2 21.24-6 30.54-5.96-.67-9.94-3.98-12.6-8.63-.66-1.33-2-2-3.3-1.33-.67 0-1.34 1.33-1.34 2.65l1.34 17.93a178.2 178.2 0 0 0 8.64 33.85l-26.56-3.98c-4.64-1.33-8.62-3.98-11.28-7.96-.67-.66-2-1.3-3.32 0-.66 0-1.33.67-1.33 2v2c0 5.96-.67 11.27-2.65 15.92l-25.9 3.32-26.55-3.32c5.3-9.96 7.96-19.25 7.96-27.22l-3.3-23.23-3.3-79z"/><path d="M202.46 254.7c-1.34 0-2 .65-1.34 1.98a207.22 207.22 0 0 0 26.56 65.7c6.63 9.3 11.95 17.28 17.26 21.92.67 1.33 2 1.33 3.32 0 .67-1.32.67-2 0-3.3-5.3-4.66-10.63-11.3-16.6-21.26-12.6-18.6-21.9-39.83-27.22-63.73 0-1.3-.66-1.3-1.98-1.3z"/><path fill="#D96038" d="M169.27 273.27v-2.65l-6.64 78.33c-15.28 15.27-26.56 25.22-33.86 28.54l10.62 6.6a73.05 73.05 0 0 0 29.85 8.64c7.3-5.3 14.6-13.27 22.56-23.23 15.94-19.9 27.23-41.8 33.2-65.04l-49.12-25.24c-3.3-1.98-5.3-3.98-6.64-5.97z"/><path d="M166.6 269.95v1.33c0 3.32 2.67 7.3 7.3 9.96l47.8 25.22c-5.97 20.6-15.92 40.5-29.87 59.08l-22.56 23.9a69.95 69.95 0 0 1-35.85-11.94l31.2-27.22 1.33-1.33-1.34-2c-1.3-.65-1.95-.65-3.3 0-15.25 15.94-26.54 25.23-33.2 27.9l-1.3 1.98v2.65l11.95 7.3c9.95 5.32 19.9 7.3 30.54 8.63l1.97-.63 23.23-24.56c15.27-19.9 26.55-41.16 32.53-65.06.66-1.32 0-2-1.33-2.65-27.9-13.95-43.82-22.58-49.13-25.9l-3.98-3.3-.7-2c.67-1.34 0-2.67-2-3.33-1.3 0-2.65 0-3.3 2zm15.28-13.27c3.98 3.3 9.3 4.64 13.94 4.64 7.3-.66 12.6-4.64 15.26-12.6.67-1.33 0-2-1.32-2.67-.66-.66-2 0-2 1.34-2.65 5.94-6.64 9.26-12.6 9.26-3.33.66-7.3-.67-11.95-3.32l-4.62-4.65c-.67-.66-2-.66-2.65 0-.66 1.33-1.33 2 0 2.66l5.97 5.3z"/><path d="M179.88 281.9c-.66 1.33 0 2 1.33 2.66l2.7-2 5.3-24.56-2.66 1.33-1.33-1.32-5.3 23.9zm19.92-37.17c7.96-2.66 12.62-6.64 15.27-12.62.67-2.62.67-6.6-2-10.6-2-5.3-4.64-8.62-7.96-11.3l-3.96 11.97c-2.65 9.3-2.65 17.26-1.32 22.58z"/><path fill="#FFF" d="M179.22 212.2v19.9c0 4 2 7.3 5.3 9.97 2.67 2.66 5.32 3.98 8.64 3.32 6.64-.7 11.28-4 12.62-10.65v-14.6l-.67-8.63-9.26-3.32c-7.3-1.32-13.28 0-16.6 4z"/><path d="M208.43 234.77l.67-13.94-1.34-9.3-1.32-2-10.62-3.97c-7.97-1.32-13.94 0-18.6 4.65l-.65 2v19.9c0 4.68 2 8.67 5.97 12.65 3.32 2.66 6.64 3.98 10.62 3.32 8.63 0 13.28-4.65 15.27-13.28zm-5.97-21.24l1.32 14.6-.66 5.3c-.66 5.98-4.65 9.3-10.62 9.97-2 0-4-1.33-6.64-3.32-2.66-2-3.32-4.65-3.32-7.97l-.67-18.55c4.65-4 11.3-4 20.6 0z"/><path fill="#9260C7" d="M179.22 212.2l25.9-.66-2-21.25c-.66-2-5.32-3.35-13.94-4-7.97-.67-13.28.65-14.6 2.65-.67 1.32 0 4.64 1.32 8.63 2 5.3 3.32 10.6 3.32 14.6z"/><path d="M205.78 214.85c1.32-.66 1.98-1.32 1.98-3.3 0-11.3-.66-18.6-1.98-22.6-1.34-3.3-6.64-5.3-16.6-5.3-9.3-.67-15.27.67-16.6 4-1.33 2.64-.66 5.96.66 10.6l3.32 13.95c0 2 1.33 2.65 2.66 2.65h26.56zm-4.66-23.23c.67 2 1.34 8.63 1.34 17.26l-20.58 1.33-5.3-18.56v-1.33l6.62-2 11.28 1.33 6.64 2zm35.18 141.4l-2-2 .68-1.32-21.9 3.32-1.33 2 .67 49.77c0 1.3.66 2 1.98 2l2-2-.67-48.48L236.3 333zm-45.14 34.52a245.2 245.2 0 0 1-9.95 41.15c-.63.64 0 1.3 1.36 2 .66 1.3 2 .63 2.65-1.36a413.76 413.76 0 0 0 9.96-41.16c.67-2 0-2-2-2-.65-.67-1.32 0-2 1.33z"/><path d="M225.7 331.7l-2.67-.67-.66 2v.66c5.97 6.6 9.96 17.9 12.6 33.82h-8.62c0-4.65-1.33-11.3-5.3-20.58l-5.32-13.27c-.66-.68-2-.68-3.3-.68-.68.66-.68 1.32-.68 2.64l5.97 13.94c3.32 9.3 5.3 15.93 4.65 19.92l.66 2 2 .65 12.6-.66 1.34-.66v-1.33c-1.34-16.6-5.98-29.2-13.28-37.83zm18.57-46.48l-4.64 3.98c-2.66 3.32-3.98 7.3-4.65 11.3-.67.65 0 1.98 1.33 2.64l2.7-2c0-3.97 1.3-6.62 3.3-9.28l3.98-3.32c1.32-.66 1.98-1.32.66-2.66-.66-1.32-1.33-1.32-2.66-.66zm-65.7-66.38l.65 1.33 9.3 3.3v7.32l.66 1.3 1.98-1.3v-8l-1.32-1.33-9.96-3.33c-.66 0-1.32 0-1.32.67zm23.9 0l-6 1.33-.65 2 1.32 1.3 5.98-1.98c1.32 0 1.32 0 1.32-1.35s-.66-1.33-1.98-1.33z"/><path fill="#858585" d="M265.52 99.35c3.98-17.26 5.97-36.5 3.98-57.1l17.92 26.56C299.37 89.4 308 108.67 312 127.26l19.9 80.33c9.96 33.85 21.9 55.1 34.52 65.7-9.3-53.1-13.28-98.23-12.62-134.75 1.34-28.54-3.32-56.4-11.94-84.3C331.9 24.33 319.3 3.1 302.7-9.5L185.85 2.43l6.64 13.94a143.55 143.55 0 0 0 26.53 30.53c17.26 15.27 33.2 32.53 46.47 52.45z"/><path d="M280.78-6.2l-3.32-.67c-1.98 1.33-1.98 2.66-.66 4l21.9 30.52c15.27 24.57 25.23 49.12 29.22 73.03l17.26 106.2c3.98 21.9 8.62 41.17 14.6 57.76.66 1.33 2 2 3.32 1.33 2-.67 2-2 2-3.98-5.98-15.3-11.3-33.9-15.28-56.46L332.57 100c-3.98-24.55-13.94-49.78-29.2-75.67L280.77-6.2zm-75-1.33c-.67-1.33-2.66-1.33-3.32 0-.67 1.33-.67 3.32 0 3.98l20.57 25.9c15.94 21.9 27.22 43.8 35.2 66.38.65 2 1.3 2.65 3.3 2 1.33 0 2.66-2 1.33-3.33-7.97-23.24-19.9-45.8-35.18-68.38l-21.9-26.55z"/><path d="M205.1-3.55c-1.98 15.94 0 30.54 3.33 45.8.66 1.33 1.33 1.33 2.65 1.33 1.33 0 1.33-.66 1.33-2.65-3.3-14.6-4.62-28.54-3.3-43.8l-2.64-2-1.33 1.32zm17.93 21.9c-.66 2-1.33 5.3-2 11.3-1.32 8.63 0 17.25 3.32 25.9 0 1.3 1.34 1.97 2 1.3 2-.65 2-1.32 2-2.64-2.66-7.94-4-15.9-3.33-24.54l1.33-9.95c1.32-.67.66-2-.66-2.66-1.36 0-2.7 0-2.7 1.33zm15.27 23.9l-1.33 8.64c-1.32 6.6-1.32 11.9 0 16.56 0 1.33.66 1.33 2 1.33 1.98 0 1.98-.66 1.98-2.66V50.9l1.34-7.98c0-2-.7-2.66-1.37-2.66-1.32 0-1.98 0-2.65 2z"/><path d="M262.86 36.28c-6.64-7.3-13.93-11.95-23.9-15.27l-13.27-1.96c-.7 0-1.36 0-1.36 1.33 0 2 .66 2 1.33 2L237.62 25c8.64 2.65 16.6 7.3 22.58 13.94h2.66c1.33-.66 1.33-2 0-2.66zm3.32 24.56c1.33-.66 2-1.32.67-2a42.5 42.5 0 0 0-17.92-16.58l-9.3-2c-.66 0-1.33 1.34-1.33 2 0 2 .67 2 2 2l7.96 1.98c5.97 2.66 10.62 7.3 15.27 14.6.66 1.33 1.32 1.33 2.65 0zm18.6-56.42c-3.33 21.24-4 40.5-2.66 57.75 0 2 0 2 1.98 2l1.34-2c-.67-17.92 0-36.5 3.32-56.42l-1.34-2.66c-1.98 0-2.65 0-2.65 1.3zm-8.64-13.94l-1.33-2-2.62 1.33c-3.32 16.6-4.65 31.24-4.65 44.5 0 1.34.68 2 2 2l2-2c0-12.6.66-27.2 4.64-43.8zm24.56 37.84l-3.32 23.9c-1.98 15.93-2.65 28.54-1.32 37.17l2.65 1.3 1.36-2c-1.33-7.96-1.33-21.24 1.32-37.16 1.33-14.62 2.65-21.92 3.32-22.58l-2-2c-1.33-.66-2 0-2 1.34zm17.26 33.85c-6.64 14.6-9.3 31.87-9.3 51.78 0 1.33 0 2 2 2l1.33-2c0-19.25 3.3-35.84 9.26-49.8.67-1.98 0-2.64-.67-3.3-1.98-.67-2.65 0-2.65 1.32zm10.64 40.5l-5.33 14.6c-3.98 10.63-5.3 21.25-5.98 31.2 0 1.32.64 2 2 2l1.96-2c.67-9.95 2-19.9 5.97-30.53l5.32-13.28c0-1.33 0-2.66-.66-2.66-1.34-.66-2.66 0-3.3.67zm6.63 37.83l-4.66 14.6a91.4 91.4 0 0 0-4.64 28.55c0 1.33 1.32 2 2.66 2l1.95-2c-.66-8.63.67-17.92 3.98-28.54l4-13.25c0-.66 0-1.33-.68-2-1.98-1.32-2.64-.65-2.64.67zm5.3 38.5l-2 15.28c-1.32 10.62-1.98 19.9-1.32 26.55l2 1.32 2-2c-.65-6.62 0-15.25.68-25.2l2.65-14.6c.68-2 0-2-1.98-2-.66-.67-1.33 0-2 .66z"/><path d="M298.7 24.33c-.65 1.33 0 2 .68 2.66l12.6 5.3a100.7 100.7 0 0 1 23.24 17.24l3.32.66c.66-1.3.66-1.97 0-3.3-7.3-7.3-15.93-13.3-24.57-17.93L300.7 23c-1.32-.66-2 0-2 1.33zm17.27 34.52l2 2 5.96 3.3 16.6 12.62c1.33.67 1.33.67 2.66 0 1.3-1.32 1.3-1.98 0-2.65-6-5.97-11.98-10.62-17.95-13.28l-6.64-3.3-2.65 1.3zM328.6 100c-.68.67 0 2 .65 2l7.3 4.65c5.3 3.98 10.62 10.62 15.27 17.26l2.65 1.36c1.33-1.33 2-2 .67-3.32-4.66-7.97-10.63-13.94-16.6-18.6l-7.3-4.64c-2 0-2.65 0-2.65 1.32zm5.96 33.87c-1.33 1.32-1.33 1.32 0 2.65l7.3 7.3c5.97 6.64 9.96 11.3 11.94 15.93 0 1.34 1.34 2 2.66.67l.66-2.65c-1.98-4.66-6.64-9.96-11.94-15.94l-7.97-7.96h-2.62zm5.3 37.17c-1.32.67-.66 1.33.67 2.66l4.65 4.64 8.62 10.62 3.32 1.33v-3.35L347.16 175l-4.64-4.64-2.65.66z"/><path fill="none" stroke="#000" stroke-width="3" stroke-miterlimit="100" d="M370.6 585.26H3.9V2.74h366.7v582.52z"/><path stroke-miterlimit="100" d="M367 582H5V5h362v577z" fill="none" stroke="#000" stroke-width="10"/></svg>