<svg xmlns="http://www.w3.org/2000/svg" width="372" height="587" viewBox="0 0 372 587"><path fill="#fffaf0" d="M0 0h372v587H0z"/><path d="M71.9 214.26c0-2.03-1.35-2.7-3.37-2.03-1.35.68-2.02 2.03-1.35 3.37l13.46 40.37c11.44 28.93 22.87 51.14 35.66 66.6l4.03.68c.68-1.34.68-2.7 0-4.03-12.78-15.48-24.22-37.68-34.98-65.94L71.9 214.26z"/><path fill="#9260C7" d="M72.56 224.35c2.02-6.73 2.7-13.45 3.37-20.18.67-12.8-3.37-18.17-12.1-16.15-8.1 2.02-9.43 8.75-3.38 20.18 3.37 6.06 7.4 11.44 12.1 16.15z"/><path d="M78.62 209.55c1.34-10.77 0-18.17-3.36-21.53-3.37-2.7-7.4-4.04-11.44-2.7-5.38.68-8.07 4.04-8.75 7.4-2.7 8.08 2.02 18.85 15.47 33.65l2.7 1.34 2.02-2 3.36-16.15zm-4.7-7.4l-2.7 16.8c-7.4-9.4-11.44-17.48-11.44-22.86v-2.03c.67-1.34 2.7-2.7 5.38-3.36l5.4.68c2 2.7 3.35 6.06 3.35 10.76z"/><path fill="#9260C7" d="M53.05 254.63c6.06 2.7 12.1 4.7 19.52 5.38-2.7-6.72-5.4-12.1-9.43-17.5-8.07-10.75-14.12-12.77-19.5-6.04-5.4 6.73-2.02 13.46 9.4 18.17z"/><path d="M51.7 229.73c-3.36 0-7.4 1.35-10.08 4.7-3.37 4.05-4.04 7.4-3.37 12.12 3.37 7.4 14.8 12.78 33.64 16.82l2.68-1.34.68-2.7c-8.08-18.16-15.48-28.25-23.55-29.6zM45 238.48c2.02-2.02 3.36-3.36 6.05-3.36 5.38 1.34 10.77 8.07 16.82 21.53-14.13-3.37-22.87-7.4-24.22-12.1v-1.36c0-2.03.68-3.38 1.35-4.72z"/><path d="M73.9 258c-2-1.35-3.35-.68-3.35.66-1.35 2.03-.68 3.37.67 4.04l16.82 10.1c2.02.67 2.7.67 4.04-1.35.67-1.35 0-2.7-1.35-3.36L73.9 258z"/><path fill="#9260C7" d="M65.84 298.36l20.18 2.02-12.78-15.48c-9.42-9.42-16.15-10.1-20.2-2.02-4.7 7.4 0 12.8 12.8 15.48z"/><path d="M50.36 281.54c-2.7 4.03-2.7 8.07 0 11.43 2.7 4.04 8.75 7.4 18.84 8.76l16.82 1.34 2.7-2.02v-2.7L77.94 285.6c-7.4-7.4-13.46-10.77-18.17-10.77-4.7 0-7.4 2.7-9.42 6.74zm4.7 2.7c1.35-2.7 2.7-4.05 4.72-4.05 5.38 0 12.1 5.37 20.86 16.8-14.13 0-23.55-2.67-26.24-6.72l-.68-2.68 1.35-3.37z"/><path d="M87.37 297.7c-2.02-.7-3.37 0-4.04 2 0 1.35 0 2.7 2.02 3.36l18.84 5.4c1.33 1.33 2.68 0 3.35-1.35l-2.02-3.36-18.16-6.05zM122.35 106.6c0-1.34-1.34-2-3.36-1.34-1.36.68-2.03 1.35-1.36 3.37 9.42 22.2 18.17 50.46 26.92 84.1 16.82 65.26 24.9 125.8 24.22 181.66 0 1.33.67 2.67 2.7 2.67 1.33 0 2.68-1.34 2.68-2.68 1.35-55.86-7.4-116.4-24.9-183.7-8.74-32.96-17.5-61.2-26.9-84.1z"/><path fill="#9260C7" d="M102.17 184.65l19.5 6.73-9.4-18.83c-6.74-10.1-13.46-12.1-18.85-6.06-6.05 6.04-2.7 12.77 8.75 18.15z"/><path d="M123.7 192.73l.67-2.02c-6.73-18.83-14.13-28.25-22.2-30.26-4.04-1.35-7.4 0-10.77 4.03-3.36 4.03-4.04 8.07-2.7 11.44 2.03 8.08 13.47 13.46 32.3 18.18l2.7-1.35zM93.42 173.9v-1.36c0-1.34.67-2.68 2.02-4.7 2.02-1.35 3.37-2.02 5.38-2.02 4.7.67 10.1 8.07 16.15 21.53-14.13-3.37-21.53-8.08-23.55-13.46z"/><path d="M123.03 189.36c-2.03-1.34-2.7-1.34-4.04.68-.7.67-.7 2.7 1.33 4.04l30.28 18.83c1.36 1.36 2.7 1.36 3.37-.66 1.35-1.34.68-2.7-.67-4.04l-30.27-18.84z"/><path fill="#9260C7" d="M162.05 172.54l14.13-14.8c8.74-10.1 8.74-16.82 0-20.18-7.4-3.37-12.12 1.34-14.13 14.8-.68 6.05-.68 12.78 0 20.18z"/><path d="M185.6 143.6c-.68-4.02-3.37-6.7-8.08-8.06H166.1c-6.74 5.38-8.76 17.5-6.74 37l2 2.02 2.7-.67 12.12-11.45c6.73-7.4 9.42-13.45 9.42-18.84zm-16.15-3.35c1.34-1.35 2.7-1.35 6.05 0l4.04 4.04v1.33c0 4.7-4.7 11.44-14.8 20.86l-.67-4.72c0-11.44 1.34-19.5 5.38-21.53z"/><path d="M163.4 169.86c-1.35-.68-2.7-.68-4.04.67l-14.13 23.54c0 1.34 0 2.7 1.35 3.37l4.03-.67 14.14-22.88c.67-1.36.67-3.37-1.34-4.04z"/><path fill="#9260C7" d="M95.44 136.9l18.84 6.7c-2.02-6.7-4.7-12.77-8.75-18.15C98.8 114 92.07 112 86.7 118.72c-6.06 6.73-2.7 12.1 8.74 18.17z"/><path d="M84.67 116.7c-3.36 4.04-4.03 7.4-2.7 10.76 2.03 8.08 13.47 14.8 32.3 18.85l2.7-.67.67-2.7-6.73-15.47c-5.37-8.74-10.08-14.12-15.46-14.8-3.36-.67-7.4.68-10.77 4.04zm2.02 8.75c0-2.02.67-3.37 2-5.38 2.03-1.35 3.38-2.7 5.4-2.7 4.7 1.35 10.1 8.75 16.14 22.2-14.13-4.03-21.53-8.74-23.55-13.45v-.67z"/><path d="M116.3 140.92c-2.02-.67-2.7-.67-4.04 1.35-.67 1.34-.67 2.68 1.34 3.36l22.2 14.8 4.04-.67c1.35-1.35.67-2.7-1.34-4.04l-22.2-14.8z"/><path fill="#9260C7" d="M144.56 130.16l13.45-14.8c7.4-11.44 6.74-18.17-1.33-20.87-8.08-2.7-12.8 2.02-14.13 15.47 0 6.06.67 13.46 2.02 20.2z"/><path d="M165.4 99.88c-.66-3.36-3.35-6.73-8.06-8.07-5.38-1.34-8.75-1.34-11.44 1.35-4.04 3.37-5.38 10.1-5.38 20.2l1.34 16.8 1.35 2.02h2.7l11.44-12.1c6.72-8.08 8.75-14.8 8.07-20.2zM145.24 114c0-8.74 2.02-14.12 4.04-16.8h6.05c3.36 1.33 4.7 2.68 4.7 4.02l.68.68c0 5.38-5.38 12.78-14.8 22.2l-.67-10.1z"/><path d="M145.23 127.46c-1.35-.67-2.7 0-3.37 1.35L132.44 147c-1.34 2.02-1.34 3.36.68 3.36 1.34 1.34 2.7.67 4.03-1.34l9.42-18.17c1.35-.67.68-2.02-1.34-3.37z"/><path fill="#9260C7" d="M122.35 112l1.35-20.2c0-13.45-4.7-18.83-12.8-15.47-8.73 2.02-8.73 8.75-2 20.2l13.45 15.46z"/><path d="M120.33 114h2.02l2.02-2c3.36-18.85 2.7-31.63-3.36-37-2.68-2.03-6.72-3.38-10.76-2.03-4.7 2.02-8.07 4.7-8.74 8.74-1.35 8.1 4.03 18.18 18.83 32.3zm-9.42-35.65l6.74 1.35c2.02 2 3.37 6.73 3.37 14.12l-.67 12.8c-9.42-10.1-13.45-17.5-13.45-22.9v-.66c.67-2.7 2.02-3.36 4.03-4.7z"/><path fill="#9260C7" d="M112.94 238.48l-14.13 7.4c5.4 5.4 18.17 12.78 36.34 22.2-.68 13.46.67 25.57 6.05 35.66 10.76-6.73 20.18-16.82 29.6-28.93 8.07 6.07 21.53 10.1 40.36 12.12-2-8.74-4.7-16.82-8.74-26.23l-6.06-10.78c5.38-6.05 9.42-14.8 12.8-25.57l3.35-14.8c-6.05 0-13.45 2.02-23.54 5.38l-12.1 4.7c-2.7-6.72-8.08-14.12-15.5-22.2l-10.08-10.08c-5.38 6.06-8.74 15.47-12.1 27.58l-2.03 16.82c-6.05 0-13.45 2.7-24.22 6.73z"/><path d="M133.8 228.4c-6.07 1.33-13.47 3.35-22.9 8.06l-13.44 6.73c-1.35 0-2.02 1.34-2.02 2v.68l1.34 2.02c6.73 6.73 18.17 14.13 35 22.2l-.68 3.37c0 11.43 2.7 22.2 6.73 31.62l2.7 2h2.68c9.43-6.72 18.85-16.14 28.27-28.25 9.4 6.06 22.2 9.42 39.02 11.44l2.68-.7 1.34-2.68v-.67c-2-12.1-6.72-24.22-14.12-36.33 8.07-10.1 12.78-23.55 15.47-39.7v-.67l-.67-2.02-2.7-1.35c-8.07 0-19.5 3.37-33.63 8.75l-16.15-20.85-8.75-9.43-2.7-.66-2.68.65c-6.74 9.42-12.12 24.22-14.8 43.74zm3.35 6.7l3.37-3.35 2.02-14.13c2.7-10.1 6.05-18.84 9.42-24.9 10.1 8.75 17.5 18.17 22.2 28.27.67 2 2.02 2 4.03 2l10.1-4.04c7.4-2.7 14.12-4.7 20.17-5.37-3.36 15.45-8.07 26.22-14.13 33.63l-1.34 2.7.67 1.33 5.38 10.1c3.37 7.4 6.06 14.12 7.4 21.52-16.8-2.7-27.58-6.05-34.3-11.43h-2.7c-.67 0-1.35 0-1.35.67-8.07 10.76-16.14 19.5-25.56 26.24-2.7-7.4-4.7-16.15-4.7-25.57l.66-4.72-2.02-3.36c-14.13-6.73-24.9-13.46-32.3-18.17 16.15-8.07 26.92-11.44 32.97-11.44z"/><path d="M183.58 249.92h-4.04c-6.73 4.7-12.78 6.73-19.5 7.4l-8.08-2.02c-2.02-.67-3.37 0-4.04 1.35 0 2 0 3.36 1.35 4.04l10.1 2c8.06-.67 16.13-3.37 23.54-9.42 1.35 0 2.02-2.02.68-3.36z"/><path d="M148.6 239.15l-3.37-.67c-.67 1.35-1.35 2.02 0 2.7l4.04 7.4 6.05 11.43c0 1.35 1.35 2.02 2.7 1.35 1.34 0 1.34-1.34 1.34-2.7l-6.73-12.1-4.04-7.4zM164.06 234.44l-2.7-1.34c-2 0-2 .67-2 2l3.36 24.9 2.7 1.36c2 0 2-1.35 2-2.7l-3.35-24.22zM175.5 235.1c-.67-.66-1.34 0-2 1.36-2.03 4.7-2.7 11.44-2.03 20.2 0 1.33.67 2 2.02 2 2 0 2-.67 2-2-.67-8.76 0-14.82 2.02-18.85 0-1.34 0-2.7-2.02-2.7zM276.43 100.55c0-1.34-1.35-2-3.37-2-1.35.66-2.7 1.33-2 3.35 2.68 17.5 4.7 40.37 4.7 67.96.67 55.16-7.4 110.33-22.88 163.48 0 1.36 0 3.37 2.02 3.37l3.36-2c15.48-53.83 23.55-108.33 23.55-164.84-.66-28.27-2-51.14-5.37-69.3z"/><path fill="#9260C7" d="M260.95 128.8l-8.07-18.83c-6.06-11.43-12.1-13.45-18.17-8.07-6.05 6.73-3.35 12.78 7.4 18.84l18.85 8.07z"/><path d="M256.9 112.67c-4.02-9.42-8.73-14.13-14.1-16.15-3.38-.67-6.74.67-10.1 3.36-3.37 3.37-4.72 7.4-4.05 11.44 1.35 7.4 12.8 14.13 31.63 20.18l2.7-.67v-2.7l-6.07-15.46zm-22.86-2.7l-.67-1.34c0-1.35 1.34-2.7 2.7-4.7 2-1.35 3.35-2.03 6.04-2.03 4.72 1.35 9.43 8.74 14.14 22.2-13.46-4.7-20.86-9.42-22.2-14.13z"/><path d="M279.8 147.65c2-.67 2-2.02 0-3.37l-16.83-17.5c-1.35-1.33-2.7-1.33-4.04 0-.67 2.03-.67 3.38 0 4.05l17.5 16.82c.67 1.35 2 1.35 3.36 0z"/><path fill="#9260C7" d="M292.57 136.9l16.82-11.45c10.08-8.75 11.43-14.8 4.03-20.2-6.73-4.7-12.78-1.33-16.82 11.45-2.68 6.06-3.35 12.8-4.03 20.2z"/><path d="M320.83 113.34c0-4.04-2.02-7.4-5.38-10.1-4.7-2.7-8.07-3.36-12.1-1.34-6.74 3.36-11.45 14.8-13.47 34.32l.68 2.68h2.7c17.48-8.74 26.9-16.82 27.57-25.56zm-8.75-5.4l3.37 4.73v.67c-.67 4.7-7.4 10.76-19.5 18.16 2-14.8 6.04-22.87 10.08-24.9 1.35-1.34 4.04 0 6.05 1.35z"/><path d="M294.6 138.23c1.34-1.34.66-2.7-.68-4.04-1.35-.68-3.36-.68-4.04 1.34l-13.45 19.5c-1.35 2.03-.68 2.7.67 4.05 1.34.67 2.7.67 3.36-1.36l14.13-19.5z"/><path fill="#9260C7" d="M306.03 173.22l16.82-10.77c10.1-8.74 11.44-15.47 4.04-20.18-6.74-5.38-12.8-1.35-16.83 11.44-2.7 5.4-3.37 12.12-4.04 19.52z"/><path d="M334.3 150.34c0-4.7-2.03-8.07-5.4-10.1-4.03-3.35-8.07-3.35-12.1-2-6.73 4.03-11.44 15.47-13.46 34.3l.67 2.7 2.7.67c17.5-8.74 26.92-17.5 27.6-25.56zm-14.82-6.73l6.06.68 3.36 4.7v.7c0 4.7-6.73 10.75-19.5 18.15 2-14.12 5.38-22.2 10.08-24.22z"/><path d="M307.38 171.2c-.68-.67-2.03-.67-3.37 0l-28.25 28.93c-1.34 1.34-1.34 2.7.68 4.04.67.67 2.7.67 3.36 0l27.58-29.6c2-.68 2-2.03 0-3.37z"/><path fill="#9260C7" d="M229.33 167.16l19.5 7.4c-2-7.4-4.7-13.45-8.06-18.83-6.73-11.44-12.8-13.46-18.84-6.73-6.06 6.05-3.37 12.1 7.4 18.16z"/><path d="M230 142.27c-4.03 0-7.4 1.34-10.76 4.7-3.37 3.37-4.04 6.74-3.37 10.77 2.02 4.7 6.73 9.42 16.82 13.46l15.47 6.06 2.02-1.35 1.33-2c-6.05-18.85-13.46-29.62-21.53-31.63zm-6.73 8.07c2.7-2.7 4.04-3.36 6.06-2.7 4.7 1.36 10.1 9.43 14.8 22.9-14.13-4.72-21.53-9.44-22.88-14.82v-.67c0-1.34.68-2.7 2.02-4.7z"/><path d="M280.46 196.1c1.35-.68.68-2.02-.67-3.37l-29.6-20.18h-4.05c-.67 2-.67 3.36.67 4.04l29.6 20.84c1.35.67 2.7.67 4.04-1.35z"/><path fill="#9260C7" d="M274.4 107.28c2.7-6.73 4.72-13.46 5.4-20.18 2-12.8-1.36-18.84-10.1-17.5-8.75 1.35-10.1 8.07-5.38 20.2 2 5.37 5.38 12.1 10.1 17.48z"/><path d="M277.1 108.63c6.05-19.5 7.4-32.3 2.7-37.69-2.03-3.36-6.06-4.7-10.78-4.03-5.38 1.36-8.07 2.7-9.42 6.74-3.36 7.4.68 19.5 12.8 35l2.68 1.33 2.02-1.34zm-1.35-34.32l1.35 7.42c0 5.38-.67 11.43-3.36 18.83-6.73-9.42-10.1-16.82-10.1-22.2l1.35-2.7c.66-2 2-2.68 4.7-2.68 3.36-.67 5.38 0 6.05 1.34z"/><path fill="#9260C7" d="M318.14 212.9H304.7c-1.36-9.4-4.72-18.82-9.44-26.9l-7.4-10.77c-8.07 7.4-14.8 19.52-21.53 35.67l-25.56 2-12.8 4.72c4.05 7.4 12.8 15.48 26.26 25.57-3.37 11.43-5.4 23.54-6.06 36.32 8.07-2 20.85-9.42 37.68-22.88 3.36 6.73 9.4 12.1 19.5 16.82l12.8 3.37c1.34-6.73 1.34-14.8.66-23.55l-2-11.44c9.4-6.06 16.82-14.12 24.22-24.22-4.7-2.7-12.8-3.36-22.88-4.7z"/><path d="M344.38 216.28l-2.02-2.02c-6.06-2.7-18.16-4.03-34.98-4.7-1.35-9.43-4.72-18.18-10.1-25.58l-6.73-10.76-2.02-1.35c-1.34 0-2 .67-2.7.67-7.4 7.4-14.8 18.84-22.2 34.32-6.72-.68-14.8.67-24.2 3.36l-13.47 4.04-1.34 2v2.7c4.7 7.4 13.45 16.15 25.56 25.57-3.36 10.77-4.7 22.2-5.38 34.3v.68l1.35 2.7h2.7c7.4-1.33 19.5-8.06 36.32-20.85 6.73 10.1 17.5 16.15 32.3 18.84h2.7l1.33-2.03 1.35-14.8-2.02-20.2c8.75-6.04 16.15-14.12 22.88-23.53l.68-2.02v-1.34zm-43.06-3.37c0 2.03 1.35 3.38 3.36 3.38h10.77l20.18 3.36c-6.73 8.08-13.45 14.8-20.18 19.5l-2.02 2.7v.67l1.35 6.07 1.34 14.8-.67 10.1c-14.13-4.7-22.88-10.1-26.24-18.17l-2.68-2.02-2.7 1.35c-13.45 9.42-24.2 16.15-32.3 20.18 1.36-11.43 3.38-21.52 5.4-30.26l.67-1.35-1.36-2.7c-10.1-7.4-18.17-14.8-23.55-21.54 13.45-4.7 24.22-6.05 32.96-4.7 1.35 0 3.37-1.35 4.04-2.7 5.38-12.78 11.44-23.54 18.17-30.94 7.4 10.1 11.43 20.85 13.45 32.3z"/><path d="M304 237.8c-.66-1.34-1.33-2.02-3.35-1.34-7.4 3.36-14.13 4.04-20.86 2.7l-7.4-4.05-4.05.68c-1.34.68-1.34 2.03.68 4.05l9.4 4.04c7.42 2 15.5 1.34 24.9-2.7 1.36-.67 2.03-1.34.68-3.36z"/><path d="M275.75 227.04l-2.7-8.75c0-.68-1.34-1.35-2.68-.68-.67 0-1.34.67-.67 2.02l2.02 8.08 3.36 13.45c0 1.34.67 2.02 1.35 1.34l2.7-2-3.38-13.46zM286.52 217.62l-2.02 2.02-2.02 22.2c0 1.35.67 2.7 2.02 2.7l2.02-2.7 2.02-22.2-2.02-2.02zM300.65 221.66h-2.7c-2.7 4.7-5.38 10.76-7.4 19.5 0 2.03 0 2.03 2.03 2.03l2.68-1.36 1.35-6.73c1.36-5.37 3.38-8.73 4.72-10.75 1.35-1.35.67-2.7-.67-2.7z"/><path fill="#858585" d="M87.37 297.7c-13.46 2.68-24.23 9.4-32.3 19.5-2.7 3.36-4.7 7.4-5.38 11.44l-3.38 10.1-8.07 11.42c-3.36 4.04-4.7 8.08-5.38 11.45l-1.34 16.15c0 6.73-.68 11.44-1.35 13.46-2.02 4.05-3.37 16.15-4.04 35l23.55-5.4c10.75-4.03 18.83-8.73 26.9-13.45L92.08 406c8.07 1.35 14.13-.66 18.84-4.02 4.7-3.37 8.07-9.43 11.43-17.5l3.37-10.77 36.33-30.27c-.68-5.37-3.37-9.4-7.4-13.45-8.07-9.42-18.17-12.78-30.28-12.1l-12.1-10.77c-9.43-7.4-17.5-10.1-24.9-9.4z"/><path d="M87.37 294.33c-14.8 2.68-26.24 9.4-35 20.85-2.68 4.7-5.37 8.74-6.05 13.46l-2.7 8.74-5.37 7.4c-5.38 6.74-8.07 12.8-8.75 16.83l-.67 10.77c0 10.1-1.34 15.47-2.02 18.16-1.33 2.02-2 8.08-3.35 18.17l-.67 17.5.67 2 3.36 1.36 23.56-5.4c10.77-4.7 20.2-9.4 28.26-14.8h10.1c10.76 1.35 18.83-.66 23.54-4.02 8.07-6.06 13.46-15.48 16.15-30.28l36.34-29.6.67-2.02v-1.35c-1.33-4.72-4.03-10.1-8.06-14.8-8.75-9.43-19.5-13.47-31.62-12.8l-14.8-12.77c-8.75-6.06-16.83-8.08-23.55-7.4zM121 320.56c1.35.68 2.03.68 3.37.68 10.1-.68 17.5 2 24.22 7.4 4.7 3.36 7.4 8.74 10.08 13.45L123.03 371l-.68 2.02L119 383.8c-2.7 7.4-6.07 12.8-10.1 15.48-4.04 3.37-10.1 4.7-18.84 3.37L75.26 404c-7.4 4.7-16.82 9.4-26.92 13.44l-18.84 4.72c.68-17.5 2.02-26.9 3.37-29.6 1.34-2.7 2.02-8.76 2.7-19.52l.66-10.76c.67-3.37 2.7-7.4 7.4-13.46l5.4-8.07 4.02-10.1c.67-4.7 2.02-8.07 4.7-10.76 7.4-10.1 17.5-16.16 30.3-18.85 5.37-.67 12.1 1.34 19.5 6.73L121 320.56z"/><path d="M138.5 319.22l-1.35-2.02c-22.87 3.36-45.75 19.5-68.62 47.77-11.44 14.8-21.53 29.6-28.94 45.08-1.35 1.34-.68 2.02.67 2.7 1.34 0 2.02 0 2.7-1.36 6.72-13.46 16.14-27.6 27.57-42.4 22.88-28.25 45.08-44.4 66.6-47.76l1.36-2.02z"/><path d="M104.2 332.67c-8.76-6.73-17.5-8.74-28.27-6.06-5.38.7-10.1 2.7-14.13 5.4-.67 1.34-.67 2.02 0 2.7l2.7.67 12.77-5.4c8.75-2 16.82 0 24.23 5.4l6.05 12.1c2.02 10.1 0 20.2-5.38 30.96 0 1.34 0 2.68 1.34 2.68.7.7 2.03 0 2.03-.66 6.73-12.1 8.75-23.55 5.4-34.3l-6.74-13.47z"/><path d="M88.04 364.3l-6.73-10.1c-6.04-4.04-12.77-5.38-20.85-3.36-5.38 2.02-8.74 3.36-10.76 6.05-1.36.67-1.36 1.35-.68 2.7l2.7.65c2-2 5.37-3.36 8.73-5.37 7.4-2.02 13.46-.68 18.17 2.7l6.05 8.06c2.7 7.4 1.35 15.48-2.7 25.57-.66 1.35 0 2.7.7 3.37 1.33.68 2.68 0 2.68-1.35 5.38-11.43 6.05-20.85 2.7-28.93zM63.14 379.1c-2.7-2.7-4.7-4.04-8.07-4.7-2.02 0-5.38.67-8.07 3.35l-4.04 3.36c-1.35.7-1.35 1.36 0 2.7.67.68 2.02.68 2.7 0l2.68-2.7c2.7-2 5.38-2.67 6.73-2.67l4.7 2.68.68 3.38 1.35 8.07c0 3.37-.67 6.73-2.02 8.75l-.67 1.35.68 2 3.36-.66c2.7-4.72 4.04-9.43 2.7-16.16l-2.7-8.74z"/><path fill="#858585" d="M339 317.2c.67-8.08.67-13.46 0-16.82-4.04-13.46-12.1-21.53-23.55-22.2-6.06 0-12.78 2-21.53 6.05-8.07 4.04-12.1 6.73-13.46 6.73l-10.1-2.02-14.8 1.35c-6.05 2-10.08 5.37-13.45 10.08-2.68 4.04-4.03 8.07-4.03 13.46-.67 4.7 1.35 9.4 4.7 12.1l6.74 8.08 1.36 9.42 2.02 8.75c2.7 4.02 6.05 8.73 10.76 12.77l12.8 7.4c7.4 2.7 14.12 8.07 20.17 14.8 4.05 5.4 13.47 7.4 27.6 5.4 4.04-.7 9.42.66 16.82 3.35 2.02-8.08 2.7-14.13 2.02-18.85 0-2.68.67-6.05 2.02-10.76l2-11.42c0-3.36-.66-6.73-3.35-10.77l-5.37-10.76c-.68-2.7-.68-7.4.67-16.14z"/><path d="M280.46 287.6l-4.7-.68c-7.4-2.7-14.14-2.7-21.53 0-6.06 2.7-11.44 6.05-14.8 11.44-3.37 4.7-4.72 9.42-4.72 15.47-.66 4.04.68 7.4 2.03 10.1l5.38 6.72 4.05 4.72.67 6.72 3.37 12.1c2.68 4.04 6.04 8.08 11.42 13.46l14.13 8.07c6.73 2.7 12.8 6.73 17.5 13.46 5.38 6.05 15.47 8.74 31.62 6.72 4.04-.67 8.75.67 15.48 3.36l2.7-.67 1.33-1.34c2.02-8.74 2.7-15.47 2.02-20.2 0-2.67.67-6.04 2.02-10.08l2.02-12.78c0-2.68-1.35-7.4-4.7-14.13L341 332l.67-13.45c1.34-8.76 1.34-15.48.66-18.85-4.7-15.47-13.45-23.55-26.9-24.9-7.4 0-16.83 2.7-28.27 9.43l-6.74 3.37zm55.17 13.45l.68 5.38-2 22.2.66 5.4 4.7 9.4c3.37 4.05 4.05 8.1 4.05 11.45l-1.34 10.1c-2.02 4.03-2.7 7.4-2.7 10.76v4.03L339 391.2l-15.48-2c-12.78 2-20.85.66-24.22-4.04-6.73-8.1-14.13-13.46-22.2-15.48l-10.77-7.4c-4.7-4.04-8.07-8.08-10.1-11.44-.66-2.7-2-6.05-2.68-9.42l-.67-8.08-6.73-8.07-3.37-4.7c-1.34-2.03-2-4.05-1.34-6.74 0-10.1 5.38-16.82 14.8-20.18 5.38-2.7 10.77-2.7 17.5 0l6.72.68 10.1-4.04c11.43-6.74 19.5-8.76 24.22-8.76 10.76.67 17.5 8.07 20.85 19.5z"/><path d="M281.8 289.6c-1.34-1.33-2-1.33-2.68 0-.68.68-.68 2.03 0 3.37l17.5 21.54c12.77 18.84 22.2 39.03 26.9 61.23.68 1.34 2.02 2.02 3.37 1.34.66 0 1.33-1.34.66-2.68-4.7-22.22-14.13-43.07-27.6-62.58l-18.15-22.2z"/><path d="M314.78 298.36l-16.82.67-8.75 3.37c-11.43 4.03-18.15 10.76-20.18 21.53-1.34 6.05-1.34 10.76 0 16.14 0 .68.68 1.35 2.7 1.35 1.34-.67 1.34-1.35 1.34-2.7-1.35-4.7-1.35-8.74-.67-14.12 2-9.42 8.06-15.48 18.16-18.17l8.07-3.36 14.8-.67c4.04 1.34 6.73 4.03 9.42 8.07l2.7.68c1.34 0 1.34-.68.66-2.7-2.68-4.7-6.04-8.07-11.42-10.1z"/><path d="M312.76 317.88H302c-9.43 4.03-14.8 12.1-15.48 22.2 0 4.7 0 10.08 1.34 14.12.68 1.35 1.35 1.35 2.7 1.35 1.34-.67 2-1.35 1.34-2.7-1.35-4.03-2.02-8.06-1.35-12.1.68-9.42 4.7-15.48 12.8-19.5l8.73.66c6.06 1.35 10.77 4.7 13.46 9.43.67 1.34 1.35 2 2.02.67 2.02-.67 2.02-1.34 1.34-2.7-3.36-6.05-8.74-9.4-16.14-11.43zM323.52 344.1l-8.07-.67c-4.7 1.36-7.4 4.04-9.42 8.76-3.36 6.04-3.36 14.1 0 22.86.67 2 1.35 2 2.7 2 1.34-.65 2-2 1.34-2.67-3.37-8.76-3.37-15.5-.68-20.2 1.34-3.36 4.03-5.38 7.4-6.73h6.05c4.04 2.02 7.4 6.05 10.76 11.44l2.7 1.35c1.35 0 1.35-1.34.68-2.68-3.37-7.4-8.08-12.1-13.46-13.46z"/><path fill="#858585" d="M247.5 310.47c-7.4-3.36-16.15-3.36-26.25-.68-6.05 1.35-13.45 6.72-21.52 14.13-7.4 6.73-13.46 10.77-17.5 10.77l-38.35 2.68c-12.1 3.37-20.85 10.1-26.24 19.5-4.04 7.42-5.38 15.5-3.36 24.24 1.35 6.05 4.04 10.1 8.07 13.45l8.08 8.75 4.03 16.82c2.7 7.4 6.73 12.1 10.77 15.48 4.04 2.7 10.1 4.03 16.82 4.7 6.05.67 9.42 1.35 10.76 2.7l7.42 10.76c2.7 4.7 5.38 8.07 8.07 9.42 4.7 2.7 21.52 8.75 51.12 16.15 2.7-8.75 6.73-16.15 12.1-22.88l8.76-10.1c2.7-3.35 4.04-6.72 3.36-9.4l-2.02-15.5c-.67-4.03 0-8.73 2.02-13.44l8.08-14.13c2.02-5.38 3.36-9.42 3.36-14.8-.67-4.04-2.02-8.76-5.38-14.13l-4.7-12.8v-11.42c0-5.38 0-9.42-1.36-13.46-2.7-8.08-8.07-14.14-16.14-16.83z"/><path d="M220.58 306.43c-7.4 2.02-14.8 7.4-22.87 15.48-6.72 6.07-12.1 9.43-15.47 9.43l-39.7 2.7c-10.08 3.35-18.83 8.73-24.9 16.8-4.7 6.74-7.4 14.14-7.4 22.88l.68 8.1c2.04 6.72 5.4 12.1 10.1 16.14l6.06 6.72 2.02 8.75 5.38 12.8c2.02 5.38 4.7 9.42 9.42 12.1 4.7 3.37 11.44 5.38 18.84 5.38 4.7.67 7.4 1.35 8.07 2.03l5.38 7.4c3.36 6.73 6.73 10.77 10.1 12.8 5.37 2.68 22.2 8.73 51.8 16.8 2 .68 4.03 0 4.7-2 2.7-8.76 6.73-15.5 11.44-21.54l2.7-3.36 8.07-9.42c1.33-3.37 2.68-6.73 2-10.1l-1.34-10.76-.68-7.4c0-2.7.68-5.38 1.35-8.07l3.37-6.06c6.05-10.78 8.74-18.85 8.74-24.9-.67-4.7-2.7-10.77-6.05-17.5-2.7-4.03-4.05-7.4-4.05-9.42v-8.75c0-8.06 0-12.78-1.34-16.82-3.36-9.4-8.74-15.45-17.5-19.5l-28.92-.67zm2.02 6.73c8.08-2.7 16.15-2.7 22.2 0 8.08 2.02 13.46 7.4 15.48 15.48l1.34 8.07v16.16l4.7 11.43c3.38 6.72 5.4 11.43 5.4 14.8l-2.02 10.76-5.38 10.76-4.04 6.73c-1.35 4.04-2.7 8.08-2.7 10.77l1.35 9.42 1.35 10.1v.66l-8.07 13.46-2.68 3.36c-5.4 5.4-9.42 12.1-12.8 20.2l-47.08-15.5-7.4-10.08-6.73-8.75c-2.68-2.7-6.72-3.37-12.78-3.37-6.73-.67-11.44-2.7-14.8-4.7-3.36-2.03-6.06-5.4-8.07-9.43l-4.04-12.1-2.68-9.42c-.67-3.37-4.04-6.06-7.4-9.42-4.04-2.7-6.73-7.4-8.08-12.12l-.67-6.73c0-7.4 2.02-13.45 6.73-19.5 4.7-6.05 12.1-10.77 20.85-13.45l37.68-2.7c6.06 0 12.8-4.03 20.2-11.44 7.4-7.38 14.12-12.1 20.17-13.44z"/><path d="M188.3 333.34c-1.36-2-2.7-2-3.38-1.34-.67 1.34-1.34 2.02 0 3.37l16.15 31.6c11.44 26.92 20.18 55.2 25.57 85.47.67 2 2.02 2 2.7 2l2-2.68c-6.05-30.28-14.8-59.88-26.9-86.8l-16.15-31.62z"/><path d="M229.33 334.02c-7.4-.68-15.47 0-23.55 4.04l-12.78 7.4c-21.53 2.02-37 8.74-45.08 20.18-4.04 6.73-6.73 13.46-6.73 21.53l.66 6.05c0 1.35.68 1.35 2.02 1.35l1.35-2.7c-1.35-8.07 0-16.14 6.05-23.53 7.4-10.77 22.2-16.82 43.06-18.85l.68-.68 10.76-6.73c8.75-4.04 16.15-4.72 22.88-4.04 8.07 2 14.8 7.4 20.85 17.5.7 1.33 2.03 1.33 2.7.66l.68-2.7c-6.06-11.43-13.46-17.48-23.55-19.5z"/><path d="M254.9 385.15l.67-3.36c-10.1-14.14-22.2-20.87-36.33-21.55l-17.5 4.04c-14.13 2-24.22 8.07-30.95 17.5-6.73 10.08-8.75 20.85-5.4 33.63 0 1.34 0 2 2.03 1.34 1.35-.67 1.35-1.34 1.35-2l-.68-10.1c.68-8.08 2.7-14.8 6.06-20.2 5.38-9.4 15.48-14.13 28.93-16.8l16.8-3.38c12.12 0 22.88 6.72 32.3 20.18.68 1.35 1.35 1.35 2.7.67z"/><path d="M250.86 403.32c-5.38-9.42-14.13-15.48-24.9-17.5h-14.8c-10.76 2.7-18.16 11.44-22.2 24.9-2.02 6.72-3.36 13.45-3.36 20.18 0 .68.67 1.35 2.7 1.35l1.33-1.35c0-6.05 1.35-12.1 2.7-18.83 4.03-12.12 10.1-19.5 20.18-22.88l12.8.66c9.4 1.35 16.8 7.4 21.52 15.48 1.35 1.34 2.7 2 3.37.67 1.33-.66 1.33-1.34.66-2.68z"/><path d="M203.1 445.03v.68c0 1.35.66 2.02 2 2.02l2.03-2c0-4.05.67-7.42 2.02-11.46 2-8.06 6.72-12.78 12.78-13.45l.67-.66 2.02-1.34h4.7c4.72 1.34 8.75 6.05 13.47 13.45 0 .67.66 1.34 2.68.67.67-.67.67-1.34.67-2.02-4.7-9.42-10.1-14.8-16.15-16.14-4.03-.68-7.4 0-9.4 2-7.42 1.36-12.13 6.07-14.82 14.82-2.02 4.04-2.7 9.4-2.7 13.45z"/><path stroke-miterlimit="100" d="M364.58 579.58H7.42V7.42h357.16v572.16z" fill="none" stroke="#000" stroke-width="14.84"/></svg>