<svg xmlns="http://www.w3.org/2000/svg" width="372" height="587" viewBox="0 0 372 587"><path fill="#fff" d="M0 0h372v587H0z"/><path fill="none" stroke="#000" stroke-width="3" stroke-miterlimit="100" d="M370.6 585.26H3.9V2.74h366.7v582.52z"/><path d="M71.9 214.26c0-2.03-1.35-2.7-3.37-2.03-1.35.68-2.02 2.03-1.35 3.37l13.46 40.37c11.44 28.93 22.87 51.14 35.66 66.6l4.03.68c.68-1.34.68-2.7 0-4.03-12.78-15.48-24.22-37.68-34.98-65.94L71.9 214.26z"/><path fill="#9260C7" d="M72.56 224.35c2.02-6.73 2.7-13.45 3.37-20.18.67-12.8-3.37-18.17-12.1-16.15-8.1 2.02-9.43 8.75-3.38 20.18a72.44 72.44 0 0 0 12.1 16.15z"/><path d="M78.62 209.55c1.34-10.77 0-18.17-3.36-21.53-3.37-2.7-7.4-4.04-11.44-2.7-5.38.68-8.07 4.04-8.75 7.4-2.7 8.08 2.02 18.85 15.47 33.65l2.7 1.34 2.02-2 3.36-16.13zm-4.7-7.4l-2.7 16.8c-7.4-9.4-11.44-17.48-11.44-22.86v-2.05c.67-1.34 2.7-2.7 5.38-3.36l5.4.67c2 2.7 3.35 6.06 3.35 10.76z"/><path fill="#9260C7" d="M53.05 254.63c6.06 2.7 12.1 4.7 19.52 5.38-2.7-6.7-5.4-12.1-9.43-17.5-8.07-10.73-14.12-12.75-19.5-6.02-5.4 6.73-2.02 13.46 9.4 18.17z"/><path d="M51.7 229.73a13 13 0 0 0-10.08 4.7c-3.37 4.05-4.04 7.4-3.37 12.12 3.37 7.4 14.8 12.78 33.64 16.82l2.66-1.34.68-2.7c-8.08-18.16-15.48-28.25-23.55-29.6zm-6.7 8.75c2.02-2.02 3.36-3.36 6.05-3.36 5.38 1.34 10.77 8.07 16.82 21.53-14.13-3.37-22.87-7.4-24.22-12.1v-1.36c0-2.05.68-3.4 1.35-4.74z"/><path d="M73.9 258c-2-1.35-3.35-.68-3.35.66-1.35 2.03-.68 3.37.67 4.04l16.82 10.1c2.02.67 2.7.67 4.04-1.35.67-1.35 0-2.7-1.35-3.36L73.9 258z"/><path fill="#9260C7" d="M65.84 298.36l20.18 2.02-12.78-15.48c-9.42-9.42-16.15-10.1-20.2-2.02-4.7 7.4 0 12.8 12.8 15.48z"/><path d="M50.36 281.54c-2.7 4.03-2.7 8.07 0 11.43 2.7 4.04 8.75 7.4 18.84 8.76l16.82 1.34 2.7-2.02v-2.7L77.94 285.6c-7.4-7.4-13.46-10.77-18.17-10.77-4.7 0-7.4 2.7-9.42 6.74zm4.7 2.7c1.35-2.7 2.7-4.05 4.72-4.05 5.38 0 12.1 5.35 20.86 16.8-14.13 0-23.55-2.7-26.24-6.74l-.68-2.68 1.35-3.38z"/><path d="M87.37 297.7c-2.02-.7-3.37 0-4.04 2 0 1.35 0 2.7 2.02 3.36l18.84 5.4c1.3 1.33 2.66 0 3.33-1.35l-2.02-3.34-18.15-6.05zm34.98-191.1c0-1.34-1.34-2-3.36-1.34-1.38.68-2.05 1.35-1.38 3.37 9.42 22.2 18.17 50.46 26.92 84.1 16.82 65.26 24.9 125.8 24.22 181.66 0 1.3.67 2.65 2.7 2.65a2.9 2.9 0 0 0 2.68-2.68c1.35-55.86-7.4-116.4-24.9-183.7-8.74-32.96-17.5-61.2-26.9-84.1z"/><path fill="#9260C7" d="M102.17 184.65l19.5 6.73-9.4-18.83c-6.74-10.1-13.46-12.1-18.85-6.06-6.05 6.02-2.7 12.75 8.75 18.13z"/><path d="M123.7 192.73l.67-2.02c-6.73-18.8-14.13-28.23-22.2-30.24-4.04-1.35-7.4 0-10.77 4.03-3.36 4.02-4.04 8.06-2.7 11.43 2.03 8.08 13.47 13.46 32.3 18.18l2.7-1.34zM93.42 173.9v-1.36c0-1.34.67-2.68 2.02-4.7 2.02-1.35 3.37-2.02 5.38-2.02 4.7.67 10.1 8.07 16.15 21.53-14.13-3.37-21.53-8.08-23.55-13.46z"/><path d="M123.03 189.36c-2.03-1.34-2.7-1.34-4.04.68-.7.67-.7 2.7 1.3 4.04l30.3 18.83c1.35 1.38 2.7 1.38 3.36-.64 1.35-1.34.68-2.7-.67-4.04L123 189.4z"/><path fill="#9260C7" d="M162.05 172.54l14.13-14.8c8.74-10.1 8.74-16.82 0-20.18-7.4-3.37-12.12 1.34-14.13 14.8a100.9 100.9 0 0 0 0 20.18z"/><path d="M185.6 143.6c-.68-4.02-3.37-6.7-8.08-8.06H166.1c-6.74 5.38-8.76 17.5-6.74 37l2 2.02 2.7-.67 12.12-11.47c6.73-7.4 9.42-13.45 9.42-18.84zm-16.15-3.35c1.34-1.35 2.7-1.35 6.05 0l4.04 4.04v1.3c0 4.7-4.7 11.45-14.8 20.87l-.67-4.72c0-11.44 1.34-19.5 5.38-21.53z"/><path d="M163.4 169.86c-1.35-.68-2.7-.68-4.04.67l-14.13 23.54c0 1.34 0 2.7 1.35 3.37l4.03-.67 14.16-22.88c.67-1.38.67-3.4-1.34-4.06z"/><path fill="#9260C7" d="M95.44 136.9l18.84 6.7c-2.02-6.7-4.7-12.77-8.75-18.15C98.8 114 92.07 112 86.7 118.72c-6.06 6.73-2.7 12.1 8.74 18.17z"/><path d="M84.67 116.7c-3.36 4.04-4.03 7.4-2.7 10.76 2.03 8.08 13.47 14.8 32.3 18.85l2.7-.65.67-2.7-6.73-15.47c-5.35-8.74-10.06-14.12-15.44-14.8-3.36-.67-7.4.68-10.77 4.04zm2.02 8.75c0-2.02.65-3.37 2-5.38 2-1.35 3.36-2.7 5.4-2.7 4.7 1.35 10.1 8.75 16.12 22.2-14.13-4.03-21.53-8.74-23.55-13.45v-.67z"/><path d="M116.3 140.92c-2.02-.67-2.7-.67-4.04 1.35-.67 1.34-.67 2.68 1.34 3.36l22.2 14.8 4.04-.67c1.35-1.35.67-2.7-1.34-4.04l-22.2-14.8z"/><path fill="#9260C7" d="M144.56 130.16l13.45-14.8c7.4-11.44 6.76-18.17-1.3-20.87-8.1-2.7-12.8 2-14.14 15.45 0 6.06.67 13.46 2.02 20.2z"/><path d="M165.4 99.88c-.66-3.36-3.35-6.73-8.06-8.07-5.38-1.32-8.75-1.32-11.44 1.37-4.04 3.37-5.38 10.1-5.38 20.2l1.34 16.8 1.35 2.02h2.7l11.46-12.1c6.72-8.1 8.75-14.8 8.07-20.2zM145.24 114c0-8.74 2.02-14.12 4.04-16.8h6.05c3.36 1.33 4.7 2.68 4.7 4.02l.68.68c0 5.38-5.36 12.78-14.8 22.2l-.65-10.1z"/><path d="M145.23 127.46c-1.35-.67-2.7 0-3.37 1.35l-9.42 18.2c-1.34 2.03-1.34 3.37.68 3.37 1.34 1.34 2.7.67 4.03-1.34l9.42-18.17c1.35-.67.68-2.02-1.34-3.37z"/><path fill="#9260C7" d="M122.35 112l1.35-20.2c0-13.45-4.7-18.83-12.8-15.47-8.73 2.02-8.73 8.75-2 20.2L122.35 112z"/><path d="M120.33 114h2.02l2.02-2c3.36-18.85 2.7-31.63-3.36-37-2.66-2.03-6.7-3.38-10.74-2.03-4.7 2.02-8.07 4.7-8.74 8.74-1.34 8.1 4.04 18.2 18.84 32.3zm-9.42-35.65l6.76 1.35c2.02 2 3.37 6.73 3.37 14.12l-.67 12.8c-9.42-10.1-13.45-17.5-13.45-22.9v-.66c.68-2.7 2.03-3.36 4.04-4.7z"/><path fill="#9260C7" d="M112.94 238.48l-14.13 7.4c5.4 5.4 18.2 12.78 36.36 22.2-.68 13.46.67 25.57 6.05 35.66 10.77-6.73 20.2-16.82 29.6-28.93 8.08 6.1 21.54 10.1 40.37 12.14a149.68 149.68 0 0 0-8.74-26.23l-6.06-10.77c5.38-6.05 9.42-14.8 12.8-25.57l3.35-14.8c-6.04 0-13.44 2.02-23.53 5.38l-12.1 4.7c-2.7-6.72-8.1-14.12-15.5-22.2l-10.1-10.08c-5.4 6.06-8.74 15.47-12.1 27.58l-2.03 16.82c-6.05 0-13.45 2.7-24.22 6.73z"/><path d="M133.8 228.4a94.3 94.3 0 0 0-22.9 8.06l-13.44 6.73c-1.35 0-2.02 1.32-2.02 2v.66l1.34 2.02c6.73 6.72 18.17 14.12 35 22.2l-.68 3.36a80.5 80.5 0 0 0 6.73 31.62l2.7 2h2.68c9.45-6.72 18.87-16.14 28.3-28.25 9.4 6.07 22.2 9.43 39 11.45l2.7-.7 1.33-2.68v-.68c-2-12.1-6.72-24.23-14.12-36.34 8.08-10.1 12.8-23.56 15.48-39.7v-.68l-.67-2.02-2.7-1.35c-8.06 0-19.5 3.38-33.62 8.76L162.73 194l-8.75-9.42-2.7-.66-2.68.65c-6.75 9.43-12.13 24.23-14.8 43.75zm3.35 6.7l3.37-3.35 2.02-14.13c2.7-10.1 6.05-18.84 9.42-24.9 10.1 8.75 17.5 18.17 22.2 28.27.67 2 2.02 2 4.03 2l10.1-4.06c7.4-2.7 14.1-4.7 20.15-5.37-3.36 15.45-8.07 26.22-14.13 33.63l-1.34 2.7.66 1.34 5.38 10.1c3.37 7.4 6.06 14.12 7.4 21.52-16.8-2.7-27.58-6.05-34.3-11.43h-2.7c-.67 0-1.35 0-1.35.67-8.08 10.76-16.15 19.5-25.57 26.24a75.2 75.2 0 0 1-4.7-25.57l.66-4.72-2.03-3.36a291.6 291.6 0 0 1-32.3-18.2c16.15-8.06 26.92-11.43 32.97-11.43z"/><path d="M183.58 249.92h-4.04c-6.73 4.7-12.78 6.73-19.5 7.4l-8.08-2.02c-2.02-.67-3.37 0-4.04 1.35 0 2 0 3.36 1.35 4.04l10.1 2a41.8 41.8 0 0 0 23.54-9.44c1.37 0 2.04-2.02.7-3.36z"/><path d="M148.6 239.15l-3.37-.67c-.67 1.35-1.35 2.02 0 2.7l4.04 7.4 6.05 11.43c0 1.37 1.35 2.04 2.7 1.37 1.34 0 1.34-1.34 1.34-2.7l-6.73-12.1-4.04-7.4zm15.46-4.7l-2.7-1.35c-2 0-2 .67-2 2l3.36 24.9 2.7 1.36c2 0 2-1.35 2-2.7l-3.35-24.22zm11.44.65c-.67-.66-1.34 0-2 1.36-2.03 4.7-2.7 11.44-2.03 20.2 0 1.33.67 2 2.02 2 2 0 2-.67 2-2-.7-8.76 0-14.82 2-18.85 0-1.32 0-2.7-2-2.7zm100.93-134.55c0-1.34-1.35-2-3.37-2-1.35.66-2.7 1.33-2 3.35 2.68 17.5 4.7 40.37 4.7 67.96.67 55.16-7.4 110.33-22.88 163.48 0 1.36 0 3.37 2.02 3.37l3.36-2c15.48-53.8 23.55-108.3 23.55-164.82-.64-28.27-2-51.14-5.35-69.3z"/><path fill="#9260C7" d="M260.95 128.8l-8.07-18.83c-6.06-11.43-12.1-13.45-18.17-8.07-6.03 6.73-3.33 12.78 7.4 18.84l18.87 8.07z"/><path d="M256.9 112.67c-4.02-9.42-8.73-14.13-14.1-16.15-3.38-.67-6.74.67-10.1 3.36-3.37 3.37-4.72 7.4-4.05 11.44 1.35 7.4 12.8 14.13 31.63 20.18l2.7-.67v-2.7l-6.07-15.46zm-22.86-2.7l-.67-1.34c0-1.35 1.34-2.7 2.7-4.7 2-1.35 3.35-2.03 6.04-2.03 4.74 1.35 9.45 8.74 14.16 22.2-13.46-4.7-20.86-9.42-22.2-14.13z"/><path d="M279.8 147.65c2-.67 2-2.02 0-3.37l-16.83-17.5c-1.35-1.33-2.7-1.33-4.04 0-.67 2.03-.67 3.38 0 4.05l17.5 16.82c.67 1.35 2 1.35 3.36 0z"/><path fill="#9260C7" d="M292.57 136.9l16.82-11.45c10.06-8.75 11.4-14.8 4-20.2-6.72-4.7-12.77-1.33-16.8 11.45-2.7 6.06-3.36 12.8-4.04 20.2z"/><path d="M320.83 113.34c0-4.04-2.02-7.4-5.38-10.1-4.7-2.7-8.07-3.36-12.1-1.34-6.74 3.36-11.45 14.8-13.47 34.32l.68 2.68h2.7c17.48-8.74 26.9-16.82 27.57-25.56zm-8.75-5.4l3.37 4.73v.67c-.67 4.7-7.4 10.76-19.5 18.16 2-14.8 6.04-22.87 10.08-24.9 1.35-1.34 4.04 0 6.05 1.35z"/><path d="M294.6 138.23c1.34-1.34.66-2.7-.68-4.04-1.35-.7-3.36-.7-4.04 1.32l-13.45 19.5c-1.35 2.03-.68 2.7.67 4.05 1.34.67 2.7.67 3.36-1.36l14.13-19.5z"/><path fill="#9260C7" d="M306.03 173.22l16.82-10.77c10.1-8.74 11.44-15.47 4.04-20.18-6.76-5.38-12.8-1.35-16.85 11.44-2.7 5.4-3.37 12.14-4.04 19.54z"/><path d="M334.3 150.34c0-4.7-2.03-8.07-5.4-10.1-4.03-3.35-8.07-3.35-12.1-2-6.73 4.03-11.44 15.47-13.46 34.3l.67 2.7 2.7.67c17.5-8.72 26.94-17.5 27.6-25.54zm-14.82-6.73l6.06.7 3.36 4.7v.7c0 4.7-6.73 10.75-19.5 18.15 2-14.12 5.38-22.2 10.08-24.22z"/><path d="M307.38 171.2c-.68-.67-2.03-.67-3.37 0l-28.23 28.93c-1.34 1.34-1.34 2.7.68 4.04.67.67 2.7.67 3.36 0l27.6-29.6c2-.68 2-2.03 0-3.37z"/><path fill="#9260C7" d="M229.33 167.16l19.5 7.4a69.04 69.04 0 0 0-8.06-18.83c-6.73-11.44-12.8-13.46-18.84-6.73-6.06 6.05-3.37 12.1 7.4 18.16z"/><path d="M230 142.27c-4.03 0-7.4 1.34-10.76 4.7-3.37 3.37-4.04 6.74-3.37 10.77 2.02 4.7 6.73 9.42 16.82 13.46l15.45 6.06 2.02-1.35 1.33-2c-6.04-18.83-13.45-29.6-21.52-31.6zm-6.73 8.07c2.7-2.7 4.04-3.36 6.06-2.7 4.7 1.36 10.1 9.43 14.8 22.9-14.13-4.72-21.53-9.44-22.88-14.82v-.67c0-1.34.68-2.7 2.02-4.7z"/><path d="M280.46 196.1c1.35-.68.68-2.02-.67-3.37l-29.6-20.18h-4.07c-.67 2-.67 3.36.67 4.04l29.6 20.82c1.36.67 2.7.67 4.05-1.35z"/><path fill="#9260C7" d="M274.4 107.28c2.7-6.73 4.72-13.46 5.4-20.18 2-12.8-1.36-18.84-10.1-17.5-8.75 1.35-10.1 8.07-5.38 20.2 2 5.37 5.38 12.1 10.1 17.48z"/><path d="M277.1 108.63c6.05-19.5 7.4-32.3 2.7-37.7-2.03-3.35-6.06-4.7-10.78-4.02-5.38 1.38-8.07 2.7-9.42 6.76-3.36 7.4.68 19.5 12.8 35l2.68 1.33 2.02-1.35zm-1.35-34.32l1.35 7.44c0 5.38-.67 11.43-3.36 18.83-6.73-9.42-10.1-16.82-10.1-22.2l1.35-2.7c.64-2 2-2.68 4.7-2.68 3.34-.68 5.36 0 6.03 1.33z"/><path fill="#9260C7" d="M318.14 212.9H304.7a75.6 75.6 0 0 0-9.44-26.9l-7.4-10.77c-8.07 7.4-14.8 19.52-21.53 35.67l-25.56 2-12.8 4.72c4.05 7.4 12.8 15.48 26.26 25.57a157.8 157.8 0 0 0-6.06 36.3c8.07-2 20.85-9.4 37.68-22.88 3.36 6.73 9.4 12.1 19.5 16.82l12.8 3.37c1.34-6.72 1.34-14.8.66-23.54l-2-11.44c9.4-6.06 16.84-14.12 24.24-24.22-4.7-2.7-12.8-3.35-22.88-4.7z"/><path d="M344.38 216.28l-2.02-2.02c-6.06-2.7-18.16-4.03-34.98-4.7-1.35-9.43-4.72-18.18-10.1-25.58l-6.73-10.76-2.02-1.35c-1.34 0-2 .67-2.7.67-7.4 7.4-14.8 18.84-22.2 34.32-6.72-.68-14.8.67-24.2 3.36l-13.47 4.04-1.34 2v2.7c4.7 7.4 13.45 16.15 25.56 25.57-3.36 10.77-4.7 22.2-5.38 34.3v.68l1.35 2.7h2.7c7.4-1.3 19.5-8.04 36.32-20.83 6.73 10.1 17.5 16.15 32.3 18.84h2.7l1.33-2.02 1.35-14.8-2.02-20.2c8.75-6.04 16.15-14.12 22.88-23.53l.7-2.02v-1.34zm-43.06-3.37c0 2.05 1.35 3.4 3.36 3.4h10.77l20.18 3.36c-6.73 8.08-13.45 14.8-20.18 19.5l-2.02 2.7v.67l1.35 6.07 1.34 14.8-.67 10.1c-14.13-4.7-22.88-10.1-26.24-18.18l-2.66-2.02-2.7 1.35c-13.45 9.42-24.2 16.15-32.3 20.18a277.53 277.53 0 0 1 5.4-30.26l.67-1.35-1.35-2.7c-10.1-7.4-18.17-14.8-23.55-21.54 13.44-4.7 24.2-6.05 32.95-4.7 1.35 0 3.37-1.35 4.04-2.7 5.36-12.78 11.42-23.54 18.15-30.94 7.4 10.1 11.43 20.85 13.45 32.3z"/><path d="M304 237.8c-.66-1.34-1.33-2.02-3.35-1.34-7.4 3.36-14.13 4.04-20.86 2.7l-7.4-4.05-4.07.7c-1.34.68-1.34 2.03.68 4.05l9.4 4.04c7.43 2 15.5 1.33 24.9-2.7 1.37-.68 2.04-1.35.7-3.37z"/><path d="M275.75 227.04l-2.7-8.75c0-.7-1.34-1.37-2.68-.7-.67 0-1.34.67-.67 2.02l2.02 8.08 3.36 13.46c0 1.34.67 2.02 1.35 1.34l2.7-2-3.38-13.46zm10.77-9.42l-2.02 2.02-2.02 22.2c0 1.35.67 2.7 2.02 2.7l2.02-2.7 2.02-22.2-2.02-2.02zm14.13 4.04h-2.7c-2.7 4.7-5.38 10.76-7.4 19.5 0 2.03 0 2.03 2.03 2.03l2.68-1.38 1.35-6.73a33.06 33.06 0 0 1 4.74-10.76c1.35-1.35.67-2.7-.67-2.7z"/><path fill="#858585" d="M87.37 297.7c-13.46 2.68-24.23 9.4-32.3 19.5-2.7 3.36-4.7 7.4-5.38 11.44l-3.4 10.1-8.07 11.42a24.98 24.98 0 0 0-5.38 11.45l-1.34 16.17c0 6.73-.67 11.44-1.34 13.46-2.02 4.05-3.37 16.15-4.04 35l23.55-5.4c10.75-4.03 18.83-8.73 26.9-13.45l15.5-1.37c8.07 1.36 14.13-.65 18.84-4 4.7-3.38 8.08-9.44 11.44-17.5l3.37-10.78 36.34-30.26c-.68-5.37-3.37-9.4-7.4-13.45-8.07-9.42-18.17-12.8-30.28-12.1l-12.1-10.77c-9.43-7.4-17.5-10.1-24.9-9.4z"/><path d="M87.37 294.33c-14.8 2.68-26.24 9.4-35 20.85-2.68 4.7-5.37 8.74-6.05 13.46l-2.7 8.74-5.37 7.4c-5.38 6.74-8.07 12.8-8.75 16.83l-.67 10.8c0 10.1-1.34 15.46-2.02 18.15-1.3 2.02-2 8.08-3.33 18.17l-.67 17.5.66 2 3.36 1.37 23.56-5.4c10.77-4.7 20.2-9.4 28.26-14.8h10.1c10.76 1.34 18.83-.67 23.54-4.03 8.07-6.06 13.46-15.48 16.15-30.28l36.34-29.6.67-2.03v-1.35a40.43 40.43 0 0 0-8.06-14.8c-8.75-9.43-19.5-13.47-31.62-12.8l-14.8-12.77c-8.75-6.06-16.83-8.08-23.55-7.4zM121 320.56c1.35.68 2.03.68 3.37.68 10.1-.68 17.5 2 24.22 7.4 4.7 3.36 7.4 8.74 10.06 13.45L123.03 371l-.68 2.02L119 383.8c-2.7 7.4-6.07 12.8-10.1 15.48-4.04 3.37-10.1 4.7-18.84 3.37L75.26 404c-7.4 4.7-16.82 9.4-26.92 13.44l-18.84 4.72c.68-17.5 2.02-26.9 3.37-29.6 1.34-2.7 2.02-8.76 2.7-19.52l.66-10.76c.67-3.37 2.7-7.4 7.4-13.46l5.4-8.07 4.02-10.1c.67-4.7 2.02-8.07 4.7-10.76 7.4-10.1 17.5-16.18 30.3-18.87 5.37-.67 12.1 1.34 19.5 6.73l13.45 12.8z"/><path d="M138.5 319.22l-1.35-2.02c-22.87 3.36-45.75 19.5-68.62 47.77-11.44 14.8-21.53 29.6-28.94 45.08-1.37 1.34-.7 2.02.65 2.7 1.34 0 2.02 0 2.7-1.36 6.72-13.48 16.14-27.6 27.57-42.4 22.88-28.27 45.08-44.4 66.6-47.78l1.36-2.02z"/><path d="M104.2 332.67c-8.76-6.73-17.5-8.74-28.27-6.06-5.38.7-10.1 2.7-14.13 5.4-.67 1.36-.67 2.04 0 2.7l2.7.7 12.77-5.4c8.75-2 16.82 0 24.23 5.4l6.05 12.1c2.02 10.1 0 20.2-5.38 30.95 0 1.34 0 2.68 1.34 2.68.7.7 2.05 0 2.05-.66 6.73-12.1 8.75-23.55 5.4-34.3l-6.74-13.47z"/><path d="M88.04 364.3l-6.73-10.1c-6.02-4.04-12.75-5.38-20.83-3.36-5.38 2.02-8.74 3.36-10.76 6.05-1.35.65-1.35 1.33-.67 2.7l2.7.63c2-2 5.37-3.36 8.73-5.37 7.4-2.02 13.46-.68 18.17 2.7l6.05 8.06c2.7 7.4 1.35 15.48-2.7 25.57-.66 1.34 0 2.7.7 3.36 1.33.68 2.68 0 2.68-1.35 5.38-11.42 6.05-20.84 2.7-28.92zm-24.9 14.8c-2.7-2.7-4.7-4.04-8.07-4.7-2.02 0-5.38.67-8.07 3.35l-4.04 3.36c-1.35.7-1.35 1.38 0 2.7.67.7 2.02.7 2.7 0l2.68-2.7c2.7-2 5.38-2.65 6.73-2.65l4.7 2.68.68 3.38 1.35 8.08c0 3.37-.67 6.73-2.02 8.75l-.67 1.35.7 2 3.36-.66c2.7-4.7 4.04-9.42 2.7-16.15l-2.7-8.74z"/><path fill="#858585" d="M339 317.2c.67-8.08.67-13.46 0-16.82-4.04-13.46-12.1-21.53-23.55-22.2-6.06 0-12.78 2-21.53 6.05-8.07 4.04-12.1 6.73-13.46 6.73l-10.1-2.02-14.8 1.35c-6.05 2-10.08 5.35-13.45 10.06a22.75 22.75 0 0 0-4 13.46 13.4 13.4 0 0 0 4.7 12.1l6.73 8.08 1.36 9.43 2 8.75c2.7 4.02 6.06 8.73 10.77 12.77l12.8 7.4c7.4 2.7 14.12 8.07 20.17 14.8 4.05 5.4 13.47 7.4 27.6 5.4 4.04-.7 9.42.66 16.82 3.35 2.02-8.08 2.7-14.13 2.02-18.85 0-2.68.67-6.05 2.02-10.76l2-11.44c0-3.36-.67-6.73-3.36-10.77l-5.37-10.77c-.68-2.7-.68-7.4.67-16.14z"/><path d="M280.46 287.6l-4.7-.68a29.74 29.74 0 0 0-21.53 0c-6.06 2.7-11.44 6.05-14.8 11.44-3.37 4.7-4.72 9.42-4.72 15.47-.64 4.04.7 7.4 2.05 10.1l5.38 6.72 4.05 4.72.67 6.72 3.37 12.1c2.7 4.02 6.05 8.06 11.43 13.44l14.13 8.07c6.73 2.7 12.8 6.74 17.5 13.47 5.38 6.05 15.47 8.74 31.62 6.72 4.04-.68 8.75.66 15.48 3.35l2.7-.67 1.33-1.35c2-8.74 2.7-15.47 2-20.2 0-2.67.7-6.04 2.04-10.08l2.02-12.78c0-2.7-1.35-7.4-4.7-14.14L341 332l.67-13.45c1.34-8.76 1.34-15.48.66-18.85-4.7-15.47-13.45-23.55-26.9-24.9-7.4 0-16.83 2.7-28.27 9.43l-6.74 3.37zm55.17 13.45l.68 5.38-2 22.2.68 5.4 4.7 9.4a17.02 17.02 0 0 1 4.05 11.45l-1.34 10.1a23.07 23.07 0 0 0-2.7 10.76v4.03l-.7 11.43-15.48-2c-12.78 2-20.85.66-24.22-4.04-6.73-8.1-14.13-13.46-22.2-15.48l-10.77-7.4c-4.7-4.04-8.07-8.08-10.1-11.44-.66-2.7-2-6.05-2.68-9.42l-.67-8.08-6.73-8.07-3.37-4.7c-1.34-2.03-2-4.05-1.34-6.74 0-10.1 5.38-16.82 14.8-20.18 5.38-2.7 10.77-2.7 17.5 0l6.72.68 10.1-4.04c11.43-6.76 19.5-8.78 24.22-8.78 10.76.67 17.5 8.07 20.85 19.5z"/><path d="M281.8 289.6c-1.34-1.33-2-1.33-2.68 0-.68.68-.68 2.03 0 3.37l17.5 21.54c12.77 18.86 22.2 39.05 26.9 61.25.68 1.34 2.02 2.02 3.37 1.34.64 0 1.3-1.35.64-2.7-4.7-22.2-14.13-43.06-27.6-62.57l-18.15-22.2z"/><path d="M314.78 298.36l-16.82.67-8.75 3.37c-11.4 4.03-18.13 10.76-20.16 21.53-1.34 6.05-1.34 10.76 0 16.14 0 .68.68 1.35 2.7 1.35 1.34-.67 1.34-1.35 1.34-2.7-1.35-4.7-1.35-8.74-.67-14.12 2-9.42 8.07-15.48 18.17-18.17l8.07-3.36 14.8-.67c4.04 1.34 6.73 4.03 9.42 8.07l2.7.68c1.34 0 1.34-.68.66-2.7-2.67-4.7-6.03-8.07-11.4-10.1z"/><path d="M312.76 317.88H302c-9.43 4.03-14.8 12.1-15.48 22.2 0 4.7 0 10.08 1.34 14.12.68 1.35 1.35 1.35 2.7 1.35 1.34-.67 2-1.35 1.34-2.7-1.35-4.03-2.02-8.06-1.35-12.1.68-9.42 4.7-15.48 12.8-19.5l8.73.66c6.06 1.37 10.77 4.7 13.46 9.45.67 1.34 1.35 2 2.02.67 2.02-.66 2.02-1.33 1.34-2.7-3.36-6.04-8.74-9.4-16.14-11.42zm10.76 26.22l-8.07-.67c-4.7 1.36-7.4 4.04-9.42 8.76-3.36 6.02-3.36 14.1 0 22.84.67 2 1.35 2 2.7 2 1.34-.65 2-2 1.34-2.67-3.37-8.76-3.37-15.5-.68-20.2 1.32-3.36 4-5.38 7.4-6.73h6.03c4.04 2.02 7.4 6.05 10.76 11.44l2.7 1.34c1.34 0 1.34-1.34.67-2.68-3.37-7.4-8.08-12.1-13.46-13.46z"/><path fill="#858585" d="M247.5 310.47c-7.4-3.36-16.15-3.36-26.25-.68-6.05 1.33-13.45 6.7-21.52 14.1-7.4 6.74-13.46 10.78-17.5 10.78l-38.35 2.67c-12.1 3.37-20.85 10.1-26.24 19.5a33.4 33.4 0 0 0-3.36 24.24c1.35 6.05 4.04 10.1 8.07 13.45l8.08 8.75 4.03 16.83a35.06 35.06 0 0 0 10.77 15.48c4.04 2.7 10.1 4.05 16.82 4.7 6.05.7 9.42 1.37 10.76 2.7l7.44 10.78c2.7 4.7 5.38 8.07 8.07 9.42 4.7 2.7 21.53 8.74 51.13 16.14a67.8 67.8 0 0 1 12.1-22.88l8.76-10.1c2.7-3.35 4.03-6.72 3.35-9.4l-2.02-15.5c-.67-4.03 0-8.73 2.02-13.44l8.08-14.13c2.02-5.4 3.36-9.44 3.36-14.8a37.27 37.27 0 0 0-5.4-14.15l-4.7-12.8v-11.42c0-5.38 0-9.42-1.35-13.46-2.7-8.08-8.07-14.14-16.14-16.83z"/><path d="M220.58 306.43c-7.4 2.02-14.8 7.4-22.87 15.48-6.7 6.1-12.1 9.45-15.45 9.45l-39.7 2.7c-10.08 3.35-18.83 8.73-24.9 16.8-4.7 6.74-7.4 14.14-7.4 22.88l.68 8.1c2.04 6.72 5.4 12.1 10.1 16.14l6.06 6.72 2 8.74 5.4 12.8c2 5.38 4.7 9.42 9.4 12.1 4.7 3.37 11.45 5.38 18.85 5.38 4.7.68 7.4 1.36 8.07 2.04l5.4 7.4c3.35 6.73 6.72 10.77 10.1 12.8 5.36 2.68 22.2 8.73 51.8 16.8 2 .68 4.02 0 4.7-2a65.43 65.43 0 0 1 11.43-21.54l2.7-3.36 8.07-9.42c1.33-3.37 2.68-6.73 2-10.1l-1.34-10.76-.68-7.4c0-2.7.68-5.38 1.35-8.07l3.37-6.06c6.05-10.78 8.74-18.85 8.74-24.9-.67-4.7-2.7-10.77-6.05-17.5-2.7-4.03-4.05-7.4-4.05-9.42v-8.74c0-8.06 0-12.78-1.34-16.82-3.35-9.4-8.73-15.45-17.5-19.5l-28.9-.67zm2.02 6.73c8.08-2.7 16.15-2.7 22.2 0 8.08 2.02 13.46 7.4 15.48 15.48l1.34 8.07v16.18l4.7 11.43c3.38 6.73 5.4 11.44 5.4 14.8l-2.02 10.77-5.38 10.76-4.04 6.73c-1.35 4.04-2.7 8.08-2.7 10.77l1.35 9.42 1.35 10.1v.66l-8.07 13.47-2.66 3.36c-5.4 5.4-9.42 12.1-12.8 20.2l-47.08-15.5-7.4-10.08-6.73-8.75c-2.68-2.7-6.72-3.38-12.78-3.38a34.75 34.75 0 0 1-14.8-4.7c-3.36-2.03-6.06-5.4-8.07-9.43l-4.04-12.1-2.68-9.44c-.67-3.37-4.04-6.06-7.4-9.42-4.04-2.7-6.73-7.4-8.08-12.12l-.67-6.73c0-7.4 2.03-13.46 6.74-19.5 4.7-6.06 12.1-10.78 20.85-13.46l37.67-2.7c6.06 0 12.8-4.03 20.2-11.44 7.4-7.37 14.12-12.1 20.17-13.43z"/><path d="M188.3 333.34c-1.36-2-2.7-2-3.38-1.34-.67 1.34-1.34 2.02 0 3.37l16.15 31.6a393.2 393.2 0 0 1 25.57 85.47c.67 2 2.02 2 2.7 2l2-2.68c-6.05-30.28-14.8-59.88-26.9-86.8l-16.15-31.62z"/><path d="M229.33 334.02c-7.4-.68-15.47 0-23.55 4.04l-12.78 7.4c-21.53 2.02-37 8.74-45.08 20.18-4.04 6.73-6.73 13.46-6.73 21.53l.64 6.05c0 1.35.68 1.35 2.02 1.35l1.35-2.7c-1.34-8.07 0-16.14 6.06-23.53 7.4-10.77 22.2-16.82 43.06-18.85l.68-.7 10.77-6.73c8.75-4.04 16.15-4.72 22.88-4.04 8.07 2 14.8 7.4 20.85 17.5.7 1.33 2.03 1.33 2.7.66l.68-2.7c-6.06-11.44-13.46-17.5-23.55-19.5z"/><path d="M254.9 385.15l.67-3.36c-10.1-14.16-22.2-20.9-36.33-21.57l-17.5 4.04c-14.13 2-24.22 8.07-30.95 17.5-6.75 10.08-8.77 20.85-5.4 33.63 0 1.35 0 2 2 1.35 1.36-.67 1.36-1.34 1.36-2l-.68-10.1c.67-8.08 2.7-14.8 6.05-20.2 5.38-9.4 15.48-14.13 28.93-16.8l16.8-3.38c12.12 0 22.88 6.72 32.3 20.18.68 1.35 1.35 1.35 2.7.67z"/><path d="M250.86 403.32c-5.38-9.42-14.13-15.48-24.9-17.5h-14.8c-10.76 2.7-18.16 11.44-22.2 24.9-2.02 6.72-3.36 13.45-3.36 20.18 0 .68.67 1.35 2.7 1.35l1.33-1.35c0-6.05 1.35-12.1 2.7-18.83 4.03-12.12 10.1-19.5 20.18-22.88l12.8.64c9.4 1.35 16.8 7.4 21.54 15.48 1.35 1.34 2.7 2 3.37.67 1.34-.67 1.34-1.35.67-2.7z"/><path d="M203.1 445.03v.68c0 1.37.66 2.04 2 2.04l2.03-2c0-4.05.67-7.42 2.02-11.46 2-8.06 6.72-12.78 12.78-13.45l.67-.66 2.02-1.34h4.7c4.72 1.34 8.75 6.05 13.47 13.45 0 .67.64 1.34 2.66.67.67-.67.67-1.34.67-2.02-4.7-9.42-10.1-14.8-16.15-16.14-4.04-.7-7.4 0-9.4 2-7.43 1.35-12.14 6.06-14.83 14.8-2.02 4.05-2.7 9.4-2.7 13.46z"/><path stroke-miterlimit="100" d="M367 582H5V5h362v577z" fill="none" stroke="#000" stroke-width="10"/></svg>