<svg xmlns="http://www.w3.org/2000/svg" width="372" height="587" viewBox="0 0 372 587"><path fill="#fff" d="M0 0h372v587H0z"/><path fill="none" stroke="#000" stroke-width="3" stroke-miterlimit="100" d="M370.6 585.26H3.9V2.74h366.7v582.52z"/><path d="M61.65 165.65c0-2-1.98-2-3.3-2-2 .67-2 2-2 3.98l15.9 56.24c8.6 42.35 9.25 77.42.65 105.2 0 2 0 3.32 1.98 3.32 1.33 1.3 3.3 0 3.3-1.36 7.95-29.1 7.95-64.84 0-107.2l-16.53-58.2z"/><path fill="#9260C7" d="M64.3 180.2l.66-19.85c-.66-13.23-5.3-17.86-13.23-14.55-8.6 2.64-8.6 9.26-1.32 19.85l13.9 14.55z"/><path d="M61.65 143.8c-3.3-1.98-6.62-2.64-10.6-1.3-5.28 1.97-7.92 4.62-7.92 8.6-1.33 4.62 1.32 11.24 7.93 19.18l11.25 11.9 2.68.67 1.32-2c2.64-19.84 1.3-31.75-4.64-37.04zm-9.26 3.98l5.92.66c3.3 2 4.63 7.28 4.63 16.54l-1.32 9.27c-9.26-9.27-13.9-16.55-13.9-21.17l.67-.67c0-1.95 1.33-3.3 3.98-4.6z"/><path fill="#9260C7" d="M61.65 212.63l-10.6-17.2c-7.92-9.93-14.54-11.26-19.84-4.64-4.6 7.24-1.3 12.54 10.6 17.2l19.87 4.6z"/><path d="M55.03 196.75c-5.3-7.94-10.58-12.58-15.88-12.58-3.97-.66-7.27 1.33-9.92 5.3-2.65 3.97-3.97 7.28-1.98 11.24 3.95 7.97 14.55 12.6 33.75 14.6l1.97-1.32.66-2-8.6-15.2zm-23.16 1.98v-1.98l1.33-4.64c1.98-1.95 3.3-2.6 5.3-2.6 4.63.65 11.24 6.6 17.86 19.17-14.56-1.98-21.84-5.3-24.48-9.92z"/><path d="M62.98 210.64c-1.33-.66-2.65-.66-3.3 0-1.34 1.32-1.34 2.65 0 3.97l14.54 13.9h3.3c1.34-1.3 1.34-1.96 0-3.3L63 210.66z"/><path fill="#9260C7" d="M86.13 231.15c-1.32 5.95-1.32 12.57 0 19.85l13.9-14.56c7.94-9.92 7.94-16.54 0-19.85-7.94-3.3-12.58 1.96-13.9 14.53z"/><path d="M101.35 213.95l-11.9 1.32c-3.32 3.3-5.96 9.93-6.63 19.85 0 6.62 0 11.9.67 16.54l1.3 2 2.63-.67 11.92-11.28c6.6-7.94 9.92-13.9 8.6-18.53 0-3.96-2.65-6.6-6.62-9.26zm2 9.26v.7c0 5.95-5.3 12.56-15.23 21.17v-5.3c0-11.25 1.32-17.86 4.63-20.5 1.32-.67 3.3-.67 6.62 0l3.97 3.96z"/><path d="M86.13 248.35c-1.32 0-1.98 0-2.64 2l-5.3 19.84c0 1.3.63 2.62 2.62 2.62 1.32.66 2.65 0 3.3-1.33l3.98-19.85c.67-1.98 0-3.3-2-3.3z"/><path fill="#9260C7" d="M66.28 262.9c-1.98-6.6-5.3-13.22-9.26-17.85-7.28-11.25-13.9-13.24-19.2-6.62-5.95 6.62-2.64 13.23 9.28 17.86 5.95 3.3 12.57 5.3 19.18 6.6z"/><path d="M46.43 232.48a10.2 10.2 0 0 0-10.58 4.62c-2.65 3.97-3.97 7.95-2.65 11.25 2.65 6.62 13.23 12.57 33.08 16.55l2-.67.65-2.64c-7.28-18.56-14.56-27.8-22.5-29.14zm-6.6 7.93c1.97-1.95 3.3-2.62 5.28-2.62 5.3.67 11.28 7.95 16.57 20.52-13.9-3.3-21.83-6.63-23.16-11.9l-.66-1.34 2-4.64z"/><path d="M68.27 260.92l-3.3-.66c-2 1.33-2 2.65-.67 3.97l15.22 17.2c1.32 1.33 2.64 1.33 3.3 0 2-1.32 2-1.98.67-3.3l-15.25-17.2z"/><path fill="#9260C7" d="M131.13 296l-9.27-17.2c-7.28-10.6-13.9-12.58-19.2-5.96-5.28 7.27-1.97 13.23 9.94 17.86l18.53 5.3z"/><path d="M100.7 271.5c-3.32 3.32-3.98 7.95-2.66 11.26 2.65 5.96 13.23 11.9 33.08 15.88l2.65-.66v-2.64c-7.94-17.88-15.22-27.14-23.16-28.46-3.93-.66-7.24 1.32-9.9 4.63zm1.97 7.95c0-1.32.67-3.3 2-4.63 2.63-1.98 3.96-3.3 5.28-2.64 4.63.66 10.6 7.27 17.2 20.5-14.55-3.3-22.5-7.27-24.48-11.9v-1.33zm96.6-181.95l-3.96.65c-11.9 15.9-23.8 36.4-34.4 63.52-20.5 53.6-26.45 109.84-18.5 167.4 0 2 1.32 2.66 2.64 2.66l2.65-3.3c-8.6-56.92-2.66-111.84 17.85-164.77 10.6-25.8 21.84-46.32 34.4-62.2.67-1.98.67-2.65-.65-3.96z"/><path fill="#9260C7" d="M193.98 106.1l15.22-12.57c8.6-9.27 9.93-15.88 2-19.85-7.3-3.98-12.58 0-15.9 12.57a187.42 187.42 0 0 0-1.3 19.85z"/><path d="M192 108.08h2.65l13.23-9.93c7.94-6.6 11.9-12.57 11.25-17.2 0-4.63-2-7.27-5.96-9.92h-11.9c-6.62 3.97-9.93 15.22-9.93 35.07l.66 1.98zM204.57 75l5.96 1.32c1.98 1.33 3.3 2.64 3.3 4.63 0 4.63-5.95 11.25-17.2 19.85.66-14.55 3.3-22.5 7.94-25.8z"/><path fill="#9260C7" d="M176.78 111.4l3.3-19.86c1.33-12.58-2.64-17.86-11.24-16.54-7.94 2-9.92 8.6-3.97 19.85l11.9 16.54z"/><path d="M178.77 75.66c-2-2.65-5.3-3.97-10.6-2.65-3.96.7-7.27 3.34-9.25 6.65-2 7.94 2.64 18.52 15.88 33.75l1.98.65 2-1.33 3.3-16.53c1.98-9.94.66-16.56-3.3-20.54zm-3.97 3.97c1.98 1.32 2.64 4.63 2.64 8.6l-2.64 17.86c-7.28-9.95-10.6-17.9-10.6-22.5v-2.67c.67-1.32 2.66-2.65 4.64-3.3 3.3 0 5.3 0 5.96 1.98z"/><path d="M178.77 111.4l-2.65-2c-2 0-2.65.67-2 2l.68 20.5c0 2 .66 2.65 2.64 2.65 1.33-.66 2.65-1.32 2.65-3.3l-1.35-19.86z"/><path fill="#9260C7" d="M152.3 151.75l-2.65-19.85c-3.3-12.57-8.6-15.88-15.88-11.9-7.94 3.96-6.62 10.58 2.65 19.85l15.88 11.9z"/><path d="M154.28 153.74c.67 0 .67-1.33.67-2l-1.33-15.87c-2.64-9.92-5.95-16.54-9.92-18.52h-11.25c-4.63 2.64-6.62 5.95-6.62 9.92 0 7.94 8.6 16.54 25.14 26.47h3.3zm-13.23-32.43c4.63 2.68 7.28 11.28 7.94 25.84-11.28-8.6-17.9-14.56-17.9-19.85 0-2 1.33-3.3 3.3-4.64l6.63-1.33z"/><path d="M154.95 150.43c-.67-1.33-2-1.33-3.3-1.33-2 .67-2.66 2-1.34 3.3l9.3 24.5c.66 1.98 1.98 2.65 3.3 1.98 2-.67 2-1.98 1.33-3.3l-9.25-25.15z"/><path fill="#9260C7" d="M201.26 123.7h19.85c13.27-1.66 17.24-7.45 14.6-16.54l-20.5-.83-13.9 17.37z"/><path d="M198.62 124.62l2.64 2c19.2 2.63 31.1.65 36.4-5.97a11.38 11.38 0 0 0 0-11.25c-1.33-4.63-3.98-7.28-7.95-7.94-5.26-.66-11.9 2.65-19.15 9.27l-11.25 11.9c-1.34.67-1.34 1.33-.67 2zm34.4-13.23a4.97 4.97 0 0 1 0 5.93c-2.65 3.3-11.9 5.3-25.8 3.96 9.26-10.58 17.2-15.2 21.83-13.9 2 0 2.65.67 3.97 3.98z"/><path d="M203.9 123.3c0-2-1.98-2.65-3.3-2l-21.83 4.65c-2 0-2.65 1.32-2 3.3 0 1.33 1.33 2 3.32 1.33l21.8-3.97c2-.63 2.65-1.96 2-3.3z"/><path fill="#9260C7" d="M184.06 157.7l19.85-.65c12.6-2 17.2-6.62 13.9-14.56-3.95-7.97-10.56-7.97-20.5.63-5.3 3.97-9.25 9.26-13.22 14.56z"/><path d="M181.4 155.72v3.3l2.66 1.33c19.2 1.32 30.44-1.32 35.73-7.94 1.95-3.3 1.95-6.6 0-11.22-2-3.96-5.3-7.27-8.6-7.27-4.67 0-11.28 3.3-18.56 9.9-4.63 4-7.94 7.96-11.25 11.93zm31.1-15.88l2.66 3.97c1.32 2 1.32 3.34 0 5.3-3.3 4.66-11.25 6.64-25.8 5.98 9.26-11.25 15.87-16.55 21.16-15.88l2 .65z"/><path d="M186.7 156.4c-1.32-2-1.98-2.66-3.96-1.35l-18.53 8.6c-1.95.67-1.95 2-.63 3.32 0 1.98 1.32 1.98 3.3 1.98l17.87-8.6c1.98-1.32 2.65-2.64 1.98-3.96z"/><path fill="#9260C7" d="M160.24 289.24l20.5-.78c12.58-1.58 17.2-7.07 13.9-16.5h-20.5l-13.9 17.28z"/><path d="M196.63 273.5c-1.98-3.97-4.63-6.62-8.6-7.28-4.63 0-11.25 2.65-19.2 9.93l-10.58 11.9v2.65l2 1.33h16.53c9.93-.67 16.54-3.3 19.85-7.28 1.32-3.3 1.32-6.62 0-11.25zm-4.63 2.65c1.32 2.65 1.32 4.62 0 5.3-3.3 4.62-11.25 5.94-26.47 5.28 9.93-10.58 16.55-15.88 21.84-15.22 1.98 0 3.97 1.36 4.63 4.67z"/><path d="M162.9 288.05c-1.34-1.32-2-1.98-3.98-1.32l-17.87 7.94c-1.98 1.32-2.65 2.64-1.98 3.97 1.32 1.98 2.64 1.98 3.3 1.32l19.2-7.93c1.32-.67 1.98-2 1.32-3.98zM299.2 121.3c-.67-1.97-2-1.97-3.32-1.97-1.98 0-2.65 1.32-1.98 3.3 2.64 22.5 2.64 47.65-1.33 74.78-8.6 55.6-30.43 97.3-65.5 126.4-2 .67-2 2-.66 3.97h4C266.8 298 289.3 255 297.24 198.75c3.98-28.45 5.3-54.26 2-77.42z"/><path fill="#9260C7" d="M297.2 127.93c2.65-6.62 3.98-13.23 5.3-19.2 1.98-12.56-1.33-18.5-9.93-17.85-8.6 1.32-10.58 7.28-5.3 19.85l9.93 17.2z"/><path d="M292.57 88.23c-5.3.66-8.6 2.65-9.26 6.62-2.62 4.63-1.3 11.25 3.34 20.5l7.94 13.9c.66 1.33 1.98 1.33 2.64 1.33l2-1.33 4.63-15.87c2.65-9.93 1.98-17.2-.66-20.52-2-3.3-5.97-5.3-10.6-4.63zm6.62 7.27l1.3 7.3c0 5.28-1.3 11.9-3.98 19.17-5.95-9.26-9.26-17.2-9.26-22.5v-2.63c1.32-2 3.3-2.65 5.95-2.65h3.98l2 1.3z"/><path fill="#9260C7" d="M309.77 150.43l15.88-12.58c8.6-9.26 9.27-15.88 1.33-19.85-7.28-3.96-12.57 0-15.22 12.58a101 101 0 0 0-2 19.85z"/><path d="M328.96 116.02l-11.9-.66c-6.62 3.97-9.93 15.88-9.93 35.07l1.98 1.98h2c16.56-9.9 24.5-19.82 24.5-27.76-.66-3.97-2.65-7.27-6.62-8.6zm1.33 8.6v.66c0 5.3-6 11.9-17.24 19.85 0-14.55 2.65-22.5 7.28-25.8l5.96 1.32c2.65 1.32 3.98 2.65 3.98 3.97z"/><path d="M311.1 148.44c-.66-1.32-2-1.32-3.3.66l-11.92 16.55c-1.32 1.32-1.32 1.98.66 3.3 1.33 1.33 2.65 1.33 3.3-.66l12.58-15.9c.66-1.3.66-2.65-1.32-3.98z"/><path fill="#9260C7" d="M312.42 198.73l18.53-7.94c11.25-6 13.23-11.94 7.28-18.56-5.96-5.95-11.9-3.3-18.53 7.94l-7.28 18.52z"/><path d="M343.52 180.86c1.33-3.96 0-7.27-3.3-10.58-3.32-3.3-7.3-4.63-10.6-3.3-5.3 1.3-9.26 6.6-13.9 15.87l-5.28 15.2v2.66l3.3.7c18.53-5.96 28.46-12.58 29.78-20.5zm-4.63-1.98v1.32c-1.35 3.97-8.6 9.27-21.87 14.55 3.97-13.9 8.6-21.16 13.9-22.5 2.65 0 3.97 0 5.96 2l2 4.63z"/><path d="M314.4 197.4c-.65-1.98-1.98-1.98-3.3-.65l-20.5 13.23c-1.34 1.98-1.34 3.3 0 3.97 0 1.32 1.97 2 3.3 1.32l19.85-14.56c1.98-.63 1.98-1.95.66-3.3z"/><path fill="#9260C7" d="M250.22 174.25c-7.27 5.3-5.95 11.25 4.64 19.2l17.86 9.9-5.3-19.18c-4.62-11.9-10.58-15.22-17.2-9.92z"/><path d="M274.7 203.36c0-5.3-1.32-10.58-3.96-16.54-2.65-9.27-6.62-15.22-11.25-16.54-4-2-7.97-1.33-11.28 1.98-3.97 3.3-5.3 6.62-4.63 9.93.66 7.9 10.6 16.5 27.8 23.8l2.64-.67c.66 0 1.32-1.33.66-2zm-23.8-27.12c2.63-2 4.62-2.65 6.6-1.34 4.64 2 8.6 9.27 11.25 23.83-12.57-6.62-19.2-11.9-20.5-17.2v-.67c0-1.32 1.3-3.3 2.64-4.62z"/><path d="M293.23 220.56c.66-.66.66-1.98-.66-3.3l-18.52-15.9-3.3.68c-1.34.66-1.34 1.98 0 3.3l18.5 15.88 3.98-.66z"/><path fill="#9260C7" d="M283.97 155.72c0-6.62-1.32-13.23-3.3-19.85-3.98-11.9-9.93-15.87-16.55-11.25-7.28 4.63-6.62 11.25 3.3 19.85l16.55 11.25z"/><path d="M283.97 139.18c-1.98-9.93-5.95-15.22-9.92-17.87-3.3-1.95-7.28-1.95-11.25 1.36-4.63 2.64-5.96 5.95-5.96 9.92.66 4.64 3.97 9.93 12.57 16.55l13.9 8.6H286l.66-1.98L284 139.2zm-12.57-13.23c4.63 1.98 7.94 10.6 9.26 24.48-12.57-7.28-18.52-13.23-18.52-18.53v-.66c0-1.32 1.32-3.3 3.3-3.97 2-2 4.63-2.65 5.96-1.32z"/><path d="M299.85 172.93c.66-.67.66-2.65 0-3.98l-13.9-15.2h-3.3c-2 1.3-2 2.64-.66 3.95l13.86 14.56 3.97.67z"/><path fill="#9260C7" d="M113.26 184.83l-12.57 2.65c5.26 8.6 14.53 17.87 28.42 26.47-6.6 11.25-9.26 25.15-9.26 41.7 12.57-2.66 24.48-9.94 37.05-22.5 3.98 7.26 9.93 13.22 17.88 18.5l11.9 4.65 3.3-26.47-.66-10.58c6.62-4.64 15.22-12.58 25.15-24.5l-23.17-5.28-13.24-2-6.6-23.15-3.33-11.24c-8.6 5.95-17.2 15.88-26.47 29.77l-28.44 1.98z"/><path d="M168.84 150.43h-3.3c-7.3 5.3-16.55 15.22-25.15 29.1l-27.8 2.66-13.25 2.6-1.33 2-.66.66.66 2c4.63 7.27 13.23 15.87 26.47 25.8-5.3 11.24-7.94 24.47-7.94 40.36l1.32 2.64 2.63.67c10.6-2.65 23.17-9.27 35.08-20.52 7.95 9.93 17.87 17.87 29.78 21.18H188l1.33-2.66c2-9.26 3.97-18.52 3.97-28.45l-.66-7.95c7.28-5.3 15.22-13.23 24.48-23.8l.66-2v-1.32l-2.64-1.33c-4.64-1.97-16.55-4.62-34.4-7.93L174.78 163l-3.98-10.58-1.98-2zm-37.72 61.53c-11.24-7.94-19.18-15.22-25.14-21.83l35.73-3.97c2 0 2.68-.66 3.34-1.33 6.62-11.24 13.9-19.85 21.17-25.8l8.6 29.1c0 2 .67 2.66 2.65 2.66l10.6 1.3 20.5 4.63-21.17 19.85-1.33 2.64.66 9.26c0 7.95-1.3 15.22-2.63 23.16-11.9-4.63-19.2-11.25-24.48-19.85l-2.66-1.97c-1.32 0-1.98.66-2.65 1.32-9.93 9.26-20.5 16.54-31.1 20.5 1.32-15.86 4.63-27.78 8.6-35.7l.66-2-1.32-2z"/><path d="M144.36 212.63l-3.97-.67c-1.35 1.33-1.35 2.64 0 4.63l8.6 5.3c7.25 2.6 15.85 2.6 24.45 0 1.33-.7 2-2 1.33-3.34 0-2-1.34-2-3.3-2H151.6l-7.27-3.95z"/><path d="M147 196.1c0-1.34-1.32-2-2.64-1.34-.66 0-2 .66-2 2l2 8.6 1.32 13.22c0 1.32.66 1.32 2 1.32l1.97-1.32-1.32-13.9-1.33-8.6zm13.24.65c-2 0-2 0-2 1.3l-4.62 21.85c-.66 1.32 0 2 1.33 2.65l2.64-2 3.94-21.82c0-.67 0-1.98-1.32-1.98zm13.23 5.3c-1.32-1.34-1.98-1.34-2.64 0-3.3 3.3-6.62 9.9-9.27 17.85 0 2 0 2.65 1.33 3.3 1.3 0 1.95 0 2.6-1.3 2.66-8.6 5.3-13.9 8.6-17.22l-.65-2.64z"/><path fill="#9260C7" d="M299.85 311.2c.66-7.27.66-17.2-.66-30.43l-3.34-17.86c5.3-3.93 13.9-14.53 25.15-31.1l-23.8-1.95h-13.9a206.38 206.38 0 0 0-9.26-23.16l-6.62-14.57a108.3 108.3 0 0 0-21.17 37.07l-27.13 3.96-14.56 3.3c5.96 7.94 13.9 15.9 25.8 23.82-3.3 9.27-6.6 22.5-9.26 41.03 9.3-2.64 23.18-9.92 40.38-21.83 3.3 6.62 10.6 14.55 22.5 21.84l15.88 9.9z"/><path d="M285.3 226.52l-8.6-22.5-6.62-13.23-2.65-2c-.66 0-1.98 0-3.3 1.3-8.6 9.93-15.9 21.84-19.86 36.4l-26.47 3.3-13.9 3.3c-.65.68-1.98 1.34-2.64 2.67v.65l.66 1.98c5.96 7.95 13.9 15.9 24.48 23.17a320.67 320.67 0 0 0-8.6 39.7l.66 2.63 2.65.67c9.96-2.65 22.5-9.26 39.7-21.18 6.65 11.23 19.2 21.16 37.08 30.42h3.3l2-2.65.66-9.24c0-13.24-1.33-25.8-4.63-37.73 5.95-5.27 14.55-15.86 24.48-30.42l.66-2v-1.3l-2-2-37.03-1.98zm-2 6.62h10.6l21.83 1.32a191.1 191.1 0 0 1-21.83 25.8c-.67 1.33-1.33 2-1.33 2.65v.7l2 13.22 2.63 25.16v3.3c-17.2-9.26-27.8-18.52-33.08-27.12l-1.98-2h-2.65c-13.26 9.94-25.17 16.56-34.44 19.87 3.3-16.54 5.96-27.8 8.6-34.4v-1.33l-1.32-1.98-21.83-19.86c13.9-3.98 26.47-5.95 35.74-5.95l3.3-2.65a109.87 109.87 0 0 1 17.2-31.1c7.3 14.56 11.26 25.14 13.24 31.76 0 1.3 1.3 2.65 3.3 2.65z"/><path d="M284.63 258.94c-.66-1.33-1.98-2-3.97-1.33-11.25 5.3-20.5 5.3-27.8 0l-3.3.7c-1.32 1.3-1.32 1.98 0 3.3l9.93 4.64c7.25 1.32 15.2 0 23.8-3.3 1.3-1.33 2.63-2.66 1.3-3.98z"/><path d="M253.53 241.07c-.66-1.32-1.98-1.32-2.64-1.32-1.36.66-1.36 2-1.36 2.65l2.65 7.94 3.3 12.57c0 2 .67 2 2 2l2-2-3.33-13.2-2.65-8.6zm13.24-1.32c-.66 0-2 .66-2.65 2l-.66 21.82c0 1.33.66 2.65 1.32 2.65l2.65-2.65.66-21.83c.63-1.33 0-2-1.35-2zm13.9 3.3c-.67-.65-2 0-2.65.67-3.3 4.63-4.64 10.6-6.62 19.2l1.98 1.98 2-1.33c1.3-8.6 3.3-13.9 5.94-17.86 1.33-.63.67-1.96-.66-2.62z"/><path fill="#858585" d="M340.88 319.15c1.32-7.27-1.33-13.23-7.28-18.53-6.62-5.28-15.88-6.6-26.47-3.3l-21.83 6.6-11.92-1.3-15.2-.67c-11.26 1.32-18.54 5.95-20.53 13.24-.66 3.93 0 7.9.67 11.9l1.32 6.6c1.32 7.3 3.97 15.2 7.94 24.5 3.3 9.9 9.26 17.2 16.54 20.5l14.56 5.3 4.63 7.92c1.35 5.95 3.34 9.92 5.98 12.57 3.3 2.64 5.96 4.63 9.27 5.3l11.25.65c5.94.67 13.9 5.3 23.14 13.23l10.6-23.18c5.28-9.92 5.94-19.18 1.97-26.46-1.96-2.65-1.96-5.95-1.3-9.93l2.65-10.6c0-2.62 0-5.93-1.33-7.9l-5.3-10.6c-.64-1.3 0-7.27.7-15.87z"/><path d="M314.4 292.03l-19.84 5.95-9.27 2.64-10.6-.66-16.55-1.3c-10.6 1.3-17.2 4.6-21.18 10.57-2 3.3-2.65 6.62-2.65 10.58l.66 7.97c0 5.96 3.3 16.55 9.26 31.76 5.3 14.57 15.22 23.17 29.78 26.48l3.3.67c.67.67 2 2 2.65 5.96 1.3 5.95 3.96 11.25 7.27 14.56 2.65 2.63 5.3 3.96 8.6 5.3l7.94 1.3h5.3c5.3.67 12.58 4.64 21.18 11.9l3.3 1.33 1.98-2.64 11.25-22.5c5.3-11.26 5.95-21.18 1.32-29.78-1.32-1.33-1.32-4.64.66-9.93l1.33-7.95c0-3.97-.66-8.6-3.3-11.9l-3.3-7.95c-.66-2.64-.66-5.95 0-9.92l.66-12.57c-.66-4.64-3.97-9.27-8.6-13.9-5.3-4.63-12.57-6.62-21.17-5.95zm-.65 6.62c7.27-.67 13.23.65 17.2 4.62 5.3 3.97 7.28 7.94 7.28 12.58l-1.33 6.6-.66 7.95.66 5.95 3.97 8.6 2.65 7.3v1.3l-1.32 7.3-2 7.93c0 2.65.68 5.3 2.66 6.6l1.32 8.6c0 4.65-.66 9.94-3.97 14.57l-9.23 19.2c-8.6-6.62-15.88-9.93-21.17-10.6h-5.97l-6.62-.66-5.93-4.66c-2-2-3.97-5.3-4.63-11.25-2-5.3-3.97-9.26-6.62-9.9l-3.96-1.35-13.23-5.3c-5.3-3.3-9.26-9.25-12.56-16.53-3.3-9.26-5.96-17.2-7.28-23.16l-1.33-7.28v-1.34l-.67-5.96c0-1.97 0-4.6 2-7.26 2.64-3.97 7.93-6.62 15.2-7.28l15.9.66 11.9 1.32 11.25-3.3c6.62-2.65 12.57-4.64 16.55-5.3z"/><path d="M277.35 301.3c-1.32 0-1.98 0-3.3 1.3 0 1.33 0 2 1.32 2.66l17.86 17.86c12.57 17.87 20.5 41.02 24.48 70.8 0 1.98 1.36 2.64 2.68 1.98l1.98-1.98c-4.62-31.1-13.23-55.58-25.8-73.45l-19.2-19.18z"/><path d="M307.13 316.5l-13.9 2c-13.23 1.97-22.5 6.6-27.13 13.9-2.64 3.96-4.63 7.92-3.96 11.23.65 1.33 1.32 2 1.98 2l1.98-2c0-3.3 1.33-5.95 3.3-9.26 4.65-6.62 12.6-9.92 24.5-11.9l13.23-2c7.94 0 13.23 3.98 16.54 10.6l3.3 1.32.67-2.68c-3.97-8.6-10.6-12.58-20.5-13.24zm8.6 23.82h-9.93c-11.9 1.33-19.85 5.96-25.14 11.92-1.98 3.3-3.3 6.6-3.3 9.92 0 1.32 0 2 1.98 2l1.32-2c.66-2 1.98-4.63 3.97-7.94 4.63-5.3 11.9-8.6 21.83-9.92l9.27-.67c5.3.67 9.92 4.64 12.57 10.6.66.66 1.32 1.32 2.65.66 1.32-.7 1.32-1.36 1.32-2.68-3.3-6.62-8.6-11.25-16.54-11.92zm3.3 24.48h-4.62c-7.9 2.66-13.9 6.63-16.5 13.25-1.34 3.3-1.34 6.6-1.34 9.26l2.65 2 1.3-2c-.64-1.96-.64-3.95.68-7.92 2.65-5.3 7.28-8.6 14.56-10.58h3.3l7.3 2.64c2.63 1.98 3.96 5.28 4.62 9.92.66 1.98 1.98 2.65 2.65 1.98l2-1.98c-1.33-5.95-3.3-10.6-7.95-13.23a21 21 0 0 0-8.6-3.3z"/><path fill="#858585" d="M49.74 308.57L45.1 321.8l-6.6 8.6a42.84 42.84 0 0 0-5.96 10.6c-1.33 3.3-1.33 7.93-.67 13.9 1.33 6.6 1.33 11.9 1.33 13.88l-3.3 9.92c-.67 3.3-.67 7.94.65 12.58 1.32 7.93 6.62 17.86 15.88 29.77 13.23-12.57 22.5-19.85 28.45-23.16 3.3-1.36 8.6-3.3 15.88-4.67 6.62-1.97 10.6-3.96 13.9-5.95 4.63-3.3 12.57-11.9 22.5-25.8l24.48-35.74-4.64-15.22c-5.3-9.93-12.57-15.88-22.5-15.88l-17.2 3.3-12.57 2.65-13.9-5.95-19.18.67a32.66 32.66 0 0 0-11.9 13.23z"/><path d="M44.45 313.86l-2.65 6.6-4.63 6.63c-3.97 4.6-6.62 8.6-7.94 12.54-1.33 4.64-1.33 9.93 0 17.2l.66 11.26-2 5.3c-2 5.95-2.66 11.9-.67 18.53 1.32 8.6 7.27 18.52 17.2 31.1.66.66 1.32 1.32 1.98 1.32l2.66-.66c12.57-12.6 21.83-19.88 27.8-23.18 2.64-.67 7.27-2.65 13.88-3.98l15.22-5.95 14.56-15.2 8.6-11.93 25.8-35.73v-2.64a39.36 39.36 0 0 0-7.93-20.5c-5.3-8.6-13.24-13.23-22.5-13.23l-19.85 3.3-9.93 2.65-5.3-2.63a80.82 80.82 0 0 0-13.22-4.65c-5.93-1.32-11.23-.66-16.52 2.64a27.18 27.18 0 0 0-10.6 10.6l-4.62 10.57zm6.6 2c2-7.96 6.63-13.9 11.93-17.88l12.57-1.33 10.58 3.97 7.94 3.3 11.9-2.63 18.54-3.34c7.97 0 13.9 3.97 18.56 11.9 2.64 4.64 4.63 9.27 5.3 15.23l-23.83 34.4c-9.25 13.9-16.53 21.84-21.82 25.15-3.3 1.98-7.94 3.3-13.9 5.3-7.27 1.98-11.9 3.96-14.55 4.63-6.62 3.3-15.88 10.56-27.12 21.8-7.95-11.24-12.58-19.18-13.9-25.8l-.66-6.6 1.98-8.6 1.32-5.3.67-5.97-1.32-8.6-.65-7.93c0-2 .66-3.98.66-5.96l6.63-10.6 5.95-7.26 3.3-7.93z"/><path d="M104 297.98c-1.33-.67-2-1.33-2.65 0l-21.83 22.5c-14.56 20.5-24.5 43.67-31.1 70.8l1.98 2.64 2.65-1.98a182.98 182.98 0 0 1 29.77-69.48L104 301.3v-3.32z"/><path d="M87.45 312.54c-10.58-3.3-19.18-2-25.14 3.3-3.3 2.66-5.92 5.3-7.25 9.27 0 .7 0 2 1.33 2.68 1.32 0 1.98 0 2.65-1.33.67-2.65 2.65-5.3 5.96-7.93 5.94-3.97 12.56-4.63 21.16-2l7.94 2c5.3 1.98 8.6 4.63 11.9 8.6 3.3 5.3 4.63 11.9 3.3 19.85-.66 1.33 0 2 1.3 2 1.35 0 2 0 2-1.33 2-9.25.67-16.54-3.3-23.15-3.3-4-7.94-7.3-13.9-9.94l-7.94-1.98zm-11.25 23.8l-4.63-.65c-6.6-1.35-13.23 1.3-19.84 5.93-3.3 2.65-6.62 5.3-8.6 8.6-.67.66-.67 1.33 0 2.65l3.3-.67 7.28-7.27c6-3.97 11.28-6.6 17.2-5.3 4 0 7.97 1.33 10.6 4.64 4.65 3.96 5.98 10.6 5.98 19.84 0 1.33.66 2.65 1.98 2.65l2-2.65c0-9.93-2-18.53-7.3-23.16a16.67 16.67 0 0 0-7.93-4.65zm-4.62 48.32c1.32-7.28.66-13.23-2-17.2-1.98-2-4.62-3.3-6.6-3.98L59 362.16c-4.63-.66-9.26.66-13.23 5.3a28.78 28.78 0 0 0-6.62 10.6c0 1.96.67 2.63 2 2.63l1.97-.7c1.33-3.3 2-5.95 3.3-7.93 3.32-4.65 7.95-6.63 11.92-5.3l3.3.65 4.64 2.65c2 3.3 3.3 7.28 2 13.9l1.3 2.64 2-.65v-1.32z"/><path fill="#858585" d="M156.27 309.23c-7.94 0-17.2 2.65-25.8 8.6-9.93 5.95-15.9 13.23-15.9 22.5-.65 6.6 0 13.23 1.34 19.84 2 5.3 2 10.6 2 13.9l-3.96 11.25c-1.32 3.97-1.32 9.27-.66 15.22 1.32 5.95 4.63 11.25 9.93 15.87 4.63 4 7.93 7.98 7.27 11.3-.66 7.27 7.94 22.5 25.15 45.64l13.25-6.6 21.17-9.27c3.98-1.34 7.3-4.64 9.94-9.93l7.28-9.92 15.88-5.95c7.27-3.3 11.9-6.62 14.55-10.6 1.32-3.3 2.64-7.93 3.3-15.2 0-5.97 2-11.25 4.64-13.9l11.9-11.25c3.98-4.65 6.62-11.26 8.6-19.2 1.33-7.94.67-16.54-4.63-23.16-3.97-6.6-9.92-9.92-16.54-11.25l-25.8.65-25.8-.66-16.55-9.95c-7.93-5.28-15.2-7.27-20.5-7.93z"/><path d="M156.27 305.92c-8.6 0-18.53 2.65-28.45 9.27-9.93 6.6-15.88 15.2-16.55 25.1a59 59 0 0 0 2 21.2l1.3 11.9-2.63 7.3c-2.65 5.92-2.65 12.53-2 20.5 1.33 6.6 4.64 12.55 11.26 18.5 4.63 3.3 6.62 5.3 5.95 7.95-.66 8.6 7.94 23.82 26.47 47.64.66 1.32 2 2 3.97 1.32l12.54-7.28c9.27-4.63 16.54-7.94 20.5-9.26l9.28-5.3 4.63-7.95 4.64-6.62 8.6-3.3 13.23-5.3c3.97-2 7.28-5.3 9.26-8.6 2-3.97 3.3-9.26 3.96-15.87 0-5.95 1.33-9.93 3.3-12.57l5.3-4L262.8 380c3.3-5.28 5.3-11.24 6.6-17.86 1.34-8.6.02-17.86-5.28-25.14-4.63-6.62-10.58-11.9-18.52-13.24-3.97-.66-11.25-.66-23.16.67-14.56.66-23.82.66-27.8-.67l-10.58-5.95c-11.9-7.26-21.17-11.23-27.8-11.9zm0 6.62c5.3.66 13.9 3.96 23.82 10.58l11.9 7.28 31.1.66c11.23-1.32 17.84-1.32 21.15-.66 5.96.66 10.6 4.64 15.22 10.6 2.64 3.96 3.96 9.25 3.96 13.9l-.66 5.94c-1.32 6.6-2.65 11.25-5.96 15.87l-8.6 8.64-5.3 5.3c-2.63 2.63-4.6 7.93-5.27 16.53-.67 5.3-1.33 9.93-3.3 12.57l-7.3 6.62-11.24 3.97-10.6 4.64c-1.98 2-3.97 4.63-7.27 9.27-2.65 5.96-5.96 9.27-9.27 9.94-7.3 2.64-17.2 7.27-31.77 15.2-15.23-21.16-23.17-34.4-23.17-41V427c0-3.97-2.64-8.6-7.94-12.56-5.3-4.64-8.6-9.27-9.27-13.9l-.66-7.3c0-3.3.67-6.6 2-9.9l3.3-9.27v-3.97l-1.98-9.93c-1.34-5.95-2-11.24-2-15.2l.66-3.98c0-8.64 5.3-15.25 14.55-20.55 8.6-5.95 16.55-7.93 23.83-7.93z"/><path d="M200.6 326.43c-.66-.66-1.98-.66-2.65.66l-14.55 30.4c-11.9 25.8-21.17 53.6-28.45 84.03 0 1.32 0 2 1.32 2.65l2.65-1.32c7.28-31.1 16.54-58.88 27.8-84.03l14.54-29.77-.66-2.65z"/><path d="M226.4 354.22c5.3 5.3 7.28 13.23 6.62 23.16-.66 1.32 0 2.64 1.32 2.64l2-1.97c1.3-11.26-1.33-20.52-7.95-26.47-7.97-7.28-20.54-10.6-37.08-9.27-17.2-9.23-33.1-10.55-46.32-4.6l-15.87 13.23c0 .68 0 1.34.66 2.66 1.3.65 2 .65 2.63-1.33L147.67 341c11.9-5.96 26.46-3.32 42.34 5.28l1.36.66 13.23-.66c9.25 1.32 16.53 3.97 21.82 7.94z"/><path d="M210.53 376.7c3.97 4 5.3 10.6 3.97 18.55 0 1.98 0 1.98 1.98 1.98l2-1.33c1.3-9.26-.68-17.2-5.3-21.83-5.96-6.62-16.55-9.92-31.77-9.26l-35.7-.63c-4.63 3.3-8.6 6.6-11.25 11.25 0 1.3 0 2 1.33 2.65.66.66 1.32 0 1.98-.66a30.55 30.55 0 0 1 10.6-9.93c8.6-5.3 19.84-4.63 31.75 1.33h1.98c13.24-.67 23.16 1.97 28.46 7.92z"/><path d="M193.32 391.28c-5.95-3.3-12.57-4.64-21.17-3.3-10.6-4-19.85-3.32-27.8 2.63-3.96 2.67-7.27 5.98-9.25 9.96-.67.66 0 1.98.66 2.64 1.32.66 1.98 0 2.64-1.33 1.33-2.65 3.97-5.3 8.6-7.94 6.62-5.3 14.56-5.95 24.5-1.98h1.3l5.97-.66c4.62 0 8.6 1.3 11.9 3.3 5.96 3.96 9.93 11.23 11.25 21.16l2 1.32c1.3 0 1.97 0 1.3-2-1.3-11.24-5.28-18.53-11.9-23.8zM180.1 420.4a13.6 13.6 0 0 0-9.94-6.63l-5.95-1.32c-8.6-2-14.53.66-19.16 5.3a18.44 18.44 0 0 0-4.63 8.6c-.66 1.32 0 1.98 1.3 1.98l2-1.33c.67-1.98 2-3.97 3.98-6.6 3.97-4 9.26-5.3 16.54-4l4.65.68c3.3 1.32 5.96 3.3 8.6 5.3 3.3 3.96 3.97 9.26 2.65 16.53 0 1.36.65 2 1.3 2 2 .68 2.66 0 2.66-1.3 1.32-8.6 0-15.2-3.97-19.2z"/><path stroke-miterlimit="100" d="M367 582H5V5h362v577z" fill="none" stroke="#000" stroke-width="10"/></svg>