<svg xmlns="http://www.w3.org/2000/svg" width="372" height="587" viewBox="0 0 372 587"><path fill="#fff" d="M0 0h372v587H0z"/><path fill="#FFE000" d="M-7.8 353.15V612.3h393.3V353.14H-7.8z"/><path d="M259.82 106c-2.1-.7-2.82 0-3.53 1.42-6.38 19.78-10.6 44.5-14.15 72.73-6.35 57.9-2.82 110.16 12 157.47 1.4 1.4 2.12 2.82 3.53 1.4 2.1 0 2.82-1.4 2.1-3.52-14.1-46.6-17.64-98.15-12-154.64 2.83-28.25 7.77-52.26 13.4-71.3 1.44-2.14.73-3.55-1.4-3.55z"/><path fill="#9260C7" d="M257 113.78l14.83-15.53c7.77-11.3 7.06-18.36-.7-21.9-9.2-2.8-14.13 2.12-14.84 16.24 0 6.33 0 14.1.7 21.16z"/><path d="M259.82 75.65c-4.24 3.53-6.35 10.6-6.35 21.18l.7 17.65 2.12 2.13h2.8l12-13.4c7.06-7.76 9.9-14.82 9.2-20.5-1.4-4.2-4.26-6.32-9.2-8.44-4.24-1.4-8.47-1.4-11.3 1.4zm14.83 9.18c0 5.65-4.94 12.7-14.83 23.3l-.7-10.6c0-9.17 1.4-15.53 4.23-17.64h6.36c3.56.7 4.97 2.1 4.97 3.5v1.4z"/><path fill="#9260C7" d="M232.28 134.96l-4.23-21.18c-5.65-12.7-11.3-16.24-18.36-10.6-7.8 4.95-6.4 12 4.9 20.5 4.96 4.22 11.3 7.75 17.67 11.28z"/><path d="M218.87 98.95c-3.53-2.12-7.06-1.4-11.3 2.12-4.24 2.82-6.35 6.35-5.65 10.6.7 4.93 5.65 11.3 14.13 17.64l15.53 8.5h2.82l1.42-3.52c-3.53-20.48-8.48-31.78-16.95-35.3zm-7.77 6.36c2.12-2.1 4.24-2.8 6.36-1.4 4.23 2.1 7.76 10.6 11.3 25.4-13.42-7.03-20.48-12.7-21.2-18.33v-.7c0-2.12.72-3.53 3.54-4.94z"/><path d="M235.1 132.84h-4.23c-1.4 1.42-2.12 2.12-.7 3.53l16.24 19.77h3.56c2.1-.7 2.1-2.1.7-3.53l-15.53-19.74z"/><path fill="#9260C7" d="M288.07 130.73c13.4-2.83 18.35-8.48 14.12-16.25-3.56-8.47-11.3-7.76-21.2.7l-14.14 16.25 21.2-.7z"/><path d="M305 113.08c-2.1-4.95-5.63-7.07-9.87-7.07-5.65-.7-12 2.86-19.77 10.6a94.5 94.5 0 0 0-11.3 13.45v2.82c0 1.42 1.4 1.4 2.82 1.4h16.95c11.3-1.4 17.65-4.22 21.18-8.47a19.56 19.56 0 0 0 0-12.7zm-4.22 6.35l-1.4 2.82c-2.84 4.95-11.3 7.06-27.55 7.06 9.88-12.7 17.65-18.33 23.3-17.62 1.4 0 2.82 1.42 4.23 3.53l1.42 4.24z"/><path d="M269 130.02c-.7-2.12-2.12-2.12-4.23-.7l-14.83 8.47c-1.42.7-2.12 2.1-.7 3.5.7 2.12 1.4 2.12 3.52 1.4l14.83-8.46c2.1-1.42 2.8-2.83 1.4-4.24z"/><path fill="#9260C7" d="M232.28 188.62l-4.23-21.18c-4.24-13.4-9.9-16.94-17.66-12-7.1 5.65-6.38 12.7 4.2 21.18l17.67 12z"/><path d="M234.4 190.75l.7-2.83c-2.8-20.48-7.05-32.48-14.1-36-3.55-2.13-7.78-1.42-12.72 1.4-3.53 2.12-5.65 5.65-5.65 10.6.7 5.64 4.94 11.3 13.4 18.35l15.55 8.48h2.82zm-26.12-27.54c0-2.1 1.4-3.5 3.53-4.9 2.85-2.14 4.97-2.84 6.38-1.43 4.95 2.12 8.48 11.3 10.6 26.84-13.42-8.5-20.48-14.83-20.48-20.5z"/><path d="M234.4 187.22c-.7-1.42-2.12-2.13-3.53-1.42-2.12 1.42-2.12 3.53-.7 4.95l10.6 13.42 4.22.7c1.4-1.42 1.4-2.83.7-4.24l-11.3-13.4zM120.72 72.12c-.7-1.4-2.12-2.1-3.53-1.4-2.15 0-2.15 1.4-2.15 3.53 9.88 24.7 18.36 55.07 26.13 90.38 16.23 70.6 22.6 134.87 19.05 191.36 0 2.1.7 2.8 2.12 3.5l2.82-2.8c4.23-57.9-2.1-121.46-18.36-193.48a697.24 697.24 0 0 0-26.12-91.08z"/><path fill="#9260C7" d="M118.6 72.83v-21.2c-1.4-13.4-6.35-18.35-14.83-15.52-8.47 3.56-8.47 10.6 0 21.2 3.53 6.37 8.48 11.3 14.83 15.55z"/><path d="M115.07 34.7l-12.7-1.42c-4.95 2.12-7.07 5.65-7.78 9.18-1.44 7.77 6.33 19.06 21.86 32.48l2.83.7 2.1-2.1c2.13-20.5 0-33.9-6.34-38.84zm-10.6 4.23h7.07c2.82 2.83 4.94 9.18 4.94 21.2l-.7 7.05c-10.6-10.6-15.54-17.66-15.54-22.6v-1.4c0-1.42 1.4-3.54 4.24-4.25z"/><path fill="#9260C7" d="M140.5 88.36l16.23-14.12c8.47-10.6 9.18-17.65 1.4-21.18-7.76-4.24-14.1 0-16.23 14.12a68.3 68.3 0 0 0-1.4 21.18z"/><path d="M158.85 50.23l-11.3-.7c-7.06 4.93-10.6 17.65-10.6 38.83l2.13 2.12h2.12l14.12-11.3c7.77-7.77 12-14.13 11.3-19.06-.7-4.95-2.83-7.77-7.77-9.9zm2.12 9.9c0 6.34-6.36 13.4-17.66 21.87 0-15.53 2.86-24.7 7.1-26.83h6.35c2.83 1.42 4.24 3.53 4.24 4.95z"/><path d="M141.2 84.83c-1.42-.7-3.53 0-3.53 2.12l-10.6 22.6c-.7 2.1 0 3.53 2.12 3.53 1.4 1.4 2.8.7 3.5-1.42l9.9-22.6c1.4-2.1.7-2.82-1.4-4.23z"/><path fill="#9260C7" d="M115.07 114.48a61.13 61.13 0 0 0-9.9-19.06c-7.74-10.6-14.8-13.42-20.45-6.36-5.64 7.06-2.1 13.42 9.9 19.07l20.47 6.35z"/><path d="M93.9 82.7c-4.25-1.4-7.78.72-11.3 4.25-2.84 4.24-4.25 8.47-2.84 12 2.83 8.47 14.13 14.12 34.6 18.36.7 0 2.12 0 2.83-.7l.7-3.5c-7.8-19.07-15.56-28.95-24-30.37zm-9.2 12.72c0-1.4.7-2.83 2.12-4.23 1.42-2.16 3.54-2.86 6.36-2.86 4.94.7 11.3 7.76 16.95 21.9-14.83-4.25-23.3-8.48-25.42-12.72V95.4z"/><path d="M116.48 112.37l-3.53.7c-1.4.7-1.4 2.12 0 3.54l21.2 14.85c.7 1.4 2.1 1.4 3.52-.7 1.4-.7 1.4-2.13-.7-3.53l-20.5-14.82z"/><path fill="#9260C7" d="M118.6 156.15l-16.24-14.13c-10.6-7.76-17.65-7.76-21.18 1.42-2.83 8.47 2.1 13.4 16.24 14.12l21.18-1.4z"/><path d="M86.83 134.26c-3.53 0-6.36 3.53-7.77 8.47-2.12 4.24-1.4 8.48.7 12 6.36 6.36 19.07 7.77 39.55 4.24l2.14-1.4-.7-3.54c-13.42-14.84-25.42-21.2-33.9-19.77zM84 144.86c.7-2.84 2.12-4.24 4.24-4.95 5.65-1.4 13.42 3.56 24.7 14.15-15.52 2.12-24.7.7-28.23-3.53-1.4-.7-1.4-2.8-.7-5.64z"/><path d="M119.3 154.03c-1.4-.7-2.82 0-3.52 1.4-.7 2.13.7 3.54 2.1 3.54l24.73 7.06c1.44.7 2.86 0 3.56-2.12 0-1.4-.7-2.8-2.12-3.5l-24.7-6.35z"/><path fill="#9260C7" d="M179.33 322.78l20.47-6.35c12-6.35 14.83-13.4 9.18-19.77-5.65-7.06-12.7-4.94-19.77 6.36-4.2 6.35-7.03 12.7-9.85 19.76z"/><path d="M179.33 324.9l17.65-4.94c9.88-3.53 15.53-7.77 17.65-13.4.7-4.25 0-7.78-3.53-11.3-3.53-4.25-7.06-6.36-10.6-4.95-5.64 1.44-11.3 5.68-16.94 15.56-2.12 4.24-4.94 9.88-7.06 15.54l.7 2.8 2.13.7zm4.23-6.35c6.36-14.12 12.7-21.9 17.66-23.3 2.1 0 3.53 1.4 5.64 3.53l2.12 4.24v2.1c-1.4 4.96-9.88 9.2-25.42 13.43z"/><path d="M181.44 320.67c-1.4-.7-2.82-.7-4.23 0l-18.33 17.66c-.7.7-.7 2.82 0 4.23 2.12 1.4 2.82 1.4 4.94 0l17.65-18.36c1.42-.7 1.42-2.12 0-3.53z"/><path fill="#9260C7" d="M151.8 128.6c7.05-4.23 12.7-7.76 17.64-12 9.9-9.88 10.6-16.94 2.83-21.18-7.07-4.94-13.42-1.4-16.95 12a165.17 165.17 0 0 0-3.53 21.18z"/><path d="M180.03 102.48c0-3.53-1.4-7.06-5.65-9.9l-12.7-.7c-4.24 2.13-7.77 9.2-10.6 19.78-.7 5.65-1.4 12-1.4 16.94l1.4 2.13h2.83c17.68-9.9 26.15-19.07 26.15-28.25zm-8.47-4.94c2.12 1.4 3.53 2.82 3.53 4.94 0 5.65-6.38 12-19.8 21.2 2.12-15.55 4.94-24.73 9.9-27.56l6.34 1.42z"/><path d="M153.2 125.78c-1.4-.7-2.12 0-3.53 1.42l-12 22.6c-1.42 1.4-.7 2.1 1.4 3.52 1.42.7 3.54.7 4.25-1.4l11.3-21.9c.7-2.12 0-2.82-1.42-4.24z"/><path fill="#9260C7" d="M89.65 288.2l10.6-19.08c4.93-12.7 2.82-19.77-6.36-20.48-9.2-1.4-12.74 5.66-10.6 19.08a134.8 134.8 0 0 0 6.33 20.47z"/><path d="M83.3 250.06c-3.54 4.24-4.24 11.3-2.12 21.9 2.1 7.05 3.53 12.7 5.64 16.94l2.83 2.1 2.12-1.4c12-16.95 16.24-29.66 12.7-36.72-2.1-4.24-4.93-6.35-10.58-7.06-4.27 0-8.5 1.42-10.6 4.24zm15.53 4.24l1.4 3.53c0 5.65-3.52 14.12-9.88 24-3.53-7.76-4.23-14.82-4.23-21.18 0-2.82.7-5.65 1.4-7.06.72-2.15 2.84-2.85 6.37-2.15 3.5 0 4.9 1.4 4.9 2.83z"/><path d="M90.36 285.37c-2.12-.7-2.83.7-3.54 2.1l-5.64 21.2c0 1.4 0 2.12 2.1 3.52 1.43 0 3.54-.7 3.54-2.85l5.66-20.47c.7-2.14-.7-2.84-2.13-3.54z"/><path d="M57.87 237.35c-1.4-.7-2.82-1.4-4.23-.7-2.12.7-2.12 2.1-.7 4.23l14.12 27.54c9.17 21.9 16.23 41.66 18.35 59.32l2.86 2.82 2.82-3.54c-2.82-17.65-8.47-38.12-18.36-60L57.9 237.35z"/><path fill="#9260C7" d="M62.82 254.3L60 233.1c-3.54-13.4-9.2-17.64-16.95-13.4-7.77 4.94-7.06 12 2.82 21.18l16.95 13.42z"/><path d="M41.63 217.58c-4.23 2.1-6.35 5.64-6.35 10.6 0 8.47 8.47 17.64 26.12 28.24h2.83l1.4-2.12-2.1-17.65c-1.42-10.6-4.95-17.66-9.9-19.78l-12 .7zm2.83 4.94c2.82-1.4 4.94-2.12 6.35-1.4 4.98 3.52 7.8 12 9.2 27.52-12.7-8.47-19.05-15.53-19.05-20.47v-.7c0-1.42 1.4-3.54 3.53-4.95z"/><path fill="#9260C7" d="M37.4 277.6l21.18 3.53a127.3 127.3 0 0 0-12.7-17.66c-9.9-9.17-16.95-10.6-21.2-2.82-4.94 7.77-.7 13.42 12.72 16.95z"/><path d="M60.7 282.54v-2.83c-11.3-18.32-20.48-26.8-28.95-26.8-3.53 0-7.06 2.1-9.88 6.35-2.13 4.24-2.83 8.48-.7 12.02 3.52 7.76 16.23 11.3 36.7 12.7.7 0 2.12-.7 2.83-1.4zm-28.95-24c5.65 0 12.7 6.35 21.18 19.06-15.53-1.42-24.7-3.53-26.83-9.18l-1.4-2.12 2.1-4.24c1.42-2.12 3.54-3.53 4.95-3.53z"/><path d="M59.3 278.3c-1.43-.7-2.84-.7-4.25 1.4 0 2.14 0 2.84 2.12 3.54l19.77 8.48c2.12.7 2.82 0 4.24-1.4 0-2.13 0-3.55-2.12-4.25L59.3 278.3z"/><path fill="#858585" d="M347.38 326.3c-2.12-2.8-2.82-6.34-2.12-10.58l-.7-12.7c-3.54-11.3-14.13-17.65-32.5-17.65-8.46-.7-16.23 2.82-24 9.88a124.72 124.72 0 0 0-9.88 9.18c-11.3-2.83-21.9-2.12-31.07 2.12-4.9 2.82-9.85 7.77-13.4 14.12l-2.8 9.17c7.76 20.48 18.35 33.9 30.36 39.55a83.8 83.8 0 0 0 19.77 7.03l.7 7.77c0 3.54.72 7.08 3.54 10.6a40.8 40.8 0 0 0 10.6 9.18l12 3.52 6.36 7.06c2.82 3.53 6.35 6.36 9.88 7.77l28.96 10.6c9.9-19.78 14.83-31.78 14.83-38.13 0-4.96-2.84-13.42-7.07-25.43-1.4-3.54-1.4-7.07-1.4-12.72v-14.82c0-3.53-1.43-7.06-4.96-9.2l-7.06-6.35z"/><path d="M348.8 314.32l-1.42-12c-3.53-14.13-15.53-20.48-35.3-20.48-12.7-.7-24 6.35-34.6 18.35l-13.42-.7c-7.06 0-13.42 2.1-18.36 4.2-6.35 2.83-10.6 8.47-14.83 15.53l-3.53 9.2v2.1c7.06 17.66 14.83 30.36 25.42 38.13 4.95 3.53 12 7.06 21.2 8.48l4.22.7v4.94c0 4.94.7 10.6 4.24 14.82 3.53 4.95 10.6 9.18 19.77 11.3l4.2 2.12 4.95 4.24c2.12 4.93 6.36 7.76 11.3 10.58l29.65 10.6c.7.7 2.84 0 3.54-2.13 10.6-19.76 15.54-33.2 15.54-39.53 0-4.95-2.13-12.7-4.95-21.9l-2.12-4.23c-.7-2.82-1.4-7.06-1.4-13.4v-13.42c0-5.66-3.52-9.9-7.76-13.42l-4.94-4.24c-1.4-1.43-1.4-4.96-1.4-9.9zm-67.1-8.48l8.5-8.47c7.75-5.65 14.8-9.18 21.88-8.47 16.24 0 26.12 4.94 28.95 14.82l.7 7.07v6.32c0 4.24.7 7.77 2.83 10.6.7 2.82 3.53 4.93 6.35 6.35 3.56 2.8 4.97 4.93 4.97 8.46v17.66l2.12 9.87 1.4 5.64c3.53 7.8 4.95 14.85 4.95 19.1 0 4.22-4.24 14.8-12.72 33.87l-26.1-9.88c-2.84-.7-5.66-3.54-8.48-7.07-2.12-3.53-4.95-6.35-7.77-7.06l-5.65-2.12c-7.77-2.12-12.7-5.65-15.54-9.18l-2.83-7.77v-5.64l-1.4-5.64c-.72-1.42-3.54-2.83-8.48-4.24-7.78-1.42-14.14-4.24-18.37-7.77-9.18-7.04-16.95-17.63-22.6-32.46l3.53-9.17c2.83-4.95 6.36-8.48 11.3-10.6 7.77-4.24 17.65-4.95 28.95-2.82 1.43.7 2.84 0 3.54-1.42z"/><path d="M338.9 399.05c-5.64-26.13-16.94-50.84-33.9-72.03l-24.7-24.7-3.53.7c-1.4.7-.7 2.1.7 2.82l24 24c16.25 21.2 28.26 44.5 33.2 70.62l2.82 1.42 1.4-2.83z"/><path d="M299.37 312.9c-3.54.7-5.65 2.12-7.07 3.53-10.6 3.53-17.65 9.18-21.18 17.65-3.53 7.07-3.53 14.84 0 22.6 0 2.12 1.4 2.12 2.82 1.4.7 0 1.42-1.4.7-2.8-2.8-7.07-2.8-13.42 0-20.48 2.83-6.36 9.9-11.3 19.78-14.84l5.65-2.82 13.42-.7c7.03 1.4 12 6.34 16.9 13.4l2.84.7c1.4-.7 1.4-2.1.7-3.52-4.94-7.77-11.3-13.4-19.77-14.83l-14.83.7z"/><path d="M340.32 348.92c-5.65-8.48-12.7-13.42-20.48-14.83l-10.6 1.4c-9.17 2.1-15.52 6.34-19.05 12.7a29.1 29.1 0 0 0-1.45 20.46c.7.7 2.12 1.42 2.83.7 1.4 0 1.4-1.4 1.4-2.8a18.7 18.7 0 0 1 1.4-16.25c2.13-5.64 7.78-9.17 15.55-10.6l9.88-.7c6.37 1.4 12 5.66 16.96 12.7h3.52c.7 0 1.4-.7 0-2.8zm-6.36 12.7h-9.88c-8.48 2.12-14.12 7.77-16.95 16.25-.7 3.53-.7 7.76 0 11.3l2.83 1.4 1.4-2.1c-.7-3.54-.7-6.37.7-9.2 1.43-7.06 5.66-11.3 13.43-13.4 2.1-.72 4.9-.72 7.74 0 4.94.7 9.18 4.94 11.3 11.3.7 2.1 1.4 2.1 2.82 2.1 1.4-.7 1.4-2.1 1.4-2.82-2.8-8.47-7.76-13.4-14.82-14.83z"/><path fill="#858585" d="M44.46 300.2c-10.6 3.52-17.66 11.3-21.2 23.3-1.4 3.52-1.4 7.77-.7 12l-.7 11.3-6.35 11.3c-2.8 4.23-4.92 7.76-4.92 10.58-.7 1.42 0 4.95 1.4 10.6.72 4.24.72 7.77-.7 12l-4.23 10.6c-1.4 2.82-.7 7.06.7 14.12 1.42 9.88 7.07 19.76 15.54 30.35 14.82-7.76 25.4-15.53 31.77-22.6 3.53-4.22 8.47-7.75 14.12-9.17l15.53-6.35 16.25-12.7c7.06-5.67 13.4-9.9 17.65-12.02 8.47-3.5 15.53-9.85 21.18-16.2 7.78-9.2 10.6-19.78 9.9-31.08l-5.7-12.7c-4.23-8.48-9.87-14.13-15.53-16.95l-40.24 2.82L72 303c-12.7-3.53-21.9-4.24-27.54-2.83z"/><path d="M43.75 296.66c-12.7 4.94-20.48 13.42-24 26.83-1.42 3.5-1.42 7.75-.7 12.7l-.72 9.2-5.65 9.85c-3.53 6.35-5.64 10.6-5.64 12.7-.7 2.84 0 6.37 1.4 10.6.7 4.94.7 8.48 0 11.3l-2.1 3.52c-1.42 4.24-2.83 7.06-2.83 9.18-.7 2.83 0 7.77.7 14.12 1.44 9.9 7.8 20.48 16.98 31.78l4.24.7c15.54-8.47 26.13-15.53 32.5-23.3 3.52-3.53 9.17-7.06 16.93-9.88l12-4.24 15.54-12c7.76-7.07 14.1-11.3 17.64-12.72 9.9-4.93 17.67-10.6 24.02-19.05 7.06-9.18 10.6-20.48 9.18-32.48l-5.65-14.12c-4.95-9.2-11.3-15.54-18.37-17.66L89 305.1h-.7c-20.5-8.47-35.33-11.3-44.5-8.47zM26.1 324.9c3.53-11.3 9.9-18.35 19.77-21.18l21.2 2.12c7.05 1.42 14.1 3.53 19.76 6.35l2.12.7 1.4-.7 36.73-2.14c8.47 3.53 14.82 12.7 19.06 26.83v4.24c0 10.6-4.94 20.47-13.42 28.24-4.23 4.22-9.88 7.75-15.53 10.57-4.27 1.42-10.6 7.06-19.8 14.12l-14.1 10.6-10.6 4.24c-9.18 2.83-16.25 7.07-20.48 12.7-4.95 5.66-14.13 12-27.54 19.8-7.8-8.5-12.03-17.67-13.44-26.14l-1.4-9.9 2.8-8.48 2.13-3.54 1.4-9.18-1.4-7.77-1.4-5.65.7-1.4 4.93-9.9 5.65-11.3 1.4-7.06-.7-10.6.7-5.65z"/><path d="M89.65 307.26h-2.83l-21.88 33.18C49.4 366.57 38.1 392 31.74 418.1l1.4 2.13 2.13-1.4c7.06-24.72 17.65-50.15 33.2-76.27l21.17-32.48c.7-.7.7-1.42 0-2.82z"/><path d="M76.23 323.5L48 324.9l-12 9.2c-.72.7-.72 1.4.7 2.8h2.82a37.1 37.1 0 0 1 9.88-8.46c9.18-4.24 17.65-4.24 26.13-.7l12.7.7c8.48 2.1 15.54 5.64 20.48 9.9 6.4 7.05 9.9 16.22 8.5 28.23l1.4 2.1 2.84-2.1c.7-13.42-2.82-24-9.88-31.07-5.65-4.94-12.7-8.48-21.18-10.6l-14.13-1.4zm6.37 35.3c-4.25-3.53-8.48-6.35-14.84-7.06H59.3c-7.78-2.12-14.84 0-22.6 4.94l-10.6 9.18c-.7 1.4-.7 2.82.7 3.53l2.83-.74 9.18-8.47c7.1-4.94 14.15-6.35 20.5-4.94h7.77a35.92 35.92 0 0 1 12.7 6.35c4.96 4.96 7.07 12 6.37 21.9 0 1.4.7 2.8 2.12 2.8l2.1-2.8c.02-10.6-2.1-19.06-7.75-24.7zm-62.15 36c-.7.72-.7 2.12.7 2.84H24l5.65-5.65c4.94-3.56 9.18-4.98 14.12-3.56h3.53l5.65 3.53c2.83 2.8 3.53 7.05 2.83 12.7-.7.7 0 2.1 2.1 2.82l2.13-2.1c1.4-7.08 0-12.04-3.52-15.57-1.4-2.8-4.94-3.53-7.76-4.93l-4.23-.7c-5.66-.7-11.3 0-16.96 4.24l-7.05 6.36z"/><path fill="#858585" d="M241.46 321.38c-9.18-.7-18.35 1.4-27.53 4.93l-21.2 5.7-22.58-3.54c-9.9-2.13-19.07-2.13-26.13 0-12 2.12-20.48 8.47-26.13 19.06a49.64 49.64 0 0 0-4.97 28.96c.7 6.35 2.83 13.4 5.65 20.48 3.52 5.65 4.93 11.3 4.93 14.12v15.54c0 6.34 2.84 12.7 7.08 18.35 4.95 4.94 9.9 9.18 15.54 11.3 5.65 2.12 9.18 4.94 10.6 5.65l5.64 9.88 14.12 9.88 29.66 15.54c17.65-11.3 29.66-20.48 35.3-27.54 2.12-3.53 4.95-7.76 5.65-12 1.42-4.95 2.84-9.18 4.96-11.3l9.88-12c2.12-4.24 4.24-8.48 4.94-14.13.7-4.23.7-8.47-.7-12.7-1.4-4.95-2.13-9.18-1.4-12 0-2.84 2.1-8.48 4.92-17.66a53.9 53.9 0 0 0 4.95-21.9c0-21.9-10.6-32.5-33.2-34.6z"/><path d="M176.5 326.3l-33.9-1.4c-12 2.12-21.18 8.48-27.53 19.07-4.94 9.18-7.06 21.18-5.65 33.2.7 6.34 3.53 14.1 7.06 21.88l3.53 12v19.78c1.44 5.65 4.27 10.6 8.5 16.24 5.66 6.36 12 10.6 19.07 14.13l6.35 3.52 3.54 4.94c4.24 6.36 9.9 12 17.66 15.53l28.93 14.8h3.53c18.36-10.6 30.36-20.48 36-27.54 3.54-4.25 5.66-9.9 6.37-14.84 1.4-3.53 2.82-7.07 4.94-9.18l9.87-12.72c2.83-4.94 4.94-9.88 5.65-14.82.72-4.93.72-9.17-.7-14.82l-1.4-10.58c0-2.13 1.4-6.36 3.52-12.72 3.53-9.88 6.36-19.06 6.36-26.82 0-11.3-3.53-20.48-9.9-26.84-5.64-6.36-14.82-9.9-26.82-11.3-9.9-.7-21.2 1.4-33.2 6.36l-16.23 4.24-15.53-2.13zm84.74 71.34l1.4 10.6 1.42 7.05-.7 4.2-4.25 12.7-9.14 11.3c-3.53 3.54-4.95 7.8-6.36 12.7-.7 4.97-2.83 8.5-4.95 12.03l-32.48 24.7-27.54-14.1c-7.06-3.54-12-7.78-14.83-13.42l-4.95-5.65a25.44 25.44 0 0 0-8.47-5.64c-6.36-2.8-12-6.34-16.24-11.3-4.95-6.35-7.07-12-7.07-17.65v-14.12c0-4.23-1.4-9.17-4.23-14.82-4.24-8.46-6.36-14.82-6.36-19.76v-4.95c0-23.3 9.18-36.7 27.54-39.54l16.24-1.4 14.83 2.8 17.62 2.13 18.36-4.95c10.6-4.24 20.47-6.35 30.35-5.65 19.07 1.43 29.66 12 29.66 30.38v.7c0 6.36-2.1 14.13-5.65 24.02-2.82 7.05-4.23 12-4.23 15.52v2.12z"/><path d="M194.15 331.27c0-.7-.7-1.42-2.12-.7-2.1 0-2.1.7-2.1 2.1l6.34 37.43c4.24 31.07 6.36 61.43 5.65 91.8 0 2.1.7 2.82 2.12 2.82l2.12-2.82c.7-30.37-2.12-60.73-5.65-92.5l-6.33-38.13z"/><path d="M240.05 351.03c-7.06-4.94-16.24-6.35-28.24-6.35l-16.2 2.82c-21.2-2.82-37.44 2.82-48.73 14.83-6.36 7.06-9.9 13.4-11.3 20.47 0 .7 0 1.42 1.4 2.13l2.83-1.42a32.6 32.6 0 0 1 10.6-18.33c9.87-11.3 25.4-16.23 45.2-13.4l.7-.72 14.8-2.1c10.6-.72 20.5.7 27.55 5.63 7.77 4.95 12 12.72 14.12 23.3.7 2.12 1.42 2.12 2.82 2.12s1.4-.7 1.4-2.83c-2.1-12-7.77-21.18-16.95-26.13z"/><path d="M231.58 376.45a37.33 37.33 0 0 0-21.2-6.35l-11.28 2.1c-15.54-1.4-28.25 4.96-38.84 17.66-5.65 6.36-9.18 12.72-12 19.08 0 2.1 0 2.82 2.1 2.82l2.13-.7c2.1-6.37 5.62-12.72 11.3-19.07 9.15-11.3 21.15-16.28 35.3-16.28l10.6-1.4c8.44 0 14.8 2.1 19.74 5.64 6.35 3.53 10.6 10.6 12.7 19.07 0 2.1.7 2.1 2.13 2.1l2.1-2.8c-2.82-9.9-7.05-17.66-14.82-21.9z"/><path d="M228.75 406.1c-4.94-2.82-11.3-4.22-17.65-4.93l-9.88.7c-11.3 0-21.9 4.24-31.78 14.83a75.62 75.62 0 0 0-10.6 15.53c0 1.42 0 2.12 1.42 2.83l2.83-1.4a79.72 79.72 0 0 1 9.15-14.13c9.17-9.2 18.36-13.42 29.65-13.42l8.5-.7c6.34.7 11.3 2.14 15.52 4.26 5.65 3.53 9.18 9.18 10.6 16.95.7 1.4 2.1 2.1 2.82 1.4l2.1-2.1c-2.1-9.2-6.34-15.54-12.7-19.78z"/><path d="M186.4 443.53c3.52-6.35 9.16-9.88 17.64-9.88h4.24c4.23.7 7.06 2.82 9.88 4.24 3.53 3.5 5.65 8.43 5.65 14.8 0 1.4.74 2.1 2.15 2.1l2.12-2.8c0-7.06-2.83-12.7-7.07-17.66-3.54-2.12-7.07-4.23-11.3-4.94h-6.36c-9.88 0-16.95 4.26-20.48 12.73-2.82 4.23-3.53 8.47-3.53 12.7 0 1.4 0 2.1 2.12 2.1l1.4-2.1c.72-4.22 1.43-7.76 3.55-11.3z"/><path fill="#9260C7" d="M114.36 214.05l-13.4 4.94c2.1 7.03 7.76 14.8 16.93 23.3l12.7 9.15c-1.4 10.6 0 22.6 2.1 38.13 7.77-3.54 19.77-13.43 36-29.67 7.1 7.07 18.37 12 33.9 13.43.7-5.65.7-13.42-1.4-22.6l-2.83-11.3c8.46-9.18 16.23-20.47 23.3-36l-26.84.7-12 1.4-9.9-19.05-7.76-14.82a104.7 104.7 0 0 0-24.7 38.83l-26.14 3.55z"/><path d="M112.95 211.23l-12.7 4.23c-1.42 1.4-2.83 2.12-2.83 3.53l.7.7c2.12 7.04 6.36 14.1 13.42 21.16l15.53 12.7-.7 3.54c0 9.9.7 20.5 2.82 32.5l2.1 2.82h2.8c8.5-3.53 19.8-12.72 34.6-27.54 7.78 5.64 19.08 10.58 33.2 12 2.1 0 3.53-1.42 4.24-2.83l.7-7.06c0-7.08-2.1-15.55-4.23-26.85 7.77-8.47 15.54-21.18 21.9-35.3l.7-1.4-.7-2.13-2.83-1.42-36.73 2.13L168 170.26l-2.82-2.12c-.7 0-1.4.7-2.82 1.4-10.6 10.6-18.36 22.6-24.72 37.44l-24.7 4.23zm21.2 40.24l-2.14-2.83c-13.4-8.46-22.56-18.35-26.1-27.53a86.22 86.22 0 0 1 34.6-7.03l3.54-2.12a82.64 82.64 0 0 1 20.48-33.9L179.34 207c0 2.1 2.1 2.8 4.23 2.1l9.9-.7 21.88-1.4c-5.65 12.7-12 22.58-19.77 29.65l-.7 2.82v.7l2.1 9.18L199.8 267l-.7 2.12c-12.7-2.1-22.6-5.64-28.25-11.3-2.1-1.4-2.82-1.4-4.94 0l-29.63 26.13c-2.1-8.47-2.1-16.94-2.1-26.82v-5.66z"/><path d="M185.68 237.35c-.7-1.4-2.12-2.12-3.53-.7-12 7.05-21.9 8.46-30.36 3.52-1.44-1.4-2.85-.7-3.56.7-.7 1.42-.7 2.84.7 4.24l10.6 2.86c8.47 1.4 16.94-1.4 25.4-7.06 1.43-.7 1.43-2.13.72-3.54z"/><path d="M150.38 222.52l-2.83-.7c-.7.7-1.4 1.4-.7 2.82l3.52 7.77 4.95 13.44c0 1.42 1.4 1.42 2.82 1.42s2.12-1.42 1.42-2.83L154.6 231l-4.22-8.48zm16.24-1.42l-2.12-2.1c-2.12 0-2.83.7-2.12 2.82l1.4 24 2.13 1.42 2.15-2.13-1.4-24zm12.7 0c-.7 0-2.1 0-2.82 1.42-2.12 4.23-4.24 11.3-4.24 21.18 0 .7.7 2.12 2.12 2.12l2.12-2.12c0-9.18 2.12-15.53 3.53-19.77l-.7-2.82z"/><path fill="#9260C7" d="M292.3 251.47c5.65 8.47 16.24 14.12 31.78 19.07 2.12-5.65 2.12-12.7 2.12-23.3l-2.12-14.13c7.77-4.9 16.94-14.1 26.83-26.1-6.32-3.52-14.8-5.64-24.7-5.64h-13.4c-2.12-7.06-6.35-16.25-12-27.54l-8.5-14.12a62.83 62.83 0 0 0-16.92 29.66c-.7 6.35-1.42 11.3-1.42 15.54-9.17.7-19.06 3.53-30.36 9.18l-12.7 7.06c4.22 8.48 14.1 15.54 29.64 19.07-2.12 10.6 0 24.7 4.24 40.96 9.17-4.95 18.36-14.13 27.53-29.66z"/><path d="M354.44 205.57l-2.12-2.1c-9.88-4.96-21.9-7.08-36.72-5.66a170.3 170.3 0 0 0-12.7-26.1l-7.77-14.12c-.7-1.42-2.12-1.42-2.83-1.42-.7-.7-1.4 0-2.82 1.42-11.3 12-18.36 26.83-19.07 43.78a93.8 93.8 0 0 0-28.2 9.18l-13.43 7.06-1.4 3.52v1.42c4.94 9.18 14.82 15.53 29.65 19.77l-.7 5.66c0 10.6 1.4 21.9 4.95 33.9l2.1 2.1h2.84c8.47-4.22 17.65-12.7 26.83-26.1 6.37 6.35 16.96 12 30.37 16.23h2.82l1.4-2.13 2.13-16.95-1.4-20.47c7.75-4.94 16.23-14.12 24.7-26.12l1.4-1.4v-1.4zm-74.84-14.82c2.1-9.9 6.35-17.66 12-24.72 9.88 16.24 15.53 28.25 17.65 36 .7 2.14 1.4 2.84 4.24 2.84h10.56l21.18 3.53c-9.18 10.6-16.94 17.65-22.6 21.18a3.88 3.88 0 0 0-2.1 3.53l2.1 21.9-1.4 10.6c-13.42-4.22-21.9-9.9-25.43-15.52l-2.8-2.12c-1.4 0-2.1.7-3.53 1.4-7.06 12.02-14.83 20.48-22.6 26.14a101.57 101.57 0 0 1-3.53-27.55l.7-7.77-2.8-3.53c-12.02-3.53-20.5-7.76-25.43-14.12 14.13-8.47 27.54-13.42 38.84-14.12l2.83-3.5v-.7c0-4.25.7-8.5 2.12-13.43z"/><path d="M310.66 228.88c-.7-.7-2.12-.7-3.53 0l-7.77 4.23h-21.9c-2.1-.7-3.52 0-3.52 1.44-.7 2.12 0 2.83 1.42 3.53 9.88 2.83 18.36 2.83 26.83.7l8.44-5.64c2.12-1.4 2.12-2.8 0-4.22z"/><path d="M306.43 209.8c-1.42-.7-2.12 0-2.12 2.13l-1.4 9.18-2.1 14.15c0 1.4.7 1.4 2.1 1.4l2.1-1.4 1.45-14.12 2.1-9.17c0-.7 0-1.4-2.1-2.12zm-14.13 3.54c0-1.4-.7-1.4-2.82-1.4-.7 0-1.4.7-.7 2.1l4.23 23.3c0 1.42.74 2.13 2.15 2.13l1.4-2.83-1.4-12.7-2.83-10.6zm-4.23 23.3c-2.83-8.47-6.36-15.53-9.9-19.06h-2.8c-.72.7-.72 1.4 0 2.82 2.8 3.53 6.34 9.18 8.46 17.65.7 1.42 1.4 2.12 2.83 1.42l1.4-2.83z"/><path fill="none" stroke="#000" stroke-width="3" stroke-miterlimit="100" d="M370.6 585.26H3.9V2.74h366.7v582.52z"/><path stroke-miterlimit="100" d="M367 582H5V5h362v577z" fill="none" stroke="#000" stroke-width="10"/></svg>