<svg xmlns="http://www.w3.org/2000/svg" width="372" height="587" viewBox="0 0 372 587"><path fill="#fff" d="M0 0h372v587H0z"/><path fill="#FFE000" d="M2.37 482.42V599.8h371.5V482.42H2.37z"/><path d="M185.8 285.66c-.68-1.33-2.68-2-4.02-.66-2 .66-2 2-.66 3.33l22 53.36c14 40 16.68 73.34 10 100-.65 2 0 2.68 2 2.68 1.35.66 2.68 0 3.35-1.35 7.33-27.34 4-61.35-9.34-102.03l-23.34-55.37z"/><path fill="#9260C7" d="M183.12 287l-4-20c-4-12.02-10-15.35-16.68-10.7-6.67 4.7-6 11.36 4 19.36l16.7 11.34z"/><path d="M185.8 287c-2.68-20-6.68-31.35-13.35-34.7-3.34-2-7.34-1.32-11.34 1.35-4 2.66-6 6-6 10 .7 5.34 4 11.34 12.7 17.35a98.4 98.4 0 0 0 14 8.66l2.67-.66 1.34-2zm-25.36-23.35c0-2 1.34-3.33 3.34-5.33 2-1.33 4.66-2 6-1.33 4.67 2.63 8 11.3 10 25.3-12.67-7.33-18.67-14-19.34-18.67z"/><path fill="#9260C7" d="M202.46 301l13.34-16c6.67-10.67 5.33-17.34-3.33-20-8-2.02-12 3.32-12 16 0 6 .66 12.67 2 20z"/><path d="M200.46 301.67l2 2 2.67-.67c13.34-14 19.34-24.67 17.34-32.68a13.1 13.1 0 0 0-8.67-8c-4.67-.67-8-.67-11.34 2.67-6 5.3-6.67 17.3-2 36.65zm5.33-33.35l6.65-.66c2.66.66 4 2.66 4 4l.66 2c0 4.67-4.65 12-12.66 21.34l-1.33-14c0-6 1.34-10.68 2.67-12.68z"/><path d="M203.13 298.34c-1.34 0-2.67.66-3.34 2L196.43 323c0 1.35 1.33 2.02 2.67 2.68l3.34-2 3.33-22c0-1.34-.67-3.34-2.67-3.34z"/><path fill="#9260C7" d="M180.45 329.68L169.1 313c-9.32-10-16-11.33-20-3.33-4.67 7.34-.66 12.68 11.34 16.68l20 3.33z"/><path d="M146.44 307.68c-2 4.66-2.67 8.66-.67 12 2 4 8.67 7.34 18.67 10l16 2 2-1.33v-2.66l-9.32-14.04c-6-7.34-12-11.34-17.35-12-3.33 0-6.67 2-9.33 6zm3.33 9.33v-2l1.33-4c1.34-2.64 3.34-4 4.67-4 5.34.7 12 6.7 20 19.36-14.66-2-23.33-4.66-26-9.33z"/><path d="M181.78 327.02c-2-1.34-2.66-.67-3.33.67-1.33 1.96-.67 3.3.67 4l26 12.64c1.34.67 2.67 0 4-1.34 0-1.32 0-2.65-1.33-3.32L181.75 327z"/><path fill="#9260C7" d="M191.12 397.05c-4.67-5.34-9.34-10-14.67-13.34-10.67-8-17.34-7.3-20 0-3.34 8 2 13.37 14.66 14.04l20.04-.67z"/><path d="M162.44 375.04c-4 .66-6.67 3.33-8.67 8-1.33 4.67-1.33 8 1.34 11.34 4.7 6 16.7 8 36.7 6l2-2-.66-2.67-11.34-12c-8-6.64-14.68-9.3-19.35-8.64zm-3.33 16c-.64-2-.64-4 0-6 .7-3.33 2.7-4.67 4-4.67 5.36-.67 12.7 4 22.7 14.68-14.7 1.33-23.34-.67-26.7-4z"/><path d="M191.8 394.38c-2 0-2.68.67-3.35 2.67 0 1.33.67 2.66 2 2.66l28.02 7.37c1.33.67 3.33 0 3.33-2 .67-1.33 0-2-2-2.67l-28-8z"/><path fill="#9260C7" d="M239.14 318.35l-7.33-10.67c-6 6.67-12.64 18.66-19.3 34-6.68 2-15.35 6.02-24.7 10.68l-12.7 6 33.37 18.68c0 5.33.67 16 4 31.35l16.68-13.37 10.67-8.68c7.36 5.34 18.03 10.68 32.04 14.68.66-4-.67-10.67-4-21.35l-4.7-14.68c4-2.67 10-12 18-28l-21.33-1.34-10.67 1.32-10-18.67z"/><path d="M231.8 304.34l-2.66.67c-6.67 8-12.67 19.37-19.34 34.7l-24 10c-7.35 3.33-11.35 5.34-12.7 6-.65.67-1.32 1.34-1.32 2.68l1.33 2.67 32.05 18c.66 6 1.33 16 4 30l2 2.68 3.33-.66 25.35-20.68c8 6 18.7 10 31.36 14l2-.67 2-2v-3.34c0-8-2.68-18.7-8-32.03l10-15.33 6.66-12.67.67-1.34-.67-2-2-1.33c-8-2-18-2-30.68 0l-10-18.03-6.68-10-2.67-1.34zm14 33.35c.68 1.96 2 2.63 3.35 2.63l9.33-.67h17.35c-6.67 12.68-10.68 20.68-14 22.68-1.34.67-2 1.34-2 2.67v1.34c5.32 13.34 8 23.35 8.66 30.02-12.04-3.34-20.7-8-26.04-12.67-2-2-3.34-2-4.67 0l-22.68 19.34c-2.66-12.67-3.33-21.34-3.33-26l-2-3.35-10-5.34-18.03-10c14-6 24-10.67 31.35-13.34l2.67-2c5.32-12.68 10-22 16-29.35 7.33 11.34 12 19.33 14 24z"/><path d="M249.82 363.7a4.24 4.24 0 0 0-4 0c-5.34 6-13.35 7.34-24.7 4-2-.67-2.65-.67-3.32 2 0 1.34 0 2 1.33 3.33 8.67 2 16 2 22.68 0l8.04-5.32c1.33-1.32 1.33-2.65 0-4z"/><path d="M245.8 347.7c-.66 0-1.32 0-2 2l-1.32 7.33-1.34 12.67c0 .67.67 1.34 1.34 1.34l2.66-1.34 2.67-19.34c.7-.67 0-2-2-2.67zm-11.33-.68c-.66-.67-2-1.33-2.66-.67-1.3 0-2 .67-1.3 2l2 8.68 2 14.67c0 2 .66 2 1.33 2l2.68-2.66-2.66-14.68-1.33-9.34zm-12 7.35h-3.33c-.67.66-.67 2 0 2.66 3.33 3.33 5.33 8 7.33 15.34l2.67 1.33c1.33 0 2-1.33 1.33-2.66-2-7.34-4.66-13.34-8-16.68zM111.75 341.7c-1.33 0-2.67.65-3.33 2v29.33c1.33 21.35 6 42.03 14.67 60.7l3.3.67c2-.67 2-2 2-3.33-8.66-17.35-14-37.36-15.33-59.37l1.32-26.67c0-2-.68-3.34-2.68-3.34z"/><path fill="#9260C7" d="M110.42 359.7l8-18.67c4.67-12.68 2-18.02-6.67-18.68-8.67-.67-11.33 5.34-8.67 18 2 6.67 4.67 12.67 7.34 19.34z"/><path d="M111.75 319.68c-4 0-8 1.34-10 4.67-4.67 6.67-2 18.67 6.67 36.02l2 1.33 2.67-.67 6.64-14.68c4-10 4.66-16.67 2-21.33-2-4-5.34-5.34-10-5.34zm0 5.34c2 0 3.34.66 5.34 2l1.3 4c0 6-2.67 13.34-7.34 22.68-4.66-9.34-6-16.68-6-21.35l1.34-5.33c1.34-2 3.34-2.67 5.34-2z"/><path fill="#9260C7" d="M123.1 379.7l18.67-9.33c10.67-6.67 12.67-13.34 6-19.34-6-5.34-12.67-2.67-18 9.33-3.34 6-4.68 12-6.68 19.34z"/><path d="M149.1 349.7c-3.33-3.35-6.66-4.68-10.67-3.35-7.33 2-13.34 13.34-18 32.02l1.33 2.67 2.67.67c18-6.64 28-14 29.34-22 1.33-3.32-.67-6.66-4.67-10zm-3.33 4l3.33 4-.66.66c-.67 5.34-8 10.67-21.34 16 4-14 8-21.34 12.67-23.33 2-.67 3.33 0 6 2.66z"/><path d="M125.1 377.04l-4 .67-10 12.7c-1.35 2-1.35 3.33.65 4l3.34-.67 10-12.66c1.3-1.34 1.3-2.67 0-4z"/><path fill="#9260C7" d="M101.08 387.7l-8.67-18c-7.3-11.34-14-12.67-19.3-6.67-5.35 6.67-2.68 12 8.66 18 6 2.68 12.67 5.34 19.34 6.68z"/><path d="M81.74 357.03c-4-.67-7.34.67-10.67 4-2.67 3.34-4 7.34-2.67 10.67 2.67 8.67 13.34 14.67 32.02 18.68l2.66-.67v-2.64c-.66-4-2.66-9.33-6.67-15.34-4.64-8.66-10-14-14.64-14.66zm-8.67 12c0-1.32.67-2.67 2-4.66a8.43 8.43 0 0 1 6-2.67c5.34 2 10.67 8.67 15.34 22-13.3-4-21.3-8.66-23.3-13.33v-1.34z"/><path d="M103.08 385.7l-4 .67-.67 1.34 1.37 2 12.67 10.7c2 .67 2.67.67 4-.67.67-1.32.67-2.65-.67-4l-12.67-10z"/><path fill="#9260C7" d="M301.84 384.38l10-17.35c4.67-12 2.67-18.67-6-19.33-8.67-.68-12 5.32-10 17.33a93.33 93.33 0 0 0 6 19.35z"/><path d="M315.85 351.03c-1.34-3.33-4.67-6-10-6-4.68-.67-8 1.32-10 4-5.35 6-4.02 18.68 3.32 36.68l2.67 1.36c.66.67 1.33 0 2-.67 11.34-16 15.34-28 12-35.35zm-10-.67c2.66 0 4 1.33 5.32 3.33l.67 2.64c0 4.67-3.33 12-9.33 22.68-3.3-8.67-4-15.34-4-20.68 0-2.67.7-4.67 1.36-6.67 1.33-1.34 3.33-1.34 6-1.34z"/><path d="M301.84 381.7c-2 0-2.67 1.34-2.67 2.68l-2 36a2.86 2.86 0 0 0 2.67 2.68c2 0 2.67-1.33 2.67-2.67l2-35.38c0-2-1.3-3.33-2.64-3.33z"/><path fill="#9260C7" d="M322.5 400.38a88.4 88.4 0 0 0 14.02-13.34c8.67-10 9.34-16.67 1.33-20.68-8.67-3.33-13.34.67-15.34 14a103 103 0 0 0 0 20.02z"/><path d="M321.18 403.05h2.67c15.34-12.67 22.68-22.68 22-30.02 0-4-3.33-6.67-7.33-9.33l-11.33.67c-4.7 2.66-6.7 9.33-8.04 19.34v16.7l2 2.67zm19.34-29.35c0 5.34-5.33 12.67-16 21.35v-2.67c0-12.68 2-20.68 5.33-24l6 .65 4.67 4.67z"/><path fill="#858585" d="M159.1 465.08c4.68-8.68 6.68-18 4.68-27.34l-4-8.02c-4-6.67-10-11.33-18.68-14.66l-24.68-2-8 2.66c-10-8.67-20-14.67-28.68-16-13.34-2.67-22 .66-26.68 10.67l-3.34 12.63-4.67 8.02-8.66 6.67c-3.37 2.66-4.7 6.67-6.04 12l-.66 14.68c.67 5.33-.66 8.67-2 10.67l-6.67 8c-2.66 2.67-4 6.67-4.66 10.68-1.34 6.67 0 16 4 25.34 11.34-.68 21.34-2.7 30-8 7.35-3.35 12.02-6 15.35-7.36l16-.67 16.68-1.34c4-1.33 8.02-4.67 11.35-10 3.34-4 8.67-5.34 16.68-5.34 9.33 0 16-2 18.67-4a48.8 48.8 0 0 0 14-17.35z"/><path d="M167.78 445.73l-.67-8-4.64-10.67c-4-6.67-10.67-12-20-14.68-13.35-5.33-24.7-5.33-34.02-.66-10-8.68-18.68-14-28.68-15.34-14.68-2.67-24.68 1.34-29.35 12.67l-3.33 10.67-4.67 8.68-4 3.33c-6.03 4.66-10.03 10-11.36 16.67-.67 4-.67 8.67-.67 14.67l-1.33 10-2.67 2.68c-5.33 5.34-8.67 11.34-9.34 18-2 6.68 0 16 4 26.7l3.34 1.98c12-.66 22.68-3.33 31.35-8 6.66-4 12-6.66 14.67-7.33l15.32-.67 18-2 13.35-10.67c2-2.67 6.66-4 15.33-4l9.34-.67c4-.7 7.34-2 9.34-4l12-13.37c6-8 8.68-17.34 8.68-26.02zm-28-27.34c8 2.64 13.32 6.64 17.33 12 2 3.3 2.7 6 3.36 8 2 10 0 19.33-5.33 28l-12 13.33c-2 1.34-7.34 3.33-14.67 3.33l-11.34.67c-4 1.34-7.34 3.34-9.34 6L97.1 498.4l-15.34 1.34-16.67.67c-4 1.34-9.35 4-16.7 8-6.67 4-15.34 6-26 6.68-2-5.35-4-11.35-4-16.68l.65-4c1.34-4.68 4-10 8-14l2.68-3.35c2-2.66 3.33-6 3.33-10v-9.34c0-2.66 0-4.66.67-7.33.66-3.34 1.33-6.67 3.33-8.67l5.34-4.67 4-3.34c3.3-2.67 5.3-6.68 6.65-12.68l3.33-9.34c3.33-8 10.66-11.33 22-8.66 8.67 1.34 18 6.67 27.35 15.34h4l8-2c7.34-1.34 14-.68 22.02 2z"/><path d="M109.75 414.4c-1.33-.68-2-.68-3.33 0l-25.35 27.34c-19.34 22-33.35 40-43.35 56.7-1.33 1.32-1.33 2 .67 2.66.63.66 1.3.66 2.63-.67 10-16 24.02-34.7 42.7-56.02 15.33-17.32 24-26 26-27.32.67-.68.67-2 0-2.67z"/><path d="M57.73 431.73l2.67-.66 10.67-6.67c8-3.34 17.34-2.67 26.68 2.66l8.67 3.34c5.33 2.66 9.34 6 12 10.67 4.67 7.33 4.67 17.34 1.34 29.34-.67.7 0 1.37 1.33 2l2-1.3c4.64-13.34 4-24-1.36-32.02-2.67-5.33-7.34-9.34-13.34-12.67l-9.33-2.66c-10.67-6-20.67-6.67-30.68-3.34l-10.7 8.65c-1.32 1.34-1.32 1.34 0 2.67z"/><path d="M57.06 444.4a65.7 65.7 0 0 0-10 8c-.67 1.34-.67 1.34 0 2.67 1.33 1.33 2 1.33 2.67 0l9.33-7.33 20.68-.67 5.33 2.66 9.34 8.68c3.36 6.7 3.36 14 .7 22.04-.67 1.33 0 2.66 1.33 3.33.68 0 2 0 2-2 3.35-9.34 3.35-18-.65-24.68-2.67-4-6-7.35-10-10.68-3.34-2-6-2.66-6.68-2.66l-24 .67zm9.34 26l-5.34-3.32c-4.66-1.34-9.33-.67-16 2.66l-8 4.68c-.67 1.33-.67 2.66-.67 3.33 1.3.67 2 .67 3.3 0l6.67-4.67c5.33-2.67 10-3.34 13.33-2l3.35 2.67c3.33 1.33 4.66 3.33 5.33 6 1.33 2.67 1.33 6.67-2 10.67 0 1.34 0 2 1.33 2.67.7.64 2 .64 2-1.36 3.36-4.67 4.7-8.68 3.36-14l-6.67-7.35z"/><path fill="#858585" d="M235.8 447.07v17.35c.68 13.33 4 22 9.35 26.67 6 5.3 11.34 9.3 18.67 12l14.68 3.3c2 .68 4.67 2.68 7.33 6.67a23.54 23.54 0 0 0 8 6.67l11.34 1.34h10l7.35 2.66 9.33 4 32.68-.66c-.66-17.34-2.66-28.67-4.66-34-.67-2.68-.67-6-.67-10.68v-10.67c-.67-3.34-4-8.68-10-16.68-2-2-3.34-4.67-3.34-8l-1.33-16c0-7.35-4-14.7-11.34-21.36-6.7-6-14.04-9.3-21.38-7.98-6.67 1.32-14 4.66-22.67 10.66l-10 8.67-23.35 2.66c-5.33 1.35-9.33 4.7-12.66 8-2.67 3.35-4.67 8.7-7.34 15.36z"/><path d="M255.15 420.4c-6.67 2.66-11.34 6-14.67 10-2.67 3.33-5.34 8.67-8 16v.67c-.67 3.33-.67 10 0 18.67.66 12.68 4.66 22.02 10 28.02 9.34 8 20.68 14 34.68 16 2 0 3.34 1.34 5.34 4.68 3.33 4.66 6.67 7.33 10 8.66l15.34 1.34h6.67l11.37 4 4 2.67 19.34 1.36 15.34-2.67c2.67 0 3.34-1.34 3.34-3.34-.67-16-2.67-28-4.67-34.68-.66-1.34-.66-4.67-.66-10V471.1c-.66-4.7-4-10.7-10-16.7l-.67-1.33-2.67-5.33-1.35-10.67v-6c-.67-10-5.34-18.02-14-25.35-7.34-6-14.68-8.67-22.68-7.34-10 2-21.35 8-33.35 19.35l-22.68 2.66zm-9.34 13.33a27.04 27.04 0 0 1 11.37-6.67c7.34-2.66 14-3.33 21.34-2.66l2.67-.67 10-8.67c8-5.34 14.68-8.68 21.35-10 5.35-1.34 10.7 1.32 17.36 5.33 6.67 6.64 11.34 13.3 11.34 20.65v6l1.32 12.66c0 2.68 2 4.7 3.34 7.35l2 1.34 8 14 .67 4-.67 10.7 1.34 6.65c1.33 6 2.67 16 4 30.68l-28 .67-4.68-2c-5.34-3.32-9.34-4.65-13.34-5.32h-8l-12-1.34-6.68-5.33c-3.34-4.65-6-7.32-9.34-8-13.34-2.65-24-6.66-31.35-14.66-6-4.67-8.65-15.34-8.65-30.68v-10c2-6 4-10.68 6.67-14z"/><path d="M278.5 420.4h-2.67c-1.34 1.33-.67 2.66 0 3.33l24 23.34c17.35 20 29.36 40.02 36.7 60.7 0 .66 1.32.66 2.66.66 1.3-.66 2-1.33 1.3-2.67-8-20.67-20-40.68-38-61.35l-24-24z"/><path d="M258.5 471.08l2.65-1.34c1.34-4.66 4-9.33 8-14.67 6.68-9.34 15.35-14.67 24.02-16.67l6-4c4.67-2 8.67-2.67 12.67-2.67a16.8 16.8 0 0 1 12 7.33l2.68.67v-2.67c-4-6-8.68-8.66-14.68-9.33-4 0-9.33.67-13.34 2.66-2.66 2-5.33 3.3-6.67 4.65-10 2-18.67 7.33-26 18-4.68 6-7.34 10.67-8.68 15.34v.67l1.34 2zm64-22.68l-12-.66c-2.66.66-4.66 2-5.33 2.66-12.67 5.34-19.34 14.02-20.67 26-.67 6.02 0 11.36 2 16.7 0 .66 1.33.66 2.67.66.66 0 1.33-1.34.66-2.67-1.33-4-2-9.37-1.33-14.7.67-10 7.34-18 18-22.68l5.34-2h9.34c5.34 2 10 6 14.67 13.34 0 1.33.67 2 2.67 1.33.67-1.33 1.34-2 .67-2.67-4.7-8.67-10-13.34-16.7-15.34z"/><path d="M331.85 474.42h-8.67c-8.67 4-14 11.33-15.34 22-.66 4.68 0 10 .67 14.68.7.67 1.36 1.33 2.7.67 1.33 0 1.33-.67 1.33-2-.66-4.67-1.33-9.34-.66-13.35.67-9.33 4.67-15.33 12.67-18.67l6.68.67c4.68 2 8.7 5.33 12 11.33l2.7.67c.66-.67 1.32-2 .66-2.66-4-7.34-8.68-11.35-14.68-13.34z"/><path fill="#858585" d="M145.1 445.07l-3.33 10-6 6.67c-2 3.34-4 8-4.68 14.67-1.36 5.37-1.36 10.7.64 15.38l.67 13.34-4 11.34-2.66 6.67c-1.34 7.35-.67 14 2 20l10 20.03c20-1.33 33.35-3.34 40.02-6 12-6 21.35-12 26.02-17.35 2-2.65 7.32-5.3 14-7.32 7.33-2.67 11.33-4.66 13.33-6.67l4.68-11.32c2-6 4-10 6-12.68l10.68-12c4-5.34 6.67-9.34 8-12 2-6 2-11.35 2-17.35a49 49 0 0 0-10-23.34c-6-6-14-8.65-26.67-8.65l-16.67 2-11.34-8.68c-8.7-4.66-17.36-7.33-24.7-5.34-7.33 1.35-13.33 4-17.34 6.67-2 1.35-4.67 5.35-8 10.68-2 2.66-2.67 6.67-2.67 11.34z"/><path d="M141.1 445.07l-2 8.67-2.67 2.66c-4.67 4.68-7.34 11.35-8.67 19.35-1.33 6-1.33 12 .67 18 1.33 3.34 1.33 6.68.66 10.68l-4 10.67-2.7 7.33c-.66 6-.66 11.34 0 15.35l5.34 12 7.34 14c.65 1.34 1.32 2.67 3.32 2.67 20-1.33 34.02-3.33 40.7-6.67 13.33-6 22-12 27.33-18 2-2 6-4 12.67-6.67 6.67-2 12-4 14-7.3 2.68-2.67 4.68-6.67 6-12.7 2-4.65 3.35-8 5.35-11.32l8-9.33c6-6.67 9.34-11.35 10.68-16 2.66-6.68 2.66-13.35 2-20.7-1.34-8-4.67-16-10-22.66-8.68-9.36-23.35-12.03-45.36-8-13.35-12-25.36-16.7-37.36-14.03-8 1.34-14 4-18.67 7.34l-8.67 10.68c-2 2.66-2.68 7.33-4 14zm32.68-25.35c6-2 14 .67 22 5.34l10.68 8 3.34.67 16-2c11.34 0 19.35 2.67 24.02 8 6 7.34 9.33 15.34 9.33 24.7l-2 12.65-9.34 12.67-8.64 10c-2 3.34-4 7.35-6 13.35l-4.67 10c-1.34 2-5.34 3.33-11.34 6-8 2-12.68 5.35-15.35 8.68-4.66 4.67-13.34 10-26 16.68l-36 4.66-6.7-12.68c-3.33-6.66-4.66-12-4.66-15.33l.66-7.3 2-5.34c2-3.34 4-7.34 4.65-12.68l.67-5.33-1.33-9.34-2-7.34 1.3-6.67c.68-7.35 3.34-13.35 6.68-16l3.32-4c1.34-2 3.34-6 3.34-11.36.66-5.33 1.33-8.67 3.33-10.66 2.66-4.67 4.66-8 7.33-10 3.34-2 8-4.68 15.34-5.35z"/><path d="M210.47 428.4l-2.67.66c-3.34 2.67-9.34 10.67-17.34 24.68-12.68 21.34-24.68 48.02-35.35 79.36-.64 1.35 0 2 .7 2.67 2 .67 2.66 0 3.33-1.32 10-30.7 22.02-57.37 35.36-79.38l16-23.34c1.33-1.33 1.33-2 0-3.33z"/><path d="M167.78 441.74l-9.34 7.33c-.67 1.33-.67 1.33.67 2.67l2.7-.67 8-6c8-2 16-1.34 26.68 3.33h.67l8.66 1.33c6.68.67 12 4 16 7.34 4.68 5.34 7.35 12.67 6.68 22.68 0 .67.67 1.34 2 1.34l2-1.37c.67-10.67-2-19.34-8-25.34-6.67-6.67-15.34-10-26.68-10-12-4.68-22.03-6-30.03-2.67zm15.34 26.66l-24.68.68-10.67 7.33c-1.33.7-1.33 1.37 0 2.7.66 1.34 1.33 1.34 2 0l10-6 22.68-1.33 8.67 2.67c5.34 2.66 10.67 5.33 13.34 9.33 4 4.67 4.67 11.34 4 18.68 0 1.33.67 2 1.34 2l2.67-1.34c1.33-8.66 0-16-4.67-22-3.34-4-8.67-8-15.34-10.7l-9.34-2zm3.34 39.37c-2-4-5.34-6.67-10-8l-6.68-2c-6.67-3.34-13.34-2-18.68 2.66-4.66 3.33-8.66 8-10.66 14-.67 1.34.66 2 1.33 3.34.66 0 1.33-.67 2.66-1.34l6.67-10c5.34-6 11.34-8 18-5.33l6 2c4.02 1.33 6.68 4 8.02 6.66 3.33 4.68 2.67 11.35 0 20-.67 1.35 0 2.02 1.33 2.02l2.67-.67c3.34-10 3.34-18-.66-23.3z"/><path fill="#D96038" d="M369.2 243.65l-24-25.35-.68 12c-2 10-4.67 18.68-8.67 28.02-12.67 28-34.68 48.02-67.36 59.36h14.64l32.68-6c32.02-10.67 49.36-33.35 53.36-68.03z"/><path d="M347.86 216.3l-4-.67c-1.34 0-2 1.33-2 2.67l-.67 13.34c-2 8.67-4.7 18-8.7 26.68-12 26.68-33.35 45.35-64.7 56.02-2 .67-2.67 2-2.67 4l3.34 2.68 27.34-.68c19.35-3.33 35.36-10 48.03-20 16.67-13.34 26-32.02 28.68-56.7l-1.33-2-23.34-25.34zm0 10l17.34 18.68c-2.67 21.34-10.67 38.68-25.34 50.02-14 11.34-32.02 18-54.7 19.35 21.35-10.68 38.02-26.02 49.36-46.03 7.34-13.34 11.34-28 13.34-42.02z"/><path d="M357.2 234.98c-1.34 0-2.67 0-2.67 2l-5.34 21.34c-6 16.67-16 30-30.04 39.35-1.34.67-2 2-.67 2.67.67 1.33 1.34 1.33 2.67.67 14.67-10 25.35-24 32.68-40.66L359.2 237c0-2-1.34-2-2-2z"/><path fill="#D96038" d="M321.18 188.95l-44.7-33.35 4.68 12.68c2 10.67 4 22 4 32-.66 34.7-14 62.04-42.02 84.05 12-2.67 23.35-8 36.02-17.34 24-18.04 38.02-43.38 42.02-78.07z"/><path d="M279.16 153.6c-2-1.33-3.33-1.33-4 0-2 .68-2.67 2-1.33 3.34l4 14a124.9 124.9 0 0 1 4 30.7c-.67 32.67-14 58.68-40.02 80.02-2 .67-2.64 2-1.3 4 .66 1.34 2 2.67 4 2 11.34-2.66 24-8.67 36.68-18 24.68-18.68 39.36-45.35 43.35-80.04 0-1.33 0-2-1.98-2.67L279.2 153.6zm38.68 37.36c-3.33 24-12 44-25.34 59.35-10 11.37-21.34 20.04-34.68 25.38 20-20.68 30-45.36 30-76.04 0-12.67-2-24-4.66-34.68l34.68 26.02z"/><path d="M302.5 181.62c-.66 0-1.33 0-1.33 2l-3.33 24.68c-2.67 17.34-8 30-15.34 38.68-.67 1.33 0 2 .66 3.33l2.67-.64c7.34-9.33 12.67-22.67 16-40.68l3.34-25.34-2.67-2z"/><path fill="#D96038" d="M5.04 223.64L6.37 303c12 16 28.68 24.7 52.02 27.35l30-2.66c-38.68-14.04-64-38.7-76.7-74.07-3.34-10-6-20-6.67-30z"/><path d="M7.7 204.96c0-2.67-.66-3.33-3.33-3.33s-3.33.66-3.33 3.33v5.34l2 93.37.67 1.34c12 16.7 29.37 26.04 52.7 28.7l33.36-2.66 2-3.34-2-3.34c-28.68-10-50.02-26.68-64.7-49.36-9.33-16.02-14.66-33.36-16.67-52.7l-.67-17.34zm2 96.7l-1.33-48c12 33.34 34.7 57.35 68.03 72.7l-32.68-2.68c-14-3.33-26-10.67-34-22z"/><path d="M47.72 317c-11.33-5.32-23.34-14.66-36-30L-2.3 265.65c-.66-.66-2-1.32-2.67-.66l-1.33 2 16 23.3c12 14.7 24.03 24.7 36.7 30.05 1.32 0 2 0 2-1.34.66-1.3 0-2-.68-2z"/><path fill="#D96038" d="M105.08 131.6l-63.36 26.68-4 26.67c-1.33 22 3.33 41.35 12.67 60.03 10.64 20 28 33.35 52 38.68l32 3.34c-6-.67-11.33-3.34-18.66-7.34-14.68-9.34-27.35-24-36.02-44.02-9.34-20.67-8-44.02 4-70.7l21.34-33.34z"/><path d="M107.75 128.93c-1.33-1.33-2.67-2-4.67-.67L39.72 155.6l-1.33 2-4.04 28.02c-1.33 21.34 3.34 41.35 13.34 60.03C58.4 267 76.4 281 101.1 287l34.02 3.33c2.66 0 3.33-1.33 3.33-3.33s-.67-3.34-3.33-3.34c-5.34 0-11.34-3.33-18.68-7.34-13.34-9.33-24.68-22.67-33.35-42-8.68-19.35-8-42.03 4-67.37l20.67-33.35c.67-1.34.67-2.67 0-4.67zM44.4 161.6l50.68-22.67C78.4 162.27 70.4 184.95 70.4 206.96c0 10.68 2 20.68 6 30 10 22.02 23.35 37.37 38.7 46.03-28.7-4-50.03-17.37-62.04-40.05-8-16-12-34-12-52.68 0-12.02.66-22.02 3.33-28.7z"/><path d="M55.06 170.28c-2 0-2.67.67-2.67 1.33l.64 33.38c3.34 25.35 12 45.35 26.68 60.7h3.33c.67-.67.67-2 0-2.68-14.66-14.7-23.33-34.7-26.66-58.04v-32.68l-1.35-2z"/><path fill="#FFE000" d="M339.86 122.92c16.67 14.68 26 29.35 28 44.02V5.54H5.06V107.6c1.32-5.35 10-9.35 25.34-14.02 31.33-10 82.02-15.34 153.4-15.34 71.35 0 123.38 15.34 156.06 44.68z"/><path fill="#D96038" d="M325.18 152.27c19.34 20.67 33.35 41.35 42.7 62.7V151.6c-6.68-48.02-28.7-86.7-66.04-116.05-12-9.34-24-17.34-36.68-23.34l-16.68-6.64h-88.7C124.42 10.2 87.74 24.22 50.38 46.9A448.65 448.65 0 0 0 5.05 80.23v75.36c12-10.68 28-22 49.35-33.37 42.68-22 88.7-32.68 138.06-32.68 50.02 0 94.04 20.68 132.72 62.7z"/><path d="M29.72-2.46l-3.34-.67c-1.33.67-1.33 1.33-.67 2.66l44.7 74.04c.7 1.33 1.35 1.33 2.7 0 1.32-.67 2-1.34.66-2L29.72-2.46zm20-5.34l-2-.67c-1.33 1.33-2 2-1.33 3.34l44.66 73.36c.66 1.33 2 2 3.33.67l.67-2.67L49.73-7.8zm22-4.67l-3.32-.67-.67 2.67 44.7 74.03h2.66c1.3-.67 1.3-1.33.64-2l-44-74.03zm18.68-6c-1.32 0-2 1.33-.65 2.67l44.68 74.03h2c2-.67 2-1.34 1.33-2.67L93.08-17.8l-2.67-.67zM13.7 12.2c-.66-.66-2-1.32-2.66-.66-.66.67-1.33 2-.66 3.34l44.68 73.36c0 .67 1.34 1.33 2.67.67.67-.64 1.33-2 .67-2.64L13.7 12.2zm29.36 91.38c2-1.33 2-2 1.33-2.66L-.3 26.88c-1.33-1.33-1.33-1.33-2.66-.67-.67.7-1.34 2.04-.67 2.7l44.7 74.03c.65.68 1.32 1.35 2 .68zM369.2 21.55l-2.66-.67L288.5 76.9c-1.33.67-1.33 1.34-.67 2l2.67 1.34 78.7-56.02c1.34-1.34 1.34-2 0-2.67zm-4.67-16.68l-2.67-.66-81.36 54.7c-1.34 1.35-1.34 2-.67 3.35h2.67L364.53 6.9c.67 0 1.34-1.34 0-2zm-28-4l-2-.67-70.04 48.03c-2 .66-2 1.32-1.36 2 1.33 1.33 2.66 2 3.33 1.33L336.5 3.54V.87zm38 42.68l-2-.66-69.36 47.32c-.67 0-.67 1.34-.67 2l3.34 1.34 68.7-47.36v-2.65zm-.66 24.68h-2.67l-61.36 41.35c-.66.67-.66 2-.66 2.67l3.33.66 60.7-41.3c1.36-.67 1.36-1.35.7-3.35zm1.33 25.35c-.66-1.34-2-2-2.66-.67l-54.7 37.38c-1.33.67-1.33 1.34 0 2 .67 1.34 1.34 1.34 2 1.34l54.7-37.35c1.33-1.33 1.33-1.33.66-2.66z"/><path fill="#9260C7" d="M369.2 261.65c.67-36-4.67-73.36-16.67-112.72C329.2 71.57 285.16 26.88 219.8 13.53h-54.02c-19.34 4.68-39.35 11.35-62.7 21.36-44.68 19.3-77.36 42-98.04 68.66L4.37 222.3c10.67-12 26.02-25.34 44.02-40.02 38-28 74.7-47.35 112.02-56.02l61.36-24.68 18 7.34c14 8 24 20.67 30.7 38.02 8.65 21.34 14 34.68 18 40.68 3.32 6 10 12.67 18 19.34l32.7 23.34c14 10 24 21.35 30 31.35z"/><path d="M304.5 210.3l16.68 11.34 24.68 18.67c8.67 7.37 15.34 14.7 20 23.37 1.34 1.34 2 1.34 4 1.34l2.68-3.34c.66-37.34-4.67-75.37-16.68-114.72C331.18 68.9 285.83 23.54 221.13 10.2h-56.7a530.2 530.2 0 0 0-64.68 22c-44.02 19.36-76.7 42.7-96.7 69.38l-1.35 2-.66 118.72 2 2.67h4c11.34-12.67 26-26 44.7-40.02 36.67-28 73.35-46.68 110.04-56.02l60.7-24c6 1.32 12 4 18.66 8.66 11.34 7.3 20.68 18.64 26.68 34.65 8 21.34 14 35.35 17.35 40.68 4 6.67 10.67 14 19.33 21.35zm4-5.34c-8.66-6.67-14-13.34-17.33-18.68-3.34-6-8.67-19.34-17.34-40.68-7.34-18-18-31.34-31.35-40.02-8-4.66-14.68-7.33-20-7.33h-1.35l-62.02 24.67c-31.32 8-64 23.34-96.02 45.36-20.67 14-38.68 29.35-55.36 45.35L8.4 104.9c20-25.33 51.36-47.33 94.7-66.67a467.8 467.8 0 0 1 62.7-21.35h54.03c56.7 11.34 96.7 48.7 122.06 111.4 14.67 36.67 22.67 78.02 24 123.38-8-11.34-22-23.35-41.35-35.36l-16-11.34z"/><path d="M46.4 134.93c0-1.33-1.34-2-2-1.33-1.34 0-2 1.33-1.34 2 0 1.33 2.66 6.67 8.67 15.34l2.66.67.64-2.64-8.67-14zm-20.02 3.33l-2.66-.66c-1.34.67-2 1.33-.67 2.67l7.33 10.67 12.68 21.34c0 1.33 1.33 1.33 2 .66 1.33-.66 1.33-1.33 1.33-2.66l-20.04-32.02zm-19.34 6.68c-.67-1.34-2-1.34-2.67-1.34-1.33 1.34-1.33 2-1.33 3.33l11.34 20c8 14.02 14 23.36 18.67 28.03h3.34c.63-.67.63-1.34 0-2.67-4.7-4.7-10.7-14.04-18.7-27.37L7 144.93zm308.14-11.34c-8-15.34-19.34-30.7-33.35-44.7L262.5 73.58c-.68-.67-2-.67-2.68 0-.67 1.33-.67 2.66.67 3.33l18.64 15.36c13.34 13.34 24.68 28.02 32.68 42.7 7.34 15.33 12.67 35.34 14.68 58.68 1.34 12 2 22 1.34 31.35 0 1.32.67 2 2 2l2-2c.67-8.68 0-19.35-1.33-31.36-2-24.68-8-44.7-15.32-60.03z"/><path d="M308.5 142.26c-6-13.33-14-25.34-26-37.34l-18-14.68-2.68.67c-.67 1.36-.67 2.7.67 2.7l16.64 14c12 11.34 20 24 25.34 36 8 20 13.33 44.7 14.67 74.06 0 1.33 0 2 2 2l1.33-2c-.65-29.35-6-54.7-14-75.38zM114.42 94.9c0-1.32-1.33-1.32-2.67-1.32-10.67 4.67-22 12-33.34 22-23.32 20.68-36.66 44.7-39.33 72.7-.66 2 0 2 2 2 .67.68 2 0 2-1.33 3.34-27.34 15.35-50.68 38.02-70.03 10.66-10 22-17.34 32-22 1.33 0 2-1.34 1.33-2z"/><path d="M143.1 93.58c0-.67-.66-1.34-2-1.34-11.34 2.67-22.68 8-36.02 16.68-25.34 17.34-44.02 41.35-55.35 70.7-.67 1.33 0 2 1.33 2.66 1.33 0 2 0 2.67-1.33 10.67-29.35 28-52.02 53.36-68.7 12.64-8 24-13.34 34.65-16l1.33-2.67zM85.74 111.6c-.66-1.35-1.33-1.35-2.66 0-6.67 5.32-14 10.66-23.35 15.33-19.34 10-37.35 12.66-54.7 8.66-.66 0-1.32 1.3-2 2l2 2.65c17.35 3.33 36.02 0 55.37-9.34 9.34-4.67 18-10 25.34-16 .67-1.33.67-2.67 0-3.33zm262.12 88.02l-18.68-2c-2 0-2.66.67-2 2 0 1.34.67 2 2 2l16.68 2c11.34 3.34 18 10 20 21.35 0 1.33 0 2 2 1.33l1.34-2.66c-1.33-12-8.67-20-21.34-24.02zm18-1.32c-.66-6.68-3.33-12.02-8.66-16.02-4.67-4-11.34-6-19.35-6.67-6.67-.63-10-.63-12 0-1.34 0-1.34.7-1.34 2.04 0 1.33.7 2 2.04 2h10c8 .66 14 2 18 5.33 4.68 4 6.68 8.67 8 14 0 1.34 0 2 2 1.34l1.35-2zm-27.34-44.02l-17.34-.68c-2 .68-2 1.34-2 2.67l2.67 2h15.34c10.64 1.33 17.3 6.67 20.64 15.34l2 1.37c1.34 0 1.34-1.34 1.34-2.67-3.35-10-11.35-15.35-22.7-18zm-17.34-26.02l-10 1.33c-1.34.64-2 1.3-1.34 2.64 0 1.33 1.34 1.33 2.67 1.33l8.7-2c7.34 0 12.68.66 18 3.33 6.68 4 10.68 10 13.35 18.68.67 1.34 2 2 3.33 1.34 1.34 0 1.34-1.34 1.34-2.67-3.33-9.34-8.66-16-16.66-20.67-5.34-2.67-12-4-19.35-3.34zm-5.33-24.68l-19.35 4.67c-.66.67-1.33 2-.66 3.34.66.63 2 1.3 3.33 0l16.67-3.37c12-.66 20.68 4.67 26.02 15.34.66 1.33 1.33 1.33 2.66 1.33 1.34 0 1.34-1.33 1.34-2.66-6.67-12-16.68-18.68-30-18.68zm-18-17.34L284.5 94.9c-1.34.68-1.34 2 0 2.68.66.67 1.33.67 2.67 0l12-7.34c9.34-4.67 18-4.67 26 0 .68 0 1.35 0 2.68-1.33.67-.64.67-1.3-1.33-2-8.68-5.3-18-5.3-28.68-.64zm10.65-24c-9.33-5.34-19.33-4.67-28.67 2.66l-11.34 12c-.7 1.34-.7 2 .64 2.67l2.67-.67 10.68-10.67c7.32-6.67 16-6.67 24-2.67 1.33 1.34 2 .67 2.67-.66l-.67-2.67zm-26-22.7l-1.34-2c-6.67-1.33-13.34 2.68-19.34 10.7l-8.67 13.32c-.67.67 0 1.33 1.33 2l2.67-.67 7.34-11.36c5.3-8 10.64-11.34 15.3-10l2.68-2zM257.82 24.9c0-2-1.33-2-2.67-2-12.67 3.33-20.68 12-24 26-2 7.34-2.68 14.68-2 20.68l2.66 2c1.36 0 1.36-1.33 1.36-2.66-.67-6 0-12 2-18.68 2.67-12 10-20 20.68-23.34l2-2zm-36.02-12c0-1.34-1.33-1.34-2.67-1.34-10 5.34-14.67 13.34-14.67 26.02 0 6 .67 12 2 17.33l2.67 1.3c1.34-.64 2-1.3 1.34-2.64-1.34-5.34-2-10-2-15.34 0-11.33 4-18.67 12.66-22.67 1.34-.66 1.34-1.33.67-2.67zm-34.02-.68h-2.66c-10 8-14 20.68-12.67 37.35 1.33 8.68 3.33 17.35 6.67 25.35.66.67 2 .67 2.66.67l.67-2.68c-2.67-6.67-4.67-14-6-22.67-1.34-15.34 2-27.35 11.33-34.7V12.2zm-32.68 3.34c-.66-.66-2-.66-2.66 0-10 10.67-12 24-4.67 39.36 3.33 8 7.33 14.66 13.34 20 .7 1.33 1.36 1.33 2.7 0 1.33-.66 1.33-1.33 0-2.67-5.34-5.33-9.34-11.33-12.7-18.67-6-13.34-5.3-25.34 4-35.35.7-1.3.7-2 0-2.65zm-31.34 9.34c-1.33 0-2 0-2.67 1.33-6 12.03-4.7 25.37 6.64 39.37a114.92 114.92 0 0 0 18 18c1.34.68 2 0 3.34-1.32 0-.67 0-2-.67-2-6.66-4.67-12.67-10-17.34-16.68-10-13.34-12.68-24.68-6.68-35.34.67-1.34.67-2-.66-3.34zM96.4 35.55c-1.32 0-2 .66-2 2.67 0 14 5.35 27.34 16.02 40.02a97.36 97.36 0 0 0 16.68 13.34c1.33.66 2 0 2.66-.67.67-.64 0-2-.67-2.64a70.67 70.67 0 0 1-16-13.34C103.05 63.6 98.4 51.6 98.4 38.25l-2-2.67zm-20 10c-.66 0-1.33 0-2 1.34-4.67 11.3-2 24 9.34 36.65 6 6.67 12 12.67 19.34 18l2.67-.65c.67-.66.67-2-.67-2.66l-17.34-16c-11.33-12.02-14-24.02-9.34-34.03l-2-2.65z"/><path d="M56.4 57.56l-2.67 1.33c-3.34 12.65-2 24 4 33.32 7.34 10 17.34 16.68 30.68 19.35l2.7-1.35-1.34-2.66-11.34-4.02c-7.32-3.33-13.32-8-17.33-13.34-4.67-8.66-6-18.66-3.34-30 0-1.34 0-2-1.33-2.67zM35.72 72.23c-1.34-.66-2.67 0-2.67 1.34-3.33 15.34-2 28 5.34 36.68 4.64 5.34 12 10 21.3 11.34l14 1.3c1.35 0 2-.67 1.35-2l-2-2-12-.66c-9.35-2-16-6-20.02-11.34-6-6.66-8-18-4-32 .67-2 0-2.68-1.33-2.68zm-20.02 18c-1.32 0-2 0-2 1.35-2 15.34.68 26.68 8 34 6.68 7.34 16.02 10.68 26.7 10l2-2-2-2c-10 .68-17.35-2.66-23.35-8.66-6.67-7.34-9.34-18-7.34-30.68l-2-2z"/><path fill="#D96038" d="M275.16 78.9l-2-17.34c-1.34-12-4.67-19.34-9.34-21.34-9.34 8.67-22 16.68-38.68 21.35-8.67-13.34-15.34-20-19.35-18.68 0 20.65-3.36 34-8.7 38-8-4-14.67-6-21.34-6.68-21.34 3.34-42.02 10.67-62.7 21.34l16.68 2.67c12 3.33 18.67 8 20 14 2.68 10.67 4.68 19.35 7.35 26.68-8 2.68-17.35 6.68-26 12.7-17.36 10.66-26.7 22.67-28.03 35.34-1.33 14.68 4 25.35 16 32.68 10.68 6 21.35 8.68 32.7 6 17.33-4 23.33-11.33 18-24-.67-2.67-4-6-8.67-11.34-4.65-4.03-7.32-8.03-8-12.03a29.5 29.5 0 0 1 4.68-16c3.34-4.67 5.34-7.34 8-8.67l6 9.34c5.35 6 11.35 10.67 17.35 12.67 10 3.35 18 9.35 25.34 18.02 8 10.68 8.68 20 2 28.02l12-3.34c7.35-3.32 13.35-8 16.68-16 2.67-7.33 3.34-14 1.34-19.34l-4-6c2.64-3.34 3.3-8.67 4-14.68 2-12-1.36-24-8-36.68l8 1.33c6.65.67 11.32 3.33 15.32 8 5.34 6.67 10.67 10.67 15.34 12-1.33-11.34-4-18.67-7.34-22.67l12.68-6c8.68-6.67 14-14.68 17.35-24l-10-2.02c3.33-5.33 5.33-14 4.66-24.67-6.65 6-12.65 10-19.32 11.33z"/><path d="M278.5 74.24l-2.67-20.68c-2.67-8.67-6-14-10-16l-4 .66c-9.35 8-20.7 14.67-35.36 20-8.67-14-16.67-20-22-18-2 0-2 1.33-2 2.66 0 17.35-2.68 28.7-6.68 34.02-8-3.33-14.7-5.33-20.04-6h-.66c-22 4-43.35 10.67-64.02 21.34-1.35 1.34-1.35 2-1.35 3.34v.66l2.67 2.67 19.34 3.37c9.34 2.67 14 6.67 14.68 11.34l6.67 23.34a209.54 209.54 0 0 0-30 15.34c-14.7 10.67-22.04 22.68-23.37 34.68v4.67c0 10 3.33 19.35 11.33 26.68 5.34 4.68 12.68 8.68 20.68 10l20.68.68c10.67-2 17.34-6.67 20.67-12l2-8-2-8.68c-.66-2.68-4-6.7-8.67-11.36-4.66-4-7.33-7.33-8-11.33v-2c0-6.65 2.67-12 8.67-17.32 6 10.67 14.03 17.33 23.36 20.67 6 2 11.34 5.34 17.34 10 6 6 9.33 11.34 10.67 16.68l1.33 4.67-3.34 8.66-1.33 2.67.67 1.33c.66.67 2 2 3.33 2l12.68-3.33c9.36-3.34 15.37-10 18.7-18l2.67-13.35c0-6-2-10.02-4.67-14.02 2.66-6.67 4-13.34 4-19.34 0-8.67-2-18-7.34-27.35 7.33.66 12.67 2.66 16 7.33 6 6.67 11.34 11.34 16.68 13.34h3.33l1.34-3.33-1.32-8.65-4-12.68c14-6 23.34-16.68 28-30.68v-.68l-2-2.66-6-2.67c1.34-4.66 2.68-10.67 2.68-16.67v-5.3l-2.67-2.66c-2-.67-2.68 0-3.35.66l-13.34 9.34zm-5.34 7.33l2.67.67c4.67-.67 10-4 15.34-7.34-.67 6.67-2 12-4 15.34l-.67 2 .67 2 2.66 1.34 6 .66c-3.33 7.34-9.33 14-16.67 19.35l-10 6-2.67 2v.64l1.3 2a55.54 55.54 0 0 1 4.67 14l-8-8c-4.68-4-9.35-7.33-16.7-8.67l-10-1.34c-1.32 0-2 1.33-2.66 2.67v2.67c6 9.33 8.68 19.34 8.68 29.34 0 7.36-1.33 13.36-4 18l-.67 2 1.35 2.7 2 2.67 2 8c0 3.34-1.34 6.68-2.67 11.35-2.66 7.34-9.33 12.68-18.66 15.35l1.33-6.67-1.33-6.67c-2-6.66-6.67-13.33-14-19.33-6-6.02-12.68-9.35-18.68-12.02-5.34-2-11.34-5.34-16-11.33l-5.35-8.68c-.66-1.33-2-2-4-2-3.3 1.33-6.66 4.67-10 10-4 6.67-6 12-5.33 18 1.33 5.35 4.67 10.02 10 16.02l7.34 9.32c2 4 2 7.33 0 10-2 4-7.3 6.66-16 8.66l-18-.66c-6.66-1.34-13.33-4.67-17.33-8.68-6-6-9.34-12.67-9.34-21.34v-4c1.33-12 10-23.34 26.68-34.02 8.68-4.67 16.68-8.67 25.35-11.34l2.67-3.33-8-27.34c-1.33-8.7-11.33-14.7-28.67-18.02a203.38 203.38 0 0 1 51.35-16c6 .66 12.68 2.66 20 6h3.36c6-4.68 9.33-16.68 10-36.02 3.34 2 8 7.34 13.34 16 .67 1.35 2 2 4 1.35 14.67-4.67 26.68-11.34 36.7-20 2.65 2 4.65 7.32 6 14.66l2.66 19.35 1.33 2.67z"/><path d="M223.8 74.9l-4.67 2c-2.66 1.34-3.33 4-4 8 0 3.34.67 6 2.67 8l4 2.68c2.67 0 4-.67 6-2.67l3.34-7.3c0-3.34-1.33-6-2.67-8.68l-4.66-2zm-.66 4l2 1.34 1.33 4.67v.7c0 4-1.33 6-4 6l-2-1.34c-1.33-1.33-1.33-3.33-1.33-5.33 0-2.66.66-4.66 2.66-5.33l1.34-.68zm40.68 22.02l-6 .66-5.34 4.67c-.66 2-.66 4 0 5.34l3.34 2.64 7.34-.67c2.66-1.35 4.66-3.35 5.33-5.35v-4.67c-1.36-1.33-2.7-2-4.7-2.66zm.67 4.66v1.34l-2.7 3.33h-4.67l-1.33-.67c0-1.33.68-2.66 3.34-4.66l5.34.66zm-35.37 74.02l-3.33 2.68-1.32 4 .67 3.34c.66 2.67 2 4.67 4 5.34l4.67.66c2.68-.66 4.68-2.67 4.68-6.67l-.67-3.33-4.66-5.34-4-.67zm.67 4.02h1.35l2.67 3.33.67 2-2 2.67h-.68l-2.66-3.33c-.67-1.37-.67-3.37 0-4l.67-.7zM254.5 76.9h-5.33c-3.34.67-6 3.34-8 6.67-2 3.34-2.67 6.67-2.67 9.34.66 2.7 1.33 5.37 3.33 6h4.7c3.33-.63 6-2.64 8.66-6.64 1.32-3.33 2.66-6 2.66-8.67 0-3.34-1.33-5.34-3.34-6.68zm-4 3.34h2l.67 3.33-1.33 6.67-6 5.34-2-.67c-1.34 0-1.34-1.3-1.34-3.3 0-1.34.66-3.34 2-6 1.33-2.7 3.33-4 6-5.34z"/><path fill="#FFE000" d="M211.8 142.26c-1.33-16.67-10-30.67-26-44l-6.68 14c-4.67 11.33-4.67 21.34-2 30 2.66 8.68 9.33 14.68 18.67 18l13.3 3.35c2.68-6 3.35-13.3 2.68-21.32z"/><path d="M176.45 112.25c-4 11.34-4 21.35-1.34 30.68 4.04 8.67 10.7 15.34 20.7 19.34l13.35 2.67 2.67-1.33c2-5.3 3.34-13.3 2-22-1.32-16.65-10.66-32-26.67-44.7l-1.33-.64-1.35.67-8 15.35zm.67 18a48.9 48.9 0 0 1 9.33-28.67c16 13.34 23.35 28.68 23.35 45.35l-1.34 14c-15.34-.66-25.34-7.33-29.34-19.33-1.34-3.34-2-7.33-2-11.34z"/><path fill="#DA8E55" d="M202.46 141.6c-1.33-8-6-14.67-13.34-21.34l-2.67 10.67c.67 8 5.34 15.33 14.68 20.67 1.33-2.66 1.33-6 1.33-10z"/><path d="M189.12 118.26l-1.33.66-2 5.34c-1.37 4-1.37 8 0 12.67 1.96 6.67 6.64 11.34 14 16l2 .67.64-2c2-2.67 2-6 2-10-1.33-8-6-16-14-23.35h-1.34zm0 17.33v-5.36c0-2.66 0-5.33.67-6.67 6.64 6.66 10 13.33 10 20.67v4c-5.36-4-8.7-8-10.7-12.68zm-64.02 41.34c-4 6.67-6.68 13.34-6.68 20.68 0 10.67 4.67 20.67 15.34 29.34 1.34 1.34 2 1.34 2.67 0 1.33-1.33 1.33-2 0-3.33-9.34-8-14-16.68-14-26 0-6.02 2-12.7 6-18.7l6-7.33.67-3.3h-3.34l-6.67 8.66z"/><path fill="none" stroke="#000" stroke-width="3" stroke-miterlimit="100" d="M370.6 585.26H3.9V2.74h366.7v582.52z"/><path stroke-miterlimit="100" d="M367 582H5V5h362v577z" fill="none" stroke="#000" stroke-width="10"/></svg>