<svg xmlns="http://www.w3.org/2000/svg" width="372" height="587" viewBox="0 0 372 587"><path fill="#fffaf0" d="M0 0h372v587H0z"/><path d="M41.8 410.77c-1.93-1.28-3.22 0-3.22 1.3-1.3 1.92-.64 3.22 1.3 3.22L132 449.42c-1.3-1.28-1.3-1.93-1.3-3.22.66-1.92 1.95-1.92 3.24-1.92l-92.14-33.5z"/><path fill="#858585" d="M293.73 53.2c0-5.8-2.58-9.03-7.1-9.03h-5.15c-1.3 1.3-2.58 3.87-2.58 7.74 0 239.04-.64 363.4-3.86 374.34-1.3 7.08-9.02 12.88-21.9 18.7l-27.7 10.93c-29.65 12.9-48.33 21.9-56.7 27.07-14.18 7.73-39.96 23.2-77.97 46.38-9.66 5.8-21.9 16.1-38 32.22l-21.27 23.2 112.75.64c5.8-9.02 15.46-18.68 27.06-29 12.25-10.3 21.9-16.75 29-19.32 6.45-1.93 10.95-5.16 14.17-9.02l9.67-14.82c7.73-9.67 29.64-27.06 66.37-52.83 4.5-3.88 7.1-7.75 7.1-12.9l-1.3-19.32-2.57-375z"/><path d="M284.7 40.95c-2.58 0-4.5.65-6.44 1.93-1.3 1.3-2.58 4.5-2.58 9.03 0 237.75-.64 362.1-3.86 373.05-.64 5.15-5.8 9.67-14.18 14.82l-23.84 9.66-16.1 6.44c-23.2 9.67-39.95 18.05-50.26 23.85L89.5 526.1C74 535.13 54.04 554.45 28.9 582.8c-1.3 1.3-1.3 2.58 0 3.87l2.58 1.28 112.75.65 2.57-1.3c6.45-8.37 14.83-18.03 26.42-27.7 12.24-10.95 21.26-17.4 28.35-19.32 5.15-1.93 9-3.87 11.6-7.1l7.72-9 5.8-9.03c3.86-5.16 14.82-13.53 30.92-27.06l34.8-25.8c4.5-3.2 7.08-6.43 8.37-10.93l-.63-12.9-.65-10.94-2.57-374.34c0-3.87-.65-6.45-2.58-9.03-2.58-1.93-5.16-3.22-7.74-3.22h-1.93zm-1.3 6.45h3.24c2.58 0 3.86 1.93 3.86 5.8l2.58 374.98 1.3 19.32c0 3.23-1.3 7.1-5.8 9.67l-29.65 21.9c-19.97 15.46-32.2 26.42-36.73 32.22l-7.08 9.65-5.8 7.73c-2.58 2.58-5.8 3.87-9.67 5.8-7.73 1.93-17.4 9.02-29 18.68-12.23 10.32-21.25 19.98-28.33 29l-103.74-.65c23.2-25.76 41.24-42.5 54.13-49.6l77.96-46.4c10.96-5.78 27.7-14.16 48.97-23.83l16.75-6.44 25.77-10.95c9.67-5.16 14.82-10.96 16.1-17.4 3.23-11.6 3.87-136.58 3.87-374.97l1.3-4.5z"/><path fill="#858585" d="M118.48 282.56l-1.3-84.4c0-9.02-1.28-12.24-4.5-10.95l-7.1 5.8-2.57 3.23c-1.28 30.28-1.28 61.2-1.92 93.42-.64 64.43 1.93 103.1 6.44 115.98 4.5 12.23 16.1 29.63 35.44 53.46 9.02 10.95 18.68 21.26 27.7 30.28 8.38.64 16.1-2.58 20.62-8.38-10.96-10.95-22.55-22.55-33.5-36.72-23.2-27.07-35.44-47.68-36.73-62.5l-2.57-99.22z"/><path d="M116.55 184l-5.8.63c-3.87 1.94-7.74 5.8-10.3 10.3l-.66 1.3c-1.3 24.48-1.94 56.7-1.94 96.64-.64 63.14 1.93 100.5 6.44 113.4 4.5 12.24 16.1 30.27 34.8 53.47l29 32.22 1.92.64c10.3.65 18.04-3.22 23.84-9.66 1.28-1.3 1.28-2.58 0-4.52-11.6-10.3-22.55-22.55-34.15-35.43-22.54-27.07-34.14-47.04-35.43-61.22l-2.57-99.87-1.3-83.75v-1.28c0-7.08-1.28-10.95-3.86-12.88zm-10.32 13.5l7.1-7.07.64 5.15v2.58l1.3 83.75 2.56 100.53c1.94 21.9 24.5 54.76 68.94 98.57-4.5 3.87-9.02 5.16-15.46 5.16l-28.98-33.5c-17.4-21.26-27.7-37.37-32.22-48.33-3.87-11.6-5.8-48.32-5.8-108.88 0-47.03.64-79.9 1.93-97.94z"/><path d="M259.57 441.06c-1.28-1.3-1.93-.64-2.57.64-1.93 6.45-6.44 12.25-11.6 16.75-3.87 2.58-9.02 5.16-16.1 9.03-10.32 5.8-16.76 9.66-19.98 13.52-5.8 7.1-16.75 16.1-32.22 25.77-16.1 9.67-30.28 16.1-42.52 19.98-10.95 3.86-25.13 14.18-42.52 30.93l-25.13 25.77c-1.3 1.28-.64 1.93.65 3.22 0 .64 1.3.64 2.58 0L94 560.9c17.4-16.75 31.56-26.42 41.87-29.64 12.9-4.52 27.06-11.6 43.17-21.27 16.1-10.3 27.06-19.33 33.5-27.06 2.58-3.22 8.38-7.1 18.04-12.24l17.4-9.67c5.15-4.5 9.66-10.3 12.88-18.04 0-1.3 0-1.94-1.3-1.94z"/><path d="M254.42 471.98l1.93-1.28 15.47-19.97c5.8-10.32 7.73-22.55 6.44-35.44l-2.58-1.95c-.64 0-1.28.64-1.28 1.94 1.28 12.88-.65 24.47-5.8 34.13-3.23 5.16-8.38 11.6-15.47 18.04l-1.28 2.58-19.98 16.1c-15.46 11.6-26.4 19.98-32.22 26.42l-12.88 10.3-14.82 6.45-19.33 9.03c-12.24 5.15-23.2 14.16-32.85 27.05-6.45 7.74-10.32 14.18-12.25 18.7-.64 1.28 0 2.57 1.3 2.57l2.57-.64c2.57-5.8 6.43-10.96 11.6-17.4 9.65-12.9 19.96-21.9 31.55-27.06l18.7-8.38 15.45-7.1 12.9-10.95 32.2-25.77 20.62-17.4z"/><path fill="#D96038" d="M106.88 312.85c-6.44-6.45-12.88-9.67-21.9-9.67-8.38.64-15.47 5.15-19.34 14.17-2.57 4.52-4.5 9.02-4.5 13.53l-10.96 2.58c-7.1 3.22-11.6 9.02-11.6 17.4-.64 8.37 3.23 14.8 11.6 19.33 4.5 2.56 9.02 3.85 12.9 3.85l59.9-7.73 10.96-6.44c7.1-6.44 9.66-13.54 8.38-21.9-1.94-7.1-6.45-12.25-16.1-14.2l-12.9-.63-6.44-10.3z"/><path d="M84.33 299.96c-7.1.64-13.53 3.86-18.7 10.3-3.2 4.52-5.8 10.96-7.07 17.4-5.8.65-10.3 2.57-14.82 5.8-5.16 3.87-8.38 9.66-8.38 16.75v1.3c0 8.38 3.22 14.82 9.67 19.33 5.8 3.22 10.95 5.8 17.4 6.44h1.28l59.3-7.73h1.27l12.25-8.37c7.73-7.1 10.3-14.83 9.02-23.84-1.3-6.45-5.16-12.24-12.24-14.82-5.8-1.93-11.6-3.2-18.04-3.2-2.58-4.52-5.16-8.4-9.03-11.62-6.44-5.14-13.52-7.72-21.9-7.72zm.64 6.44c7.74 0 14.18 2.58 19.33 8.38l5.8 9.66c0 1.3 1.94 1.93 3.22 1.3l12.24 1.27c7.73 1.3 12.25 5.17 13.54 11.62v3.22c0 5.8-1.94 10.95-7.74 15.46l-9.66 5.8-58.64 7.73-11.6-3.86c-6.43-3.22-9.66-8.38-9.66-15.47v-.64c0-7.1 3.23-12.24 9.67-14.18l9.66-2.58 3.22-3.22c0-3.87 1.3-8.37 3.23-12.24 3.86-7.73 9.66-11.6 17.4-12.24z"/><path fill="#FFE700" d="M63.7 368.25l40.6 1.3 21.9-7.74c-1.93-5.14-4.5-10.94-7.72-15.46-7.74-9.66-17.4-14.17-28.36-12.24-11.6 1.3-19.32 7.74-23.2 18.7-2.57 5.14-3.2 10.3-3.2 15.45z"/><path fill="#D96038" d="M95.93 373.4c0-3.86-1.93-7.73-5.16-10.95-3.86-2.57-8.38-4.5-13.53-4.5-5.8-.65-9.66 1.28-13.53 4.5-3.86 2.58-5.8 6.44-5.8 10.3 0 4.52 1.3 7.74 5.8 10.97 3.23 2.58 7.75 4.5 12.9 4.5 5.8 0 10.3-1.28 13.53-4.5 3.87-2.58 5.8-6.45 5.8-10.3z"/><path d="M99.15 373.4c0-3.86-1.93-7.73-5.16-12.23-4.52-4.52-9.67-6.45-16.76-6.45-7.1 0-12.9 1.94-17.4 6.45-3.86 3.22-5.15 7.72-5.15 11.6 0 5.15 1.92 9.66 6.43 13.53 3.87 3.22 9.67 5.14 15.47 5.14 7.08 0 12.88-1.92 17.4-6.44 3.22-2.57 5.15-6.44 5.15-11.6zm-6.44 0c0 2.58-1.28 5.16-3.22 7.1-3.22 3.22-7.1 4.5-12.88 4.5-3.87 0-7.73-1.28-10.96-3.22-3.22-2.57-4.5-5.8-4.5-9.02 0-2.57 1.28-5.15 3.2-7.1 3.24-2.56 7.75-4.5 12.9-4.5s9.02 1.94 12.24 5.16c2.58 1.93 3.23 3.87 3.23 7.1z"/><path fill="#D96038" d="M132.65 365.03c-.65-4.5-3.22-7.1-7.1-9.02l-14.16-1.92c-5.17 1.3-9.68 3.87-12.25 7.73-3.22 3.87-3.87 7.74-3.22 11.6 1.3 3.88 3.86 7.1 7.73 9.68l14.17.64c5.16-.64 9.02-3.22 11.6-7.1 3.22-3.86 4.5-7.08 3.22-11.6z"/><path d="M128.78 354.08c-5.8-3.22-11.6-3.87-18.68-3.22-5.8 1.93-10.3 5.15-13.53 9.02-3.87 4.5-4.5 9.66-3.87 14.17 1.3 5.16 4.52 9.03 9.67 11.6l16.1 1.3c5.8-.65 9.67-3.23 12.9-7.1 3.85-3.22 5.14-7.1 5.14-12.24l-.63-3.2c-.64-4.52-3.22-7.75-7.1-10.32zm-16.75 3.22c4.52-.64 9.02-.64 12.9 2.58 2.56.64 4.5 3.22 4.5 5.8 1.28 3.2 0 6.43-1.94 9.66-3.23 3.22-6.45 4.5-10.95 5.8l-10.96-1.3c-3.88-1.28-5.8-3.86-6.45-7.08-.65-3.22 0-6.44 2.57-9.66 2.58-2.58 5.8-4.5 10.3-5.8zM79.17 328.3c0-.64-1.28-1.3-1.93-.64l-1.3 2.58 8.4 19.97c0 .66 1.27 1.3 2.56.66 1.3 0 1.93-.65.65-2.58l-8.38-19.97z"/><path fill="#DA8E55" d="M101.08 327.66l-1.3 6.44-2.56 15.46 3.86-21.9z"/><path d="M101.72 325.73c-1.28 0-1.93 0-2.57 1.93l-1.93 6.44-1.3 15.46c-.64 1.3 0 1.94 1.3 1.94l2.57-1.94 1.92-14.8 1.3-6.45c.64-.64 0-1.93-1.3-2.57zM117.83 330.88l-3.22.65c-1.92 2.57-4.5 7.1-5.8 13.53 0 1.28 0 1.93 1.3 1.93l2.58-.66c1.93-5.8 3.87-10.3 5.15-12.24v-3.22zM64.35 337.98l-2.57.64c-.65 1.28-.65 1.93.64 2.58l11.6 10.94c.65 1.3 1.93 1.3 2.58.65.64-.66 1.3-1.94.64-2.6l-6.44-6.43-6.45-5.8z"/><path fill="#D96038" d="M218.98 402.4l-3.86-11.6c-3.87-7.73-10.3-12.24-18.7-14.17-9-1.94-16.1.64-22.54 8.37-3.22 4.52-5.8 8.38-7.73 12.9l-10.95-.66c-8.38 1.94-13.53 6.45-16.1 14.83-1.94 7.72 0 14.8 7.72 21.25 3.22 3.22 7.1 5.16 11.6 7.1l59.27 6.44 12.24-3.87c9.02-5.16 12.88-10.96 13.52-19.34.65-7.73-3.22-13.53-11.6-18.04L219 402.4z"/><path d="M164.87 394.67l-16.1 1.3c-6.45 2.56-10.32 7.07-12.25 14.8-2.58 7.74-.65 14.83 5.15 21.27 3.87 5.15 9.02 9.02 14.82 10.95l1.28.64 59.9 6.44h.66l14.18-5.15c9.02-5.16 13.53-11.6 14.17-20.62v-1.28c0-7.1-3.23-12.25-8.4-16.75-5.14-3.86-10.94-5.8-16.74-7.1-3.87-14.17-12.24-23.18-24.48-25.76-8.38-1.28-14.82 0-21.26 5.8-4.5 3.88-8.38 9.02-10.95 15.47zm47.03-1.93c2.57 3.86 3.86 7.08 3.86 9.66l2.58 3.23 11.6 3.22c6.44 3.22 10.3 8.36 10.3 14.17v.64c-.64 10.3-7.72 17.4-22.55 19.98l-59.28-6.45-8.38-5.8c-5.15-3.87-7.72-9.02-7.72-14.18v-5.15c2.57-6.44 6.44-10.3 13.52-11.6l10.3.64c1.95 0 3.23-.63 3.23-1.92 1.94-4.5 3.87-7.74 6.44-11.6 5.82-7.08 12.26-9.02 19.34-7.73 7.74 1.93 12.9 5.8 16.76 12.9z"/><path fill="#FFE700" d="M159.7 434.62c9.67 6.44 22.56 10.3 39.96 10.3L222.2 443c0-5.16-1.28-10.96-4.5-16.76-4.5-10.95-12.9-17.4-23.84-18.7-11.6-1.27-20.62 3.23-27.7 12.25-3.23 5.15-5.16 9.66-6.45 14.82z"/><path fill="#D96038" d="M190 447.5c.64-4.5.64-8.38-2.58-12.24-3.22-3.86-6.44-6.44-11.6-7.73l-14.17.65c-4.52 2.57-7.1 5.14-8.4 9.66-1.27 3.86 0 8.37 3.24 11.6 2.57 3.86 6.43 6.43 11.6 7.73l14.16-1.3c4.5-1.92 6.44-4.5 7.73-8.37z"/><path d="M191.28 435.26c-3.86-5.16-8.37-9.02-14.82-10.3-7.1-1.94-13.53-1.3-18.04 1.92-4.5 1.94-7.1 5.8-8.38 9.66-1.28 5.16 0 9.67 3.22 14.2 3.23 5.13 7.74 8.35 14.18 9.65 7.1 1.92 12.9.63 18.04-2.6 4.5-1.93 6.44-5.15 7.73-9.65l.66-3.87c0-3.22-.65-6.44-2.58-9.02zm-16.75-4.5c5.16 1.28 9.02 3.86 10.95 7.72 1.94 2.58 1.94 5.8 1.94 7.73-1.3 3.23-3.22 5.17-5.16 6.45l-13.53 1.3c-3.86-.65-7.08-3.22-10.3-6.45-1.94-2.57-3.23-5.8-1.94-9.02 0-1.94 1.93-4.5 5.15-6.44 3.86-1.94 8.37-2.58 12.88-1.3z"/><path fill="#D96038" d="M228 447.5c.65-3.86-1.28-7.73-5.15-10.96-3.22-2.57-8.38-4.5-13.53-4.5s-9.66 1.28-13.53 4.5c-3.88 3.23-5.16 6.45-5.8 10.96 0 3.87 1.92 7.73 5.14 10.3 3.87 3.23 8.4 4.52 14.18 4.52 5.15.64 9.67-1.3 13.53-3.87 3.22-2.58 5.16-6.44 5.16-10.95z"/><path d="M193.86 434.62c-4.5 3.22-6.44 7.08-7.1 12.88 0 5.15 1.94 9.67 6.45 12.9 3.88 3.2 9.68 5.14 15.48 5.14 5.8.65 11.6-1.28 15.46-5.15 5.16-3.23 7.1-7.75 7.1-12.9.63-3.86-1.3-7.73-4.52-11.6-4.52-4.5-10.3-7.08-17.4-7.08-5.8 0-10.95 1.93-15.46 5.8zm-.65 12.88c.66-3.22 1.94-6.44 5.17-9.02 3.22-1.94 6.44-3.22 10.95-3.22 5.15 0 9.66 1.93 12.88 5.15 1.94 2.6 3.23 5.17 2.58 7.1 0 3.23-1.93 6.45-4.5 8.37-3.23 2.58-7.1 3.87-10.96 3.22-4.5 0-8.38-1.3-11.6-3.23-2.58-1.92-4.5-5.14-4.5-8.37zM184.84 399.82c-.64-1.3-.64-1.93-2.58-1.93-1.3 0-1.3 1.28-1.3 1.92l3.24 21.9.64 1.3 1.93.64 1.3-2.58-3.23-21.26zM206.75 402.4c-.65-1.3-1.94-.64-1.94.65l-3.85 5.8-5.8 14.8c0 1.3 0 1.95 1.93 2.6.64.63 1.3 0 1.93-1.3l5.8-14.18 3.23-5.8c0-.64 0-1.93-1.28-2.57zM222.85 410.77h-2.58l-5.8 6.44-4.5 5.17c-1.3 1.3-1.3 1.3 0 2.58.64.65 1.28.65 2.57 0 3.87-5.8 7.1-9.66 10.3-10.96v-3.23zM168.1 406.27l-3.23-.65c-.65.65-1.3 1.93 0 3.23 3.86 5.14 6.44 9.66 7.72 11.6 0 1.28.64 1.92 1.93 1.28 1.28 0 1.28-1.3 1.28-1.94l-4.5-7.73-3.2-5.8z"/><path fill="#D96038" d="M286 307.04l12.23-4.5c9.02-3.87 12.9-10.3 13.53-18.7.65-7.72-3.86-13.52-11.6-17.4l-12.88-3.86c-.65-3.22-1.94-7.72-3.87-11.6-4.5-7.72-10.94-12.87-19.32-14.17-8.37-1.9-15.46.66-21.9 8.4-3.22 4.5-5.8 8.37-7.1 12.24h-11.6c-7.72 1.92-13.5 6.44-15.45 14.8-2.57 7.75 0 14.83 6.44 21.28l11.6 7.08 59.92 6.44z"/><path d="M315 283.2c0-7.08-2.6-12.88-9.04-16.75-4.5-3.22-9.66-5.8-16.1-6.44-3.23-14.8-11.6-23.2-25.13-26.4-7.1-1.93-14.82.64-20.62 5.15-4.5 4.5-8.36 9.02-10.94 15.47-5.8-.65-10.95-.65-16.1 1.92-5.8 2.58-10.3 7.1-12.25 14.83-2.56 7.72-1.27 14.8 4.52 21.26 3.87 5.15 9.67 9 16.1 11.6h.66l59.27 6.43h1.3c3.2 0 7.72-1.93 14.16-5.15 9.03-4.5 13.54-11.58 14.2-20.6v-1.3zm-30.94-19.97c0 1.3.64 2.58 2.58 2.58l10.95 3.23c7.07 3.22 10.94 7.74 10.94 14.18v.65c-.64 6.44-4.5 11.6-10.95 15.47l-12.26 4.5-58.62-6.44-9.02-5.15c-5.16-4.5-7.73-9.02-7.73-14.82l1.28-4.5c1.94-6.44 5.8-10.96 12.25-12.24h10.3c1.94.64 3.22 0 3.87-1.3 1.93-4.5 3.87-8.36 6.44-11.6 5.17-7.08 11.6-9.65 19.34-7.72 7.74 1.3 13.53 5.8 16.75 12.88 1.92 3.87 3.86 7.1 3.86 10.3z"/><path fill="#FFE700" d="M290.5 303.18c-.64-5.16-1.93-10.95-3.86-16.75-5.16-10.96-13.53-17.4-24.5-19.33-11.58-.65-20.6 3.22-27.05 12.9-3.87 5.13-5.8 9.65-7.1 14.8 9.02 7.1 22.56 10.3 39.95 10.3l22.55-1.92z"/><path fill="#D96038" d="M258.3 307.7c.63-4.52.63-8.38-2.6-12.25-3.2-3.22-7.07-6.45-12.23-7.1l-13.53.65c-4.5 1.94-7.1 4.52-8.38 9.02-.64 3.87-.64 7.74 2.58 11.6 2.58 3.87 7.1 6.45 12.24 7.73l13.53-.64c5.17-1.92 7.74-5.14 8.4-9z"/><path d="M218.34 296.74c-1.3 5.15-.65 9.66 3.22 14.82 3.23 4.5 7.74 7.1 14.18 9 6.44 1.3 12.9.66 17.4-2.56 4.5-1.93 7.08-5.15 8.37-9.67l.65-3.87c0-3.22-.64-5.8-2.57-9-3.87-5.8-8.38-9.03-14.82-10.32-7.1-1.93-12.9-1.3-18.04 1.93-3.87 1.93-7.1 5.16-8.38 9.67zm6.44 1.93c.65-3.22 1.94-5.15 5.16-6.44 3.22-1.94 8.37-2.58 12.88-1.3 5.16 1.3 9.03 4.52 10.96 7.74 1.93 2.57 1.93 5.15 1.3 7.73-.66 3.22-2.6 5.15-5.17 6.44-3.85 2.58-7.72 3.22-12.88 1.94-3.86-1.3-7.72-3.23-10.3-6.45-1.94-3.22-3.22-6.44-1.94-9.66z"/><path fill="#D96038" d="M296.3 308.33c0-4.5-1.93-8.37-5.15-11.6-3.87-2.57-8.38-4.5-13.53-4.5-5.8 0-9.67 1.3-13.54 4.5-3.86 2.6-5.8 6.45-5.8 10.95 0 3.88 1.94 7.74 5.8 10.32 3.23 3.22 7.74 4.5 12.9 5.15 5.14 0 10.3-1.93 13.52-4.5 3.87-3.22 5.8-6.45 5.8-10.32z"/><path d="M299.52 308.33c0-4.5-1.93-9-5.15-12.23-3.87-4.52-9.67-7.1-16.75-7.1-5.8 0-11.6 1.94-15.47 5.8-4.5 3.22-6.44 7.1-7.08 12.88 0 4.52 2.57 9.67 6.44 12.9 3.87 3.86 9.67 5.15 15.47 5.8 6.44 0 11.6-1.94 16.1-5.16 3.88-3.22 6.45-8.38 6.45-12.9zm-6.44 0c0 3.23-1.93 5.8-5.15 7.74-2.58 2.58-6.45 3.86-10.96 3.86-4.5-.64-8.37-1.93-10.95-3.86-3.22-1.94-4.5-5.16-4.5-8.4 0-3.2 1.28-6.43 4.5-9 3.22-1.93 7.73-3.22 11.6-3.22 4.5 0 9.02 1.93 12.24 5.15 1.93 1.94 3.22 4.5 3.22 7.73zM252.5 260c0-1.92 0-1.92-1.94-1.92-1.3 0-1.3 1.28-1.3 1.93l3.23 21.9c0 1.3.63 1.95 1.92 1.3 1.3 0 1.93-.64 1.3-1.93L252.48 260zM275.04 262.58c-.64 0-1.93 0-2.58.65l-3.22 6.45-5.16 14.17c-.64 1.93 0 1.93 1.3 2.58.64 0 1.93 0 1.93-1.3l5.16-14.17 3.22-5.15c1.3-1.28.65-2.57-.64-3.22zM289.2 270.96h-2.57l-9 11.6c-.66 1.3 0 2.57.63 3.22.64.65 1.93 0 2.58-.65l7.73-10.94c1.3-.65 1.93-1.3.64-3.24zM236.38 266.45h-3.22c-.64 0-.64 1.3 0 2.58l7.08 12.24c0 1.3 1.3 1.3 2.58 1.3 1.3-.66 1.94-1.94 1.3-2.58l-4.52-7.75-3.22-5.8z"/><path fill="#D96038" d="M97.22 421.73c-1.3-5.16-4.5-9.66-9.67-12.88-4.5-2.58-10.3-3.23-16.1-1.94-5.17 1.95-9.67 5.17-12.25 9.67-3.22 5.16-4.5 10.3-2.58 15.47 1.3 5.8 4.5 9.66 9.67 12.88 4.5 2.58 10.3 3.87 16.1 2.58 5.15-1.3 9.66-4.5 12.88-9.66 2.58-4.52 3.87-10.3 1.94-16.1z"/><path d="M54.7 433.32c1.28 5.8 4.5 10.96 10.3 14.18 5.8 3.23 11.6 3.87 18.04 1.93 5.8-1.28 10.96-5.15 14.18-10.3 3.22-5.8 4.5-11.6 2.57-17.4-1.3-6.44-5.16-10.96-10.96-14.82-5.16-3.2-11.6-4.5-18.04-2.57-5.8 1.3-10.3 5.16-13.53 10.96-3.22 5.14-4.5 11.58-2.58 18.02zm4.5-1.92c-1.3-4.52-.64-9.67 1.93-13.54 2.58-4.5 6.44-7.1 11.6-8.37 4.5-1.3 9.66-.65 14.17 1.92 3.87 2.57 7.1 6.44 7.74 10.95l.64 4.5c0 4.53-1.3 7.75-3.87 10.97-2.57 3.86-5.8 6.44-10.3 7.1-4.5 1.27-9 .63-13.53-1.95-3.86-2.6-7.08-6.46-8.37-11.6z"/><path d="M83.04 429.46c-9.02-4.5-18.7-5.8-27.06-4.5-1.3 0-1.93.64-1.3 2.57 0 1.3 0 1.3 1.94 1.3 7.73-1.95 16.1-.66 24.5 4.5 5.14 1.93 8.36 4.5 11.6 7.73h2.56v-3.22l-12.24-8.38z"/><path d="M84.97 405.63H82.4c-3.87 3.86-5.8 8.36-5.8 15.45l1.3 9.67c0 1.3 1.27 1.3 2.56 1.3 1.3-.65 1.93-1.3 1.3-1.95-2.6-9.66-1.94-17.4 2.57-21.25l.64-3.23z"/><path fill="#D96038" d="M348.5 369.54c-5.17-2.57-10.32-3.22-16.12-2.57-5.8 1.92-9.66 4.5-12.88 9-3.22 5.17-3.87 10.33-2.58 16.12.64 5.8 3.86 10.3 9.02 12.88 4.5 3.22 9.66 3.87 15.46 2.57 5.15-.64 10.3-3.86 13.53-8.37 2.58-5.16 3.87-10.3 2.58-16.1-1.28-5.8-4.5-10.32-9-13.54z"/><path d="M359.44 382.43c-.64-6.45-3.87-10.96-9.67-14.82-5.8-3.2-11.6-4.5-17.4-3.2-7.08 1.92-12.23 5.14-15.45 10.3-3.23 5.15-3.87 11.6-3.23 18.04 1.93 6.44 5.15 10.95 10.3 14.8 5.8 3.23 11.6 4.53 18.05 3.23 6.44-1.92 10.95-5.14 14.17-10.94 2.58-3.87 4.5-7.74 4.5-12.25l-1.28-5.15zm-4.5 1.3c.64 4.5.64 9.65-2.58 14.16-3.23 3.86-6.45 6.43-11.6 7.73-4.5.64-9.67 0-14.18-3.23-3.86-2.58-6.44-6.44-7.73-10.96-1.3-5.14 0-9.66 2.58-14.17 2.57-4.5 7.08-7.08 11.6-7.73 5.15-.65 9.66 0 13.52 2.57 4.5 1.95 6.45 6.46 8.38 11.62z"/><path d="M342.7 385c-9.68 3.22-17.4 7.74-22.56 15.47-.64.64-.64 1.93 0 2.57l3.22-.64c4.5-6.44 11.6-10.96 21.26-13.53l12.9-1.93 1.92-1.94-1.93-1.93-14.8 1.93z"/><path d="M328.5 366.32c-1.92 0-1.92.65-1.92 2.57-.64 7.73 3.22 14.17 13.53 20.62 1.3.64 1.95 0 2.6-.65.63-1.3.63-2.57-.65-2.57l-5.8-5.8c-4.52-3.87-6.45-7.74-6.45-11.6l-1.3-2.58z"/><path fill="#D96038" d="M271.82 209.12c2.58-4.52 3.22-10.32 1.3-16.1-1.3-5.17-5.17-9.67-10.33-12.25l-16.1-1.3c-5.17 1.94-9.68 5.8-11.6 10.32-3.23 5.13-3.23 10.3-1.94 16.1 1.93 5.8 5.8 9.66 10.3 12.23l16.1 1.3c5.8-1.3 9.04-5.17 12.26-10.3z"/><path d="M276.97 199.45l-1.3-7.1c-1.92-6.43-5.78-10.3-11.6-13.52-5.78-2.58-11.58-3.87-18.02-1.93-6.45 2.57-10.3 5.8-13.53 12.24-2.58 5.8-3.22 11.6-1.94 17.4 2.58 6.44 5.8 10.94 12.24 14.16l17.4 1.3c5.8-1.94 10.95-5.8 14.18-11.6 1.28-3.86 2.57-7.1 2.57-10.95zm-6.44-5.8c1.3 5.15 1.3 9.67-1.3 14.82-1.92 3.87-5.15 7.1-10.3 9l-14.17-1.9c-4.52-1.95-7.74-5.8-9.02-10.32-1.3-5.16-.65-9.67 1.28-14.18 2.58-4.5 5.8-7.72 10.96-9.02l13.53 1.3c4.52 2.57 7.74 5.8 9.03 10.3z"/><path d="M238.96 184c-1.3-.66-1.94-.66-2.58.63-1.3 1.3-.64 1.94 0 2.58 7.1 4.5 12.9 10.96 16.1 19.98l3.23 12.88c0 1.3.65 1.94 2.6 1.94l1.27-2.58-3.86-14.17c-3.2-9.67-9.65-16.76-16.74-21.26z"/><path d="M273.1 189.14l-1.93-1.93c-5.15 0-9.66 2.6-14.17 7.73l-5.15 7.74c-.65 1.3 0 2.58.64 2.58l2.57-.65 4.5-6.44c3.87-5.15 7.74-7.1 11.6-7.1l1.94-1.92z"/><path fill="#D96038" d="M158.43 308.33c3.22-5.15 4.5-10.3 2.57-16.1-1.3-5.8-4.5-9.67-9.02-12.9-5.16-2.56-10.3-3.2-16.1-2.56-5.16 1.92-9.67 5.14-12.9 9.66-3.2 5.15-3.86 10.3-2.57 15.46 1.94 6.43 5.16 10.3 9.67 12.88 5.16 3.22 10.3 3.87 15.47 3.22 5.8-1.94 10.3-5.15 12.9-9.67z"/><path d="M135.23 274.2c-5.8 1.92-10.96 5.14-14.18 10.94-3.86 5.15-4.5 11.6-3.22 17.4 1.94 6.44 5.16 11.6 10.95 14.8 5.16 3.88 11.6 4.53 18.04 3.23 5.8-1.92 10.96-5.8 14.18-10.95 1.93-3.86 3.22-7.73 3.22-12.24l-.64-5.15c-1.3-6.45-5.15-11.6-10.3-14.82-5.8-3.2-11.6-4.5-18.05-3.2zm-9.67 14.16c2.58-5.15 6.44-7.73 10.96-9.02 5.15-.65 9.02 0 13.52 2.57 4.5 1.95 7.1 6.46 8.38 10.97 1.3 5.15.65 9.67-1.93 14.17-2.6 4.5-6.46 7.1-10.96 7.73-5.16 1.3-9.67.65-14.18-1.93-3.87-2.58-7.1-6.44-8.37-10.95-.66-5.16 0-9.67 2.56-13.54z"/><path d="M127.5 280.63l-3.23.64c0 1.3 0 1.94 1.3 2.58 6.44 4.5 11.6 11.6 14.17 21.26l2.58 12.9c0 1.3 0 1.93 1.28 1.93l1.94-1.93c0-4.5-.65-9.67-1.94-14.82-3.22-10.3-8.37-17.4-16.1-22.55z"/><path d="M144.9 292.88c-2.58 2.57-4.52 5.14-5.8 7.72-.65 1.3 0 1.94.64 2.58l2.58-.64 4.5-6.44c4.5-3.87 8.38-6.45 12.9-6.45l1.93-1.3c0-1.28-.65-1.92-1.94-2.57-4.5 0-9.66 2.58-14.8 7.1z"/><path fill="#D96038" d="M258.93 500.33c-1.93 3.86-2.58 8.38-.64 12.25.63 3.86 3.85 7.08 7.08 9.02l12.24.64c3.86-.64 7.08-3.86 9-7.08 1.95-3.87 1.95-7.74 1.3-12.25-1.3-3.85-3.86-7.07-7.73-9l-11.6-1.3c-4.52 1.3-7.1 3.87-9.67 7.73z"/><path d="M255.7 513.22c1.3 5.16 4.52 8.38 9.03 10.3l13.53 1.94c5.15-1.94 8.37-5.16 10.3-9.66 2.6-3.87 3.23-8.38 1.94-13.53-1.93-4.52-5.15-8.38-9.02-10.96l-14.17-1.27c-5.15 1.93-8.37 5.15-10.95 9.02-1.93 4.5-2.57 9.66-.64 14.17zm5.16-1.3c-1.3-3.86-1.3-7.08.65-10.3 1.3-2.57 3.87-5.15 7.1-5.8h10.3c2.58 1.93 5.16 4.5 6.44 7.73l.65 3.87-1.3 6.44c-1.93 3.22-4.5 5.16-7.73 6.44l-10.3-1.28c-2.6-1.3-5.16-3.87-5.8-7.1z"/><path fill="#D96038" d="M49.54 304.46c1.93-3.22 1.93-7.72 1.3-12.23-1.3-3.87-4.52-6.45-7.75-9.02l-12.25-.64c-3.86 1.3-7.08 3.87-9.02 7.73-2.58 3.22-2.58 7.72-1.3 11.6 1.3 4.5 3.88 7.08 7.75 9.66l11.6.64c4.5-1.3 7.72-3.87 9.66-7.74z"/><path d="M19.25 289c-1.93 3.87-2.57 9.02-1.3 13.54 1.95 5.14 4.52 9.02 9.04 10.95l13.5 1.28c5.17-1.94 9.03-4.52 10.97-9.02 2.58-4.52 3.22-9.66 1.3-13.53-1.3-5.16-4.53-9.02-8.4-10.96L30.22 280c-5.14 1.9-8.37 5.13-10.95 9zm5.16 2.58c1.3-3.22 3.88-5.8 7.1-6.45l10.3.65c3.23 1.3 5.16 3.87 6.45 7.74v3.86l-1.3 5.8c-1.93 3.22-3.86 5.15-7.08 6.44l-10.3-.64c-3.23-1.3-5.16-3.87-6.45-7.74-.64-3.22-.64-6.44 1.3-9.66z"/><path fill="#D96038" d="M328.5 321.22c-1.28-3.87-3.2-7.1-6.43-9.66-3.86-2.58-7.73-3.23-11.6-3.23-4.5 1.3-7.73 3.23-10.3 6.45-2.58 3.86-3.22 7.73-2.58 12.23.63 3.88 2.57 7.1 6.43 9.68 3.22 2.58 7.1 3.87 11.6 2.58l9.66-5.8c2.57-3.87 3.86-7.73 3.2-12.24z"/><path d="M309.83 305.76c-5.16 1.28-9.02 3.86-12.24 7.73-2.6 4.5-3.23 8.37-3.23 13.5 1.3 5.17 3.22 9.04 7.73 11.62 4.5 3.22 9.02 4.5 14.18 3.22 4.5-.64 8.37-3.22 10.94-7.73 3.23-3.22 4.52-8.37 3.23-12.88-.65-5.8-3.23-9.66-7.1-12.24-4.5-2.58-9-3.87-13.52-3.22zm10.3 7.73c3.23 1.93 5.16 4.5 5.8 8.37v2.57c0 2.57-.64 4.5-2.57 7.1l-8.37 5.14c-3.88.65-7.1 0-9.68-1.93-2.58-2.58-4.5-5.16-5.15-9.02-.65-3.22 0-6.44 1.93-9.66 1.93-2.58 5.15-4.5 8.38-4.5 3.22-.66 6.44 0 9.66 1.92z"/><path fill="#D96038" d="M310.48 178.2c2.57-3.88 3.22-7.1 3.22-11.6-.64-4.52-3.22-7.74-6.45-9.67-3.86-3.23-7.73-3.87-12.24-3.23-3.85 1.3-7.07 3.23-10.3 6.45-1.93 3.22-3.22 7.73-2.58 11.6 1.3 4.5 3.23 7.73 6.45 10.3 3.87 1.94 7.73 3.22 12.24 2.58 3.87-1.28 7.1-2.58 9.68-6.44z"/><path d="M294.37 151.77c-4.5 0-9.03 3.22-10.96 7.1-3.2 4.5-4.5 9-3.2 13.5.64 4.53 3.2 8.4 7.08 11.62 3.86 2.57 9.02 3.85 13.53 3.2 5.16-1.28 9.03-3.2 12.25-7.72 2.58-3.87 3.87-8.38 2.58-12.9-.65-5.14-3.22-9.66-7.74-12.23-3.87-2.58-8.38-3.87-13.53-2.58zm1.3 4.5c3.85-.64 7.07.65 9.65 1.94 2.58 2.6 5.16 5.17 5.16 8.4v2.56c0 2.58 0 5.16-1.94 7.74-1.93 2.57-4.5 5.15-8.37 5.15-3.22.65-7.1 0-9.67-2.58-3.22-1.93-5.16-4.5-5.8-8.37 0-3.22 0-6.44 2.58-9.67 1.94-2.57 4.5-4.5 8.38-5.15z"/><path fill="#D96038" d="M262.15 366.97c-3.22-2.58-7.08-3.22-10.95-2.58-4.5 1.27-8.38 2.57-10.3 6.43-2.6 3.22-3.88 7.73-2.6 11.6.66 3.87 2.6 7.73 6.45 10.3 3.23 1.94 7.1 3.23 10.96 1.94 4.52 0 8.38-1.93 10.32-5.8 2.57-3.87 3.22-7.73 2.57-12.24-.65-3.87-2.58-7.1-6.45-9.66z"/><path d="M242.82 394.67c4.52 3.22 9.03 3.86 13.53 3.22 5.16-1.3 9.02-3.23 12.24-7.74 2.58-3.86 3.22-8.38 3.22-13.53-1.3-5.16-3.87-9.02-7.74-11.6-4.5-2.58-8.37-4.5-13.52-3.22-4.5 1.3-9.02 3.87-11.6 7.74-3.22 3.87-3.87 8.38-3.22 13.53.64 5.15 3.22 8.37 7.08 11.6zm23.2-17.4l.64 2.58c0 2.58-1.3 5.15-2.58 7.1-1.93 3.2-5.15 5.14-8.37 5.8-3.2 0-6.43 0-9.65-2.6-3.23-1.93-4.5-5.15-5.8-8.37-.65-3.22 0-6.44 2.57-9.67 2.58-2.56 5.16-4.5 8.38-5.13 3.87-.65 7.1 0 10.3 2.57 2.58 1.93 3.88 4.5 4.52 7.73z"/><path fill="#D96038" d="M129.43 484.87c2.57-3.87 3.22-7.73 2.57-11.6-1.3-4.5-2.57-7.73-6.44-10.3-3.22-2.58-7.08-3.88-11.6-2.58-3.86.63-7.73 2.56-10.3 6.43-1.94 3.23-3.22 7.1-2.58 11.6 1.3 3.86 2.58 7.73 6.44 9.66 3.87 2.57 7.74 3.2 11.6 2.57 3.87-.65 7.73-2.58 10.3-5.8z"/><path d="M101.72 465.54c-2.57 3.87-3.86 8.38-3.22 12.88 1.3 5.16 3.22 9.02 7.73 11.6 3.87 3.23 8.38 3.87 13.54 3.23 4.5-.65 9-3.23 11.6-7.1 2.57-4.5 3.86-9 2.57-13.52 0-5.15-3.22-9.02-7.1-12.24-3.85-2.6-8.36-3.23-13.52-2.6-5.15.65-9.02 3.23-11.6 7.74zm27.7 7.74v1.92c0 3.22-.64 5.8-1.93 7.74-2.58 3.22-5.16 5.15-8.38 5.15l-10.3-1.94c-2.6-2.58-4.52-4.52-5.16-8.38-.65-3.86 0-7.1 2.57-9.66 1.93-2.6 4.5-4.5 8.38-5.8 3.23 0 6.45.64 9.67 2.57 2.58 1.93 4.5 5.16 5.16 8.38z"/><path stroke-miterlimit="100" d="M364.58 579.58H7.42V7.42h357.16v572.16z" fill="none" stroke="#000" stroke-width="14.84"/></svg>