<svg xmlns="http://www.w3.org/2000/svg" width="372" height="587" viewBox="0 0 372 587"><path fill="#fff" d="M0 0h372v587H0z"/><path fill="none" stroke="#000" stroke-width="3" stroke-miterlimit="100" d="M370.6 585.26H3.9V2.74h366.7v582.52z"/><path d="M41.8 410.77c-1.93-1.28-3.22 0-3.22 1.3-1.3 1.92-.64 3.22 1.3 3.22L132 449.4c-1.3-1.28-1.3-1.93-1.3-3.22.66-1.92 1.95-1.92 3.24-1.92l-92.14-33.5z"/><path fill="#858585" d="M293.73 53.2c0-5.8-2.58-9.03-7.1-9.03h-5.15c-1.3 1.3-2.58 3.87-2.58 7.74 0 239.06-.64 363.4-3.86 374.36-1.3 7.08-9.02 12.88-21.9 18.7l-27.7 10.93c-29.65 12.9-48.33 21.9-56.7 27.06-14.18 7.73-39.96 23.2-77.97 46.38-9.66 5.8-21.9 16.1-38 32.22l-21.27 23.2 112.75.64c5.8-9.03 15.46-18.7 27.06-29 12.27-10.3 21.9-16.76 29-19.33 6.47-1.93 10.97-5.16 14.2-9.02l9.66-14.82c7.73-9.67 29.64-27.06 66.37-52.83 4.5-3.88 7.1-7.75 7.1-12.9l-1.3-19.32-2.57-375z"/><path d="M284.7 40.95c-2.58 0-4.5.65-6.44 1.93-1.3 1.3-2.58 4.5-2.58 9.03 0 237.77-.64 362.1-3.86 373.07-.64 5.15-5.8 9.67-14.18 14.82l-23.84 9.65-16.1 6.44c-23.2 9.66-39.95 18.04-50.26 23.84L89.5 526.1c-15.5 9.03-35.46 28.35-60.6 56.7-1.3 1.3-1.3 2.58 0 3.87l2.58 1.28 112.75.65 2.57-1.3a171.25 171.25 0 0 1 26.42-27.7c12.24-10.95 21.26-17.4 28.35-19.32 5.15-1.93 9-3.87 11.6-7.1l7.72-9 5.8-9.03c3.84-5.16 14.8-13.53 30.9-27.06l34.8-25.8c4.5-3.2 7.1-6.45 8.37-10.95l-.63-12.9-.65-10.94-2.58-374.33c0-3.87-.65-6.45-2.58-9.03-2.58-1.93-5.16-3.22-7.74-3.22h-1.92zm-1.3 6.45h3.24c2.58 0 3.86 1.93 3.86 5.8l2.58 374.98 1.3 19.32c0 3.23-1.3 7.1-5.8 9.67l-29.65 21.9c-19.97 15.46-32.2 26.42-36.73 32.22l-7.08 9.63-5.8 7.73c-2.58 2.58-5.8 3.87-9.67 5.8-7.73 1.93-17.4 9.02-29 18.68-12.23 10.32-21.25 19.98-28.33 29l-103.74-.65c23.2-25.77 41.24-42.5 54.13-49.6l77.98-46.4a933.75 933.75 0 0 1 48.97-23.84l16.75-6.44 25.76-10.95c9.67-5.16 14.82-10.96 16.1-17.4 3.23-11.6 3.87-136.58 3.87-374.97l1.3-4.5z"/><path fill="#858585" d="M118.48 282.56l-1.3-84.4c0-9.02-1.28-12.24-4.5-10.95l-7.1 5.8-2.57 3.25c-1.26 30.28-1.26 61.2-1.9 93.42-.64 64.43 1.93 103.1 6.44 115.98 4.5 12.23 16.1 29.63 35.44 53.46a430.35 430.35 0 0 0 27.7 30.3c8.38.63 16.1-2.6 20.62-8.4-10.97-10.94-22.56-22.54-33.5-36.7-23.2-27.08-35.45-47.7-36.74-62.5l-2.57-99.23z"/><path d="M116.55 184l-5.8.63c-3.87 1.94-7.74 5.8-10.3 10.3l-.66 1.3c-1.3 24.48-1.96 56.7-1.96 96.64-.64 63.14 1.93 100.5 6.44 113.4 4.5 12.24 16.1 30.27 34.8 53.47l29 32.22 1.9.64c10.3.65 18.05-3.22 23.85-9.66 1.28-1.3 1.28-2.58 0-4.52-11.6-10.3-22.55-22.55-34.15-35.43-22.54-27.1-34.14-47.06-35.43-61.24l-2.57-99.87-1.3-83.76v-1.28c0-7.08-1.28-10.95-3.86-12.88zm-10.32 13.5l7.1-7.07.64 5.15v2.58l1.3 83.75 2.56 100.55c1.94 21.9 24.5 54.76 68.94 98.57-4.5 3.88-9.02 5.17-15.46 5.17l-28.96-33.5c-17.4-21.27-27.7-37.38-32.22-48.34-3.86-11.6-5.8-48.32-5.8-108.88 0-47.03.65-79.9 1.94-97.94z"/><path d="M259.57 441.06c-1.28-1.3-1.93-.64-2.57.64-1.93 6.45-6.44 12.25-11.6 16.75-3.87 2.58-9.02 5.16-16.1 9.03-10.32 5.8-16.76 9.66-19.98 13.52-5.8 7.1-16.75 16.1-32.22 25.77-16.1 9.67-30.28 16.1-42.52 19.98-10.95 3.86-25.13 14.18-42.52 30.93l-25.13 25.77c-1.3 1.28-.64 1.93.65 3.22 0 .64 1.3.64 2.58 0L94 560.9c17.4-16.75 31.56-26.42 41.87-29.64 12.9-4.52 27.06-11.6 43.17-21.27 16.1-10.3 27.06-19.35 33.5-27.08 2.58-3.22 8.38-7.1 18.04-12.24l17.4-9.68a48.08 48.08 0 0 0 12.88-18c0-1.3 0-1.94-1.3-1.94z"/><path d="M254.42 471.98l1.93-1.28 15.47-19.97c5.8-10.32 7.73-22.55 6.44-35.44l-2.58-1.97c-.64 0-1.28.64-1.28 1.94 1.28 12.88-.65 24.47-5.8 34.13-3.23 5.17-8.38 11.6-15.47 18.05l-1.28 2.58-19.98 16.1c-15.46 11.6-26.4 19.98-32.22 26.42l-12.88 10.3-14.82 6.45-19.33 9.03c-12.24 5.15-23.2 14.16-32.85 27.05-6.45 7.74-10.32 14.18-12.25 18.7-.64 1.28 0 2.57 1.3 2.57l2.57-.64c2.55-5.8 6.4-10.94 11.6-17.4 9.63-12.9 19.94-21.9 31.53-27.04l18.7-8.38 15.45-7.1 12.9-10.95 32.2-25.77 20.6-17.4z"/><path fill="#D96038" d="M106.88 312.85c-6.44-6.45-12.88-9.67-21.9-9.67-8.38.64-15.47 5.15-19.34 14.17-2.57 4.52-4.5 9.02-4.5 13.53l-10.96 2.58c-7.1 3.22-11.6 9.02-11.6 17.4-.64 8.37 3.23 14.8 11.6 19.33 4.5 2.54 9.02 3.83 12.9 3.83l59.9-7.73 10.96-6.43c7.1-6.44 9.66-13.54 8.38-21.9-1.94-7.1-6.45-12.25-16.1-14.2l-12.9-.63-6.44-10.3z"/><path d="M84.33 299.96c-7.1.64-13.53 3.86-18.7 10.3-3.2 4.52-5.8 10.96-7.07 17.4a30 30 0 0 0-14.82 5.8 20.46 20.46 0 0 0-8.38 16.75v1.3c0 8.4 3.22 14.84 9.67 19.35 5.8 3.22 10.95 5.8 17.4 6.44h1.28l59.3-7.74h1.3l12.24-8.37c7.73-7.1 10.3-14.84 9.02-23.85-1.3-6.45-5.16-12.24-12.24-14.82-5.8-1.93-11.6-3.2-18.03-3.2-2.6-4.52-5.17-8.4-9.04-11.62a33.74 33.74 0 0 0-21.9-7.7zm.64 6.44c7.74 0 14.18 2.58 19.33 8.38l5.8 9.66c0 1.3 1.94 1.93 3.22 1.3l12.24 1.27c7.73 1.3 12.25 5.2 13.54 11.64v3.22c0 5.8-1.94 10.95-7.74 15.46l-9.66 5.8-58.64 7.74-11.6-3.86c-6.43-3.22-9.66-8.38-9.66-15.47v-.63c0-7.1 3.23-12.24 9.67-14.18l9.66-2.6 3.22-3.2c0-3.88 1.3-8.38 3.23-12.25 3.86-7.73 9.66-11.6 17.4-12.24z"/><path fill="#FFE700" d="M63.7 368.25l40.6 1.3 21.9-7.74c-1.93-5.12-4.5-10.92-7.72-15.44-7.74-9.66-17.4-14.17-28.36-12.24-11.6 1.3-19.32 7.75-23.2 18.7-2.57 5.15-3.2 10.3-3.2 15.46z"/><path fill="#D96038" d="M95.93 373.4c0-3.86-1.93-7.73-5.16-10.95-3.86-2.57-8.38-4.5-13.53-4.5-5.8-.65-9.66 1.28-13.53 4.5-3.84 2.58-5.8 6.44-5.8 10.3 0 4.52 1.3 7.74 5.8 10.97a20.73 20.73 0 0 0 12.9 4.5c5.8 0 10.3-1.28 13.55-4.5 3.87-2.58 5.8-6.45 5.8-10.3z"/><path d="M99.15 373.4c0-3.86-1.93-7.73-5.16-12.23-4.54-4.52-9.7-6.45-16.78-6.45-7.1 0-12.9 1.94-17.4 6.45-3.86 3.22-5.15 7.72-5.15 11.6 0 5.15 1.92 9.66 6.43 13.53 3.88 3.22 9.68 5.14 15.48 5.14 7.08 0 12.88-1.92 17.4-6.44 3.22-2.57 5.15-6.44 5.15-11.6zm-6.44 0c0 2.58-1.26 5.16-3.2 7.1-3.22 3.22-7.1 4.5-12.9 4.5a21.7 21.7 0 0 1-10.94-3.22 11.24 11.24 0 0 1-4.5-9.02c0-2.57 1.28-5.15 3.2-7.1a20.77 20.77 0 0 1 12.9-4.5 16.5 16.5 0 0 1 12.24 5.16c2.57 1.93 3.22 3.87 3.22 7.1z"/><path fill="#D96038" d="M132.65 365.03c-.65-4.5-3.22-7.1-7.1-9.02l-14.16-1.9c-5.2 1.3-9.7 3.87-12.27 7.73-3.22 3.87-3.87 7.74-3.22 11.6 1.3 3.88 3.87 7.1 7.74 9.68l14.17.65a15.8 15.8 0 0 0 11.6-7.1c3.23-3.86 4.5-7.08 3.23-11.6z"/><path d="M128.78 354.08c-5.8-3.22-11.6-3.87-18.68-3.22a29.43 29.43 0 0 0-13.53 9.02c-3.87 4.5-4.5 9.66-3.87 14.17 1.3 5.16 4.52 9.03 9.67 11.6l16.1 1.3c5.8-.65 9.67-3.23 12.9-7.1 3.85-3.22 5.14-7.1 5.14-12.24l-.6-3.2c-.65-4.5-3.23-7.73-7.1-10.3zm-16.75 3.22c4.52-.64 9.02-.64 12.9 2.58a6.2 6.2 0 0 1 4.5 5.8c1.28 3.2 0 6.43-1.94 9.66-3.25 3.22-6.47 4.5-10.97 5.8l-10.96-1.3c-3.88-1.28-5.8-3.86-6.45-7.08-.65-3.22 0-6.44 2.57-9.66 2.57-2.58 5.8-4.5 10.3-5.8zm-32.86-29c0-.64-1.28-1.3-1.93-.64l-1.3 2.58 8.4 19.97c0 .68 1.27 1.3 2.56.68 1.3 0 1.93-.65.65-2.58l-8.38-19.98z"/><path fill="#DA8E55" d="M101.08 327.66l-1.3 6.44-2.56 15.46 3.86-21.9z"/><path d="M101.72 325.73c-1.28 0-1.93 0-2.57 1.93l-1.93 6.44-1.3 15.46c-.64 1.3 0 1.94 1.3 1.94l2.57-1.94 1.9-14.8 1.3-6.45c.64-.62 0-1.9-1.3-2.55zm16.1 5.15l-3.2.65a33.6 33.6 0 0 0-5.8 13.53c0 1.28 0 1.93 1.3 1.93l2.57-.68c1.9-5.8 3.85-10.3 5.13-12.24v-3.23zm-53.47 7.1l-2.57.64c-.65 1.28-.65 1.93.64 2.58l11.6 10.94c.65 1.3 1.93 1.3 2.58.65.64-.68 1.3-1.96.64-2.6l-6.44-6.45-6.45-5.8z"/><path fill="#D96038" d="M218.98 402.4l-3.86-11.6c-3.87-7.73-10.3-12.24-18.7-14.17-9-1.94-16.1.64-22.54 8.37-3.22 4.52-5.8 8.38-7.73 12.9l-10.95-.66c-8.38 1.94-13.53 6.45-16.1 14.83-1.94 7.72 0 14.8 7.72 21.25 3.22 3.22 7.1 5.16 11.6 7.1l59.27 6.44L229.9 443c9.02-5.18 12.88-10.98 13.52-19.36.65-7.73-3.22-13.53-11.6-18.04L219 402.4z"/><path d="M164.87 394.67l-16.1 1.3c-6.45 2.56-10.32 7.07-12.25 14.8-2.58 7.74-.65 14.83 5.15 21.27A30.95 30.95 0 0 0 156.5 443l1.28.64 59.9 6.44h.66l14.18-5.15c9.02-5.16 13.53-11.6 14.17-20.62v-1.26c0-7.1-3.25-12.25-8.4-16.75-5.16-3.87-10.96-5.8-16.76-7.1-3.87-14.18-12.24-23.2-24.48-25.77-8.38-1.28-14.82 0-21.26 5.8a39.54 39.54 0 0 0-10.94 15.47zm47.03-1.93c2.57 3.86 3.86 7.08 3.86 9.66l2.58 3.23 11.6 3.22c6.44 3.22 10.3 8.36 10.3 14.17v.64c-.64 10.3-7.72 17.4-22.55 19.98l-59.3-6.45-8.38-5.8c-5.15-3.9-7.72-9.04-7.72-14.2v-5.15c2.58-6.44 6.45-10.3 13.53-11.6l10.3.64c1.95 0 3.23-.64 3.23-1.93a67.43 67.43 0 0 1 6.44-11.6c5.82-7.08 12.26-9.02 19.34-7.73 7.74 1.93 12.9 5.8 16.76 12.9z"/><path fill="#FFE700" d="M159.7 434.62c9.67 6.44 22.56 10.3 39.96 10.3L222.2 443c0-5.16-1.28-10.96-4.5-16.76-4.5-10.95-12.9-17.4-23.84-18.7-11.6-1.27-20.62 3.23-27.7 12.25a49.47 49.47 0 0 0-6.45 14.8z"/><path fill="#D96038" d="M190 447.5c.64-4.5.64-8.38-2.58-12.24-3.22-3.86-6.44-6.44-11.6-7.73l-14.17.65c-4.52 2.57-7.1 5.14-8.4 9.66-1.27 3.86 0 8.37 3.24 11.6 2.55 3.86 6.4 6.43 11.6 7.73l14.14-1.3c4.5-1.92 6.44-4.5 7.73-8.37z"/><path d="M191.28 435.26c-3.86-5.16-8.37-9.02-14.82-10.3-7.1-1.94-13.53-1.3-18.04 1.92-4.5 1.94-7.1 5.8-8.38 9.66-1.28 5.16 0 9.67 3.22 14.2 3.23 5.13 7.74 8.35 14.18 9.65 7.1 1.9 12.9.6 18.04-2.6 4.5-1.95 6.44-5.17 7.73-9.67l.68-3.87c0-3.22-.65-6.44-2.58-9.02zm-16.75-4.5c5.16 1.28 9.02 3.86 10.95 7.72 1.94 2.58 1.94 5.8 1.94 7.73a13.42 13.42 0 0 1-5.16 6.47l-13.53 1.3c-3.86-.65-7.08-3.22-10.3-6.45-1.94-2.56-3.23-5.8-1.94-9 0-1.95 1.9-4.5 5.13-6.45a17.68 17.68 0 0 1 12.88-1.3z"/><path fill="#D96038" d="M228 447.5c.65-3.86-1.28-7.73-5.15-10.96-3.22-2.57-8.38-4.5-13.53-4.5s-9.66 1.28-13.53 4.5c-3.9 3.23-5.18 6.45-5.8 10.96a13.4 13.4 0 0 0 5.12 10.3c3.87 3.23 8.4 4.52 14.18 4.52 5.16.64 9.68-1.3 13.54-3.87A13.77 13.77 0 0 0 228 447.5z"/><path d="M193.86 434.62c-4.5 3.22-6.44 7.08-7.1 12.88 0 5.15 1.94 9.67 6.45 12.9 3.9 3.2 9.7 5.14 15.5 5.14 5.8.65 11.6-1.28 15.46-5.15 5.16-3.25 7.1-7.77 7.1-12.9.63-3.88-1.3-7.75-4.52-11.6a23.8 23.8 0 0 0-17.4-7.1c-5.8 0-10.95 1.93-15.46 5.8zm-.65 12.88c.68-3.22 1.96-6.44 5.2-9.02 3.2-1.94 6.43-3.22 10.94-3.22a18 18 0 0 1 12.88 5.15c1.95 2.6 3.24 5.2 2.6 7.1 0 3.25-1.94 6.47-4.5 8.4-3.24 2.57-7.1 3.86-10.97 3.2a22.2 22.2 0 0 1-11.6-3.22c-2.58-1.92-4.5-5.14-4.5-8.37zm-8.35-47.68c-.64-1.3-.64-1.93-2.58-1.93-1.3 0-1.3 1.26-1.3 1.9l3.24 21.9.65 1.3 1.93.64 1.3-2.58-3.23-21.26zm21.9 2.58c-.64-1.3-1.93-.64-1.93.65l-3.84 5.8-5.8 14.8c0 1.3 0 1.95 1.93 2.6.64.63 1.3 0 1.93-1.3l5.8-14.18 3.23-5.8c0-.64 0-1.93-1.28-2.57zm16.1 8.37h-2.57l-5.8 6.44-4.5 5.2c-1.3 1.3-1.3 1.3 0 2.57.64.65 1.28.65 2.57 0 3.87-5.8 7.1-9.66 10.3-10.96v-3.22zm-54.74-4.5l-3.22-.65c-.65.65-1.3 1.93 0 3.23 3.86 5.14 6.44 9.66 7.72 11.6 0 1.28.63 1.92 1.92 1.28 1.28 0 1.28-1.3 1.28-1.94l-4.5-7.75-3.2-5.8z"/><path fill="#D96038" d="M286 307.04l12.23-4.5c9.02-3.87 12.9-10.3 13.53-18.7.65-7.72-3.86-13.52-11.6-17.4l-12.88-3.86a49.08 49.08 0 0 0-3.87-11.6c-4.5-7.72-10.92-12.87-19.3-14.17-8.37-1.9-15.46.68-21.9 8.4-3.22 4.5-5.8 8.4-7.1 12.26h-11.6c-7.72 1.92-13.5 6.44-15.45 14.8-2.57 7.75 0 14.83 6.44 21.28l11.6 7.08 59.9 6.45z"/><path d="M315 283.2c0-7.08-2.6-12.88-9.04-16.75-4.5-3.22-9.66-5.8-16.1-6.44-3.23-14.8-11.6-23.2-25.13-26.4-7.1-1.9-14.82.66-20.62 5.17-4.5 4.5-8.34 9.02-10.92 15.47-5.8-.65-10.95-.65-16.1 1.92-5.8 2.58-10.3 7.1-12.25 14.83-2.56 7.7-1.27 14.8 4.52 21.25 3.87 5.15 9.67 9 16.1 11.6h.66l59.28 6.43h1.3c3.2 0 7.72-1.93 14.16-5.15 9.03-4.5 13.54-11.58 14.2-20.6v-1.3zm-30.94-19.97c0 1.3.64 2.58 2.58 2.58l10.95 3.25c7.05 3.22 10.92 7.74 10.92 14.18v.65c-.64 6.44-4.5 11.6-10.95 15.47l-12.26 4.5-58.6-6.44-9.03-5.14c-5.16-4.5-7.73-9.02-7.73-14.82l1.28-4.5c1.94-6.44 5.8-10.96 12.25-12.24h10.3c1.94.63 3.22 0 3.87-1.3 1.93-4.5 3.87-8.37 6.44-11.6 5.16-7.1 11.6-9.66 19.33-7.73a21.66 21.66 0 0 1 16.76 12.88c1.92 3.87 3.86 7.1 3.86 10.3z"/><path fill="#FFE700" d="M290.5 303.18a88.98 88.98 0 0 0-3.86-16.75c-5.16-10.96-13.53-17.4-24.5-19.33-11.58-.65-20.6 3.22-27.05 12.9a39.07 39.07 0 0 0-7.1 14.8c9 7.1 22.54 10.3 39.93 10.3l22.55-1.92z"/><path fill="#D96038" d="M258.3 307.7c.63-4.52.63-8.38-2.6-12.25-3.2-3.22-7.07-6.45-12.23-7.1l-13.53.65c-4.5 1.94-7.1 4.52-8.38 9.02-.64 3.87-.64 7.74 2.58 11.6 2.58 3.87 7.1 6.45 12.24 7.73l13.53-.64c5.2-1.9 7.76-5.12 8.4-9z"/><path d="M218.34 296.74c-1.3 5.15-.65 9.66 3.22 14.82 3.23 4.5 7.74 7.1 14.18 9 6.44 1.3 12.9.66 17.4-2.56 4.5-1.93 7.08-5.15 8.37-9.67l.67-3.87a16 16 0 0 0-2.57-9c-3.88-5.8-8.4-9.03-14.83-10.32-7.1-1.93-12.9-1.3-18.04 1.93-3.87 1.93-7.1 5.16-8.38 9.67zm6.44 1.93c.65-3.22 1.94-5.15 5.16-6.44 3.22-1.94 8.37-2.58 12.88-1.3 5.16 1.3 9.03 4.52 10.96 7.74 1.93 2.57 1.93 5.15 1.3 7.73-.66 3.22-2.6 5.15-5.17 6.44-3.83 2.58-7.7 3.22-12.86 1.94-3.86-1.3-7.72-3.23-10.3-6.45-1.94-3.22-3.22-6.44-1.94-9.66z"/><path fill="#D96038" d="M296.3 308.33c0-4.5-1.93-8.37-5.15-11.6-3.87-2.57-8.38-4.5-13.53-4.5-5.8 0-9.67 1.3-13.54 4.5a12.66 12.66 0 0 0-5.8 10.95c0 3.88 1.94 7.74 5.8 10.32 3.23 3.22 7.74 4.5 12.9 5.15 5.14 0 10.3-1.93 13.52-4.5 3.87-3.22 5.8-6.45 5.8-10.32z"/><path d="M299.52 308.33c0-4.5-1.93-9-5.15-12.23-3.87-4.52-9.67-7.1-16.75-7.1-5.8 0-11.6 1.94-15.47 5.8-4.5 3.22-6.44 7.1-7.08 12.88 0 4.52 2.57 9.67 6.44 12.9 3.9 3.86 9.7 5.15 15.5 5.8a26.7 26.7 0 0 0 16.1-5.16c3.87-3.22 6.44-8.38 6.44-12.9zm-6.44 0c0 3.23-1.93 5.8-5.15 7.74-2.58 2.58-6.45 3.86-10.96 3.86-4.5-.64-8.37-1.93-10.95-3.86-3.22-1.94-4.5-5.16-4.5-8.4 0-3.2 1.28-6.43 4.5-9a24.13 24.13 0 0 1 11.6-3.22c4.5 0 9.02 1.93 12.24 5.15a10.7 10.7 0 0 1 3.22 7.73zM252.5 260c0-1.92 0-1.92-1.94-1.92-1.3 0-1.3 1.28-1.3 1.93l3.23 21.9c0 1.3.6 1.97 1.9 1.3 1.3 0 1.93-.62 1.3-1.9l-3.2-21.3zm22.54 2.58c-.64 0-1.93 0-2.58.65l-3.22 6.45-5.16 14.17c-.64 1.93 0 1.93 1.3 2.58.64 0 1.93 0 1.93-1.3l5.18-14.17 3.22-5.15c1.3-1.26.64-2.55-.65-3.2zm14.16 8.38h-2.57l-9 11.6c-.66 1.3 0 2.57.63 3.22.64.65 1.93 0 2.58-.65l7.73-10.94c1.3-.67 1.93-1.3.64-3.26zm-52.82-4.5h-3.22c-.64 0-.64 1.3 0 2.57l7.08 12.24c0 1.3 1.3 1.3 2.58 1.3 1.3-.66 1.94-1.94 1.3-2.58l-4.52-7.77-3.22-5.8z"/><path fill="#D96038" d="M97.22 421.73c-1.3-5.16-4.5-9.66-9.67-12.88-4.5-2.58-10.3-3.23-16.1-1.94-5.17 1.97-9.67 5.2-12.25 9.7-3.22 5.15-4.5 10.3-2.58 15.46 1.3 5.8 4.5 9.66 9.67 12.88a22.74 22.74 0 0 0 16.1 2.58c5.13-1.3 9.64-4.5 12.86-9.65 2.58-4.52 3.87-10.3 1.94-16.1z"/><path d="M54.7 433.32c1.28 5.8 4.5 10.96 10.3 14.18a22.07 22.07 0 0 0 18.04 1.93c5.8-1.28 10.96-5.15 14.18-10.3 3.22-5.8 4.5-11.6 2.57-17.4-1.3-6.44-5.18-10.96-10.98-14.82a21.95 21.95 0 0 0-18.04-2.55c-5.8 1.3-10.3 5.16-13.54 10.96a21.9 21.9 0 0 0-2.58 18.03zm4.5-1.92a16.64 16.64 0 0 1 1.93-13.54c2.58-4.5 6.44-7.1 11.6-8.37a18.5 18.5 0 0 1 14.17 1.9c3.87 2.57 7.1 6.44 7.74 10.95l.64 4.5c0 4.53-1.3 7.75-3.87 10.97-2.55 3.86-5.8 6.44-10.3 7.1-4.5 1.27-9 .63-13.5-1.95a19.63 19.63 0 0 1-8.38-11.6z"/><path d="M83.04 429.46c-9.02-4.5-18.7-5.8-27.06-4.5-1.3 0-1.93.64-1.3 2.57 0 1.3 0 1.3 1.94 1.3 7.73-1.95 16.1-.66 24.5 4.5 5.14 1.93 8.36 4.5 11.6 7.73h2.56v-3.22l-12.24-8.38z"/><path d="M84.97 405.63H82.4c-3.87 3.86-5.8 8.36-5.8 15.45l1.3 9.67c0 1.3 1.27 1.3 2.56 1.3 1.3-.65 1.93-1.3 1.3-1.95-2.6-9.66-1.94-17.4 2.57-21.25l.64-3.23z"/><path fill="#D96038" d="M348.5 369.54c-5.17-2.57-10.32-3.22-16.12-2.57-5.8 1.92-9.66 4.5-12.88 9-3.22 5.17-3.87 10.33-2.58 16.12a15.9 15.9 0 0 0 9.02 12.86c4.5 3.22 9.66 3.87 15.46 2.57 5.15-.64 10.3-3.86 13.53-8.37 2.58-5.16 3.87-10.3 2.58-16.1a22.2 22.2 0 0 0-9-13.54z"/><path d="M359.44 382.43c-.64-6.45-3.87-10.96-9.67-14.82-5.8-3.2-11.6-4.5-17.4-3.2-7.08 1.94-12.23 5.16-15.45 10.3-3.23 5.17-3.87 11.6-3.23 18.06a27.12 27.12 0 0 0 10.3 14.8c5.8 3.23 11.6 4.53 18.03 3.23 6.44-1.93 10.95-5.15 14.17-10.95 2.6-3.87 4.5-7.74 4.5-12.25l-1.27-5.16zm-4.5 1.3c.64 4.5.64 9.65-2.58 14.16-3.23 3.84-6.45 6.4-11.6 7.7-4.5.65-9.67 0-14.18-3.22a19.23 19.23 0 0 1-7.73-10.97c-1.3-5.13 0-9.65 2.58-14.16a15.9 15.9 0 0 1 11.6-7.73c5.15-.64 9.66 0 13.52 2.58 4.5 1.95 6.45 6.46 8.38 11.62z"/><path d="M342.7 385c-9.68 3.22-17.4 7.74-22.56 15.47-.64.64-.64 1.93 0 2.57l3.22-.64c4.5-6.44 11.6-10.96 21.26-13.53l12.9-1.93 1.92-1.94-1.93-1.93-14.8 1.93z"/><path d="M328.5 366.32c-1.92 0-1.92.65-1.92 2.57-.64 7.7 3.22 14.15 13.53 20.6 1.3.64 1.97 0 2.6-.65.65-1.3.65-2.57-.63-2.57l-5.8-5.8c-4.52-3.88-6.45-7.75-6.45-11.6l-1.3-2.6z"/><path fill="#D96038" d="M271.82 209.12c2.58-4.52 3.22-10.32 1.3-16.1-1.3-5.17-5.17-9.67-10.33-12.25l-16.1-1.3c-5.2 1.94-9.7 5.8-11.6 10.32-3.25 5.1-3.25 10.3-1.96 16.1 1.93 5.8 5.8 9.64 10.3 12.2l16.1 1.3c5.8-1.3 9.04-5.16 12.26-10.3z"/><path d="M276.97 199.45l-1.3-7.1c-1.92-6.43-5.78-10.3-11.6-13.52-5.78-2.58-11.58-3.87-18.02-1.93-6.45 2.57-10.3 5.8-13.53 12.24-2.58 5.8-3.22 11.6-1.94 17.4 2.58 6.44 5.8 10.94 12.24 14.16l17.4 1.3a25.07 25.07 0 0 0 14.18-11.6c1.28-3.86 2.57-7.1 2.57-10.95zm-6.44-5.8c1.3 5.15 1.3 9.67-1.3 14.82-1.92 3.87-5.15 7.1-10.3 9l-14.17-1.9a15.94 15.94 0 0 1-9.02-10.32c-1.3-5.16-.65-9.67 1.28-14.18 2.58-4.5 5.8-7.72 10.96-9.02l13.53 1.3c4.54 2.57 7.76 5.8 9.05 10.3z"/><path d="M238.96 184c-1.3-.66-1.94-.66-2.58.63-1.3 1.3-.64 1.94 0 2.58a38.62 38.62 0 0 1 16.1 20l3.23 12.88c0 1.3.67 1.94 2.6 1.94l1.3-2.57-3.87-14.17A40.3 40.3 0 0 0 238.97 184z"/><path d="M273.1 189.14l-1.93-1.93c-5.15 0-9.66 2.6-14.17 7.75l-5.15 7.74c-.65 1.3 0 2.57.64 2.57l2.55-.65 4.5-6.43c3.87-5.16 7.74-7.1 11.6-7.1l1.94-1.93z"/><path fill="#D96038" d="M158.43 308.33c3.22-5.15 4.5-10.3 2.57-16.1-1.3-5.8-4.5-9.67-9.02-12.9-5.16-2.56-10.3-3.2-16.1-2.56a27.32 27.32 0 0 0-12.9 9.66c-3.2 5.15-3.86 10.3-2.57 15.46 1.96 6.4 5.18 10.3 9.7 12.86 5.15 3.22 10.3 3.87 15.46 3.22 5.8-1.95 10.3-5.16 12.9-9.68z"/><path d="M135.23 274.2c-5.8 1.92-10.96 5.14-14.18 10.94-3.86 5.15-4.5 11.6-3.22 17.4 1.94 6.44 5.16 11.6 10.95 14.8 5.16 3.88 11.6 4.53 18.04 3.23A26.66 26.66 0 0 0 161 309.62c1.93-3.86 3.22-7.73 3.22-12.24l-.64-5.15a22.6 22.6 0 0 0-10.3-14.82c-5.8-3.2-11.6-4.5-18.05-3.2zm-9.67 14.16a16.7 16.7 0 0 1 10.96-9.02c5.15-.65 9.02 0 13.52 2.57 4.5 1.97 7.1 6.48 8.38 11 1.3 5.14.65 9.66-1.93 14.16-2.6 4.5-6.48 7.1-10.98 7.73a18.1 18.1 0 0 1-14.18-1.94c-3.87-2.58-7.1-6.44-8.37-10.95-.66-5.15 0-9.66 2.56-13.53z"/><path d="M127.5 280.63l-3.23.64c0 1.3 0 1.94 1.3 2.58 6.44 4.5 11.6 11.6 14.17 21.26l2.58 12.9c0 1.3 0 1.95 1.28 1.95l1.94-1.93c0-4.5-.65-9.66-1.94-14.8-3.22-10.3-8.37-17.4-16.1-22.56z"/><path d="M144.9 292.88a30.1 30.1 0 0 0-5.8 7.72c-.65 1.3 0 1.94.64 2.58l2.58-.64 4.5-6.44c4.5-3.87 8.38-6.45 12.9-6.45l1.93-1.3c0-1.28-.65-1.92-1.94-2.57-4.5 0-9.64 2.58-14.8 7.1z"/><path fill="#D96038" d="M258.93 500.33c-1.93 3.86-2.58 8.38-.64 12.25.6 3.86 3.83 7.08 7.06 9.02l12.24.64c3.87-.64 7.1-3.86 9-7.08 1.96-3.87 1.96-7.74 1.3-12.25a15.25 15.25 0 0 0-7.72-9l-11.6-1.3c-4.52 1.3-7.1 3.9-9.67 7.75z"/><path d="M255.7 513.22c1.3 5.16 4.52 8.38 9.03 10.3l13.53 1.94c5.15-1.94 8.37-5.16 10.3-9.66 2.6-3.87 3.23-8.38 1.94-13.53a25.23 25.23 0 0 0-9.02-10.96l-14.17-1.25c-5.13 1.93-8.35 5.15-10.93 9.02-1.93 4.5-2.57 9.66-.64 14.17zm5.16-1.3c-1.3-3.86-1.3-7.08.65-10.3 1.3-2.57 3.9-5.15 7.1-5.8h10.3c2.6 1.93 5.18 4.5 6.46 7.73l.65 3.87-1.3 6.44a15.03 15.03 0 0 1-7.72 6.44l-10.3-1.28c-2.6-1.3-5.16-3.87-5.8-7.1z"/><path fill="#D96038" d="M49.54 304.46c1.93-3.22 1.93-7.72 1.3-12.23-1.3-3.87-4.52-6.45-7.75-9.02l-12.27-.62a15.25 15.25 0 0 0-9.02 7.73c-2.57 3.23-2.57 7.73-1.3 11.6 1.3 4.5 3.9 7.1 7.76 9.67l11.6.64c4.5-1.3 7.72-3.86 9.66-7.73z"/><path d="M19.25 289a19.5 19.5 0 0 0-1.3 13.54c1.95 5.14 4.52 9.02 9.04 10.95l13.5 1.26c5.15-1.94 9-4.52 10.95-9.02 2.58-4.52 3.22-9.66 1.3-13.53-1.3-5.15-4.53-9-8.4-10.95L30.22 280c-5.14 1.9-8.37 5.13-10.95 9zm5.16 2.58c1.3-3.22 3.9-5.8 7.1-6.45l10.3.65c3.25 1.3 5.18 3.87 6.47 7.74v3.86l-1.3 5.8c-1.93 3.22-3.86 5.15-7.08 6.44l-10.3-.64c-3.24-1.3-5.17-3.87-6.46-7.74-.64-3.22-.64-6.44 1.3-9.66z"/><path fill="#D96038" d="M328.5 321.22c-1.28-3.87-3.2-7.1-6.43-9.66-3.86-2.58-7.73-3.23-11.6-3.23-4.5 1.3-7.73 3.23-10.3 6.45-2.58 3.86-3.22 7.73-2.58 12.23.6 3.9 2.55 7.1 6.4 9.7 3.23 2.58 7.1 3.87 11.6 2.58l9.67-5.8c2.57-3.87 3.86-7.73 3.2-12.24z"/><path d="M309.83 305.76a22.32 22.32 0 0 0-12.24 7.73c-2.6 4.5-3.25 8.35-3.25 13.5 1.3 5.15 3.22 9.02 7.73 11.6 4.5 3.22 9 4.5 14.17 3.22 4.5-.64 8.37-3.22 10.94-7.73 3.23-3.23 4.52-8.38 3.23-12.9-.65-5.8-3.23-9.65-7.1-12.23-4.5-2.58-9-3.87-13.52-3.22zm10.3 7.73c3.23 1.9 5.16 4.5 5.8 8.35v2.57c0 2.57-.64 4.5-2.57 7.1l-8.37 5.14c-3.9.65-7.1 0-9.7-1.93-2.58-2.58-4.5-5.16-5.15-9.02-.65-3.2 0-6.43 1.93-9.65 1.92-2.58 5.14-4.5 8.37-4.5 3.22-.66 6.44 0 9.66 1.92z"/><path fill="#D96038" d="M310.48 178.2c2.57-3.88 3.22-7.1 3.22-11.6a13.22 13.22 0 0 0-6.45-9.67c-3.86-3.23-7.73-3.87-12.24-3.23a25.25 25.25 0 0 0-10.3 6.45c-1.9 3.22-3.2 7.73-2.56 11.6 1.3 4.5 3.23 7.73 6.45 10.3 3.86 1.94 7.72 3.22 12.23 2.58 3.87-1.28 7.1-2.58 9.68-6.44z"/><path d="M294.37 151.77c-4.5 0-9.03 3.22-10.96 7.1-3.2 4.5-4.5 9-3.2 13.5.66 4.53 3.2 8.4 7.1 11.62a20.24 20.24 0 0 0 13.53 3.2c5.16-1.3 9.03-3.2 12.25-7.74 2.58-3.87 3.87-8.38 2.58-12.9-.65-5.14-3.22-9.66-7.74-12.23-3.86-2.58-8.37-3.87-13.52-2.58zm1.3 4.5c3.85-.64 7.07.65 9.65 1.94 2.58 2.6 5.16 5.2 5.16 8.4v2.58c0 2.58 0 5.16-1.94 7.74-1.93 2.58-4.5 5.16-8.37 5.16-3.22.65-7.1 0-9.67-2.58-3.22-1.93-5.16-4.5-5.8-8.37 0-3.2 0-6.43 2.58-9.66a12.6 12.6 0 0 1 8.38-5.15z"/><path fill="#D96038" d="M262.15 366.97c-3.22-2.58-7.08-3.22-10.95-2.58-4.5 1.25-8.38 2.55-10.3 6.4-2.6 3.23-3.88 7.74-2.6 11.6a15.08 15.08 0 0 0 6.45 10.3c3.23 1.95 7.1 3.24 10.96 1.95 4.54 0 8.4-1.93 10.34-5.8 2.57-3.87 3.22-7.73 2.57-12.24-.64-3.86-2.57-7.1-6.44-9.65z"/><path d="M242.82 394.67a17.8 17.8 0 0 0 13.53 3.22c5.16-1.3 9.02-3.25 12.24-7.76 2.56-3.86 3.2-8.38 3.2-13.53-1.3-5.15-3.87-9-7.74-11.6-4.5-2.57-8.37-4.5-13.52-3.2-4.5 1.3-9.02 3.86-11.6 7.73-3.22 3.87-3.87 8.38-3.22 13.53.64 5.15 3.22 8.37 7.08 11.6zm23.2-17.4l.64 2.58c0 2.58-1.3 5.15-2.58 7.1a12.67 12.67 0 0 1-8.37 5.8c-3.2 0-6.4 0-9.63-2.6-3.23-1.93-4.5-5.15-5.8-8.37-.65-3.22 0-6.44 2.57-9.67 2.58-2.54 5.16-4.5 8.38-5.1 3.88-.66 7.1 0 10.3 2.56 2.6 1.93 3.9 4.5 4.53 7.73z"/><path fill="#D96038" d="M129.43 484.87a15.5 15.5 0 0 0 2.57-11.6c-1.3-4.5-2.57-7.73-6.44-10.3-3.22-2.58-7.08-3.88-11.6-2.58a15 15 0 0 0-10.3 6.4c-1.94 3.24-3.22 7.1-2.58 11.6 1.3 3.87 2.58 7.74 6.44 9.67a15.52 15.52 0 0 0 11.6 2.57 16.75 16.75 0 0 0 10.3-5.8z"/><path d="M101.72 465.54c-2.57 3.87-3.86 8.38-3.22 12.88 1.3 5.16 3.22 9.02 7.73 11.6 3.87 3.23 8.38 3.87 13.54 3.23 4.5-.65 9-3.23 11.6-7.1 2.57-4.5 3.86-9 2.57-13.52 0-5.15-3.22-9.02-7.1-12.24-3.85-2.6-8.36-3.25-13.52-2.6a14.8 14.8 0 0 0-11.6 7.72zm27.7 7.74v1.92c0 3.22-.64 5.8-1.93 7.74-2.6 3.22-5.18 5.15-8.4 5.15l-10.3-1.96c-2.6-2.58-4.5-4.52-5.16-8.38-.65-3.86 0-7.1 2.57-9.66 1.94-2.6 4.5-4.5 8.4-5.8 3.22 0 6.44.65 9.66 2.58a14.38 14.38 0 0 1 5.16 8.38z"/><path stroke-miterlimit="100" d="M367 582H5V5h362v577z" fill="none" stroke="#000" stroke-width="10"/></svg>