<svg xmlns="http://www.w3.org/2000/svg" height="100%" viewBox="0 0 372 587"><path fill="#fffaf0" d="M0 0h372v587H0z"/><path fill="#858585" d="M326 106.54c-2.72 0-4.75 2.03-7.47 4.07-3.4 3.4-4.75 6.13-4.75 9.52l-6.8 126.96c-.67 13.58-4.06 25.12-10.18 37.34l-21.72 31.23-2.72-126.28-6.8 2.72c-4.06 2.02-6.1 4.74-6.78 8.13-2.72 67.9-3.4 114.75-3.4 137.83-25.1 28.5-60.42 65.18-105.9 109.3-48.9 48.2-78.08 73.34-85.56 76.05-8.14 2.05-20.37 0-36.66-6.78l-22.4-11.54-4.08 40.74c6.12 4.07 12.9 7.46 21.05 10.85 16.3 6.8 30.55 8.84 42.1 6.8 16.3-2.03 56.34-38.7 121.53-109.3 38.02-42.1 72.64-82.16 103.87-120.86 8.83-10.18 16.98-22.4 24.44-36.65 8.83-15.62 12.9-28.52 12.9-38.7l.68-68.58 2.04-59.75c.67-15.6-.7-23.08-3.4-23.08z"/><path d="M330.07 105.18l-4.07-2.03c-4.08 0-7.47 2.7-11.54 6.8-2.04 3.38-4.08 6.1-4.08 8.8v3.4c0 16.98-2.03 58.4-6.8 124.93-.66 10.86-3.38 21.73-8.13 31.23l-16.97 27.17-2.72-116.1-.68-2.72-3.4-.67c-2.72.67-6.1 2.04-8.83 4.07-4.07 3.4-6.8 6.1-7.46 9.5-2.05 71.3-3.4 114.07-3.4 130.36v6.8c-26.5 29.87-62.48 66.54-107.96 110.67-46.85 46.17-74 70.6-80.8 72.64-6.78 1.37-16.3 0-29.87-5.42-9.5-3.4-19-7.46-26.47-12.9H3.5l-1.35 2.72-4.76 40.74 1.35 3.4c4.07 3.4 12.22 7.46 22.4 11.53 16.98 6.8 31.23 8.83 43.46 6.8 15.62-2.04 50.93-32.6 105.25-91 35.98-38.7 76.03-84.85 121.52-139.17l.7-.68c9.5-10.2 17.64-23.08 24.43-37.35 8.82-16.97 13.57-30.55 13.57-40.73l.68-67.9 2.04-59.74c.67-14.26-.7-22.4-2.73-25.12zm-10.86 10.18c2.05-2.7 4.08-4.75 6.12-4.75l1.36 10.2-.68 8.14-2.04 60.43-.68 68.57c0 9.5-4.07 21.73-12.9 37.34-6.8 14.26-14.93 26.48-23.76 36.67l-.68.67c-50.92 61.8-95.73 112.7-134.43 152.76-46.16 48.9-75.35 74-87.57 75.38-10.2 1.35-22.4-.7-36-5.44-8.8-3.4-16.96-7.47-23.75-11.54l4.07-33.27c25.12 13.6 44.82 19 56.36 15.62 8.83-2.03 38.03-27.84 88.27-76.7 44.8-44.83 79.43-80.8 105.24-109.33l.68-2.04v-8.15c0-21.04 1.36-63.8 3.4-129.67.68-2.03 2.72-3.4 6.8-6.1l2.7 121.52 2.04 2.72 4.07-1.36.68-.67 21.04-31.23c6.8-11.54 10.2-24.44 10.86-38.02l6.8-124.93v-3.4l2.03-3.4z"/><path d="M326.68 261.33c-1.36-.67-2.72 0-2.72.7-4.07 12.88-23.76 39.36-58.4 79.43-30.54 35.98-51.58 57.7-61.77 66.53l-32.6 33.26c-59.06 63.14-94.37 96.4-105.24 100.48-9.5 2.72-23.08 1.36-39.37-5.44-8.84-2.7-16.3-6.8-23.1-10.85-.68-.68-1.35-.68-2.7.67 0 1.37 0 2.72.66 3.4 7.48 4.08 15.63 8.15 24.45 11.55 16.98 6.1 31.24 7.46 41.42 4.07 7.48-2.04 22.4-14.26 45.5-37.34l61.78-63.83 31.9-32.58c10.87-8.84 31.24-31.93 62.47-67.23 34.62-40.73 54.3-67.9 59.07-80.8.67-1.35 0-2.04-1.36-2.04z"/><path fill="#858585" d="M81.58 88.2c-.68 4.08 3.4 44.13 12.22 120.18 8.15 76.04 14.26 120.85 16.3 135.1 2.7 13.6 6.1 23.77 11.54 32.6 4.08 6.8 10.87 14.94 20.37 23.76 7.48 7.47 24.45 19.02 50.93 36l71.3 46.15c18.32 12.22 42.08 31.9 69.24 59.07l35.98 35.3 4.76-90.3c-25.8-23.77-50.24-42.77-74-56.35l-78.08-42.78-64.5-33.95c-6.8-4.08-13.58-12.9-19-24.45-4.76-10.18-8.16-21.04-10.2-32.6l-16.28-112c-8.15-65.2-12.9-100.5-12.9-104.56-2.04-5.45-6.12-8.17-11.55-6.8-3.4.67-5.44 2.02-6.1 5.42l-.02 10.18z"/><path d="M97.2 71.23c-2.72-2.03-6.12-2.7-10.2-2.03-3.38.68-6.1 2.03-7.46 5.43C78.2 76 78.2 79.4 78.2 82.78v5.42c-.7 4.77 3.38 45.5 12.2 122.2 8.83 76.74 14.26 121.55 16.3 133.77 2.72 13.58 6.8 25.12 11.54 33.27 4.08 7.47 11.54 16.3 21.05 25.8 9.5 8.15 37.33 27.16 83.5 56.35l39.38 25.1c18.33 12.24 41.4 31.92 68.57 58.4l36.67 35.98c.67.68 2.03 1.36 3.4.68l2.03-2.72 4.75-90.97-1.36-2.7c-25.8-24.46-50.24-42.8-74-56.37l-99.13-54.32-43.44-23.08c-6.8-3.4-12.22-10.86-17.65-22.4-4.75-9.5-8.14-20.37-10.18-31.92l-16.3-111.34c-8.82-65.18-12.9-100.48-12.9-104.55l-.67-1.38-4.75-6.8zM88.37 76c2.7 0 5.43.67 7.47 4.06l14.25 107.27c8.14 63.14 13.57 99.13 14.93 109.32 2.04 11.53 5.43 22.4 10.2 32.58 5.42 12.9 12.9 21.73 21.04 26.48l43.45 23.77c50.92 25.8 83.5 44.13 99.13 52.96 13.57 8.15 28.5 19 45.48 32.58l26.48 22.42-4.06 81.48c-12.9-13.58-27.16-27.84-42.78-41.4-22.4-21.07-42.1-37.36-58.4-48.22l-39.36-25.12c-46.17-29.88-74-48.88-82.16-56.36-8.82-8.82-15.6-16.97-19.68-23.76-4.76-8.15-8.15-18.33-10.87-31.23-2.05-13.57-8.15-57.7-16.3-132.4-8.83-73.3-12.22-114.04-12.22-120.83v-6.8l.67-4.75C86.33 76.67 87 76 88.37 76z"/><path d="M151.5 346.2l-2.02-2.7c-1.36 0-2.04.67-2.04 2.7l2.04 7.47c2.7 6.8 6.8 12.9 11.54 19 5.43 4.77 22.4 15.64 51.6 32.6L249.96 427l25.8 16.97c46.17 29.2 78.08 51.6 95.73 66.55h2.7c1.37-.7.68-2.05 0-2.72-11.54-10.2-27.15-21.73-47.52-35.3l-48.2-31.92L252 423.6c-4.75-3.4-17.65-10.86-37.34-22.4-28.52-15.6-44.8-26.47-50.25-31.9-4.73-4.76-8.13-10.2-10.85-16.3l-2.04-6.8z"/><path d="M129.1 294.6c-2.03-.67-2.7 0-2.7 1.36l-.68 27.84c0 19.7 3.4 33.95 7.46 43.45 4.07 7.47 10.86 15.62 21.05 23.08 5.43 4.08 16.97 10.87 32.6 19.7l16.28 10.18c15.62 8.84 35.32 21.74 59.08 37.35l45.5 31.9 10.85 8.84c27.16 22.4 44.13 38.7 50.92 49.55l2.72.68.68-2.72c-6.8-11.53-23.77-28.5-52.28-50.23l-10.2-8.82c-7.45-6.1-22.4-16.97-45.47-32.6l-59.75-37.34-16.3-10.17-32.58-19c-8.83-7.5-15.62-14.95-19.7-22.42-4.06-8.82-6.1-22.4-6.78-42.08l.66-27.16-1.35-1.36z"/><path fill="#D96038" d="M217.37 320.4l-14.26-2.03c-1.35-4.07-2.7-8.15-5.42-11.54-5.43-8.15-12.9-11.55-21.73-12.9-9.5-.68-16.3 3.4-21.73 12.22-3.4 4.08-5.43 9.5-6.8 13.58l-11.52 1.35c-8.84 2.04-13.58 8.15-14.27 16.98-1.36 8.82 2.04 15.6 10.2 21.72l12.2 6.1 63.83-1.34c4.07-.68 8.82-2.72 12.9-5.44 7.47-6.1 11.54-12.9 10.86-21.72 0-8.15-4.75-14.26-14.25-16.97z"/><path d="M155.58 298.68c-4.75 4.76-8.14 10.18-10.18 17.65-6.1-.68-11.54.7-16.3 4.08-6.1 3.4-10.18 8.83-10.86 16.98-1.36 8.82.7 15.6 7.48 22.4 4.74 4.08 10.86 7.47 18.32 9.5l64.5-1.34c4.75-.7 9.5-3.4 13.58-6.8 8.83-5.43 12.9-12.9 12.9-21.73v-2c0-8.17-4.07-13.6-10.86-17.67-5.44-2.7-11.54-4.75-19.02-4.75-1.35-5.44-4.06-9.5-8.14-13.58-5.43-6.12-12.22-9.5-20.37-10.86-8.83-.68-15.62 2.03-21.05 8.14zm-18.33 25.13l10.2-.68c2.03 0 3.38-.68 3.38-2.7 1.36-4.1 3.4-8.17 5.44-12.24 5.43-8.14 11.54-11.53 19.68-10.86 7.48.68 14.27 4.75 19 11.54l4.77 10.18c.68 1.37 2.03 2.72 3.4 2.72l12.2 1.36c8.84 2.7 12.92 7.47 12.92 14.94v1.35c0 10.2-6.8 17-21.05 21.75l-62.47 1.35c-3.4-.68-7.48-2.72-10.87-5.43-6.8-4.08-9.5-9.5-9.5-15.6l.68-2.73c.67-7.47 5.42-12.22 12.2-14.94z"/><path fill="#FFF000" d="M150.83 342.8c-3.4 6.12-4.75 10.87-4.75 16.3 10.2 6.12 25.12 8.15 42.1 6.12l23.76-5.44c-1.36-5.42-3.4-10.86-6.8-16.97-6.1-10.86-15.6-16.97-27.15-16.3-12.23.02-21.73 6.12-27.17 16.3z"/><path fill="#D96038" d="M178.67 368.6c.68-4.74-.68-8.14-4.08-12.22-3.4-3.4-8.15-5.42-13.6-6.1-5.42-.68-10.17 0-14.92 2.7-4.08 2.73-6.8 6.12-6.8 10.88-.67 4.07.7 7.47 4.08 11.54s7.47 5.43 13.58 6.8c5.43.67 10.2-.7 14.26-2.73 4.75-2.72 6.8-6.8 7.47-10.86z"/><path d="M182.74 367.25c0-4.08-1.36-7.47-4.75-10.86-3.4-6.12-8.84-8.83-16.3-9.52-7.48-.68-13.58 0-19 4.08-4.1 3.4-6.8 8.15-6.8 12.22-.7 4.76.67 9.5 4.75 14.26 4.07 4.08 8.83 6.8 15.62 7.47 6.8 1.37 13.58 0 19-4.07 4.76-3.4 6.1-6.8 6.8-11.54l.67-2.05zm-9.5-7.47c1.35 3.4 2.7 6.1 2.7 8.16l-4.74 7.46c-4.07 2.72-8.83 4.07-13.58 3.4-4.75-.68-8.14-2.72-11.54-5.44-2.72-2.72-4.07-6.1-3.4-9.5 0-3.4 1.36-5.44 4.08-7.48 4.07-2.7 8.82-3.4 14.25-3.4 4.77.7 8.85 3.4 12.24 6.8z"/><path fill="#D96038" d="M218.72 364.54c-.67-4.76-2.7-8.15-6.78-10.87-4.75-2.7-8.83-3.4-14.94-3.4-5.43.7-10.18 2.72-13.57 6.1-3.4 3.4-5.44 7.5-4.76 12.24.68 4.08 2.7 8.15 7.47 10.87 4.08 2.72 8.82 3.4 14.26 3.4 5.43-.68 10.18-2.72 13.58-6.8 4.07-3.4 4.75-6.78 4.75-11.53z"/><path d="M222.12 363.86c-.68-4.08-3.4-8.15-6.8-11.55-4.74-4.06-10.85-6.1-18.32-5.42-6.78.7-12.22 3.4-16.3 7.48-4.06 4.74-6.1 9.5-5.42 14.93.67 4.74 3.4 9.5 8.15 12.9 5.43 2.7 10.86 4.06 16.97 4.06 6.8-1.35 11.54-3.4 16.3-8.14 4.07-4.08 5.42-8.83 5.42-14.26zm-6.8 2.03c0 3.4-1.34 6.78-4.74 8.83-2.7 2.7-6.1 4.07-10.18 4.74-4.76 0-8.83-.67-12.23-2.72-3.4-2.02-5.43-4.74-6.1-8.8-.7-3.4 1.35-6.13 4.07-8.84 3.4-2.7 6.78-4.74 10.86-5.43 6.1-.68 10.2.7 13.58 4.08 2.7 2.03 4.07 4.75 4.75 6.8v1.34zM167.13 319.73c-.68-1.36-1.36-1.36-2.72-1.36-1.34.68-1.34 1.36-1.34 2.04l6.8 22.4 2.02 1.37c1.36-.68 1.36-1.36 1.36-2.04l-6.1-22.4zM190.9 319.73c-1.37-.7-2.73 0-2.73.68l-2.7 6.8-4.1 16.3c0 2.03.7 2.7 2.05 2.7.68 0 1.36 0 2.04-2.03l4.07-14.94 2.04-6.8c.68-.67 0-2.02-.68-2.7zM206.5 329.9c1.36-.67 1.36-1.35 0-2.7-1.35-1.37-1.35-1.37-2.7 0l-8.16 12.9c-.68 2.03 0 2.7 1.36 2.7 1.36 1.37 2.04.7 2.72-.67l6.78-12.22zM150.15 328.55h-2.7c-1.37.68-1.37 1.36 0 2.72l8.82 12.22 3.4.68c.67 0 1.35-1.37.67-2.05-1.36-4.07-4.76-8.82-10.2-13.58z"/><path fill="#D96038" d="M64.6 296.65c4.76 2.7 8.84 4.74 12.9 5.42l63.15-2.03c4.75-1.36 8.83-3.4 12.22-6.1 8.15-5.45 12.22-12.9 11.54-21.74-.67-7.47-5.42-13.58-14.92-16.97l-14.26-1.36c-1.36-4.07-2.72-8.14-5.43-11.54-6.13-7.47-12.92-11.55-21.74-12.23-9.5 0-16.98 4.08-22.4 12.9-2.72 4.75-4.76 8.83-5.44 13.6L68 257.93c-7.47 2.72-12.22 8.15-14.26 16.97-.67 9.52 2.72 16.3 10.87 21.75z"/><path d="M108.06 226.7c-8.15 0-14.94 2.05-21.05 8.84-4.06 4.75-7.46 10.2-9.5 17.65-6.1 0-11.54 1.34-16.28 4.74-5.44 3.4-9.5 9.5-10.87 16.97-.68 8.17 2.04 15.63 8.82 21.74 4.76 4.75 10.87 7.47 17.66 8.82l65.18-2.02c4.76-1.37 8.83-3.4 13.6-6.8 8.13-6.1 12.2-13.57 12.2-21.73v-2.7c-.67-7.47-4.74-13.58-11.53-16.97-5.44-3.4-11.55-4.76-19.02-4.76-5.43-14.93-14.93-23.08-29.2-23.76zm-50.92 51.6v-2.7c1.36-7.48 5.43-11.55 12.22-14.27l10.18-1.35c2.04.68 3.4-.67 4.08-2.72.67-4.74 2.7-8.82 4.75-12.9 5.43-7.46 11.54-10.86 19-10.86 8.16.68 14.27 4.07 19.7 10.86 3.4 4.08 4.75 7.47 4.75 10.2.68 1.35 2.04 2.7 3.4 2.7l12.9 1.36c8.15 2.7 12.9 7.48 12.9 14.27v2c0 9.52-6.8 17-20.37 21.75l-62.46 2.03c-14.27-3.4-21.06-10.2-21.06-20.37z"/><path fill="#FFF000" d="M78.2 295.96c11.52 6.1 25.8 7.48 43.44 5.44l23.08-6.12c-.68-5.42-2.7-10.86-6.1-16.97-6.8-10.85-16.3-16.28-28.53-15.6-12.23.68-21.05 6.1-26.48 16.98-2.72 5.42-4.75 11.53-5.43 16.28z"/><path fill="#D96038" d="M112.14 304.8c0-4.76-.7-8.15-4.08-12.23-4.07-3.4-8.15-5.43-14.26-6.1-5.43-.7-10.18.67-14.26 3.4-4.75 2.7-6.8 6.1-6.8 10.17-.66 4.75.7 8.82 4.1 12.2 4.06 3.4 8.14 6.13 13.57 6.8 5.44 0 10.2-.67 14.95-3.4 4.07-3.4 6.8-6.78 6.8-10.85z"/><path d="M75.47 288.5c-4.07 2.7-6.1 6.78-6.1 11.54-1.37 5.42.67 10.2 4.74 14.93 4.1 4.07 9.52 6.1 16.3 7.47 7.48 0 13.6-1.35 18.34-5.42 3.4-3.4 6.1-7.48 6.8-11.55v-2.03c0-4.08-1.37-8.16-4.1-11.55-4.06-4.76-9.5-7.48-16.96-8.83-6.8-.7-12.9 1.35-19 5.42zm4.75 4.75c3.4-2.72 8.15-4.07 13.58-3.4 4.76.68 9.5 2.72 12.22 6.1 2.04 2.73 2.72 6.12 2.72 8.84 0 2.7-2.04 4.74-4.08 6.78-3.4 3.4-8.14 4.07-13.58 4.07-4.75-.68-8.14-2.7-11.54-5.43-2.7-2.72-4.07-5.43-3.4-9.5 0-2.72 1.37-5.44 4.08-7.47z"/><path fill="#D96038" d="M152.2 299.36c-.7-4.08-2.72-7.47-7.48-10.2-4.07-2.7-8.82-4.07-14.93-2.7-5.44.68-9.52 2.7-12.92 6.1-3.4 4.1-4.74 7.48-4.74 12.23 0 4.06 2.7 8.14 6.8 10.85 4.73 2.72 9.5 3.4 14.92 2.72 5.43-1.36 10.18-2.72 13.58-6.8 3.4-3.4 4.75-7.46 4.75-12.2z"/><path d="M116.88 318.37c5.44 2.72 11.55 4.07 17.66 3.4 6.1-1.36 10.86-3.4 14.94-6.8 3.4-4.07 6.1-8.82 6.1-13.58v-2.04c-1.36-4.75-3.4-8.83-7.46-11.54-5.43-4.75-10.87-6.12-19-4.75-6.13.68-10.88 2.7-15.63 7.46-3.4 4.75-5.44 9.5-4.76 14.94.68 4.76 3.4 9.5 8.14 12.9zm4.76-6.12c-3.4-2.02-6.1-4.07-6.1-7.46 0-4.08.67-6.8 3.4-9.52 3.38-3.4 6.78-5.42 11.52-6.1 5.44 0 10.2.68 13.58 3.4 2.72 2.7 4.08 5.42 4.76 7.46 0 3.4-1.36 6.8-4.08 9.5-2.7 2.72-6.8 4.76-10.86 5.44l-12.22-2.73zM99.23 255.9c-.67-1.36-1.36-1.36-2.03-1.36-2.04 0-2.04 1.37-2.04 2.72l6.8 21.73c0 1.35 1.35 2.03 2.7 2.03 1.36-.68 2.04-2.04 1.36-2.72l-6.8-22.4z"/><path fill="#DA8E55" d="M116.2 279.67l6.12-21.73-2.04 6.1-4.07 15.63z"/><path d="M123 255.23c-1.36 0-2.72 0-2.72 1.36l-2.04 6.78c-2.03 5.43-3.4 10.86-4.07 16.3-.68 1.35 0 2.02 1.36 2.02l2.7-1.35 3.4-15.62 2.04-6.8c.7-.67 0-2.02-.67-2.7zM139.3 262.7c-1.37-1.37-2.05-1.37-3.4 0l-7.47 13.58c0 1.35 0 2.03.68 2.7 1.36 0 2.72 0 3.4-.67l6.8-12.9c.67-.67.67-1.35 0-2.7zM82.94 264.73h-3.4c-1.35 1.36-.67 2.72.68 3.4l4.08 4.07 7.47 8.15 2.7.68c.7-.68 1.37-2.04.7-2.72l-7.48-8.8-4.76-4.77z"/><path fill="#D96038" d="M167.13 492.86c8.82-4.76 12.9-11.55 12.9-20.37 0-8.16-4.08-14.28-13.58-18.34l-13.58-3.4-4.08-11.54c-5.44-7.47-12.23-12.22-21.05-14.26-8.82-1.36-16.3 2.04-23.1 10.2-2.7 4.74-5.42 8.8-6.78 13.57H86.33c-8.82 2.03-14.25 7.47-16.3 16.3-2.03 8.14.7 15.6 8.16 22.4 4.74 2.7 8.8 5.43 12.88 6.8l63.14 4.06c4.76-1.37 8.84-2.73 12.9-5.44z"/><path d="M155.58 448.04c-1.36-5.42-3.4-10.18-6.8-14.25-5.42-6.8-12.2-10.2-20.35-12.23-8.15-1.36-14.94.68-21.73 6.8-4.75 4.06-8.83 10.17-11.54 16.96-5.44-.68-10.87 0-15.62 2.7-6.8 2.73-11.54 8.17-12.9 16.3-2.03 8.16 0 15.63 6.1 22.42 4.76 4.75 10.2 8.14 16.98 10.86h1.36l63.83 4.08c4.76-1.35 10.2-3.4 14.95-6.1 8.82-6.12 13.57-13.6 13.57-23.1 0-7.46-3.4-13.57-10.18-18.32-4.75-3.4-10.18-5.43-17.66-6.12zm-10.18-7.46c2.72 4.75 4.08 8.14 4.08 11.54 0 1.36 1.35 2.04 3.4 2.04l12.2 3.4c8.16 3.4 11.55 8.14 11.55 14.93 0 6.78-3.4 12.88-10.18 16.96l-12.23 5.43-62.45-4.08c-3.4-1.36-6.8-2.72-10.2-5.43-6.1-4.76-8.82-9.52-8.82-15.62l.68-4.08c1.36-6.8 6.1-11.54 12.9-13.58H97.2c2.03 0 3.4 0 4.07-2.7.68-4.1 3.4-8.16 6.1-12.24 5.44-6.78 11.55-10.18 19.7-8.82 8.15 1.36 13.58 5.43 18.33 12.22z"/><path fill="#FFF000" d="M93.12 487.43c10.2 7.46 23.76 10.18 42.1 9.5l23.08-3.4c-.68-5.43-2.03-10.86-4.75-17.65-6.1-11.54-14.26-17.65-26.48-18.33-12.22 0-21.72 4.75-28.5 14.94-2.73 4.74-4.77 10.17-5.45 14.93z"/><path fill="#D96038" d="M125.03 499.65c.68-4.08 0-8.15-3.4-12.22-2.7-4.07-7.46-6.8-12.9-7.47-5.43-.68-10.17-.68-14.93 1.35-4.08 2.73-6.8 6.13-7.47 10.2-1.35 4.75 0 8.83 3.4 12.23 2.7 4.07 7.47 6.8 12.22 7.46l14.93-1.37c4.76-2.7 6.8-5.43 8.15-10.18z"/><path d="M125.72 486.75c-3.4-4.76-8.84-8.83-16.3-10.18-7.47-1.37-13.58-.7-19 3.4-4.1 2.7-6.8 6.1-7.48 10.85-1.36 4.75-.68 8.82 2.04 13.58 4.07 5.43 9.5 9.5 16.97 10.18 6.8 2.04 13.58.68 18.33-3.4 4.75-2.7 6.8-6.1 8.15-10.85l.68-3.4-3.38-10.18zm-36.67 6.1c.68-3.4 2.03-5.43 5.43-7.47 3.4-2.7 8.15-2.7 13.58-2.03 5.43.68 9.5 3.4 12.22 7.47 1.36 2.04 2.04 5.43 1.36 8.83l-4.76 6.78c-3.4 2.04-8.14 2.72-13.58 1.36-5.43-.68-9.5-3.4-12.22-7.47-1.35-2.04-2.7-4.76-2.03-7.47z"/><path fill="#D96038" d="M165.1 498.3c-.7-4.08-2.04-8.16-6.12-10.87-4.07-3.4-8.83-4.76-14.26-4.76-5.43.7-10.86 2.04-14.26 5.43-3.4 3.4-5.43 7.47-5.43 11.55.7 4.75 2.04 8.14 6.12 11.54 4.07 2.7 8.82 4.06 14.25 4.06 5.43-.68 10.87-2.03 14.26-5.43 3.4-2.7 6.1-6.8 5.43-11.54z"/><path d="M161 484.7c-4.73-3.4-10.17-5.42-16.96-5.42-6.1.68-11.54 3.4-15.6 6.8-4.77 3.38-6.8 8.13-6.8 13.57.68 5.43 2.72 10.18 7.47 14.26 4.76 3.4 10.2 4.76 16.98 4.76 6.1-.68 11.54-2.04 16.3-6.12 4.07-4.07 6.78-8.82 6.1-14.25-.68-5.44-2.7-9.52-7.47-13.6zm-16.28 1.37c4.76 0 8.15 1.35 11.55 4.07 3.4 2.72 4.74 4.75 5.43 8.15v.66c0 3.4-2.04 6.12-4.76 8.84-2.72 2.03-7.46 3.4-11.54 4.07-4.75 0-8.15-1.36-11.54-3.4-3.4-2.03-4.75-5.43-5.43-8.82 0-3.4 1.35-6.8 4.75-9.5 2.72-2.05 7.47-3.4 11.54-4.08zM116.88 450.08l-2.03-1.35c-1.36 0-2.04.68-2.04 2.03l4.77 22.4c.67 1.37 1.36 2.04 2.7 1.37l1.37-2.04-4.76-22.42z"/><path fill="#DA8E55" d="M131.82 475.88l7.47-21.72-2.73 5.43-4.75 16.28z"/><path d="M140.65 452.12c-1.36-.68-2.04 0-2.72.68l-2.72 6.1-6.1 15.62c0 1.36 0 2.72 2.04 2.72l2.72-1.36 4.75-14.93 2.73-6.12c1.36-.67.68-2.03-.68-2.7zM156.27 460.27c-1.36-1.36-2.05-1.36-3.4 0-2.04 2.04-4.75 5.43-8.83 12.22-1.35 1.35-.67 2.02.68 3.38 1.36 0 2.72 0 2.72-1.35l8.14-11.54.7-2.73zM99.9 457.55c-1.34-1.35-2.03-1.35-2.7 0-2.04.68-2.04 1.36-.7 2.72l8.16 12.9c.7.68 2.04 1.35 2.72.68 1.36 0 1.36-1.36 1.36-2.72l-8.83-13.58z"/><path fill="#D96038" d="M98.56 179.86c2.7-5.42 2.7-10.86 1.35-16.97-2.03-6.12-6.1-10.2-11.53-12.9l-16.97-.7c-5.44 1.37-10.2 4.77-12.23 10.2-2.7 6.1-3.4 11.54-2.03 16.97 2.03 6.1 6.1 10.18 10.86 12.9l16.98 1.36c6.1-2.04 10.18-6.1 13.58-10.87z"/><path d="M70.72 145.9c-6.8 2.73-10.86 6.8-14.26 12.92-2.72 5.43-3.4 11.54-1.36 18.33 2.04 6.8 6.12 11.54 12.22 14.26l19 2.04c6.12-2.7 11.55-6.8 14.27-12.9 1.35-3.4 2.7-7.47 2.7-10.86 0-4.07-1.35-8.82-3.4-12.9-2.7-4.08-5.42-6.8-10.18-9.5l-19-1.37zm2.03 5.45l14.94 1.35c4.07 2.05 7.46 6.12 9.5 10.87 1.36 5.43.67 10.2-2.04 14.94-1.36 4.76-5.44 8.15-10.87 9.52l-14.26-1.37c-5.43-2.7-8.83-6.1-9.5-10.86-2.04-5.44-1.37-10.2.67-14.94 2.73-4.76 6.12-8.16 11.55-9.5z"/><path d="M63.25 153.4l-2.72.67c-.67 1.35 0 2.03.68 2.7 7.48 4.1 12.9 10.88 17 21.06l3.38 13.58 2.04 2.04 1.36-2.7c0-3.4-.7-8.16-3.4-14.95-4.07-10.2-10.18-18.34-18.33-22.4z"/><path d="M99.23 158.82l-2.03-2.72c-5.43.68-10.2 3.4-14.26 8.15l-6.1 8.82c-.7 1.37-.7 2.72 1.35 2.72.66.66 2.02.66 2.7-.7 0-1.35 1.36-3.38 4.08-7.45 4.07-4.76 8.14-6.8 12.9-7.48l1.35-1.35z"/><path fill="#D96038" d="M237.74 267.45c5.43-2.72 9.5-6.12 12.22-11.54 2.7-5.43 2.7-10.86 1.36-16.96-2.04-5.44-6.1-10.2-10.87-12.23l-16.97-1.34c-5.43 2.03-10.2 5.42-12.9 10.86-2.72 5.43-3.4 11.53-.68 16.97 1.36 5.42 4.75 9.5 10.86 12.2l16.98 2.05z"/><path d="M222.12 222.64c-6.1 2.04-10.86 6.1-13.58 12.22-3.4 6.1-3.4 12.9-1.35 19 2.02 6.8 6.78 11.55 12.2 14.26l19.02 1.37c6.8-2.05 10.86-6.12 14.25-12.24 2.04-3.4 2.72-6.8 2.72-11.53l-1.37-7.48c-2.03-6.8-6.1-10.86-12.22-14.26l-19.68-1.36zm-8.83 14.93c2.03-4.75 5.42-8.14 10.86-10.18l14.93 1.35c4.75 2.03 8.14 6.1 9.5 11.54 2.04 4.74 1.36 10.17-.68 14.24-2.72 4.76-6.1 8.16-11.54 10.2l-14.94-1.37c-4.75-2.04-7.46-6.1-9.5-11.54-1.36-4.75-1.36-9.5 1.35-14.26z"/><path d="M230.95 224c0-2.04-1.36-2.04-2.72-2.04-1.36.68-1.36 2.03-1.36 2.7 2.04 8.16 1.36 17-2.03 26.5l-7.47 12.22c-.68 1.35-.68 2.03.68 2.7h2.72l7.46-13.56c4.07-10.2 5.43-19.7 2.72-28.53z"/><path d="M237.06 245.04l-10.2 2.72c-1.35 0-2.02.68-1.35 2.7 0 .7 1.37 1.37 2.73.7l8.15-2.04c6.1 0 10.86 1.35 14.26 3.4h2.7c.7-.7.7-1.37-.67-2.72-3.4-4.07-8.82-5.44-15.6-4.76z"/><path fill="#D96038" d="M349.77 299.36c-2.05-6.1-5.44-10.2-10.87-12.9-5.43-3.4-11.54-4.08-16.97-2.04-5.44 1.36-10.2 5.44-12.9 10.86-2.72 4.76-3.4 10.2-2.04 16.3 2.03 5.44 5.42 10.18 10.17 13.58l16.98 1.35c6.1-1.34 10.18-4.74 13.57-10.85 2.72-5.42 3.4-10.2 2.05-16.3z"/><path d="M340.26 283.75c-6.1-2.72-12.9-4.08-19-2.05-6.12 1.37-11.55 6.12-14.95 11.55-3.38 6.1-3.38 12.22-2.02 19 2.03 6.8 6.1 11.56 12.22 14.95 6.1 2.7 12.22 3.4 19 2.03 6.12-2.03 11.55-6.1 14.27-12.2 2.03-3.4 3.4-7.5 3.4-11.57l-1.36-6.78c-1.36-6.8-5.43-11.54-11.54-14.94zm-16.98 2.7l14.26 2.04c4.75 3.4 8.15 6.78 9.5 11.54 1.37 5.42.68 10.2-2.03 14.93-2.02 4.07-6.1 7.47-11.53 8.83l-14.26-1.36c-4.74-2.7-7.46-6.8-9.5-11.54-1.35-5.43-.67-10.18 2.04-14.93 2.04-4.08 6.1-7.48 11.54-9.5z"/><path d="M334.15 308.18c-10.2-5.43-19-6.1-28.52-4.07-1.35.7-2.04 1.37-1.35 2.05l2.03 2.03c8.83-2.03 16.98-.67 27.17 4.07l11.54 6.8h2.72c1.36-.68 1.36-2.03 0-2.72-4.07-3.4-8.14-6.1-13.57-8.15z"/><path d="M336.2 283.07c-1.37-1.37-2.73-1.37-3.4 0-6.12 5.42-6.8 14.93-3.4 25.8.67 1.35 1.35 2.03 2.7 1.35 1.37 0 1.37-.68 1.37-2.04l-1.36-8.82c-.67-6.1.7-10.87 4.08-13.58.68-.68.68-1.36 0-2.7z"/><path fill="#D96038" d="M224.84 531.56c6.8-.68 10.86-4.07 14.25-8.83 3.4-5.43 4.75-10.86 3.4-16.3-.7-6.1-3.4-10.86-8.15-14.26-5.44-3.4-10.87-4.74-16.98-4.07-5.44 1.36-10.18 4.76-13.58 9.5-3.4 5.44-5.45 10.2-4.08 16.3.68 6.1 4.07 10.2 8.82 14.26 5.44 3.4 10.87 4.75 16.3 3.4z"/><path d="M235.02 489.46c-4.75-3.4-10.86-4.75-17.65-3.4-6.8.7-12.23 4.08-16.3 10.2-4.07 5.42-5.43 11.54-4.07 17.65 1.36 6.8 4.75 12.22 10.2 16.3 6.1 4.08 11.53 4.75 18.3 4.08 6.8-1.37 12.24-4.77 16.3-10.2 3.4-6.1 5.44-12.22 3.4-18.33-.67-6.8-4.06-12.2-10.18-16.3zm-16.97 1.36c5.43-.68 10.18 0 14.25 3.4 4.76 2.7 6.8 6.8 8.15 12.22v3.4c0 4.75-1.36 8.14-3.4 10.86-2.7 4.75-6.78 7.46-12.2 8.82-4.77.7-10.2-.68-14.27-4.07-4.75-2.72-6.8-6.8-8.15-11.54-.68-5.43 0-10.86 2.7-14.93 3.4-4.75 8.16-7.47 12.92-8.15z"/><path d="M224.84 487.43c0-.68-.68-1.36-2.04-1.36-1.36 0-2.03 1.36-1.36 2.03.68 8.83-.67 16.98-6.8 25.8l-8.8 11.55c-.7.67-1.37 2.04-.7 2.7 1.37 1.37 2.05 1.37 3.4 0l9.5-11.53c6.12-10.18 8.83-19.7 6.8-29.2z"/><path d="M227.56 509.83l-10.2.68c-1.35.7-2.03 1.37-1.35 2.73 0 .68.7 1.35 2.05 1.35l8.82-.67c6.12.7 10.87 2.72 13.58 6.1h2.04c1.34-.67 2.03-2.02.67-2.7-2.72-4.07-8.15-6.8-15.6-7.47z"/><path fill="#D96038" d="M83.62 338.06c-4.08-4.75-9.5-6.1-15.62-6.8-5.43-.67-10.86 1.37-15.62 5.44-4.07 4.08-6.8 9.5-7.46 15.62 0 5.43 2.03 11.54 6.1 15.62 4.08 4.74 9.5 6.8 15.62 6.8 6.1.66 11.55-1.38 15.62-5.45 4.75-4.08 6.1-9.52 6.8-15.62.67-6.1-1.37-10.87-5.44-15.62z"/><path d="M84.98 336.02c-4.08-4.75-10.2-6.8-16.98-7.47-6.8 0-12.22 2.04-17.65 6.8-4.76 4.06-7.47 10.18-7.47 16.96-.68 6.8 1.36 12.24 6.1 17.66 4.76 4.77 10.2 7.48 17.67 7.48 6.8.68 12.22-1.36 17.65-6.1 4.75-4.08 7.47-10.2 7.47-17.66 0-6.8-2.04-12.23-6.8-17.66zM68 334c5.43 0 9.5 2.02 13.58 6.1 3.4 3.4 4.75 8.14 4.75 12.9 0 6.1-2.03 10.85-6.1 14.25-4.08 3.4-8.83 5.43-13.58 5.43-5.43 0-9.5-2.03-13.58-6.8-3.4-3.38-5.43-8.8-4.76-13.57 0-5.42 2.05-9.5 5.44-12.9 4.08-4.06 8.83-6.1 14.26-5.4z"/><path d="M74.1 352.3c-11.53.7-20.36 3.4-27.15 9.52-1.36 1.36-1.36 2.04-.67 2.72.67 1.35 2.03 1.35 3.4 0 6.1-4.76 14.25-8.15 25.12-8.15l13.57 1.35 2.72-1.36c0-.7 0-2.04-1.37-2.73L74.1 352.3z"/><path d="M63.93 329.23c-1.36 0-2.72 0-2.72 1.36-2.7 8.14 0 16.28 8.84 25.8 1.36.67 1.36.67 2.7 0 1.37-1.37 1.37-2.73 0-3.4-6.78-7.48-9.5-14.26-7.45-20.38.66-2.03 0-2.7-1.37-3.4z"/><path fill="#D96038" d="M63.93 507.12c2.03-3.4 2.7-7.48.68-12.23-.67-4.76-4.07-7.48-7.46-9.52l-12.9-1.35c-4.08 2.04-7.47 4.07-9.5 8.14-2.04 4.08-2.04 8.16-1.37 12.23 1.36 4.75 4.76 7.47 8.15 10.2l12.9.66c4.75-1.35 7.47-4.07 9.5-8.14z"/><path d="M68 494.22c-2.04-4.76-4.75-8.84-10.18-11.55l-14.26-1.35c-5.43 2.04-8.83 5.43-10.86 9.5-2.72 4.75-2.72 9.5-1.36 14.93 1.36 4.77 4.75 8.84 8.82 11.56l14.94.68c5.43-1.36 8.83-4.07 11.54-9.5 2.04-4.75 2.72-8.83 1.36-14.26zm-31.23-.68c2.04-3.4 4.75-5.44 8.15-6.8l10.86.7c3.4 2.02 5.44 4.74 6.8 8.8l.67 3.4-2.03 6.8c-1.36 3.4-4.08 5.43-7.48 6.8l-10.86-1.37c-2.7-1.36-4.75-4.07-6.8-8.14-1.35-3.4-.67-6.8.7-10.2z"/><path fill="#D96038" d="M337.54 196.83c2.72-4.07 2.72-8.14 1.36-12.9-2.04-4.07-4.76-7.46-8.83-9.5l-12.22-.68c-4.75 2.04-7.47 4.08-9.5 8.83-2.04 4.07-2.04 7.46-.68 12.22 1.36 4.75 4.07 7.47 8.15 9.5l12.9.7c4.07-1.38 7.47-4.1 8.82-8.17z"/><path d="M340.26 198.2c2.72-4.76 2.72-9.5.68-14.95-1.36-4.74-4.75-8.8-9.5-10.86l-14.94-1.36c-4.07 2.03-8.15 5.43-10.2 10.2-2.7 4.73-3.38 9.5-1.35 14.92 1.36 4.07 4.76 8.15 9.5 10.86l14.95.68c4.75-1.36 8.14-4.75 10.86-9.5zm-21.05-21.73l10.2.68c4.75 2.7 7.47 6.8 7.47 12.9l-1.36 6.1c-2.03 2.73-4.75 4.76-8.14 6.8l-10.2-1.35c-3.38-1.37-5.42-4.08-7.45-7.48-.67-4.08-.67-7.47.68-10.87 2.04-3.4 4.76-5.42 8.83-6.78z"/><path fill="#D96038" d="M266.25 376.08c-1.35 4.75-2.04 8.15-.68 12.9 2.04 4.07 4.07 7.46 8.83 9.5l12.22 1.36c4.75-2.03 7.47-4.75 9.5-8.82 2.04-4.08 2.04-8.15.68-12.9-1.35-4.08-4.07-7.47-8.14-8.83l-12.9-1.37c-4.07 1.36-6.8 4.75-9.5 8.15z"/><path d="M264.2 374.73c-2.02 4.74-2.7 10.18-1.34 14.93 2.04 4.75 4.75 8.14 9.5 11.54l14.94.68c5.43-2.04 8.83-5.43 11.55-9.5v-.68c2.03-4.08 2.03-8.83.67-14.26-2.03-4.76-4.75-8.15-10.18-10.87l-14.26-.68c-5.43 1.35-8.83 4.75-10.87 8.83zm4.1 13.57c-.7-4.07-.7-7.47.67-10.86 2.03-3.4 4.07-5.43 7.47-6.8l10.86.7c5.43 2.7 7.47 6.78 7.47 12.9l-1.36 5.42-7.46 6.8h-10.86c-3.4-2.05-6.1-4.76-6.8-8.15z"/><path stroke-miterlimit="100" d="M364.58 579.58H7.42V7.42h357.16v572.16z" fill="none" stroke="#000" stroke-width="14.84"/></svg>