<svg xmlns="http://www.w3.org/2000/svg" width="372" height="587" viewBox="0 0 372 587"><path fill="#fff" d="M0 0h372v587H0z"/><path fill="#333" d="M63.43 39.06l-1.32-3.3-3.9-1.3c-2.64 0-3.96 1.3-3.96 4.6 0 3.28 1.32 5.25 3.95 5.25l3.93-1.3 1.33-3.92zm-19.07-5.93c0-3.28-1.32-5.26-4.6-5.26-1.32 0-1.98 1.32-3.3 1.98l-1.97 3.28c0 2.64 1.95 4.6 5.23 4.6 3.3 0 4.6-1.96 4.6-4.6zM47 85.1c0-3.3-2-4.6-4.62-4.6-3.28 0-4.6 1.3-4.6 4.6 0 3.28 1.32 4.6 4.6 4.6 2.63 0 4.6-1.32 4.6-4.6zm45.37-34.2c0-3.3-1.32-5.27-4.6-5.27-3.3 0-5.27 1.98-5.27 5.26s1.97 4.6 5.26 4.6c3.3 0 4.6-1.34 4.6-4.6zm34.85-21.05c0-2.64-1.3-3.95-3.95-3.95-3.28 0-5.26 1.3-5.26 3.95 0 3.28 2 5.26 5.3 5.26 2.63 0 3.94-1.95 3.94-5.23zm-30.25-1.3l-1.32-3.3-3.28-1.98c-3.3 0-4.6 1.98-4.6 5.27s1.3 4.6 4.6 4.6l3.28-.66 1.32-3.94zm31.57 23.65c0-3.28-1.32-4.6-4.6-4.6s-5.27 1.32-5.27 4.6c0 3.3 1.97 4.6 5.26 4.6s4.6-1.3 4.6-4.6zM65.4 60.1c0-2.63-1.32-4.6-4.6-4.6s-5.26 1.97-5.26 4.6l1.97 3.94 3.3 1.32 3.3-1.32 1.3-3.95zm-25 5.26c0-3.3-1.96-4.6-4.6-4.6-1.3 0-1.96.66-3.28 1.3l-1.32 3.3c0 3.3 1.32 5.26 4.6 5.26 2.64 0 4.6-1.97 4.6-5.26zM76.58 22.6c0-3.27-1.97-5.25-4.6-5.25-1.32 0-1.97.66-3.3 1.98l-1.3 3.28c0 2.67 1.3 3.98 4.6 3.98 2.63 0 4.6-1.3 4.6-3.95zm-33.54 94.72l-1.97-3.3-3.3-1.97c-1.3 0-2.62 1.32-3.28 1.98l-1.34 3.3c0 2.6 1.3 4.6 4.6 4.6s5.26-2 5.26-4.6zm20.4-10.52l-1.33-3.3-3.9-1.97c-2.64 0-3.96 1.97-3.96 5.26 0 2.6 1.32 4.6 3.95 4.6 3.27 0 5.25-2 5.25-4.6zM39.1 159.4c0-2.62-1.32-4.6-4.6-4.6-3.3 0-5.27 1.98-5.27 4.6l1.97 3.95 3.3 1.3 3.28-1.3 1.32-3.95zm9.86-19.73l-1.32-3.28-3.28-1.35c-3.3 0-4.6 1.32-4.6 4.6 0 3.3 1.3 4.6 4.6 4.6 3.28 0 4.6-1.3 4.6-4.6zm0 55.9c0-3.28-1.32-5.26-4.6-5.26-3.3 0-4.6 2-4.6 5.3 0 2.62 1.3 3.94 4.6 3.94 3.28 0 4.6-1.32 4.6-3.95zM39.1 241.6l-1.32-3.28-3.3-1.97c-1.3 0-2.62 1.3-3.28 1.97a3.62 3.62 0 0 0-1.97 3.3l1.97 3.28 3.3 1.3 3.28-1.3 1.32-3.3zm-2.63-59.18c0-3.3-1.98-4.6-5.27-4.6-.65 0-1.97.65-3.28 1.3-.66 1.33-1.32 1.98-1.32 3.3l1.32 3.95 3.28 1.3c3.3 0 5.27-1.96 5.27-5.25zm5.26 34.2l-1.32-3.3-3.26-1.3c-3.3 0-5.26 1.3-5.26 4.6s1.97 5.26 5.26 5.26 4.6-1.97 4.6-5.26zm19.72 30.25c0-3.3-1.3-5.26-4.6-5.26s-5.26 2-5.26 5.3c0 2.62 1.94 4.6 5.23 4.6 3.3 0 4.6-1.98 4.6-4.6zm-5.25-75.63l-1.32-3.3-3.3-1.3c-3.28 0-4.6 1.3-4.6 4.6s1.32 5.27 4.6 5.27l3.3-1.3 1.3-3.94zM45 268.58l-.64-3.3-3.95-1.32c-2.6 0-4.6 1.33-4.6 4.62a4.5 4.5 0 0 0 4.6 4.6c3.3 0 4.6-1.98 4.6-4.6zm-5.9 74.3c0-3.3-1.32-5.25-4.6-5.25-3.3 0-5.27 1.96-5.27 5.25l1.97 3.3 3.3 1.3 3.28-1.3 1.32-3.3zm9.86 17.77c0-3.3-1.32-4.6-4.6-4.6-3.3 0-4.6 1.3-4.6 4.6 0 3.28 1.3 5.25 4.6 5.25 3.28 0 4.6-1.97 4.6-5.25zm-9.2 21.05c0-3.3-1.98-5.28-4.6-5.28-1.3 0-1.98.67-3.3 1.98l-1.3 3.3c0 2.62 1.3 4.6 4.6 4.6a4.5 4.5 0 0 0 4.6-4.6zM266.63 19.98c-.66 0-1.97.66-3.3 1.32-.65 1.3-1.3 1.97-1.3 3.3l1.3 3.94 3.3 1.3c3.3 0 5.26-1.97 5.26-5.25 0-3.3-1.98-4.64-5.27-4.64zm-11.84 8.56l-1.98-3.3-3.3-1.97c-3.28 0-4.6 1.98-4.6 5.27s1.32 4.6 4.6 4.6l3.3-.66 1.97-3.94zm-19.74-5.94c0-3.27-1.97-4.6-4.6-4.6-1.32 0-1.98.67-3.3 1.33l-1.3 3.28 1.3 3.98c1.32 1.3 1.98 1.3 3.3 1.3 2.63 0 4.6-1.96 4.6-5.25zm32.88 22.38c0-3.3-1.97-5.27-5.26-5.27-3.3 0-4.6 2-4.6 5.3 0 2.6 1.3 4.6 4.6 4.6s5.24-2 5.24-4.6zM337 26.56c0-3.3-1.97-4.6-5.25-4.6-3.3 0-4.6 1.3-4.6 4.6l1.3 3.3a4.25 4.25 0 0 0 3.3 1.3l3.94-1.3 1.3-3.3zm13.16 19.74c0-3.3-1.97-5.27-5.26-5.27s-4.6 1.97-4.6 5.26c0 2.6 1.3 4.6 4.6 4.6s5.26-2 5.26-4.6zm-17.76 8.54c0-2.63-1.3-4.6-4.6-4.6s-5.26 1.97-5.26 4.6l1.97 3.94c.7.66 2 .66 3.3.66 3.3 0 4.6-1.3 4.6-4.6zm15.8 176.9c0-2.62-1.33-3.95-3.96-3.95-3.3 0-5.26 1.3-5.26 3.92 0 3.3 1.97 5.26 5.26 5.26 2.63 0 3.95-1.98 3.95-5.27zm-16.45 12.5c0-3.3-1.97-5.26-5.26-5.26-2.67 0-4.64 1.97-4.64 5.26 0 3.28 1.98 4.6 4.6 4.6 1.32 0 2.64-.66 3.95-1.32l1.33-3.28zm15.12 21.06c0-3.3-1.97-4.62-5.26-4.62-2.6 0-3.9 1.32-3.9 4.6s1.3 5.26 3.93 5.26c3.3 0 5.27-1.96 5.27-5.25zm2.63-53.3c0-3.27-1.3-4.6-4.6-4.6s-4.6 1.33-4.6 4.6 1.3 5.27 4.6 5.27 4.6-1.97 4.6-5.26zm-1.3 162.45l-1.33-3.28c-1.3-1.32-2.63-1.32-3.94-1.32-1.3 0-1.98 0-3.3 1.3l-1.3 3.3c0 2.64 1.3 4.6 4.6 4.6s5.26-1.96 5.26-4.6zm-7.25 17.1l-1.97-3.3-3.3-1.96c-1.3 0-1.96.63-3.27 1.94l-1.3 3.3 1.3 3.93c1.34.65 2 1.3 3.3 1.3a5 5 0 0 0 3.3-1.3l1.97-3.95zM349.5 408c0-3.3-1.3-4.6-4.6-4.6s-4.6 1.3-4.6 4.6c0 2.62 1.3 4.6 4.6 4.6s4.6-1.98 4.6-4.6zm-7.23 18.4c0-3.28-1.3-5.26-4.6-5.26s-5.26 1.98-5.26 5.27c0 2.66 2 3.97 5.3 3.97s4.6-1.3 4.6-3.94zm5.93 65.77c0-3.28-1.33-4.6-3.96-4.6-1.97 0-2.63 0-3.3 1.32a3.6 3.6 0 0 0-1.96 3.25c0 3.3 1.97 4.6 5.26 4.6 2.63 0 3.95-1.3 3.95-4.6zm-18.43 7.9c0-2.64-1.3-4.6-4.6-4.6s-5.26 1.96-5.26 4.6c0 3.3 2 5.26 5.3 5.26s4.6-1.98 4.6-5.27zm15.8 15.13c0-2.64-1.33-4.62-4.6-4.62a4.5 4.5 0 0 0-4.6 4.6c0 3.3 1.96 5.27 4.6 5.27 3.27 0 4.6-1.97 4.6-5.26zM87.77 69.3c0-3.28-2-5.25-4.6-5.25-1.34 0-2 1.3-3.3 1.97L77.9 69.3l1.97 3.3c1.3 1.3 1.97 1.3 3.3 1.3 2.62 0 4.6-1.3 4.6-4.6zm28.92 5.93l-1.33-3.3c-1.3-.65-1.97-1.3-3.28-1.3-1.33 0-2.65.65-3.3 1.3-1.3 1.32-1.98 1.98-1.98 3.3l1.98 3.94c.67 1.32 2 1.32 3.3 1.32l3.3-1.35 1.3-3.94zm-7.25-28.93l-1.3-3.3c-.67-.66-2.64-1.3-3.96-1.3-.67 0-1.98.64-3.3 1.3-.66 1.3-1.3 2.63-1.3 3.3l1.3 3.93c1.32.66 2.63 1.32 3.3 1.32l3.94-1.32 1.3-3.94zm48.67-19.74c0-3.3-1.32-4.6-4.6-4.6s-5.26 1.3-5.26 4.6 1.97 4.6 5.26 4.6 4.6-1.3 4.6-4.6zM147.6 42.34c0-3.28-1.3-4.6-4.6-4.6s-4.6 1.32-4.6 4.6c0 3.3 1.3 4.6 4.6 4.6s4.6-1.3 4.6-4.6z"/><path d="M363.97 39.06c-1.3-.66-2.63 0-3.3 1.97-7.88 21.04-19.06 44.06-33.53 70.37l-20.38 32.22c-1.32.66-1.32 2.63.65 3.95l3.98-1.32 19.73-32.88c14.47-25.65 26.3-49.32 34.2-71.03 1.3-1.3 0-2.63-1.32-3.28z"/><path fill="#858585" d="M321.22 154.14c-5.9-16.44-9.86-30.25-12.5-42.1-3.28-15.1-2.62-38.13 1.98-69.04A638.1 638.1 0 0 1 317.94.25h-23.02c-6.58 35.52-9.87 64.46-9.87 88.13-.65 11.83 1.98 27.6 7.24 48 3.9 16.45 5.23 26.3 3.26 28.94-2.63 5.26-13.82 15.13-33.54 27.63-2.63-10.53-6.58-34.2-11.84-71.03l-7.24-57.2c0-3.96-1.98-7.25-4.6-8.57l-7.24-1.3c-1.3.65 0 23 4.6 68.38l9.2 80.24c-62.47 39.45-114.42 67.07-154.54 84.17l-7.24-5.26c-5.26-1.98-9.2-2.63-11.84-1.3l-14.46 7.88c-5.92 3.94-9.2 8.55-8.55 12.5C50.9 321.84 68 361.3 98.9 421.16 141.7 502.04 188.4 562.54 239 603.3l152.6-3.92L233.1 433c23.68-21.72 69.06-57.24 134.16-108.53v-24.34c-15.12 13.16-65.1 51.3-149.94 115.75-38.15-41.43-64.45-74.3-78.92-99.3l98.65-71.02 55.24-39.46c15.75-10.53 25.6-19.73 28.9-25.65 3.3-5.92 3.3-14.47 0-26.3z"/><path d="M52.9 311.98l-2.62-.66c-.66.66-1.32 1.97-.66 2.63L64.08 335l30.9 41.43 58.54 66.43c71.03 78.25 111.15 124.28 121 138.1l2 .66c1.3-.66 1.96-1.32 1.3-2.64-10.52-15.12-51.3-61.16-121-139.4L98.27 373.8l-30.9-40.78-14.47-21.04zm49.33 111.14l-2.63.66c-.66 1.3-.66 1.3 0 2.63l47.35 47.38c32.88 32.88 53.27 55.24 62.48 67.08l48.66 58.52 3.26.66c.66-.66.66-1.97 0-3.28L212.7 538.2c-9.2-11.18-30.24-34.2-63.12-67.08l-47.35-48zm-40.78-136.8l-3.28-.65c-.66 1.3-.66 1.97 0 2.63l23.67 32.22c19.07 23.02 36.17 40.78 51.95 53.93 13.13 11.18 36.15 36.18 68.4 76.3-30.94-42.1-52.64-68.4-65.8-78.93-15.8-13.15-32.9-31.56-51.95-54.58l-23.02-30.9zm254.5 303.84l-21.7-28.28c-28.93-38.15-55.23-69.7-78.9-95.35l75.62 97.32 22.36 29.6h2.63c1.32-.66 1.32-1.97 0-3.3zm-63.78-111.14h-2.63c-1.3 1.3-1.3 1.97 0 3.3l37.5 42.08c25.63 29.6 42.08 49.32 49.3 59.84l2.64.66c1.3-.66 1.97-1.32.66-2.64-7.24-10.5-23.68-30.24-48.67-59.84l-38.8-43.4z"/><path d="M320.56-1.72l-2.63-1.32h-23c-2 0-2.64 1.32-3.3 2.64-6.58 36.17-9.87 65.76-9.87 88.78l-.65.65c0 11.85 2.66 28.94 7.9 49.98l4.6 21.74-.63 3.3c-1.98 3.93-11.84 11.82-29.6 23.66-1.97-13.8-5.92-36.84-10.52-69.7l-6.58-53.28c0-4.6-1.97-7.9-4.6-10.52-3.3-1.97-6.58-3.3-11.18-2.63l-1.98 1.3c-.65 1.33-1.3 4.62-1.3 7.9 0 7.9 1.96 28.94 5.25 62.48 3.95 40.78 6.58 66.43 8.55 78.92-61.17 37.5-111.15 65.1-149.95 81.54-9.2-6.56-16.44-8.53-21.7-5.24l-5.92 3.3-13.15 7.87c-3.95 3.96-5.92 7.9-5.27 12.5 0 5.27 5.3 17.76 13.18 38.82a1111.16 1111.16 0 0 0 37.5 80.88c43.4 82.2 90.75 143.37 141.4 184.14l1.96.66 152.57-3.95 3.28-1.3v-2l-.65-1.95L238.35 433c24.34-21.72 67.75-56.58 130.2-105.9l2-2.63v-24.34l-2.63-3.28-3.3.66L218 411.97c-35.52-38.8-61.17-70.37-74.98-94.7 33.54-23.02 65.77-46.04 96.02-69.05l36.83-26.3 31.56-22.36c7.9-6.58 13.82-12.5 16.45-17.1 1.98-3.3 3.3-7.9 3.3-13.16s-1.98-15.13-6.58-27.62L312 111.4c-1.32-6.58-1.98-14.47-1.98-23.02 0-24.33 3.95-53.93 11.18-86.8V.24l-.66-1.97zm-23 5.26H314c-7.25 37.5-10.54 65.1-10.54 84.84 0 9.86.65 17.1 1.97 24.33l9.2 31.6c3.95 12.5 5.93 21.04 5.93 25 0 3.94-1.32 7.23-2.64 9.85-2.62 3.95-7.9 9.87-15.78 16.44l-29.6 21.04-37.48 26.3a3481.77 3481.77 0 0 1-98.64 71.03l-1.32 2.63v1.3c14.48 25.65 41.44 58.53 80.24 100.6h4.6c73-55.22 121-92.05 144.03-111.12v15.78l-58.53 45.38c-35.5 28.28-59.85 48.67-74.3 61.17l-1.33 2.64v.66l.7 1.96 153.9 161.78-144.7 3.3c-50-40.78-96-100.63-138.1-180.86a859.3 859.3 0 0 1-36.84-79.58c-8.55-21.05-13.15-34.2-13.15-38.15v-.66c0-3.98 4.6-8.58 14.47-12.5l7.23-3.97 6.56.66c3.3 1.3 5.92 2.63 7.9 5.26h3.28c40.77-16.45 92.73-44.72 155.2-84.17l1.97-2.65v-.65c-1.95-7.9-5.24-31.56-8.52-69.7-3.3-39.46-5.92-63.8-5.92-74.3l3.3.65c1.96 1.3 2.62 2.63 2.62 5.92l7.23 57.87c5.28 36.17 9.23 59.85 11.86 70.37l1.3 2.65 3.3-.66c21.04-13.17 32.22-23.03 35.5-28.3l1.33-6.6-4.6-23c-5.28-22.36-7.9-38.8-7.9-48.66l.65-.66c0-21.04 3.3-49.3 9.2-84.83z"/><path fill="#858585" d="M198.9 590.16c-38.8-19.07-84.83-49.98-140.73-90.75l-71.7-56.53-6.56 11.83 71.7 55.9c55.9 41.43 101.94 72.33 140.75 91.4l6.57-11.83z"/><path d="M200.22 587.53c-37.5-19.07-83.52-49.32-138.77-90.1l-73-57.2-2.62-.66-1.98 1.96-6.57 11.2c-1.32 1.95-1.32 3.28.66 4.6l73 56.54c55.9 41.44 101.93 71.7 139.4 90.76 2.64 1.32 3.3 1.32 4.62-1.3l6.57-11.85.66-1.98-2-1.97zm-5.92 3.95l-3.94 5.92c-55.25-28.28-123.64-76.3-206.5-143.37l3.28-5.92 79.58 61.2c49.98 36.82 92.72 64.44 127.58 82.2z"/><path fill="#F00" d="M81.2 100.22c-4.63 41.43-3.97 89.44 1.3 144.68 11.83 108.5 44.05 196.63 96 263.72l130.2-5.27c-55.2-64.45-90.1-151.25-105.85-260.43C195.6 189 192.98 141 196.27 99.55l-115.1.67z"/><path d="M198.25 96.93l-1.98-.67-115.74.67c-1.98 0-2.63 1.3-2.63 3.28-4.6 42.78-3.95 91.44 1.97 146 11.84 109.86 44.06 197.3 96 264.4.67 1.33 2 1.33 2.65 1.33l130.2-5.26 3.3-1.3c0-1.34 0-2.65-.66-3.3-54.58-64.46-88.78-150.6-104.56-257.8-7.9-53.93-10.53-101.94-7.24-144.03l-1.3-3.27zm-5.93 5.9l-.65 28.3c0 57.2 5.92 112.45 18.4 166.38 18.43 82.2 49.34 150.6 92.08 203.24l-122.32 4.6c-37.48-48.66-64.45-109.17-80.9-182.82C87.77 271.2 81.2 217.28 81.2 160.72c0-21.7 1.32-40.76 2.63-57.2l108.52-.67z"/><path d="M143.66 139c-.66-1.3-1.97-2.6-3.3-1.3L115.4 141h-13.15c-1.32-.66-2.63 0-3.3 1.96 0 1.32 1.33 2.63 2.64 3.3h14.45c10.52 0 19.07-1.33 25.65-3.3l1.97-3.95z"/><path d="M122.62 121.92c-1.98-.66-2.64 0-2.64 1.97l-3.28 32.2c0 23 5.26 42.74 15.12 57.2l3.3.67c1.96-1.32 1.96-1.98 1.3-3.96-9.86-13.8-14.46-32.2-14.46-55.23l2.63-30.25c.63-1.32-.7-2.63-2-2.63z"/><path d="M140.37 156.12l-1.3-1.98c-1.98-.65-2.64 0-3.3 1.3l-5.26 15.8c-5.9 2.63-10.5 5.92-15.1 9.2-3.94 3.3-7.23 6.6-9.86 11.18-3.3 3.95-4.6 7.24-4.6 10.53v2.63c.65 1.98 2.62 3.95 5.9 3.95 8.56.66 17.77-9.87 26.98-33.54l22.37-1.35c5.25 3.3 8.54 6.58 9.85 10.52.66 5.26-1.97 11.18-7.9 19.07l-16.43 19.07-2 2.64c-5.9 5.92-7.88 10.52-5.9 14.47 1.3 4.6 5.26 6.6 11.18 6.6l3.3-2c0-2.62-1.33-3.3-2.64-3.3-3.95 0-6.58-1.3-7.24-3.27-1.32-1.96.66-4.6 4.6-8.54l2.64-2.64 17.75-21.06c5.9-8.54 7.88-15.77 7.23-21.7-.66-5.9-4.6-10.5-12.5-14.46l-21.05-.66 3.3-11.17v-1.3zm-21.7 28.27l8.55-5.3c-7.9 16.45-14.47 25-19.73 24.35l-1.34-.66-.66-.66c0-3.95 4.6-9.87 13.16-17.76zM130.5 285l7.24-.66a24.7 24.7 0 0 0 7.24-13.16l1.97-11.18v-.65l7.23 1.97c5.26 3.3 7.24 7.24 7.24 13.15-.66 3.93-2.63 7.87-5.26 12.47-3.3 3.95-6.58 6.58-10.52 7.9-1.98 0-2.64 1.97-1.98 3.3.66 1.96 1.98 1.96 3.3 1.96a27.93 27.93 0 0 0 13.14-9.87c3.3-5.25 5.92-10.52 5.92-15.78.66-7.25-2.63-13.16-9.2-17.77l-19.08.67c-3.94 1.97-6.57 5.25-9.2 9.85-1.98 3.95-3.3 7.9-2.63 11.2.68 3.28 2 5.9 4.6 6.57zm.67-7.24l-.66-.66c0-2.63 1.35-5.26 3.3-7.9 1.3-3.28 3.96-5.26 6.6-7.22l1.3-.66c-1.32 9.86-3.95 16.44-6.6 18.4l-2.6.67-1.3-2.6zm22.36 33.54c-.66-1.32-1.98-1.32-3.3-.66l-1.96 1.97v1.33l11.83 29.6c-11.83 1.3-18.4 3.28-20.4 7.9l-1.3 2.62c0 3.3 1.97 5.9 5.26 7.23l12.5 3.3c5.26 0 8.55-1.33 10.52-3.95l1.3-4.6-1.3-7.24 3.94.66c9.2 0 13.8.66 13.8 3.3v.65c.02 2.65-1.3 4.6-5.25 6.6-1.3.66-2.63 1.3-2.63 3.3h.66c.66 1.96 1.32 2.6 2.63 1.96l7.23-3.95c2.63-2.62 3.3-5.9 2.63-9.85-.68-3.94-5.3-6.58-13.84-7.23l-10.52-.65c-1.97-9.2-5.92-19.74-11.84-32.23zm-7.24 45.38l-2.66-2.63.66-.66c.67-1.97 6.6-3.28 17.1-3.94l1.3 6.57v1.32l-7.2 1.97-9.2-2.63z"/><path d="M172.6 316.58c-1.32-1.97-1.97-2.63-3.3-1.97l-15.78 3.3s-.65 0-1.3.67l-.67 1.98c0 1.3 1.32 2.62 2.63 2.62l17.1-3.3c1.97-.64 1.97-1.95 1.32-3.27zm-11.18 65.76c-1.98-.65-3.3 0-3.3 1.32 0 1.97 0 2.63 1.98 3.3l4.6.65 10.53-1.3-10.52 20.4-.63 1.97.66 1.32 3.3.64c3.28-1.97 8.54-3.94 13.15-5.26l15.12-1.97 2.62 2.63-1.3 5.9c-2 3.3-6.6 6.6-13.16 8.57l-15.8 3.27-2.62 1.3v2.64l21.05 38.8c4.6 7.9 9.84 13.18 16.42 16.46l21.05 1.32c5.26-3.3 8.55-12.5 10.52-28.27l.65-25.64c0-1.3-1.3-1.97-2.63-1.97-1.97 0-3.3.65-3.3 1.97.67 10.52.67 19.73-.65 28.93-1.3 11.8-3.3 18.4-7.23 19.7l-16.44-.65c-5.25-2.63-9.85-7.24-13.14-13.8l-19.73-36.18 17.1-3.95c5.92-2.63 9.86-5.92 12.5-9.2l1.97-7.24-.66-4.6c-.65-2.64-3.28-3.95-5.9-4.62-5.27-1.96-13.82-.65-24.34 3.3l9.86-21.05v-.63l-.66-2.63c-1.3-.66-2.63-.66-3.28 0-5.93 4.6-11.2 5.9-17.76 4.6z"/><path fill="#D96038" d="M360.68 308.7c0-7.9-5.26-13.82-14.46-17.1l-13.82-2c-.65-3.93-1.97-7.22-4.6-11.16-5.26-7.24-12.5-11.2-21.04-12.5-8.55-.65-15.8 3.3-21.7 11.84-2.64 4.6-4.6 9.2-5.92 13.15l-11.18 1.32c-8.55 1.97-12.5 7.88-14.47 16.44-1.35 8.5 1.94 15.1 9.83 21 4.6 3.3 8.55 4.6 12.5 5.93l61.8-.66a49.8 49.8 0 0 0 11.85-5.93c8.54-5.26 11.83-12.5 11.17-20.38z"/><path d="M286.37 271.2c-3.95 3.95-7.23 9.87-9.86 16.44a30.54 30.54 0 0 0-15.1 3.95c-5.92 3.26-9.87 9.2-11.2 16.4-.64 8.55 2 15.8 7.9 21.7a47.43 47.43 0 0 0 17.1 9.2l62.5-.64.64-.65 13.16-6.57c8.54-5.27 12.5-12.5 12.5-21.05V308c0-7.23-3.96-12.5-10.54-16.44-5.26-3.3-11.18-4.62-18.4-5.27-5.27-14.47-14.48-22.37-27.64-23.68-8.54-.65-15.1 1.98-21.03 8.55zm19.73-1.97c7.9 1.3 14.47 4.6 19.07 11.18l4.6 9.9c.66 1.3 1.98 2.62 3.3 2.62l11.83 2c7.9 2.62 12.5 7.22 12.5 13.8v1.3c0 9.86-6.58 17.1-20.4 21.7l-60.5.66c-13.15-3.94-19.72-10.52-19.72-20.38v-2.64c1.3-7.23 5.26-11.83 11.83-13.8l10.55-1.32c1.98 0 3.3-.66 3.3-2.63.65-3.96 3.28-7.9 5.25-11.85 4.6-7.9 11.17-11.17 18.4-10.52z"/><path fill="#FFE700" d="M335.04 313.95c-5.92-11.18-15.13-16.44-26.97-16.44s-20.4 5.94-25.65 16.47c-3.28 4.6-4.6 9.86-5.26 15.78C287.68 335 301.5 337 318.6 335l23-4.6c-1.3-5.9-3.28-10.53-6.56-16.44z"/><path fill="#D96038" d="M309.4 338.28c0-3.94-.67-7.9-3.96-11.18-3.3-3.95-7.9-5.9-13.15-6.58-5.95-.66-9.9 0-13.84 2.63-4.6 1.98-6.58 5.92-7.24 10.53-.65 3.95.66 7.9 3.95 11.18 3.28 3.94 7.22 5.92 13.14 6.57 5.28.66 9.88-.65 13.83-2.63 4.6-2.63 6.57-5.92 7.23-10.52z"/><path d="M305.44 350.12a16.13 16.13 0 0 0 7.23-11.18v-1.97c0-3.96-1.3-7.24-3.94-10.53-3.3-5.25-9.2-8.54-16.44-9.2-6.6-.66-13.18 0-17.8 4.6-3.93 2.63-5.9 5.92-6.57 11.18-1.3 4.6.66 9.86 4.6 13.8 3.96 4.6 9.22 6.6 15.13 7.9 7.24 1.3 13.16-.65 17.76-4.6zM289 348.15c-4.6-.66-7.9-1.98-11.18-4.6-2.63-3.3-3.94-6.58-3.3-9.87a7.24 7.24 0 0 1 3.96-6.58c3.28-3.28 7.23-3.95 13.15-3.28 5.92.66 9.86 3.28 12.5 6.57a15.6 15.6 0 0 1 1.97 7.9c-.66 2.6-1.32 5.23-3.95 6.54-3.3 2.63-7.9 3.94-13.15 3.3z"/><path fill="#D96038" d="M348.2 334.34c-.67-3.95-2.64-7.24-6.6-10.53-4.6-2.6-9.2-3.25-14.46-2.6-5.26 0-9.86 2.64-13.15 5.9s-5.3 7.26-4.6 11.2a11.7 11.7 0 0 0 6.54 10.5c4.6 2.66 9.2 3.97 14.47 3.3 5.27-.64 9.87-2.62 13.16-5.9 3.3-3.3 4.6-7.9 4.6-11.84z"/><path d="M345.56 348.15c4.6-4.6 5.92-8.56 5.92-14.47a15.36 15.36 0 0 0-6.58-10.53c-5.26-4.6-11.18-5.9-17.76-5.25-6.57.65-11.83 2.63-15.78 7.23-3.95 3.94-5.92 8.55-5.26 13.8 0 4.6 2.63 9.22 7.9 12.5 4.6 3.3 10.5 4.6 17.1 3.95 5.9-.65 10.5-2.63 14.46-7.23zM344.9 335v1.3c0 2.64-1.32 5.27-3.95 7.9a21.63 21.63 0 0 1-10.52 4.6l-11.83-1.97c-3.3-2.62-5.92-5.26-5.92-8.55-.66-3.94 1.3-6.57 3.94-9.2 2.63-2.64 6.58-4.6 11.18-5.27 4.6 0 9.2.7 13.15 3.98 2.63 2.63 3.95 4.6 3.95 7.24zm-46.7-44.07c0-1.3-1.3-1.97-2.62-1.3-1.32.64-1.32 1.3-1.32 2.62l5.92 21.7c.66.66 1.32 1.3 2.63.66 1.35 0 2-.63 1.35-2.6l-5.92-21.05z"/><path fill="#DA8E55" d="M314 314.6l6.56-21.7-2.63 5.93A69.5 69.5 0 0 0 314 314.6z"/><path d="M321.22 290.93c-1.3 0-2.62 0-2.62.66l-2.64 7.2-3.94 15.13c0 1.32 0 2.63 1.97 2.63l1.3-1.97 3.93-14.48 2.63-5.9c.66-1.98.66-2.64-.66-3.3zm15.13 7.24c-1.3-.66-1.97-.66-2.63 0l-5.26 7.23-2.63 5.92c-.66.66 0 1.97 1.3 2.63l2-.66c3.28-5.95 5.9-9.9 7.22-12.5v-2.65zm-54.58 1.3c-.66-1.3-1.98-1.3-2.63 0-.66 1.3-.66 2 0 2.64 5.92 5.3 9.86 9.24 10.52 11.87l2.63.66c1.3 0 1.94-.65.63-2.62l-5.27-7.22-5.9-5.27z"/><path fill="#D96038" d="M309.4 206.1l13.14-3.95c9.2-3.3 14.47-9.87 15.13-17.76.65-7.9-2.64-13.84-10.53-19.1L314 160.7l-2.65-11.83c-3.95-7.9-9.86-13.8-19.07-15.78-7.9-2.65-16.45 0-23.03 7.2l-7.9 11.84-11.83-1.3c-7.9 1.3-13.8 5.25-17.1 13.8-2.63 7.9-.66 15.8 5.92 22.37 3.95 3.95 7.23 6.58 11.18 8.55l59.85 10.53z"/><path d="M317.28 158.1c-2.63-15.14-10.52-24.34-24.33-28.3-7.24-1.96-14.47-1.3-21.05 3.96-5.26 3.94-9.2 9.2-12.5 15.12l-16.43.66c-6.58 1.97-10.53 6.58-13.16 14.47-3.25 7.26-1.94 15.15 3.3 21.7 3.3 5.94 8.57 9.9 15.14 12.5l.66.68 60.5 10.53h.66c4.6 0 9.2-1.33 15.12-3.95 9.86-3.95 15.12-11.18 15.78-20.4l.66-2.62c0-6.57-3.28-11.83-9.2-16.44-3.94-3.96-9.2-6.6-15.12-7.9zm-25.65-21.72c7.23 1.32 13.15 6.58 16.44 13.16l2.63 11.18c0 1.97 1.32 3.3 2.63 3.3 2.64 0 5.92 1.3 11.18 3.28 6.6 3.94 9.9 8.54 9.9 15.12v1.32c-.66 6.57-5.26 11.83-12.5 15.12l-11.83 3.95-59.85-10.5c-10.5-6.57-15.77-13.15-15.77-20.4l1.3-5.9c2.64-6.6 7.25-10.53 13.82-11.84l10.53 1.3c1.97.67 2.62 0 3.94-1.95l7.9-10.53c5.92-6.58 12.5-8.55 19.73-6.58z"/><path fill="#FFE700" d="M291.63 202.8c7.9.67 15.78.67 23.02-.65 0-5.26-.66-11.18-2.63-17.1-4.6-12.5-12.5-19.07-23.68-21.04-11.83-1.95-21.04 2-28.93 10.55L252.2 189c9.2 7.9 22.36 13.15 39.46 13.8z"/><path fill="#D96038" d="M281.77 204.78c1.3-4.6.65-8.54-1.98-12.5-2.66-3.94-6.6-7.23-11.2-8.54a20.02 20.02 0 0 0-15.1 0 13.8 13.8 0 0 0-8.58 8.55c-1.98 3.92-1.32 7.86 1.97 12.46 2.63 3.95 6.6 6.57 11.84 7.9l13.8.65c4.6-1.3 7.24-4.6 9.22-8.54z"/><path d="M285.7 200.18l-1.96-7.9c-3.3-5.9-7.9-9.86-14.47-11.83l-19.07.66c-3.95 2.66-7.23 5.95-8.55 10.54-1.97 3.95-1.3 8.56 1.3 13.16 3.3 5.25 7.25 9.2 14.48 11.17l18.42-.66a21.96 21.96 0 0 0 9.2-9.84l.66-5.26zm-7.22 3.3a10.36 10.36 0 0 1-5.92 5.9l-13.15.66c-4.6-1.3-7.9-4.6-10.5-8.55a8.08 8.08 0 0 1-.65-8.57c.66-1.98 1.97-3.95 5.26-5.92l13.15-.65c5.92 1.97 9.2 5.25 11.18 9.2 1.32 2.63 1.32 4.6.66 7.9z"/><path fill="#D96038" d="M320.56 208.06c0-4.6-1.3-8.54-5.26-11.83-3.28-3.28-7.23-5.26-13.15-5.92-5.26 0-9.86 1.34-13.8 3.3-3.96 3.3-5.93 6.6-6.6 11.2 0 3.95.67 7.23 4.62 11.18 3.3 3.3 7.9 5.26 13.15 5.92 5.92 0 9.86-.67 14.47-3.3 3.92-3.3 5.9-6.58 6.54-10.53z"/><path d="M302.15 187.03c-5.92-.66-11.18 1.3-16.44 4.6-3.9 3.28-6.54 7.23-7.2 12.5 0 5.26 1.3 9.86 5.9 13.8a23.57 23.57 0 0 0 15.14 7.24c5.92 0 11.84-1.32 15.8-4.6 5.25-3.3 7.88-7.9 8.54-12.5 0-5.26-1.98-9.87-5.92-13.8-3.95-4.6-9.2-6.6-15.8-7.24zm-11.83 9.2c3.28-1.97 7.23-2.63 11.83-2.63 3.95.66 7.24 1.97 10.52 4.6 2.63 1.98 4.6 5.27 4.6 8.55v.66c-.65 3.97-1.97 5.95-5.9 7.9-3.3 2.65-7.25 3.3-11.85 3.3-3.94-.65-7.23-1.96-10.52-5.25-3.3-1.98-3.95-5.26-3.95-8.55a13.4 13.4 0 0 1 5.27-8.55zm-11.18-40.1c0-2-.66-2-1.98-2-1.3 0-1.3 0-1.3 2l1.96 21.7c0 1.96.66 2.62 1.32 1.96l1.97-2-1.94-21.7zm23 3.93l-3.3.66-3.26 5.26L289 181.1c-.66 1.32 0 1.98.66 2.64 1.3 0 2.63 0 2.63-1.32l6.54-14.47 3.3-5.26c1.3-1.34.65-2 0-2.65zm13.16 9.87c-.65-1.32-1.3-1.98-2.62-.66-2.63 1.97-6.58 5.9-9.87 11.18-.62 1.3-.62 1.97 0 3.3l3.3-.67c4.6-5.92 7.25-9.2 9.2-10.52a2 2 0 0 0 0-2.63zm-53.26-9.2h-3.3c-.65.65-.65 1.96 0 3.3 4.6 5.9 7.24 9.84 7.9 12.5.66 1.3 1.97 1.3 2.63 1.3l1.97-2-5.26-8.53-3.94-6.58z"/><path fill="#D96038" d="M68.7 456.66c-8.56 0-15.14 4.6-19.74 14.46-1.97 4.6-3.95 8.56-3.95 13.15-3.9 0-7.86 1.33-11.8 2.64-7.24 3.3-11.84 9.24-11.84 17.8-.66 8.53 3.3 15.1 11.84 20.4 4.6 1.94 8.54 3.26 13.14 3.92l61.16-7.22 11.17-7.9c7.24-6.58 9.87-13.15 8.55-21.7-1.3-7.9-6.58-12.5-16.44-14.47l-13.15-1.3-6.58-9.86c-5.92-7.27-13.15-10.57-22.35-9.9z"/><path d="M49.62 463.24a43.38 43.38 0 0 0-7.9 17.75 51.9 51.9 0 0 0-15.12 5.9c-5.26 3.93-8.55 10.5-8.55 17.75v1.3c0 7.9 3.3 14.47 9.86 19.08 5.3 3.95 11.2 6.58 17.8 7.24H47l60.5-7.25 1.3-.66c4.6-1.98 8.55-4.6 12.5-8.56 7.9-7.2 10.52-15.12 9.2-23.66-1.3-7.9-5.25-13.15-12.5-15.78-5.9-2-11.17-3.3-18.4-3.3-7.24-13.8-17.1-20.4-30.9-19.73-7.9 0-14.48 3.3-19.08 9.87zm1.97 9.2c4.6-7.9 9.84-12.5 17.73-12.5 7.23-.65 13.8 2.64 19.07 8.56l5.93 9.2a3.6 3.6 0 0 0 3.28 1.98l13.18 1.3c7.9 1.33 12.5 5.27 13.15 11.85v3.3c0 5.9-1.97 10.5-7.9 15.78a50.9 50.9 0 0 1-9.85 6.6l-59.85 7.23a31.55 31.55 0 0 1-11.84-3.93c-6.6-3.96-9.88-9.2-9.88-15.8v-.66c0-7.9 3.3-12.5 9.87-15.13 3.27-1.3 6.56-2.6 9.85-2.6 2.63 0 3.28-.67 3.28-2.64a45.9 45.9 0 0 1 3.96-12.5z"/><path fill="#FFE700" d="M47 522.42l41.42 1.32a147.8 147.8 0 0 0 22.36-7.24c-1.97-5.92-4.6-11.17-8.55-15.78-7.23-9.87-16.44-15.12-28.28-13.15-11.18 1.32-19.73 7.9-23.67 19.07-2.64 5.26-3.3 10.52-3.3 15.78z"/><path fill="#D96038" d="M79.87 528.35c0-4.6-1.97-8.56-5.26-11.2-3.92-3.28-8.52-4.6-13.8-5.24-5.9 0-9.85 1.34-13.8 4.6-3.94 2.66-5.9 6.6-5.9 10.54 0 4.6 1.96 8.56 5.25 11.2 3.95 3.28 8.55 4.6 13.8 5.24 5.27 0 9.88-1.3 13.82-4.6 3.95-2.63 5.92-6.57 5.92-10.5z"/><path d="M83.16 528.35c0-4.6-1.98-8.56-5.26-12.5-3.95-4.6-9.87-7.23-17.1-7.23-6.58 0-12.5 2.62-17.76 6.57-3.3 3.9-5.26 7.86-5.26 11.8 0 4.6 1.32 8.56 5.26 12.5 3.95 3.94 9.87 6.57 17.1 7.23 7.23 0 13.15-1.97 17.76-6.58 3.28-3.28 4.6-7.23 5.26-11.82zm-6.58 0l-3.3 7.23a19.8 19.8 0 0 1-13.14 4.6c-5.26-.66-9.86-1.97-12.5-5.26-2.63-2.63-3.28-4.6-3.28-7.9 0-1.96.65-4.6 3.28-7.23 3.95-2.66 7.9-4.6 13.16-4.6s9.2 1.94 12.5 5.23a10.43 10.43 0 0 1 3.28 7.9z"/><path fill="#D96038" d="M117.36 519.8c-.66-4.6-3.3-7.24-7.24-9.87l-14.47-1.3a20.27 20.27 0 0 0-13.15 7.2c-2.63 3.96-3.3 7.9-2.63 12.5 1.3 3.96 3.94 6.6 7.9 9.22l14.46 1.3c5.26-.64 9.2-3.27 11.84-7.22 3.3-3.28 4.6-7.9 3.3-11.84z"/><path d="M120.64 519.13c-.65-5.26-3.94-9.2-9.2-11.84-4.6-2.65-10.53-3.3-17.1-2-6.58 1.3-11.84 4.6-15.13 10.53-2.6 3.94-3.26 9.2-2.6 13.15 1.3 4.6 4.6 9.2 9.2 11.17l17.1 1.97c5.93-1.3 11.2-3.94 14.47-8.55 3.3-4.6 4.6-9.88 3.3-14.48zm-6.57 1.32l.65 1.97c0 2.64-1.3 5.93-3.94 7.9l-9.87 5.26-11.8-.66a15.4 15.4 0 0 1-6.6-7.9c0-1.96 0-5.25 2-7.88a16.13 16.13 0 0 1 11.17-7.23l11.84.68c3.95 1.97 5.9 4.6 6.58 7.9zM63.43 482.3c-.66-1.3-1.98-1.3-2.63-1.3-1.32.65-1.32 1.3-1.32 2.62l8.55 20.4c0 1.3 1.32 1.3 2.63 1.3 1.32 0 1.98-1.3.66-2.62l-7.9-20.4zm22.37-2.62c-1.33-.66-1.98 0-1.98 1.3l-2.63 6.58-1.35 15.8 1.32 1.97L83.8 504l1.97-15.1 1.3-6.6c.66-1.3 0-2.62-1.3-2.62zm16.43 5.26l-3.3.66c-1.3 1.96-3.28 6.57-5.9 13.15-.67 1.97 0 2.63 1.3 3.3 1.32 0 1.98 0 2.64-1.33l5.26-13.15c1.3-1.32.66-1.97 0-2.63zm-53.93 7.23c-1.3-.66-1.97-.66-3.3 0-.64 1.32-.64 1.97 0 3.3l10.54 10.5 2.63.67c1.3-.66 1.3-1.3 1.3-2.64l-5.9-6.57-5.27-5.26z"/><path fill="#D96038" d="M302.15 430.35c5.92-.65 9.87-3.94 13.16-8.55 3.3-5.26 4.6-10.52 3.3-16.44-.65-5.25-3.3-9.87-8.54-13.15-4.6-3.26-10.52-5.23-15.78-3.92a25.8 25.8 0 0 0-13.8 8.56c-3.3 5.25-4.62 10.52-3.3 16.44 1.3 5.25 3.94 9.86 8.55 13.15 5.27 3.95 10.53 5.26 16.45 3.95z"/><path d="M294.26 385.63c-6.58.66-11.84 3.95-15.78 9.86-3.95 5.24-5.26 11.16-3.95 17.74 1.32 6.57 4.6 11.83 9.87 15.12 5.26 3.95 11.18 5.26 17.76 4.6a25.3 25.3 0 0 0 15.78-9.86c3.28-5.9 4.6-11.83 3.94-17.75-1.3-6.58-4.6-12.5-9.86-15.78-5.92-3.3-11.18-5.26-17.76-3.95zm.66 5.26c4.6-1.34 9.86 0 13.8 2.6 3.95 3.3 6.6 7.24 7.24 12.5l.66 3.3c0 4.6-1.3 8.55-4.6 11.83-2.63 3.95-6.58 5.27-10.52 6.58a19.8 19.8 0 0 1-13.82-3.3c-4.6-2.6-6.57-7.2-7.9-11.8-.64-5.27 0-9.88 2.64-13.83 3.3-4.6 7.24-7.23 12.5-7.88z"/><path d="M302.15 387.6c-.65-1.3-1.3-1.3-2.63-1.3-1.3 0-1.97.65-1.3 1.96.64 8.56-1.33 16.44-6.6 25l-8.54 10.52c-.66 1.3-1.3 1.97-.66 2.63 1.32 1.34 2.64 1.34 3.3 0l9.86-11.15c5.26-9.87 7.23-18.42 6.57-27.62z"/><path d="M304.13 409.3l-9.87.67c-1.3 0-1.97 1.3-1.97 1.97l3.26 1.97 7.9-.62c5.9 0 10.5 1.97 12.5 5.25h2.62c1.3 0 1.96-1.3.64-2.6-3.3-3.96-7.9-5.93-15.13-6.6z"/><path fill="#D96038" d="M196.93 70.62c5.92-1.32 9.86-3.95 13.8-8.55 3.3-5.26 4.62-10.52 3.3-16.44-.66-5.27-3.94-9.86-8.55-13.15-5.26-3.3-10.52-4.6-15.78-3.3-5.92.67-10.52 3.3-13.82 8.56-3.28 4.6-4.6 9.86-3.28 15.78.66 5.92 3.94 10.52 8.55 13.8 4.6 3.3 9.86 4.62 15.78 3.3z"/><path d="M216.66 45.63c-.66-6.58-3.95-11.84-9.87-15.78-5.94-3.95-11.2-5.26-17.78-3.95a25.2 25.2 0 0 0-15.8 9.87c-3.27 5.92-5.25 11.83-3.27 18.4.65 6.6 3.94 11.2 9.86 15.13a26.43 26.43 0 0 0 17.1 3.95c6.6-1.3 12.5-4.6 15.8-9.87 3.95-5.9 5.27-11.17 3.95-17.75zm-4.6 3.95c0 4.6-1.32 7.9-3.3 11.18a20.46 20.46 0 0 1-12.5 7.24c-5.25.65-9.85 0-13.8-2.64-4.6-3.3-6.58-7.9-7.9-12.5-.65-5.26 0-9.86 3.3-13.8 2.63-4.6 6.57-6.58 11.83-7.9 4.6-.66 9.84 0 13.8 3.3 4.6 3.28 7.22 7.23 7.9 11.83l.64 3.26z"/><path d="M196.93 27.87l-2.63-1.3c-1.32 0-1.32 1.3-1.32 2.62.66 7.86-.65 16.4-6.57 24.96l-8.52 9.87c-.66 1.3-.66 1.97 0 3.28 1.3 1.33 1.97 1.33 3.3 0l9.2-11.82c5.9-9.2 7.23-18.43 6.57-27.64z"/><path d="M199.56 49.58l-9.86 1.3c-1.32 0-1.97 0-1.97 1.98l2.63 1.32h8.54c5.27 0 9.87 1.32 12.5 4.6l2.63.66c1.3-.65 1.3-1.97 0-3.3-2.63-3.93-7.9-5.9-14.47-6.56z"/><path fill="#D96038" d="M253.5 263.96c5.9-1.3 10.5-3.94 14.46-9.2 3.28-4.6 4.6-9.86 3.28-15.78-1.3-5.92-3.94-10.52-8.55-13.8-5.3-3.3-10.55-3.96-16.47-3.3-5.92.66-9.86 3.95-13.15 9.2a21.2 21.2 0 0 0-3.95 15.13c.65 5.96 3.94 10.55 9.2 14.5 4.6 3.28 9.86 3.95 15.13 3.28z"/><path d="M263.35 223.2c-4.6-3.95-10.52-4.6-17.1-3.95-6.57.66-12.5 3.95-15.78 9.87-3.94 5.25-4.6 11.17-3.94 17.75.65 6.57 3.94 11.84 9.86 15.13 5.9 3.94 11.8 5.25 17.73 3.94h.65c5.9-.65 11.17-3.94 14.46-9.86a18.92 18.92 0 0 0 3.95-17.76c-.66-6.58-3.95-11.84-9.87-15.12zm-2.63 4.6a15.13 15.13 0 0 1 7.9 11.84l.65 3.28c0 4.6-1.3 8.55-4.6 11.84a17.8 17.8 0 0 1-11.18 6.58c-4.6.66-9.9 0-13.84-3.3-4.6-3.28-6.58-6.57-7.9-11.83-1.3-4.6 0-9.83 3.3-14.44 3.28-3.95 7.23-6.57 11.83-7.23 5.26-1.3 9.86 0 13.82 3.3z"/><path d="M253.5 221.22l-2-1.97c-1.96.66-1.96 1.97-1.96 2.63 1.97 7.9 0 16.44-5.92 25l-8.55 11.17c-1.3.66-1.3 1.3 0 2.62 1.3.67 1.97.67 2.63 0l9.2-11.82c5.93-9.87 8.56-19.08 6.6-27.63z"/><path d="M256.12 242.93l-9.87.65c-1.3.66-1.3 1.32-1.3 1.98l1.96 1.96 8.58-.65c5.92.65 10.52 1.98 13.15 5.27h2.64c.66-.67 1.32-1.33 0-2.64-2.63-3.94-8.55-6.57-15.12-6.57z"/><path fill="#D96038" d="M76.58 419.83A14.8 14.8 0 0 0 77.9 408c-1.98-4.6-4.6-7.24-8.55-9.22l-11.84-.65c-4.6 1.3-7.2 3.94-9.2 7.9-1.95 3.94-1.95 7.9-.64 12.48.66 3.98 3.95 6.6 7.24 8.6l12.5 1.3c3.93-1.97 7.22-4.6 9.2-8.55z"/><path d="M70.66 396.8l-13.8-1.3c-5.27 1.3-8.56 4.6-11.2 9.86-1.96 3.95-1.96 8.55-.65 13.8a16.3 16.3 0 0 0 9.24 10.54l13.8.65c5.28-1.3 9.22-4.6 11.2-8.55a22.05 22.05 0 0 0 .65-14.47c-1.98-5.26-4.6-8.55-9.2-10.52zm-12.5 3.3l9.87 1.32c5.26 1.97 7.9 5.92 7.9 11.84l-1.32 5.9-7.86 6.6-9.87-.67c-3.3-2-5.92-3.97-6.57-7.9-1.33-3.3-1.33-6.6.64-9.88.66-3.3 3.95-5.27 7.24-7.24z"/><path fill="#D96038" d="M338.98 463.9c1.97-3.95 2.63-7.9 1.3-12.5a17.95 17.95 0 0 0-8.53-8.55l-12.5-.66c-3.94 1.3-7.23 3.92-8.55 7.9a14.78 14.78 0 0 0-1.3 11.8c1.96 3.95 4.6 7.24 8.53 9.2l11.84 1.33c4.6-1.98 7.24-4.62 9.2-8.56z"/><path d="M332.4 440.22l-13.8-.66c-4.6 1.32-7.9 3.95-10.53 9.2-2.63 4.6-2.63 9.2-.66 13.82a15.66 15.66 0 0 0 8.6 10.52l14.46 1.3c4.6-1.3 7.9-4.6 11.18-9.2 1.98-4.6 2.64-9.2.67-13.8-1.32-5.26-4.6-8.55-9.87-11.18zm-1.97 4.6c4.6 3.28 7.9 6.57 7.9 11.84l-1.32 5.92c-1.94 3.3-4.6 5.9-8.52 6.58h-9.86c-3.3-1.98-5.9-4.6-6.57-7.9-.66-3.3-.66-6.58.66-9.87 1.97-3.3 4.6-5.94 7.9-6.6h9.85z"/><path fill="#D96038" d="M356.74 101.53c1.97-4.6 1.97-7.9 1.3-12.5-1.96-3.94-4.6-7.23-8.54-9.2l-11.84-.66a15.54 15.54 0 0 0-9.2 7.9c-1.97 3.94-2.63 7.9-.66 11.83 1.3 4.6 3.94 7.9 7.9 9.2l11.83 1.32c3.95-1.3 7.23-4.6 9.2-7.9z"/><path d="M325.17 100.22c1.32 4.6 3.95 7.9 9.2 10.52l13.82.66c5.23-1.32 9.2-4.6 11.15-9.2 1.97-3.95 1.97-8.56.66-13.82-1.97-4.6-4.6-8.55-9.2-11.18l-13.8-.66c-5.25 1.98-8.54 5.26-11.17 9.2-1.98 4.6-1.98 9.22-.66 14.48zm5.26-1.98c-1.3-3.28-1.3-6.57.66-9.86 1.3-3.3 3.9-5.92 7.2-6.58h9.87c5.25 2.64 7.22 6.58 7.22 12.5l-.67 5.92a15.35 15.35 0 0 1-7.9 6.57l-9.86-.7c-3.28-1.3-5.9-3.93-6.57-7.9z"/><path fill="none" stroke="#000" stroke-width="3" stroke-miterlimit="100" d="M370.6 585.26H3.9V2.74h366.7v582.52z"/><path stroke-miterlimit="100" d="M367 582H5V5h362v577z" fill="none" stroke="#000" stroke-width="10"/></svg>