<svg xmlns="http://www.w3.org/2000/svg" width="372" height="587" viewBox="0 0 372 587"><path fill="#fffaf0" d="M0 0h372v587H0z"/><path d="M47.47 325.58c0-2-1.98-3.3-4.62-3.3-1.97 0-3.3 1.97-3.3 3.95v.66c6.6 46.14 19.8 87.68 39.57 123.28-15.83-13.85-31-31.65-46.16-52.75l-17.8-27.7-2.63-1.96H9.9c-2.65 1.97-2.65 3.3-2 5.93l24.4 36.26c19.12 26.37 39.57 46.15 59.34 60.66l5.28-.66c1.32-1.98 1.32-3.3 0-5.28-5.94-8.57-13.2-21.76-19.78-37.58-15.16-32.3-24.4-65.93-29.67-101.52z"/><path d="M13.2 431.72c-2-.66-3.3-.66-5.3 1.3-.65 2-.65 3.97 2 5.3 23.72 14.5 51.4 25.04 83.06 32.3h3.3l1.3-2.64c.68-1.98 0-3.95-2.62-4.62-31-7.25-58.02-18.46-81.75-31.64zM114.06 537.86c0-1.3-1.32-1.97-2.64-1.97-35.6 8.56-67.25 16.47-96.26 25.04-1.97 0-1.97 1.32-1.97 3.3.64 1.3 1.96 1.98 3.28 1.3l95.6-24.38c1.98 0 2.64-1.3 1.98-3.3z"/><path d="M36.92 497c-.66-2-1.98-2-3.96 0-.65.65-.65 1.96 0 3.3 11.87 11.2 25.06 22.4 40.22 32.95l19.78 12.53c1.32 0 2.64 0 3.96-1.98.65-1.32 0-1.98-1.98-3.3l-18.47-11.87c-15.16-10.55-28.34-21.1-39.55-31.64zM292.73 204.92c.65-3.3 0-5.27-2.64-6.6-9.9-4.6-20.45-10.54-32.98-19.1-23.73-17.8-43.5-37.6-59.33-60.67-.67-.65-1.33-1.32-2.65-1.32h-3.96c-2.65 1.98-3.3 4.62-1.32 7.26 16.48 23.72 36.92 44.8 61.3 62.62 12.54 9.23 24.4 15.82 34.96 19.78 2.63 1.97 4.6.66 6.6-1.98z"/><path fill="#858585" d="M369.2 233.28l-5.93-17.15-44.17 36.26c-35.6 27.03-65.93 49.44-92.96 65.26L134.5 370.4l-18.47-1.3-19.78 1.3c-1.3.66-2.63 5.94-4.6 15.17l-3.3 14.5c.66 1.98 25.7 15.82 75.82 40.22 53.4 25.7 83.07 42.18 89.66 48.12 15.82 13.18 18.46 29 7.25 47.47-85.7-38.9-140.43-61.98-164.16-68.58l-5.28 6.6 67.25 29.66c46.8 21.1 74.5 34.94 82.4 42.2 8.57 6.6 15.17 15.16 19.12 25.7l4.62 13.85H369.2l-5.93-42.2c-6.6-30.98-15.16-53.4-26.37-67.24-10.55-14.5-41.54-32.98-90.98-56.7l-71.86-31 30.98-17.8c20.44-13.84 31.65-25.04 32.3-32.3 59.34-42.86 103.52-77.8 131.86-104.83z"/><path d="M363.93 212.83l-2.64.67-44.84 36.9c-34.94 27.04-65.93 48.14-92.3 63.96l-90.33 52.74c-24.4-1.97-37.58-1.97-39.55.67-2.64 1.32-5.93 11.86-9.23 31.64v.67c.66 2.64 5.27 6.6 14.5 11.2l60.66 31c54.07 27.02 85.06 42.85 91.65 48.8 8.57 7.24 13.2 15.15 13.2 23.72 0 4.6-1.33 9.88-5.3 17.13-82.4-38.23-136.46-60.65-162.18-67.9-1.32-.67-2.63 0-3.95 1.3l-3.96 7.26-1.3 2.63 2.62 1.98 67.25 29.68c45.5 20.44 72.52 34.28 81.1 40.87 7.9 5.94 13.84 14.5 17.8 24.4l4.6 13.85c.67 1.97 2 2.63 3.3 2.63H369.2l3.3-.66V584.67c-.66-13.2-3.3-28.34-6.6-44.17-6.6-30.32-15.16-52.74-26.36-66.58-9.9-13.2-36.27-29.67-77.14-50.1-25.06-12.53-52.08-24.4-80.44-35.6 34.95-19.8 54.73-35.62 58.68-47.5 60-44.16 104.17-78.44 131.2-104.8l.66-2.64v-1.33l-6.6-16.48-1.97-2.64zm-1.98 9.23l3.96 10.55c-29 26.38-71.86 60.67-129.88 102.86l-1.97 1.98c-.66 6.6-9.23 14.5-25.72 26.37-11.2 7.26-23.07 14.52-36.26 21.1-.66.67-1.3 1.98-1.3 3.3 0 1.98.65 2.64 1.97 3.3l71.2 31c49.44 23.72 79.1 41.53 90.32 54.7 9.23 12.53 17.8 31.65 23.73 57.37 3.95 15.17 6.6 30.98 7.9 47.47h-98.23c-3.95-16.48-11.87-29-24.4-39.56-7.9-6.6-32.3-18.46-72.5-36.92C142.4 492.36 118 481.8 96.9 472.6l1.32-1.98c25.7 8.56 79.1 30.98 162.18 68.56 1.32 1.32 2.64 0 3.3-1.32 5.27-7.9 7.9-16.48 7.9-23.07 0-10.56-5.26-20.45-15.15-29.02-7.9-6.6-38.9-23.08-92.97-49.45-44.83-21.75-68.56-34.94-71.2-37.57 2.64-13.85 4.62-23.08 5.94-26.38 4.6-.65 16.48-.65 36.26 1.32l1.98-.66 90.98-53.4c41.53-23.73 85.7-56.7 134.5-97.58z"/><path d="M366.56 224.04c-.65-.65-1.3-.65-2.63 0-12.53 13.84-47.47 40.87-103.5 81.1l-78.47 46.8-49.45 30.33c-9.88-.66-16.47 1.3-20.42 4.6-2.64 2-3.3 6.6-2.64 11.88l.66 1.32 40.88 19.77 73.18 29.67c5.27 2 14.5 7.93 28.35 17.82 13.2 9.23 20.45 15.16 21.1 16.48l2.64 3.3c7.9 11.2 12.53 19.1 12.53 23.07l-3.3 19.78-2.63 13.85c-1.32 7.25.65 21.75 6.6 42.2l2.62 1.3 1.32-1.97v-.66c-4.6-17.14-7.25-29.67-7.25-37.58l3.3-16.5 3.3-20.43c0-5.27-4.62-13.84-13.2-25.05l-2.63-3.3-23.07-17.8c-13.2-9.9-22.42-15.82-27.03-17.8l-65.93-27.03-8.58-3.3-39.56-19.13v-1.3c0-2.65 1.32-4.63 1.98-5.95 3.3-2.64 8.57-3.95 17.14-2.64 2.64 0 20.43-10.54 52.1-31.64l79.1-46.8c56.04-40.23 90.32-67.92 103.5-81.1 1.32-1.32 1.32-1.98 0-3.3z"/><path d="M259.1 312.4c-1.32-1.34-1.98-1.34-3.3-.67-8.57 4.6-19.77 13.18-34.28 24.4L187.9 360.5c-7.25 3.97-22.42 13.86-45.5 28.37v1.3c-1.3 3.97 0 6.6 1.32 9.24 1.98 2.65 5.28 3.96 8.57 3.3 5.27-.65 14.5 2 25.7 6.6l31 13.84 22.4 9.9c9.24 3.3 23.08 11.87 42.86 25.05l30.34 22.4c1.97 1.98 5.27 7.92 9.9 17.8 5.26 9.9 7.24 16.5 7.9 19.78 0 3.3-1.32 6.6-2.64 9.9-2.64 5.93-3.95 11.2-4.62 14.5-1.32 9.23 4.62 23.74 16.48 44.17 0 1.32 1.32 1.32 1.98 0 1.98 0 1.98-1.32 1.32-2.64-11.87-19.1-16.48-32.95-15.82-40.2 0-3.95 1.3-8.58 3.95-13.84 2.64-5.28 3.3-9.24 3.3-11.88-.66-4.6-3.3-11.2-7.9-21.75-5.28-9.9-8.58-15.82-11.22-18.46l-30.98-23.07c-19.78-13.2-34.3-21.77-42.86-25.06l-23.08-9.9c-29.67-14.5-49.45-21.74-58.02-21.1-1.98 0-3.96-.64-5.28-1.97l-1.32-3.3v-1.3c19.78-13.85 34.95-23.08 44.18-27.7 9.9-5.93 20.44-13.85 34.28-25.05l33.62-24.4 1.32-1.97v-.66z"/><path fill="#FFF" d="M195.15 326.9l-15.17-3.3-15.16 18.46-11.2.65-17.8 10.56-2 15.17 12.54-11.22 15.82-1.96 11.88 2.64 1.3-11.2 19.8-19.8z"/><path d="M180.65 320.95c-1.32 0-2 0-3.3.67l-13.85 17.8-9.9.65-1.3.66-17.8 10.55-.66 1.32-2.64 15.17v.66l1.32 2.63h3.3l11.86-11.2 14.5-1.98 11.88 2.63h1.97l1.32-2.62v-9.9l19.78-19.77 1.3-1.3v-1.32l-1.96-1.33-15.82-3.3zm9.9 7.26l-17.16 16.5-1.33 1.3v8.58l-8.57-1.98h-1.32l-16.48 1.98-1.3.66-6.6 6.6.65-7.26 15.83-9.23 10.54-.66 1.98-.67 13.85-17.8 9.9 1.98z"/><path fill="#7DB368" d="M339.54 318.98l-2.64-5.28c2.64-4.6 2.64-8.57-.66-11.2l-3.95-2.64-41.55-6.6-19.78-5.27-29 15.16c13.83 15.16 32.3 26.37 54.7 34.28l30.34 6.6c4.62-2.64 7.26-7.92 8.58-15.17 2.64-2.64 3.96-5.93 3.96-9.9z"/><path d="M272.3 284.7h-2.65l-29 15.82-2 2.64.67 2.64c14.5 15.15 32.97 26.37 56.04 34.28 11.2 3.95 21.76 5.93 31 7.25h2.63c4.6-3.3 7.9-9.23 9.88-16.5 2.63-3.28 3.95-6.58 3.95-9.88l-2.64-7.9 1.97-4.62-1.32-5.27c-1.32-1.98-3.96-4.62-7.9-6.6h-.67c-11.87-.65-25.7-1.98-40.22-5.93l-19.77-5.94zm-1.33 6.6l22.4 6.58 38.25 5.28c1.32 0 1.98 1.3 3.3 2.64l.66 2.63-1.98 5.27 1.32 2 1.32 5.25c0 2-1.32 3.96-3.3 5.94l-.65 1.97c-.68 5.27-2.65 9.23-5.95 11.86l-30.33-7.9c-19.77-7.25-35.6-16.5-48.8-28.36l23.75-13.2z"/><path d="M336.9 311.06l-23.73-2.63c-17.8-2.63-33.63-6.6-46.8-13.2-2 0-2.65 0-3.3 1.33-1.33 1.98-.67 2.64.65 3.96 21.75 9.9 46.15 15.16 73.18 15.82 1.98 0 2.64-.66 2.64-1.98 0-2.63-.66-3.3-2.64-3.3zM335.58 326.23l-27.03-3.95c-21.1-4.62-37.58-11.22-50.77-19.78-1.3-.66-1.98-.66-3.3.66-.65 1.97-.65 2.64.67 3.95 13.84 8.6 30.98 15.18 51.42 20.45l29 3.96c1.33 0 2.65 0 2.65-1.97 0-1.98-.66-3.3-2.64-3.3z"/><path fill="#FFE700" d="M79.77 168c-5.93 2.64-11.86 5.94-15.82 9.24l-9.9 2.63c-7.9 1.98-13.84 5.27-19.1 9.9l17.8 6.58c12.52 5.27 21.1 11.87 25.7 19.78 3.3 5.93 9.23 20.44 15.17 44.17 7.9 23.08 19.12 38.9 32.3 48.8 17.8 11.85 38.9 19.1 63.95 20.43 11.87 1.3 22.42 1.3 31 0 1.3-8.58.65-13.2-2.65-13.2l23.74-4.6c17.8-5.93 31.65-13.85 41.53-23.74l-21.1-7.92c-8.57-7.9-19.78-17.8-32.97-27.7-26.37-20.43-50.77-36.25-73.84-46.14l-11.88-19.12c-9.9-12.52-20.43-20.44-29.66-23.73-9.9-2.65-21.1-1.33-34.3 4.6z"/><path fill="#80B368" d="M118.02 261.62c3.3 7.25 7.9 13.85 14.5 19.78 21.76 19.78 56.04 30.33 102.85 31.65 21.1-5.28 36.92-13.85 48.13-25.06l-21.1-7.92c-8.57-7.9-19.78-17.8-32.97-27.7-26.37-20.43-50.76-36.25-73.84-46.14l-11.87-19.1c-9.9-12.54-20.44-20.46-29.67-23.75-9.9-2.65-21.1-1.33-34.3 4.6-5.92 2.64-11.85 5.94-15.8 9.24l15.16-3.3c11.86-.66 20.43 2.63 26.37 8.56 5.26 5.28 7.9 15.83 7.24 30.33 0 19.78 1.32 32.97 2.64 39.56l2.64 9.22z"/><path d="M286.8 286.68l-2-2-21.08-7.24c-7.92-8.57-19.78-18.46-35.6-30.32-25.06-19.12-48.13-34.3-69.9-43.5-13.83-23.75-27.68-38.9-43.5-43.53-9.9-2.64-21.1-1.33-32.96 3.3-7.26 3.28-13.85 6.58-19.78 11.2-11.2 1.3-21.1 5.27-29.02 12.52l-1.32 2.64.67.66 2.64 2.63 16.48 5.93c12.53 5.28 20.45 11.87 24.4 18.47 1.98 3.3 5.27 11.86 8.57 24.4 5.26 16.47 9.22 28.34 13.17 36.9 7.26 14.52 16.5 25.72 27.04 32.97 17.8 12.53 38.9 19.12 63.96 21.1 11.87 1.98 23.07 1.98 32.96 0l2.64-3.3.66-5.27-.66-5.93c9.23-.67 18.46-3.3 28.35-6.6 13.86-5.93 24.4-13.18 33.64-21.75l.65-1.98v-1.32zM81.74 170.63c11.87-5.28 22.42-6.6 31-3.96 9.22 3.3 18.45 10.56 28.34 23.08l11.86 17.8 1.32 1.98c22.4 9.9 46.8 24.4 73.17 44.83l32.3 28.35 1.33.66 15.82 5.27c-9.23 8.57-22.42 15.17-37.58 19.78l-21.1 4.62c-1.98 0-3.3 1.3-3.3 3.3 0 1.3 1.32 1.97 2.64 2.63l.66 5.27-.66 1.98c-11.2 1.32-23.07 1.32-35.6-.65-20.44-2.64-38.24-9.24-54.06-19.78-9.9-6.6-18.46-16.48-24.4-30.33-3.95-7.26-8.56-19.78-12.52-35.6-3.95-13.2-7.25-21.76-9.23-25.72-6.6-10.54-19.78-18.46-38.9-25.7 4.62-2.65 8.57-4.62 14.5-5.95l6.6-1.97 1.32-.66 16.48-9.23z"/><path fill="#D96038" d="M100.87 184.5c0-2.65-1.32-4.63-3.95-6.6l-7.26-1.33c-2.63.67-4.6 2.64-5.93 4.62-1.98 1.97-1.98 4.6-1.98 6.58.66 2.64 1.98 5.27 4.6 6.6l7.27 1.3 5.93-3.95c1.32-1.97 1.98-4.6 1.32-7.24z"/><path d="M103.5 186.46v-2.63c-.65-2.64-1.97-5.28-5.26-7.26-2.64-1.97-5.28-2.63-9.24-2.63-3.3.66-5.93 2.63-7.25 5.93-1.98 2.63-3.3 5.27-1.98 9.22.66 3.3 1.98 5.27 5.28 7.25l9.23 1.98c3.3-1.32 5.93-2.64 7.25-5.28l1.98-6.6zm-13.18-6.6l4.62.67 3.3 4.6c0 2 0 3.97-.67 4.63l-4.6 3.3-5.3-.67c-1.3-1.32-2.62-2.64-2.62-4.62-.66-1.98 0-3.95.66-5.28 1.33-1.97 2.65-2.63 4.62-2.63zM118.02 238.54c1.3-6.6 6.6-11.86 14.5-15.82 4.6-1.32 8.57-2.63 12.53-3.3 1.97 0 2.64-.66 2.64-2.63 0-1.33-1.33-2.65-3.3-2.65-5.3.66-9.9 1.98-15.18 4.6-9.23 3.97-14.5 10.57-16.48 18.48-1.98 11.87 0 22.42 6.6 32.96 7.9 12.52 19.77 22.4 36.91 29 17.14 6.6 36.27 7.26 57.36 2.64 20.45-5.27 35.6-13.2 46.17-23.74.65-1.3.65-1.97 0-3.3l-2.64-1.3c-9.9 1.97-19.78 1.97-29.67-.67-10.55-1.98-19.13-6.6-27.03-13.18 3.3 6.6 7.25 11.86 13.18 13.84 10.56 5.26 22.43 7.24 34.96 5.93-11.2 9.22-25.06 15.82-41.54 18.45-18.46 3.3-34.28 1.98-48.8-3.3-15.8-6.6-27.02-15.15-34.27-26.37-5.93-9.88-7.92-19.1-5.93-29.66z"/><path d="M180 231.95c-2 .66-2.65 1.98-1.33 3.3 4.6 11.87 11.87 20.44 21.76 24.4-6.6-6.6-13.2-15.83-17.15-26.38-.66-1.32-1.97-1.98-3.3-1.32zM230.75 274.8c0-1.3-1.32-1.97-3.3-1.3-14.5 6.58-29 9.88-42.2 9.22l-15.15-2.64c-1.98-.65-2.64 0-3.96 1.98-.66 1.32 0 2.63 1.32 3.3 3.3 1.32 8.57 2.63 17.8 3.3 13.85 0 29-3.3 44.84-9.9 1.3-.66 1.3-2.63.65-3.96zM208.33 265.58c-.65-1.98-1.97-1.98-3.3-1.98L180 266.9l-9.9-1.32c-1.98-1.32-3.3-.67-3.3 1.32-1.32 1.3 0 1.97 1.32 3.3l11.2 1.97 27.04-3.3c1.32 0 1.97-1.97 1.97-3.3z"/><path d="M170.76 249.1c-1.32 0-1.98.66-2.64 2.63-.66 1.32.66 2.64 1.98 3.3l7.25.66 14.5-.68c1.32 0 1.98-1.97 1.98-3.3-.66-1.96-1.98-2.63-3.3-1.96l-13.18.65-6.6-1.3z"/><path fill="#D96038" d="M193.83 489.74c-1.98-7.92-7.25-12.53-16.48-14.5H163.5l-7.25-9.9c-5.93-6.6-13.85-9.23-22.4-9.23-9.24 1.33-15.83 5.94-19.8 15.18-1.97 4.6-3.3 9.23-3.3 13.84l-11.2 3.3c-7.9 3.3-11.2 9.9-11.2 18.46-.66 8.56 3.95 15.16 13.18 19.78l13.2 3.3 60.64-10.56 10.55-7.9c7.25-6.6 9.23-13.85 7.9-21.76z"/><path d="M183.94 473.92l-18.46-2.64c-7.9-13.2-18.46-19.12-32.3-18.47-7.92.67-13.85 4.63-18.46 11.23-3.96 5.26-6.6 11.2-7.26 18.45-5.93.66-10.54 2.64-14.5 5.94-5.28 4.6-7.9 10.54-7.9 18.46 0 7.9 3.3 14.5 10.54 19.78 5.27 3.95 11.86 5.93 18.46 6.6h.66l60.65-10.56 1.32-.66c3.95-1.97 8.56-5.27 11.85-8.57 7.92-7.92 10.56-15.82 8.58-25.06-1.98-7.23-5.94-11.85-13.2-14.48zm-19.77 4.6c2.63-1.3 6.6-1.3 12.52 0 7.25 1.33 11.86 5.3 13.84 11.88l.65 3.3c0 5.93-2.65 11.2-7.92 16.48l-9.23 5.93-59.33 10.56c-15.83-1.98-23.08-8.58-23.08-19.78 0-7.26 2.64-12.53 9.23-15.82 3.3-1.32 6.6-2.64 9.9-2.64l3.3-2.64c0-3.96.65-8.57 3.28-13.2 3.3-8.55 8.57-12.5 16.48-13.18 7.26 0 14.5 2 20.45 7.92 3.3 3.3 4.6 6.6 5.93 9.23.67 1.32 1.98 1.98 3.97 1.98z"/><path fill="#FFE700" d="M114.72 523.36c11.2 3.96 25.05 3.96 42.2-.66 7.9-2.63 15.15-5.27 21.1-8.57-1.33-5.28-4.63-10.54-8.58-15.17-7.9-9.9-17.8-13.84-29-11.86-11.88 1.97-19.13 8.57-23.1 19.78-2.62 5.93-3.28 11.2-2.62 16.48z"/><path fill="#D96038" d="M147.68 527.32c0-3.96-1.98-7.92-5.93-10.55-3.96-3.3-7.92-4.62-13.85-4.62-5.28.66-9.9 1.98-13.18 5.28-3.96 2.64-5.94 6.6-5.94 11.2.66 4.62 2.64 7.92 5.94 10.55 3.95 3.3 8.57 4.62 14.5 4.62 5.28 0 9.9-1.98 13.18-4.62 3.3-3.96 5.28-7.9 5.28-11.86z"/><path d="M111.42 540.5c4.6 4.6 10.55 6.6 17.8 6.6 5.93-.66 11.2-2.64 15.17-6.6 4.6-3.3 6.58-7.9 6.58-13.18 0-5.28-2.64-9.24-6.6-13.2-5.27-3.3-9.88-5.27-16.47-5.27-7.25 0-13.18 2.64-17.14 7.92-3.3 3.3-5.27 7.25-5.27 11.86.64 4.62 2.63 8.58 5.92 11.87zm17.14 0c-4.6 0-9.23-1.32-12.53-4.6-2.63-2-3.3-4.63-3.95-7.93 0-2.64.66-5.27 3.3-7.25 2.64-3.3 7.25-5.27 12.53-5.27 4.62 0 7.9 1.32 11.2 3.3 3.3 2.63 5.3 5.27 5.3 8.57 0 3.3-1.33 6.6-3.97 9.23-3.3 2.63-7.92 3.95-11.87 3.95z"/><path fill="#D96038" d="M185.26 517.43c-1.3-3.95-3.96-7.25-7.9-9.23l-15.18-1.32c-4.6 1.97-8.57 4.6-11.86 8.57-2.64 3.3-3.3 7.9-2.64 11.87 1.32 3.95 3.96 7.25 8.57 9.23l14.5.66c4.62-1.3 9.23-3.95 11.87-7.24 2.64-4.63 3.96-8.58 2.64-12.53z"/><path d="M188.56 516.77c-1.32-5.28-4.6-9.23-9.9-11.22l-17.13-1.3c-6.6 1.3-11.2 5.26-15.17 10.54-1.97 4.6-2.64 9.22-1.97 13.18 1.3 5.27 4.6 9.23 9.88 11.2l17.14 1.32c5.93-1.32 10.54-4.6 13.84-9.23 3.3-4.6 4.62-9.9 3.3-14.5zm-13.2-5.94c3.3 1.32 5.3 3.96 6.6 7.25v2.64c0 3.3-.66 5.94-3.3 7.9-1.97 2.65-5.27 4.63-8.56 5.3h-12.53c-3.3-2-5.27-3.96-6.6-7.26-.65-2.64 0-5.94 1.32-8.58 1.98-3.3 5.27-5.93 11.2-7.9l11.87.65zM129.22 482.48c-.66-1.3-1.3-1.97-3.3-1.3-.65.64-1.3 1.3-.65 2.63l9.23 20.44c.65.66 1.3 1.3 3.3.66l.65-2.64-9.23-19.78zM151.64 479.18c-1.32-.65-1.98 0-2.64 1.33l-1.32 6.6-1.32 15.82c0 1.32.66 1.98 1.98 1.98l1.98-1.98 1.32-15.16 1.32-6.6c.65-1.98 0-1.98-1.32-1.98zM168.12 483.8h-2.64c-2.63 3.3-4.6 7.9-5.93 13.85l1.32 2.64c1.3 0 2.63 0 2.63-1.34l5.28-13.18c.66-1.32 0-1.97-.66-1.97zM114.72 493.03l-3.3.67c-.66.65-.66 1.3 0 1.97l11.2 11.2c1.33.67 2 1.32 2.65 0 .65 0 1.32-1.32.65-2.63l-11.2-11.2z"/><path fill="#D96038" d="M263.72 391.5c-3.3 3.3-5.28 7.9-6.6 11.86h-11.86c-7.92 1.33-13.85 5.94-16.48 14.52-1.98 7.9 0 15.15 7.25 21.75l11.2 7.9 61.32 7.26 13.18-3.96c8.57-4.62 13.2-11.2 13.85-19.12.66-8.58-3.3-14.5-12.52-18.47l-13.2-4.6-3.3-11.2c-3.94-7.93-10.53-12.54-19.77-15.18-7.92-1.98-15.83 1.32-23.08 9.24z"/><path d="M267 384.9c-5.26 3.3-9.22 8.58-12.5 15.17-15.18-1.97-24.4 3.3-28.36 16.48-2.64 7.92-1.32 15.17 4.6 22.42 3.3 5.28 9.24 8.57 15.84 11.87h.65l61.32 7.25h.66c3.3 0 7.92-2 14.5-5.3 9.24-4.6 14.52-11.85 15.18-21.08v-1.32c0-7.26-3.3-12.52-9.23-17.15-4.62-3.3-9.9-5.26-16.48-6.6-3.3-15.15-11.87-24.38-25.72-27.68-7.25-1.3-14.5 0-20.44 5.94zm-11.2 21.76c1.32.66 3.3 0 3.96-1.97 1.32-3.97 3.96-7.93 7.25-11.23 5.3-6.6 11.88-9.9 19.8-7.9 7.24 1.3 13.18 5.93 16.47 13.18l3.3 10.55c0 1.98 1.32 2.64 3.3 2.64l11.2 3.95c7.26 3.3 11.22 8.57 11.22 14.5v.66c-.68 10.55-9.25 17.14-23.75 20.44l-60.66-7.25c-10.55-5.94-16.5-12.53-16.5-20.44l.67-5.27c1.98-7.24 6.6-10.54 13.85-11.87h9.88z"/><path fill="#FFE700" d="M256.47 426.44c-3.3 4.62-5.94 9.9-6.6 14.5 9.23 7.26 23.08 11.21 40.22 11.87l23.06-1.96c0-5.94-1.32-11.22-3.95-17.15-5.27-11.87-13.18-18.46-25.05-19.78-11.2-1.32-20.43 2.63-27.68 12.52z"/><path fill="#D96038" d="M265.7 434.36l-14.5.65c-4.62 2.65-7.26 5.3-8.58 9.25-1.32 4.6 0 8.56 2.64 12.52 2.63 3.96 7.25 6.6 11.86 7.9l15.17-.64c3.95-2 7.24-4.63 7.9-9.24.65-3.96 0-8.58-2.64-11.88-3.3-4.6-7.25-6.6-11.87-8.56z"/><path d="M266.36 431.06c-6.6-1.32-12.53-.66-18.47 1.97-3.96 2.64-7.26 6.6-7.92 10.56-1.98 3.95-.66 9.2 1.32 13.17 3.3 5.93 8.57 9.23 15.17 11.2 7.25 1.33 13.18 1.33 19.1-1.97 3.97-1.97 6.6-5.93 7.92-10.55v-3.95c0-3.95 0-6.6-1.98-8.58-3.3-5.93-7.9-9.9-15.16-11.86zm-15.17 7.9l13.17-1.3c5.28 1.3 9.24 3.95 11.88 8.56 1.3 1.98 1.3 4.62.65 7.92 0 1.97-1.97 3.95-4.6 5.93l-14.52 1.32c-4.6-2-8.57-3.97-10.55-7.93-1.3-2.63-1.97-5.27-1.3-7.9 1.3-2.65 2.63-4.62 5.26-6.6z"/><path fill="#D96038" d="M319.1 456.1c.66-4.6-1.98-8.56-5.28-11.85-3.95-2.64-7.9-4.62-13.84-4.62-5.27 0-9.9 1.32-13.84 4.62-3.3 2.63-5.94 6.6-5.94 10.54 0 4.6 1.98 7.9 5.27 11.2 3.96 3.3 7.9 4.62 13.85 4.62 5.27.66 9.9-1.33 13.84-3.96 3.3-2.63 5.94-6.6 5.94-10.55z"/><path d="M299.98 436.33c-7.25 0-13.2 1.98-17.14 6.6-3.3 3.3-5.94 6.6-5.94 11.87 0 4.6 1.98 9.23 6.6 13.18 3.95 3.95 9.23 5.94 15.82 5.94 5.93.65 11.2-1.33 15.82-4.63 4.62-3.96 7.26-8.57 7.26-13.2 0-4.6-2-8.55-5.28-12.5-3.96-3.97-9.9-7.27-17.14-7.27zm-13.2 11.22c3.3-3.3 7.26-4.63 13.2-4.63 5.93 0 9.9 2 13.18 5.28 1.98 2.64 2.64 4.6 2.64 7.9 0 3.3-1.98 5.94-5.27 7.93-3.3 2.63-7.25 3.95-11.2 3.3-3.97 0-8.58-1.33-11.22-3.3-2.63-2.64-4.6-5.94-4.6-9.23 0-3.3 1.3-5.3 3.3-7.25zM275.58 406c0-1.3-1.32-1.97-2.63-1.3-.66 0-1.98 0-1.98 1.96l3.3 21.76 2.63 1.98 1.98-2.63-3.3-21.76zM298 409.3l-2.64.66-3.3 5.93-5.93 15.16c0 1.32 0 1.97 1.32 1.97l2.64-1.3 5.26-13.85 3.3-5.94c1.32-1.32.66-1.98-.66-2.64zM312.5 417.88h-2.63l-9.9 11.86c-.65 1.32 0 1.98.66 2.64l2.64-.66c3.96-5.28 6.6-8.58 8.57-10.55 1.32-1.32 1.32-1.98.67-3.3zM257.78 411.94c-.66-.66-1.3-.66-2.63 0-1.32 1.3-1.32 1.98-.67 2.64l9.24 13.2 2.64.64c1.3 0 1.3-.65 1.3-1.98l-4.6-8.56-5.28-5.94z"/><path fill="#D96038" d="M319.76 249.1l13.18-4.62c8.57-4.6 13.2-11.2 13.2-19.12.65-8.57-3.3-14.5-12.54-18.46l-13.2-3.96c0-3.3-1.3-7.25-3.94-11.86-3.95-7.92-10.55-12.53-19.12-14.5-8.57-1.98-16.48 1.3-23.08 9.22L267 198.33l-11.2-.66c-8.56 1.98-13.84 6.6-15.8 15.16-2.65 7.92 0 15.82 7.24 22.4l11.86 7.27 60.66 6.6z"/><path d="M349.43 224.04c0-7.25-3.3-13.18-9.24-17.14-3.96-3.3-9.9-5.93-17.15-7.25-2.64-14.5-11.2-23.08-25.05-26.38-7.9-1.97-14.5 0-21.1 5.93-4.6 3.96-9.23 8.58-11.2 15.17l-16.5 1.98c-5.92 3.3-10.54 7.9-12.5 15.16-2.65 7.93-.67 15.18 4.6 22.43 4.6 5.27 9.9 8.57 15.82 11.2l1.32.67 61.32 6.6h.65l14.52-5.94c9.23-4.62 14.5-11.87 14.5-21.1v-1.32zm-6.6 0v1.32c0 10.55-7.9 17.14-23.07 20.44l-60-6.6c-11.87-5.93-17.14-13.18-17.14-20.44l.66-5.26c1.3-7.26 5.93-10.56 13.2-12.53 3.28-.66 6.58-.66 9.88 0 2.63 1.3 3.95.65 3.95-1.32l6.6-11.87c5.94-7.25 12.53-9.9 19.78-7.9 7.25 1.3 13.2 5.92 17.14 13.17l3.3 9.9c.66 1.97 1.98 3.3 3.3 3.3l11.87 3.3c7.24 3.28 10.53 7.9 10.53 14.5z"/><path fill="#FFE700" d="M300.63 246.46l23.08-1.98c0-5.27-1.3-11.2-3.94-17.14-4.62-11.2-13.2-17.8-24.4-19.12-11.87-1.32-21.1 2.64-28.35 12.53-3.28 5.27-5.92 9.88-6.58 15.16 9.9 7.26 23.07 10.56 40.2 10.56z"/><path fill="#D96038" d="M291.4 249.1c1.33-3.97.67-8.58-2.63-12.53-2.63-3.96-6.6-6.6-11.87-7.25l-14.5.66c-4.62 1.97-7.92 5.27-8.57 9.22-.66 3.96 0 7.92 2.64 12.53 3.3 3.96 7.25 6.6 12.52 7.25l14.5-.66c3.95-1.97 6.6-5.27 7.9-9.23z"/><path d="M292.73 236.57c-3.3-5.28-8.58-9.23-15.83-10.55-6.6-1.98-12.53-1.32-17.8 1.98-4.62 1.98-6.6 5.28-8.57 10.54-1.32 4.63 0 9.9 3.3 14.5 3.3 4.62 7.9 7.26 13.84 9.24 6.6 1.98 13.2 1.32 19.12-1.98 3.95-3.3 6.6-6.6 7.9-10.54l.66-3.96c0-3.3-1.32-6.6-2.63-9.23zm-17.15-3.96c5.28.68 8.57 3.3 11.2 7.27 2 2.63 2.65 5.26 2 8.56-1.33 2.64-2.64 4.62-5.28 5.94l-13.85 1.32c-3.96-.68-7.9-3.3-9.9-5.94-2.63-3.3-3.28-6.6-2.63-9.9 0-2.63 1.98-4.62 5.28-6.6l13.18-.65z"/><path fill="#D96038" d="M330.3 249.1c0-3.97-1.3-7.26-5.27-10.56-3.3-2.63-8.57-4.6-13.84-5.27-5.3 0-10.57 1.97-13.86 4.6-3.96 2.65-5.27 7.26-5.93 11.22 0 3.95 1.98 7.9 5.28 10.55 3.95 3.3 8.57 5.26 13.84 5.26 5.94 0 9.9-1.3 13.85-4.6 3.96-2.64 5.93-6.6 5.93-11.2z"/><path d="M311.2 229.98c-5.95 0-11.22 1.97-15.84 5.93-4.6 3.3-6.6 7.92-7.25 13.2 0 4.6 2 9.88 6.6 13.18 4.62 3.3 9.23 5.93 15.82 5.93 5.94.67 11.88-1.96 15.83-5.26 5.27-3.96 7.25-7.9 7.25-13.18 0-4.62-1.3-9.23-4.6-12.53-4.63-4.62-10.56-7.25-17.8-7.25zm0 6.6c5.26 0 9.2 1.96 12.5 5.92 2.65 1.32 3.3 3.96 3.3 6.6 0 3.95-1.3 6.6-4.6 9.22-3.3 1.98-7.26 3.3-11.87 3.3-3.96 0-7.9-1.97-11.2-3.96-2.65-1.97-4.62-5.27-4.62-8.57.66-3.3 1.98-6.6 5.28-8.57 3.3-2 6.6-3.96 11.2-3.96zM286.14 200.3c0-1.32-.67-1.97-2.64-1.32-.66 0-1.32.67-1.32 2l3.3 21.74c0 1.32.66 1.98 1.97 1.98l1.98-1.98-3.3-22.4zM309.2 202.94c-1.3-.66-2.63 0-3.3.67l-3.28 6.6c-2.64 5.27-3.96 9.9-5.94 15.16 0 .66 0 1.98 1.98 1.98l1.97-1.32 5.94-14.5 3.3-5.28-.66-3.3zM325.03 212.17h-2.63l-11.2 11.22c-.68.64-.68 1.96.64 2.62h2.64c4.62-5.93 7.92-9.9 10.55-11.2v-2.65zM278.88 220.75l-5.27-7.92-4.6-5.93-3.3-.66c-1.33 1.32-1.33 2.63 0 3.3l9.23 12.52c.65 1.32 1.32 1.32 2.63 1.32 1.32-.66 1.32-1.32 1.32-2.63z"/><path fill="#D96038" d="M367.88 140.3V5.17L216.25 4.5c-1.32 5.27-1.98 11.87-1.32 19.12.66 14.5 5.28 26.37 12.53 35.6 8.57 8.57 18.46 14.5 30.32 16.48l15.83.66-3.3 11.2c0 7.92 5.28 13.86 14.52 17.8l-3.96 5.95c-1.98 4.62-1.32 10.55 1.98 17.14 5.27 9.9 21.1 15.17 46.8 15.17l38.24-3.3z"/><path d="M371.18 5.16c0-1.98-1.32-3.3-3.3-3.3L216.25 1.2c-1.98 0-2.64.66-3.3 2.64-1.32 5.93-1.98 13.18-1.32 21.1 1.32 14.5 5.94 26.37 13.85 36.26 11.87 13.18 25.7 19.78 43.5 18.46l-1.97 7.9.67 5.28c1.98 5.28 5.94 9.9 12.53 13.84-2.64 2.64-3.3 6.6-3.3 10.56 0 4.6.66 8.56 3.3 12.52 5.27 10.55 21.75 17.14 48.13 17.14l39.55-3.3c1.98 0 3.3-1.3 3.3-3.3V5.17zM276.9 74.38c-.65-.66-1.97-1.32-3.3-1.32l-15.82-.65c-10.55-1.98-19.78-7.24-27.03-15.82-8.57-9.23-13.18-21.76-13.18-36.92L218.9 7.8l145.7.65v129.88l-44.2 1.98c-19.1-1.3-30.3-5.92-34.27-13.17-3.3-5.28-3.96-9.9-2.64-13.85l3.3-4.6 1.3-3.3-1.97-2.65c-6.6-3.3-10.55-7.25-11.87-11.2-.65-2.64-.65-5.94.66-9.24l1.98-3.96v-3.96z"/><path d="M272.95 57.24l-2.64.66h-9.22c-3.3-1.98-3.96-5.27-1.32-10.55 1.32-2.64 3.96-5.27 7.25-6.6l9.9-1.3c7.92 1.97 12.53 6.58 13.2 14.5 0 7.25-2 12.52-7.26 17.14l-9.23 3.28c-.65 0-1.3 1.32-1.3 1.98 0 1.98 1.3 2.64 1.97 1.98l10.55-3.96c6.6-5.27 9.23-11.86 8.57-21.1-.67-9.9-5.95-15.82-15.84-17.13l-13.18 1.3c-3.96 2-6.6 4.63-7.9 8.6-2 3.28-2.65 6.58-2 9.87l5.3 5.28c1.96 1.97 3.94 2.63 7.24 1.97l6.6-3.3-.67-2.63zM313.82 82.3c-3.95-6.6-9.9-7.92-17.14-4.62-4.62 1.97-7.25 5.27-6.6 9.9 1.33 5.26 4.62 7.9 9.9 7.24l2.64-1.98-2.64-1.98c-3.3 0-5.28-.66-5.94-3.3 0-3.3 1.32-5.27 4.62-6.6 4.6-1.96 8.57-1.3 11.86 3.3 1.98 2.64 2.64 4.63 2.64 7.92 0 2.64-.65 5.27-3.3 7.25-3.3 4.62-9.23 5.94-15.82 5.94l-8.57-1.32c-1.32-1.32-1.98-.66-2.63 1.32 0 .65 0 1.97 1.3 1.97l10.56 1.98c7.92.66 13.85-1.97 18.46-7.25 2.64-2.64 3.96-6.6 3.96-9.9 0-3.94-.66-6.58-3.3-9.88z"/><path d="M305.25 43.4c-12.52-.66-24.4-5.94-33.62-15.17l-10.55-13.85c-.66-1.3-1.32-1.3-2.64-1.3-1.32 1.3-1.32 1.97-1.32 3.3 1.32 3.28 5.28 8.56 11.87 15.15 9.88 9.22 21.74 14.5 36.25 15.16 13.85 1.3 27.04-2 39.56-8.58l15.83-11.86c1.32-1.32 1.32-2 0-3.3H358l-15.17 11.2c-11.86 7.26-24.4 10.55-37.58 9.23zM303.93 131.1l-10.55 5.25c-.65.67-1.3 2 0 2.64l2.64.65 9.9-4.6c7.24-3.3 15.16-4.63 22.4-4.63 7.26 0 14.5 1.98 22.42 6.6l9.23 5.92c1.32.67 2.64.67 3.3 0 1.32-1.3.66-2.63-.66-2.63l-9.88-6.58c-7.9-4.62-16.48-6.6-23.73-7.26-8.6-.65-16.5 1.33-25.07 4.63z"/><path d="M299.98 62.52l-7.9-2.64c-1.33-.66-2-.66-2.65.65-.66 1.33 0 2 .66 2.64l9.88 3.3c6.6 1.32 12.53-.66 16.48-3.95 4.62-3.3 7.25-6.6 8.57-11.2.66-3.3 0-5.3-1.32-7.93 0-1.32-.65-1.98-1.97-1.32-1.32.66-1.97 1.3-1.32 2.63 2.65 5.3 0 9.9-5.92 14.52-3.96 3.3-8.57 3.95-14.5 3.3z"/><path d="M344.8 36.14c-.65-1.32-1.97-1.32-2.62-1.32-2 0-2 1.32-2 2.64l2 9.23c.65 6.58-2 11.2-5.94 14.5-3.3 2.63-7.9 3.3-13.84 1.97l-7.26-2.64-2.63.66c-.66 1.3-.66 1.97.66 2.63l8.57 3.3c6.6 1.32 11.87.66 17.15-2.64 4.6-3.97 7.25-9.9 7.25-17.15l-1.32-11.2zM335.58 86.25c-3.3-3.3-8.57-3.95-13.85-1.98l-7.9 1.98c-.67.66-1.32 1.32-.67 2.64 0 1.3 1.32 1.96 2.64.64l6.6-1.97c3.95-.66 7.9 0 10.54 1.98 3.3 2.64 3.3 5.27 1.98 9.23-1.98 5.27-5.93 7.25-11.2 6.6-1.32 0-2 .65-2 1.97s0 1.97 1.33 1.97c7.25 1.32 12.53-1.97 15.83-8.57 1.98-5.93.66-11.2-3.3-14.5z"/><path d="M334.92 100.75c-1.98.67-1.98 1.32-1.32 1.98l5.94 7.9 19.77.68.67-.66c2.64-3.3 3.3-6.6 3.3-9.9 0-5.26-1.98-9.88-6.6-13.17-3.95-3.3-7.9-4.62-12.52-3.3-3.96 1.32-6.6 3.3-8.57 5.27-1.32 1.32-.66 2 0 2.64.66 1.98 1.32 1.98 2.64 0l5.27-3.3c3.95-1.3 7.9-1.3 10.54 1.98 3.95 2.64 5.27 5.93 5.27 9.9 0 3.3-.64 5.27-2.63 6.6h-14.5c-3.3-2.65-5.27-4.63-5.27-5.94-.66-.67-1.32-1.33-1.98-.67z"/><path fill="#D96038" d="M164.17 18.34l-3.3-13.85H3.3l1.97 153.6h17.8c13.85-1.3 24.4-4.6 31-9.88 7.24-4.6 10.54-11.2 10.54-17.14L62 123.16c12.52 3.96 23.07 2 32.96-4.6 6.6-4.62 9.23-9.9 9.23-16.5l-2.64-9.22 5.93-5.27c3.3-4.62 5.28-9.9 5.28-15.16l16.48-2.63c13.18-3.96 21.76-10.55 27.7-20.44 5.26-9.9 8.56-20.43 7.25-31z"/><path d="M164.17 3.18c0-1.32-1.32-1.98-3.3-1.98H3.3c-1.32 0-1.32.66-2.64.66L0 4.5l1.98 153.6c0 2 1.32 3.3 3.3 3.3 22.4 2 39.55-1.3 50.76-9.88 7.9-5.94 11.2-12.53 11.2-19.78v-4.62c11.22 1.98 21.1 0 29.68-6.6 7.25-4.6 10.54-11.2 10.54-18.45l-1.32-7.9c5.28-5.28 7.92-11.22 8.58-18.47 7.9 0 14.5-1.32 21.1-4.62 11.2-4.6 18.46-11.2 24.4-20.44 4.6-9.22 7.24-19.1 7.24-29l-1.98-13.2-1.3-5.26zm-5.28 4.6l1.97 13.86c0 9.22-1.98 17.8-6.6 26.37-5.27 8.58-13.84 14.52-25.05 18.47l-16.48 2.64c-1.32 0-1.98 0-2.64.67l-.66 2.64c0 7.26-3.3 13.2-9.22 17.8-1.98 1.33-1.98 2.64-1.32 3.96l1.97 7.9c0 5.3-2.63 9.9-7.9 13.2-8.58 6.6-18.47 8.57-29.68 4.6-2-.65-2.64 0-3.96 1.34-1.32.65-1.32 2.63-.66 3.95 4.6 6.6 2.63 13.84-6.6 20.43-9.22 7.25-23.73 10.55-43.5 9.24L7.24 7.8H158.9z"/><path d="M93.62 51.3c-1.32 5.28 0 9.9 1.98 13.2 3.95 5.27 9.23 8.56 16.48 9.88l2.64-1.97c0-1.3 0-1.3-1.98-1.3-6.6-2-11.2-4.63-13.85-8.58-1.33-2.64-1.98-5.94-1.33-9.9.67-4.6 3.3-7.24 6.6-8.57 3.96-1.3 7.25-1.3 10.55 1.33 1.98 1.3 3.3 3.95 1.98 7.25-.67 1.97-1.98 3.3-3.96 3.3s-1.98.65-1.98 1.97l1.98 1.98c4.6-.66 6.6-2.64 7.9-6.6.67-4.6 0-8.56-3.94-11.2-3.96-2.64-9.24-3.96-13.85-1.98-5.28 1.98-7.9 5.93-9.23 11.2zM102.85 94.16l.66-1.98c-2.63-4.6-6.58-7.9-10.54-9.23-5.93-2.64-11.87-1.98-17.8 1.32-3.96 3.3-6.6 7.26-5.93 11.87 0 5.93 2.63 9.23 6.6 11.87l11.2-.65c2.63-2.64 3.3-5.28 2.63-8.57-.66-1.32-1.3-1.32-2.63-1.32-1.32.66-1.98 1.32-1.32 2.63.66 1.97.66 2.63-1.3 3.95h-6.6c-3.3-1.32-4.62-3.96-4.62-7.9s1.32-6.6 4.6-8.58c5.3-3.3 10.57-3.3 15.84 0l6.6 6.6h2.63zM63.3 121.85c-6.6-5.28-11.88-7.25-17.15-6.6-2.64.67-4.62 2-5.94 3.3-1.96 3.3-1.96 5.94-1.96 8.57.66 3.3 2.64 6.6 5.93 7.92h2.64c.67-1.32.67-2.64-.65-3.3-1.98-1.32-3.3-3.3-3.95-5.28-.67-1.3.65-2.63 1.3-5.27l3.3-2c4.62-.65 8.58 1.33 13.86 5.95l2.63-.66c1.3-1.33.65-2.65 0-2.65z"/><path d="M79.77 55.27c7.92 1.3 13.85.65 17.15-2.64 1.32-1.32 1.32-1.32.65-2.64l-3.3-.67c-2.63 2.64-7.24 3.3-13.83 1.98-4.62-1.3-8.57-2.63-11.87-5.27-2.64-2.64-3.96-4.6-3.96-7.9l3.3-3.3c3.97-3.3 10.56-3.97 18.47-2.64 7.9 1.3 13.18 4.6 17.14 10.54 0 1.3 1.33 1.97 2.65.65 1.3-.66 1.3-1.32 0-2.65-3.3-6.6-9.9-11.2-19.12-12.52-8.57-1.98-15.83-.66-21.76 3.3-1.98 1.32-3.95 3.96-3.95 6.6-.66 3.3.66 6.58 3.95 10.54 3.96 3.3 9.23 5.93 14.5 6.6z"/><path d="M45.5 32.85c-13.86 3.3-23.74 8.57-30.34 18.46-1.32 1.33-1.32 1.33 0 2.64l3.3-.66C24.4 44.7 34.28 39.44 46.8 36.8l17.8-.66 2.65-1.32c0-1.97-.66-1.97-1.98-1.97H45.5zM49.45 72.4c3.95-2.64 9.23-3.3 17.14-1.32 8.56 1.33 14.5 5.94 16.47 13.2.66 1.3 1.32 1.3 1.98 1.3l1.98-2.63-3.96-7.25c-3.3-4.6-8.57-7.9-15.82-8.57-9.23-1.32-15.83-1.32-19.78 2.64-2.64 1.98-4.6 4.6-4.6 7.9 0 3.97 1.96 7.92 5.92 11.22 3.94 3.28 7.9 5.26 12.5 5.26l10.57 1.32 1.3-1.32c.67-1.32 0-1.98-1.97-2.63l-9.22-.67-10.56-4.6c-3.3-2.65-5.27-5.3-4.6-8.58 0-1.98 1.3-3.3 2.63-5.28z"/><path d="M27.7 66.47L15.15 67.8l-1.98 1.97c0 1.32 1.32 1.98 2.64 1.32h10.55c7.9 0 13.2 2.62 16.48 7.9h3.3c.66 0 1.32-1.32 0-2.64-3.3-5.28-9.9-8.57-18.46-9.9zM47.47 81.64c-1.98 0-2.64.66-2.64 1.3-1.32 4.63-3.95 7.92-8.57 9.9-5.27 3.3-12.53 3.3-20.44.66-1.32-.66-2.64 0-2.64 1.32s0 2.64 1.32 2.64l23.74-1.32c5.27-2.64 8.57-6.6 9.9-11.87.65-1.32 0-1.98-.67-2.63z"/><path fill="#D96038" d="M236.7 392.16c0-3.95-2-7.9-4.63-11.2-2.64-2.64-7.25-4.62-11.2-4.62-3.96 0-7.92 1.98-11.22 4.6-3.3 2.65-4.6 7.27-4.6 11.22 0 4.6 1.3 7.9 4.6 11.2 3.3 3.3 7.26 4.63 11.2 4.63 3.97 0 8.58-1.34 11.22-4.64 2.64-3.3 4.62-6.6 4.62-11.2z"/><path d="M234.05 378.98c-3.3-3.96-7.9-5.28-13.2-5.28-4.6 0-9.88 1.32-13.17 5.28-3.96 3.3-5.94 7.9-5.94 13.18 0 5.27 1.98 9.9 5.94 13.2 3.3 3.94 8.56 5.93 13.18 5.93 5.27 0 9.9-2 13.2-5.95 3.3-3.3 5.26-7.9 5.26-13.2 0-5.27-1.97-9.88-5.27-13.17zm-13.2 0c3.3 0 6.6 1.3 9.25 3.95 2.63 2.64 3.95 5.28 3.95 9.23 0 3.3-1.32 6.6-3.96 9.23-2.64 3.3-5.94 3.95-9.24 3.95s-6.6-.66-9.9-3.96c-2.63-2.65-3.94-5.94-3.94-9.24 0-3.95 1.3-6.6 3.95-9.23 3.3-2.64 6.6-3.95 9.9-3.95z"/><path d="M205.04 386.23c-1.32 0-1.32.65-1.32 1.98 0 1.32 0 1.98 1.32 1.98 9.9 0 17.8 5.28 24.4 15.17l2.63 1.3.66-3.3-7.9-8.55c-5.94-5.94-12.54-7.92-19.8-8.57z"/><path d="M230.75 378.32c0-1.33-1.32-1.33-2.64-1.33-3.28 1.97-5.26 5.27-7.24 10.55l-.65 7.25 2.64 1.97 1.32-1.97.66-5.93c1.32-3.96 2.64-7.25 5.28-8.58l.65-1.98z"/><path fill="#D96038" d="M224.16 181.84c2.64-3.95 3.3-7.9 2.64-11.86-.66-4.62-2.64-7.9-6.6-9.9-3.3-2.62-7.25-3.3-11.87-3.3-4.6 1.33-7.9 3.3-9.9 6.6-2.62 3.3-3.28 7.26-3.28 11.87 1.32 4.62 3.3 7.92 6.6 10.55 3.95 1.98 7.9 3.3 12.52 2.64 3.95-1.3 7.25-2.64 9.9-6.6z"/><path d="M221.52 157.46c-3.95-2.64-8.57-3.96-13.2-2.64-5.26 0-9.2 3.3-12.5 7.25-2.65 4.6-3.97 8.57-2.65 13.84.66 4.63 3.3 8.6 7.26 11.88 4.6 2.64 9.22 4.6 13.84 3.3 5.27-1.32 9.23-3.3 11.87-7.92 3.3-3.95 4.6-8.56 3.3-13.18-.66-5.27-3.3-9.23-7.92-12.52zM209 160.1l9.9 1.3c2.62 2.65 4.6 5.28 5.26 9.24v2.64c0 2.63-.66 4.6-2.64 7.25-1.3 2.63-4.6 4.6-7.9 5.27-3.97.66-7.26 0-9.9-2.64-3.3-1.97-5.28-4.6-5.28-8.56-1.3-3.3 0-6.6 2-9.9 2.62-2.63 4.6-4.6 8.56-4.6z"/><path fill="#D96038" d="M224.82 497c-3.3 3.3-4.6 6.6-4.6 11.2 0 3.95 1.3 8.57 4.6 11.2 3.3 2.64 6.6 4.62 11.2 4.62s7.92-1.98 11.2-4.62c3.3-2.63 5.3-7.25 5.3-11.2 0-4.6-2-7.9-5.3-11.2-3.28-3.3-6.58-5.3-11.2-5.3s-8.56 2-11.2 5.3z"/><path d="M236.03 526.66c5.27 0 9.9-1.98 13.84-5.28 3.3-3.95 4.6-7.9 4.6-13.2 0-5.26-1.3-9.88-4.6-13.17-3.96-3.95-8.57-5.93-13.85-5.93-5.27 0-9.22 1.98-13.18 5.94-3.3 3.3-5.27 7.92-5.27 13.2 0 5.27 1.97 9.23 5.27 13.18 3.96 3.3 7.9 5.28 13.2 5.28zm9.88-9.23c-2.62 2.64-5.92 3.95-9.88 3.95-3.3 0-6.6-1.3-9.22-3.95-2.64-2.64-3.96-5.94-3.96-9.23 0-3.96 1.32-7.25 3.96-9.9 2.63-2.63 5.93-3.95 9.22-3.95 3.96 0 7.26 1.32 9.9 3.96 1.97 2.65 3.95 5.94 3.95 9.9 0 3.3-1.98 6.6-3.96 9.23z"/><path d="M253.83 503.58l-2.64-1.98c-6.6.66-13.2 3.3-19.13 8.58l-7.9 8.56c0 1.33 0 1.98.65 3.3l2.64-.66c1.97-2.64 3.95-5.27 6.6-7.9 5.92-4.63 11.85-7.26 17.13-7.92l2.63-1.98z"/><path d="M228.1 493.03c-.64-.66-1.3-.66-1.96.67-.66.65 0 1.97.66 2.63 3.95 1.98 5.93 7.26 5.93 14.5 0 1.32.66 1.98 1.98 1.98l2-1.97c.65-9.23-2.65-15.16-8.6-17.8z"/><path fill="#D96038" d="M45.5 515.44c-1.33 4.63-1.33 8.58.65 11.88 1.98 3.95 5.27 6.6 9.23 7.9l12.53-.65c3.97-2.64 6.6-5.28 7.92-9.9 1.32-3.95 1.32-7.9-1.32-11.86-1.98-3.95-4.62-5.92-9.23-7.9l-11.87 1.32c-3.95 1.97-6.6 4.6-7.9 9.22z"/><path d="M78.46 526c1.3-5.28 1.3-9.9-1.32-14.5-1.98-4.62-5.94-7.92-10.55-9.24l-14.5 1.33c-4.63 1.96-7.27 5.92-9.25 10.53l-1.32 5.94c0 3.3 1.32 5.93 2.64 8.56 1.98 4.62 5.93 7.26 10.55 9.23l13.85-.65c5.27-2.63 7.9-6.6 9.9-11.2zm-6.6-11.87c1.98 3.3 2.64 6.6 1.32 9.9-1.32 3.3-3.3 6.58-6.6 7.9l-9.9 1.32c-3.28-1.32-5.92-3.3-7.9-6.6-1.3-3.3-1.97-6.58-.65-10.54.66-3.3 3.3-5.92 6.6-7.9l9.88-.66c3.3.65 5.95 3.3 7.27 6.6z"/><path d="M74.5 508.85c-.66-1.3-1.98-1.3-2.63-1.3-6.6 3.28-10.56 9.22-13.85 16.47l-3.3 11.2c0 2 .66 2 2.64 2.64l1.32-1.97 2.63-9.24c2.65-7.26 6.6-12.53 11.88-15.17l1.32-2.65z"/><path d="M46.8 510.18c-1.3 0-1.97.65-1.97 1.97 0 1.33.66 1.98 1.98 1.98 4.62 0 8.58 3.3 11.88 9.9 0 1.3 1.3 1.3 2.63 1.3l.68-2.63c-3.96-8.57-8.58-12.52-15.17-12.52z"/><path fill="#D96038" d="M81.1 477.87c1.97 3.95 5.27 5.94 9.88 7.25 3.96.66 7.9 0 11.87-1.98 3.3-2.63 5.93-5.93 6.6-10.55 1.3-3.96 0-7.92-2-11.87-2.62-3.3-5.92-5.94-9.88-6.6-3.95-1.32-7.9 0-11.86 1.98-3.95 2-5.93 5.3-7.24 9.9-.66 4.62 0 7.92 2.63 11.87z"/><path d="M84.4 454.14c-3.97 1.97-6.6 5.93-8.58 11.86l-.66 3.3c0 3.95 1.3 7.25 3.3 9.88 3.3 4.63 6.6 7.92 11.86 8.58 4.62.66 9.9 0 13.85-2.64 3.96-2.64 7.25-6.6 7.9-11.2 1.33-5.28.67-9.9-2.63-14.52-1.98-3.95-5.93-6.6-11.2-7.9-4.62-1.32-9.9-.66-13.85 2.64zm2.63 3.95c3.3-2 6.6-2 9.9-2 3.94 1.33 6.58 3.3 7.9 6.6 2.63 2.64 3.3 6.6 2.63 9.9-1.32 3.3-3.3 6.58-5.93 7.9-3.3 2.64-6.6 3.3-9.9 1.98-3.95-.65-6.58-2.63-8.56-5.93-1.98-2.63-2.64-5.93-1.98-9.9.66-3.95 2.63-6.58 5.93-8.56z"/><path d="M94.28 451.5c-1.98 0-2.64 0-2.64 1.3-1.32 7.27 0 14.52 3.96 21.12 1.97 3.95 4.6 6.6 7.25 9.88.66.66 1.32.66 1.98 0 1.3-1.32 1.3-1.98 0-3.3l-5.28-7.9c-3.95-6.6-5.27-13.2-3.95-18.46 0-1.33-.66-2.64-1.32-2.64z"/><path d="M89.66 469.3c-5.27 0-9.22 1.32-11.86 4.62v2.63l3.3-.66c1.3-1.98 4.6-3.3 9.22-3.3l5.93 1.32c1.32 0 2 0 2-1.33l-1.33-3.3h-7.26z"/><path fill="#D96038" d="M226.14 529.3c-2.64 3.3-4.62 7.25-4.62 11.2 0 4.6 1.98 8.57 4.62 11.87 3.3 2.63 7.25 4.6 11.2 4.6 4.62 0 8.57-1.97 11.87-4.6 2.65-3.3 4.63-7.26 4.63-11.87 0-3.95-1.98-7.9-4.62-11.2-3.3-2.64-7.24-4.62-11.86-4.62-3.95 0-7.9 1.98-11.2 4.6z"/><path d="M250.53 527.32c-3.3-3.3-7.9-5.28-13.2-5.28-4.6 0-9.22 1.98-13.17 5.28-3.3 3.95-5.27 8.56-5.27 13.18 0 5.28 1.96 9.9 5.26 13.2 3.95 3.94 8.57 5.26 13.18 5.26 5.28 0 9.9-1.32 13.2-5.27 3.94-3.3 5.93-7.92 5.93-13.2 0-4.6-2-9.23-5.94-13.18zm-26.37 13.18c0-3.3 1.32-6.6 3.95-9.23 2.65-2.64 5.95-3.95 9.24-3.95 3.96 0 6.6 1.3 9.9 3.95 2.63 2.64 3.3 5.94 3.3 9.23 0 3.96-.67 7.25-3.3 9.9-2.65 1.97-5.94 3.3-9.9 3.3-3.3 0-6.6-1.33-9.23-3.3-2.62-2.65-3.94-5.94-3.94-9.9z"/><path fill="#D96038" d="M21.75 539.18c-4.6 1.98-6.6 5.28-8.56 9.9-1.33 3.95-.67 7.9 1.3 11.86 1.98 3.95 5.28 6.6 9.23 7.9l12.53-.65c3.3-2.65 6.6-5.28 7.9-9.24.67-4.62.67-8.57-1.3-12.52-1.98-3.96-5.28-6.6-9.9-7.92l-11.2.66z"/><path d="M34.28 535.9l-14.5 1.3c-3.95 1.98-7.25 5.94-9.23 10.55-1.32 5.28-.66 9.9 1.98 14.5 1.98 4.62 5.93 7.26 10.54 9.24l14.5-1.33c3.96-1.98 7.26-5.93 8.58-11.2 1.98-4.62 1.32-9.23-1.32-13.86-1.98-4.6-5.27-7.9-10.55-9.2zm-11.86 5.92l10.54-.66c3.3 1.32 5.94 3.3 7.92 6.6 1.32 2.63 1.32 5.93.65 9.88-1.32 3.3-3.3 5.94-6.6 7.9l-10.54.68c-3.96-.67-5.94-3.3-7.92-5.94-1.32-3.3-1.32-6.6-.66-10.55 1.32-3.96 3.96-5.93 6.6-7.9z"/><path fill="#D96038" d="M330.3 446.22c-2.63 3.3-3.95 7.25-3.95 11.2 0 4.62 1.32 8.58 3.95 11.87 3.3 3.3 7.26 4.62 11.87 4.62 3.96 0 7.9-1.33 10.55-4.63 3.3-3.3 5.27-7.26 5.27-11.87 0-3.96-1.98-7.92-5.28-11.2-2.64-2.65-6.6-4.62-10.54-4.62-4.62 0-8.58 1.98-11.88 4.62z"/><path d="M329 444.25c-3.97 3.95-5.95 8.56-5.95 13.18 0 5.27 1.98 9.9 5.94 13.2 3.3 3.94 7.9 5.92 13.17 5.92 4.6 0 9.23-1.98 13.2-5.93 3.3-3.3 4.6-7.92 4.6-13.2 0-4.6-1.3-9.22-4.6-13.17-3.97-3.3-8.58-4.62-13.2-4.62-5.27 0-9.88 1.32-13.18 4.62zm3.94 23.07c-3.3-2.64-3.95-5.93-3.95-9.9 0-3.28.65-6.58 3.94-9.22 2.64-1.98 5.28-3.95 9.23-3.95 3.3 0 6.6 1.97 9.23 3.95 1.98 2.64 3.96 5.94 3.96 9.23 0 3.96-1.98 7.25-3.96 9.9-2.63 2.63-5.93 3.95-9.23 3.95-3.95 0-7.25-1.32-9.23-3.96z"/><path fill="#D96038" d="M249.2 168c2-3.3 3.3-7.25 2.65-11.2-1.32-4.62-2.64-8.58-6.6-11.22-3.95-1.97-7.9-3.3-11.86-1.97-3.97.67-7.92 2.64-9.9 6.6-2.64 3.3-3.96 7.26-2.64 11.2 0 4.62 2.64 8.58 5.94 10.55 3.95 2.64 7.25 3.96 11.86 2.64 4.62-.66 7.92-2.64 10.55-6.6z"/><path d="M233.4 140.3c-5.3 1.33-9.24 3.3-12.54 7.92-3.3 3.96-3.95 8.57-3.3 13.85.66 4.6 3.3 9.23 7.92 11.87 4.62 3.3 8.57 4.6 13.84 3.3 4.62-.67 8.57-3.3 11.87-7.26 2.63-3.3 3.3-6.6 3.3-11.2v-3.3c-.67-5.28-3.97-8.57-7.26-11.87-4.62-2.63-9.24-3.3-13.85-3.3zm-10.56 21.1c0-3.94.66-7.24 1.98-9.88 2.64-3.3 5.28-4.62 9.23-5.94 3.3-.65 6.6 0 9.9 2.64 3.3 1.98 4.6 5.28 5.26 8.57.67 3.3 0 6.6-1.97 9.88-2.64 3.3-5.27 4.62-9.23 5.93l-9.9-2.62c-2.62-2.63-4.6-5.27-5.26-8.57z"/><path d="M227.46 144.93l-3.3.65c-.66 1.32-.66 2 .66 2.64 4.6 3.96 7.9 9.24 9.23 16.5l1.32 9.88c0 1.97.65 1.97 1.97 1.97l1.98-1.97-1.32-11.2c-1.3-7.93-5.27-13.86-10.54-18.47z"/><path d="M239.32 155.47l-5.27 5.94c-.66.67-.66 2 .65 2h2.65l3.95-4.63c3.3-3.3 5.93-3.95 9.23-3.95l2.64-1.32-1.98-2.64c-3.97-.66-7.92.66-11.88 4.6zM36.92 349.96c-1.32-.65-1.98 0-2.64 1.32 0 .67 0 1.98.66 2.64l13.2 4.62c1.3 1.3 2.63.66 3.28-.66 0-1.32 0-2.64-1.97-2.64l-12.53-5.28zM65.27 373.7c-.66-1.32-1.98-1.32-3.3.66l-6.6 11.2c-.65 1.32-.65 2.65.67 2.65h2.64l7.25-12.52-.66-1.98zM71.86 403.36c-1.32 0-1.98 1.33-1.98 2l-1.98 16.47c0 1.3.67 1.98 1.98 1.98l1.98-1.97L73.84 406l-1.98-2.64zM52.74 413.25c0-1.97-1.32-1.97-1.97-1.97-1.32 0-2.64.66-2.64 1.97l1.32 14.52c0 .65.65 1.97 1.97 1.97l1.98-2.64-.66-13.85zM44.83 417.88c0-2 0-2.64-1.98-2l-11.2.67c-1.32.66-1.98 1.33-1.98 2.64 0 .65 1.32 1.97 1.98 1.97l11.86-1.32 1.33-1.97zM44.83 439.63c0-1.98-1.32-1.98-1.98-1.98-1.97 0-1.97.66-1.97 1.98l1.32 11.2 2.63 1.98 1.32-1.96-1.32-11.2z"/><g><path d="M61.3 456.1c-.64-1.3-1.3-1.96-2.62-1.3l-14.5 5.27c-1.33.66-1.33 1.32-1.33 2.63.66 1.33 1.98 1.33 2.64 1.33L60 458.1l1.3-2z"/></g><path stroke-miterlimit="100" d="M364.58 579.58H7.42V7.42h357.16v572.16z" fill="none" stroke="#000" stroke-width="14.84"/></svg>