<svg xmlns="http://www.w3.org/2000/svg" width="372" height="587" viewBox="0 0 372 587"><path fill="#fff" d="M0 0h372v587H0z"/><path fill="none" stroke="#000" stroke-width="3" stroke-miterlimit="100" d="M370.6 585.26H3.9V2.74h366.7v582.52z"/><path d="M47.47 325.58c0-2-1.98-3.3-4.62-3.3-1.97 0-3.3 1.97-3.3 3.95v.66c6.6 46.12 19.8 87.66 39.57 123.26-15.83-13.85-31-31.65-46.16-52.75l-17.8-27.7-2.63-1.95H9.9c-2.65 1.97-2.65 3.3-2 5.93l24.4 36.25c19.12 26.37 39.57 46.15 59.34 60.66l5.28-.66c1.32-1.98 1.32-3.3 0-5.28-5.94-8.57-13.2-21.76-19.78-37.58-15.16-32.3-24.4-65.94-29.67-101.53z"/><path d="M13.2 431.72c-2-.66-3.3-.66-5.3 1.3-.65 2-.65 3.97 2 5.3 23.72 14.5 51.4 25.04 83.06 32.3h3.3l1.3-2.64c.68-1.98 0-3.95-2.62-4.62a315.43 315.43 0 0 1-81.75-31.64zm100.86 106.14c0-1.3-1.32-1.97-2.64-1.97-35.6 8.54-67.25 16.45-96.26 25.02-1.97 0-1.97 1.32-1.97 3.3.62 1.3 1.94 1.98 3.26 1.3l95.6-24.38c1.98 0 2.64-1.3 1.98-3.3z"/><path d="M36.92 497c-.66-2-1.98-2-3.96 0-.65.65-.65 1.96 0 3.3a347.85 347.85 0 0 0 40.22 32.95l19.78 12.53c1.32 0 2.64 0 3.96-1.98.65-1.32 0-1.98-1.98-3.3l-18.47-11.87C61.3 518.08 48.13 507.53 36.92 497zm255.8-292.08c.66-3.3 0-5.27-2.63-6.6-9.9-4.6-20.47-10.54-33-19.1-23.73-17.8-43.5-37.6-59.33-60.67-.67-.65-1.33-1.32-2.65-1.32h-3.96c-2.65 1.98-3.3 4.62-1.32 7.26a263.27 263.27 0 0 0 61.3 62.6c12.54 9.23 24.4 15.82 34.96 19.8 2.64 1.95 4.6.64 6.6-2z"/><path fill="#858585" d="M369.2 233.28l-5.93-17.15-44.17 36.26c-35.6 27-65.93 49.42-92.96 65.24L134.5 370.4l-18.47-1.3-19.78 1.3c-1.3.66-2.63 5.94-4.6 15.17l-3.3 14.5c.66 1.98 25.7 15.82 75.82 40.22 53.4 25.7 83.07 42.16 89.66 48.1 15.82 13.2 18.46 29 7.25 47.47-85.7-38.9-140.43-61.98-164.16-68.58l-5.28 6.6 67.25 29.65c46.8 21.1 74.5 34.94 82.4 42.2a57.52 57.52 0 0 1 19.1 25.7L265 585.3H369.2l-5.93-42.2c-6.6-30.97-15.16-53.4-26.37-67.23-10.55-14.5-41.54-32.98-90.98-56.7l-71.86-31 30.98-17.8c20.44-13.84 31.65-25.04 32.3-32.3 59.34-42.86 103.52-77.8 131.86-104.83z"/><path d="M363.93 212.83l-2.64.67-44.86 36.9c-34.94 27.04-65.93 48.14-92.3 63.96L133.8 367.1c-24.4-1.97-37.57-1.97-39.54.67-2.64 1.32-5.93 11.86-9.23 31.64v.7c.66 2.63 5.27 6.6 14.5 11.2l60.66 31c54.06 27 85.05 42.84 91.64 48.8 8.57 7.23 13.2 15.14 13.2 23.7 0 4.6-1.33 9.9-5.3 17.14-82.4-38.23-136.46-60.65-162.18-67.9-1.32-.67-2.63 0-3.95 1.3l-3.95 7.26-1.3 2.62 2.62 1.98 67.25 29.68c45.5 20.44 72.52 34.28 81.1 40.87 7.9 5.94 13.84 14.5 17.8 24.4l4.6 13.85c.67 1.97 2 2.63 3.3 2.63H369.2l3.3-.66v-3.3c-.66-13.2-3.3-28.34-6.6-44.17-6.6-30.32-15.16-52.74-26.36-66.58-9.9-13.2-36.27-29.67-77.14-50.1-25.06-12.53-52.08-24.4-80.44-35.6 34.95-19.8 54.73-35.62 58.68-47.5 60-44.16 104.17-78.44 131.2-104.8l.66-2.64v-1.33l-6.6-16.48-1.97-2.64zm-1.98 9.23l3.96 10.55c-29 26.4-71.84 60.7-129.86 102.88l-1.97 1.98c-.66 6.6-9.23 14.5-25.72 26.37-11.2 7.26-23.07 14.52-36.26 21.1a5.02 5.02 0 0 0-1.3 3.3c0 1.98.64 2.64 1.96 3.3l71.2 31c49.44 23.72 79.1 41.53 90.32 54.7 9.23 12.53 17.8 31.65 23.73 57.37a273.18 273.18 0 0 1 7.9 47.46H267.7c-3.95-16.48-11.87-29-24.4-39.56-7.9-6.6-32.3-18.46-72.5-36.92C142.4 492.36 118 481.8 96.9 472.6l1.32-1.98c25.7 8.56 79.1 30.98 162.18 68.56 1.32 1.32 2.64 0 3.3-1.32 5.27-7.9 7.9-16.48 7.9-23.07 0-10.58-5.26-20.47-15.15-29.04-7.9-6.6-38.9-23.08-92.97-49.45-44.83-21.74-68.56-34.93-71.2-37.56 2.64-13.85 4.62-23.08 5.94-26.38 4.6-.65 16.48-.65 36.26 1.32l1.98-.67 90.98-53.4c41.53-23.72 85.7-56.7 134.5-97.57z"/><path d="M366.56 224.04c-.65-.65-1.3-.65-2.63 0-12.53 13.84-47.47 40.87-103.5 81.1l-78.47 46.8-49.45 30.33c-9.86-.66-16.45 1.3-20.4 4.6-2.64 2-3.3 6.6-2.64 11.88l.66 1.32 40.9 19.77 73.17 29.67c5.26 2 14.5 7.95 28.34 17.84 13.2 9.23 20.45 15.16 21.1 16.48l2.64 3.3c7.9 11.2 12.53 19.1 12.53 23.08l-3.3 19.78-2.63 13.85c-1.32 7.26.65 21.76 6.6 42.2l2.62 1.3 1.3-1.96v-.66c-4.6-17.13-7.24-29.66-7.24-37.57l3.3-16.5 3.3-20.43c0-5.27-4.62-13.84-13.2-25.05l-2.63-3.3-23.07-17.8c-13.2-9.9-22.42-15.82-27.03-17.8L160.9 419.2l-8.6-3.3-39.55-19.14v-1.3c0-2.65 1.32-4.63 1.98-5.95 3.3-2.62 8.57-3.93 17.14-2.62 2.64 0 20.43-10.54 52.1-31.64l79.1-46.8c56.04-40.23 90.32-67.92 103.5-81.1 1.32-1.32 1.32-1.98 0-3.3z"/><path d="M259.1 312.4c-1.32-1.34-1.98-1.34-3.3-.67-8.57 4.6-19.77 13.18-34.28 24.4L187.9 360.5c-7.25 3.97-22.42 13.86-45.5 28.37v1.3c-1.3 3.97 0 6.6 1.32 9.24a8.58 8.58 0 0 0 8.57 3.3c5.25-.63 14.5 2 25.7 6.6l31 13.86 22.4 9.9c9.22 3.3 23.06 11.87 42.84 25.05l30.34 22.4c1.96 2 5.26 7.93 9.9 17.8 5.25 9.9 7.23 16.5 7.9 19.8 0 3.3-1.33 6.6-2.65 9.9a69.8 69.8 0 0 0-4.62 14.5c-1.3 9.22 4.63 23.73 16.5 44.16 0 1.32 1.32 1.32 2 0 1.96 0 1.96-1.32 1.3-2.64-11.87-19.1-16.48-32.94-15.8-40.2 0-3.94 1.3-8.57 3.93-13.83 2.64-5.3 3.3-9.25 3.3-11.9-.66-4.6-3.3-11.2-7.9-21.75-5.28-9.9-8.58-15.82-11.22-18.46l-30.97-23.08c-19.78-13.2-34.3-21.76-42.86-25.05l-23.08-9.9c-29.68-14.5-49.46-21.74-58.03-21.1a7.46 7.46 0 0 1-5.28-1.97l-1.33-3.3v-1.3c19.78-13.85 34.95-23.08 44.18-27.7 9.9-5.93 20.44-13.85 34.28-25.05l33.62-24.4 1.32-1.97v-.66z"/><path fill="#FFF" d="M195.15 326.9l-15.17-3.3-15.16 18.46-11.2.65-17.8 10.58-2 15.17 12.54-11.22 15.82-1.96 11.88 2.64 1.3-11.2 19.8-19.8z"/><path d="M180.65 320.95c-1.32 0-2 0-3.3.67l-13.85 17.8-9.9.65-1.3.66-17.8 10.55-.66 1.32-2.64 15.17v.66l1.32 2.63h3.3l11.86-11.2 14.5-1.98 11.88 2.63h1.97l1.32-2.6V348l19.78-19.78 1.3-1.3v-1.32l-1.96-1.33-15.82-3.3zm9.9 7.26l-17.16 16.5-1.35 1.3v8.6l-8.57-2h-1.33l-16.48 2-1.3.66-6.6 6.6.64-7.26 15.84-9.24 10.54-.66 2-.67 13.84-17.8 9.9 1.98z"/><path fill="#7DB368" d="M339.54 318.98l-2.64-5.28c2.64-4.6 2.64-8.57-.66-11.2l-3.95-2.64-41.57-6.6-19.78-5.27-29 15.14c13.83 15.16 32.3 26.37 54.7 34.28l30.34 6.6c4.6-2.64 7.25-7.92 8.57-15.17a13.43 13.43 0 0 0 3.96-9.9z"/><path d="M272.3 284.7h-2.65l-29 15.82-2 2.64.67 2.64c14.5 15.15 32.97 26.37 56.04 34.28 11.2 3.95 21.76 5.93 31 7.25H329c4.6-3.3 7.9-9.23 9.87-16.5 2.63-3.28 3.95-6.58 3.95-9.88l-2.64-7.9 1.97-4.62-1.32-5.27a20.9 20.9 0 0 0-7.9-6.6h-.67c-11.87-.65-25.7-1.98-40.22-5.93l-19.77-5.94zm-1.33 6.6l22.4 6.58 38.25 5.28c1.32 0 1.98 1.3 3.3 2.64l.66 2.63-1.98 5.27 1.32 2 1.32 5.25c0 2-1.32 3.96-3.3 5.94l-.65 1.95c-.7 5.27-2.67 9.23-5.97 11.86L296 332.8c-19.76-7.24-35.6-16.5-48.8-28.35l23.76-13.2z"/><path d="M336.9 311.06l-23.73-2.63c-17.8-2.63-33.63-6.6-46.8-13.2-2 0-2.65 0-3.3 1.33-1.33 1.98-.67 2.64.65 3.96 21.75 9.9 46.15 15.16 73.18 15.82 1.98 0 2.64-.66 2.64-1.98 0-2.63-.66-3.3-2.64-3.3zm-1.32 15.17l-27.03-3.95c-21.1-4.62-37.58-11.22-50.77-19.78-1.3-.66-1.98-.66-3.3.66-.65 1.97-.65 2.64.67 3.95 13.84 8.6 30.98 15.2 51.42 20.47l29 3.96c1.33 0 2.65 0 2.65-1.97 0-1.98-.66-3.3-2.64-3.3z"/><path fill="#FFE700" d="M79.77 168c-5.93 2.64-11.86 5.94-15.82 9.24l-9.9 2.63a44.03 44.03 0 0 0-19.1 9.9l17.8 6.58c12.52 5.27 21.1 11.87 25.7 19.78 3.3 5.93 9.23 20.44 15.17 44.17 7.9 23.08 19.12 38.9 32.3 48.8 17.8 11.85 38.9 19.1 63.95 20.43 11.87 1.3 22.42 1.3 31 0 1.3-8.58.65-13.2-2.65-13.2l23.74-4.6c17.8-5.93 31.65-13.85 41.53-23.74l-21.1-7.94a421.42 421.42 0 0 0-33-27.7c-26.36-20.43-50.76-36.25-73.83-46.14L143.7 187.1c-9.9-12.5-20.43-20.43-29.66-23.72-9.9-2.65-21.1-1.33-34.3 4.6z"/><path fill="#80B368" d="M118.02 261.62a58.85 58.85 0 0 0 14.5 19.78c21.76 19.78 56.04 30.33 102.85 31.65 21.1-5.28 36.92-13.85 48.13-25.06l-21.1-7.94a421.42 421.42 0 0 0-32.97-27.7c-26.37-20.43-50.76-36.25-73.84-46.14l-11.9-19.1c-9.9-12.54-20.43-20.46-29.66-23.75-9.9-2.65-21.1-1.33-34.3 4.6-5.92 2.64-11.85 5.94-15.8 9.24l15.16-3.3c11.87-.65 20.44 2.64 26.38 8.57 5.26 5.28 7.9 15.83 7.24 30.33 0 19.8 1.32 32.98 2.64 39.57l2.64 9.22z"/><path d="M286.8 286.68l-2-2-21.08-7.24c-7.92-8.57-19.78-18.46-35.6-30.32-25.06-19.12-48.13-34.3-69.9-43.5-13.83-23.75-27.68-38.9-43.5-43.53-9.9-2.66-21.1-1.35-32.96 3.3-7.26 3.26-13.85 6.56-19.78 11.2-11.2 1.3-21.1 5.25-29.02 12.5l-1.32 2.64.67.66 2.66 2.64 16.48 5.93c12.53 5.28 20.45 11.87 24.4 18.47 1.98 3.3 5.27 11.86 8.57 24.4 5.27 16.47 9.23 28.34 13.18 36.9 7.26 14.52 16.5 25.72 27.04 32.97 17.8 12.55 38.9 19.14 63.97 21.1 11.86 2 23.06 2 32.95 0l2.64-3.3.65-5.25-.66-5.93c9.22-.66 18.45-3.3 28.34-6.6a113.86 113.86 0 0 0 33.64-21.74l.65-1.98v-1.32zM81.74 170.63c11.87-5.28 22.42-6.6 31-3.96 9.22 3.3 18.45 10.56 28.34 23.08l11.86 17.8 1.32 1.98c22.4 9.9 46.8 24.4 73.17 44.83l32.3 28.35 1.33.68 15.82 5.27c-9.23 8.57-22.42 15.17-37.58 19.78l-21.1 4.62c-1.98 0-3.3 1.3-3.3 3.3 0 1.3 1.32 1.97 2.64 2.63l.66 5.27-.66 1.98a129.93 129.93 0 0 1-35.6-.65c-20.44-2.64-38.24-9.24-54.06-19.78-9.9-6.6-18.46-16.5-24.4-30.34-3.95-7.26-8.56-19.78-12.52-35.6-3.95-13.2-7.25-21.76-9.23-25.72-6.6-10.54-19.78-18.46-38.9-25.7 4.62-2.65 8.57-4.62 14.5-5.95l6.6-2 1.32-.65 16.48-9.23z"/><path fill="#D96038" d="M100.87 184.5c0-2.65-1.32-4.63-3.95-6.6l-7.26-1.33c-2.63.67-4.6 2.64-5.93 4.62-1.98 1.95-1.98 4.6-1.98 6.56.66 2.64 1.98 5.27 4.6 6.6l7.27 1.3 5.93-3.95c1.32-1.96 1.98-4.6 1.32-7.23z"/><path d="M103.5 186.46v-2.63a11.05 11.05 0 0 0-5.26-7.26c-2.64-1.97-5.28-2.63-9.24-2.63a9.48 9.48 0 0 0-7.25 5.93c-1.98 2.63-3.3 5.27-1.98 9.22.66 3.3 1.98 5.25 5.28 7.23l9.23 1.98c3.3-1.3 5.93-2.63 7.25-5.27l1.98-6.6zm-13.18-6.6l4.62.67 3.3 4.6c0 2 0 3.97-.67 4.63l-4.6 3.3-5.3-.67c-1.3-1.34-2.62-2.66-2.62-4.64-.66-1.98 0-3.95.66-5.28 1.35-1.98 2.67-2.64 4.64-2.64zm27.7 58.68c1.3-6.6 6.6-11.86 14.5-15.82 4.6-1.32 8.57-2.63 12.53-3.3 1.97 0 2.64-.66 2.64-2.63 0-1.35-1.35-2.67-3.3-2.67a44.9 44.9 0 0 0-15.2 4.6c-9.23 3.97-14.5 10.57-16.48 18.48-1.98 11.88 0 22.43 6.6 32.97 7.9 12.52 19.77 22.4 36.9 29 17.15 6.6 36.28 7.26 57.37 2.64 20.44-5.26 35.6-13.2 46.16-23.73.65-1.3.65-1.97 0-3.3l-2.64-1.3c-9.9 1.97-19.78 1.97-29.67-.67-10.55-1.97-19.13-6.6-27.03-13.17 3.3 6.6 7.25 11.86 13.18 13.84 10.57 5.26 22.44 7.24 34.97 5.93-11.2 9.22-25.06 15.82-41.54 18.45-18.46 3.3-34.28 1.98-48.8-3.3-15.8-6.6-27.02-15.15-34.27-26.37-5.93-9.88-7.92-19.1-5.93-29.66z"/><path d="M180 231.95c-2 .66-2.65 1.98-1.33 3.3 4.6 11.87 11.87 20.44 21.76 24.4a76.24 76.24 0 0 1-17.15-26.38c-.66-1.32-1.97-1.98-3.3-1.32zm50.75 42.85c0-1.3-1.32-1.97-3.3-1.3-14.5 6.58-29 9.88-42.2 9.22l-15.15-2.64c-1.98-.65-2.64 0-3.96 1.98-.66 1.32 0 2.63 1.32 3.3 3.3 1.32 8.57 2.63 17.8 3.3 13.85 0 29-3.3 44.84-9.9 1.3-.66 1.3-2.63.65-3.96zm-22.42-9.22c-.65-1.98-1.97-1.98-3.3-1.98L180 266.9l-9.9-1.32c-1.98-1.32-3.3-.67-3.3 1.32-1.32 1.3 0 1.97 1.32 3.3l11.2 1.97 27.04-3.3c1.32 0 1.97-1.97 1.97-3.3z"/><path d="M170.76 249.1c-1.32 0-1.98.66-2.64 2.63-.66 1.32.66 2.64 1.98 3.3l7.25.66 14.5-.7c1.32 0 1.98-1.97 1.98-3.3-.66-1.96-1.98-2.63-3.3-1.96l-13.18.65-6.6-1.3z"/><path fill="#D96038" d="M193.83 489.74c-1.98-7.92-7.25-12.53-16.48-14.5H163.5l-7.25-9.9c-5.93-6.6-13.85-9.23-22.4-9.23-9.24 1.35-15.83 5.96-19.8 15.2-1.97 4.6-3.3 9.23-3.3 13.84l-11.2 3.3c-7.9 3.3-11.2 9.9-11.2 18.46-.66 8.55 3.95 15.15 13.18 19.77l13.2 3.3 60.64-10.56 10.55-7.9c7.25-6.6 9.23-13.83 7.9-21.74z"/><path d="M183.94 473.92l-18.46-2.64c-7.9-13.2-18.46-19.12-32.3-18.47-7.92.7-13.85 4.65-18.46 11.25a35.24 35.24 0 0 0-7.26 18.45c-5.93.65-10.54 2.63-14.5 5.93-5.28 4.6-7.9 10.54-7.9 18.46 0 7.9 3.3 14.5 10.54 19.76 5.27 3.95 11.86 5.93 18.46 6.6h.66l60.65-10.56 1.32-.65a49.05 49.05 0 0 0 11.83-8.57c7.92-7.92 10.56-15.82 8.58-25.06-1.97-7.23-5.93-11.85-13.2-14.48zm-19.77 4.6c2.63-1.3 6.6-1.3 12.52 0 7.23 1.33 11.84 5.3 13.82 11.88l.65 3.3c0 5.93-2.65 11.2-7.92 16.48l-9.23 5.93-59.33 10.58c-15.84-1.98-23.1-8.58-23.1-19.78 0-7.27 2.65-12.54 9.24-15.83 3.3-1.32 6.6-2.64 9.9-2.64l3.3-2.64c0-3.98.65-8.6 3.28-13.2 3.3-8.57 8.57-12.5 16.48-13.2 7.27 0 14.5 2 20.46 7.92 3.3 3.3 4.6 6.6 5.93 9.23.65 1.32 1.96 1.98 3.95 1.98z"/><path fill="#FFE700" d="M114.72 523.36c11.2 3.96 25.05 3.96 42.2-.66 7.9-2.63 15.15-5.27 21.1-8.57-1.33-5.28-4.63-10.54-8.58-15.17-7.9-9.9-17.8-13.84-29-11.86-11.88 1.97-19.13 8.57-23.1 19.78-2.62 5.93-3.28 11.2-2.62 16.48z"/><path fill="#D96038" d="M147.68 527.32c0-3.96-1.98-7.92-5.93-10.55-3.96-3.3-7.92-4.62-13.85-4.62-5.28.66-9.9 1.98-13.18 5.28a12.95 12.95 0 0 0-5.94 11.2 15.52 15.52 0 0 0 5.94 10.55c3.95 3.3 8.57 4.62 14.5 4.62 5.28 0 9.9-1.98 13.18-4.62 3.3-3.96 5.28-7.9 5.28-11.86z"/><path d="M111.42 540.5c4.6 4.6 10.55 6.6 17.8 6.6 5.93-.66 11.2-2.64 15.17-6.6 4.6-3.3 6.56-7.9 6.56-13.18 0-5.28-2.64-9.24-6.6-13.2-5.27-3.3-9.88-5.27-16.47-5.27-7.26 0-13.2 2.64-17.15 7.92-3.3 3.3-5.27 7.25-5.27 11.86a20.43 20.43 0 0 0 5.9 11.87zm17.14 0c-4.6 0-9.23-1.32-12.53-4.6-2.63-2-3.3-4.63-3.95-7.93 0-2.64.66-5.27 3.3-7.25 2.64-3.3 7.25-5.27 12.53-5.27 4.64 0 7.9 1.32 11.2 3.3 3.3 2.63 5.3 5.27 5.3 8.57a13 13 0 0 1-3.95 9.23c-3.3 2.63-7.92 3.95-11.87 3.95z"/><path fill="#D96038" d="M185.26 517.43a15.6 15.6 0 0 0-7.9-9.23l-15.18-1.32c-4.6 1.97-8.57 4.6-11.86 8.57-2.64 3.3-3.3 7.9-2.64 11.87a14.74 14.74 0 0 0 8.57 9.23l14.5.66c4.62-1.3 9.23-3.93 11.87-7.22 2.64-4.63 3.96-8.58 2.64-12.53z"/><path d="M188.56 516.77c-1.32-5.28-4.6-9.23-9.9-11.22l-17.13-1.3c-6.6 1.3-11.2 5.26-15.17 10.54-1.97 4.6-2.64 9.2-1.97 13.16 1.3 5.27 4.6 9.23 9.86 11.2l17.14 1.32a22.72 22.72 0 0 0 13.85-9.24c3.3-4.6 4.62-9.9 3.3-14.5zm-13.2-5.94c3.3 1.32 5.3 3.96 6.6 7.25v2.64c0 3.3-.66 5.94-3.3 7.9a14.63 14.63 0 0 1-8.56 5.3h-12.53c-3.3-2-5.27-3.96-6.6-7.26-.65-2.64 0-5.94 1.32-8.58 1.96-3.3 5.25-5.93 11.2-7.9l11.85.65zm-46.14-28.35c-.66-1.3-1.3-1.97-3.3-1.3-.65.64-1.3 1.3-.65 2.63l9.23 20.46c.65.66 1.3 1.3 3.3.66l.65-2.63-9.23-19.8zm22.42-3.3c-1.32-.65-1.98 0-2.64 1.33l-1.32 6.6-1.32 15.84c0 1.32.66 1.98 1.98 1.98l1.98-1.97 1.32-15.16 1.32-6.6c.65-2 0-2-1.32-2zm16.48 4.62h-2.64c-2.63 3.3-4.6 7.9-5.93 13.85l1.32 2.64c1.3 0 2.63 0 2.63-1.36l5.28-13.18c.66-1.32 0-1.97-.66-1.97zm-53.4 9.23l-3.3.67c-.66.65-.66 1.3 0 1.97l11.2 11.2c1.33.67 2 1.32 2.65 0 .65 0 1.32-1.32.65-2.63l-11.2-11.2z"/><path fill="#D96038" d="M263.72 391.5c-3.3 3.3-5.28 7.9-6.6 11.86h-11.86c-7.92 1.33-13.85 5.94-16.48 14.52-1.98 7.9 0 15.15 7.25 21.75l11.2 7.9 61.32 7.26 13.18-3.98c8.57-4.62 13.2-11.2 13.85-19.12.66-8.57-3.3-14.5-12.52-18.46l-13.2-4.6-3.3-11.2c-3.94-7.93-10.53-12.54-19.77-15.18-7.94-1.98-15.85 1.32-23.1 9.24z"/><path d="M267 384.9c-5.26 3.3-9.22 8.58-12.5 15.17-15.18-1.97-24.4 3.3-28.36 16.48-2.64 7.92-1.32 15.17 4.6 22.42 3.3 5.28 9.24 8.57 15.84 11.87h.65l61.32 7.25h.66c3.3 0 7.94-2 14.5-5.3 9.26-4.6 14.54-11.87 15.2-21.1v-1.3c0-7.28-3.3-12.54-9.23-17.17-4.62-3.3-9.9-5.26-16.48-6.6-3.3-15.15-11.88-24.38-25.73-27.68-7.25-1.3-14.5 0-20.44 5.94zm-11.2 21.76c1.32.66 3.3 0 3.96-1.97 1.32-4 3.96-7.95 7.25-11.25 5.3-6.6 11.9-9.9 19.8-7.9 7.26 1.3 13.2 5.93 16.5 13.18l3.3 10.55c0 1.97 1.3 2.63 3.3 2.63l11.2 3.96c7.25 3.3 11.2 8.57 11.2 14.5v.66c-.67 10.55-9.24 17.14-23.74 20.44l-60.66-7.25c-10.56-5.93-16.5-12.52-16.5-20.43l.66-5.28c1.98-7.25 6.6-10.55 13.85-11.88h9.9z"/><path fill="#FFE700" d="M256.47 426.44c-3.3 4.62-5.94 9.9-6.6 14.5 9.23 7.26 23.08 11.2 40.22 11.87l23.04-1.94c0-5.94-1.32-11.22-3.95-17.15-5.28-11.86-13.2-18.45-25.06-19.77-11.2-1.32-20.43 2.63-27.68 12.52z"/><path fill="#D96038" d="M265.7 434.36l-14.5.65c-4.62 2.67-7.26 5.3-8.58 9.27-1.32 4.6 0 8.56 2.64 12.52 2.63 3.95 7.25 6.6 11.86 7.9l15.17-.65c3.93-2 7.22-4.63 7.9-9.24.63-3.95 0-8.57-2.66-11.87-3.3-4.6-7.25-6.6-11.87-8.56z"/><path d="M266.36 431.06a29.43 29.43 0 0 0-18.47 1.97c-3.98 2.64-7.28 6.6-7.94 10.56-1.98 3.93-.66 9.2 1.32 13.15 3.3 5.93 8.56 9.23 15.16 11.2 7.25 1.33 13.18 1.33 19.1-1.97 3.97-1.98 6.6-5.94 7.92-10.56v-3.95c0-3.96 0-6.6-1.98-8.6-3.3-5.92-7.9-9.9-15.16-11.85zm-15.17 7.9l13.15-1.3c5.28 1.3 9.24 3.95 11.88 8.56 1.3 1.98 1.3 4.62.65 7.92 0 1.97-1.98 3.95-4.6 5.93l-14.53 1.32c-4.6-2-8.57-4-10.55-7.95-1.3-2.63-1.97-5.27-1.3-7.9 1.3-2.65 2.63-4.62 5.26-6.6z"/><path fill="#D96038" d="M319.1 456.1c.66-4.6-1.98-8.56-5.28-11.85-3.95-2.64-7.9-4.62-13.84-4.62-5.27 0-9.9 1.32-13.84 4.62-3.3 2.63-5.94 6.6-5.94 10.54 0 4.6 1.98 7.9 5.27 11.2 3.96 3.3 7.9 4.6 13.85 4.6 5.27.66 9.9-1.33 13.84-3.96 3.3-2.63 5.94-6.6 5.94-10.55z"/><path d="M299.98 436.33c-7.25 0-13.2 1.98-17.14 6.6-3.3 3.3-5.94 6.6-5.94 11.87 0 4.6 1.98 9.23 6.6 13.18 3.95 3.95 9.23 5.94 15.82 5.94 5.93.65 11.2-1.33 15.82-4.63 4.62-3.98 7.26-8.6 7.26-13.2s-2-8.57-5.28-12.5a24.26 24.26 0 0 0-17.14-7.3zm-13.2 11.22c3.3-3.3 7.26-4.63 13.2-4.63 5.93 0 9.9 2 13.18 5.28a11.5 11.5 0 0 1 2.64 7.9c0 3.3-1.98 5.94-5.27 7.93-3.3 2.63-7.25 3.95-11.2 3.3-3.97 0-8.58-1.33-11.22-3.3-2.6-2.64-4.6-5.94-4.6-9.23 0-3.3 1.3-5.3 3.3-7.25zM275.58 406c0-1.3-1.32-1.97-2.63-1.3-.66 0-1.98 0-1.98 1.96l3.3 21.76 2.63 1.98 1.98-2.63-3.3-21.76zm22.42 3.3l-2.64.66-3.3 5.93-5.93 15.14c0 1.32 0 1.97 1.32 1.97l2.64-1.3 5.24-13.84 3.3-5.94c1.32-1.32.66-1.98-.66-2.64zm14.5 8.58h-2.63l-9.9 11.86c-.65 1.32 0 1.98.66 2.64l2.64-.66c3.96-5.28 6.6-8.58 8.57-10.55 1.32-1.32 1.32-1.98.67-3.3zm-54.72-5.94c-.66-.66-1.3-.66-2.63 0-1.32 1.3-1.32 1.98-.67 2.64l9.24 13.2 2.64.64c1.3 0 1.3-.65 1.3-1.98l-4.6-8.56-5.28-5.94z"/><path fill="#D96038" d="M319.76 249.1l13.18-4.62c8.57-4.6 13.2-11.2 13.2-19.12.65-8.57-3.3-14.5-12.54-18.46l-13.2-3.96c0-3.3-1.3-7.25-3.94-11.86-3.95-7.92-10.55-12.53-19.12-14.5-8.57-1.98-16.48 1.3-23.08 9.22L267 198.33l-11.2-.66c-8.56 1.98-13.84 6.6-15.8 15.16-2.65 7.92 0 15.82 7.24 22.4l11.86 7.27 60.66 6.6z"/><path d="M349.43 224.04c0-7.25-3.3-13.18-9.24-17.14-3.98-3.3-9.9-5.93-17.17-7.25-2.64-14.5-11.2-23.08-25.05-26.38-7.9-1.97-14.5 0-21.1 5.93-4.6 3.96-9.24 8.58-11.2 15.17l-16.5 1.98c-5.93 3.3-10.55 7.9-12.5 15.16-2.66 7.95-.68 15.2 4.6 22.45 4.6 5.27 9.9 8.57 15.8 11.2l1.33.67 61.33 6.6h.65l14.52-5.93c9.23-4.63 14.5-11.88 14.5-21.1v-1.33zm-6.6 0v1.32c0 10.55-7.9 17.14-23.07 20.44l-60-6.6c-11.87-5.93-17.14-13.18-17.14-20.44l.66-5.26c1.3-7.26 5.93-10.56 13.2-12.53a24.9 24.9 0 0 1 9.88 0c2.63 1.3 3.95.65 3.95-1.32l6.6-11.87c5.96-7.25 12.55-9.9 19.8-7.9 7.25 1.3 13.2 5.92 17.14 13.17l3.3 9.9c.66 1.97 1.98 3.3 3.3 3.3l11.87 3.3c7.25 3.28 10.54 7.9 10.54 14.5z"/><path fill="#FFE700" d="M300.63 246.46l23.08-1.98c0-5.27-1.3-11.2-3.92-17.14-4.62-11.2-13.2-17.8-24.4-19.12-11.87-1.32-21.1 2.64-28.35 12.53-3.28 5.27-5.92 9.88-6.58 15.16 9.9 7.28 23.07 10.58 40.2 10.58z"/><path fill="#D96038" d="M291.4 249.1c1.33-3.97.67-8.58-2.63-12.53a16.17 16.17 0 0 0-11.87-7.25l-14.5.66c-4.62 1.97-7.92 5.27-8.57 9.22-.66 3.96 0 7.92 2.64 12.53 3.3 3.96 7.25 6.6 12.52 7.25l14.5-.66a15.56 15.56 0 0 0 7.9-9.23z"/><path d="M292.73 236.57c-3.3-5.28-8.58-9.23-15.83-10.55-6.6-1.98-12.53-1.32-17.8 1.98-4.62 1.98-6.6 5.28-8.57 10.54-1.32 4.63 0 9.9 3.3 14.5 3.3 4.62 7.9 7.26 13.84 9.24a24.18 24.18 0 0 0 19.12-1.98c3.93-3.3 6.6-6.6 7.9-10.54l.64-3.96c0-3.3-1.32-6.6-2.63-9.23zm-17.15-3.96c5.28.7 8.57 3.3 11.2 7.3a9.94 9.94 0 0 1 2 8.55c-1.33 2.64-2.64 4.62-5.28 5.94l-13.85 1.3a17 17 0 0 1-9.9-5.93c-2.63-3.3-3.28-6.6-2.63-9.9 0-2.63 1.98-4.62 5.28-6.6l13.18-.65z"/><path fill="#D96038" d="M330.3 249.1c0-3.97-1.3-7.26-5.27-10.56-3.3-2.63-8.57-4.6-13.84-5.27-5.3 0-10.6 1.97-13.88 4.6-3.96 2.65-5.27 7.26-5.93 11.22 0 3.93 1.97 7.9 5.27 10.53 3.95 3.3 8.57 5.26 13.84 5.26 5.95 0 9.9-1.3 13.86-4.6a12.96 12.96 0 0 0 5.93-11.2z"/><path d="M311.2 229.98a23.6 23.6 0 0 0-15.84 5.93c-4.6 3.3-6.6 7.94-7.25 13.2 0 4.6 2 9.9 6.6 13.2 4.64 3.3 9.25 5.93 15.84 5.93 5.94.67 11.88-1.96 15.83-5.26 5.27-3.96 7.25-7.9 7.25-13.18 0-4.63-1.3-9.24-4.6-12.54a24.35 24.35 0 0 0-17.8-7.25zm0 6.6c5.26 0 9.2 1.96 12.5 5.92 2.65 1.32 3.3 3.96 3.3 6.6 0 3.95-1.3 6.6-4.6 9.22a22.74 22.74 0 0 1-11.87 3.3c-3.96 0-7.9-1.97-11.2-3.96-2.65-1.97-4.62-5.27-4.62-8.57.68-3.3 2-6.6 5.3-8.6s6.6-3.95 11.2-3.95zm-25.06-36.28c0-1.32-.67-1.97-2.64-1.32-.66 0-1.32.67-1.32 2l3.3 21.74c0 1.32.66 1.98 1.97 1.98l1.98-1.98-3.3-22.4zm23.06 2.64c-1.3-.66-2.63 0-3.3.67l-3.28 6.6c-2.64 5.3-3.96 9.9-5.94 15.18 0 .66 0 1.98 1.98 1.98l1.97-1.32 5.94-14.5 3.3-5.28-.66-3.3zm15.83 9.23h-2.63l-11.2 11.22c-.68.62-.68 1.94.64 2.6h2.64c4.62-5.93 7.92-9.9 10.55-11.2v-2.65zm-46.15 8.58l-5.27-7.92-4.6-5.93-3.3-.66c-1.3 1.32-1.3 2.63 0 3.3l9.25 12.52c.65 1.32 1.32 1.32 2.63 1.32 1.32-.66 1.32-1.32 1.32-2.63z"/><path fill="#D96038" d="M367.88 140.3V5.17L216.25 4.5c-1.32 5.27-1.98 11.87-1.32 19.12.66 14.5 5.28 26.37 12.53 35.6 8.57 8.57 18.46 14.5 30.32 16.48l15.83.66-3.3 11.2c0 7.92 5.3 13.86 14.54 17.8l-3.96 5.95c-1.98 4.64-1.32 10.57 1.98 17.16 5.27 9.9 21.1 15.17 46.8 15.17l38.24-3.3z"/><path d="M371.18 5.16c0-1.98-1.32-3.3-3.3-3.3L216.25 1.2c-1.98 0-2.64.66-3.3 2.64a71.14 71.14 0 0 0-1.32 21.1c1.32 14.5 5.94 26.37 13.85 36.26 11.87 13.18 25.7 19.78 43.5 18.46l-1.97 7.9.7 5.28c1.97 5.28 5.93 9.9 12.52 13.84-2.63 2.64-3.3 6.6-3.3 10.56 0 4.6.67 8.56 3.3 12.52 5.28 10.55 21.76 17.14 48.14 17.14l39.55-3.3c1.98 0 3.3-1.3 3.3-3.3V5.17zM276.9 74.38a5 5 0 0 0-3.3-1.32l-15.82-.65a45.83 45.83 0 0 1-27.03-15.8c-8.57-9.23-13.18-21.76-13.18-36.92L218.9 7.8l145.7.65v129.88l-44.2 1.98c-19.1-1.3-30.3-5.9-34.27-13.15-3.3-5.28-3.96-9.9-2.64-13.85l3.3-4.6 1.3-3.3-2-2.66c-6.6-3.3-10.54-7.25-11.86-11.2a15.3 15.3 0 0 1 .66-9.24l2-3.96v-3.96z"/><path d="M272.95 57.24l-2.64.66h-9.2c-3.3-1.98-3.96-5.27-1.32-10.55a14.3 14.3 0 0 1 7.25-6.6l9.9-1.3c7.92 1.97 12.53 6.58 13.2 14.5 0 7.25-2 12.52-7.26 17.14l-9.23 3.26c-.65 0-1.3 1.32-1.3 1.98 0 1.98 1.3 2.64 1.97 1.98l10.56-3.96c6.6-5.27 9.23-11.86 8.57-21.1-.67-9.9-5.95-15.82-15.84-17.13l-13.2 1.3c-3.95 2-6.6 4.63-7.9 8.6-2 3.28-2.64 6.58-2 9.87l5.3 5.3c1.97 1.96 3.95 2.62 7.25 1.96l6.6-3.3-.67-2.63zm40.87 25.06c-3.95-6.6-9.9-7.92-17.14-4.62-4.62 1.97-7.25 5.27-6.6 9.9 1.33 5.26 4.62 7.9 9.9 7.24l2.64-1.98-2.64-1.98c-3.3 0-5.28-.66-5.94-3.3 0-3.3 1.32-5.27 4.62-6.6 4.6-1.96 8.57-1.3 11.86 3.3a11.5 11.5 0 0 1 2.64 7.92c0 2.64-.65 5.27-3.3 7.25-3.3 4.62-9.23 5.94-15.82 5.94l-8.57-1.32c-1.32-1.32-1.98-.66-2.63 1.32 0 .65 0 1.97 1.3 1.97l10.56 1.98c7.92.66 13.85-1.97 18.46-7.25a14.53 14.53 0 0 0 3.96-9.9c0-3.94-.66-6.58-3.3-9.88z"/><path d="M305.25 43.4a51.17 51.17 0 0 1-33.62-15.17l-10.55-13.85c-.66-1.3-1.32-1.3-2.64-1.3-1.32 1.3-1.32 1.97-1.32 3.3 1.32 3.28 5.28 8.56 11.87 15.15 9.86 9.22 21.72 14.5 36.23 15.16 13.85 1.3 27.04-2 39.56-8.6l15.82-11.86c1.32-1.32 1.32-2 0-3.3H358l-15.17 11.2c-11.86 7.26-24.4 10.55-37.58 9.23zm-1.32 87.7l-10.55 5.25c-.65.67-1.3 2 0 2.64l2.64.63 9.9-4.6c7.24-3.3 15.16-4.63 22.4-4.63 7.26 0 14.5 2 22.42 6.6l9.23 5.93c1.32.67 2.64.67 3.3 0 1.32-1.3.66-2.63-.66-2.63l-9.86-6.58c-7.9-4.62-16.48-6.6-23.73-7.26-8.6-.65-16.5 1.33-25.06 4.63z"/><path d="M299.98 62.52l-7.9-2.64c-1.33-.66-2-.66-2.65.65-.66 1.33 0 2 .66 2.64l9.86 3.3a19.64 19.64 0 0 0 16.48-3.95c4.62-3.3 7.25-6.6 8.57-11.2.67-3.3 0-5.3-1.3-7.93 0-1.34-.66-2-1.98-1.34-1.32.66-1.97 1.3-1.32 2.63 2.66 5.3 0 9.9-5.9 14.5-3.97 3.3-8.58 3.96-14.5 3.3z"/><path d="M344.8 36.14c-.65-1.32-1.97-1.32-2.62-1.32-2 0-2 1.32-2 2.64l2 9.23c.65 6.56-2 11.2-5.94 14.5-3.3 2.6-7.9 3.3-13.84 1.95l-7.26-2.64-2.63.67c-.64 1.3-.64 1.97.68 2.63l8.57 3.3c6.6 1.33 11.87.67 17.15-2.63 4.6-3.97 7.24-9.9 7.24-17.15l-1.32-11.2zm-9.22 50.1c-3.3-3.3-8.57-3.94-13.85-1.97l-7.9 1.98c-.67.66-1.32 1.32-.67 2.64 0 1.3 1.32 1.94 2.64.62l6.6-1.97c3.95-.66 7.9 0 10.54 1.98 3.3 2.64 3.3 5.27 1.98 9.23-1.98 5.27-5.93 7.25-11.2 6.6-1.32 0-2 .65-2 1.97s0 1.97 1.33 1.97c7.25 1.33 12.53-1.96 15.83-8.56 1.98-5.93.66-11.2-3.3-14.5z"/><path d="M334.92 100.75c-1.98.67-1.98 1.32-1.32 1.98l5.94 7.9 19.77.68.7-.64c2.63-3.3 3.3-6.6 3.3-9.9 0-5.26-2-9.88-6.6-13.17-3.96-3.3-7.9-4.63-12.53-3.3a21.2 21.2 0 0 0-8.57 5.26c-1.33 1.32-.67 2 0 2.64.65 1.97 1.3 1.97 2.63 0l5.27-3.3c3.95-1.3 7.9-1.3 10.54 1.97 3.95 2.64 5.27 5.93 5.27 9.9 0 3.3-.62 5.27-2.6 6.6h-14.5c-3.3-2.65-5.28-4.63-5.28-5.94-.65-.67-1.3-1.33-1.97-.67z"/><path fill="#D96038" d="M164.17 18.34l-3.3-13.85H3.3l1.97 153.6h17.8c13.85-1.3 24.4-4.6 31-9.9 7.24-4.6 10.54-11.2 10.54-17.14l-2.6-7.9c12.53 3.95 23.08 2 32.97-4.6 6.6-4.63 9.23-9.9 9.23-16.5l-2.65-9.23 5.93-5.27c3.3-4.62 5.28-9.9 5.28-15.16l16.48-2.62c13.18-3.96 21.76-10.55 27.7-20.44 5.26-9.9 8.56-20.43 7.25-31z"/><path d="M164.17 3.18c0-1.32-1.32-1.98-3.3-1.98H3.3c-1.32 0-1.32.66-2.64.66L0 4.5l1.98 153.6c0 2 1.32 3.3 3.3 3.3 22.4 2 39.55-1.3 50.76-9.88 7.9-5.94 11.2-12.53 11.2-19.78v-4.62c11.22 1.98 21.1 0 29.68-6.6 7.25-4.6 10.54-11.2 10.54-18.45l-1.32-7.9c5.28-5.28 7.92-11.22 8.58-18.47 7.9 0 14.5-1.32 21.1-4.62 11.2-4.6 18.46-11.2 24.4-20.44 4.6-9.22 7.24-19.1 7.24-29l-1.98-13.2-1.3-5.26zm-5.28 4.6l1.95 13.86c0 9.22-1.98 17.8-6.6 26.37-5.27 8.6-13.84 14.54-25.05 18.5l-16.47 2.63c-1.32 0-1.98 0-2.64.67l-.68 2.63c0 7.26-3.3 13.2-9.22 17.8-1.97 1.33-1.97 2.64-1.3 3.96l1.96 7.9c0 5.3-2.63 9.9-7.9 13.2-8.58 6.6-18.47 8.55-29.68 4.6-2-.67-2.64 0-3.96 1.32-1.32.65-1.32 2.63-.66 3.95 4.6 6.6 2.63 13.84-6.6 20.43-9.22 7.26-23.73 10.56-43.5 9.25L7.24 7.8H158.9z"/><path d="M93.62 51.3c-1.32 5.28 0 9.9 1.98 13.2 3.95 5.27 9.23 8.56 16.48 9.88l2.64-1.97c0-1.3 0-1.3-1.98-1.3-6.6-2-11.2-4.6-13.85-8.56-1.35-2.64-2-5.94-1.35-9.9.67-4.6 3.3-7.24 6.6-8.57 3.96-1.3 7.25-1.3 10.55 1.33 2 1.3 3.3 3.94 2 7.24-.68 1.97-2 3.3-3.97 3.3s-1.98.65-1.98 1.97l1.98 2c4.6-.66 6.6-2.64 7.9-6.6.67-4.6 0-8.56-3.94-11.2-3.98-2.64-9.26-3.96-13.87-2-5.28 2-7.9 5.95-9.23 11.2zm9.23 42.86l.66-1.98c-2.6-4.6-6.56-7.9-10.52-9.23-5.93-2.64-11.87-1.98-17.8 1.32-3.96 3.3-6.6 7.26-5.93 11.87 0 5.93 2.63 9.23 6.6 11.87l11.2-.63c2.63-2.64 3.3-5.28 2.63-8.57-.66-1.33-1.3-1.33-2.63-1.33-1.32.66-1.98 1.32-1.32 2.63.66 1.97.66 2.63-1.3 3.95h-6.6c-3.3-1.32-4.62-3.96-4.62-7.9s1.33-6.6 4.6-8.58c5.3-3.3 10.58-3.3 15.85 0l6.6 6.6h2.63zm-39.55 27.7c-6.6-5.3-11.88-7.26-17.15-6.6a12.73 12.73 0 0 0-5.94 3.3c-1.94 3.3-1.94 5.93-1.94 8.56.66 3.3 2.64 6.6 5.93 7.92h2.63c.67-1.32.67-2.64-.65-3.3a10.24 10.24 0 0 1-3.95-5.28c-.67-1.3.65-2.63 1.3-5.27l3.3-2c4.62-.67 8.58 1.3 13.86 5.93l2.62-.66c1.3-1.33.66-2.65 0-2.65z"/><path d="M79.77 55.27c7.92 1.3 13.85.65 17.15-2.64 1.32-1.32 1.32-1.32.65-2.64l-3.3-.7c-2.63 2.65-7.24 3.3-13.83 2-4.62-1.3-8.57-2.64-11.87-5.28-2.64-2.64-3.96-4.6-3.96-7.9l3.3-3.3c4-3.3 10.58-3.97 18.5-2.64 7.9 1.3 13.17 4.6 17.13 10.53 0 1.3 1.33 1.98 2.65.66 1.3-.66 1.3-1.32 0-2.65-3.3-6.6-9.9-11.2-19.12-12.5-8.57-1.98-15.83-.66-21.76 3.3-2 1.32-3.96 3.96-3.96 6.6-.66 3.3.66 6.6 3.95 10.54 3.94 3.3 9.2 5.93 14.5 6.6z"/><path d="M45.5 32.85c-13.86 3.3-23.74 8.57-30.34 18.46-1.32 1.35-1.32 1.35 0 2.66l3.3-.66c5.94-8.6 15.82-13.86 28.34-16.5l17.8-.66 2.65-1.32c0-1.97-.66-1.97-1.98-1.97H45.5zm3.95 39.55c3.95-2.64 9.23-3.3 17.14-1.32 8.54 1.33 14.5 5.94 16.45 13.2.66 1.3 1.32 1.3 1.98 1.3L87 82.95l-3.95-7.25c-3.3-4.6-8.57-7.9-15.82-8.57C58 65.8 51.4 65.8 47.46 69.77c-2.64 1.98-4.6 4.6-4.6 7.9 0 3.97 1.96 7.92 5.92 11.22 3.94 3.26 7.9 5.24 12.5 5.24l10.57 1.32 1.3-1.32c.67-1.32 0-1.98-1.97-2.63l-9.22-.66-10.56-4.6c-3.3-2.65-5.27-5.3-4.6-8.58 0-1.98 1.3-3.3 2.63-5.28z"/><path d="M27.7 66.47L15.15 67.8l-1.98 1.97c0 1.32 1.32 1.98 2.64 1.32h10.57c7.9 0 13.2 2.6 16.48 7.9h3.3c.66 0 1.32-1.34 0-2.66-3.3-5.28-9.9-8.57-18.46-9.9zm19.77 15.17c-1.98 0-2.64.66-2.64 1.3-1.32 4.63-3.95 7.92-8.57 9.9-5.27 3.3-12.53 3.3-20.44.66-1.32-.66-2.64 0-2.64 1.32s0 2.64 1.32 2.64l23.74-1.32c5.27-2.64 8.57-6.6 9.9-11.87.65-1.32 0-1.98-.67-2.63z"/><path fill="#D96038" d="M236.7 392.16c0-3.95-2-7.9-4.63-11.2a17.24 17.24 0 0 0-11.2-4.62c-3.96 0-7.92 1.98-11.22 4.6-3.3 2.65-4.6 7.27-4.6 11.22 0 4.6 1.3 7.9 4.6 11.2 3.3 3.3 7.26 4.63 11.2 4.63 3.97 0 8.58-1.36 11.22-4.66 2.64-3.3 4.62-6.6 4.62-11.2z"/><path d="M234.05 378.98c-3.3-3.96-7.9-5.28-13.2-5.28-4.6 0-9.88 1.32-13.17 5.28-3.96 3.3-5.94 7.9-5.94 13.18 0 5.27 1.98 9.9 5.94 13.2 3.3 3.94 8.56 5.93 13.18 5.93 5.27 0 9.9-2 13.2-5.97a18.4 18.4 0 0 0 5.26-13.2c0-5.27-1.97-9.88-5.27-13.17zm-13.2 0a13 13 0 0 1 9.25 3.95c2.63 2.64 3.95 5.28 3.95 9.23a13 13 0 0 1-3.96 9.23c-2.66 3.3-5.96 3.93-9.26 3.93s-6.6-.66-9.9-3.96a13 13 0 0 1-3.94-9.24c0-3.95 1.3-6.6 3.96-9.23 3.3-2.63 6.6-3.94 9.9-3.94z"/><path d="M205.04 386.23c-1.32 0-1.32.65-1.32 1.98s0 2 1.32 2c9.9 0 17.8 5.28 24.4 15.17l2.63 1.3.66-3.3-7.9-8.55c-5.94-5.93-12.54-7.9-19.8-8.56z"/><path d="M230.75 378.32c0-1.33-1.32-1.33-2.64-1.33-3.26 1.95-5.24 5.25-7.22 10.53l-.65 7.25 2.64 1.96 1.32-1.97.65-5.94c1.32-3.96 2.64-7.25 5.28-8.58l.65-1.98z"/><path fill="#D96038" d="M224.16 181.84c2.64-3.95 3.3-7.9 2.64-11.86-.66-4.62-2.64-7.9-6.6-9.9-3.3-2.62-7.25-3.3-11.87-3.3-4.6 1.33-7.9 3.3-9.9 6.6-2.62 3.3-3.28 7.26-3.28 11.87 1.32 4.62 3.3 7.92 6.6 10.55 3.95 1.98 7.9 3.3 12.52 2.64 3.95-1.3 7.25-2.64 9.9-6.6z"/><path d="M221.52 157.46c-3.95-2.64-8.57-3.96-13.2-2.64-5.26 0-9.2 3.3-12.5 7.25-2.65 4.6-3.97 8.57-2.65 13.84.66 4.65 3.3 8.6 7.26 11.9 4.6 2.64 9.22 4.6 13.84 3.3 5.27-1.32 9.23-3.3 11.87-7.92 3.3-3.95 4.6-8.56 3.3-13.18-.66-5.28-3.3-9.24-7.92-12.53zM209 160.1l9.9 1.3c2.62 2.65 4.6 5.28 5.26 9.24v2.64c0 2.63-.66 4.6-2.64 7.25-1.3 2.63-4.6 4.6-7.9 5.27-3.97.66-7.26 0-9.9-2.64-3.3-1.97-5.28-4.6-5.28-8.56-1.3-3.3 0-6.6 2-9.9 2.62-2.63 4.6-4.6 8.56-4.6z"/><path fill="#D96038" d="M224.82 497c-3.3 3.3-4.6 6.6-4.6 11.2 0 3.95 1.3 8.57 4.6 11.2 3.3 2.64 6.6 4.62 11.2 4.62s7.92-1.98 11.2-4.62c3.3-2.63 5.3-7.25 5.3-11.2 0-4.6-2-7.9-5.3-11.2-3.28-3.3-6.58-5.3-11.2-5.3s-8.56 2-11.2 5.3z"/><path d="M236.03 526.66c5.27 0 9.9-1.98 13.84-5.28 3.3-3.95 4.6-7.9 4.6-13.2 0-5.26-1.3-9.88-4.6-13.17-3.96-3.93-8.57-5.9-13.85-5.9-5.27 0-9.22 1.97-13.18 5.93a18.4 18.4 0 0 0-5.27 13.2c0 5.27 1.97 9.23 5.27 13.18 3.96 3.3 7.9 5.3 13.2 5.3zm9.88-9.23a13.4 13.4 0 0 1-9.86 3.95 13 13 0 0 1-9.22-3.95 13.02 13.02 0 0 1-3.95-9.23c0-3.96 1.32-7.25 3.96-9.9a13 13 0 0 1 9.23-3.95c3.96 0 7.26 1.32 9.9 3.96 1.97 2.67 3.95 5.96 3.95 9.9 0 3.3-1.97 6.6-3.95 9.25z"/><path d="M253.83 503.58l-2.64-1.98a33.4 33.4 0 0 0-19.15 8.58l-7.9 8.56a6 6 0 0 0 .65 3.3l2.65-.66a68.8 68.8 0 0 1 6.6-7.9c5.92-4.63 11.85-7.26 17.13-7.92l2.63-1.98z"/><path d="M228.1 493.03c-.64-.66-1.3-.66-1.96.67-.66.65 0 1.97.66 2.63 3.95 1.98 5.93 7.26 5.93 14.5 0 1.32.66 1.98 1.98 1.98l2-1.95c.67-9.23-2.63-15.16-8.6-17.8z"/><path fill="#D96038" d="M45.5 515.44c-1.33 4.63-1.33 8.58.65 11.88a15.56 15.56 0 0 0 9.23 7.9l12.53-.65c4-2.64 6.6-5.28 7.94-9.9 1.32-3.95 1.32-7.9-1.32-11.86-1.97-3.93-4.6-5.9-9.22-7.9l-11.87 1.34c-3.94 1.97-6.6 4.6-7.9 9.22z"/><path d="M78.46 526c1.3-5.28 1.3-9.9-1.32-14.5a16.36 16.36 0 0 0-10.55-9.24l-14.5 1.33c-4.65 1.94-7.3 5.9-9.27 10.5l-1.32 5.95c0 3.3 1.33 5.93 2.65 8.56 1.98 4.63 5.93 7.27 10.55 9.24l13.86-.65c5.27-2.64 7.9-6.6 9.9-11.2zm-6.6-11.87c1.98 3.3 2.64 6.6 1.32 9.9-1.32 3.3-3.3 6.58-6.6 7.9l-9.9 1.32a15.42 15.42 0 0 1-7.9-6.6c-1.3-3.3-1.97-6.58-.65-10.54.66-3.3 3.3-5.9 6.6-7.9l9.88-.64c3.3.65 5.97 3.3 7.3 6.6z"/><path d="M74.5 508.85c-.66-1.3-1.98-1.3-2.63-1.3-6.6 3.28-10.56 9.22-13.85 16.47l-3.3 11.2c0 2 .66 2 2.64 2.64l1.32-1.97 2.63-9.26c2.67-7.26 6.6-12.53 11.9-15.17l1.3-2.65z"/><path d="M46.8 510.18c-1.3 0-1.97.65-1.97 1.97 0 1.33.66 1.98 1.98 1.98 4.64 0 8.6 3.3 11.9 9.9 0 1.3 1.3 1.3 2.63 1.3l.68-2.63c-3.95-8.57-8.57-12.52-15.16-12.52z"/><path fill="#D96038" d="M81.1 477.87c1.97 3.95 5.27 5.94 9.88 7.25 3.96.66 7.9 0 11.87-1.98 3.3-2.63 5.93-5.93 6.6-10.55 1.3-3.98 0-7.94-2-11.9-2.62-3.3-5.92-5.93-9.88-6.6-3.95-1.3-7.9 0-11.86 2-3.93 2-5.9 5.3-7.22 9.9-.66 4.6 0 7.9 2.63 11.86z"/><path d="M84.4 454.14c-3.97 1.97-6.6 5.93-8.58 11.86l-.66 3.3c0 3.95 1.3 7.25 3.3 9.88 3.3 4.63 6.6 7.92 11.86 8.58 4.62.66 9.9 0 13.85-2.64 3.96-2.64 7.25-6.6 7.9-11.2 1.33-5.28.67-9.9-2.63-14.52-1.98-3.95-5.93-6.6-11.2-7.9-4.62-1.32-9.9-.66-13.85 2.64zm2.63 3.95c3.3-2 6.6-2 9.9-2 3.94 1.3 6.58 3.3 7.9 6.6 2.63 2.62 3.3 6.6 2.63 9.9-1.32 3.3-3.3 6.56-5.93 7.9-3.3 2.62-6.6 3.3-9.9 1.96-3.95-.65-6.58-2.63-8.56-5.93-1.98-2.63-2.64-5.93-1.98-9.9.64-3.95 2.6-6.58 5.9-8.56z"/><path d="M94.28 451.5c-1.98 0-2.64 0-2.64 1.3a29.96 29.96 0 0 0 3.96 21.12c1.97 3.95 4.6 6.6 7.25 9.88.66.66 1.32.66 1.98 0 1.3-1.32 1.3-1.98 0-3.3l-5.28-7.9c-3.95-6.6-5.27-13.2-3.95-18.46 0-1.33-.66-2.64-1.32-2.64z"/><path d="M89.66 469.3c-5.27 0-9.22 1.32-11.86 4.62v2.63l3.3-.66c1.3-2 4.6-3.3 9.22-3.3l5.93 1.3c1.32 0 2 0 2-1.33l-1.33-3.3h-7.26z"/><path fill="#D96038" d="M226.14 529.3c-2.64 3.3-4.62 7.25-4.62 11.2 0 4.6 1.98 8.57 4.62 11.87 3.3 2.63 7.25 4.6 11.2 4.6 4.62 0 8.57-1.97 11.87-4.6 2.67-3.3 4.65-7.26 4.65-11.87 0-3.95-1.98-7.9-4.62-11.2-3.3-2.64-7.24-4.62-11.86-4.62-3.95 0-7.9 1.98-11.2 4.6z"/><path d="M250.53 527.32a18.4 18.4 0 0 0-13.2-5.28c-4.6 0-9.22 1.98-13.17 5.28-3.3 3.95-5.27 8.56-5.27 13.18 0 5.28 1.94 9.9 5.24 13.2 3.95 3.94 8.57 5.26 13.18 5.26 5.28 0 9.9-1.32 13.2-5.27 3.94-3.3 5.93-7.94 5.93-13.2 0-4.6-2-9.25-5.94-13.2zm-26.37 13.18c0-3.3 1.32-6.6 3.95-9.23a13 13 0 0 1 9.26-3.95c3.96 0 6.6 1.3 9.9 3.95 2.63 2.64 3.3 5.94 3.3 9.23 0 3.96-.67 7.25-3.3 9.9a16.2 16.2 0 0 1-9.9 3.3c-3.3 0-6.6-1.33-9.23-3.3a13.44 13.44 0 0 1-3.94-9.9z"/><path fill="#D96038" d="M21.75 539.18c-4.6 1.98-6.6 5.28-8.56 9.9-1.35 3.95-.7 7.9 1.3 11.86a15.6 15.6 0 0 0 9.2 7.9l12.54-.65c3.3-2.67 6.6-5.3 7.9-9.26.67-4.62.67-8.57-1.3-12.52-1.98-3.96-5.28-6.6-9.9-7.92l-11.2.67z"/><path d="M34.28 535.9l-14.5 1.3c-3.95 1.98-7.25 5.94-9.23 10.55a18.6 18.6 0 0 0 1.98 14.5c1.98 4.62 5.93 7.26 10.54 9.24l14.5-1.35c3.96-1.98 7.26-5.93 8.58-11.2 1.98-4.62 1.32-9.23-1.32-13.86-1.98-4.6-5.27-7.9-10.55-9.2zm-11.86 5.92l10.54-.66a15.4 15.4 0 0 1 7.92 6.6c1.32 2.63 1.32 5.93.65 9.88a15.4 15.4 0 0 1-6.6 7.9l-10.54.68c-3.98-.67-5.96-3.3-7.94-5.94-1.32-3.3-1.32-6.6-.66-10.55 1.33-3.96 3.97-5.93 6.6-7.9z"/><path fill="#D96038" d="M330.3 446.22a17.93 17.93 0 0 0-3.95 11.2c0 4.62 1.32 8.58 3.95 11.87 3.3 3.3 7.26 4.6 11.87 4.6 3.96 0 7.9-1.33 10.55-4.63 3.3-3.3 5.27-7.26 5.27-11.87 0-3.95-2-7.9-5.3-11.2-2.64-2.64-6.6-4.6-10.54-4.6-4.62 0-8.58 1.97-11.88 4.6z"/><path d="M329 444.25c-3.97 3.95-5.95 8.56-5.95 13.18 0 5.27 1.98 9.9 5.94 13.2 3.3 3.94 7.9 5.92 13.15 5.92 4.6 0 9.23-1.98 13.2-5.93 3.3-3.3 4.6-7.92 4.6-13.2 0-4.6-1.3-9.22-4.6-13.17a20.18 20.18 0 0 0-13.2-4.62c-5.27 0-9.88 1.32-13.18 4.62zm3.94 23.07c-3.3-2.64-3.95-5.93-3.95-9.9 0-3.28.63-6.58 3.92-9.22 2.64-1.98 5.28-3.95 9.23-3.95 3.3 0 6.6 1.97 9.23 3.95 1.97 2.64 3.95 5.94 3.95 9.23 0 3.96-1.98 7.25-3.96 9.9a13 13 0 0 1-9.24 3.95c-3.95 0-7.25-1.32-9.23-3.96z"/><path fill="#D96038" d="M249.2 168c2-3.3 3.3-7.25 2.65-11.2-1.32-4.62-2.64-8.58-6.6-11.22-3.95-1.97-7.9-3.3-11.86-1.97-4 .7-7.94 2.66-9.9 6.6-2.66 3.3-3.98 7.28-2.66 11.2 0 4.64 2.64 8.6 5.94 10.57 3.94 2.64 7.24 3.96 11.85 2.64 4.62-.65 7.92-2.63 10.55-6.6z"/><path d="M233.4 140.3c-5.3 1.33-9.24 3.3-12.54 7.92-3.3 3.96-3.95 8.57-3.3 13.85a16.3 16.3 0 0 0 7.92 11.87c4.62 3.3 8.57 4.6 13.84 3.3 4.62-.67 8.57-3.3 11.87-7.26 2.6-3.3 3.3-6.6 3.3-11.2v-3.3c-.7-5.28-4-8.57-7.28-11.87-4.62-2.6-9.24-3.3-13.85-3.3zm-10.56 21.1c0-3.94.66-7.24 1.98-9.88 2.64-3.3 5.28-4.62 9.23-5.94 3.3-.65 6.6 0 9.9 2.64 3.3 1.98 4.6 5.28 5.26 8.57.7 3.3 0 6.6-1.95 9.86-2.64 3.3-5.27 4.62-9.23 5.93l-9.9-2.63c-2.6-2.63-4.6-5.27-5.25-8.57z"/><path d="M227.46 144.93l-3.3.65c-.66 1.32-.66 2 .66 2.64 4.6 3.96 7.9 9.24 9.23 16.5l1.32 9.88c0 1.97.65 1.97 1.97 1.97l1.98-1.97-1.32-11.2c-1.3-7.93-5.27-13.86-10.54-18.47z"/><path d="M239.32 155.47l-5.27 5.94c-.66.7-.66 2 .65 2h2.65l3.95-4.6c3.3-3.3 5.93-3.96 9.23-3.96l2.64-1.32-1.98-2.63c-4-.67-7.94.65-11.9 4.6zm-202.4 194.5c-1.32-.66-1.98 0-2.64 1.3 0 .68 0 2 .66 2.65l13.2 4.62c1.3 1.3 2.63.66 3.28-.66 0-1.32 0-2.64-1.97-2.64l-12.53-5.28zm28.35 23.73c-.66-1.32-1.98-1.32-3.3.66l-6.6 11.2c-.65 1.32-.65 2.65.67 2.65h2.64l7.25-12.5-.66-2zm6.6 29.66c-1.33 0-2 1.33-2 2l-1.97 16.47c0 1.3.67 1.98 1.98 1.98l1.98-1.95L73.84 406l-1.98-2.64zm-19.13 9.9c0-1.98-1.32-1.98-1.97-1.98-1.32 0-2.64.66-2.64 1.97l1.32 14.52c0 .65.65 1.97 1.97 1.97l1.98-2.64-.66-13.85zm-7.9 4.62c0-2 0-2.64-2-2l-11.2.67c-1.3.66-1.97 1.33-1.97 2.64 0 .63 1.32 1.95 1.98 1.95l11.86-1.32 1.35-1.97zm0 21.75c0-1.98-1.33-1.98-2-1.98-1.96 0-1.96.66-1.96 1.98l1.32 11.2 2.63 1.98 1.32-1.94-1.32-11.2zM61.3 456.1c-.64-1.3-1.3-1.96-2.62-1.3l-14.5 5.27c-1.33.66-1.33 1.32-1.33 2.63.66 1.33 1.98 1.33 2.64 1.33L60 458.1l1.3-2z"/><path stroke-miterlimit="100" d="M367 582H5V5h362v577z" fill="none" stroke="#000" stroke-width="10"/></svg>