<svg xmlns="http://www.w3.org/2000/svg" width="372" height="587" viewBox="0 0 372 587"><path fill="#fff" d="M0 0h372v587H0z"/><path fill="none" stroke="#000" stroke-width="3" stroke-miterlimit="100" d="M370.6 585.26H3.9V2.74h366.7v582.52z"/><path fill="#D96038" d="M258.38 339.53l-14.72-14.72-3.35 20.1c-.64 12.7 4.7 17.4 14.75 14.7 9.38-3.32 10.72-10 3.35-20.05z"/><path d="M241.65 324.15l-3.35 16.06c-1.34 9.4 0 16.08 3.35 19.4 3.35 3.38 8.03 4.05 14.06 2.04 6.05-1.34 9.4-4.68 10.07-9.37.66-5.35-2.02-11.37-8.7-18.74L245.7 323.5l-2.7-.67-1.34 1.35zm18.74 26.1v.67c-.7 2.67-3.38 4-6.7 6.02l-8.05-.68c-2-2-2.68-5.34-2.68-9.36 0-4.7.66-10.04 2.67-16.73 10.04 8.03 14.72 14.72 14.72 20.07z"/><path d="M233.62 292.7c-1.33 0-2 1.33-1.33 3.33l9.33 30.12c.68 1.34 1.34 2 3.35 1.34 1.33 0 2-1.37 1.33-3.37L236.95 294c-.67-1.33-1.34-2.67-3.35-1.33z"/><path fill="#D96038" d="M151.98 53.78l20.08 2a58.37 58.37 0 0 0-9.38-18.06c-7.35-10.04-14.05-10.7-19.4-2-6.7 8.03-3.35 14.72 8.7 18.06z"/><path d="M152.65 27.02c-4.02 0-8.03 2-12.05 6.7-4.02 5.34-4.02 10.03-2 14.04 3.34 6.7 14.7 10.04 33.46 10.7l2.67-1.33v-2.68c-6.02-17.4-13.38-26.77-22.08-27.43zM142.6 43.08c0-1.35.68-3.35 2.7-6.03 2-3.34 4.67-4.68 6.68-4.68 4.68.67 10.04 7.36 16.06 20.08-14.05 0-22.75-2.68-24.76-7.37l-.67-2z"/><path d="M170.04 53.78c-1.33 2-1.33 3.35.68 4.02l26.1 18.07c2 1.34 2.67 1.34 3.34-.68 1.34-1.36 1.34-2.7 0-4.04l-26.77-17.4c-1.36-1.34-2.7-1.34-3.38 0z"/><path fill="#D96038" d="M50.93 323.48c10.7-.68 13.38-6.7 8.03-18.07L48.26 288l-8.04 18.75c-2.68 12.7.67 18.06 10.7 16.73z"/><path d="M48.25 286l-2 .67c-8.7 17.4-11.38 29.44-7.37 34.8 2 4 6.03 5.35 12.05 5.35 6.7-.67 10.7-3.34 12.7-7.36 1.35-4.68.68-11.37-4-19.4l-9.37-13.4c0-.66-.67-.66-2-.66zm10.04 31.46c-.7 2-3.37 3.34-7.4 3.34-4 .67-6.7 0-8.03-2l-.67-4.7c0-4.68 2-11.37 6.03-20.74 7.36 9.37 10.7 16.73 10.7 21.42l-.66 2.68z"/><path d="M45.57 253.88c-1.34 0-2 1.34-2 2.68l2 32.1c.67 2.03 1.34 2.7 2.68 2.03l2-.7.68-2-2.68-31.46c0-2-.67-2.68-2.68-2.68z"/><path fill="#858585" d="M368.8 114.68l2-40.82c-52.2 40.82-95.7 70.94-129.15 89.68a350.27 350.27 0 0 0-63.57 45.5l-26.1 23.42c-24.76-28.77-56.88-56.88-95.7-85-19.4-14.04-36.8-25.42-51.52-33.45v23.46C30.86 156.2 60.3 184.3 93.1 221.1c16.7 18.73 30.75 35.46 42.13 50.85-5.36 24.77-8.7 63.58-7.37 115.1-25.42-16.72-53.53-30.78-85.65-40.82L2.1 336.18v18.08l46.17 23.42c34.8 18.73 60.23 38.8 76.3 57.55 16.72 19.4 32.1 50.2 46.84 93.7 6.66 22.08 12 41.48 16.03 58.88H320.6c-10.03-10.7-22.1-30.1-38.13-57.52-16.73-29.45-30.12-50.2-39.5-61.57-19.4-23.42-32.1-45.5-38.8-64.9l-4.02-22.76c-1.33-8.04-1.33-23.42 0-44.85l2-30.1c2.68-8.04 7.37-16.75 13.4-28.1a360.9 360.9 0 0 1 30.1-43.5c16.74-21.43 57.56-61.6 123.14-119.8z"/><path d="M370.8 117.36l1.35-2.68 2-40.82-1.33-2.68h-4.02c-52.86 41.5-95.7 70.93-129.16 89.68-18.07 10.7-37.47 23.42-56.2 39.48l-31.46 27.44c-24.1-28.1-55.55-55.55-94.36-83.65L6.1 110.67H2.73c-.67.66-1.33 2-1.33 3.34v23.46l1.34 3.34c24.76 16.72 51.53 42.82 83 76.95 19.4 21.4 34.1 39.5 46.16 55.54-5.35 22.73-7.36 58.2-7.36 106.4v1.33a337.3 337.3 0 0 0-82.98-38.82l-39.48-9.35-2.68.67-.67 2.7v18.06l2 2.67 46.85 24.1c33.46 18.72 58.9 37.47 74.3 56.88 16.72 18.72 31.43 48.84 45.5 91.67a588.9 588.9 0 0 1 16.72 58.9c.67 2 1.34 2.66 3.35 2.66h133.17l2.68-2 .66-1.35-.66-2c-10.04-11.36-23.43-31.44-40.16-60.2-14.72-27.44-27.43-46.85-36.8-58.9-17.4-21.4-30.12-40.8-36.8-58.88-4.02-10.04-6.7-19.4-6.7-25.44l2.68-75.6c2.67-6.7 6.7-16.08 12.7-26.1 8.04-14.75 18.08-30.13 30.12-44.2 16.07-20.74 57.56-60.22 122.47-119.1zm-4-36.14l-.67 32.13-56.9 51.52c-34.12 32.13-56.2 54.88-66.24 67.6-11.4 14.04-20.77 28.1-30.14 42.82-6.7 12.02-11.38 22.06-14.05 29.42v1.33l-2 76.96c0 6.7 2.02 16.74 6.03 27.45 7.36 18.07 20.07 38.8 37.47 60.9 9.4 10.7 22.1 30.12 36.83 57.55 15.4 25.44 27.44 44.84 36.14 55.55H190.12c-17.4-72.27-38.14-123.13-62.9-151.24-15.4-18.7-38.8-36.8-69.6-54.85a641.1 641.1 0 0 0-52.2-26.77V340.2a266.6 266.6 0 0 1 46.18 12.7c28.1 9.4 52.2 21.44 73.6 36.82h4.03l2-2.67v-6.02c0-50.2 2-85.66 7.37-107.75v-1.34l-.68-2-42.15-50.2c-32.8-37.47-62.24-65.58-87.67-83.65v-16.76a1180.74 1180.74 0 0 1 59.56 40.16c32.8 25.43 60.22 50.2 81.64 74.96l2.68 1.33 2-1.35 26.1-23.42c21.42-18.07 42.84-32.13 62.9-44.17C275.1 148.8 316.6 120.7 366.8 81.2z"/><path d="M251.7 552.35c-18.75 8.7-37.48 15.4-56.22 18.73-.67.67-1.34 1.34-.67 2.67l2 1.35a263.85 263.85 0 0 0 56.25-18.74l23.42-12.04v-3.35h-2.68l-22.1 11.38zm-13.4 30.1c-1.33 0-2 1.34-1.33 2.7 0 .66 1.34 1.32 2.68.66 19.4-6.7 36.14-14.02 50.2-23.4 2-.66 2-1.34.65-2.7-.66-.64-1.33-.64-2-.64a346.95 346.95 0 0 1-50.2 23.42zm-48.18-30.1c36.8-13.4 61.57-22.76 73.62-29.45 1.33 0 2-1.34 1.33-2.68l-2.67-.67c-12.72 6.03-36.8 16.07-73.6 29.45-.68 0-1.35 1.33-.68 2 0 1.35.67 2 2 1.35zm62.24-52.87c-11.38 5.35-26.77 10.03-46.18 16.06l-26.1 7.36c-1.33 0-2 1.34-1.33 2.68l2.67 1.33c30.12-8 54.2-16.03 72.28-24.06l1.34-2c0-1.34-1.34-2-2.68-1.34zm-16.06-21.42c-10.04 4.02-23.42 8.03-41.5 12.04l-23.4 4.7c-2.02 0-2.7 0-2.02 2 0 1.34.67 1.34 2 1.34l24.77-4.02c17.4-4.02 31.45-8.03 42.16-12.7 1.36 0 1.36-1.35 1.36-2.7-.66-.66-2-1.33-3.34-.66zm-11.38-22.08c-17.4 6.02-38.14 10.7-61.57 13.38-1.33 0-1.33.67-1.33 2.02l2 2c24.1-3.35 44.84-7.36 62.24-13.4 1.34 0 2-1.32 1.34-2.66-.67-1.34-1.34-2-2.68-1.34zm-78.3-13.38c-1.33 0-1.33.66-1.33 2 0 1.34 0 2 1.3 2l66.26-4.67.66-.67.68-1.35c-.67-1.3-1.33-2-2-1.3l-65.6 4zm-5.35-22.76l52.2-2 1.34-2-2-1.35-51.5 1.3c-1.35 0-2 .67-2 2.02-.68 1.33 0 2 2 2zm-2-28.77c-.67.66.66 2 2 2l50.86 2 2-2-2-2-50.86-1.35c-1.34-.66-2 0-2 1.35zm47.5-26.1l-46.84-4.7c-1.33 0-2 0-2 1.35-.67 2 0 2 1.33 2L186.1 369l2.02-2c.67-1.35 0-2-1.35-2zm-50.85-32.13c-.67.67 0 2 1.34 2l17.4 3.36 32.12 2.68 2-1.35-2-2.67-32.13-2.67-16.05-2.7c-2.02-.68-2.68 0-2.68 1.32zm52.2-18.74l-44.84-8.03c-1.34 0-2 0-2 1.35-.68 1.33 0 2.67.66 2.67l46.18 8 2-1.34c0-2 0-2.67-2-2.67zm-42.16-38.14c-.67.67 0 1.34.66 2l15.4 7.37c10.7 4.68 20.74 8.03 29.44 8.7l2-1.34c0-1.37 0-2-2-2.7-8.03-.68-17.4-4-28.1-8.7l-14.73-6.7c-.67-.66-2 0-2.67 1.34zm12.7-26.76l46.86 27.43c1.33 0 2.67 0 2.67-.67.64-2 0-2.68-1.37-2.68a302.24 302.24 0 0 1-29.44-16.73l-15.4-10.7h-3.34c-.67.67-.67 2 0 3.34zm57.56 7.36l-36.14-30.8c-1.33-1.33-1.33-1.33-2.67 0-1.3.68-1.3 1.35 0 2.7l36.16 31.44 2.68-.67c.67-1.34.67-2.68 0-2.68zm12.72-19.4l-29.45-30.1h-2.7c-1.34.64-1.34 2 0 2.65l29.44 30.8c.67.68 2 .68 2.68-.66v-2.67zM216.9 190.3c-.68 0-.68 1.34-.68 2.68l6.7 10.7c6.02 8.7 11.37 15.4 16.72 20.75.67 1.34 1.34 1.34 2.7 0 .65-1.34.65-2 0-3.34-5.37-4.7-10.05-11.4-16.08-20.1l-6.7-10.05c-.66-1.34-1.33-1.34-2.67-.66zm43.5 14.06l-12.06-14.73-8.03-11.37-2-.67c-2 1.3-2 2-1.3 2.65l8 12.05 12.7 15.4 2.7-.66v-2.68zm13.37-14.73c.68 1.34 2.02 1.34 2.68 0 .67-.67.67-2 0-2.67l-11.38-14.06-6.02-10.03c0-2-1.34-2-2.68-1.34-1.34.66-1.34 1.34-.66 2.68l6.7 10.7 11.4 14.75zm20.08-20.07l-13.38-20.08c0-2-.67-2-2-1.34-2.02.67-2.02 1.34-1.35 2.68l4.68 8.03 9.38 13.38 2.67.67c1.34-1.34 1.34-2.67 0-3.34zm16.73-12.7l-10.7-18.76c-.67-1.33-1.35-2-2.7-.66-1.32 0-1.32.66-.65 2l10.7 20.08h3.35c1.34-1.34 1.34-2 0-2.67zm5.36-32.14h-2.02l8.7 19.4c.67 1.34 1.34 2 2.68.68 1.34 0 1.34-.67.67-2l-9.37-20.1-.66 2.02zM334.68 108c-1.34 0-1.34 1.33-1.34 2.67l6.02 17.4c0 1.33.67 1.33 2.67 1.33l1.34-2-6.7-18.07c0-1.34-.66-2-2-1.34zm17.4-14.06c-1.35 0-2 .67-1.35 2.68l4.7 19.4c0 1.34 1.33 1.34 2 1.34l2-2.68-5.35-18.74c0-2-.67-2-2-2zM123.2 394.42c-1.33 0-2 .66-1.33 2l1.33 11.38c2 10.04 2 20.08 2 30.78 0 1.33.68 2 2.02 2l2-2c.67-10.7-.66-20.74-1.33-30.78l-2.7-12.72c0-.66-.68-1.34-2-.66zm-20.08 21.4c0 1.34 0 2.02 2.02 2.02l1.33-2 .67-34.8-2 2c-1.34 0-2.02-.68-2.02-2v34.78zM84.4 371.66l-3.36 26.77c-.67 1.33 0 2 1.34 2.68l2.68-2 2.67-18.05v-9.37c.68-.67 0-1.34-1.34-2-1.36 0-2 .66-2 2zm-19.42-10.04c-.67 0-1.34.67-.67 2l.7 6.7-1.34 16.73c-.67.67 0 2 1.34 2.67l2.67-2 .67-17.4-.67-7.37c0-1.33-.67-2-2.68-1.33zM49.6 377l-2.02-22.74-2-1.34c-1.35.67-2 1.34-1.35 2l1.34 22.1c0 .67.67 1.33 2 1.33L49.6 377zm-20.76-10.7l-2-18.73c0-.67-1.34-1.34-2.68-.67-1.34 0-2 0-1.34 2l2 17.4c0 .68.68 1.35 2.02 1.35l2-1.35zm107.74-103.05l8.7-24.1c.68-1.33 0-2-.66-2.67-1.34 0-2.68 0-2.68 1.34l-2 6.7-7.37 16.72c-.67 1.33 0 2 .67 2.68 2 .67 2.68.67 3.34-.67zm-10.03-44.18l-2 7.37-8.04 14.06c-.64 1.33 0 2.67 1.37 3.34l2-.67 8.7-15.4 2-8.02c.68-1.34 0-2-2-2-.67-.68-2 0-2 1.32zm-18.07-15.37l-3.35 9.35-6.7 14.73c-1.33 1.33-.66 2 0 2.68l3.36-.68 6.66-15.4 3.35-9.36c.68-1.33 0-2-.66-2-1.34-.68-2.68 0-2.68.67zm-12.05-24.1l-8.02 26.76 1.36 2.68 2-1.34 9.38-26.77c0-1.34 0-2-1.34-2-1.35-.68-2.7 0-3.36.66zm-22.08-5.36L73 172.9l-6.68 20.75c0 1.34 0 2.67 1.34 2.67l2.68-1.33 6.7-22.1c0 1.32-1.35 2-2.7 1.32zm-19.4-26.77l-7.37 27.44c0 1.37 0 2.04.67 2.7 1.34 0 2.68 0 2.68-1.33l6.02-16.73 2.67-11.38-2-2h-1.34l-1.34 1.33zM32.2 158.85l6.68-24.1c.67-.66 0-2-1.34-2-1.34-.67-2 0-2 1.34l-6.7 23.4c-.66.66 0 2 .67 2.7 1.37.64 2.7 0 2.7-1.37z"/><path fill="#FFCDDE" d="M279.13 193.65l-7.36-10.7-6.02-5.36c3.34-4.7 5.35-10.74 7.35-16.1l-10.7-4-2.68-11.4c-6.02.7-11.38 2.02-16.73 4.7l-6.05 3.35c-2-4.7-5.36-8.7-10.04-12.05l-6-3.34-8.03 6.03-12.72-1.36c-1.33 7.36-1.33 15.4-.67 24.1l-12.06 6.02-6.03 4 6.7 10.05-5.36 10.04c4.7 2.68 12.72 5.36 22.76 7.36 1.34 8.7 4.7 16.74 9.37 22.77l10.04-4.7 10.06 6.7a41.95 41.95 0 0 0 14.72-17.4l22.1.67-2.02-12.7 9.37-6.7z"/><path d="M276.45 161.52l-2.68-3.34-8.7-3.35-2-8.7-3.35-3.34a53.8 53.8 0 0 0-21.42 6.66 35.63 35.63 0 0 0-10.03-10.04l-6.02-3.34h-3.35l-6.7 5.34-10.7-1.33c-2.67 0-3.35.66-4 2.67a56 56 0 0 0-2.02 15.38v8.03c-2.68.67-6.7 3.35-10.04 5.35l-6.03 4.02-1.3 2 .67 2.02 4.68 8.02-3.35 8.7-.68 1.32 1.35 2.68a61.08 61.08 0 0 0 22.1 7.36 66.5 66.5 0 0 0 9.36 22.1c.67 2 1.34 2.65 4.02 1.3l8.7-4 8.03 6c1.34.7 2.68.7 3.35 0l14.72-16.7c6.02 2 12.7 2 21.42 0l2.67-3.36-1.33-10.7 7.38-6.03 1.34-2.66v-.66c-2-5.36-6-10.04-12.7-16.06l6-14.72.7-.68zm-15.4-.66l7.37 2-6.02 13.4v1.33l.67 3.3c6.02 3.36 9.37 8.04 12.04 12.06l-6.66 5.35-2 2 .66.7 1.33 9.37-20.08-1.34-2 2c-3.35 5.36-6.7 10.7-12.05 14.73l-8.04-5.35h-3.35l-6.66 3.36a51.12 51.12 0 0 1-7.36-19.4 2.88 2.88 0 0 0-2.68-2.7c-8.04-2-14.73-3.34-19.4-5.35l4-7.35.67-1.33-1.34-2.02-4.68-6.67c7.36-4.68 12.05-6.7 14.72-8.02l2.68-3.33-.67-9.37 1.34-10.7 9.38.65 2.68-.67 6.02-4.68c5.35 3.33 10.04 7.35 12.04 13.37l2.68 1.34 3.35-.64 4-2.68c4.7-2 8.7-3.34 13.4-3.34l2 7.36 2 2.67z"/><path d="M220.9 175.58c-2.67 2-4 4.7-4 8.7 0 3.35 1.33 6.7 4 9.37 2.68 2.68 5.36 4 9.37 4 3.35 0 6.7-1.32 9.37-4 2.7-2.68 3.35-6.02 3.35-9.37 0-4-.7-6.7-3.38-8.7-2.67-2.68-6.02-4.68-9.37-4.68-4 0-6.7 2-9.36 4.68zm14.73 14.05c-1.34 2-2.68 2.68-5.36 2.68-2 0-4-.64-5.35-2.65-2-1.34-2.67-3.34-2.67-5.35 0-2 .66-4 2.67-5.37 1.34-2 3.35-2.67 5.35-2.67 2.68 0 4.02.67 5.36 2.67 1.34 1.35 2.68 3.35 2.68 5.36l-2.65 5.33z"/><path d="M224.92 193.65l-1.34 14.05c0 2 .67 2.68 2.68 3.35l2.68-2.02 1.33-15.38c0-1.35-.66-2.68-2-2.68-2 0-3.35.67-3.35 2.68zm14.06-6.7c-.67 2-.67 2.68.67 3.36l14.05 7.38c2 1.34 2.68 1.34 3.34-.66 1.34-1.34.68-2.67-.66-4l-13.4-6.7c-2-1.34-3.33-.68-4 .67zm-23.42-4l-12.05 3.34c-1.3 0-2 1.3-1.3 3.3 0 1.35 1.33 2 3.34 1.35l11.37-3.34c2-.66 2.68-1.33 2-3.34 0-1.34-2-2-3.33-1.34zm.66-22.1c-1.34 0-1.34 2-1.34 3.35l4.02 12.05c.67 1.34 2 2 4.02 1.34 1.34 0 2-1.37 1.34-3.38l-4.7-11.38c0-2-1.33-3.34-3.34-2zm30.12 6.7l-6.03 5.35-3.3 1.34c-1.35 1.34-2 2-.68 4.02 0 1.33 1.35 2 3.35 1.33l4.02-2.7 7.35-6c1.34-1.36.67-2.7-.67-4.04l-4 .67z"/><path fill="#FFCDDE" d="M32.86 101.96l-7.36 8.7c3.34 4.7 8.7 8.7 17.4 12.05a44.22 44.22 0 0 0-4.02 18.1l11.38 2 4.7 10.05c9.35-2.68 16.04-6.7 20.06-12.7 6.02 6 12.05 10.7 19.4 11.36l6.7-7.36 12.04-1.34-1.33-16.75-2.68-7.37 15.4-14.06-8.04-7.36 2.04-11.38-14.06-2H95.1l-8.7-14.73-5.36-6-9.37 6.68-10.7-4.02c-4.7 5.37-8.7 12.06-10.04 20.1L36.2 87.26l-7.36 3.34 4.02 11.35z"/><path d="M62.3 62.48c-1.34 0-2.68 0-4 1.34-4.03 4.68-7.37 10.7-10.05 18.74l-14.05 2-6.7 2.7c-1.34.65-2 2-2 3.33v.64l3.34 10.04-6.02 7.35-.67 2 .67 2c2.68 4.7 8.03 8.05 16.06 12.06-2 5.36-2.68 10.7-3.35 16.06 0 2 1.34 3.35 3.35 3.35l8.7 2 4.7 8.05c1.33 2 2 2 4 1.33a43.1 43.1 0 0 0 18.74-10.7c6.02 5.34 12.7 8.7 19.4 10.02.68 0 2-.66 2.68-1.33l5.36-6.7 10.7-.68 3.35-3.35v-2.02c0-6.02-1.3-13.38-3.32-21.4l14.06-12.06.67-2.68-1.34-2-6.7-6.7 2.02-9.37v-.67c0-2 0-3.35-2-3.35l-22.76-2-8.7-14.72-4.67-5.35c-2-1.34-2.68-1.34-4.7 0l-7.34 5.35-9.4-3.35zM50.26 89.25h2.67l1.34-2a44.2 44.2 0 0 1 8.04-18.08l8.7 3.35h3.37l6.7-5.35c4 5.35 8.02 11.37 10.7 17.4l3.35 2.67 20.1.67-2.03 8.06v1.34l.67 2 6 5.35-12.7 11.38-1.34 2.67v.66l2 6.7 2.03 13.38-9.37 1.34c-.68 0-2 0-2 .67l-5.37 6.02c-6.03-2-11.38-5.36-14.73-10.03-.67 0-2-.67-3.35-.67l-2 1.33c-4.02 4.7-9.37 8.03-16.07 10.04l-4.02-7.36-2-1.34-8.03-1.34a40.3 40.3 0 0 1 2.67-14.05l.67-1.34-2-2.64-14.06-9.38 5.37-6.7.66-2-.66-1.33-2.68-8.7c7.35-2.68 13.37-4.02 17.4-2.68z"/><path d="M64.3 101.96c-1.33 2.02-2 4.7-2 7.37l.67 2.67c.67 4.02 2 6.03 5.36 8.7l10.04 1.34c3.34-.67 6.7-2.67 8.02-6.02 2-2.67 2.65-6.02 2-10.04-.7-3.35-2.7-6.02-5.37-8.03-3.35-2-6.7-2.68-10.04-2-4 1.33-6.7 3.34-8.7 6zm3.36 8.7c0-2 0-4 .67-6.02l5.35-3.34 6.02 1.34 3.35 4.68c.67 2 0 4-1.34 6.03l-4.65 3.34-5.35-.7a10.38 10.38 0 0 1-4.03-5.35z"/><path d="M73.68 82.56c-2 0-2 1.34-2 2.67l2 14.06 2.67 2.64c2.02-.66 2.02-1.33 2.02-2.67l-1.34-14.73c-.68-2-2-2-3.35-2zm-27.44 20.08c0 1.33 0 3.34 1.34 3.34l15.4 4.7 3.34-2.7c.67-1.33 0-2-2-2.67l-14.73-4.65c-2.04 0-2.7 0-3.38 2zm52.2-6.02c-2.67.66-6.7 2.67-11.37 6.02-1.34 1.33-2 3.34-.68 4 1.3 1.35 2.65 1.35 4 .68 4.7-3.34 8.03-4.68 9.36-5.36 2-.66 2.68-1.33 2-3.34 0-1.34-1.33-2.68-3.34-2zM88.4 114.68c.67 1.34 0 2.68-1.33 3.35l-3.35-.67 6.7 10.7c.66 1.35 1.33 2.02 3.34 1.35 1.34-1.3 2-2 1.34-3.32l-6.7-11.38zm-20.74 1.34l-3.35 3.35-6 7.36c-.66 1.33 0 2.67 1.34 3.35 1.34.66 2.02.66 3.35-.68l5.35-6.7 2.67-2.66c.68-.67 1.35-2.68.68-4.02h-4z"/><path fill="#FFCDDE" d="M26.84 420.5l-4.7 10.72H10.78c-.66 6.02 1.34 13.4 4.7 23.42-6.7 6.7-12.05 12.7-16.07 20.08l9.4 6.7-.68 11.36a44.4 44.4 0 0 0 22.76 4.02c0 6.02 3.35 12.7 10.04 19.4l10.03-7.35 10.7 4.68c2.68-2 4.02-6.7 5.36-12.04l1.33-8.07 18.06-2-1.35-10.7 8.03-7.37A43.95 43.95 0 0 0 81 460.66l-6-3.35c3.34-4 4.67-9.35 5.34-14.7v-7.38L71 431.9l-4.68-11.4c-6.7 1.35-14.72 5.36-22.1 10.72-2-2-5.34-4.7-10.7-7.36l-6.68-3.35z"/><path d="M28.18 417.84c-2.02-1.35-3.35-.68-4.02 1.33l-4.7 8.7H10.1c-2 0-2.66 1.34-2.66 3.35v.67c0 6 1.34 13.35 4.02 22.05C5.42 460 .73 466.65-3.28 472.7l-.67 2.02 2 2 7.37 5.36-.67 10.7c0 1.35.67 2.02 2 2.68 6.03 3.35 13.4 4.68 21.43 4.68 1.33 6.03 5.35 12.05 10.7 18.75h4.7l8.02-6.06 8.7 3.35c1.34 1.34 3.34.66 4-.67 2.7-3.35 5.36-9.37 7.37-18.74l16.06-2c1.34 0 2-1.36 2-3.36l-1.33-9.37 6.7-6.7 1.33-2-.67-2c-4-6.7-10.04-12.06-16.06-16.07 2.68-6 4.7-12.03 4.7-16.7l-.68-3.36-2-2.67-8.04-3.35-4.02-10.03c-1.33-1.35-2-2.7-4-2-4.02.65-11.4 4-21.43 10l-10.04-6.7-6.04-2.65zm-6.03 16.73l2.68-2.68 4-6.7 14.07 8.7 4 .65c6.03-4.7 11.4-8.04 17.4-10.04l4.03 8.7 1.33 1.35 7.37 3.34.66.67c0 6.03-2 11.37-5.38 16.73l-.67 2.03v.67l2 2 4.7 3.34 10.03 9.37-5.36 5.38-1.34 2.68v.67l1.35 7.37-14.72 1.32c-1.33 0-3.34 1.35-3.34 3.35-.67 6.7-2 12.05-4.68 15.4l-8.04-2.68H48.9l-7.36 5.34c-4.68-6.03-7.36-10.72-7.36-15.4l-1.34-2-2.68-.68-18.73-3.35.66-8.7-1.33-3.33-6.7-4.7 13.4-16.04 1.34-2.68v-1.35c-2.66-6-4-12.03-4.67-18.73h8.03z"/><path d="M38.88 454.64c-3.34 2-5.35 4.68-6.02 8.03-.67 4-.67 7.36 1.34 10.04l8.03 6.05 9.37-.67c3.35-2 6.02-4.7 6.7-8.03 1.33-4.02 0-7.36-1.35-10.04-2-3.35-4.02-5.35-8.03-6.7l-10.04 1.35zm-1.34 10.04c1.34-2.68 2.68-4.02 4.02-4.7 1.33-1.32 3.35-2 6.02-1.32l4.7 3.34 1.33 4.68c0 2.68-2 4.7-4 6.7h-6l-4.7-3.35c-1.33-2-1.33-3.35-1.33-5.35z"/><path d="M34.87 466.68l-13.38 5.36c-1.37 1.33-1.37 2-1.37 3.35.66 2 2 2.64 4 1.3l12.73-5.35c2-.67 2-2 1.34-3.34-.67-2-1.33-2.67-3.34-1.34zm12.7 8.04c-1.33.67-2.66 2-2.66 3.34v15.4a2.87 2.87 0 0 0 2.7 2.67c2 0 3.35-1.33 3.35-2.68l-.67-15.38c0-2-.67-3.35-2.68-3.35zm-20.07-30.8c-1.33.7-2 2-.66 4.03l9.36 8.7h4.02c.67-1.34.67-2.68-.67-4.02l-8.7-8.02c0-1.32-2-1.32-3.35-.65zm28.1-.66l-8.7 9.37c-.66.67-.66 2 .68 4l3.35-.65 8.7-9.37c1.33-1.3 1.33-2 0-3.32-1.34-1.33-2.68-1.33-4.02 0zm-2 24.77c-.67 2-.67 3.35.67 4l4.02 2.7 9.34 3.33 2.68-2.67c.66-2.05 0-2.7-2-3.38l-7.38-2-3.34-2h-4z"/><path fill="#FFCDDE" d="M277.12 249.86l2.68-10.7c-3.35-2-7.36-3.36-13.4-3.36l-7.34-.66-2.7-12.05-1.33-6.05-11.37 3.35-8.7-6.7c-6.7 6.04-11.38 12.73-12.7 20.1-5.37-2.7-10.05-4.03-16.08-3.35l-6.02.66-2.67 10.06-10.75 6.03a68.23 68.23 0 0 0 14.06 20.06c-2.67 4.68-5.34 10.7-8.02 19.4l10.7 3.34 2.7 11.4c5.33-.68 12.7-3.36 22.06-8.05 7.36 6.02 14.06 10.04 21.4 12.7l5.37-10.03 11.38-1.33a29.8 29.8 0 0 0 2.02-15.4l-1.34-7.37c6.7-1.34 12.72-5.36 18.74-13.4l-8.7-8.7z"/><path d="M287.83 256.56l-7.37-7.37 2.68-9.4v-.67l-1.34-2.67c-4.68-3.35-11.37-4.7-19.4-4.7l-4.7-15.38c-.66-2-2-2.68-4-2.68l-8.7 2.67-8.03-5.36h-4.02c-6.02 5.36-10.04 11.38-13.38 18.75l-14.05-2.7-6.7.68c-1.33.67-2 2-2 2.68l-2 8.7-9.38 5.36c-1.34.67-2 2-2 2.7v2c2.67 5.34 6.68 11.36 13.37 18.72-2.64 5.35-4.65 10.7-7.33 18.07v.66c0 1.35.67 2.68 2.68 3.35l8.7 2.7 1.34 9.36c.66 1.35 2.66 2.7 4 2.7 5.36-.68 12.72-3.36 22.1-8.04 6.7 6.04 13.37 10.06 20.74 12.73 1.33 0 3.34 0 4-2l4.02-8.05L267.1 298l2.67-2 2-13.4-.66-8.7a45.23 45.23 0 0 0 17.4-13.37l.7-2-1.35-2zm-14.06-6.7l.68 2.67 6.7 6.7a30.27 30.27 0 0 1-14.74 9.37l-1.3 1.34-1.35 2v.67l1.34 10.07-1.35 8.7-8.7 1.34-2.67 1.34-4.02 7.36c-6.02-2.03-12.04-6.04-18.07-11.4h-4c-6.7 3.35-12.74 6.7-17.4 7.37l-2.03-8.04-2-2.67-8.04-2.67c2.02-6.7 4.7-11.4 6.7-14.76l.68-2-1.33-2.67-11.38-15.4 7.35-5.36 2-1.33 2.02-8.7c6.7-.67 12.72.67 17.4 2.68h3.34l2-2a32.32 32.32 0 0 1 10.06-16.07l6.7 4.7 2.67.66 8.03-2.68 2.68 14.7c0 1.35.67 2.7 3.36 2.7 6.7-.68 11.36 0 16.72 2l-2.03 8.7v.66z"/><path d="M236.97 248.52c-4.02-.67-6.7.67-10.04 2.68-2.68 2-4 5.36-4.68 8.7 0 4.02.67 7.37 2.67 10.04 2 2.67 4.7 4.02 8.7 4.68 3.35.67 6.7-.66 9.37-2.68 3.32-2 5.32-5.35 5.32-8.7v-2c0-3.35-1.34-5.36-2.67-8.03a16.03 16.03 0 0 0-8.7-4.66zm-6.7 7.36c2.02-2 3.35-2.67 6.03-2 2.68 0 4 1.33 5.35 2.67 1.34 2 1.34 4.02 1.34 6.02l-3.38 5.36-5.35 2a14.4 14.4 0 0 1-5.36-3.34c-.66-2-2-4.05-1.33-6.05 0-1.34 1.34-3.34 2.67-4.7z"/><path d="M237.64 268.6c-1.34.67-2 2-1.34 4L245 284c.67 2 1.34 2.67 3.34 1.33 1.34-1.33 1.34-2.68.68-4l-7.37-12.06c-1.34-2-2-2-4-.67zm24.1-15.4l-15.4 2c-2 .68-2.68 1.35-2.68 2.7 0 2 2 2.67 3.34 2.67l15.4-2.68c1.34 0 2.67-1.37 2-3.37-.66-1.34-1.33-2.02-2.67-1.34zm-38.84 16.06l-7.34 10.04c-.68 1.35-.68 2.68.66 4.02 2 .68 2.68.68 3.35-.67l7.36-10.04c1.34-1.3 1.34-2.64-.67-4-1.34-1.3-2.68-1.3-3.34.68zm-12.7-18.06c-.67 2-.67 2.68.67 4l10.7 6.7c1.35 1.35 2 1.35 4.02-.66.64-1.34.64-2.68-1.37-4l-10.7-6.7c-1.34-.68-2-.68-3.35.66zm28.1-13.38l-3.34 12.04c-.67 1.34 0 2.67 1.34 3.35 1.34.7 2.68.7 3.34-.64L243 238.5c0-2-.68-2.7-2.7-2.7-.67 0-.67 0-1.33.7l-.67 1.33z"/><path fill="#858585" d="M283.14 59.14c14.05 1.34 23.43-2.68 28.78-12.05 2-5.4 3.34-10.07 2.68-15.4L299.87 33c-10.7 4.02-16.06 12.7-16.73 26.1z"/><path d="M317.27 31.7l-2-2.68c-9.37-2-17.4 0-24.1 5.36-6.02 5.35-10.03 13.38-10.7 24.76 0 1.34 1.33 2.67 2.67 3.34 10.7.68 20.08-2 26.1-8.03 6.02-5.35 8.7-13.38 8.03-22.75zm-5.35 2.68c-.67 7.35-2.68 12.7-6.7 16.06-4.68 4.68-10.03 6.7-18.73 6.7.64-8.7 3.32-14.73 8-18.08 4.7-4.02 10.04-5.35 17.4-4.7z"/><path fill="#858585" d="M184.77 157.5c6.7-13.37 5.35-23.4-1.34-31.44l-13.4-8.03-4.66 14.72c0 11.38 6.7 18.74 19.4 24.76z"/><path d="M178.75 119.37l-8.03-3.35c-.68-.67-2 0-2.68 1.34l-3.35 7.36c-2 6.02-2 11.38 0 16.06 2 8.7 8.7 14.72 18.7 18.74 2 .67 3.35 0 4.03-1.34 4.68-10.04 5.35-18.74 2-26.77-2.68-5.32-6.02-8.7-10.7-12zm-10.04 14.05c0-4.02.7-8.03 2.7-12.05 6.7 2.68 10.7 6.7 13.4 12.72l1.33 7.33c0 3.34-.66 7.36-2.67 11.38-8.03-3.34-12.04-8.03-14.05-13.4l-.66-6z"/><path fill="#858585" d="M95.1 77.2c12.7-6.02 18.06-14.72 17.4-25.43l-4.7-14.72c-5.34 2-9.36 5.36-12.7 9.38-6.7 8.02-6.7 18.06 0 30.78z"/><path d="M109.8 35.72c-1.3-.68-2-1.34-3.32-.68-8.7 2.68-14.72 8.7-18.07 16.73-2.66 7.37-1.3 16.73 4.7 26.77.68 1.35 1.34 2 3.35.67 10.04-4.65 16.07-11.34 18.07-19.4 2-8.7.68-16.03-4.7-24.06zm.03 23.42c-2 4.68-6.7 10.03-13.4 14.05-2.66-5.38-4-9.4-4-12.74l1.34-6.7c1.34-4.68 6.02-9.37 12.7-12.7a25.4 25.4 0 0 1 3.36 12.7v5.36z"/><path fill="#858585" d="M297.2 292.7l-14.72-2.7.66 14.74c4.02 10.7 12.72 16.06 26.77 16.06 1.37-14.06-3.3-23.42-12.7-28.1z"/><path d="M305.23 295.37c-3.35-4.02-8.7-6.03-14.73-7.36l-8.02-.64c-2.02 0-2.68.67-2.68 2l-.67 8.04a33.48 33.48 0 0 0 6.02 16.05c4.7 6.7 13.4 10.04 24.76 10.04 1.37 0 2.7 0 2.7-2 .68-11.4-2-20.1-7.35-26.1zm-20.75-2.68c7.36 0 12.05 2 16.73 6.66 4.05 4.02 6.05 9.37 6.05 17.4v.68c-8.02-.68-14.05-3.35-18.06-7.37-2.7-3.36-4.7-8.7-4.7-15.4v-2z"/><path fill="#858585" d="M366.8 171.56c-13.4-5.35-23.43-4.68-30.8 3.35l-7.35 12.74 14.72 4.02c10.04-.67 18.07-7.36 23.43-20.08z"/><path d="M367.46 168.88l-27.43-1.33a39.68 39.68 0 0 0-11.38 12.04c-2 3.32-2.68 6-2.68 7.34l.67 3.35 8.03 2.67h16.06c8.7-3.35 14.73-10.04 18.07-20.75.67-1.33.67-2.67-1.34-3.35zm-24.1 4.02h19.42c-3.34 7.37-7.36 12.7-13.38 14.73L332 186.3c1.33-6.7 5.35-10.72 11.37-13.4z"/><path fill="#858585" d="M128.56 530.93c1.33-14.06-3.35-23.42-12.72-28.77l-14.72-2.68.67 15.4c4 10.7 12.7 15.38 26.74 16.05z"/><path d="M123.2 504.83c-3.35-3.34-8.03-6.7-14.05-7.36l-8.7-.67c-1.34 0-2 1.34-2 2l-.68 8.7c.67 6.03 2 10.72 5.35 15.4 5.36 6.02 13.4 10.04 25.44 10.7a2.87 2.87 0 0 0 2.67-2.67c.67-12.04-1.34-20.08-8.03-26.1zm-20.08 0v-2.67c8.04.66 13.4 2.67 16.73 6.68 4.02 4.02 6.03 9.38 6.03 17.4v1.34c-8.03-.67-14.05-3.34-18.07-8.03-3.32-4-4.66-8.7-4.66-14.7z"/><path fill="#858585" d="M95.1 296.7c4.68-13.38 2-23.42-6.7-30.1l-13.38-6.03-2 15.4c1.33 10.7 8.7 17.4 22.08 20.74z"/><path d="M72.34 259.9c-.67.67-1.34 3.35-2 8.03-.68 6.03 0 12.05 2.67 16.07 3.37 8.02 11.4 12.7 22.1 15.38 1.35.67 2.7 0 3.36-2 3.35-10.7 2.68-19.4-2-26.77-3.36-4-8.04-7.33-13.4-10-3.34-1.35-6-2.7-8.02-2.7-1.34 0-2 1.34-2.68 2zm2.68 12.7l2-8.68c6.7 2.67 11.4 5.35 14.73 9.36 2 3.35 3.35 7.37 3.35 12.05l-1.34 8.03c-8.7-2.67-14.06-6.7-16.07-11.38-1.37-2.68-2.7-6.02-2.7-9.37z"/><path fill="#D96038" d="M165.37 431.22c2.67-3.34 4-8.04 4.68-14.73v-8.05l-12.72-.67-5.35-9.38c-3.34.67-7.36 2.68-12.05 6.02l-5.35 5.35-10.7-7.37-5.36-2.68-5.36 9.37-11.37 1.33c-.7 9.37.64 17.4 4.65 23.43-5.35 1.33-10.04 4-13.38 8.02l-4.7 5.35 5.36 8.7-4.02 12.05c6.7 3.35 15.4 4.68 24.1 5.35a87.47 87.47 0 0 0 7.36 18.74l10.03-4 9.36 6 7.36-12.7 3.35-8.7 24.1-4.7-2.67-11.37 7.36-8.7c-1.33-4.68-4.68-8.7-8.7-12.7l-6-4.02z"/><path d="M173.4 408.47c-.68-2.02-2.02-3.35-3.36-3.35h-10.7l-4.7-8.7c-.65-1.34-1.33-2-3.33-1.34-4.66.67-11.35 4.02-17.4 10.04l-14.03-8.7c-1.33 0-3.34 0-4 1.34l-4.7 8.7-9.36.67c-2 .67-2.7 1.34-3.35 2.67v5.36c0 6.02 1.34 11.37 3.35 16.73-4.04 2.65-8.05 4.65-12.07 8.66l-4 4.7-.68 2v1.34l4.68 8.03-3.35 11.4 2 3.33 22.76 4.68 6.7 18.07c.66 2 2 2.7 4 1.36l9.37-4 7.4 5.34 4.67-.68c3.34-4 7.36-11.37 10.03-20.08a80.25 80.25 0 0 0 23.43-5.35l2-2.7v-1.34l-2-8.7 6.7-8.03v-3.34a45.2 45.2 0 0 0-13.4-16.73 41.2 41.2 0 0 0 3.35-16.73v-4.68zm-6.7 3.34v1.37c0 6.7-1.33 12.05-4 15.4l-.68 2.67 1.33 2 4.7 4.7a24.88 24.88 0 0 1 8.68 10.03l-6.7 6.7s-.65.66-.65 2V458l2.68 7.35-20.75 4c-1.3.68-2.65.68-3.32 2.02l-8.03 18.07-6.7-4.68h-3.34l-7.36 3.34c-2.68-6.7-4.68-12.05-5.35-16.06-.68-1.34-2-2-3.36-2L94.44 466l2-9.36v-2l-4-6.7c4-5.34 8.67-9.36 14.7-11.37l2.67-2v-.68l-.63-2c-2.68-4.04-4.02-10.07-4.02-16.76v-2l8.03-.68 2.68-1.33 4-6.7c4.7 2 8.72 4.68 12.06 7.36h4.7c4.7-4 8.7-7.36 13.4-9.37l4.66 7.36 2.68 1.34 9.37.66z"/><path d="M143.28 452.63c3.34-2.68 4.68-5.35 4.68-9.37 0-3.35-1.34-6.7-4-8.7-2.02-3.34-5.36-4.68-9.38-4.68-3.35 0-6.7 1.35-9.37 4.02a23.5 23.5 0 0 0-4 9.36c0 3.35 1.35 6.7 4 8.7a11.7 11.7 0 0 0 9.4 4.68c3.34 0 6-1.33 8.7-4zm-3.35-14.72c2 1.37 2 3.38 2 5.38s0 4.02-2 5.36l-5.35 2.68a8.5 8.5 0 0 1-6.02-2.67c-1.34-2-2.02-3.35-2.02-5.36 0-2 .68-4 2.02-5.36 2-2 4-2.67 6.02-2.67 2 0 4.02 1.34 5.35 2.68z"/><path d="M141.27 448.62a3.7 3.7 0 0 0 2 3.34l14.06 3.35c1.34.7 2.68 0 2.68-2 1.37-1.32 0-2.66-1.3-3.33l-14.06-3.34c-1.34 0-2.68 0-3.35 2.02zm6.7-27.44l-9.37 12.04h3.34c1.34.67 1.34 1.35.67 3.35l9.4-12.04c1.33-2 1.33-3.35 0-4.02-2-.64-3.35-.64-4.02.7zm-14.73 35.46c-2 0-2.68 1.35-2 3.35l1.33 10.7c-.67 2 .67 2.66 2.68 2.66l2.67-2-1.34-13.4c-.66-1.34-2-2-3.34-1.34zm-8.7-6.7l-12.7 2c-2.02 0-2.7 1.36-2.02 2.7l2.68 2 12.7-2 2.02-2.7c0-2-.67-2.65-2.68-2zm-3.34-27.42c-1.35 1.34-1.35 2.68 0 4l5.35 10.05c0 2 2 2.68 3.34 2l2-3.34c-2-4.68-4.04-8.7-6.7-12.05l-4-.66z"/><path fill="#D96038" d="M77.03 358.94l-5.35 9.37-11.38 1.37c-.68 9.37.66 16.73 4 23.42-8.02 2.67-14.04 6.7-17.4 13.37l4.7 8.7-3.35 12.05a63.5 63.5 0 0 0 23.43 4.7 70.66 70.66 0 0 0 7.35 19.4l10.7-4.7 8.7 6.7 8.04-12.7 3.35-8.7c8.7 0 16.73-2 24.1-5.36l-2.7-10.7 7.38-8.7-9.37-12.7-6.03-4.7c2.68-2.68 4.68-7.36 4.68-13.4v-8.68l-12.7-.67-5.36-9.37c-3.35.68-6.7 2.68-11.37 6.03l-6.03 4.7-10.7-6.7-4.7-2.7z"/><path d="M141.94 407.13v-1.34c-3.34-6.7-7.36-12.75-14.06-16.76a41.3 41.3 0 0 0 3.35-16.73v-4.67c0-2.02-1.34-3.35-3.35-3.35h-10.03l-4.7-8.05c-1.32-2-2-2.67-3.33-2-4.68.67-10.04 4.02-18.07 10.04-2-2.7-5.36-4.03-8.7-6.03l-4.68-2.02c-1.34-1.33-3.35-.66-4.02.68l-4.7 8.03-9.35 1.33c-2 .67-2.68 1.34-3.35 3.34v4.7c0 6 .67 11.36 3.35 16.72-7.37 3.34-12.72 8.02-16.07 13.38l-.66 2 .66 1.35 3.35 8.02-2.67 10.7v.67l2 2.67c6.05 3.35 13.4 4.7 22.78 5.36l4.02 12.05 2.66 6.03c.68 2 2.02 2.67 4.02 1.33l8.7-4.02 7.36 6.03 5.36-1.33c3.33-4 6.68-10.7 10.03-20.07 8.7-.66 16.73-2 23.42-5.35l2-3.35-2.67-10.04 6.7-6.7.66-2.68zM90.4 371h4.7c4-4.03 8.7-7.37 13.38-9.38l4.68 7.36c0 1.34 1.34 1.34 2.02 1.34l9.36.67v1.3c0 7.36-1.34 12.06-3.35 15.4l-1.37 2 .68.68 1.35 2.66 4.68 3.34 8.03 10.05-6.02 7.37-.68 2v.67l2 8.02-20.07 4c-2 0-3.34 1.34-3.34 2.7l-8.03 17.4-6.7-4.03-3.33-.67-7.35 3.35-6.02-16.06-3.34-2.7-19.44-3.34 2.68-8.7v-1.35l-.67-2-3.35-6.7c3.35-4.68 8.7-8.7 14.73-10.04l2-2v-3.33c-2.67-4.02-4-10.04-4-16.73V373l8.02-1.34 2.68-1.34 4.02-6.7c5.35 2 8.7 4.7 12.04 7.37z"/><path d="M101.8 411.8c2.66-2 4-5.35 4-8.7 0-4-1.34-6.7-4-10.03-2.02-2-5.37-3.35-8.7-3.35-4.03 0-6.7 1.35-9.38 3.35-2.68 2-4.02 5.36-4.02 9.37 0 4.02 1.34 6.7 3.35 9.37 2.68 2.7 5.36 3.38 9.37 4.05 3.34 0 6.02-1.34 9.37-4.02zm-3.36-14.7l2 5.34-2 5.36-6.02 2.67c-2 0-4-.67-5.35-2.67-2-1.35-2-3.35-2-5.36 0-2.68 0-4 2-6.02 1.34-1.34 3.34-2 6.02-2 2 0 3.3.66 5.32 2.67z"/><path d="M99.78 407.8c-.67 2 0 3.35 2 3.35l13.4 3.34c2 .64 3.34 0 3.34-1.37.67-2 0-3.35-2-3.35l-13.4-4c-2-.7-3.34.64-3.34 2zm1.34-12.72l9.37-12.05c.64-1.33.64-2-.7-3.35-1.34-1.33-3.35-1.33-4 .68l-8.05 10.7 2.68.67 1.34 2-.68 1.35zm-10.04 20.08c-1.34.66-2.67 2-2 3.34l2 11.38c0 2 .67 3.34 2 3.34l3.35-2-2-13.38c0-2-1.35-2.68-3.35-2.68zm-8.7-6.7l-12.04 2.7c-2 0-2.68 1.32-2.68 3.33l3.34 2 12.72-2c1.34-.7 2-1.37 1.34-3.37 0-1.35-.67-2.68-2.68-2.68zM79.7 381.7c-1.33 1.33-1.33 2.68-.67 3.34l6.03 11.37c0 1.38 1.33 2.05 3.35 1.38 1.36 0 2-1.35 1.36-3.34-1.33-4.7-3.35-9.38-6.7-12.72H79.7z"/><path fill="#D96038" d="M309.9 83.9l-2-6.03-10.7 3.35-8.7-7.36c-4.7 4-8.7 8.7-10.7 13.4l-2.7 6.68c-4.67-2.68-9.35-3.35-15.38-3.35l-6.7.64-2.67 10.04-10.7 6c3.34 6.7 7.35 13.4 13.38 20.1L245 146.12l11.38 4.02 2 11.37c5.36-.65 12.72-3.33 22.1-8a64.77 64.77 0 0 0 21.4 12.7l5.35-10.04h12.06c1.3-5.35 2-10.04 1.3-16.05l-.67-7.36c6.7-1.34 12.72-5.35 18.74-12.7l-8.7-9.38 2.67-10.7-12.72-4.03h-7.36l-2.7-12.04z"/><path d="M312.6 81.9l-2.02-4.7c-.67-2-1.34-2.67-4-2.67l-8.7 2.68-7.38-5.33c-1.33-1.33-2.67-1.33-4 0-6.03 4.7-10.05 10.7-13.4 18.07l-14.05-2.67-6.7.66c-1.33.68-2.67 1.35-2.67 2.7l-2 8.7-9.38 4.68c-1.34.67-2 2-2 3.35v1.34a84.48 84.48 0 0 0 13.38 19.4l-8.03 17.4v.66c0 2 .67 3.35 2 3.35l9.38 3.36 2 9.36c0 1.35 1.34 2.68 3.35 2.68 4.7-.67 12.05-3.35 21.42-7.36l14.05 8.7 6.7 3.36c2 .67 3.34 0 4.68-2l4.02-8.04h10.04l3.3-2.68 1.34-14.05-.66-8.03c6.7-2 12.7-6.7 17.4-12.72l1.32-2-1.34-2.68-7.36-7.36 2.68-9.36V100l-1.34-2.67c-4.7-3.36-11.38-4.7-19.4-4.7l-2.7-10.7zm-17.4 2h3.33l7.37-1.34 3.34 13.38c0 2 .67 3.35 3.35 3.35l16.03 2.64-2 8.7.66 2.7 6.03 6.68c-4.7 6.02-9.38 8.7-13.4 9.37-1.33 0-2.67.67-2.67 1.34l-.67 2v1.34l.66 8.7-.67 10.02h-10.04l-2.68 2-4.04 7.36-16.73-11.38h-4a107.86 107.86 0 0 1-18.74 6.7l-1.34-8.04-2.02-2-7.36-3.35c2-6.03 4.02-11.38 6.7-14.7v-2l-.67-2.7-12.05-16.06 8.7-4.68 1.34-2.02 2-8.02c7.36 0 13.4.67 18.06 3.35h2.68l2-2.7 2-5.35c2.7-3.34 5.37-7.36 8.72-10.03l6.02 4.67z"/><path d="M298.53 110.67c-2.67-2.02-6-3.35-9.36-3.35-4.02 0-6.7 1.33-9.37 3.35-2.68 3.34-4 6.02-4 10.04 0 3.37 1.32 6.7 4 8.7 2.68 2.7 5.35 4.04 9.37 4.04 3.35 0 6.7-1.34 9.36-4.02 2-2 4.02-5.34 4.02-8.7 0-4-2-6.7-4.02-10.02zm-15.4 15.4c-1.33-2.02-2-3.36-2-5.36 0-2.65.67-4.66 2-6 2.02-1.33 3.36-2 6.04-2 2 0 4 .67 5.35 2 2 1.34 2 3.35 2 6.03 0 2 0 3.35-2 5.36a7.6 7.6 0 0 1-5.35 2c-2.68 0-4.02-.67-6.03-2z"/><path d="M289.84 129.4c-1.34.68-1.34 1.34 0 3.35l6.7 12.04c2 2 3.33 2 4 1.3 2-1.33 2-2 1.34-4l-8.03-12.7h-4zm24.08-15.4l-14.05 2.02 2 2-1.33 2.7 14.72-2.03 2-2.7c-.66-2-1.32-2.67-3.34-2zm-42.15 28.8c2.68-1.35 5.35-5.36 8.03-10.05.66-2 .66-3.35-.67-4.02-2-.67-2.68-.67-4.02.67l-6 9.37c-2 .67-2 2-.66 4.02h3.35zm2-20.1l4.02-1.33c1.3-1.33 1.3-2-.7-3.34l-10.7-7.36-3.35.66c-1.34 1.34-.67 2.68.66 3.35l10.05 8.03zm17.4-24.08c-.67 4.02-1.33 7.36-3.34 12.05-1.34.66-.67 2 1.34 3.34 1.33.7 2.67 0 3.35-1.3 2.67-4.7 4-8.7 4-13.4 0-2-.66-3.35-2.67-3.35-1.33 0-2.67 1.34-2.67 2.68z"/><path fill="#D96038" d="M218.23 44.4c-2-2.67-6.02-5.34-12.05-7.35l-8.03-1.33-3.34 11.37-11.35 3.32c0 5.35 2 12.04 6.7 19.4-3.36 2-6.7 4.7-9.38 8.03l-4 4.7 8.02 8.02-1.35 10.7 23.42 1.34c.67 8.7 3.35 15.4 8.7 20.76l10.04-2.7 10.7 6.7c4-6.03 8.04-13.4 10.05-22.76l20.74-2-1.34-11.37 8.02-7.36-10.7-10.04-7.36-5.36c2-9.36 2.7-17.4.68-24.75h-10.7L239 33.68c-5.35 1.34-9.36 3.36-14.72 6.7l-6.02 4z"/><path d="M276.45 86.58l.67-2.68-.67-1.34-16.73-15.4.67-13.38-.7-10.7-3.35-2.68H247l-5.35-8.03c-1.34-1.34-2-2-3.35-1.34-6.02 1.34-12.7 4.68-20.07 9.37-2.67-2.68-7.36-4.7-12.05-6.7l-7.35-1.33c-2.02-.67-3.35 0-4.02 2l-2.65 9.38-9.37 3.34-2.68 2.65v1.33c0 4.7 2 10.7 5.35 18.06a38.4 38.4 0 0 0-7.37 7.37l-3.34 4-1.34 2.03 1.33 2 6.7 6.7-1.35 9.37v.67l2 2.67 22.1 2.68a46.83 46.83 0 0 0 8.7 19.4h3.34l8.7-2 9.37 5.35h4.66c4-6 7.36-12.7 10.04-20.74l19.4-2.68c1.35 0 2-1.34 2-3.34l-1.3-10.03 7.35-6.02zm-60.23-39.5l2 .68 2-.67 5.37-3.37c4-2.68 8-4.7 11.35-6.03l6.02 8.04c0 1.34 1.33 1.34 2.67 1.34h8.03v6.68l-1.34 14.05v.7l1.34 2.67 15.4 12.72-6.03 5.34c-.67 0-.67 1.34-.67 2v1.35l.67 8.02-16.06.68c-1.34 0-3.35 1.34-4 2.68a43.15 43.15 0 0 1-8.05 18.73l-8.03-5.34h-2l-8.04 2c-4.02-5.35-6.7-10.7-6.7-16.72l-1.33-2.68-22.1-1.34 1.35-8.02-1.34-2.7-5.36-5.34c2-3.35 5.36-6.7 10.72-10.04l1.33-2.67v-2a59.75 59.75 0 0 1-6.7-15.4l8.7-2 2.68-2.7 2-8.7c8.05 1.35 12.74 4.7 16.08 8.04z"/><path d="M234.3 71.18c-1.35-3.34-4.7-5.35-8.04-6.02l-10.04.67a18.2 18.2 0 0 0-6.02 8.03c-.67 4-.67 7.36 1.34 10.04l8.03 6.7c3.35.66 6.7 0 10.04-1.35 3.38-2 5.38-4.68 6.05-8.03.67-4 .67-7.36-1.34-10.04zm-18.1 10.04c-.66-.67-.66-2-.66-3.35 0-3.34.66-5.35 3.34-7.36h6.02l4.7 3.38a8.46 8.46 0 0 1 .65 6.03l-3.34 4.68-6 .66-4.7-4z"/><path d="M235.63 55.8l-6.7 13.38c-1.33 1.33-.66 2 .68 3.34 2.04 1.34 2.7 0 3.38-1.34l7.35-12.72c1.35-1.33.68-2.67-.66-3.34-2-1.34-3.34-.67-4 .67zm-30.8 0c-1.32.66-1.32 2 0 3.34l9.4 12.04c-1.35-1.33-1.35-2 .65-3.34h4.02L208.86 55.8h-4.02zm30.8 26.76c-.67 1.34 0 2 2 2l12.05 2.02c2 0 3.35-.67 3.35-2.68 0-1.34-.67-2.68-2.68-2.68L238.3 79.9c-2-.7-2.67.65-2.67 2.66zm-9.37 6.7l-.67 12.7 2.65 2.7c1.34 0 2.68-.7 2.68-2.03l1.34-13.38c0-1.34-.7-2-2.7-2-1.33-.67-2.67 0-3.34 2zm-11.38-10.72l-14.05 3.35c-2 .64-2 2-1.34 4 .64 1.33 2 1.33 3.32.66 3.34-2 7.36-2.68 12.04-2.68l1.34-.68.68-2c0-2.02-.68-2.7-2.02-2.7z"/><path fill="#D96038" d="M72.34 190.97l-.67-8.03-11.37.67-6.7-10c-7.36 2-14.72 5.34-20.07 10.7-2.68-3.35-6.7-5.36-12.72-7.36l-8-2-3.35 11.37-10.7 3.34c0 5.36 2 12.05 6.7 20.08-4.7 3.36-9.38 6.7-13.4 12.06l7.36 8.03-.66 10.7 23.42 2a29.3 29.3 0 0 0 8.7 20.76l10.04-3.34 10 6.7 8.7-14.06 2-8.02 21.43-2-2.67-11.38 8.7-7.36-10.7-10.03L71 208.4l1.33-17.4z"/><path d="M74.35 206.36l1.34-12.7-.7-10.72-3.34-3.34H62.3l-5.35-7.37c-1.34-2-2.68-2-4.02-2a64.3 64.3 0 0 0-19.4 9.37c-2.68-2.68-7.37-4.7-12.72-6.7l-7.33-1.34c-1.34-.66-2.68.67-4.02 2.02l-2 10.03-9.37 2.7c-2 0-2.68 1.35-2.68 3.35v.68c0 6.03 2 12.04 6.02 18.74l-12.04 10.7-.67 2 .68 2.7 6.7 6.02-1.34 9.35v.68l2.67 3.34 22.08 2.68c1.34 7.36 4.7 13.38 9.37 18.73 0 1.34 1.34 1.34 2.68 1.34l8.7-2.67 9.37 6.02c1.3.67 3.32 0 4.66-1.34 3.35-4 6.7-10.7 10.04-20.73l19.42-2.02c1.34 0 2.67-2 2.67-3.34l-.7-.66-1.33-9.37 6.68-6 1.34-2.68-.68-2c-3.34-5.37-9.37-10.05-17.4-15.4zm-6.02-20.07l.67 7.33-1.34 14.05v.66l1.34 2.68 15.4 12.04-6.03 6c-.67.7-1.34.7-1.34 2.03v.66l1.34 8.02-16.73 1.33c-1.34 0-2.68 1.35-3.35 2.7l-2.04 6.02-6.02 12.7-8.03-5.33-2.67-.68-7.36 2.67c-4.7-5.36-6.7-11.38-6.7-16.74l-1.34-2.67-22.08-2 .66-8.05-.65-2.7-6.03-5.34 11.38-9.37 1.35-2.67-.67-2c-3.34-5.35-5.36-10.7-6.02-15.4l8.7-2.66 2-2 2.68-8.7c8.03 2 13.38 4 15.4 7.36 1.33.66 1.33 1.33 2.67 1.33l2-1.36a56.93 56.93 0 0 1 16.76-8.7l5.35 8.02c.68.67 2 1.34 3.35 1.34l7.37-.66z"/><path d="M41.56 204.36c-4.02-.67-7.36-.67-10.04 2-2.68 1.34-5.36 4.02-6.02 7.37-1.34 4-.67 6.7 1.34 10.04 2 2.67 4 5.34 7.36 6.02l10.03-.7c3.35-2 6.03-4.7 6.7-8.7.67-3.34 0-6.7-1.34-10.04a18.2 18.2 0 0 0-8.06-6.02zm-7.36 6.02l6.02-.67 4.7 3.38c1.32 2.67 1.32 4.68.65 6.7l-3.34 4-6.7.67-4.68-3.34c0-1.34-.67-2.02-.67-4.02 0-2.67 1.34-4.7 4.02-6.7z"/><path d="M50.93 195.65l-6.7 12.72c-1.33 1.34-.66 2.68.68 4 2 .68 2.7.68 3.37-1.32l6.7-12.72c1.33-2 1.33-2.68-.68-4-1.35-.68-3.35-.68-3.35 1.32zm-.67 26.1c0 1.34.67 2.68 2.67 2.68l12.05 2 3.35-2.66c0-2.02-.67-3.35-2.68-3.35l-12.04-.67c-2-.68-2.65 0-3.32 2zm-8.03 7.35l-1.34 12.06c0 2 .64 2.68 2.65 3.35l2.67-2.65 1.34-12.72c0-2-1.34-2.66-3.35-2.66-1.32 0-2 0-2 2.67zm-22.76-6c1.34 1.33.68 2.67-.66 3.34l6.7-2.67 4.7-.68c1.34 0 2-.7 2-2.7 0-1.35-.66-2.68-2-2.68l-5.35 1.33c-4.02 0-6.02.68-8.7 2.02 1.34-.68 2.68 0 3.34 2z"/><path fill="#D96038" d="M276.45 182.94c-2 4.7-3.34 12.7-4.68 23.42-5.36 1.34-10.7 4.02-16.06 6.7l-6 4 5.35 10.05-5.35 10.07a38.76 38.76 0 0 0 18.73 13.4c-2.68 6-2 13.37 1.34 22.73l12.04-2.68 7.4 8.7c4.67-2.67 10.03-8.02 14.04-16.05a62.15 62.15 0 0 0 17.4 6.7l3.34-10.72 10.04-4c-.66-5.37-2-11.4-4.67-16.08l-4.02-6.02a34.1 34.1 0 0 0 14.07-16.73l-7.37-7.36.67-12.7h-16.1l-8.03.66-7.36-10.7-4.65-6.7-9.37 7.36-10.7-4.02z"/><path d="M342.7 216.4l-1.33-2.67-6.03-6.7.68-10.7c0-2-.68-3.35-2.68-3.35l-23.43.67-10.7-16.06c-1.3-1.37-2.65-1.37-4.66-.7l-7.36 6.02-8.7-3.35c-2 0-3.35 0-4.7 2-2 4.7-4 12.05-4.67 22.1l-15.4 6.68-6.7 4-.65 2.7v2l4.68 8.03-4.68 9.37v3.34c5.35 6.02 10.7 10.04 18.06 12.7l-1.32 6.04c0 4.68 1.33 10.7 3.34 15.4.7 2 2.03 2.67 3.37 2.67l10.03-2.66 6.7 7.35 4 .67c4.7-2 9.38-6.7 14.74-14.05l14.72 5.35c2.67 0 3.34-.67 4-2.67l2.7-9.35 9.36-3.35c.66 0 1.33-1.35 1.33-2.7v-.65a42.9 42.9 0 0 0-7.4-20.75 35.78 35.78 0 0 0 12.03-16.73l.68-.67zm-52.86-26.77l6.7-5.35 8.7 14.72c.66 1.34 1.33 2 4 1.34l6.7-.67h13.38l-.67 9.37 1.34 2 5.32 5.36c-2.67 6.7-6.7 10.7-12.04 14.06-1.35.67-1.35 2-1.35 2.67l.67 2.68 3.34 4.7c2 3.36 4.02 8.04 4.68 12.7l-7.35 2.7-2.7 2-2 8.04-13.4-5.35c-2-.68-3.33-.68-4.67 1.33l-10.7 12.72-6.03-6.7-3.33-.65-8.7 2-2-11.4 1.33-6.02.67-1.33-.67-1.35-2-2c-6.03-2.02-11.38-6.04-16.07-10.72l4.7-7.37.65-2-.66-1.3-4.03-7.37a63.9 63.9 0 0 1 19.4-8.7l2-3.34c.7-6.7 2.02-13.4 4.03-19.4l7.36 3.34 3.33-.67z"/><path d="M306.57 237.82c2-2.68 2.67-6.03 1.34-10.04-.65-3.35-2.65-6.03-5.33-8.03l-10.03-2c-4.02 1.32-6.7 3.34-8.7 6.02-.68 2.67-1.34 4.67-1.34 7.35v2.68c.65 3.35 2.66 6.02 6 8.7 2.7 1.34 6.03 2 10.04 1.34 3.35-.67 6.03-2.68 8.04-6.02zm-3.35-8.03l-1.34 5.32-5.35 3.35-5.35-.68-4.02-4.7 1.34-6.7c1.34-1.33 2.68-2.66 4.68-3.33l6.7 1.33 3.34 5.37z"/><path d="M284.48 229.8c2 0 2.68-.7 2.68-2.7 0-1.33-.67-2.67-2.68-2.67h-14.72a2.88 2.88 0 0 0-2.68 2.68c0 2 1.34 2.7 2.68 2.7h14.72zm-2 24.08c0 2 0 2.68 1.33 3.35 2.04.66 3.38 0 3.38-1.35l6.7-14.05c-.68 1.34-2.02 2-4.02 1.34-.67-.67-1.34-2-.67-3.35l-6.7 14.06zm4.68-52.88a3.7 3.7 0 0 0-2 3.36l4.68 12.04c.66 2 2 2.67 3.34 1.34 2-.67 2.68-1.34 1.34-3.35l-4.02-10.7-3.34-2.7zm26.1 11.38l-11.38 4.7c-2 1.33-2.67 2.67-2 4 .66 2 2 2 3.34 1.34l12.04-5.35c1.34-.67 2-1.34 1.34-3.34-.66-1.35-2-2-3.34-1.35zm-12.72 22.1c-1.33.66-1.33 2-.67 3.34l2.68 4.68 6.7 6.7 4-1.34c.67-1.34.67-2.02-.66-3.35l-6.05-5.33-2-3.34c-1.35-2-2.02-2.67-4.03-1.33z"/><path fill="#D96038" d="M127.22 127.4l-16.73 2-6.06 3.35c-2.67-5.35-5.35-9.37-9.36-13.38l-5.37-3.35-8.7 5.35-12-3.34c-2.68 7.35-4 15.4-3.35 24.76l-19.4 8 5.35 10.04-5.36 9.37c4.02 3.36 11.38 6.7 22.1 9.37C69 188.95 71 197 75 203.7l10.04-3.36 9.37 7.36c7.38-4 12.06-8.7 16.75-16.06 4.68 4 12.04 4.7 22.08 2.68v-12.05l8.7-6.02c0-3.35-2.68-7.37-6.7-12.05l-5.35-4.68 8.7-16.73-9.37-4.7-2-10.7z"/><path d="M96.43 116.7l-5.35-4.03h-3.35l-6.7 4.7-11.37-2.7c-2 0-3.34.68-3.34 2.7-2.67 6.68-4 13.37-4 22.75l-18.1 7.35c-.65.67-1.32 2-1.32 3.35l.67 2 4 8.04-4.67 8.02v1.35l1.34 2.67c3.34 3.35 10.03 6.7 20.74 10.04 1.34 8.03 3.35 16.06 6.7 22.75.66 1.32 2 2 4 1.32l9.38-2.68 7.36 6.02h4c5.37-3.34 11.4-8.04 15.4-14.73l21.42 2c2-.65 3.34-1.32 3.34-3.33v-10.7l8.04-4.7.67-2.66v-.67c-.7-5.35-4.7-11.38-10.74-17.4l7.36-14.05v-1.34l-1.34-2.68-8.7-4.02-1.34-9.37c-.68-2-1.34-2.66-3.35-2.66-8.7-.66-15.4.67-22.08 4.02l-8.7-11.38zm-13.38 7.35l6.7-4.68c5.35 4.68 9.36 9.36 11.37 14.72l2 2 3.35-.7 4.7-2.67 13.37-2 1.34 8.02 2 2 6.7 4.03-6.7 12.04-1.33 2.67 1.33 2a47.13 47.13 0 0 1 10.72 12.72l-7.37 5.36-1.34 2.66v8.7l-17.4-2-2.7-.67-2 1.32-12.7 14.07-7.38-6.04-3.34-.66-8.06 2.67c-2.67-6.7-4.67-13.38-4.67-20.08l-3.35-2.7c-7.37-2.67-13.38-4.7-17.4-7.35l3.34-6.7.68-2v-1.33l-4.02-7.36c6.7-3.33 11.38-5.33 15.4-6 2-.68 2.67-2 2.67-3.35v-1.35c0-7.36.65-14.05 2.67-18.74l8.7 1.34H83z"/><path d="M106.47 170.23c2-2.68 3.35-6.03 3.35-9.37 0-3.35-1.34-6.7-4.68-9.37-2.02-2.04-5.36-3.38-9.38-3.38-4 0-6.7 2-8.7 4.68-2.67 2.7-4 5.37-4 8.7.66 4.03 2 7.37 4.67 9.4 2.68 2.66 5.35 4 8.7 3.33 4.02 0 7.37-1.34 10.04-4zm-4.68-14.73c1.3 2 2.64 4.02 2.64 5.36v.66l-2.67 5.36a6.14 6.14 0 0 1-5.37 2.68c-2 0-3.33-.68-5.34-2.68l-2.67-5.36c0-2 .65-4 2.66-5.35.67-2 2.68-2.67 5.35-2.67 2 0 3.36.67 5.37 2z"/><path d="M88.4 170.23l-2.67 14.72c-.67 1.34.66 2.68 2 2.68l3.35-1.34 2.68-14.76c0-2-.67-2.68-2-2.68-2.02-.66-3.35 0-3.35 1.35zm14.72-4.7c-1.33.68-1.33 2 0 4.03l13.4 8.03 3.33-.7c1.34-1.34 1.34-2.68 0-3.34l-13.38-8.7c-1.33-1.34-2-1.34-3.35.66zm-22.74-6.68l-12.05 2c-2 .67-2.68 2-2 3.35l2.67 2 12.7-2c1.35-.66 2.02-1.33 2.02-3.34-.67-1.34-2-2.68-3.34-2zm3.34-21.4c-2 0-2.68 1.32-2 3.33l2.67 12.05c0 1.34 1.3 2 3.3 2 1.35-.66 2-2 2-3.34l-3.33-12.08c0-2-1.34-2.67-2.68-2zm28.78 9.35l-10.04 6.03c-2 .67-2.68 2-1.34 3.34 0 2 1.34 2 3.34 2 4.7-2 8.7-4 12.05-7.35 1.37-1.34 1.37-2.68 0-4-1.3-.7-3.32-.7-4 0z"/><path stroke-miterlimit="100" d="M367 582H5V5h362v577z" fill="none" stroke="#000" stroke-width="10"/></svg>