<svg xmlns="http://www.w3.org/2000/svg" width="372" height="587" viewBox="0 0 372 587"><path fill="#fffaf0" d="M0 0h372v587H0z"/><path fill="#333" d="M47.12 397.56c0-3.5-2.1-4.9-5.6-4.9-2.78 0-4.18 1.4-4.18 4.9 0 3.5 1.4 5.58 4.2 5.58 3.48 0 5.58-2.08 5.58-5.58zM62.48 413.62c0-2.8-1.4-4.9-4.88-4.9-3.5 0-5.6 2.1-5.6 4.9l2.1 4.2c.7.7 2.1 1.4 3.5 1.4l3.5-1.4 1.38-4.2zM47.82 361.95c0-3.5-2.1-4.9-4.9-4.9-3.48 0-4.88 1.4-4.88 4.9 0 3.5 1.4 4.9 4.9 4.9 2.78 0 4.88-1.4 4.88-4.9zM32.46 414.32c0-3.5-2.1-5.6-4.9-5.6-3.5 0-5.57 2.1-5.57 5.6 0 3.5 2.07 4.9 5.56 4.9 2.8 0 4.9-1.4 4.9-4.9zM84.13 392.67c0-3.5-1.4-5.58-4.9-5.58-2.8 0-4.87 2.08-4.87 5.57 0 3.5 2.1 4.9 4.88 4.9 3.5 0 4.9-1.4 4.9-4.9zM61.78 462.5c0-2.8-2.1-4.88-5.58-4.88-3.5 0-4.9 2.1-4.9 4.88l1.4 4.2 3.5 1.4 3.5-1.4 2.08-4.2zM37.34 446.44c0-3.5-2.1-5.6-5.58-5.6-2.8 0-4.9 2.1-4.9 5.6 0 2.8 2.1 4.2 4.9 4.2 3.5 0 5.58-1.4 5.58-4.2zM32.46 490.43c0-2.8-2.1-4.88-4.9-4.88-3.5 0-5.57 2.1-5.57 4.88 0 3.5 2.07 5.6 5.56 5.6 2.8 0 4.9-2.1 4.9-5.6zM51.3 488.35c0-3.5-2.08-4.9-5.58-4.9s-4.9 1.4-4.9 4.9l1.4 3.5c1.4 1.38 2.8 2.07 3.5 2.07 3.5 0 5.6-2.1 5.6-5.57zM70.87 435.97c0-3.5-1.4-4.9-4.9-4.9-1.4 0-2.8.7-3.5 1.4-.7 1.4-1.38 2.1-1.38 3.5 0 3.5 1.38 5.58 4.87 5.58 3.5 0 4.9-2.1 4.9-5.58zM28.97 349.38c0-3.5-1.4-4.9-4.9-4.9-3.5 0-5.58 1.4-5.58 4.9 0 3.5 2.08 5.58 5.57 5.58 3.5 0 4.9-2.1 4.9-5.58zM47.12 429.68c0-3.5-2.1-4.9-5.6-4.9-3.48 0-4.87 1.4-4.87 4.9 0 3.5 1.4 4.9 4.88 4.9 3.5 0 5.6-1.4 5.6-4.9zM27.56 467.4l-.7-3.5-4.18-1.4c-2.8 0-4.9 1.4-4.9 4.9 0 3.5 2.1 5.57 4.9 5.57 3.5 0 4.88-2.08 4.88-5.57zM66.67 373.12l-1.4-3.5-4.18-1.4c-1.4 0-2.1.7-3.5 1.4s-1.4 2.1-1.4 3.5c0 2.8 1.4 4.9 4.9 4.9 3.48 0 5.57-2.1 5.57-4.9zM37.34 327.03c0-3.5-2.1-5.58-5.58-5.58-2.8 0-4.9 2.1-4.9 5.58 0 3.5 2.1 4.9 4.9 4.9 3.5 0 5.58-1.4 5.58-4.9zM32.46 379.4c0-3.5-2.1-5.58-4.9-5.58-3.5 0-5.57 2.1-5.57 5.58 0 3.5 2.07 4.9 5.56 4.9 2.8 0 4.9-1.4 4.9-4.9zM39.44 519.77l-1.4-3.5c-.7-.7-2.1-1.4-3.5-1.4-3.48 0-5.57 1.4-5.57 4.9 0 3.5 2.1 4.88 5.58 4.88 3.5 0 4.9-1.4 4.9-4.88zM28.97 552.58l-1.4-3.5c-1.4-.68-2.8-1.38-4.2-1.38-1.4 0-2.8.7-3.5 1.4-1.38 1.4-1.38 2.8-1.38 3.48 0 3.5 1.38 4.9 4.87 4.9s5.6-1.4 5.6-4.9zM315.97 28.16c0-3.5-1.4-4.9-4.2-4.9-1.4 0-2.8 0-3.48 1.4l-2.1 3.5c0 3.5 2.1 4.88 5.58 4.88 2.8 0 4.2-1.4 4.2-4.88zM339.7 47.7c0-3.48-2.1-5.57-4.88-5.57-3.5 0-5.58 2.1-5.58 5.58 0 3.5 2.08 4.9 5.58 4.9 2.8 0 4.9-1.4 4.9-4.9zM350.2 28.16l-.72-3.5-4.2-1.4c-1.38 0-2.07 0-3.48 1.4-1.4.7-2.1 2.1-2.1 3.5 0 3.5 2.1 4.88 5.6 4.88 3.48 0 4.9-1.4 4.9-4.88zM333.43 19.78c0-3.5-1.4-5.6-4.9-5.6-3.5 0-5.58 2.1-5.58 5.6 0 3.5 2.1 4.9 5.6 4.9 3.48 0 4.88-1.4 4.88-4.9zM346.7 89.6c0-3.48-1.4-5.58-4.9-5.58s-5.58 2.1-5.58 5.6c0 3.48 2.1 4.88 5.58 4.88s4.9-1.4 4.9-4.9zM327.83 140.58c0-2.8-2.08-4.18-5.58-4.18-2.8 0-4.2 1.4-4.2 4.18 0 3.5 1.4 5.6 4.2 5.6l4.2-1.4 1.38-4.2zM325.04 96.6c0-3.5-2.1-5.6-5.58-5.6-.7 0-2.1.7-3.5 2.1l-1.4 3.5c0 3.48 1.4 4.88 4.9 4.88 3.5 0 5.58-1.4 5.58-4.9zM315.27 117.54c0-2.8-1.4-4.9-4.9-4.9-3.5 0-5.57 2.1-5.57 4.9l2.08 4.2 3.5 1.4c3.5 0 4.9-2.1 4.9-5.6zM344.6 140.58l-1.4-3.5c-.7-.68-2.8-1.38-3.5-1.38-3.48 0-4.88 1.4-4.88 4.88 0 3.5 1.4 4.9 4.9 4.9 3.48 0 4.87-1.4 4.87-4.9zM339.7 109.16c0-3.5-2.1-4.88-4.88-4.88-2.1 0-2.8.7-3.5 1.4l-2.08 3.48c0 3.5 2.08 4.9 5.58 4.9 2.8 0 4.9-1.4 4.9-4.9zM350.2 199.24l-1.42-3.5c-1.4-1.38-2.08-1.38-3.5-1.38-3.48 0-5.56 1.4-5.56 4.88 0 2.8 2.08 4.9 5.57 4.9 3.48 0 4.9-2.1 4.9-4.9zM322.25 169.9c0-3.48-1.4-5.57-4.2-5.57-2.08 0-2.78 1.4-3.48 2.1l-2.1 3.48 2.1 3.5c.7 1.4 1.4 1.4 3.5 1.4 2.78 0 4.18-1.4 4.18-4.9zM359.96 222.3l-2.1-3.5-3.5-2.1c-1.38 0-2.1 1.4-3.48 2.1-.7.7-1.4 2.1-1.4 3.5l1.4 3.48c1.4 1.4 2.1 1.4 3.5 1.4l3.5-1.4 2.08-3.5zM308.98 146.87l-.7-3.5-4.2-1.4c-2.77 0-4.87 1.4-4.87 4.9s2.1 5.6 4.9 5.6l4.2-2.1.68-3.5zM357.87 116.14c0-3.5-1.4-4.88-4.9-4.88-3.5 0-5.58 1.4-5.58 4.88 0 3.5 2.08 5.6 5.58 5.6s4.9-2.1 4.9-5.6zM357.17 52.6c0-3.5-1.4-5.6-4.9-5.6-3.5 0-5.58 2.1-5.58 5.6 0 2.8 2.08 4.2 5.57 4.2 3.5 0 4.9-1.4 4.9-4.2zM357.87 73.55c0-3.5-1.4-4.9-4.9-4.9-3.5 0-5.58 1.4-5.58 4.9 0 3.5 2.08 4.88 5.58 4.88s4.9-1.4 4.9-4.88zM305.5 91.7c0-2.8-1.4-4.18-4.9-4.18s-5.58 1.4-5.58 4.18c0 3.5 2.1 5.6 5.58 5.6 3.5 0 4.9-2.1 4.9-5.6zM329.24 195.75c0-3.5-2.1-4.9-4.9-4.9-2.1 0-2.8.72-3.5 1.4l-2.08 3.5 2.1 4.2c.7 1.4 1.4 1.4 3.48 1.4 2.8 0 4.9-2.1 4.9-5.6zM355.77 166.42c0-3.5-2.1-4.9-5.58-4.9-3.5 0-4.9 1.4-4.9 4.9l1.4 3.5c1.4 1.4 2.78 1.4 3.5 1.4 3.48 0 5.57-1.4 5.57-4.9z"/><path fill="#D96038" d="M312.48 267.68l14.66-15.37c7.68-11.16 5.6-17.45-4.9-20.24-9.76-2.8-14.65 2.1-13.95 14.67 0 6.98 2.07 13.96 4.18 20.95z"/><path d="M323.65 229.27c-6.3-2.1-11.17-.7-14.66 2.1-5.6 6.28-4.9 18.85 1.38 37l1.4 2.1 2.8-1.4 11.86-11.16c6.3-7.68 9.08-14.66 8.38-19.55-1.4-4.9-5.58-7.68-11.17-9.08zm5.6 10.47v.7c0 6.3-4.9 13.27-14.68 21.65-2.8-7-3.5-12.58-3.5-18.16 0-4.2.7-6.98 2.8-8.4l8.38-1.38c4.2 1.4 6.3 2.8 7 5.58z"/><path d="M313.87 264.2c-2.1 0-3.5.7-3.5 2.77l-9.06 32.13c-.7.7 0 2.1 2.1 3.5l3.48-2.8 8.4-32.12c.7-.7 0-2.1-1.4-3.5z"/><path fill="#FFCDDE" d="M228.68 10l-4.9-11.87c-4.18.7-9.76 3.5-15.35 6.98l-6.98 4.2-11.87-6.98-6.98-4.2-4.9 11.18h-11.87c-.7 6.28 1.4 13.97 4.9 24.45-4.9 4.2-8.4 8.38-11.88 13.96l-4.9 7 9.78 6.98-.7 11.87c7.7 3.5 15.37 4.88 23.75 4.2 0 6.27 3.5 13.26 10.48 20.24l10.47-7 11.17 4.2c4.2-4.2 5.6-11.18 7-20.95l18.84-2.1-1.4-11.18 8.38-8.37c-3.5-4.9-7.68-9.08-12.56-12.57l-6.3-3.5c4.9-7.67 6.3-15.35 5.6-22.34l-9.78-4.2z"/><path d="M241.95 17v-3.5l-2.1-2.8-8.37-3.5-4.2-10.46c-.7-1.4-2.1-2.8-4.2-2.1-6.97 2.1-13.96 5.6-21.64 11.17L184.68-4.65c-2.8-1.4-4.18-.7-4.88 1.4l-4.9 9.07h-9.76c-2.1.72-2.8 2.1-2.8 3.5v1.4c0 4.2 1.4 12.57 4.9 23.04L155.35 46.3l-4.2 6.3-.7 2.1 1.4 2.1 8.38 6.28-.7 10.47c0 2.1.7 2.8 2.1 3.5 6.3 2.8 13.27 4.18 22.35 4.18 1.38 6.3 4.88 13.27 11.16 19.56l4.2.68 9.07-6.98 9.08 3.5h4.2c3.5-4.9 6.3-11.18 6.98-20.26l16.76-2.1c2.1 0 2.8-1.4 2.8-3.5l-.7-9.76 6.28-6.98 1.4-2.8-.7-1.4c-4.2-6.98-9.78-12.56-16.76-16.06 2.8-6.98 4.2-13.27 4.2-18.15zm-6.98-.7v.7c0 6.27-1.4 12.55-4.9 18.14l-.7 1.4.7.7 1.4 2.8 5.58 2.78 9.78 9.78-5.58 5.58-1.4 2.8v.7l1.4 8.38-14.67.7c-2.1 0-3.5 1.4-4.2 3.48-.7 7-2.08 12.58-4.87 16.77l-8.38-3.5h-2.8l-7.68 6.3c-5.57-6.3-8.37-11.17-8.37-16.06l-1.4-2.8-2.1-.7-19.55-3.5V61.7l-1.4-3.5-6.97-4.88c4.88-7 9.78-12.57 13.96-16.06l1.4-3.5v-.7c-2.78-8.37-4.88-14.66-4.88-20.24h8.38l2.8-2.1 4.18-7.68 14.67 9.07 4.2.7 5.57-4.2 12.57-6.28 3.5 9.08 2.78 2.1 7 2.8z"/><path d="M214.02 39.33c-1.4-3.5-4.2-5.6-8.4-6.98l-10.46 1.4c-2.8 2.1-4.9 4.9-6.28 8.38-.7 3.5 0 6.98 1.4 10.47 2.1 3.5 4.88 5.6 8.37 6.98 4.2.7 7.68 0 10.47-1.4 3.5-2.1 4.9-4.88 6.3-8.37 1.4-4.18.7-7.67-1.4-10.47zm-3.5 6.3c0 3.48-1.4 5.57-4.2 7.67l-6.27.7-4.9-4.2-1.38-5.58c1.4-2.1 2.1-4.2 4.18-5.58h6.3l4.87 3.5 1.4 3.48z"/><path d="M195.16 47.7c-1.4-2.08-2.8-2.78-4.2-2.08L177.7 52.6c-2.1.7-2.8 2.1-1.4 3.5 0 1.38 1.4 2.08 3.5 1.38l13.96-6.28c1.4-1.4 2.1-2.1 1.4-3.5zM207.03 58.19c0-2.1-.7-2.8-2.8-2.8-1.4 0-2.8.7-2.8 2.8l.7 16.04c0 1.4.7 2.8 2.1 2.8 2.1 0 2.8-1.4 2.8-2.8V58.18zM187.48 23.27c-.7-1.4-2.1-2.1-4.2-.7-1.4.7-1.4 2.1-.68 4.2l5.57 4.88 4.2 4.2h4.2c.7-2.1.7-3.5-.7-4.2-4.9-3.5-7.7-6.3-8.4-8.38zM216.8 21.18l-4.2.7-9.05 9.77-.7 2.1.7 1.4c2.08 1.38 3.5 1.38 4.18 0l9.08-9.8c1.4-1.38 1.4-2.78 0-4.17zM214.02 47.7h-3.5c-.7 1.4-.7 3.5.7 4.2l4.2 2.8 9.08 3.48c2.78 0 3.5-.7 3.5-2.1 0-2.1 0-3.48-2.1-3.48l-7.7-3.5-4.18-1.4z"/><path fill="#FFCDDE" d="M353.68 585.4v-7.68l17.46-6.28-3.5-10.48 6.3-9.77c-4.2-4.9-9.8-7.7-14.68-9.8l-6.98-2.1c1.4-5.57 2.1-10.46 1.4-16.04l-.7-6.98-10.48-2.1-6.98-11.18c-4.9 2.8-9.77 6.3-13.97 10.48l-6.28 6.3-13.27-5.6-7.68-1.4-2.8 11.17-11.16 3.5c.7 5.58 4.18 13.26 10.47 22.33-6.3 7.7-9.78 15.37-11.88 23.05l11.18 5.6 1.4 11.86 23.74-1.4c2.1 6.98 6.98 12.56 15.36 18.15l8.38-9.77 11.88 2.1c2.1-3.5 2.8-7.7 2.8-13.98z"/><path d="M275.46 572.84c0 2.1.7 3.5 2.1 3.5l9.08 4.17 1.4 9.8c0 2.1 1.4 2.8 2.8 2.8 6.27 2.08 13.25 2.08 23.03 0 2.1 6.27 7.68 11.85 14.67 16.74l4.2-.7 7.67-7.68 9.8 1.4c2.07.7 2.78 0 3.48-2.1 2.78-3.5 3.5-9.08 3.5-16.06v-4.2l10.46-3.48 5.58-2.1 1.4-3.5v-.7l-3.5-9.76 5.6-7.68.7-2.1-1.4-2.8c-5.6-6.27-12.57-9.77-19.56-11.16l1.4-10.47-.7-8.4-.7-3.48-2.78-2.1-9.1-2.1-6.27-9.07c-2.08-2.1-2.78-2.1-4.88-1.4-6.98 3.5-12.57 8.4-18.85 14.67l-12.57-4.2-6.3-1.38c-2.08-.7-4.17 0-4.17 2.07l-2.1 9.78-9.78 2.8c-2.1 0-2.78 1.4-2.78 3.5.7 5.58 4.18 13.26 9.77 22.33-5.6 7.7-9.08 14.67-11.18 23.06zm74.73-53.78l.68 7.7-2.1 11.16v1.4l.7 2.1 2.1 1.4 5.6 2.1c4.18 1.38 7.67 3.48 11.86 6.97l-4.9 6.97v3.5l2.8 7.67-13.96 4.2c-2.1.7-2.8 2.1-2.8 3.48v6.98l-1.4 11.18-9.07-2.1c-.7 0-2.1 0-3.48 1.4l-6.3 6.98c-6.27-4.88-10.46-9.77-11.16-13.27l-1.4-2.8-2.8-.7-20.23 1.4-1.4-9.78-2.1-2.1-7.68-3.48c2.8-6.98 6.28-13.27 10.47-19.55l.7-2.1-.7-1.4c-4.2-7-6.98-12.58-9.08-18.16l8.38-2.8 2.1-2.8 2.8-8.37c6.28 2.1 11.17 3.5 16.05 6.28l4.2-.7 16.05-13.96 5.6 8.37 2.08 1.4 8.4 1.4z"/><path d="M334.12 545.6c-2.1-2.8-5.6-4.2-9.08-4.2-4.2 0-6.98.7-10.47 3.5-2.8 2.8-4.2 6.3-4.2 9.08 0 4.2.7 7.68 3.5 10.47 2.1 2.8 5.6 4.2 9.08 4.2 3.5.7 6.98-.7 9.78-3.5 3.5-2.8 4.2-5.6 4.88-9.77.7-3.5-1.38-6.98-3.48-9.78zm-15.36 2.8c1.4-.7 3.5-2.1 5.58-1.4 2.1 0 4.2.7 5.6 2.1l2.1 6.28c0 2.1-.7 4.2-2.8 5.58-1.4 1.4-3.5 2.1-6.3 2.1l-4.88-2.1c-2.1-2.1-2.8-3.5-2.8-6.28l3.5-6.28z"/><path d="M317.36 557.47h-4.2l-11.86 8.38c-2.1 1.4-2.1 2.8-.7 4.2l3.5.7 11.87-9.08c2.1-.7 2.1-2.1 1.4-4.2zM331.32 565.85c0-1.4-2.08-2.8-3.5-2.1-2.07.7-2.07 1.4-2.07 2.8l3.5 16.06c.68 2.1 2.07 2.8 3.48 2.1 2.1 0 2.8-1.4 2.8-2.8l-4.2-16.05zM304.8 535.82c-.7-.7-2.8-.7-4.2 0-.7 1.4-.7 2.8 0 4.2l11.88 7.68c2.1.7 2.8 0 3.5-2.1 1.38-.7.68-2.1-.7-3.5l-10.48-6.28zM332.73 528.14c-1.4-1.4-2.8-.7-3.5.7l-6.98 11.88c-.7 1.4 0 2.8 1.4 4.18 1.4.7 2.1 0 3.5-1.4l6.28-11.87c1.4-1.4 1.4-2.8-.7-3.5zM336.22 553.28c-1.4-.7-3.5 0-3.5 2.1-.7 1.4 0 2.1 1.4 3.5l4.9 1.38 9.76 1.4c1.4 0 2.1-.7 2.1-2.8 0-1.4-.7-2.8-2.1-2.8l-9.06-.68-3.5-2.1z"/><path fill="#FFCDDE" d="M86.22 579.12L97.4 584l.7 11.88 24.44-6.98c6.28 6.98 13.96 11.87 20.94 15.36l6.3-9.08h12.56c2.1-5.58 2.8-10.48 3.5-16.76l-.7-6.98c6.28-.7 13.26-4.9 20.24-12.57L177 549.1l4.2-11.18c-2.8-2.1-7-4.18-13.27-4.9l-7.7-1.4-1.38-12.55-2.1-6.28-11.17 2.08-9.08-7.68c-7.68 5.6-12.56 12.57-14.66 19.55-4.9-2.8-10.48-4.2-16.06-4.9l-6.98.7-3.5 9.78-11.87 5.6c2.8 6.98 6.98 14.66 12.57 21.64-3.5 4.88-6.28 11.16-9.78 19.55z"/><path d="M139.3 505.1l-4.9-.7c-6.97 5.6-11.86 11.88-14.65 18.16-4.2-2.1-9.78-2.8-14.67-3.5H98.1l-2.8 2.1-2.8 9.08-10.46 4.2c-1.4.7-2.1 2.08-2.1 3.48l.7.7c2.1 6.98 5.58 13.96 11.17 21.64-2.78 4.2-6.27 10.48-9.07 17.46v1.4c0 1.4.7 2.8 1.4 2.8l9.77 4.2.7 9.76c0 2.8 1.4 3.5 3.5 3.5 6.27-.7 13.96-2.8 23.73-6.3 6.3 6.3 12.58 11.18 20.26 14.67 1.38.7 2.78 0 4.17-1.4l5.6-7.68h10.47c1.4 0 2.1-1.4 3.5-2.8 2.1-5.58 2.8-11.17 2.8-19.54v-2.8c6.27-2.1 13.25-5.58 18.84-12.57l1.4-2.1-.7-2.1-7-8.37 3.5-10.48-1.4-2.8c-4.88-3.5-11.86-5.58-20.24-6.3l-1.4-11.85-1.4-4.9c-.7-2.1-2.1-2.78-4.2-2.78l-9.06 2.08-7.7-6.28zm-37.7 20.25c6.27-.7 11.86 1.4 18.15 4.9h2.8l2.78-2.1c1.4-6.3 5.6-11.18 11.17-16.07l7 5.58 2.78.7 7.68-1.4 2.8 13.97v.7c0 2.8.7 3.5 2.8 3.5 6.27 0 11.86 2.1 16.75 4.18l-2.8 9.1v.7l.7 2.1 5.6 7.67c-5.6 5.58-11.17 8.37-15.36 9.07-.7 0-2.1 0-2.1 1.4l-.7 2.1v4.88l-2.1 15.36h-9.77c-1.4 0-2.1 0-2.8.7l-4.88 7.7c-7-4.2-12.58-8.4-16.77-13.28l-4.2-.7-19.54 5.58-.7-8.37-2.8-2.8-7.7-3.48 8.4-14.66.7-2.8-.7-2.1c-4.2-5.58-8.4-11.87-11.18-18.15l9.08-4.18 2.1-1.4 2.8-8.38z"/><path d="M120.44 564.45c2.8 3.5 5.6 5.6 9.08 6.28 3.5.7 6.98 0 10.47-2.08 3.5-2.1 4.88-4.2 6.27-8.4v-2.78l-2.08-7.7c-2.1-3.48-4.9-4.87-8.4-5.56-4.2-1.4-7.68-.7-10.47 1.4-3.5 2.1-4.9 4.9-6.3 8.38-.7 4.2.02 7.68 1.4 10.47zm7.68-13.96l6.3-1.4c2.08.7 3.48 2.1 4.87 3.48 1.4 2.1 2.1 3.5 1.4 6.3l-4.2 5.57-5.58.7-4.9-3.48c-1.4-2.1-2.08-4.2-1.4-6.3.7-2.1 1.4-3.48 3.5-4.88z"/><path d="M137.9 565.85c-.7-1.4-1.4-2.8-3.5-1.4-1.4 1.4-2.1 2.1-1.4 3.5l7 13.96c.7 1.4 2.1 2.1 3.5.72 2.08-.7 2.78-2.1 1.38-3.5l-6.98-13.27zM163.73 552.58c0-1.4-1.4-2.1-2.8-2.1l-16.74 1.4c-1.42 0-2.8.7-2.8 2.8 0 2.1 1.38 2.8 3.48 2.8l16.06-1.4c1.4 0 2.8-.7 2.8-3.5zM122.54 563.06l-3.5 1.4-7.68 8.38c-2.1 1.4-2.1 2.1-1.4 4.18 1.4 1.4 2.1 1.4 4.2.7l9.08-10.48c.7-1.4.7-2.8-.7-4.18zM111.36 543.5l-4.2.7c-.68 1.4-.68 2.8.7 4.2l10.48 7.67h4.2c.7-2.1 0-3.5-.7-4.2l-10.48-8.37zM140.7 530.94c-1.4-.7-2.8 0-2.8 2.1-.7 4.18-2.1 8.37-4.9 11.86-.7.7-.7 2.8 1.4 3.5 1.4 1.4 2.8.7 3.5-.7 3.5-4.9 4.88-9.08 5.6-13.97 0-2.1-.72-2.8-2.8-2.8z"/><path fill="#D96038" d="M82.04 68.66l-9.78-5.58-2.1-11.88-17.45 2.1-6.98 2.8c-2.8-8.4-7.68-13.97-14.66-18.16l-8.38 5.58-12.57-3.5c-2.78 7-4.88 15.38-4.88 25.15-5.6 1.4-11.87 3.5-20.25 7.68l5.6 11.18-7 9.07c4.2 4.2 11.87 7.7 23.04 11.18 0 9.77 2.12 18.15 5.6 25.14l11.18-3.5 9.08 8.38c7.68-4.2 13.26-9.07 18.15-16.05 4.9 4.18 12.58 4.88 23.05 4.18v-13.27l10.48-5.58c-.7-3.5-2.8-8.38-6.98-12.57l-4.9-6.28 9.8-16.06z"/><path d="M73.66 51.2l-3.5-3.5c-7.68 0-15.36.7-22.34 3.5-2.8-4.2-5.6-8.38-9.78-11.87l-4.9-4.2c-.68-.68-2.1-.68-3.48 0L22 39.34l-11.2-2.8c-2.08-.7-3.48.7-4.2 2.1-2.07 6.3-4.17 13.97-4.87 23.75-4.9 1.4-11.17 4.2-18.15 7.68l-2.1 2.8.7 1.4 4.2 9.07-5.6 8.37-.7 1.4 1.4 3.5c4.2 3.5 11.87 6.98 21.64 10.47.7 8.38 2.8 16.75 6.3 23.74.7 2.1 2.1 2.1 4.18 2.1l9.08-2.8 8.38 6.3 3.5.7c6.27-2.8 11.87-7.68 17.44-14.67 5.6 2.8 13.28 3.5 21.66 3.5l3.5-3.5v-11.17l9.06-5.6 1.4-2.08v-1.4c-.7-4.88-4.2-11.17-11.17-17.46l9.08-14.66v-1.4l-2.1-2.8L75.05 61l-1.4-9.78zm-3.5 15.37l7 3.5-7.7 12.56-.7 2.1.7 2.8c4.2 3.48 7.7 9.06 10.48 13.95l-7.68 4.2c-1.4 1.4-2.1 2.1-2.1 3.48v9.78c-7.68 0-13.96-1.4-17.45-3.5l-3.48-.7-1.4 1.4c-4.2 5.6-9.08 9.78-14.67 13.27l-7.67-6.27-3.5-.7-7.68 2.8c-2.8-7.7-4.2-14.67-4.2-21.65-.7-1.4-2.08-2.1-2.78-2.8-6.28-2.1-13.27-4.2-18.86-8.38l4.9-7 .7-1.38-.7-2.1-3.5-7.68c6.28-2.8 11.87-4.88 16.06-5.58 2.1-.7 2.8-2.1 2.8-3.5.7-7.68 1.4-14.66 3.5-20.94l9.77 2.1h2.07l6.98-4.2c5.6 3.5 9.78 9.08 11.18 15.36l2.8 2.1h2.8l4.88-2.8 13.97-2.1 2.1 8.4 1.4 3.5z"/><path d="M50.6 86.12c0-3.5-1.38-7-4.17-9.77-2.1-2.8-5.6-4.2-9.78-4.2s-7 1.4-9.78 4.2c-2.8 2.8-3.5 6.28-3.5 9.77 0 3.5.7 6.98 3.5 9.07 2.8 2.8 5.6 4.88 9.78 4.88s7.68-2.1 9.78-4.9c2.8-2.08 4.18-5.57 4.18-9.06zM36.66 94.5c-2.1 0-4.2-1.4-5.6-2.8-2.08-2.1-2.08-3.5-2.08-5.58 0-2.1 0-4.2 2.1-5.6 1.4-2.1 3.48-2.78 6.27-2.78 1.4 0 3.5.7 4.9 2.8C44.3 81.9 45 84 45 86.1l-2.8 5.58c-1.4 1.4-3.48 2.8-5.57 2.8z"/><path d="M31.05 93.1c-1.4 0-2.8 0-3.5 2.1l-3.48 14.66c0 2.1.7 2.8 2.8 3.5l3.5-2.1 3.48-14.67c0-2.1-.7-3.5-2.8-3.5zM47.82 89.6c.7 1.4.7 2.8 0 4.2l-2.8.7 12.58 9.78 3.5-.7c.68-2.1.68-3.5-1.4-4.2L47.8 89.6zM23.38 84.72c-.7-2.1-2.1-2.1-3.5-2.1l-11.86 2.1c-1.4-.7-2.8 0-3.5 2.8 0 1.4.7 2.1 2.8 2.8l13.26-2.1c2.1-.7 2.8-2.1 2.8-3.5zM27.56 62.38c-.7-2.1-2.08-2.8-3.5-2.1-2.08 0-2.08 1.4-2.08 2.8l2.1 13.27c.7 2.08 1.4 2.8 3.48 2.8 1.4-.72 2.8-2.1 2.1-3.5l-2.1-13.27zM58.3 72.15l-4.2-.7c-2.8 2.8-6.28 4.9-10.47 5.6-2.1 1.38-2.8 2.08-2.1 3.48 0 2.1 2.1 2.8 3.5 2.1 5.58-1.4 9.77-3.5 13.26-7 1.4-1.38 1.4-2.78 0-3.48z"/><path fill="#FFCDDE" d="M120.44 192.96l-9.08-4.2-4.88-11.86c-4.9.7-10.48 3.5-15.37 6.98l-7.67 4.2c-2.8-2.1-6.28-4.2-11.17-7.7l-7-3.48-5.57 11.17-11.88.7c0 5.58 1.4 13.27 4.9 23.74-7 6.3-11.9 13.28-16.07 20.26l9.07 6.98-.7 12.57c7.7 3.5 16.07 4.9 24.44 4.2 0 6.98 3.5 13.27 10.48 20.95l10.47-7.68 11.2 4.2c2.08-2.8 3.48-6.3 4.88-12.58l2.1-7.7 18.84-2.78-1.4-11.18 7.7-7.68c-2.8-5.58-7.7-9.77-11.9-13.27l-6.27-3.5c2.8-4.2 4.9-9.77 4.9-15.36v-6.98z"/><path d="M109.97 175.5c-1.4-2.1-2.8-2.1-4.9-2.1-6.97 1.4-13.96 5.6-20.94 10.48L66.67 173.4c-2.1-.7-3.5 0-4.9 2.1l-4.17 9.08-9.78.7c-2.8 0-3.5 1.4-3.5 2.8v1.38c0 6.3 1.4 14.67 4.9 22.35-7 6.3-11.88 13.28-15.37 20.26l-.7.7 1.4 3.5 7.68 5.58-.7 10.47c0 1.4.7 2.8 2.8 2.8 6.28 3.5 13.27 4.9 22.34 4.9 1.4 6.97 4.9 13.26 10.48 19.55h4.9l9.06-5.6 8.4 3.5 4.88-1.4c3.5-4.18 5.6-10.47 6.98-18.85l16.76-2.8c1.4 0 2.8-1.4 2.8-3.48l-1.4-9.78 6.98-6.98.7-2.1-.7-2.1c-4.2-7.67-10.47-12.56-16.75-16.05 2.8-6.28 4.88-12.56 4.88-18.15l-.7-3.5-1.4-2.78-9.07-2.8-3.5-11.17zm-2.1 14.66l2.1 2.1 7.68 2.8v.7c0 6.28-2.1 12.56-5.6 17.45v3.5l2.1 2.1 4.9 2.78 10.47 9.78-6.28 6.3c-.7 0-.7 1.38-.7 2.08v.7l.7 8.38-14.67 1.4c-2.1 0-3.5.7-3.5 2.8-.7 6.97-2.78 12.56-5.58 16.75l-8.4-3.5-2.78.7-7.68 5.6c-4.9-5.6-7.7-11.17-7.7-16.07l-1.38-2.8-2.8-.7c-6.28.7-13.27-.7-19.55-2.78v-10.47l-.7-2.8-6.97-4.2c3.5-6.97 9.08-12.55 13.97-17.44l.7-2.78v-.7c-2.8-9.78-4.2-16.07-4.2-20.25l7.7-.7 3.48-1.4 3.5-7.68 14.66 9.06h4.2l5.57-3.5 13.28-6.27 3.5 9.06z"/><path d="M96 218.1c-1.4-2.8-4.18-5.6-8.38-6.3l-10.47.7c-2.8 2.1-4.9 4.9-5.6 9.08-1.4 3.5-1.4 7 1.4 10.48 1.4 3.5 4.2 4.9 7.7 5.6l10.46-.7c3.5-1.4 5.6-4.2 7-8.4.7-3.48 0-6.98-2.1-10.47zm-4.9 2.8l1.4 4.18c0 2.8-1.4 4.9-3.48 6.98l-6.3.7-5.57-3.5c-.7-2.08-.7-4.18-.7-6.97l4.2-4.2 6.27-1.4 4.2 4.2z"/><path d="M77.15 225.78c-.7-1.4-2.1-2.1-3.5-.7l-13.96 5.6c-1.4 1.38-2.1 2.08-1.4 4.17.7 1.4 1.4 2.1 3.48 1.4l13.97-6.28c1.4-.7 2.8-2.1 1.4-4.2zM89.72 236.96c0-1.4-1.4-2.8-2.8-2.8-2.1 0-2.8 1.4-2.8 2.8V253c0 1.4 1.4 2.8 2.8 2.8 2.1 0 2.8-1.4 2.8-2.8v-16.04zM69.46 202.04c-1.4-.7-2.8-.7-4.18 0-.7 1.4-.7 2.8 0 3.5l9.77 9.76 3.5-.7c1.4-1.4 1.4-2.8 0-3.5l-9.1-9.06zM98.8 200.63h-4.2l-8.38 9.78c-.7 1.4-.7 2.8 0 4.2h4.2l9.07-10.47c.7-1.4.7-2.8-.7-3.5zM96.7 225.78c-.7-.7-2.1-.7-4.2.7-.68 2.1 0 2.8 1.4 4.2l4.2 2.78 9.07 2.8c2.1.7 2.8 0 2.8-2.1.7-1.4 0-2.8-1.4-3.5l-8.38-2.1-3.5-2.78z"/><path fill="#FFCDDE" d="M269.18 364.74c0 5.6 1.4 13.96 4.9 24.43-7 5.6-11.88 12.58-16.08 19.56l9.1 7-.7 12.55c7.67 3.5 16.05 4.9 23.73 4.2.7 6.28 4.2 13.26 11.18 20.24l10.48-7.68 10.48 4.9c2.8-2.8 4.2-7 6.28-13.28l.7-7.68 19.55-1.4-2.1-11.87 8.37-8.37-11.86-12.57-6.98-3.5c5.58-7.67 7-15.35 6.3-22.33l-9.8-4.2-4.88-12.56c-4.9 2.1-9.77 4.2-16.05 6.98l-7 4.9c-2.8-2.1-6.28-4.9-11.17-7.7l-7-3.48-5.57 10.47-11.88 1.4z"/><path d="M265.7 364.04v1.4c0 5.58 1.4 13.26 4.18 22.35-6.3 6.27-11.17 12.55-14.67 19.54l-.7 1.4 1.42 2.8 7.67 5.57-.7 11.2c0 1.38.7 2.77 2.8 2.77 6.97 3.5 13.96 4.9 21.64 4.9 2.08 6.98 5.58 12.56 11.17 19.54h4.9l8.38-6.26 9.77 4.2 3.5-1.42c3.48-3.5 5.58-9.77 7.68-19.54l11.17-.7 5.58-1.4 2.8-2.8v-1.4l-2.1-9.07 7-6.98 1.38-2.78-.7-2.1c-4.18-6.98-10.47-11.87-16.76-16.06 2.8-6.28 4.9-12.57 4.9-17.46v-3.5l-2.8-2.78-7.68-3.5-4.9-10.47c-1.38-2.8-2.1-3.5-4.18-2.1-5.6 1.4-13.27 4.9-21.65 10.48-2.8-2.1-6.3-4.9-10.48-6.98l-6.98-3.5c-1.4-.7-3.5 0-4.2 2.1l-4.2 8.38-9.76 1.4c-2.8 0-3.5.7-3.5 2.8zm4.18 48.88l-6.98-4.88 13.97-16.76.7-2.1v-2.1c-2.1-6.28-4.2-13.26-4.9-19.55l8.38-.7 2.8-1.4 4.2-7.68 14.65 9.08c1.4 1.4 2.1 1.4 4.2 0l5.58-4.18 13.27-5.6 3.5 9.1 2.08 2.07 7.68 2.8v.7c0 6.28-2.08 11.88-5.57 17.45l-.7 2.1v1.4l2.8 1.4 4.88 3.5 9.8 9.76-5.6 6.28-1.4 2.12 1.4 8.37-14.67 1.4c-2.1 0-3.48.7-4.18 3.5 0 6.97-2.1 12.55-4.2 16.04l-9.07-2.8-3.5.7-7.67 5.6c-4.9-7-6.97-11.88-7.68-16.07l-.7-2.8c-1.4-.68-2.1-.68-2.8-.68l-20.24-3.5.7-9.78-.7-2.8z"/><path d="M308.98 387.1l-10.47 1.38c-3.48 2.1-4.88 5.6-5.58 8.38-1.4 4.2-1.4 7.7.7 10.48 2.8 3.5 4.9 5.58 8.38 6.28l10.47-1.4c2.8-1.4 5.6-4.18 6.3-7.67 1.38-4.2.7-7.7-.7-10.48-2.1-3.5-4.9-6.28-9.1-6.98zm-7.67 6.27l7-.7 4.18 3.5 1.4 4.9c0 2.78-1.4 5.56-4.2 6.97h-5.6l-5.57-3.5c-.68-1.4-1.4-3.48-.68-6.28l3.5-4.9z"/><path d="M297.8 401.75c0-1.4-1.4-2.1-3.48-.7l-13.96 5.58c-.7.7-1.4 2.1-.7 3.5.7 2.1 1.4 2.8 3.48 1.4l13.97-6.3c1.4-.68 2.1-1.38.7-3.48zM311.08 412.23c0-1.4-1.4-2.1-2.8-2.1-2.1 0-3.48.7-3.48 2.1l.7 16.76c0 2.08 1.38 2.78 2.8 2.78 2.07 0 2.78-.7 2.78-2.8v-16.75zM290.83 378.7c-.7-2.08-2.1-2.8-3.5-1.4s-2.1 2.1-1.4 3.5l10.48 9.78h3.5c1.4-1.4 1.4-2.8 0-4.2l-9.07-7.68zM320.15 375.9h-4.18l-8.4 10.5c-1.38.7-1.38 2.78 0 4.18l4.2-.7 9.08-9.77c.7-1.4.7-2.8-.7-4.2zM318.06 401.75l-3.5.7c-1.4 2.1-1.4 2.8.7 4.18l3.5 2.1 9.78 3.5 3.5-2.1c0-2.1-.72-2.8-2.8-3.5l-7.7-2.08-3.48-2.8z"/><path fill="#D96038" d="M164.44 70.06l4.88-11.87-15.36-4.2-9.08-1.4-6.28-17.46-4.2-6.98-10.47 5.6-10.47-5.6c-4.2 2.8-7.68 6.98-10.47 12.57L99.5 47l-15.37-1.38-8.38 2.1 2.1 11.87-9.08 8.36c2.1 5.6 7.67 10.47 15.36 16.07-3.5 4.88-5.6 10.47-6.98 17.45l11.17 3.5 4.2 11.16c9.07-.7 17.45-4.18 22.33-9.07 4.2 6.98 10.48 12.57 18.16 15.36l7-6.98 13.26.7.7-17.46-.7-7.7 18.16-11.86-6.98-9.08z"/><path d="M147.68 49.1l-6.3-16.06-4.18-6.28c-.7-2.1-2.8-2.1-4.2-1.4l-9.07 4.9-9.08-5.6h-3.5c-5.57 4.9-10.47 10.48-13.96 18.16H82.72l-7.68 1.4c-2.1 0-2.8 1.4-2.8 3.5l1.4 11.17-6.98 6.27-1.4 2.8.7 1.4c1.4 4.88 6.3 9.77 13.97 15.35-2.8 4.9-4.9 10.47-6.28 16.07v.68c0 2.1 1.4 2.8 2.8 3.5l9.07 2.8 3.5 9.76c.7 1.4 2.08 2.1 3.48 2.1 8.4-.7 15.37-3.5 21.66-7.68 4.9 6.28 11.17 10.47 17.45 13.27l2.8-.7 7-5.6 11.86.7c2.1 0 3.5-.7 3.5-2.8l.7-11.86V93.1l16.75-11.18.7-2.78v-2.1l-6.27-8.38 4.2-9.07v-1.4l-1.4-2.8c-5.6-2.8-13.28-4.2-23.75-6.3zm-6.3 4.2l3.5 2.8c7 0 13.27 2.08 19.56 4.18l-3.5 8.38v1.4l.7 2.1 5.58 6.27-15.35 9.08c-1.4.02-2.1 1.4-2.1 3.5l.7 13.97v7H137.9l-5.6 5.57c-6.27-2.1-11.16-6.98-13.96-12.57l-2.78-1.4c-.7 0-2.1 0-3.5.7-4.2 4.2-10.47 6.3-17.45 7.7l-2.78-8.4-2.1-2.1-7.68-2.78c.7-4.9 2.8-9.1 5.58-13.3v-1.38l-1.4-3.5c-5.58-3.48-9.77-7.67-12.56-11.86l6.28-5.58 1.4-3.5-1.4-9.77c7.68-1.4 13.96-1.4 18.16 0h2.1l2.1-1.4 2.78-5.58c2.8-4.18 5.6-7.68 8.38-11.17l9.08 5.6h3.5l6.97-4.2c3.5 5.6 7 12.57 8.4 20.25z"/><path d="M115.55 62.38c-3.5.7-6.28 2.8-8.38 6.28-2.1 2.8-2.8 6.28-2.1 9.77.7 4.2 2.8 6.3 5.6 9.08l10.47 2.1c4.2-.7 6.3-2.78 8.38-5.58 2.8-3.5 3.5-6.98 2.8-10.47-1.4-4.2-2.8-6.98-6.3-9.08-2.78-2.1-6.27-2.8-10.47-2.1zm7.7 6.28c2.08 1.4 2.78 3.5 2.78 5.6l-.7 6.27-4.9 3.5c-2.78 0-4.88 0-6.97-1.4-2.1-2.1-3.5-3.5-3.5-7l2.1-4.18c.7-1.4 2.8-2.8 4.9-3.5l6.28.7z"/><path d="M123.24 47c-1.4 0-2.8.7-2.8 2.8l-.7 15.37 2.8 2.8c1.4 0 2.8-1.4 2.8-2.8l.7-15.37c0-2.1-.7-2.8-2.8-2.8zM94.6 61.68c-.7 0-2.1 0-3.5 1.4-.7 2.1 0 3.5 1.4 4.18l13.98 6.3c-1.4-.7-1.4-1.4 0-3.5 0-1.4 1.4-1.4 2.8-1.4L94.6 61.68zM149.77 67.96c-.7-1.4-2.1-2.8-3.5-1.4l-12.56 4.2c-1.4 0-2.1 1.4-1.4 3.48.7 1.4 2.1 2.8 3.5 1.4l11.88-3.5c2.1-1.4 2.8-2.08 2.1-4.18zM132.3 82.63c0-1.4-1.38-2.1-3.48-1.4-1.4 1.4-2.8 2.1-1.4 3.5l4.9 12.57c.7 1.4 2.1 2.08 3.48 1.4l2.1-3.5-5.6-12.57zM114.85 81.23c-.7-1.4-2.08-2.1-3.5-.7-4.87 2.1-8.37 5.6-11.86 9.08-1.4 2.1-.7 3.5.7 4.2l4.18-.7c2.1-2.8 5.6-5.58 9.08-7.68 2.1-.7 2.1-2.1 1.4-4.2z"/><path fill="#D96038" d="M340.4 325.63c-3.48-2.8-8.37-5.58-14.65-8.37l-7.7-2.8-.7-13.96-2.08-7.68-11.18 2.8-7.7-9.78c-5.57 3.5-10.47 9.77-16.05 19.54l-18.86-2.08-7.7.7.7 12.56-10.47 6.98c1.4 7.7 4.9 14.67 11.18 20.95-5.57 3.48-9.07 10.46-9.76 20.94l11.86 3.5 2.8 11.17c6.3.7 13.27-1.4 20.95-6.98l13.27 13.97 7.68-7.7 11.86 1.4c2.1-5.6 3.5-11.87 2.8-17.46l-1.4-7.68c9.08 0 16.76-3.5 21.65-8.4l-2.78-10.46 6.3-11.17z"/><path d="M318.06 290.02l-2.8-.7-10.46 2.1-6.3-7-4.18-1.38c-5.6 4.2-10.47 9.78-16.06 18.85l-17.46-2.1-7.68.7c-1.4.7-2.8 2.1-2.8 3.5v9.76l-8.37 6.28c-.7.7-1.4 1.4-1.4 3.5 1.4 6.98 4.9 13.96 9.77 20.94-4.88 4.9-7.68 11.88-8.37 20.95 0 1.4 0 2.8 2.1 3.5l10.46 2.78 2.1 9.8 3.5 2.1c5.6.7 11.87-.7 20.26-5.6l11.86 12.58 4.9-.7 6.97-7 9.77 1.4 3.5-2.1 2.78-16.75-.7-6.98c8.38-.7 14.67-4.2 20.26-9.08l.7-2.1v-1.4l-2.1-8.37 5.6-10.48v-1.4l-.7-2.8c-6.28-4.87-13.27-8.36-21.65-10.46l-.7-13.26-2.1-7-.7-2.08zm-39.1 18.85c1.4 0 2.8 0 4.18-2.1 4.9-7.67 9.08-12.56 12.57-15.36l5.6 6.3 3.5 1.4 7.67-2.1 2.1 15.36v2.1c0 2.1.7 2.8 2.8 3.5l5.58 2.1c5.58 2.08 9.78 4.18 13.27 6.97l-4.9 7.7-.7 2.07v.7l2.1 8.4c-4.9 4.17-11.17 6.27-17.45 6.27l-2.8 2.1-.7 1.4v1.4l1.4 8.37-1.4 11.17-9.07-.7c-1.4 0-2.1 0-2.8.7l-5.58 6.3-10.47-11.18c-.7-2.1-2.8-2.1-4.2-1.4-6.27 3.5-11.17 5.6-16.75 6.3l-2.1-8.4-2.1-2.8-9.77-2.78c2.1-7.68 4.2-13.27 7.68-15.37l2.1-2.8-1.4-2.77c-4.87-4.9-7.67-10.48-9.07-17.46l7.7-4.9 2.08-2.78-.7-9.08 21.65 1.4z"/><path d="M292.92 326.33l-10.48.7c-2.8 2.1-5.58 4.9-6.28 8.38-.7 4.2 0 7.7 1.4 10.5 2.1 3.48 4.88 5.57 8.38 6.27l10.47-.7c3.5-2.1 4.9-4.2 6.3-8.38 1.4-4.2.7-7.7-1.4-10.48-1.4-2.8-4.2-5.6-8.38-6.3zm-7.68 5.6l6.3-.7 4.87 4.18c1.4 2.1 1.4 3.5 1.4 6.3l-4.18 4.88-6.28.7c-2.1-.7-3.5-2.1-4.9-3.5l-1.4-4.88c0-2.8 1.4-4.9 4.2-6.98z"/><path d="M283.85 331.92c.7-1.4.7-2.8-.7-3.5l-13.27-6.97c-2.1-1.4-3.5-.7-4.2 1.4-.7 1.4-.7 2.78.7 3.48l13.98 6.98c1.4.7 2.8.7 3.5-1.38zM268.48 359.16l1.4-.7 12.56-9.08c-1.4 0-2.08 0-3.5-1.4-1.38-.7-1.38-2.8.7-3.5l-13.25 9.78c-.7 1.4-.7 2.8 0 4.2 0 0 .7.7 2.08.7zM297.1 308.87c-2.08-1.4-2.78-.7-4.18.7-1.4 2.8-1.4 7-1.4 13.97 0 2.1.7 3.5 2.8 3.5 2.1 0 2.8-1.4 2.8-3.5 0-5.6.7-9.77.7-11.18 1.38-2.1.7-3.5-.7-3.5zM301.3 329.82c-1.4 0-2.8.7-2.8 2.8l1.4 2.1 1.4.7 13.27 1.38 3.5-2.8c0-2.08-1.4-2.78-2.8-3.48l-13.96-.7zM295.7 347.98c0-2.1-1.38-2.8-2.78-2.8-2.1 0-2.8.7-2.8 2.8l.7 4.9 2.8 9.77c.7 2.1 2.1 2.1 4.2.7 1.38-.7 2.08-1.4.7-3.5-.7-2.1-1.4-4.9-2.1-7.68l-.7-4.2z"/><path fill="#D96038" d="M249.63 500.9l-8.38 1.4-7.7-11.87-4.87-5.58-9.08 7.68-11.18-4.2c-2.1 5.6-4.18 13.98-4.88 24.45-5.6 2.1-11.18 4.88-16.76 7.68l-6.3 4.2 6.3 10.46-5.6 11.17c4.9 5.6 11.18 10.47 19.57 12.57-2.1 6.98-1.4 13.97 2.1 23.74l11.86-2.78 9.1 8.37c4.88-2.8 9.76-7.7 14.66-16.06 5.57 2.8 11.17 4.2 17.45 5.58l3.5-11.17 10.48-4.2c-.7-6.28-2.8-11.16-6.3-16.76l-4.17-5.6c4.9-2.78 9.07-6.97 11.18-11.86l2.8-6.98-7-7V500.9c-4.18-.7-10.46-.7-16.75 0z"/><path d="M218.9 488.35l-9.08-3.5c-2.78 0-3.5 0-4.2 2.1-2.08 3.48-3.48 10.47-5.57 23.73-4.9 2.1-9.78 4.2-15.37 7.68l-6.28 4.2-1.4 2.1.7 2.1 4.2 8.37-4.2 9.77v1.4l.7 2.1c4.9 5.58 11.18 10.47 18.86 13.27l-1.4 4.88c0 6.3 1.4 11.87 3.5 17.46 1.4 1.4 2.78 2.1 4.18 2.1l10.48-2.8 6.98 7c.7 1.4 2.8 2.1 3.5 1.4 5.57-2.8 10.47-7 14.65-15.37l16.77 4.88 3.5-2.78 2.78-9.07 9.07-3.5 2.1-3.48c-.7-9.1-4.2-16.07-9.08-21.65l9.77-11.88 2.8-6.28v-1.4l-.7-2.1-6.3-6.27v-11.9c0-2.08-.7-3.48-2.78-3.48l-24.45 1.4-6.98-10.47-4.2-6.3h-4.9l-7.67 6.3zm-.7 7.67l3.5-.7 6.28-5.58c4.9 5.6 8.38 10.47 10.48 13.96 0 2.1 2.1 2.8 3.5 2.1l6.97-.7 13.97-.7v9.78l.7 2.1 6.28 6.28c-2.8 6.28-6.98 11.18-11.88 14.66l-2.08 2.1v.7l1.4 2.1 3.48 5.58c2.1 3.5 4.18 7.68 5.6 12.56l-8.4 2.8-2.08 2.8-2.1 7.67-13.97-4.18c-1.4-1.4-3.5-1.4-4.9.7-2.78 6.28-6.97 10.47-11.16 13.26l-6.3-6.28-3.48-.7-9.1 2.1c-1.38-4.2-2.08-8.38-2.08-11.87 0-2.1 0-4.2.7-5.58l.7-2.1-.7-1.4-1.4-1.4c-6.3-2.8-11.87-6.28-16.76-11.16l4.2-7.67.7-2.1-1.4-1.4-3.5-7.68c6.28-4.9 12.57-7.7 18.85-9.77l2.8-3.5c.7-8.38 2.1-15.36 3.5-19.55l7.68 2.8z"/><path d="M235.66 526.75l-10.47-2.1c-4.2 1.4-7 3.5-8.4 6.3-1.4 2.78-2.1 4.87-2.1 6.97v3.5c1.4 3.48 3.5 6.97 6.3 8.36l10.48 2.1 9.07-6.98c1.4-2.8 2.1-6.28 1.4-10.47-.7-3.5-3.5-6.3-6.3-7.68zM221 540.72c-.7-2.8-.7-4.9.7-7l4.88-3.48 6.3.7c2.1 1.4 2.78 2.8 3.48 4.88.7 2.8.7 4.9-.7 6.3-.7 2.1-2.8 3.48-4.9 4.18l-6.27-1.4c-2.1-.7-3.5-2.8-3.5-4.18z"/><path d="M220.3 534.43c0-1.4-.7-2.8-2.8-2.8l-15.36.7c-1.4 0-2.8 1.4-2.8 2.8 0 2.1 1.4 2.8 2.8 2.8l15.37-.7c2.1 0 2.8-.7 2.8-2.8zM221.7 547.7l-5.6 14.66c-1.4 2.1 0 3.5 1.4 3.5 2.1.7 2.8 0 3.5-1.4l6.28-15.37c-.7 2.1-2.1 2.8-3.5 2.1-2.1-.7-2.1-2.1-2.1-3.5zM223.1 510c0-2.1-1.4-2.8-3.5-2.8-2.1.7-2.1 2.1-2.1 3.48l2.8 6.98 2.8 5.6c.7 2.08 1.4 2.08 3.48 1.4 1.4-1.4 1.4-2.1 1.4-4.2l-4.9-10.47zM251.02 519.77c-1.4-2.1-2.1-2.8-4.2-1.4l-11.85 5.6c-1.4.68-2.1 2.08-1.4 3.48.7 2.1 1.4 2.8 3.5 1.4l11.86-5.6c2.1-.7 2.1-2.1 2.1-3.48zM238.46 542.1c-.7-.7-2.8-1.4-3.5-.7-2.1.7-2.8 2.8-1.4 3.5l2.8 4.2 7.68 6.97c1.4 1.4 2.1 1.4 3.5-.7 1.4-1.4 1.4-2.8-.7-3.5l-5.6-6.27-2.78-3.5z"/><path fill="#D96038" d="M248.93 450.63l-7.68 2.8 2.8 12.56-8.4 8.38c2.8 4.88 8.4 9.07 16.77 13.97-2.8 5.57-4.2 11.86-4.9 18.15l11.2 2.8 4.88 10.47c9.77-2.1 16.76-5.6 21.64-11.18 5.6 7.68 11.87 11.86 19.56 13.25l6.98-7.67h13.27c.7-4.9 0-10.48-.7-16.77l-2.1-8.36 17.47-13.27-8.4-9.08 3.5-11.18-15.36-3.5h-9.08L302 435.27l-4.18-6.28-10.48 6.27-10.47-5.6c-6.3 6.3-10.48 13.28-13.28 20.96-3.5-1.4-8.4-1.4-14.67 0z"/><path d="M261.5 446.44l-14.67 1.4-7.68 2.1c-.7.7-1.4 2.1-1.4 3.5v.68l2.8 10.48-6.98 6.98-1.4 2.8.7 1.4c2.1 4.18 7.68 9.07 15.36 13.96-2.1 5.6-3.5 11.17-4.2 16.06v.7c0 1.4 1.4 2.8 2.8 3.5l9.1 2.78 4.17 8.38c.7 2.1 2.1 2.1 3.5 2.1 9.07-1.4 16.05-4.9 21.64-9.78 5.6 6.3 11.87 9.78 18.86 11.87.7 0 2.1 0 2.8-1.4l6.27-6.28h11.88l3.5-3.5v-4.88l-2.8-18.87 10.47-7.68 5.58-4.88 1.4-2.1-.7-2.8-6.98-6.98 2.8-9.08v-1.4c0-2.1-.7-2.8-2.1-3.5l-23.74-3.5-7.68-16.04-4.9-6.3-4.2-.68-8.36 5.58-9.78-4.2-3.5.7c-4.88 4.9-9.08 11.88-12.57 18.87zm4.2 7l1.4-2.1c2.78-6.3 5.57-11.88 9.76-16.77l9.78 3.5h2.78l7.7-4.9c4.18 6.98 7.68 13.27 9.76 19.55l3.5 2.8 20.25 2.1-2.8 8.37v.7l1.4 2.78 5.58 5.6-13.95 10.47c-1.4.7-2.1 1.4-2.1 3.5v.68l1.4 6.3 1.4 13.26v1.38h-9.77l-2.8 1.4-5.6 5.6c-6.27-1.4-11.16-5.6-15.35-11.18l-2.1-1.4c-1.4 0-2.1.7-2.8.7-4.18 4.88-10.46 7.68-17.45 9.77l-3.5-7.68-2.77-2.1-7.68-2.1c.7-6.3 2.8-11.17 4.2-13.97v-1.4l-1.4-3.48c-6.3-2.8-10.5-6.3-13.98-10.48l5.6-6.28 1.4-2.1v-1.4l-2.1-9.1c6.98-2.78 13.26-3.48 17.46-2.08h2.8z"/><path d="M272.67 477.87l.7 3.5c0 3.48 2.8 6.97 6.28 8.37l10.48.7c3.5-.7 6.28-2.8 7.7-6.3 2.07-2.78 2.77-6.27 1.38-10.47-1.38-4.2-3.48-6.28-6.28-8.38l-10.48-1.4c-3.5 1.4-6.28 3.5-8.37 6.98-.7 2.1-1.4 4.2-1.4 7zm15.37 7.68l-5.6-.7-4.18-4.9c-.7-2.08-.7-4.18.7-6.27 1.4-2.1 2.8-3.5 4.9-4.2l6.27.7 4.2 4.9c0 2.8 0 4.88-.7 6.28l-5.6 4.2z"/><path d="M290.83 450.63c0-1.4-.7-2.1-2.8-2.1-1.4 0-2.1 1.4-2.1 2.8l.7 14.66c0 2.1.7 3.48 2.8 3.48 1.4 0 2.1-1.4 2.1-3.5l-.7-15.35zM261.5 466c-2.1-.7-2.8 0-3.5 1.4-.7 2.08 0 2.78 1.4 3.48l15.36 5.58c-1.4 0-2.1-2.08-1.4-3.5 0-1.38 1.4-2.08 2.8-2.08l-14.67-4.9zM315.97 467.4c0-1.4-.7-2.8-2.8-2.1-4.2.7-8.37 2.8-12.57 5.6-2.1 1.38-2.1 2.07-.7 3.48.7 2.1 1.4 2.1 3.5 1.4l10.47-4.9c2.1 0 2.8-1.4 2.1-3.48zM300.6 483.45c-.7-2.1-2.1-2.1-3.5-1.4-2.08.7-2.08 1.4-1.38 3.5l5.6 11.86c1.38 1.42 2.78 2.1 4.18 1.42 2.1-.7 2.1-2.1 1.4-3.5l-6.3-11.87zM269.88 497.4l3.5-1.38 5.57-5.6 3.5-2.78c1.4-.7 1.4-2.8.7-4.2l-4.2-.7-3.5 2.8-6.97 7.7c-1.4 2.1-.7 2.78 1.4 4.17z"/><path fill="#D96038" d="M42.23 149.67l7 9.07-4.2 11.88c6.28 5.57 13.96 9.07 21.64 10.47-1.4 6.27 0 13.96 4.9 23.03l11.86-4.9 9.08 7.7c4.9-2.8 9.1-9.08 12.58-18.16l18.85 3.5 2.1-11.18 9.77-5.6c-1.4-5.6-4.2-11.17-8.38-16.06l-4.88-4.9C129.52 148.98 133 142 134.4 135l-8.37-6.98-.7-12.57-16.76 2.1-9.08 2.08-8.4-10.47-5.57-5.58-8.38 9.07-11.18-2.8c-2.1 5.6-2.8 13.97-2.1 25.15-8.37 3.5-16.05 8.38-21.64 14.67z"/><path d="M137.9 135l-1.4-3.5-6.98-5.58-.7-11.17c-.7-2.1-2.1-2.8-3.5-2.8-6.27-.7-13.96.7-23.73 3.5l-9.1-9.78-4.88-4.2h-4.9l-6.27 7-9.78-2.1c-2.1-.7-3.5.7-4.2 2.1-1.38 4.18-2.78 10.47-2.78 19.55v4.9C52 136.4 45 141.97 40.13 146.86l-1.4 2.8.7 2.08 5.58 7.7-3.5 9.76v1.42l1.42 2.78c5.57 4.9 12.56 8.4 20.24 10.48v1.4c0 6.3 1.4 13.27 5.6 20.25.68 2.1 1.4 2.1 4.18 2.1l9.77-4.2 7.68 6.3h4.2c4.9-2.8 8.4-8.4 12.57-16.08l16.77 2.1 3.5-2.8 1.38-9.07 9.08-5.58 1.4-2.8v-.7c-2.8-8.38-6.3-15.36-11.87-20.25 5.58-5.6 9.07-12.57 10.47-19.55zm-85.2 23.74l-.7-2.1-4.88-6.28c5.6-5.6 11.87-9.78 18.16-12.57l2.1-2.8-.7-6.98 2.1-13.97 7.66 1.4h3.5l5.6-7 11.85 13.3c.7 1.38 2.1 2.07 4.2 1.38l6.27-2.1 13.96-2.1.7 9.1c0 1.38.7 2.08 1.4 2.77l7 5.6c-1.4 5.58-4.9 11.17-10.5 16.06l-1.38 2.1 1.4 2.8 4.18 4.17 6.98 12.58-7.66 3.5-1.4 2.8-1.4 8.37-14.66-2.8c-2.1-1.4-3.5-.7-4.9 1.4-2.08 6.98-4.88 11.18-9.07 14.67l-6.97-4.9-2.8-.7-9.07 2.8c-2.8-4.9-3.5-9.08-3.5-13.96v-5.6l-2.78-2.08c-6.3-1.4-12.58-4.2-18.16-8.4l3.5-9.06v-1.4z"/><path d="M97.4 144.07l-10.48-.7c-3.5 2.1-6.28 4.2-7.68 7.7l-1.4 5.58c0 6.28 2.8 9.77 8.38 12.56l10.48.7 7.68-7.67c2.1-3.5 2.1-6.98.7-10.47-2.1-3.5-4.2-6.3-7.7-7.7zm-13.27 9.78c1.4-2.8 2.8-3.5 4.9-4.88h5.57l4.9 4.88c.7 2.1.7 4.2 0 6.3l-4.9 4.18c-2.1 1.4-4.2 1.4-6.28 0l-4.2-4.9c-.7-2.08-.7-4.18 0-5.58z"/><path d="M83.43 153.85l-3.5-2.1-14.66 2.1c-2.1 0-2.8 1.4-2.8 3.5.7 2.1 1.4 2.1 3.5 2.1l14.67-2.1c2.1 0 2.8-1.4 2.8-3.5zM87.62 183.88l4.2-16.06c-.7 2.1-1.4 2.1-3.5 2.1-1.4 0-2.1-2.1-1.4-3.5l-4.88 15.37c0 2.08.7 3.48 2.1 3.48l3.48-1.4zM82.73 129.4c0-1.38-2.1-2.78-3.5-2.1-2.08.72-2.08 2.1-2.08 3.5l6.98 12.58h3.5c2.1-1.4 2.1-2.1 1.4-3.5-3.5-4.88-5.6-8.37-6.3-10.47zM111.36 135.7c-1.4-2.1-2.8-2.1-3.5-.7L96 141.98c-1.4 1.4-1.4 2.1-.7 3.5s2.1 2.1 4.2 1.4l10.47-7c2.1-1.4 2.1-2.8 1.4-4.18zM101.6 159.44h-3.5c-1.4.7-2.1 2.1-.7 3.5l3.48 3.48 7.7 6.28c2.08.7 3.48.7 4.18-1.4.7-1.4.7-2.1-1.4-3.48-2.1-1.4-4.2-2.8-6.28-4.9l-3.5-3.48z"/><path fill="#F00" d="M275.46 88.2h-122.2c2.1 41.2.7 90.8-6.28 147.35-13.27 113.13-44 207.4-90.78 282.12l138.26 4.18c39.8-67.73 64.95-159.9 75.42-277.9 6.28-58.67 7.68-111.04 5.58-155.74z"/><path d="M153.26 84.72l-2.8 1.4c-.7 0-.7 1.4-.7 2.1 2.1 42.59 0 92.17-6.27 148.74-13.98 112.42-44 206-90.1 279.32-.7.7-.7 2.08-.7 3.5l3.5 1.38 138.26 4.2 2.8-1.4c39.8-67.04 64.94-159.92 76.1-277.23 6.3-59.36 7.7-111.73 5.6-158.52 0-2.08-2.1-3.48-3.5-3.48h-122.2zm3.5 6.98h115.2l.7 30.73c0 62.15-4.18 122.2-13.25 180.16-13.26 88.68-35.6 161.3-67.03 215.76l-129.9-4.2c37.02-60.73 63.56-134.76 78.92-222.04 10.47-56.57 16.05-114.52 16.05-171.8l-.7-28.62z"/><path d="M183.3 135l8.36 1.4h15.37l-11.17 38.4c-13.27.7-20.25 2.8-20.95 7.68v1.4c0 3.5 1.4 6.98 2.8 9.77 2.1 3.5 4.2 5.6 6.98 6.98 3.5.7 5.6 0 7.7-2.8l8.37-17.44h39.8l16.06.7c2.1 0 2.8-.7 2.8-2.8 0-1.4-.7-2.8-2.8-2.8l-16.05-.7h-38.4L214 132.9v-.7l-.7-2.1-2.8-.7-16.75 1.4-9.1-1.4c-1.38 0-2.78 0-3.48 2.1 0 1.4.7 2.1 2.1 3.5zm-.7 55.86c-1.4-2.8-2.1-4.9-2.1-6.98l.7-.7 13.26-2.8-5.58 13.98-2.1.7-4.2-4.2z"/><path d="M237.76 153.16c-2.1 0-2.8.7-2.8 2.8-.7 17.45-4.9 31.4-13.96 41.9-.7 1.38-.7 3.48 0 4.18l4.2-.7c9.77-11.18 14.65-26.54 15.35-45.4l-2.8-2.78zM211.22 222.3c-1.4 0-2.1.7-2.8 2.78l-6.28 36.3H183.3c-2.1 2.1-2.8 4.9-2.1 9.08 2.1 5.6 4.18 8.4 9.07 8.4 2.1 0 5.6-.7 9.08-3.5l6.28-6.98c7.7 2.8 14.67 5.58 18.86 7.68h-5.6c-1.4 0-2.8 1.4-2.8 2.8 0 2.08.7 2.78 2.1 2.78 9.08.7 13.28 0 13.97-3.5v-.7c0-2.78-1.4-4.18-4.2-6.27l-20.93-7.7 6.98-37.7c0-2.1-.7-2.78-2.8-3.48zm-24.44 46.08v-2.8l12.57 1.4c-2.8 4.2-5.58 6.28-9.08 6.28-1.4 0-2.8-1.4-3.5-4.88z"/><path d="M210.53 231.36c-1.4-.7-3.5.7-3.5 2.1 0 2.1 0 2.8 2.1 3.5l5.58 1.4 13.3 2.1c1.38 0 2.77-.72 2.77-2.8 0-1.4-.7-2.8-2.8-2.8l-17.44-3.5zM169.32 277.45c-1.4-2.1-2.1-2.8-4.18-1.4-1.4.7-2.1 2.1-.7 3.5l1.4 4.88 2.1 10.48c.7 4.2 0 13.97-2.1 26.55-1.4 13.96-4.2 23.74-7 30.02-2.8 8.38-1.4 16.76 3.5 23.74 3.5 5.6 8.38 8.4 13.97 8.4 8.38 0 16.77-4.2 26.54-11.88 9.08-8.38 16.76-18.85 22.35-30.72.68-1.4 0-2.8-1.4-3.5-2.1-.7-2.8-.7-3.5.7-5.6 11.87-12.57 20.96-20.95 28.64C190.97 373.8 183.3 378 176.3 378c-3.48 0-6.97-2.1-9.07-5.58-4.2-6.28-4.9-12.57-2.8-18.16l7-32.12c2.08-13.27 2.78-23.04 2.78-27.93l-2.78-12.56-2.1-4.2zM177.7 420.6c-8.38-4.2-16.76-4.2-26.53-.7-7.68 2.8-14.67 7.7-18.86 13.97-4.87 6.3-4.87 11.88-1.38 16.07 2.1 2.1 3.5 2.8 6.3 2.1 6.27 0 16.04-9.08 27.22-26.54l.7-2.1-.7-.7 11.17 2.8c7.7 3.5 11.18 9.07 11.18 16.05v2.1c0 7-3.5 13.27-10.47 18.85-6.98 7-15.36 11.88-27.23 13.97-1.4 0-2.1 1.4-2.1 2.8v.7c0 1.4 1.4 2.1 3.5 2.1 12.57-3.5 22.35-8.4 30.72-16.07 6.97-6.3 10.46-13.97 11.17-20.95 1.4-11.88-3.5-20.26-14.67-24.45zm-41.2 25.84h-2.1v-2.8c0-2.1.7-4.18 2.1-6.97 5.6-7 13.27-11.18 22.35-12.58-9.08 14.66-17.46 22.34-22.35 22.34z"/><path fill="#858585" d="M251.72 37.24l15.37-2.1c10.46-3.5 16.05-13.27 16.05-27.93-14.67-.68-24.44 4.2-29.33 13.98l-2.1 16.06z"/><path d="M285.94 7.2c0-1.4-1.4-2.78-2.8-2.78-11.87-.7-20.94 2.1-27.22 8.38-3.5 4.9-6.3 9.77-6.98 16.05v8.4c0 2.08.7 2.78 2.08 2.78l8.4.7c6.97-1.4 12.55-3.5 16.74-6.98 6.28-5.6 9.78-14.67 9.78-26.54zM254.5 35.15c0-7.68 1.42-13.96 5.6-18.15 4.9-4.2 10.48-7 19.55-7 0 9.08-2.78 15.36-6.98 18.86-4.2 4.18-10.47 6.28-18.16 6.28z"/><path fill="#858585" d="M352.98 303.3c11.17-2.8 17.45-11.18 18.85-25.85-13.96-2.8-24.44.7-30.03 10.47-3.5 4.2-4.88 9.78-4.88 14.67l16.06.7z"/><path d="M334.12 302.6c0 2.1.7 2.78 2.1 3.48 9.77 2.8 17.46 1.4 25.14-3.5 6.98-4.88 11.86-13.25 13.27-24.43 0-2.1 0-3.5-2.1-3.5-11.87-2.08-20.95 0-27.24 4.9-4.9 3.5-8.38 9.07-9.78 14.66l-1.4 8.4zm14.66-18.17c4.9-4.2 11.18-5.58 19.56-4.88-1.4 9.08-4.2 15.36-9.78 18.85-4.88 2.8-11.86 4.2-18.85 2.1.7-7 3.5-12.58 9.08-16.07z"/><path fill="#858585" d="M341.8 470.9c7.68 7.67 18.16 9.06 32.13 3.48-5.6-13.97-13.27-20.95-24.45-20.95l-15.36 3.5 7.68 13.96z"/><path d="M332.73 454.12c-.7 1.4-1.4 2.1-1.4 2.8 0 2.1 1.4 4.2 3.5 8.38 2.78 5.6 6.97 9.77 11.87 12.57l27.93-1.4c2.1 0 2.1-1.4 2.1-3.5-4.2-10.47-10.5-18.15-18.86-20.94l-17.46-1.4c-4.18 1.4-6.97 2.8-7.67 3.5zm37 18.16l-20.25.7c-5.58-2.8-9.77-7.7-12.56-15.36l19.55-.7c4.9 2.1 9.77 6.98 13.26 15.36z"/><path fill="#858585" d="M304.8 66.57C297.82 54 288.04 47.7 276.87 49.8l-13.97 6.3 9.77 12.56c8.38 6.28 18.85 5.6 32.13-2.1z"/><path d="M306.88 65.17C301.3 55.4 294.32 49.1 285.94 47c-5.58-1.38-11.87 0-17.46 2.1l-7.68 4.2c-1.4 1.4-1.4 2.1-1.4 3.5l4.9 7.67c4.18 5.6 9.07 8.38 13.96 9.78 8.38 2.8 17.45 1.4 27.23-4.9l1.38-4.18zm-6.28.7c-8.38 4.2-14.66 4.88-20.24 3.5-6.3-2.1-10.48-6.3-13.97-12.58 6.27-4.2 11.86-5.6 17.45-4.2 6.28 1.4 11.86 5.6 16.75 13.27z"/><path fill="#858585" d="M84.13 25.36C83.43 14.2 75.75 7.2 61.78 2.32c-5.58 13.97-3.5 24.44 4.9 32.13 4.18 4.18 9.07 6.28 13.96 6.98 2.8-4.2 3.5-9.78 3.5-16.07z"/><path d="M83.43 42.82c4.2-9.07 4.2-17.46.7-25.13C81.33 9.3 73.66 3.7 62.48.22c-1.4-1.4-2.8 0-3.5 1.4-4.18 11.17-4.18 20.24.7 27.92 3.5 7.7 10.48 12.58 20.96 14.67 1.4 0 2.1 0 2.8-1.4zm-3.5-23.04l.7 8.38-1.4 10.47c-7.67-3.5-12.56-6.98-14.65-11.87-2.1-3.5-2.8-6.28-2.8-10.47l1.4-9.78c9.08 2.8 13.97 7.67 16.76 13.26z"/><path fill="#858585" d="M57.6 551.2c-11.88.68-19.56 7.67-23.75 21.64 13.97 5.58 24.44 4.18 32.12-4.2L72.95 554c-4.18-2.1-9.77-2.8-15.35-2.8z"/><path d="M75.75 554.68c.7-1.4 0-2.8-1.4-2.8-8.38-4.18-17.45-4.88-25.84-2.1-7.67 3.5-13.95 11.18-17.45 22.36-.7 1.4 0 2.8 2.1 3.5 11.17 4.18 20.26 4.18 27.94 0 8.36-4.2 12.55-11.2 14.65-20.96zm-37.7 16.76c3.48-8.38 7.67-13.97 13.26-16.06h18.86c-2.8 7.68-6.98 12.57-11.87 15.35l-20.26.7z"/><path fill="#858585" d="M45.02 269.07c-9.07 5.6-12.56 16.06-10.47 30.03 14.67-1.4 23.74-7.7 26.54-18.86l-.7-16.06-15.38 4.9z"/><path d="M63.18 263.48l-2.8-2.08-8.38 2.08c-6.28 1.4-11.17 4.2-14.66 8.4-5.58 7.67-6.98 16.74-4.88 27.92 0 2.1 1.4 2.8 3.5 2.8 11.16-2.1 19.53-6.3 23.73-13.98 3.48-4.2 4.88-9.77 4.88-16.75l-1.4-8.4zm-25.84 27.24c0-5.6.7-11.17 4.2-14.66 3.48-4.9 9.77-7.68 16.75-8.38l.7 5.58c0 4.9-.7 9.08-3.5 12.57-2.8 4.9-9.78 8.38-18.16 9.78v-4.88z"/><path fill="#D96038" d="M89.72 301.2l-16.06 13.26c-8.38 10.48-7 17.46 2.8 20.95 10.46 4.2 15.36-.68 16.05-13.26l-2.78-20.95z"/><path d="M91.1 298.4l-2.78.7c-16.06 11.17-23.74 20.95-23.04 28.63.7 4.2 4.18 7.68 10.47 10.48l13.97-.7c4.18-3.5 5.6-10.47 4.88-20.94l-2.1-16.06-1.4-2.1zm-13.95 34.9c-3.5-2.08-5.6-3.48-6.28-6.27 0-5.58 5.57-12.56 16.75-20.95l2.1 13.97c0 6.98-1.4 11.18-3.5 13.26-2.1 1.42-4.88 1.42-9.07 0z"/><path d="M103 267.68c-1.4-.7-3.5 0-3.5 1.4L87.6 299.8c-1.4 2.1-.7 3.5 1.4 3.5 1.4.7 2.8.7 3.5-.7l12.56-31.43c0-2.1 0-3.5-2.1-3.5z"/><path stroke-miterlimit="100" d="M364.58 579.58H7.42V7.42h357.16v572.16z" fill="none" stroke="#000" stroke-width="14.84"/></svg>