<svg xmlns="http://www.w3.org/2000/svg" width="372" height="587" viewBox="0 0 372 587"><path fill="#fffaf0" d="M0 0h372v587H0z"/><path fill="#D96038" d="M34.92 35.63l20.3 4.73c-2.02-6.76-4.05-13.53-6.76-18.95C42.36 9.9 35.6 8.57 28.16 16c-6.77 8.12-4.06 14.2 6.76 19.63z"/><path d="M57.94 39.7l-5.42-14.9C49.14 16 45.07 10.58 39.66 9.23c-4.74-1.35-8.8.68-12.86 5.4-4.06 4.75-5.4 8.8-4.06 13.55 2.7 7.45 13.54 12.18 31.8 14.9h2.72l.68-3.4zM27.48 26.14V24.8c0-2.03.67-4.74 3.38-6.77 2.7-3.38 5.42-4.06 7.45-3.38 5.42 1.35 9.48 8.8 12.87 22.33-13.54-2.03-21.66-5.4-23.7-10.83z"/><path d="M53.2 39.02c-1.36 1.34-1.36 2.7 0 4.05l23.7 21.66 4.05-.68c1.35-.67 1.35-2.03 0-3.38l-23.7-22.34-4.05.7z"/><path fill="#858585" d="M306.33 49.84c4.06-10.15 2.03-20.3-7.45-30.46-11.5 8.8-14.9 18.95-11.5 29.1 2.03 4.75 5.4 9.48 8.8 12.86l10.15-11.5z"/><path d="M300.24 17.35l-3.4-.68c-8.8 8.13-13.52 16.25-13.52 24.37 0 8.8 3.38 15.57 10.83 22.34h3.38c8.12-4.74 12.18-12.2 12.86-20.3 1.34-8.8-2.04-16.93-10.16-25.73zm-4.06 39.93c-4.74-5.4-6.77-10.82-6.77-16.24 0-6.1 2.7-11.5 8.8-17.6 5.42 6.1 7.45 11.5 7.45 16.25v2.02c-1.35 6.77-4.06 11.5-9.47 15.56z"/><path fill="#858585" d="M317.83 66.76c11.5-1.35 18.28-8.8 22.34-23-13.54-4.07-23.7-2.04-31.14 6.08l-6.1 14.2 14.9 2.72z"/><path d="M342.2 45.1c.67-2.03 0-3.38-1.35-3.38l-27.08 1.35c-4.74 2.7-8.8 6.77-10.83 12.2l-2.7 8.1c0 2.04 0 2.72 1.35 3.4l8.1 2.02c6.1 1.35 11.52 0 16.93-2.04 7.45-3.38 12.86-10.83 15.57-21.66zm-25.72 2.03l19.63-.67c-2.7 7.44-6.76 12.86-12.18 15.56h-17.6c1.36-6.77 4.75-11.5 10.16-14.9z"/><path fill="#858585" d="M177.05 29.54c2.04 10.82 10.16 17.6 24.37 20.3 2.7-14.2 0-23.7-8.8-30.46l-14.9-5.4c-1.34 5.4-2.02 10.14-.67 15.56z"/><path d="M186.53 13.3l-8.8-2.04-2.03 2.03-2.03 8.1c0 6.78.68 11.52 3.38 16.93 4.74 6.77 12.2 11.5 23.7 13.54l2.7-2.03c2.7-10.83 2.03-20.3-3.38-27.07-2.7-4.06-7.45-6.77-13.54-9.48zm12.86 26.4l-.7 6.08c-8.1-2.7-14.2-6.1-16.9-10.83-1.36-3.38-2.7-6.77-2.7-10.83 0-2.7 0-5.4 1.34-7.44 6.77 1.35 12.18 4.73 15.57 9.47 2.04 3.4 3.4 8.12 3.4 13.54z"/><path fill="#858585" d="M26.13 70.82c7.44 12.86 16.24 17.6 27.75 15.57 5.4-.7 10.15-3.4 13.53-6.78-2.02-4.74-5.4-8.8-10.14-11.5-8.8-6.1-18.95-4.74-31.13 2.7z"/><path d="M24.77 68.8c-2.03 1.35-2.03 2.02-.67 3.37 6.1 10.16 13.53 15.57 20.98 16.92 8.8 1.35 16.92-1.36 24.36-7.45 1.36-1.35 1.36-2.03 0-2.7C66.06 70.14 59.3 64.72 51.17 62c-8.8-2.03-16.92 0-26.4 6.77zm25.04-1.36c6.1 1.35 10.84 5.42 14.23 11.5-6.1 4.07-12.2 5.42-17.6 4.74-5.4-.67-10.83-4.74-15.56-11.5 6.76-4.74 13.53-6.1 18.94-4.74z"/><path fill="#D96038" d="M55.23 237.3l.67-20.3-17.6 10.84c-10.15 8.12-10.15 14.9-.67 20.3 9.48 4.75 14.9 1.36 17.6-10.83z"/><path d="M54.55 214.3l-13.53 8.13c-8.13 6.1-12.87 11.5-12.87 16.25 0 4.73 2.72 8.8 8.13 12.17l14.2.68c4.07-3.38 6.78-9.47 7.46-18.95L58.6 217l-1.34-2.7h-2.7zm-2.03 6.77l.68 3.4c0 12.17-2.03 20.3-6.1 22.32L39 245.43c-4.06-1.36-5.4-4.06-5.4-6.1v-.66c.67-4.75 6.76-10.84 18.94-17.6z"/><path d="M69.44 187.23L53.2 215.66c-.68 1.35-.68 2.7 1.35 3.4l3.4-.7 16.23-27.74c.68-2.03.68-3.4-1.36-4.07-1.35-1.34-2.7-.67-3.38.68z"/><path fill="#D96038" d="M319.86 114.14c-2.03 6.1-2.7 12.86-2.03 20.3l17.6-10.15c9.48-8.13 10.83-14.9 2.03-20.3-9.47-6.1-14.9-2.72-17.6 10.14z"/><path d="M319.2 136.47l14.2-6.76c7.45-5.4 12.2-11.5 12.86-16.23.68-4.07-2.03-8.13-7.44-12.2-4.74-3.38-9.48-4.05-14.22-1.34-6.1 4.06-9.47 14.88-9.47 34.5l1.35 2.04h2.7zm8.1-31.8c2.72-.68 5.42-.68 8.8 1.35 3.4 2.02 4.75 4.73 4.75 6.76-.68 5.42-6.77 11.5-20.3 16.92 0-13.53 2.7-22.33 6.76-25.04z"/><path d="M315.8 133.1l-17.6 27.06c-1.35.68-.67 2.7.68 3.4 1.36 1.34 3.38.66 4.06-.7l17.6-27.07c.68-1.36 0-2.7-1.35-4.07l-3.4 1.36z"/><path fill="#D96038" d="M336.78 232.58l-17.6-8.8 2.04 20.3c3.38 11.52 9.47 14.9 18.27 8.8 8.1-6.1 8.1-12.86-2.72-20.3z"/><path d="M317.16 221.07c-.68.68-.68 1.36-.68 2.7 0 18.3 3.38 29.8 10.83 33.85 4.07 1.36 8.8.68 13.54-2.7 5.42-3.4 7.45-7.45 6.77-12.2-.67-8.1-10.14-15.56-27.74-21.65h-2.7zm20.98 29.78c-3.4 2.04-6.1 2.7-8.13 1.36-5.4-2.02-7.43-10.82-8.1-24.36 12.85 5.42 19.62 10.15 20.97 15.57v.68l-4.73 6.77z"/><path d="M298.88 194.68c-2.03.68-2.03 2.7-1.35 4.06l18.95 26.4h4.06c1.35-.68 1.35-1.36 0-3.4l-18.28-26.38c-1.35-1.36-2.02-1.36-3.38-.68z"/><path fill="#858585" d="M183.82 288.76c6.1-12.2 6.1-23-1.35-30.46l-12.2-9.47-4.72 14.88c-1.36 11.52 5.4 19.64 18.27 25.06z"/><path d="M189.24 263.04c-2.03-4.74-5.42-8.8-10.83-12.2l-7.44-4.72c-1.35 0-2.03 0-3.38 1.35l-3.4 7.45c-2 6.08-2 11.5-.66 16.92 2.03 8.12 8.8 14.9 18.95 19.62 1.35.68 2.03.68 3.4-1.35 5.4-10.14 6.75-18.95 3.37-27.06zm-18.28-10.83c6.77 3.4 11.5 8.13 13.54 12.87l1.35 7.45-3.38 12.85c-8.12-4.74-12.2-9.47-14.21-14.9l-.68-5.4c0-3.4 1.35-7.45 3.38-12.86z"/><path fill="#858585" d="M327.3 297.55c.7-14.2-3.38-23-12.85-28.42l-14.9-3.38.7 15.56c3.37 10.84 12.85 15.58 27.06 16.25z"/><path d="M322.57 271.83c-4.06-4.06-8.8-6.76-14.9-7.44l-8.1-1.36c-2.04 0-2.72 1.35-2.72 2.03l-.68 9.47c.68 5.42 2.7 10.83 6.1 14.9 4.73 6.76 13.53 10.15 25.04 10.82 1.36 0 2.7-.67 2.7-2.03.7-12.18-2-20.3-7.43-26.4zm-20.98 0v-3.38c7.43 0 12.17 2.7 16.9 6.77 4.07 4.06 6.1 10.15 6.1 17.6v2.02c-8.8-1.35-14.9-4.06-18.27-8.8-3.4-3.37-4.74-8.12-4.74-14.2z"/><path fill="#FFCDDE" d="M286.02 45.78l-9.47 1.35-8.8-6.77-8.12 12.87-3.4 6.76h-18.26l.67 10.15-8.8 5.4c2.7 4.75 8.13 10.16 15.57 15.57-2.7 8.13-3.37 14.9-2.7 22.34l10.16.68 4.74 9.48c7.44-.7 13.53-3.4 18.95-7.45 3.38 4.74 9.47 8.12 17.6 10.15l4.06-10.15 10.16-2.03-1.36-11.5-3.38-6.78 13.54-10.15-6.77-8.1 2.7-8.8c-5.42-2.7-10.16-4.07-15.57-4.07l-5.42.68c0-8.12-2.02-14.88-6.08-19.62z"/><path d="M294.82 61.34c-.68-4.73-1.35-8.12-4.06-12.85l-2.7-4.75-2.72-1.35-8.12 1.35-7.44-5.42h-4.06c-4.07 4.74-8.12 10.16-11.5 17.6l-16.93.68c-2.04 0-2.72 1.36-2.72 3.4l.68 8.8-6.77 4.73c-.7 0-2.04 1.35-2.04 2.03l1.35 2.03c2.05 4.73 6.78 9.47 14.23 14.88-2.03 6.77-2.7 12.18-2.7 18.27v3.4c0 2.02.67 2.7 3.38 2.7l7.45.67 4.74 7.45c.66 1.35 1.34 2.03 3.37 2.03 5.42-.68 11.5-2.7 18.28-6.77 4.06 4.06 10.15 7.45 16.92 9.47 2.03 0 2.7-.68 3.38-2.02l3.4-8.8 8.78-1.36 2.7-3.38v-2.7l-3.37-14.22 11.5-9.48.68-2.03-.68-2.02-6.1-6.76 2.72-8.13-2.7-3.4c-6.1-3.38-12.87-4.73-18.96-4.06zm-6.1 2.7v1.37l1.36 2.04 2.7.67h4.07l12.18 2.05L307 76.9v.7l.68 2.7 4.74 5.4-10.16 6.78-2.02 3.38.67 1.36c2.72 4.73 4.08 9.48 4.08 13.53l-7.45 2.03c-1.35 0-2.03.7-2.03 1.36l-3.4 7.44c-6.08-2.03-10.14-4.06-12.17-7.44l-2.7-1.36h-2.04c-5.42 3.4-10.16 6.1-15.57 6.77l-4.06-6.77c-.68-1.35-2.03-2.03-2.7-2.03h-6.78c0-6.76.67-12.86 2.7-18.27v-1.35l-1.35-2.03-12.2-12.18 5.43-4.06 1.35-2.7-.68-7.46 14.9.68 3.38-2.7 2.7-5.42 6.1-10.16 6.76 4.74 2.03.68 6.77-.68c2.7 3.38 4.73 8.8 4.73 14.2z"/><path fill="#FFCDDE" d="M160.8 55.94l-10.14-2.7c-3.38 6.08-4.06 13.52-4.06 20.96l-18.27 6.77 5.4 9.48-6.08 8.8c4.06 3.38 10.15 6.1 19.63 8.8 0 8.12 1.35 15.57 4.73 21.66l10.17-2.02 8.12 6.76c5.4-3.38 10.8-8.12 14.2-14.2 4.74 3.38 11.5 4.05 20.3 3.38l.68-10.83 8.8-5.43-6.1-10.15-4.73-5.42 8.8-14.2-8.8-4.74-1.35-9.48-14.9 1.35-6.08 2.03c-2.03-4.05-4.07-8.12-7.45-11.5l-4.73-3.4-8.13 4.08z"/><path d="M205.48 62.7L202.1 60l-19.63 2.7-7.45-10.83-4.73-3.38h-2.72l-6.77 4.05-10.14-2.7c-2.03 0-3.4 0-3.4 2.02-2 4.74-3.37 11.5-4.05 20.3l-16.23 6.1c-.68.67-2.03 2.03-2.03 2.7l.68 1.36 4.06 8.12-4.74 6.77-.68 2.03.68 2.03c4.07 3.38 10.15 6.1 18.95 9.48.67 7.44 2.7 14.2 4.73 20.3 1.35 2.03 2.03 2.7 4.74 2.03l7.44-2.04 6.78 5.4 3.38.7c6.77-2.72 11.5-7.45 14.9-12.87l19.62 2.7 2.7-3.38.7-9.48 6.76-3.38 2.02-3.4v-.66c-1.35-4.07-4.73-9.48-9.47-15.57l7.44-12.2V77.6l-2.03-2.72-7.44-4.06-.68-8.12zm-45.34-3.38l2.7-.68 6.1-3.4c4.06 3.4 7.44 8.14 8.8 13.55l2.7 1.35h2.7l4.75-2.04 11.5-1.34.67 6.77 1.35 2.03 6.1 3.38-6.78 10.84-.67 2.02 1.35 2.03 8.13 12.2-6.1 3.37c-1.35 1.35-2.03 2.03-2.03 3.38v8.13c-6.77 0-12.18-1.35-14.2-3.38l-2.72-.67-14.2 12.86-6.1-5.4h-3.4l-6.76 2.02c-2.03-5.4-3.38-12.18-3.38-18.28l-2.7-3.38c-7.45-2.03-12.2-4.06-15.57-6.77l4.04-5.42.68-2.03-.68-1.35-2.7-6.1c4.74-2.7 8.8-4.06 13.54-5.4 1.35 0 2.7-1.36 2.7-3.4 0-6.1.68-12.18 2.03-16.92l8.13 2.04z"/><path fill="#FFCDDE" d="M215.63 194.68c-3.38-3.38-7.44-6.77-11.5-8.8l-6.1-2.03c3.4-6.77 3.4-13.54 1.36-20.3l-8.8-2.03-6.1-9.48c-3.4 2.03-7.45 4.74-12.18 8.12l-4.74 5.42c-2.7-2.03-6.77-3.4-10.83-5.42l-6.77-2.03-2.7 10.16-10.16 2c0 5.43 3.4 11.52 8.13 20.32-5.42 6.77-8.8 12.85-11.5 19.62l9.46 4.07.7 10.84c6.76 2.02 13.53 2.02 20.3 0 1.35 6.1 6.1 10.83 12.85 16.24l7.45-8.12 10.15 2.03c2.7-4.07 3.4-10.16 3.4-18.3l14.88-4.72-2.7-8.8 5.4-8.8z"/><path d="M133.74 170.3v.7c.68 5.4 3.38 11.5 6.77 19.62-4.06 6.08-7.44 12.18-10.14 18.27v1.34c0 1.36 1.35 2.04 2.03 3.4l7.43 3.37.68 8.14c0 2.02 1.36 2.7 2.7 3.38l18.97.68c2.7 5.4 6.77 10.15 12.85 14.88l4.07-.67 6.75-6.1 8.12 1.38c2.04 0 2.7 0 3.4-1.37 2.02-4.04 4.05-9.46 4.05-16.9v-.68l13.54-4.06 1.35-3.38v-.68l-2.02-7.45 4.74-6.76v-4.75c-4.74-5.42-10.15-8.8-16.92-11.5l2.03-9.48-1.36-8.8c-.68-1.35-1.35-2.03-2.7-2.7l-7.45-1.36-4.74-8.1c-1.35-2.05-2.7-2.72-4.06-1.37l-16.92 11.5-16.24-6.08c-2.03 0-3.4.67-4.06 2.7l-2.7 8.13-7.46 2.03c-2.02 0-2.7 1.36-2.7 2.7zm73.1 33.17l2.03 7.45-11.5 2.7c-2.04 0-2.72.7-2.72 3.4v3.37l-2.03 10.83-7.44-.68-2.7.68-5.43 5.4c-5.4-4.05-8.12-8.1-9.47-12.17l-.68-2.03-2.7-.68c-6.1 1.35-11.5 1.35-16.92 0l-.68-7.44-2.7-2.7-5.42-3.38c2.03-4.75 5.4-10.15 8.8-14.9l1.35-2.7-.68-2.03c-2.7-4.75-5.4-9.5-7.44-14.9l6.78-2.03 2.7-2.04 2.03-6.76 13.55 5.42c2.03 1.33 3.38 1.33 4.06-.7l4.75-4.05c3.38-2.7 6.1-5.42 9.47-6.77l4.07 6.77 2.02 1.35 6.77 2.03.66 4.74-2.7 12.18v1.36l2.7 2.04 4.74 1.35c3.38 2.02 6.77 4.05 9.47 6.76l-4.06 5.4-.66 2.7z"/><path fill="#FFCDDE" d="M48.46 110.75c-1.35 6.77-2.03 15.57-.68 24.37-3.38 1.35-7.44 3.38-12.86 6.1l-6.1 4.05 6.78 9.48-4.73 10.82c4.05 2.7 12.18 5.42 23 7.45 1.36 8.8 4.74 16.92 8.8 23.68l10.16-5.4 10.15 6.76c6.77-4.06 11.5-10.83 14.9-17.6 5.4 3.4 13.53 3.4 22.32 0l-1.35-12.18 9.48-6.77-8.13-10.8-6.1-5.43c3.4-4.73 6.1-10.83 7.46-16.92l-10.16-4.06-3.38-10.16c-5.42 0-11.5 1.35-16.24 3.38l-6.1 4.06c-2.7-4.73-6.1-8.8-10.15-12.18l-6.1-3.4-8.1 6.78-12.87-2.03z"/><path d="M25.45 145.27l.67 2.04 5.42 8.12-4.06 8.13v2.03l.67 2.7c4.07 2.03 11.5 5.42 23.02 7.45 1.35 8.12 4.73 15.57 8.8 22.34 1.35 2.02 2.7 2.02 4.06 1.35l8.8-4.06 8.8 5.4H85c4.75-3.37 9.5-8.8 14.9-16.23 6.1 2.02 12.86 2.02 21.66-.68 1.35 0 2.03-1.35 2.03-3.38l-.7-10.16 7.45-6.07 1.36-2.7v-1.37c-2.02-4.74-6.76-10.15-13.53-15.56l6.77-14.9v-1.35l-2.03-2.7-9.47-3.4-2.03-9.46c-.67-2.04-1.35-2.04-3.38-2.04-8.12 0-14.9 2.03-21.66 6.1L76.2 106c-3.37-2.03-4.73-3.4-5.4-3.4l-3.4.7-6.76 5.4-11.5-1.35c-2.03 0-3.4 0-4.07 2.03-.67 5.4-1.35 11.5-1.35 16.24v7.45c-5.4 2.02-10.83 5.4-16.24 10.14-1.36 0-2.03 1.35-2.03 2.03zm26.4-31.13l8.8 2.03 2.7-1.36 6.1-4.72c6.08 2.7 10.14 6.77 12.85 12.86l2.7 2.03 2.72-.68 4.73-2.72c4.06-2.03 8.8-3.38 13.54-4.06l2.02 8.12 2.03 2.04 6.77 3.38-5.42 12.86-.67 1.35 1.35 2.7 11.5 12.2-6.76 6.08-1.36 2.03.68.68.68 8.8-17.6-.68h-2.7l-2.04 1.36c-2.7 6.1-6.76 11.5-11.5 15.56l-8.12-5.4h-3.4l-7.43 3.37c-3.4-6.77-5.42-12.86-6.77-20.3l-3.4-2.04-18.94-6.1 3.38-6.75.68-2.03-.68-1.36-4.73-6.78 14.9-8.12 2.7-3.38v-.68l-.68-8.8 1.34-11.5z"/><path d="M78.92 138.5c-4.06 0-7.45 1.36-9.48 4.06-3.38 2.7-4.06 5.42-4.06 9.48 0 3.38.68 7.44 4.06 9.48 2.7 2.7 5.42 4.05 9.48 4.05 3.38 0 6.76-1.34 9.47-4.05 2.02-2.04 3.38-6.1 3.38-9.48 0-4.06-1.36-6.77-3.4-9.48-2.7-2.7-6.08-4.06-9.46-4.06zm-6.1 8.13c2.04-2.03 3.4-2.03 6.1-2.03 2.03 0 4.06 0 5.4 2.03 1.36 1.35 2.04 3.38 2.04 5.4l-2.03 5.43c-1.35 2.02-3.38 2.7-5.4 2.7-2.72 0-4.07-.68-6.1-2.7-1.36-1.36-2.03-2.7-2.03-5.42 0-2.03.67-4.06 2.03-5.4z"/><path d="M72.83 161.52l-.68 14.88 2.03 2.7 3.38-2.7 1.36-14.88c0-1.36-.68-2.04-2.7-2.7-2.04 0-3.4 1.34-3.4 2.7zM87.72 154.75c-1.36 2.03-1.36 2.7.67 3.38l14.2 8.12c1.36.68 2.7.68 3.4-1.35.67-1.35.67-2.7-1.36-4.06L91.1 153.4c-1.35-.7-2.7 0-3.38 1.35zM64.03 150l-12.2 4.07c-1.34.68-2.7 1.35-1.34 3.4 0 2 1.34 2 3.37 2l11.5-4.05c2.04-.67 2.72-2.03 2.04-3.38-.67-2.03-2.02-2.03-3.37-2.03zM64.7 127.67c-2.03.68-2.03 2.03-2.03 4.06l4.74 12.2c.7 1.34 2.04 2 3.4 1.34 2.03-.68 2.03-1.35 2.03-3.4l-4.74-12.17c0-2.02-2.04-2.02-3.4-2.02zM95.16 135.12c-2.03 2.7-5.4 5.42-9.48 6.77-1.35 1.34-2.7 2.7-1.35 4.04.68 2.04 2.03 2.04 3.4 1.37 4.72-2.7 8.78-5.4 12.17-8.8.68-1.35 0-2.7-.68-4.06l-4.06.68z"/><path fill="#FFCDDE" d="M304.3 139.86l-.68-6.1-11.5 1.36-8.13-7.44c-4.74 2.7-8.8 6.76-12.2 11.5l-3.38 6.1c-4.73-3.4-9.47-4.74-14.88-5.42h-7.45l-3.4 9.47-11.5 4.74c1.35 6.77 5.42 14.2 10.83 22.33l-7.45 10.83-3.38 6.77 10.83 4.74.68 12.18 23.7-5.4c5.4 6.76 12.18 12.17 19.62 15.55l6.1-8.8 12.18.68c3.38-7.44 4.73-14.88 3.38-22.33 6.77-.68 13.54-4.07 20.3-10.84l-7.44-10.15 4.74-10.82c-2.03-2.02-6.1-4.05-12.18-5.4l-7.45-1.36-1.35-12.18z"/><path d="M286.7 124.97l-4.06-.68c-6.77 4.05-12.18 10.14-16.25 16.9-4.07-2.7-8.8-3.37-13.54-4.73h-6.77l-2.72 2.03-3.38 8.13-10.15 4.73c-1.36 0-2.03.68-2.03 2.7v.7c1.35 6.08 4.74 13.52 10.15 21.64-3.4 4.07-6.77 9.48-9.48 16.25l-.68 1.35c0 1.36.67 2.7 2.03 3.4l8.8 4.05.67 9.47c0 2.03.68 3.4 2.7 3.4l23.02-4.75c5.42 6.1 12.2 11.5 18.95 14.9 2.02.67 3.38.67 4.73-.7l4.74-8.1 10.15.66 3.38-2.03c3.4-6.76 4.74-13.53 4.74-20.98 6.1-2.02 12.18-5.4 18.95-11.5l.67-2.04-.68-2.02-6.1-8.13 3.4-9.47.66-1.35-1.35-2.02c-3.38-3.4-10.14-6.1-18.27-8.13l-1.35-10.82-.68-4.74c-1.35-2.04-2.7-3.4-4.06-2.72l-9.47 1.35-6.77-6.76zm6.1 13.53l7.44-.67 2.02 10.82v3.4c0 2.7.68 3.37 2.7 3.37 6.1.67 11.52 2.04 15.58 4.74l-2.7 8.12-.68 1.35.67 2.04 6.1 7.44c-6.77 4.75-11.5 7.45-16.25 8.13l-2.03.68-1.35 2.72h.67v2.7c0 5.42-1.35 10.83-3.38 16.25l-8.8-.68-3.4 1.34-4.73 6.77-16.25-13.53c-1.35-1.35-2.03-2.02-3.38-1.35l-19.63 5.42v-8.8l-2.7-2.7-6.76-4.07 8.8-14.2.67-1.37-.67-2.7c-4.73-5.42-7.44-11.5-9.47-17.6l8.8-4.06 2.03-1.35 2.7-7.46c6.1-.68 11.5 1.35 17.6 4.74l3.38.67 2.03-2.03 2.72-5.4 9.47-9.5 6.08 6.1 2.7.68z"/><path d="M289.4 183.85c2.04-2.7 3.4-6.1 3.4-9.47 0-4.07-1.36-6.77-3.4-9.48-2.7-2.04-6.08-4.06-9.47-4.06-4.06 0-6.77 2.02-10.15 4.06-2.03 2.7-3.4 5.4-3.4 9.48 0 3.38 1.37 6.77 3.4 9.47 3.38 2.7 6.1 4.06 10.15 4.06 3.38 0 6.77-1.35 9.48-4.05zm-15.56-14.9c2.03-2.02 3.4-2.02 6.1-2.02 2.02 0 3.38 0 5.4 2.03 1.36 1.35 2.04 2.7 2.04 5.42l-2.03 6.08c-2.03 1.36-3.4 2.03-5.42 2.03-2.7 0-4.06-.68-6.1-2.04-1.34-2.02-2.02-3.38-2.02-6.08s.7-4.07 2.04-5.42z"/><path d="M279.25 182.5c-2.03 1.35-2.7 2.03-2.03 3.38l6.1 13.53c.68 1.37 2.03 2.05 3.38 1.37 2.03-.68 2.7-2.03 2.03-3.38l-6.1-13.55c-.67-2.03-2.02-2.7-3.38-1.35zM263.7 181.15l-7.46 8.8c-2.03.67-2.7 1.35-1.35 3.37.67 1.36 2.02 2.04 4.05.68l9.48-9.47c.67-1.36.67-2.7-1.36-4.07l-3.38.7zM267.07 169.63l-9.47-8.8c-1.36-.67-2.04-.67-4.07 0l-.67 2.7.67 1.37 10.16 8.8h3.37c2.03-2.03 2.03-3.4 0-4.07zM283.3 152.04l-4.05 11.5c-1.35 1.36-1.35 2.7 0 3.4 1.36.67 3.4.67 4.07-.7l6.1-12.85c0-2.04-.7-3.4-2.72-3.4-1.35 0-2.7 0-3.38 2.04z"/><path fill="#D96038" d="M133.74 433.6C75.54 421.4 32.9 409.22 5.14 396.36l.68 90.7C33.57 499.9 76.9 511.4 135.1 522.93c73.1 14.2 151.6 23 235.53 26.4V459.3c-83.93-2.02-162.44-10.8-236.9-25.7z"/><path fill="#9260C7" d="M5.14 396.37c27.75 12.86 70.4 25.05 128.6 37.22 74.45 14.9 152.96 23.68 236.9 25.7V349.7c-79.88 4.74-164.48-3.38-254.5-25.72-45.34-11.5-82.57-22.34-111.67-34.5l.67 106.92z"/><path fill="#858585" d="M5.82 487.06v100.18h364.8v-37.9c-83.92-3.4-162.43-12.2-235.53-26.4C76.9 511.42 33.56 499.92 5.8 487.06z"/><path d="M2.44 286.73c-.68 1.35-1.36 2.03-.68 2.7l1.35 297.8c0 2.03 1.37 2.7 2.72 2.7h364.8c1.36 0 2.7-.67 2.7-2.7V349.68l-1.34-2.7-1.36-.7c-78.5 5.43-163.1-2.7-252.45-24.35-45.34-11.5-83.25-23-113.03-35.2h-2.7zm365.48 65.64v232.16H9.2L6.5 293.5c35.87 13.53 77.15 25.7 125.2 36.55 83.94 19.62 162.45 26.4 236.22 22.32z"/><path fill="#FFF000" d="M62 284.02l-25.04-8.12v43.3L62 326.67v-42.64z"/><path d="M34.92 273.2c0 1.34-.67 2.02-.67 2.7v43.3c0 1.37.67 2.04 2.03 2.7l25.04 7.46 2.7-.68.7-2.02v-42.64l-2.05-2.7-25.04-8.13h-2.7zm4.74 6.1l19.63 6.07v37.23l-19.64-6.1v-37.2z"/><path fill="#FFF000" d="M131.03 302.3L106 294.83v43.32l25.03 6.1V302.3z"/><path d="M104.64 292.14l-1.36 2.7v43.32c0 1.36.68 2.04 1.36 2.04l25.71 6.77 2.7-.7.7-2v-41.98l-2.04-2.7-25.03-7.46h-2.03zm4.06 6.1l19.62 6.08v36.55l-19.62-4.74v-37.9z"/><path fill="#FFF000" d="M174.35 353.05l26.4 6.1-.68-41.97-25.04-8.12-.68 44z"/><path d="M173.67 306.36l-1.35 2.7v44c0 1.35 0 2.7 2.03 2.7l25.04 5.42 2.7-.68.67-1.36v-41.96l-2.03-2.7-25.04-8.12h-2.03zm23.7 12.85l.67 36.56-20.3-5.4v-37.9l19.62 6.75z"/><path fill="#FFF000" d="M244.06 318.53l-.67 42.65 26.38 2.7-.68-41.28-25.04-4.07z"/><path d="M244.74 315.83h-2.03l-1.35 2.7v42.65c0 2.03.68 2.7 2.04 2.7l26.38 2.7 2.03-.67.7-2-.7-41.3-2.02-3.4-25.04-3.37zm2.03 5.4l19.62 3.4.67 36.55-20.98-2.04.67-37.9z"/><path fill="#FFF000" d="M313.1 325.3l-.68 40.6 26.4.7-.68-39.26-25.04-2.04z"/><path d="M340.85 369.3l.67-2.7-.67-39.26c0-1.36-.68-2.04-2.7-2.7l-24.38-2.04h-2.7l-.68 2.7-.7 40.6c0 1.37.7 2.04 2.72 2.04l25.72 2.03 2.7-.68zM315.8 328l19.63 2.05.68 33.84-20.3-.7V328z"/><path fill="#858585" d="M4.47 269.8C33.57 282 70.8 293.5 116.14 305c90.02 21.66 174.62 30.45 254.5 25.05V316.5c-79.88 5.42-164.48-3.37-254.5-25.04-45.34-11.5-82.57-23-111.67-34.52v12.87z"/><path d="M371.98 314.47l-1.36-.67c-78.5 5.4-163.1-3.38-252.45-25.04-45.34-10.84-83.25-22.34-113.03-34.52l-2.7.68c-.68 0-.68.68-.68 2.02v12.87l.68 2.72c30.45 12.85 69.03 23.7 114.38 35.2 90.02 21.64 175.3 29.77 253.8 25.03 1.36 0 2.7-.68 2.7-2.7V316.5l-1.34-2.03zM6.5 268.45V261c36.55 14.22 78.5 25.73 125.2 36.55 83.93 18.96 162.45 25.73 236.22 21.66v8.14c-75.13 4.73-155.67-3.4-240.95-22.34-46.02-11.5-85.95-23-120.47-36.55zM380.78 462.02c1.35 0 2.7-.68 2.7-2.7 0-1.36-1.35-2.04-2.7-2.04-96.1-2.02-189.5-13.54-280.2-36.54-45.35-11.5-81.9-23-108.97-34.53-1.35-1.33-2.7 0-4.06 1.37-.67 2.03 0 2.7 2.04 3.4 27.07 12.16 63.62 23.68 109.64 34.5 91.37 23.02 184.77 35.2 281.56 36.55zM386.2 552.7c2.02 0 2.7-.67 2.7-2l-.68-2.05-1.35-1.35c-100.17-2.7-195.6-15.57-287.65-37.9-46.7-11.5-83.25-22.34-109.64-33.16-2.03-.68-3.4 0-4.06 2.02-.68 1.36 0 2.7 2.02 3.4 27.08 10.82 63.63 21.65 110.33 33.15C190.6 537.16 286.7 550 386.2 552.7z"/><path fill="#D96038" d="M279.93 217.7l-3.38-6.78-10.83 3.4-9.48-7.46-11.5 10.15-4.74 5.43c-3.38-1.35-7.45-2.7-14.2-3.38l-8.14 1.34v11.5l-9.47 6.1c.67 6.08 4.73 11.5 12.17 17.6-4.06 5.4-7.44 10.15-8.8 16.24l9.48 4.74 2.03 11.5c9.48.68 16.92-1.35 23-5.4 3.4 8.1 8.14 13.53 14.9 16.9l8.8-5.4 12.18 2.7 3.4-15.57v-8.78c5.4-.68 11.5-3.4 18.94-7.45l-4.74-10.84 6.1-9.47c-2.7-2.7-7.45-4.74-13.54-6.77l-8.8-3.4c0-5.4-1.36-10.82-3.4-16.9z"/><path d="M286.7 231.9l-4.06-16.24-2.7-6.77c-.7-1.36-2.72-2.04-4.07-1.36l-9.48 2.7-7.45-6.1h-4.06c-5.43 2.72-10.16 7.46-16.26 14.23l-13.53-2.03-8.1.67c-1.37 0-2.72.7-2.72 3.4v10.15l-8.12 4.74-1.36 2.7v1.35c.68 5.4 4.74 11.5 10.83 16.92-3.38 4.73-6.1 8.8-7.44 14.2v1.36l1.34 2.7 8.8 4.75 1.36 9.48c0 1.35 1.35 2.7 2.7 2.7 8.12.68 15.57-1.35 22.34-4.73 4.06 7.44 8.12 12.18 14.9 15.56H263l6.78-4.07 10.83 2.03c2.72.68 3.4 0 4.07-1.35 2.7-6.76 4.06-14.88 4.06-23.68l17.6-7.45 1.35-2.7v-2.03l-4.06-8.12 4.74-8.8.68-1.36-1.36-2.7c-4.06-3.38-10.83-6.77-20.98-10.15zm14.2 13.54l-4.05 6.77-.68 2.03v1.37l4.07 7.44-15.57 6.1c-1.35.67-2.7 2-2.7 3.38v.67c0 7.43-1.36 13.53-2.72 19.62l-9.47-1.36h-2.7l-6.78 4.06c-4.74-3.38-8.12-8.8-10.83-14.2l-2.7-2.04h-2.03c-5.42 3.4-11.5 5.4-18.95 5.4l-1.37-8.78-2.03-2.04-6.77-4.05c2.03-4.73 4.07-8.12 6.77-11.5l1.36-2.7-1.36-2.7c-5.4-4.75-8.8-9.5-10.15-13.55l6.77-4.06 2.03-3.4v-8.8c8.12-.67 14.2.68 16.92 2.7h2.7l2.04-1.34 4.07-4.74 9.47-8.8 7.45 6.1 2.7.67 8.8-3.4 4.73 21c0 2 .68 2.7 2.7 2.7 7.45 2.7 13.55 4.73 18.28 7.44z"/><path d="M266.4 244.08c-2.7-2.7-6.1-4.06-10.16-4.06-3.38 0-6.77 1.36-8.8 4.06-2.7 2.04-4.06 5.42-4.06 8.8 0 4.07 1.36 6.78 4.07 9.5 2.02 2.7 5.4 4.04 8.8 4.04 4.06 0 7.44-1.35 10.14-4.05 2.7-2.7 3.38-5.42 3.38-9.48 0-3.4-.68-6.78-3.38-8.82zm-10.16 1.36c2.7 0 4.06.68 6.1 2.7 1.35.7 2.7 2.7 2.7 4.75 0 2.7-1.35 4.72-2.7 5.4-2.03 2.03-3.4 2.7-6.1 2.7-2.03 0-3.38-.67-4.74-2.7-2.03-.68-2.7-2.7-2.7-5.4 0-2.05.67-4.07 2.7-4.75 1.36-2.03 2.72-2.7 4.74-2.7z"/><path d="M259.63 228.52l-2.7 14.2c0 2.04.67 3.4 2.7 3.4 2.03.67 2.7 0 2.7-2.04l3.4-14.2-.7-2.04-2.02-.68c-1.34-.67-2.7 0-3.37 1.36zM229.85 237.3c-.68 1.38-.68 2.72 1.35 4.08l12.86 8.8 4.06-.68c.68-1.35.68-2.7-1.35-4.06l-12.2-8.8-4.72.67zM270.46 256.27l12.18-2.03c1.35 0 2.7-.68 2.7-2.7s-.67-2.7-2.7-3.4l-12.86 2.7c-2.03.7-2.7 2.05-2.7 3.4 1.35 1.36 2.7 2.03 3.38 2.03zM263 260.33c-1.34.67-2.02 1.35-1.34 2.7l2.03 12.87c.67 2.02 2.02 2.7 3.37 2.7 2.03-.68 2.7-2.03 2.7-3.38l-3.37-12.86c0-1.36-1.36-2.7-3.4-2.03zM246.1 256.94c-4.75 1.36-8.8 4.06-12.2 7.45-1.35.67-1.35 2.02 0 4.05 1.36.68 2.72.68 4.07 0 2.7-3.38 6.1-5.4 10.15-6.77 1.35-.68 2.03-2.03 1.35-3.38 0-2.03-1.35-2.7-3.38-1.36z"/><path fill="#D96038" d="M103.28 187.9c-3.38 7.46-5.4 14.9-5.4 23.02-3.4-.68-8.13.68-13.55 4.07l-6.77 4.72 6.1 10.83-4.74 10.15c3.38 4.06 10.15 6.77 18.95 8.13-.68 6.08 0 12.85.68 18.94l11.5-1.35 6.77 8.8c8.8-4.07 14.9-10.15 17.6-16.92 6.77 5.4 14.2 7.45 20.98 7.45l4.73-9.48 12.2-4.06c-1.37-4.05-2.72-9.47-5.43-14.9l-4.06-7.43 12.18-17.6-10.15-5.4.68-11.5-15.57 1.33-8.8 1.37-12.18-12.2-6.1-4.72-7.43 8.8-12.2-2.03z"/><path d="M120.2 179.1l-6.1 7.45-10.14-2.02c-1.35 0-2.7.68-3.38 2.02-2.7 5.42-4.74 12.86-6.1 21-3.38.67-8.12 2.7-12.85 5.4-2.7 1.36-5.42 3.4-6.1 4.74l-1.35 2.02.68 2.03 4.73 8.8-4.07 8.8v1.35l.68 2.03c3.4 3.4 9.48 6.1 18.28 8.8v4.74c0 6.77 0 10.83 1.36 12.18 0 1.36 1.35 2.7 3.38 2.7l8.8-1.34 6.77 8.12 4.05.68c7.44-4.06 12.86-9.47 16.24-15.56 6.76 4.73 13.53 6.1 20.97 6.1l2.7-2.05 3.4-8.12 11.5-3.4 2.03-3.37v-.67c-1.35-6.1-4.74-13.54-8.8-21l10.83-16.23.68-2.03-1.35-2.03-8.8-5.4.7-9.5c0-2.02-1.37-3.37-3.4-3.37l-23 2.7-12.2-11.5-5.4-4.74-4.75.68zm-33.16 51.45l-.68-2.03-4.73-7.45c6.77-4.73 12.18-6.76 16.24-6.76l2.03-.67 1.35-2.7c0-6.78 2.03-13.54 4.74-18.96l8.8 1.35 3.37-1.35 5.42-6.1c6.75 4.75 11.5 9.5 14.88 14.9 1.35.68 2.03 1.35 3.38.68l20.3-3.38-.67 8.8 2.02 2.7 6.77 4.74-9.5 13.54-1.34 2.03.67 1.36 3.4 6.76 4.73 12.85-9.48 2.04-1.35 2-3.4 6.78c-6.76 0-12.17-2.03-17.6-6.08l-2.7-.7-2.7 2.04-2.7 4.74c-3.4 3.4-6.78 6.77-10.16 9.47l-5.42-6.77c-1.35-.67-2.02-1.35-2.7-1.35l-8.8.68V248.83c0-1.36-.68-2.7-2.03-3.38-6.77-.68-12.86-3.38-16.24-6.1l3.38-7.43.68-1.35z"/><path d="M126.3 215c-3.4 0-6.78 1.33-9.48 3.37-2.7 2.7-4.06 6.1-4.06 9.47 0 4.07 1.35 7.45 4.06 10.15 2.7 2.7 6.1 3.38 9.47 3.38 4.06 0 6.76-.68 8.8-3.4 3.38-3.37 4.73-6.07 4.73-10.14 0-3.38-1.35-6.77-4.74-9.47-2.04-2.03-4.75-3.38-8.8-3.38zm-6.1 7.43c2.03-1.35 3.4-2.04 6.1-2.04 2.02 0 4.05.67 5.4 2.03 2.04 2.03 2.04 3.38 2.04 5.4 0 2.72 0 4.08-2.03 6.1l-5.4 2.04c-2.7 0-4.07-.68-6.1-2.04-1.35-2.02-2.03-3.38-2.03-6.1 0-2.02.68-3.37 2.03-5.4z"/><path d="M120.2 201.45c-2.03.68-2.03 2.7-2.03 4.06l5.42 13.55c0 2.02 1.34 2.7 3.37 2.02 1.35-.68 1.35-2.02 1.35-3.38l-4.73-14.23c-.7-2.02-2.04-2.02-3.4-2.02zM97.2 227.84l2.7 3.4 14.9.67c-1.36-.67-2.04-.67-1.36-2.7 0-1.36.67-2.7 2.7-2.7l-16.24-.7c-2.03-.66-2.7 0-2.7 2.04zM147.28 210.92l-9.48 8.13c-.68 2.02-.68 2.7 0 4.05l4.06.68 8.8-8.8c1.35-.67 1.35-2.7 0-4.06h-3.38zM137.12 230.55c-1.35.68-1.35 2.03 0 4.06l9.48 9.48c.68.68 2.03.68 3.38 0 2.03-1.35 2.03-2.7.68-4.06l-9.48-9.48c-.67-1.34-2.7-1.34-4.06 0zM121.56 235.97l-3.4 4.73-3.37 8.13c-.7 2.02 0 3.38 1.34 3.38l3.4-1.35 3.37-7.44 2.04-3.38c1.35-1.35 1.35-2.7 0-4.06h-3.38z"/><path fill="#D96038" d="M166.9 114.8c-2.7 7.46-3.38 15.6-2.7 25.06-3.4.68-6.77 2.02-12.2 5.4l-6.75 3.4 6.76 10.82-6.08 10.15c4.74 2.7 12.86 5.42 23 7.45 1.37 9.47 4.08 16.92 8.13 23.7l10.83-3.4 9.48 6.77c6.77-4.74 11.5-10.15 14.9-16.92l23 .68-.68-11.5 8.8-6.77c-.67-3.38-3.38-6.77-7.44-11.5l-5.42-4.74c4.06-5.42 6.1-11.5 8.13-16.93l-10.16-4.74-2.7-10.82c-6.1 0-11.52.68-16.93 3.4l-6.1 3.38c-2.03-4.74-5.4-9.48-10.15-12.87l-5.4-3.37-8.13 6.1-12.2-2.72z"/><path d="M167.58 111.43c-2.03 0-3.4.67-4.06 2.7-1.36 5.42-2.7 12.2-2.7 20.3v3.4c-3.4.67-6.78 2.7-10.84 5.4l-6.1 3.4-2.02 2.02.68 2.04 4.73 8.78-4.06 8.13-.66 2.03 1.35 2.04c4.73 3.38 12.17 6.1 21.65 8.8 2.03 8.12 4.73 16.23 8.8 22.33.67 1.35 2.03 2.03 3.38 1.35l9.48-3.38 8.13 6.1c1.35.67 2.7.67 4.06 0 5.4-3.4 10.14-9.5 14.88-16.25l21.66.68 2.7-2.7-.67-10.84 8.12-6.1.67-2.03v-1.35c-1.36-4.74-5.42-10.15-11.5-16.24l6.76-14.2v-1.37L240 133.1l-8.8-3.4-2.03-10.15c0-1.35-1.35-2.03-3.38-2.03-7.46 0-14.9 2.03-21.67 5.42l-9.48-11.5c-3.38-2.04-5.4-3.4-6.1-3.4l-3.37.68-6.77 5.42-10.82-2.7zm-2.03 31.8c1.35-.67 2.03-2.02 2.03-3.37v-5.42c0-6.1.68-11.5 1.35-15.57l9.48 2.04 2.7-1.35 6.78-4.06c5.42 4.05 9.48 8.12 11.5 13.52l2.72 2.04 3.38-.67 4.74-2.72 12.86-3.4 2.03 8.13 2.04 2.04 7.44 3.4-6.77 13.53-.66 2.02 1.35 2.02c4.73 4.74 8.8 8.8 10.82 12.87l-6.77 5.4-1.35 2.7.68 8.8-19.63-1.35c-1.35 0-2.03 0-2.7 1.35-2.7 5.42-7.45 10.16-12.2 14.9l-8.1-6.1h-3.4l-7.44 3.4c-2.7-6.78-4.73-13.55-6.08-20.32l-2.7-3.38-18.96-6.1 4.06-7.44.68-.68-1.36-2.7-3.38-6.77c4.74-3.38 10.15-6.08 14.9-6.76z"/><path d="M194.65 144.6c-3.38 0-6.77.67-9.47 3.38s-4.07 6.1-4.07 9.48c0 4.06 1.37 6.77 4.08 9.47 2.7 2.7 6.1 4.06 9.47 4.06 3.4 0 6.77-1.37 9.48-4.07 2.03-2.7 4.06-5.4 4.06-9.47 0-3.4-2.04-6.77-4.07-9.48-2.7-2.7-6.1-3.38-9.48-3.38zm-7.44 12.86c0-2.04.7-4.07 2.04-5.42 1.35-2.03 3.38-2.03 5.4-2.03 2.72 0 4.07 0 6.1 2.04 1.36 1.35 2.04 3.38 2.04 5.42l-2.04 6.08-6.1 2.03c-2.02 0-4.05-.67-5.4-2.03-1.36-2.02-2.03-3.38-2.03-6.08z"/><path d="M189.24 166.93l-2.03 14.22c0 2.02.7 2.7 2.04 3.38l3.38-2.7 2.03-14.22c0-1.35-.68-2.7-2.7-3.37-1.36 0-2.7.67-2.7 2.7zM203.45 160.84c-1.35 2.02-.67 2.7 1.35 3.4l12.86 8.78c1.36.68 3.4.68 4.07-1.35.67-1.36.67-2.7-.68-4.06l-13.54-7.44c-2.02-1.35-3.37-.68-4.05.68zM180.44 155.42l-12.86 2.7c-1.35.7-2.03 2.04-1.35 3.4.67 2.02 1.35 2.7 2.7 2.02l12.2-3.38c2.02 0 2.7-.68 2.7-2.7-.68-2.04-2.04-2.7-3.4-2.04zM182.47 133.1c-2.03.67-2.7 1.34-2.03 3.37l3.38 12.18c.68 2.04 2.04 2.7 3.4 2.7 2.02-1.34 2.02-2.7 2.02-3.37l-3.38-12.86c-1.36-2.03-2.04-2.03-3.4-2.03zM212.25 141.2l-6.77 5.42-3.38 1.36c-1.36 1.35-2.03 2.03-1.36 3.38.68 2.03 1.36 2.03 3.4 2.03l4.73-2.04 7.44-6.1c1.36-.66 1.36-2.02-.67-4.05h-3.38z"/><path fill="#D96038" d="M142.54 49.17l-7.45-.68c-.68-6.1-2.04-12.2-4.75-17.6l-10.83 2.7-8.8-6.77C106 30.2 102.6 34.95 99.9 40.36l-2.03 6.1c-5.42-2.04-10.15-3.4-16.24-3.4l-6.77.7-2.03 10.14-11.5 6.1c3.38 6.76 8.1 13.53 14.2 20.3-2.7 4.73-6.1 10.83-8.8 19.63l11.5 4.06 1.36 10.8c6.1-.66 13.53-3.37 23.68-8.1 6.77 6.08 13.54 10.82 20.98 12.85l5.42-9.47 12.18-.68c1.35-5.4 2.03-10.15 2.03-15.57l-1.36-8.12c6.1-.67 12.86-5.4 18.27-12.85l-8.1-8.8 2.7-10.83c-2.7-2.7-6.77-3.38-12.86-4.05z"/><path d="M156.75 63.38l2.03-10.15c0-2.04 0-2.7-1.35-3.4-4.07-2.7-10.83-4.73-19.63-4.73-1.36-8.8-2.7-13.53-4.06-15.56-.68-1.36-2.03-2.7-4.07-2.04l-9.47 2.04-7.45-5.42c-1.35-1.35-2.7-1.35-4.05 0-6.1 5.42-10.83 10.83-13.54 18.28-4.74-2.04-9.48-2.7-14.2-2.7l-6.78 1.34c-1.36.68-2.03.68-2.03 2.03l-2.7 8.8-10.16 5.4c-.7.7-1.37 1.37-1.37 2.72l.68 1.34c2.04 6.1 6.78 12.86 12.87 19.63l-8.12 18.96c0 1.35.68 2.7 2.7 2.7l8.8 3.4 2.04 9.46c0 2.02 1.34 2.7 3.37 2.7 6.77-.68 14.22-3.4 22.34-7.45 6.77 5.42 13.54 10.16 21 12.2l3.37-1.37 4.74-8.1 10.16-.7 3.4-2.7 2.02-14.22-.68-8.12c6.1-2.03 12.18-6.1 17.6-12.86v-2.02l-.68-2.7-6.77-6.78zm-21.66-11.5c6.1 0 11.5 0 16.24 2.7l-2.03 8.8v.67l.68 2.7 6.77 6.78c-5.4 5.4-10.15 8.8-14.9 8.8l-2.02 1.35-.67 2.03.67 1.36.68 8.8-2.02 10.16-8.8.68-2.7 1.34-4.07 8.13L104.65 104h-3.4c-4.72 2.7-11.5 5.4-18.26 6.75l-1.35-8.12-2.7-2.03-7.46-3.38c2.03-6.77 4.74-11.5 6.77-14.9l.68-2.02-.68-2.04c-5.4-5.4-9.47-10.83-12.18-16.24l8.12-5.4 2.03-1.37 1.37-8.12c6.1-.67 12.18-.67 18.27 2.7h3.38l1.36-2.7 2.7-4.73c1.36-4.07 4.74-8.13 8.12-10.84l6.1 4.74 2.7.68 8.13-2.03 3.38 13.54c0 2.7.7 3.37 3.4 3.37z"/><path d="M111.4 60c-3.38 0-6.76 1.34-9.47 4.05-2.7 2.7-4.06 6.1-4.06 9.48 0 3.38 1.35 6.77 4.06 8.8 2.7 3.38 6.1 4.73 9.47 4.73 3.4 0 6.77-1.35 8.8-4.73 3.4-2.03 4.74-5.42 4.74-8.8 0-3.38-1.35-6.77-4.74-9.48-2.03-2.7-5.4-4.06-8.8-4.06zm8.12 13.53c0 2.03-1.35 4.06-2.7 5.4-1.35 1.37-3.4 2.04-5.42 2.04-2.03 0-4.06-.67-5.4-2.03-2.04-1.35-2.72-3.38-2.72-5.4 0-2.72.68-4.07 2.7-6.1 1.36-1.35 3.4-2.03 5.42-2.03 2.03 0 4.07.7 5.42 2.04 1.35 2.03 2.7 3.38 2.7 6.1z"/><path d="M112.76 82.33c-1.36 1.35-2.03 2.03-1.36 3.38l8.12 12.2c.68 2.03 2.04 2.7 4.07 1.35 1.34-1.36 1.34-2.03 0-3.4l-7.46-12.84c-.67-2.03-2.03-2.03-3.38-.67zM136.44 66.76l-14.88 2.03c1.35 0 2.03.67 2.7 2.02.68 2.04-.67 2.7-2.7 3.38l16.24-2.03c2.03-.68 2.7-2.02 2.03-3.38 0-2.04-1.35-2.04-3.4-2.04zM97.87 83L91.1 92.5c-1.35.68-2.03 2.03-1.35 3.38 1.35 1.36 2.7 1.36 4.73.68l7.45-10.83c1.35-1.34 1.35-2.7-.68-3.37-1.35-1.36-3.38-1.36-3.38.68zM85 64.05c-.67 2.04-.67 2.7.68 4.06l10.83 7.46 3.4-.68c1.35-1.35 1.35-2.7-.68-4.06l-10.15-7.44-4.06.67zM113.44 51.87c0 3.38-1.36 7.45-3.4 11.5-.67 1.36-.67 2.72 1.36 3.4 1.36.66 2.7.66 3.4-1.36 2.02-4.06 3.37-8.8 4.05-13.53 0-2.03-.68-2.7-2.7-3.38-1.36 0-2.72 1.34-2.72 3.37z"/><path fill="#D96038" d="M209.54 32.25c-2.03 5.4-4.06 10.82-4.06 16.24v7.44c-4.74 0-10.15 1.34-14.9 4.05l-6.08 3.38 2.03 10.15-7.44 10.15c5.4 5.4 12.84 8.8 21.64 12.18-1.35 5.42-.67 12.18.68 21.66l10.83-1.35 6.77 8.8c5.4-2.7 10.83-8.8 17.6-16.93l25.04 2.7.67-11.5 10.83-5.4-5.4-15.58-4.07-6.1c5.4-3.37 8.79-10.14 11.5-19.6L263 47.8 261 36.3l-12.86 2.03-7.44 3.4-8.13-10.17-3.38-4.06-8.8 7.45-10.83-2.7z"/><path d="M274.52 96.54l2.03-2.7v-.68c-1.36-6.77-4.07-13.54-8.13-20.98 4.07-4.74 7.45-10.84 9.48-18.96l.68-.67-2.7-3.38-9.48-4.07-2.03-8.8-2.7-3.38c-4.75 0-11.52.67-19.64 4.06l-6.77-8.8-4.06-3.38c-1.35-1.36-2.7-1.36-4.74 0l-6.76 6.08-9.48-2.02c-1.35-.68-2.7.68-4.06 2.02-2.7 5.42-4.06 12.2-4.06 18.96v3.4c-4.74 0-9.48 2-14.22 4.04-2.7 1.36-4.06 2.7-5.4 3.4l-1.37 2.7 1.37 8.8-6.1 9.47-.67 2.03 1.35 2.03c5.42 5.43 12.2 9.48 20.3 12.2l-.67 4.73 1.36 14.9c0 2.02 1.35 3.38 3.38 3.38l9.48-1.35 5.4 7.45c1.36 1.35 2.72 2.02 4.75.68 4.74-2.7 10.83-8.13 16.92-16.25l24.36 2.7 2.7-3.37.7-9.48 8.8-4.74zm-54.82-58.2l2.7-1.36 6.77-5.4 8.8 11.5c.68 2.02 1.35 2.7 4.06 2.02 6.77-3.38 11.5-5.4 16.24-5.4l1.36 8.79 2.7 2.7 8.13 3.37c-2.7 7.45-5.42 12.87-8.8 14.9l-1.36 2.02v.67l.68 2.03 2.7 4.74 5.42 12.86-8.8 4.74c-.67.68-1.35 1.35-1.35 2.7l-.68 8.13-20.3-2.7c-2.03-.68-3.4 0-4.06 1.35l-14.2 14.2-4.07-6.08c-1.35-1.35-2.7-2.04-3.38-1.35l-8.12.67-.68-10.84.68-6.76-2.7-3.4c-6.78-2.02-12.2-5.4-17.6-10.14l5.4-6.77.68-2.03v-1.35l-2.02-7.45c4.74-4.06 10.83-5.4 17.6-5.4l3.4-1.37v-8.12c0-4.06.66-8.8 3.37-13.53l7.44 2.03z"/><path d="M242.03 75.56c0-4.07-1.35-6.77-4.06-10.15-2.03-2.02-5.42-3.38-8.8-3.38-4.06 0-7.45 1.36-10.15 3.4-2.7 3.37-3.4 6.07-3.4 10.14 0 3.38.7 6.77 3.4 8.8 3.38 2.7 6.1 4.73 10.15 4.73 3.38 0 6.77-2.03 8.8-4.74 2.7-2.03 4.06-5.42 4.06-8.8zm-12.86-8.12c2.03 0 3.4.67 5.4 2.7 1.37.68 2.05 2.72 2.05 5.42l-2.04 5.4c-2.03 1.37-3.38 2.72-5.4 2.72-2.72 0-4.07-1.35-6.1-2.7-1.36-2.04-2.03-3.4-2.03-5.42 0-2.7.67-4.74 2.03-5.4 2.03-2.05 3.38-2.72 6.1-2.72z"/><path d="M235.26 80.97c-1.35 2.04-1.35 2.7.68 4.06l12.18 8.13 3.4-.68c1.34-2.03 1.34-2.7-.7-3.38l-12.17-8.8c-2.03-.68-2.7 0-3.4.67zM249.47 56.6l-12.85 8.8c-1.36 1.36-1.36 3.4-.68 4.07 1.35 1.35 2.7 1.35 4.06.68l12.86-8.13c2.03-1.35 2.03-2.7.68-4.06-.68-1.35-2.03-2.02-4.06-1.35zM221.72 89.1l-2.7 10.83c-.68 1.35 0 2.7 1.35 4.06 2.03.66 2.7 0 4.06-1.37 1.36-3.38 2.03-8.12 2.03-13.54 0-2.04-.67-2.7-2.03-3.4-2.03 0-2.7 1.36-2.7 3.4zM202.1 76.9c0 2.04.68 3.4 2.7 3.4l12.86 2.03c1.36 0 2.04 0 2.7-2.03.7-2.04-.66-3.4-2.02-3.4l-12.86-2.02c-1.35 0-3.38.68-3.38 2.03zM224.43 49.84c-2.03.67-2.03 2.03-2.03 3.38 2.03 3.4 2.7 7.45 2.03 12.2 0 1.34.68 2.7 2.03 2.7 2.03.67 2.7-.68 3.4-2.7 0-4.75-.7-9.5-2.04-13.55-1.36-2.03-2.03-2.03-3.4-2.03z"/><path stroke-miterlimit="100" d="M364.58 579.58H7.42V7.42h357.16v572.16z" fill="none" stroke="#000" stroke-width="14.84"/></svg>