<svg xmlns="http://www.w3.org/2000/svg" width="372" height="587" viewBox="0 0 372 587"><path fill="#fff" d="M0 0h372v587H0z"/><path fill="none" stroke="#000" stroke-width="3" stroke-miterlimit="100" d="M370.6 585.26H3.9V2.74h366.7v582.52z"/><path fill="#D96038" d="M34.92 35.63l20.3 4.73c-2.02-6.76-4.05-13.53-6.76-18.95C42.36 9.9 35.6 8.6 28.16 16c-6.77 8.12-4.06 14.2 6.76 19.63z"/><path d="M57.94 39.7l-5.42-14.9C49.14 16 45.07 10.58 39.66 9.23c-4.74-1.35-8.8.68-12.86 5.4-4.06 4.75-5.4 8.8-4.06 13.55 2.7 7.45 13.54 12.18 31.8 14.9h2.72l.68-3.4zM27.48 26.14V24.8c0-2.03.67-4.74 3.38-6.77 2.7-3.38 5.42-4.06 7.45-3.38 5.44 1.35 9.5 8.8 12.9 22.33-13.55-2.03-21.67-5.4-23.7-10.83z"/><path d="M53.2 39.02c-1.36 1.34-1.36 2.7 0 4.05l23.7 21.66 4.05-.68c1.35-.67 1.35-2.03 0-3.38l-23.7-22.34-4.05.7z"/><path fill="#858585" d="M306.33 49.84c4.06-10.15 2.03-20.3-7.45-30.46-11.5 8.8-14.9 18.95-11.5 29.1a43.27 43.27 0 0 0 8.8 12.86l10.15-11.5z"/><path d="M300.24 17.35l-3.4-.68c-8.8 8.13-13.52 16.25-13.52 24.37 0 8.8 3.38 15.57 10.83 22.34h3.38a25.28 25.28 0 0 0 12.86-20.3c1.32-8.8-2.06-16.93-10.18-25.73zm-4.06 39.93c-4.74-5.4-6.77-10.82-6.77-16.24 0-6.1 2.7-11.5 8.8-17.6 5.44 6.1 7.47 11.5 7.47 16.25v2c-1.35 6.77-4.06 11.5-9.47 15.56z"/><path fill="#858585" d="M317.83 66.76c11.5-1.35 18.28-8.8 22.34-23-13.54-4.07-23.7-2.04-31.14 6.08l-6.1 14.2 14.9 2.72z"/><path d="M342.2 45.1c.67-2.03 0-3.38-1.35-3.38l-27.08 1.35c-4.74 2.7-8.8 6.77-10.83 12.2l-2.7 8.1c0 2.04 0 2.72 1.35 3.4l8.1 2.02c6.1 1.33 11.5 0 16.9-2.06 7.46-3.38 12.87-10.83 15.58-21.66zm-25.72 2.03l19.63-.67c-2.7 7.44-6.74 12.86-12.16 15.56h-17.6c1.36-6.77 4.75-11.5 10.16-14.9z"/><path fill="#858585" d="M177.05 29.54c2.04 10.82 10.16 17.6 24.37 20.3 2.7-14.2 0-23.7-8.8-30.46l-14.9-5.4c-1.34 5.4-2.02 10.14-.67 15.56z"/><path d="M186.53 13.3l-8.8-2.04-2.03 2.03-2.03 8.1c0 6.76.68 11.5 3.38 16.9 4.74 6.78 12.2 11.5 23.7 13.55l2.7-2.03c2.7-10.83 2.03-20.3-3.38-27.07-2.7-4.06-7.45-6.77-13.54-9.48zm12.86 26.4l-.7 6.08c-8.1-2.7-14.2-6.1-16.9-10.83-1.38-3.38-2.7-6.77-2.7-10.83 0-2.7 0-5.4 1.32-7.44 6.77 1.35 12.18 4.73 15.57 9.47 2.03 3.4 3.4 8.12 3.4 13.54z"/><path fill="#858585" d="M26.13 70.82c7.44 12.86 16.24 17.6 27.75 15.57a23.56 23.56 0 0 0 13.52-6.8 23.9 23.9 0 0 0-10.14-11.5c-8.8-6.1-18.95-4.75-31.13 2.7z"/><path d="M24.77 68.8c-2.03 1.35-2.03 2.02-.67 3.37 6.1 10.16 13.53 15.57 20.98 16.92 8.8 1.33 16.92-1.38 24.36-7.47 1.36-1.35 1.36-2.03 0-2.7-3.38-8.8-10.14-14.2-18.27-16.93-8.8-2.03-16.92 0-26.4 6.77zm25.04-1.36c6.1 1.35 10.86 5.42 14.25 11.5-6.1 4.07-12.2 5.42-17.6 4.74-5.4-.67-10.83-4.74-15.56-11.5 6.75-4.74 13.52-6.1 18.93-4.74z"/><path fill="#D96038" d="M55.23 237.3l.67-20.3-17.6 10.84c-10.15 8.12-10.15 14.9-.67 20.3 9.48 4.75 14.9 1.36 17.6-10.83z"/><path d="M54.55 214.3l-13.53 8.13c-8.13 6.1-12.87 11.5-12.87 16.25 0 4.73 2.72 8.8 8.13 12.17l14.2.68c4.07-3.38 6.78-9.47 7.46-18.95L58.6 217l-1.34-2.7h-2.7zm-2.03 6.77l.68 3.4c0 12.17-2.03 20.3-6.1 22.32L39 245.4c-4.06-1.36-5.4-4.06-5.4-6.1v-.66c.67-4.75 6.76-10.84 18.94-17.6z"/><path d="M69.44 187.23L53.2 215.66c-.68 1.35-.68 2.7 1.35 3.4l3.4-.7 16.23-27.74c.68-2.03.68-3.4-1.36-4.07-1.35-1.34-2.7-.67-3.38.68z"/><path fill="#D96038" d="M319.86 114.14c-2.03 6.1-2.7 12.86-2.03 20.3l17.6-10.15c9.48-8.15 10.83-14.9 2.03-20.3-9.47-6.1-14.9-2.74-17.6 10.12z"/><path d="M319.2 136.47l14.2-6.76c7.45-5.4 12.2-11.5 12.86-16.2.68-4.08-2.03-8.14-7.44-12.2-4.74-3.4-9.48-4.06-14.22-1.35-6.1 4.06-9.47 14.88-9.47 34.5l1.35 2.04h2.7zm8.1-31.8c2.72-.68 5.42-.68 8.8 1.35 3.4 2.02 4.75 4.73 4.75 6.76-.68 5.42-6.77 11.5-20.3 16.92 0-13.53 2.7-22.33 6.76-25.04z"/><path d="M315.8 133.1l-17.6 27.06c-1.35.68-.67 2.7.68 3.4 1.36 1.34 3.38.66 4.06-.7l17.6-27.07c.68-1.38 0-2.7-1.35-4.1l-3.4 1.37z"/><path fill="#D96038" d="M336.78 232.58l-17.6-8.8 2.04 20.3c3.38 11.52 9.47 14.9 18.27 8.8 8.1-6.1 8.1-12.86-2.74-20.3z"/><path d="M317.16 221.07c-.68.68-.68 1.36-.68 2.7 0 18.3 3.38 29.8 10.83 33.85 4.1 1.36 8.8.68 13.56-2.7 5.42-3.4 7.45-7.45 6.77-12.2-.67-8.1-10.14-15.56-27.74-21.65h-2.7zm20.98 29.78c-3.4 2.04-6.1 2.7-8.13 1.36-5.4-2-7.4-10.8-8.1-24.34 12.87 5.42 19.64 10.15 21 15.57v.68l-4.74 6.78z"/><path d="M298.88 194.68c-2.03.68-2.03 2.7-1.35 4.06l18.95 26.4h4.06c1.35-.68 1.35-1.36 0-3.4l-18.28-26.38c-1.35-1.36-2.02-1.36-3.38-.68z"/><path fill="#858585" d="M183.82 288.76c6.1-12.2 6.1-23-1.35-30.46l-12.2-9.47-4.72 14.88c-1.36 11.54 5.4 19.66 18.27 25.08z"/><path d="M189.24 263.04c-2.03-4.74-5.42-8.8-10.83-12.2l-7.42-4.72c-1.35 0-2.03 0-3.38 1.35l-3.4 7.45a29.12 29.12 0 0 0-.67 16.92c2.03 8.12 8.8 14.9 18.95 19.62 1.35.68 2.03.68 3.4-1.35 5.4-10.12 6.75-18.93 3.37-27.04zm-18.28-10.83c6.77 3.4 11.5 8.15 13.54 12.9l1.35 7.44-3.38 12.85c-8.12-4.75-12.2-9.48-14.2-14.9l-.7-5.4c0-3.4 1.36-7.46 3.4-12.87z"/><path fill="#858585" d="M327.3 297.55c.7-14.2-3.38-23-12.85-28.42l-14.9-3.38.7 15.56c3.37 10.86 12.85 15.6 27.06 16.27z"/><path d="M322.57 271.83c-4.06-4.06-8.8-6.76-14.9-7.44l-8.1-1.38c-2.04 0-2.72 1.35-2.72 2.03l-.68 9.47c.68 5.42 2.7 10.83 6.1 14.9 4.73 6.76 13.53 10.15 25.04 10.82 1.38 0 2.7-.67 2.7-2.03.7-12.17-2-20.3-7.4-26.4zm-20.98 0v-3.38c7.4 0 12.15 2.7 16.9 6.77 4.05 4.06 6.1 10.15 6.1 17.6v2.02c-8.8-1.35-14.9-4.06-18.3-8.8-3.4-3.37-4.73-8.12-4.73-14.2z"/><path fill="#FFCDDE" d="M286.02 45.78l-9.47 1.35-8.8-6.77-8.12 12.87-3.4 6.76h-18.26l.67 10.13-8.8 5.4c2.7 4.75 8.13 10.16 15.57 15.57-2.7 8.14-3.35 14.9-2.7 22.35l10.18.68 4.74 9.48a36.22 36.22 0 0 0 18.96-7.43c3.38 4.74 9.47 8.12 17.6 10.15l4.06-10.14 10.16-2.03-1.36-11.5-3.38-6.78 13.54-10.15-6.77-8.1 2.7-8.8c-5.4-2.7-10.15-4.07-15.56-4.07l-5.42.68c0-8.1-2.02-14.87-6.08-19.6z"/><path d="M294.82 61.34c-.68-4.73-1.35-8.12-4.06-12.85l-2.7-4.77-2.72-1.35-8.12 1.34-7.44-5.42h-4.06c-4.07 4.74-8.12 10.16-11.5 17.6l-16.93.68c-2.06 0-2.74 1.36-2.74 3.4l.68 8.8-6.77 4.73c-.7 0-2.04 1.36-2.04 2.04l1.35 2.03c2.04 4.72 6.77 9.46 14.22 14.87a59.9 59.9 0 0 0-2.7 18.27v3.4c0 2.03.67 2.7 3.38 2.7l7.45.68 4.74 7.46c.65 1.35 1.33 2.03 3.36 2.03 5.42-.7 11.5-2.7 18.28-6.78 4.07 4.05 10.16 7.44 16.93 9.46 2.03 0 2.7-.7 3.38-2.03l3.4-8.8 8.8-1.36 2.7-3.37v-2.7l-3.38-14.22 11.5-9.47.68-2.02-.68-2.02-6.1-6.76 2.72-8.13-2.7-3.4c-6.1-3.4-12.87-4.74-18.96-4.07zm-6.1 2.7v1.37l1.36 2.06 2.7.67h4.07l12.18 2.05L307 76.9v.7l.68 2.7 4.74 5.4-10.16 6.78-2.02 3.38.67 1.36c2.74 4.73 4.1 9.48 4.1 13.53l-7.45 2.03c-1.35 0-2.03.7-2.03 1.36l-3.4 7.44c-6.07-2.03-10.13-4.06-12.16-7.44l-2.7-1.36h-2.04c-5.42 3.4-10.16 6.1-15.57 6.77l-4.06-6.77c-.7-1.35-2.04-2.03-2.7-2.03h-6.8c0-6.76.67-12.86 2.7-18.27v-1.35l-1.35-2.03-12.2-12.18 5.43-4.06 1.35-2.7-.68-7.46 14.9.68 3.38-2.7 2.7-5.42 6.1-10.16 6.76 4.74 2.02.68 6.78-.68c2.7 3.38 4.73 8.8 4.73 14.2z"/><path fill="#FFCDDE" d="M160.8 55.94l-10.14-2.7c-3.38 6.08-4.06 13.52-4.06 20.96l-18.27 6.77 5.4 9.48-6.08 8.8c4.06 3.38 10.15 6.1 19.63 8.8 0 8.12 1.35 15.57 4.73 21.66l10.2-2 8.1 6.76c5.4-3.38 10.8-8.12 14.2-14.2 4.75 3.38 11.5 4.05 20.3 3.38l.7-10.83 8.8-5.42-6.1-10.15-4.74-5.42 8.8-14.2-8.8-4.73-1.35-9.48-14.9 1.34-6.07 2.03c-2.03-4.05-4.07-8.12-7.45-11.5l-4.73-3.4-8.13 4.08z"/><path d="M205.48 62.7L202.1 60l-19.63 2.7-7.45-10.83-4.73-3.38h-2.74l-6.77 4.03-10.15-2.7c-2.03 0-3.4 0-3.4 2.02-2 4.74-3.37 11.5-4.05 20.3l-16.2 6.1c-.68.68-2.03 2.04-2.03 2.7l.68 1.37 4.06 8.12-4.74 6.77-.68 2.05.68 2.03c4.07 3.38 10.15 6.1 18.95 9.48.68 7.44 2.7 14.2 4.74 20.3 1.35 2.03 2.03 2.7 4.74 2.03l7.44-2.05 6.8 5.4 3.37.7c6.76-2.72 11.5-7.45 14.9-12.87l19.6 2.7 2.7-3.38.7-9.5 6.76-3.37 2.02-3.4v-.66c-1.35-4.07-4.73-9.48-9.47-15.57l7.45-12.2v-1.3l-2.03-2.72-7.43-4.06-.7-8.12zm-45.34-3.38l2.7-.68 6.1-3.4c4.06 3.4 7.44 8.14 8.8 13.55l2.7 1.33h2.7l4.75-2.04 11.5-1.35.65 6.77 1.35 2.03 6.1 3.38-6.77 10.84-.67 2.02 1.35 2.02 8.15 12.2-6.1 3.37c-1.35 1.34-2.03 2.02-2.03 3.37v8.13c-6.76 0-12.17-1.34-14.2-3.37l-2.7-.67-14.2 12.86-6.1-5.4h-3.4l-6.77 2.02a54.73 54.73 0 0 1-3.38-18.28l-2.7-3.38c-7.45-2.03-12.2-4.06-15.57-6.77l4.04-5.4.68-2.03-.68-1.35-2.7-6.1c4.74-2.7 8.8-4.05 13.54-5.4 1.35 0 2.7-1.35 2.7-3.4 0-6.1.68-12.17 2.03-16.9l8.13 2.03z"/><path fill="#FFCDDE" d="M215.63 194.68c-3.38-3.38-7.44-6.77-11.5-8.8l-6.1-2.03c3.4-6.77 3.4-13.54 1.36-20.3l-8.8-2.03-6.1-9.48a190.33 190.33 0 0 0-12.2 8.12l-4.74 5.42c-2.7-2.03-6.77-3.4-10.83-5.42l-6.77-2.03-2.7 10.16-10.16 2c0 5.4 3.4 11.5 8.14 20.3a74.07 74.07 0 0 0-11.5 19.62l9.46 4.07.7 10.83a34.74 34.74 0 0 0 20.3 0c1.35 6.1 6.1 10.83 12.85 16.24l7.45-8.12 10.15 2.03c2.7-4.08 3.4-10.17 3.4-18.3l14.88-4.73-2.7-8.8 5.4-8.8z"/><path d="M133.74 170.3v.7c.68 5.4 3.38 11.5 6.77 19.62a122.84 122.84 0 0 0-10.12 18.27v1.32c0 1.36 1.35 2.04 2.03 3.4l7.44 3.37.68 8.13c0 2.02 1.37 2.7 2.7 3.38l18.98.7c2.7 5.4 6.77 10.14 12.85 14.87l4.07-.67 6.75-6.1 8.12 1.4c2.03 0 2.7 0 3.4-1.38a36.46 36.46 0 0 0 4.04-16.9v-.68l13.54-4.06 1.35-3.38v-.68l-2-7.45 4.73-6.76v-4.73c-4.74-5.42-10.15-8.8-16.92-11.5l2.04-9.48-1.36-8.8a5.32 5.32 0 0 0-2.7-2.7l-7.45-1.37-4.74-8.1c-1.36-2.05-2.7-2.72-4.07-1.37l-16.92 11.5-16.23-6.08c-2.02 0-3.4.67-4.05 2.7l-2.7 8.13-7.45 2.04c-2.02 0-2.7 1.36-2.7 2.7zm73.1 33.17l2.03 7.45-11.5 2.7c-2.04 0-2.72.7-2.72 3.4v3.37l-2.03 10.8-7.44-.67-2.7.68-5.43 5.4c-5.4-4.04-8.12-8.1-9.47-12.16l-.68-2.03-2.7-.67c-6.1 1.35-11.5 1.35-16.92 0l-.68-7.44-2.7-2.7-5.42-3.4c2.03-4.74 5.4-10.14 8.8-14.9l1.35-2.7-.68-2.02c-2.7-4.76-5.4-9.5-7.44-14.9l6.8-2.04 2.7-2.04 2.03-6.76 13.55 5.42c2.03 1.33 3.38 1.33 4.06-.7l4.75-4.05c3.37-2.7 6.1-5.4 9.46-6.76l4.07 6.77 2.02 1.36 6.77 2.03.67 4.74-2.7 12.18v1.36l2.7 2.03 4.73 1.36c3.4 2.02 6.78 4.05 9.48 6.76l-4.05 5.4-.66 2.7z"/><path fill="#FFCDDE" d="M48.46 110.75a71.97 71.97 0 0 0-.68 24.37c-3.38 1.35-7.44 3.38-12.86 6.1l-6.1 4.05 6.78 9.48-4.73 10.82c4.05 2.7 12.18 5.42 23 7.45a66.04 66.04 0 0 0 8.8 23.68l10.16-5.4 10.15 6.76c6.77-4.06 11.5-10.83 14.9-17.6 5.4 3.4 13.53 3.4 22.32 0l-1.35-12.18 9.48-6.77-8.13-10.8-6.1-5.4a47.75 47.75 0 0 0 7.46-16.93l-10.16-4.06-3.38-10.15c-5.42 0-11.5 1.35-16.24 3.38l-6.1 4.06a44.4 44.4 0 0 0-10.15-12.2l-6.1-3.4-8.1 6.8-12.87-2.04z"/><path d="M25.45 145.27l.67 2.04 5.42 8.14-4.06 8.13v2.03l.67 2.7c4.07 2.02 11.5 5.4 23.02 7.44 1.35 8.12 4.73 15.57 8.8 22.34 1.35 2.02 2.7 2.02 4.06 1.35l8.8-4.06 8.8 5.4H85c4.75-3.37 9.5-8.8 14.9-16.23 6.1 2.02 12.86 2.02 21.66-.68 1.35 0 2.03-1.35 2.03-3.38l-.7-10.16 7.43-6.07 1.36-2.7v-1.37c-2.03-4.74-6.77-10.15-13.54-15.56l6.77-14.9v-1.35l-2.03-2.7-9.46-3.4-2.03-9.46c-.65-2.02-1.33-2.02-3.36-2.02-8.12 0-14.9 2.03-21.66 6.1L76.2 106c-3.37-2.03-4.73-3.4-5.4-3.4l-3.4.7-6.76 5.4-11.5-1.35c-2.03 0-3.4 0-4.07 2.03-.67 5.4-1.35 11.5-1.35 16.24v7.45c-5.4 2.02-10.83 5.4-16.24 10.14-1.36 0-2.03 1.37-2.03 2.05zm26.4-31.13l8.8 2.03 2.7-1.36 6.1-4.7a23.93 23.93 0 0 1 12.85 12.86L85 125l2.72-.7 4.73-2.7a44.9 44.9 0 0 1 13.54-4.07l2 8.12 2.03 2.04 6.77 3.37-5.4 12.86-.68 1.35 1.35 2.7 11.5 12.2-6.76 6.08-1.34 2.03.68.67.68 8.8-17.6-.68h-2.7l-2.03 1.35A44.48 44.48 0 0 1 82.96 194l-8.1-5.4h-3.4l-7.44 3.37a71.72 71.72 0 0 1-6.77-20.3l-3.4-2.04-18.94-6.1 3.38-6.75.68-2.03-.68-1.36-4.73-6.8 14.9-8.1 2.7-3.4v-.68l-.68-8.8 1.32-11.5z"/><path d="M78.92 138.5c-4.06 0-7.45 1.36-9.48 4.06-3.38 2.7-4.06 5.42-4.06 9.48 0 3.38.68 7.44 4.06 9.48 2.7 2.7 5.42 4.05 9.48 4.05 3.38 0 6.76-1.34 9.47-4.05 2-2.04 3.36-6.1 3.36-9.48 0-4.06-1.36-6.77-3.4-9.48a13.4 13.4 0 0 0-9.46-4.06zm-6.1 8.13c2.04-2.03 3.4-2.03 6.1-2.03 2.03 0 4.06 0 5.4 2.03a7.7 7.7 0 0 1 2.04 5.4l-2.03 5.43c-1.35 2.02-3.38 2.7-5.4 2.7-2.72 0-4.07-.68-6.1-2.7-1.36-1.36-2.03-2.7-2.03-5.42a7.7 7.7 0 0 1 2.03-5.4z"/><path d="M72.83 161.52l-.68 14.88 2.03 2.7 3.38-2.7 1.36-14.88c0-1.36-.68-2.04-2.7-2.7-2.04 0-3.4 1.34-3.4 2.7zm14.9-6.77c-1.37 2.03-1.37 2.7.66 3.38l14.2 8.12c1.34.68 2.7.68 3.4-1.35.65-1.35.65-2.7-1.38-4.06L91.1 153.4c-1.35-.7-2.7 0-3.38 1.35zM64.03 150l-12.2 4.07c-1.35.68-2.7 1.35-1.35 3.4 0 2 1.33 2 3.36 2l11.5-4.05c2.04-.67 2.72-2.03 2.04-3.38C66.7 150 65.36 150 64 150zm.66-22.33c-2.04.68-2.04 2.03-2.04 4.06l4.74 12.2c.7 1.34 2.05 2 3.4 1.34 2.04-.68 2.04-1.35 2.04-3.4L68.1 129.7c0-2.02-2.04-2.02-3.4-2.02zm30.45 7.45a20.14 20.14 0 0 1-9.48 6.77c-1.35 1.32-2.7 2.7-1.35 4.02.68 2.04 2.03 2.04 3.4 1.37 4.72-2.7 8.78-5.4 12.17-8.8.67-1.36 0-2.7-.7-4.07l-4.05.68z"/><path fill="#FFCDDE" d="M304.3 139.86l-.68-6.1-11.5 1.36-8.13-7.44c-4.76 2.7-8.8 6.76-12.2 11.5l-3.4 6.1c-4.73-3.4-9.47-4.74-14.88-5.42h-7.45l-3.4 9.47-11.5 4.74c1.35 6.77 5.42 14.2 10.83 22.33l-7.44 10.83-3.38 6.77 10.83 4.74.7 12.18 23.7-5.4a54.16 54.16 0 0 0 19.6 15.54l6.1-8.8 12.2.68c3.37-7.44 4.72-14.88 3.37-22.33 6.77-.66 13.54-4.05 20.3-10.82l-7.44-10.15 4.74-10.82c-2.03-2-6.1-4.04-12.18-5.4l-7.46-1.35-1.35-12.18z"/><path d="M286.7 124.97l-4.06-.68c-6.77 4.03-12.18 10.12-16.25 16.9-4.1-2.7-8.8-3.4-13.56-4.75h-6.77l-2.72 2.03-3.38 8.12-10.15 4.73c-1.36 0-2.03.68-2.03 2.7v.7c1.34 6.08 4.73 13.52 10.14 21.64a60.6 60.6 0 0 0-9.48 16.24l-.68 1.36c0 1.35.66 2.7 2.02 3.4l8.8 4.04.67 9.47c0 2.04.67 3.4 2.7 3.4l23-4.74c5.43 6.1 12.2 11.5 18.96 14.9 2.02.67 3.38.67 4.73-.7l4.73-8.1 10.14.66 3.38-2.04c3.4-6.77 4.74-13.54 4.74-21 6.1-2 12.18-5.4 18.95-11.5l.68-2.03-.68-2.02-6.1-8.12 3.4-9.47.66-1.34-1.35-2.02c-3.37-3.4-10.13-6.1-18.26-8.13l-1.35-10.8-.7-4.75c-1.34-2.05-2.7-3.4-4.05-2.73l-9.48 1.35-6.77-6.76zm6.1 13.53l7.44-.67 2.02 10.82v3.4c0 2.7.68 3.37 2.7 3.37 6.1.67 11.52 2.04 15.58 4.74l-2.7 8.12-.68 1.35.67 2.04 6.1 7.44c-6.77 4.77-11.5 7.47-16.25 8.15l-2.03.68-1.35 2.72h.67v2.7c0 5.42-1.35 10.83-3.38 16.25l-8.8-.7-3.4 1.35-4.75 6.77-16.25-13.53c-1.34-1.37-2.02-2.04-3.37-1.37l-19.63 5.42v-8.8l-2.7-2.7-6.76-4.07 8.8-14.2.67-1.38-.65-2.7c-4.73-5.42-7.44-11.5-9.47-17.6l8.8-4.06 2.03-1.35 2.7-7.46c6.1-.68 11.5 1.35 17.6 4.74l3.4.66 2.02-2.03 2.73-5.4 9.47-9.5 6.08 6.1 2.7.7z"/><path d="M289.4 183.85c2.04-2.7 3.4-6.1 3.4-9.47 0-4.07-1.36-6.77-3.4-9.48-2.7-2.04-6.08-4.06-9.47-4.06-4.06 0-6.77 2.02-10.15 4.06-2.03 2.7-3.4 5.4-3.4 9.48 0 3.38 1.37 6.77 3.4 9.47 3.38 2.7 6.1 4.06 10.15 4.06a13.4 13.4 0 0 0 9.48-4.03zm-15.56-14.9c2.03-2.02 3.4-2.02 6.1-2.02 2.02 0 3.38 0 5.4 2.03 1.36 1.35 2.04 2.7 2.04 5.42l-2.03 6.08c-2.03 1.36-3.4 2.03-5.42 2.03-2.7 0-4.06-.7-6.1-2.06-1.34-2.02-2.02-3.38-2.02-6.08s.7-4.07 2.06-5.42z"/><path d="M279.25 182.5c-2.03 1.35-2.7 2.03-2.03 3.38l6.1 13.53c.68 1.4 2.03 2.07 3.38 1.4 2.03-.7 2.7-2.04 2.03-3.4l-6.1-13.54c-.67-2.03-2.02-2.7-3.38-1.35zm-15.55-1.35l-7.46 8.8c-2.03.67-2.7 1.35-1.35 3.37.65 1.36 2 2.04 4.03.68l9.48-9.47c.68-1.36.68-2.7-1.35-4.07l-3.38.7zm3.37-11.52l-9.47-8.8c-1.36-.67-2.04-.67-4.07 0l-.67 2.7.67 1.37 10.16 8.8h3.35c2.03-2.03 2.03-3.4 0-4.07zm16.23-17.6l-4.05 11.5c-1.35 1.37-1.35 2.7 0 3.4 1.36.68 3.4.68 4.07-.7l6.1-12.84c0-2.06-.7-3.4-2.72-3.4-1.35 0-2.7 0-3.38 2.02z"/><path fill="#D96038" d="M133.74 433.6c-58.2-12.2-100.84-24.38-128.6-37.24l.68 90.7C33.57 499.9 76.9 511.4 135.1 522.93c73.1 14.2 151.6 23 235.53 26.4V459.3c-83.93-2.02-162.44-10.8-236.9-25.7z"/><path fill="#9260C7" d="M5.14 396.37c27.75 12.86 70.4 25.05 128.6 37.22 74.45 14.9 152.96 23.66 236.9 25.7V349.7c-79.88 4.74-164.48-3.38-254.5-25.72-45.34-11.5-82.57-22.34-111.67-34.5l.67 106.92z"/><path fill="#858585" d="M5.82 487.06v100.18h364.8v-37.9c-83.92-3.4-162.43-12.2-235.53-26.4-58.2-11.52-101.55-23.02-129.3-35.88z"/><path d="M2.44 286.73c-.68 1.35-1.36 2.03-.68 2.7l1.35 297.8c0 2.03 1.4 2.7 2.74 2.7h364.8c1.36 0 2.7-.67 2.7-2.7V349.68l-1.34-2.7-1.37-.7c-78.5 5.43-163.1-2.7-252.45-24.35-45.34-11.5-83.25-23-113.03-35.2h-2.7zm365.48 65.64v232.16H9.2L6.5 293.5c35.87 13.53 77.15 25.7 125.2 36.55 83.94 19.62 162.45 26.4 236.22 22.32z"/><path fill="#FFF000" d="M62 284.02l-25.04-8.12v43.3L62 326.67v-42.64z"/><path d="M34.92 273.2c0 1.34-.67 2.02-.67 2.7v43.3c0 1.37.67 2.04 2.03 2.7l25.04 7.46 2.7-.68.7-2.02v-42.64l-2.05-2.7-25.04-8.13h-2.7zm4.74 6.1l19.63 6.07v37.23l-19.66-6.1v-37.2z"/><path fill="#FFF000" d="M131.03 302.3L106 294.83v43.32l25.03 6.1V302.3z"/><path d="M104.64 292.14l-1.36 2.7v43.32c0 1.36.68 2.04 1.36 2.04l25.7 6.77 2.7-.7.7-2V302.3l-2.03-2.7-25-7.47h-2.04zm4.06 6.1l19.62 6.08v36.55l-19.62-4.74v-37.9z"/><path fill="#FFF000" d="M174.35 353.05l26.4 6.1-.68-41.97-25.04-8.12-.68 44z"/><path d="M173.67 306.36l-1.35 2.7v44c0 1.35 0 2.7 2.03 2.7l25.04 5.42 2.7-.68.65-1.36v-41.96l-2.03-2.7-25.04-8.12h-2.04zm23.7 12.85l.67 36.58-20.3-5.4v-37.9l19.62 6.75z"/><path fill="#FFF000" d="M244.06 318.53l-.67 42.65 26.36 2.7-.68-41.28-25.05-4.07z"/><path d="M244.74 315.83h-2.03l-1.33 2.7v42.65c0 2.03.68 2.7 2.04 2.7l26.4 2.7 2.02-.67.7-2-.7-41.3-2-3.4-25.05-3.35zm2.03 5.4l19.62 3.4.65 36.55-20.98-2.04.67-37.9z"/><path fill="#FFF000" d="M313.1 325.3l-.68 40.6 26.4.7-.68-39.26-25.04-2.04z"/><path d="M340.85 369.3l.67-2.7-.67-39.26c0-1.36-.68-2.04-2.7-2.7l-24.38-2.04h-2.7l-.68 2.7-.7 40.6c0 1.37.7 2.04 2.7 2.04l25.72 2.03 2.7-.68zM315.8 328l19.63 2.05.68 33.84-20.3-.7V328z"/><path fill="#858585" d="M4.47 269.8C33.57 282 70.8 293.5 116.14 305c90.02 21.66 174.62 30.45 254.5 25.05V316.5c-79.88 5.42-164.48-3.37-254.5-25.04-45.34-11.5-82.57-23-111.67-34.52v12.87z"/><path d="M371.98 314.47l-1.36-.67c-78.5 5.4-163.1-3.38-252.45-25.04-45.34-10.84-83.25-22.34-113.03-34.52l-2.7.68c-.68 0-.68.68-.68 2.02v12.87l.68 2.74c30.45 12.85 69.03 23.7 114.38 35.2 90.02 21.64 175.3 29.77 253.8 25.03 1.36 0 2.7-.68 2.7-2.7V316.5l-1.34-2.03zM6.5 268.45V261c36.55 14.22 78.5 25.73 125.2 36.55 83.93 18.96 162.45 25.73 236.22 21.66v8.16c-75.13 4.73-155.67-3.4-240.95-22.34-46.02-11.5-85.95-23-120.47-36.54zm374.28 193.57c1.35 0 2.7-.68 2.7-2.7 0-1.36-1.35-2.04-2.7-2.04-96.1-2.02-189.5-13.54-280.2-36.54-45.35-11.5-81.9-23-108.97-34.53-1.33-1.3-2.7 0-4.04 1.4-.67 2.02 0 2.7 2.04 3.4 27.06 12.15 63.6 23.67 109.63 34.5 91.37 23 184.77 35.18 281.57 36.53zm5.42 90.68c2.02 0 2.7-.67 2.7-2l-.68-2.05-1.35-1.35c-100.17-2.7-195.6-15.57-287.65-37.9-46.7-11.5-83.25-22.34-109.64-33.16-2.03-.68-3.4 0-4.06 2.02-.68 1.36 0 2.7 2.02 3.4 27.08 10.82 63.63 21.65 110.33 33.15C190.6 537.18 286.7 550 386.2 552.7z"/><path fill="#D96038" d="M279.93 217.7l-3.38-6.78-10.83 3.4-9.48-7.46-11.5 10.15-4.74 5.45a48.2 48.2 0 0 0-14.2-3.38l-8.14 1.34v11.5l-9.47 6.1c.65 6.1 4.7 11.5 12.15 17.6-4.06 5.4-7.44 10.16-8.8 16.25l9.48 4.74 2.03 11.5c9.48.67 16.92-1.36 23-5.4 3.4 8.1 8.14 13.52 14.9 16.9l8.8-5.4 12.18 2.7 3.4-15.58v-8.77c5.4-.68 11.5-3.4 18.94-7.45l-4.75-10.84 6.1-9.47c-2.7-2.7-7.45-4.75-13.54-6.78l-8.8-3.4c0-5.4-1.36-10.82-3.4-16.9z"/><path d="M286.7 231.9l-4.06-16.24-2.7-6.77c-.7-1.38-2.72-2.06-4.07-1.38l-9.48 2.7-7.47-6.1h-4.06c-5.43 2.72-10.16 7.46-16.26 14.23l-13.52-2.03-8.1.67c-1.38 0-2.73.7-2.73 3.4v10.14l-8.12 4.74-1.36 2.7v1.34c.67 5.4 4.73 11.5 10.82 16.92-3.4 4.73-6.1 8.8-7.45 14.2v1.36l1.34 2.7 8.8 4.75 1.35 9.48a2.9 2.9 0 0 0 2.7 2.7c8.12.68 15.57-1.35 22.34-4.73 4.05 7.44 8.1 12.18 14.9 15.56h3.4l6.78-4.07 10.83 2.03c2.74.68 3.4 0 4.1-1.35 2.7-6.77 4.05-14.9 4.05-23.7l17.6-7.44 1.35-2.7V263l-4.07-8.1 4.74-8.8.68-1.36-1.36-2.7c-4.08-3.38-10.85-6.77-21-10.15zm14.2 13.54l-4.05 6.77-.68 2.05v1.37l4.07 7.45-15.57 6.1c-1.35.67-2.7 2-2.7 3.38v.67c0 7.43-1.36 13.53-2.72 19.62l-9.47-1.36h-2.7l-6.78 4.06c-4.74-3.38-8.12-8.8-10.83-14.2l-2.7-2.04h-2.03a34.63 34.63 0 0 1-18.95 5.4l-1.4-8.78-2.02-2.04-6.78-4.05a46.82 46.82 0 0 1 6.77-11.5l1.35-2.7-1.36-2.7c-5.4-4.74-8.8-9.5-10.16-13.54l6.77-4.07 2.04-3.4v-8.8c8.13-.67 14.2.68 16.93 2.7h2.7l2.04-1.34 4.07-4.75 9.47-8.8 7.46 6.1 2.7.67 8.8-3.4 4.72 21c0 2 .68 2.7 2.7 2.7 7.45 2.7 13.55 4.72 18.28 7.43z"/><path d="M266.4 244.08a13.8 13.8 0 0 0-10.16-4.06c-3.38 0-6.77 1.36-8.8 4.06-2.7 2.04-4.06 5.42-4.06 8.8 0 4.07 1.36 6.78 4.07 9.5 2.02 2.7 5.4 4.04 8.8 4.04 4.06 0 7.44-1.35 10.14-4.05 2.7-2.7 3.36-5.42 3.36-9.48 0-3.4-.68-6.8-3.38-8.84zm-10.16 1.36c2.7 0 4.06.68 6.1 2.7 1.35.7 2.7 2.7 2.7 4.75 0 2.7-1.35 4.7-2.7 5.4-2.03 2-3.4 2.7-6.1 2.7-2.03 0-3.38-.7-4.74-2.7-2.03-.7-2.7-2.7-2.7-5.4 0-2.07.67-4.1 2.7-4.77 1.36-2.03 2.72-2.7 4.74-2.7z"/><path d="M259.63 228.52l-2.7 14.2c0 2.04.67 3.4 2.7 3.4 2.03.67 2.7 0 2.7-2.04l3.4-14.2-.7-2.04-2.02-.68c-1.32-.67-2.7 0-3.35 1.36zm-29.78 8.78c-.68 1.38-.68 2.72 1.35 4.08l12.86 8.8 4.06-.68c.68-1.35.68-2.7-1.35-4.06l-12.2-8.8-4.72.67zm40.6 18.97l12.2-2.03c1.34 0 2.7-.68 2.7-2.7s-.68-2.7-2.7-3.4l-12.87 2.7c-2.03.7-2.7 2.05-2.7 3.4 1.35 1.36 2.7 2.03 3.38 2.03zm-7.45 4.06c-1.34.67-2.02 1.35-1.34 2.7l2.03 12.87c.65 2.02 2 2.7 3.35 2.7 2.03-.68 2.7-2.03 2.7-3.38l-3.37-12.86c0-1.36-1.37-2.7-3.4-2.03zm-16.9-3.4a28.32 28.32 0 0 0-12.2 7.46c-1.35.65-1.35 2 0 4.03 1.36.68 2.72.68 4.07 0 2.7-3.38 6.1-5.4 10.15-6.77 1.35-.68 2.03-2.03 1.35-3.38 0-2.04-1.35-2.7-3.38-1.37z"/><path fill="#D96038" d="M103.28 187.9c-3.38 7.46-5.4 14.9-5.4 23.02-3.4-.68-8.13.68-13.55 4.07l-6.77 4.7 6.1 10.83-4.74 10.15c3.38 4.05 10.15 6.76 18.95 8.12-.68 6.08 0 12.85.68 18.94l11.5-1.35 6.77 8.8c8.8-4.07 14.9-10.15 17.6-16.9a33.23 33.23 0 0 0 20.98 7.43l4.73-9.48 12.2-4.06c-1.37-4.06-2.72-9.48-5.43-14.9l-4.06-7.44 12.18-17.6-10.15-5.4.68-11.5-15.57 1.33-8.8 1.36-12.18-12.2-6.1-4.72-7.43 8.8-12.2-2.03z"/><path d="M120.2 179.1l-6.1 7.45-10.14-2.02c-1.35 0-2.7.68-3.38 2.02-2.7 5.42-4.74 12.86-6.1 21-3.38.67-8.12 2.7-12.85 5.4-2.7 1.36-5.42 3.4-6.1 4.74l-1.35 2 .68 2.03 4.73 8.8-4.1 8.8v1.35l.7 2.02c3.4 3.4 9.47 6.1 18.27 8.8v4.74c0 6.77 0 10.83 1.36 12.18 0 1.36 1.35 2.7 3.38 2.7l8.8-1.34 6.78 8.12 4.04.68c7.44-4.06 12.86-9.47 16.24-15.56 6.76 4.73 13.53 6.1 20.97 6.1l2.7-2.05 3.4-8.13 11.5-3.4 2.03-3.37v-.67c-1.35-6.1-4.74-13.54-8.8-21l10.83-16.23.7-2.03-1.37-2.03-8.8-5.4.7-9.5c0-2-1.37-3.36-3.4-3.36l-23 2.7-12.2-11.5-5.4-4.74-4.75.68zm-33.16 51.45l-.68-2.03-4.73-7.45c6.77-4.73 12.18-6.76 16.24-6.76l2.03-.65 1.35-2.7c0-6.78 2.03-13.54 4.74-18.96l8.8 1.34 3.35-1.35 5.42-6.1c6.75 4.74 11.5 9.5 14.88 14.9 1.35.67 2.03 1.34 3.38.67l20.3-3.38-.67 8.8 2.02 2.7 6.76 4.73-9.5 13.54-1.34 2.03.67 1.35 3.4 6.76 4.72 12.87-9.5 2.04-1.34 2-3.4 6.8c-6.77 0-12.18-2.04-17.6-6.1l-2.7-.7-2.7 2.05-2.7 4.74c-3.4 3.4-6.8 6.76-10.17 9.46l-5.43-6.77c-1.34-.68-2-1.36-2.7-1.36l-8.8.68v-14.87a3.7 3.7 0 0 0-2.02-3.38c-6.77-.68-12.86-3.38-16.24-6.1l3.4-7.43.67-1.35z"/><path d="M126.3 215c-3.4 0-6.78 1.33-9.48 3.37a13.4 13.4 0 0 0-4.06 9.47c0 4.07 1.35 7.45 4.06 10.15 2.7 2.7 6.1 3.36 9.47 3.36 4.04 0 6.74-.68 8.8-3.4 3.36-3.37 4.7-6.07 4.7-10.14 0-3.38-1.34-6.77-4.73-9.47-2.04-2.03-4.75-3.38-8.8-3.38zm-6.1 7.43c2.03-1.35 3.4-2.04 6.1-2.04a7.7 7.7 0 0 1 5.4 2c2.04 2.04 2.04 3.4 2.04 5.4 0 2.73 0 4.1-2.03 6.1l-5.4 2.05c-2.7 0-4.05-.68-6.1-2.04-1.33-2-2-3.37-2-6.1 0-2 .67-3.36 2.02-5.4z"/><path d="M120.2 201.45c-2.03.68-2.03 2.7-2.03 4.06l5.42 13.57c0 2.02 1.32 2.7 3.35 2.02 1.35-.7 1.35-2.03 1.35-3.4l-4.72-14.22c-.7-2.02-2.04-2.02-3.4-2.02zm-23 26.4l2.7 3.4 14.9.66c-1.36-.65-2.04-.65-1.36-2.7 0-1.34.67-2.7 2.7-2.7l-16.24-.7c-2.03-.64-2.7 0-2.7 2.06zm50.08-16.93l-9.48 8.13c-.68 2.02-.68 2.7 0 4.05l4.06.68 8.8-8.8c1.35-.67 1.35-2.7 0-4.06h-3.38zm-10.16 19.63c-1.35.68-1.35 2.03 0 4.06l9.48 9.5c.68.68 2.03.68 3.38 0 2.03-1.35 2.03-2.7.68-4.06l-9.48-9.48c-.67-1.34-2.7-1.34-4.06 0zm-15.56 5.42l-3.4 4.73-3.37 8.13c-.7 2.02 0 3.38 1.32 3.38l3.4-1.33 3.37-7.44 2.03-3.38c1.35-1.35 1.35-2.7 0-4.06h-3.38z"/><path fill="#D96038" d="M166.9 114.8c-2.7 7.46-3.38 15.6-2.7 25.06-3.4.68-6.77 2.02-12.2 5.4l-6.75 3.4 6.76 10.82-6.06 10.15c4.74 2.7 12.86 5.42 23 7.45 1.37 9.47 4.08 16.92 8.13 23.7l10.83-3.4 9.47 6.77c6.77-4.74 11.5-10.15 14.9-16.92l23 .68-.68-11.5 8.8-6.75c-.7-3.38-3.4-6.77-7.46-11.5l-5.42-4.74c4.06-5.4 6.1-11.5 8.13-16.92l-10.16-4.74-2.7-10.82c-6.1 0-11.53.7-16.94 3.4l-6.1 3.4a30.75 30.75 0 0 0-10.15-12.88l-5.4-3.37-8.12 6.1-12.2-2.72z"/><path d="M167.58 111.43c-2.03 0-3.4.67-4.06 2.7a82 82 0 0 0-2.7 20.3v3.4c-3.4.67-6.78 2.7-10.84 5.4l-6.1 3.4-2.02 2.02.68 2.04 4.73 8.76-4.06 8.13-.64 2.02 1.35 2.04c4.74 3.38 12.18 6.1 21.66 8.8 2.03 8.12 4.73 16.23 8.8 22.33.67 1.34 2.03 2.02 3.38 1.34l9.48-3.38 8.14 6.1a4.3 4.3 0 0 0 4.06 0c5.4-3.4 10.14-9.5 14.88-16.25l21.66.7 2.7-2.7-.67-10.85 8.1-6.1.67-2.03v-1.35c-1.36-4.74-5.42-10.15-11.5-16.24l6.76-14.2v-1.37L240 133.1l-8.8-3.4-2.03-10.15c0-1.35-1.35-2.03-3.38-2.03-7.48 0-14.9 2.03-21.7 5.42l-9.47-11.5c-3.38-2.04-5.4-3.4-6.1-3.4l-3.37.68-6.77 5.42-10.83-2.7zm-2.03 31.8a3.72 3.72 0 0 0 2.03-3.37v-5.42c0-6.1.68-11.5 1.35-15.57l9.48 2.04 2.7-1.33 6.8-4.06c5.4 4.06 9.48 8.13 11.5 13.53l2.7 2.04 3.4-.67 4.74-2.73 12.86-3.4 2.02 8.13 2.04 2.04 7.44 3.4-6.77 13.53-.66 2.02 1.35 2c4.73 4.74 8.8 8.8 10.82 12.87l-6.77 5.4-1.35 2.7.68 8.8-19.63-1.35c-1.35 0-2.03 0-2.7 1.35-2.7 5.42-7.45 10.16-12.2 14.9l-8.1-6.1h-3.4l-7.44 3.4a115.75 115.75 0 0 1-6.08-20.32l-2.7-3.38-18.96-6.1 4.04-7.44.68-.68-1.36-2.7-3.38-6.77c4.73-3.4 10.14-6.1 14.9-6.77z"/><path d="M194.65 144.6c-3.38 0-6.77.67-9.47 3.38s-4.07 6.1-4.07 9.48c0 4.06 1.4 6.77 4.1 9.47a13.4 13.4 0 0 0 9.47 4.06c3.4 0 6.77-1.4 9.48-4.1 2.03-2.7 4.06-5.4 4.06-9.46 0-3.4-2.03-6.77-4.06-9.48-2.7-2.7-6.1-3.38-9.48-3.38zm-7.44 12.86a7.7 7.7 0 0 1 2.06-5.42c1.35-2.03 3.38-2.03 5.4-2.03 2.72 0 4.07 0 6.1 2.06a7.7 7.7 0 0 1 2.04 5.42l-2.05 6.08-6.1 2.03a7.67 7.67 0 0 1-5.4-2.04c-1.36-2.02-2.03-3.38-2.03-6.08z"/><path d="M189.24 166.93l-2.03 14.22c0 2.02.7 2.7 2.06 3.38l3.38-2.7 2.03-14.22c0-1.33-.68-2.7-2.7-3.35-1.36 0-2.7.67-2.7 2.7zm14.2-6.1c-1.34 2.03-.66 2.7 1.36 3.4l12.86 8.8c1.36.67 3.4.67 4.07-1.36.67-1.36.67-2.7-.68-4.06l-13.54-7.42c-2-1.35-3.35-.68-4.03.68zm-23-5.4l-12.86 2.7c-1.35.7-2.03 2.03-1.35 3.4.67 2 1.35 2.7 2.7 2l12.2-3.37c2.02 0 2.7-.68 2.7-2.7-.68-2.04-2.04-2.7-3.4-2.04zm2.03-22.33c-2.03.67-2.7 1.34-2.03 3.37l3.38 12.18c.68 2.04 2.04 2.7 3.4 2.7 2.02-1.34 2.02-2.7 2.02-3.37l-3.38-12.86c-1.36-2.03-2.04-2.03-3.4-2.03zm29.78 8.1l-6.77 5.42-3.38 1.36c-1.36 1.35-2.03 2.03-1.36 3.38.68 2.03 1.36 2.03 3.4 2.03l4.73-2.06 7.44-6.1c1.38-.66 1.38-2.02-.65-4.05h-3.38z"/><path fill="#D96038" d="M142.54 49.17l-7.45-.68c-.7-6.1-2.06-12.2-4.77-17.6l-10.83 2.7-8.8-6.8c-4.7 3.4-8.1 8.14-10.8 13.55l-2.03 6.1c-5.42-2.04-10.15-3.4-16.24-3.4l-6.77.7-2.03 10.14-11.5 6.1c3.38 6.75 8.1 13.52 14.2 20.3-2.7 4.72-6.1 10.82-8.8 19.62l11.5 4.06 1.36 10.8c6.1-.67 13.5-3.38 23.66-8.1 6.77 6.07 13.54 10.8 20.98 12.84l5.42-9.47 12.18-.68a61.5 61.5 0 0 0 2.03-15.58l-1.36-8.13c6.1-.67 12.87-5.4 18.28-12.85l-8.1-8.8 2.7-10.83c-2.7-2.7-6.78-3.4-12.87-4.06z"/><path d="M156.75 63.38l2.03-10.15c0-2.04 0-2.7-1.35-3.4-4.07-2.7-10.83-4.73-19.63-4.73-1.36-8.8-2.7-13.53-4.06-15.56-.68-1.36-2.03-2.7-4.07-2.04l-9.47 2.04-7.45-5.42c-1.35-1.35-2.7-1.35-4.05 0-6.1 5.42-10.83 10.83-13.54 18.28a35.27 35.27 0 0 0-14.2-2.7l-6.78 1.34c-1.36.68-2.03.68-2.03 2.03l-2.7 8.8-10.16 5.4c-.7.7-1.4 1.37-1.4 2.72l.7 1.32c2.03 6.1 6.77 12.86 12.86 19.63L63.34 99.9c0 1.36.68 2.7 2.7 2.7l8.8 3.4 2.04 9.47c0 2.02 1.33 2.7 3.36 2.7 6.77-.68 14.22-3.4 22.34-7.45 6.77 5.42 13.54 10.16 21 12.2l3.37-1.37 4.74-8.1 10.16-.7 3.4-2.7 2.02-14.22-.7-8.12c6.1-2.02 12.2-6.1 17.6-12.85v-2.02l-.67-2.7-6.76-6.78zm-21.66-11.5c6.1 0 11.5 0 16.22 2.7l-2.03 8.8v.67l.67 2.7 6.77 6.78c-5.4 5.4-10.15 8.8-14.9 8.8l-2.02 1.35-.67 2.03.67 1.38.68 8.8-2 10.16-8.8.68-2.7 1.35-4.08 8.13-18.27-12.2h-3.4A64.27 64.27 0 0 1 83 110.74l-1.35-8.12-2.7-2.03-7.46-3.4a62.5 62.5 0 0 1 6.75-14.9l.68-2-.68-2.06c-5.4-5.4-9.47-10.83-12.18-16.24l8.12-5.4 2.02-1.36 1.37-8.12c6.1-.67 12.17-.67 18.26 2.7h3.38l1.36-2.7 2.7-4.73c1.37-4.1 4.75-8.15 8.13-10.86l6.1 4.74 2.7.67 8.13-2.03 3.38 13.54c0 2.7.7 3.37 3.4 3.37z"/><path d="M111.4 60c-3.38 0-6.76 1.34-9.47 4.05a13.4 13.4 0 0 0-4.06 9.48c0 3.38 1.35 6.77 4.06 8.8 2.7 3.38 6.1 4.73 9.47 4.73 3.4 0 6.77-1.35 8.8-4.73 3.4-2.03 4.74-5.42 4.74-8.8 0-3.38-1.35-6.77-4.74-9.48-2.03-2.7-5.4-4.06-8.8-4.06zm8.12 13.53c0 2.03-1.35 4.06-2.7 5.4a7.68 7.68 0 0 1-5.42 2.04 7.68 7.68 0 0 1-5.4-2.03c-2.04-1.35-2.72-3.38-2.72-5.4 0-2.72.68-4.07 2.7-6.1a7.7 7.7 0 0 1 5.42-2.03 7.7 7.7 0 0 1 5.42 2.06c1.35 2.03 2.7 3.38 2.7 6.1z"/><path d="M112.76 82.33c-1.36 1.35-2.03 2.03-1.36 3.38l8.12 12.2c.68 2.05 2.04 2.7 4.07 1.37 1.32-1.36 1.32-2.03 0-3.4l-7.48-12.84c-.67-2.03-2.03-2.03-3.38-.67zm23.68-15.57l-14.88 2.03c1.35 0 2.03.65 2.7 2 .68 2.04-.67 2.7-2.7 3.4l16.24-2.05c2.03-.68 2.7-2.02 2.03-3.38 0-2.04-1.35-2.04-3.4-2.04zM97.87 83l-6.77 9.5c-1.35.68-2.03 2.03-1.35 3.38 1.35 1.36 2.7 1.36 4.73.68l7.45-10.83c1.35-1.34 1.35-2.7-.68-3.37-1.35-1.36-3.38-1.36-3.38.68zM85 64.05c-.67 2.04-.67 2.7.68 4.06L96.5 75.6l3.4-.68c1.37-1.36 1.37-2.7-.66-4.07L89.08 63.4l-4.06.66zm28.44-12.18c0 3.38-1.36 7.45-3.4 11.5-.67 1.36-.67 2.72 1.36 3.4 1.36.66 2.7.66 3.4-1.36a45 45 0 0 0 4.05-13.5c0-2.04-.68-2.7-2.7-3.4-1.36 0-2.72 1.35-2.72 3.38z"/><path fill="#D96038" d="M209.54 32.25c-2.03 5.4-4.06 10.82-4.06 16.24v7.42a30.83 30.83 0 0 0-14.9 4.05l-6.08 3.38 2.03 10.15-7.44 10.16c5.4 5.4 12.82 8.8 21.62 12.18-1.35 5.42-.67 12.18.68 21.66l10.84-1.35 6.77 8.8c5.4-2.7 10.85-8.8 17.6-16.93l25.06 2.7.67-11.5 10.83-5.4-5.4-15.58-4.07-6.1c5.4-3.37 8.8-10.14 11.5-19.6L263 47.8l-2-11.5-12.86 2.03-7.44 3.4-8.13-10.17-3.38-4.06-8.8 7.45-10.85-2.7z"/><path d="M274.52 96.54l2.03-2.7v-.68c-1.36-6.77-4.07-13.54-8.13-20.98 4.07-4.74 7.45-10.84 9.48-18.96l.68-.67-2.7-3.38-9.48-4.07-2.03-8.8-2.7-3.38c-4.75 0-11.52.67-19.64 4.06l-6.77-8.8-4.06-3.38c-1.35-1.36-2.7-1.36-4.74 0l-6.76 6.08-9.48-2.02c-1.35-.68-2.7.68-4.06 2.02-2.7 5.42-4.06 12.2-4.06 18.96v3.4c-4.74 0-9.48 2-14.22 4.04-2.7 1.36-4.06 2.7-5.4 3.4l-1.37 2.7 1.4 8.8-6.1 9.47-.68 2.03 1.36 2.03c5.42 5.45 12.2 9.5 20.3 12.2l-.67 4.75 1.36 14.9c0 2.02 1.35 3.38 3.38 3.38l9.48-1.35 5.4 7.45c1.37 1.35 2.73 2.02 4.76.68 4.74-2.7 10.83-8.12 16.92-16.24l24.36 2.7 2.7-3.37.7-9.5 8.8-4.73zm-54.82-58.2l2.7-1.36 6.77-5.4 8.8 11.5c.68 2.02 1.35 2.7 4.06 2.02 6.77-3.38 11.5-5.4 16.24-5.4l1.36 8.8 2.7 2.7 8.13 3.36c-2.7 7.45-5.42 12.87-8.8 14.9l-1.36 2.02v.67l.68 2.03 2.7 4.74 5.42 12.86-8.8 4.74c-.67.68-1.35 1.35-1.35 2.7l-.68 8.13-20.3-2.7c-2.03-.68-3.4 0-4.06 1.35l-14.2 14.2-4.05-6.08c-1.35-1.35-2.7-2.04-3.38-1.35l-8.12.67-.68-10.84.68-6.76-2.7-3.4c-6.78-2.02-12.2-5.4-17.6-10.14l5.4-6.77.68-2.03v-1.35l-2.02-7.45c4.75-4.06 10.84-5.4 17.6-5.4l3.4-1.37V49.8c0-4.05.67-8.8 3.38-13.52l7.44 2.03z"/><path d="M242.03 75.56c0-4.07-1.35-6.77-4.06-10.15-2.03-2-5.42-3.36-8.8-3.36-4.06 0-7.45 1.36-10.15 3.4-2.7 3.37-3.4 6.07-3.4 10.14 0 3.38.7 6.77 3.4 8.8 3.38 2.7 6.1 4.73 10.15 4.73 3.38 0 6.77-2.02 8.8-4.73 2.7-2.03 4.06-5.42 4.06-8.8zm-12.86-8.12c2.03 0 3.4.67 5.4 2.7 1.37.68 2.05 2.72 2.05 5.42l-2.04 5.4c-2.03 1.37-3.38 2.72-5.4 2.72-2.72 0-4.07-1.35-6.1-2.7-1.36-2.04-2.03-3.4-2.03-5.42 0-2.7.67-4.74 2.03-5.4 2.03-2.05 3.38-2.72 6.1-2.72z"/><path d="M235.26 80.97c-1.35 2.04-1.35 2.7.68 4.06l12.18 8.13 3.4-.68c1.34-2.03 1.34-2.7-.7-3.38l-12.17-8.8c-2.03-.68-2.7 0-3.4.67zm14.2-24.37l-12.84 8.8c-1.36 1.36-1.36 3.4-.68 4.07 1.35 1.35 2.7 1.35 4.06.68l12.86-8.13c2.03-1.35 2.03-2.7.68-4.06-.68-1.35-2.03-2.02-4.06-1.35zm-27.74 32.5l-2.7 10.83c-.68 1.35 0 2.7 1.35 4.06 2.03.64 2.7 0 4.06-1.4 1.36-3.37 2.03-8.1 2.03-13.53 0-2.04-.67-2.7-2.03-3.4-2.03 0-2.7 1.36-2.7 3.4zM202.1 76.9c0 2.04.68 3.4 2.7 3.4l12.86 2.03c1.36 0 2.04 0 2.7-2.03.7-2.04-.66-3.4-2.02-3.4l-12.86-2.02c-1.35 0-3.38.68-3.38 2.03zm22.33-27.06c-2.03.67-2.03 2.03-2.03 3.38 2.03 3.4 2.7 7.45 2.03 12.2 0 1.34.68 2.7 2.03 2.7 2.03.67 2.7-.68 3.4-2.7 0-4.75-.7-9.5-2.04-13.55-1.36-2.03-2.03-2.03-3.4-2.03z"/><path stroke-miterlimit="100" d="M367 582H5V5h362v577z" fill="none" stroke="#000" stroke-width="10"/></svg>