<svg xmlns="http://www.w3.org/2000/svg" width="372" height="587" viewBox="0 0 372 587"><path fill="#fffaf0" d="M0 0h372v587H0z"/><path d="M82.57 110.1c-2 0-3.3 1.33-3.3 3.3v90.72c-.67 99.3 1.98 200.6 6.6 304.54l3.32 2.65 1.98-1.33V508c-5.3-103.3-7.3-204.58-6.62-303.9v-90.7c0-1.97-.67-3.3-2-3.3z"/><path fill="#9260C7" d="M97.8 525.2L89.2 508l-5.97 18.53c-1.98 12.58 1.33 18.54 9.27 17.88 8.6-1.32 9.93-7.28 5.3-19.2z"/><path d="M91.18 506.66l-2-1.32-2.64 2-5.3 15.22c-1.98 9.27-1.98 16.55 1.33 20.52 2 3.3 5.3 4.64 9.93 3.97 5.3-.66 7.94-2.64 9.93-5.95 2-4.64 1.32-11.26-3.3-19.86l-7.95-14.58zm-4.64 33.1l-1.32-5.95c0-5.28 1.32-11.9 3.97-19.18 5.95 9.26 8.6 16.55 8.6 21.18l-.67 2.65c0 1.98-1.32 2.65-4.63 3.3-3.3 0-4.63-.65-5.96-1.98z"/><path fill="#9260C7" d="M52.12 461l17.2 5.94-7.93-16.55c-6.63-9.28-12.6-11.92-17.23-5.97-5.95 6.63-2.64 11.92 7.95 16.56z"/><path d="M38.88 453.7c1.98 3.98 6.62 7.95 15.9 11.26l14.55 4.63 2-.67.65-2.65c-5.96-17.2-13.24-25.82-20.52-27.8-3.3 0-6.62 1.32-9.93 3.97-2.66 3.3-3.3 7.28-2.66 11.25zm7.27-7.28c1.33-1.98 2.66-2.65 4.64-1.98 3.97.66 9.26 6.62 13.9 19.2-11.93-3.98-19.2-7.95-20.53-11.92v-1.33l1.98-3.98z"/><path d="M71.32 464.96h-3.3l-.68 2.65.67 1.33 17.88 15.9 3.97-.67c1.33-.67.66-2.65-.66-3.3l-17.88-15.9z"/><path fill="#9260C7" d="M118.98 458.34l-11.25 15.9 19.2-3.32c10.6-3.3 14.56-8.6 10.6-15.23-4.64-7.3-10.6-5.97-18.55 2.64z"/><path d="M140.83 464.96c1.32-3.97.66-7.28-1.32-10.6-1.98-3.3-5.3-5.95-9.26-5.95-4.64.67-9.93 3.98-15.9 11.92l-8.6 11.92v2.65c1.33 1.3 2 1.97 2.65 1.97 17.87-1.32 28.46-5.3 32.43-11.9zM136.2 461l-.67 1.3c-1.98 4.64-9.93 6.63-21.84 8.62 6.6-11.26 11.9-16.56 17.2-16.56l3.97 2.65 1.33 4z"/><path d="M110.38 472.24c-1.33-1.32-2-1.32-3.3-.66l-20.54 12.58c-1.98.66-1.98 2.64-.66 3.3 0 2 2 2.65 3.3 1.33l19.87-12.6c2-1.3 2-1.97 1.33-3.96z"/><path fill="#9260C7" d="M49.47 417.95l17.87 4.64-9.26-16.56c-7.3-9.27-13.24-11.26-18.55-4.64-4.62 6.62-1.3 11.26 9.94 16.55z"/><path d="M47.48 394.78c-3.3 0-6.62 1.33-9.26 4.64-3.3 3.3-3.3 6.62-2.65 11.25 1.98 3.97 7.27 7.28 15.9 10.6l14.55 3.3c1.32.67 2 0 3.3-.66v-2.64c-7.27-16.55-14.55-25.15-21.84-26.48zm-5.95 7.95c1.98-1.33 3.3-2 5.3-2 4.63.67 9.26 6.63 15.22 17.9-12.58-2.66-19.2-5.97-21.2-10.6l-.65-.67 1.33-4.63z"/><path d="M68.67 420.6c-1.33-1.32-2.65-1.32-3.97.66-.67.67-.67 2.65.66 3.32l19.2 14.56 3.3-.66c1.33-1.33 1.33-2.65 0-3.3l-19.2-14.58z"/><path fill="#9260C7" d="M114.35 410.67c-3.3 4.64-6.62 9.93-9.27 15.9l17.88-4.64c11.25-3.98 14.56-9.93 9.26-15.9-4.63-6.6-10.6-4.63-17.87 4.64z"/><path d="M134.2 404.7c-1.98-3.96-5.3-5.28-9.26-5.28-4.63.66-9.27 5.3-14.57 12.58l-7.94 13.24c0 .66 0 1.98.66 2.65.65.65 1.32 1.3 2.64 1.3 17.88-2.64 27.8-7.27 31.12-14.55.66-3.32.66-6.63-2.65-9.94zm-1.98 6.63l-.66 1.33c-1.32 4.63-9.27 7.94-21.84 9.93 5.95-11.27 11.25-17.22 15.88-17.9 1.33 0 3.3.68 4.64 3.32l1.98 3.3z"/><path d="M107.06 424.57h-3.3l-19.2 13.9c-2 2-2 2.65-.67 3.98l3.97.66 19.2-14.55c.66-.67.66-2 0-3.98z"/><path fill="#9260C7" d="M52.78 365c4.63 3.3 9.93 5.94 16.55 7.94l-5.3-17.88c-5.3-10.6-10.6-13.24-16.55-8.6-6.62 5.3-4.63 11.24 5.3 18.53z"/><path d="M70.65 374.92l.67-2.65c-3.3-17.2-8.6-27.14-15.23-29.8-3.98-1.32-7.3-.65-11.26 2.66-3.32 2.64-3.98 5.95-3.98 9.93.67 3.98 5.3 9.27 13.24 13.9L68 375.6l2.65-.68zM48.8 348.44l5.3-.67c3.98.67 7.3 7.96 10.6 20.53-11.26-5.3-17.22-9.93-18.54-14.57v-.66l2.65-4.63z"/><path d="M71.32 371.6h-3.98c-1.32 0-1.32 1.33 0 3.32l15.23 17.88 3.3.66c2-.66 2-2 0-3.97l-14.55-17.9z"/><path fill="#9260C7" d="M120.3 373.6c-4.63 3.97-9.26 7.94-13.23 12.58l18.53.66c11.26-1.32 15.9-5.3 12.58-13.24-2.65-7.28-9.27-7.28-17.87 0z"/><path d="M140.17 382.87c1.98-2.65 1.98-5.97.66-10.6-2-3.97-3.97-6.6-7.94-6.6-7.3-.68-16.56 5.27-28.48 19.18 0 .67-.67 1.32 0 2.65l2 1.33c17.86 2.64 29.1 0 33.75-5.96zm-4.64-7.95c1.33 1.98 1.33 3.98 0 5.3-2.64 3.97-10.6 4.63-23.17 3.97 8.6-9.28 15.23-14.57 19.86-13.26 2 0 2.65 1.33 3.3 3.98z"/><path d="M109.05 385.52c-.66-1.33-1.32-2-3.3-1.33l-21.86 8.6c-2 .66-2.65 1.98-2 3.3.67 2 2 2 3.32 2l22.5-9.27c1.33-.67 2.66-1.33 1.33-3.3z"/><path fill="#9260C7" d="M44.84 280.25l17.87 4.63-9.92-15.9c-7.28-9.25-13.24-10.58-17.87-4.62-4.63 6.62-1.32 11.92 9.94 15.9z"/><path d="M65.36 283.56C57.4 267 49.46 259.06 42.2 258.4c-3.98-.66-6.63 1.33-9.3 5.3-2.63 3.3-3.3 6.62-1.3 9.93 1.3 3.97 6.62 7.94 15.88 10.6l15.23 3.3 2-1.32.66-2.64zm-29.8-13.24l2-3.97 3.97-2.65c4.62 0 9.93 6.62 16.55 17.2-13.24-1.98-19.86-5.3-21.86-9.26l-.66-1.32z"/><path d="M64.7 282.23c-2-.66-3.3 0-3.98 1.33-1.32 1.32-1.32 2 .67 3.3l19.85 13.9 3.3-.65c.67-1.3 0-2.64-.66-3.96l-19.2-13.9z"/><path fill="#9260C7" d="M117.66 276.08l-13.24 17.15h19.2c11.25-1.7 15.9-6.86 13.24-16.3l-19.2-.85z"/><path d="M130.9 272.3c-4.63 0-10.6 2-17.22 8.6l-11.25 11.27v2.64l2 1.34c17.86 2.65 29.12 0 33.75-5.96 2-2.65 2.65-5.96.66-9.93-1.32-4.64-4.63-6.62-7.94-7.95zm3.3 9.93c.67 2 .67 3.98 0 4.64-3.3 3.97-10.58 5.3-23.82 4.63 8.6-9.93 15.22-14.56 19.86-13.9l3.97 4.63z"/><path d="M107.06 292.17c-1.32-1.33-1.98-2-3.3-.67l-22.5 8.6c-2 0-2 2-1.34 3.32.66 2 1.33 2 3.3 2l22.52-9.28c2-.66 2-2 1.33-3.97z"/><path fill="#9260C7" d="M50.8 235.9c4.63 3.3 9.92 6.6 16.54 8.6l-5.95-17.2c-5.3-11.27-10.6-13.9-16.56-8.63-6.62 5.3-3.98 11.27 5.95 17.22z"/><path d="M52.78 214.04c-2.65-1.32-6.62 0-9.93 2.65-3.32 2.64-4.63 5.95-3.97 9.93 1.32 7.28 10.6 13.9 27.14 20.52l3.3-.66v-2.66c-3.3-17.88-9.26-27.8-16.54-29.8zm9.93 25.83c-11.24-5.3-17.86-9.93-18.53-13.9v-1.33c0-1.32.67-2.65 2-3.97 1.98-1.33 3.3-2 5.3-1.33 4.62 1.33 7.93 7.95 11.24 20.53z"/><path d="M69.33 242.5c-1.32-1.3-2.65-1.3-3.97 0-1.33 1.34-1.33 2.66-.66 3.32l16.55 17.88 3.3.66c1.33-.66 1.33-2 0-3.97l-15.22-17.9z"/><path fill="#9260C7" d="M130.9 229.27c-5.3-6.62-10.6-5.3-18.54 3.3l-9.93 16.56 18.54-4.63c11.25-3.97 14.56-9.28 9.93-15.23z"/><path d="M132.9 227.3c-2.66-3.33-5.97-4.65-9.28-4.65-4.64 0-9.94 4.64-15.9 11.92l-7.28 12.58v3.3l2 .67c18.53-2 28.46-6.62 31.77-13.24 1.33-3.3 1.33-6.63-1.3-10.6zm-2.66 6.6l-.66 2c-2 4.63-9.28 7.94-21.85 9.26 6.62-11.25 11.92-17.2 16.55-17.87 1.32 0 3.3 1.3 3.97 3.3l2 3.3z"/><path d="M104.42 247.15l-3.3-.66-19.87 13.9c-1.33.65-1.33 1.97 0 3.3l3.3.66 19.87-13.9c1.32 0 1.32-1.33 0-3.3z"/><path fill="#9260C7" d="M44.17 319.3l18.54 2.66-11.24-15.23c-7.95-7.94-13.9-9.27-18.55-2-3.96 6.63.02 11.27 11.27 14.58z"/><path d="M31.6 302.76c-2.66 3.97-3.32 7.28-1.33 10.6 3.97 6.6 14.57 10.58 32.44 11.9 1.33 0 2-.66 2-1.98 1.32-.65 1.32-1.32 0-2-8.6-15.87-16.55-23.82-24.5-24.48-3.98 0-6.62 2-8.6 5.96zm3.3 8.6l-.66-1.98 1.32-3.98c2-1.98 2.66-3.3 4.64-3.3 4.64.66 10.6 5.95 17.2 16.54-12.56-1.32-20.5-3.97-22.5-7.28z"/><path d="M64.03 319.97c-1.32-1.32-2.64-.66-3.3 1.32-1.33.66-1.33 1.98.66 3.3l19.85 12.58c1.98 1.33 3.3.66 3.97-1.3.66-1.35.66-2.66-.66-3.33l-20.53-12.58z"/><path fill="#9260C7" d="M137.52 321.96c-3.3-7.3-9.93-7.3-18.54 0-4.63 3.3-9.27 7.94-13.24 13.24h18.54c11.25-1.33 15.9-5.96 13.24-13.24z"/><path d="M131.56 314c-4.63-.65-10.6 2-17.2 7.96l-10.6 11.25-1.33 2.66 2.65 1.98c17.88 1.33 29.13 0 33.76-5.95 2.65-3.32 2.65-6.63.67-10.6-1.98-4.64-3.97-6.63-7.94-7.3zm-.66 5.3c1.32 0 2.65 1.33 3.3 3.32 1.33 2.65 1.33 4.63 0 5.96-2.64 3.3-10.58 4.64-23.16 3.98 9.27-9.94 15.9-13.9 19.86-13.25z"/><path d="M107.73 333.87c0-1.98-2-1.98-3.3-1.98l-21.86 9.25c-2 .67-2 2-2 3.98.68 1.32 2 2 4 .67l21.83-8.62c1.33-.66 2.65-1.98 1.33-3.3zM196.44 128.64c-.66-2-1.98-2-3.3-2-2 .68-2.66 2-2 3.32l23.84 87.4c17.2 64.87 28.47 116.5 33.1 154.9l2.65 2.66c2.65-.67 3.3-1.98 2.65-3.3-5.3-38.4-15.9-90.7-33.1-155.6l-23.84-87.38z"/><path fill="#9260C7" d="M205.7 353.07c5.3-1.32 11.27-4.63 16.56-7.94-5.96-3.3-11.9-5.3-17.87-5.96-11.27-2.65-16.57.66-16.57 8.6.66 7.96 6.63 9.93 17.88 5.3z"/><path d="M224.9 344.46l-1.3-2.64c-17.23-5.96-29.14-7.3-33.78-3.3-3.3 1.3-4.63 4.62-4.63 9.92.65 3.97 2.64 7.28 5.94 8.6 3.98 2 10.6 1.33 19.87-2.65l13.25-7.95.66-2zm-33.75 3.3c-.66-2.63 0-3.96 1.32-5.28 3.97-2.65 11.92-1.33 24.5 2.65-11.93 6.62-19.2 9.27-23.17 7.28-2-.65-2.65-2.64-2.65-4.63z"/><path d="M248.75 342.48c0-1.33-1.33-2.65-2.65-2.65l-23.84 2c-1.32 0-2.65 1.3-2.65 3.3.68 1.32 1.34 2.64 3.33 2.64l23.83-2.64c1.32 0 2.64-.67 2-2.65z"/><path fill="#9260C7" d="M197.1 305.4l17.88-3.97-15.23-9.93c-10.6-5.3-16.55-3.97-17.88 3.97-1.3 7.95 3.3 11.26 15.23 9.94z"/><path d="M181.88 305.4c3.97 3.32 9.93 3.98 19.2 2.65l15.22-3.97 1.33-1.98c.66-.67 0-2-.66-2.65-13.9-11.26-24.5-15.9-31.8-12.58-3.3 1.32-5.28 3.97-5.94 8.6-1.32 3.98 0 7.3 2.65 9.94zm2.65-9.26c0-2.65.66-3.98 2.65-4.64 4.63-1.98 11.9 1.33 22.5 8.6l-24.5 1.33c-.66-1.32-1.3-2.64-.66-5.3z"/><path d="M216.3 298.8c-1.98 0-3.3.65-3.3 2.63 0 1.33.66 2 1.98 2.65l23.17 4.64c2 0 3.3-.67 3.3-2.65 0-1.33-.65-2.65-1.97-3.3l-23.18-3.98z"/><path fill="#9260C7" d="M297.73 360.72c3.3-8.78-.66-14.37-12.57-15.97h-18.54l13.24 15.97h17.87z"/><path d="M263.97 342.48l.66 2.65 10.6 11.9c7.28 5.98 12.57 9.3 17.2 8.63 4-.67 6.63-2.65 7.95-7.3 2.65-3.97 2-7.28 0-9.92-4.63-6.62-16.55-9.27-33.76-6.62-.67 0-2 0-2.65.66zm31.78 13.9l-3.97 3.98c-4.64.65-10.6-3.98-19.2-13.9 13.24-.66 21.18 1.3 23.17 4.63 1.32 1.3 1.32 3.3 0 5.28z"/><path d="M246.1 331.9c-2-.68-3.32 0-3.32 1.3-1.32 2-.66 3.32 1.33 3.32l21.86 9.94c1.32 1.3 1.98 0 3.3-1.33 1.33-1.98.67-2.65-1.32-3.3l-21.84-9.94z"/><path fill="#9260C7" d="M294.42 288.86c-.66-7.95-6.62-9.27-17.2-4.64l-16.56 9.27 18.54 5.3c11.25 1.3 16.55-2 15.22-9.94z"/><path d="M291.1 280.25c-3.96-2-10.58-1.32-18.52 3.3-5.96 2.66-9.94 5.3-13.24 7.95-1.33.67-1.33 1.33-1.33 2l2 2.64c17.2 5.96 27.8 7.28 33.76 2.65 3.3-2 3.97-5.3 3.3-9.94 0-4.64-1.97-7.3-5.95-8.6zm1.34 9.27c0 2.65 0 3.97-2 5.3-3.3 1.98-11.24 1.32-23.16-2 10.6-7.27 17.88-9.26 22.5-7.94 1.33.66 2 2 2.66 4.64z"/><path d="M263.3 292.83c0-1.33-.66-2-2.64-2l-23.83 3.32c-2 0-2.65 1.32-2.65 2.65 0 2 1.33 2.65 3.3 2.65l23.84-3.3c2 0 2.65-.67 2-3.32z"/><path fill="#9260C7" d="M246.1 247.15l17.2-7.95c9.94-5.95 11.93-11.9 6.63-17.22-5.96-5.3-11.92-2.64-17.2 7.3-2.66 5.3-5.3 11.25-6.63 17.87z"/><path d="M274.56 229.94c1.33-3.3 0-6.62-3.3-9.93-3.32-2.64-6.63-3.97-10.6-2.64-3.97.65-7.95 5.96-12.58 14.55l-4.63 14.6.66 2.63h2.66l13.9-5.3c8.6-4.63 13.24-9.26 13.9-13.9zm-4.63-2v1.33c-.66 3.98-7.28 8.6-19.86 13.24 3.97-11.9 7.94-19.18 12.58-20.52 1.32-.66 3.3.67 4.63 2l2.65 3.97z"/><path d="M248.08 249.13c1.32-1.98 1.32-3.3-.66-3.97-.66-1.32-1.98-1.32-3.3 0l-16.56 17.2c-.66 1.34-.66 3.32 0 4 1.32 1.3 2.65 1.3 3.97 0l16.55-17.23z"/><path fill="#9260C7" d="M197.77 244.5c-9.27-7.28-14.57-7.94-18.54-.66-3.98 6.62.66 11.9 11.92 13.9l18.53 1.32c-3.3-5.3-7.95-9.93-11.9-14.56z"/><path d="M185.2 235.9c-3.32 0-6.64 2.63-7.95 6.6-2.65 4-2.65 7.96 0 10.6 1.98 3.98 7.94 6.63 17.2 7.95l15.23.66c1.33 0 2-.65 2-1.3v-2.66c-10.6-15.23-19.2-21.85-26.5-21.85zm-4.64 11.9l.66-3.3c1.98-2 3.3-3.3 4.63-3.3 4.64-.67 10.6 4.62 18.54 15.22-13.25-.67-20.53-2.65-23.2-5.96l-.64-2.65z"/><path d="M211 257.08c-1.32-1.33-2.64-.66-3.3.66-.66 1.32-.66 2.65.66 3.3l21.85 11.26c1.33 1.33 2.65.67 3.32-1.32.66-1.32.66-2-1.32-3.3l-21.2-10.6z"/><path fill="#9260C7" d="M195.78 210.74l-13.9-12.6c-9.27-7.27-15.23-6.6-17.88 1.34-2.65 7.3 1.32 11.25 13.24 11.9l18.54-.64z"/><path d="M168.63 190.87c-3.3.66-5.95 3.3-7.28 7.28-1.98 4.64-1.32 7.95.66 10.6 3.32 3.97 9.28 5.3 19.2 5.96l15.24-1.3 2-2-.67-2c-11.92-13.9-21.2-19.85-29.14-18.53zm1.33 5.3c4.63-1.33 11.25 3.3 20.53 12.57-13.26 2-21.2.67-23.85-3.3-1.33-1.33-2-2.65-.66-5.3 1.3-2.65 1.97-3.97 3.96-3.97z"/><path d="M197.1 208.08c-2-.66-3.3 0-3.3 2-.67 1.3 0 2.64 1.3 3.3l22.53 7.95c1.32.65 2.65 0 3.3-1.32 0-1.98 0-2.64-1.32-3.97l-22.5-7.95z"/><path fill="#9260C7" d="M231.53 189.55c5.96-2 11.92-4.64 16.55-7.95 9.93-5.96 12.58-11.9 6.62-17.2-5.96-5.3-11.25-2.66-17.2 7.93-2.66 5.3-3.98 11.26-5.97 17.22z"/><path d="M260.66 172.33c0-3.97-1.33-7.28-3.97-9.93-4-2.64-7.3-3.97-10.6-2.64-6.63 1.98-12.58 11.9-17.22 29.8 0 1.3.66 1.97 1.33 1.97l2.65 1.33c16.55-6.62 25.83-13.24 27.8-20.53zm-13.24-7.94c1.98 0 3.3 0 5.3 1.98l1.98 4.63c-.66 4.64-7.28 9.94-19.2 14.57 3.97-12.57 7.95-19.2 11.92-21.18z"/><path d="M233.52 187.56l-3.98.66-15.88 17.88c-1.33.66-1.33 1.98 0 3.3 1.32 1.33 2.64 1.33 3.97 0l15.9-17.87c1.3-1.32 1.3-2.65 0-3.97z"/><path fill="#9260C7" d="M258 388.83l-7.27-17.22-6.62 17.23c-3.3 11.9 0 17.2 7.3 17.2 8.6-.65 10.58-5.95 6.6-17.2z"/><path d="M260 384.2l-6.62-13.26c-.67-1.3-1.32-1.97-2.65-1.97-1.32 0-1.98.66-2.65 1.97-1.98 3.32-3.97 7.96-5.3 13.9-2.64 9.28-2.64 15.9-.65 19.87 1.98 2.66 5.3 4 9.26 4 4.63 0 7.94-1.34 9.92-4.65 2.65-4.63 2-11.25-1.32-19.86zm-8.6 19.2c-2.65 0-3.98-.67-4.64-2l-.66-3.97c0-5.96 1.32-12.58 4.63-19.86 4.64 9.27 6.62 15.9 6.62 19.86l-.66 3.97c-.68 1.33-2.66 2-5.3 2zM267.28-54.74c-1.98 0-3.3.66-3.3 2.64 0 44.36 9.92 93.35 31.77 148.3 10.6 27.14 21.18 50.3 33.1 70.18.66 1.32 1.32 1.32 3.3.66 1.33-.66 1.33-2.65.68-3.97-10.6-18.54-21.86-41.7-32.45-68.85-21.18-54.3-31.1-103.28-30.45-146.32 0-1.98-1.32-2.64-2.65-2.64z"/><path fill="#858585" d="M299.72-12.38L284.5-13.7 287.13.87c4.64 9.26 13.24 13.24 27.14 11.9-.65-13.23-5.3-21.83-14.56-25.14z"/><path d="M292.44-16.35h-8.6c-.67 0-1.33.66-1.33 2.65-1.32.66-1.32 3.3 0 7.94 1.33 5.96 3.32 10.6 7.3 14.57 5.95 5.3 13.9 7.95 24.48 6.63 2 0 2.65-.66 2.65-2.65 0-10.6-3.3-18.54-9.93-23.83-3.97-3.3-9.27-5.3-14.56-5.3zm-5.3 5.3c6.62-.66 12.58.66 16.55 3.97 3.97 3.3 6.62 9.27 7.27 17.2-7.28.68-13.24-1.3-17.2-5.28-3.98-3.97-6.63-9.27-6.63-15.9z"/><path d="M265.95-30.9c-1.32 1.97-1.32 3.3.67 3.96l16.55 15.23c1.32.65 2.65.65 3.97 0 .66-1.34.66-2.66-.66-4l-16.55-15.2c-1.32-.67-2.65-.67-3.98 0z"/><path fill="#858585" d="M324.2 57.14c-.64-13.9-6.6-21.85-16.54-24.5l-14.56-.66 3.97 14.56c4.64 8.62 13.9 12.58 27.14 10.6z"/><path d="M300.38 28.67L292.44 30c-1.33 0-2 1.32-2 1.98l1.34 7.94c1.32 5.96 3.97 10.6 7.94 13.9 6.62 5.96 14.56 7.95 25.16 5.96l1.98-2.64c-.66-11.26-3.97-18.54-11.25-23.84-4.63-2.64-9.25-3.97-15.22-4.63zm12.58 9.27c3.97 2.65 7.28 8.6 7.94 17.22-7.27 0-13.9-1.33-17.87-5.3-3.97-3.32-5.96-7.95-6.62-15.23 6.63-.66 12.6.66 16.56 3.3z"/><path d="M295.1 33.97c1.3-1.33 1.3-2.65-.68-3.98l-17.2-13.9c-1.33-.67-3.32-.67-3.98.65-.66 2-.66 2.65.66 3.98l17.2 13.9c2 .66 2.66.66 4-.66z"/><path fill="#858585" d="M336.8 111.43c0-13.9-5.97-22.5-15.9-25.83l-13.9-.65 3.32 14.56c3.96 9.28 13.24 13.25 26.48 11.93z"/><path d="M303.7 84.95l.65 8.6c2 5.3 4.64 9.93 7.95 13.24 5.3 5.95 14.56 7.94 25.15 6.6l2.65-2.63c-.65-11.26-4.63-19.2-10.6-23.84-3.96-2.64-9.26-4.64-15.22-5.3l-7.94.67c-.66.66-2 1.32-2.65 2.65zm30.45 23.17c-7.94.66-13.9-1.33-17.87-4.64-4.64-4.63-6.62-9.93-6.62-15.88 7.27-.67 12.57.66 16.55 3.97 3.98 3.3 7.3 8.6 7.95 16.55z"/><path d="M291.1 68.4l-3.96.65c-.66 1.33-.66 2.66.66 3.32l17.22 14.56H309c1.3-1.32 1.3-1.98 0-3.3L291.1 68.4z"/><path fill="#858585" d="M363.28 143.2c-3.97-12.57-11.26-19.2-21.2-19.86l-14.56 3.3 6.62 13.26c7.3 7.28 17.22 8.6 29.14 3.3z"/><path d="M324.88 127.32l2.65 7.28c2.64 5.3 6.62 9.27 11.25 11.92 7.3 3.3 15.9 3.3 25.82-.67 2-.66 2-1.32 2-3.3-3.98-10.6-9.28-17.22-16.56-19.87l-16.56-1.32-7.28 3.3c-1.32.67-2 2-1.32 2.66zm22.5.66c5.3 1.98 9.28 6.62 12.6 13.24-7.96 2.65-13.9 2.65-18.55 0-4.63-2.65-8.6-6.62-10.6-13.24h16.56z"/><path d="M307.66 114.74c-.66 0-1.98 0-3.3 1.98-.67 1.33 0 2 1.98 3.3l20.52 9.28c1.33.66 2.65 0 3.3-1.32.67-1.33 0-2.65-1.3-3.3l-21.2-9.94z"/><path fill="#858585" d="M257.35-9.73l-1.98-14.56c-4.64.67-9.27 2.66-13.9 5.3-7.95 6.62-10.6 15.9-6.63 28.47 12.58-2.65 20.53-9.27 22.5-19.2z"/><path d="M257.35-25.62l-2.65-1.32c-8.6.66-15.23 4.63-19.86 11.92-4.63 6.62-5.3 15.22-2 25.8 0 1.34 1.34 2 2.67 1.34 11.26-2 17.88-6.62 21.85-13.9 3.3-7.28 3.3-15.23 0-23.84zM254.7-13.7c0 3.3-.66 6.62-1.98 9.27-2.65 5.3-7.95 8.6-15.23 10.6l-1.34-7.3c0-4.63.67-7.94 3.32-11.25 2.65-3.97 7.28-7.28 13.9-8.6l1.32 7.28z"/><path d="M267.94-46.14c-.66-.66-1.98-.66-3.3.66l-11.26 19.86c-1.33 1.33-.67 2.65.66 3.32 1.32 1.32 2.65.66 3.3-.67l11.93-19.2c1.32-1.98.66-3.3-1.33-3.97z"/><path fill="#858585" d="M248.75 68.4c12.57-4.64 19.2-12.6 19.2-22.52l-3.32-13.9c-4.63.66-8.6 3.3-12.58 6.62-7.94 7.28-8.6 17.2-3.3 29.8z"/><path d="M267.28 30.66c-.66-1.33-1.32-2-3.3-1.33-1.34 0-3.32.66-7.3 2.65-5.3 3.3-9.26 6.62-11.25 11.25-3.97 7.3-3.3 15.9 1.33 25.82 0 1.33 1.32 2 3.3 1.33 9.94-3.3 16.56-8.6 19.2-16.55 1.33-5.3 2-10.6.67-15.9l-2.65-7.27zm-19.2 23.83c0-3.32.66-5.97 2-8.62 2.64-4.63 7.27-8.6 13.23-10.6l2.65 9.94-1.98 6.62c-1.33 5.3-5.96 8.6-13.24 12.6l-2.65-9.95z"/><path d="M274.56 8.8c-1.32-1.32-2.64 0-3.3 1.33l-8.6 20.53c-1.34 1.32-.67 2.64 1.3 3.3 1.34 1.33 2.66.67 3.32-1.32l9.27-20.52c.66-1.32 0-2.65-2-3.3z"/><path fill="#858585" d="M277.87 98.2L275.9 83.6c-5.3 0-9.28 2-13.25 5.3-8.6 5.96-9.93 15.9-6.62 29.13 13.24-3.3 20.52-9.93 21.84-19.86z"/><path d="M277.87 105.47c3.98-7.28 3.98-15.23.67-23.18-.67-.66-1.33-2-2.65-2-8.62 1.34-15.9 5.3-20.53 11.93-4.64 7.28-4.64 15.9-2 25.82.67 1.98 1.33 2.65 3.32 1.98 10.58-1.98 17.86-7.28 21.17-14.56zm-2.64-11.25l-2 9.26c-2.64 4.64-7.27 7.95-15.22 10.6l-.65-7.3c0-4.62.66-7.93 2.65-11.24 3.3-3.97 7.28-7.28 13.9-9.28l1.33 7.96z"/><path d="M289.13 61.77c-2-1.32-3.3-1.32-3.97.66l-11.26 19.2c-.66 2-.66 3.32.66 3.98 2 1.33 2.65.66 3.3-.65l11.93-19.87c.65-1.32.65-2.64-.67-3.3z"/><path fill="#858585" d="M292.44 138.57l-2-14.56c-4.62.67-9.26 2.65-13.23 5.96-8.6 5.96-10.58 15.23-6.6 28.47 12.57-3.3 19.85-9.93 21.84-19.86z"/><path d="M293.1 123.34l-2.65-1.98c-9.27.66-16.55 5.3-20.52 11.9-4.63 6.63-5.3 15.24-2.65 25.83l3.3 1.98c10.6-2.65 18.55-7.94 21.86-14.56 3.97-7.3 3.97-15.23.66-23.18zm-4.63 3.3l1.32 7.96-2.66 9.27c-1.32 4.63-6.62 7.94-14.56 10.6l-1.33-7.3c0-3.97 1.33-7.94 2.65-10.6 3.3-4.62 7.95-7.93 14.57-9.92z"/><path d="M303.03 102.16c-2-.66-2.65-.66-3.3 1.32l-11.93 19.2c-.66 1.33 0 2.65 1.32 3.97l3.98-1.32 10.6-19.86c1.32-1.32.65-2.65-.67-3.3z"/><path fill="#858585" d="M332.16 204.12c9.93-9.28 11.9-18.55 7.95-27.8l-9.26-11.93-7.94 11.9c-3.98 9.94-.67 19.2 9.26 27.8z"/><path d="M344.07 182.93c0-5.3-1.98-9.93-5.95-15.23l-5.96-5.3-2.65.67-5.95 5.3c-3.3 5.3-4.63 9.92-5.3 15.22 0 7.93 3.98 15.88 11.92 22.5 1.33 1.32 2.65 1.32 3.3 0 7.96-7.95 11.93-15.23 10.6-23.17zm-4.62 0v1.32c0 5.3-2.65 10.6-7.3 15.9-5.94-5.97-8.6-10.6-8.6-15.9v-.66c0-5.97 2.65-10.6 7.28-15.24 5.3 4.64 7.95 9.27 8.62 14.57zM192.47-80.56c-.66-1.33-1.98-2-3.97-1.33-32.44 13.92-66.2 52.3-99.97 115.2-17.2 32.44-31.78 64.23-43.7 96.66 0 1.33 0 2 1.33 3.3 2 .02 3.3.02 3.97-1.97 11.26-29.8 24.5-60.92 42.37-92.7 33.77-63.55 66.2-101.95 98.64-115.85 2 0 2.66-1.33 1.33-3.3z"/><path fill="#858585" d="M32.91 94.22c-10.57 1.32-17.2 9.26-19.85 21.84 12.6 3.97 21.86 2 28.48-6.62l5.95-13.9-14.56-1.32z"/><path d="M48.15 93.55l-7.95-1.98c-5.3-1.33-10.6 0-15.23 1.98C17.7 98.2 13.05 104.8 10.4 115.4c-.65 1.32 0 2.65 1.33 3.3 11.25 2.66 19.86 2.66 26.5-1.98 3.95-3.3 7.27-7.28 9.92-12.57l1.3-7.95-1.3-2.65zM34.9 112.1c-4.63 2.64-10.6 3.3-18.54 1.98 2.65-7.95 6.62-12.58 10.6-15.23l17.2-.66c-1.97 6.6-4.63 10.58-9.25 13.9z"/><path d="M68.67 83.62c-.66-1.98-2-1.98-3.3-1.33L46.14 93.55c-1.3 1.33-1.98 2-1.3 3.3.65 2 1.97 2 3.3 1.34L68 86.92c1.33-1.33 1.33-2.64.67-3.3z"/><path fill="#858585" d="M54.1 39.26C43.5 38.6 35.56 43.9 29.6 55.8c11.26 7.3 21.2 7.3 29.14.67l8.6-11.25c-3.97-3.3-8.6-5.3-13.24-5.96z"/><path d="M70 45.88c.65-1.32 0-2.65-.67-3.3-7.94-5.3-15.23-7.3-23.18-5.3-7.93 1.98-14.55 7.94-19.2 17.88-.66 1.3-.66 2.65 1.34 3.3 9.25 5.3 17.86 6.63 25.14 3.98 7.95-2.66 13.24-8.6 16.55-16.56zm-22.52-3.3c4.64-.67 10.6 0 16.55 3.3-2.64 5.96-6.62 9.93-12.57 11.26-5.3 1.98-11.26 1.32-18.55-1.98 4.65-6.63 9.3-11.26 14.58-12.6z"/><path d="M91.18 37.94c0-2-1.33-2.65-3.3-2l-21.2 5.97c-1.98 1.33-1.98 2-1.98 3.32.66 2 1.32 2.66 3.3 2l21.85-6.63c1.33 0 2.65-1.34 1.33-2.66z"/><path fill="#858585" d="M73.96 9.47c-10.6 0-17.87 6.62-23.17 19.2 11.9 5.3 21.84 4.63 29.78-2.65 3.3-3.97 5.96-7.28 7.3-12.58-4-2.64-8.62-3.97-13.92-3.97z"/><path d="M90.5 14.1c0-1.32 0-1.98-1.3-3.3-7.95-4.64-15.9-5.3-23.18-2-7.94 2-13.24 8.62-17.87 18.55-.67 1.98 0 3.3 1.32 3.3L75.95 32c7.28-3.3 11.92-9.27 14.56-17.87zm-5.94.67c-2.65 5.96-6.62 10.6-11.26 12.58H54.77c3.3-7.3 7.94-11.92 12.57-13.9l17.22 1.32z"/><path d="M111.04 3.5c-.67-1.3-2-1.3-3.3-1.3l-21.2 8.6c-1.98 1.32-1.98 1.98-1.32 3.3.66 2 1.98 2.65 3.97 1.33l19.85-8.6c2-.67 2.65-1.33 2-3.32z"/><path fill="#858585" d="M102.43-40.84c-9.93-3.3-18.54.66-26.48 11.25 9.93 8.62 19.86 10.6 28.47 5.97 4.63-2.65 7.94-5.96 10.6-9.93l-12.6-7.28z"/><path d="M73.96-30.9c-1.32 1.3-1.32 2.64 0 3.96 8.6 6.62 16.55 9.27 24.5 7.94 7.95-1.32 13.9-5.3 19.2-13.24l-.66-3.3c-5.96-6.63-13.25-9.27-21.2-8.6-8.6 0-15.88 4.62-21.84 13.23zm23.84 7.27c-5.96.66-11.92-1.32-17.88-5.96 5.3-6.6 10.6-9.26 15.9-9.92 5.3 0 11.25 2 15.88 5.96-3.97 5.96-9.27 9.27-13.9 9.93z"/><path d="M140.17-36.87l-2.65-2-22.5 2.66c-1.34 0-2.66 1.32-2.66 2.64 0 2 1.32 2.65 3.3 2.65l21.86-2.66c2.65 0 3.3-.66 2.65-3.3z"/><path fill="#858585" d="M133.55-77.25c-9.27-5.3-19.2-3.32-29.13 5.96 7.94 10.6 17.87 14.57 27.8 11.26 4.64-1.32 8.6-3.97 11.92-7.28-2.65-4.64-5.96-7.95-10.6-9.94z"/><path d="M102.43-73.28c-.66.65-1.32 2.65 0 3.3 6.62 8.62 13.9 13.25 21.85 13.9 8.6 0 15.9-3.3 21.85-9.93 1.32-.67 1.32-1.33.66-2.65-5.3-7.95-11.27-11.92-19.2-13.9-8.62-1.33-16.56 1.98-25.17 9.27zm21.85 11.92c-5.3-.67-9.93-3.3-15.23-9.27 5.96-5.3 11.92-7.28 17.22-6.63 5.95 1.32 10.6 3.98 14.56 9.94-5.3 3.97-10.6 6.62-16.55 5.96z"/><path d="M144.8-69.97l-3.3 2.65c0 1.3.65 1.98 2.64 2.65l22.5 1.98c1.33 0 2-.65 2.66-1.97l-2-2.65-22.5-2.66z"/><path fill="#858585" d="M154.07-22.97l-2 14.57c1.34 10.6 8.63 17.2 21.87 20.52 3.97-13.24 1.32-23.17-6.62-29.13l-13.25-5.97z"/><path d="M154.73-25.62c-1.32-.66-2.65 0-3.3 1.33l-1.33 7.95c-1.33 5.3-.66 10.6 1.32 15.23 3.97 7.28 11.26 12.58 21.85 15.23 1.33 0 1.98 0 3.3-1.98 2.66-9.93 2-19.2-1.97-25.82-3.3-3.97-6.62-7.28-12.6-9.93l-7.27-2zm.66 5.3c7.28 2.65 11.9 5.96 14.56 9.93 1.98 2.66 3.3 6.63 3.3 10.6l-1.97 7.28c-7.3-1.98-12.6-5.3-14.58-10.6-1.33-2.64-2-4.62-2-8.6l.67-8.6z"/><path d="M145.46-44.15l-3.97-1.33c-1.33 1.33-1.33 2-.67 3.98l10.6 19.86c1.32 1.32 2.64 1.32 3.96.66l1.32-3.3-11.26-19.87z"/><path fill="#858585" d="M165.32-34.22c-3.3 9.93 0 19.2 10.6 27.8 8.6-9.93 11.26-19.86 7.28-29.13l-9.93-10.6c-3.3 3.32-5.96 7.3-7.95 11.93z"/><path d="M174.6-48.8l-3.32.68c-6.62 5.95-9.93 12.57-9.93 21.18 0 7.94 4.64 15.9 13.24 22.5h3.3c7.28-8.6 10.6-16.54 9.93-24.5-1.32-8.6-5.96-14.55-13.24-19.85zm-7.95 21.86v-.66c0-5.3 1.98-9.93 6.62-15.23 4.63 3.97 7.95 8.6 8.6 14.57v1.98c0 5.3-1.3 9.93-5.95 15.23-5.96-5.3-8.6-10.6-9.27-15.9z"/><path d="M173.27-70.63l-2-.66-1.3.67-1.33 1.98 2 22.5c0 2 .65 2.66 2.63 2.66 1.33-.65 2.65-1.3 2-3.3l-1.33-22.52-.67-1.3z"/><path fill="#858585" d="M73.96 113.4c-.66 9.94 5.3 17.9 17.88 23.18 5.96-11.9 5.3-21.84-2-29.8l-11.9-7.27-3.98 13.9z"/><path d="M77.94 96.86c-.67 0-2 0-2.65 1.33-.67.65-2 3.3-2.66 7.27-2 5.96-2 11.25-.66 15.9 2.65 7.27 9.27 13.23 19.2 17.86 1.32.66 2.64 0 3.3-1.32 4.64-9.92 4.64-18.53 1.33-25.8-1.3-4.64-5.3-8.62-9.92-11.93l-7.94-3.3zm-.67 23.17l-1.32-5.95c0-3.98 1.32-8.6 3.3-11.26 5.97 2.65 9.94 6.62 11.93 11.26l1.98 7.28-2.65 11.25c-6.6-3.3-11.24-7.93-13.23-12.57z"/><path d="M71.32 77.67c0-2-1.33-2.65-3.3-2-1.34 1.33-2 2-1.34 3.32l7.95 21.17c1.32 2 2.64 2 3.97 1.33 1.98 0 2.65-1.33 1.32-3.3l-8.6-20.53z"/><path fill="#858585" d="M91.18 67.74c-2 10.6 3.3 18.53 14.56 25.8 7.95-11.25 8.6-21.18 2.65-29.78L97.12 54.5l-5.95 13.24z"/><path d="M95.15 52.5l-3.97 7.28c-2.65 5.3-3.3 10.6-2.65 15.23 1.32 7.95 6.62 15.24 15.9 20.54l3.3-.66c6.62-9.27 7.94-17.88 6.62-25.17-2-4.62-4.63-9.25-9.27-13.23-3.3-2.64-5.96-4.63-6.62-4.63l-3.3.66zm-1.33 19.2c0-4.63 1.33-9.27 3.98-13.24 5.95 2.65 9.93 6.62 11.25 12.58v4.63c0 3.97-1.32 8.62-3.97 13.25-6.62-3.97-10.6-8.6-11.26-14.56V71.7z"/><path d="M94.5 31.98c0-2-.68-2.65-2.66-2-1.33 0-2.65 1.34-2 2.66l4.65 22.5 1.3 2h2c1.32 0 2.64-1.98 2-3.3l-5.3-21.86z"/><path fill="#858585" d="M111.04 32.64c-2 10.6 2.64 19.2 13.9 25.82 7.95-10.6 9.27-19.86 3.3-29.13l-10.58-9.93-6.62 13.24z"/><path d="M118.98 17.42l-3.3.66-4.64 6.62c-2.65 5.3-3.3 10.6-3.3 15.22 1.3 8.6 6.6 15.24 15.88 21.2l3.97-.67c5.95-8.6 7.93-17.22 5.95-25.16-1.33-5.3-3.97-9.28-7.95-13.25l-6.62-4.63zm-5.95 19.86c0-4.64 1.32-9.27 4.63-13.9 6.62 3.97 9.93 8.6 11.25 13.23v4c0 3.96-1.3 8.6-4.62 14.55-6.62-5.3-9.93-9.93-10.6-15.9l-.65-1.97z"/><path d="M115.67-3.1c0-1.33-1.32-2-3.3-2-1.33.67-2 1.33-2 3.32l3.98 21.84c.66 2 2 2.65 3.3 2 2 0 2.66-1.33 2.66-2.66l-4.63-22.5z"/><path fill="#858585" d="M36.9 139.9c-5.3 9.26-4.65 18.53 3.3 29.8 11.26-7.3 15.9-15.9 13.9-26.5l-6.62-12.57-10.6 9.27z"/><path d="M57.4 151.15c.68-5.3-.65-10.6-3.3-15.9l-4.63-6.6-3.3-.67-6.64 4.63c-3.97 3.98-6.62 8.62-7.94 13.92-2 7.94 0 15.88 6.62 24.5l3.3.65c9.27-5.96 14.57-13.24 15.9-20.52zm-21.17-3.3c2-5.97 5.3-9.94 10.6-13.9 3.3 3.96 4.63 9.26 4.63 13.9v1.98c0 5.95-3.98 11.25-9.93 15.22-3.98-4.63-5.3-9.27-5.3-13.9v-3.3zM266.62-42.17l-3.98-.66c-15.22 13.24-31.77 31.78-48.98 54.95-35.1 47.66-59.6 99.3-73.5 154.26 0 1.32 0 3.3 1.33 3.3 1.98 0 3.3 0 3.3-1.98 13.9-54.3 38.4-105.27 72.83-152.27 17.2-23.17 33.1-41.05 48.33-53.62 1.32-1.32 1.32-2.64.66-3.97z"/><path fill="#858585" d="M179.23 177.63c5.96-11.92 5.3-21.85-1.32-29.8l-12.58-7.94-3.97 14.56c0 9.93 5.97 17.87 17.88 23.17z"/><path d="M166.65 137.9c-2-.65-2.65 0-3.3.67l-3.32 7.94c-2 5.3-2 10.6-.66 15.24 2.64 7.95 8.6 13.9 18.53 17.88 2 1.32 2.66.66 3.3-.67 5.3-10.6 5.98-19.2 3.33-25.8-2.65-4.65-5.96-8.62-10.6-11.93l-7.28-3.3zM164 155.13c0-3.97.66-7.28 2.65-11.9 5.96 2.63 10.6 6.6 12.58 11.9l1.33 7.28c0 3.3-.67 7.3-2.66 11.26-6.62-3.3-11.25-7.28-13.24-13.24l-.66-5.3z"/><path d="M160.7 118.05c-.67-1.33-2-2-3.32-1.33-2 .67-2.65 1.33-2 3.3l7.96 21.2c.66 2 1.32 2 3.3 1.32 1.33-.66 2-1.32 1.33-3.3l-7.28-21.2z"/><path fill="#858585" d="M193.8 133.27c7.28-11.25 7.28-21.18 1.3-29.8l-11.23-8.6-5.96 13.25c-1.32 9.93 3.97 18.53 15.9 25.15z"/><path d="M184.53 92.23c-.66-.66-2 0-2.65 1.32l-3.97 6.62c-2.65 5.3-3.3 10.6-2.65 15.23 2 8.6 7.95 15.23 16.56 19.86l3.98-.66c5.96-9.27 7.95-17.88 5.3-25.16-2-4.63-4.64-9.27-9.93-12.58l-6.63-4.63zm-3.3 22.5l-.67-3.3c0-3.3 1.32-7.95 3.97-13.24 5.96 3.3 9.93 7.27 11.25 13.23l.66 5.3c0 3.3-1.32 7.94-3.97 12.57-7.28-4.63-10.6-9.27-11.25-14.56z"/><path d="M181.22 72.36c-.66-1.98-2-1.98-3.3-1.98-2 0-2.67 1.32-2 3.3l5.3 21.2c0 1.98 1.98 2.65 3.3 1.98 2 0 2.66-1.32 2-2.64l-5.3-21.86z"/><path fill="#858585" d="M220.94 96.86c5.96-11.9 5.3-21.84-2-29.12l-11.9-7.96-3.98 13.9c-.66 10.6 5.3 18.55 17.88 23.18z"/><path d="M214.32 60.45l-6.62-3.3c-1.33 0-2.65 0-3.3 1.3l-3.33 7.3c-1.32 5.96-1.32 11.25 0 15.9 2.65 7.92 8.6 13.9 19.2 17.86.66.67 2 .67 3.32-1.3 3.96-9.94 4.6-17.9 1.3-25.84-1.3-4.62-5.3-8.6-10.58-11.9zm-6.63 2.64c6.62 3.3 10.6 7.28 13.24 11.92l.66 7.28-2 11.25c-7.93-3.97-11.9-8.6-13.23-13.24-1.32-1.97-1.32-3.97-1.32-5.94 0-3.3 1.32-7.3 2.64-11.27z"/><path d="M201.08 37.94c-.66-2-2-2-3.32-2-1.98 1.34-2.65 2.66-1.32 3.98l7.94 20.53c.66 1.98 2 2.64 3.3 1.98 1.34-.66 2-1.98 1.34-3.3l-7.94-21.2z"/><path fill="#858585" d="M237.5 56.47c9.26-10.6 10.58-19.86 5.95-29.12l-9.93-10.6-7.3 12.58c-3.3 9.93.68 19.2 11.27 27.14z"/><path d="M248.08 33.97c-.66-5.3-3.3-9.93-7.28-13.9l-5.96-5.3-3.3.66-4.64 6.62c-3.3 4.63-4.64 9.93-3.98 14.56 0 8.62 4.64 15.24 13.9 21.86h3.32c6.62-8.6 9.93-16.55 7.94-24.5zm-4.63.66v2.65c0 4.63-2 9.26-5.96 15.22-6.63-5.3-9.28-10.6-9.94-15.9v-1.3c0-5.97 2.65-10.6 6.62-14.57 5.3 4.63 8.6 8.6 9.27 13.9z"/><path d="M233.52-5.75l-2.65-2c-2.65 0-3.3.67-2.65 2.66l2.65 22.52c0 1.32.66 1.98 3.3 1.98l2-2.65-2.65-22.5z"/><path fill="#858585" d="M103.75 160.42c12.6 2.65 21.85.66 28.47-8.6l4.64-13.25-14.57-.66c-10.6 2-16.56 9.28-18.55 22.52z"/><path d="M138.84 138.57l-1.32-2.65c-8.6-2.65-16.55-2.65-23.17 2-7.28 3.96-11.92 11.9-13.24 21.84-.66 1.98 0 3.3 1.33 3.3 11.26 2.65 19.86 1.33 25.82-3.3 6.62-5.3 9.93-11.92 10.6-21.2zM117 142.54c4.63-2.65 10.6-3.97 16.55-1.98-1.33 7.28-3.97 11.9-7.95 14.56-4.63 3.3-10.6 4.64-18.53 3.3 1.98-8.6 5.3-13.9 9.93-15.88z"/><path d="M157.38 124.67c-.66-1.33-2-2-3.3-1.33l-19.2 13.24c-1.33 1.33-1.33 2-.67 3.3 1.33 1.34 2.66 1.34 3.32.68l19.2-12.58c1.32-1.33 1.32-2.65.66-3.3z"/><path fill="#858585" d="M113.69 94.88c10.58 7.94 20.5 8.6 29.12 3.3 4.63-3.3 7.28-7.27 9.26-11.25-3.97-3.3-7.94-5.3-13.24-6.62-9.93-1.3-18.53 3.32-25.16 14.58z"/><path d="M137.52 103.48c7.28-1.98 13.24-7.94 17.2-15.88 0-1.34 0-2.65-.65-2.65-7.28-5.97-14.56-7.95-23.17-6.63-7.28.66-13.9 6.63-19.86 15.23-.66 2-.66 3.3.66 3.98 9.27 5.95 17.88 7.94 25.82 5.95zm11.25-16.55c-3.97 5.95-7.94 9.93-13.24 11.26-4.63 1.97-11.25 0-17.87-3.32 4.63-7.28 9.27-11.26 14.56-11.26 4.64-1.33 9.93 0 16.55 3.3z"/><path d="M177.25 80.98c-.67-2-2-2.65-3.3-2l-22.53 4.64c-1.32.67-2.65 1.98-1.98 3.3.66 2 1.98 2.66 3.3 2l21.86-4.63c1.98-.68 2.65-2 2.65-3.32z"/><path fill="#858585" d="M135.53 70.38c12.58 5.3 22.5 4.64 29.13-2.64 3.97-3.98 6.62-7.3 7.95-12.6-4.63-2.64-8.6-3.3-13.9-3.96-10.6 0-17.87 5.96-23.17 19.2z"/><path d="M160.7 73.7c7.27-3.32 12.57-8.62 14.55-17.9 0-.65 0-1.97-1.32-3.3-7.28-3.97-15.9-5.3-23.17-2.65-7.28 2.65-13.24 8.6-17.2 19.2-1.34 1.33-.67 2.66.65 3.32 10.6 4.63 19.2 5.3 26.5 1.32zm-2.66-4.65l-18.53-.65c3.98-7.3 7.95-11.93 12.58-13.25l17.22 1.32c-2.65 5.97-5.96 10.6-11.26 12.58z"/><path d="M196.44 45.88c-1.33-1.98-1.98-1.98-3.97-1.98l-21.2 8.6c-1.3.66-1.3 2-1.3 3.3 1.3 2 1.97 2.66 3.96 1.34l20.52-7.95c2-.67 2-2 2-3.32z"/><path fill="#858585" d="M164.66 30.66c12.6 5.3 22.52 4.63 29.8-3.3 3.3-3.32 5.96-7.96 6.62-12.6-3.98-2.64-9.27-3.96-13.9-3.3-10.6.66-17.88 7.28-22.52 19.2z"/><path d="M202.4 12.12c-7.94-3.97-15.23-4.63-23.17-2C171.28 12.8 166 19.4 162 30c-.65 1.98 0 2.64 2 3.3l25.82.67c7.3-3.3 11.92-9.93 13.9-18.54.67-1.32 0-2-1.32-3.3zm-4.63 3.97c-2.65 6.6-5.96 11.25-10.6 13.23l-18.54-.66c3.3-6.62 7.3-11.92 12.58-13.24l16.57.66z"/><path d="M224.25 4.84c-.66-2-2-2-3.32-1.33l-20.52 8.62c-1.98 1.32-2.64 2-1.98 3.97 1.33 1.32 2.65 1.32 3.98 1.32l20.52-9.27c1.33-1.33 2-2 1.33-3.3z"/><path fill="#858585" d="M128.9 204.77c12.6-5.3 18.55-13.9 17.9-23.83l-4.65-13.9-11.25 7.94c-7.28 7.95-7.28 17.88-2 29.8z"/><path d="M126.93 206.1c.66 1.32 1.98 1.98 3.97 1.32 9.27-4.63 15.9-10.6 17.87-18.54 1.33-4.63 1.33-10.6-.66-15.88l-3.3-7.3c-.66-1.3-1.98-1.3-3.3-1.3-.67 0-3.32 1.3-7.3 3.3-4.62 3.3-7.93 7.28-9.92 12.58-3.3 7.28-2 15.9 2.65 25.82zm.66-16.55l1.3-7.3c2-4.62 6.63-9.25 12.6-11.9l3.3 11.9-.66 5.3c-2 5.3-6.62 9.94-13.24 13.25l-3.3-11.25zM325.54 173l-3.97-.67-8.6 12.58c-5.3 12.6-5.97 27.82-3.32 47.68 2 15.23 6.63 31.78 13.9 49.65l7.28 24.5c2.65 8.6 2.65 17.87 2.65 26.48-1.32 13.25-4.63 27.16-10.6 41.72-3.3 9.93-5.95 17.88-5.95 23.17 0 4.63 1.98 12.57 5.3 23.16l4.63 26.5c1.33 9.92 0 17.2-3.97 23.16-4.64 6.62-10.6 11.9-18.55 16.55-7.28 4.64-15.23 7.94-23.17 9.27-9.93 1.33-17.2 0-23.17-5.3-15.22-11.92-23.83-23.17-23.83-32.44 0-4.63 2-7.94 5.3-11.25 7.94-6.62 14.57-9.93 19.86-8.6 4.64 1.3 7.95 5.3 11.26 11.24 3.3 8.6 2.64 13.9-2 17.2l-7.28.68-6.62-3.98h-3.97c-1.33.67-1.33 2.64 0 3.3 2.65 3.32 5.96 5.3 9.93 6.63l10.6-1.98c7.27-4.64 8.6-12.58 3.3-24.5-2.65-7.3-7.28-11.92-13.9-13.24-7.28-1.98-16.55 1.33-25.16 9.94-4.63 3.98-6.62 9.27-6.62 14.57.66 11.92 9.27 23.84 25.82 36.42 7.28 5.96 15.9 7.94 27.15 5.96 8.6-.67 17.2-3.98 25.15-9.27 8.6-5.3 15.23-11.25 19.86-17.87 4.64-6.62 6.62-15.9 5.96-25.8l-5.96-28.5-3.97-21.84c0-5.3 1.3-12.58 4.62-21.2 5.96-14.55 9.27-28.46 11.26-43.03.66-9.27 0-18.53-2-28.46l-8.6-25.15c-7.28-17.87-11.25-33.76-13.9-47.67-1.98-18.53-1.32-33.1 2.65-44.35l7.28-11.92c2-.66 2-1.98 1.34-3.3z"/><path stroke-miterlimit="100" d="M364.58 579.58H7.42V7.42h357.16v572.16z" fill="none" stroke="#000" stroke-width="14.84"/></svg>