<svg xmlns="http://www.w3.org/2000/svg" width="372" height="587" viewBox="0 0 372 587"><path fill="#fffaf0" d="M0 0h372v587H0z"/><path fill="#D96038" d="M317.13 246.5c-6.6 16.5-17.2 30.4-30.4 42.95-13.23 11.9-29.1 20.5-46.94 26.44-32.4 9.9-64.78 7.27-94.53-8.6-30.4-15.87-50.9-40.32-61.47-72.7-5.3-17.86-7.27-36.36-4.62-54.2 2.64-17.86 8.6-34.38 18.5-49.58-27.1 16.52-46.27 40.98-57.5 70.72-11.24 30.4-11.9 61.47-2.65 91.88 11.24 38.33 35.04 66.1 70.07 84.6 35.03 17.86 71.38 21.16 109.06 9.92 31.07-9.92 56.18-28.42 74.7-54.86 18.5-25.78 26.43-54.87 25.77-86.6z"/><path d="M319.77 246.5c0-2-.66-2.65-2.64-3.32-.66 0-1.98 1.33-2.65 2-6.6 15.85-17.18 30.4-30.4 42.3-13.22 11.9-28.42 21.14-45.6 25.77-15.2 5.28-31.08 6.6-46.94 5.28-16.52-1.97-31.07-5.94-45.6-13.22-29.75-15.85-49.58-40.3-59.5-72.03-5.3-16.53-6.6-34.37-4.62-51.56 2.64-17.84 7.93-34.36 17.84-49.56.67-1.32 0-2.65-.66-3.3h-3.3c-27.1 17.18-46.93 41.63-58.17 72.7-11.24 30.4-11.9 61.47-1.98 93.2 11.23 38.34 35.7 66.75 70.72 85.27 35.7 19.18 72.7 22.48 111.7 9.92 31.08-9.25 56.2-27.76 75.36-54.2 18.5-27.1 27.1-56.85 26.44-89.23zm-286.2 4.62c0-21.16 5.28-42.3 15.2-62.14 9.25-19.83 23.13-36.35 40.98-49.57-9.9 19.18-14.54 37.7-14.54 57.52 0 13.2 2.65 25.1 5.96 37.67 5.3 16.52 13.22 31.05 23.8 43.6 11.23 13.23 23.8 23.8 39 31.08 14.53 7.94 30.4 13.22 47.58 14.55 16.53 1.98 33.05-.66 48.9-5.3 32.4-9.9 56.86-30.4 73.38-62.13-.66 29.75-9.9 56.2-28.42 80-17.85 23.78-40.98 39.64-69.4 48.9-37.02 11.23-72.7 7.93-107.08-9.92-33.7-17.85-56.85-45.6-68.74-82.62-4.63-13.22-6.6-27.1-6.6-41.64z"/><path d="M309.2 253.1c1.32 0 1.98-1.98 1.32-3.3 0-2-1.32-2-3.3-2-13.23 3.98-27.77 11.9-43.63 23.15-31.74 23.13-53.55 54.2-65.45 92.54-3.97 11.88-5.95 23.78-5.95 35.02 0 6.6.66 15.86 2.65 26.43l1.32 17.85c-.66 5.95-2.65 11.23-5.95 15.87l-15.2 12.55-16.53 6.6c-6.62 2-11.9 3.98-14.55 5.96-5.3 2.64-9.25 6.6-11.24 10.58-4.6 10.58-4.6 20.5.68 30.4 6.6 13.23 17.84 20.5 34.37 23.14 6.6.66 12.55-1.33 17.84-6.6l8.58-13.23c1.33-4.63 2.65-9.9 1.33-14.55-.65-6.6-3.3-11.23-8.6-13.88-7.26-3.3-14.53-2.64-21.8 2-3.3 1.97-5.95 4.6-5.95 7.26 0 4.62 1.98 8.6 5.95 12.56 1.32.66 2.64.66 3.3 0 2-1.33 2-2.64 0-3.3-2.64-3.97-3.96-6.6-3.3-7.94l2.64-4.62c5.95-3.3 11.24-3.3 16.53-.66 3.96 1.3 5.95 4.62 6.6 9.25.67 7.92-1.97 15.85-9.24 22.46-3.97 4.63-7.94 6.6-13.22 5.3-14.54-2-24.45-8.6-30.4-19.84-4.63-8.6-5.3-17.18-.66-25.12 1.98-3.3 4.63-6.6 9.25-9.25l31.06-11.9c6.6-3.96 12.56-7.93 16.52-13.87 3.97-5.96 6.6-11.25 7.27-17.86l-1.32-19.83c-1.98-10.58-2.64-19.17-2.64-25.12 0-10.58 1.3-22.47 5.27-33.7 11.9-37.7 33.05-68.1 63.46-89.9 15.2-11.24 29.75-19.18 42.97-22.48zM342.25 286.15c12.56-34.37 24.45-62.8 36.35-84.6.66-1.33 0-2.65-1.32-3.3-2-1.34-2.65-1.34-3.97.65-11.23 22.47-23.12 50.9-36.34 85.92C311.18 354.9 294 422.97 284.74 490.4c0 1.32.66 1.97 2.64 2.63 1.33 0 2.65-.66 2.65-1.98 9.25-66.76 26.44-134.83 52.22-204.9z"/><path fill="#9260C7" d="M279.45 525.42c7.94 2 11.9-3.3 11.24-15.86l-3.32-19.17-11.23 15.85c-5.95 10.58-5.3 17.2 3.3 19.17z"/><path d="M293.33 504.94l-3.3-15.2-1.98-2c-.66 0-2 0-2.65.67-2.64 3.32-5.95 7.28-9.25 13.23-5.3 8.6-7.93 14.54-5.95 19.83 1.32 3.3 3.97 5.28 8.6 6.6 4.62.67 7.92 0 11.23-2.63 3.3-3.97 3.96-10.58 3.3-20.5zm-13.22 17.84c-2.63-.66-3.95-1.32-5.27-3.3v-2c0-5.28 3.96-12.54 11.23-21.14l1.98 15.2c0 5.3-.66 8.6-1.98 9.92l-5.95 1.32z"/><path fill="#9260C7" d="M262.93 434.2c-7.93-9.25-13.88-10.57-18.5-4.62-4.64 6.6-1.33 11.9 9.9 15.87l17.85 4.62-9.25-15.87z"/><path d="M242.44 428.26c-2.65 3.97-3.3 7.27-2 10.58 2 3.96 7.28 7.93 16.54 10.57l14.54 3.32 2.64-1.33v-2.65c-7.93-15.86-15.86-24.46-22.47-25.12-3.97-.66-7.28 1.32-9.26 4.63zm8.6.66c5.28 0 9.9 5.95 16.5 17.85-13.2-2.65-20.48-5.95-22.46-9.92v-1.98l1.32-3.3c1.33-2.65 3.3-3.3 4.63-2.65z"/><path d="M270.86 452.06l19.17 13.88h3.3c.66-1.32.66-2.65 0-3.97L273.5 448.1h-3.3c-1.32 1.97-.66 3.3.66 3.96z"/><path fill="#9260C7" d="M312.5 458l17.85-1.32c11.9-1.98 15.86-7.27 12.56-14.54-3.96-6.6-9.9-6.6-18.5 1.98-3.97 3.97-8.6 7.94-11.9 13.88z"/><path d="M336.96 434.87c-7.27 0-16.53 6.6-27.1 21.15v2.65l1.98 1.97 15.2-1.3c9.92-.67 15.86-3.32 18.5-7.28 1.33-3.3 1.33-6.6 0-10.58-1.97-3.97-5.28-6.6-8.58-6.6zm-19.83 19.83c8.6-9.92 15.2-15.2 19.17-14.55 1.32 0 3.3 1.33 3.96 3.97l.67 3.3-.67 1.33c-1.98 3.97-9.9 5.95-23.13 5.95z"/><path d="M310.52 455.36l-20.5 10.57c-1.97 1.32-2.64 2-1.97 3.3 1.32 2 2.64 2.66 3.96 2l21.16-11.25c1.33-1.3 2-1.98 1.33-3.3-.68-1.98-2-1.98-3.98-1.32z"/><path fill="#9260C7" d="M256.98 388.6c-5.95 5.94-3.3 11.9 6.6 17.2 5.3 3.3 10.6 5.93 17.2 7.26l-6.6-17.2c-5.96-9.9-11.9-12.55-17.2-7.26z"/><path d="M264.9 383.3c-3.95-.65-7.26.67-10.56 3.98-2.65 2.64-3.97 5.95-3.3 9.9 1.97 4.64 6.6 8.6 15.2 13.23l13.87 5.3 2.66-.66.66-2.64-5.95-13.9c-3.3-8.58-7.93-13.2-12.56-15.2zm-8.58 11.9c0-1.97.66-3.3 1.98-3.96 1.98-1.98 3.3-2.64 5.3-2.64 3.95 1.32 8.58 7.93 13.2 20.5-12.55-3.98-19.16-8.6-20.48-13.23v-.66z"/><path d="M278.8 411.73c-1.33.67-1.33 2.64 0 3.3l17.18 16.53c1.32 1.98 2.64 1.98 3.96 0 .67-.66.67-1.98 0-3.3l-17.18-16.53c-1.32-1.32-2-1.32-3.97 0z"/><path fill="#9260C7" d="M321.76 415.7l18.5 1.32c11.9-.66 16.53-4.62 13.9-11.9-2-7.93-8.6-8.6-18.52-1.98-5.3 3.3-9.26 7.93-13.88 12.56z"/><path d="M356.8 404.46c-1.34-5.28-3.98-7.93-7.28-7.93-5.3-1.32-10.58 1.32-18.5 6.6l-11.25 11.24c-.66.67-.66 1.33 0 2l1.33 1.97c17.84 3.3 29.08 1.32 34.36-3.97 2.65-2.64 2.65-5.94 1.33-9.9zm-4.64 1.33c.66 2.63 0 3.95-.66 5.27-3.3 3.97-11.24 3.97-24.46 2.64 9.92-8.58 16.53-13.2 21.16-11.88 1.98 0 3.3 1.32 3.96 3.97z"/><path d="M321.1 413.06L297.96 421c-1.32.65-1.32 1.32-1.32 3.3.66 1.32 1.32 1.98 3.3 1.32l23.14-7.27 1.32-3.3c-.66-2-1.32-2.65-3.3-2z"/><path fill="#9260C7" d="M284.08 343l15.2 11.23-1.98-18.5c-3.3-11.25-7.93-15.2-14.54-11.25-7.27 3.96-6.6 10.58 1.32 18.52z"/><path d="M291.35 321.84l-10.57.66c-3.3 1.98-5.95 4.63-5.95 8.6 0 4.62 3.3 10.57 10.57 16.52l11.9 8.6h3.3l.67-2c0-17.83-3.3-28.4-9.92-32.38zm-1.98 3.97c3.96 2.65 5.95 9.92 7.27 23.14-10.58-6.6-15.87-13.22-15.87-17.85 0-2 .67-2.65 3.3-4.63l5.3-.66z"/><path d="M297.96 352.25c-1.32.66-1.98 1.98-1.32 3.3l11.9 20.5c1.32 1.97 1.98 2.64 3.96 1.97l.66-3.96-11.9-21.15c-.66-1.32-1.98-1.98-3.3-.65z"/><path fill="#9260C7" d="M333.65 377.36l17.85 5.95c11.24 2.66 17.2 0 16.53-7.92 0-7.94-5.96-9.92-17.85-6.6l-16.53 8.58z"/><path d="M365.38 365.47c-3.96-2-10.57-.67-19.17 2.64l-13.87 7.28-1.32 2.64 2 1.33 13.87 5.94h19.83c2.65-2.65 4.63-5.95 3.97-9.92-.66-3.97-2-7.27-5.3-9.9zm-1.98 15.2c-3.97 1.98-11.9 1.32-23.8-3.97 11.9-5.95 19.17-7.93 23.14-5.95 1.98.66 2.64 2 2.64 4.63s-.66 3.97-1.98 5.3z"/><path d="M333.65 374.72l-23.8 1.32c-1.97 0-2.64 1.32-2.64 2.65 0 1.97.67 3.3 3.32 3.3l23.13-2 1.98-.65.67-1.98c0-2-.66-2.65-2.65-2.65z"/><path fill="#9260C7" d="M327.04 265c-.66-6.6-1.32-12.57-3.3-18.5-3.3-11.25-7.94-14.55-14.54-9.93-7.27 3.97-5.95 9.92 2.64 17.85l15.2 10.58z"/><path d="M317.8 233.27c-2.65-1.98-6.62-1.98-10.6.66-3.3 2.64-5.27 5.28-5.27 9.25.66 7.28 7.93 15.2 23.8 24.46h2.64c1.32-.66 1.32-1.32 1.32-2.64l-2.66-15.2c-1.32-8.6-4.62-14.55-9.25-16.53zm-7.28 4.63h5.3c3.95 1.98 6.6 9.25 7.92 21.8-10.58-6.6-16.52-12.55-16.52-16.52v-.66c0-1.32.66-2.64 3.3-4.62z"/><path d="M325.72 263c-1.98 1.34-1.98 2-1.32 3.32l12.56 20.5c.66 1.97 2.64 1.97 3.97.65 1.32-.66 1.98-1.32.66-3.3l-12.57-20.5c-1.32-1.32-2-1.98-3.3-.66z"/><path fill="#9260C7" d="M361.42 289.45l17.18 5.95c11.9 1.98 17.85-.66 16.52-8.6 0-7.93-5.94-9.9-17.18-5.94l-16.52 8.6z"/><path d="M393.14 277.56c-4.63-2.65-11.23-1.33-19.83 1.98-5.27 1.98-9.9 4.62-13.2 7.27l-1.33 2.65 1.32 1.98c16.52 7.94 27.76 9.26 34.37 4.63 2.64-1.98 3.96-5.3 3.96-9.25-.66-5.28-1.98-7.93-5.3-9.24zm-2.64 4.62c1.32.66 2.64 2.64 2.64 4.63 0 2.65-.66 3.98-1.98 5.3-3.96 3.3-11.9 1.32-23.8-3.3 11.24-6.62 19.17-8.6 23.14-6.62z"/><path d="M361.42 286.15l-24.46 1.32c-1.32 0-1.98 1.32-1.98 2.65 0 1.97 1.32 2.64 2.64 2.64l24.46-.67 1.98-3.3c0-2-.66-2.65-2.64-2.65z"/><path fill="#9260C7" d="M342.9 227.98c.67-5.95 0-12.56-.65-17.85-2-11.9-6.6-16.52-14.54-12.55-6.6 3.96-6.6 9.25 1.32 18.5l13.9 11.9z"/><path d="M340.93 230.63l2.64.66 1.98-2.66c1.32-18.5-1.98-29.08-7.93-33.7-3.3-1.33-6.6-1.33-10.58 0-3.96 1.97-6.6 5.28-6.6 8.58-.67 7.94 6.6 16.53 20.5 27.1zm-15.2-25.78v-.66c0-2 1.3-2.66 3.96-3.98 1.97-1.32 3.96-1.32 4.62 0 3.96 1.98 5.94 9.9 5.94 23.13-9.9-7.93-14.54-13.88-14.54-18.5z"/><path d="M342.25 226c-2 .66-2.65 1.98-2 3.96l10.6 21.16c1.3 1.98 1.97 1.98 3.96 1.3 1.33-1.3 2-1.96.67-3.95l-9.92-21.14c-1.32-2-1.98-2-3.3-1.34z"/><path fill="#9260C7" d="M312.5 305.3l-3.3-18.5c-3.3-10.57-8.6-14.54-15.2-10.57-6.62 4.63-5.95 10.58 3.3 18.5l15.2 10.58z"/><path d="M303.25 272.93l-10.58 1.32c-3.3 2.65-5.3 5.3-5.3 9.26 0 7.28 8.6 15.87 23.8 23.8h2.66l1.32-2-2-15.18c-2.63-9.26-5.94-14.55-9.9-17.2zm-7.93 5.94l5.28-1.3c3.97 2.63 7.27 9.9 8.6 22.46-11.24-6.6-16.53-12.56-16.53-17.2 0-1.3.66-2.63 2.65-3.96z"/><path d="M311.18 302.67c-1.32 1.33-1.98 2.64-.66 3.97l13.22 19.83c.66 1.98 1.98 1.98 3.3.66 2-.66 2-1.32.67-3.3L314.5 304c-.68-1.33-1.34-2-3.32-1.33z"/><path fill="#9260C7" d="M348.2 327.8l17.18 5.94c11.9 2.65 17.85 0 16.52-7.93 0-7.93-5.94-9.9-17.18-6.6l-16.52 8.6z"/><path d="M379.92 316.56c-4.63-2.65-11.24-1.33-19.83 1.97-5.3 2-9.92 4.64-13.23 7.28l-1.32 2.65 1.32 2c16.53 7.9 27.77 9.24 34.38 5.27 2.64-2.64 3.96-5.94 3.96-9.9-.65-5.3-1.97-7.95-5.28-9.26zm-1.98 14.53c-3.97 2.64-11.9 1.32-23.8-3.97 11.24-5.95 19.17-7.93 23.14-5.95 1.32.66 2.64 2 2.64 4.63 0 2.65-.66 3.97-1.98 5.3z"/><path d="M347.54 325.14l-23.8 1.33-1.32 1.32-.66 1.3c0 2 1.32 3.32 2.64 3.32l23.8-1.98c1.98 0 2.64-1.33 2.64-2.65 0-2-.66-2.66-3.3-2.66zM182.3-26.5c-17.86-23.13-31.74-42.96-40.33-60.8L138-88.64c-1.32 1.32-1.98 2.64-.66 3.96 8.6 17.86 21.8 38.34 40.98 61.48 36.36 44.95 79.98 81.3 130.22 109.07 1.98.66 2.64 0 3.96-1.32.66-1.98.66-3.3-1.32-3.3-49.57-27.1-92.54-63.47-128.9-107.75z"/><path fill="#858585" d="M301.93 62.08c9.9 2.64 18.5-.67 27.1-11.9-9.92-8.6-19.83-10.58-28.42-5.96L289.38 54.8l12.56 7.28z"/><path d="M287.4 52.82c-.68 1.32-.68 1.98 0 3.3l6.6 5.3c5.28 3.3 9.9 4.62 15.2 4.62 7.93-.66 15.2-4.63 21.8-13.88 1.33-1.33 1.33-2.64-.65-3.97-7.27-6.62-15.87-9.92-23.8-8.6-5.3.66-9.9 3.3-13.88 7.27-3.3 2.65-5.3 5.3-5.3 5.95zm37-2c-4.63 5.96-10.58 9.27-15.2 9.27-5.95.65-11.24-2-15.87-5.96 3.97-5.95 8.6-8.6 13.88-9.25 5.96-.68 11.9 1.3 17.2 5.93z"/><path d="M291.35 52.82l-1.98-1.32-22.48 1.98c-2 .66-2.65 1.32-2.65 3.3 0 2 1.32 2.65 3.3 2.65l22.48-2.64c1.32 0 2.64-.67 1.98-2.66l-.65-1.32z"/><path fill="#858585" d="M250.37 26.38l10.57 9.92c9.92 3.96 19.17 1.98 29.1-6.6-9.27-10.6-18.52-14.56-27.77-11.25l-11.9 7.93z"/><path d="M291.35 31c1.98-.65 1.98-1.97 0-3.3-6.6-7.93-13.88-12.56-21.8-13.22-5.3 0-9.93 2-15.2 5.3l-6.62 5.28c-.66 1.32-.66 1.98 0 3.3l5.95 5.95c3.96 3.98 9.25 5.96 13.88 6.62 7.93.66 15.86-1.98 23.8-9.92zm-23.13 4.64c-4.63-.67-9.92-3.3-14.55-8.6 5.3-4.62 10.58-7.27 15.87-7.27 5.3.66 10.57 3.3 15.86 9.26-5.3 4.62-11.23 7.27-17.18 6.6z"/><path d="M224.6 25.06c0 1.98.65 2.64 2.64 2.64l22.47 2c2 0 3.32-1.34 3.32-2.66 0-1.98-1.32-3.3-2.65-3.3l-22.47-.66c-2 0-3.3 0-3.3 1.98z"/><path fill="#858585" d="M232.52-15.27l-10.57 9.92 12.56 7.28c9.92 3.3 19.17-.67 27.1-11.9-10.57-8.6-20.48-9.92-29.08-5.3z"/><path d="M263.6-8.65c1.3-1.32 1.3-1.98 0-3.3-8.6-6.62-16.54-9.92-25.13-7.94-4.62.67-9.25 3.32-13.88 7.28l-4.64 5.95c-.65 1.32-.65 2.65.67 3.3l5.94 4.63c4.63 3.3 10.58 4.63 15.2 3.97 8.6 0 15.87-4.63 21.82-13.88zm-23.8-6.62c5.28-.65 11.23 1.33 17.84 5.96-5.95 5.94-10.57 9.24-16.52 9.24-5.3.66-10.58-1.32-15.86-5.95 4.62-4.63 9.25-7.94 14.53-9.27z"/><path d="M221.3-8l-21.83 2.65c-1.98 0-2.64 1.33-1.98 3.3 0 2 .65 2 2.63 2l21.82-2.65c2.64 0 2.64-.66 2.64-2.65 0-1.98-.67-2.64-3.3-2.64z"/><path fill="#858585" d="M197.5-31.8c9.24 5.3 19.16 3.98 29.07-4.6-7.93-11.25-16.52-15.22-26.44-12.57l-12.55 7.27 9.9 9.9z"/><path d="M191.54-48.3l-6.6 4.62c-.67 1.32-.67 1.98 0 3.3l5.28 5.95c3.97 4.63 8.6 7.28 13.88 7.93 7.27 1.32 15.86-1.32 23.8-7.93 1.98-1.32 1.98-1.98.66-3.3-5.95-8.6-13.22-13.9-21.15-14.55-5.28 0-10.57.66-15.86 3.97zm15.2 1.32c5.3.65 11.24 3.96 15.87 10.57-6.6 3.95-12.55 5.94-17.84 4.6-5.95-.65-9.9-3.95-13.88-9.9 5.3-3.97 10.58-5.95 15.86-5.28z"/><path d="M162.46-45c-.66 1.98 0 2.64 1.98 2.64l22.47 3.3c1.34 0 2.66-.66 3.32-2.64l-2.65-2.64-22.47-3.3c-1.32 0-2.64.66-2.64 2.63z"/><path fill="#858585" d="M276.8 95.8c-.65 10.56 4.64 18.5 17.2 23.78 5.94-11.9 5.94-21.8-1.33-29.75l-11.9-7.26-3.96 13.22z"/><path d="M299.28 95.13c-1.98-4.64-5.3-8.6-10.57-11.9l-7.26-3.97c-1.33 0-2 0-3.3 1.32l-3.3 7.27c-1.34 5.95-1.34 11.24-.68 15.86 2.65 7.3 8.6 13.9 18.5 18.53 1.33 0 3.32 0 3.98-1.33 4.63-9.9 5.95-18.5 2.64-25.77zm-20.5 1.97c0-2.64 1.33-7.27 2.66-11.23C287.38 87.85 292 91.82 294 97.1l1.98 7.28-3.3 11.23c-6.62-3.3-11.9-7.92-13.23-13.2l-.66-5.3z"/><path d="M272.84 58.1c-1.98.67-2.64 2-1.98 3.3l7.27 21.17c.66 1.98 1.98 2.64 3.3 1.98 2 0 2.65-1.98 2-3.3l-7.28-21.16c-1.32-2-1.98-2-3.3-2z"/><path fill="#858585" d="M225.25 65.38c-3.96 9.25-1.32 19.17 7.93 28.42 10.58-9.25 13.22-17.84 9.92-27.76l-8.6-11.9-9.25 11.24z"/><path d="M233.18 51.5l-5.95 5.94c-3.3 4.64-5.94 9.26-5.94 14.55-1.34 7.92 1.97 15.85 9.9 23.8 1.33 1.3 2.65 1.3 3.3 0 8.6-7.28 12.57-14.56 12.57-23.15-.66-4.63-2.65-9.9-5.95-14.54l-4.63-5.94-3.32-.66zm-7.27 21.15c.67-5.95 3.32-10.57 8.6-14.54 4.63 3.98 6.62 8.6 6.62 14.55v.66c0 5.3-2.65 10.58-7.94 15.88-5.28-5.96-7.27-11.24-7.27-15.2v-1.33z"/><path d="M232.52 31l-.66 23.14c0 2 .66 2.65 2.65 2.65s2.65-.67 2.65-2.66l.66-22.47c0-1.98-.65-2.64-2.63-2.64-1.32 0-2.65.66-2.65 1.97z"/><path fill="#858585" d="M191.54 36.3c-5.28 9.25-3.96 18.5 3.97 29.74 11.9-7.93 15.87-16.52 13.23-26.44l-6.6-13.22c-3.98 1.98-7.28 5.95-10.6 9.92z"/><path d="M212.03 46.2c1.32-4.62 0-9.9-3.3-15.2l-3.97-6.6-3.3-.66-6.62 5.3c-3.96 3.95-7.27 8.57-7.93 13.87-1.97 7.93.67 16.53 7.28 24.46l3.3.66c9.26-6.6 13.9-13.22 14.55-21.8zm-4.63-1.98v2c-.66 5.28-4.62 9.9-10.57 15.2-3.97-5.3-5.3-9.92-5.3-13.9v-3.95c1.34-5.3 4.64-9.92 9.93-13.88 3.96 4.6 5.94 9.9 5.94 14.52z"/><path d="M203.44 3.9l-3.3 22.48c-.67 1.32 0 1.98 1.98 2.65l2.64-2 3.97-22.47c0-1.3-.66-2.64-2-3.3-1.97 0-2.63.67-3.3 2.65z"/><path fill="#858585" d="M158.5-16.58c-4.64 0-9.26.66-13.9 3.3-9.24 4.62-13.2 13.22-11.88 27.1 13.22-.66 21.8-5.95 25.1-15.87l.67-14.53z"/><path d="M161.14-16.58l-2.65-2.65c-8.6-.66-16.53 2.65-21.82 7.93-5.3 5.95-7.27 14.55-6.6 25.12 0 1.32 1.3 2.65 2.63 2.65 11.25-.66 19.18-3.97 23.8-9.92 5.3-6.6 6.62-14.54 4.64-23.13zm-20.5 9.25c3.97-4.63 9.26-5.95 15.87-5.95v2c0 5.93-1.3 10.56-4.62 14.53-3.3 3.96-8.6 6.6-17.18 7.27v-2c0-6.6 2.64-11.88 5.95-15.85z"/><path d="M171.7-35.1l-14.53 16.53c-1.32 2-1.32 3.3 0 3.97h3.97l13.88-17.2c1.32-1.3 1.32-2.63 0-3.95l-3.3.66z"/><path fill="#858585" d="M314.5 97.1c5.93 8.6 15.85 11.25 28.4 8.6-2.64-13.22-8.58-21.15-18.5-23.13l-14.54.65 4.63 13.88z"/><path d="M332.33 82.57c-4.63-2.65-9.25-3.3-15.2-3.3l-7.93 1.97-2 1.98 2 7.94c1.32 5.28 4.62 9.9 8.6 13.22 6.6 4.62 15.85 5.94 25.77 3.3 1.98 0 2.64-1.32 1.98-2.64-1.98-10.58-5.95-18.5-13.22-22.47zm-19.17 2.64l16.53 2c4.6 2.63 7.92 8.58 9.9 15.85-7.93 1.33-13.88 0-18.5-3.3-3.97-3.3-7.28-7.93-7.94-14.54z"/><path fill="#FCCE00" d="M213.35 276.9l-74.68 29.08 4.62 5.94c2.64 3.97 3.96 8.6 1.97 11.9l-9.25 15.2c-4.63 5.95-6.6 11.24-6.6 15.86 1.3 7.28 7.92 13.23 18.5 15.2l33.7-.64c20.5-5.96 41.65-14.56 62.8-27.1 21.8-13.23 32.4-23.8 32.4-32.4l-35.7 5.3c-25.12 4.62-37.68 5.28-39.66.65-1.32-5.95 0-13.23 3.97-24.47l7.92-14.53z"/><path d="M280.1 309.95l-1.97-3.3-7.93-.67-20.5 3.97c-29.07 5.94-44.28 7.92-44.94 4.62-2.64-7.27 1.33-18.5 11.24-36.36 1.32-.64 1.32-1.97 0-3.3-1.32-1.97-1.98-1.97-3.97-.65L138 302.67c-1.32 0-1.98 1.32-1.98 2.64l.66 3.32 3.96 3.97c2 3.96 2.65 7.26 1.33 10.57l-5.95 9.9c-6.6 9.26-9.92 16.54-9.92 22.48 1.32 5.3 4.63 9.92 9.26 13.22 5.28 3.3 12.56 5.3 21.15 5.95l25.8-2.64c21.14-5.3 42.3-13.9 63.44-26.44 22.48-13.9 34.37-25.78 34.37-35.7zm-130.86 10.57c0-4.63-1.32-8.6-4.63-13.22l61.5-24.46c-5.3 11.24-8.6 20.5-8.6 27.77 0 2 .65 3.97.65 5.96 1.98 3.96 6.6 5.94 16.53 5.94l58.16-9.9c-1.98 7.26-13.22 16.5-32.4 28.4-19.82 11.24-39.65 19.84-59.47 25.13l-23.14 2.64c-8.6-.67-14.54-2.64-19.17-5.94-3.3-2.65-5.28-5.3-5.94-7.94v-2c0-3.3 3.3-8.6 8.6-15.85l7.26-11.9.66-4.63z"/><path d="M263.6 312.6c.65-.68 1.3-2 .65-3.32-1.32-.66-1.98-.66-3.3 0l-25.12 18.5c-20.5 12.57-38.34 21.16-54.86 24.47-.67.66-2 1.32-2 2.64.68 1.32 2 1.97 2.66 1.32 17.2-3.3 35.7-11.9 56.18-25.13l25.8-18.5zM233.85 318.53c.66-1.3 1.32-1.97.66-2.64-.65-1.33-1.32-2-3.3-.67-19.17 11.24-35.7 19.83-49.57 23.13-.66.66-1.33.66-1.33 2 0 1.97 1.33 1.97 2 1.97 15.2-3.97 31.72-11.9 51.55-23.8zM204.76 319.86l.66-2.65c-.66-1.3-1.32-1.3-1.98-1.3L177 326.46c-1.98 0-1.98.66-1.98 2.64l2.64.68 27.1-9.92zM182.95 311.26c-1.32.66-1.32 1.33-1.32 2.65 0 1.33 1.32 2 2.64 1.33l17.85-7.27c-1.32.66-2 0-2.64-1.32-.67-.66-.67-1.33.65-2l-17.18 6.62z"/><path fill="#FCCE00" d="M306.55 130.15c-7.93 5.95-16.52 13.9-26.44 22.48-19.15 17.85-33.04 35.7-42.95 52.22l-19.83 3.3c-17.2 3.97-35.7 11.23-55.52 21.8l-43.63 21.17c-15.2 7.92-25.77 13.22-30.4 17.18-4.63 4.63-7.93 9.26-9.92 15.2l-1.32 7.93L63.98 302c-8.6 9.26-13.88 18.52-15.87 28.44 13.9-11.9 26.45-19.18 35.7-21.16l11.24 1.98c9.9 1.33 21.15 1.33 34.37-.65 42.98-4.62 75.37-17.18 97.84-36.35 10.57-9.9 17.18-23.13 19.83-37.67v-19.83c36.35-10.58 63.45-22.47 80.64-35.04l-23.8-13.2 2.65-38.35z"/><path d="M303.9 127.5c-5.28 3.32-13.87 11.25-26.43 23.15-18.5 17.84-33.05 34.37-42.3 50.9-20.5.65-45.6 9.9-74.7 25.1l-37 18.5c-20.5 9.93-33.72 17.2-37.68 20.5-7.95 6.6-12.57 14.55-12.57 23.8-4.63 3.3-9.92 7.94-14.55 13.22-7.27 9.25-12.55 17.85-13.88 27.1v.66c0 1.32.67 2 1.33 2.65l3.96-.66c13.2-10.58 25.1-17.85 33.7-19.83l45.6 1.3c44.96-5.28 78-17.84 99.16-37.67 15.2-13.22 22.47-29.74 22.47-49.57l-.66-7.28c37.02-11.9 63.46-23.8 79.32-35.02l1.3-2.65-1.3-3.3-22.5-12.55 2.66-35.7-1.98-2.64h-3.97zm-3.3 41l1.98 1.98 18.5 11.23c-17.83 11.9-42.95 21.83-75.34 31.74-1.32 1.32-1.98 1.98-1.98 3.3v1.33l.66 8.6c0 17.84-6.6 33.04-19.83 44.28-21.16 19.17-52.9 31.72-95.2 36.35-12.55 1.98-23.8 1.98-33.04 1.32l-13.22-2.64c-7.93 1.32-17.85 6.6-28.42 14.54 3.3-6.6 7.93-12.56 15.2-18.5l8.6-7.94 1.3-2.65v-1.3c0-7.3 3.32-13.9 9.93-19.2 4.62-3.3 16.52-9.9 36.35-19.82l37.68-18.5c18.5-10.57 36.35-17.18 52.88-21.14l20.5-3.3c.65 0 1.97-.67 2.63-1.33 13.2-22.47 33.7-45.6 62.78-69.4l-1.98 31.06z"/><path d="M108.26 272.26c-4.63.67-8.6 2-12.56 5.3-2.64 1.98-3.97 3.3-3.97 3.96-1.32 2.65-.66 3.96.67 4.63 1.98 1.32 2.64.66 3.96-.67l3.3-3.3c2.65-1.98 5.3-2.64 8.6-3.3 2.64 0 3.3-1.33 3.3-3.3 0-2.65-.66-3.32-3.3-3.32zM74.55 290.77v8.6c.66 5.94 3.96 9.9 7.93 11.9 1.98 1.3 2.64.65 3.97-1.32.66-1.33 0-2.65-1.33-3.3-3.3-1.34-4.62-4.64-5.28-9.27v-5.3c0-2.63-1.33-3.3-2.65-3.3-2 0-2.65.67-2.65 2zM306.55 150.65c.66 0 .66-1.33 0-2.64l-2.64-.66c-22.46 18.5-40.97 37.02-56.18 56.19-1.32.66-1.32 1.32 0 1.98h2.65c15.86-18.5 33.7-36.35 56.18-54.85zM311.84 171.14l-41.64 21.8c-1.98.67-1.98 1.33-.66 2.65 0 1.3 1.32 1.3 1.98.65l41.64-21.15-2.64-1.32c0-1.32 0-1.98 1.32-2.64zM151.22 249.8l-12.56 5.28c-.66 1.32-.66 2-.66 2.65.66 1.3 1.32 1.98 2.64 1.3l11.9-5.93c2-.67 2.65-1.98 1.32-3.3 0-1.33-1.32-1.33-2.64 0zM158.5 260.37L144.6 265c-1.3 0-1.97 1.32-.65 2.64 0 .66 1.32 1.32 2 .66l13.2-3.96c2-.66 2-1.33 2-3.3-.68-.67-2-1.33-2.66-.67zM164.44 272.93l-12.56 3.3c-.66.67-1.32 1.33-.66 3.3 0 1.33.66 1.33 2 1.33l12.54-4.63c1.32 0 2-1.32 1.32-1.98 0-1.32-1.32-1.32-2.64-1.32zM165.1 284.17l-9.25 2.64c-.66.67-1.32 2-.66 2.65 0 1.33.65 1.33 2.63 1.33l9.25-3.3c1.33-.67 1.33-1.33.67-2.66 0-1.3-1.32-1.98-2.65-.65zM184.93 233.93l-13.22 5.95c-.65 1.32-.65 1.98-.65 3.3.66.67 1.32 1.33 2.64.67l13.2-5.95c.67-.66 1.34-1.33.67-3.3-.66-.67-1.98-1.33-2.64-.67zM190.22 244.5l-9.92 3.97c-1.98.66-1.98 1.32-1.98 2.65.66 1.3 1.98 1.98 3.3 1.3l9.92-4.6c1.33 0 1.98-1.33 1.33-2.66-.67-.65-1.33-1.3-2.65-.65zM192.87 256.4l-8.6 4.63c-1.32 0-1.98 1.32-1.32 1.98.66 1.34 1.98 1.34 2.64 1.34l9.25-4.63.66-1.97c-.65-1.33-1.3-2-2.63-1.33zM196.83 266.98l-5.95 2.64c-1.32 0-1.98 1.33-1.32 1.98.66 1.33 1.32 2 2.65 1.33l5.95-1.98c1.33-.66 1.98-1.33 1.33-3.3-.67-1.33-1.33-1.33-2.65-.67zM221.95 220.7l-15.2 5.3c-2 .66-2 1.32-2 2.64.67 1.32 2 1.32 2.66 1.32l15.87-5.28 1.32-2.65c0-1.32-1.33-1.98-2.65-1.32zM225.25 233.27l-11.9 3.97c-1.98.66-1.98 1.32-1.98 2.64.66 1.32 1.98 1.32 3.3 1.32l11.9-4.63c1.33 0 1.33-.66 1.33-1.98 0-1.33-1.33-1.33-2.65-1.33zM225.25 244.5l-7.27 2.65c-1.32.66-1.32 1.32-1.32 2.64.66 1.32 1.32 1.32 2.64 1.32l7.27-3.3c1.33 0 1.33-.67 1.33-2 0-1.3-1.33-1.3-2.65-1.3z"/><path fill="#FCCE00" d="M225.25 109.66c-21.15 1.33-35.03 3.3-42.96 6.6-13.9 7.95-29.76 19.18-46.28 35.7-19.17 17.85-27.76 31.74-27.1 40.33.66 4.6 6.6 9.24 18.5 12.55 11.24 3.96 17.85 6.6 18.5 9.9 2 6.62-1.97 17.2-11.22 33.06l74.03-33.04-.66-12.56c-1.33-8.6-4.63-13.88-9.92-17.18l-14.54-3.3c-5.28-1.33-8.58-3.97-10.56-7.94-2-4.63 8.6-15.2 31.72-31.72 22.48-16.53 39-27.1 50.9-31.74-9.26-.66-19.17-.66-30.4-.66z"/><path d="M224.6 106.36c-21.82 1.32-36.36 3.3-43.63 7.27-15.2 7.27-30.4 19.17-47.6 35.7-19.82 19.16-29.08 33.04-27.76 42.96.68 4.6 3.32 7.92 8.6 11.22 2.65 1.33 7.28 3.3 14.55 5.3 9.25 2.64 13.22 5.28 13.88 6.6 1.98 5.95-2 15.87-11.24 29.75-.67 2-.67 3.3 1.3 4.63 2 1.32 3.32 1.32 4.64-.67 9.9-15.86 13.88-27.76 11.24-35.7-.67-3.3-6.6-7.26-17.85-11.23-11.9-3.3-17.85-6.6-18.5-10.57-.67-7.93 7.26-20.5 25.77-37.68 16.52-15.2 31.73-27.1 45.6-34.37 9.92-5.3 29.1-7.27 58.84-6.6-13.88 7.92-28.43 17.84-43.63 29.08-16.5 12.56-26.43 21.8-28.4 27.75v5.3c1.3 3.3 3.96 5.96 7.26 7.27l19.17 5.96c5.95 3.3 8.6 11.9 8.6 24.45v1.98c0 2 1.3 3.3 3.3 3.3 2.64 0 3.3-1.3 3.3-3.3l-.66-13.87c-1.98-9.27-5.94-15.88-11.9-18.53l-19.16-5.28-4.62-4.64c.66-3.96 11.24-13.88 32.4-29.1 20.48-15.85 37-25.76 48.9-30.4 1.32 0 1.98-.65 1.98-3.3-.66-1.98-1.32-2.64-3.3-2.64-10.58-.66-20.5-.66-31.07-.66z"/><path d="M204.76 109.66c-19.17 11.9-42.96 31.07-72.04 58.83-.67.65-.67 1.3 0 1.98l3.3.66c28.42-27.1 52.22-46.93 71.4-58.17l.65-3.3h-3.3zM224.6 108.35c-7.28 3.96-21.16 14.53-41 31.72l-29.73 25.12c-1.32.65-1.32 1.97 0 3.3.66.65 1.32.65 2.64 0l28.43-24.46c20.5-17.85 34.37-28.42 42.3-32.4l.67-2.63-3.3-.65zM175.68 162.54L151.88 187c-1.32.67-1.32 1.32 0 1.98l2.65.66 23.8-24.45c1.97-.67 1.97-1.33 0-2.66-.67-.66-1.33-.66-2.65 0zM162.46 194.93c-.66.66-.66 1.32.66 1.98 1.32 1.34 1.98 1.34 2.64 0l15.87-15.2h-2.65c-.66-.64-.66-1.3 0-1.97l-16.52 15.2zM194.85 183.7l-23.8 21.15c-.66 1.3-1.32 1.98 0 3.3h2.65l24.45-21.82-3.3-.65c-.66-.66-.66-1.32 0-2zM188.9-128.3c-1.33-.65-2.65 0-3.3 2-3.97 19.16-12.57 41.63-25.13 68.07-25.77 51.56-58.82 96.5-101.13 134.2-1.32 1.3-1.32 2.63-.66 3.95 1.33 1.32 2.65 1.32 4.63 0 42.3-38.34 76.02-83.28 101.8-136.16 13.22-26.44 21.8-49.57 25.78-68.75.66-1.97 0-3.3-1.98-3.3z"/><path fill="#858585" d="M34.9 50.17c10.56 9.26 20.48 10.58 29.07 5.3L74.55 44.9c-3.3-3.32-7.93-5.3-12.56-7.3-9.93-1.96-19.18 2-27.1 12.57z"/><path d="M76.53 46.2c.66-.65.66-1.98 0-2.63-6.6-6.6-13.88-9.26-21.8-8.6-7.94 0-15.88 5.3-21.82 14.55-.66.66-.66 1.98.67 3.3 7.93 6.6 16.52 9.26 24.45 7.93 7.93-1.32 13.88-5.95 18.5-14.54zM56.7 55.48c-5.3.66-11.24-.67-17.85-5.3 5.3-6.6 9.92-9.9 15.87-9.9 5.3-.67 10.57 1.3 16.52 5.94-5.28 5.3-9.9 8.6-14.54 9.27z"/><path d="M96.36 39.6L73.9 42.9c-2 0-2 .67-2 2.65s1.33 2.64 2.65 1.98l22.47-2.64 2.65-3.32-3.3-1.98z"/><path fill="#858585" d="M65.3-1.38C74.54 9.2 83.13 13.16 93.05 9.86c5.28-2 9.9-4.63 12.55-8.6C102.98-2.7 99.68-6 95.05-8 85.12-12.6 75.2-9.96 65.3-1.37z"/><path d="M63.97-3.36C63.3-2.06 62.65-.72 63.3.6c7.28 7.93 15.2 12.56 23.15 12.56 8.6 0 15.2-3.3 21.14-9.9V-.07C102.97-8 96.36-11.96 88.42-12.62c-8.6-.66-16.53 2.65-24.46 9.26zm37.68 4.62c-5.3 4.63-9.92 6.6-15.2 6.6-5.3 0-11.24-3.3-16.53-8.58 6.6-5.3 11.9-7.27 17.85-6.6 4.63.65 9.9 3.3 13.88 8.58z"/><path d="M102.97 1.26l.66 2 1.32.65 23.14 1.33 2.63-1.98c0-2-1.32-3.3-2.64-3.3L105.6-1.4c-1.3 0-2.63.66-2.63 2.64z"/><path fill="#858585" d="M87.77-17.24C99-9.97 108.92-9.3 117.5-14.6c3.98-3.3 7.28-7.27 9.27-11.24-3.97-3.3-8.6-5.28-13.22-5.95-10.58-1.3-18.5 2.66-25.78 14.56z"/><path d="M85.78-18.57c-.66 2-.66 2.65.67 3.3 8.6 5.96 17.84 8.6 25.1 5.96 7.95-2 13.9-7.28 17.86-15.21 0-1.34 0-2-1.3-3.32-6.62-5.3-13.9-7.93-21.82-6.6-8.6 1.3-15.2 6.6-20.5 15.85zm21.16-10.57c5.95-.66 11.23 0 15.86 3.96-2.64 5.95-6.6 9.26-12.56 10.58-5.3 1.98-11.23.67-18.5-3.3 4.62-7.28 9.9-10.58 15.2-11.24z"/><path d="M148.58-33.1L126.1-28.5c-1.32 0-1.98 1.98-1.98 3.3.66 2 2 2 3.3 2l21.82-5.3c1.98 0 2.64-1.32 1.98-2.64 0-2-1.32-2-2.64-2z"/><path fill="#858585" d="M114.87-57.56c12.55 5.94 21.8 5.28 29.74-2 3.32-3.3 5.96-7.25 7.28-12.55-3.96-2.65-9.25-3.97-13.88-3.97-9.9 0-18.5 6.6-23.13 18.5z"/><path d="M112.22-58.9c-.66 2 0 3.32 1.33 3.98 9.9 4.63 18.5 5.3 25.77 1.98 7.93-3.3 12.56-9.25 15.2-18.5.67-.67 0-1.33-1.3-2.65-7.95-4.62-15.22-5.28-23.15-3.3-7.27 2.65-13.88 8.6-17.85 18.5zm5.95 0c4.63-7.26 8.6-11.88 13.22-13.2l17.18 1.32c-2.65 6.6-6.6 11.23-11.24 12.55l-19.17-.66z"/><path d="M171.7-82.68l-20.48 8.6c-1.98 0-2.64 1.3-1.98 3.3.66 1.32 1.98 1.98 3.3 1.32l21.16-7.93c1.98-.66 2.64-1.97 1.32-3.3 0-1.98-1.33-1.98-3.3-1.98z"/><path fill="#858585" d="M85.12 109.66c10.58-8.6 14.55-17.18 11.24-27.1L89.1 70l-9.92 11.24c-4.63 8.6-2.65 17.85 5.94 28.42z"/><path d="M91.07 68.02h-3.3l-5.95 5.3c-3.97 4.62-6.6 9.25-7.27 13.87-1.32 7.93 1.32 15.85 8.6 24.45l3.3.66c8.6-6.6 13.22-14.53 13.88-22.47.66-5.28-1.33-10.57-3.97-15.2l-5.3-6.6zm3.97 21.8c0 5.3-3.3 10.6-9.92 15.88-3.96-5.95-5.95-10.57-5.95-14.54l.67-3.3c.66-4.64 3.3-9.92 8.6-14.55 4.62 5.3 6.6 9.92 6.6 15.88v.65z"/><path d="M89.1 47.53L86.44 70l2.64 2.65c1.97 0 2.63 0 2.63-2l2.65-22.46c0-2-.66-3.3-2.65-3.3-1.98 0-2.64 1.3-2.64 2.63z"/><path fill="#858585" d="M138 70.66c7.27-11.23 7.27-21.14 1.33-29.74l-11.24-8.6-5.3 13.9c-1.32 9.9 3.3 18.5 15.2 24.44z"/><path d="M137.34 72.65c.66 1.32 2 .66 3.3-.66 5.3-9.26 7.28-17.2 4.63-25.13-1.32-5.3-4.62-9.26-9.25-13.22-3.3-2.65-5.95-3.96-7.27-3.96-.66-.67-1.98 0-2.64.64l-4.62 7.27c-1.98 5.3-1.98 10.6-1.32 15.88 1.32 7.93 7.27 14.54 17.18 19.17zm3.3-24.46l.67 5.28c0 3.96-1.97 7.93-3.96 13.22-6.6-3.96-11.23-8.6-12.56-13.88V48.2c0-3.3 1.33-7.28 3.97-12.56 5.95 3.96 9.9 7.92 11.9 12.55z"/><path d="M121.48 7.87c-1.98.67-1.98 2-1.98 3.3L125.44 33c.67 1.3 1.33 1.97 2.65 1.97 1.97-.66 2.63-1.98 2.63-3.3l-5.95-21.8c-.66-2-1.98-2.66-3.3-2z"/><path fill="#858585" d="M178.32-15.27l-13.88 2.65L170.4.6c7.26 7.93 16.5 9.26 29.07 4.63-3.96-12.56-11.23-19.83-21.15-20.5z"/><path d="M162.46-15.27l-.66 3.3 2.64 7.3c2 5.27 5.95 9.23 9.9 11.88 7.3 3.97 15.88 3.97 26.45.67 1.32-.66 1.32-1.32 1.32-3.3-3.3-10.58-8.6-17.2-15.87-20.5l-15.2-1.3-8.6 1.96zm4.62 3.97c7.27-1.98 12.56-1.98 17.2 0C188.9-8.64 192.2-4 195.5 3.26h-17.84c-5.3-3.3-9.25-7.93-10.58-14.54z"/><path d="M141.97-23.85c-1.33 1.32-.66 2.64.66 3.96l19.83 9.93c1.98.66 2.64 0 3.97-1.33 1.32-1.98.65-2.64-1.33-3.97l-19.83-9.9c-1.98-.67-3.3 0-3.3 1.32z"/><path fill="#858585" d="M178.32-33.1l-9.9-11.24-7.28 11.9c-3.3 9.9 0 19.16 10.57 27.75 8.6-9.9 10.6-19.15 6.62-28.4z"/><path d="M161.8-39.72c-3.3 4.63-4.63 9.92-4.63 14.54 0 8.6 3.97 15.87 12.56 22.48h3.97c7.27-8.6 10.57-16.53 9.25-23.8-.66-5.3-2.64-9.9-7.27-14.54l-5.3-5.3c-1.3-1.3-1.97-1.3-3.3 0l-5.28 6.62zm0 14.54c0-5.95 2.64-11.23 7.27-15.86 5.3 4.63 7.93 9.25 8.6 14.54v2c0 5.27-2.65 9.9-6.62 15.84-5.95-5.94-9.25-11.23-9.25-16.52z"/><path d="M167.08-69.46l-2.64 3.3 1.32 21.82c0 1.98 1.32 2.64 2.65 2.64 2 0 3.3-1.32 3.3-2.64l-1.97-22.47c0-2-1.32-2.66-2.65-2.66z"/><path fill="#858585" d="M33.57 107.02c13.88 0 22.47-4.63 26.44-14.54l1.33-14.54-14.54 2.64c-9.93 3.97-13.9 12.56-13.23 26.44z"/><path d="M61.33 75.3l-7.93.66c-5.95.65-11.24 3.3-14.55 6.6-5.28 5.3-7.93 13.88-7.27 25.12 0 1.32.67 1.98 2 1.98 11.22 0 19.82-3.3 24.44-9.25 3.3-3.96 5.3-9.24 5.95-14.53l-.66-7.93-1.97-2.64zm-24.46 29.08c0-7.94 1.98-13.9 5.3-17.85 4.62-3.96 9.9-5.95 16.5-5.95v1.98c0 5.96-1.97 10.58-4.6 14.54-3.32 3.97-9.27 5.95-17.2 7.28z"/><path stroke-miterlimit="100" d="M364.58 579.58H7.42V7.42h357.16v572.16z" fill="none" stroke="#000" stroke-width="14.84"/></svg>