<svg xmlns="http://www.w3.org/2000/svg" height="100%" viewBox="0 0 372 587"><path fill="#fffaf0" d="M0 0h372v587H0z"/><path fill="#FFF" d="M192.3 325.4l-13.8 1.3-9.87 87.47c-4.6 68.4-.65 124.95 11.18 171.64l11.85.66c-4.6-21.04-7.9-48.66-9.2-81.54-3.95-65.1-.66-124.3 9.86-179.53z"/><path d="M194.28 324.07l-1.97-1.3-13.8 1.3c-1.98.66-1.98 1.32-2.63 1.98l-9.2 88.77c-4.6 68.4-.67 124.95 10.5 171.64 0 .65.67 1.98 2.64 1.98l11.85.65 1.3-.66.67-2.64c-3.94-21.7-7.23-49.32-8.55-81.54-4.6-64.45-1.3-123.63 9.86-178.2l-.65-2zm-13.8 5.27l8.54-.66c-7.23 38.14-10.52 79.57-10.52 124.95 0 48 3.3 91.4 9.86 130.2l-6.57-.66c-7.9-33.53-11.85-71.68-11.85-117.05 0-49.32 3.3-95.36 10.52-136.78z"/><path fill="#FFE000" d="M228.48 308.95l-24.33 11.18c-7.24 24.33-18.42 48.66-34.2 74.3l-.66 17.76c22.35-18.42 38.8-41.44 49.97-68.4l9.2-34.85z"/><path d="M229.8 306.98l-1.98-.66-25 11.84-.65 1.3c-7.23 23.03-19.07 48.02-34.2 74.32l-.65.66-.66 17.1.66 2.63h3.3c22.35-18.42 39.45-41.43 50.62-69.05l9.87-36.17-1.3-1.97zM206.1 322.1l19.07-8.55c-2.64 12.5-6.6 25-12.5 37.48-9.87 21.05-23.02 39.46-40.12 54.6l.66-10.53c15.12-25.65 26.3-50.64 32.88-73z"/><path fill="#858585" d="M91.7 586.46l24.98 1.98c-1.97-22.36-8.55-46.03-19.07-70.37-21.03-48.66-51.28-79.57-90.08-91.4l10.52 9.86c9.2 9.2 17.76 19.06 25.65 29.6 24.98 35.5 41.42 74.95 48 120.33z"/><path d="M8.18 424.04c-1.32-.67-1.98 0-3.3 1.3 0 1.32 0 2.64 1.32 3.3l11.18 10.5c8.55 8.57 17.1 18.43 25 29.6 24.98 34.86 40.76 74.32 46.68 118.38l2.63 1.98 24.98 1.3h2.63l.67-2.62c-3.3-23.02-9.86-46.7-20.4-71.68-21.68-49.98-51.94-80.24-91.4-92.06zm51.95 62.47c-11.84-20.38-25.65-37.48-40.1-52.6 30.9 13.8 55.22 41.42 72.98 80.88 10.53 23.02 17.1 46.7 20.4 70.37l-19.73-1.32c-5.26-34.85-16.44-67.73-33.54-97.32z"/><path fill="#858585" d="M2.92 308.3l14.46 19.06c11.84 17.1 23.02 34.85 33.54 54.58 33.54 64.45 55.24 132.84 63.8 205.84l27.6 1.3c-1.96-31.56-9.2-67.73-21.7-107.18C95 403.65 56.2 345.12 2.93 308.3z"/><path d="M48.95 384.58c15.78 29.6 28.28 61.15 38.14 92.72-1.98-20.4-7.24-40.77-16.45-60.5-15.12-34.86-32.88-65.76-53.27-94.04 43.4 35.5 76.3 87.46 99.3 155.2 11.84 37.48 19.73 73.65 23.02 108.5l-23.02-1.3c-3.3-30.93-11.83-61.83-25-90.1 9.88 30.24 16.45 61.15 19.74 93.38l3.3 1.96 27.6 1.33 1.32-.67 1.32-1.97c-1.97-33.54-9.2-69.7-22.36-109.17C96.96 400.36 57.5 342.5 4.23 305.66l-3.3.66c-.64 1.3-1.3 1.97 0 3.3l14.48 19.72c11.85 17.1 23.03 34.85 33.55 55.24z"/><path fill="#858585" d="M35.8 94.57c18.4 34.2 36.83 80.88 54.58 139.4 34.85 117.07 49.98 234.78 45.37 354.47l30.9 3.3c2-50.66-1.3-109.84-11.17-176.9C135.75 280.66 96.3 174.8 35.8 94.56z"/><path d="M37.77 92.6h-3.3c-.65.65-1.3 1.97-.65 3.28 18.42 35.52 36.83 82.2 53.93 140.74 34.85 116.4 49.32 233.45 45.37 351.82 0 1.96 0 2.62 1.98 2.62l31.56 3.3 1.97-.67.66-1.97c1.97-52.6-1.98-112.46-11.84-178.88C137.06 278.7 97.6 172.15 37.76 92.6zm68.4 189.4c-14.48-57.88-32.9-111.15-53.93-159.8 44.7 69.04 75.62 155.84 94.7 260.4 11.83 63.8 17.1 126.93 17.1 189.4v16.44l-26.3-2.64 1.3-38.14c0-88.78-11.18-177.56-32.88-265.67z"/><path fill="#858585" d="M231.77 583.83l27.62-1.97c4.6-57.22 26.95-113.12 68.38-169 21.05-28.28 41.43-50 61.16-66.43-63.8 30.9-108.5 79.57-136.13 146-13.14 33.54-20.38 63.78-21.03 91.4z"/><path d="M259.4 585.15l2.62-2.63c3.94-56.56 26.3-111.8 67.73-167.04 20.4-27.6 40.77-49.98 60.5-67.07 1.97-.65 1.97-2.62 1.32-3.28-1.32-1.32-2.64-1.32-3.95-.66-63.13 30.25-109.16 78.9-136.13 146-13.82 34.18-21.7 65.1-22.36 93.37 0 1.32 0 1.32.65 1.98l2.62.66 26.97-1.3zm-24.34-3.95c1.3-28.93 9.86-59.85 23.67-92.07 23.67-57.2 61.8-100.6 113.1-130.2-25.64 25-48 52.6-66.4 82.85-28.3 46.04-44.73 92.07-48.02 138.1l-22.34 1.32z"/><path fill="#858585" d="M383.68 166.9c-29.6 14.47-61.16 43.4-94.04 85.5-65.1 85.48-105.88 195.96-121 332.75l36.82 1.97c-.66-40.77 6.58-88.12 21.05-144.02 28.94-111.13 81.55-203.2 157.18-276.2z"/><path d="M385.65 164.93c-.66-1.3-1.98-1.3-3.3-1.3-30.9 16.43-62.47 46.02-95.35 88.76-9.86 13.15-18.4 28.27-24.33 44.06 30.9-49.32 65.1-88.13 103.9-116.4-65.1 69.7-111.8 154.54-140.06 254.5-15.12 55.9-23.67 105.87-23.67 150.6l-31.56-2.64c12.5-112.45 43.4-207.8 91.4-286.06-51.3 77.6-84.17 172.95-96.67 288.03l.66 1.96 1.32.66 36.82 3.28 1.98-1.3 1.3-2c0-41.4 7.24-90.07 21.7-144.66 29.6-110.47 81.56-201.88 155.87-274.22v-3.3z"/><path fill="#FFF" d="M140.36 232.66l-24.34 44.72 23.02 7.9c11.18-16.45 16.44-29.6 16.44-37.5.66-5.25-1.97-9.2-7.9-11.83l-7.22-3.28z"/><path d="M113.4 276.73v1.97l1.3 1.3 23.7 7.25 2.62-.66c11.17-17.77 16.44-30.26 17.1-38.8.65-5.27-1.98-9.22-5.93-13.16-3.3-1.98-7.9-3.95-11.84-4.6l-2.63 1.3-24.33 45.4zM141 235.95c7.9 1.32 11.83 5.26 11.83 11.18v.66c0 6.57-5.26 18.4-15.12 34.2l-17.76-5.93 21.05-40.12z"/><path fill="#FFF" d="M239.66 210.3l-11.18-1.3-2.63 23.66c-1.32 17.76-.66 34.2.65 47.35l11.84-3.27c-1.3-30.25-.66-52.6 1.32-66.42z"/><path d="M228.48 206.36c-1.97 0-2.63 0-2.63 1.97-.66 5.92-1.97 14.47-2.63 25-1.32 17.75-.66 33.53 1.3 46.7l1.33 1.96h1.97l11.18-3.3 1.97-1.97c-1.3-30.25-.65-52.6 1.32-65.77v-2.63l-1.98-.65-11.84-1.32zm1.97 5.26l7.23 1.32c-1.97 9.2-2.63 23-2.63 42.74l.66 18.4-6.57 2.65c-.65-6.58-1.3-14.47-1.3-24.34 0-11.2 1.3-25 2.62-40.78z"/><path fill="#9260C7" d="M187.05 301.7l15.78-5.9c1.32-15.13.66-29.6-2.63-44.07-2.63-11.17-6.57-21.04-11.18-28.93-5.26-8.55-9.2-10.52-12.5-7.24-3.28 1.98-2.62 8.56.66 17.77 5.26 13.8 7.9 23.67 9.2 28.93.67 8.55 1.33 21.7.67 39.45z"/><path d="M173.9 213.6c-1.98 2.62-3.3 5.9-1.98 9.86 0 2.63 1.32 7.9 4.6 14.46l6.58 25c1.97 7.88 1.97 21.04 1.32 38.8l1.3 2.62 2.64.66 15.13-6.57 1.96-1.98c1.3-15.78.66-30.9-2.63-45.37-2.63-9.2-5.26-17.1-9.2-25-3.95-8.54-7.9-13.14-12.5-14.46-2.63-.66-4.6 0-7.23 1.98zm3.94 3.94l1.97-.65c2.64.64 5.93 4.58 9.22 11.16 3.95 6.58 6.58 15.13 8.55 24.33 1.97 8.54 2.63 17.75 2.63 28.27l-.66 13.8-9.86 3.96V286.6l-.66-24.34-7.9-26.3-4.6-15.13 1.32-3.3z"/><path fill="#9260C7" d="M113.4 272.12l13.8 6.58c9.87-15.78 17.1-31.57 20.4-48 3.28-14.48 5.25-24.34 4.6-29.6 0-7.9-1.98-11.84-6.58-11.84s-7.9 3.95-9.87 11.84l-4.6 25c-2.63 12.48-8.55 27.6-17.76 46.02z"/><path d="M125.9 280.67l3.28-.66c10.52-16.43 17.75-32.2 21.04-49.3l3.95-26.3c1.3-6.6 0-11.85-1.98-14.48-1.98-1.97-3.95-3.3-6.58-3.3-5.26 0-8.55 2.64-10.52 7.9-1.32 3.3-2.64 9.87-3.95 19.08l-2.63 12.5c-2.63 11.17-8.55 26.3-17.1 44.7v1.98l1.3 1.32 13.17 6.57zm-8.56-9.86c8.55-18.4 13.8-33.53 16.44-44.05l1.97-12.5 3.95-15.78c1.32-3.95 3.3-6.58 5.92-6.58l1.97 1.3 1.96 7.9-3.94 28.94c-3.94 15.78-9.87 30.25-19.07 44.7l-9.2-3.93z"/><path fill="#9260C7" d="M296.2 291.2c2-21.05-2.62-35.52-13.8-44.07-10.52-7.9-21.04-7.9-30.9 0-5.27 4.6-9.2 9.2-12.5 15.13-7.23 1.3-13.15 3.95-15.78 7.9-3.95 4.6-5.92 11.83-3.95 21.03.66 4.6 3.95 8.54 9.87 11.18l23 9.2c11.2 5.9 23.03 12.5 34.87 19.73 4.6-13.8 7.9-26.96 9.2-40.1z"/><path d="M299.5 290.53c1.97-21.7-3.94-36.82-15.12-46.03-7.24-5.26-15.13-7.23-22.36-5.26-5.92.66-11.18 3.95-17.1 9.2l-8.55 10.53c-13.8 4.6-21.04 12.5-21.04 25l.65 7.88c.66 4.6 3.3 7.9 6.58 11.18 3.3 1.97 7.23 3.94 14.47 5.92l13.8 5.92c11.2 4.6 22.37 11.18 34.2 19.73h2.63l2.63-1.98c4.6-14.47 7.9-28.28 9.2-42.1zm-5.92-7.23c0 12.5-2.63 26.96-8.55 43.4-9.86-5.92-19.73-12.5-32.22-18.4l-13.8-5.27c-5.92-1.98-9.86-3.94-11.84-5.27-2.63-1.96-4.6-4.6-4.6-7.23l-.66-6.57c0-5.26 1.32-9.87 4.6-13.15 2.64-1.97 6.58-3.94 13.16-5.92l1.97-1.3 6.58-7.9c4.6-5.9 9.87-9.86 14.47-10.52 5.92-1.3 11.84.66 17.76 5.26 8.55 6.58 13.15 17.1 13.15 32.88z"/><path d="M237.03 261.6l1.3 1.97c13.82 6.58 25.66 19.73 35.52 39.46 4.6 9.86 8.55 19.73 11.18 28.94l1.98 1.96 1.32-2.62c-1.3-34.2-9.86-56.55-24.33-67.07-5.27-3.3-11.2-5.26-17.77-5.26l-7.9 1.32-1.3 1.3zm7.9 1.32c5.9-.66 11.17 1.3 17.1 4.6 9.85 7.23 17.1 22.36 20.38 46.7-8.55-24.34-21.7-42.1-37.48-51.3z"/><path fill="#9260C7" d="M114.7 262.26c-7.88-6.58-15.77-9.2-24.32-7.24-9.87 1.98-16.44 10.53-20.4 25-4.6 13.15-5.25 29.6-3.28 48.66 20.4-6.57 36.83-12.5 51.96-17.1l26.3-7.24c5.92-2.62 9.2-5.9 9.87-9.86.65-5.92-1.98-11.18-7.9-15.78-5.9-4.6-13.15-6.58-22.35-6.58-2.63-3.3-5.27-6.57-9.87-9.86z"/><path d="M126.55 268.83c-11.84-14.46-23.68-19.72-36.83-16.44-11.18 1.97-19.07 11.83-23.67 27.6-3.95 13.82-4.6 30.26-2.63 49.34l1.97 1.97 1.96.67 65.76-21.05 17.76-5.92c4.6-2.62 6.58-6.57 7.24-10.52.65-5.92-1.98-11.83-7.24-17.1-5.92-5.26-14.47-8.55-24.33-8.55zm4.6 36.17L70 324.73l-1.32-13.15c0-15.12 1.97-26.97 6.57-36.17 3.3-9.85 9.2-15.1 16.44-17.1 6.57-1.3 14.46.67 21.7 5.93l7.9 9.86 3.28 1.3c9.86 0 16.44 1.98 22.35 7.25 3.3 3.94 5.26 7.23 4.6 11.83 0 1.98-1.3 3.95-5.26 5.26L131.15 305z"/><path d="M124.58 270.15c-19.73-2.63-35.5 5.92-47.35 26.3-6.58 9.87-9.87 21.04-12.5 32.23l1.32 1.97c1.3.66 1.97 0 2.63-1.3 7.23-13.82 19.07-27.64 34.85-40.13l21.7-15.13 1.32-1.98-1.97-1.97zm-52.6 46.03c10.5-28.93 26.3-42.74 46.02-42.74-19.73 13.15-34.86 27.6-46.03 42.74z"/><path fill="#9260C7" d="M206.12 283.96l-19.07 6.57c-3.95-3.28-7.9-5.25-13.8-7.23-9.87-2.63-19.08-.65-25 6.58-7.23 7.23-5.92 19.07 2.63 35.5 5.92 10.53 16.44 25.66 32.22 42.76 8.55-7.24 16.44-15.8 25-25.65 16.43-18.43 23.67-34.2 21.04-44.73-1.32-11.18-9.2-15.78-23.02-13.8z"/><path d="M167.98 279.36c-8.55-.66-16.44 1.96-22.36 7.88-7.9 8.56-6.58 21.05 1.3 37.5 5.93 11.17 17.1 26.96 32.9 46.02l2.63.66 2.62-.66 26.3-26.96c16.45-19.07 23.03-35.5 21.05-46.7-.65-7.22-3.94-11.83-9.86-13.8-8.55-4.6-19.73-3.3-34.85 3.3-6.57-3.95-13.14-6.6-19.72-7.24zm17.75 13.8h3.3c13.8-6.57 23.67-7.9 30.24-4.6 3.95 1.97 5.92 4.6 6.58 9.87v3.28c0 7.9-4.6 19.08-15.78 32.9l-26.97 28.93c-23.67-28.27-36.16-48.66-36.16-61.8 0-3.3 1.3-6.6 3.28-9.88 5.92-6.57 13.16-7.9 22.36-5.26 4.6 1.96 9.2 3.28 13.15 6.57z"/><path d="M187.7 288.56l-1.97 1.32c-7.23 9.86-9.86 25.65-9.2 47.34.65 11.2 1.97 21.7 3.94 31.57l2.63 1.3 1.97-1.3c5.92-19.74 8.55-38.15 7.9-56.56l-3.3-22.36-1.96-1.32zm-1.3 7.24c1.96 7.23 2.62 15.12 2.62 23.02 0 12.5-1.97 25.64-5.92 40.77l-2.63-30.92c0-13.8 1.97-24.34 5.92-32.88z"/><path fill="#9260C7" d="M232.42 187.95L228.48 209l11.18 1.3 9.86-17.1c5.92-12.48 5.26-19.72-1.3-21.7-7.25-2.63-12.5 3.3-15.8 16.45z"/><path d="M248.86 168.22l-9.2 1.3c-4.6 2.64-8.55 10.54-11.18 21.06-1.98 7.23-2.63 13.8-2.63 17.75 0 1.98 0 2.63 2.63 3.3l11.18 1.3 2.63-1.3c10.5-17.1 15.77-29.6 13.14-36.83-.66-2.64-3.3-4.6-6.58-6.58zm-1.97 5.26l3.94 3.3v3.28c0 6.57-3.95 15.78-11.84 27.62l-7.9-1.32c.67-5.9 1.98-11.84 3.95-18.4 1.98-7.24 4.6-12.5 7.24-14.48h4.6z"/><path fill="#858585" d="M196.9 587.1l34.87-3.27c2.63-55.9 16.44-105.22 40.1-148.62 7.9-13.8 16.45-25.64 25-36.8l11.18-11.2-25-5.9c-31.55 23.66-55.23 65.1-71.67 124.28-7.9 29.6-12.5 56.55-14.47 81.54z"/><path d="M232.42 586.46l1.98-2.63c2.63-54.58 15.78-103.9 40.1-146.64 7.25-13.83 15.14-25.66 23.7-36.18l11.82-12.5.66-1.98-1.97-2.63-24.98-5.24-1.97.65c-32.23 23.68-55.9 64.46-72.34 123-7.9 28.92-13.14 57.2-15.12 84.8l.66 2 1.97.65 35.52-3.3zm-32.88-2.63c2.63-28.27 8.55-57.87 17.1-88.12 15.78-52.6 38.8-89.43 67.08-111.78l19.07 4.6c-14.48 15.13-27.63 34.85-40.13 58.53-19.72 40.1-30.25 85.5-33.53 134.8l-29.6 1.98z"/><path fill="#858585" d="M283.06 381.3c15.13 15.1 26.96 36.8 36.83 67.06 4.6 15.13 7.88 28.28 9.85 40.77 5.92-28.93 6.58-55.9.66-82.2l-11.83-29.6-9.86.67-5.9 1.96c-4.6-1.3-8.56-1.3-13.82 0l-5.92 1.33z"/><path d="M281.75 378.66l-1.32 1.97.66 2.62c14.46 13.82 26.3 36.17 36.16 65.77 4.6 14.47 7.9 28.28 9.86 40.12l2.63 2.62 1.97-2.62c6.58-28.94 7.24-55.9 1.32-82.2-3.95-15.78-7.9-26.3-11.84-31.57l-1.97-1.32c-4.6-.66-10.52 0-17.1 3.3-3.95-1.32-8.55-1.32-13.8 0l-6.58 1.3zm19.72 3.28h1.98c5.92-1.97 10.52-3.28 13.8-2.63 9.87 19.08 14.48 41.45 14.48 67.1l-1.98 27.6c-9.2-40.76-23.02-71.02-42.1-91.4l13.82-.66z"/><path stroke-miterlimit="100" d="M364.58 579.58H7.42V7.42h357.16v572.16z" fill="none" stroke="#000" stroke-width="14.84"/></svg>