<svg xmlns="http://www.w3.org/2000/svg" width="372" height="587" viewBox="0 0 372 587"><path fill="#fff" d="M0 0h372v587H0z"/><path fill="#858585" d="M132.7 589.14l26-.66c.66-20-4.68-40.7-14.68-61.36-20-42-56.7-64.7-110.04-68.68l16.68 6.67c12.67 6 24.67 14 35.35 22.7 34 27.34 49.37 61.35 46.7 101.36z"/><path d="M33.98 455.77c-1.32 0-2 .66-2.66 2 0 2 0 3.33 1.33 3.33l16.68 6.67c13.33 6.67 24.67 14 35.34 22.67 32.67 26.68 48.02 60.02 44.68 98.7l1.33 2 2 .67 26-1.3c1.35 0 2.68-.67 2.68-2 .67-21.35-4.67-42.7-15.34-63.35-21.34-42.7-58.7-65.37-112.04-69.36zm101.37 123.37c0-28.68-10-54.7-30.67-77.36-14-14.67-30.68-27.34-52.02-38.02 41.34 7.34 70.02 27.35 87.36 61.36 10 18.67 16 39.35 16 60.7l-20.67.65v-7.33z"/><path fill="#858585" d="M382.1 431.76c-16 3.33-32 12.67-49.35 26.68-34.68 30-56.02 73.35-64.02 130.7l27.35 4.66c2.66-18.66 7.33-38.67 16-62 16.67-44.7 40-78.04 70.02-100.04z"/><path d="M266.73 591.14l2 .67 27.35 4 1.32-.63 1.34-1.35c2-18.65 8-38.66 16-61.33 7.34-18.7 15.34-34.7 24.68-48.7-12 11.34-22 26.67-28.68 44.7-7.33 20-13.34 40.66-17.34 62l-21.34-3.33c6.67-43.35 21.34-78.7 43.35-106.03a130.13 130.13 0 0 1 52.7-41.34c-9.32 8-15.32 18-20 30.67 10.68-14.66 22-26.67 35.35-36l.67-3.34c-.66-1.34-1.32-2-2.65-2-16.68 3.33-33.35 13.34-50.7 28.68-34.66 30-56.68 74.03-64 131.38v2z"/><path fill="#858585" d="M270.73 498.45c-7.34 34-8 66.7-4 97.36l29.35-2c-10-65.32 0-122 30.67-171.36 16-24.68 32-43.35 50.02-54.7-56.7 18.02-92.7 61.37-106.04 130.73z"/><path d="M264.06 596.48l2.67 2 29.35-2.67c.66 0 1.32 0 2-.63l.66-2c-10-63.36 0-119.38 30-168.73 14.68-24 31.35-42.68 49.36-54.7l.66-3.98c-.66-1.34-2-1.34-3.33-1.34-56.7 19.35-92.7 63.36-106.7 132.7-7.34 34.7-8.67 68.05-4.67 99.4zm5.34-3.34l-2-32c0-36.7 5.33-69.36 16-98.04 16-42.02 42-70.7 78.7-87.36-18.68 17.34-33.35 36.68-45.36 59.35-18 34-27.34 72-27.34 112 0 13.34 1.33 28.02 4 44.02l-24 2z"/><path fill="#858585" d="M232.72 592.48c-13.34-55.36-33.34-114.7-60.02-178.06C118.68 286.37 56 202.35-13.36 161 13.98 197 43.32 241.7 74 295.05c62.7 108.03 103.36 208.06 122.7 300.1l36.02-2.67z"/><path d="M235.38 592.48c-14-57.35-34.68-117.37-62-181.4C119.34 284.38 57.32 199.68-12.02 159h-3.35c-.67 2-.67 3.34 0 4 28 36.02 57.35 81.36 88.03 135.38C134 405.75 174.7 505.12 193.36 595.8c.67 1.35 2 2 3.34 2l36.02-2.64 2-.67.66-2zm-36.67 0c-17.3-80.7-52-168.73-102.7-264.1C65.36 272.4 32.7 219.7-2.7 171 60 213.7 116.03 291.7 166.04 406.4c27.34 61.37 48 122.72 63.36 184.07l-30.7 2z"/><path fill="#FFF" d="M186.7 291.7l-14.67 3.35-2 22.67c-.67 18.67 0 39.34 2 61.35 6.67 70.03 24.68 142.72 56.7 215.4h18.66c-13.37-24-24.7-54.68-36.7-92.02-22.68-74.7-30.7-144.72-24-210.74z"/><path d="M169.37 295.05l-2 22.67c-.67 20 0 40 2 62.68 6.67 70.7 25.34 142.06 56.68 214.75l2.67 2h18.67l2.64-1.34v-2.64c-13.34-24.67-25.34-56.02-36.68-92.7-10-33.34-17.34-66.02-20.67-98.02.66 33.34 6 66.68 16 101.36 10 32 21.34 61.35 34.7 88.02h-13.36c-21.34-51.34-37.34-103.35-46.68-154.04-7.34-36.68-10.67-72.02-10.67-104.7 0-17.34.66-28.68 1.32-35.35l10-2.65c-1.33 16.67-2 30.67-2 42.68 0 16.67 2.67 34 8 51.35a468.67 468.67 0 0 1 0-96.7l-.66-2-2.67-1.3-15.35 3.32c-1.33.67-2 2-2 2.68z"/><path fill="#FFE000" d="M136.02 283.04l7.33 38.02c8.67 29.33 23.34 52.68 44.02 70.02l-.67-22.67c-5.33-4-10-10.65-15.33-20.65-10.68-18.67-16.68-40.02-18-64.7H136z"/><path d="M153.36 280.37h-17.34c-.67 0-1.33.67-2 .67l-.67 2 7.34 39.35c9.3 30 24 53.32 45.32 70.66.66 1.33 2 1.33 3.33 0l.67-2-.67-22.67-1.33-1.34c-4.67-4.67-9.34-12-14.67-21.34-10-18-16-38.68-17.34-62.7 0-2-1.33-2.66-2.66-2.66zm-14 5.34h11.33c2 22.7 8 42.7 16.64 60.7 5.34 9.36 10.67 18 16 23.36l1.34 14.67c-16.68-16-28.68-35.34-37.36-58.68-4.66-14-8-27.34-8-40z"/><path fill="#858585" d="M280.07 224.36c18.67-62.02 40-112.04 63.35-150.05-72.7 88.7-113.37 202.1-122.7 340.14-4.67 69.35-2 129.37 8 180.73l34 .66c-26-122.7-20-246.74 17.35-371.44z"/><path d="M323.4 105.65c-20 40.68-36.67 84.7-50 132.04-19.35 69.32-29.35 138.7-29.35 208.7 0 48 5.34 97.37 15.34 147.38l-28.7-2c-5.34-32-8.68-71.36-8.68-118.7 0-58.7 6.67-115.38 18.68-168.73-11.33 33.35-18.67 70.02-21.33 108.04-5.34 68.7-2.67 130.04 6.67 182.73l2.66 2 34.03 1.33 2-.67.66-2c-25.37-121.37-20-244.75 16.64-368.1 18-62.04 40.02-112.7 64.03-152.07.65-1.33.65-2-.68-3.33l-4 .68c-49.34 61.35-82 134.02-98 219.4 16.65-70 43.32-132.7 80-186.73z"/><path d="M240.72 303.7c0-3.32 1.33-8 2.67-11.32l-2 5.33-.7 6z"/><path fill="#FFF" d="M180.7 261.03c6-12 11.34-26.67 14.67-44.68-8.67-.66-15.34.67-19.34 4.67-2.67 2-6.66 10.67-12 24.68l-6.67 20 15.34 8.67 8-13.34z"/><path d="M197.37 215.7l-1.33-1.35c-10-1.33-17.34 0-22 4.67-4.67 4-10.68 19.34-18.68 46.02-.67 1.33 0 2.66 1.33 2.66l14.65 8.67 3.33-.66 8.66-13.3C190 249.7 194 235.04 198 217.7l-.66-2zm-20 6.66c3.33-2.67 8.67-3.34 14.67-3.34-5.34 24-12 41.34-20 52.02l-11.35-6.67c8-24.68 12.65-38.02 16.64-42z"/><path fill="#FFF" d="M240.05 205.02l-16 7.33-10.67 14.67c-8.67 12-14 23.34-17.34 34.02l18-1.34 8-22c6.68-15.34 12-26.68 18-32.68z"/><path d="M242.72 207c.67-1.32.67-2.65 0-3.32-.67-1.33-2-1.33-3.33-1.33l-16.04 6.67-1.33.66c-2.67 2.67-6.67 8-12 16-7.34 12-13.35 23.35-16.68 34.02 0 1.33 0 2 .67 2.67l2.67.66 17.33-.66 2.67-2 7.36-21.34c6.66-15.34 12.67-26 18.67-32.02zm-16.67 7.35l6.67-3.33c-7.34 11.34-14 26.67-20 46l-12.68.68c6-15.34 14-30 26-43.35z"/><path fill="#FFF" d="M154.02 183.67l-8 6.67-4 24c-2.66 19.35-2 36.02 1.33 50.03l16 6.67c-6.66-40.02-8-68.7-5.33-87.37z"/><path d="M156.03 181l-2.67.68-9.34 6.67-.66 1.33-4 25.34c-2 19.34-2 36 1.33 50.02l2 2 15.3 6.66 2.66-.66c1.33 0 1.33-.67 1.33-2-6.67-40.02-8-69.36-5.34-86.7L156 181zm-7.34 11.35l2-2.67-.7 14.67c0 12 2 33.34 6 62.68l-10-4.66c-2-8-2.67-16.67-2.67-26 0-16.68 2-30.7 5.34-44.02z"/><path fill="#9260C7" d="M168.7 268.37l13.33 7.34c8-16.64 14-32 16.67-46 2-10.66 2-21.32 1.34-32-.67-10.67-3.34-15.33-7.33-14-3.3.66-4.64 5.33-5.3 12l-2 29.35c-3.35 17.33-8.68 31.34-16.7 43.34z"/><path d="M186.04 187.68l-.67 10.67c0 10-1.34 18.67-2.67 26-2.67 16.68-8.67 31.35-16.67 42.68-.67.67-.67 1.34 0 2l.67 2 13.33 7.35h2.67l1.33-1.35c8.68-17.33 14-32.67 16.68-46 2-8.67 2.7-18.68 2.7-28.02-.67-10.63-2.67-18-6-20.64l-5.34-1.33c-3.34 1.34-5.34 3.34-6 6.68zm4 11.34l.66-10c.67-1.34 1.34-2.68 2.67-3.34 3.33 2.67 4.67 10 4.67 22.67 0 7.34-.67 14.67-2 20.68-2.67 13.33-8 28-16 43.34l-8-4.67c8-13.33 13.33-28 16-42 2-8 2-16.68 2-26.68z"/><path fill="#9260C7" d="M147.35 205.68c18.68-32 21.35-48.68 8-50-8-.68-12 7.32-11.33 24 .67 8.67 2 17.33 3.33 26z"/><path d="M164.7 159a9.5 9.5 0 0 0-8.67-6c-4-.67-6.67 1.33-9.34 3.33-4 4.67-6 14-4.7 28 .67 8.02 1.34 15.35 3.33 22.02l1.34 2L150 207c13.34-24.66 18.67-40.66 14.68-48zm-4.67 2l.66 4.67c0 6.67-4 17.34-12 32a105.5 105.5 0 0 1-2-21.33c0-8.67 2-14 4-16.67a9.53 9.53 0 0 1 4.64-1.33c2 .66 4 .66 4.67 2.66z"/><path fill="#9260C7" d="M218.7 222.36l20.7-9.34c12-6.67 15.33-12 10-17.34-6-4.67-12.68-2-20 8.67-4.02 5.33-7.35 11.34-10.7 18z"/><path d="M250.72 193.68c-3.33-2.67-6-3.34-10-2.67-4.66 1.37-10.67 6-16.67 14.7-4 6.67-6.67 11.34-7.34 15.34-.63 1.33-.63 1.33 0 2.66l3.37.66 18-7.34c9.34-4.65 15.34-10 16-14.65 0-3.33-.66-6.67-3.33-8.67zm-8 2.66a3.5 3.5 0 0 1 4.67 1.34l1.3 3.33c-1.33 4.7-8.67 10.04-24.67 16.04 6.66-12.67 12.67-19.34 18.67-20.68z"/><path fill="#9260C7" d="M126.02 243.03c-3.34-4.67-6.67-8.67-12-12-10-5.34-18.68-5.34-26.68 2.66-8 7.3-12.67 22-13.34 42 0 10 .67 19.33 2 28 8-4.67 21.34-8.67 40.68-12.67l28-6.67c4.68-2 8-8 8.68-16.68 0-3.34-1.34-7.34-3.34-11.34-4.67-8-12.67-12-24-13.34z"/><path d="M127.35 239.7l-8-8c-4.67-4-10-6.67-15.34-7.34-6.64-1.34-13.3 1.33-19.3 6.66-8.68 8-13.35 22.67-14 43.35 0 10 0 20 2 30l2 2h2.65c8.68-4 22-8 40-12l9.35-2c11.33-2 18.66-4.66 22-6.66 4-2.64 6.67-8.64 8-17.3v-.68c0-4-1.33-8-4-12-5.34-9.33-13.33-14-25.34-16zm-38-4c4.65-3.34 8.66-5.35 13.33-4.67 8 .67 14.66 5.33 20 14l3.34 1.33c9.33 1.34 16 4.67 20.67 10.67l3.3 10.67c-.67 6.67-2.68 11.34-6 12.67-2 2-8 4-18.68 5.34l-9.34 2c-16.67 4-28.68 7.37-37.35 10.7l-1.33-20c0-20.7 4.67-35.35 12-42.7z"/><path d="M127.35 244.36v-2c0-1.33-.67-1.33-1.33-1.33-17.34.67-30.68 11.33-40.7 30.68-6 10-9.32 20.7-11.32 32l1.33 1.37 2-.67c10-14 20.68-28.68 33.34-43.36l16.68-16.67zm-8 2c-15.34 16-28 31.35-38.68 46.02 3.33-10 7.34-19.34 12.67-26.68 7.33-10 16-16.67 26-19.34z"/><path fill="#9260C7" d="M302.07 269.7c3.34-18.67 1.34-32-3.33-38-7.34-8.68-16.68-9.34-29.34-4l-16.67 11.33-16.68 1.33c-12 2.67-19.34 8.67-22 19.34-2 9.34 6.66 15.34 26 19.34 28 5.33 46.68 11.33 56.02 17.34l6-26.68z"/><path d="M300.74 229.03c-4-4.67-10-8-16-8s-12.68 1.33-20.68 5.33c-4.67 3.33-9.34 6-13.34 9.33-7.33-.7-14.67 0-22 3.3-9.34 4-15.35 10.68-18 20-.68 4-.68 8 2 10.68 1.32 4 6 6.66 12 8.67l21.34 4.66c22.67 4.68 39.34 9.35 48 16l2.68.68 2.67-2 6.7-30c2.66-18.67.66-31.34-5.34-38.67zm-4.67 4.66c2.67 4 4 10 4 18.65 0 10.66-1.33 23.34-6 38.67-8.67-5.33-24.67-10-47.35-14.67-16.67-3.33-26.68-6.67-28.68-10-.67-.67-1.33-2-1.33-3.34l.7-2.66c2.66-9.33 8.67-14.66 19.34-16.67l15.33-1.34 2.67-.66 9.34-7.34c8-5.34 14.67-6.67 20-6.67 4.67 0 8.68 2 12 6z"/><path d="M298.07 296.38c0-8.67-2-18.67-5.33-28-8-19.35-21.34-29.35-40-30.7-1.35 0-2.02 0-2.7 1.35 0 .66 0 1.33.68 2l16 16.67c12 14.67 20.68 27.35 27.35 40 .67.68 2 .68 2.67.68l1.33-2zm-4.67-8.67c-9.34-15.3-20.67-30-34.68-44.65 20 4.67 31.35 20 34.68 44.68z"/><path fill="#9260C7" d="M198.04 252.37l-20 10c-6-2-12.68-3.34-20-2.67-14.02.66-20.7 7.33-22.02 20-.67 11.34 6 22.68 20.67 32.7 20.64 13.32 32.65 23.33 36 28.66 7.32-6.67 14-14.67 20.66-24 12.67-19.35 16.67-35.35 12.67-49.36-4.67-14.67-13.34-20-28-15.33z"/><path d="M142.02 304.38c3.33 4 10.67 9.33 21.34 16 13.34 8 22.68 15.35 26.68 22l2.67 2 2-1.32c8.7-7.33 15.36-15.34 22-25.34 13.37-19.34 16.7-36.68 12.7-51.35-3.33-9.34-8.7-15.34-16-17.34-10-3.33-22 0-36.02 10-14-4.66-26-4-34 2-6 3.34-9.34 10-10.67 18 0 9.35 2.66 18 9.33 25.35zm38-38.68l10.68-6.66c8.68-4.67 15.34-6 20.68-4 5.33 1.33 8.67 6 11.34 13.33l1.32 10.67c0 16.67-10.66 36.02-30.67 56.7-4.67-5.35-13.34-12.02-26.67-20.68l-18.68-14c-5.33-6-8.66-12.02-8.66-18.68v-2.67c.66-6 3.33-10.64 7.33-13.3 4-3.35 10.64-4 19.3-3.35l10.68 2.67H180z"/><path d="M179.37 261.03h-2.67c-.66 0-.66 1.34-.66 2l5.33 22.68 9.33 55.38 2 1.34 2-1.33a116.9 116.9 0 0 0 5.34-34c0-23.37-6.67-38.7-20.67-46.04zm2 6.67c9.33 8 14.67 20.68 14.67 38.02 0 8-1.33 15.33-2.67 24-3.33-19.34-6.67-40.68-12-62.02z"/><path fill="#858585" d="M252.06 467.1c-4.67 46.68-4.67 89.36 1.33 128.7h25.3c-10-82.02-2.65-160.7 21.35-234.73 12.68-37.35 25.35-66.02 39.35-86.7-49.34 36-78.7 100.03-87.36 192.73z"/><path d="M340.75 272.37h-3.33c-48.7 35.35-78.03 100.04-87.36 192.73-4.67 46.7-4.67 90.7.66 130.7 0 2 .67 2.68 2.67 2.68h26.65l.66-2.67c-9.32-80.66-2-158.7 22-232.05 11.36-37.34 24.03-66.7 38.7-88.02 1.33-1.33 1.33-2-.67-3.33zm-88.7 253.42c0-46.7 4.67-88.06 14.68-125.4 12.67-50 33.34-88.7 62.7-114.7a406.08 406.08 0 0 0-35.36 86.02C279.4 421.75 271.4 473.75 271.4 527.1c0 21.35 1.33 43.35 4 66.7l-19.34-.67c-2.67-18-4-40.68-4-67.35z"/><path fill="#858585" d="M163.36 592.48h28.68c-6-35.35-18-71.36-36.68-108.04C117.34 410.4 65.33 370.4-.7 363.07l21.35 11.33a293.74 293.74 0 0 1 48.68 39.35c50.02 47.35 81.36 107.37 94.03 178.73z"/><path d="M19.98 377.74a264.12 264.12 0 0 1 48.68 38.68c48.7 48 80.03 106.7 92.7 177.38l2.67 1.35h28l1.34-.67.67-2c-5.34-36.68-18-74.02-37.35-110.7C118 407.75 66 367.73-.7 360.4l-2 2c-.66 1.33 0 2 1.34 3.34l21.34 12zm74.7 59.35c-23.35-28.7-49.36-51.38-78.7-68.05 54.68 11.33 100.04 48.68 133.38 111.36 19.34 34.7 32 71.38 39.34 110.05h-22.67C154.7 531.8 130.68 480.43 94.67 437.1z"/><path fill="none" stroke="#000" stroke-width="3" stroke-miterlimit="100" d="M370.6 585.26H3.9V2.74h366.7v582.52z"/><path stroke-miterlimit="100" d="M367 582H5V5h362v577z" fill="none" stroke="#000" stroke-width="10"/></svg>