<svg xmlns="http://www.w3.org/2000/svg" width="372" height="587" viewBox="0 0 372 587"><path fill="#fff" d="M0 0h372v587H0z"/><path fill="#333" d="M239.53 60.2c0-3.28-1.32-5.26-4.6-5.26s-5.28 1.98-5.28 5.27l1.97 3.3c.66 1.35 1.98 1.35 3.3 1.35l3.3-1.32 1.3-3.3zm-21.75-15.14c0-3.3-1.97-5.28-4.6-5.28-3.3 0-4.62 1.98-4.62 5.28 0 3.3 1.32 4.6 4.6 4.6 2.65 0 4.62-1.3 4.62-4.6zm0 38.22a4.5 4.5 0 0 0-4.6-4.62c-3.3 0-4.62 2-4.62 4.62 0 3.3 1.32 5.27 4.6 5.27 2.65 0 4.62-1.98 4.62-5.27zm-40.2-53.38c0-3.3-1.97-4.6-5.27-4.6s-4.6 1.3-4.6 4.6 1.34 5.27 4.6 5.27 5.3-1.98 5.3-5.28zm-59.3 1.98l-1.33-3.3-3.3-1.98c-3.3 0-4.6 1.98-4.6 5.27s1.3 4.6 4.6 4.6 4.62-1.3 4.62-4.6zm27.67 7.24c0-2.64-1.32-3.95-4.6-3.95-3.3 0-4.63 1.3-4.63 3.95 0 3.3 1.32 5.28 4.62 5.28l3.3-1.33 1.3-3.95zm-46.8-3.95c0-3.3-1.97-4.6-5.26-4.6-2.67 0-4.65 1.3-4.65 4.6s1.98 4.6 4.62 4.6l3.94-1.3 1.33-3.3zm-60.62-2.64c0-3.3-1.98-4.6-5.27-4.6-2.64 0-3.96 1.3-3.96 4.6s1.32 4.62 3.96 4.62l3.95-1.32 1.35-3.3zM45.78 49c0-3.3-1.98-4.6-5.27-4.6-2.6 0-4.6 1.3-4.6 4.6s2 4.62 4.6 4.62l3.98-1.32L45.8 49zm-7.25 30.32c0-2.63-1.98-4.6-5.27-4.6-2.64 0-3.96 1.97-3.96 4.6 0 3.3 1.32 5.28 3.96 5.28l3.95-1.32 1.35-3.96zm253.73-30.97c0-3.3-1.32-5.28-4.62-5.28-1.32 0-2.63.67-3.3 2l-1.3 3.28c0 3.3 1.3 4.6 4.6 4.6s4.62-1.3 4.62-4.6zm-30.32-11.87c0-3.3-1.32-4.6-4.6-4.6-1.33 0-2.65 0-3.3 1.3l-2 3.3 2 3.3a3.62 3.62 0 0 0 3.3 1.98c3.28 0 4.6-1.98 4.6-5.28zm0 20.44c0-3.3-1.32-4.62-4.6-4.62a5 5 0 0 0-3.3 1.32l-2 3.3 2 3.95a5 5 0 0 0 3.3 1.32c3.28 0 4.6-2 4.6-5.3zM343 63.5c0-3.3-1.98-5.26-5.27-5.26-3.3 0-4.62 1.97-4.62 5.27s1.35 4.64 4.65 4.64 5.27-1.32 5.27-4.6zm-6.6-29.65c0-3.3-1.97-5.27-4.6-5.27-1.32 0-1.98.66-3.3 1.98l-1.32 3.3 1.32 3.3c1.32 1.3 1.98 1.3 3.3 1.3 2.63 0 4.6-1.3 4.6-4.6zm-14.5 17.8c0-2.64-1.3-4.62-4.6-4.62s-5.27 1.98-5.27 4.62L314 55.6c.66 1.32 1.98 1.32 3.3 1.32l3.3-1.32 1.3-3.95zm-23.7-19.77l-.67-3.3c-1.32-.66-2.64-1.32-3.96-1.32a5.1 5.1 0 0 0-3.3 1.32l-1.97 3.3 1.98 3.95a5.06 5.06 0 0 0 3.3 1.32c1.3 0 2.63-.67 3.95-1.32l.66-3.95zm-13.2 69.2c0-3.3-1.3-4.6-3.95-4.6-1.32 0-2.63 0-3.3 1.3a3.62 3.62 0 0 0-1.97 3.3l1.98 3.3a3.63 3.63 0 0 0 3.3 1.96c2.63 0 3.95-1.97 3.95-5.27zm-19.77-17.8l-.66-3.3c-1.3-1.32-2.63-1.97-3.95-1.97-2.64 0-4.6 2-4.6 5.3s1.97 4.6 4.6 4.6l3.96-1.3.65-3.3zm50.75-4.62c0-3.3-1.98-5.27-5.27-5.27-.63 0-1.95 1.3-3.3 1.95-.63 1.32-1.3 1.98-1.3 3.3 0 2.63 1.3 4.6 4.6 4.6s5.3-1.97 5.3-4.6zm-15.82-9.88l-1.3-3.3-3.97-1.3c-2.66 0-3.98 1.3-3.98 4.6s1.32 4.6 3.95 4.6c3.3 0 5.26-1.3 5.26-4.6zm-56 24.38c0-3.3-2-4.6-5.3-4.6s-4.6 1.3-4.6 4.6 1.3 4.62 4.6 4.62 5.3-1.32 5.3-4.62zM198 49c0-3.3-1.96-4.6-5.26-4.6s-4.6 1.3-4.6 4.6l1.3 3.3 3.3 1.32 3.96-1.32L198 49zm43.5-18.44c0-3.3-1.97-5.27-4.6-5.27-3.3-.04-5.28 1.94-5.28 5.24s1.98 4.6 5.27 4.6c2.6 0 4.6-1.3 4.6-4.6zm-170.02 0l-1.32-3.3c-.66-.66-2.63-1.32-3.95-1.32-2.6 0-3.93 1.32-3.93 4.62s1.32 5.27 3.96 5.27l3.96-1.32 1.3-3.92zm152.9 78.42l-1.98-3.3-3.3-1.3c-1.32 0-1.98 0-3.3 1.3l-1.3 3.3c0 2.63 1.3 4.62 4.6 4.62s5.27-1.98 5.27-4.62zm42.82 7.25c-3.28 0-5.26 1.32-5.26 4.6 0 3.3 1.98 5.28 5.27 5.28 2.67.04 4-1.94 4-5.24s-1.33-4.6-3.97-4.6zm-15.8 3.97l-.66-3.3-3.96-2c-2.63 0-4.6 2-4.6 5.3s1.97 4.6 4.6 4.6l3.96-.66.66-3.95zm32.3-53.4c0-3.3-2-4.6-5.28-4.6-2.64 0-3.96 1.3-3.96 4.6s1.32 4.62 3.96 4.62l3.95-1.32 1.32-3.3zm65.23 93.58l-1.3-3.3-3.97-1.3c-2.63 0-3.95 1.3-3.95 4.6s1.35 5.28 3.98 5.28c3.3 0 5.27-1.98 5.27-5.28zm0-34.93c0-3.3-1.98-4.6-5.27-4.6-.66 0-1.98 0-3.3 1.3a5.05 5.05 0 0 0-1.32 3.3c0 2.64 1.32 4.62 4.62 4.62s5.27-1.98 5.27-4.62zm0 395.42c0-2.63-1.98-4.6-5.27-4.6s-4.62 1.97-4.62 4.6l1.32 3.96c1.32.66 2.64 1.3 3.3 1.3 3.3.02 5.27-1.97 5.27-5.26zm-16.48 19.77c0-3.3-1.97-5.27-5.27-5.27-.66 0-1.97.66-3.3 1.97-.65.67-1.3 1.33-1.3 3.3l1.3 3.3a4.28 4.28 0 0 0 3.3 1.32c3.3 0 5.27-1.33 5.27-4.62zm13.18 13.18c0-2.64-1.97-4.6-5.27-4.6s-4.6 1.97-4.6 4.6l1.3 3.96a5 5 0 0 0 3.3 1.3l3.3-1.3 1.97-3.96zm-18.45 11.2c0-3.3-1.97-5.27-4.6-5.27-2 0-2.65.66-3.3 1.98a3.62 3.62 0 0 0-1.98 3.3c0 2.63 1.97 3.95 5.27 3.95 2.64 0 4.6-1.32 4.6-3.95zm19.77-69.85c0-3.3-1.3-4.62-4.6-4.62s-5.28 1.32-5.28 4.62 1.97 4.6 5.27 4.6l3.3-1.3 1.3-3.3zM43.15 507.7c0-3.3-1.98-4.62-5.28-4.62s-4.6 1.3-4.6 4.6 1.3 4.63 4.6 4.63l3.3-1.3 1.97-3.3zm23.05 24.38c0-3.3-1.97-5.28-5.26-5.28-2.64 0-4.62 1.98-4.62 5.28 0 2.63 1.98 3.95 4.62 3.95 3.3 0 5.27-1.32 5.27-3.95zm-20.42 10.54l-1.32-3.3-3.95-1.3c-2.6 0-4.6 1.3-4.6 4.6s2 5.27 4.6 5.27l3.98-1.35 1.32-3.95zm36.9 15.82c0-3.3-1.3-4.62-3.95-4.62-3.3 0-5.27 1.32-5.27 4.62s1.97 5.26 5.27 5.26c2.64 0 3.95-1.97 3.95-5.26zm-42.83 3.3l-1.32-3.3-3.95-1.33c-1.32 0-1.98.7-2.64 1.36-1.32 1.3-1.98 1.97-1.98 3.3l1.98 3.95 2.64 1.3 3.95-1.3 1.32-3.96zm21.1-2.64c0-3.3-1.33-4.62-4.63-4.62-.66 0-1.97.66-3.3 1.32-.65 1.3-1.3 2.64-1.3 3.3l1.3 3.95c1.33.65 2.64 1.32 3.3 1.32 3.3 0 4.62-1.98 4.62-5.27zM35.9 528.12c0-2.63-1.98-4.6-5.28-4.6s-4.6 1.97-4.6 4.6l1.3 3.96c1.33.65 1.98.65 3.3.65l3.96-.65 1.3-3.96zm32.94-22.4c0-3.3-1.97-4.62-5.27-4.62-2.63 0-4.6 1.32-4.6 4.62s1.97 5.26 4.6 5.26l3.96-1.97 1.3-3.26zM52.37 279.67l-1.32-3.3-3.3-1.3c-3.3 0-4.6 1.3-4.6 4.6s1.3 4.6 4.6 4.6 4.62-1.3 4.62-4.6zm-12.52-20.43c0-2.64-1.98-4.62-5.27-4.62s-4.62 1.98-4.62 4.62l1.32 3.95c1.32 1.3 1.98 1.3 3.3 1.3l3.3-1.3 1.97-3.98zm3.3 47.44c0-3.3-1.98-5.26-5.28-5.26s-4.6 1.97-4.6 5.26c0 3.3 1.3 4.63 4.6 4.63s5.27-1.3 5.27-4.6zm-8.57-19.1c0-3.3-1.32-5.27-4.62-5.27s-4.6 2-4.6 5.3l1.3 3.3c1.32.65 2.64 1.3 3.3 1.3 3.3 0 4.62-1.3 4.62-4.6zm3.3 58c0-3.3-2-5.28-4.6-5.28-3.3 0-5.3 1.97-5.3 5.27 0 2.64 1.97 4.6 5.27 4.6a4.5 4.5 0 0 0 4.6-4.6zm24.37-21.1c0-3.3-1.97-4.62-5.27-4.62-2.63 0-4.6 1.33-4.6 4.62s1.97 5.27 4.6 5.27c3.3 0 5.27-1.97 5.27-5.27zm-27.67-91.6l-1.32-3.3-3.96-1.32c-2.63 0-4.6 1.32-4.6 4.62s1.97 4.6 4.6 4.6c3.3 0 5.28-1.3 5.28-4.6zm19.12 9.88l-1.33-3.3-3.3-1.97c-3.3 0-4.6 1.95-4.6 5.24 0 2.64 1.3 3.96 4.6 3.96s4.62-1.3 4.62-3.95zm14.5 59.32c0-3.3-2-4.62-4.63-4.62-1.32 0-2.63 0-3.3 1.32l-1.3 3.3 1.3 3.3a3.63 3.63 0 0 0 3.3 1.97c2.64 0 4.62-1.98 4.62-5.27zM36.55 205.2c0-3.3-1.97-5.27-4.6-5.27-2 0-2.65.65-3.3 1.97-1.32 1.32-1.98 1.98-1.98 3.3 0 3.3 1.98 4.6 5.27 4.6 2.64 0 4.6-1.3 4.6-4.6zM205.92 25.3l-.66-3.3c-1.32-.68-2.63-1.34-3.95-1.34-2.6 0-4.6 1.32-4.6 4.62s2 5.26 4.6 5.26l3.98-1.32.66-3.95zM321.9 190.03l-1.3-3.3a7 7 0 0 0-3.3-1.3c-1.32 0-2.64.65-3.3 1.3-1.32 1.32-1.97 1.98-1.97 3.3L314 194c.66 1.3 1.98 1.3 3.3 1.3l3.3-1.3 1.3-3.96zm14.5-50.08c0-2.64-1.97-4.62-5.26-4.62s-4.62 1.98-4.62 4.62c0 3.3 1.32 4.6 4.62 4.6l3.3-.65 1.97-3.93zm13.2 58.64c0-3.3-2-5.27-5.28-5.27-2.64 0-3.96 1.97-3.96 5.27 0 2.65 1.32 4.63 3.96 4.63 3.3 0 5.27-1.98 5.27-4.6zm-16.5 20.43l-1.3-3.3c-1.32-.66-1.98-1.98-3.96-1.98-2.63 0-3.95 2-3.95 5.28 0 2.63 1.3 4.6 3.92 4.6 3.3 0 5.27-1.97 5.27-4.6zm15.83 15.8c0-3.3-1.98-5.26-5.27-5.26-.66 0-1.98.66-3.3 1.98-.66.66-1.32 1.32-1.32 3.3l1.32 3.3a4.26 4.26 0 0 0 3.3 1.3c3.3 0 5.27-1.3 5.27-4.6zm-11.86-52.7c0-2.64-1.32-4.6-4.62-4.6a4.5 4.5 0 0 0-4.6 4.6c0 3.3 1.97 5.26 4.6 5.26l3.96-1.3.7-3.98z"/><path fill="#858585" d="M122.22 588.1l33.62.65c-17.8-59.97-47.46-110.06-89.63-148.28-13.15-11.87-26.33-22.4-40.2-30.97l-17.1-9.23C39.2 422 66.2 459.6 92.58 512.97c13.17 27.67 23.06 52.06 29.65 75.13z"/><path d="M10.2 398.3c-1.33-.67-2.65-.67-3.3 1.3-.67.67-.67 2.64 0 3.3 29.65 20.44 57.33 58 83.03 111.38a703.53 703.53 0 0 1 30.32 73.82c0 1.97 1.3 1.97 1.97 1.97l33.62 1.32 1.97-1.35.7-1.97C140.02 527.44 110.37 478 68.2 439.13a252.74 252.74 0 0 0-40.87-31.63l-17.13-9.2zm21.08 17.8c21.75 15.14 42.84 33.6 61.3 56.67 26.35 32.3 46.12 69.85 59.3 113.35l-27.67-1.32c-5.9-20.43-15.13-42.83-27-68.54-20.43-43.5-42.83-76.44-65.9-100.17z"/><path fill="#858585" d="M89.27 360.07l-25.7 9.88c27.68 32.3 50.1 77.77 66.56 137.74 8.57 30.3 14.5 57.3 17.14 81.03h34.27c-7.9-56.67-25.7-112.03-52.73-166.08-9.2-16.47-18.42-32.28-27.64-46.13L89.3 360.05z"/><path d="M91.25 358.1c-.66-.66-1.98-1.32-2.64-.66l-25.7 10.54-1.94 1.98.66 2.63c27 30.3 48.77 75.76 65.9 135.1 7.9 30.3 14.5 57.3 17.14 81.03 0 1.98 1.32 2.64 2.64 2.64h34.27l1.32-1.33 1.3-1.97c-7.9-56.02-25.04-111.38-52.7-165.42a982.93 982.93 0 0 0-27.7-46.8l-12.5-17.8zm-2.64 5.26a467.17 467.17 0 0 1 41.56 69.2c25.04 50.1 40.85 101.5 48.1 153.55h-29c-3.95-29-10.54-57.96-19.1-87.6-16.48-54.7-36.9-96.9-62.6-127.2l21.07-7.9z"/><path fill="#858585" d="M52.37 426.63c9.88-29.65 21.75-52.06 36.9-66.56-6.6-3.3-13.18-3.3-19.77-1.98l-16.47-2.66-10.55 30.3c-6.6 26.37-5.93 53.4 0 82.4 1.98-12.53 5.28-25.7 9.9-41.53z"/><path d="M91.9 359.4l-1.3-1.96c-7.26-2.64-13.85-3.96-21.1-1.98l-16.47-2.64-1.98 1.32-11.2 32.3c-6.6 25.7-6.6 52.7 0 82.37l3.3 1.35 1.97-1.98c1.98-12.52 5.27-25.7 9.9-40.86 9.2-29 21.73-50.74 36.23-65.24l.66-2.64zm-21.74 1.33l14.5.66c-18.46 19.74-32.96 50.7-41.52 90.9a148.17 148.17 0 0 1-2.63-27.02c0-26.35 5.3-48.76 14.5-67.2l13.86 2.63h1.32z"/><path fill="#858585" d="M372 402.24c-13.84 6.6-28.34 18.46-44.16 37.57-30.97 38.25-50.08 87.68-57.33 149.6h30.34c.66-21.05 5.27-44.8 11.86-70.5 13.17-52.7 32.94-91.6 59.3-116.64z"/><path d="M267.87 588.75v2.64l2.64.63h30.34c1.32 0 2.64-.66 2.64-1.98 1.32-21.74 5.27-45.47 11.86-71.17 5.93-22.4 13.18-42.2 21.75-60-11.87 16.5-20.44 36.26-26.37 58.66a405.43 405.43 0 0 0-12.5 69.2h-25.06c5.27-44.8 17.8-84.35 37.57-116.64 13.2-22.4 28.34-40.87 46.14-54.7-7.25 8.56-12.52 20.43-15.16 32.94 9.9-17.8 20.44-32.3 32.3-44.8l.66-3.3c-1.32-.66-1.98-.66-3.3-.66-14.5 6.6-30.3 19.78-45.47 39.55-31.63 37.57-50.74 88.3-58 149.6z"/><path fill="#858585" d="M271.82 589.4c.66-29 5.94-63.25 15.16-100.82 18.45-75.8 50.1-135.76 94.24-180.57-19.77 9.25-40.86 28.36-62.6 56.05-43.5 56.02-70.52 131.8-79.75 228.02l32.95-2.64z"/><path d="M383.2 307.35c-1.32-1.98-1.98-1.98-3.3-1.32-20.43 9.23-41.5 28.34-63.26 57.34-44.16 56.68-71.18 133.12-80.4 228.02l1.3 2.6 1.33.67 32.95-2.65c1.98 0 2.64-.66 2.64-2.64.66-29.66 5.93-63.26 15.8-100.83 17.8-75.8 49.44-135.1 92.94-177.94v-3.3zM269.85 586.77l-28.34 1.98c8.6-74.47 27.05-138.4 56.7-189.14 19.78-33.6 42.18-59.95 67.2-78.4-36.22 42.18-62.6 96.2-79.7 162.1-9.24 36.27-14.5 70.54-15.83 103.5z"/><path fill="#858585" d="M272.48 215.08c19.77-52.06 41.52-88.97 65.25-112.03-67.9 44.8-110.06 139.7-125.88 284.7-7.25 71.84-7.9 139.7-2.63 202.98l35.58 1.32c-21.1-146.97-12.52-273.5 27.68-376.97z"/><path d="M340.36 101.07h-3.3c-68.53 44.8-110.7 140.37-126.53 284.04a1030.2 1030.2 0 0 0-3.95 205.65c.66 1.32 1.32 2.63 2.64 2.63l35.58 1.32 1.98-.67.66-1.97c-21.1-145.65-11.86-270.2 27.02-373.67 19.77-52.08 41.52-90.3 65.9-113.38v-3.95zM211.86 588.1a979.34 979.34 0 0 1-3.3-79.75c0-75.8 6.6-143.67 19.77-203.64 19.1-85 49.43-146.93 92.26-184.5-22.4 30.3-40.9 66.57-56.04 109.4-22.4 64.6-32.95 138.4-32.95 220.1 0 45.5 3.3 92.28 9.9 139.7l-29.66-1.3z"/><path fill="#858585" d="M7.55 118.2c25.7 25.7 51.4 64.6 78.43 116.65 53.38 104.8 85 222.1 93.58 354.56l35.6 1.35c-7.26-63.27-21.76-131.15-42.85-201.67-41.5-143-96.2-233.3-164.73-270.86z"/><path d="M8.87 116.23h-3.3c-.65 1.32-.65 3.3 0 3.96 25.7 27 52.07 65.9 78.43 117.93 54.04 104.12 85.02 221.44 92.93 351.92l2.63 1.98 35.6 1.3 1.96-1.3.66-1.98c-7.9-64.58-22.4-133.12-43.5-204.3C132.12 243.42 77.42 153.8 8.9 116.23zm99.52 160.14C82.65 218.37 53 168.95 20.7 129.4c59.97 41.54 108.74 126.56 147.62 253.75 20.43 68.53 34.93 136.4 43.5 204.96l-29.66-1.3c-7.26-113.36-32.3-216.83-73.8-310.4z"/><path fill="#FFF" d="M229.65 590.73c5.93-12.52 13.18-30.98 21.08-55.35 15.16-48.12 27.02-102.15 36.25-161.47l-15.16-.63-11.86 72.5c-11.86 56.67-26.36 104.77-44.8 144.98h14.5z"/><path d="M269.85 373.25l-12.52 73.16c-11.86 56.04-26.36 104.14-44.82 143v2.67l2.67 1.3h14.5l1.98-1.96c6.6-12.52 13.18-31 21.74-56.02 15.15-48.77 27.67-102.15 36.24-160.8l-1.32-1.98c0-.68-.65-1.34-1.3-1.34l-15.16-.65c-1.32-.65-1.98 0-1.98 2.65zm-19.12 152.9a672.6 672.6 0 0 1-22.4 61.95h-9.9c26.37-57.35 44.83-127.86 56.03-212.22l9.23.66c-8.6 54.05-19.15 103.47-33 149.6z"/><path fill="#FFE000" d="M264.57 287.58l5.28 32.28c2.63 23.73 3.95 41.53 1.97 53.4 5.94 3.95 10.55 4.6 15.16.65v-34.24c-1.32-26.36-3.3-46.14-7.9-59.97l-14.5 7.9z"/><path d="M280.4 277.7h-2.64l-14.5 7.24c-1.32.66-1.98.66-1.98 2.64l5.93 32.28c2.67 23.73 4 41.53 2.67 53.4l.66 1.97c6.6 4.6 13.2 5.27 17.8 1.3l1.32-2.62c1.32-41.5-1.32-73.12-7.9-94.9l-1.33-1.3zm-5.94 93.57l.66-10.54c0-20.43-2.64-44.82-7.9-71.83l10.54-5.28c3.95 17.14 6.6 41.52 6.6 73.82v15.15l-9.9-1.35z"/><path fill="#FFF" d="M288.3 271.1l.66-51.4-6.6 2.64c-4.6 2.63-7.24 5.92-8.56 9.88-1.98 5.93-1.3 17.8 1.98 35.6l12.52 3.28z"/><path d="M290.94 217.06h-2.64c-1.32 0-3.95 1.32-7.25 3.3-5.27 2.63-7.9 6.58-9.88 11.2-1.32 3.96-1.32 11.2 0 21.1l2.63 15.8c0 1.32.66 1.98 1.32 1.98l12.52 3.3 2.64-.66.66-1.98.66-51.4-.66-2.64zm-14.5 15.82c.66-3.3 4.6-6.6 9.88-9.9v44.83l-8.56-1.95-2.64-25.7 1.32-7.25z"/><path fill="#9260C7" d="M282.37 219.7l5.27 44.15c5.93-13.84 8.57-26.36 7.9-37.56-.65-7.28-1.97-13.87-4.6-19.8-3.3-4.6-6.6-6.6-8.57-5.94-1.32 1.32-1.32 7.25 0 19.12z"/><path d="M287.64 199.27l-6.6-.66c-1.97.7-3.28 3.3-3.28 6.6s.66 9.9 2.63 18.47l4.6 40.86 2.62 2c.66 0 1.98-.67 2.64-2a94.6 94.6 0 0 0 7.9-38.2c-.65-6.6-1.3-12.54-3.95-17.8-1.3-4.62-3.95-7.92-6.6-9.23zm-3.95 3.95l.63.66 5.93 7.9c1.32 4.62 2.63 9.23 2.63 14.5v1.98l-3.3 23.07-3.94-28.34c-1.32-7.94-1.98-13.86-1.98-17.8v-2z"/><path fill="#9260C7" d="M225.03 271.1l3.96-2.63-2-17.14c-1.3-11.86 0-21.75 3.94-28.34l9.23-16.5c1.3-3.3-.67-5.94-5.28-7.9-3.97-2-9.24 1.3-13.2 9.87a60.9 60.9 0 0 0-6.6 27.67c-.64 10.55 2.65 23.07 9.9 34.93z"/><path d="M236.9 196.63h-8.57c-4.6 2.64-7.9 8.57-11.2 16.48-3.3 7.9-5.27 15.18-5.27 23.1 0 11.2 3.3 23.06 10.54 36.24l1.98 1.98 1.98-.66 4.6-2.63.67-3.3c-4.62-18.43-3.96-32.93 1.97-43.5l3.96-7.23 4.6-8.57c1.33-1.98 1.33-4.62.67-5.93-.66-2.64-2.64-4.63-5.94-5.94zm1.3 7.25v.65l-5.26 9.9-4.6 7.24c-3.3 5.27-4.62 13.18-4.62 23.07 0 8.56 1.3 16.47 2.63 23.06h-.66c-5.3-11.86-7.9-21.74-7.9-31.63 0-6.6.62-13.83 3.92-21.1 3.3-7.9 5.93-11.85 9.23-13.83l3.3-.66c1.97 1.32 3.28 2.64 3.94 3.3z"/><path fill="#9260C7" d="M312.68 248.03c-9.88 1.32-15.8 5.28-19.1 13.18l-13.85-3.26c-9.88 0-18.45 4.6-23.06 13.18-4.6 7.9 4.6 16.5 25.04 26.37 25.07 10.54 38.9 19.76 42.2 27l11.87-21.1c5.94-17.13 6.6-30.3 1.32-40.2-5.94-11.2-13.85-16.47-24.4-15.15z"/><path d="M292.26 256.6l-19.78-.66c-7.9 1.32-14.5 6.6-18.45 13.84-1.98 3.95-2.64 7.25-1.32 9.9 1.35 4.6 5.3 8.56 11.24 11.85 3.95 2.64 10.54 5.93 20.43 9.9l22.4 11.2c7.25 4.6 12.52 8.56 13.84 13.17l3.3 1.98 2.64-1.32a129.9 129.9 0 0 0 12.52-23.07c6.6-17.16 6.6-31 1.32-42.2-6.6-11.87-15.82-17.14-27.02-16.48-9.9.66-16.48 4.6-21.1 11.86zm21.08-5.27c9.23-.66 15.82 3.96 20.44 13.18 2.63 4.65 3.3 9.25 3.3 14.5 0 10.57-3.96 23.75-13.2 39.57-3.3-3.95-8.56-7.9-15.8-12.52-3.96-1.98-11.2-5.93-20.44-10.54-17.8-7.25-27.02-13.2-29-17.8v-1.32l1.32-3.3c3.96-7.24 10.55-11.85 19.77-11.85 4.62 0 8.57 1.32 12.53 2.63h2.63l1.95-1.3c.66-3.3 3.3-5.95 6.6-7.92a17.66 17.66 0 0 1 9.87-3.3z"/><path d="M294.23 259.24c-.66 0-1.32 0-1.98.65l-.66 1.96 12.5 20.42a596.9 596.9 0 0 1 18.45 42.83l1.3 1.3 2-1.95a72.9 72.9 0 0 0-2-29c-3.94-19.77-13.82-31.63-29.64-36.24zm28.34 54.7a300.14 300.14 0 0 0-24.4-48.1c15.17 6.58 23.08 23.06 24.4 48.1z"/><path fill="#9260C7" d="M233.6 268.47a56.24 56.24 0 0 0-16.48-8.58c-12.52-3.3-21.74 0-26.36 10.52-5.27 10.55 1.98 24.4 21.75 42.18 9.26 8.58 19.8 16.48 31 23.73l22.4-32.3c8.58-12.5 11.88-23.05 8.58-32.94-3.3-9.9-10.54-13.2-23.06-9.9l-17.8 7.25z"/><path d="M275.12 294.17a33.74 33.74 0 0 0 2.64-23.73c-2.64-6.6-5.93-11.2-11.2-12.52-8.57-3.3-19.12-1.32-32.96 6.6-11.86-7.92-21.75-10.56-30.97-8.58-6.6 1.98-11.2 5.94-14.5 13.18-5.93 11.86.66 25.7 19.1 43.5a224.9 224.9 0 0 0 34.28 26.36l2.67.65 2.63-1.97c1.97-5.93 7.24-13.18 14.5-22.4l13.83-21.1zm-3.95-21.75l.65 7.25c0 4.6-1.3 9.88-4.6 15.82L256 311.3c-5.94 7.9-11.2 14.5-13.85 19.78-11.2-7.26-21.75-15.17-30.98-23.73-12.53-12.52-18.46-21.75-18.46-29.66l1.34-5.96c2.64-5.28 5.93-8.57 10.54-9.23 4.62-1.3 10.55 0 17.8 3.3 3.3 1.98 6.6 3.3 9.22 5.28h3.95c3.3-2 7.9-4.63 12.52-5.94l16.48-1.33c3.3 1.34 5.27 3.98 6.6 8.6z"/><path d="M234.26 266.5l-2.64.64-3.95 16.48c-1.32 14.5 3.95 32.3 13.84 53.38 0 .67 1.35 1.32 2.66.67l.66-1.33c1.33-26.36-1.96-49.43-9.2-68.53l-1.33-1.3zm-2.64 20.4c0-5.25 0-9.2 1.98-13.17 4.6 15.17 7.25 32.95 7.9 52.72-6.58-15.8-9.88-29-9.88-39.54z"/><path fill="#F00" d="M58.96 67.47c.66 42.17 5.93 91.6 13.84 147.6 17.13 110.73 44.15 197.72 81.06 261.65l130.5-3.95c-44.17-70.53-75.8-158.83-94.9-266.25-9.9-53.38-14.5-100.18-15.17-139.06H58.93z"/><path d="M177.58 67.47c0-2.64-1.3-3.3-3.3-3.3H58.98l-2.65.66-.66 2.64c.66 43.5 5.94 93.57 14.5 148.93 17.14 111.38 43.5 199.02 81.06 262.3.66.66 1.32 1.3 2.64 1.3l130.5-3.94 3.28-1.32-.66-3.3c-43.5-69.2-75.15-157.5-94.26-263.6-9.22-53.4-13.84-100.18-15.16-140.38zm-115.33 3.3H171c1.3 46.78 7.9 96.86 17.8 150.9 19.1 98.86 49.4 181.9 89.62 248.46l-122.58 3.3c-34.27-59.98-59.98-140.38-76.45-243.2A1233.66 1233.66 0 0 1 62.22 70.77z"/><path fill="none" stroke="#000" stroke-width="3" stroke-miterlimit="100" d="M370.6 585.26H3.9V2.74h366.7v582.52z"/><path stroke-miterlimit="100" d="M367 582H5V5h362v577z" fill="none" stroke="#000" stroke-width="10"/></svg>