<svg xmlns="http://www.w3.org/2000/svg" height="100%" viewBox="0 0 372 587"><path fill="#fffaf0" d="M0 0h372v587H0z"/><path fill="#858585" d="M28.3 275.3l11.5 12.86c10.13 10.8 18.25 23 25.7 36.5 25 41.95 37.2 87.94 37.2 138.66l30.43-22.3c0-18.28-4.06-39.25-12.86-62.24-17.58-46.66-48-81.16-91.97-103.48z"/><path d="M29.64 273.27l-2.7.68c-1.35 1.35-.68 2.7 0 3.38l11.5 13.53c9.47 10.14 17.58 23 25.02 35.84 12.18 20.96 21.64 41.94 27.05 63.58 0-14.2-3.37-28.4-8.78-41.25-10.82-23.68-23.67-43.97-39.22-62.23 34.5 21.65 59.5 52.08 75.07 91.98 7.44 20.97 12.18 41.26 12.18 60.87l-24.36 17.6c0-20.98-4.74-41.95-13.53-61.56 5.4 21.63 8.8 43.95 8.8 67.62l1.34 2.03 2.72-.67 29.75-20.97 1.36-2.7c0-18.94-4.74-40.58-13.53-64.25-16.9-47.34-48.02-81.83-92.66-103.48z"/><path fill="#858585" d="M157.47 314.53c-16.9-94-49.37-160.97-97.4-201.55 15.57 27.06 29.77 61.55 43.97 104.83 27.05 85.23 36.52 167.74 27.05 246.88l15.55 4.05c10.15-.67 17.6-8.8 20.97-25.02 2.03-38.55-1.36-81.83-10.15-129.17z"/><path d="M110.8 231.34c-11.5-38.55-25.02-73.72-41.25-105.5 38.55 38.54 66.28 96.7 81.83 174.48 9.47 44.64 13.53 89.96 13.53 135.95v6.76c-2.02 11.5-7.43 18.94-14.2 21.65l-16.22-1.36c2.03-18.93 2.7-37.2 2.7-55.46 0-18.93-2.7-38.54-8.8-58.16 4.75 39.23 4.75 77.1.7 114.98l.67 2.7 7.43 2.7h16.24c8.1-3.37 14.2-12.16 17.58-25.7v-.66c.67-40.58-3.38-83.87-11.5-131.22-16.9-94.68-50.04-161.64-98.07-202.22-1.35-.68-2.7-.68-3.38 0-1.35 1.35-1.35 2.7-.67 3.38 16.23 28.4 30.43 63.58 43.96 106.18 12.17 37.88 20.3 75.76 24.34 112.28.68-33.14-4.73-66.3-14.88-100.78z"/><path fill="#858585" d="M185.2 317.23c-4.06-94.7 2.7-175.17 20.3-241.45-12.18 18.94-23.68 48.02-33.83 88.6-18.93 80.5-20.96 174.5-4.05 282.04l29.76-6.77c-6.1-33.82-9.47-74.4-12.18-122.42z"/><path d="M203.46 74.43c-12.84 20.3-24.34 50.05-33.8 90.63C150.03 246.9 148 340.9 164.9 447.1l1.36 2.02 2.03.68 29.75-7.45c2.03 0 2.7-1.34 2.03-3.38-5.4-35.16-9.46-76.42-12.17-123.76-3.38-94 3.4-173.14 20.3-238.74.67-1.35 0-2.03-1.36-3.38-1.35-.68-2.02 0-3.38 1.35zm-29.75 94.7c6.77-29.1 14.88-54.12 25.03-75.1-10.82 49.4-16.9 106.88-16.9 169.77 0 58.85 4.05 116.33 12.84 173.82l-24.34 5.4c-7.45-46.65-10.83-91.3-10.83-135.26 0-50.04 4.74-96.7 14.2-138.64z"/><path fill="#858585" d="M245.4 375.4c-10.15 19.6-16.9 37.88-19.62 56.8l33.14-2.7c2.03-29.07 14.88-57.48 39.23-85.22 12.17-14.2 24.35-25.7 35.84-33.8-38.55 4.73-68.3 27.04-88.6 64.92z"/><path d="M336.03 311.83l.67-2.7c0-1.37-1.35-2.05-2.7-1.37-39.23 4.74-69.67 27.06-90.63 65.6-10.83 19.63-17.6 39.24-19.62 58.17l.68 2.04 1.35.67 33.14-2.03 2.7-2.7c.7-13.52 4.07-27.73 10.83-41.26-9.47 12.18-14.88 25.04-16.23 38.56l-27.06 2.02c4.74-20.3 11.5-39.9 21.65-56.8 17.6-30.44 41.94-50.05 72.38-57.5-14.88 13.53-27.73 27.06-38.56 41.94-6.76 10.15-10.8 20.3-12.17 31.78 6.77-14.2 15.56-28.4 27.05-41.92 12.18-14.2 24.35-25.03 36.53-34.5z"/><path fill="#858585" d="M309.65 216.46c25.7-30.43 49.37-52.08 73.04-65.6-72.38 25.02-126.5 77.77-161.65 160.97-18.26 41.25-29.1 80.48-33.14 117l36.53 13.52c7.44-89.27 35.85-164.34 85.22-225.9z"/><path d="M311.68 219.84c24.35-30.43 48.7-52.75 72.37-66.28 1.35-1.35 1.35-2.03.67-3.38-.67-1.35-2.03-2.03-3.38-1.35-71.7 23.67-125.8 77.78-162.32 160.3-18.26 41.92-29.08 81.15-33.14 119.02-.68 1.36 0 2.04 2.03 2.7l35.85 13.54h2.03l1.35-2.05c7.45-87.24 35.18-161.64 84.55-222.5zm48.7-56.8c-30.44 24.34-56.14 53.42-77.78 89.27-33.82 54.1-54.1 116.34-60.88 186l-30.43-12.18c4.73-37.2 15.54-75.07 33.13-114.3 31.1-71.7 77.1-121.06 135.94-148.8z"/><path fill="#FFF" d="M139.9 232l2.02 56.16c4.73 46.66 14.88 91.98 29.75 137.28h16.24c-5.4-14.87-10.8-33.13-16.9-56.12-10.82-45.32-16.9-89.96-18.26-131.9l-12.85-5.4z"/><path d="M137.86 230l-1.35 1.34 3.4 57.5c4.04 46.66 14.2 92.64 29.74 137.28.68.7 1.36 1.36 2.03 1.36h16.23l2.7-.68v-2.7c-5.4-14.88-10.8-33.82-16.22-56.14-11.5-45.3-17.58-89.28-19.62-131.2l-1.35-2.04-12.84-4.73h-2.7zm4.73 10.8v-4.73l7.44 2.7c.67 38.56 6.76 78.46 16.22 119.04 5.4 24.36 11.5 46 18.27 64.94h-10.15c-12.85-37.2-21.64-75.07-27.05-114.3-3.38-24.35-4.74-46.66-4.74-67.63z"/><path fill="#FFE000" d="M165.6 257.04L163.55 278c-3.38 16.92-8.8 33.15-16.23 48.03l2.7 16.23 16.23-26.38c10.83-21.64 18.27-43.3 21.65-62.9l-22.3 4.06z"/><path d="M168.3 317.23c11.5-22.3 18.93-43.28 22.32-63.57l-.68-2.03-2.03-1.35-23 4.06c-1.34.67-2.02 1.35-2.02 2.7l-2.03 20.3c-3.38 16.9-8.8 33.13-16.23 47.34v2.02l2.7 16.24 2.72 2.02 2.7-.68 15.55-27.05zm0-58.16l16.22-2.7c-4.73 25.7-16.23 51.4-33.14 79.13l-1.34-8.8c10.8-23 17.58-46 18.25-67.63z"/><path fill="#6FC7E6" d="M-1.47 438.97v154.88h376.72V438.98H-1.47z"/><path d="M375.25 596.56c1.36 0 2.03-.67 2.03-2.7v-154.9c0-2-.67-2.7-2.03-2.7H-1.47c-1.35 0-2.7.7-2.7 2.7v154.9c0 2.03 1.35 2.7 2.7 2.7h376.72zm-374-5.4V441.67h371.3v149.47H1.25z"/><path fill="#858585" d="M149.35 467.4L182.5 466c8.8-92.65 32.46-173.13 72.37-242.8 20.3-35.17 38.54-60.2 57.5-76.42-56.83 33.82-100.8 96.7-132.58 190.72-15.56 46.67-25.7 89.96-30.45 129.87z"/><path d="M313.7 148.83v-4.07c-.67-1.34-1.34-1.34-3.38-.67-56.13 33.8-100.1 97.4-132.56 190.72-15.55 47.34-26.38 91.3-31.1 131.88l.67 2.7 2.03.7 33.14-1.37 2.7-2.02c8.8-91.3 32.47-171.1 71.02-240.1 19.6-35.16 39.23-60.86 57.48-77.77zm-133.9 314.5l-27.06.67c4.73-41.26 14.88-83.87 31.1-129.18 27.07-79.13 63.58-136.62 108.9-171.8-23.67 28.4-43.96 62.9-62.22 102.14-26.38 59.5-43.3 125.8-50.73 198.16zM87.13 474.82c-6.76.68-12.17 2.03-18.25 4.06-10.83 4.05-16.9 9.47-18.27 17.58-.67 8.12 4.75 14.9 18.28 19.62l21.63 5.4 1.37-.67.68-2.02-3.38-41.93-.68-2.03h-1.37zm-18.94 8.8c4.73-2.7 10.82-3.4 16.9-4.74l3.4 37.87c-23-3.38-33.83-10.15-33.83-18.93v-.68c.68-5.4 5.4-10.15 13.52-13.53z"/><path d="M84.43 455.88c-.68-2.02-1.35-2.02-2.03-2.02l-25.7 9.46c-16.9 8.8-25.02 20.3-25.02 33.82 0 12.85 9.46 24.35 28.4 34.5 8.8 5.4 18.94 8.78 29.76 10.8.67.7 2.03 0 2.7-1.34 0-.68 0-2.03-2.03-2.7-8.78-1.36-18.25-4.74-27.72-9.47-18.26-8.8-27.72-19.62-27.05-31.8.67-12.84 8.12-22.98 23.67-30.43l23-8.8 2.03-2.02z"/><path d="M49.93 447.1c-.67-.68-1.34-.68-3.38-.68l-16.9 12.84c-11.5 10.83-17.6 24.35-16.92 39.23 0 14.87 8.12 28.4 25.03 41.25 8.12 6.1 16.9 10.82 25.7 14.2l2.7-.68c.68-1.34 0-2.7-1.35-2.7-8.1-3.4-16.22-8.1-23.66-13.53C24.9 524.87 16.8 512.02 16.8 498.5c-.68-14.2 4.73-25.7 15.55-36.53L48.6 449.8c1.33 0 2-.68 1.33-2.7z"/><path d="M24.23 436.95L8 451.82c-10.14 12.86-15.56 28.4-15.56 45.32.68 17.6 8.12 33.14 23 48.02C23.56 551.93 31 558 39.8 562.06c1.34.7 2.02.7 2.02-1.35 1.35-.66.68-2 0-2-8.1-4.07-15.56-9.48-23-16.24-14.2-14.2-21.64-29.1-22.3-45.32 0-16.23 4.72-30.44 14.87-42.6l14.86-14.2c1.36-.7 2.04-1.37.68-2.72 0-.67-1.35-1.35-2.7-.67zM177.76 529.6h71.7l18.26-4.73c11.5-3.38 17.58-9.47 18.26-16.9.67-4.75 0-8.13-3.38-11.5-5.4-7.45-17.6-12.18-35.18-13.54-1.35 0-2.02.68-2.7 2.04 0 1.34.68 2.02 2.03 2.02 17.58 2.02 28.4 6.08 33.14 11.5 2.02 2.7 2.7 5.4 2.7 8.1-1.36 6.77-6.77 11.5-16.9 14.9l-16.25 4.05h-71.7c-1.34 0-2 .67-2 2.03 0 1.35.66 2.02 2 2.02z"/><path d="M157.47 549.9h98.75c8.1-1.35 16.23-4.06 26.38-9.48 16.23-8.78 24.34-19.6 24.34-33.13.68-13.54-8.8-25.04-27.73-34.5l-30.42-11.5c-.68 0-2.03 0-2.7 2.02l.67 1.36 1.35.67 27.73 10.14c18.94 8.8 27.73 19.6 27.06 31.78 0 12.18-7.45 22.32-23.7 29.76-7.42 4.74-15.54 7.44-23.66 8.8h-98.07c-.67 0-1.35.67-1.35 2.02 0 1.36.68 2.03 1.35 2.03z"/><path d="M136.5 568.15h116.33c16.9-.68 30.44-4.73 40.58-10.82 6.1-2.02 12.2-6.76 18.28-12.17 11.5-11.5 16.9-25.03 16.9-39.9-.67-14.88-8.8-28.4-25.7-40.58l-25.7-14.88c-1.35 0-1.35 0-2.7 1.35 0 1.35 0 2.03 1.35 2.03l23.67 14.2c16.24 12.17 24.35 24.35 24.35 37.88.68 14.2-4.73 26.38-15.55 36.52l-16.23 12.17c-9.47 5.4-23 8.8-39.24 10.14H136.5c-.67 0-2.03.67-2.03 2.03 0 1.35 1.36 2.02 2.04 2.02z"/><path d="M258.25 583.7c-2.03 0-2.03.68-2.03 2.04l2.7 2.02c26.38-4.05 46-11.5 57.5-20.96 6.08-2.7 10.8-8.1 16.23-14.2 10.8-13.53 16.23-28.4 15.55-46-.68-16.9-8.12-33.13-23-47.34l-23.67-16.9c-2.03-.68-2.7 0-2.7.67-1.35 1.36-.68 2.7.67 2.7l22.32 15.57c14.88 14.2 21.65 29.08 22.32 45.3 0 16.9-4.73 30.44-14.2 43.3-5.4 6.08-10.15 10.8-15.56 14.2-2.7 2.03-7.44 4.74-14.2 8.12-11.5 5.4-25.7 8.78-41.93 11.5z"/><path fill="#FCCE00" d="M228.5 388.25h-45.33V501.2h45.32V388.25z"/><path d="M228.5 385.54h-45.33c-2.03 0-2.7.68-2.7 2.7V501.2c0 1.35.67 2.02 2.7 2.02h45.32c2 0 2.7-.67 2.7-2.02V388.25c0-2.02-.68-2.7-2.7-2.7zm-42.62 4.74h39.9v107.54h-39.9V390.28z"/><path fill="#DA8E55" d="M205.5 377.43c-6.1 0-10.83 1.35-15.56 2.7-4.74 2.03-6.77 4.73-6.77 8.12 0 2.7 2.03 4.74 6.77 6.76l15.55 3.4 16.22-3.4c4.06-2 6.77-4.05 6.77-6.75 0-3.4-2.72-6.1-6.78-8.1-4.05-1.37-9.47-2.72-16.23-2.72z"/><path d="M205.5 400.43c7.43 0 13.52-1.36 18.93-3.4 4.06-2.02 6.77-5.4 6.77-8.78 0-4.06-2.7-7.44-6.77-9.47-5.4-2.7-11.5-4.06-18.94-4.06-6.77 0-12.86 1.36-17.6 4.06-4.73 2.03-7.43 5.4-7.43 9.47 0 3.38 2.7 6.76 7.44 8.8 4.74 2.02 10.83 3.38 17.6 3.38zm0-20.3l14.87 2.7c4.06 2.03 5.4 3.4 5.4 5.42l-5.4 4.06-14.88 3.4c-5.42 0-10.16-1.36-14.2-3.4l-5.42-4.06c0-2.02 2.03-3.38 5.4-5.4 4.06-1.36 8.8-2.7 14.2-2.7z"/><path fill="#FFF000" d="M155.44 532.98l71.7-45.3L-5.53 332.1l-71.02 45.98 231.98 154.88z"/><path d="M154.1 535.02c.67 1.35 2.02 1.35 2.7 0l71.7-44.64.66-2.7-.67-2.7-232-154.9-2.7-.67-71.7 46c-.67 0-1.34 1.35-1.34 2.7l1.35 1.36 232 155.56zm67.62-47.34l-66.28 42.6L-71.8 378.1l66.28-42.6 227.24 152.18z"/><path d="M189.94 512.7l3.38-.68c1.35-2.03 1.35-2.7-.68-4.06L-39.34 352.4l-4.06.68c-.67 2.03 0 2.7 1.35 4.06l232 155.55z"/><path fill="#FCCE00" d="M73.6 575.6h45.32V462.64H73.6V575.6z"/><path d="M73.6 459.94c-2.02 0-3.38.68-3.38 2.7V575.6c0 2.02 1.36 2.7 3.38 2.7h45.32c1.35 0 2.03-.68 2.03-2.7V462.64c0-2.02-.68-2.7-2.03-2.7H73.6zm2.04 5.4h40.58V572.9H75.64V465.34z"/><path fill="#DA8E55" d="M112.16 470.1c4.06-2.04 6.76-4.08 6.76-7.46 0-2.7-2.7-5.4-6.76-7.44-4.74-2.02-9.47-2.7-16.23-2.7-6.77 0-11.5.68-15.56 2.7-4.73 2.04-6.77 4.74-6.77 7.44 0 3.38 2.04 5.42 6.77 7.45l15.56 3.37 16.23-3.38z"/><path d="M95.93 449.8c-6.77 0-13.53.68-18.26 3.38-4.74 2.7-7.45 6.08-7.45 9.46 0 4.06 2.7 7.45 7.45 9.47 4.73 2.05 11.5 4.07 18.26 4.07 6.76 0 13.53-2.02 18.25-4.06 4.74-2 6.77-5.4 6.77-9.46 0-3.38-2.03-6.76-6.77-9.46-4.72-2.7-11.5-3.38-18.25-3.38zm-14.2 7.44l14.2-2.7 14.87 2.7c3.4 2.02 5.42 3.38 5.42 5.4 0 1.36-2.04 3.38-5.42 4.74l-14.87 2.7-14.2-2.7c-4.06-1.36-6.1-3.38-6.1-4.74 0-2.02 2.04-3.38 6.1-5.4z"/><path fill="#FFF000" d="M261.63 393.66L-.8 569.5l71.02 45.32 262.43-175.85-71.02-45.3z"/><path d="M262.3 391.63c-.67-1.35-1.35-1.35-2.7 0L-2.14 567.48l-1.35 2.03 1.36 2.72 71.02 44.63h3.38L334 441l1.35-2.03-1.36-2.7-71.7-44.64zM3.94 569.5l257.7-173.13 66.27 42.6L70.23 611.44 3.94 569.5z"/><path d="M33.02 589.8c-1.34 1.35-1.34 2.7-.67 4.06l4.06.67 262.43-175.85c1.35-1.35 1.35-2.7.67-3.38-.67-2.02-2.7-2.7-4.05-1.35L33.02 589.8z"/><path fill="#FCCE00" d="M217.67 601.3h45.3V488.34h-45.3V601.3z"/><path d="M265.7 488.35c0-1.36-.7-2.7-2.72-2.7h-45.3c-2.05 0-2.72 1.34-2.72 2.7V601.3c0 1.35.67 2.7 2.7 2.7H263c2.03 0 2.7-1.35 2.7-2.7V488.34zm-5.42 2.7V598.6h-39.9V491.05h39.9z"/><path fill="#DA8E55" d="M256.2 495.1c4.75-1.34 6.78-4.04 6.78-6.75 0-3.38-2.03-5.42-6.77-7.44-4.04-2.02-10.13-3.37-16.2-3.37-6.1 0-11.5 1.35-15.57 3.38-4.73 2.03-6.76 4.07-6.76 7.45 0 2.7 2.03 5.4 6.76 6.76l15.56 3.4 16.2-3.4z"/><path d="M265.7 488.35c0-4.06-2.72-6.76-7.45-9.47-5.42-2.03-10.83-4.06-18.26-4.06-7.46 0-12.87 2.03-18.28 4.06-4.73 2.7-6.76 5.4-6.76 9.47 0 3.38 2.03 6.76 6.76 8.8 5.4 2.7 10.82 4.05 18.27 4.05 7.42 0 12.83-1.36 18.25-4.06 4.73-2.03 7.44-5.4 7.44-8.8zm-40.6-4.74l14.9-3.37 14.87 3.38c4.05 1.37 5.4 3.4 5.4 4.75 0 2.02-1.35 3.38-5.4 4.73-4.07 1.36-9.48 2.7-14.88 2.7l-14.9-2.7c-3.38-1.35-4.73-2.7-4.73-4.73 0-1.36 1.35-3.38 4.74-4.74zM350.9 454.53l-17.58-17.58c-.67-.68-1.35-.68-2.7.67-.68 1.35 0 2.03 1.34 2.7l16.24 16.92c10.82 14.87 16.9 31.78 17.58 50.72 0 21.64-5.4 39.9-16.23 54.8-9.47 11.48-18.94 18.92-29.76 22.98-1.36 0-2.04.68-1.36 2.03 0 1.36 1.35 2.03 2.03 1.36 12.18-3.4 23-11.5 31.78-23.68 12.18-16.23 18.27-35.17 16.9-57.5 0-20.27-6.07-37.86-18.25-53.42z"/><path fill="#FFF" d="M219.7 170.47l6.08-18.26 2.7-22.3c-11.5 10.8-20.28 27.04-26.37 50.04-3.37 10.82-4.72 21.64-5.4 31.1h21.64c-2.7-11.5-2.7-25 1.36-40.57z"/><path d="M229.84 127.86l-2.7.68c-12.18 10.14-20.97 27.05-27.06 49.37-4.74 14.9-6.08 25.7-6.08 33.15l.67 2.03h23.67l2.7-.68.68-2.7c-3.38-10.83-2.7-23.67.68-37.88l6.1-18.93v-.7l2.7-21.64-1.36-2.7zm-4.73 10.82l-1.35 12.17c-6.76 14.88-9.46 29.1-9.46 43.3l1.33 13.52h-16.9c2.03-9.47 3.38-19.62 6.76-29.76 5.4-16.9 11.5-29.07 19.6-39.22z"/><path fill="#9260C7" d="M224.43 156.27l8.1-10.82c6.1-8.8 8.8-16.9 8.13-23.68 0-4.73-2.03-6.76-4.06-8.1-2.02-.7-4.73 0-6.76 2.7-6.1 7.43-8.12 20.96-5.4 39.9z"/><path d="M230.52 112.98c-4.06 2.03-6.1 6.77-8.12 13.53-2.03 8.8-2.03 18.27-.68 30.45l2.03 2.02 2.03-1.35c12.85-12.17 18.26-24.35 17.6-35.85-.7-5.4-2.04-8.8-5.42-10.14l-7.44 1.35zm-4.06 36.53l-.68-7.44c0-12.84 2.7-21.64 8.12-25.02l1.35-.68 2.7 5.4v1.37c0 7.43-3.37 16.9-11.5 26.38z"/><path fill="#9260C7" d="M190.62 217.8c10.14 13.54 26.37 19.63 48.7 16.92 11.5-.67 22.3-3.38 31.78-6.76l-4.06-31.8c-1.35-12.16-7.44-20.28-18.26-24.34-10.82-4.06-20.3-2.7-29.76 4.06l-9.47 11.5c-9.47 2.03-15.55 6.76-19.6 12.17-3.4 6.08-3.4 12.17.67 18.26z"/><path d="M272.45 230.67l1.35-2.04v-2.02c-1.35-3.38-2.02-10.14-2.7-20.3 0-9.45-2.03-16.9-3.4-21.63-2.7-7.44-8.78-12.85-17.57-15.55-17.6-6.77-31.8-2.03-42.6 14.88-12.2 4.05-19.62 10.14-23 18.93l-.68 5.4c0 4.07 1.35 8.13 4.06 11.5 10.15 14.9 27.06 20.98 50.73 18.95 11.5-.68 23-4.06 33.82-8.1zm-24.35-56.14c6.77 2.7 10.82 6.76 13.53 12.85 1.35 4.05 2.7 10.14 2.7 18.94 0 7.44.68 13.52 2.03 18.93-11.5 4.74-22.32 6.1-33.14 6.77-18.26.67-31.8-4.73-39.9-16.24-2.7-4.05-3.38-7.44-2.03-11.5 2.7-6.08 8.78-10.14 19.6-13.52l1.35-2.03 9.47-10.82c7.44-5.4 16.24-6.75 26.38-3.37z"/><path d="M272.45 228.63v-2.02l-20.3-18.93c-14.87-11.5-28.4-19.62-41.92-23-1.36 0-2.03.68-2.03 1.36-.68 0-.68 1.35 0 2.02l12.85 16.9c12.85 11.5 29.08 19.63 49.37 25.04 1.36 0 2.03-.7 2.03-1.37z"/><path fill="#9260C7" d="M116.9 186.03l-4.06 18.26c8.8-6.1 14.87-16.92 18.25-33.16 2.03-13.52 1.35-23.67-2.03-29.76-2.7-4.05-5.4-4.73-8.12-1.34l-3.38 6.08c2.03 12.85 2.03 25.7-.68 39.9z"/><path d="M124.33 135.3c-3.38 0-6.76 3.38-9.46 10.14l-.7 1.36c2.72 12.17 2.05 25.02 0 39.23l-4.7 16.9c0 1.36 0 2.7 1.33 3.4h3.38c9.48-6.1 15.57-16.92 18.95-33.83 2.7-14.88 2.03-25.7-2.04-32.46-1.35-3.4-4.06-4.74-6.77-4.74zm-4.73 11.5c2.03-3.38 3.38-6.1 4.73-6.1l2.03 2.04c2.03 2.7 2.7 8.1 2.7 14.88 0 14.88-3.38 27.73-11.5 37.2 2.7-10.82 4.07-20.97 4.07-30.44l-2.03-17.58z"/><path fill="#9260C7" d="M134.47 225.25c5.42-5.4 5.42-12.17 0-20.3-4.72-7.43-11.5-10.13-20.3-8.1-.66-4.06-3.37-7.44-6.75-10.82-6.76-5.4-16.23-5.4-27.73 0-10.82 5.4-17.6 14.88-19.62 28.4l-3.38 34.5 30.43-2.03c21.65-3.4 37.2-11.5 47.34-21.65z"/><path d="M116.22 193.47c-2.04-6.1-6.1-10.83-12.18-12.85-7.44-3.4-15.56-2.7-25.7 2.02-9.47 4.74-15.56 11.5-18.26 20.3-2.03 4.73-3.38 12.84-4.06 23.66-.67 10.15-1.35 17.6-2.7 21.65l.67 3.38c.67.67 1.35.67 2.7.67l32.46-2.02c21.64-4.74 37.88-12.18 47.35-22.32 3.4-3.38 4.74-6.76 4.74-11.5.68-4.74-.68-8.8-3.38-12.17-4.73-8.13-11.5-11.5-21.64-10.83zm10.14 8.1l6.1 6.1c2 2.03 2 5.4 2 7.44l-2.7 8.13c-12.84 14.2-36.5 21.64-71 22.3l2.03-18.24c.66-10.84 1.34-17.6 2.7-22.34 2.7-6.76 8.1-12.17 15.55-15.55 8.12-4.05 14.88-4.73 20.3-2.7 4.73 2.7 8.1 6.1 10.14 10.83.66 2.02 1.34 3.38 4.04 2.7l10.82 1.35z"/><path d="M105.4 218.5c5.4-7.45 9.46-14.2 10.82-20.98v-2.03l-2.04-.68c-11.5 6.1-25.02 16.23-39.22 31.1l-19.6 22.33v2.03c0 1.35 1.34 1.35 2.02 1.35 20.96-6.76 36.5-17.58 48-33.14zm5.4-16.92c-3.38 6.76-7.43 13.53-13.52 20.3-8.8 9.46-20.3 16.9-33.82 23 15.56-20.3 31.8-34.5 47.34-43.3z"/><path fill="#FFF" d="M154.1 175.88l-4.74 5.4c-2.7 4.74-4.06 8.8-2.7 12.86l9.46 37.2 14.2-3.38-16.23-52.08z"/><path d="M154.76 173.18l-2.02.67-5.4 6.77c-3.4 4.73-4.75 9.47-3.4 13.52l9.48 37.2c.67 2.03 1.35 2.7 3.38 2.03L171 230l2.03-1.37v-2.02c-10.15-29.08-15.56-46.66-16.23-50.72l-2.04-2.7zm-6.08 18.25c0-2.7 1.36-6.08 4.06-10.14l14.2 44.63-8.8 2.03-9.46-36.53z"/><path fill="#9260C7" d="M156.12 187.38c2.03 9.47 5.4 18.25 9.47 26.38-1.36-8.8-2.04-24.35-.7-46.67 1.36-14.2-.66-19.63-7.43-14.9s-6.76 16.92-1.35 35.18z"/><path d="M164.9 148.15c-2.02-1.35-5.4-.68-8.1 2.03-7.44 5.4-9.47 16.9-4.06 35.16 2.03 10.83 5.4 20.97 10.14 29.1h.68c.68 2.02 1.35 2.02 3.38 2.02l1.35-3.38c-2.04-8.8-2.04-22.32-.68-41.26l.67-16.23c-.68-3.4-1.36-6.77-3.4-7.45zm-2.02 8.8l-2.03 36.52c-3.38-10.15-6.08-18.95-6.08-26.38 0-6.78 2.03-10.16 4.73-12.87l3.38-1.34v4.04z"/><path fill="#9260C7" d="M207.52 217.8c-3.38-12.17-12.18-16.22-25.7-11.5l-18.26 9.48-19.6-2.7c-12.87 1.35-19.63 8.12-20.98 20.3-.68 11.5 6.76 22.3 22.32 32.45 8.8 4.74 18.94 10.82 32.46 16.9l17.58-24.34c11.5-18.27 15.56-31.8 12.18-40.6z"/><path d="M129.75 214.43c-5.42 4.06-8.8 10.15-10.15 18.94-.68 10.14 4.73 20.3 14.87 29.08 6.1 4.74 16.24 10.14 29.77 16.9l11.5 6.1 4.73-.68 18.26-25.7c11.5-18.26 14.88-32.46 12.18-42.6-2.7-7.45-7.44-12.18-13.52-14.9-10.15-2.7-20.97.68-34.5 10.15-14.88-3.38-25.7-2.02-33.13 2.7zm-3.4 18.94c1.36-6.76 3.4-10.83 6.78-13.53l29.75-1.35 2.7-.7c4.07-2.7 8.13-4.72 12.86-6.75 6.76-3.38 12.18-4.06 16.23-2.7 4.74 1.35 7.44 4.73 9.47 10.8l.68 5.43c0 12.85-9.47 31.1-27.73 54.1l-10.16-5.4c-12.17-5.4-20.3-10.16-26.37-14.9-9.48-6.75-14.2-14.87-14.2-22.98v-2.03z"/><path d="M163.56 213.76c-1.35 0-2.03.67-2.03 1.35l-2.03 19.62c.68 16.24 6.1 32.47 16.9 49.37l2.04.67 1.35-2.03v-25.7c-2.04-18.26-6.77-32.46-14.9-42.6-.66-1.36-.66-1.36-1.34-.68zm0 17.58l.68-10.14c7.43 13.52 12.17 30.43 12.17 52.75v1.35c-8.78-15.56-12.84-30.43-12.84-43.96z"/><path fill="#D96038" d="M279.2 92.7l26.4 2.02-5.42 8.12c-2.03 6.76-.68 12.17 4.73 17.58 5.42 4.74 18.28 8.12 38.57 8.8l28.4-.68V-3.36H2.6V50.1l12.84 15.56C26.94 76.46 39.1 81.2 51.97 81.2c13.52 0 25.02-4.74 35.16-14.9l10.83-15.54 11.5 3.38 21.63-2.03 16.23-14.2c6.76-7.43 15.55-10.8 24.34-12.17l46.67 1.36c19.62 2.7 29.76 7.43 30.44 13.5l-3.38 18.95c-1.36 7.44-1.36 13.53 1.35 19.62 4.06 6.76 14.88 10.8 32.46 13.52z"/><path d="M375.25-3.35c0-2.03-1.35-3.38-3.38-3.38H2.6c-2.7 0-3.4 1.35-3.4 3.38V52.1l14.9 16.92c11.5 10.15 24.34 15.56 37.87 15.56 20.3 0 35.84-9.47 47.34-29.1 14.2 3.4 25.03 3.4 33.83 0L156.8 35.2c4.05-3.38 9.46-5.4 14.87-6.1l47.35 2.05c16.9 2.02 25.7 6.08 26.38 10.82V44l-2.7 11.5c-1.36 6.08-2.04 10.14-2.04 12.85 0 4.05 1.36 8.1 3.38 12.16 5.4 10.84 23.68 16.25 54.8 17.6-2.04 3.38-2.72 6.77-2.72 10.15 0 5.4 2.03 10.14 6.77 14.88 5.4 5.4 18.25 8.8 37.18 9.47l32.47-.68c1.35 0 2.7-1.36 2.7-3.38V-3.36zm-68.3 121.74c-2.7-3.4-4.06-6.77-4.06-10.15 0-2.03.66-4.74 2.7-8.12l2.7-3.38.67-3.38c-.68-1.35-2.03-2.03-3.38-2.03l-30.44-2.03c-14.2-2.7-23-6.75-25.7-11.5-2.04-5.4-2.04-12.16 0-20.28 2.03-6.76 2.7-12.17 2.7-16.9-1.35-8.8-13.53-14.2-37.2-16.92-15.55-2.02-30.44-2.02-43.96-1.35-6.76.67-13.53 3.38-18.26 6.76-3.38 2.72-7.44 6.1-11.5 10.83l-11.5 8.8-19.6 2.03-10.83-2.7c-2.02-.68-3.37 0-4.72 1.34-2.03 5.42-5.4 10.15-10.83 14.9-8.8 8.78-19.6 13.5-31.78 13.5-10.83 0-22.33-4.05-32.47-12.84-6.1-5.4-10.82-10.82-13.53-16.23V.03H368.5v125.13c-33.15 2.02-53.44 0-61.56-6.77z"/><path d="M317.77 108.25c-.68 1.35 0 2.02 1.35 2.02l6.08 1.36c3.4 0 6.1-1.35 8.12-3.38 2.03-1.36 2.7-4.07 2.7-7.45l-3.37-5.4c-5.42-4.06-14.2-5.42-27.06-2.7-2.04 0-2.7.67-2.04 2.02 0 1.36.68 2.03 2.7 2.03l11.5-.67c5.42 0 9.47.67 12.18 2.02l2.03 3.38c0 1.36 0 3.4-1.36 4.07l-10.8 1.34c-1.36-.68-2.03 0-2.03 1.35zM69.55 61.58c.67-.68 1.35-2.03.67-2.7l-3.38-.68-6.76 2.7-8.1-2.02c-2.05-1.36-2.05-4.06 0-8.12 2.02-4.74 9.45-6.1 20.28-4.74 8.1 1.36 16.9 3.38 25.02 6.76 1.35.68 2.03 0 2.03-.67.7-1.34 0-2.7-.67-2.7-6.76-3.38-14.88-5.4-23.67-7.43-14.88-2.04-23 0-26.37 6.76-3.4 6.1-2.72 10.14.66 13.53 2.7 2.02 6.1 2.7 10.82 2.02l9.47-2.7zM89.17-3.35c0 11.5-3.4 20.3-8.8 25.03-3.38 3.38-7.44 4.05-12.85 3.38-16.9-2.04-32.46-2.04-47.34.67L1.24 30.47c-.68.68-1.35 1.35-.68 2.7 0 1.36.68 2.03 2.7 1.36l17.6-4.74c14.2-2.72 30.43-3.4 45.98-.7 6.77.7 12.18-.66 15.56-4.04 6.77-6.1 10.15-15.56 10.82-28.4L91.2-5.4c-1.36 0-2.03.68-2.03 2.03z"/><path d="M147.33-5.38c-.68 0-2.03 0-2.7 1.35-4.74 14.2-12.86 23-23.68 26.38-6.76 2.7-14.88 2.7-23.67 0l-10.82-4.73c-.68-1.36-2.03-.68-2.7.67-.68.67-.68 2.02 0 2.7l13.52 5.4c8.8 2.7 17.6 2.7 25.7 0 11.5-4.05 20.3-13.52 25.7-28.4.67-2.03 0-2.7-1.35-3.38zM271.78 29.8c7.43 0 13.52 1.35 19.6 3.37 5.4 2.7 8.8 5.42 8.8 8.8 0 2.7-1.35 5.4-5.4 6.76-5.42 3.38-13.54 5.4-23.68 5.4l-20.3-2.02-1.35-1.34-1.35 2.03-2.7-2.04c.67 2.03 2.02 3.38 3.38 4.74 4.05 2.7 11.5 3.38 22.3 3.38 10.84-.68 18.95-2.7 25.7-6.1 5.43-2.7 7.46-6.08 7.46-10.8 0-4.75-3.38-8.8-10.15-12.2-6.1-2.7-14.22-4.05-22.33-4.05-7.44 0-13.52 1.36-18.94 4.06-4.05 2.7-6.76 6.75-6.76 10.8 0 1.37 1.35 2.04 2.7 2.04l2.03-2.03c0-3.37 2.03-6.75 6.77-8.1l14.2-2.7z"/><path d="M279.9 55.5c.67 2.02 2.02 2.02 2.7 2.02l13.52-1.35c6.1.67 9.47 1.35 10.82 3.38 2.03 2.03 2.03 4.74 0 8.12-2.03 4.73-6.76 5.4-14.2 4.06-.67-.68-2.03 0-2.7 1.35 0 1.35 1.35 2.7 2.03 2.7l7.43.68c5.4-.67 9.48-2.7 10.82-7.44 2.7-4.73 2.7-8.12 0-11.5-3.38-5.4-13.52-6.76-28.4-4.73-2.03.66-2.03 1.34-2.03 2.7zM372.55 50.76l1.35-2.03-2.03-1.35c-24.35 3.38-39.22 3.38-45.3-1.36l-2.72-4.05c-.67-4.06 0-7.44 2.7-9.47 2.72-2.7 6.1-4.06 10.15-4.06l2.03-1.35-2.03-2.04c-5.4 0-10.14 1.35-13.52 4.73-2.7 3.37-3.4 7.43-3.4 12.84 0 2.7 2.04 4.74 3.4 6.77l49.37 1.36z"/><path d="M338.73 52.1c1.35-1.34.68-2.02-.68-2.7-1.35-.67-2.02-.67-2.7 1.36l-2.7 8.12c-2.04 5.4-1.36 10.8 1.34 14.87 4.73 7.44 15.55 10.14 32.46 8.8l2.03-2.7-2.72-1.36c-14.88 1.34-25.02-.7-28.4-6.77-2.03-2.7-2.03-7.45-1.35-12.85l2.7-6.77z"/><path stroke-miterlimit="100" d="M364.58 579.58H7.42V7.42h357.16v572.16z" fill="none" stroke="#000" stroke-width="14.84"/></svg>