<svg xmlns="http://www.w3.org/2000/svg" width="372" height="587" viewBox="0 0 372 587"><path fill="#fff" d="M0 0h372v587H0z"/><path fill="#858585" d="M144.7 108.28c5.28-7.28 4.62-16.54-1.34-27.13-4.63-13.23-9.26-21.17-14.55-24.48L109 42.12v3.96c-.66 3.3 0 7.28 2.65 10.6L87.13 56l-17.2 4-17.87.67.67 17.85C56.7 91.75 65.96 103 81.17 110.94c-5.3 4.63-9.92 6.62-14.55 6.62l5.95 4.63a24.22 24.22 0 0 0 16.55 2l44.98-6.65c4.63-2 7.94-4.63 10.6-9.27z"/><path d="M151.3 97.03c0-5.3-2.64-10.6-5.95-16.54l-4.63-11.94c-3.3-7.28-6.62-11.9-10.6-13.9L110.94 40.1l-1.98-.65-2 1.33-1.3 5.94 1.98 6.6c-9.27-1.3-16.54-1.3-21.83 0l-7.9 2L50.73 58l-1.32 1.98-.66 6.62c0 7.28 1.98 13.9 5.3 21.17 3.96 9.26 11.9 17.2 22.48 23.15-3.97 3.3-7.27 3.97-10.58 3.97l-2 1.96v.66l.67 1.98 6.62 5.3 18.53 1.33 44.98-6.62h.67c7.93-3.3 12.56-8.6 14.55-15.85l1.32-6.62zm-5.95 0l-.66 5.3c-1.36 5.3-5.3 9.25-10.6 11.9l-45.67 6.62c-5.95 1.98-10.58 1.32-15.88-1.33l10.6-6.6.65-2-1.3-2.65c-18.54-9.92-28.46-23.8-28.46-41l.66-3.98 24.5-2.67 7.93-2 23.82.66 2.64-1.3.63-1.34v-1.32c-1.98-2-2.64-4.63-3.3-8.6l16.53 12.56c4.64 2.67 9.27 10.6 13.24 22.5v1.34a24.8 24.8 0 0 1 4.64 13.9z"/><path d="M63.97 73.2c-.66 1.34 0 2 .67 3.32l23.15 9.92c17.83 5.3 33.05 7.94 47.6 6.62l2-1.98c0-1.33-.66-2-2.65-2-13.9 1.34-29.1-1.3-45.64-7.27l-22.5-9.23-2.64.66z"/><path d="M130.13 89.75c-7.94 6.62-19.85 13.23-37.7 17.2-1.33.67-1.33 1.32-1.33 2.65l2.64 1.32c18.53-4.63 31.1-10.58 39.04-17.86 1.32-1.32 1.32-1.98 0-3.3a2 2 0 0 0-2.65 0zM85.8 67.25c-1.32.67-1.98 1.33-1.32 2.65 5.95 11.9 9.92 17.87 13.23 19.2l2.68-1.33c0-1.32 0-2.65-1.32-2.65-3.3-.66-6.62-6.6-11.25-17.2-.66-1.32-1.32-1.32-2-.66z"/><path d="M104.33 86.44l-26.46 7.94c-.67 0-1.33.66-.67 2l2 1.97 26.45-7.27 1.32-3.3c0-1.34-1.32-1.34-2.64-1.34zm3.3-18.52l17.2 24.47 2.65.64.67-3.3-17.2-24.5-.67 2.66h-2.64z"/><path fill="#858585" d="M295.52 87.77L282.3 76.52c-9.93-6.62-18.53-9.92-25.14-9.26-6.62.66-13.24 4.63-20.5 12.57l-9.28 11.25 3.3 7.93c9.94-6.6 23.83-10.55 41.7-11.2 8.6-.67 16.53-.67 23.14 0z"/><path d="M294.87 91.08l2.64-2-.63-2.64-13.9-11.9c-9.92-7.94-19.18-11.25-25.8-9.93-6.6.7-14.55 5.3-22.5 13.26l-9.9 11.9v2l3.3 7.94 1.98 1.3h2c9.9-5.95 23.14-9.9 40.34-11.24l22.5 1.33zm-63.52 3.96l-.66-3.96a52.75 52.75 0 0 1 9.9-11.25c6.6-5.95 11.9-9.26 17.2-9.93 7.94-1.32 17.86 3.98 29.77 14.56-22.5-.66-41.03 2.65-56.25 10.58z"/><path fill="#858585" d="M207.54 165.83l24.48 18.53a48.17 48.17 0 0 0-5.96-27.13c-1.98-4.63-9.92-13.23-23.8-28.45l-5.97 7.28 1.96 11.9c2.64 9.28 5.3 14.57 9.26 17.87z"/><path d="M204.23 127.46l-1.98-1.32c-1.33 0-1.33 0-2 1.32l-5.94 6.62-.63 1.98 2.64 13.23c2 9.23 5.3 15.2 9.27 18.5L230.7 187h2.64l1.33-2c.66-10.6-1.33-20.5-6.62-29.1l-23.82-28.45zm-5.3 8.6l3.32-3.3 1.98 1.32c11.25 12.57 17.86 20.5 19.85 23.8 3.3 6.63 5.3 13.24 5.3 21.2l-20.52-15.23c-4.63-3.3-7.94-13.23-9.92-27.8z"/><path fill="#858585" d="M160.56 147.3l5.96 11.92c3.3 4.63 4.63 9.26 4.63 13.23-.66 8.6-3.3 24.48-8.6 46.3-6.6 28.46-13.9 50.95-21.83 66.17l13.9 3.3 13.9-37.7c9.25-29.12 15.86-54.9 17.85-76.75 2.64-9.26 5.95-15.88 8.6-19.84l7.94-7.94c3.34-3.34 4.66-8.6 5.3-15.25 1.34-8.6-1.3-15.22-8.6-19.85-8.6-5.3-21.15-5.94-37.7-2.63l-1.3 17.2c-.68 11.9-1.34 19.18 0 21.83z"/><path d="M161.23 106.3c-.67 0-1.33.66-1.33 1.97l-1.98 18.53c-.66 11.25-.66 18.52 0 21.17 0 2.65 1.98 5.96 5.3 9.92 3.96 6.6 5.3 11.22 5.3 14.53-.68 7.94-3.98 23.82-8.62 46.3-6.6 28.46-13.23 49.63-21.17 64.85v2.63l2 1.33 13.22 3.98c1.32 0 2.65 0 3.3-2l13.9-38.35c9.93-29.1 15.88-55.57 17.2-76.75l2.65-7.27c2.65-5.96 4.63-9.26 6.62-11.25l3.3-3.96c5.96-5.3 9.27-12.57 9.93-20.5 1.32-8.6-.66-15.22-6.62-19.86-8.6-8.6-23.16-9.92-43-5.3zm1.98 41l-.63-6.6 1.98-29.78c16.54-3.3 29.1-2 36.4 3.97 3.3 3.3 5.28 7.9 5.28 13.2v2.65c-1.3 6.62-3.95 13.23-8.6 17.2l-3.96 4.63c-3.3 3.97-6.6 11.24-9.92 20.5-2 20.5-7.28 43.67-15.88 70.13l-14.57 41.7-8.6-1.97c7.28-15.23 14.56-37.05 20.5-65.5 5.3-21.84 7.95-37.05 8.6-45v-1.32c0-3.94-2.63-9.24-6.6-15.2l-3.97-8.6z"/><path fill="#D96038" d="M221.43 56.67c-.66-1.98-3.97-3.3-7.28-3.97l-12.57.66-12.56-3.3h-12.58c-3.96 1.98-6.6 7.28-7.93 15.2v12.58l3.3 12.58c2.68 8.6 6 13.23 9.96 13.9 3.97 1.3 9.92-1.34 17.86-6.63l16.55-13.26c3.97-2 6.6-6.62 7.28-13.23.66-6.6.66-11.24-2-14.55z"/><path d="M226.06 71.23c1.32-6.62.66-12.57-1.98-15.88-1.33-2.65-3.97-3.97-7.28-5.3h-15.2l-9.28-1.98h-17.2c-4.63 2-7.28 7.28-8.6 15.88l-.66 13.9 3.97 15.2c2.65 7.95 6.6 13.24 11.25 13.9 5.95 1.33 14.55-3.3 27.12-13.9l9.26-6.6c4.63-2 7.28-7.95 8.6-15.22zM219.44 58c1.33 1.98 2 6.6 1.33 11.9-.66 6.62-3.3 10.6-5.96 12.57L193 98.35c-5.3 2.65-8.6 4.63-10.58 3.3-2-.65-4.64-3.3-7.28-8.6-1.33-5.28-3.3-9.9-3.97-15.2V73.2c0-11.9 1.98-18.5 6.6-20.5l13.25.66 10.58 2h5.3c7.27-.67 11.24 0 12.56 2.64z"/><path fill="#D96038" d="M144.7 97.7l-10.6 3.96c-6.6 3.3-11.24 5.96-13.23 7.94-1.32 3.3-.66 7.94 1.32 15.2 1.96 7.3 5.3 11.26 8.6 11.26 1.96.67 6.6-1.98 14.53-7.94 9.26-5.95 18.52-10.58 26.46-13.23-11.25-13.26-20.5-18.55-27.1-17.2z"/><path d="M162.55 102.32c-7.28-5.95-13.23-8.6-18.53-7.94-14.55 5.96-23.15 10.6-25.13 13.9-1.36 2.64-1.36 5.95-1.36 10.58l3.3 10.6c3.32 5.94 6.63 9.24 9.93 9.9 2.64 0 6.6-1.97 13.9-6.6 9.9-7.95 19.17-12.57 27.78-15.22l1.98-2-.66-2.63-11.25-10.56zm-17.2-2.64c5.3-.67 12.57 3.97 21.83 14.55-9.26 2.65-17.2 7.28-25.14 13.9-5.95 3.96-9.92 5.95-11.25 5.95l-5.3-6.62c-1.34-4.63-2.67-9.26-2.67-13.23l.66-2.65 8.6-5.95 13.24-5.95z"/><path fill="#D96038" d="M178.43 101.66c3.3-13.23 1.98-22.5-3.3-27.12l-10.6-11.25c-4.63-4-7.94-5.3-10.58-5.3-2.65.64-5.96 3.3-11.9 8.6l-13.24 9.23c-6.6 2.65-7.9 10.6-3.3 22.5 2 5.96 13.25 10.58 34.4 12.57l18.55-9.25z"/><path d="M144.02 67.92c5.3-3.97 8.6-6.6 10.6-6.6 2.64-1.34 6.6 1.97 13.22 9.9l5.96 5.3c2.64 1.98 3.97 6.62 3.97 13.23l-1.33 10.6-16.54 7.93-19.85-3.97c-7.93-1.96-11.24-4.6-12.57-6.6-1.32-4.62-1.98-7.93-1.98-11.24-3.3 3.98-4.63 7.94-3.3 13.24 1.98 4.62 7.93 7.93 18.52 10.57l19.18 3.3h1.33l18.52-9.25 1.32-1.32c2.65-15.87 1.33-25.8-3.3-29.77l-5.96-5.94c-7.9-9.3-14.53-12.6-18.5-11.3-2.64.67-6.6 3.32-12.56 8.6l-12.57 8.6c-5.96 2-5.96 6.63-2.65 13.24 0-4.63 1.98-6.6 4.63-8.6l13.9-9.92z"/><path fill="#D96038" d="M191.66 114.9l6.62 13.22c4.62 9.27 7.93 14.56 9.92 14.56l15.88-.67c7.27-1.3 11.9-4.6 13.23-7.9 2-3.97.7-9.93-3.3-17.87-3.95-6.6-7.92-11.23-11.23-13.22-1.98-.65-8.6 1.34-17.86 5.3l-13.23 6.6z"/><path d="M189.67 116.22c7.28 17.86 13.23 27.78 17.87 29.1l16.54-.66c8.6-1.98 13.9-5.3 15.87-9.92 2-3.97.67-10.6-3.97-19.2-4.63-7.92-8.6-12.56-11.9-14.54-4.64-2.65-16.54 1.98-33.08 11.9-1.33.67-2 1.33-1.33 3.3zm31.76-10.6c2.65 1.34 5.95 5.3 9.93 11.92 3.3 6.62 5.3 11.9 3.3 15.2-.66 3.3-4.63 4.65-11.24 6.63l-13.9.67c-2.64-.67-7.27-8.6-14.55-23.82 15.2-8.6 23.8-11.9 26.46-10.6z"/><path fill="#D96038" d="M202.9 93.06v21.17l17.2.66 15.9-4c2.65-1.33 3.97-4.64 3.97-7.95l-2.64-13.9c-.65-5.28-3.3-8.6-6.6-9.92l-15.22.67c-5.3.68-8.6 3.3-11.23 7.95l-1.33 5.3z"/><path d="M231.35 76.52c-3.97-1.32-9.26-1.32-16.53 0-5.3 1.32-9.27 3.97-11.9 7.94-2 2.65-2.66 5.3-2.66 8.6v21.17l1.32 1.98 18.53 1.36c7.97 0 13.9-1.33 17.2-3.97 3.34-2.66 5.3-5.96 5.3-9.93l-1.96-13.9v-1.32c-1.33-6.62-4.64-9.93-9.27-11.9zm-25.8 35.06l-.66-18.52 1.95-5.3c1.33-2.64 4.64-4.62 9.27-5.95h13.9c2.64 1.36 3.96 3.34 4.62 7.97L237.3 103c0 3.3-.65 4.62-3.3 6.6l-13.23 3.3-15.22-1.3z"/><path fill="#858585" d="M75.22 236.63l5.95 18.52-26.46-2c-19.82 0-37.02 2.66-51.6 8.6L10.4 273c5.3 8.6 9.26 17.2 11.24 25.16 5.96 20.52 17.2 35.07 34.4 43.67l-6.6 4.63-15.23-.66L48.1 361c13.9 9.26 29.77 11.9 48.3 7.94 9.25-3.3 17.2-9.26 24.47-17.2 15.22-15.88 19.85-33.74 14.56-54.25 0-6.65-2-14.58-7.28-22.5-10.6-17.2-27.8-29.8-52.93-38.4z"/><path d="M72.57 233.98s-.66 1.32-.66 2.64l5.3 14.55-31.73-1.3c-17.2.64-31.1 3.3-43.67 8.6l-2 1.97v1.32l.67 2 7.28 10.57a94.4 94.4 0 0 1 10.58 24.5c5.96 19.17 16.54 33.72 32.42 43.65H35.52l-3.97 1.32c-1.32.66-1.32 1.98 0 3.97l15.22 15.87c14.56 9.27 31.1 11.92 50.28 8.6a86.44 86.44 0 0 0 22.5-14.55c14.55-13.26 21.17-28.47 21.17-45l-2-15.24c0-7.93-2.63-15.87-7.93-25.13-10.6-17.2-28.47-30.44-54.94-39.04-.66-.65-1.98 0-3.3.67zm-47.63 63.5c-3.3-11.9-8.6-23.15-16.54-34.4 13.23-4.63 29.77-6.6 48.3-6.6l24.47 1.97 2.65-1.32.66-1.98v-.67l-3.3-12.56c20.5 8.6 35.72 19.84 44.32 35.06 4.63 7.94 6.62 14.56 6.62 20.5v.67l1.98 14.56c0 15.24-5.95 28.47-18.52 39.7l-20.5 13.25c-22.5 4.63-39.04-.66-52.28-14.55 6.62.65 11.9-2 15.22-7.3l1.32-1.97v-.67l-1.98-2.64c-15.88-7.27-26.47-21.17-32.42-41.02z"/><path d="M11.04 266.4c-.65 1.3 0 1.98.67 2.65l44.36 22.5c31.75 18.5 52.92 37.04 62.85 56.88 1.3 1.32 1.98 1.98 3.3.66.67-.7 1.3-1.35 0-2.67-10.6-19.85-31.75-39.04-62.85-58.22L13.7 265.08c-2-.66-2.65 0-2.65 1.33z"/><path d="M44.8 263.75c-.68 1.32-.68 2 0 2.65l4.62 6.6 11.9 21.18c0 .66 1.33.66 2.65.66.66 0 .66-1.32.66-2.64l-11.9-20.5-4.63-7.95h-3.3zm-25.15 34.4c0 .67.66 1.32 1.98 1.98 16.54 2 33.08 2 49.62.66 1.32-.7 2-2 1.32-2.67 0-1.98 0-1.98-1.32-1.98a207.88 207.88 0 0 1-49.62 0c-.66-.66-1.32 0-1.98 1.98zm78.05 18.52l-13.22-46.3c-.66-1.33-1.98-2-3.3-1.33-.67.66-1.33 1.32-.67 2.65l13.26 45.6 2 1.34 1.97-2z"/><path d="M47.43 319.32l2 1.98 50.93 1.33 1.32-1.33-1.98-2.64-50.28-1.33c-1.33 0-2 .67-2 2zm58.22-50.94c-1.32 0-1.32 1.32-1.32 1.98l5.95 23.16a265.85 265.85 0 0 1 5.96 44.33c0 1.32.66 2.64 1.98 2.64l2-2.67c0-11.9-2.66-27.13-5.97-45l-5.95-23.15c-.66-1.33-1.33-2-2.65-1.33zm-34.4 74.1l-1.98 1.98 37.05.67 1.98-1.33-1.98-2.65-35.73-.66c.63 0 1.3.63.63 1.96z"/><path fill="#858585" d="M173.8 456.93l-25.14-23.15c-18.53-15.88-33.08-25.14-42.35-27.13l-16.5 10.6c-11.25 9.9-17.2 19.84-19.2 31.08a107.5 107.5 0 0 0 .66 32.42c.66 10.6.66 18.52 0 23.16 7.94-5.93 13.23-12.54 13.9-20.5l.65 11.26c.68 9.93 3.3 17.86 6.63 25.14 6.62 11.24 8.6 21.82 7.94 31.75l20.5-15.88c15.23-13.23 24.5-28.44 29.78-44.32l2.65 7.93 3.3 11.26c3.95-3.3 7.26-7.95 11.23-13.9a59.16 59.16 0 0 0 5.95-39.7z"/><path d="M175.78 454.3l-25.8-23.83c-19.2-15.88-33.08-24.48-42.34-27.13H105L87.12 414.6c-11.25 9.92-17.86 21.82-19.85 33.73a120.86 120.86 0 0 0 .66 34.4c.66 8.6.66 15.88 0 19.85l1.33 3.97c1.32.67 1.98.67 3.3 0l9.93-9.92c1.3 9.25 3.3 17.2 6.6 24.48 5.3 9.95 8.6 19.2 8.6 28.47l-.67 1.33v.65l2 2.64h3.3c5.95-3.3 12.57-8.6 19.84-13.9 13.23-12.58 22.5-25.8 28.44-39.7l2.66 9.92c0 1.98.65 1.98 1.3 2.64l3.32-.66c5.3-3.3 9.25-8.6 12.56-15.2 7.27-12.57 9.25-26.46 5.94-41.02l-.66-1.98zm-5.3 3.95l.67 11.25c0 13.23-3.97 23.82-13.23 34.4L153.3 490c-1.34-1.3-2-1.97-3.32-1.97-2 0-2.65 1.32-2.65 2.65-6.6 20.5-20.5 39.7-43.66 54.9 0-9.26-3.3-18.52-7.94-27.78-4.63-8.6-7.28-18.53-7.28-29.77v-4.64c0-2.67-.66-3.3-2.64-3.3-1.96-.7-3.3 0-3.94 2.6-.67 3.98-2.65 7.95-6.62 13.24v-1.32l-2.65-31.1 1.32-13.9c1.33-9.9 6.6-19.17 15.2-27.77l17.23-11.92c14.55 3.98 35.72 20.52 64.17 48.3z"/><path d="M124.18 443.7l-7.28 26.46a275.47 275.47 0 0 0-8.6 58.88c0 1.33.66 2 1.98 2.65l2-2c0-18.54 3.3-38.4 7.93-58.9l7.3-26.46c.67-.66 0-1.98-.66-2.64-1.32 0-2.64 0-2.64 2z"/><path d="M126.16 515.8L115.58 494c-1.33-.68-2-1.35-3.3-.68-.67.67-1.33 1.32-.67 3.3l4 6.62 6.6 13.9c.68.66 2 1.32 3.3.66 1.34 0 2-.66.68-2zm-30.43-34.4c-1.32 1.33-1.32 2 0 2.66 1.98.66 2.65.66 3.3-.67l6.62-8.6c5.3-5.98 9.93-9.3 15.22-10.6l1.32-2-.7-1.3-1.3-.68c-5.96 1.32-11.25 4.63-17.86 11.25l-6.62 9.9zm32.42-29.76c-1.33 0-1.33 1.32-1.33 1.98l9.93 34.4c.66 1.32 1.32 2 2.64 1.32 1.3 0 1.3-1.3 1.3-2.64l-9.93-33.74c0-1.32-1.33-1.98-2.65-1.32zm-20.5-17.2c-10.6 5.95-18.54 15.2-23.17 28.44 0 .67 0 1.33 1.33 2 1.35.65 2 0 2.67-1.34l5.3-9.92c3.96-6.62 9.92-12.57 15.2-15.2l1.33-2.66c-1.33-1.32-2-1.32-2.65-1.32z"/><path fill="#858585" d="M275.68 434.44l-16.54-4.64-47.63 19.85a131.36 131.36 0 0 0-1.96 55.57c1.33 9.27 3.97 16.54 5.96 21.84l7.93-11.25 3.3-3.3 3.97 9.28c3.97 7.28 7.93 13.9 12.56 18.53 6.62 7.28 20.5 15.2 43 23.16-.66-4.64 1.33-11.26 5.96-19.85 4.63-11.25 7.94-19.2 9.27-23.8 1.95-7.3 1.95-16.55 0-28.46l-3.34-14.55c3.96 3.96 9.26 7.27 18.52 9.9l-4.64-13.9c-2-6.6-5.96-13.9-11.25-21.15-4.63-6.62-13.23-12.57-25.14-17.2z"/><path d="M259.8 426.5l-2.64.66-46.32 19.18-2.64 2a140.76 140.76 0 0 0-2 57.54c1.34 8.6 3.32 16.54 6.63 23.16l2.65 1.33 2.64-1.33 7.94-10.58c4.63 9.92 9.26 17.86 14.56 23.8 6.6 7.96 21.83 15.9 44.32 24.5h2.65l1.95-3.3v-1.34c0-4.63 2-11.25 6.62-19.85 4.62-9.26 7.26-16.54 8.6-21.83l1.3-12.57c0-7.27-.65-14.55-2.64-23.15 3.3 1.98 6.62 3.3 12.57 5.3l3.3-.68.68-3.3-2.64-7.28c-3.3-10.58-7.28-19.85-13.9-28.45-4.63-7.9-13.9-13.86-26.46-18.5l-17.2-5.3zm-48.95 56.9c0-10.6 1.32-21.18 3.3-31.76l45-18.53c19.84 4.67 33.07 11.3 39.68 20.54 5.3 7.94 9.27 17.2 11.9 27.13l.68.66-10.56-7.26c-.66-1.33-2-1.33-3.97-.67-1.33.66-1.98 1.32-1.98 3.3l.64.67 2 9.92 1.97 20.5-1.32 11.23c-1.32 4.64-3.97 11.25-7.94 19.85-3.97 7.93-6.6 15.2-6.6 19.84-19.86-7.94-33.1-15.2-38.38-21.17-3.97-3.97-7.28-10.58-11.25-17.2l-3.96-9.26-2.65-2-3.3.66-7.3 10.6a117.55 117.55 0 0 1-5.94-37.07z"/><path d="M234.66 447l12.57 13.9c8.6 11.9 13.9 21.83 16.54 31.75l4.63 24.5a230.88 230.88 0 0 0 7.28 30.42c.66 1.32 1.32 1.32 2.65 1.32 1.98 0 1.98-1.35 1.32-2.68a122.5 122.5 0 0 1-7.28-29.77l-5.3-25.14c-2.64-9.9-7.93-20.5-16.53-31.75l-12.57-15.2c-.66-.67-2-.67-3.3 0a2 2 0 0 0 0 2.64z"/><path d="M263.77 535l6.62-25.8c.63-2 0-2.65-.7-3.32-1.3 0-2.64 0-2.64 1.33l-7.28 27.16c0 1.3.65 2.64 1.3 2.64l2.66-2z"/><path d="M267.08 504.57l7.94 5.95c5.3 5.3 9.92 9.93 11.9 13.9l3.3.65.68-2.65c-2.65-4.62-7.28-9.92-13.23-14.55l-8.6-6.6h-2.65c-.67 1.3-.67 2.64.66 3.3zm-19.85 13.9l13.23-41.7c.66-.66 0-1.97-.66-2.63-1.32-.67-2.65-.67-2.65 1.3l-13.23 41.7c-.66 1.98 0 2.64.67 3.3l2.6-1.98zm5.97-50.95c0 .66 0 1.98 1.3 2.65l11.92 4.63c8.6 3.96 15.87 8.6 21.17 13.23 1.3 1.98 1.95 1.98 2.62 0 .66-.66.66-1.33 0-2-5.96-5.94-13.23-10.57-22.5-15.2l-11.9-4.64c-1.33 0-2 0-2.65 1.3zm-9.94-13.22l-5.3 12.55a116.7 116.7 0 0 0-7.27 23.82c0 1.32 0 2.65 1.96 2.65.66 0 1.32 0 1.98-2a166.3 166.3 0 0 1 6.62-23.8l5.3-11.25-.67-2.65c-1.3-.66-1.98 0-2.65.67z"/><path fill="#858585" d="M341.18 306.1l-37.05 9.26c-5.3 1.97-11.25 5.95-18.53 12.56l-9.26 9.26 7.28 64.18c13.23 7.94 27.8 12.57 44.33 15.2l21.17.68-6.62-8.6 31.76-9.93-1.33-70.1c-8.6-3.3-17.86-5.3-27.78-7.3l-13.23-.64c3.3-3.3 6.6-7.93 9.26-14.55z"/><path d="M339.85 302.78l-36.38 9.93c-5.96 2-12.57 5.98-19.85 12.6l-9.93 9.26c-.7.66-.7 1.32-.7 2.64l7.3 64.17 2 2.65c13.2 7.95 27.77 13.24 44.3 15.88l22.5.67 2.65-2 .66-1.3-.65-2-4.63-4.63 27.78-8.6 2.67-3.3-1.32-70.8-1.98-2.64c-11.9-3.97-23.82-7.28-35.73-7.95l5.3-9.92v-1.3l-.67-2-3.3-1.32zm-11.25 17.86v.67l2.65 2.67 11.9.67 26.47 6.6 1.33 65.5-29.77 8.6c-1.33 0-2 1.33-2 2v1.32l.67 1.98 2.65 3.3c-21.17 0-39.7-5.28-55.57-14.55l-7.28-61.53c9.26-9.93 17.2-16.55 25.8-19.2l29.77-7.27-5.3 6.6-1.3 2.65z"/><path d="M291.56 364.3c-1.32 0-1.32.67-1.32 2.65 0 1.33 1.32 1.33 2.64 1.33l31.76-5.95L382.2 361l1.98-1.98c.66-1.32 0-2-1.32-2l-57.56 1.34-33.74 5.95z"/><path d="M361.7 335.86c-7.95 1.98-15.23 5.96-22.5 11.9l-9.27 9.93c-.66 1.3-.66 2.62 0 3.3l3.3-.68 8.6-9.26c6.63-5.95 13.9-9.93 21.18-11.25l1.36-2.64c0-1.32-1.33-1.98-2.65-1.32z"/><path d="M365.65 384.16l-37.7-25.14c-1.33-1.33-1.33-1.33-2.65 0-1.32 1.3-.66 1.98.66 2.64l12.57 9.93c9.26 7.24 17.86 12.53 25.8 15.84.66.67 2 0 2-.66l-.68-2.65zm-38.37-50.96c-5.3 2.66-13.23 8.62-23.15 17.88L290.9 364.3c-.66.67-.66 1.33 0 2.65 1.32.67 2.65.67 3.3 0l12.58-12.56c9.26-9.3 16.54-15.25 22.5-17.24l.65-2.64c0-1.33-1.32-2-2.65-1.33zm-19.84 48.97l28.44 15.22 2-2c.65-.67.65-1.34-1.33-2l-26.47-14.55c-.66-1.33-1.98-.66-3.3.66 0 1.33 0 1.33.66 2.65z"/><path fill="#858585" d="M277 273l2-6.6a35.3 35.3 0 0 0-9.28 3.96l-3.97 3.3c1.33-5.28 1.33-15.2-.65-27.77l-3.3-17.24c-4 3.3-12.6 7.94-25.82 13.24-12.57 5.96-22.5 11.9-28.44 18.53-7.28 7.94-12.57 17.86-15.22 31.76a92.93 92.93 0 0 0-2 18.5l51.62 17.2c9.26-3.3 17.2-8.6 23.15-16.54 5.26-7.28 7.9-14.55 8.6-21.83 0-5.3 1.3-10.58 3.3-16.54z"/><path d="M279.65 275l1.98-6.62-.66-3.3-2.64-2a25.03 25.03 0 0 0-8.6 3.97v-3.96l-2.65-23.2-2.65-12.56-1.32-1.98h-3.3c-3.95 3.3-11.23 7.94-21.8 11.9-15.23 6.62-26.48 13.9-33.1 21.17-7.3 7.3-13.23 17.87-15.9 32.42-1.3 7.28-1.97 13.9-1.97 19.85 0 1.34.67 2 2 2.66l51.6 17.86h2.64a46.54 46.54 0 0 0 24.48-19.18c5.95-7.3 8.6-14.57 9.26-22.5l2.66-14.55zm-17.2-2v.67l1.32 3.3 3.3-.65 6.63-3.97-3.3 16.54c-.68 6.6-3.32 12.54-7.3 19.16-5.94 7.28-12.56 13.23-21.82 16.53l-47.64-16.53c.66-20.52 6.62-35.73 15.88-45 6.62-6.6 17.2-13.22 31.1-19.84l19.18-9.92c2 12.58 3.3 21.84 3.3 29.78l-.65 9.9z"/><path d="M252.52 246.55l-8.6 15.88c-5.95 12.56-9.92 23.8-11.25 34.4-.65 1.32 0 2 1.33 2 1.32.64 1.98 0 1.98-1.35 2-10.58 5.96-21.16 11.25-33.73l8.6-15.22-.66-2.64c-1.32-.7-1.98-.7-2.65.63z"/><path d="M228.05 261.76c-.67.67-2 0-2-.66l8.6 25.14 2.66 2 2-3.32-9.9-25.14-1.33 1.98z"/><path fill="#D96038" d="M200.26 303.44L194.3 316c13.24 13.24 29.78 21.18 46.98 23.17l22.5-1.33c3.3-13.9 3.3-22.48 1.98-25.13-7.94-13.2-14.56-21.15-19.2-23.8a50.6 50.6 0 0 0-15.2-3.96c-7.28-1.33-13.24 0-17.2 1.98-3.98 2-9.27 7.95-13.9 16.55z"/><path d="M198.28 300.8c-2.65 5.3-4.64 9.92-6.62 13.9-.66 1.3-.66 2.63.66 3.3 14.55 13.23 30.43 21.17 48.3 23.82l24.47-1.33 1.96-2c2.64-14.57 3.3-23.8.66-27.14l-3.3-4.63c-7.3-11.9-13.24-18.52-16.55-20.5-4.64-2-10.6-3.32-16.55-3.98-7.28-.66-13.9 0-18.52 2.65-4.62 2-9.25 7.3-14.55 15.88zm16.53-11.9l16.57-1.34a53 53 0 0 1 14.56 3.98c2 1.32 7.3 7.28 14.56 17.86l3.3 5.3v3.3l-1.98 17.86c-7.94 1.98-15.22 1.32-24.5-.66-14.54-2.64-27.77-9.26-39.67-19.85 6.6-14.56 12.56-23.8 17.2-26.46z"/><path fill="#D96038" d="M125.5 301.46a34.17 34.17 0 0 0-8.6 11.25c-2.65 7.3-2.65 15.24 1.32 25.17 15.22 3.97 34.4 2.64 56.9-5.95 11.9-3.97 21.83-7.94 29.77-13.22-5.98-17.2-11.94-27.13-17.2-30.44-4-2.64-13.26-3.98-25.8-4.63-13.26 0-21.87 2.65-25.17 6.6l-11.25 11.27z"/><path d="M134.76 288.23l-8.6 9.25c-5.95 4.64-9.92 9.93-11.9 13.9-3.32 7.94-2.65 16.54 1.32 27.8l1.98 1.3c15.88 3.98 34.4 2 57.56-5.95 11.9-3.3 22.5-8.6 31.75-13.23.67-.66 1.33-1.98.67-3.3-6.62-18.53-12.57-29.1-17.87-31.76-5.3-3.3-14.55-4.63-27.78-4.63-13.9 0-23.2 2-27.16 6.65zm-15.87 25.8a52.58 52.58 0 0 1 10.55-12.57l9.26-9.92c3.3-3.3 11.26-5.3 23.83-5.3 11.9.66 19.85 2 24.48 4.63 3.3 1.33 7.95 10.6 14.57 26.46-9.28 5.3-20.52 10.6-32.43 13.9-19.2 6.62-35.73 7.28-48.96 3.97-1.3-4.64-2.65-9.92-2.65-13.23l1.33-7.95z"/><path fill="#D96038" d="M103 334.54c-11.9 5.3-18.52 11.25-21.83 19.18l-8.6 19.85c-3.97 7.28-5.3 13.23-5.3 16.54 0 4 .67 7.3 3.32 11.28a51.75 51.75 0 0 0 10.55 10.6l27.8 16.53 13.22-2c9.26-4.62 15.2-12.56 19.18-25.13 3.3-11.25 2.64-26.46-1.33-44.33l-7.93-23.8c-6.63-5.3-16.55-4.64-29.1 1.3z"/><path d="M144.02 402.02c3.97-11.9 3.3-27.12-1.32-45-2.65-12.56-5.3-21.16-8.6-25.12v-.67c-6.62-4.63-14.55-5.3-23.82-2.64a104.9 104.9 0 0 0-19.18 9.9c-6.62 5.3-10.6 9.25-11.9 13.9l-5.96 12.55c-5.96 12.57-8.6 20.5-8.6 25.14 0 4.64 1.32 8.6 3.3 11.9 2.65 3.98 6.62 7.95 11.9 11.9l27.8 16.56 1.32.66 13.9-3.3c10.58-3.98 17.86-12.58 21.16-25.8zm-32.4-68.15l18.5.67c7.3 19.18 10.6 35.72 10.6 49.62 0 6.6 0 11.9-2 16.53-4.62 16.5-14.54 25.1-29.76 25.1l-25.8-15.87-10.6-9.92c-1.3-2.63-2.63-5.94-2.63-9.9 0-3.97 2.64-11.25 7.93-22.5l5.96-13.22c1.32-3.33 4.63-7.3 9.92-11.27 5.3-4.62 11.9-7.27 17.87-9.26z"/><path fill="#D96038" d="M202.9 447.67c-1.98-13.9-13.9-23.82-35.06-31.1-17.2-5.95-32.42-7.93-44.33-5.95-8.6.67-16.5 3.97-24.44 9.92-7.94 5.95-11.25 11.25-11.25 16.54 0 3.98 2.64 7.94 6.6 11.25l13.24 8.6 9.27 9.93c2 2.64 6.6 4.63 11.9 5.94l31.1 5.3c14.56 2 23.83 2 27.8 0 6.6-2 11.9-11.9 15.2-30.43z"/><path d="M205.56 447.67c-2-14.56-14.56-25.8-35.73-33.74-18.53-5.95-33.74-7.94-46.97-6.62A50.45 50.45 0 0 0 97.7 418.6c-8.56 5.96-13.2 11.9-12.53 18.52.66 3.97 1.98 7.27 5.3 10.6l15.87 11.9 5.95 6.6c4.62 4.64 9.92 7.3 15.87 9.26l29.77 4.64c15.88 2.63 26.46 2.63 31.1.65 7.27-2.65 11.9-13.23 16.54-32.42v-.66zm-18.53 28.44c-3.3.7-12.57.7-25.8-.63l-31.76-5.3c-5.3-.65-9.26-3.3-12.57-7.27l-7.28-7.94-15.2-10.6c-2.66-1.98-3.32-4.63-3.98-7.27 0-4.65 3.3-9.28 10.58-14.57 6.62-5.3 14.56-8.6 22.5-9.27 11.9-1.98 26.46 0 43.66 5.3 19.85 6.6 31.1 16.54 33.08 29.1-3.97 17.2-8.6 26.48-13.23 28.45z"/><path fill="#D96038" d="M265.75 405.33l-31.1-2c-6.6 0-12.56 4.65-19.84 14.57-5.92 8.6-9.9 15.88-11.2 23.82-2 6.6-2.66 12.57-2 16.53 1.32 4.63 3.3 8.6 8.6 11.25 3.97 2.64 13.9 3.97 28.45 4.64l25.8-2.65c2.65-1.36 5.96-6.65 11.25-16.57l7.27-17.87c.66-3.3-1.98-9.25-7.94-18.52l-9.26-13.23z"/><path d="M267.74 404l-1.32-.66L234 400.7c-6.62 0-13.23 5.95-20.5 15.87a61.83 61.83 0 0 0-12.58 24.48c-1.98 6.62-2.64 12.57-1.98 16.54.66 5.92 3.97 10.56 9.26 13.9 5.3 2.6 15.22 5.26 29.77 5.26l27.8-2.65c3.3-1.32 7.26-7.27 11.9-17.86l7.94-19.18c1.35-3.97-4.6-15.2-17.84-33.08zm-63.5 54.25c-.67-3.96 0-8.6 1.32-15.88a59.56 59.56 0 0 1 11.9-23.15c6.62-8.6 12.57-13.23 17.2-13.9l29.77 2.66c10.6 14.55 15.88 23.8 15.88 27.78v.66l-7.25 17.87c-4.63 9.22-7.27 13.86-9.92 15.2l-24.47 1.96c-14.56-.65-23.15-2-27.8-4.63-3.3-1.98-5.94-5.3-6.6-8.6z"/><path fill="#D96038" d="M236.65 373.57c3.97 17.2 10.58 30.43 19.84 39.7 7.25 6.6 15.85 10.58 23.8 10.58 6.6 0 12.56-1.98 16.53-6.62l11.9-13.23c4.64-5.95 7.95-9.92 8.6-13.9 1.33-3.3.67-7.27-.65-10.57l-6.63-8.6-7.94-23.16c-3.95-6.62-11.23-12.56-21.82-17.86l-23.14-1.3-13.23 3.3c-9.26 8.6-11.9 21.84-7.27 41.7z"/><path d="M243.26 329.9l-1.32.66c-5.95 5.3-9.92 13.9-10.58 25.8 0 10.6 2.64 21.85 7.27 33.75 4.63 10.6 9.93 19.2 15.88 24.5 9.3 8.6 18.55 12.58 28.48 11.9 5.95 0 11.25-2.63 15.87-7.26l5.3-6.62c9.92-10.57 15.2-17.84 15.88-21.82 2-5.3 0-10.6-4.63-17.2l-2.65-3.97c-1.32-1.97-2.65-5.3-3.3-9.26l-5.3-13.9c-3.97-7.26-11.9-13.88-23.16-18.5l-23.8-2-13.9 3.97zm.67 58.23a77.44 77.44 0 0 1-6.62-31.1v-.66c0-9.93 3.34-17.2 7.97-21.83l13.9-3.3 19.84.65 13.23 8.6c3.3 1.96 5.3 4.6 7.94 8.6l7.94 23.13 6.6 9.92a9.58 9.58 0 0 1 .68 7.27c-1.32 3.97-5.95 10.6-15.2 19.2l-5.97 6.6c-2.63 3.32-7.26 5.3-11.9 5.96-7.93 0-15.87-3.3-24.47-10.6-4.63-4.62-9.92-12.55-13.9-22.5z"/><path fill="#D96038" d="M174.46 323.3c-7.28-5.3-16.54-7.28-27.8-4.64-9.25 1.98-16.53 5.3-21.16 9.93a72.84 72.84 0 0 0-13.23 21.8c-5.3 10.6-7.94 18.52-6.62 25.14.67 5.3 3.3 11.24 7.94 15.2l6.6 5.96 22.5-3.3c15.86-4.62 27.8-11.9 33.06-21.82 5.3-9.93 7.28-20.52 4.63-33.1l-5.95-15.2z"/><path d="M176.44 321.97l-1.32-.66c-7.28-5.92-17.2-7.25-28.45-5.26-10.58 1.98-17.86 5.3-23.16 10.58-4.6 4.64-9.23 12.58-14.52 22.5-4.63 11.25-6.6 19.85-5.95 27.13 1.33 9.92 6.62 17.86 15.9 22.5h1.3l23.82-3.32c17.2-4.62 27.8-11.9 33.74-21.82 5.95-10.6 7.27-22.5 5.3-35.05L176.45 322zm-2.65 48.95c-5.3 8.6-15.24 14.56-29.8 19.2l-23.15 3.96c-7.28-4.63-11.9-10.6-13.23-19.18v-2c0-5.95 2.64-13.88 7.27-23.8 4-7.94 8.6-14.56 12.57-18.53 3.98-4.63 9.93-7.94 19.2-9.26 10.58-2.6 18.52-.64 25.13 4 4.65 8.6 6.64 16.54 6.64 25.14 0 7.27-1.33 13.9-4.64 20.5z"/><path fill="#D96038" d="M149.32 440.4c3.96 1.32 9.92 0 18.52-5.3l7.28-31.1-10.6-14.55c-8.6-9.27-16.53-13.9-23.8-13.9l-13.24 5.96c-9.26 4.66-15.2 8.6-16.53 11.9-2 2.68-2 7.3-2 11.95l3.32 9.92c1.32 1.98 6.62 5.96 16.54 12.57l20.54 12.57z"/><path d="M177.77 402.68l-11.9-15.2c-8.6-9.94-17.88-14.57-25.82-13.9l-15.2 6.6c-9.27 4-13.9 7.95-15.9 11.26-1.97 3.97-3.3 8.6-1.97 14.55.66 4.6 1.32 7.9 3.3 11.22.67 1.32 7.28 6.6 17.87 13.23l19.84 11.9c5.3 2 11.9.66 20.5-4.62l1.3-1.33 7.95-31.74v-2zm-4.64 1.32l-7.93 29.78c-7.28 3.97-11.9 5.3-14.56 3.97L130.8 426.5c-9.93-6.62-15.22-10.6-16.55-12.57-1.98-3.98-2.64-8.6-2.64-12.57 0-2.64.7-4.64 2-7.28 2-3.3 10.6-8.6 27.1-15.87 9.3 0 19.88 8.6 32.45 25.8z"/><path fill="#D96038" d="M206.87 395.4c-10.58.66-21.16 4.63-32.4 11.25-5.97 3.3-9.94 6.6-13.9 9.26l-.67 10.6c-.66 7.3 0 11.9.66 14.58 1.33 5.95 11.25 9.92 29.77 13.23 3.98 1.3 13.24-1.33 27.13-7.3l23.16-12.55c2.64-2.65 3.3-7.28 3.3-13.9v-9.92L234 402.7c-7.94-5.3-17.2-7.3-27.13-7.3z"/><path d="M206.87 393.42c-10.58.66-21.83 3.97-33.08 10.58-6.64 3.3-11.9 6.62-15.24 9.93l-.66 1.32-.66 11.9c-.66 6.63 0 11.92.67 14.57 2.66 6.6 13.25 11.9 32.4 15.2 4 1.34 13.9-1.3 27.8-7.27 13.9-5.95 22.5-9.92 25.16-13.23 3.3-4.63 4.63-12.57 3.3-25.8l-.65-1.98-9.9-7.94c-9.27-5.95-18.53-7.94-29.1-7.28zM191 451.62L173.13 447c-5.95-2.64-9.26-4.62-9.92-6.6l-1.3-8.6 1.3-14.57c14.6-11.9 29.14-18.52 43.7-19.18a48.8 48.8 0 0 1 23.8 5.95c3.98 2 7.95 4.64 10.6 7.94v5.3c0 7.93-.66 13.22-2 15.87-2.63 2-9.9 6-22.5 11.28-13.9 5.95-22.5 8.6-25.8 7.28z"/><path fill="#D96038" d="M251.2 353.06l-8.6 3.3-5.3 12.58c-3.3 11.24-4.63 21.83-3.3 31.76 3.3 17.2 12.57 23.82 28.44 20.5 3.3-.65 6.62-4.63 9.93-11.9l5.3-17.86c2.64-10.6 3.96-18.53 3.3-23.82 0-3.97-.66-7.28-3.3-9.92l-10.6-5.3-15.87.66z"/><path d="M239.95 355.05c-1.98 2.64-3.97 7.93-5.95 13.9-3.3 11.23-3.3 21.82-1.98 31.75 1.32 9.92 5.3 17.2 11.24 20.5 4.64 3.98 11.25 4.64 19.85 2.65 4-.66 7.97-5.95 11.28-13.23 3.3-6.6 5.3-13.23 5.95-19.18l3.32-23.82c0-5.3-.66-8.6-3.97-11.25-1.98-1.98-5.95-3.97-11.25-5.95-7.27-3.3-15.88-1.98-27.78 3.97l-.67.63zm-2.64 44.98l-.63-9.26c0-7.28.66-15.2 3.3-22.5a76.5 76.5 0 0 1 3.98-9.9c10.58-4 17.86-5.97 22.5-4 4.62 2.66 7.93 4.65 9.9 5.96 1.34 1.33 2.66 3.98 2.66 7.3l-3.97 23.8a56.72 56.72 0 0 1-4.63 16.55c-3.33 6.6-6.64 9.92-9.28 10.58-5.96 1.98-11.25 1.3-15.22-1.33-4.62-3.3-7.93-9.25-8.6-17.2z"/><path fill="#D96038" d="M171.15 313.37a24.4 24.4 0 0 0-7.28 6.6c-1.98 2.66-2.64 6.63-2.64 11.26a62.5 62.5 0 0 0 3.3 19.85c7.94 4.63 20.5 9.92 39.7 13.9 19.85 4.62 32.42 3.96 36.4-.67 4.62-5.26 7.26-11.9 9.25-19.82.66-6.6.66-11.9-.66-15.87-2-2.65-6.62-6.62-14.56-10.6-7.28-3.97-14.55-6.6-20.5-8.6L191 308.08c-9.93 1.33-16.54 3.3-19.85 5.3z"/><path d="M170.5 311.38c-4.64 2.65-7.3 5.3-8.6 7.28-2 3.3-3.32 7.28-3.32 12.57 0 7.94 1.98 14.56 3.97 20.5l.66 1.33c7.97 5.3 21.2 10.58 40.4 14.56l39.7-2c4.6-5.28 7.26-11.9 9.24-20.5 1.33-7.27 1.33-13.9-1.32-17.2-1.3-3.97-7.26-7.94-15.2-12.56-7.94-3.98-15.2-7.28-21.84-8.6l-23.8-.67c-9.94 1.3-16.56 2.62-19.86 5.26zm20.5 0l22.5.67c6.6 1.98 13.22 3.97 20.5 8.6 6.62 3.96 11.25 7.27 12.57 9.92 1.32 2.64 1.32 7.28.66 13.9-1.32 7.27-3.97 13.22-7.94 17.85-3.34 4.63-15.24 4.63-33.77 0-17.86-3.3-31.1-7.93-38.37-13.23-1.98-5.98-2.65-11.94-3.3-17.9 0-3.96.65-7.27 2.64-9.9l6.6-5.95c3.33-2 8.63-3.3 17.9-3.98z"/><path fill="#D96038" d="M224.74 400.7l7.27-15.22c4-10.58 2-18.53-3.94-24.48-7.27-6.6-17.2-10.6-28.44-12.57-11.9-1.33-21.83 0-28.44 5.3-11.25 7.27-18.53 12.56-21.17 17.2-5.96 7.28-5.96 15.2 1.3 23.15 6.64 7.28 15.2 13.23 25.16 15.87l13.23 1.33 35.06-10.58z"/><path d="M225.4 403.34l1.32-1.32c3.97-4.63 6.62-10.58 7.94-16.54 3.3-11.25 1.98-20.5-4.63-26.46-8.6-7.28-18.53-11.25-30.44-13.23-11.9-1.36-22.5 0-29.8 5.26l-1.98.66-15.88 11.9c-5.3 4.64-7.94 10.6-8.6 15.23-1.32 5.3.66 11.24 5.96 16.54 7.28 8.6 15.2 13.9 25.8 16.54l14.56 1.98H191l34.4-10.6zm.66-40.36c3.3 2.65 4.63 7.28 4.63 11.92 0 7.27-2.67 15.2-7.97 23.15l-33.07 10.6c-15.22 0-26.47-5.3-36.4-16.55-3.96-4.64-5.28-8.6-5.28-12.58.65-3.96 3.3-8.6 8.6-12.57l15.87-11.9c7.27-3.97 15.87-5.96 27.12-3.97a48.95 48.95 0 0 1 26.45 11.9z"/><path d="M192.98 355.05c-1.32 0-1.98.66-1.98 2.64l.66 44.3c0 1.32 1.32 2 2.65 2l2-2-1.3-44.3-2-2.65zm17.87 2.65c-1.33 0-2 .66-2 1.97l.67 39.7c0 1.32.66 2 2 2l1.97-2-.7-39.7-1.97-1.98zm-35.73.66c-.66 0-1.32.66-1.32 1.98l.66 39.7c0 1.32 0 1.98 1.98 1.98l1.33-2v-39.68l-2.65-1.98z"/><path fill="#D96038" d="M147.33 343.8c-3.3 2-6.6 8.6-11.9 20.5-4.64 13.24-6.62 23.17-4.64 28.46 1.3 5.3 6.6 8.6 14.53 9.92l11.9.66c-1.3-6.62-.66-13.23.67-19.85 3.98-13.26 13.24-21.85 29.1-23.18-5.94-9.26-11.9-15.2-18.5-16.54-10.6-2.66-17.2-2.66-21.18 0z"/><path d="M189 361v-2.64c-5.94-9.27-12.56-15.22-19.83-17.2-11.25-3.3-18.53-2.65-23.82 0-3.3 2.64-6.62 9.92-11.9 22.48-5.3 13.9-6.63 23.82-5.3 29.77 1.98 6.65 7.27 9.96 15.87 11.3l13.23.65 1.33-.66 1.32-2c-.66-2.65-1.32-5.96-.66-9.93.66-7.27 2.65-13.9 5.96-18.52 5.3-6.6 12.57-9.92 21.83-11.9L189 361zm-40.34-15.2l19.18.64c5.3 1.33 9.93 5.3 14.56 11.92-9.26 2.64-17.2 6.6-21.17 12.56-4.63 6.62-7.28 14.56-7.28 25.14v4.63c-11.9 0-19.2-3.3-20.5-9.28-2-4.64 0-13.9 5.28-26.47 3.97-10.58 7.94-17.2 9.93-19.18z"/><path fill="#D96038" d="M194.3 401.36l-31.75-11.26-8.6.67c-2.65 1.33-3.3 4.63-3.97 9.93-.66 5.95 0 9.92 1.32 13.23l10.6 9.92c5.28 3.3 9.25 5.95 12.56 6.6l14.55-2.63c7.3-1.33 12.6-4.64 15.25-9.26 3.3-3.97 3.3-7.28 0-11.25-1.98-1.3-5.3-3.3-9.92-5.92z"/><path d="M194.97 398.7l-21.84-7.93c-9.92-3.97-17.2-5.3-21.17-2.64-2.64 1.98-3.97 5.95-4.63 12.56-.66 5.93 0 10.6 1.33 13.9 1.98 3.3 5.95 7.25 11.9 11.9 5.96 3.94 10.6 5.93 13.9 6.6l15.2-2.66c7.95-1.98 13.9-5.3 17.2-9.92 2.66-3.3 3.32-5.95 2.66-9.26-1.32-3.97-5.95-7.94-14.55-12.57zm-43 2.66c.66-4.64 1.98-7.28 3.3-8.6 2.65-1.32 7.28-.66 15.88 2.64l.66.66L193 404c7.28 3.3 10.6 6.62 11.25 8.6l-1.33 4.63c-3.3 3.98-7.93 6.62-14.55 7.94l-13.9 2c-2.64 0-5.95-2-11.24-5.96l-9.25-9.24c-1.98-2-1.98-5.3-1.98-10.58z"/><path fill="#D96038" d="M225.4 370.26c1.32 3.3.66 7.28-1.32 11.26-2.65 7.27-10.6 15.2-23.16 23.15 12.57 5.28 25.14 5.95 36.4 1.98 8.6-2.65 15.87-7.94 20.5-14.55 3.3-3.97 3.3-10.58 0-19.2-3.3-8.6-6.62-13.88-10.6-15.2-3.3-2-7.26-2-12.56 0-3.97 1.32-7.27 3.3-8.6 5.28-1.32 1.33-1.32 3.97-.66 7.28z"/><path d="M256.5 364.3c-2.65-5.28-5.96-7.93-8.6-9.25-3.98-1.33-7.95-1.33-13.9 0-4.63 1.98-7.94 3.3-9.93 5.95-1.32 1.98-1.98 4.63-1.32 7.94.66 4.63.66 8.6-1.32 11.9-2 6.62-9.93 13.9-22.5 21.84-1.32.66-1.32 1.32-1.32 2 0 1.3.7 2.63 2 2.63 15.2 6.65 29.8 6.65 43 0 7.3-3.3 13.25-7.25 17.88-13.2 2.65-3.3 3.3-8.6 1.98-15.87-1.3-4.63-2.64-9.26-5.95-13.9zm-29.12 0l8.6-3.96c3.98-1.98 7.28-1.98 9.93 0 1.35.66 4 2.64 6 6.6 2.63 3.98 4.62 7.96 5.3 12.58.64 5.3.64 9.27-.68 11.25-3.3 3.98-8.6 7.94-15.2 10.6-10.6 5.94-22.5 5.94-34.4 2.63 10.57-8.6 17.2-15.2 19.84-21.83l1.98-7.94-1.3-8.6-.02-1.32z"/><path fill="#D96038" d="M231.35 348.44c0-4.64-.66-7.95-2.64-9.93l-9.9-5.93c-5.3-2-9.26-3.3-11.9-3.3-5.3 0-10.6 1.98-17.2 5.3l-7.3 2.63c-2.63.66-5.3 2-7.92 3.96-3.3 2.65-3.97 9.93-3.3 22.5l8.6-2.65 17.85-1.3c8.6.66 17.2 2.64 27.14 7.27 4.63-6.6 5.95-12.56 6.6-18.5z"/><path d="M224.08 368.94c.66 1.32 1.98 1.32 3.3-.66 3.98-7.28 6.62-13.9 6.62-20.5 0-5.3-.66-8.6-3.3-10.6l-10.6-6.62-13.23-3.96c-5.3 0-11.9 1.98-18.52 5.95l-5.3 1.98a23.56 23.56 0 0 0-9.9 3.98c-2 2.67-3.98 6.64-4.64 13.26l-.64 11.9c0 .67.67 1.33 1.33 2h1.97l9.26-2 17.2-1.32c8.6 0 16.55 2.66 26.48 6.62zm-6.62-33.74l9.26 5.3 2 7.27c0 3.97-1.34 9.92-5.3 15.87-9.27-3.96-17.2-5.95-25.8-6.6l-24.5 3.3c0-9.26 1.34-15.2 3.98-17.86.67-1.32 3.3-2 7.28-3.3l6.62-2c5.95-3.3 10.58-5.28 15.87-5.28 2 0 5.96.66 10.6 3.3z"/><path fill="#D96038" d="M173.13 125.47c9.93-1.3 17.87-3.3 24.48-5.95 7.97-3.97 11.94-8.6 13.26-13.9.66-5.95.66-10.58-.66-14.54-2-3.97-3.3-5.96-5.96-5.96-1.98.66-4.63 2.65-9.26 5.96-3.98 3.3-6.62 5.3-8.6 5.3-5.96.65-11.9-2-17.87-7.95-2.62-2.65-5.3-3.3-7.92-2-3.3.68-5.95 4.65-7.28 9.94-2 5.95 0 12.56 6.6 19.85 5.3 6.6 9.93 9.92 13.24 9.25z"/><path d="M203.57 83.14c-2.65 0-5.96 1.32-9.27 5.3l-8.6 5.3c-4.63.65-9.92-2-15.2-7.3-3.32-3.3-6.63-4.63-9.94-3.3-3.97 1.32-7.28 5.3-9.92 13.23-2.65 6.6 0 13.23 6.6 21.17 5.97 7.27 11.26 11.24 15.9 10.58 24.47-3.3 37.7-10.58 40.35-21.83 1.3-9.95.63-16.57-4-21.2-1.98-1.98-3.3-2.65-5.95-1.98zm.66 4.63s.66 0 1.98.66c1.36 2.65 2 5.95 2 10.58l-.64 6c0 4.62-3.97 7.93-9.93 11.23-6.6 3.32-14.54 5.3-24.47 6.63l-5.3-1.98-6.6-6.62c-5.96-6.6-7.28-12.57-5.96-16.54 1.97-5.95 4.62-9.26 6.6-9.92l5.3 1.98c6.6 6.62 13.22 9.92 19.2 9.26a35.7 35.7 0 0 0 11.22-6.6l6.63-4.63z"/><path fill="none" stroke="#000" stroke-width="3" stroke-miterlimit="100" d="M370.6 585.26H3.9V2.74h366.7v582.52z"/><path stroke-miterlimit="100" d="M367 582H5V5h362v577z" fill="none" stroke="#000" stroke-width="10"/></svg>