<svg xmlns="http://www.w3.org/2000/svg" height="100%" viewBox="0 0 372 587"><path fill="#fffaf0" d="M0 0h372v587H0z"/><path fill="#858585" d="M144.7 108.28c5.28-7.28 4.62-16.54-1.34-27.13-4.63-13.23-9.26-21.17-14.55-24.48l-19.84-14.55v3.96c-.66 3.3 0 7.28 2.65 10.6L87.14 56 69.93 60l-17.87.67.67 17.85c3.97 13.23 13.23 24.48 28.44 32.42-5.3 4.63-9.92 6.62-14.55 6.62l5.95 4.63c5.3 2.64 11.25 3.3 16.55 2l44.98-6.63c4.63-2 7.94-4.63 10.6-9.27z"/><path d="M151.3 97.03c0-5.3-2.64-10.6-5.95-16.54l-4.63-11.92c-3.3-7.28-6.62-11.9-10.6-13.9l-19.18-14.55-1.98-.66-2 1.33-1.3 5.95 1.98 6.6c-9.27-1.3-16.54-1.3-21.83 0l-7.93 2L50.74 58l-1.32 1.98-.66 6.62c0 7.28 1.98 13.9 5.3 21.17 3.96 9.26 11.9 17.2 22.48 23.15-3.97 3.3-7.27 3.97-10.58 3.97-.66.65-1.33 1.3-2 1.98v.66l.67 1.98 6.62 5.3 18.53 1.32 44.98-6.62h.67c7.93-3.3 12.56-8.6 14.55-15.87l1.32-6.62zm-5.95 0l-.66 5.3c-1.34 5.3-5.3 9.25-10.6 11.9l-45.65 6.62c-5.95 1.98-10.58 1.32-15.88-1.33l10.6-6.6.65-2-1.32-2.65c-18.53-9.92-28.45-23.8-28.45-41l.66-3.98 24.5-2.65 7.93-2 23.82.66 2.64-1.3.65-1.33v-1.32c-1.98-2-2.64-4.63-3.3-8.6l16.53 12.56c4.64 2.66 9.27 10.6 13.24 22.5v1.33c3.3 4.64 4.63 9.93 4.63 13.9z"/><path d="M63.97 73.2c-.66 1.34 0 2 .67 3.32l23.15 9.92c17.85 5.3 33.07 7.94 47.63 6.62l1.98-1.98c0-1.33-.65-2-2.64-2-13.9 1.34-29.1-1.3-45.64-7.27l-22.5-9.25-2.65.66z"/><path d="M130.13 89.75c-7.94 6.62-19.85 13.23-37.7 17.2-1.33.67-1.33 1.32-1.33 2.65l2.64 1.32c18.53-4.63 31.1-10.58 39.04-17.86 1.32-1.32 1.32-1.98 0-3.3-.66-.67-2-.67-2.65 0zM85.8 67.26c-1.32.66-1.98 1.32-1.32 2.64 5.95 11.9 9.92 17.87 13.23 19.2l2.66-1.33c0-1.32 0-2.65-1.32-2.65-3.3-.66-6.62-6.6-11.25-17.2-.67-1.32-1.33-1.32-2-.66z"/><path d="M104.33 86.44l-26.46 7.94c-.67 0-1.33.66-.67 2l2 1.97 26.45-7.27 1.32-3.3c0-1.34-1.32-1.34-2.64-1.34zM107.64 67.92l17.2 24.47 2.64.66.67-3.3-17.2-24.5-.67 2.66h-2.64z"/><path fill="#858585" d="M295.52 87.77L282.3 76.52c-9.93-6.62-18.53-9.92-25.14-9.26-6.62.66-13.24 4.63-20.5 12.57l-9.28 11.25 3.3 7.93c9.94-6.6 23.83-10.57 41.7-11.23 8.6-.66 16.53-.66 23.14 0z"/><path d="M294.87 91.08l2.64-2-.65-2.64-13.9-11.9c-9.92-7.94-19.18-11.25-25.8-9.93-6.6.67-14.55 5.3-22.5 13.24l-9.9 11.9v2l3.3 7.94 1.98 1.32h2c9.9-5.96 23.14-9.92 40.34-11.25l22.5 1.33zm-63.52 3.96l-.66-3.96c2.64-3.97 5.95-7.94 9.92-11.25 6.6-5.95 11.9-9.26 17.2-9.93 7.94-1.32 17.86 3.98 29.77 14.56-22.5-.66-41.03 2.65-56.25 10.58z"/><path fill="#858585" d="M207.54 165.83l24.48 18.53c.66-9.93-1.33-18.53-5.96-27.13-1.98-4.63-9.92-13.23-23.8-28.45l-5.97 7.28 1.98 11.9c2.64 9.28 5.3 14.57 9.26 17.87z"/><path d="M204.23 127.46l-1.98-1.32c-1.33 0-1.33 0-2 1.32l-5.94 6.62-.65 1.98 2.64 13.23c1.98 9.25 5.3 15.2 9.26 18.52l25.14 19.2h2.64l1.33-2c.66-10.6-1.33-20.5-6.62-29.1l-23.82-28.46zm-5.3 8.6l3.32-3.3 1.98 1.32c11.25 12.57 17.86 20.5 19.85 23.8 3.3 6.63 5.3 13.24 5.3 21.2l-20.52-15.23c-4.63-3.3-7.94-13.23-9.92-27.8z"/><path fill="#858585" d="M160.56 147.3l5.96 11.92c3.3 4.63 4.63 9.26 4.63 13.23-.66 8.6-3.3 24.48-8.6 46.3-6.6 28.46-13.9 50.95-21.83 66.17l13.9 3.3 13.9-37.7c9.25-29.12 15.86-54.9 17.85-76.75 2.64-9.26 5.95-15.88 8.6-19.84l7.94-7.94c3.32-3.32 4.64-8.6 5.3-15.23 1.32-8.6-1.32-15.22-8.6-19.85-8.6-5.3-21.17-5.95-37.7-2.64l-1.33 17.2c-.67 11.9-1.33 19.18 0 21.83z"/><path d="M161.23 106.3c-.67 0-1.33.66-1.33 1.97l-1.98 18.53c-.66 11.25-.66 18.52 0 21.17 0 2.65 1.98 5.96 5.3 9.92 3.96 6.6 5.3 11.24 5.3 14.55-.68 7.94-3.98 23.82-8.62 46.3-6.6 28.46-13.23 49.63-21.17 64.85v2.64l2 1.32 13.22 3.98c1.32 0 2.65 0 3.3-2l13.9-38.36c9.93-29.1 15.88-55.57 17.2-76.75l2.65-7.27c2.65-5.96 4.63-9.26 6.62-11.25l3.3-3.96c5.96-5.3 9.27-12.57 9.93-20.5 1.32-8.6-.66-15.22-6.62-19.86-8.6-8.6-23.16-9.92-43-5.3zm1.98 41l-.65-6.6 1.98-29.78c16.54-3.3 29.1-2 36.4 3.97 3.3 3.3 5.28 7.93 5.28 13.22v2.65c-1.3 6.62-3.95 13.23-8.6 17.2l-3.96 4.63c-3.3 3.98-6.6 11.25-9.92 20.52-2 20.5-7.28 43.66-15.88 70.12l-14.56 41.68-8.6-1.98c7.28-15.23 14.56-37.05 20.5-65.5 5.3-21.84 7.95-37.05 8.6-45v-1.32c0-3.96-2.63-9.26-6.6-15.2l-3.97-8.6z"/><path fill="#D96038" d="M221.43 56.67c-.66-1.98-3.97-3.3-7.28-3.97l-12.57.66-12.56-3.3h-12.58c-3.96 1.98-6.6 7.28-7.93 15.2v12.58l3.3 12.58c2.66 8.6 5.97 13.23 9.94 13.9 3.97 1.3 9.92-1.34 17.86-6.63l16.54-13.24c3.97-2 6.6-6.62 7.28-13.23.66-6.62.66-11.25-2-14.56z"/><path d="M226.06 71.23c1.32-6.62.66-12.57-1.98-15.88-1.33-2.65-3.97-3.97-7.28-5.3h-15.2l-9.28-1.98h-17.2c-4.63 2-7.28 7.28-8.6 15.88l-.66 13.9 3.97 15.2c2.65 7.95 6.6 13.24 11.25 13.9 5.95 1.33 14.55-3.3 27.12-13.9l9.26-6.6c4.63-2 7.28-7.95 8.6-15.22zM219.44 58c1.33 1.98 2 6.6 1.33 11.9-.66 6.62-3.3 10.6-5.96 12.57L193 98.35c-5.3 2.65-8.6 4.63-10.58 3.3-2-.65-4.64-3.3-7.28-8.6-1.33-5.28-3.3-9.9-3.97-15.2V73.2c0-11.9 1.98-18.5 6.6-20.5l13.25.66 10.58 2h5.3c7.27-.67 11.24 0 12.56 2.64z"/><path fill="#D96038" d="M144.7 97.7l-10.6 3.96c-6.6 3.3-11.24 5.96-13.23 7.94-1.32 3.3-.66 7.94 1.32 15.2 1.98 7.3 5.3 11.26 8.6 11.26 1.98.67 6.6-1.98 14.55-7.94 9.26-5.95 18.52-10.58 26.46-13.23-11.24-13.24-20.5-18.53-27.1-17.2z"/><path d="M162.55 102.32c-7.28-5.95-13.23-8.6-18.53-7.94-14.55 5.96-23.15 10.6-25.13 13.9-1.34 2.64-1.34 5.95-1.34 10.58l3.3 10.6c3.32 5.94 6.63 9.24 9.93 9.9 2.64 0 6.6-1.97 13.9-6.6 9.9-7.95 19.17-12.57 27.78-15.22l1.98-2-.66-2.63-11.25-10.58zm-17.2-2.64c5.3-.67 12.57 3.97 21.83 14.55-9.26 2.65-17.2 7.28-25.14 13.9-5.95 3.96-9.92 5.95-11.25 5.95l-5.3-6.62c-1.32-4.63-2.65-9.26-2.65-13.23l.66-2.65 8.62-5.95 13.23-5.95z"/><path fill="#D96038" d="M178.43 101.66c3.3-13.23 1.98-22.5-3.3-27.12l-10.6-11.25c-4.63-3.98-7.94-5.3-10.58-5.3-2.65.66-5.96 3.3-11.9 8.6l-13.24 9.25c-6.6 2.65-7.93 10.6-3.3 22.5 1.98 5.96 13.23 10.58 34.4 12.57l18.53-9.26z"/><path d="M144.02 67.92c5.3-3.97 8.6-6.6 10.6-6.6 2.64-1.34 6.6 1.97 13.22 9.9l5.96 5.3c2.64 1.98 3.97 6.62 3.97 13.23l-1.33 10.6-16.54 7.93-19.85-3.97c-7.93-1.98-11.24-4.62-12.57-6.6-1.32-4.64-1.98-7.95-1.98-11.26-3.3 3.98-4.63 7.94-3.3 13.24 1.98 4.63 7.93 7.94 18.52 10.58l19.18 3.3h1.33l18.52-9.25 1.32-1.32c2.65-15.87 1.33-25.8-3.3-29.77l-5.96-5.94C163.88 58 157.26 54.7 153.3 56c-2.64.67-6.6 3.32-12.56 8.6l-12.57 8.6c-5.96 2-5.96 6.63-2.65 13.24 0-4.63 1.98-6.6 4.63-8.6l13.9-9.92z"/><path fill="#D96038" d="M191.66 114.9l6.62 13.22c4.62 9.27 7.93 14.56 9.92 14.56l15.88-.67c7.27-1.3 11.9-4.6 13.23-7.92 2-3.97.67-9.93-3.3-17.87-3.97-6.6-7.94-11.23-11.25-13.22-1.98-.66-8.6 1.33-17.86 5.3l-13.24 6.6z"/><path d="M189.67 116.22c7.28 17.86 13.23 27.78 17.87 29.1l16.54-.66c8.6-1.98 13.9-5.3 15.87-9.92 2-3.97.67-10.6-3.97-19.2-4.63-7.92-8.6-12.56-11.9-14.54-4.64-2.65-16.54 1.98-33.08 11.9-1.33.67-2 1.33-1.33 3.3zm31.76-10.6c2.65 1.34 5.95 5.3 9.93 11.92 3.3 6.62 5.3 11.9 3.3 15.21-.66 3.3-4.63 4.64-11.24 6.62l-13.9.67c-2.64-.67-7.27-8.6-14.55-23.82 15.2-8.6 23.8-11.9 26.46-10.6z"/><path fill="#D96038" d="M202.9 93.06v21.17l17.2.66L236 110.9c2.65-1.32 3.97-4.63 3.97-7.94l-2.64-13.9c-.65-5.28-3.3-8.6-6.6-9.92l-15.22.67c-5.3.67-8.6 3.3-11.25 7.94l-1.33 5.3z"/><path d="M231.35 76.52c-3.97-1.32-9.26-1.32-16.53 0-5.3 1.32-9.27 3.97-11.9 7.94-2 2.65-2.66 5.3-2.66 8.6v21.17l1.32 1.98 18.53 1.34c7.95 0 13.9-1.33 17.2-3.97 3.32-2.65 5.3-5.95 5.3-9.92l-1.98-13.9v-1.32c-1.33-6.62-4.64-9.93-9.27-11.9zm-25.8 35.06l-.66-18.52 1.97-5.3c1.33-2.64 4.64-4.62 9.27-5.95h13.9c2.64 1.34 3.96 3.32 4.62 7.95l2.65 13.23c0 3.3-.65 4.63-3.3 6.62l-13.23 3.3-15.22-1.32z"/><path fill="#858585" d="M75.22 236.63l5.95 18.52-26.46-2c-19.84 0-37.04 2.66-51.6 8.6l7.3 11.26c5.28 8.6 9.25 17.2 11.23 25.15 5.96 20.52 17.2 35.07 34.4 43.67l-6.6 4.63-15.23-.66L48.1 361c13.9 9.26 29.77 11.9 48.3 7.94 9.25-3.3 17.2-9.26 24.47-17.2 15.22-15.88 19.85-33.74 14.56-54.25 0-6.63-2-14.56-7.28-22.5-10.6-17.2-27.8-29.78-52.93-38.38z"/><path d="M72.57 233.98s-.66 1.32-.66 2.64l5.3 14.55-31.75-1.3c-17.2.64-31.1 3.3-43.67 8.6l-1.98 1.97v1.32l.66 2 7.28 10.57c5.3 8.6 8.6 17.2 10.58 24.5 5.96 19.17 16.54 33.72 32.42 43.65H35.52l-3.97 1.32c-1.32.66-1.32 1.98 0 3.97l15.22 15.87c14.56 9.27 31.1 11.92 50.28 8.6 7.28-3.3 15.22-7.93 22.5-14.55 14.55-13.24 21.17-28.45 21.17-45l-2-15.22c0-7.93-2.63-15.87-7.93-25.13-10.6-17.2-28.45-30.44-54.92-39.04-.66-.64-1.98.02-3.3.68zm-47.63 63.5c-3.3-11.9-8.6-23.15-16.54-34.4 13.23-4.63 29.77-6.6 48.3-6.6l24.47 1.97 2.65-1.32.66-1.98v-.67l-3.3-12.56c20.5 8.6 35.72 19.84 44.32 35.06 4.63 7.94 6.62 14.56 6.62 20.5v.67l1.98 14.56c0 15.22-5.95 28.45-18.52 39.7l-20.5 13.23c-22.5 4.63-39.04-.66-52.28-14.55 6.62.66 11.9-2 15.22-7.28l1.32-1.98v-.67l-1.98-2.64c-15.88-7.27-26.47-21.17-32.42-41.02z"/><path d="M11.04 266.4c-.65 1.3 0 1.98.67 2.65l44.34 22.5c31.75 18.5 52.92 37.04 62.85 56.88 1.3 1.32 1.97 1.98 3.3.66.66-.67 1.3-1.33 0-2.65-10.6-19.85-31.76-39.04-62.86-58.22L13.7 265.07c-2-.66-2.65 0-2.65 1.33z"/><path d="M44.8 263.75c-.68 1.32-.68 2 0 2.65l4.62 6.6 11.9 21.18c0 .66 1.33.66 2.65.66.66 0 .66-1.32.66-2.64l-11.9-20.5-4.63-7.95h-3.3zM19.65 298.15c0 .67.66 1.32 1.98 1.98 16.54 2 33.08 2 49.62.66 1.32-.67 2-2 1.32-2.65 0-1.98 0-1.98-1.32-1.98-16.54 1.98-33.08 1.98-49.62 0-.66-.66-1.32 0-1.98 1.98zM97.7 316.67l-13.22-46.3c-.66-1.33-1.98-2-3.3-1.33-.67.66-1.33 1.32-.67 2.65l13.24 45.63 2 1.33 1.97-2z"/><path d="M47.43 319.32l2 1.98 50.93 1.33 1.32-1.33-1.98-2.64-50.28-1.33c-1.33 0-2 .67-2 2zM105.65 268.38c-1.32 0-1.32 1.32-1.32 1.98l5.95 23.16c3.97 17.86 5.3 32.42 5.96 44.33 0 1.32.66 2.64 1.98 2.64l2-2.65c0-11.9-2.66-27.13-5.97-45l-5.95-23.15c-.66-1.32-1.33-2-2.65-1.32zM71.25 342.48l-1.98 1.98 37.05.67 1.98-1.33-1.98-2.65-35.73-.66c.65 0 1.3.65.65 1.98z"/><path fill="#858585" d="M173.8 456.93l-25.14-23.15c-18.53-15.88-33.08-25.14-42.35-27.13l-16.53 10.6c-11.24 9.9-17.2 19.84-19.18 31.08-1.33 9.93-1.33 21.17.65 32.42.66 10.6.66 18.52 0 23.16 7.94-5.95 13.23-12.56 13.9-20.5l.65 11.24c.67 9.93 3.3 17.86 6.62 25.14 6.62 11.25 8.6 21.83 7.94 31.76l20.5-15.88c15.23-13.23 24.5-28.44 29.78-44.32l2.65 7.93 3.3 11.26c3.96-3.3 7.27-7.95 11.24-13.9 6.62-12.57 8.6-25.8 5.95-39.7z"/><path d="M175.78 454.3l-25.8-23.83c-19.2-15.88-33.08-24.48-42.34-27.13H105L87.12 414.6c-11.25 9.92-17.86 21.82-19.85 33.73-1.32 11.24-1.32 21.83.66 34.4.66 8.6.66 15.88 0 19.85l1.33 3.97c1.32.67 1.98.67 3.3 0l9.93-9.92c1.32 9.25 3.3 17.2 6.6 24.48 5.3 9.93 8.6 19.2 8.6 28.45l-.65 1.33v.66l2 2.64h3.3c5.95-3.3 12.57-8.6 19.84-13.9 13.23-12.56 22.5-25.8 28.44-39.68l2.65 9.92c0 1.98.65 1.98 1.3 2.64l3.32-.66c5.3-3.3 9.26-8.6 12.57-15.2 7.27-12.58 9.25-26.47 5.94-41.03l-.66-1.98zm-5.3 3.95l.67 11.25c0 13.23-3.97 23.82-13.23 34.4L153.3 490c-1.34-1.3-2-1.97-3.32-1.97-2 0-2.65 1.32-2.65 2.65-6.6 20.5-20.5 39.7-43.66 54.9 0-9.26-3.3-18.52-7.94-27.78-4.63-8.6-7.28-18.53-7.28-29.77v-4.64c0-2.65-.66-3.3-2.64-3.3-1.98-.68-3.3 0-3.96 2.63-.67 3.97-2.65 7.94-6.62 13.23v-1.32l-2.65-31.1 1.33-13.9c1.32-9.9 6.6-19.17 15.2-27.77l17.22-11.92c14.55 3.98 35.72 20.52 64.17 48.3z"/><path d="M124.18 443.7l-7.28 26.46c-5.3 20.52-7.94 40.36-8.6 58.88 0 1.33.66 2 1.98 2.65l2-2c0-18.52 3.3-38.37 7.93-58.87l7.28-26.47c.67-.66 0-1.98-.66-2.64-1.32 0-2.64 0-2.64 1.98z"/><path d="M126.16 515.8L115.58 494c-1.33-.68-2-1.35-3.3-.68-.67.67-1.33 1.32-.67 3.3l3.98 6.62 6.6 13.9c.68.66 2 1.32 3.32.66 1.32 0 1.98-.66.66-2zM95.73 481.4c-1.32 1.33-1.32 2 0 2.66 1.98.66 2.65.66 3.3-.67l6.62-8.6c5.3-5.96 9.93-9.27 15.22-10.6l1.32-1.98-.67-1.32-1.32-.66c-5.95 1.32-11.24 4.63-17.85 11.25l-6.62 9.9zM128.15 451.64c-1.33 0-1.33 1.32-1.33 1.98l9.93 34.4c.66 1.32 1.32 2 2.64 1.32 1.32 0 1.32-1.3 1.32-2.64l-9.93-33.74c0-1.32-1.33-1.98-2.65-1.32zM107.64 434.44c-10.6 5.95-18.53 15.2-23.16 28.44 0 .67 0 1.33 1.33 2 1.33.65 2 0 2.65-1.34l5.3-9.92c3.96-6.62 9.92-12.57 15.2-15.2l1.33-2.66c-1.32-1.32-1.98-1.32-2.64-1.32z"/><path fill="#858585" d="M275.68 434.44l-16.54-4.64-47.63 19.85c-4.63 18.53-5.3 37.05-1.98 55.57 1.33 9.27 3.97 16.54 5.96 21.84l7.94-11.25 3.3-3.3 3.97 9.26c3.97 7.28 7.93 13.9 12.56 18.53 6.62 7.27 20.5 15.2 43 23.15-.66-4.64 1.33-11.26 5.96-19.85 4.63-11.26 7.94-19.2 9.27-23.82 1.97-7.28 1.97-16.54 0-28.45l-3.32-14.55c3.96 3.97 9.26 7.28 18.52 9.92l-4.63-13.9c-2-6.6-5.96-13.9-11.25-21.16-4.63-6.62-13.23-12.57-25.14-17.2z"/><path d="M259.8 426.5l-2.64.66-46.32 19.18-2.64 2c-4.64 19.18-5.3 38.36-2 57.54 1.34 8.6 3.32 16.54 6.63 23.16l2.65 1.33 2.64-1.33 7.94-10.58c4.63 9.92 9.26 17.86 14.56 23.8 6.6 7.96 21.83 15.9 44.32 24.5h2.65l1.97-3.3v-1.34c0-4.63 2-11.25 6.62-19.85 4.62-9.26 7.26-16.54 8.6-21.83l1.3-12.57c0-7.27-.65-14.55-2.64-23.15 3.3 1.98 6.62 3.3 12.57 5.3l3.3-.68.67-3.3-2.64-7.28c-3.3-10.58-7.28-19.85-13.9-28.45-4.63-7.93-13.9-13.88-26.46-18.5l-17.2-5.3zm-48.95 56.9c0-10.6 1.32-21.18 3.3-31.76l45-18.53c19.84 4.65 33.07 11.27 39.68 20.52 5.3 7.94 9.27 17.2 11.9 27.13l.68.66-10.58-7.26c-.66-1.33-2-1.33-3.97-.67-1.33.67-1.98 1.33-1.98 3.3l.65.68 2 9.92 1.97 20.5-1.33 11.25c-1.32 4.64-3.97 11.25-7.94 19.85-3.97 7.94-6.6 15.22-6.6 19.85-19.86-7.94-33.1-15.2-38.38-21.17-3.97-3.97-7.28-10.58-11.25-17.2l-3.97-9.26-2.65-2-3.3.66-7.28 10.6c-3.97-11.93-5.95-24.5-5.95-37.07z"/><path d="M234.66 447l12.57 13.9c8.6 11.9 13.9 21.83 16.54 31.75l4.63 24.5c2 11.9 4.63 21.8 7.28 30.42.66 1.32 1.32 1.32 2.65 1.32 1.98 0 1.98-1.33 1.32-2.66-3.3-8.6-5.96-18.52-7.28-29.77l-5.3-25.14c-2.64-9.92-7.93-20.5-16.53-31.76l-12.57-15.2c-.66-.67-2-.67-3.3 0-.67.65-.67 1.97 0 2.64z"/><path d="M263.77 535l6.62-25.8c.65-2 0-2.65-.68-3.32-1.32 0-2.64 0-2.64 1.33l-7.28 27.14c0 1.3.66 2.64 1.32 2.64l2.65-1.98z"/><path d="M267.08 504.57l7.94 5.95c5.3 5.3 9.92 9.93 11.9 13.9l3.3.65.68-2.65c-2.65-4.62-7.28-9.92-13.23-14.55l-8.6-6.6h-2.65c-.67 1.3-.67 2.64.66 3.3zM247.23 518.46l13.23-41.68c.66-.67 0-1.98-.66-2.64-1.32-.67-2.65-.67-2.65 1.3l-13.23 41.7c-.66 1.98 0 2.64.67 3.3l2.63-1.98zM253.2 467.52c0 .66 0 1.98 1.3 2.65l11.92 4.63c8.6 3.96 15.87 8.6 21.17 13.23 1.3 1.98 1.97 1.98 2.64 0 .66-.66.66-1.33 0-2-5.96-5.94-13.23-10.57-22.5-15.2l-11.9-4.64c-1.33 0-2 0-2.65 1.32zM243.26 454.3l-5.3 12.55c-3.96 9.26-5.94 17.2-7.27 23.82 0 1.32 0 2.65 1.98 2.65.66 0 1.32 0 1.98-2 1.32-6.6 3.3-14.54 6.62-23.8l5.3-11.25-.67-2.65c-1.3-.66-1.97 0-2.64.67z"/><path fill="#858585" d="M341.18 306.1l-37.05 9.26c-5.3 1.97-11.25 5.95-18.53 12.56l-9.26 9.26 7.28 64.18c13.23 7.94 27.8 12.57 44.33 15.2l21.17.68-6.62-8.6 31.76-9.93-1.33-70.1c-8.6-3.32-17.86-5.3-27.78-7.3l-13.23-.66c3.3-3.3 6.6-7.93 9.26-14.55z"/><path d="M339.85 302.78l-36.38 9.93c-5.96 2-12.57 5.96-19.85 12.58l-9.93 9.26c-.67.66-.67 1.32-.67 2.64l7.28 64.18 2 2.65c13.22 7.95 27.78 13.24 44.32 15.88l22.5.67 2.64-2 .66-1.3-.66-2-4.63-4.63 27.78-8.6 2.66-3.3-1.32-70.8-1.98-2.64c-11.9-3.97-23.82-7.28-35.73-7.95l5.3-9.92v-1.3l-.67-2-3.3-1.32zm-11.25 17.86v.67l2.65 2.65 11.9.67 26.47 6.6 1.33 65.5-29.77 8.6c-1.33 0-2 1.33-2 2v1.32l.67 1.98 2.65 3.3c-21.17 0-39.7-5.28-55.57-14.55l-7.28-61.52c9.26-9.93 17.2-16.55 25.8-19.2l29.77-7.27-5.3 6.62-1.3 2.64z"/><path d="M291.56 364.3c-1.32 0-1.32.67-1.32 2.65 0 1.33 1.32 1.33 2.64 1.33l31.76-5.95L382.2 361l1.98-1.98c.66-1.32 0-2-1.32-2l-57.56 1.34-33.74 5.95z"/><path d="M361.7 335.86c-7.95 1.98-15.23 5.96-22.5 11.9l-9.27 9.93c-.66 1.32-.66 2.64 0 3.3l3.3-.66 8.6-9.26c6.63-5.95 13.9-9.93 21.18-11.25l1.34-2.65c0-1.32-1.33-1.98-2.65-1.32z"/><path d="M365.65 384.16l-37.7-25.14c-1.33-1.33-1.33-1.33-2.65 0-1.32 1.3-.66 1.98.66 2.64l12.57 9.93c9.26 7.26 17.86 12.55 25.8 15.86.66.67 2 0 2-.66l-.68-2.64zM327.28 333.2c-5.3 2.66-13.23 8.62-23.15 17.88L290.9 364.3c-.66.67-.66 1.33 0 2.65 1.32.67 2.65.67 3.3 0l12.58-12.56c9.26-9.27 16.54-15.23 22.5-17.22l.65-2.64c0-1.33-1.32-2-2.65-1.33zM307.44 382.17l28.44 15.22 2-2c.65-.65.65-1.32-1.33-1.98l-26.47-14.55c-.66-1.33-1.98-.66-3.3.66 0 1.32 0 1.32.66 2.64z"/><path fill="#858585" d="M277 273l2-6.6c-2.66.66-5.97 1.98-9.28 3.96l-3.97 3.3c1.33-5.28 1.33-15.2-.65-27.77l-3.3-17.22c-4 3.3-12.6 7.94-25.82 13.24-12.57 5.95-22.5 11.9-28.44 18.52-7.28 7.94-12.57 17.86-15.22 31.76-1.33 6.62-2 12.57-2 18.52l51.62 17.2c9.26-3.3 17.2-8.6 23.15-16.54 5.28-7.28 7.93-14.55 8.6-21.83 0-5.3 1.32-10.58 3.3-16.54z"/><path d="M279.65 275l1.98-6.62-.66-3.3-2.64-2c-2.65.67-5.96 2-8.6 3.97v-3.96l-2.65-23.17-2.65-12.57-1.32-1.98h-3.3c-3.97 3.3-11.25 7.94-21.83 11.9-15.22 6.62-26.47 13.9-33.08 21.17-7.3 7.3-13.24 17.87-15.9 32.42-1.3 7.28-1.98 13.9-1.98 19.85 0 1.33.67 2 2 2.65l51.6 17.86h2.64c9.92-3.3 18.52-9.93 24.48-19.18 5.95-7.3 8.6-14.57 9.26-22.5l2.65-14.55zm-17.2-2v.67l1.32 3.3 3.3-.65 6.63-3.97-3.3 16.54c-.68 6.6-3.32 12.56-7.3 19.18-5.94 7.28-12.56 13.23-21.82 16.53l-47.64-16.52c.66-20.52 6.62-35.73 15.88-45 6.62-6.6 17.2-13.22 31.1-19.84l19.18-9.92c2 12.57 3.3 21.83 3.3 29.77l-.65 9.9z"/><path d="M252.52 246.55l-8.6 15.88c-5.95 12.56-9.92 23.8-11.25 34.4-.65 1.32 0 2 1.33 2 1.32.64 1.98 0 1.98-1.35 2-10.58 5.96-21.16 11.25-33.73l8.6-15.22-.66-2.64c-1.32-.68-1.98-.68-2.65.65z"/><path d="M228.05 261.76c-.67.67-2 0-2-.66l8.6 25.14 2.66 2 2-3.32-9.93-25.14-1.32 1.98z"/><path fill="#D96038" d="M200.26 303.44L194.3 316c13.24 13.24 29.78 21.18 46.98 23.17l22.5-1.33c3.3-13.9 3.3-22.48 1.98-25.13-7.94-13.23-14.56-21.17-19.2-23.8-4.62-2-9.25-3.32-15.2-3.98-7.28-1.33-13.24 0-17.2 1.98-3.98 2-9.27 7.94-13.9 16.54z"/><path d="M198.28 300.8c-2.65 5.3-4.64 9.92-6.62 13.9-.66 1.3-.66 2.63.66 3.3 14.55 13.23 30.43 21.17 48.3 23.82l24.47-1.33 1.98-2c2.64-14.55 3.3-23.8.66-27.12l-3.3-4.63c-7.3-11.9-13.24-18.52-16.55-20.5-4.64-2-10.6-3.32-16.55-3.98-7.28-.66-13.9 0-18.52 2.65-4.63 1.98-9.26 7.28-14.56 15.87zm16.53-11.9l16.55-1.34c5.3.67 9.93 2 14.56 3.98 2 1.32 7.3 7.28 14.56 17.86l3.3 5.3v3.3l-1.97 17.86c-7.95 1.98-15.23 1.32-24.5-.66-14.55-2.64-27.78-9.26-39.68-19.85 6.6-14.56 12.56-23.8 17.2-26.46z"/><path fill="#D96038" d="M125.5 301.46c-3.97 3.3-6.6 7.28-8.6 11.25-2.65 7.28-2.65 15.22 1.32 25.15 15.22 3.97 34.4 2.64 56.9-5.95 11.9-3.98 21.83-7.95 29.77-13.23-5.96-17.2-11.92-27.13-17.2-30.44-3.98-2.64-13.24-3.98-25.8-4.63-13.24 0-21.85 2.64-25.15 6.6l-11.25 11.26z"/><path d="M134.76 288.23l-8.6 9.25c-5.95 4.64-9.92 9.93-11.9 13.9-3.32 7.94-2.65 16.54 1.32 27.8l1.98 1.3c15.88 3.98 34.4 2 57.56-5.95 11.9-3.3 22.5-8.6 31.75-13.23.67-.66 1.33-1.98.67-3.3-6.62-18.53-12.57-29.1-17.87-31.76-5.3-3.3-14.55-4.63-27.78-4.63-13.9 0-23.17 2-27.14 6.63zm-15.87 25.8c1.97-3.3 5.28-7.94 10.57-12.57l9.26-9.92c3.3-3.3 11.25-5.3 23.82-5.3 11.9.66 19.85 2 24.48 4.63 3.3 1.33 7.94 10.6 14.56 26.46-9.28 5.3-20.52 10.6-32.43 13.9-19.2 6.62-35.73 7.28-48.96 3.97-1.3-4.64-2.64-9.92-2.64-13.23l1.33-7.95z"/><path fill="#D96038" d="M103 334.54c-11.9 5.3-18.52 11.25-21.83 19.18l-8.6 19.85c-3.97 7.28-5.3 13.23-5.3 16.54 0 3.98.67 7.3 3.32 11.26 1.97 2.65 5.28 6.62 10.57 10.6l27.8 16.53 13.22-2c9.26-4.63 15.2-12.57 19.18-25.14 3.3-11.25 2.64-26.46-1.33-44.33l-7.93-23.8c-6.62-5.3-16.54-4.64-29.1 1.3z"/><path d="M144.02 402.02c3.97-11.9 3.3-27.12-1.32-45-2.65-12.56-5.3-21.16-8.6-25.12v-.67c-6.62-4.63-14.55-5.3-23.82-2.64-6.6 2.63-13.23 5.94-19.18 9.9-6.62 5.3-10.6 9.27-11.9 13.9l-5.96 12.57c-5.96 12.57-8.6 20.5-8.6 25.14 0 4.65 1.32 8.6 3.3 11.92 2.65 3.97 6.62 7.94 11.9 11.9l27.8 16.55 1.32.66 13.9-3.3c10.58-3.98 17.86-12.58 21.16-25.8zm-32.4-68.15l18.5.67c7.3 19.18 10.6 35.72 10.6 49.62 0 6.6 0 11.9-2 16.53-4.62 16.53-14.54 25.13-29.76 25.13l-25.8-15.88-10.6-9.92c-1.3-2.64-2.63-5.95-2.63-9.92 0-3.96 2.64-11.24 7.93-22.48l5.96-13.23c1.32-3.32 4.63-7.3 9.92-11.26 5.3-4.63 11.9-7.28 17.87-9.27z"/><path fill="#D96038" d="M202.9 447.67c-1.98-13.9-13.9-23.82-35.06-31.1-17.2-5.95-32.42-7.93-44.33-5.95-8.6.67-16.53 3.97-24.46 9.92-7.94 5.95-11.25 11.25-11.25 16.54 0 3.98 2.63 7.94 6.6 11.25l13.23 8.6 9.27 9.93c1.98 2.64 6.6 4.63 11.9 5.94l31.1 5.3c14.55 2 23.82 2 27.8 0 6.6-2 11.9-11.9 15.2-30.43z"/><path d="M205.56 447.67c-2-14.56-14.56-25.8-35.73-33.74-18.53-5.95-33.74-7.94-46.97-6.62-8.6 1.34-17.2 4.65-25.15 11.26-8.58 5.96-13.22 11.9-12.55 18.52.66 3.98 1.98 7.28 5.3 10.6l15.87 11.9 5.95 6.6c4.63 4.65 9.93 7.3 15.88 9.27l29.77 4.64c15.88 2.63 26.46 2.63 31.1.65 7.27-2.65 11.9-13.23 16.54-32.42v-.66zm-18.53 28.44c-3.3.68-12.57.68-25.8-.65l-31.76-5.3c-5.3-.65-9.26-3.3-12.57-7.27l-7.28-7.93-15.2-10.6c-2.66-1.98-3.32-4.63-3.98-7.27 0-4.63 3.3-9.26 10.58-14.55 6.62-5.3 14.56-8.6 22.5-9.27 11.9-1.98 26.46 0 43.66 5.3 19.85 6.6 31.1 16.54 33.08 29.1-3.97 17.2-8.6 26.48-13.23 28.45z"/><path fill="#D96038" d="M265.75 405.33l-31.1-2c-6.6 0-12.56 4.65-19.84 14.57-5.94 8.6-9.9 15.88-11.23 23.82-2 6.6-2.65 12.57-2 16.53 1.33 4.63 3.32 8.6 8.6 11.25 3.98 2.64 13.9 3.97 28.46 4.64l25.8-2.65c2.65-1.34 5.96-6.63 11.25-16.55l7.28-17.87c.66-3.3-1.98-9.25-7.94-18.52l-9.26-13.23z"/><path d="M267.74 404l-1.32-.66L234 400.7c-6.62 0-13.23 5.95-20.5 15.87-6.63 7.95-10.6 16.54-12.58 24.48-1.98 6.62-2.64 12.57-1.98 16.54.66 5.94 3.97 10.58 9.26 13.9 5.3 2.63 15.22 5.28 29.77 5.28l27.8-2.65c3.3-1.33 7.26-7.28 11.9-17.87l7.94-19.18c1.33-3.97-4.63-15.2-17.86-33.08zm-63.5 54.25c-.67-3.96 0-8.6 1.32-15.88 1.98-7.27 5.3-15.2 11.9-23.15 6.62-8.6 12.57-13.23 17.2-13.9l29.77 2.66c10.6 14.55 15.88 23.8 15.88 27.78v.66l-7.27 17.87c-4.63 9.24-7.27 13.88-9.92 15.2l-24.47 1.98c-14.56-.65-23.15-2-27.8-4.63-3.3-1.98-5.94-5.3-6.6-8.6z"/><path fill="#D96038" d="M236.65 373.57c3.97 17.2 10.58 30.43 19.84 39.7 7.27 6.6 15.87 10.58 23.8 10.58 6.62 0 12.58-1.98 16.55-6.62l11.9-13.23c4.64-5.95 7.95-9.92 8.6-13.9 1.33-3.3.67-7.27-.65-10.57l-6.62-8.6-7.94-23.16c-3.96-6.62-11.24-12.56-21.83-17.86l-23.14-1.3-13.23 3.3c-9.27 8.6-11.9 21.82-7.28 41.67z"/><path d="M243.26 329.9l-1.32.66c-5.95 5.3-9.92 13.9-10.58 25.8 0 10.6 2.64 21.85 7.27 33.75 4.63 10.6 9.93 19.2 15.88 24.5 9.27 8.58 18.53 12.56 28.46 11.9 5.95 0 11.25-2.65 15.87-7.28l5.3-6.62c9.92-10.58 15.2-17.85 15.88-21.83 2-5.3 0-10.6-4.63-17.2l-2.64-3.97c-1.32-1.98-2.65-5.3-3.3-9.27l-5.3-13.9c-3.97-7.26-11.9-13.88-23.16-18.5l-23.8-2-13.9 3.97zm.67 58.23c-4.64-10.6-6.62-21.18-6.62-31.1v-.66c0-9.93 3.32-17.2 7.95-21.83l13.9-3.3 19.84.65 13.22 8.6c3.3 1.98 5.3 4.63 7.94 8.6l7.94 23.15 6.6 9.92c1.33 2.65 1.33 5.3.67 7.27-1.32 3.97-5.95 10.6-15.2 19.2l-5.97 6.6c-2.64 3.32-7.27 5.3-11.9 5.96-7.94 0-15.88-3.3-24.48-10.58-4.63-4.63-9.92-12.56-13.9-22.5z"/><path fill="#D96038" d="M174.46 323.3c-7.28-5.3-16.54-7.28-27.8-4.64-9.25 1.98-16.53 5.3-21.16 9.93-4.63 5.27-9.26 11.9-13.23 21.8-5.3 10.6-7.94 18.54-6.62 25.16.67 5.3 3.3 11.24 7.94 15.2l6.6 5.96 22.5-3.3c15.88-4.63 27.8-11.9 33.08-21.83 5.3-9.93 7.28-20.52 4.63-33.1l-5.94-15.2z"/><path d="M176.44 321.97l-1.32-.66c-7.28-5.94-17.2-7.27-28.45-5.28-10.58 1.98-17.86 5.3-23.16 10.58-4.6 4.63-9.25 12.57-14.54 22.5-4.63 11.24-6.6 19.84-5.95 27.12 1.33 9.92 6.62 17.86 15.9 22.5h1.3l23.82-3.32c17.2-4.63 27.8-11.9 33.74-21.83 5.96-10.6 7.28-22.5 5.3-35.06l-6.62-16.53zm-2.65 48.95c-5.3 8.6-15.22 14.56-29.78 19.2l-23.15 3.96c-7.28-4.63-11.9-10.6-13.23-19.18v-2c0-5.95 2.64-13.88 7.27-23.8 4-7.94 8.6-14.56 12.58-18.53 3.98-4.63 9.93-7.94 19.2-9.26 10.58-2.63 18.52-.66 25.13 3.98 4.64 8.6 6.63 16.54 6.63 25.14 0 7.27-1.33 13.9-4.64 20.5z"/><path fill="#D96038" d="M149.32 440.4c3.96 1.32 9.92 0 18.52-5.3l7.28-31.1-10.6-14.55c-8.6-9.27-16.53-13.9-23.8-13.9l-13.24 5.96c-9.26 4.64-15.2 8.6-16.53 11.9-2 2.66-2 7.3-2 11.93l3.32 9.92c1.32 1.98 6.62 5.96 16.54 12.57l20.52 12.57z"/><path d="M177.77 402.68l-11.9-15.21c-8.6-9.93-17.88-14.56-25.82-13.9l-15.2 6.6c-9.27 4-13.9 7.96-15.9 11.27-1.97 3.97-3.3 8.6-1.97 14.55.66 4.62 1.32 7.93 3.3 11.24.67 1.32 7.28 6.6 17.87 13.23l19.84 11.9c5.3 2 11.9.66 20.5-4.62l1.33-1.33 7.94-31.75v-2zm-4.64 1.32l-7.93 29.78c-7.28 3.97-11.9 5.3-14.56 3.97L130.8 426.5c-9.93-6.62-15.22-10.6-16.55-12.57-1.98-3.98-2.64-8.6-2.64-12.57 0-2.64.67-4.64 2-7.28 1.97-3.3 10.57-8.6 27.1-15.87 9.28 0 19.86 8.6 32.43 25.8z"/><path fill="#D96038" d="M206.87 395.4c-10.58.66-21.16 4.63-32.4 11.25-5.97 3.3-9.94 6.6-13.9 9.26l-.67 10.6c-.66 7.28 0 11.9.66 14.56 1.33 5.95 11.25 9.92 29.77 13.23 3.98 1.3 13.24-1.34 27.13-7.3l23.16-12.56c2.64-2.65 3.3-7.28 3.3-13.9v-9.92l-9.92-7.94c-7.94-5.3-17.2-7.28-27.13-7.28z"/><path d="M206.87 393.42c-10.58.66-21.83 3.97-33.08 10.58-6.62 3.3-11.9 6.62-15.22 9.93l-.66 1.32-.67 11.9c-.66 6.63 0 11.92.67 14.57 2.64 6.6 13.23 11.9 32.4 15.2 3.98 1.34 13.9-1.3 27.8-7.27 13.9-5.95 22.5-9.92 25.14-13.23 3.3-4.63 4.63-12.57 3.3-25.8l-.65-1.98-9.92-7.94c-9.26-5.95-18.52-7.94-29.1-7.28zM191 451.63L173.13 447c-5.95-2.64-9.26-4.62-9.92-6.6l-1.3-8.6 1.3-14.57c14.57-11.9 29.12-18.52 43.68-19.18 8.6 0 16.54 1.98 23.8 5.95 3.98 2 7.95 4.64 10.6 7.94v5.3c0 7.93-.66 13.22-2 15.87-2.63 2-9.9 5.97-22.48 11.26-13.9 5.95-22.5 8.6-25.8 7.28z"/><path fill="#D96038" d="M251.2 353.06l-8.6 3.3-5.3 12.58c-3.3 11.24-4.63 21.83-3.3 31.76 3.3 17.2 12.57 23.82 28.44 20.5 3.3-.65 6.62-4.63 9.93-11.9l5.3-17.86c2.64-10.6 3.96-18.53 3.3-23.82 0-3.97-.66-7.28-3.3-9.92l-10.6-5.3-15.87.66z"/><path d="M239.95 355.05c-1.98 2.64-3.97 7.93-5.95 13.9-3.3 11.23-3.3 21.82-1.98 31.75 1.32 9.92 5.3 17.2 11.24 20.5 4.64 3.98 11.25 4.64 19.85 2.65 3.98-.66 7.95-5.95 11.26-13.23 3.3-6.6 5.3-13.23 5.95-19.18l3.32-23.82c0-5.3-.66-8.6-3.97-11.25-1.98-1.98-5.95-3.97-11.25-5.95-7.27-3.3-15.88-1.98-27.78 3.97l-.67.65zm-2.64 44.98l-.65-9.26c0-7.28.66-15.2 3.3-22.5 1.33-3.96 2.65-7.27 3.98-9.9 10.58-4 17.86-5.97 22.5-4 4.62 2.66 7.93 4.65 9.9 5.96 1.34 1.33 2.66 3.98 2.66 7.3l-3.98 23.8c-.66 5.3-1.98 10.6-4.63 16.55-3.32 6.6-6.63 9.92-9.27 10.58-5.96 1.98-11.25 1.3-15.22-1.33-4.62-3.3-7.93-9.25-8.6-17.2z"/><path fill="#D96038" d="M171.15 313.37c-3.3 1.98-5.95 4.63-7.28 6.6-1.98 2.66-2.64 6.63-2.64 11.26 0 7.28 1.32 13.9 3.3 19.85 7.94 4.63 20.5 9.92 39.7 13.9 19.85 4.62 32.42 3.96 36.4-.67 4.62-5.28 7.26-11.9 9.25-19.84.66-6.6.66-11.9-.66-15.87-2-2.66-6.62-6.63-14.56-10.6-7.28-3.98-14.55-6.62-20.5-8.6L191 308.07c-9.93 1.33-16.54 3.3-19.85 5.3z"/><path d="M170.5 311.38c-4.64 2.65-7.3 5.3-8.6 7.28-2 3.3-3.32 7.28-3.32 12.57 0 7.94 1.98 14.56 3.97 20.5l.66 1.33c7.95 5.3 21.18 10.58 40.37 14.56l39.7-2c4.62-5.28 7.27-11.9 9.25-20.5 1.33-7.27 1.33-13.9-1.32-17.2-1.32-3.97-7.27-7.94-15.22-12.56-7.93-3.98-15.2-7.28-21.83-8.6l-23.8-.67c-9.94 1.3-16.56 2.64-19.86 5.28zm20.5 0l22.5.67c6.6 1.98 13.22 3.97 20.5 8.6 6.62 3.96 11.25 7.27 12.57 9.92 1.32 2.64 1.32 7.28.66 13.9-1.32 7.27-3.97 13.22-7.94 17.85-3.32 4.63-15.22 4.63-33.75 0-17.86-3.3-31.1-7.93-38.37-13.23-1.98-5.96-2.65-11.92-3.3-17.87 0-3.97.65-7.28 2.64-9.92l6.6-5.94c3.32-2 8.62-3.3 17.88-3.98z"/><path fill="#D96038" d="M224.74 400.7l7.27-15.22c3.98-10.58 2-18.53-3.96-24.48-7.27-6.6-17.2-10.6-28.44-12.57-11.9-1.33-21.84 0-28.45 5.3-11.25 7.27-18.53 12.56-21.17 17.2-5.96 7.28-5.96 15.2 1.32 23.15 6.62 7.28 15.2 13.23 25.14 15.87l13.23 1.33 35.07-10.58z"/><path d="M225.4 403.34l1.32-1.32c3.97-4.63 6.62-10.58 7.94-16.54 3.3-11.25 1.98-20.5-4.63-26.46-8.6-7.28-18.53-11.25-30.44-13.23-11.9-1.34-22.5 0-29.78 5.28l-1.98.66-15.88 11.9c-5.3 4.64-7.94 10.6-8.6 15.23-1.32 5.3.66 11.24 5.96 16.54 7.27 8.6 15.2 13.9 25.8 16.55l14.55 1.98H191l34.4-10.6zm.66-40.36c3.3 2.65 4.63 7.28 4.63 11.92 0 7.27-2.65 15.2-7.95 23.15l-33.07 10.6c-15.22 0-26.47-5.3-36.4-16.55-3.96-4.64-5.28-8.6-5.28-12.58.66-3.96 3.3-8.6 8.6-12.57l15.88-11.9c7.27-3.97 15.87-5.96 27.12-3.97 10.58 1.32 19.84 5.95 26.46 11.9z"/><path d="M192.98 355.05c-1.32 0-1.98.66-1.98 2.64l.66 44.32c0 1.32 1.32 1.98 2.65 1.98l2-1.98-1.33-44.33-2-2.65zM210.85 357.7c-1.33 0-2 .66-2 1.97l.67 39.7c0 1.32.66 2 2 2l1.97-2-.67-39.7-1.98-1.98zM175.12 358.36c-.66 0-1.32.66-1.32 1.98l.66 39.7c0 1.32 0 1.98 1.98 1.98l1.33-2v-39.68l-2.65-1.98z"/><path fill="#D96038" d="M147.33 343.8c-3.3 2-6.6 8.6-11.9 20.5-4.64 13.24-6.62 23.17-4.64 28.46 1.32 5.3 6.6 8.6 14.55 9.92l11.9.66c-1.3-6.62-.66-13.23.67-19.85 3.97-13.24 13.23-21.83 29.1-23.16-5.95-9.26-11.9-15.2-18.52-16.54-10.58-2.65-17.2-2.65-21.17 0z"/><path d="M189 361v-2.64c-5.94-9.27-12.56-15.22-19.83-17.2-11.25-3.3-18.53-2.65-23.82 0-3.3 2.64-6.62 9.92-11.9 22.48-5.3 13.9-6.63 23.82-5.3 29.77 1.98 6.63 7.27 9.94 15.87 11.27l13.23.66 1.33-.66 1.32-2c-.66-2.64-1.32-5.95-.66-9.92.66-7.27 2.65-13.9 5.96-18.52 5.3-6.6 12.57-9.92 21.83-11.9L189 361zm-40.34-15.2l19.18.64c5.3 1.33 9.93 5.3 14.56 11.92-9.26 2.64-17.2 6.6-21.17 12.56-4.63 6.62-7.28 14.56-7.28 25.14v4.63c-11.9 0-19.2-3.3-20.5-9.26-2-4.64 0-13.9 5.28-26.47 3.97-10.58 7.94-17.2 9.93-19.18z"/><path fill="#D96038" d="M194.3 401.36l-31.75-11.26-8.6.67c-2.65 1.33-3.3 4.63-3.97 9.93-.66 5.95 0 9.92 1.32 13.23l10.6 9.92c5.28 3.3 9.25 5.95 12.56 6.6l14.55-2.63c7.3-1.33 12.58-4.64 15.23-9.26 3.3-3.97 3.3-7.28 0-11.25-1.98-1.3-5.3-3.3-9.92-5.94z"/><path d="M194.97 398.7l-21.84-7.93c-9.92-3.97-17.2-5.3-21.17-2.64-2.64 1.98-3.97 5.95-4.63 12.56-.66 5.95 0 10.6 1.33 13.9 1.98 3.3 5.95 7.27 11.9 11.9 5.96 3.96 10.6 5.95 13.9 6.6l15.2-2.64c7.95-1.98 13.9-5.3 17.2-9.92 2.66-3.3 3.32-5.95 2.66-9.26-1.32-3.97-5.95-7.94-14.55-12.57zm-43 2.66c.66-4.64 1.98-7.28 3.3-8.6 2.65-1.32 7.28-.66 15.88 2.64l.66.66L193 404c7.28 3.3 10.6 6.62 11.25 8.6l-1.33 4.63c-3.3 3.98-7.93 6.62-14.55 7.94l-13.9 2c-2.64 0-5.95-2-11.24-5.96l-9.25-9.26c-1.98-2-1.98-5.3-1.98-10.58z"/><path fill="#D96038" d="M225.4 370.26c1.32 3.3.66 7.28-1.32 11.26-2.65 7.27-10.6 15.2-23.16 23.15 12.57 5.28 25.14 5.95 36.4 1.98 8.6-2.65 15.87-7.94 20.5-14.55 3.3-3.97 3.3-10.58 0-19.2-3.3-8.6-6.62-13.88-10.6-15.2-3.3-2-7.26-2-12.56 0-3.97 1.32-7.27 3.3-8.6 5.28-1.32 1.33-1.32 3.97-.66 7.28z"/><path d="M256.5 364.3c-2.65-5.28-5.96-7.93-8.6-9.25-3.98-1.33-7.95-1.33-13.9 0-4.63 1.98-7.94 3.3-9.93 5.95-1.32 1.98-1.98 4.63-1.32 7.94.66 4.63.66 8.6-1.32 11.9-2 6.62-9.93 13.9-22.5 21.84-1.32.66-1.32 1.32-1.32 2 0 1.3.68 2.63 2 2.63 15.2 6.63 29.77 6.63 43 0 7.28-3.3 13.23-7.27 17.86-13.22 2.65-3.3 3.3-8.6 1.98-15.87-1.3-4.63-2.64-9.26-5.95-13.9zm-29.12 0l8.6-3.96c3.98-1.98 7.28-1.98 9.93 0 1.33.66 3.98 2.64 5.97 6.6 2.64 3.98 4.63 7.96 5.3 12.58.65 5.3.65 9.27-.67 11.25-3.3 3.98-8.6 7.94-15.22 10.6-10.6 5.94-22.5 5.94-34.4 2.63 10.58-8.6 17.2-15.2 19.85-21.83l1.98-7.94-1.3-8.6-.02-1.32z"/><path fill="#D96038" d="M231.35 348.44c0-4.64-.66-7.95-2.64-9.93l-9.92-5.95c-5.3-2-9.26-3.3-11.9-3.3-5.3 0-10.6 1.98-17.2 5.3l-7.28 2.63c-2.65.67-5.3 2-7.94 3.97-3.3 2.65-3.97 9.93-3.3 22.5l8.6-2.65 17.85-1.32c8.6.66 17.2 2.64 27.14 7.27 4.63-6.6 5.95-12.56 6.6-18.5z"/><path d="M224.08 368.94c.66 1.32 1.98 1.32 3.3-.66 3.98-7.28 6.62-13.9 6.62-20.5 0-5.3-.66-8.6-3.3-10.6l-10.6-6.62-13.23-3.96c-5.3 0-11.9 1.98-18.52 5.95l-5.3 1.98c-4.62.67-7.93 2.65-9.9 3.98-2 2.65-3.98 6.62-4.64 13.24l-.66 11.9c0 .67.67 1.33 1.33 2h1.98l9.26-2 17.2-1.32c8.6 0 16.55 2.66 26.48 6.62zm-6.62-33.74l9.26 5.3 2 7.27c0 3.97-1.34 9.92-5.3 15.87-9.27-3.96-17.2-5.95-25.8-6.6l-24.5 3.3c0-9.26 1.34-15.2 3.98-17.86.67-1.32 3.3-2 7.28-3.3l6.62-2c5.95-3.3 10.58-5.28 15.87-5.28 2 0 5.96.66 10.6 3.3z"/><path fill="#D96038" d="M173.13 125.47c9.93-1.3 17.87-3.3 24.48-5.95 7.95-3.97 11.92-8.6 13.24-13.9.66-5.95.66-10.58-.66-14.54-1.98-3.97-3.3-5.96-5.95-5.96-1.98.66-4.63 2.65-9.26 5.96-3.98 3.3-6.62 5.3-8.6 5.3-5.96.65-11.9-2-17.87-7.95-2.64-2.65-5.3-3.3-7.94-2-3.3.68-5.95 4.65-7.28 9.94-1.98 5.95 0 12.56 6.62 19.85 5.3 6.6 9.92 9.92 13.23 9.25z"/><path d="M203.57 83.14c-2.65 0-5.96 1.32-9.27 5.3l-8.6 5.3c-4.63.65-9.92-2-15.2-7.3-3.32-3.3-6.63-4.63-9.94-3.3-3.97 1.32-7.28 5.3-9.92 13.23-2.65 6.6 0 13.23 6.6 21.17 5.97 7.27 11.26 11.24 15.9 10.58 24.47-3.3 37.7-10.58 40.35-21.83 1.3-9.93.65-16.55-3.98-21.18-1.98-1.98-3.3-2.65-5.95-1.98zm.66 4.63s.66 0 1.98.66c1.34 2.65 2 5.95 2 10.58l-.66 5.97c0 4.63-3.97 7.94-9.93 11.24-6.6 3.32-14.54 5.3-24.47 6.63l-5.3-1.98-6.6-6.62c-5.96-6.6-7.28-12.57-5.96-16.54 1.98-5.96 4.63-9.27 6.62-9.93l5.28 1.98c6.62 6.62 13.23 9.92 19.2 9.26 1.97-.65 6.6-2.63 11.23-6.6l6.63-4.63z"/><path stroke-miterlimit="100" d="M364.58 579.58H7.42V7.42h357.16v572.16z" fill="none" stroke="#000" stroke-width="14.84"/></svg>