<svg xmlns="http://www.w3.org/2000/svg" height="100%" viewBox="0 0 372 587"><path fill="#fffaf0" d="M0 0h372v587H0z"/><path fill="#858585" d="M199.06 213.85l21.08 7.25 20.43-1.32c7.25-3.3 14.5-9.88 21.74-19.77l8.57-14.48h-14.5l-24.37.66c-7.24 1.98-14.5 7.25-23.05 15.15-3.96 4.6-7.25 8.57-9.88 12.52z"/><path d="M272.85 183.54h-13.82c-11.2-1.97-20.43-1.97-27.67 0s-15.8 7.25-23.72 16.47c-3.95 3.97-7.25 7.92-10.54 12.53v1.98l1.3 1.98 16.48 5.27 11.2 3.3c4.6.66 9.22-.66 15.15-2.64 12.5-5.92 23.06-17.77 32.28-35.56l-.65-3.3zm-14.5 4.62l7.9.65c-8.55 15.17-18.43 24.4-27.66 29l-11.87 1.98c-2.63 0-5.93-1.32-9.88-3.3l-13.18-4.6c10.55-13.2 20.43-20.43 29.65-23.07 5.93-1.96 14.5-1.96 25.04-.64z"/><path d="M254.4 193.43l-2.63-1.32c-7.9 5.28-19.1 9.23-33.6 13.18l-19.1 4.62c-.66 0-1.32 1.3-1.32 2.63l1.98 1.32c22.4-3.96 40.84-9.22 54.67-17.8.66-1.3 1.32-1.97 0-2.63z"/><path fill="#858585" d="M174.7 95.92c0-7.9-2-15.8-4.62-22.4-2.64-6.6-5.93-11.2-10.54-15.15-2.64-3.3-7.25-5.27-13.84-6.6l-16.47-1.3-15.8-3.96-7.92-3.28c5.3 9.88 11.2 16.47 17.8 21.08 3.96 1.98 11.86 5.27 24.38 9.22 7.9 3.3 15.15 7.9 21.08 13.84l5.93 8.56z"/><path d="M142.4 74.84l4.62 1.32c7.9 2.63 13.83 6.6 19.1 12.52l5.93 7.9c.66 1.32 1.98 1.32 3.3 1.32l1.97-1.98c0-8.56-1.97-16.47-5.27-24.37-2.63-5.93-5.93-11.2-9.88-15.15-3.3-3.3-7.9-5.27-13.83-6.6l-15.8-1.97h-2.65l-15.16-3.3-7.9-3.95-3.3.66c-1.32 1.32-1.32 1.98 0 3.3 5.27 9.88 11.2 17.13 17.8 21.08 3.94 2.63 11.2 5.93 21.07 9.22zm6.6-3.3l-4.62-1.97-17.78-6.6c-5.27-3.28-9.88-7.9-14.5-13.82l17.13 3.95h2.64c13.83 1.32 23.05 3.3 26.35 6.6 6.6 7.23 10.54 15.8 13.17 26.34-6.6-6.6-14.5-11.86-22.4-14.5z"/><path fill="#858585" d="M280.76 111.73l28.98 1.32-13.83-13.83c-7.9-6.6-15.14-9.23-21.73-8.57-5.93.66-16.47 3.96-29.65 11.2l-17.8 10.54-1.96 8.56c15.15-5.27 33.6-8.57 56-9.22z"/><path d="M310.4 111.08c-13.17-16.47-25.03-23.72-36.23-23.06-6.6 0-16.47 3.95-29.65 11.2-9.88 4.6-16.47 8.56-19.76 10.54l-.66 1.3-2.64 9.9 1.32 1.97 2.64.66c15.15-5.94 32.94-9.23 54.68-9.23l28.98 1.32 2.64-1.33-.66-3.3h-.66zm-36.23-17.8c9.22-.65 18.44 4.62 28.98 16.48-28.98-1.98-54.67.66-75.1 7.9l.66-3.95c5.94-3.94 12.53-7.9 19.1-11.2 12.53-5.92 21.1-9.2 26.37-9.2z"/><path fill="#858585" d="M181.94 130.84c-3.96-4.6-10.55-8.56-20.43-12.52-9.2-3.95-17.77-6.6-26.34-8.56l-30.96-1.98-18.45-.66 19.77 11.86 23.05 13.18 53.37-1.32z"/><path d="M183.9 128.86c-4.6-4.6-11.85-9.22-21.73-13.17l-27-7.92-30.3-3.3H85.73c-1.98 0-2.63.67-3.3 1.98 0 1.32 1.33 2.64 2 2.64l17.77 11.2 25.04 14.5c9.22 3.95 28.32 3.95 55.34-1.33l1.97-1.3-.66-3.3zm-78.4-13.17l-9.87-5.94 38.87 2.63c17.13 3.3 30.97 9.22 40.85 16.46-23.72 3.95-38.87 3.95-46.12.66-5.93-1.98-13.83-6.6-23.72-13.83z"/><path fill="#858585" d="M171.4 131.5c0 9.22 2.63 16.47 7.24 21.08 9.88 11.2 13.84 22.4 12.52 36.23-3.95 38.9-12.52 69.2-25.03 91.6l11.85 11.2c15.8-38.88 25.04-68.53 27-88.3.67-11.85 2.65-21.73 3.97-29.64l1.97-11.85c0-3.95.66-7.9 3.3-13.17 1.98-4.6 3.95-8.57 7.24-11.2L232 126.9c3.96-5.94 4.62-13.85 1.98-22.4-9.22-2.65-19.1-3.97-28.98-3.97-19.1.66-30.3 6.6-32.94 18.45l-.67 12.52z"/><path d="M168.76 132.16c0 9.88 3.3 16.47 7.9 22.4 5.28 5.92 9.23 13.17 11.2 20.42l.66 13.18c-.66 10.53-2.63 23.05-5.92 36.9-4.62 22.4-11.2 40.17-18.45 54-1.32.67-1.32 1.33 0 2.64L176 293.56l2.64.66 1.98-1.98c15.8-38.86 25.03-68.5 27-88.93.67-10.53 2.64-21.08 3.96-31.6l1.98-9.9c0-3.3 1.32-7.9 3.3-12.52 1.3-3.95 3.94-7.24 6.58-9.88l1.98-1.97c5.27-4.62 8.56-8.57 9.88-11.86 2.63-5.93 3.3-13.18 1.32-22.4l-1.98-1.98-20.42-3.3c-15.15-.66-26.36 1.32-34.26 5.93-5.93 3.95-9.22 8.56-11.2 15.15-.66 1.98-.66 6.6 0 13.18zm5.93-12.52c.65-4.6 3.28-8.56 7.9-11.2 5.92-3.95 15.8-5.93 27.66-5.27l21.1 3.3 1.96 7.9c0 3.95-1.97 7.9-3.95 11.2l-7.25 7.25-2.63 2.63c-2.65 3.3-5.28 7.25-7.92 11.86-2.63 5.28-3.3 9.9-3.3 14.5l-1.3 8.57c-2 10.54-3.3 21.08-4.62 32.94-1.98 18.45-10.54 46.78-25.7 83.68l-7.24-7.9c7.9-13.84 13.83-31.63 19.1-54.03 2.64-13.84 4.62-26.36 5.27-36.24l.65-3.94c0-12.52-5.27-23.72-13.83-34.26-4.6-4.6-6.6-11.85-6.6-22.4l.67-8.56z"/><path fill="#D96038" d="M211.58 105.8c.66-5.93-4.6-15.8-17.13-29.64H182.6c-7.25 0-11.86 1.98-13.84 3.95-1.98 2.65-2.63 9.24-.66 19.77l4.6 24.38c2 5.27 7.26 7.9 15.82 6.6 8.57-.67 13.84-2.65 17.13-5.28 3.3-8.57 5.93-15.15 5.93-19.76z"/><path d="M181.28 73.52c-7.25.66-12.52 2.64-14.5 4.62-2.63 3.95-2.63 12.5-.66 26.35 1.98 13.16 3.3 19.75 4.6 20.4.67 3.96 3.97 7.26 8.58 7.9h15.8c5.94-1.3 9.9-3.28 12.53-5.25l.66-1.32 6.58-20.42c.65-5.93-5.93-16.46-19.1-32.28l-1.33-.65-13.17.65zM170.74 97.9c-1.32-8.56-1.32-14.5 0-16.47 1.97-1.98 9.88-3.3 21.74-3.3l11.2 14.5 5.27 11.86v.65c-.66 4.6-1.98 10.54-5.27 18.44l-9.9 3.95h-13.16c-2.64 0-4.6-1.98-5.27-3.96-2.64-8.57-3.96-17.14-4.6-25.7z"/><path fill="#D96038" d="M212.24 107.78l8.56-11.86c3.96-9.22 4.62-16.47 1.32-21.08-3.3-5.27-9.22-8.56-17.13-10.54-7.9-1.32-12.52-1.32-13.18 1.98l-5.27 13.83c-1.98 9.24-1.98 15.82.65 22.4 3.3 5.28 7.9 8.58 15.16 7.92l9.88-2.64z"/><path d="M224.76 72.87c-3.3-4.62-7.9-7.9-13.84-9.9l-15.8-1.3c-3.3 0-5.28 1.3-6.6 3.3l-.66 3.94c-5.93 13.85-7.24 25.7-2.63 34.27 1.32 4.6 3.95 7.25 8.56 8.56l19.76-1.97 1.32-.66 8.56-13.18c3.95-9.22 4.6-17.13 1.32-23.05zm-28.33-6.6h5.93c8.56 1.32 14.5 3.96 17.79 9.9l1.3 5.26c0 7.9-3.28 15.8-10.53 24.38l-15.8.66c-2.64-.65-4.62-2.63-5.94-5.27-3.3-6.6-1.98-17.14 3.3-30.97l1.97-3.95h1.98z"/><path fill="#D96038" d="M238.6 72.87c-.67-3.3-3.3-6.6-7.25-7.9-3.96-2-7.9-2-11.2 1.96-3.3 4.62-6.6 11.2-9.9 19.77-3.28 9.88-5.26 17.13-4.6 22.4.66 4.6 1.98 7.9 3.96 9.88 1.98 1.98 4.62 2.64 8.57 2.64 7.25.66 11.86-.66 13.84-3.96l2.64-8.56V96.58l3.3-13.83c.65-4.6 1.3-7.9.65-9.88z"/><path d="M228.7 66.28c4.62 1.3 6.6 3.3 7.92 6.6l-1.98 10.52-3.3 13.18v9.88c0 5.27 0 8.57-1.3 9.23-1.33 1.96-5.28 3.28-11.87 3.28l-6.6-1.32c0 4.62 2 6.6 6.6 6.6 8.56 0 13.84-1.98 16.47-5.28 1.98-2.64 2.64-6.6 1.98-12.52l.66-9.88 2.63-11.2c1.33-6.6 2-11.2 1.33-13.83l-3.3-5.93c-2.63-1.98-4.6-3.3-7.24-3.96-5.28-1.32-9.24 0-12.53 3.3-3.3 4.6-6.6 11.2-9.88 19.76-3.3 9.22-5.28 16.47-5.28 22.4l.65 1.98c.66 5.27 3.3 7.9 7.9 8.56-1.3-1.97-2.62-5.27-3.28-9.22 0-4.6.65-11.86 3.94-20.43 3.3-9.2 6.6-15.14 9.88-19.1 1.98-2.62 3.3-2.62 6.6-2.62z"/><path fill="#858585" d="M13.28 280.4l-6.6 37.54 9.9 21.08c8.56 15.15 15.8 25.7 22.4 30.3 10.54 8.57 26.35 14.5 44.8 18.45 4.6.66 9.22-.66 13.83-6.6 9.23-10.53 12.53-32.26 11.2-63.9l-5.26-7.24c-4.6-4.6-9.88-7.9-16.47-8.56L67.3 296.2c-5.92-2.64-9.88-4.6-12.5-7.9l-2 4.6c-1.3 4.6-.65 9.23 2 14.5-3.97-1.32-9.24-3.3-15.17-5.93-11.2-5.93-19.76-12.52-26.35-21.08z"/><path d="M12.62 277.1L10 279.72l-6.6 37.55v1.32l11.2 23.06c7.9 15.15 15.15 25.68 22.4 30.3 11.2 8.56 27 15.15 46.12 19.1 3.95.67 9.22-.66 13.83-3.95 11.86-9.87 16.47-32.93 15.15-69.82v-1.98c-5.27-9.22-13.17-15.15-23.72-17.13-17.78-3.3-27.66-7.9-30.96-11.85L55.44 285l-2.63.66-1.97 3.3c-1.3 2.63-1.97 5.26-1.97 7.9l.66 5.27c-14.5-5.93-26.36-13.18-33.6-23.72-.66-1.3-1.98-1.3-3.3-1.3zM10 317.27l5.26-29.65c10.54 11.2 23.06 18.45 38.87 22.4l3.3-.66.65-1.97-.66-1.98-1.98-8.56.66-3.3c5.28 4.6 15.8 7.9 30.97 11.2 7.9 1.32 14.5 5.93 18.44 13.84l.67 7.9c0 28.33-4.6 47.43-13.83 54.68-2.64 2.63-5.27 3.3-7.9 3.3-18.45-3.96-33.6-9.9-43.5-17.14-9.2-7.9-19.75-24.36-30.95-50.06z"/><path d="M16.58 300.8l-1.98-.65c-1.32.66-1.32 1.98-.66 2.64l19.1 20.4c17.13 14.5 34.92 24.38 54.03 28.34 1.97.66 2.63 0 3.3-.66l-2-2.64c-19.1-4.6-36.22-13.83-52.03-27.67L16.58 300.8z"/><path d="M69.28 312c-.66-.65-1.98-.65-1.98 0-1.3.67-1.3 1.33 0 2.64l9.23 13.18c7.25 10.54 11.86 21.1 13.83 32.28.66 1.32 1.98 1.32 3.3 1.32 1.3 0 1.3-1.32 1.3-2.63-3.28-11.22-7.9-22.4-15.14-33.62L69.28 312zM67.3 341.65c-.65-1.97-1.3-1.97-3.3-1.97l-26.34 4.6c-1.32 0-1.98.67-1.98 1.33l1.98 2.64 27.67-4.6 1.98-2z"/><path fill="#858585" d="M133.2 233.6l-2 3.97c-1.3 3.3-1.3 6.6-.65 10.54-15.8-3.3-27-7.24-33.6-13.83l1.98 20.42c1.97 15.8 5.27 27 9.88 34.25 6.6 11.2 17.14 21.74 30.97 30.3h19.77c15.15-1.3 25.7-6.58 32.28-15.15l-1.32-16.47c-2.64-11.85-7.25-20.42-13.18-25.03l-25.03-16.47-19.12-12.52z"/><path d="M98.93 231.63l-3.3-.65c-1.3.65-1.97 1.97-1.97 3.3L95.63 256c1.98 15.82 5.27 27.68 9.88 34.93 7.92 11.86 17.8 21.74 32.3 30.96l1.3.65h21.75c15.16-1.32 26.36-7.25 34.26-16.47v-1.98l-1.3-17.78c-2.64-12.52-7.9-21.1-15.16-27l-23.7-15.17-19.12-13.17-2.63-.66c-1.33 0-1.33.66-2 .66l-2.63 3.95c-1.3 2.64-1.97 5.93-1.97 8.56v.65c-13.18-3.3-23.06-7.9-27.67-12.52zm34.25 11.87l1.32-5.28 17.13 11.2 23.72 15.16c5.27 4.6 9.22 11.2 11.2 21.08l1.97 17.13c-5.93 7.23-15.8 11.84-28.32 13.16-5.94.66-12.52.66-19.1 0l-12.53-9.22c-7.25-6.6-13.17-13.18-17.13-19.76-5.27-7.9-9.22-23.72-11.2-46.12 7.9 4.6 17.8 8.56 29.65 10.54l3.28-.66.66-2.64-.66-.65v-3.95z"/><path d="M113.42 254.04l-1.98.65c-1.3 1.3-1.3 1.3 0 2.63l20.43 20.42c14.5 15.8 26.35 29 33.6 40.85h3.3c.65 0 1.3-.66 0-2.64-7.26-11.2-19.1-24.37-34.27-40.84l-21.08-21.08z"/><path d="M144.38 256.67l-2.63-1.98c-.66.65-1.32 1.3-1.32 2.63l1.32 9.88-.66 19.78 1.3 1.97 2.64-1.97.66-19.77-1.32-10.53zM167.44 267.2l-2.63-1.3c-.65 0-1.97 1.3-1.97 1.97l1.98 21.08c.67 15.15-.65 27.67-4.6 37.55-1.32 1.32-.66 1.98 1.3 2.64.67 0 2 0 2.65-1.32 3.3-9.88 5.27-23.06 4.6-38.87l-1.3-21.74z"/><path fill="#858585" d="M340.7 296.2l-11.2.66-7.24-.66c4.6-4.6 11.86-18.45 21.08-38.87-9.22-4.6-21.74-5.93-36.9-4.6l-21.07 1.96c3.95-6.6 4.6-11.86 2.63-16.48-3.95 3.96-13.83 8.57-27.67 13.18-12.5 4.6-19.76 9.22-23.06 13.83-5.93 8.57-9.22 21.1-8.56 36.9l-3.94 19.76c-2.64 14.5-1.32 23.7 3.3 28.97 3.95 4.62 13.17 7.92 26.34 8.57h19.77c27.67-7.9 44.8-15.15 50.73-21.74 5.93-5.93 11.2-19.76 15.8-41.5z"/><path d="M289.32 234.93l-2.64 1.32c-3.95 3.3-12.5 6.6-25.03 11.2-7.25 3.3-13.17 5.27-15.8 6.6-5.28 2.62-9.24 5.92-11.2 9.87-6.6 8.56-9.23 21.74-9.23 38.2-3.96 12.52-5.28 23.07-5.28 32.28 0 8.57 1.32 14.5 4.62 18.46 5.27 5.27 13.83 8.56 27.67 9.88 9.22 1.3 16.47 1.3 21.74 0l25.03-7.9c14.5-5.93 23.72-10.55 27.67-15.16 3.95-3.95 8.56-11.2 12.52-23.72l4.6-19.1-.66-3.3-3.3-.66-12.5.66c5.92-7.24 11.85-19.1 19.1-35.57V256l-1.32-1.96c-14.5-5.94-32.28-6.6-54.68-3.3l1.97-7.9-1.3-5.27-1.98-2.64zm-7.25 19.76l.66 1.97c1.32 1.32 1.98 1.32 3.3 1.32l18.44-2 34.92 3.3c-9.23 18.45-15.82 30.3-19.78 34.26l-.66 2.64v.66l1.98 2.63 5.93.65h9.88c-4.6 18.45-9.22 30.3-13.83 34.92-5.93 5.27-22.4 12.5-49.4 21.08-7.9 1.3-15.16 1.3-22.4 0-10.55-1.32-17.8-3.95-21.1-7.9-1.97-2.64-3.3-6.6-3.3-13.18 0-9.23 1.33-19.77 5.3-31.62v-1.32c-.02-15.15 2.62-27.67 7.9-34.92 2.63-3.94 10.53-7.9 24.37-13.16 7.23-2.64 14.48-5.93 21.72-9.88l-3.3 8.56-.65 1.97z"/><path d="M328.85 262.6c-1.32-1.32-1.98-1.98-2.64-1.32-9.2 3.95-20.4 9.88-32.27 19.1-23.72 17.8-42.16 40.2-55.34 67.2-.67.66 0 1.98 1.3 1.98.67 1.32 1.33.66 2-.65 13.16-26.35 30.95-47.43 54.67-65.22 11.2-9.22 21.74-14.5 30.96-18.45 1.32-.66 1.98-1.3 1.32-2.63z"/><path d="M293.93 262.6h-2.63l-3.96 7.9c-1.97 5.28-3.3 11.86-3.95 19.1 0 1.33.65 2 1.97 2l1.98-2c0-5.92 1.97-12.5 3.95-17.78l3.3-6.6c.65-1.3 0-1.96-.67-2.62z"/><path d="M314.36 289.6c-.66-1.3-.66-1.97-1.98-1.3l-21.74 3.95h-9.88c-.66-.66-1.32 0-1.98 1.3-.66 1.33 0 2 1.98 2l9.88.65c7.24 0 15.15-1.32 23.06-3.95l.66-2.64zM266.26 260.63c-1.3 0-1.97.65-2.63 1.97L261 281.7c-1.33 13.84-1.33 24.38-1.33 32.94 0 .66.66 1.32 1.98 1.32l1.98-1.32c0-8.56 0-19.1 1.32-32.28l2.63-19.1c0-.66 0-1.98-1.32-2.63z"/><path d="M324.24 309.38c0-.66-.66-1.32-1.98-.66l-41.5 3.95h-19.1l-2 1.97c0 1.32.67 1.98 1.33 1.98h20.4l42.18-4.6c.66 0 1.32-.67.66-2.64zM249.8 335.07l21.07.66 30.97-1.32c1.3 0 1.97-1.3 1.3-2.63 0-.66-.64-1.3-2.62-1.3l-29.65 1.3H249.8c-2 0-2 0-2 1.32 0 1.97 0 1.97 2 1.97z"/><path fill="#858585" d="M223.44 426.64c-12.52 9.22-18.45 20.42-18.45 33.6l.65 24.38c1.32 18.44 3.3 32.28 7.25 40.84 7.24-2.63 13.18-7.25 18.44-13.18l21.74 14.5c18.45 9.22 38.22 13.18 60.6 11.85l-9.2-46.1 7.9-1.98 17.13-.66c-7.24-19.78-15.15-35.58-22.4-46.13-5.26-7.25-17.12-13.84-36.23-19.76l-27.67-7.9-19.76 10.54z"/><path d="M243.86 412.8h-1.97L221.45 424c-13.17 9.9-19.76 21.1-19.76 34.27v5.27c0 28.98 2.63 50.07 8.56 63.24l1.32 1.97h3.3l16.46-11.85c7.25 6.6 16.47 11.85 27.02 16.47 17.78 6.6 35.57 9.88 55.33 8.56l2.63-1.3.66-2-9.23-44.13 21.08-1.32 2.63-.66.66-3.3c-7.24-21.07-15.15-36.23-22.4-48.08-5.27-7.25-17.13-13.84-36.9-20.43-12.5-3.94-22.4-6.58-28.98-7.9zm-35.57 50.07v-4.6c0-17.13 11.84-30.3 34.9-38.88l32.94 9.22c14.5 5.93 24.38 11.2 27.67 16.47 6.6 9.22 13.2 23.05 20.44 41.5l-13.84.66-6.6 1.96c-1.96.67-2.62 1.33-2.62 3.3v.66l8.56 42.16c-19.76 1.32-38.87-3.3-56-11.85l-20.42-13.85c-1.32-.66-1.98-.66-2.63-.66-.67 0-1.33 0-2.65 1.3-3.95 4.62-7.9 8.57-13.18 10.55-3.95-13.18-6.58-31.63-6.58-57.98z"/><path d="M243.2 448.38c0-.65-1.3-1.32-2.63-.65-.66 0-1.32 1.3-.66 2.63l15.16 28.32c13.18 21.1 27.67 36.9 41.5 48.76l3.3-.66c.66 0 .66-1.32-.66-2.63-14.5-10.54-27.67-27-40.84-47.44L243.2 448.4z"/><path d="M267.58 491.2c-.66 0-1.32 1.32-1.32 1.98v7.25c0 6.6 1.32 12.5 3.3 19.76 0 .65 1.3 1.3 1.97.65 1.98 0 1.98-.66 1.98-1.98-1.97-6.6-3.3-12.5-3.3-18.44l-.64-6.6c.65-1.3 0-2.63-1.98-2.63zM260.33 485.93c0 .66.66 1.32 1.98 1.32l11.87-.66 16.47-.67 2.63-1.97c0-1.33-.66-1.98-1.97-1.98l-17.13.65-12.52.67c-1.32 0-1.32.66-1.32 2.63zM266.92 456.94l-19.76 2.64c-1.32 0-1.98.66-1.98 1.32l2.64 2.63 19.1-2.63c13.83-.66 24.38-.66 32.28.66l1.32-1.32c.66-1.98 0-2.63-1.32-2.63-7.9-.66-18.44-1.32-32.28-.66zM236.62 441.14c-1.32-.66-1.98-.66-2.64.66l-6.6 18.44c-4.6 15.15-6.58 28.98-6.58 42.16 0 1.32.66 1.98 1.32 1.98l2.64-1.98c0-12.5 1.97-26.35 6.6-40.84l6.57-17.8c0-1.3 0-2.62-1.3-2.62zM253.74 469.46l-2.63 1.32-3.28 13.84c-1.98 9.22-3.3 15.8-3.3 20.42 0 1.32.66 1.98 2.64 1.98l1.3-1.98c0-4.6 1.33-11.2 3.3-20.42l3.3-13.18-1.32-1.98z"/><path fill="#858585" d="M178.64 456.94l-29.64-9.2c-22.4-5.3-38.87-7.27-50.07-4.63l-11.86 6.6c-7.9 4.6-13.84 10.54-17.8 15.15l-8.55 15.8-6.6 10.55c11.87.66 19.77-1.98 25.04-7.9l-6.6 12.5c-3.94 9.24-6.57 16.48-7.23 21.76-1.32 5.93-4.6 13.83-9.23 22.4-3.95 8.55-7.24 13.17-9.88 15.8l32.28-2.63c23.06-3.3 38.2-7.9 46.12-14.5l21.08-19.76 5.93-8.56 1.32 9.9c1.97 7.9 4.6 13.17 7.9 16.46 5.27-5.93 10.54-13.17 14.5-22.4 9.22-18.45 9.88-37.55 3.3-57.31z"/><path d="M179.3 453.65l-30.3-9.22c-22.4-5.27-38.87-7.25-50.73-4.62l-1.32.67-11.86 6.6c-7.9 5.92-14.5 10.54-17.8 16.46l-9.22 15.8-5.93 9.9c-1.3.66-1.3 1.97-1.3 3.3.64.65 1.96 1.97 3.28 1.97l16.47-2.64c-5.27 12.52-7.9 21.08-8.57 25.04-1.3 5.93-4.6 13.18-8.56 21.73l-9.22 14.5-1.32 2.63v.67c1.32 1.97 1.98 2.63 3.3 2.63l34.25-3.3c23.06-3.3 38.2-8.56 46.12-14.5 9.22-7.23 16.47-14.48 23.06-22.4 1.97 9.23 4.6 16.48 8.56 19.77 1.32 1.33 2.63 1.33 3.95 0 6.6-5.26 11.86-13.17 16.47-23.06 9.23-19.76 9.88-39.52 3.3-60.6l-2.64-1.32zm-3.3 5.27c2.64 8.57 3.96 16.47 3.96 23.7 0 17.8-5.93 34.28-19.1 48.1-3.3-5.26-5.28-12.5-5.94-20.4 0-2-.65-3.3-2.63-3.3-1.33 0-2.64 0-3.3 1.97l-6.6 7.9-19.76 19.1c-10.54 7.9-33.6 13.84-69.83 15.8 7.92-11.84 13.2-23.05 15.82-33.6.66-4.6 3.3-11.84 7.25-21.06l5.93-11.87.66-1.97-1.32-2.63-4.6.65c-2.64 3.3-7.92 5.27-15.82 5.94l3.3-5.28 8.56-15.15c4.6-5.93 13.17-13.18 26.35-20.43 15.8-2.63 40.84 1.33 77.08 12.52z"/><path d="M133.2 458.26c-1.33 0-2 0-2 1.98-5.92 19.76-17.78 39.53-35.57 57.97-9.22 9.24-17.13 16.48-25.03 21.76-1.32.66-1.98 1.97-1.32 3.3h3.3c7.9-5.94 16.46-13.18 25.68-22.4 18.45-18.46 30.3-38.88 36.9-59.96 0-.66 0-1.98-1.97-2.63z"/><path d="M113.42 497.14c-.66 0-1.32 0-1.98 1.97-2.63 18.46-5.27 30.3-7.9 34.27-1.32 1.3-1.32 1.97 0 3.3l3.3-.67c3.3-5.27 6.58-17.13 8.56-36.23 0-1.98-.66-2.63-1.98-2.63z"/><path d="M89.7 503.73c-5.93 3.3-10.54 6.58-11.85 7.9-.66.65-1.32 1.98-.66 2.63h3.28l11.2-6.58c7.9-3.95 15.15-6.6 21.74-6.6l1.98-1.3-1.98-2.64c-6.6 0-14.5 2.63-23.72 6.6zM131.2 470.12c0-.66-.65-1.32-2.63-1.32-13.17 1.32-27 7.25-41.5 15.82-1.32 1.3-1.32 1.97 0 2.64l1.98.65 13.17-6.58c9.88-4.6 19.1-7.9 27.67-8.57l1.3-2.63z"/><path d="M132.53 466.83c-.66-1.32-1.32-1.98-2.64-1.32-1.33.66-1.33 1.33-1.33 2l2.64 15.13c.67 11.87-1.3 23.06-5.26 34.93-.66 1.3-.66 1.97.66 2.63 1.97.65 2.63 0 3.3-1.33 3.94-11.85 5.92-24.37 5.26-36.23l-2.63-15.8zM165.47 466.17c0-1.32 0-1.97-1.98-1.32-1.33 0-1.33.66-1.33 1.98l.66 10.54-.66 25.03c0 1.98.66 2.64 1.98 2.64l1.98-1.32 1.3-26.35-1.96-11.2z"/><path fill="#D96038" d="M205 360.76c-11.86-5.93-21.75-8.56-29.65-7.9-7.9 1.3-15.8 3.95-24.38 8.56-11.2 5.92-16.47 13.18-17.12 20.43-.66 8.55 4.6 16.47 15.8 23.7 11.2 7.9 21.75 11.2 32.95 10.55 11.2-.66 19.76-3.95 27.66-11.2 5.94-5.93 9.9-13.83 11.2-23.05.66-7.25-4.6-14.5-16.47-21.1z"/><path d="M224.1 382.5c.66-5.27-1.98-10.54-6.6-15.16-5.92-5.92-12.5-9.88-21.73-13.17-7.9-2.63-15.15-4.6-21.08-3.3-8.57.67-16.48 3.96-25.7 7.92-11.2 6.58-17.13 13.82-17.8 22.38v.67c0 7.24 3.3 13.83 9.9 20.42 5.26 5.27 11.85 9.22 19.75 11.85 7.9 3.3 15.16 4.62 21.75 4.62 11.85-.66 21.74-4.62 28.98-11.87 7.25-7.24 11.2-15.14 12.52-24.37zm-5.93-.65c-.66 8.55-3.95 15.14-9.88 21.07-6.6 6.6-15.16 10.54-25.7 10.54-6.6.66-13.18-1.3-20.43-3.95l-17.13-11.18c-5.27-5.28-8.56-10.55-8.56-16.47 0-6.6 5.27-12.52 15.8-17.8 8.57-5.26 16.48-7.9 23.07-8.56 5.27-.67 11.2.65 19.1 3.3 7.9 3.28 14.5 7.23 19.1 11.84 3.96 3.96 5.28 7.25 4.62 11.2z"/><path d="M177.32 362.08c-1.97 0-1.97.66-1.97 2.63l-.66 44.16c0 1.3.65 1.97 1.3 1.97l2.64-1.97V364.7l-1.32-2.62zM195.1 365.38c-1.3 0-2.62.65-2.62 1.96l-.66 39.53c0 1.33.66 1.98 2.63 1.98l1.32-1.98 1.32-39.53-2-1.96zM159.54 364.7c-1.32 0-1.98.68-1.98 2l-.66 39.52c0 1.32.66 1.98 1.98 1.98l1.97-1.98.66-39.53-1.96-2z"/><path fill="#D96038" d="M168.76 313.98l-14.5-8.56c-8.56-4.6-14.5-5.93-18.44-3.3-3.95 1.33-9.88 3.3-19.1 4.62l-19.77 4.6c-5.27 1.33-8.56 4.62-11.2 9.23l-3.3 12.52-6.58 6.58c-3.3 1.3-5.27 4.6-6.6 8.56-1.3 5.93.67 13.18 6.6 23.06l7.9 12.52c39.53 1.32 67.86-22.4 85-69.84z"/><path d="M134.5 299.5c-3.3 1.97-10.54 3.3-21.08 5.26l-17.8 3.96c-4.6 1.97-8.55 4.6-10.53 7.9l-3.96 11.2-1.32 4.62-3.95 3.95c-4.6 2.62-7.25 5.92-8.57 11.84-2.63 9.22 1.98 21.08 14.5 36.9.66.65.66.65 1.98.65 23.7 1.3 44.8-7.9 63.9-28.34 14.5-15.8 22.4-28.98 24.37-40.84 0-3.3-.66-4.6-2.63-5.27l-5.93-3.3c-7.26-4.6-11.87-7.24-14.5-8.56h-14.5zm-36.9 14.48l17.14-3.95 22.4-5.93c3.95-1.97 11.86.66 23.7 7.9l5.28 3.3-5.27 14.5-16.47 23.06c-17.78 19.1-37.55 28.32-59.3 28.32-9.2-12.5-13.17-21.74-13.17-28.98v-3.3c.67-3.95 3.3-6.58 5.95-7.25 3.95-1.97 5.93-3.95 7.24-7.25l.65-5.26 3.3-9.22c1.97-3.3 4.6-4.62 8.56-5.94z"/><path fill="#D96038" d="M113.42 387.1l-6.6-15.8-16.46 2.63c-11.2 1.98-18.44 5.28-23.05 9.23-3.3 3.3-5.27 8.57-4.6 15.8 1.3 8.57 1.3 15.16-.67 18.46-2.63 5.92-3.3 9.88-2.63 13.17l3.3 11.2c2.63 5.26 8.56 7.9 18.44 8.56 9.22 1.32 17.8 0 23.7-3.3 7.26-3.95 10.56-7.25 11.87-9.88 2-2.63 3.3-9.22 3.3-19.1 0-7.9-1.97-19.1-6.58-30.97z"/><path d="M108.8 370.64c0-1.3-1.3-1.97-1.97-1.97L89.7 371.3c-11.2 2.63-19.76 5.93-23.7 9.88-3.3 3.3-5.28 6.6-5.94 9.9l.66 9.87c.66 7.25 0 12.5-1.32 15.8-1.98 5.28-3.3 9.9-3.3 13.18 0 1.98 1.32 6.6 3.3 11.2l1.32 1.98c1.97 3.97 5.27 6.6 11.85 7.92l16.47 2.63c6.6-.66 13.18-1.97 17.13-4.6l1.98-1.32c5.93-3.3 9.88-6.6 11.2-9.88 1.97-3.3 2.63-9.9 3.3-19.77.65-7.9-1.98-19.1-6.6-30.97l-7.24-16.46zm-43.47 23.72c0-3.96 1.32-6.6 3.95-9.22 5.93-5.28 17.8-9.23 36.23-10.54 7.92 17.13 11.87 31.62 11.87 42.82v.66l-1.97 17.13-9.9 8.57-1.96.66c-3.3 2.63-7.9 3.3-13.84 3.3l-15.8-1.33c-4.62-1.3-7.92-3.3-8.57-5.93L64 438.5l-2.62-9.23c0-2.64 1.3-5.93 3.3-11.2l1.3-9.87-.65-13.84z"/><path fill="#D96038" d="M190.5 452.33c-10.54-5.27-21.08-9.22-32.28-14.48-21.74-9.23-35.58-13.18-40.2-11.2-5.92 1.3-11.2 6.58-17.78 14.5-6.58 7.9-9.22 13.17-7.9 16.46l8.56 15.82c4.6 6.6 10.54 10.54 15.8 9.88l32.3-.66 26.35-2.63c3.95-2.63 9.22-11.85 15.15-27.67z"/><path d="M192.48 453.65c.66-1.97 0-2.63-.66-3.3-42.82-19.76-67.2-28.98-74.44-26.34-4.62 1.32-9.9 5.27-15.82 11.2-5.93 5.28-9.22 11.2-11.2 15.82-1.32 3.3-1.32 5.92 0 8.56l1.98 3.3c7.25 15.8 15.8 23.7 25.03 23.7l15.82-.65 43.47-3.95c4.6-1.98 9.22-11.86 15.8-28.33zm-46.12-17.13c12.52 4.62 25.7 10.54 40.84 17.13-5.92 13.84-9.88 22.4-13.17 23.72L133.18 480l-16.47.67c-3.94.65-7.9-1.98-11.84-7.25l-7.9-13.18-2-3.3.67-3.95c1.32-4.62 4.62-9.23 9.88-14.5 5.3-4.6 9.9-7.9 13.2-9.88 3.28-.66 12.5 1.97 27.66 7.9z"/><path fill="#D96038" d="M260.33 414.12c-12.5-1.97-27 2.64-42.16 13.18-13.84 9.88-20.42 17.8-20.42 23.72l-.66 18.44c0 7.25 3.28 10.54 7.9 10.54h32.93l26.36-3.3c11.2-7.24 17.1-16.46 19.1-27 .65-5.93-2.64-13.18-10.55-22.4l-12.52-13.18z"/><path d="M197.75 480l7.24 3.3 61.26-4.62c11.2-7.9 17.8-17.12 19.77-28.32 1.3-6.6-1.98-14.5-9.9-23.72l-14.48-14.5-.66-.65c-14.5-2.65-31.63 3.3-50.08 17.77-10.54 8.57-15.8 16.48-15.8 21.75l-.67 6.6v12.5c0 3.96 1.32 7.25 3.3 9.88zm1.97-21.74l.66-7.24c0-1.32 1.32-3.96 3.3-6.6l10.54-10.53c16.47-13.85 30.96-19.78 45.45-17.15 14.5 13.18 21.1 23.73 21.1 30.98v1.97c-1.33 9.88-7.26 17.8-17.8 24.38l-57.98 3.3c-1.33 0-3.3 0-3.3-.67-1.32-2.62-2.63-8.55-1.97-18.44z"/><path fill="#D96038" d="M248.48 337.04l-13.84 4.6-4.6 27.7c0 21.06 8.55 38.2 26.34 51.37 1.98 1.33 5.27 3.3 8.57 3.97l9.22 1.97c5.27.66 9.88-.66 13.83-5.27 1.98-1.32 2.64-5.27 2.64-11.2-.66-7.9 0-12.52 0-15.15l3.95-32.94c0-4.62-3.3-11.2-10.55-18.45-7.25-6.6-13.18-10.54-16.47-10.54l-19.1 3.94z"/><path d="M249.13 334.4l-15.15 3.96-1.97 1.98-1.97 7.9c-1.98 6.6-2.64 13.18-2.64 19.77 0 22.4 9.2 40.2 27 54.03 3.3 2.64 8.57 5.27 15.15 5.93l3.96.66c3.96 1.3 6.6 1.3 9.23 0l7.25-4.6c2.63-2.65 3.3-8.58 3.3-16.48-.67-5.93-.67-9.22 0-11.86l3.94-33.6c.66-5.93-3.3-12.52-11.2-20.42-7.9-6.6-13.83-10.55-18.44-11.2l-18.44 3.94zm-12.5 8.58c17.1-4.62 27-7.9 30.3-7.25 3.28 0 7.9 3.3 14.5 9.22 7.9 7.25 11.18 12.5 10.53 16.47l-3.96 33.6c-.66 2.64-.66 6.6-.66 12.52.66 6.6 0 10.54-.65 12.5l-5.94 3.97h-5.93l-3.96-.66c-6.58-1.96-10.54-3.3-13.17-5.26-16.47-12.52-25.7-29-25.7-50.07 0-7.9 1.98-16.46 4.62-25.02z"/><path fill="#D96038" d="M253.74 310.03c-1.97-4.6-5.93-8.56-12.5-13.83-6.6-3.95-11.2-5.93-14.5-5.27l-22.4 1.98c-12.52.67-20.43 2.64-25.04 4.62-3.95 1.97-6.6 7.24-7.9 13.83-.67 3.95-1.32 7.25-1.32 9.88 8.56 16.47 21.74 24.38 41.5 26.35l27.67-2.63c5.27-4.6 10.54-9.88 13.18-17.13 2.63-6.6 3.95-12.52 1.3-17.8z"/><path d="M167.44 321.23l.66.66c7.9 17.12 22.4 26.34 43.48 27.66l29-1.98.65-.65c5.93-5.27 10.54-11.2 13.17-18.45 3.96-7.25 3.96-13.84 1.98-19.1-1.98-4.62-6.6-9.9-14.5-14.5-6.58-5.27-11.85-7.9-15.8-6.6l-11.2.67c-19.77 1.98-32.3 3.96-36.24 6.6-4.6 1.97-7.9 6.58-9.88 14.5l-1.32 11.18zm7.25-11.86c1.3-4.6 3.28-7.9 6.58-9.88 3.95-2 15.8-3.96 33.6-4.62l12.5-1.98c2 0 6.6 1.98 12.53 5.93 5.94 3.96 9.9 8.57 11.2 13.18l1.33 4.62c0 3.95-1.32 8.57-3.95 13.18l-10.55 12.52-27.67 2.63c-17.78-1.98-29.64-9.88-37.55-24.38 0-3.95.67-7.24 2-11.2z"/><path fill="#D96038" d="M141.1 452.33c6.58-1.97 11.2-5.27 14.48-9.22 1.98-2.62 0-10.53-6.58-24.36l-13.84-27c-2.63-4.63-1.97-13.2 2.64-26.36l7.24-17.14-19.76 3.96c-13.18 3.3-20.42 5.93-22.4 7.24-1.97 1.98-4.6 9.9-8.56 25.04-3.3 13.84-5.27 23.06-5.27 26.35 0 2.63 6.58 9.22 17.78 19.76L127.9 451c2 3.3 6.6 3.95 13.2 1.3z"/><path d="M146.36 346.27c-.66-.66-1.32-.66-1.98-.66-26.35 5.94-40.84 9.9-43.48 11.86-1.97 2-5.27 11.2-9.22 27.02-3.3 13.84-4.6 23.06-4.6 26.35s6.58 11.2 21.73 24.38l16.48 17.14c1.97 2.63 4.6 3.95 7.24 4.6 3.96 0 8.57-1.3 13.84-3.95l11.2-8.57c1.98-2.63 1.32-7.25-1.98-15.15L142.4 401.6l-5.26-11.2c-1.98-3.3-.66-9.88 1.97-19.76 2.65-7.9 5.28-14.5 7.92-21.08l-.66-3.3zm7.25 93.54l-.65 1.34c-1.32 2.63-4.6 5.26-9.22 7.24l-10.55 2.64-3.3-.66c-1.3-3.3-6.58-9.22-17.78-19.1l-19.76-20.43c0-3.96 1.32-12.5 4.6-25.7 3.3-13.83 5.94-22.4 7.9-23.7 2-2 13.85-5.28 34.93-9.9-5.27 14.5-8.56 26.36-8.56 34.27 0 2.63.67 5.27.67 6.58l6.58 11.86c9.9 18.45 15.16 30.3 15.16 35.57z"/><path fill="#D96038" d="M228.05 421.37c-15.15-7.25-33.6-10.54-54.68-9.22-17.8 1.3-27.67 3.95-29 7.9-1.96 3.3-2.62 7.9-2.62 14.5 0 8.56 1.32 13.18 3.95 15.8 3.96 3.3 9.88 6.6 19.1 9.9 9.23 3.28 15.16 5.26 17.8 3.95 21.73-3.3 34.25-6.6 38.86-9.23 3.96-3.3 6.6-13.83 6.6-33.6z"/><path d="M147.68 414.12l-5.93 4.62c-1.32 3.3-1.98 9.22-1.98 15.8-.66 9.23 1.32 15.16 4.6 18.45l19.12 9.87c10.53 3.96 17.12 5.28 20.4 3.96l9.9-1.98 28.32-7.9c5.27-2.64 7.9-14.5 9.23-35.58l-1.32-1.98c-13.83-7.25-29.65-10.55-48.1-10.55-13.83 0-25.7 1.98-34.25 5.27zm-2.64 20.43c0-5.93.66-10.54 1.32-13.84 3.3-3.28 12.52-5.26 28.33-5.9 19.1-1.34 36.22 1.95 50.72 8.54-.66 17.14-2.64 27.02-5.93 29.65-2.65 1.3-11.87 3.95-27.02 6.58l-10.55 1.98c-1.97 1.3-7.24-.66-16.47-3.95-7.9-3.95-13.83-6.58-17.78-9.22-1.98-1.32-3.3-6.58-2.64-13.83z"/><path fill="#D96038" d="M237.93 359.44l-14.5 1.32c-9.87 1.32-13.17 5.27-11.85 10.54 1.98 3.96.66 13.84-1.32 29-2.63 13.82-2.63 22.4 0 26.34 5.28 8.57 15.16 11.86 27.68 9.88 3.95-.66 9.22-4.6 15.15-12.5l10.53-15.17c.66-1.98.66-7.9-2.64-17.12l-4.62-18.45c-1.3-2.64-4.6-5.93-9.88-9.23l-8.57-4.6z"/><path d="M237.93 357.46c-14.5 0-23.7 1.98-27.67 6.6-1.97 2.63-1.97 5.27-1.3 7.9 1.96 3.95 1.3 12.52-.67 25.7-3.3 15.8-3.3 25.68 0 30.3 5.92 9.22 16.46 13.18 30.3 11.2 4.6-1.32 9.88-5.27 16.47-13.18l11.2-15.15c1.3-3.96 0-14.5-5.28-30.3l-2.64-7.9c-.66-3.96-3.96-7.25-9.88-10.55l-9.9-4.62h-.65zm-23.7 13.18c0-1.3 0-2.63.65-3.3 2.63-3.94 9.88-5.26 23.05-5.26 3.3 1.97 6.6 3.3 9.9 5.93l5.9 5.93 2 7.92 5.26 23.7v2.65l-9.9 15.14c-5.92 6.6-10.53 9.9-13.16 10.55-11.86 2.62-19.77-.67-25.7-9.23-1.98-3.3-1.32-11.86 1.32-26.35l1.32-15.16c.66-5.27 0-9.23-.66-12.52z"/><path fill="#D96038" d="M238.6 329.14c-2.64-2.64-7.25-3.95-13.18-3.95-5.27 0-10.54 1.3-15.16 3.28-3.95 1.98-7.9 6.6-11.2 14.5l-3.95 11.85c11.87 12.52 19.78 17.13 25.05 16.47l27.67-8.56c1.97-1.32 1.97-6.6-.66-15.8-2.64-8.58-5.93-15.17-8.57-17.8z"/><path d="M251.1 360.1c.67-4.6 0-10.54-3.28-17.78-2.64-7.25-4.62-12.52-7.25-15.16-3.3-2.63-8.57-4.6-15.8-4.6-5.94.65-11.2 1.97-16.48 3.95-6.6 2.64-11.2 11.86-15.82 27.67l1.3 1.98c12.53 13.18 21.1 18.45 27.02 17.78 14.5-3.3 23.72-5.92 27.67-8.55l2.64-5.28zm-6.58-13.18c1.98 7.9 2.64 12.52 1.32 13.84-2.64 1.32-11.2 3.95-25.7 7.9-3.95.67-11.2-3.95-21.74-14.5 3.3-13.17 7.9-21.07 12.52-22.4 3.96-2.62 9.22-3.28 13.84-3.28 5.93 0 9.88.66 11.85 2.63 2.65 2 5.3 7.26 7.92 15.82z"/><path fill="#D96038" d="M183.25 315.3c-11.2-7.24-18.44-9.22-23.05-5.27l-19.77 15.16c-8.56 6.57-11.86 11.2-11.86 15.14 0 5.93 3.3 11.86 10.54 17.8l62.6-3.3c.66-2.64 1.32-6.6 1.98-13.2 0-6.57-.66-11.2-1.98-12.5l-18.45-13.84z"/><path d="M158.22 308.72l-11.86 9.22-14.5 10.54c-3.95 4.6-6.58 7.9-5.92 11.86.66 7.24 3.95 13.83 11.85 19.1l.65 1.32 63.25-2.63 2.63-1.98 1.32-14.5c.66-7.25-.66-12.5-2.63-14.5l-1.32-1.3c-21.74-18.45-36.23-24.38-43.48-17.13zM149 321.9l13.17-9.9c4.62-3.94 16.47 1.33 36.24 17.8l1.33 1.97 1.3 6.6-1.97 14.5-59.3 1.96c-5.26-3.95-7.9-9.22-8.55-14.5v-.65c0-2.64 5.94-8.57 17.8-17.8z"/><path fill="#D96038" d="M216.85 385.14c7.9-3.3 11.86-10.54 11.86-21.1 1.33-10.53-.65-15.8-3.94-17.77l-26.35-1.32h-11.2l-6.58.66c-2.64 1.98-4.6 3.96-5.93 7.26-2 4.6-2 7.24-.67 9.22 1.32 2.64 3.3 3.3 7.9 4.6l10.55 2c2.63 0 6.6 3.28 12.52 9.87 5.92 5.26 9.88 7.25 11.85 6.6z"/><path d="M232 360.76c-.65-9.88-2.63-15.15-6.58-16.47l-27-1.98h-10.56l-9.22 1.3c-2.63 1.33-4.6 4.62-6.6 8.58-1.3 4.6-1.3 8.56 0 11.2 1.33 3.3 6.6 5.27 15.16 7.24l4.62.66c1.32 0 4.6 2.63 9.88 7.25l8.56 7.25c3.3 1.97 5.27 2.63 7.9 1.97 9.23-3.95 13.84-13.17 13.84-26.35v-.66zm-5.27 2.63c0 9.88-3.95 16.47-11.2 19.1-.65.66-3.95-1.32-9.88-7.24-5.27-5.93-9.88-8.57-12.5-9.23l-5.3-1.32c-6.57-.65-10.53-1.96-11.84-3.28-.65-1.98 0-3.96 1.32-7.25 1.32-2.63 2.64-5.26 4.62-5.93h17.14l24.37.67 1.98 3.96 1.3 10.53z"/><path fill="#D96038" d="M222.12 385.8l-9.22-1.32c-.66 0-3.95 3.3-9.88 9.22-7.25 7.25-13.18 11.86-19.1 13.84l1.3 5.27 6.6 7.9c3.95 3.3 13.17 5.94 27 6.6 4.62.66 7.9-2.63 11.2-8.56 3.96-6.6 4.62-13.83 3.96-20.42-1.3-5.94-5.27-9.88-11.86-12.52z"/><path d="M226.73 385.14c-4.6-2.64-8.56-3.3-13.83-3.3-1.98 0-4.6 1.98-8.57 6.6-7.9 9.2-15.15 15.14-21.74 16.47l-1.32 1.32v1.98l2.63 5.93c1.33 3.95 3.96 6.58 5.94 8.56 2.64 1.97 8.56 4.6 16.47 5.92l12.53 1.98c3.3 0 6.6-1.32 9.22-4.62l6.6-11.85c1.97-5.93 2.62-10.55 1.97-16.47-1.32-5.93-4.62-9.9-9.9-12.52zm-5.27 3.3c5.93 1.96 9.23 5.92 9.9 10.53.64 4.6 0 8.57-1.33 13.18l-5.27 9.88c-1.98 2.64-3.3 3.3-5.27 2.64-13.85-.66-22.4-3.3-26.36-5.93-1.98-1.32-3.96-4.62-5.94-9.9 6.6-1.97 13.84-7.9 21.1-17.1l3.94-4.63.66.67 8.56.67z"/><path fill="#D96038" d="M183.9 407.54c-11.85-2.64-21.73-6.6-31.6-12.52l-10.55-7.25c-6.6-5.27-11.86-3.95-17.8 2.63-2.63 3.3-3.94 6.6-3.94 9.9l5.28 11.2 4.6 13.82c1.33 3.3 3.3 5.27 6.6 4.6l17.78-1.3 16.47-.66c3.3-.66 7.25-3.95 11.2-10.54 3.96-5.93 4.62-9.88 1.98-9.88z"/><path d="M154.26 393.04l-10.53-7.9c-7.25-5.93-15.16-4.62-21.75 3.3-3.3 3.95-5.27 8.55-4.6 11.85l5.26 13.16 3.96 9.23 2.63 7.9c1.98 1.3 3.96 2.63 7.25 1.97l34.9-1.98 10.56-8.57c3.95-4.6 5.93-8.57 5.93-11.86s-1.32-5.26-3.3-5.26c-11.86-2.63-21.74-6.58-30.3-11.86zm-14.5-3.95l11.2 8.55c9.9 5.27 20.43 9.9 31.64 12.52l-3.3 6.6c-3.3 5.26-6.6 7.9-8.56 8.56l-35.58 1.97c-.66 0-1.98 0-1.98-.66l-1.97-5.27-3.94-10.54c-2.64-5.93-3.96-9.22-3.96-11.2-.66-1.98.66-4.6 3.3-7.9 3.95-5.28 8.56-6.6 13.17-2.64z"/><path fill="#D96038" d="M127.26 374.6l14.5 13.17c1.3-3.95 3.94-7.9 7.24-11.85 7.24-7.9 15.8-12.53 25.03-13.84l-5.27-9.88c-3.95-6.6-7.9-10.54-13.18-10.54-5.93-.67-12.5 1.3-19.76 6.58-7.25 5.27-11.2 9.9-11.2 14.5-.66 5.27.66 8.56 2.64 11.86z"/><path d="M176 364.05l.67-2.63-5.27-11.2c-5.27-7.25-9.9-11.2-15.82-11.2-7.24-.66-15.8 2.64-24.37 9.9-5.92 4.6-9.22 9.2-9.22 13.82-.66 5.27 0 9.88 2.64 13.17 2.64 3.97 7.9 8.58 15.15 13.2l2.64.65 1.98-1.32c1.32-3.95 3.96-7.25 7.25-10.54 6.6-7.92 13.84-11.87 23.06-13.2l1.3-.65zM155.6 344.3c5.27.65 9.88 5.92 15.15 16.46-13.17 1.98-23.05 9.88-29.64 23.06-9.23-7.25-14.5-13.18-14.5-18.44v-1.98c.66-2.64 3.3-6.6 7.9-10.54 7.9-6.6 14.5-9.23 21.08-8.57z"/><path stroke-miterlimit="100" d="M364.58 579.58H7.42V7.42h357.16v572.16z" fill="none" stroke="#000" stroke-width="14.84"/></svg>