<svg xmlns="http://www.w3.org/2000/svg" width="372" height="587" viewBox="0 0 372 587"><path fill="#fff" d="M0 0h372v587H0z"/><path fill="#333" d="M330.47 45.7c0-3.3-1.32-4.6-4.62-4.6s-4.62 1.3-4.62 4.6 1.32 5.28 4.62 5.28 4.62-1.98 4.62-5.27zm-30.35-12.53c0-3.3-1.32-5.28-4.62-5.28s-5.28 1.95-5.28 5.25c0 2.64 1.98 4.62 5.28 4.62s4.62-2 4.62-4.63zm12.53 29.03l-1.32-3.3-3.3-1.98c-3.3 0-5.27 1.98-5.27 5.28 0 3.3 1.98 4.6 5.27 4.6l3.3-1.3 1.32-3.3zm29.7 13.2c0-3.3-1.32-4.62-3.96-4.62-3.3 0-5.3 1.32-5.3 4.62s2 5.27 5.3 5.27c2.6 0 3.93-1.98 3.93-5.27zm-2.65-44.88c0-2.63-1.3-4.6-3.95-4.6-3.3 0-5.28 1.97-5.28 4.6 0 3.3 1.98 5.3 5.28 5.3 2.64 0 3.96-2 3.96-5.3zm-4.6 68.62c0-2.64-2-3.95-5.3-3.95s-4.6 1.3-4.6 3.92l1.3 3.96c1.33.66 2 1.32 3.3 1.32l3.3-1.33 2-3.96zm11.86 32.34l-1.32-3.3-3.3-2c-3.3 0-4.62 2-4.62 5.3s1.33 4.6 4.62 4.6l3.3-1.3 1.32-3.3zm-36.94-40.25c0-2.64-1.32-4.62-4.62-4.62s-5.28 2-5.28 4.65l1.98 3.96 3.3.66 3.3-.66 1.32-3.98zM286.92 49c0-3.3-1.32-4.62-4.6-4.62s-5.28 1.32-5.28 4.62 1.98 5.28 5.28 5.28c3.3 0 4.63-1.98 4.63-5.28zm64.66 56.08c0-3.3-1.98-4.62-4.6-4.62-1.34 0-2 .67-3.3 1.33l-1.33 3.26c0 3.3 1.32 5.28 4.62 5.28 2.63 0 4.6-1.98 4.6-5.28zm.66-50.8c0-3.96-1.32-5.28-3.96-5.28-1.98 0-2.64.66-3.3 1.32-1.3 1.32-1.98 1.98-1.98 3.96l1.98 3.3 3.3 1.32c2.64 0 3.96-1.32 3.96-4.62zM226.22 541.85l-1.3-3.3c-1.33-.65-2-1.3-3.97-1.3-.66 0-1.98.65-3.3 1.3-.66 1.33-1.32 2-1.32 3.3l1.32 3.97 3.3 1.32 3.96-1.32 1.34-3.97zm-13.85 11.88c0-3.3-1.98-4.62-4.62-4.62-3.3 0-4.62 1.35-4.62 4.65l1.32 3.3c1.32 1.32 1.98 1.32 3.3 1.32 2.64 0 4.62-1.32 4.62-4.62zm50.8-3.3c0-2.64-1.98-3.95-5.27-3.95-2.65 0-4.62 1.3-4.62 3.96 0 3.3 1.98 5.27 4.62 5.27 3.3 0 5.27-1.95 5.27-5.24zm-24.4 11.22l-1.33-3.3c-.66-1.32-1.98-1.98-3.96-1.98-.66 0-1.98.66-3.3 1.98-.66 1.32-1.32 1.98-1.32 3.3l1.32 3.3a4.27 4.27 0 0 0 3.3 1.32l3.96-1.32 1.32-3.3zm8.57-22.43c0-2.64-1.32-4.62-4.62-4.62s-5.28 1.98-5.28 4.62c0 3.3 1.98 4.62 5.28 4.62l3.3-.66 1.32-3.96zm46.18 16.48l-.66-3.3c-1.32-.65-2.64-1.97-3.96-1.97-1.3 0-2.64 1.32-3.3 1.98l-1.98 3.3 1.98 4c.66.65 1.98.65 3.3.65l3.96-.66.66-3.97zm-16.5 7.27l-.65-3.3-3.96-1.98c-2.6 0-4.6 1.95-4.6 5.25 0 2.64 2 3.96 4.6 3.96 3.3 0 4.65-1.3 4.65-3.95zm71.92-19.13l-1.32-3.3-3.3-2c-1.98 0-2.64 1.34-3.3 2-1.3 1.3-1.98 1.98-1.98 3.3l1.98 3.3 3.3 1.3 3.3-1.3 1.32-3.3zm-33.64 19.13c0-3.3-2-5.28-5.28-5.28-3.3 0-4.62 1.95-4.62 5.25 0 2.64 1.32 3.96 4.62 3.96s5.27-1.3 5.27-3.95zm29.02-1.32l-1.3-3.3-3.97-1.98c-.66 0-1.98.66-3.3 1.98-.66 1.32-1.32 1.98-1.32 3.3 0 3.3 1.32 4.62 4.62 4.62s5.27-1.32 5.27-4.62zM315.3 128.18c0-3.3-2-4.62-4.62-4.62-3.3 0-4.62 1.32-4.62 4.62s1.32 5.27 4.62 5.27c2.63 0 4.6-1.97 4.6-5.27zm20.45 20.45l-.66-3.3-4-1.32c-1.3 0-1.97.7-3.3 1.35l-1.97 3.3 1.98 3.95c1.33.66 2 1.32 3.3 1.32l3.97-1.32.65-3.95zm-64-114.8c0-3.3-1.98-4.62-5.28-4.62-3.3 0-4.62 1.35-4.62 4.65 0 2.64 1.32 4.62 4.62 4.62s5.28-1.98 5.28-4.63zm-44.2 10.55c0-3.3-1.3-4.62-4.6-4.62s-5.3 1.33-5.3 4.63c0 3.26 2 4.6 5.3 4.6 3.27 0 4.6-1.34 4.6-4.64zm17.8-16.48c0-3.3-1.97-4.63-4.6-4.63-3.3 0-4.63 1.32-4.63 4.62s1.32 5.25 4.62 5.25c2.64 0 4.6-1.98 4.6-5.28zm-32.98 4.6c0-3.3-1.98-4.6-4.62-4.6-1.32 0-1.98.65-3.3 1.3l-1.32 3.3c0 3.3 1.32 4.62 4.62 4.62 2.64 0 4.62-1.3 4.62-4.6zm43.53 9.9c0-3.3-1.96-5.28-4.6-5.28-1.32 0-1.98.67-3.3 2l-1.32 3.3L248 45.7c1.3 1.32 1.98 1.32 3.3 1.32 2.64 0 4.6-1.3 4.6-4.6zm42.9 69.28c0-3.3-1.98-4.62-5.28-4.62-.66 0-1.98.67-3.3 1.32-.66 1.32-1.32 1.98-1.32 3.3l1.33 3.96 3.3 1.32c3.3 0 5.27-1.98 5.27-5.28zM190.6 27.9l-1.32-3.3-3.3-1.33c-3.3 0-5.28 1.32-5.28 4.62s1.98 5.25 5.28 5.25l3.3-1.32 1.32-3.96zm-15.18 16.48l-1.32-3.3a6.93 6.93 0 0 0-3.3-1.3c-3.3-.02-4.62 1.3-4.62 4.6S167.5 49 170.8 49s4.62-1.32 4.62-4.62zM39.5 27.23c0-2.64-1.3-4.62-4.6-4.62s-4.63 2-4.63 4.65l1.32 3.96a4.26 4.26 0 0 0 3.3 1.3c3.3 0 4.6-1.97 4.6-5.26zm26.4.67c0-3.3-1.98-4.63-4.62-4.63-1.98 0-2.64.66-3.3 1.32-1.32 1.3-1.98 1.95-1.98 3.3l1.98 3.93 3.3 1.32c2.64 0 4.62-1.98 4.62-5.28zM54.02 42.4l-1.32-3.3-3.3-1.98c-3.3 0-4.6 2-4.6 5.3 0 3.28 1.3 4.6 4.6 4.6l3.3-1.3 1.32-3.3zm-13.2 17.16c0-3.3-1.3-4.62-4.6-4.62s-4.6 1.32-4.6 4.62 1.3 4.62 4.6 4.62 4.62-1.32 4.62-4.62zM95.6 29.2l-1.33-3.3-3.3-1.97c-3.3 0-4.62 1.98-4.62 5.28s1.32 4.64 4.62 4.64l3.3-1.3 1.32-3.3zM39.5 225.82c0-3.3-1.3-5.27-4.6-5.27s-4.63 1.97-4.63 5.27 1.32 4.62 4.62 4.62 4.6-1.32 4.6-4.62zm8.58 21.78c0-3.3-1.97-4.62-5.27-4.62s-4.6 1.32-4.6 4.62 1.3 4.62 4.6 4.62 5.3-1.33 5.3-4.63zm-5.93 123.38c0-3.3-1.32-4.62-4.62-4.62-1.32 0-2.64.65-3.3 1.3l-1.32 3.3c0 3.3 1.35 4.63 4.65 4.63s4.62-1.35 4.62-4.65zm19.13 23.75c0-3.3-1.32-4.63-4.62-4.63-2.64 0-4.62 1.33-4.62 4.63a4.5 4.5 0 0 0 4.62 4.6c3.3 0 4.62-1.96 4.62-4.6zm-19.13 24.4c0-2.63-1.32-4.6-4.62-4.6s-4.62 1.97-4.62 4.6c0 3.3 1.35 4.63 4.65 4.63s4.62-1.32 4.62-4.62zm-3.95-19.8a4.5 4.5 0 0 0-4.63-4.6c-3.3 0-5.28 1.97-5.28 4.6 0 3.3 1.95 4.63 5.25 4.63l3.3-.66 1.32-3.96zm-2 50.15l-1.3-3.3a3.63 3.63 0 0 0-3.3-1.97c-3.3 0-4.63 2-4.63 5.3s1.32 4.63 4.62 4.63l3.3-.66 1.3-3.96zm1.33-110.18c0-2.63-1.32-4.6-4.62-4.6s-4.6 1.97-4.6 4.6c0 3.3 1.3 5.28 4.6 5.28l3.3-1.32 1.35-3.95zm19.8 91.72c0-3.3-1.33-4.63-4.63-4.63-1.32 0-1.98.64-3.3 1.3l-1.32 3.3 1.32 3.3c1.32 1.3 1.98 1.97 3.3 1.97 3.3 0 4.62-1.98 4.62-5.28zm-13.2 84.44l-1.3-3.3-3.98-1.97c-1.32 0-2.64.63-3.3 1.94l-1.32 3.3c0 3.3 1.32 4.63 4.62 4.63s5.27-1.34 5.27-4.64zm10.55 21.78c0-3.3-1.32-4.62-4.62-4.62-2.64 0-4.62 1.32-4.62 4.62s1.98 4.6 4.62 4.6c3.3 0 4.62-1.3 4.62-4.6zm-13.18 16.5l-2-3.3c-.65-.66-1.97-2-3.3-2-1.3 0-1.97 1.34-3.3 2l-1.3 3.3 1.3 3.3c1.33 1.3 2 1.3 3.3 1.3l3.3-1.3 2-3.3zm16.48 7.9l-1.98-3.3-3.3-1.3c-1.32 0-1.98.65-3.3 1.3l-1.32 3.3 1.32 3.97c1.32.7 1.98 1.35 3.3 1.35l3.3-1.32 1.98-3.95z"/><path fill="#858585" d="M69.2 158.53l28.37 4.62c-19.8-19.8-33.65-31.02-41.57-32.33l-26.4-7.26c-11.87-4.62-21.1-9.23-25.72-14.52l9.24 17.82c8.57 12.53 18.47 21.1 28.37 25.07a60.98 60.98 0 0 0 27.7 6.6z"/><path d="M56 128.18c-24.4-5.3-40.9-12.54-50.8-21.12H1.9c-.66 1.32-1.32 1.98-.66 3.3l10.56 18.48c8.57 12.53 17.8 21.1 29.02 25.73 8.58 3.96 19.14 6.6 31.68 7.25l24.4 3.3c1.33.66 2 0 3.3-.65.67-1.32.67-2.65-1.3-3.3-3.3-4.62-9.25-9.9-17.83-16.5-11.2-9.9-19.8-15.18-25.07-16.5zm-45.52-10.56c11.2 7.26 27.05 12.54 44.86 15.83 5.94 1.33 17.16 9.9 33.65 24.42l-16.5-1.32c-11.24-1.32-21.14-3.3-29.7-6.6-12.55-5.28-23.1-15.83-32.34-32.33z"/><path fill="#858585" d="M106.8 90.57c13.2-17.82 31-39.6 54.1-64.66l-23.75 11.24c-10.55 5.3-18.47 11.23-23.1 17.16a58.68 58.68 0 0 0-7.25 24.4c-.65 4.62 0 8.6 0 11.9z"/><path d="M163.54 23.93l-3.95-.66-13.9 7.25c-8.57 3.3-14.5 6.6-18.46 8.6-6.6 4.6-11.88 9.23-15.18 13.84-4.62 7.25-7.26 15.84-7.92 25.08-.66 4.6 0 9.23 0 12.53l1.98 1.98c1.32.65 1.98 0 2.64-.66 12.54-17.18 31-38.96 54.76-64.7v-3.3zM147.7 35.8l2.65-1.97a1155.6 1155.6 0 0 0-41.57 48.82c0-9.9 3.3-18.47 7.92-26.4 4.62-7.25 15.18-13.84 31-20.44z"/><path fill="#858585" d="M106.8 157.2c0 5.94 1.32 10.56 3.96 13.2 3.3-22.43 8.58-37.6 15.18-45.52 6.6-7.26 17.8-16.5 32.33-27.7l-3.3-15.2c-6.6 3.3-13.2 8.6-19.8 15.2-14.5 14.5-24.4 31.65-28.37 51.45v8.58z"/><path d="M156.3 80c-1.33-.65-2-.65-2.65 0-6.6 3.97-13.86 8.6-21.77 15.84-14.52 14.52-23.76 31.68-27.7 52.13v9.9c-.02 6.6 1.3 11.2 4.6 13.85l1.98 1.32 2.64-1.98c3.3-22.43 8.58-36.94 14.52-44.2 5.94-7.92 16.5-16.5 31.67-27.72l1.3-2.64-3.3-14.5-1.3-2zm-3.3 5.95l1.97 9.9c-14.52 11.2-24.42 19.8-31 27.7-5.3 6.6-10.57 19.14-14.53 37.62l-.66-7.92v-3.97c3.96-17.15 11.22-31 21.77-44.2 6.6-7.9 13.86-13.85 22.44-19.13z"/><path fill="#858585" d="M90.97 233.08c9.9.66 19.13 3.96 27.7 9.24-12.53-23.1-22.42-36.3-29.68-38.27l-21.14-3.95c-9.9-2.65-18.48-5.94-23.1-10.57l3.3 15.84c4.62 11.88 11.22 18.47 19.14 22.43l23.76 5.28z"/><path d="M89.65 201.4l-11.22-1.97c-15.83-2.63-26.4-6.6-32.33-11.87l-3.3-.66-1.3 2.63c0 4.62 1.3 9.9 4.6 17.82 4.62 11.87 11.22 19.8 19.8 23.1l21.77 5.27c10.56.66 20.45 3.3 29.7 8.57l3.3-.68v-3.3c-12.55-23.1-23.1-36.3-31.02-38.93zm-11.88 2.65l10.56 2.64c5.28 1.3 12.54 11.2 23.75 29-7.25-3.3-15.17-4.6-24.4-5.28l-19.8-4.62c-9.9-4.6-16.5-14.5-19.8-31 6.6 4.6 16.5 7.9 29.7 9.24z"/><path fill="#858585" d="M62.6 114.98l7.92 13.2c1.98 7.9 5.28 13.85 9.9 17.15 1.97 1.98 5.27 3.3 9.23 4.62 3.96 1.98 5.94 5.28 7.26 9.9l2 19.8c.67 11.2 2 22.42 4.6 32.98 2 11.22 8.6 23.75 19.8 36.3l15.2 16.48 5.93-14.5-13.18-13.84c-9.24-10.55-13.86-21.1-15.84-29.7-4.6-31-6.6-49.47-6.6-55.4 0-2 .67-3.97 2-7.92l2.63-9.24a381.4 381.4 0 0 0 0-38.94l-21.1-1.98c-15.2 0-27.06 4.62-34.98 13.86l5.28 7.25z"/><path d="M54.68 109.04c7.26 7.92 11.22 14.52 13.2 19.14 2.63 9.24 5.93 15.83 11.2 19.8l6.6 3.3a14.3 14.3 0 0 1 5.3 3.3c1.3.65 2.63 3.3 3.3 5.27l1.3 14.5c1.33 13.87 2.65 26.4 5.3 38.28 1.97 11.87 8.57 24.4 19.78 37.6l16.5 17.16 1.97.63 1.32-1.32 5.94-14.5-.7-3.3-12.52-13.2c-9.25-11.2-13.87-20.45-15.2-29-3.95-29.05-6.6-48.18-6.6-54.78l2-6.6c1.3-3.96 1.97-7.26 1.97-10.55l.66-9.24v-29.7l-1.97-1.97-22.43-2.64c-15.83.66-27.7 5.27-36.95 14.5-.66 1.33-.66 2.65 0 3.3zm33 37.6l-5.3-3.3c-4.6-2.62-7.24-8.57-9.88-16.48-1.32-4.62-4.62-10.56-11.88-18.48 11.88-11.2 28.37-14.5 50.14-9.9v36.3l-2.64 8.57c-1.32 3.97-1.97 6.6-1.97 8.58 0 7.25 2.63 25.73 7.25 55.42 1.98 13.86 11.22 29.03 27.05 44.87l-3.3 8.57a110.1 110.1 0 0 1-16.5-18.5c-8.57-11.2-13.2-21.1-15.17-30.36-1.98-11.2-3.3-24.4-4.62-37.6l-1.97-15.18c-1.35-5.93-4.65-10.55-11.25-12.53z"/><path fill="#D96038" d="M56 88.6l49.48-17.16-9.23-12.54c-8.58-7.92-17.16-9.24-27.05-4.62-9.24 4.62-14.52 11.22-14.52 21.1-.66 5.3 0 9.9 1.32 13.2z"/><path d="M108.12 70.1a38.12 38.12 0 0 0-13.85-16.48c-8.58-5.27-16.5-5.94-25.73-1.32-10.56 4.62-15.84 11.88-16.5 23.1-.66 5.27.66 9.9 1.98 14.5.66 2 1.98 2 3.3 2l49.48-17.83 1.98-1.97-.66-2zM90.97 58.25c4.62 2.64 7.92 7.26 11.22 11.87L57.95 85.3l-.66-7.93c0-9.23 3.97-16.5 13.87-20.45a19.36 19.36 0 0 1 19.8 1.32z"/><path fill="#D96038" d="M111.42 76.05l-3.96-13.85c-1.97-2.64-5.27-3.3-9.9-1.32L85.7 65.5c-3.3 1.98-4.63 5.28-5.3 9.9l-.65 8.57-3.95 9.9c-2.64 6.6-2 11.87 1.3 14.5a50.6 50.6 0 0 0 15.2 6.6c5.93.67 9.9 0 13.2-3.3 5.26-4.6 8.56-11.2 8.56-19.78l-2.64-15.87z"/><path d="M87.67 62.2l-3.3 1.3c-5.28 2-7.26 7.28-7.26 17.17v1.98c-3.3 6.6-5.9 12.54-5.9 18.48 0 3.96 1.3 7.25 4.6 9.23 5.3 3.3 11.2 5.94 16.5 6.6 6.6 1.32 11.9.67 15.18-3.3 5.94-5.28 9.24-13.2 9.24-21.77l-2.63-16.5c-2-6.6-3.3-11.24-4.63-14.54-1.98-3.3-4.62-4.62-8.57-3.3-3.3 0-7.26 1.32-13.2 4.62zm16.5.66l4.62 13.85 1.94 15.2-.66 9.9c-1.3 2.65-3.3 5.28-5.94 8.58-2.64 1.98-6.6 2.64-11.88 1.32-4.63-.66-8.6-3.3-13.2-5.95-2-1.3-2.64-4.6-1.33-9.9L82.4 85.3v-2l.65-8.56c.66-3.96 1.32-5.94 3.3-5.94l3.96-2c8.6-3.94 13.9-5.26 13.9-3.94z"/><path fill="#D96038" d="M59.96 111.68c1.98 1.98 7.92 3.3 17.15 5.94 4 .66 7.95-2.64 10.6-11.88C91 97.17 91.64 90.57 91 85.3c-.67-4.65-4.63-7.95-10.57-9.27l-14.5-1.97c-8.58 0-13.2 6.6-11.88 20.45.66 8.58 2.64 13.86 5.94 17.16z"/><path d="M65.9 71.44c-4.62 0-7.92 1.3-9.9 3.95-3.96 3.93-5.28 9.9-4.62 19.1.66 9.24 2.64 15.84 6.6 18.48 1.98 1.97 7.26 3.95 15.83 5.93l2.68 1.33c2.63.66 5.27 0 7.9-1.98 2.65-3.3 5.3-8.58 7.27-16.5 1.98-6.6 2.64-12.53 1.98-17.15-1.3-5.94-5.27-9.24-13.2-11.88l-14.5-1.3zm-6.6 7.25a11.1 11.1 0 0 1 6.6-2l13.85 2c5.28 1.95 7.92 3.3 7.92 6.6.66 3.93 0 9.2-.66 15.15-1.95 6.6-4.6 11.2-6.6 13.2l-2.6 1.3-3.3-1.3c-6.6-1.33-11.88-3.3-13.2-5.28-1.98-2-3.96-6.6-4.6-14.53-.7-7.24.6-11.84 2.6-15.14z"/><path fill="#858585" d="M71.18 278.6a53.64 53.64 0 0 0-26.4-6.6c-13.2.67-27.7 3.3-42.88 6.6l19.13 19.13c12.54 13.86 21.78 24.43 25.74 33 5.93 11.88 15.17 20.45 26.4 26.4 14.5 7.25 30.33 7.25 48.8 1.3 17.17-4.6 25.08-19.78 23.1-43.54l-7.92-33.68c-5.93-3.96-13.2-7.25-22.43-10.55-17.15-7.27-32.33-9.9-45.52-8.6l3.96 11.23c2.64 4.6 4.6 8.58 5.93 10.56l-7.94-5.27z"/><path d="M66.56 260.8l-.66 1.3v1.33l4.6 11.2c-9.22-4.6-17.8-6.58-25.7-5.92-13.88.7-27.73 3.3-43.57 7.3l-2.64 2.62 1.3 3.3 18.47 17.83c13.2 13.2 21.1 24.4 25.72 32.33 5.94 11.87 13.85 19.8 23.75 25.73 15.83 9.9 34.3 11.2 55.42 3.96a31.97 31.97 0 0 0 21.1-17.82c4.63-9.9 5.95-23.75 2.65-40.9l-6.6-23.1-1.3-1.3c-7.27-4.63-15.2-7.93-23.77-11.9-17.8-6.6-33-9.23-46.18-7.9l-2.64 1.97zM8.5 280.57c13.2-2.64 25.07-4.6 36.28-5.27 7.92 0 15.84 1.33 24.42 6.6 4.6 1.98 7.9 4.62 11.2 6.6l.67.67c1.32.65 2.64 0 3.3-1.33l1.32-1.3-1.35-3.3-1.32-.67c-2.64-2.64-5.94-7.93-9.23-17.16 10.56 0 23.76 2 38.27 7.95 8.58 3.3 16.5 6.6 22.44 9.9a100.77 100.77 0 0 1 7.27 38.26c0 7.9-1.32 14.5-3.3 19.8-3.3 6.6-9.23 11.87-17.8 14.5-18.48 5.95-34.98 5.3-49.5-3.3a58.76 58.76 0 0 1-21.76-23.74c-5.92-11.22-19.8-27.72-40.9-48.17z"/><path d="M21.03 285.87c-1.32 0-1.98.65-1.98 1.3 0 2 .66 2.65 1.98 2.65l18.48 3.96c14.54 4.62 25.1 10.55 31.7 19.14 7.9 9.23 21.77 15.83 41.56 19.8l28.37 3.3 2.65-2-2.64-1.97-27.04-3.3c-19.14-3.3-32.34-9.9-39.6-17.82-7.25-9.23-18.47-16.5-32.98-21.1l-20.47-3.96zm46.85 38.26c-1.32-1.32-1.98-1.32-3.3 0-.66 1.32 0 1.98.66 3.3L83.7 339.3c15.2 7.92 29.04 10.56 42.9 9.25l1.98-1.33-1.98-2.64c-13.2 1.32-27.05-1.98-40.9-9.23l-17.82-11.22z"/><path d="M94.93 277.94l-2.64.67v2.66l15.14 15.18a134.56 134.56 0 0 1 25.73 38.27c0 1.3.65 1.3 1.97.66 1.98-.66 1.98-1.33 1.32-2.64a134.6 134.6 0 0 0-25.74-38.25l-15.83-16.5zm-3.96 21.78l-2.64-.66c-.66 1.32-.66 2.64-.66 3.3l6.6 8.57c5.28 7.26 9.23 13.86 11.88 19.8.65.66 1.3.66 2.63.66 1.32 0 1.32-1.35 1.32-2.67l-12.53-19.8-6.6-9.23z"/><path fill="#858585" d="M344.32 168.42c-9.9-1.98-21.77-1.98-36.3-.66-29 1.98-55.4 9.9-79.16 23.1L218.3 234.4c-5.93 32.33-5.27 54.1 1.32 67.3 7.26 12.53 19.8 12.53 38.93-1.32 9.9-6.6 18.48-14.5 27.05-23.75l17.16-14.52c13.2-9.2 23.75-15.14 32.32-17.13-7.25-8.57-14.5-12.53-21.77-12.53l13.9-21.1c9.23-15.85 15.17-30.36 17.14-42.9z"/><path d="M347.62 168.42c0-1.98-1.3-3.3-2.64-3.3l-38.92-.66a193.13 193.13 0 0 0-79.18 23.1l-.66 1.97-11.87 46.2c-5.28 31.66-4.62 54.1 2.64 67.3 3.3 5.93 7.9 9.88 13.82 10.54 9.9 1.32 21.77-3.95 36.3-15.17l20.44-19.8 17.82-13.2c12.52-9.9 22.42-15.16 30.34-17.15l1.97-2.63.67-.67-.68-1.97c-5.94-6.6-11.88-10.56-18.48-12.54 16.5-22.43 25.73-42.88 28.37-61.36v-.66zm-36.94 65.32l2.64 1.98c5.27 0 9.9 1.98 15.83 7.92-8.57 3.3-18.47 8.57-29.7 17.8L282.98 274l-23.1 21.1c-11.22 9.23-20.45 13.2-27.7 11.88-4.63-.66-7.26-2.65-9.24-7.26-3.3-5.94-5.28-14.52-5.28-27.05 0-13.86 1.98-30.35 5.94-48.82 3.3-13.2 5.92-23.75 8.56-31 19.8-10.57 41.57-17.83 66.64-21.13 14.52-1.3 28.37-1.98 40.9-.66-3.3 19.14-13.2 38.93-28.36 59.38l-1.32 1.98.66 1.32z"/><path d="M322.55 181.62c0-.66-.66-.66-2.64-.66-9.2 5.28-20.42 11.87-31.64 21.1-23.1 18.5-40.9 38.28-51.46 60.7-.67 1.33 0 2.65.65 2.65 1.98 1.35 2.64.7 2.64-1.3 10.54-21.76 27.7-41.56 50.12-59.4 11.88-8.55 22.44-15.15 32.33-20.42.66 0 1.32-1.32 0-2.64z"/><path d="M283.63 180.96c-.67 0-1.33 0-2 .66l-5.26 12.54c-3.3 8.57-5.28 16.5-5.94 23.1 0 1.97 1.32 1.97 2.64 1.97l1.98-1.32c0-6.6 1.32-13.83 4.62-23.1l5.27-11.2c.66-.64 0-1.96-1.3-2.62z"/><path d="M316.6 207.35c-.65-1.32-1.3-1.98-2.63-1.32l-24.4 4.62h-11.23c-1.98 0-1.98.66-1.98 1.98 0 1.32 0 1.98 1.98 1.98l11.88-.63 25.07-4.62c1.3 0 1.3-.66 1.3-1.98zm-15.82 25.07l-1.98-1.32-20.45 4.62-38.93 7.92c-1.98 0-1.98.66-1.98 1.98 0 1.32 1.32 1.98 2.64 1.98a1436 1436 0 0 0 59.38-12.54l1.32-2.64z"/><path fill="#858585" d="M251.95 493.7l2 10.55c3.28 7.9 9.22 15.18 16.48 21.1 7.9 4.63 19.13 9.9 33 13.2l22.42 6.6c-.66-3.3-1.32-6.6-1.98-11.2-1.32-8.6-.66-17.16 1.98-23.76 2.64-7.95 3.3-17.2 3.3-26.4a57.75 57.75 0 0 0-4.62-18.5l11.88 3.96c0-5.28-.63-11.22-3.3-18.47-5.25-13.86-14.5-27.06-29-39.6-9.9 0-20.45 2.65-31.67 5.95-22.43 7.92-36.28 19.8-42.22 36.28l2 19.8c1.97 15.17 5.93 27.7 10.55 37.6l9.23-17.14z"/><path d="M226.88 453.45l1.98 20.45c1.98 15.83 5.94 28.37 11.22 38.93 0 .66 1.32 1.32 2.64 1.32.66.65 1.98 0 3.3-.66l4.62-9.27c2.64 9.24 9.24 17.15 18.47 23.1 7.95 5.93 22.46 11.2 41.6 15.83l13.85 4.6 3.96-.64.66-2v-1.3c-1.32-5.28-2.64-10.55-2.64-17.15 0-5.95.68-11.24 2.66-15.85a79.07 79.07 0 0 0 3.3-21.78c0-6.6-.66-13.2-2.64-19.12l5.95 1.97 2.63-.66 1.3-2c1.34-3.94-.64-10.54-3.94-19.78-4.63-14.52-14.53-28.37-29.7-40.9l-1.98-.67a130.8 130.8 0 0 0-34.3 6.6c-22.45 7.9-36.3 20.44-42.9 37.6v1.3zm8.58 19.13l-1.98-19.13c5.94-13.86 17.82-25.07 36.95-31.67 11.2-4.62 22.43-6.6 32.33-7.26 18.47 15.83 28.36 32.33 29.7 49.5l-6.6-2c-2-.65-3.3 0-3.3 1.32-.67 0-1.33.67-1.33 1.98l.66 1.32c2.6 4.62 3.93 12.53 3.93 21.77 0 7.3-.66 13.88-3.3 20.48-1.32 5.28-2.64 11.23-2.64 17.82l1.32 13.2-9.24-2.65c-19.15-5.3-32.35-9.9-38.95-15.2a44.98 44.98 0 0 1-15.83-17.8c-1.32-3.95-1.98-7.25-1.98-9.9v-.65c0-1.33-1.32-2.65-2.64-3.3l-3.95 2.63-5.28 10.56c-3.3-8.6-5.93-19.16-7.9-31.04z"/><path d="M271.75 447.5c-1.32.67-1.32 2-1.32 2.65l6.6 11.22 11.2 25.07c5.3 17.15 11.9 30.35 21.13 40.9.66 1.32 1.32 1.32 2.64 0 .66-.65.66-1.98 0-2.64-8.58-10.55-15.18-23.75-19.8-40.24a152.53 152.53 0 0 0-11.2-24.42l-6.6-11.87c-1.33-1.32-2-1.32-2.65-.66z"/><path d="M292.2 487.76c-1.32 0-2.64 0-2.64 1.98l-2.64 9.9c-1.32 7.25-1.98 13.85-1.98 17.8 0 1.32.66 2.65 1.32 2.65l2.64-2.67c0-3.96.66-9.9 1.98-17.15l1.98-9.9c.66-.68 0-2-.66-2.65z"/><path d="M290.23 483.14l-2 1.98c-.64 1.32 0 1.98 1.33 1.98l11.88 3.3c5.94 2.64 9.9 3.96 11.88 5.93 1.3 1.33 1.97 1.33 2.64 0 1.32-.66 1.32-1.32 0-2.63-2.64-2.64-7.26-4.63-14.52-7.26l-11.2-3.3zm-23.1 15.83l2.64-1.98c0-4.65 2.64-13.2 5.28-23.78l4.62-15.17c0-1.32 0-1.32-1.32-2-1.32 0-1.98 0-2.64.68l-3.93 15.83c-3.3 10.56-5.28 18.48-5.94 23.75 0 2 0 2.65 1.33 2.65z"/><path fill="#858585" d="M212.37 452.78c-1.32-11.2-17.82-18.46-48.83-20.45-31-1.98-53.44.66-69.27 7.92l-13.86 13.2c-9.86 12.53-17.8 25.07-22.4 38.92h22.4L74.5 506.9c-3.3 13.83-1.3 30.32 4.62 49.45l58.05-6.6a64.74 64.74 0 0 0 25.73-10.56l10.54-9.23 3.3 23.1a142.1 142.1 0 0 0 19.13-30.36c13.2-25.06 17.82-48.15 16.5-69.93z"/><path d="M204.45 438.93c-11.22-7.25-30.35-10.55-56.08-10.55-25.07 0-43.55 2.64-56.08 8.57v.67l-14.55 14.5c-10.55 11.9-18.47 24.42-23.1 38.94 0 1.3 0 1.97.67 2.64.66 1.3 1.98 1.97 2.64 1.97h16.5c-3.3 6.6-5.28 14.52-5.28 24.42 0 11.84 2.63 23.72 6.6 36.92l3.94 2.64 57.4-6.6c11.22-1.33 23.1-6.6 33.65-15.84l2.63 16.5 2.64 2.64c.66 0 1.98 0 3.3-1.33a145.54 145.54 0 0 0 20.45-31.66c12.53-24.43 17.15-48.84 15.83-70.6-.66-5.95-3.96-9.9-11.22-13.87zm-56.08-3.95c24.4 0 42.23 3.3 52.78 9.23 5.28 2.67 7.26 5.97 7.92 9.27v7.92c0 27.7-9.9 55.4-31 83.77L176.74 530c0-1.33-.66-2.65-2.64-3.3-1.32 0-2.64 0-3.3 1.3l-9.9 8.6c-8.57 5.92-16.5 9.22-24.4 9.9l-54.77 6.6c-3.96-13.2-5.94-23.77-5.94-33a58.7 58.7 0 0 1 3.3-19.8l3.3-5.94 1.3-1.98-.67-1.3c-.66-.67-.66-1.33-2.64-2H62.6a144.26 144.26 0 0 1 20.45-33L95.6 442.9c11.86-5.28 29.02-7.92 52.77-7.92z"/><path d="M167.5 453.45c-1.32-.67-1.97 0-3.3.66-11.2 23.78-27.05 41.6-45.52 52.8-9.9 6.6-17.8 13.87-24.4 23.76-3.3 4.6-5.95 9.24-7.27 13.2-.63 1.3 0 2.64.7 2.64 1.3.65 2.63 0 2.63-1.34 2-3.3 3.97-7.25 7.27-11.87 6.6-9.9 14.5-17.84 23.1-23.1 19.77-12.55 35.6-30.36 47.5-54.1 0-1.3 0-2.65-.68-2.65z"/><path d="M121.98 508.86L120 506.9c-1.32 0-2.64 0-2.64 1.96v11.23c0 7.22-1.32 13.16-2.64 16.46-.66.66-.66 1.97.66 2.64l3.3-1.3 2.64-17.8.66-11.25zM104.18 495A68.56 68.56 0 0 0 89 501.6c-1.33.67-1.33 1.33-.67 2.65l2.64.66 14.53-5.9c11.85-3.3 22.4-5.27 32.96-3.96l2.64-1.97-1.3-1.97c-11.88-1.33-23.1 0-35.64 3.95zm41.55-6.6l-1.98-1.97c-1.32 0-1.98.67-1.98 1.98v15.87c0 12.54-1.32 21.1-2.64 28.37-.66.66 0 1.98 1.32 2.63 1.32 0 2.64 0 2.64-1.97 1.3-6.6 1.95-16.5 2.6-28.38v-16.5zm27.05-24.4l-1.98-1.32c-1.32 0-2.64.66-2.64 1.98l1.32 16.5c0 13.2 0 24.4-1.98 33 0 1.3 0 1.96 1.98 2.63l1.98-2c1.98-9.25 1.98-20.47 1.98-33.66l-.66-17.15z"/><path fill="#D96038" d="M211.05 325.45v71.92h85.77v-71.92h-85.77z"/><path d="M209.07 397.37c0 1.32.66 2.63 1.98 2.63h85.77c1.98 0 2.64-1.3 2.64-2.63v-71.92c0-1.32-.66-2.64-2.64-2.64h-85.77c-1.32 0-1.98 1.34-1.98 2.67v71.92zm4.62-2.64V328.1h81.12v66.63H213.7z"/><path d="M253.28 334.7c-1.33 0-2.64.65-2.64 1.97l-.67 44.2c0 1.32.67 2.64 2.64 2.64l1.36-2.6 1.3-44.2-1.97-2zm17.15 3.28c-1.32 0-1.98 0-1.98 1.33l-.66 39.6c0 2 .63 2 1.95 2l1.98-2 .66-39.6-1.98-1.3zM235.46 336c-1.98 0-1.98.66-1.98 2l-.66 40.9c0 1.97.66 1.97 1.32 1.97l2.64-1.98V338l-1.32-2z"/><path fill="#D96038" d="M202.47 409.9l-5.94 27.05c-3.96 17.82-3.3 27.7 1.32 29.7l15.18 1.3 21.1-1.97c5.95 0 15.84 1.32 27.72 4.62l21.1 1.98 15.2-5.94a19.72 19.72 0 0 0 8.57-12.53c1.97-4.6 0-13.2-4.62-23.73l-7.26-15.83-92.37-4.62z"/><path d="M203.13 407.26c-1.98 0-2.64.67-2.64 1.98a159.47 159.47 0 0 0-7.95 33c-1.98 15.83-1.3 24.4 3.96 27.04l19.8.66 17.8-1.32 25.75 4.62 13.2 2.64 11.2-.66 2-.66c6.6-1.98 11.2-4.62 13.85-6.6 4.6-2.64 7.27-7.25 9.24-13.2 2.64-8.57-1.32-22.43-12.53-40.9l-1.3-1.98-92.37-4.62zM199.17 464c-1.98-.66-2.64-3.3-2.64-7.92 0-9.9 2.64-25.06 7.92-42.88l89.07 3.96c7.26 13.86 11.22 24.4 11.22 32.32l-.66 3.97c-1.32 4.62-3.96 7.92-7.26 10.56l-12.53 5.96h-1.36l-22.43-2.63-26.4-3.96-19.1 1.32-15.84-.66z"/><path fill="#D96038" d="M355.54 401.98l7.92-11.2c1.32-3.3.66-7.93-2.64-12.55-1.98-3.3-3.3-10.56-5.28-21.77-1.32-10.56-3.96-16.5-7.26-18.48-3.3-3.3-10.56-3.3-21.77 0L312 342.6c-12.54 8.58-18.48 25.07-18.48 50.15.66 12.53 1.98 24.4 4.62 34.97l14.5 2.63 20.47.67c2.67 0 6.6-3.96 11.9-11.23l10.56-17.84z"/><path d="M355.54 345.25a24.8 24.8 0 0 0-5.94-9.9c-5.94-4.63-18.47-3.3-38.92 5.27h-.66c-12.54 8.58-18.48 25.08-18.48 50.8a171.3 171.3 0 0 0 3.96 36.96l2.64 1.98 14.52 2.63 20.45.63c3.3 0 5.97-2.63 9.26-6.6l8.58-13.2 6.6-9.9 1.98-3.28 6.6-9.9c1.3-4.62 0-9.23-2.63-13.86-2-2.63-3.3-9.23-4.63-18.46l-3.3-13.2zm-8.58-5.3c1.98 2 4.62 8.6 6.6 19.15.66 9.9 3.3 16.5 5.28 20.45 1.98 3.96 3.3 6.6 1.98 9.24l-5.28 8.55-1.98 3.3-7.25 10.55-7.23 11.23-6.6 5.94-32.33-2.65c-1.98-10.55-3.96-21.77-3.96-34.96 0-23.1 5.94-38.27 17.16-46.2 5.93-2.62 12.53-3.95 18.47-5.26l15.17.66z"/><path fill="#D96038" d="M308.7 268.7c-17.16-6.6-29.03-9.9-34.97-9.9-4.62 0-11.22 3.3-19.8 8.6l-13.2 9.23c-.65 0-.65 3.3 1.33 11.2l3.3 11.23 62.02 43.55c17.8-4.6 27.04-8.56 29.03-12.5 1.34-2 1.34-5.95 0-11.2-.63-6.6-1.3-11.25-.63-14.55l1.97-13.2c.66-3.95.66-7.25-1.3-9.22-2-3.3-11.23-7.26-27.73-13.2z"/><path d="M309.36 265.4c-17.16-5.92-29.7-8.57-35.63-8.57-6.6 0-15.18 3.96-27.06 13.2l-5.93 3.3-1.98 1.3c-1.98 2-.66 10.57 3.96 25.1l.66 1.97 62.68 42.88 1.98.67c17.8-4.63 28.37-9.24 31-13.86 1.33-3.3 1.33-7.3 0-13.2l-.65-13.88 1.3-9.9 1.3-7.25-1.98-6.6c-2.63-3.97-12.53-8.6-29.68-15.2zm23.1 38.93v3.3l1.3 11.23 1.32 6.6-.66 3.3c-1.97 2.63-9.9 6.6-26.4 10.55l-60.68-41.54c-3.3-9.9-3.96-16.5-3.96-19.13l5.93-4.6c11.9-8.6 20.5-11.88 24.45-11.88 5.94 0 17.15 2.63 33.65 8.57 15.82 5.94 25.06 9.9 27.03 12.54l1.32 3.96-3.3 17.13z"/><path fill="#D96038" d="M249.98 380.2l-23.1.67-11.2 19.8c-5.95 13.2-5.3 21.1 1.3 23.75l33 10.55 25.06 5.28 15.84-11.22c7.92-6.6 11.88-11.2 12.54-14.5 1.3-2 0-7.93-3.3-17.83l-5.28-13.2-44.86-3.3z"/><path d="M250.64 377.57l-23.76.66c-1.32 0-1.97.66-2.63 1.32L215 395.4c-5.27 11.2-7.25 18.46-5.27 24.4.66 3.3 2.64 5.27 6.6 7.25l33 10.56c13.84 4 23.08 5.97 26.38 4.65 3.3-.66 9.26-4.62 17.18-11.2 7.92-7.28 12.54-12.55 13.2-15.85 1.98-3.97-.66-15.2-8.58-33l-2-1.3-44.85-3.3zm-36.3 40.25v-2.64c0-7.26 4.62-17.8 13.86-31.68l64.66 2c5.94 13.18 8.58 22.42 8.58 27.7v.66l-11.88 13.2c-7.26 6.6-12.53 9.9-15.17 9.9L251.3 433c-13.87-3.98-24.43-7.28-33.66-11.24l-3.3-3.95z"/><path fill="#D96038" d="M290.23 326.1L279 331.4c7.26 13.18 11.23 27.04 11.23 42.2 0 7.27-.67 13.87-2 17.83l33.66-.66c3.93-3.3 6.6-9.24 7.9-18.48 2.63-8.6 2.63-14.54 0-17.18l-9.9-17.16c-4.6-9.23-8.58-13.85-11.2-14.5-3.3-1.33-9.26 0-18.5 2.63z"/><path d="M309.36 320.83c-3.96-1.32-9.9 0-17.82 2.64a88.23 88.23 0 0 0-13.85 5.28l-1.35 1.32v1.98c7.26 13.2 11.87 27.05 11.87 41.56 0 6.6-1.3 12.57-2.64 17.2l.65 2.62 1.98.68 34.98-1.32 7.93-12.54c1.33-5.93 2.65-11.86 3.3-16.5 0-5.26-1.3-9.22-2.63-10.54l-6.6-11.2c-6.6-13.2-12.56-20.47-15.85-21.13zm18.47 36.3l1.32 6.58-3.3 14.55-5.94 10.56-28.34.66 1.32-15.84c0-14.5-3.3-27.7-10.56-41.54 13.87-4.63 21.78-7.26 25.74-6.6 1.98.66 6.6 7.26 12.54 19.13l7.26 12.54z"/><path fill="#D96038" d="M296.16 311.6c-1.32-7.27-5.94-13.2-13.2-17.16-6.6-4.62-16.5-7.92-31-11.2-11.88-3.3-18.48 1.96-21.78 13.18a51.44 51.44 0 0 0-2.64 21.1c-.66 2.65 3.96 7.27 13.2 13.87l46.18 3.3 5.94-5.97c3.3-4.62 3.96-10.56 3.3-17.16z"/><path d="M298.8 311.6c-1.98-8.58-5.94-15.18-14.5-19.8-5.95-3.96-17.17-7.92-31.7-11.87-7.24-1.33-13.18-.66-17.14 3.3-6.6 4.6-9.9 15.17-9.9 30.34l-.65 3.3c-1.3 3.96 3.98 9.24 15.2 16.5l.66.65 46.2 3.96 1.97-.66 6.6-6.6c3.3-5.93 3.96-12.53 3.3-19.13zm-5.28.66v3.95c0 4.65-.66 7.95-2.64 11.25l-4.62 4.62-44.2-3.96c-7.92-4.62-11.88-8.6-11.88-9.9v-3.96c0-14.5 3.3-23.1 8.58-27.7l11.88-1.33c15.17 3.98 25.73 7.93 31.66 11.23 6.6 4.6 9.9 9.24 11.22 15.84z"/><path fill="#D96038" d="M240.08 390.1c6.6 7.93 13.2 13.86 19.8 17.16 10.55 5.28 23.08 0 36.94-16.5 4.62-3.95 5.28-9.9 3.3-16.5-1.32-7.25-5.94-11.86-12.54-12.52-11.2 8.57-21.1 12.53-29.03 13.2l-25.73 3.3 7.26 11.86z"/><path d="M238.76 392.1c6.6 8.56 13.2 14.5 19.8 17.8 11.87 5.28 25.07 0 40.9-17.8 1.98-2 3.3-5.3 3.96-9.25l-.66-11.2c-3.3-7.27-7.92-11.24-14.52-12.55l-1.98.66c-10.56 7.92-19.8 12.54-27.7 12.54l-26.4 3.3-1.98 1.3v2.65l8.58 12.54zm-1.98-11.23l22.43-3.3c7.95 0 17.85-4.62 29.06-13.2 4.62 1.33 7.92 3.97 9.24 9.24l1.3 5.97c0 3.95-1.3 7.25-3.3 9.24-13.85 15.17-25.06 21.1-34.96 15.83-7.25-3.96-15.17-11.87-23.75-23.75z"/><path fill="#D96038" d="M241.4 324.8l-11.88 15.82 13.86.66 25.07 3.3c5.94 1.32 11.2 4.62 14.5 9.9l4.63 7.26c7.26-11.88 11.22-19.8 11.22-23.76 0-2.63-5.28-7.9-15.84-15.82-9.9-7.27-17.15-11.23-22.43-11.23-3.96-.66-10.55 3.96-19.13 13.86z"/><path d="M261.2 308.3c-4.63-.67-11.23 3.3-19.8 12.53l-14.52 17.82v2.63l2.64 1.33 13.86 1.34 24.4 3.3c8.58 1.32 14.52 6.6 17.16 15.18l1.98 2 2.64-.68 6.6-11.85c3.3-6.6 5.27-10.58 5.27-13.87 0-3.3-5.27-9.23-16.5-17.16-10.54-8.57-18.46-12.53-23.74-12.53zm-11.9 12.53c5.3-5.27 9.25-7.9 11.23-7.9 4.62.64 11.22 4.6 21.1 11.86 8.6 6.6 13.87 11.2 14.53 13.16l-8.58 18.48c-4.62-8.58-10.55-12.54-18.47-14.5l-34.94-3.98 15.17-17.15z"/><path fill="#9260C7" d="M257.23 222.52c5.94-56.08 8.58-106.88 8.58-151.08l-115.43-.67c.66 46.85-2.64 98.97-10.56 155.72-15.83 114.76-47.5 197.9-94.35 250.7l149.12 3.94c30.35-60.04 51.46-146.47 62.67-258.64z"/><path d="M269.1 71.44c0-2.64-1.3-3.3-3.3-3.3l-115.45-.66c-1.32 0-1.98.66-2.64 1.32-.63.65-.63 1.97-.63 2.64.66 47.5-2.64 99.62-11.2 155.7C120 340.62 88.97 423.74 42.8 475.22c-1.3 1.32-1.3 2.64 0 3.95l2.65 1.33 149.1 3.96c1.98 0 2.64-.66 3.3-1.32 29.7-60.05 50.8-145.82 62.02-258.64 5.94-56.74 9.24-107.54 9.24-153.06zM153.66 80v-5.93l108.86.67c0 48.82-3.3 102.92-9.9 161.64-12.52 104.9-32.3 184.74-60.03 241.48L52.02 473.9c40.9-48.82 69.94-122.72 86.43-222.35 9.9-57.4 15.18-114.8 15.18-171.54z"/><path fill="none" stroke="#000" stroke-width="3" stroke-miterlimit="100" d="M370.6 585.26H3.9V2.74h366.7v582.52z"/><path stroke-miterlimit="100" d="M367 582H5V5h362v577z" fill="none" stroke="#000" stroke-width="10"/></svg>