<svg xmlns="http://www.w3.org/2000/svg" height="100%" viewBox="0 0 372 587"><path fill="#fffaf0" d="M0 0h372v587H0z"/><path fill="#858585" d="M199 475.03l-10 6c-7.33 4.66-11.33 11.32-12.66 17.98-2 8-1.33 14.66 3.33 21.32l6.66 8 9.33-3.33c6.66-4.68 11.32-10 12.65-18 2-6.66.68-14.65-3.32-21.98l-6-10z"/><path d="M197.65 473.03l-10 6c-7.3 5.32-12.64 11.98-13.97 19.32-2.67 7.98-1.33 15.3 3.33 23.3l7.33 9.33 2 .67c2 0 6-2 11.32-4.67 6.66-5.32 11.33-11.32 13.33-18.64 2-8 .66-16-3.33-24l-6.67-10.65-3.33-.67zm8.66 27.3l-.65 6.67c-2 9.32-8.66 15.32-18.65 18.65-6-5.33-9.33-11.32-9.33-19.98l.67-5.33c2.66-9.32 9.32-16.65 19.98-21.98 5.33 7.33 8 14 8 21.98z"/><path d="M186.33 526.3c-2-.65-2.66.68-2.66 2.02L181 541.64c-.66 2 0 2.66 2 3.33l2.67-2.67 2.66-13.32c0-1.33-.67-2-2-2.67z"/><path fill="#858585" d="M229.62 509l-8.65 8c-5.33 6.65-8 13.98-7.33 21.3 0 7.33 2.66 14 8 20l8.65 5.98c2.65-1.33 5.32-4 7.98-6.66 6-6 8.66-12.65 8-19.3 0-8-2.67-14.67-8.66-21.33l-8-8z"/><path d="M230.96 507c-1.34-.67-2-.67-3.33 0-2 1.34-4.67 4-8.66 8.66-5.33 7.32-8.66 14.65-8 22.65 0 8.66 3.34 15.32 9.33 21.98 2.66 2.67 6 4.67 9.32 6.66h2l9.33-8c6-5.98 8.65-13.3 8-20.63-.68-8.66-3.34-15.98-8.67-22.64-4-5.33-7.33-7.32-9.32-8.66zm-14.66 31.3c0-9.98 4-17.98 13.32-25.97 9.33 7.32 14 16 14 25.98 0 6-2 11.33-6 16l-7.33 7.32c-9.33-5.33-14-13.32-14-23.3z"/><path d="M232.95 564.28c0-2-1.33-2.66-2.66-2.66-2 0-2.67 1.33-2.67 3.33l.66 13.32 2.66 2c2 0 3.33-.67 3.33-2l-1.35-14z"/><path fill="#858585" d="M117.06 544.3l7.33 8.66c5.98 6 12.64 9.32 20.63 9.32 7.33 1.33 14-1.33 19.98-6.66l6.68-7.32-5.33-9.33c-5.33-5.33-12-8.66-19.3-9.32-7.35-.67-14 2-21.33 7.32-4 2-6 4.67-8.66 7.33z"/><path d="M124.4 533.64c-4 3.33-7.34 6-9.34 8.66-.66 1.33-.66 2.67 0 3.33l8 9.33c6.66 6.66 14 10 21.3 10 8.67.65 16-1.35 22.66-6.67l7.32-9.34v-2l-6.66-10c-5.33-5.98-12.66-9.3-19.98-9.98-8 0-16 2-23.3 6.66zm-4 11.33c2.65-3.33 5.98-6 9.3-8 5.34-3.33 11.34-5.32 17.34-4.66 9.32.68 16.65 6 21.98 15.33-6 9.32-14 12.65-24 12.65-9.98-.66-17.97-6-24.63-15.3z"/><path d="M172.35 544.97c-1.34 0-2.67.66-2.67 2.66s.67 2.66 2 2.66l19.3 1.33 2.68-.67.66-2c0-1.33-.66-2-2.66-2.66l-19.3-1.33z"/><path d="M65.1 370.45c0-2-1.32-2.66-3.32-2-1.33 0-2 2-1.33 3.34l13.32 30.63c11.32 24.64 25.97 47.95 42.62 69.94 51.94 71.26 117.9 121.2 197.15 147.86 1.33 1.34 2.66 0 3.33-1.33.66-2 0-3.33-2-3.33-77.93-27.3-143.2-75.27-194.5-146.53-16.64-22-30.63-44.63-41.95-68.6l-13.33-30z"/><path fill="#D96038" d="M55.12 335.82l-8 .67c-3.32 1.32-5.33 2.65-5.33 4.65-1.33 3.33 0 8 2 14 3.33 5.98 6.66 9.98 12 13.3l7.3 2.67 2-6.66c2-6 1.34-11.98-1.32-17.32-3.33-6.66-5.34-10-8.66-11.32z"/><path d="M46.46 333.82c-4.67 1.34-6.66 4-8 7.33-.66 3.33 0 8.66 3.33 15.32 3.32 6 6.65 11.32 12.65 14.65l8 2.66 2.65-1.32 3.34-8c1.33-6 .67-12.65-2-18.64-3.33-6.67-6.66-11.33-10-12.66l-9.98.66zm-2.66 10.66c0-2.66 1.32-4.66 4.65-6l5.34-.66c2.65 1.33 4.64 4.66 7.3 10 2 3.32 2.68 6.65 2.68 10.65l-2 9.32c-6.67-1.34-11.32-6-14.65-13.33-2-4-3.33-7.33-3.33-10zM65.78 403.76c-2-1.33-2.67-1.33-4 .67-.67 1.33-.67 2.66 1.33 3.33l20.66 14 3.33-.68c1.32-1.33 1.32-2.66 0-3.33l-21.32-14z"/><path fill="#D96038" d="M31.8 385.1c-1.32 3.34-2 6-1.32 8 .66 2.67 4 6 10 10 4.64 4 10.64 4.66 16.64 4.66l6.66-2-.67-7.32c-2.65-5.34-5.98-10-11.32-13.33-5.32-3.32-10-4.66-13.32-4.66-2.66.68-4.65 2-6.66 4.68z"/><path d="M29.8 384.44c-2.65 3.33-2.65 6.66-2 10 1.34 3.33 4.67 7.33 10.66 10.66 6 4 12 5.32 18.66 5.32l8-2 2-2.66c0-8.66-5.34-16.65-14-22.65-6-3.98-11.33-5.32-14.66-5.32-3.33.68-6.66 2.67-8.65 6.67zm31.97 20c-6.66 1.98-13.32.66-19.98-3.34-6-4-8.66-7.33-8.66-10l1.33-4 4-4c2.66-.65 6.65 1.35 12 4.68 5.98 3.33 9.3 9.32 11.3 16.65zM85.1 443.72c-1.34-1.33-2-.66-3.34.67-1.33 2 0 3.32 1.33 4l23.3 9.98c1.34.67 2.67 0 3.33-1.34.67-2 .67-2.66-1.33-3.33l-23.3-9.98z"/><path fill="#D96038" d="M49.12 431.07c-1.33 3.33-2 6.66-.67 8 1.34 2.66 5.34 5.32 12 8.65l16.65.67c3.33-.68 5.33-1.35 6.66-2.68l-2-6.66c-3.33-4.66-8-8.66-13.33-11.32-6.66-2.66-11.3-3.33-14.64-2.66-2.02.66-3.34 2.66-4.68 6z"/><path d="M46.46 441.06c1.33 2.66 5.32 6 12.65 8.66l18.66 1.33c2.67 0 6-1.33 8-3.33l1.33-2.66-3.34-7.33c-3.33-6-8.67-10-14.66-12.65-6.65-2.67-11.98-3.33-15.3-2-3.34 1.33-5.35 3.33-7.34 7.32-1.34 4-1.34 7.33 0 10.66zm8.66-13.32c2-.67 6.66 0 12 2.66 7.3 3.33 11.98 8 13.97 14l-20 .66c-7.3-3.33-10.64-6-10.64-9.33 0-.66 0-2 1.32-3.33.67-2 2-4 3.34-4.66zM101.74 477.02l-3.33 2c0 2 .68 2.67 2 3.34l25.98 2.66 2-2.66c.67-1.34 0-2.67-2-2.67L101.75 477z"/><path fill="#D96038" d="M63.1 476.36c0 4 .68 6 2 8 2 2 6.67 3.32 13.33 4 6.66.66 12-.68 16.65-4l6-4.67-4.67-5.34c-4.65-4-9.3-6.66-15.97-7.33l-14 2c-1.33 1.33-2.65 3.34-3.32 7.33z"/><path d="M65.1 467.03c-2 1.34-4 4.67-4.65 8.67 0 4.65.66 7.98 3.33 10 2.66 2.65 7.32 4.64 14.65 5.3 11.32.68 19.3-2.65 25.3-9.98v-2.66c-4.65-8-11.98-12.65-23.3-14l-15.33 2.67zm.68 11.33v-2c.66-2.67 1.33-4.66 2.66-5.33l12-1.33c7.3.66 13.3 4 17.3 9.33-4.66 5.32-11.32 7.32-19.3 6.66-8-.68-12.66-3.34-12.66-7.34zM131.7 514.33c-1.98 0-3.32.67-3.32 2.66 0 1.33 1.34 2.65 3.33 2.65l25.33.67 1.32-1.33 1.34-1.34c0-2-1.35-2.66-2.67-2.66l-25.32-.67z"/><path fill="#D96038" d="M93.75 517c0 3.32.66 5.98 2.66 8l13.33 2.65c6.66 0 12-2 16.65-5.33l5.33-5.33-5.32-5.33c-4.66-3.33-10-4.67-16.65-4.67-6.66 0-11.32.67-13.32 2.66-2 2-2.65 4-2.65 7.33z"/><path d="M109.73 530.3c7.33 0 13.32-1.98 18-5.3l5.98-6.67v-2.67l-5.98-6c-4.67-4-10.66-6-18-6-7.3 0-12.64 1.35-15.3 4-2.67 2-4 4.67-4 9.33s1.33 8 4 9.98c2.66 2 8 3.33 15.3 3.33zm0-21.3c7.33 0 14 2.67 18.65 8-4.66 5.32-10 8-18.65 8-6 0-10-.68-12-2.68-.65-.66-1.32-2-1.32-5.33 0-2.67.68-4.67 1.35-5.33 2-1.34 6-2.67 11.98-2.67zM85.1 381.1c-1.34-.66-3.34 0-3.34 1.35l-5.33 25.3c0 1.34.67 2.67 2 2.67l3.33-2 5.33-24.64c0-2 0-2.66-2-2.66z"/><path fill="#D96038" d="M100.4 351.14l-6.65-4.66-8 .66c-2.66 1.34-4.66 6-6 12.66-2 6-1.32 12 .68 17.3l4 6 6-3.98c4.65-3.33 7.98-8 9.98-14.66 1.34-6.66 1.34-10.66 0-13.32z"/><path d="M102.4 365.13c1.34-6.66 1.34-12 0-15.32-1.33-2.66-4-5.32-8.65-6-4-1.3-7.33-.65-10 1.35-2.66 2.66-5.32 6.66-6.65 14-3.33 10.64-.67 19.3 6 25.97l2 .66 7.98-4c4.67-4 7.33-10 9.33-16.65zm-4-9.32l-1.32 8.66c-2 6.66-5.33 12.65-12 16-2.65-4.67-4-8.67-4-13.34l.68-6.66c2-6 3.33-9.32 5.33-11.3l5.98-.68 4 2.66 1.33 4.67zM106.4 421.75c-1.33 0-2.66.66-2.66 2.66l-3.33 24.66c0 2 .68 2.66 2.67 3.33 2 0 2.67-.68 2.67-2.02l2.66-25.3c.67-2 0-3.33-2-3.33z"/><path fill="#D96038" d="M118.4 390.44c-1.34-2-3.34-2.66-7.33-3.33-3.33-.66-6 0-7.33 1.35-2.66 2-4 6-5.33 13.32-1.32 6 0 11.98 3.34 16.65l4.66 6 5.33-4c4.66-4.67 6.66-9.33 8-16 .66-6.65 0-11.32-1.34-13.98z"/><path d="M121.72 405.1c1.34-7.33.67-12.66-1.33-16-2-2-4.67-3.98-8.67-4.65-4.66 0-8 0-10 2.66-3.32 2-4.65 7.34-5.98 14-.67 7.33.66 13.32 3.33 19.3l5.33 6.67h2.67c8.66-4 13.32-11.32 14.65-21.97zm-21.3.66l.66-4c.66-6 2.66-9.32 4-10.65 1.32-1.33 3.32-2 5.32-1.33l4.66 1.34c2 1.34 2 3.34 2 6.67v6.66c-1.33 7.33-4.66 13.32-10.66 16.65-3.33-4-6-9.32-6-15.32zM131.7 455.05c-1.3-.67-3.32 0-3.32 2l-4.65 24.64c0 1.98 0 2.65 2 3.32 1.32 0 2.65-.67 2.65-2.66l5.34-24.65c0-1.32 0-2.65-2-2.65z"/><path fill="#D96038" d="M145.7 424.4c-1.33-2-2.66-3.32-6.66-4l-7.33.68c-3.32 2-4.64 6.66-6.65 13.32-1.32 6 0 11.32 2 16.65l4 6.66 6-4c4.65-3.32 7.32-8.64 9.32-15.3 1.33-6.66 1.33-11.33-.67-14z"/><path d="M139.04 455.7c5.33-4.65 8-9.98 9.32-16.64 2-7.32 2-12 0-15.32-1.32-3.33-4-5.32-8.66-6-4.66-.66-8 0-9.98 1.34-2.66 2.67-5.33 7.33-6.66 14.65-2.67 10.66 0 19.32 6.66 25.3l2 1.34c2.66-1.32 5.32-2.66 7.32-4.66zm4-31.3l1.33 6-.66 7.33c-2 8-6 13.32-12 16.65-3.32-4-4.65-8.66-4.65-14l1.33-5.98c.67-6 2-9.32 4.66-10.66l5.33-.66c2.67.66 3.33 1.33 4.66 1.33zM157.7 483.7c-.67 0-2 .66-3.34 2l-6.66 24.63c0 1.34 0 2 2 3.33 1.33 0 2.66-.66 3.33-2l7.33-24.64c0-2-.67-2.67-2.67-3.33z"/><path fill="#D96038" d="M175 454.38l-5.98-4h-8c-2.67 1.34-4.66 5.34-7.32 12-2 6-2 11.98.66 17.97l3.33 6 6.65-3.33c4-3.33 7.33-8 10-13.98 2-6.66 2-11.33.66-14.66z"/><path d="M155.02 487.7c1.34 1.32 2 1.32 2.67 1.32l7.98-4c5.33-4 8.66-9.32 11.33-15.32 2-7.32 2.67-12 .67-15.32-.66-3.33-3.33-5.32-8-6.66l-9.98.67c-3.34 1.98-6 5.98-8.67 13.3-1.33 6.67-1.33 12.66 0 19.33l4 6.66zm1.34-24c1.33-6 4-9.32 6-11.3 1.33-.68 2.65-.68 5.32 0 4 1.98 6 3.32 6 6.65L171 467.7c-2 8-6.65 13.32-12.65 15.98-2-4-3.33-7.98-3.33-12.65l1.34-7.33z"/><path fill="#858585" d="M77.1 294.53l6.66 9.32c6 6 12.65 10 19.98 10.66 7.33.68 14.65-.66 20.65-5.98l7.3-7.33-5.32-9.33c-4.66-6-11.32-9.33-18.64-10.66-7.33-.66-14.66 1.34-21.98 6l-8.66 7.33z"/><path d="M85.1 284.54l-10 8c-.67 1.32-.67 2 0 3.32l6.66 10c6.66 6.65 13.32 9.98 21.98 11.3 8 .68 14.65-1.32 21.98-5.98l8-8.66.66-2-6-10c-5.33-7.32-12-10.65-19.98-11.3-8-1.35-15.98.65-23.3 5.32zm43.28 15.98c-6.66 8.66-14.65 12-24.64 11.33-9.33-.67-16.65-6.66-23.3-17.32 7.98-8 17.3-11.33 26.63-10 10 .68 17.32 6.67 21.3 16z"/><path d="M131.7 297.86c-1.3 0-2.65 1.33-2.65 3.33 0 1.32.67 2.65 2.66 2.65l13.33.67 2.67-2.66c0-1.34-.66-2.67-2.67-2.67l-13.32-1.34z"/><path fill="#858585" d="M169 341.15l-5.98-8c-6-5.32-12.65-8.65-19.98-7.98-8 0-14.66 2.66-21.32 8.65-3.33 2.67-6 5.33-8 8l8 8.65c6.66 4.67 13.32 7.33 21.32 7.33 7.33 0 14-2.66 19.98-8l6-8.65z"/><path d="M143.03 361.13c8 0 14.66-3.33 21.32-9.32l6.66-9.32v-2l-6.65-9.32c-6.66-6-13.32-9.32-21.3-9.32-8 .66-16 3.33-22.66 9.32l-8.67 9.32v2.67l8.66 8.66c6.66 6 14.64 9.33 22.63 9.33zm0-33.3c8.66 0 16.66 4 23.32 13.32-6.66 10-14.66 14-23.32 14-9.32 0-17.98-4-25.97-13.33 7.33-9.33 15.98-14 25.97-14z"/><path d="M185 341.15c0-2-.67-3.33-2-3.33l-13.98.67c-1.34 0-2.67 1.32-2.67 2.65 0 2 1.33 3.33 2.66 3.33l14-.67c1.33 0 2-1.32 2-2.65z"/><path fill="#858585" d="M153.03 381.8l8.65 7.3c6.66 5.34 14.66 6.67 22 6 7.3-.66 13.97-4 18.64-10.65l5.32-9.33-7.32-7.33c-6-4.67-13.32-6.67-20.65-6-7.33 1.33-14 4.66-19.98 10.66-2.67 3.33-5.34 6-6.67 9.33z"/><path d="M210.3 376.45v-2l-8.65-8.65c-7.32-4.67-14-7.33-21.98-6.66-8.66 1.32-15.32 5.32-21.98 11.3l-6.67 10v3.33l9.33 7.33c7.32 5.33 15.32 7.34 23.3 6.67 8-1.34 14.66-5.33 20.66-11.33 3.33-4.65 6-8 6-10zm-53.94 4.67c1.33-3.34 4.66-6 8-9.33 4.65-4 9.98-6.67 15.98-7.34 9.32-.67 17.3 3.33 23.97 11.33-4.65 9.98-11.3 15.3-21.3 16.64-9.32 1.33-18.65-2.67-26.64-11.32z"/><path d="M223.63 373.12c0-2-.67-2.67-2.66-2l-13.32 1.34c-2.67.66-3.33 2-2.67 3.33 0 1.98 1.33 2.65 2.67 1.98l13.32-2c2.66 0 3.33-1.33 2.66-2.66z"/><path fill="#858585" d="M193 421.75l8.65 6.66c8 4.67 15.32 6 22.65 4.67 6.66-1.33 13.32-5.33 17.3-12l5.34-9.3c-2-2.02-4.66-4-8-6.67-6.65-4-13.98-6-21.3-4-6.66.67-13.33 4.66-19.32 11.32-2 3.33-4 6.66-5.33 9.33z"/><path d="M240.28 402.43c-7.33-4.66-15.32-6-22.64-4.66-8 1.33-14.66 6-20.65 13.32-2.68 3.32-5.34 6.65-6.67 9.98l.66 3.33 9.98 6.67c7.33 4.66 16 6.66 23.32 4.66 8.65-1.33 14.65-5.33 19.98-12l5.33-11.3-.66-2-8.66-8zm-21.98.66c6-1.33 12 0 16.65 2.66l8.67 6.66-5.34 9.33c-4 5.32-8.66 7.32-14.65 8.65-9.32 2-18.65-1.33-27.3-9.32 5.32-10 13.3-16.65 21.97-18z"/><path d="M262.93 408.43c-.67-1.34-2-2.67-3.33-2l-13.32 2.66c-2 .65-2 2-2 3.32 0 2 1.33 2.67 3.33 2l13.33-2.66c1.33-.67 2-1.34 2-3.33z"/><path fill="#858585" d="M226.3 448.4l6.65 9.3c5.33 6.67 12 10 19.32 11.34 7.33 1.32 14.66-.67 20.65-5.34l8-7.32c-1.34-2.67-3.34-6-6-8.66-4.66-6.66-10.66-10-17.98-11.32-7.33-1.33-14.66.66-22 4.66l-8.65 7.33z"/><path d="M230.96 460.37c6 6.66 13.32 10.66 20.64 11.33 8.67.67 16-.67 22.65-6l8.66-8v-2.65c0-1.34-2-4.67-5.32-10-6-6.65-12.66-10.65-19.98-11.32-8-1.33-16.65.67-23.98 4.67l-9.32 8.65-.67 2.67 7.33 10.65zm-1.34-11.3c8.66-8 18-11.34 27.32-10.67 10 2 16.65 8 20.64 17.32-7.32 8.65-15.98 11.98-24.64 10.65s-16.66-7.32-23.32-17.3z"/><path d="M280.9 453.7c-1.98 0-3.32.68-3.32 2.02l2.67 3.32 13.98 1.33c1.34.67 2.67 0 2.67-2.66 0-1.32-.67-2.65-2.67-2.65l-13.32-1.34z"/><path fill="#858585" d="M252.94 492.35l4.66 10c5.33 7.3 11.32 11.3 18.65 13.3 7.33 2 14 1.34 21.3-3.32l8-6-4-9.32c-4-6.66-9.98-11.3-17.3-13.32-6.67-2-14-.66-22 3.33l-9.3 5.35z"/><path d="M260.93 484.35l-10 6.66-.65 2.68 6 10.66c4.65 7.33 11.3 11.98 18.64 14 8 1.98 15.98.65 23.3-3.34 5.34-2.67 8.67-4.67 9.33-6.66l.67-2.67-4-10.66c-4.66-7.32-11.32-11.32-19.3-13.98-7.34-2-15.33-.67-24 3.33zm41.96 21.32c-8 8-16.66 10-25.98 8-9.33-2.67-16-9.33-21.32-20 9.32-7.32 19.32-9.3 28.64-7.32 9.33 2 15.32 8.67 18.65 19.32z"/><path d="M306.22 503.67c-2 0-2.66.67-3.33 2 0 2 .66 2.67 2 3.33l13.3 2.67c2 .66 2.68 0 3.34-1.34 0-2-.66-3.33-2-3.33l-13.32-3.33z"/><path fill="#858585" d="M273.6 548.96c4.64 8 10.64 12.66 17.3 14.65 7.33 1.35 14.66 1.35 21.98-2.65l8-6-3.33-9.98c-4-6.66-10-11.33-16.66-13.32-7.33-2.67-14.66-1.34-23.32 2l-9.33 5.32 5.34 10z"/><path d="M266.93 536.97l-.67 3.33c0 2 1.33 5.33 4.66 11.33 5.33 6.66 12 11.98 19.98 14 7.33 2.65 15.32 1.3 22.65-2.02l9.32-6.65.67-2.66-4-10.67c-4.66-8-10.65-11.98-18.65-14.65-7.33-2-14.66-2-23.32 2-4.66 2-8.66 4-10.65 6zm24.64 23.3c-8.66-1.98-15.32-8.64-20-19.97 9.34-6.66 19.33-8.65 28.66-6.66 8.66 3.33 14.65 10 17.98 19.98-7.98 8-17.3 10-26.63 6.66z"/><path d="M321.54 552.3c-1.33-.67-2.66 0-3.33 2 0 1.32.68 2.65 2.68 2.65l12.65 4 3.33-2c.67-2 0-3.33-2-3.33l-13.32-3.33z"/><path d="M107.74 58.08c-1.34 0-2.67.67-3.33 2.66-4.66 28.64-7.32 59.94-7.32 92.58 1.33 64.6 14.65 112.57 39.97 143.87 13.98 16.64 28.64 31.3 43.3 45.28l35.95 30.64c13.32 10.66 23.32 18.66 29.98 25.32 10 10 18.64 19.98 27.3 31.96 23.32 33.3 40.64 68.6 52.62 106.57 5.33 19.32 8.66 35.3 10 47.96l3.32 2.66 2-2.67c-.66-13.32-4.66-29.3-10.65-48.62-11.33-38.62-29.3-75.26-53.3-109.23-7.98-11.98-17.3-22.64-27.3-31.96l-30.64-26.64-35.3-29.97c-14.65-13.33-29.3-28-42.63-44.64-24.64-30.64-37.96-77.93-38.63-142.54 0-32.63 2-62.6 6.66-89.9.67-2 0-2.67-2-3.34z"/><path fill="#D96038" d="M118.4 41.42c-1.34-2-3.34-3.33-7.33-3.33-4-.68-6-.68-7.33 1.33-2.66 1.32-4.66 6-5.33 13.32-1.32 6-.65 12 2 16.65l4.67 6 5.33-4c4.66-4.67 7.33-9.33 8-15.32 1.32-7.33 1.32-12 0-14.66z"/><path d="M95.08 51.41c-.67 7.35 0 13.34 3.33 19.33l4.67 6.66 2.67.66c8.66-3.33 13.98-11.33 15.98-21.98v-7.32l-1.33-9.33c-2-2-5.34-3.33-8.67-4l-10 1.33c-2.65 2.67-4.65 7.32-6.65 14.66zm5.33 6v-4.65c1.34-6.66 3.34-10 4.67-12h5.33l5.33 2 1.33 6-.67 6.66c-1.34 7.34-5.33 13.34-11.33 16.67-3.33-4-4.66-8.67-4.66-14.66zM115.73 106.03c-2-1.33-2.67-1.33-4 0L98.4 128c-1.32 1.35-1.32 2 .68 3.34 1.33 1.34 2.66 1.34 4-.67l13.3-21.3c.68-1.34.68-2.67-.65-3.34z"/><path fill="#D96038" d="M139.7 84.72c0-2-2-4.67-4.66-6.66-3.33-2-5.32-2-7.98-2-2.67.66-6.67 3.33-10 9.33-4 4.64-5.33 10.64-5.33 15.97l1.33 8 7.33-1.34c5.32-2 9.98-5.33 13.3-10 4-5.98 6.68-9.98 6-13.3z"/><path d="M142.37 84.72c-.67-3.33-2-6-6-8.66-2.66-2.67-6-3.33-9.32-2.67s-7.33 4-12 9.98c-6.65 9.33-7.98 18-4.65 26.65l2 1.33c9.32 1.33 17.32-3.33 23.98-12 4-5.98 6.66-11.3 6-14.64zm-14-6c1.34-.66 3.34.67 5.34 1.33l3.35 6c0 2-2 5.33-5.34 10-4.64 6.65-9.98 9.98-16.64 9.98l-1.33-4.66c0-5.33 2-10 5.33-14.66 4-4.64 6.66-7.3 9.32-7.97zM85.76 147.32l-4-.66c-.67 1.33-.67 2.67 0 4.66l16.65 18 4 .65c1.34-.66 1.34-2 .67-4l-17.3-18.65z"/><path fill="#D96038" d="M70.44 116.02c-2.67-1.33-5.34 0-8 2-2.66 1.33-4 3.33-4.66 6-.66 2.66 1.33 7.32 5.33 12.65 3.34 6 7.34 9.33 13.33 11.32l7.33 1.33 1.33-8c0-5.32-1.34-11.32-4.67-15.98-4-6-7.33-9.33-10-9.33z"/><path d="M55.12 122.69v1.98c0 4 2 8.66 5.33 14 4.65 5.98 9.32 9.3 15.3 11.3l8 1.34 2.67-1.33 2-8c0-6-2-12.65-6-18.65-4-5.33-8-9.33-11.98-10.66-2.67-.67-6 0-10 3.32-3.32 2-5.32 4.66-5.32 6.67zm5.33 1.3l3.33-3.98c2.66-2 4.65-2 6-2 2 .67 5.32 3.33 8.65 8.66 2.66 4.66 4.66 9.33 4.66 13.98L81.75 146c-6.67 0-12-4-16.66-10-3.32-4.66-4.65-8-4.65-11.32V124zM91.75 102.7c-1.33-1.33-2.66-1.33-4-1.33-1.33 1.33-2.66 2-1.33 4l12 22.64c1.32 1.35 2 1.35 3.32 1.35 2-1.34 2-2.67 1.33-4L91.75 102.7z"/><path fill="#D96038" d="M83.76 68.07c-2-.67-4.66-.67-8 0-3.32 1.33-5.32 3.33-6 5.32-1.32 2.66-.65 8 2 13.98 2 6 5.34 10.66 10 14l6.66 2.65 3.33-6.66c2-6 2-11.32 0-17.32-2.66-6.66-5.33-10-8-11.98z"/><path d="M85.1 66.07c-2.67-1.33-6-1.33-10 0-4.66 2-6.66 3.33-8 6.66-1.32 3.33-.66 8.66 2 15.32 4 10.66 10.66 16.65 19.32 18.65 1.33 0 2 0 2.66-.67 6-8 6-16.65 2.67-26.64-2-6.67-5.33-11.33-8.66-13.33zm-8 5.33l5.33-.67c2.66 1.34 4.66 4.67 6 10.66l2 8.64c0 3.33-.68 7.33-2.68 11.33-6-2-10.65-6.66-13.98-14.66-1.33-3.98-2-7.3-2-9.98 0-2 2-4 5.33-5.32zM119.72 141.33c-1.33-1.33-2.66-1.33-3.33 0l-18 18c-1.32 1.98-1.32 3.32 0 3.98 2 1.34 3.34 1.34 4 0l17.32-18.64c1.34-.67 1.34-2 0-3.33z"/><path fill="#D96038" d="M147.04 125.35c.66-2-.67-4-3.33-7.33-2.66-2-4.66-3.33-6.65-3.33-3.34 0-7.34 2.65-12 7.32-4.66 4-8 9.32-8.66 15.98v6.66c8 2 15.3 0 23.3-7.33 4.67-4.65 7.34-9.32 7.34-11.98z"/><path d="M141.04 139.34c5.33-4.67 8.66-10 8.66-13.32.67-3.34-1.34-6.67-4-9.33-2.66-3.34-6-4.67-9.32-4-3.33 0-8 2.66-13.32 7.32-5.33 4.66-8 10.65-9.33 16.65v8.66l2 2c9.32 2 17.98-.67 25.3-8zm-4-21.32c.67-.67 2.66 0 4.66 2s2.67 3.33 2.67 4.66c0 2.66-2.67 6.66-7.33 10.66-5.33 5.32-11.32 7.33-18.65 7.33v-1.34c0-6.66 3.32-11.98 7.98-17.32 4-4.65 8-5.98 10.66-5.98zM122.4 185.96h-4l-16 19.98c-.66 1.33-.66 2.67.67 3.33h4l16-19.98c.66-1.34.66-2.68-.68-3.34z"/><path fill="#D96038" d="M149.03 165.98c0-2.67-1.33-4.66-4-6.66-2.66-2.67-4.66-3.33-7.32-3.33s-7.32 3.32-11.32 8.64c-4 4.67-6 10-6.66 16l.67 7.32 7.32-.67c6-1.34 10.65-4.67 15.3-9.33 4.02-5.33 6.68-9.32 6-12z"/><path d="M147.04 156.65c-3.33-3.33-6.66-4-10-3.33s-8 3.33-12.65 9.33c-7.34 8.66-9.34 16.65-6 25.98l2 2 7.98-.68c6.66-2 12-5.32 16-10 5.32-5.3 7.3-10.64 7.3-13.97s-1.3-6.66-4.64-9.33zm-24.65 25.32c0-6 2-11.33 5.98-16 4-4.65 7.33-6.65 9.33-7.3 2-.68 3.34.65 6 2.65l2.67 4.66c0 2-2 6-5.33 10-5.33 6.65-11.32 9.32-17.98 9.32l-.67-3.33zM130.38 231.92c-2-.67-3.33-.67-4 1.33l-11.32 22.65c-1.33 1.32 0 2 1.33 3.33 2 .66 2.66 0 3.32-1.34l12-22c.66-2 0-3.3-1.34-3.98z"/><path fill="#D96038" d="M151.7 205.94c0-2-2-3.33-4.66-5.33l-8-1.32c-2.66 1.33-6 5.33-9.32 10.66-2.66 6-4 11.32-2.66 17.3l2 7.34 7.32-2c4.66-2.66 8.65-6.66 11.98-12.65 2.67-6 4.67-10.66 3.33-14z"/><path d="M127.06 209.27c-4.67 9.33-5.34 18.65 0 26.64l2 .68c9.3-.67 16.64-5.33 21.97-15.32 3.33-6.66 4-11.32 3.33-15.32 0-2.66-2.67-5.33-6.66-8l-10-1.32c-3.98 2-7.3 6-10.64 12.65zm3.32 21.98l-1.33-8c0-4 1.33-7.98 2.66-11.98 3.34-5.33 5.34-8.66 8-9.32l5.33.66c3.33 2 4.67 3.34 4.67 6l-3.33 10.66c-4 6.66-9.33 10.66-16 12zM89.75 199.28h-4c-.66.67-.66 2 .67 3.33l18.65 17.33c1.33 1.33 2 1.33 3.33 0 1.33-2 1.33-3.33 0-4l-18.65-16.65z"/><path fill="#D96038" d="M59.78 175.97c-2.66 2-3.33 4.66-3.33 6.66.67 3.33 3.33 7.33 8 12 4.65 4.65 9.98 6.65 15.98 6.65h7.32l-.66-8c-.68-5.32-3.34-10.65-8.67-14.64-4.66-4-8.66-6.66-12-6.66-2.65 0-4.66 1.32-6.65 4z"/><path d="M90.42 192.62c-2-6-5.33-11.32-10-16-5.32-5.3-9.98-7.3-13.98-7.3-2.66 0-6 1.32-9.32 4.65-2.67 3.33-3.33 6.66-3.33 9.32 0 4 3.32 8 9.3 13.3 4.67 4.68 10.67 6.68 17.33 8l8-1.32 2-2v-8.66zm-13.32-12c5.33 5.34 8 10.67 8 18-6 1.32-12-.67-18.66-6-4.66-4.66-7.32-8-7.32-10s.66-3.32 2.66-4.65c1.33-2 3.33-3.33 4.66-3.33 2 0 6 2 10.66 6zM99.74 247.9c-1.33 0-2.66 0-3.33 1.34-1.32 2-1.32 3.33.68 3.33l21.3 13.32c2 .65 3.34.65 4-1.35 1.35-1.33 1.35-2-.66-3.33L99.74 247.9z"/><path fill="#D96038" d="M65.1 231.92c-1.32 2.66-2 6-1.32 7.33 1.33 3.33 4.66 6.66 10.65 10 5.33 3.32 10.66 3.98 17.32 3.32 2.66 0 5.33-1.34 6.66-2l-1.32-7.33c-2.67-5.33-6.66-9.33-12-12-5.98-4-10.65-5.32-13.98-4.65-2.66 0-4 2.65-6 5.32z"/><path d="M86.42 228.6c-6.66-4-11.32-5.34-15.32-4.68-2.66.67-6 2.67-8 6.66-2.65 4-2.65 7.33-1.32 10.66 1.33 3.33 5.33 6.66 11.32 10 10 5.32 18.65 6 26.64 1.33l1.34-2c-.67-9.33-5.33-16.66-14.66-21.98zm-14.65.65c2.66 0 6.66.67 12 4 6.65 3.33 9.98 9.33 11.3 16-5.32 2.65-11.98 1.98-19.3-2.68-6-3.33-9.33-6.66-9.33-9.33l1.33-4 4-4z"/><path fill="#858585" d="M171 248.57l-6.65-9.32-10 5.32c-6.65 5.33-10.64 12-12.65 18.65-1.32 8-.66 14.65 3.33 21.32l6.66 8c3.32-.67 6.65-1.35 9.98-4 6.66-4 10.67-10.67 12.66-17.33 1.34-7.98 0-15.3-3.33-22.63z"/><path d="M166.35 237.24l-2.66-.66c-3.34 1.33-7.34 3.33-11.34 6-7.33 6-11.32 12.65-13.32 19.98-2 8.65-.67 16 4 23.3l7.33 8.67 2.66.67c2 0 5.32-1.34 10.66-4.67 6.65-4.66 11.3-11.32 13.3-19.3 1.34-8 .67-15.33-3.32-23.33l-7.33-10.66zm5.33 27.3l-.67 5.34c-1.98 10-7.98 16.65-17.97 19.32-6-4.66-9.32-11.32-9.32-19.98l.67-4.67c2-9.32 8.66-16.65 19.32-21.98 5.3 6 7.98 13.33 7.98 21.98z"/><path d="M153.03 290.53c-2-.67-2.66 0-3.33 1.34l-3.33 13.32c-.67 1.98 0 2.65 1.33 3.32l3.33-2 3.33-12.66c.66-2 0-3.33-1.33-3.33z"/><path fill="#858585" d="M204.98 284.54l-6.66-8.66-9.32 6c-7.33 6-11.33 11.98-12 19.3-2 6.67 0 14 4 20.66 2.67 3.33 4.67 6 6.66 8l10-4.67c6.66-4.67 10-10.66 11.98-18 1.34-7.32 0-14.64-4.66-22.63z"/><path d="M200.32 273.88l-2.67-.67-10.65 6.67c-7.33 6-11.32 12.66-12.66 20.65-1.33 7.33 0 15.32 4 22.65l8 8.66 2.66.66 10.65-5.34c6.66-5.32 10.66-11.98 12-19.3 2-8 0-16-4-24l-7.33-10zm-12.66 12c3.33-2.68 6.66-4.67 10-6.67 6.65 8 9.98 15.33 9.98 22.66l-.66 4.65c-2 9.34-8 16-18.65 20.66-6-6.66-9.32-13.32-9.32-21.3l.67-4.67c.67-5.34 4-10 8-15.33z"/><path d="M188.33 327.16c-1.33 0-2 .67-2.66 2l-3.33 13.32c-.67 2 .66 2.67 2 2.67 2 .67 3.32 0 3.32-1.34l3.33-13.3c0-2-.67-2.67-2.67-3.34z"/><path fill="#858585" d="M242.28 317.17l-7.33-9.32-8.66 6.66c-6.67 6-11.33 12.66-12 20-.66 6.65.67 13.98 5.33 20.64l7.33 7.33 9.32-4.67c6-5.32 10-11.32 11.33-18.65.67-7.32-.66-14.65-5.32-21.98z"/><path d="M236.95 305.85h-2.66l-10.67 6.66c-6.66 6-10.66 13.33-12 21.32-.65 8 .68 15.33 6 22.65l7.33 8 2.67.66 10-6c6.65-4.66 10.64-11.32 11.98-19.97 1.34-7.33 0-15.33-5.32-23.32l-7.33-10zm8 28.64l-.67 4c-1.34 9.98-6.66 16.64-16.65 20.64-7.33-4.67-10.66-12-10.66-20.65v-4c1.33-10 7.33-17.33 17.32-23.32 7.3 8 10.64 15.98 10.64 23.3z"/><path d="M224.96 360.46c-.66.67-.66.67-.66 1.34l-2.67 13.32c-.66.67 0 2 0 2.66l2 .68 3.33-2 2.66-13.33c0-2-.66-2.67-2-2.67h-2.66z"/><path fill="#858585" d="M257.6 395.1l8.66 6.67c2.66-1.34 5.32-3.33 8-6.66 6-5.33 8.65-12 8.65-19.98 0-7.33-2.65-14-8.65-20.65l-8-7.33-8.65 7.33c-5.33 6.66-8 13.32-8 20.65 0 7.33 2.67 14 8 20z"/><path d="M267.6 344.48c-.67-.67-1.34-.67-2.68 0l-9.32 8c-5.32 7.32-8.65 15.3-8.65 22.64 0 8.65 3.33 15.32 8.65 21.98 4 4 7.33 6 9.32 7.33h2.67c3.32-2 6-4 9.32-7.33 5.32-6.66 7.98-13.32 7.98-21.98.68-7.33-2-14.66-7.98-21.98l-9.33-8.66zm-10 14c2.67-3.34 6-6 8.66-8 8.66 7.32 14 15.32 14 24.64 0 10.66-5.35 18.65-14 23.32l-8.66-7.33c-3.33-4-5.33-9.98-5.33-15.98 0-5.33 2-10.66 5.33-16.65z"/><path d="M266.26 399.1c-2-.66-2.66 0-2.66 2l-.67 14c0 1.98.67 2.65 2 2.65 2 0 2.66-.67 2.66-2.66l.65-13.33c0-1.34-.66-2.67-2-2.67z"/><path fill="#858585" d="M316.88 404.43l-6.66-8.66-9.33 6c-6.67 6-10.66 11.98-12.66 19.3-.67 6.67 0 14 4.66 20.66 2 3.33 4.66 6 7.33 8l9.32-4.67c6.66-4.67 10.66-10.66 11.32-18 2-7.3 0-14.64-4-22.63z"/><path d="M312.22 393.77l-2.67-.67-11.32 6.66c-6.66 5.34-10.66 12.66-12 20.65-2 7.34 0 15.33 4.67 22.66 2.67 4.66 5.33 8 7.33 8.66h2.66c2.66 0 6-1.34 10-4.67 7.3-5.32 11.3-11.98 13.3-19.3.67-8 0-16-4.66-24l-7.32-9.98zm6.66 27.98l-.67 4.66c-1.32 9.33-7.3 16-17.3 20.65-6.67-6.66-10-13.32-10-21.3v-4.67c2-9.32 8.66-16.65 18.65-22.64 6.66 7.32 9.33 15.3 9.33 23.3z"/><path d="M300.9 447.05c-2 0-3.34.67-3.34 2l-3.33 13.33c0 2 0 2.66 2 2.66 1.33.67 3.33 0 3.33-1.34l3.33-13.32c0-2-.67-2.66-2-3.33z"/><path fill="#858585" d="M347.52 449.72l-4-10.66-10.66 4.66c-8 3.33-13.32 8.66-15.98 15.32-2.66 7.33-2.66 14.65 0 21.98 1.33 3.33 3.33 6.66 4.66 9.32l10.66-2.66c7.32-3.33 12-8.65 15.32-15.3 2.67-7.34 2.67-14.67 0-22.66z"/><path d="M314.2 458.38c-3.32 7.33-3.32 15.3 0 23.32 2 6 4 9.32 6 10l1.34.65 12-2.67c7.32-4 13.3-8.65 16.64-16 2.66-7.97 2.66-15.97.67-24.62-2-5.34-4-9.33-6-11.33 0-.67-.66-.67-2-.67l-11.98 4c-8 4-13.32 10-16.66 17.32zm3.35 11.98c0-3.33 0-6 2-9.32 3.32-9.32 10.65-15.32 21.97-18.65 3.33 6 5.34 11.98 5.34 18.64l-2 10c-4 9.3-10.66 13.98-22 16.64-3.32-6-5.3-11.32-5.3-17.32z"/><path d="M322.87 487.7c-1.33-.68-2 0-3.33 1.32l-6 12.66c-.66 1.32 0 2.66 1.34 3.33 2 .67 2.67 0 3.33-1.33l6-12.66c.67-1.32 0-2.65-1.33-3.3zM302.9 293.86c-2-10-4.67-24.64-6.67-44.62-3.33-29.3-8-51.3-12.65-65.28-8.66-22.64-23.3-43.96-44.63-63.28l-31.3-24.64-3.34.67c-.65 1.34-.65 2.67.68 4l29.3 23.3c21.32 19.33 35.98 40.64 43.97 61.96 5.33 13.98 9.32 35.3 12.65 63.28 2 20.64 4 36.63 6.66 45.96 4.67 16.65 11.33 30.63 20.65 42.62 19.33 23.98 42.64 47.96 69.28 73.27 2 .66 3.33.66 4 0l.67-2.67-1.34-1.34c-26.63-24.65-49.28-49.3-68.6-72.6-8.65-12-14.65-25.32-19.3-40.64z"/><path fill="#D96038" d="M181 72.73c-2.66 0-4 2-6 4.66-2 2.65-2.65 5.32-2 7.32.68 3.33 4 6.66 10 10.66 4.66 4 10.66 4.66 16 4.66l7.3-2-1.32-6.66c-1.33-5.33-5.33-10-10.66-13.32-6-4-10-5.33-13.32-5.33z"/><path d="M195.66 75.4c-6-4-11.33-6-15.32-5.34-2.67 0-5.33 2.67-7.33 6-2.65 3.33-3.32 6.66-2.65 10 .66 3.32 4.66 7.32 10.65 11.3 6 4 12 5.34 18.65 5.34l8-1.33 1.33-2.66c.66-9.32-4.67-17.3-13.32-23.3zM175 83.38c0-1.32 1.34-2.66 2-4l4-3.98c2.67-.67 6.66.66 12 4.65 6.65 4.67 9.98 9.33 10.65 16.66-6 2.67-12.66 1.34-19.32-4-6-3.32-9.32-6.65-9.32-9.3zM242.94 109.36c-.66-1.33-2-2-3.33-1.33-1.98 0-1.98 1.33-1.98 3.33l8.65 23.3c.67 2 1.34 2 3.33 2 1.34-.65 2-2 1.34-3.32l-8-23.98z"/><path fill="#D96038" d="M236.28 74.73c-2-1.34-4.66-1.34-8 0-3.32.67-5.32 2-6.65 4.66-.66 2.66-.66 7.3 2 13.3 2 6.67 5.33 10.67 10 14 2.65 2 4.65 3.33 6.65 3.33l3.33-6.66c2-5.33 2-10.66 0-17.32-2.65-6-4.65-10-7.32-11.32z"/><path d="M237.62 72.73l-10-1.33c-3.32 1.33-6.65 3.33-7.32 6-2.66 4-2 8.65.67 16.64 2.66 6 6 11.33 11.32 15.32l7.3 3.34 2.68-.67c6-7.33 7.33-16 4-25.98-2-7.32-5.33-11.32-8.66-13.32zm-8 4c2-.67 4-.67 5.33 0 2 1.33 4 4.66 6 10.65l1.33 8.66c0 4-1.33 8-2.67 10.66-6.65-2.67-11.3-7.33-13.3-14l-2-9.98V79.4c.66-1.34 2.66-2 5.32-2.68zM219.63 122.69c-2-.68-2.66-.02-3.33 1.98 0 1.33.67 2.66 2 3.33l25.32 3.34c1.32.67 2.66 0 3.33-2 0-1.33-.67-2.66-2.67-3.32l-24.65-3.33z"/><path fill="#D96038" d="M185 111.36c-1.33 1.33-2.66 3.33-3.33 6.66-.67 4-.67 6.66 1.33 8 1.33 2.66 6 4.65 12.66 5.32 6 1.34 12 .67 17.3-2l6-4.66-4.66-5.33c-3.33-4.66-8.65-8-14.65-8.66l-14.65.66z"/><path d="M181 128c2 3.34 6.66 4.68 14 6.67 11.3 1.34 19.3-1.33 25.97-8v-2.66l-4-7.3c-4.66-4-10-7.34-16.65-8.67l-16 1.33c-3.32 1.33-4.65 4-5.3 8.66-.68 4 0 8 1.98 10zm6-14.64h12c7.98 1.33 13.97 5.33 16.64 11.32-4.66 4-11.33 5.33-19.32 4.66-8.66-2-12-4.66-12-8v-2.65c0-2.68 1.35-4 2.68-5.34zM240.95 152c-1.34 0-2.67.66-2.67 2.65-.66 1.34 0 2.66 2.67 2.66l25.3 2.02c1.34 0 2-1.34 2-3.33l-.66-1.35c0-.67-.67-1.33-1.34-1.33l-25.3-1.33z"/><path fill="#D96038" d="M206.3 144.66c-1.98 1.34-2.65 3.33-3.32 6.66 0 4 .67 6.66 2 8 2.67 2 6.66 3.33 13.32 4 6 .66 12-.67 16.65-4l6-4.67-4.67-5.32c-4.66-4-10-6.66-15.98-6.66l-14 2z"/><path d="M220.3 139.34c-7.33 0-12.65 0-16 2.66-1.98 1.33-3.32 4.66-3.98 9.32 0 4.67.67 8 2.66 10 2.67 2 8 4 15.32 4.66 11.32.66 19.32-2.67 24.65-10l.67-2.66-6-6.66c-4.67-4-10-6.66-17.32-7.32zM207.65 146l12.65-1.34c7.33 1.34 13.32 4 17.32 10-6 4.66-12 6.66-19.32 6l-10.65-2.67c-1.34-1.35-2-2-2-4.68v-2c.66-2 1.33-4 2-5.32zM286.24 193.28c0-2-.67-3.33-2.66-3.33l-24.65-4c-1.33 0-2.66 0-3.33 2 0 1.34.67 3.34 2 3.34l25.3 4 3.34-2.02z"/><path fill="#D96038" d="M224.3 174.64c-1.34 1.33-2.67 3.33-3.33 6.66-.67 4 0 6.66.66 8 2.67 2.66 6.66 4.65 13.32 5.32 6 1.33 12 .67 17.32-2l6-4-4-6c-4-4.65-9.33-7.3-15.32-7.98H224.3z"/><path d="M253.6 195.3l6.67-5.35.66-2-4.66-7.32c-4.67-4.66-10-8-16.66-9.32l-15.97 1.34c-2.66 1.33-4 4-5.33 8.66-.66 4 0 8 2 10 2.66 3.32 7.33 4.65 14 6.65 6.65 1.33 13.3 0 19.3-2.66zm-15.32-18.67c8 1.34 13.32 5.34 16.65 11.33-5.32 4.66-11.98 5.32-19.3 4.66-8-2-12-4.66-12-8v-2.65c.67-2.67 1.33-4 2.66-5.34h11.98zM293.57 231.92c.66-2 0-2.67-2-2.67l-24.64-4.66c-2 0-2.67.66-3.33 2 0 2 .66 2.65 2.66 3.32l24.64 4.66c2 0 2.67-.67 2.67-2.66z"/><path fill="#D96038" d="M232.95 213.27c-2 1.33-3.33 3.33-4 6.66-.66 4-.66 6 1.34 8 1.32 2.65 5.98 4.65 12.64 5.32l17.33-2 6-4-4-6c-4-4.65-8.66-7.32-15.32-8.65l-14 .67z"/><path d="M231.62 211.27c-3.33 1.33-4.66 4.66-5.33 8.66-.67 4.66 0 8 1.33 10 2.66 2.65 7.32 4.65 15.32 5.98 10.66 2 18.64.02 25.3-6.65v-3.33c-3.33-8-10-13.32-20.64-15.98l-15.98 1.33zm-.66 12l.66-2c0-3.34 1.33-4.67 2.67-5.34 1.98-1.33 5.98-1.33 11.97 0 7.33.67 13.33 4.66 16.66 10.66-5.33 4.65-12 5.98-19.32 4.65-8.65-2-12.64-4-12.64-8zM264.92 122.69c-1.32-.02-2 .65-2.66 2.65L259.6 150c0 2.66.67 3.32 2 3.32 2 0 2.66-.66 3.32-2l2.67-25.3c0-2 0-3.33-2.68-3.33z"/><path fill="#D96038" d="M276.92 91.38c-.67-2-3.33-3.33-6.66-3.33-3.33-.67-6 0-8 1.33-2 2-4 6.66-4.66 13.32-1.33 6.66 0 12 2.67 16.65l4.65 6.66 6-4.65c4-4.66 6.66-10 7.32-15.98 1.34-6.66 0-11.33-1.32-14z"/><path d="M279.58 90.05c-2-2-5.33-4-9.32-4.66-4-.68-7.33.65-10 2.65-2.66 2-4.66 6.66-6 14.65-.65 6.66.67 12.66 3.34 18.65l6 6.66h2.66c8-4 13.32-11.3 14.65-21.97.68-8 0-13.32-1.32-15.98zm-3.33 9.32l-.67 5.33c-1.33 8-4.66 13.32-10.66 17.98-3.33-4.66-5.32-10-5.32-15.98l.67-4c.66-6 1.32-9.32 4-11.32.65-.67 2.66-1.33 5.32-.67l4.65 1.35c.67 1.33 2 4 2 7.32zM287.57 158.66c-1.33-.67-2.66.66-3.33 2l-6 24.64c-.66 1.32 0 2.66 2 2.66 1.33.67 3.34 0 3.34-1.33l6-24.64c.66-2.02 0-2.68-2-3.34z"/><path fill="#D96038" d="M303.56 129.34l-6.66-4.66h-8c-2.66 2-4.66 6.66-6.65 13.32-1.34 6-1.34 11.33 1.33 16.65l3.33 6.66 6.67-3.32c4.66-4 7.32-8.65 9.32-15.3 1.32-6.67 2-11.34.66-13.34z"/><path d="M297.56 122.02l-10 .66c-3.32 2.67-5.98 7.33-7.3 14-3.34 11.3-1.35 19.3 4.64 26.63l2.67.67 7.33-4.65c5.33-3.33 9.32-9.33 10.66-16 2-6.65 2-11.98.66-15.3-2-3.34-4.66-5.34-8.66-6zm-7.32 5.32l6-.66 4 2.66 1.32 4-1.33 9.33c-2 7.32-6 12.66-12.66 15.32-2.67-4-3.33-8.67-3.33-12.67 0-2.66 0-4.67.66-7.33 2-5.32 3.34-9.32 5.34-10.66zM302.9 195.95c-1.34-.66-2 0-3.34 1.33l-12 21.98c-1.32 2-.65 3.33.68 3.33 2 1.32 2.66.66 3.33-.67l12.65-22c.67-1.98 0-2.65-1.33-3.98z"/><path fill="#D96038" d="M326.2 171.3c-.66-2-2.66-4-5.32-5.32-3.33-2-6-2.67-8-2-2.66.67-6 4.67-9.32 10.66-3.33 5.32-4.66 11.32-3.33 16.65l1.33 7.32 7.33-2c5.32-2 9.3-6.67 12.64-12s5.33-9.98 4.66-13.3z"/><path d="M324.2 185.96c3.34-6 5.33-11.32 4-14.65-.66-3.33-2.66-5.32-6.66-8-3.33-2-6.66-2.66-10-2-3.32 1.35-6.65 5.34-10.65 11.34-3.34 6.66-4.67 12.66-3.34 18.65l2 7.98 2 2c9.32 0 16.65-5.33 22.65-15.32zm-10.65-19.32c1.33-.66 3.33-.66 6 1.34 2.66 1.33 4 3.33 4 5.32l-4 10c-4 6.65-9.33 11.32-16 12.65l-1.32-8c0-4 1.33-8.65 3.33-11.98 2.66-6 5.32-8.66 8-9.33z"/><path fill="#858585" d="M341.52 219.26l-1.33-11.32-11.33.67c-8 1.34-14.65 6-19.32 11.33-4.66 6-6.66 12.65-5.32 20.64l2 10.66h10.65c7.33-1.33 14-5.32 18.65-10.66 4.66-6 6.66-12.65 6-21.3z"/><path d="M342.85 206.6l-2-2-12.65 1.34c-8.66 2-15.32 6-20.65 12-4.66 6.65-7.32 14.64-6.66 22.63.66 4 1.33 8 3.32 11.33l1.34 1.33h11.98c8.66-.66 15.32-4.66 20-10.65 5.3-6.67 7.3-14.66 7.3-23.32l-2-12.65zm-4.66 3.34l1.32 10c0 7.98-2 13.97-6 19.3-5.98 6.67-13.98 10-25.3 9.33-1.33-4-2-7.33-2-10.66 0-6.65 1.33-11.98 5.33-16.64 6-7.33 15.32-11.32 26.64-11.32z"/><path d="M307.55 248.57l-3.33.67-11.32 15.98c-1.33 1.33-.66 2.67.67 4l4-1.33 10.65-15.33c1.33-1.34 1.33-2.67-.67-4z"/><path fill="#858585" d="M274.92 281.2l9.32-5.32-3.33-10c-3.32-7.32-7.98-12.65-14.64-14.65-7.33-3.33-14.66-3.33-22.64 0l-10.67 4.67 4.67 10.65c4 8 9.33 12.66 16.65 15.33l20.65-.67z"/><path d="M286.9 275.88c0-3.33-.66-7.32-3.32-11.33-3.33-8-9.33-13.32-16.65-16.65-7.33-2.66-16-2.66-23.98 0-5.33 2-9.33 4.67-11.33 6-.66.66-1.33 2-.66 2.66l4 11.33c4.65 7.98 10.65 13.3 17.98 16.64 8 2.66 15.3 2 23.3-.67l10-6 .67-2zm-39.3-23.3l17.32.65c9.33 3.33 14.66 10.65 16.65 21.32-8.65 6.66-17.97 8-26.64 4.66-8.66-3.32-14.65-10.64-18.65-21.98 3.33-2.66 7.34-4 11.33-4.65z"/><path d="M300.23 281.2c0-2 0-3.32-2-3.32l-13.33-4.67c-1.32-.65-2.66 0-3.33 1.34-.66 2 0 3.33 2 3.33l13.33 4.67c.66.66 2 0 3.33-1.33z"/><path fill="#858585" d="M299.56 321.84l-4-9.33c-4.66-6.65-9.98-11.3-17.3-12.64-7.34-2-14.66-1.33-22 2.66l-9.98 6 5.32 10c5.34 7.3 12 11.97 18.66 13.3 7.32 2 13.98.67 21.3-3.32l8-6.66z"/><path d="M302.23 321.84c0-2.67-1.34-6-4.67-10.66-4.66-7.33-10.65-12-18.64-14-8-1.98-15.32-1.32-24 3.34l-10.64 6.66v2l6 11.32c4.65 7.33 11.3 12 19.3 14s15.33.66 23.32-3.34c4.67-2.66 8-5.33 8.66-6.66l.67-2.66zm-24.65-19.32c10 2 16 8.66 19.32 18.65-8 8-16.65 10.66-25.98 8-9.33-2-16.65-8.67-21.32-20 10-6.65 18.65-8.65 27.98-6.65z"/><path d="M300.23 319.84c-2-.67-2.67.66-3.33 2 0 2 .66 2.66 2.66 2.66l13.32 3.33 2.67-2c.66-1.33-.67-3.33-2-3.33l-13.32-2.66z"/><path fill="#858585" d="M272.25 363.13l8 8c7.32 4.66 13.98 7.33 21.3 7.33 8-.68 14-3.34 19.33-9.33l6.66-8-6.66-8.65c-6.66-4.67-13.33-7.33-20.65-7.33-7.33.67-14 3.33-20.65 9.32l-7.33 8.66z"/><path d="M329.53 361.8v-2.66l-8-8.67c-5.98-6-13.3-8-21.3-8-8 .68-15.33 3.35-22 10l-7.97 9.33v2.66l9.32 9.32c6.66 5.34 14.65 7.34 21.98 7.34 8.66 0 15.98-3.34 21.3-10l6.67-9.32zm-53.94 1.33c7.3-9.33 15.3-14.65 25.3-15.32 9.32 0 17.3 4 23.3 13.33-4.66 9.32-12.65 14-22.64 14.66-10.66 0-18.65-4-25.98-12.67z"/><path d="M343.52 359.14c0-1.34-1.33-2-2.66-2l-14 .66c-2 .67-2.65 1.34-2.65 3.33 0 2 1.34 2.66 3.34 2.66l13.32-1.33 2.66-3.33z"/><path fill="#858585" d="M308.22 394.44l7.33 9.32c6 5.33 13.32 8 21.3 8.66 7.34 0 14-2 19.33-8l6.66-7.32-5.33-8.65c-6-6-12.65-8.67-19.97-9.33-7.33 0-14 2.67-21.32 8l-7.98 7.32z"/><path d="M365.5 395.77l-6.66-9.33c-6-6-13.32-9.33-21.3-9.33-8-.65-16 2.02-22.66 7.35-4 3.33-6.66 6-8.66 9.32-.66.67-.66 1.34 0 2.66l8 9.33c6.66 6 13.98 8.66 21.97 9.33 8 0 15.3-2.68 21.3-8l8-9.33v-2zm-27.97-13.98c10 .65 17.3 5.3 22.65 15.3-6 8.66-14 13.32-23.32 12.65-9.32-.66-17.32-5.32-25.3-14.64 7.32-9.32 15.98-13.3 25.97-13.3z"/><path d="M379.5 397.1c0-2-.68-2.66-2.67-2.66h-14c-1.33 0-2 .67-2 2.66 0 1.34.67 2 2 2h14c2 0 2.66-.66 2.66-2z"/><path fill="#858585" d="M350.85 274.55l-3.33-11.33-10.66 2.67c-8.66 1.98-14 6.65-18.65 12.65-3.98 6-4.65 13.32-3.32 21.3l3.33 10 10.67-1.33c8-1.34 14-6 18-12 3.98-6 5.3-13.98 3.98-21.97z"/><path d="M317.55 311.85l12.65-.67c7.33-2 14-6.66 17.98-13.32 4.67-6.66 6-14.66 5.34-23.3l-2.67-12-3.33-1.34c-3.33 0-7.33 0-12 2-8.65 2.67-14.64 7.33-19.3 14-4.67 7.32-5.33 13.98-4 22.64l4 11.32 1.32.67zm-.67-18c0-5.3 1.33-9.3 4-13.98 5.32-8 13.32-12.66 25.3-13.98l2 13.3c0 6-.66 11.33-4 16-4.66 7.98-13.3 11.98-23.97 11.98-2.65-4.66-3.32-9.32-3.32-13.32z"/><path d="M320.2 307.85c-2-1.34-2.65-1.34-4 0l-7.98 11.32c-.67 2-.67 2.67.67 4l3.98-.67 8-11.32c.66-.67 0-2.66-.67-3.33z"/><path fill="#858585" d="M378.15 310.5l-2.66-11.3-11.33 2c-8 2.65-14 6.65-18 13.3-4.65 6.67-5.3 13.33-3.98 20.66 1.32 4 2 7.32 3.98 10l10-.68c8-2 13.32-6 17.98-12 3.33-6.65 5.33-13.97 4-21.97z"/><path d="M362.84 298.53c-8.66 2.66-14.66 7.32-18.65 14.65-4.68 6.66-6.67 14.65-4.68 22.64l4 11.32 2 .67 12-.66c7.98-2 14.64-6 18.64-13.32 4.66-6.66 6-14.65 4.66-23.3l-3.33-12.66-2-1.34c-4 0-8 .67-12.66 2zm10.66 3.33c2 4 2.66 8.65 2.66 13.32 0 6-2 11.32-4.67 15.98s-7.33 8-13.33 10l-10.65 1.32c-2.67-3.33-3.33-7.32-3.33-13.32 0-4.66 1.32-8.66 3.98-13.32 6-8 14-12.65 25.32-13.98z"/><path d="M347.52 343.8l-4 .68-7.33 10.66c-1.34 2-1.34 2.66.66 3.33.67 1.33 2 1.33 3.33-.67l7.32-10.66c1.33-2 1.33-2.66 0-3.33z"/><path stroke-miterlimit="100" d="M364.58 579.58H7.42V7.42h357.16v572.16z" fill="none" stroke="#000" stroke-width="14.84"/></svg>