<svg xmlns="http://www.w3.org/2000/svg" height="100%" viewBox="0 0 372 587"><path fill="#fffaf0" d="M0 0h372v587H0z"/><path fill="#333" d="M66 299.94c0-3.26-1.96-5.2-5.22-5.2-2.6 0-4.56 1.94-4.56 5.2 0 3.26 1.96 4.57 4.56 4.57 3.26 0 5.2-1.3 5.2-4.56zM54.27 331.22c0-3.26-1.3-4.57-4.56-4.57-1.3 0-1.95 0-3.25 1.3l-1.95 3.27c0 2.6 1.95 4.55 5.2 4.55 3.26 0 4.57-1.95 4.57-4.55zM36.67 346.85l-1.3-3.25c-.65-.66-1.95-1.32-3.25-1.32-3.26 0-5.22 1.32-5.22 4.57 0 3.26 1.96 5.2 5.22 5.2l3.25-1.3 1.3-3.9zM36.67 271.27l-.65-3.25-3.9-1.96c-1.3 0-1.96.65-3.26 1.96l-1.96 3.26c0 2.6 1.96 4.56 5.22 4.56s4.55-1.96 4.55-4.56zM37.98 245.22c0-3.26-1.3-5.2-4.56-5.2s-4.56 1.94-4.56 5.2c0 2.6 1.3 4.56 4.56 4.56s4.56-1.96 4.56-4.56zM36.67 320.8l-.65-3.26-3.9-1.32c-1.3 0-1.96.66-3.26 1.32l-1.96 3.25 1.96 3.25c1.3 1.3 1.95 1.95 3.26 1.95l3.9-1.95.65-3.26zM36.67 417.2c0-2.6-1.3-4.55-4.55-4.55-3.26 0-5.22 1.96-5.22 4.56l1.96 3.92c1.3.66 1.95.66 3.26.66l3.9-.66.65-3.9zM51.66 260.85c0-2.6-1.95-4.56-5.2-4.56-3.27 0-4.57 1.94-4.57 4.55l1.3 3.9c1.3.66 2.6 1.3 3.25 1.3l3.9-1.3 1.3-3.9zM70.56 346.85c0-3.25-1.3-4.56-4.57-4.56-3.26 0-4.57 1.3-4.57 4.55 0 2.6 1.3 4.56 4.56 4.56 3.25 0 4.56-1.94 4.56-4.55zM52.96 360.53c0-3.25-1.95-4.56-5.2-4.56-3.27 0-4.57 1.3-4.57 4.56 0 2.6 1.3 4.56 4.55 4.56 3.26 0 5.2-1.96 5.2-4.57zM54.27 402.88c0-2.6-1.3-4.56-4.56-4.56-3.25 0-4.55 1.95-4.55 4.56 0 3.26 1.3 5.2 4.56 5.2 1.3 0 2.6 0 3.26-1.3l1.3-3.9zM43.2 225.67l-1.96-3.26-3.26-1.3c-3.26 0-4.56 1.3-4.56 4.57 0 3.26 1.3 4.56 4.56 4.56s5.2-1.3 5.2-4.56zM43.2 296.03l-1.96-3.26-3.26-1.95c-3.26 0-4.56 1.95-4.56 5.2s1.3 4.57 4.56 4.57l3.26-.66 1.95-3.9zM39.28 441.32c0-3.26-1.3-4.57-4.56-4.57-3.25 0-4.56 1.32-4.56 4.57 0 3.26 1.3 5.2 4.56 5.2s4.56-1.94 4.56-5.2zM137.66 36.08l-1.95-3.26-3.25-1.3c-1.3 0-1.96 0-3.26 1.3l-1.3 3.26c0 2.6 1.3 4.56 4.55 4.56 3.26 0 5.2-1.95 5.2-4.56zM111.6 47.8l-1.3-3.25-3.9-1.96c-2.62 0-4.57 1.95-4.57 5.2 0 2.62 1.95 3.92 4.56 3.92 3.25 0 5.2-1.3 5.2-3.9zM187.17 32.17c0-3.26-1.3-5.2-3.9-5.2-1.96 0-2.6 1.3-3.26 1.94-1.3.66-1.94 1.97-1.94 3.27l1.95 3.26 3.27 1.3c2.6 0 3.9-1.3 3.9-4.56zM164.37 47.8c0-3.25-1.3-5.2-3.9-5.2-1.96 0-2.6.65-3.26 1.95-1.3.65-1.95 1.3-1.95 3.26 0 2.62 1.96 3.92 5.2 3.92 2.62 0 3.92-1.3 3.92-3.9zM45.15 32.17l-1.3-3.26c-.66-.64-2.6-1.94-3.92-1.94-.65 0-1.95 1.3-3.26 1.95-.65.66-1.3 1.97-1.3 3.27l1.3 3.26c1.3 1.3 2.6 1.3 3.26 1.3l3.9-1.3 1.32-3.26zM39.28 58.88c0-3.26-1.3-4.56-4.56-4.56-3.25 0-4.56 1.3-4.56 4.56 0 2.6 1.3 4.57 4.56 4.57s4.56-1.96 4.56-4.57zM39.28 131.2c0-3.26-1.3-5.2-4.56-5.2-3.25 0-4.56 1.94-4.56 5.2 0 3.26 1.3 4.56 4.56 4.56s4.56-1.3 4.56-4.56zM37.98 178.1c0-3.25-1.3-5.2-4.56-5.2s-4.56 1.95-4.56 5.2c0 2.62 1.3 3.92 4.56 3.92s4.56-1.3 4.56-3.9zM44.5 198.3l-1.3-3.25-3.92-1.3c-1.3 0-2.6.65-3.26 1.3l-1.3 3.25c0 3.26 1.3 4.57 4.56 4.57s5.2-1.3 5.2-4.56zM73.8 261.5c0-3.26-1.94-5.2-4.55-5.2-3.26 0-5.2 1.94-5.2 5.2 0 3.26 1.94 4.56 5.2 4.56 2.6 0 4.56-1.3 4.56-4.56zM43.2 376.17c0-3.26-1.96-4.57-5.22-4.57-1.3 0-1.96.66-3.26 1.32-.65.64-1.3 1.94-1.3 3.25 0 2.6 1.3 4.56 4.56 4.56s5.2-1.96 5.2-4.56zM36.67 395.06c0-3.25-1.95-5.2-4.55-5.2-1.3 0-1.96 1.3-3.26 1.95l-1.96 3.26 1.96 3.26c1.3 1.3 1.95 1.3 3.26 1.3 2.6 0 4.55-1.3 4.55-4.56zM37.33 484.32c0-2.6-1.3-4.56-4.56-4.56s-4.56 1.95-4.56 4.56l1.3 3.9c.66 1.3 1.97 1.3 3.27 1.3 3.25 0 4.56-1.94 4.56-5.2zM44.5 546.2l-1.3-3.25-3.92-1.3c-1.3 0-2.6.66-3.26 1.3l-1.3 3.26c0 3.27 1.3 4.57 4.56 4.57s5.2-1.3 5.2-4.56zM62.08 529.93c0-2.6-1.3-3.9-4.56-3.9-3.25 0-4.56 1.3-4.56 3.9 0 3.25 1.3 5.2 4.56 5.2s4.56-1.95 4.56-5.2zM35.38 516.9c0-3.26-1.96-4.57-4.57-4.57-3.24 0-4.55 1.3-4.55 4.57l1.3 3.25c1.3 1.3 1.96 1.3 3.26 1.3 2.62 0 4.57-1.3 4.57-4.55zM67.3 557.28l-1.3-3.25c-1.3-1.3-2.6-1.95-3.92-1.95-2.6 0-4.56 1.95-4.56 5.2 0 3.26 1.96 4.57 4.56 4.57l3.9-1.3 1.32-3.27zM132.45 552.73c0-2.6-1.3-3.9-4.56-3.9-3.27 0-5.22 1.3-5.22 3.9 0 3.26 1.95 5.2 5.2 5.2 3.26 0 4.57-1.94 4.57-5.2zM101.83 557.28l-.66-3.25c-1.3-1.3-2.6-1.95-3.9-1.95-1.3 0-1.96.65-3.26 1.95l-1.95 3.25 1.96 3.26c1.3 1.3 1.96 1.3 3.27 1.3l3.9-1.3.66-3.26zM150.7 557.28c0-3.25-1.96-5.2-4.57-5.2-1.3 0-1.96.65-3.26 1.95l-1.3 3.25 1.3 3.26c1.3 1.3 1.96 1.3 3.26 1.3 2.6 0 4.56-1.3 4.56-4.56zM183.26 560.54l-1.3-3.26-3.9-1.94c-.66 0-1.96.64-3.26 1.94-.66 1.32-1.3 1.96-1.3 3.26l1.3 3.26 3.25 1.3 3.9-1.3 1.3-3.26zM216.5 28.9c0-3.24-1.96-4.54-5.22-4.54-2.6 0-4.56 1.3-4.56 4.55 0 3.27 1.95 4.58 4.56 4.58 3.26 0 5.2-1.3 5.2-4.57zM153.95 30.22c0-3.26-1.96-4.57-5.2-4.57-3.27 0-4.58 1.3-4.58 4.57l1.3 3.25 3.27 1.3c3.25 0 5.2-1.3 5.2-4.55zM64.04 31.52c0-3.26-1.3-5.22-4.56-5.22-1.3 0-1.96.66-3.26 1.96l-1.95 3.26c0 3.26 1.95 4.56 5.2 4.56 3.27 0 4.57-1.3 4.57-4.56zM255.58 32.82l-1.3-3.26c-1.3-.65-2.6-1.3-3.9-1.3-1.3 0-1.96.65-3.27 1.3l-1.3 3.26 1.3 3.9c1.32 1.32 1.97 1.32 3.27 1.32s2.6 0 3.9-1.3l1.3-3.92zM232.78 36.08c0-3.26-1.3-4.56-3.9-4.56-1.96 0-2.6 0-3.27 1.3-1.3.65-1.94 1.96-1.94 3.26 0 2.6 1.95 4.56 5.2 4.56 2.62 0 3.92-1.95 3.92-4.56zM337.02 32.17c0-3.26-1.95-5.2-4.56-5.2-1.95 0-2.6 1.3-3.26 1.94-1.3.66-1.95 1.97-1.95 3.27l1.95 3.26 3.26 1.3c2.6 0 4.56-1.3 4.56-4.56zM314.22 36.08c0-3.26-1.95-4.56-4.56-4.56-1.96 0-2.6 0-3.26 1.3-1.3.65-1.95 1.96-1.95 3.26 0 2.6 1.95 4.56 5.2 4.56 2.62 0 4.57-1.95 4.57-4.56zM282.3 28.26c0-3.25-1.3-4.56-3.9-4.56-3.27 0-5.22 1.3-5.22 4.56s1.95 4.56 5.2 4.56c2.6 0 3.92-1.3 3.92-4.56zM264.05 44.55c-1.95 0-2.6.65-3.26 1.3-1.3 1.3-1.96 1.96-1.96 3.26 0 3.27 1.95 5.23 5.2 5.23 2.62 0 4.57-1.96 4.57-5.22 0-3.25-1.94-4.55-4.55-4.55zM94.66 32.17c0-3.26-1.95-5.2-4.56-5.2-1.3 0-2.6 1.3-3.26 1.94-1.3.66-1.95 1.97-1.95 3.27l1.94 3.26c.65 1.3 1.96 1.3 3.26 1.3 2.6 0 4.56-1.3 4.56-4.56zM131.14 56.28c0-3.26-1.3-5.2-3.9-5.2-3.26 0-5.22 1.94-5.22 5.2 0 3.25 1.96 4.56 5.2 4.56 2.62 0 3.92-1.3 3.92-4.56z"/><path d="M70.56 72.56c0-1.3-1.3-1.95-3.26-1.3-1.3 0-1.96 1.3-1.96 2.6C72.5 101.9 82.28 129.9 94 159.22c24.1 58 50.17 99.04 77.54 121.85l34.53 26.06c38.43 28.67 65.8 53.43 84.7 75.6 30.6 35.82 57.98 84.03 80.78 142 0 1.32 1.3 1.97 3.26 1.32 1.3 0 1.3-1.3 1.3-3.26-22.8-59.3-49.5-106.85-81.43-143.98-18.9-21.5-46.9-46.27-85.35-75.58l-34.52-26.7c-26.72-22.17-52.78-62.55-76.23-121.2-12.38-29.3-21.5-56.68-28-82.74z"/><path fill="#D96038" d="M64.04 47.8c-3.26.66-5.86 1.96-6.5 3.27-1.97 3.25-1.97 7.8-.67 14.32.66 5.86 3.9 11.08 8.47 14.98l5.22 3.9 4.55-5.86c1.97-5.2 3.27-11.07 1.97-16.93-1.3-6.53-3.26-10.43-5.2-13.04l-7.83-.65z"/><path d="M79.68 60.84c-1.3-6.52-3.26-11.73-5.87-14.34-2.6-1.3-6.5-1.95-10.4-1.3s-6.53 2.6-7.83 4.56c-2.6 3.26-2.6 8.47-1.3 16.3 1.95 10.42 7.16 17.58 15.63 20.84l2.6-.65 4.57-7.17c3.26-5.2 3.9-11.73 2.6-18.24zm-4.57 6.5c0 5.22-1.94 9.8-4.54 13.7-6.52-3.27-9.78-8.48-11.08-16.3l-.65-7.16c0-1.96 0-3.9.65-5.22 1.3-.64 2.6-1.3 4.56-1.94l6.5.65c1.32 1.3 3.27 5.2 3.93 11.07l.64 5.2zM95.3 103.2c-1.3 0-2.6 0-3.25 1.94l-8.46 22.8c-.67 1.3 0 3.26 1.3 3.26 1.94.66 3.24 0 3.24-1.3l8.48-23.45c1.3-1.3.65-2.6-1.3-3.26z"/><path fill="#D96038" d="M114.2 76.48c-.65-2.6-2.6-3.92-5.86-5.22l-7.82-.65c-2.6 1.97-5.2 5.22-7.8 11.74-2.62 5.2-2.62 11.07-.67 16.94l2.6 6.52 7.18-2.6c4.56-3.27 7.8-7.83 9.77-13.04 3.26-6.52 3.26-11.08 2.6-13.68z"/><path d="M116.8 75.82c-.64-3.25-3.9-5.2-7.15-6.5l-9.78-.67c-3.25 1.96-6.5 5.87-9.77 12.38-1.96 6.52-2.6 12.38-1.3 18.9l3.25 7.16c1.3 1.3 1.96 1.3 3.26 1.3 8.48-1.96 15-7.17 19.56-17.6 2.6-6.5 3.25-11.72 1.95-14.98zm-9.1-1.95c3.25 1.3 4.55 3.26 4.55 5.2l-2.6 9.78c-3.26 7.82-7.82 11.73-13.7 14.34-1.3-3.92-2.6-7.18-2.6-10.43 0-2.6.66-5.87 1.96-9.13 2.62-5.86 4.57-9.77 6.53-10.42l5.86.65zM111.6 140.32c-1.95-1.3-3.26-.65-3.9 1.3L96.6 163.8c-.66 1.3 0 3.25 1.3 3.25 1.95 1.3 2.6.66 3.9-1.3l10.43-21.5c.65-1.95.65-3.26-.65-3.9z"/><path fill="#D96038" d="M132.45 114.9c-.65-1.94-2.6-3.24-5.22-5.2-3.25-1.3-5.86-1.96-7.8-1.3-3.27 1.3-5.88 4.56-8.48 11.08-3.26 5.2-4.56 11.07-3.26 16.28.64 3.26 1.3 5.22 1.95 7.17l7.8-1.96c5.23-2.6 8.48-6.5 11.74-12.37 2.6-5.87 3.9-10.43 3.25-13.7z"/><path d="M135.05 114.9c-.65-3.24-2.6-5.2-7.16-7.8l-9.8-.66c-3.24 1.96-6.5 5.22-9.76 11.73-3.26 5.86-3.9 11.73-3.26 17.6l2.6 8.46c.66 1.3 1.97 1.3 2.62 1.3l7.8-2.6c5.88-2.6 9.8-7.17 13.04-13.03 3.26-6.52 4.57-11.73 3.9-15zm-22.15 5.22c2.6-5.2 5.2-8.46 7.17-9.12l5.86.66 4.56 5.2-3.9 10.43c-3.27 6.5-8.5 10.42-15 12.37l-1.95-7.8c0-3.93 1.3-7.84 3.25-11.75zM127.9 182.02c-.67-.65-1.97 0-3.27 1.96l-7.17 23.45c0 1.95 0 3.26 1.96 3.26 1.3 0 2.6 0 3.26-1.32l7.16-24.1c1.3-1.3.65-2.6-1.95-3.26z"/><path fill="#D96038" d="M145.48 154c-.65-1.95-2.6-3.25-5.86-4.56-3.26-.65-5.87-.65-7.17 0-3.26 1.3-5.2 5.87-7.82 11.73-1.95 5.86-1.95 11.07 0 16.94l3.26 6.53 6.5-3.26c4.56-3.26 7.82-7.82 9.77-13.03 2.6-6.52 2.6-11.08 1.3-14.34z"/><path d="M148.08 154c-.65-3.25-3.25-5.2-7.16-6.5H130.5c-3.26 1.3-5.87 6.5-8.47 13.02-2.6 6.5-2.6 12.37-.66 18.24l4.57 7.82 1.95.65c9.1-2.6 15.62-8.47 18.88-18.24 1.96-7.18 3.26-11.74 1.3-15zm-9.77-1.95c3.92 1.3 5.88 3.26 5.88 5.87l-2.6 9.1c-2.6 7.18-7.18 11.74-13.04 14.35-1.95-3.26-2.6-7.17-2.6-11.08 0-3.27 0-5.87 1.3-8.48 1.95-5.2 3.9-9.12 5.86-9.77h5.2zM150.04 219.8c-1.96-.65-3.26.66-3.26 1.96l-5.2 24.1c-.66 1.3 0 2.6 1.94 3.27l2.6-1.96 5.22-24.1c.65-1.96 0-2.6-1.3-3.26z"/><path fill="#DA8E55" d="M164.37 190.5c-.65-1.97-3.25-3.27-6.5-3.92h-7.83c-1.95 1.95-4.56 6.5-5.86 13.03-1.96 5.87-1.3 11.1.65 16.3l3.9 6.5 6.52-3.25c4.56-3.9 7.82-8.46 9.12-14.98 1.3-6.5 1.95-11.08 0-13.68z"/><path d="M166.98 189.84c-1.96-3.26-3.9-5.2-8.47-6.52l-9.76 1.3c-3.26 2.6-5.22 7.17-7.17 14.33-1.3 6.52-.65 12.4 1.3 18.25 1.3 3.26 2.6 5.2 4.56 7.17l2.6.64 7.18-4.54c4.57-3.9 7.82-9.13 9.78-15.64 1.3-7.16 1.3-11.73 0-14.98zm-20.2 9.77c1.3-5.2 3.26-8.46 4.56-10.42l5.87-.65 3.92 1.96 1.95 5.2-1.3 7.82c-1.96 7.82-5.87 13.03-11.73 15.63-2.6-3.25-4.56-7.8-4.56-13.03l1.3-6.5zM71.86 120.77l-3.26.66c-1.3 1.3-1.3 1.95 0 3.26l18.24 16.27h4.56c.65-1.95.65-3.25-.65-4.56l-18.9-15.63z"/><path fill="#D96038" d="M49.05 94.06l-6.5 3.9c-2.62 2.62-3.27 5.23-3.27 7.18.65 3.26 3.26 7.17 8.47 11.08 4.56 4.55 9.78 6.5 15 7.16l7.8-.65-.65-7.16c-1.3-5.87-3.9-10.43-9.12-15-4.56-3.9-8.47-6.5-11.73-6.5z"/><path d="M49.7 92.1c-3.25-.64-6.5 1.32-9.12 4.57-2.6 3.26-3.9 6.52-3.9 9.13.65 3.9 3.25 7.8 9.12 12.37 5.2 4.56 10.42 7.17 16.94 7.82l7.82-.66 1.95-1.96v-8.47c-1.3-6.5-4.55-11.7-9.76-16.28-5.22-4.56-9.78-6.5-13.03-6.5zm-5.2 7.83c1.95-1.96 3.25-3.26 4.55-3.26 1.96 0 5.87 1.96 10.43 6.52 5.86 4.54 7.82 10.4 7.82 16.93-5.86 1.3-11.73-.65-18.25-5.22-4.55-5.2-7.16-8.45-7.16-10.4 0-1.3 1.3-2.62 2.6-4.57zM82.28 161.17c-1.3-.65-1.95-.65-3.26 1.3-.65 1.3-.65 2.6 1.3 3.26l22.16 11.08c1.3.66 2.6 0 3.26-1.3.65-1.95.65-2.6-.66-3.26l-22.8-11.07z"/><path fill="#D96038" d="M53.62 141.63c-2.6.65-3.9 2.6-5.87 5.2-1.3 2.6-1.3 5.22-.65 7.17.65 3.26 4.56 6.52 10.43 9.12l24.1.66-2.6-6.52c-1.96-5.2-6.52-9.77-11.73-12.37-6.52-2.62-11.08-3.93-13.68-3.27z"/><path d="M68.6 142.28c-6.52-3.26-11.73-4.56-15.64-3.26-2.6 0-5.2 2.6-7.16 6.52-1.96 3.9-2.6 7.16-1.3 9.77 1.95 3.9 5.2 7.17 11.72 10.43 6.52 2.6 12.38 3.9 18.9 2.6l7.16-2.6 1.3-1.95c-.65-9.78-5.86-16.3-14.98-21.5zm-14.33 1.95c1.95-1.3 6.5 0 11.72 3.26 6.5 3.24 10.42 7.8 12.37 14.32l-19.54-1.3c-6.52-3.26-9.78-6.52-9.78-8.47l1.3-3.9c1.3-2.6 2.6-3.92 3.92-3.92zM91.4 197c-1.3 0-2.6.66-2.6 2.6 0 1.3 0 2.6 1.95 2.6l24.76 1.97 2.6-2.6c0-1.3-.64-1.96-1.94-1.96L91.4 197z"/><path fill="#D96038" d="M57.52 188.53c-1.3 1.3-3.25 3.26-3.25 7.17 0 3.9 0 5.86 1.95 7.17 1.3 2.6 5.86 4.56 13.03 4.56 9.77 1.3 16.94-1.3 22.15-7.82l-4.56-5.2c-4.56-4.56-9.77-6.52-15.63-7.17l-13.68 1.3z"/><path d="M93.36 200.9v-2.6c-3.9-8.46-11.08-13.02-21.5-13.67-7.82-.65-12.38 0-15.64 1.95-2.6 1.3-3.9 4.56-4.56 8.47-.65 4.56.65 7.82 2.6 9.77 1.96 3.26 7.17 4.56 14.34 5.87 7.17 0 13.03-1.32 18.24-4.58l6.52-5.2zm-22.8-11.06c8.46 1.3 13.68 3.9 17.58 9.77-4.55 4.57-11.07 6.52-18.9 5.22-8.46-.65-13.02-3.26-13.02-7.16l.65-1.3c.66-3.27.66-4.57 2.6-5.22l11.1-1.3zM116.16 236.75c-1.96-.65-3.26 0-3.26 1.95 0 1.3.66 2.6 1.96 3.26l24.76 3.26c1.95.65 2.6 0 2.6-1.96.65-1.3 0-2.6-1.3-3.25l-24.76-3.25z"/><path fill="#D96038" d="M82.28 225.67c-1.3 1.3-2.6 3.26-3.26 6.5-.65 3.27 0 5.87 1.3 7.83 1.96 1.96 5.87 3.9 13.04 5.2l16.3-1.94 5.85-4.56-3.9-5.2c-3.9-4.57-8.47-7.83-14.98-8.5l-14.34.67z"/><path d="M81.63 223.72c-2.6 1.3-4.56 3.9-5.2 8.47-.66 3.9 0 7.8 1.94 9.76 1.96 2.6 7.17 4.56 13.68 5.86 7.17 1.3 13.03.65 18.9-2.6l6.5-4.57.66-2.6c-3.24-8.47-10.4-13.7-20.83-15.64l-15.64 1.32zm0 9.12c.65-2.6 1.3-3.9 2.6-5.22h12.4c7.15 1.3 13.02 4.56 16.27 11.08-5.2 3.9-11.73 5.2-19.54 4.56-7.82-1.96-11.73-4.56-11.73-7.82v-2.6z"/><path fill="#858585" d="M182.6 219.16l-8.45 7.17c-5.87 6.5-7.82 13.67-8.47 20.2 0 7.8 2.6 14.32 8.47 19.53l7.8 6.52 8.48-6.52c5.2-5.2 7.82-11.07 7.82-18.9 0-7.16-2.6-14.32-7.82-20.84l-7.82-7.16z"/><path d="M183.92 217.2c-1.3-1.3-2.6-1.3-3.26 0l-9.12 7.8c-5.22 7.18-7.82 13.7-8.47 21.52 0 8.47 3.25 14.98 8.47 21.5 2.6 3.26 5.86 5.2 9.12 6.5.65 1.32 1.95 1.32 2.6 0l9.13-6.5c5.2-6.52 8.46-13.03 8.46-20.85 0-7.8-3.26-14.98-8.47-21.5l-8.48-8.47zm11.72 29.97c0 9.77-4.56 17.6-13.68 22.15-9.12-4.56-13.68-12.38-13.68-22.15v-.65c0-9.77 5.2-17.6 14.33-24.1 8.48 7.16 13.04 14.98 13.04 24.1v.65z"/><path d="M184.57 272.58c0-1.3-.65-2.6-3.26-2.6-1.3 0-1.95 1.3-1.95 2.6l.66 13.03c0 1.96.66 2.62 2.6 2.62 1.3 0 1.97-.66 1.97-2.6v-13.04z"/><path fill="#858585" d="M92.05 279.1l7.82 7.8c6.52 4.58 14.33 7.18 21.5 6.52 7.17-1.3 13.03-4.55 18.25-10.42l5.2-8.47-6.5-7.17c-5.87-4.55-12.4-7.16-20.2-6.5-7.17.64-13.7 3.9-19.55 9.76-3.26 2.6-5.2 5.87-6.52 8.48z"/><path d="M118.1 258.25c-7.8.65-14.97 4.56-21.48 10.42-3.26 2.6-5.22 5.86-7.17 9.12l.65 3.25c.65 1.95 3.9 4.56 8.47 7.82 7.82 5.2 14.98 7.8 22.8 6.5 7.82-.64 14.34-3.9 20.2-9.76l6.5-9.76-.64-2.6-7.8-8.48c-6.53-5.2-13.7-7.17-21.52-6.5zm3.27 32.57c-9.77.66-18.9-3.26-26.06-11.73 6.53-9.78 14.35-15 22.8-15.65 9.8-.64 17.6 2.6 24.12 11.08l-5.86 8.47c-3.9 4.56-9.13 7.17-15 7.82z"/><path d="M168.28 271.93c0-1.96-.65-2.6-3.26-2.6l-20.2 3.25c-1.3 0-2.6.65-2.6 2.6.65 1.3 1.96 2.6 3.26 1.95l20.85-2.6c1.3 0 1.95-1.3 1.95-2.6z"/><path fill="#858585" d="M225.6 235.44l-9.1 6.52c-6.52 6.5-9.78 13.03-10.43 20.2-.66 7.16.65 13.68 5.86 20.2l7.82 6.5 8.47-4.55c5.86-5.2 9.12-11.72 10.42-18.9.65-7.15-1.3-14.33-5.86-21.5l-7.17-8.46z"/><path d="M226.92 233.5h-3.26l-9.77 7.15c-5.88 6.52-9.8 13.03-10.44 20.85-.65 7.82 1.3 15 6.52 22.15l8.47 7.83h1.95c3.26-.66 6.52-3.26 9.77-5.87 5.87-5.86 9.78-12.37 11.08-19.54.65-7.82-1.3-15.64-5.86-22.8l-8.48-9.77zm9.12 29.3v2.62c-.65 5.86-3.26 10.42-7.17 14.97l-9.12 5.86c-7.17-5.2-11.08-12.38-11.08-21.5v-2.6c1.3-9.13 6.52-16.3 16.3-23.46 7.8 7.82 11.07 15.63 11.07 24.1z"/><path d="M219.75 286.26c-1.95 0-3.26 1.3-3.26 2.6l-.66 20.85c0 1.32.65 2.62 2.6 2.62 1.3.65 2.6-.65 2.6-1.95l1.32-20.85c0-1.96-.66-2.6-2.6-3.26z"/><path fill="#858585" d="M135.7 316.88l9.13 5.86c7.16 3.9 14.98 4.57 22.15 3.26 7.16-1.95 12.38-5.86 16.94-13.03l3.25-9.12-7.16-6.5c-7.16-3.93-13.67-5.23-21.5-3.27-6.5 1.3-13.02 5.86-17.58 13.03-2.6 3.27-4.56 6.52-5.2 9.78z"/><path d="M133.1 316.23l.65 1.96 10.43 7.15c7.8 3.9 15.63 4.56 23.45 2.6 7.17-1.95 13.03-6.5 18.24-13.67 2.6-3.9 4.56-7.83 4.56-10.43l-.65-1.95-9.12-7.17c-7.17-3.9-14.98-5.22-22.8-3.25-7.17 1.94-13.68 6.5-18.9 13.67-2.6 3.26-4.56 7.17-5.86 11.08zm26.7-19.55c9.78-2.6 17.6.66 24.77 7.83-3.26 9.78-9.12 16.3-18.24 18.9-9.13 1.95-18.25-.66-28.02-7.17 5.22-11.08 12.4-17.6 21.5-19.55z"/><path d="M202.8 299.3c0-1.96-1.94-1.96-3.25-1.96l-12.38 3.9c-1.95 0-2.6 1.95-1.95 3.27.65 1.95 1.95 1.95 3.26 1.95l12.38-3.9c1.95-1.3 2.6-1.96 1.95-3.26z"/><path fill="#858585" d="M226.26 338.38l-7.16-7.16c-6.52-4.57-13.03-6.52-20.2-4.57-7.82.66-13.68 4.57-18.9 11.08-3.25 2.6-5.2 5.87-6.5 9.12l9.1 6.52c7.18 4.56 14.35 5.86 20.86 5.2 7.17-1.3 13.03-5.2 18.24-11.07l4.56-9.12z"/><path d="M228.87 336.43c-2.6-2.6-5.2-5.2-8.47-7.17-7.16-5.2-14.33-6.52-22.15-5.86-7.82 1.3-14.33 5.86-20.2 12.37-3.25 3.26-5.2 6.52-7.16 9.77 0 .66 0 1.96.64 3.26l9.77 7.17c7.83 4.56 15.65 6.52 22.8 4.56 7.83-1.3 14.34-4.56 18.9-11.07l5.87-10.43v-2.6zm-5.2 2.6c-3.92 9.77-10.43 15-20.2 16.94-9.78 1.3-18.9-1.95-26.72-9.77 5.86-9.77 13.03-15.63 22.8-16.94 9.12-1.95 16.94 1.3 24.1 9.77z"/><path d="M247.76 333.82c-.64-1.3-1.95-2.6-3.25-1.96l-18.23 3.9c-1.96.67-2.6 1.32-2.6 3.27.64 1.3 1.94 1.96 3.25 1.3l18.9-3.9c1.3 0 1.94-.66 1.94-2.6z"/><path fill="#858585" d="M215.84 380.08l7.82 7.8c6.5 4.58 13.68 7.18 21.5 7.18 7.16 0 13.03-3.26 18.9-9.12l5.2-7.82-6.5-8.46c-5.22-4.57-11.74-7.17-19.56-7.17-7.16 0-13.68 3.24-20.2 9.1l-7.16 8.48z"/><path d="M213.24 378.77l.65 2.6c.64 1.97 3.24 4.57 9.1 8.48 6.52 5.2 13.7 8.47 22.16 7.8 7.16 0 14.33-3.24 20.2-9.1l6.5-9.77v-2.6l-7.16-8.48c-6.5-5.2-13.68-8.47-21.5-7.82-7.8 0-14.98 3.26-21.5 9.12l-8.46 9.77zm29.97-13.68c9.78 0 17.6 3.9 23.46 13.02-5.2 9.12-12.38 13.68-22.15 14.34-8.46 0-17.58-3.9-25.4-13.03 7.16-9.12 15.63-13.7 24.1-14.34z"/><path d="M288.16 372.9l-18.9 2.62c-1.3 0-1.95.65-1.95 2.6l2.62 1.96 18.9-1.3c1.94 0 2.6-1.3 2.6-3.26l-3.26-2.6z"/><path fill="#858585" d="M247.1 422.43l8.48 7.8c6.52 4.58 13.7 7.18 20.85 6.53 7.82 0 13.68-3.26 18.9-9.12l5.86-9.12-7.18-7.17c-5.86-5.2-12.38-7.17-19.54-6.5-7.82 0-14.33 3.24-20.2 9.76-3.26 2.6-5.2 5.22-7.17 7.83z"/><path d="M245.16 424.38l9.12 7.82c7.17 5.2 14.33 7.8 22.8 7.16 7.82-.65 14.34-3.9 20.2-10.42l5.86-9.12v-2.6l-7.8-8.47c-6.53-4.57-13.7-7.17-21.52-7.17-7.8.65-14.98 3.9-21.5 10.43-3.25 2.6-5.86 5.86-7.16 9.12v3.26zm14.33 5.86c-3.92-2.6-6.52-5.2-8.48-7.8 5.87-9.8 14.34-14.35 23.46-15 10.42-1.3 17.6 3.25 23.45 11.08-4.56 9.77-12.38 14.98-21.5 15.63-5.86 0-11.07-.65-16.94-3.9z"/><path d="M322.04 415.9c0-1.3-1.3-1.95-2.6-1.95l-18.9 1.96c-1.96 0-2.6 1.3-2.6 3.27l3.25 1.95 18.88-2.6c1.3 0 2.6-.66 1.96-2.6z"/><path fill="#858585" d="M356.57 382.03c-3.26.66-6.52 2.6-9.78 5.2-6.52 5.23-10.43 11.1-12.38 18.26-1.3 7.15-.66 13.67 3.25 20.83l6.52 7.82 9.76-3.9c6.52-4.57 10.43-10.43 12.38-17.6 1.3-7.16 0-14.33-3.26-21.5l-6.5-9.12z"/><path d="M358.52 380.08c-.65-1.3-1.95-1.3-3.26-.65-1.95 0-5.2 1.95-9.77 5.86-7.17 5.85-11.74 12.36-13.04 19.53-1.95 7.82-1.3 15.64 3.26 22.8l7.17 8.48 2.6.65c3.25-1.3 6.5-2.6 9.76-5.2 7.17-3.9 11.73-10.43 13.03-18.25 1.95-7.8 1.3-14.98-3.27-23.45l-6.5-9.77zm5.87 26.06l-.66 5.87c-1.96 9.78-8.48 16.3-18.25 18.9-5.87-5.86-9.13-12.38-9.13-19.55l.65-5.2c2.6-9.78 8.47-16.3 18.9-20.86 5.86 6.5 8.47 13.68 8.47 20.84z"/><path d="M345.5 431.55c-1.96-.66-3.27 0-3.27 1.95l-3.26 18.24c-.64 1.96 0 3.26 1.96 3.26l2.6-1.96 3.26-18.9c.65-1.3 0-2.6-1.3-2.6z"/><path fill="#858585" d="M288.8 460.2c4.57 7.18 9.13 12.4 16.3 14.35 6.5 3.26 13.68 2.6 21.5 0l8.47-5.22-2.6-9.77c-3.27-6.52-8.48-11.72-15-14.98-7.16-2.6-14.33-2.6-22.8 0l-9.77 5.2 3.9 10.43z"/><path d="M282.3 450.44l4.56 11.08c4.56 7.8 10.42 13.03 17.6 15.64 7.15 3.25 14.97 2.6 22.8 0 3.25-1.32 6.5-3.92 9.76-5.87l.65-1.97c-.65-3.9-1.3-7.8-3.25-11.07-3.9-7.82-8.48-13.03-16.3-16.3-7.16-2.6-14.98-2.6-23.45 0-5.86 1.97-9.77 3.92-11.07 5.22-1.3.66-1.3 1.96-1.3 3.26zm33.87-3.26c5.22 2.6 9.77 5.86 13.03 11.08 1.3 3.26 2.6 6.5 3.26 9.77-8.47 6.52-17.6 8.47-26.06 4.56-9.12-3.27-14.98-11.08-18.24-22.16 9.77-5.2 19.54-6.5 28-3.26z"/><path d="M335.72 466.73c-1.96 0-2.6 0-3.26 1.95 0 1.3 0 2.6 1.3 3.26L352 477.8c1.3 1.3 3.26 0 3.26-1.3.65-1.95 0-2.6-1.95-3.26l-17.58-6.5z"/><path fill="#858585" d="M329.85 342.94c-3.25 1.3-6.5 3.26-9.77 5.86-6.5 4.57-11.07 11.08-12.38 17.6-1.95 7.16-.65 14.33 3.26 21.5l5.86 7.82 9.78-3.92c6.5-4.56 10.42-9.77 12.37-16.94 1.3-7.16.66-14.98-3.25-22.15l-5.87-9.76z"/><path d="M340.93 375.52c2.6-7.82 1.3-15.64-2.6-23.46l-7.17-10.42-1.96-.65c-3.9 1.3-7.8 3.25-11.07 5.85-7.17 5.86-11.73 12.38-13.68 19.55-1.3 7.16-.66 14.98 3.25 22.15l7.17 9.1 2.6.67c2.6 0 5.87-1.95 10.43-5.2 6.52-4.57 11.73-10.43 13.03-17.6zm-3.9-7.17l-.66 5.2c-2.6 9.8-9.12 16.3-18.9 18.9-5.86-6.5-8.46-13.02-8.46-19.54l.66-5.85c1.95-8.48 8.47-15.64 19.54-20.85 5.22 7.17 7.82 14.33 7.82 22.15z"/><path d="M317.48 393.1c-1.3-.64-3.26 0-3.26 1.96l-2.6 13.03c0 1.94.65 3.25 2.6 3.25 1.3 0 2.6-.66 2.6-2.6l2.6-13.03c.66-1.3 0-2.6-1.94-2.6z"/><path fill="#858585" d="M330.5 300.6l-10.42-1.96c-8.47-.65-15.63 1.95-21.5 5.87-5.86 3.9-9.77 10.43-10.42 18.24v10.43l9.77 2.6c7.17.66 14.33-1.3 20.2-5.86 5.86-3.9 9.77-9.76 11.72-18.23l.66-11.08z"/><path d="M333.76 300.6l-1.95-2.6-11.72-2.62c-9.12 0-16.3 1.96-22.8 6.52-5.86 5.2-9.77 11.72-11.73 19.54l-.65 11.73 1.95 1.95 11.08 2.6c8.47 1.3 15.64-.64 22.15-5.2 5.86-4.56 10.43-11.08 12.38-19.55l1.3-12.38zm-33.22 5.85c7.16-5.86 16.94-6.5 27.36-3.9 0 11.07-3.9 20.2-11.08 25.4-8.46 5.87-16.94 7.17-26.7 2.62v-2.6c0-9.14 3.25-16.95 10.42-21.52z"/><path d="M289.46 334.47c1.3-1.3 1.3-1.96.65-3.9h-3.9l-10.42 8.46c-1.3 1.3-1.3 2.6-.65 3.9h3.9l10.43-8.46z"/><path fill="#858585" d="M348.75 260.2c-1.96-1.96-5.2-3.26-9.12-5.2l-22.15-1.32c-7.17 2.6-13.03 6.52-16.3 13.68-1.94 3.26-3.25 6.52-3.25 9.13l8.47 5.85c6.52 3.9 13.68 4.56 20.85 1.95 6.52-1.95 13.03-6.5 16.94-13.68l4.55-10.42z"/><path d="M305.1 285.6l22.8 1.3c11.73-3.9 19.55-12.37 23.46-25.4l-.66-3.26c-1.95-1.95-5.2-3.25-10.42-5.86l-23.45-1.3c-7.82 1.95-13.03 7.16-17.6 14.98-1.95 3.26-3.9 6.52-4.56 10.43l1.3 2.6c1.3 1.3 3.9 3.25 9.13 6.5zm-.65-19.54c3.25-4.56 8.46-7.8 13.68-9.77 9.12-3.27 18.24-1.3 28 5.2-3.9 11.08-10.4 17.6-19.53 20.85-9.12 2.6-16.94.65-26.06-6.5.65-3.27 1.95-6.53 3.9-9.8z"/><path d="M300.54 275.84c-1.3-1.3-2.6-1.96-3.26-1.3l-13.03 4.55c-1.95 0-1.95 1.95-1.95 3.25 1.3 1.96 2.6 1.96 3.9 1.96l12.38-5.2c1.96 0 1.96-1.3 1.96-3.26z"/><path fill="#858585" d="M229.52 279.1l-.65 11.72c.65 7.82 3.26 14.98 7.82 20.2 5.2 5.2 11.72 8.46 19.54 8.46l9.77-1.3 1.96-10.42c0-7.17-2.6-13.68-7.17-19.54-5.22-5.22-11.73-8.48-20.85-9.13h-10.43z"/><path d="M268.6 319.48l1.97-11.72c0-7.82-2.6-15.64-8.47-20.85-5.2-5.85-12.38-9.1-20.85-10.4h-12.38c-.65.63-1.95 1.3-2.6 2.6v11.72c0 9.12 3.25 16.3 9.12 22.15 5.2 5.2 12.36 8.47 20.18 9.12l11.73-1.3 1.3-1.32zm-3.9-3.25c-11.07 1.96-19.54 0-26.06-7.17-5.2-5.2-7.17-12.38-7.17-21.5v-5.86c11.08-.65 20.85 1.95 27.37 9.12 3.9 3.9 6.5 9.77 6.5 16.94l-.64 8.47z"/><path d="M264.7 316.88c-1.95.66-1.95 2.6 0 3.26l9.77 9.12c.66 1.3 1.96 1.3 3.26 0 1.3-1.3 1.3-2.6 0-3.26l-9.12-9.12c-1.94-1.3-3.25-1.3-3.9 0z"/><path fill="#858585" d="M277.08 273.23l4.56-8.47c1.96-7.82 1.96-14.98-1.95-21.5-3.92-6.5-9.13-11.08-16.95-14.33l-10.42-3.26-3.26 11.08c-2.6 7.8-1.3 14.98 1.95 21.5 3.26 6.5 8.47 11.07 16.3 13.68l9.76 1.3z"/><path d="M284.25 264.76c2.6-8.47 1.3-15.63-2.6-22.8-3.26-6.52-9.13-11.73-16.95-15l-12.37-3.24c-.66-.65-1.96 0-2.6.64-1.3 1.96-2.6 5.87-3.92 11.74-1.3 9.1-.64 16.93 3.27 23.45 3.26 6.5 9.12 11.72 16.94 14.98l11.08 1.3 1.96-.64 5.2-10.44zm-3.9-9.12c0 5.2-1.96 10.42-4.57 15.64-10.43-1.3-18.24-5.86-22.8-14.34-1.3-3.26-2.6-7.16-2.6-12.38 0-4.56 1.3-9.77 3.25-15.63l11.73 3.9c5.2 2.6 9.77 7.17 12.37 11.73 1.3 3.9 2.6 7.17 2.6 11.08z"/><path d="M279.04 272.58c-.65-1.96-1.3-2.6-3.26-1.3-1.3.65-1.96 1.95-.65 3.25l6.5 11.73c.67 1.96 1.97 1.96 3.27 1.3 1.96-1.3 1.96-1.95.65-3.9l-6.5-11.08z"/><path d="M298.58 80.39c-.65-1.98-1.95-2.62-3.9-1.32-1.3 0-1.3 1.3-.66 3.26l7.82 22.8c6.52 20.85 11.07 42.35 13.03 67.1 2.6 17.6 1.3 32.58-3.26 47.57-2.6 9.13-7.8 20.2-16.27 35.84-8.48 15.64-15 29.97-18.25 41.7-5.86 18.9-5.2 38.43 1.3 58.63 3.26 10.43 7.83 19.55 13.04 26.72.65 1.93 1.95 1.93 3.25.64 1.3-1.3 1.96-1.96.65-3.9-3.9-6.53-7.8-14.35-11.07-24.12-6.52-19.55-7.17-39.1-2.6-57.33 3.25-9.78 9.1-22.8 18.23-39.75 8.48-16.3 14.34-28.02 16.94-37.8 3.9-14.32 5.87-30.6 3.9-48.85-3.24-24.76-7.15-47.57-13.02-67.76l-9.12-23.45z"/><path fill="#D96038" d="M292.07 83.64c2.6 1.96 4.56 3.26 6.5 3.26l3.27-6.52c2.6-5.2 2.6-11.07.65-16.28-1.96-6.52-4.57-11.08-7.18-12.38l-7.16-.65c-3.26 1.3-5.87 3.25-6.52 5.2-1.3 2.6-.65 7.18.65 13.04 1.95 6.52 5.2 11.1 9.77 14.34z"/><path d="M287.5 48.46c-4.55 1.3-7.16 3.26-8.46 5.86-1.3 3.26-1.3 9.13 1.3 16.3 1.3 6.5 5.2 11.72 10.42 14.98l7.17 3.9 2.6-.65c6.52-7.17 7.17-16.28 3.92-26.06-1.96-6.52-4.57-11.73-7.17-13.7l-9.77-.64zm7.17 5.86c1.96.65 3.26 4.56 5.2 9.78l1.32 7.8c0 3.92-1.32 8.48-3.27 11.74-6.5-1.96-10.42-6.5-13.03-14.33-.65-3.9-1.3-6.5-1.3-9.1l.65-3.92c.65-.66 1.96-1.96 3.9-1.96 3.27-1.3 5.22-1.3 6.52 0zM319.43 97.97c-1.95-1.3-2.6-.65-3.26 1.96l-8.47 22.8c-.65 1.3-.65 2.6.66 3.26 1.95 0 3.25 0 3.9-1.3l8.47-23.47-1.3-3.26z"/><path fill="#D96038" d="M338.33 70.6l-5.87-4.55-7.82-.66c-2.6 1.3-5.2 5.2-7.8 11.73-2.62 5.2-2.62 11.07-1.32 16.29l2.6 6.5c8.48-1.3 14.34-6.5 18.25-15.63 1.96-5.88 3.26-10.43 1.96-13.7z"/><path d="M323.34 62.8c-3.26 1.95-5.86 6.5-9.12 13.02-2.6 6.52-3.26 12.38-1.3 18.24l3.9 7.82c0 1.3.66 1.3 1.96 1.3 9.12-1.95 15.64-7.8 19.55-17.6 2.6-6.5 3.9-11.7 2.6-14.97-.65-3.25-3.9-5.86-7.17-7.15l-10.42-.66zm2.6 4.55l5.22.65c3.26 1.3 5.2 3.26 5.2 5.87l-2.6 9.77c-3.25 7.17-7.8 11.73-13.68 13.68-1.95-3.9-2.6-7.16-2.6-10.42 0-2.6 0-5.87 1.95-9.13 1.96-5.2 3.9-8.46 6.5-10.42zM293.37 111.66l-3.9.65c-1.3 1.3-1.3 2.6.64 3.92l19.56 14.98h1.3l1.95-.65c1.32-1.3 1.32-2.6 0-3.9l-19.53-15z"/><path fill="#D96038" d="M291.42 113.6l-.66-7.15c-1.95-5.22-4.55-9.78-9.12-14.34-5.86-3.9-9.77-5.85-13.03-5.2-1.94 0-3.9.65-6.5 3.9-1.96 2.62-2.6 4.57-2.6 7.17.64 2.6 3.25 6.52 9.1 10.43 4.58 4.56 9.8 6.5 15.65 6.5l7.17-1.3z"/><path d="M294.02 114.26l-.65-8.46c-1.95-5.87-5.2-11.1-10.42-15.64-5.22-3.9-10.43-6.52-14.34-6.52-2.6 0-5.2 1.96-7.8 5.2-3.26 3.27-4.57 6.53-3.26 9.78.65 3.26 3.9 7.82 9.12 11.73 8.47 7.17 16.94 9.13 25.4 5.87l1.96-1.96zm-24.75-25.4c2.6 0 5.86 1.95 10.42 5.85 5.85 5.23 9.1 10.44 9.1 16.96-6.5 1.3-13.02 0-18.88-5.22-4.56-3.9-7.82-7.16-7.82-9.77l2.6-4.56c1.3-1.94 3.26-3.25 4.57-3.25zM296.63 152.7c-1.96-.65-2.6-.65-3.9 1.3-1.3 1.3-.66 1.96 1.3 3.26l22.14 11.08c1.3 1.3 1.96.65 3.26-1.3.65-1.3.65-1.96-1.3-3.26l-21.5-11.08z"/><path fill="#D96038" d="M295.32 155.3l-1.95-7.16c-2.6-5.2-6.52-9.12-11.73-12.38-6.5-3.25-10.42-4.56-13.68-3.25-2.6 0-3.9 1.96-5.86 5.22-1.3 2.6-1.3 5.2-.65 7.17.65 2.6 3.9 5.85 10.42 9.1l23.45 1.3z"/><path d="M297.93 154.66l-2.6-7.83c-2.6-5.86-7.17-10.42-13.03-13.68-5.87-3.25-11.08-3.9-14.34-3.9-3.26.65-5.86 3.25-7.8 6.5-1.97 3.92-1.97 7.18-1.32 10.43 1.3 3.26 5.2 6.52 11.73 9.78l26.06 1.3 1.3-2.6zm-29.32-20.2c2.62 0 6.53.65 11.74 3.26 7.17 3.9 11.08 9.1 11.73 15.63-5.22 2.6-11.73 1.96-19.55-1.3-5.86-3.26-9.12-6.5-9.12-9.77l1.3-3.26c1.3-2.6 2.6-4.56 3.9-4.56zM333.1 137.72c-1.94-1.3-3.25-1.3-3.9 0l-14.98 19.54c-.65 1.3-.65 3.26 0 4.56l3.9-1.3 15-19.55c.64-1.3.64-1.95 0-3.25z"/><path fill="#D96038" d="M358.52 116.87c0-1.96-1.95-3.9-4.56-6.52-2.6-1.95-5.2-3.26-7.17-2.6-3.26.65-6.52 3.9-10.43 8.47-3.9 5.2-5.86 10.42-5.86 16.3 0 3.24 0 5.2.66 7.15l7.17-.65c5.2-1.3 10.42-4.56 13.67-9.77 4.57-5.22 6.52-9.78 6.52-12.38z"/><path d="M328.55 140.97l1.96 1.3 9.13-1.3c5.86-1.3 10.42-5.2 14.98-9.77 3.92-5.86 6.53-11.07 6.53-14.33s-1.96-5.2-5.87-8.47c-3.25-2.6-6.5-3.26-9.12-3.26-3.25 1.3-7.8 4.56-12.38 9.77-3.9 5.22-5.86 11.1-6.5 17.6 0 3.26.64 5.87 1.3 8.47zm4.56-3.9v-3.92c0-5.2 1.32-10.42 5.23-14.98 3.9-4.56 6.5-7.17 8.46-7.82s3.25 0 5.86 1.96l2.6 4.57c0 2.6-1.3 6.5-5.2 11.07-3.92 5.2-9.78 8.47-16.95 9.12zM337.02 177.46l-3.26.65-16.94 16.95c-1.95 1.3-1.95 2.6 0 4.56l3.26-.64 16.94-17.6c1.3-1.3 1.3-3.25 0-3.9z"/><path fill="#D96038" d="M365.04 159.86c0-2.6-.65-4.55-3.26-7.16-2.6-1.95-5.2-3.26-6.52-3.26-3.26.65-7.16 2.6-11.72 7.82-4.57 4.56-7.17 9.77-7.82 14.98v7.17h7.16c5.87-.64 10.43-3.25 15-7.8 5.2-4.57 7.16-9.13 7.16-11.74z"/><path d="M367.64 160.52c.65-3.26-1.3-6.52-4.56-9.12-2.6-2.6-5.86-4.57-8.47-3.9-3.9 0-8.46 2.6-13.67 7.8-4.56 5.22-7.17 9.78-7.82 16.3v8.46l1.32 1.96h9.12c5.86-.65 11.07-3.9 16.28-8.47 5.22-5.2 7.82-9.77 7.82-13.03zm-22.8-1.96c3.9-3.9 7.17-5.86 10.42-6.5 1.3 0 2.6.64 4.57 3.25l2.6 3.9c0 2.62-2.6 5.88-6.52 11.1-5.85 5.2-11.7 7.8-18.23 6.5v-1.3c0-6.5 2.6-11.72 7.17-16.94zM331.8 220.46c-.64-1.3-1.95-1.96-3.9-1.3l-20.2 13.03c-1.95 1.3-2.6 1.94-1.3 3.9 1.3 1.3 1.96 1.3 3.9.65l20.86-13.03c1.95-1.3 1.95-2.6.65-3.26z"/><path fill="#D96038" d="M363.08 210.7c1.3-2.62 0-4.57-1.3-7.83-1.96-3.26-3.26-5.2-5.87-5.2-2.6-.66-7.15.64-13 3.9-5.88 3.25-9.14 7.8-11.74 13.02l-1.3 7.16 7.16 1.96c5.86 0 11.08-1.3 16.3-3.9 5.85-3.92 9.1-6.53 9.76-9.13z"/><path d="M364.4 201.56c-2.62-3.9-5.23-5.86-7.83-6.5-3.9-.66-9.12 1.3-15.64 4.55-5.2 3.92-9.77 8.48-11.73 14.34-1.3 2.6-1.95 5.22-1.95 7.82l1.3 1.96c1.3 1.3 3.9 1.95 7.82 2.6 6.5.65 12.38-.65 18.24-3.9 6.53-3.92 10.43-7.83 11.1-11.08.64-3.26.64-6.52-1.3-9.78zm-4.58 2.6l1.3 3.92c0 2.6-2.6 5.86-9.1 9.12-6.53 3.9-13.04 5.2-19.56 3.26 1.3-7.17 5.2-12.38 11.73-16.3 5.2-3.25 9.1-4.55 11.06-3.9l4.56 3.9zM298.58 206.13h-3.9c-.66 0-1.3 1.3 0 3.25l14.98 19.55h3.9c.66-1.3.66-1.96 0-3.26l-14.98-19.54z"/><path fill="#D96038" d="M296.63 207.43l1.3-6.52c-.65-5.85-2.6-11.06-6.5-16.27-3.92-5.22-7.83-7.82-11.1-8.48-1.94-.65-4.55.66-7.15 2.6-2.6 2.62-3.9 4.57-3.9 6.52-.67 2.6 1.94 7.17 5.85 12.38 6.5 7.17 13.03 11.08 21.5 9.78z"/><path d="M293.37 183.32c-4.56-5.86-8.47-9.1-12.38-9.77-2.6-.66-5.87 0-9.13 3.26-3.26 3.26-5.2 5.22-5.2 8.48-.66 3.25 1.94 8.47 6.5 14.33 7.17 7.83 15 11.74 24.1 11.1l1.3-1.97c3.27-9.12 1.97-17.6-5.2-25.4zm-16.3 13.03c-3.25-5.2-5.2-8.47-5.2-11.07 0-1.3.65-3.26 3.26-4.56 1.95-1.96 3.26-2.6 5.2-1.96 1.97 0 5.22 2.6 8.48 7.82 3.92 4.56 5.87 9.12 5.87 14.33v3.92c-6.5 0-13.03-2.6-17.6-8.47z"/><path fill="#858585" d="M236.7 559.9l-.66 11.07c12.38 3.9 22.8 2.6 31.92-5.2 5.86-3.92 9.12-10.43 10.43-18.26l-.67-9.76c-2.6-1.95-5.86-1.95-9.77-2.6-7.8-.66-14.98.65-20.2 5.86-5.2 4.56-9.12 11.08-11.07 18.9z"/><path d="M234.73 573.57l12.38 1.3c8.48.66 16.3-1.95 22.17-6.5 6.5-5.22 9.77-11.73 11.72-19.55.64-5.87.64-9.77-.66-11.73l-1.3-1.96-11.08-2.6c-8.47-1.32-15.63 1.3-22.15 6.5-5.85 4.57-9.76 11.08-11.72 19.56l-1.3 12.37c0 .65.65 1.95 1.95 2.6zm3.9-4.55c0-11.74 3.27-20.2 10.44-26.7 7.17-5.23 16.3-6.53 26.06-3.27l.65 3.9c0 9.13-3.26 15.64-9.77 20.85-7.16 5.87-16.28 7.82-27.36 5.22z"/><path d="M277.73 539.7h1.3l11.08-7.82c1.32-.66 1.32-2.6.66-3.9h-3.26l-11.07 7.8c-1.3.66-1.3 1.96-.65 3.27l1.95.65z"/><path fill="#858585" d="M279.04 580.1l-1.96 11.07 10.43 3.26c7.83.65 15.64 0 22.16-3.9 5.86-3.93 9.77-9.13 11.73-16.96l1.3-9.77c-2.62-1.95-5.87-3.26-9.13-3.9-7.82-1.3-15-.65-21.5 2.6-5.87 3.9-10.43 9.77-13.03 17.6z"/><path d="M313.57 557.28c-8.47-1.94-15.64-1.3-22.15 3.26-7.17 3.9-11.73 9.77-14.34 18.25-1.95 4.54-2.6 8.46-2.6 12.37l.65 1.95 12.38 3.25c9.13 1.32 16.3 0 23.46-3.25 6.52-4.56 10.43-10.43 13.03-18.24l1.3-11.73-1.3-1.95c-3.27-1.96-6.52-3.26-10.43-3.92zm-19.55 7.83c7.17-4.56 16.3-4.56 26.06 0 0 10.43-3.9 18.24-12.38 22.8l-28.66 1.96c1.95-11.72 6.5-20.2 14.98-24.75z"/><path d="M337.02 555.34c-.65-1.3-2.6-1.3-3.9-.66l-11.74 6.52c-1.3.65-1.95 1.95-.65 3.9.65.66 1.96 1.3 3.26.66l11.72-6.52c1.3-.64 1.95-1.96 1.3-3.9z"/><path fill="#858585" d="M325.94 486.93l-9.77-4.57-5.86 9.77c-3.25 7.17-3.9 14.34-2.6 21.5 2.6 7.17 6.52 12.4 13.7 16.3l9.1 3.9 6.52-7.8c3.26-7.18 3.9-14.35 2.6-20.87-2.6-7.16-6.5-13.03-13.68-18.23z"/><path d="M316.82 479.76l-2.6.65-6.52 10.43c-3.25 8.47-3.9 16.3-1.95 24.1 1.95 7.18 7.16 13.04 14.33 17.6l10.43 3.9 1.96-.64c1.96-1.32 4.56-3.92 7.17-9.13 3.9-7.17 4.56-15 2.6-22.8-2.6-7.17-7.16-13.68-14.98-18.25l-10.43-5.86zm20.2 25.4l.65 7.17c0 7.82-2.6 13.7-7.82 18.9-2.6-1.3-5.86-1.95-9.12-4.56-5.2-3.9-8.47-8.48-9.77-13.68l-1.3-6.53c0-7.17 1.95-13.68 7.16-20.85 10.43 3.9 16.94 11.08 20.2 19.54z"/><path d="M333.1 533.18c0-1.96-1.94-1.96-3.25-1.96-1.95.66-1.95 1.96-1.95 3.26l8.47 26.06c.65 1.96 1.3 2.6 3.26 1.96 1.3-.65 2.6-1.3 1.95-3.26l-8.47-26.06z"/><path fill="#858585" d="M260.14 480.4c-1.3 8.48-1.3 16.3 2.6 22.16 3.27 5.86 9.13 10.43 16.3 13.7l9.77 1.28 4.57-9.12c1.96-7.8 1.3-14.98-1.95-21.5-3.26-5.86-9.12-10.42-16.94-13.68l-10.43-3.26-3.9 10.43z"/><path d="M264.05 467.38c-1.3 0-1.95.65-2.6 1.95l-3.9 11.08c-1.97 9.13-.66 16.3 3.24 23.47 3.9 6.5 9.77 11.72 17.6 14.32l11.06 1.95c1.3 0 1.96-.65 1.96-.65l4.56-11.08c1.95-8.46 1.3-15.63-1.96-22.15-3.9-7.17-9.77-12.37-18.24-15.63l-11.73-3.26zm-1.95 21.5c0-5.86.65-11.07 3.26-15.64 11.72 1.96 19.54 7.17 23.45 15.63l3.27 11.1c0 5.2-1.3 9.76-3.9 14.97-11.1-1.3-18.9-5.2-22.8-13.68-2.62-3.9-3.27-7.82-3.27-12.38z"/><path d="M291.42 516.25c-.66-1.32-1.3-1.32-3.26-1.32-1.3 1.32-2.6 1.96-1.3 3.92l9.12 16.94c1.3 1.3 1.95 1.94 3.26.64 1.95-.65 1.95-1.96 1.3-3.9l-9.12-16.3z"/><path d="M191.08 495.4c-40.4-5.87-75.57-4.56-104.24 4.56-1.3 0-1.95 1.3-1.3 3.26 0 1.94 1.3 1.94 3.26 1.3 28-8.47 62.54-10.43 102.28-3.9 80.14 12.37 152.46 54.06 216.96 126.38h3.9c1.3-.65 1.3-1.96 0-3.25C346.8 550.77 272.53 507.12 191.1 495.4z"/><path fill="#D96038" d="M51 502.56c0 3.26.66 5.86 1.96 7.17 2.6 1.95 6.52 3.26 13.7 3.26 5.85 0 11.7-1.97 16.27-5.88l5.2-5.2-5.85-5.22c-3.9-3.26-9.77-4.57-15.63-4.57-7.17 0-11.08.66-13.7 3.26-1.94 1.3-1.94 3.25-1.94 7.16z"/><path d="M90.1 500.6l-5.86-5.86c-5.22-3.9-10.43-5.2-17.6-5.2s-12.37 1.3-14.98 3.25c-1.95 2.6-3.9 5.85-3.9 9.76s1.95 7.17 3.9 9.12c2.6 2.6 7.82 3.26 15 3.26S79 513 84.23 509.74l5.86-6.52v-2.6zm-34.53-3.9c1.95-1.3 5.2-1.96 11.07-2.6 8.47 0 13.7 2.6 18.25 7.8-4.57 5.22-11.1 7.83-18.26 7.83l-11.72-1.96c-.65-1.3-1.96-2.6-1.96-5.2v-.66c0-1.94 1.3-4.55 2.6-5.2zM112.9 482.36c-1.3 0-3.25 0-3.25 1.3-1.3 1.96-.66 2.6 1.3 3.27l22.8 9.77c1.3 1.3 2.6.65 3.26-.65.66-1.96 0-3.26-1.3-3.92l-22.8-9.77z"/><path fill="#D96038" d="M83.58 463.47c-2.6.66-4.56 3.26-5.86 6.52-1.3 2.6-1.96 5.2-.65 7.16 1.3 2.6 5.2 5.86 11.07 8.46l23.46-.65-1.96-7.16c-3.25-4.56-7.8-8.47-13.03-11.07-6.5-3.26-10.4-3.92-13.02-3.26z"/><path d="M75.77 468.03c-1.96 4.56-1.96 7.82-.66 10.42 1.32 3.9 5.23 6.52 11.74 9.13l26.06-.65c1.3-.66 1.96-1.3 1.3-2.6-1.3-8.48-6.5-15.65-16.28-20.2-6.52-2.6-11.73-3.92-15.64-2.6-2.6.64-5.2 2.6-6.5 6.5zm8.47-1.3c2.6-.66 5.86 0 11.07 2.6 6.53 2.6 11.1 7.17 13.04 13.7H88.8c-6.52-3.27-9.78-5.87-9.78-8.48l1.3-3.9c1.3-2.62 1.96-3.92 3.92-3.92zM159.8 479.1c-1.94-1.3-2.6-1.3-3.25.66-1.3.65-1.3 2.6 0 3.26l19.55 15.63 3.9-1.3c.66-.65.66-1.96-.65-3.26l-19.54-15z"/><path fill="#D96038" d="M135.7 453.7c-2.6 0-4.56 1.3-6.5 4.56-1.97 2.6-3.27 5.2-3.27 7.16 1.3 2.6 3.9 6.52 9.12 11.08 7.82 5.86 15.64 7.17 22.8 4.56v-7.16c-1.95-5.87-5.2-10.43-9.76-13.7-5.88-4.55-9.8-6.5-12.4-6.5z"/><path d="M159.8 473.24c-1.94-6.5-5.2-11.07-10.4-15.63-5.23-3.9-10.44-6.5-13.7-6.5-3.25 0-6.5 1.94-8.47 5.85-2.6 3.26-3.9 6.52-3.25 9.12.65 3.9 3.9 7.83 9.77 11.73 7.82 7.17 16.94 8.47 25.4 5.87l1.96-2.6-1.3-7.83zm-24.1-16.3c1.96 0 5.87 1.32 10.43 5.23 5.86 4.56 9.12 10.42 9.12 16.93-6.5 1.3-13.03 0-18.24-5.2-5.85-3.9-7.8-7.17-7.8-9.77 0-1.3 0-2.6 1.95-3.92 1.3-2.6 3.25-3.25 4.56-3.25zM202.16 479.76c-.65-1.96-1.96-2.6-3.26-1.3-1.95 1.3-1.95 1.95-1.3 3.9l12.38 20.86 3.9.64c1.96-.64 1.96-1.96 1.3-3.25l-13.02-20.84z"/><path fill="#D96038" d="M189.13 447.18c-1.96-.65-4.56 0-7.82 1.3-2.6 1.96-4.55 3.26-4.55 5.22-.65 3.26.65 7.82 3.9 13.68 3.27 5.86 7.18 9.12 12.4 11.72l7.15 1.3 1.96-6.5c.65-5.87-.65-11.08-3.26-16.94-3.9-5.86-6.5-9.12-9.77-9.78z"/><path d="M200.86 456.3c-3.9-6.5-7.17-10.42-10.43-11.72-3.26-.66-6.5-.66-9.77 1.95-3.9 1.96-6.52 4.57-6.52 7.17-.65 3.9.66 9.1 3.9 14.98 3.27 5.87 8.48 10.42 14.35 12.38l7.8 1.96 2.6-.66 1.97-8.46c.64-6.52-.66-12.38-3.9-17.6zm-12.38-6.5c1.95.64 5.2 3.9 7.82 8.46 2.6 4.56 3.25 8.47 3.25 12.38l-1.3 7.17c-6.5-1.3-11.73-5.2-14.98-11.73-2.6-4.55-3.9-7.8-3.9-9.77 0-2.6 1.3-4.55 3.9-5.86l5.2-.65zM245.8 490.2c0-1.33-1.3-1.97-3.25-.67-1.3.66-1.95 1.3-1.3 3.26l11.07 22.14c0 1.3 1.3 1.3 3.26 1.3 1.3-1.3 1.96-1.95.65-3.25l-10.42-22.8z"/><path fill="#D96038" d="M236.04 456.95l-7.82.66c-2.6 1.3-5.2 2.6-5.2 5.2-1.32 3.27 0 7.18 2.6 13.7 2.6 5.86 6.5 9.77 11.07 12.37l6.5 2.6 2.6-7.15c1.96-5.22.66-11.08-1.3-16.94-3.25-5.86-5.86-9.77-8.46-10.43z"/><path d="M226.92 455c-3.9 1.96-5.86 4.56-7.17 7.82-.65 3.25 0 7.82 3.26 14.34 3.27 6.5 7.18 11.07 13.04 13.68 2.6 1.95 5.2 2.6 7.17 3.25 1.3 0 1.96-.66 2.6-1.3 5.22-7.18 5.22-16.3.66-26.07-3.26-6.52-5.86-10.43-9.77-12.38l-9.78.65zm1.3 20.85c-1.96-4.56-3.26-7.82-3.26-10.43 0-1.95 1.3-3.9 4.56-5.2l5.87-.66c1.94.65 3.9 3.9 6.5 9.77l2.6 10.43-1.95 9.12c-6.5-2.6-11.72-6.52-14.33-13.03zM122.68 494.1c-.66-1.3-1.96-1.3-3.26 0l-17.6 17.58c-.64 1.3-.64 2.6 0 3.9l3.92-.64 16.94-17.6c1.95-.64 1.95-1.95 0-3.25z"/><path fill="#D96038" d="M79.02 541c1.96 1.95 4.57 3.25 6.52 3.25 3.26-.64 6.5-3.25 11.07-8.46 4.57-4.58 6.53-9.78 7.83-15v-7.16H96.6c-5.2 1.3-10.4 3.9-14.32 8.47-5.2 4.57-7.17 9.12-7.17 11.73 0 1.96.67 4.56 3.92 7.17z"/><path d="M106.4 513l-1.97-1.97-7.8.65c-6.53.65-11.74 3.26-16.3 8.47-5.22 5.2-7.82 9.78-7.82 13.03 0 3.26 1.3 6.52 4.57 9.13 3.26 3.26 6.52 4.56 9.12 3.9 3.9 0 7.8-3.25 12.37-8.46 4.56-4.56 7.82-10.43 8.47-16.3l-.65-8.45zm-4.57 3.25v1.94c0 6.5-1.96 11.08-6.52 16.28-4.55 4.57-7.8 6.52-9.76 6.52l-5.2-1.95c-1.97-2.6-3.27-3.9-3.27-4.57 0-2.6 2.6-6.5 6.52-11.07 5.2-5.2 11.7-7.15 18.23-7.15zM172.84 494.1l-3.9-.66-20.2 14.98c-.66 0-1.3 1.3-.66 3.26 1.96 1.3 3.26 1.3 3.9.65l20.2-14.98c1.3-.65 1.3-1.96.66-3.26z"/><path fill="#D96038" d="M121.37 532.53c1.3 2.6 3.26 3.9 5.86 3.9 3.26.66 7.17-1.3 13.03-5.2 4.57-3.27 7.82-8.47 9.78-14.34l.65-7.17-7.18-.65c-5.86 0-11.07 1.95-15.63 5.86-5.88 3.25-8.48 7.17-9.8 9.77 0 2.62.67 4.58 3.27 7.83z"/><path d="M125.93 513c-5.86 3.9-9.12 7.8-9.77 11.7-1.3 2.62 0 5.87 2.6 9.78 2.6 3.26 5.87 4.57 8.47 5.22 3.9 0 8.48-1.96 14.34-6.52 5.86-3.9 9.12-9.12 10.42-15l1.3-8.45-1.96-1.96-7.82-1.3c-6.5 0-12.38 1.95-17.6 6.52zm-3.25 18.22l-1.3-4.55c0-1.96 2.6-5.87 7.8-10.42 5.22-3.92 12.4-5.87 18.9-4.57-.65 7.17-3.9 13.03-9.77 17.6-4.55 3.26-8.46 5.2-10.4 5.2-1.97 0-3.27-1.3-5.22-3.26zM215.2 499.96h-4.57l-19.55 14.33c-1.3.64-1.3 1.95-.65 3.9 1.3 1.3 2.6 1.3 3.26 0l20.2-14.34c1.3-.64 1.94-1.96 1.3-3.9z"/><path fill="#D96038" d="M163.07 539.05c1.3 1.95 3.9 3.26 5.86 3.9 3.26 0 7.82-1.95 12.38-5.2 5.22-3.92 9.13-8.47 10.44-14.34l1.3-7.15-7.17-1.32c-5.86 0-11.73 1.96-16.3 5.87-5.2 3.9-8.46 7.16-9.1 10.42 0 1.96.64 4.57 2.6 7.83z"/><path d="M193.7 513.64l-8.48-.65c-5.86 0-11.73 1.94-17.6 5.2-5.85 4.56-9.1 8.47-9.76 12.38-.66 2.6 0 5.86 3.25 9.12 1.97 3.9 5.23 5.87 8.48 5.87s7.82-1.96 13.68-6.52c5.87-3.26 9.13-8.48 11.08-14.34l1.3-8.45-1.95-2.6zm-22.8 9.12c6.5-4.57 12.36-5.86 18.88-4.57 0 6.5-3.26 11.73-9.12 16.94-5.2 3.9-9.12 5.86-11.08 5.2l-4.56-3.25c-1.3-1.3-1.95-2.62-1.95-4.57 0-2.6 1.95-5.86 7.82-9.77zM247.76 509.08l-3.9-.66-18.25 16.3c-1.94 1.3-1.94 2.6-.64 3.9l3.9.66 18.25-16.3c1.97-1.3 1.97-2.6.66-3.9z"/><path fill="#D96038" d="M199.55 552.08l6.52 3.26c3.26 0 7.17-1.96 12.38-6.52 4.56-4.57 7.16-9.12 7.8-14.34l.67-7.8h-7.17c-5.86 0-11.08 2.6-15.64 6.5-4.55 4.56-7.15 9.13-7.8 11.73 0 2.6.65 4.57 3.25 7.18z"/><path d="M227.57 524.7l-7.82-.64c-6.5.65-12.38 2.6-16.94 7.16-5.85 5.22-9.1 9.78-9.1 13.03 0 3.26.64 6.52 3.25 9.78 3.26 3.25 6.5 4.56 9.12 4.56 3.9-.66 7.82-3.26 13.68-7.83 5.2-4.56 8.47-9.77 9.77-16.3v-7.8l-1.95-1.96zm-3.26 4.58h.66c0 6.5-2.6 13.03-8.47 17.58-4.57 3.9-7.83 5.87-10.43 5.87-1.3.65-2.6-.65-5.2-2.6-1.32-1.3-1.97-2.62-1.97-4.57 0-2.6 1.96-5.86 7.17-9.77 5.2-5.23 11.08-7.18 18.24-6.52z"/><path fill="#F00" d="M249.72 210.7c9.12-54.74 13.03-103.6 14.33-145.3l-114-.65c0 39.1-5.22 84.7-14.34 138.12-18.9 105.54-50.16 193.5-94.46 263.86l129 3.26c36.48-63.2 63.2-149.86 79.48-259.3z"/><path d="M264.05 62.14l-114-.65c-1.97 0-3.27 1.3-3.27 3.25-.65 40.4-5.86 86-15.64 139.42-18.24 104.24-49.5 191.55-93.16 259.96v3.25l3.26 2.6 129 3.26 3.25-1.3c36.48-63.2 62.54-149.2 79.48-259.3C261.45 157.92 266 108.4 267.3 65.4l-1.3-2.6c-.64 0-.64-.66-1.95-.66zM153.3 68l107.5.65c-1.96 51.47-7.82 103.6-16.3 157.68-16.93 100.98-42.34 181.76-76.22 240.4l-121.83-3.26c40.4-65.8 70.36-147.9 89.26-245.62C145.5 164.43 151.35 114.9 153.3 68z"/><path stroke-miterlimit="100" d="M364.58 579.58H7.42V7.42h357.16v572.16z" fill="none" stroke="#000" stroke-width="14.84"/></svg>