<svg xmlns="http://www.w3.org/2000/svg" height="100%" viewBox="0 0 372 587"><path fill="#fffaf0" d="M0 0h372v587H0z"/><path fill="#D96038" d="M261.46 22.86c6.64-7.3 7.98-13.96 5.98-20.6H6.86l-2 209.4 30.58.65c21.28-1.3 36.56-5.97 43.2-13.95 6.66-8.64 9.98-17.94 8.65-29.25l-4-13.95 29.92-1.33c20.6-3.33 34.56-11.97 39.88-25.92 6-13.97 6.65-26.6 2.66-39.23l-7.3-14.62 15.94-5.32c9.3-5.98 11.3-15.96 6.65-29.9h27.92l40.55-3.34c8.64-2.67 15.95-6.66 21.94-12.64z"/><path d="M240.2 38.82c5.97-2 11.95-4.66 17.27-7.98 4.65-4 8.64-7.98 11.3-12.63 3.32-5.97 3.32-11.96 2-17.28-.67-1.33-2-2-3.33-2H6.86c-2.66 0-3.32.67-3.32 3.33l-2 209.4c0 2 .67 3.32 2.66 3.32 10.64.67 21.27 1.33 32.57.67 21.94-2 36.57-6.65 44.54-15.3 6.66-7.97 9.98-16.6 9.98-26.58 0-5.32-1.33-9.97-2.66-15.3l34.57-3.3c16.6-4.67 27.9-13.3 32.56-25.94 4-8.64 6-16.62 6-25.26 0-9.97-2.67-19.27-8-27.92 8.65-1.32 15.3-5.32 19.3-10.63 2.65-3.98 3.98-7.97 3.98-13.3l-2-9.96 65.15-3.32zM265.44 6.9c0 3.33-.67 6-2.66 8.65-2 3.32-5.33 6.65-10 9.97-3.97 3.33-9.3 5.32-13.94 6.65l-39.9 3.32h-27.9c-1.34 0-2 0-2.67.65l-.68 3.33c3.33 9.3 3.33 16.62 0 21.94-3.98 5.98-10.63 8.63-19.27 9.3-2 0-2.66.67-3.33 1.33-.66 2 0 3.33.67 4l6.64 14.6c4 11.32 3.32 23.28-2.66 36.58-5.32 11.96-17.95 19.94-37.9 23.26L83.3 151.8c-1.33-.66-2 0-3.32.67v3.3l4 13.97c1.32 10.64-2 18.6-8 25.92C66.7 207 44.1 211 8.2 208.32l2-202.75h254.6l.67 1.32z"/><path d="M40.1 142.5l-2 .68-9.97 7.3c-7.97 5.33-15.95 8-22.6 6.66-2 0-2.66 1.33-2.66 2 0 1.32.67 2.65 2 2.65 11.96 0 23.93-4.66 35.23-14.63 15.3 9.3 29.9 11.96 43.2 9.3 2 0 2-.66 2-2.65-.67-1.34-2-1.34-2.66-1.34l-12.63.67c-10.63-1.33-19.93-4.65-29.9-10.64zM152.44 84.02c-1.33 0-2 1.33-2 2-.66 7.3-2 14.62-6.64 21.26-8.65 13.3-23.27 19.95-43.88 21.94-18.6 1.33-31.24-1.32-37.9-7.97-3.3-4-4.64-9.3-3.3-15.96 0-3.33 2.65-6.66 5.97-8-6-.66-9.3 2-9.98 8-1.33 7.3 0 13.3 4 18.6 7.3 7.98 21.26 11.3 41.2 9.3 21.94-1.32 38.56-9.97 47.2-24.6 4.65-7.96 7.3-14.6 7.3-22.6l-1.98-1.98z"/><path d="M81.97 94l-10.63-2.67c-3.33.67-5.98 2-6.65 5.98 2-1.32 3.98-1.98 6.64-1.98l8.64 2c2 .66 4 2 4.65 4 .67 2.64-.66 4.63-2.66 7.3-4 2-6.64 2-9.3 0-.67-1.34-2-1.34-2.66 0-1.32.66-1.32 2 0 2.66l6 2.65 7.3-2c4.65-2.65 6.65-6.64 4.65-11.3-.66-3.32-2.65-5.3-5.98-6.64zM57.38 109.94l-2.66-.66c-4.65 4.65-9.97 7.97-15.95 9.3-11.97 3.33-22.6.67-31.9-7.97-1.34-1.32-2-1.32-2.67 0-1.33.68-1.33 1.34 0 2 10.63 10.63 22.6 13.3 35.9 9.3l17.28-9.3c1.33-.66 1.33-2 0-2.66zM113.22 8.24c-1.33-.67-1.33 0-1.33 1.32l-5.33 22.6c-4.65 15.3-11.96 27.26-21.93 35.24C79.97 70.72 74 74.05 68 75.38c6.66 2 13.3 0 18.63-4.66 11.3-8.64 18.6-21.27 24.6-37.23 2-7.98 3.98-15.96 3.98-23.27l-1.98-2zM8.2 60.08c-.67.67-.67 2 0 2.67 7.97 11.3 19.27 17.94 33.23 19.27 7.3 1.33 13.96 0 19.28-4.65L42.1 78.7c-13.3-2-23.28-7.98-30.6-17.95l-3.3-.67zM76.66 44.8c-.67 2.66-3.32 4.65-6.65 6.65L58.7 54.1c-9.3-.66-15.28-4.65-17.27-11.96-2.66-6.65-1.33-14.63 4.65-22.6l8.64-9.98c.67-.66 1.33-2 .67-3.32-1.34-.66-2-.66-3.34 0-2.66 2.66-6.64 6-9.97 11.97-5.33 8.65-7.32 17.3-5.33 25.26C40.1 52.1 47.4 57.43 58.7 57.43c4.66.67 9.32 0 13.3-2.66 4.66-2.66 6.65-5.32 8.65-8.64 1.33-4 1.33-7.3-.67-10.64-1.33-2.67-3.32-4.66-6.64-6l-9.97-.66c-4 .67-6.65 3.33-8.65 6.65-.66 1.32 0 2.65.67 3.32 1.32.66 2.65 0 2.65-1.34 3.32-5.3 7.3-7.3 13.96-4.65 2 1.33 3.33 2.66 4.66 4.65 1.33 2 1.33 4.66 0 7.32z"/><path d="M86.63 65.4v10.64c1.33 7.98 5.98 12.63 14.62 15.96 7.98 3.32 15.3 2 21.94-4 3.3-2.65 5.3-5.97 6.64-10.63 2-4.65 2-7.98.66-11.96-.66-2.65-2.66-4.65-5.32-6.64l-8.64-1.33c-3.32.67-6.64 2-8.64 5.32-2.66 2.66-3.33 6.64-2.66 11.3l2 2 1.32-2c0-3.33 1.33-6.65 2.66-8.64 2-2.65 4-3.32 6-3.98l5.97.66 3.3 4.65c1.34 2.66 1.34 6 0 9.3l-6.63 9.32c-4.66 4.65-10.64 5.32-17.95 3.32-6.65-3.32-9.97-7.3-11.97-13.3V67.4c.67-2 0-2.66-1.33-3.33-.66 0-2 0-2 1.34z"/><path d="M130.5 65.4c-.66-1.32-2-1.32-2.66-1.32-1.33 1.33-1.33 2-1.33 3.32 4.66 7.3 11.98 9.97 21.95 7.98 1.33 0 2 0 1.33-2 0-1.33-.67-1.33-2-1.33-8.64 1.33-14.62-1.33-17.28-6.64zM144.46 50.1c-1.33-1.3-2-2.64-1.33-4.64 0-2.66 2.66-3.32 7.98-3.32-6.64-2.66-11.3-2-11.96 2.66-.66 3.32 0 5.98 2 7.97 2.66 3.33 6.64 4.66 11.3 4.66l2-2-2-2.66c-3.32 1.33-5.98 0-7.98-2.66zM170.4 40.14c1.98 0 1.98-.66 1.98-1.32.67-2 0-2.67-1.33-2.67-5.32-.66-9.97.67-14.62 4h13.96zM56.72 169.1c2.65 4.66 2.65 9.3.66 12.64-2 3.32-5.98 5.3-12.63 5.3l-39.9 2c-1.3 0-2.64 1.34-2.64 2.67l2.66 2 39.9-2.65c7.3 0 13.28-2.67 15.95-7.32 2.66-5.32 2.66-10.64-.66-16.62-1.33-3.3-5.32-5.3-11.3-5.3-6.65 0-11.97 2.66-13.3 7.3-.66 3.33 0 6 2 9.3 1.33.68 1.33.68 2.66 0 1.32-1.32 1.32-2 0-3.3-1.33-1.34-2-3.33-1.33-4 1.33-3.32 4.65-5.32 9.97-5.32 4.65 0 6.65 1.33 7.98 3.32z"/><path fill="#D96038" d="M312.64 58.76c-4 7.3-4 13.96 2 19.94 4.65 6.65 16.6 9.97 33.23 9.97l23.93-1.33V3.58h-90.4c-.67 3.32-.67 6.65-.67 10.64.67 7.98 4 15.3 9.98 21.27 5.32 5.3 11.97 9.3 19.95 11.3l9.97 2-7.98 9.96z"/><path d="M373.8.92l-2-.66h-90.4c-2 0-3.32 1.33-3.32 2.66l-.67 7.3c0 11.32 3.33 19.95 10.65 27.27 7.3 7.96 16.62 11.95 25.92 13.28-4.65 4.66-6.65 9.97-7.3 15.95v2c0 4.65 1.98 8.64 5.3 12.63 9.3 10.64 29.26 13.96 59.83 9.3 2 0 3.33-1.32 3.33-3.32V3.58L373.8.92zm-89.74 9.98v-4h84.42v77.12l-27.25 1.33c-12.63-1.33-20.6-4-23.94-7.98-2.66-3.32-4-6.65-4-8.64V67.4c.67-4 2-7.98 5.32-11.3l4-4.65 1.32-2.66v-1.34c-.66-1.34-2-2-3.32-2l-9.3-2C304 41.48 298 37.48 292.7 32.83c-5.98-5.98-8.64-13.3-8.64-21.93z"/><path d="M342.56 57.43c2 3.32.66 7.3-3.33 10.64-2 2.65-4.65 3.98-8.64 1.98-2.67-1.32-3.33-2.65-3.33-4.64 1.33-2.65 2.66-3.32 5.32-2.65l2.64-2-1.33-2-5.97.67c-2.66 1.33-4 2.66-4.65 4.66-1.33 4.65 1.33 7.97 5.32 9.97 5.3 1.33 9.97.67 13.96-3.33 4.65-4.65 5.98-9.97 3.32-15.29-2-5.98-10.64-8.64-25.26-8.64-1.33 0-2 .66-2 2 0 1.3.67 1.98 2 1.98 13.3 0 20.6 2 21.94 6.65z"/><path fill="#FCCE00" d="M176.37 278.12l-36.56-1.33-23.26 6.64L306 479.54c14.62-3.32 23.93-7.32 29.24-12.63 6.65-6.63 11.3-17.94 13.96-35.22 3.33-15.96-3.98-35.23-20.6-57.17-13.96-18.6-27.26-30.56-39.22-34.56-13.3-4.65-50.52-25.25-113-61.82zM226.23 451.62c-2 4.65-2.66 9.3-2 14.63l14.63 9.3c9.97 7.3 15.95 11.97 18.6 15.3l10.64 15.28 7.32 13.96-4 5.3c-3.32 4-5.3 7.32-5.3 9.98l7.97 2 13.95 1.32c4.65-10.63 7.3-19.94 6.64-28.58-.67-10.64-4-23.26-9.98-37.23-9.3-19.28-19.94-29.92-32.57-31.9-13.3-2-21.27 1.3-25.92 10.62z"/><path d="M228.88 442.3c-5.98 4.67-7.97 12.64-7.97 21.95v2l1.34 2.65c18.6 11.3 29.24 19.94 32.57 23.93 8 10.64 13.97 19.28 16.63 26.6-5.32 5.97-7.98 11.3-8.64 14.62v1.33c0 1.33.65 2 1.98 2.66 9.3 3.98 17.28 5.32 23.93 3.32l2-1.32c5.32-11.3 7.98-21.28 7.32-29.92 0-11.3-4-24.6-10.64-39.22-9.3-19.94-21.27-30.58-35.23-33.24-9.97-1.33-17.28-.66-23.27 4.65zm4.66 4.67c4.65-3.32 10.63-4 17.94-2.66 11.97 2 21.94 11.97 30.58 29.92 5.32 13.3 8.64 25.26 9.3 35.9v2c0 4.65-1.98 12.62-5.97 23.26l-14.64-2.66 7.3-10.64.68-2-.67-1.32-7.3-14.62-11.3-15.3c-2.67-3.98-13.3-12.62-31.92-24.6 0-7.97 1.33-13.28 6-17.27z"/><path fill="#FCCE00" d="M133.16 464.92c-3.32-8.65-6.64-14.62-9.97-18.62l8.63-27.26-15.95-15.95-27.26 9.97c-6.64 1.33-8.64 6.64-5.3 15.95 1.32 4.66 9.96 16.62 25.25 33.23l-.67 4.66c0 3.34.67 6 2 8.65 9.97-3.32 17.94-6.65 23.26-10.63z"/><path d="M118.54 401.1l-4-.66-26.58 9.3c-3.33.67-6 2-7.98 4.66-.66 2-1.33 4.64-1.33 7.3l1.33 8c1.33 4.64 9.97 15.94 25.26 33.22l-.66 4.66c0 3.98.66 7.3 3.32 9.97.66 1.32 2 2 3.32 1.32 10.64-3.32 18.62-7.3 23.93-11.3l1.33-2.65v-1.33c-3.32-7.32-5.98-13.3-9.3-17.3l7.97-26.6v-.65l-.66-2.66-15.96-15.3zm1.33 44.53v.67l1.32 2.66c2.66 3.32 5.32 7.98 7.3 13.96-3.98 3.33-9.96 5.98-16.6 7.98l-.68-3.32.67-4.66v-.67l-.68-2.65c-15.28-16.62-23.26-27.26-24.6-31.9l-1.32-6 .66-3.98c.67-.66 2-1.33 2.66-1.33 6.65-.68 15.3-4 26.6-9.3l13.3 12.62-8.65 25.9z"/><path fill="#FCCE00" d="M74 256.85c-5.32 5.32-9.3 11.3-11.97 18.6-3.32 6.66-3.32 12.64-2.66 17.3.67 5.32 4 9.96 9.3 11.96 1.34 11.98 6 24.6 12.64 37.9 2 19.28 8.65 37.23 19.3 53.85 5.97 8.64 11.3 15.3 15.94 19.94l-15.3 13.95-7.96 9.98c-4 5.3-6.65 8.63-6.65 11.3l-6.65 33.23c-1.33 5.98-2 11.97-2.66 18.62l23.93-4.66c2-2.66 2-5.98.67-10.64l-2.66-7.3c2-2 4-8 5.32-17.3l.66-11.96c9.3-2.66 19.28-8.64 31.25-17.94 19.93 15.95 43.2 25.92 69.12 29.9l43.2 4c6 1.32 11.97 5.98 19.28 15.3 4.66 6.63 8.65 12.6 10.64 17.93 2 4.66 9.3 12.65 21.27 24.6-2.65 5.33-5.3 11.3-7.3 19.95l25.26 1.33-1.33-19.94c-1.33-9.3-4-16.62-7.3-21.28-1.34-2.65-2-7.97-.68-15.28l3.33-10.64c8.64-17.3 13.96-31.24 16.62-41.88 2-10.63 1.33-23.93-1.33-38.56-2.66-15.95-14.63-29.9-35.23-42.54-6-3.32-21.94-10.64-47.87-21.93l-35.23-19.28c-14.62-9.3-27.92-15.96-39.2-19.28l-35.25-9.3-24.6-5.32c-6.65-2-14.63-6.65-23.93-13.96L74 256.84z"/><path d="M56.05 293.4c.67 6 4 9.98 9.3 13.3 1.34 7.32 4 15.3 7.32 23.94l5.98 12.63c1.33 16.62 6.65 33.23 14.63 47.86 5.3 9.97 11.96 17.94 18.6 24.6l-13.3 12.62-3.3 4c-7.32 7.97-11.3 13.95-11.97 18.6l-6.64 33.24c-1.33 5.98-2 11.96-2.66 18.6v.67l1.33 2c0 .66 1.33 1.33 2.66 1.33l23.92-4.66 2-1.33 2-7.3-2.67-12.63c2.66-5.32 4.65-14.63 5.3-27.25 8-2.66 17.96-7.32 27.94-15.3 17.27 12.64 35.88 21.28 56.5 26.6l43.2 5.32 11.96.66c4.65 1.32 10.64 5.3 17.28 13.3 4.66 6.64 8.65 12.63 9.98 17.94 2.65 4.66 9.3 12.63 20.6 24.6l-4.65 11.3-2 6.64v.66c0 1.34.67 2 2 3.33l17.95 2 9.3-.66 2.66-4-1.32-19.26-1.33-9.97c-1.34-5.32-3.33-9.97-6.65-13.3-.67-1.33-1.33-4.66 0-9.97l3.32-12.63c8.64-17.95 13.96-31.9 16.62-43.2 2-11.3 1.33-23.94-1.33-39.23-2.67-15.3-13.3-28.58-31.25-40.55-9.97-6.66-24.6-14.63-45.2-22.6l-8.65-3.34c-7.97-3.32-17.95-8.64-29.24-15.95-17.95-11.95-33.24-19.27-45.2-23.26-11.97-3.98-25.93-7.97-42.55-10.63l-17.94-3.98c-5.98-1.33-13.96-6.65-22.6-13.3l-11.3-9.96c-2-2-3.32-2-5.32 0-4.65 4.64-7.97 9.97-11.3 16.6-3.32 6-4.65 11.98-4.65 17.3l.65 4.65zm5.98-1.98v-2.66c0-8.64 4.66-17.95 11.97-27.25 12.63 12.64 24.6 19.95 34.56 23.27l19.28 4c15.3 2.65 29.25 5.97 41.22 10.62 11.96 3.32 25.92 10.63 43.2 21.93l30.59 16.62 8.64 3.32c19.93 7.98 33.9 15.3 43.2 21.27 17.28 10.64 26.58 23.94 29.24 37.23l2 22.6c0 7.98-.67 16.62-4 24.6l-13.3 31.9c-2.64 6.65-3.97 13.3-3.97 19.28 0 4 .66 7.3 2.65 9.3 2 4 4.66 9.98 6 19.95l.65 15.96-17.28-.67 5.97-15.3.67-2-1.33-1.98c-11.3-11.3-17.94-19.28-19.93-23.94l-10.64-18.6c-7.98-9.98-15.3-15.3-22.6-16.63l-12.63-.66-41.88-5.33c-20.6-5.32-38.56-13.96-55.18-26.6l-3.98-.65c-11.97 9.3-21.94 15.28-30.58 17.94-1.33 0-2.66.67-2.66 2.66-.67 14.63-2.66 24.6-5.32 27.92l-.66 1.33.66 2 2.66 10.64-.67 2.66-17.3 3.32 8.65-47.2c0-2.65 3.33-7.97 9.97-15.95l4-4 14.62-13.95 1.33-2-1.33-3.3c-4.65-4-9.97-9.98-15.3-18.62-10.63-16.62-16.6-33.9-18.6-52.52v-1.33C77.98 328 73.33 316 72 304.06l-2-2c-3.98-2-6.64-5.3-7.97-10.63z"/><path d="M129.84 424.37l-4 .66c-1.32 1.33-1.32 2.66.67 3.98l8.65 7.33 4-.67c.66-1.32.66-2.65-.67-3.32l-8.64-7.97zM248.16 444.3c.67-3.98 2.66-6.64 4.66-9.96l3.98-3.32c2-.67 2-2 1.33-4-2-.66-2.66-1.33-4-.66l-4.64 4.66c-3.33 3.32-5.33 7.97-6.66 11.96-1.33 6.65-.66 13.3 2.66 19.94l6.65 9.3 4-.66c1.32-1.32 1.32-2-.68-3.98l-4.65-6.65c-3.32-5.32-4.65-11.3-2.66-16.62zM68.02 302.7c-2 .68-2.66 1.35-2 3.34.67 1.34 2 2 3.33 1.34 5.98-1.34 9.3-8 12.63-19.3 1.33-7.3 1.33-14.6-.67-21.26-1.32-5.3-2.65-8.64-3.3-9.3-1.34-2-2-2-3.34-.67-2 .67-2.66 1.33-1.33 3.33l3.33 7.97c1.33 6.65 1.33 12.64 0 18.62-2.66 8.63-5.32 13.96-8.64 15.94z"/><path d="M81.3 282.1h-2.65c-1.33 1.34-1.33 2-.66 2.67l6.63 6.65c5.32 5.3 10.64 8.64 15.3 9.97 1.32.65 2 0 2.65-1.34.67-.67 0-2-1.33-2l-13.96-9.3-6-6.65zM76.66 296.07l-2-.66c-1.32 1.34-2 2-1.32 2.67l5.3 8.64 11.3 12.63 3.34-.66-.67-2.66L82 303.4l-5.32-7.3zM152.44 306.04l-19.28-2.66c-2 0-2.66 1.33-2.66 3.33.67 1.34 1.33 2.66 2.66 2l17.95 2c11.3 3.32 19.95 11.96 24.6 23.93 0 2 2 2 3.33 2 2-.68 2-2.66 1.33-4-4.66-13.3-14.63-22.6-27.92-26.6z"/><path d="M163.07 320c.67-2.65 0-4-.66-5.98-.66-1.34-2.65-2.66-4.65-3.32l-5.3.66c-1.34 1.32-3.34 2.66-3.34 5.32l.68 4.65c1.33 2 2.66 3.32 4.65 3.32l5.32-.66 3.32-4zM129.84 313.35c0-1.33-1.33-2-2.66-2-2 0-2 1.33-2 2.67l6 13.96c6.63 9.3 17.27 15.96 31.9 20.6l3.32-2c1.33-1.98 0-3.3-1.33-3.3-13.96-3.34-23.27-9.98-29.9-17.3-3.34-5.3-5.33-9.3-5.33-12.63zM83.3 340.6l-3.32-.66c-1.33 1.33-1.33 2.66-.66 4 2.65 3.98 7.3 9.97 14.62 15.95 11.3 9.96 23.27 14.6 35.23 14.6l2-.65.66-2c0-2-1.33-2.66-3.32-2.66-9.97.66-20.6-4.66-31.9-13.3l-13.3-15.3z"/><path fill="#FFF" d="M116.54 369.86l11.97 2-5.3-20.6c-4.66-13.3-7.32-18.63-8.65-17.96-4.66 2.65-6 9.3-6 19.27l2.67 15.3 5.32 2z"/><path d="M115.88 330.64h-3.33c-7.3 4.65-8.64 17.28-3.98 37.9l1.33 1.32 5.98 3.32 13.3 1.33c.66 0 2-.65 2-1.32l.65-2c-7.3-25.26-11.96-38.55-15.95-40.54zm-2.66 35.9l-1.33-16.63c0-5.96.65-9.96 2.65-12.6 2.66 5.3 6.64 15.94 10.63 31.9l-11.96-2.67zM101.92 480.2c-.67-1.33-2-2.65-3.33-1.33l-12.64 3.32h-5.98c-1.33 0-2 .66-2 2.66 0 1.33.67 2.66 2 2.66l6.65-.66 13.3-3.33c2-.66 2.65-1.33 2-3.32zM301.34 523.42c-2-1.34-2.66 0-4 1.32 0 2 0 2.66 1.34 3.33l5.32 1.33 12.63.66c2-.66 2.66-1.33 2.66-3.32-.68-2-1.34-2.66-3.33-2.66h-10.64l-4-.66zM169.72 275.46c0-2-.66-2-2-2l-22.6 6.66-10.63 4.65c-1.34.66-1.34 2-.67 3.32.66.66 1.32.66 2.66.66 0-.67 3.3-2 9.96-4.65 7.97-2.65 15.28-5.3 21.93-5.98l1.32-2.66zM173.7 288.76l-10.63 3.32c-.66.66-.66 1.33-.66 2.66 0 2 1.34 2 2.67 1.33l9.97-3.33 19.28-1.98 2-2-2-2-20.6 2zM201.63 300.06c-5.98.67-9.97 1.33-11.96 2.65-.67.68-1.34.68-.67 2 0 2 .67 2 2 2l11.3-3.32c8.63-1.33 15.95-1.33 22.6 0l2.65-2c0-1.32-1.32-2-2-2-6.64-1.3-14.62-1.3-23.92.68zM224.23 312.7l-15.3.65c-1.32 0-1.98.67-1.98 2s.66 2 2 1.33h13.95l22.6.67 2.66-1.34c0-1.3 0-2.65-2-2.65l-21.93-.66zM251.48 329.3H236.2c-1.33 0-2 .67-2 2l2 2h15.28l25.27 1.33 2-1.33c.66-1.33 0-2-.67-2l-26.6-2zM284.72 345.26l-9.97 1.33c-1.33 0-2 0-1.33 2 0 1.32.67 1.32 2 1.32l9.3-.67 19.28 2c1.33.66 2 0 2-1.33.66-.67 0-2-.67-2.66l-20.6-2zM296.02 357.23c-.66 0-1.33 0-2 2 0 .66.67 2 1.34 2l11.96 2.65c7.32 2 13.3 3.98 16.62 5.98 1.33.67 2 .67 2.66 0 1.33-1.33.66-2-.66-3.33-4-2-9.97-4-17.3-6.64l-12.62-2.67zM319.3 377.84c-.67-.67-2 0-2.67 1.32-.66.67 0 2 1.33 2l7.3 4.65 13.3 9.98c.67.67 2 .67 3.33 0 .66-1.33.66-2.66 0-3.32-3.33-3.33-8-6.65-13.97-9.98l-8.64-4.64zM328.6 402.43c-.67-1.33-1.33-.66-2.66.67-.67.66 0 2 1.33 2.65 10.63 6.65 16.6 11.97 18.6 15.96l3.33.67.67-2.66-11.3-10.63-9.97-6.64zM330.6 423.7l-2.67.67c-.66 1.32-.66 2 .67 2.66l5.98 5.3c4 4 7.3 8.66 9.3 13.3.67.67 1.34 1.34 2 .67 2 0 2-1.33 1.33-2.65-1.98-4-5.3-9.3-9.3-13.96l-7.3-6zM330.6 441.65c0-2-1.34-2-2.67-1.33-1.33.67-2 2-.66 2.66 4.65 10.64 7.3 17.95 7.3 20.6 0 2 .67 2.66 1.34 2.66l2.67-2c0-2.65-1.33-7.3-3.33-13.28l-4.65-9.3zM204.3 323.32l-2.67.67c-.67.66-.67 1.98 0 2.65l5.98 4.65 11.3 6.65c.68 1.32 2 1.32 2.67-.66l-1.33-2.67-10.63-6.65-5.3-4.66zM202.96 337.95l-2.66.66c-.66 1.34-.66 1.34.66 2.67 6.65 5.32 11.3 8.65 13.96 8.65.67 0 1.34 0 2-2l-1.33-2c-2.67 0-6.66-2.65-12.64-7.97zM198.3 350.58c-1.32-.66-2.65 0-2.65.67 0 2 0 2.66.66 2.66 2 0 4.66 2 8.65 6l2.66-.68c1.34-.66 1.34-2 0-2.66-4.64-4-7.3-5.98-9.3-5.98zM191.66 363.2c-1.33-.66-2.66-.66-2.66.68-.67 1.32 0 2.65.67 2.65l8.64 4c.67 0 2 0 2.66-.67l-1.32-3.33-7.98-3.32zM238.86 343.27c-.67-.67-2-.67-2.66.67-.67 1.32-.67 2.65 1.33 2.65l6.64 3.98c4.66 2.66 7.98 4 11.3 5.3 1.33.68 2.66 0 2.66-1.3.67-1.34 0-2-1.33-2.67l-11.3-5.3-6.64-3.33zM239.52 357.23h-2c-1.32 1.32-1.32 2 0 2.66l5.32 3.98 6.65 3.98 2.65-1.33-1.33-2.65-11.3-6.65zM232.87 368.53c-.66-.66-1.33 0-2 1.33-1.32.67-.65 2 1.34 2.65l9.98 6h2.66c.66-1.33.66-2 0-2.66l-7.32-5.3-4.65-2zM230.88 379.83c-1.33-.67-2-.67-2.66.67-1.33 1.32-.67 2.65.67 2.65l5.97 4c1.33.66 2.65.66 2.65-.68.67-.66.67-2-.66-2.65l-5.98-4zM275.42 360.56c-.67-.67-1.33 0-2 .66-.66 2 0 2.66 1.33 2.66 7.3 2.65 12.63 6.65 15.3 10.63l2.65.67c1.33-.66 2-1.32.67-2.66-3.33-5.3-9.3-9.3-17.95-11.94zM275.42 373.18c-2 0-2.66 0-3.33 1.33 0 1.34 0 2 1.32 2 5.32 2 9.3 4.66 12.63 7.98 1.33 1.33 2 1.33 2.66 0 .68-1.33.68-2 0-3.32-3.3-3.32-7.97-6-13.28-7.98zM270.76 385.8h-3.32c-1.33.68-.66 1.34.66 2.67l3.33 2.66 7.3 4.65c1.34.67 2.67.67 2.67-1.33l-.67-2.66c-2.65-1.33-5.3-2-7.3-4l-2.67-2zM264.1 397.78c-1.3 0-1.98 0-2.64 1.32-.67 1.34-.67 2 .66 2.66l8.64 4c1.33.66 2 0 2-1.33l-.67-2-8-4.65zM308 384.48c-.68-.66-2-.66-2.67 0-.67 1.33-.67 2 0 3.33l4 5.32 7.96 9.97c0 1.32 1.32 2 2 .66 1.98 0 1.98-.67 1.32-2.66l-7.98-11.3-4.65-5.32zM302 403.1c-1.32 0-2.65 0-3.32.66-.66 1.33 0 2 .67 2.66l3.32 2.65 5.98 5.33c0 1.32.67 2 2.66.66.68-.66.68-2 .68-2.66l-6.65-6.65-3.32-2.65zM295.36 416.4c-.67 0-1.33 0-2.66.66 0 1.98 0 2.65 1.33 2.65l7.98 4.67c1.34 0 2.66 0 2.66-1.33.67-.67.67-2-.66-2.66l-8.64-4zM354.52 297.4c-20.6-27.92-45.2-49.2-72.45-65.15-27.26-15.28-57.84-26.6-91.08-33.23l-41.88-5.32c-1.34 0-2.66 1.33-2.66 2.65 0 2 1.32 2.67 2.66 2.67l40.55 5.32c32.57 5.98 62.48 17.28 89.74 32.57 26.6 14.63 50.53 36.57 71.13 63.16 9.97 13.96 16.62 26.6 21.27 37.23 1.33 1.97 2 2.64 4 1.3 1.32-.65 2.65-1.98 1.32-3.3-5.3-11.3-11.96-23.94-22.6-37.9z"/><path fill="#D96038" d="M115.88 200.35c.66 4 2 6.65 3.32 7.3l13.96 1.34c5.98-.67 11.3-2.67 15.95-6.66l4-5.98-5.32-4.65c-5.3-3.32-10.63-3.98-16.62-3.32-7.3.67-11.3 2-13.3 4.65-1.98 2-2.65 4-1.98 7.32z"/><path d="M117.2 209c2.67 2.65 7.98 3.3 15.96 2.65 7.32-.66 12.63-3.32 17.95-7.3l4.66-6.66v-2.67c-1.33-2.66-3.32-3.98-6.64-5.98-6-3.33-11.3-4-18.62-3.33-7.3 1.33-11.96 2.66-15.3 5.33-1.98 2.65-1.98 5.3-1.98 9.3 0 4.65 2 7.3 4 8.64zm1.34-10.65c0-3.98 3.98-6.64 12.62-7.3 7.32-.67 13.96.66 18.62 5.97-2.66 5.32-8.64 8.64-16.62 9.97l-12.63-2-2-4.65v-2zM176.37 182.4l-4 .66c-.66 2-.66 2.66.68 4L193 202.33l3.3-.66c1.34-.67 1.34-2 0-3.33l-19.93-15.95z"/><path fill="#D96038" d="M152.44 156.47c-2.66 0-4.66 1.34-6.65 4-2.67 3.32-3.33 5.3-3.33 7.97.66 2.66 3.32 6.65 9.3 10.64 4.66 3.98 9.97 5.98 15.96 5.98h7.3l-.66-7.98c-2-5.3-4.65-9.97-9.3-14.62-5.98-4-9.97-6.65-12.63-6z"/><path d="M166.4 160.46c-5.32-4.65-10.64-6.64-13.96-6.64s-6.65 1.33-9.3 5.3c-2.67 3.34-4 6.66-3.33 9.32 1.34 4 4.66 7.97 9.98 13.3 5.32 3.98 11.3 6.64 17.95 6.64l7.97-1.33 2-2c1.33-9.3-2.66-17.27-11.3-24.6zm-20.6 6.65c0-1.98 0-3.3 1.98-4.64 1.33-2 3.33-3.33 4.66-3.33 2.66 0 5.98 2 10.63 6 6 3.97 8.65 9.96 9.3 17.27-6.64 1.33-13.28-.66-19.27-5.32-4.65-4.65-7.3-7.98-7.3-9.97zM218.9 187.72l-3.3-.67c-1.34 1.33-1.34 2.66 0 4l19.93 25.92h4c1.32-1.33 1.32-2.66 0-3.33l-20.62-25.92z"/><path fill="#D96038" d="M200.96 157.14c-2 0-4.65 0-7.3 2.65-2.67 2-4.66 4-4.66 6.64 0 2.66 2 7.32 6.65 12.63 3.32 4.66 8.64 7.98 13.96 9.3l7.98.68.67-7.3c0-5.34-2.66-11.32-5.98-15.97-4.66-5.32-7.98-8.64-11.3-8.64z"/><path d="M201.63 154.48c-2.66-.66-5.98.67-9.3 3.33-4 2.66-6 6-6 8.64 0 4 2.67 8.65 6.66 13.97 4.64 5.32 9.3 9.3 15.94 11.3h8.64l2-1.32c2.66-8.64 1.33-17.95-5.32-26.6-4.65-5.3-8.64-8.63-12.63-9.3zm-5.98 7.3l5.3-2c2 .68 4.67 2.68 8.66 7.33 4 5.33 6 10.65 6 15.3l-.68 4.65c-6.64 0-12.63-3.32-17.28-9.97-3.32-4.65-5.32-7.98-5.32-9.97s.67-3.3 3.33-5.3zM273.42 232.25c2-.66 2-2 1.33-3.98l-12.63-21.94c0-1.33-1.33-2-3.32-1.33-1.33.66-2 2-.67 4l11.3 22.6c1.33 1.32 2.66 2 4 .65z"/><path fill="#D96038" d="M262.12 200.35c1.33-5.32 0-11.3-2.66-16.62-3.32-6.65-6.64-9.97-9.3-11.3-2-.66-4.66 0-7.98 1.33-2.66 2-4.66 3.32-4.66 5.98-1.32 2.66.67 7.3 3.33 13.96 4.65 8.64 11.3 13.3 19.28 13.97l2-7.32z"/><path d="M262.12 182.4c-3.32-6.65-6.65-10.64-10.64-11.97-2.65-1.33-5.98-.66-9.97 1.33-3.98 2-5.97 4.65-6.63 7.3-.67 4 .66 9.32 4 15.97 2.64 6 7.3 9.97 13.28 13.3l7.3 2 2.67-1.34c5.32-7.98 4.66-17.3 0-26.6zm-19.28 9.97c-2-4.65-3.32-8.64-3.32-10.63 0-2 1.33-3.33 4.65-5.33l5.32-1.3c2.65 1.3 4.64 3.98 7.97 9.96l2.66 11.96-1.33 7.98c-6.65-1.33-11.97-5.98-15.96-12.63zM203.63 202.34c-.67-1.32-2-2-4-.66L177.7 212.3c-2 1.34-2 2.67-1.33 4 1.33 1.33 2 2 3.32.67l22.6-10.64c2-1.33 2.65-2 1.32-4z"/><path fill="#D96038" d="M143.13 223.6c-.66 1.35-.66 4.67 1.33 7.33 1.33 3.32 3.32 5.3 5.32 5.98 2.66 1.34 7.3 0 13.3-3.3 5.98-2.67 9.97-6.66 12.62-11.98l3.33-6.65-7.32-2.66c-5.97-.65-11.95-.65-17.27 2.67-5.98 2.66-9.97 5.32-11.3 8.64z"/><path d="M141.14 221.62c-1.33 3.33-1.33 6.65.66 10.64 1.33 3.32 4 5.98 7.3 6.64l15.97-2.66c9.3-4.65 14.62-11.3 16.62-21.27l-2-2.66-7.32-2.65c-6.64-1.32-12.63-.66-19.27 2-6.64 3.32-10.63 6.65-11.96 9.97zm4.65 4c0-2.68 3.3-5.33 9.96-8.65l19.94-.67c-2 7.3-6.64 11.97-13.3 15.3l-11.3 2.65-4.64-4-.67-4.64zM244.84 214.97l-3.33-1.33-22.6 11.3c-1.98 1.33-2.65 2-1.32 3.33.67 2 1.33 2.66 3.33 2l22.6-11.3c2-.67 2-2 1.34-4z"/><path fill="#D96038" d="M185 235.58c-1.32 2.66-.66 4.65.68 7.98.66 3.32 2.65 4.65 5.3 5.3l13.97-2.65c5.32-2.64 9.97-6.64 12.63-11.28l2-7.3-7.3-2.67c-5.33-1.34-10.65 0-16.63 2-6.65 3.3-9.97 5.97-10.64 8.63z"/><path d="M221.57 224.94l-8.64-2.66c-5.98-1.32-11.97-.66-17.95 2.66-6.65 2.67-10.63 6-12.63 9.98-1.33 2.66-.66 5.98.67 9.97 2 3.97 4.65 6.63 7.3 6.63 4 1.33 8.65 0 15.3-3.32 9.97-3.98 15.95-11.3 16.62-19.93l-.67-3.33zm-35.23 13.3c0-2.66 3.33-6 9.97-8.65l19.95-.67c-.66 6.65-5.32 11.3-13.3 14.63l-11.3 3.32-3.98-4.65-1.33-4zM283.4 233.6c-.67-2-1.33-2-3.33-2l-24.6 7.96c-1.33.67-1.33 2-1.33 3.33l3.33 2 23.93-8c1.33 0 2.66-1.98 2-3.3z"/><path fill="#D96038" d="M220.9 244.9c-1.32 1.98-1.32 4.63 0 8.63.67 3.32 2 4.65 4 5.98l13.96-1.32c6.64-1.33 10.63-4.65 14.62-9.3l3.32-6.66-5.98-3.98h-17.95c-6.64 2-10.63 3.98-11.96 6.65z"/><path d="M259.46 242.9l-.66-2.67c-2-2-4.66-3.32-7.32-4l-19.27-.65c-6.64 2.66-11.3 4.65-13.3 7.98-1.98 2.65-2.64 5.98-.65 9.97.66 4.65 3.32 7.3 5.98 8.64l15.3-.67c10.63-3.32 17.28-9.97 19.93-18.6zm-25.26-2c7.3-2.66 13.96-2 19.28 2.66-2.66 5.98-7.98 9.97-15.3 11.96l-11.95 1.33c-1.33 0-2-2-3.33-4.65l-.66-3.33c0-3.32 4-5.3 11.96-7.97z"/><path fill="#858585" d="M286.05 288.1c7.98-.67 13.3-4.66 18.6-10.64l5.33-9.3-7.97-6.66c-5.98-4.65-13.3-6.64-19.94-5.98-7.3 1.33-13.96 4.65-19.94 11.3l-6.65 9.3 9.3 7.32c7.32 4 13.97 5.98 21.28 4.66z"/><path d="M311.98 266.82l-7.98-8.64c-7.3-4.65-14.62-6.65-22.6-5.32-7.98 1.33-15.3 5.32-20.6 11.97l-7.98 9.97c0 1.32 0 2 .66 3.32l9.3 7.3c7.98 4.67 15.96 6.66 23.94 5.34 7.98-.67 14.62-4.66 19.94-11.3l5.32-10.65v-1.98zm-4.66 2c-4.65 9.97-11.3 15.95-21.27 16.6-9.97 2-18.6-1.98-27.25-9.96 6.64-10.63 14.62-15.95 23.26-17.28 9.98-1.33 18.62 2 25.26 10.63z"/><path d="M325.94 265.5c-.67-2-1.33-2-3.33-2l-13.28 2-1.33 1.32-.68 2c.67 1.33 1.33 2.66 3.33 2l13.3-2.67 2-2.66z"/><path fill="#858585" d="M292.04 304.7l6.64 8.66c6.65 6.64 13.3 9.97 20.6 10.64 7.32.66 13.97-1.34 19.95-6.65l7.3-7.32-5.3-9.3c-5.32-5.98-11.97-9.3-19.28-9.97-7.32-.67-14.63 1.98-21.27 6.65-4 2.66-6.65 5.3-8.64 7.3z"/><path d="M299.35 294.74c-4.66 3.33-7.98 6-9.3 8.64-.67.67-.67 1.33-.67 2.66l7.97 9.97c6.65 6.66 13.96 9.98 21.27 10.65 8.65.67 15.96-2 22.6-6.65l7.32-9.3.66-2-6.64-9.3c-5.32-6.66-11.97-10.64-20.6-11.3-7.32-.67-15.3 2-22.6 6.64zm-4 9.97c8.65-7.96 17.3-11.96 26.6-11.3 5.98.68 11.3 3.34 15.95 7.33l5.98 8.63c-5.98 8.65-14.62 12.63-24.6 11.97-9.3-1.33-17.27-6.64-23.92-16.62z"/><path d="M347.2 306.7c-1.98 0-2.65.68-3.32 2.66 0 2 1.34 3.32 2.67 3.32l13.95.67c1.33 0 2.67-1.33 2.67-3.32 0-1.33-1.34-2.65-2.67-2.65l-13.3-.67z"/><path fill="#858585" d="M331.92 336.62l2.66 11.3c2.66 8.64 7.3 14.62 13.96 18.6 5.98 3.34 13.3 4.67 20.6 3.34 4-1.33 7.32-2.66 9.98-4l-1.33-10.63c-2-7.97-6-13.3-12.64-17.28-5.98-4-13.3-4.65-21.94-4l-11.3 2.67z"/><path d="M380.44 353.9c-2-7.98-6.64-13.96-13.3-17.95-7.3-4.65-15.28-5.98-23.92-4.65l-11.97 3.33c-.66 0-2 1.32-2 2.66l2.67 12.6c3.32 8 7.98 13.98 15.3 18.63 6.63 4.65 13.95 5.32 22.6 3.98l10.63-4.64 1.33-2-1.33-11.95zm-16.6-13.96c7.97 5.32 12.62 13.3 12.62 23.94-9.3 5.3-17.95 5.3-27.26 0-8.64-5.32-13.3-13.96-13.96-25.27 10.64-4.64 19.95-3.97 28.6 1.34z"/><path d="M380.44 363.2c-2-.66-2.65 0-3.32.68-1.33 2-.66 3.32.67 4l11.95 6.63c1.33 1.34 2.66.67 4-1.32.66-1.33 0-2.65-2-3.32l-11.3-6.65zM188.33 504.8c0-1.32-2-2-3.32-1.32-1.98 0-1.98 1.32-1.98 3.32l21.27 42.54c20.6 30.58 47.85 53.18 80.42 67.14 1.33.66 3.33 0 3.33-1.33.66-2 .66-2.66-1.33-4-31.9-13.28-57.84-34.55-77.78-64.46l-20.6-41.9z"/><path fill="#D96038" d="M179.03 492.83c-3.33 1.34-5.32 3.33-5.98 5.32-.67 2.66 0 7.3 2.65 13.96 3.33 5.33 6.65 9.98 11.97 12.64l7.3 2 2.67-6.65c.67-6 0-11.3-2.66-16.62-2.66-6.65-5.98-10.64-8.64-11.3l-7.3.65z"/><path d="M187 489.5l-9.3.68c-3.33 2-5.98 3.32-6.65 6.65-2 3.98-.66 9.3 2.66 16.62 4.66 9.97 11.3 15.28 20.62 16.6l2.66-1.32 2.66-7.97c1.32-6.65.66-12.64-2-18.62-3.32-7.3-6.65-11.96-10.63-12.63zm-7.3 6l5.98-1.33c2 1.32 4 4.64 6.64 9.97 2 3.32 3.33 6.64 3.33 10.63l-2.66 9.3c-6.66-2-11.3-6.64-14.64-13.28-2-4-2.66-7.33-2.66-10.65v-1.34c.67-1.3 2-2.64 4-3.3zM192.32 547.35c-2-.67-3.32 0-3.32 2-.67 1.32-.67 2.64.67 3.3l23.93 9.3 3.98-1.97-2-3.33-23.26-9.3z"/><path fill="#D96038" d="M161.08 530.07c-2 .66-4 2.65-5.32 5.97-.66 3.33-1.33 5.98 0 7.98 1.33 2.67 5.32 6 11.3 7.98l17.28 1.33c3.33-.67 4.66-1.33 6.65-3.32l-2.67-6.64c-2.65-4.66-7.3-8.64-13.3-11.3-5.97-2-10.63-3.33-13.95-2z"/><path d="M153.1 535.38c-1.33 3.32-1.33 6.64 0 9.97 2 3.32 6 6.64 12.63 8.64l19.28 2 7.32-4 1.33-2c-1.33-9.3-7.97-15.95-17.95-19.93-6.64-3.33-11.3-3.33-15.28-2.67-2.66 1.33-5.32 3.33-7.32 7.98zm15.3 13.96c-7.32-2.65-10.65-5.98-10.65-8.64l.67-4c.67-2 2-3.3 4-3.98 1.98-.67 5.97-.67 11.95 2 7.32 2.66 11.3 7.97 13.96 13.95l-19.94.67z"/><path fill="#858585" d="M244.17 510.12l-9.97 5.3c-6.65 5.34-11.3 11.98-12.63 18.63-2 7.97 0 14.62 4 21.27l6.64 7.98c3.33-.67 6.66-2.66 9.98-4.66 6.64-4.65 9.97-9.97 11.96-17.94 1.33-6.65.67-13.96-3.32-21.94l-6.65-8.64z"/><path d="M245.5 507.46l-2.66-.66-10.63 6.65c-6.64 5.3-11.3 12.62-13.3 19.94-1.32 8.62 0 15.94 4 23.25 3.33 4.65 5.98 7.3 7.98 8.64l2 .66c3.98-.67 7.3-2.66 11.3-5.32 6.64-4.65 11.3-10.63 12.63-18.62 2-7.97.67-15.95-3.98-23.93l-7.32-10.64zm-21.27 32.58v-4.66c2-9.98 7.98-17.3 18.6-21.93 6 6.64 9.32 13.95 9.32 21.93l-.67 5.32c-1.32 5.98-3.98 10.63-9.3 14.62-2.66 2-5.98 4-9.3 4.66-6-4.66-8.65-11.3-8.65-19.94z"/><path d="M232.87 560.64c-1.33 0-2.65.66-3.32 2.66l-2 13.3c0 1.98.67 2.65 2 2.65l3.32-2 2.66-13.3c0-2-.66-3.3-2.66-3.3zM363.17 223.6c-25.93-13.95-49.2-35.22-70.47-63.14-14.62-21.93-31.9-39.88-50.52-56.5l-23.27-18.6c-1.98-.67-3.3 0-3.98 1.3-.66 2-.66 2.67.67 4l23.26 17.96c18.6 15.28 35.23 33.9 49.85 54.5 21.95 29.25 45.88 51.2 71.8 65.8 13.3 7.32 25.27 11.3 35.24 13.3 2 0 2.65-.66 2.65-2 .66-1.98 0-3.3-2-3.3-9.3-1.34-19.94-5.33-33.23-13.3z"/><path fill="#D96038" d="M191.66 72.05c-2 3.33-2.66 5.32-2 7.98 1.33 2.66 4.66 5.98 9.98 9.3 8.64 6 16.62 6 24.6 2.67l-2-7.3c-2.66-6-6.65-9.98-11.3-12.65-6-3.98-10.64-5.32-13.3-4.65-2.66 0-4.65 2-5.98 4.65z"/><path d="M196.98 64.08c-2.66.66-5.32 3.32-7.98 6.64-2 3.33-2.66 6.65-2 9.3 1.33 4 4.66 7.32 11.3 11.98 9.98 5.3 17.96 6.64 26.6 2l1.33-2c0-9.97-4.66-16.62-13.96-22.6-6.65-4-11.3-5.33-15.3-5.33zm-3.33 9.97c1.33-2.66 2.66-4 4.65-4.66 2 0 6 1.32 10.64 4.65 6.65 3.32 10.64 8.64 11.97 15.95-5.98 2.66-12.62 2-19.27-2.66-5.98-3.32-9.3-6.64-9.3-8.64v-.66l1.32-4zM228.22 113.26c-2-.66-2.66.67-2.66 2 0 2 0 3.33 2.66 3.33l24.6 1.98c2 0 2.65-.67 2.65-2 .67-2.66 0-3.32-2-3.32l-25.25-2z"/><path fill="#D96038" d="M193.65 105.3c-1.33.65-2.66 3.3-3.32 6.64-.66 3.32 0 5.98 2 7.3 2 2.67 6.64 4.66 13.3 4.66 6.63 1.33 11.95 0 16.6-3.32l6-4.66-4.66-5.3c-4.66-4.67-9.3-6.66-15.96-7.33l-13.95 2z"/><path d="M187.67 111.94c0 3.98.66 7.3 2.66 9.97 2.66 2.67 7.98 4 15.3 5.33 10.63.66 19.27-2 24.6-9.98l.65-2.65-5.32-6c-4.65-4.64-10.64-7.3-17.28-7.96l-15.96 2c-2.65 1.32-4 4.64-4.65 9.3zm5.32 0c0-2.66 1.32-4 2.65-4.66l11.96-1.33c8 1.33 13.97 4 17.3 9.3-5.32 5.33-11.97 6.66-19.28 6.66-7.98-1.32-12.63-3.32-12.63-7.97v-2zM282.06 146.5c0-1.32-.66-2.65-2.65-2.65l-34.56.66c-2.66 0-2.66.68-2.66 2.67 0 1.33.67 2.65 2.66 2.65l34.57-.66c2 0 2.66-.66 2.66-2.66z"/><path fill="#D96038" d="M208.94 139.85c-1.33 1.34-2 4-2.66 7.32 0 3.32 1.33 5.3 2.66 7.3 2.66 2 6.65 2.67 13.96 3.34 5.98 0 11.97-2 16.62-5.3l5.32-5.33-5.32-5.32c-4.65-3.32-9.97-5.32-16.62-5.32s-11.3.67-13.96 3.32z"/><path d="M207.6 156.47c3.33 2 8 4 15.3 4 11.3 0 19.28-4 23.93-11.97v-2.66c-4.65-7.98-12.63-11.97-23.93-11.97-7.3 0-11.97 1.33-15.3 3.33-1.98 2-3.3 5.3-3.3 9.97 0 4.65 1.32 7.3 3.3 9.3zm4-14.62c1.33-2 5.98-2.66 11.3-2.66 8.64 0 14.63 2.65 18.6 7.97-3.97 5.32-9.96 7.98-18.6 7.98l-11.97-2.66c-1.32-.68-2-2.68-2-5.33.68-3.33 1.34-4.66 2.67-5.32zM284.06 175.1c-2-.67-2.66 0-3.33 1.98 0 1.33.67 2.66 2 3.33l24.6 4.66c1.32 0 3.32 0 3.32-2s-.66-2.65-2-2.65l-24.6-5.3z"/><path fill="#D96038" d="M283.4 177.08l-4-5.98c-3.98-4.66-8.64-7.3-14.62-9.3-6.65-1.34-11.96-1.34-13.96 0-2 1.32-3.32 3.32-4.65 7.3-.67 3.33-.67 6 1.33 7.98 1.33 2 5.32 4 11.96 5.32l17.95-.66 6-4.66z"/><path d="M285.4 176.4l-4-7.3c-4-4.64-9.3-7.3-15.95-9.3-7.32-1.33-12.63-1.33-15.96 0-3.33 2-4.66 4-6 8.64-1.32 4-.65 7.3 1.34 9.97 2.66 3.34 7.3 5.33 13.96 6.66 10.64 2.66 19.94.66 26.6-6v-2.65zm-33.25-11.94l11.96.66c7.33 1.32 11.98 5.3 15.97 11.96-5.32 3.33-11.97 4.66-19.28 3.33-8.65-2-11.97-4.65-11.97-7.97v-3.33c.66-2 2-3.98 3.32-4.64zM258.8 125.23c1.33 0 2-1.33 2-3.32l-6-24.6c0-1.98-1.98-1.98-3.32-1.98-2 .66-2.65 2-2 3.32l6 24.6c0 2 1.33 2 3.32 2z"/><path fill="#D96038" d="M256.14 92c2.66-5.33 2.66-11.3 2-17.3-2-6.63-4-10.63-6-12.62l-7.97-1.33c-3.32 1.33-5.98 2.66-6.64 4.66-2 2.67-2 7.3 0 13.96 1.33 6 4 11.3 7.98 14.63l6.65 3.98 4-5.98z"/><path d="M234.87 64.08c-2 3.32-2 8.64 0 15.28 1.33 6.65 4 12.64 9.3 16.62l7.32 4.66 2.64-.67c6.65-6.65 8.65-15.28 6.65-25.92-2-6.65-4.66-11.97-7.32-14.63l-9.97-.66c-4.64.66-7.3 2-8.63 5.32zm4 6.64c0-2 .65-4.65 1.98-5.3l4-1.35h5.97c1.33 1.34 3.32 5.32 4.65 11.3v5.32c0 5.97-.66 9.96-4 13.96-5.97-2.67-9.96-8-11.95-15.96l-.66-7.98zM285.4 119.25c-2-.66-3.34 0-3.34 2l-5.3 24.6c-.68 2 .65 2.65 1.98 3.3l3.32-1.98 5.32-25.26c0-1.32-.66-2.65-2-2.65z"/><path fill="#D96038" d="M299.35 88.67c-.67-1.33-3.33-3.32-6.65-3.98l-7.98.65c-2.66 2-4 6.65-5.98 13.3-1.33 5.98-.66 11.96 2 16.6l3.98 6.66 5.98-3.98c4.66-4 7.32-8.64 8.65-15.3 2-6.64 2-10.62 0-13.95z"/><path d="M301.34 87.34c-2-2.65-4-4-8.64-5.32l-9.97 2c-2.66 2-4.66 6.64-6.65 13.96-1.33 6.65-.66 12.63 2 18.6l3.98 7.32h3.33c8.63-2.65 13.95-9.97 16.6-19.94 2-7.98 1.34-13.3-.66-16.62zm-9.3 0c2.65.67 3.98 1.33 4.65 2.66l1.32 4.66-1.33 7.3c-1.34 7.98-5.33 13.3-11.3 16.63-3.34-4-4.67-8.66-4.67-13.3l.67-6.66c1.33-5.98 3.32-9.3 4.65-10.63l6-.66zM313.97 161.13l-2.66-2.66c-2.65 0-2.65.66-2.65 2.66v25.25c0 2 .67 2.67 2.66 2.67 1.34 0 2.67-.67 2.67-2.67v-25.25z"/><path fill="#D96038" d="M318.63 125.9c-1.34-2-3.33-2.67-7.32-2.67-3.3 0-5.97.67-7.3 2-2 2.67-2.66 7.3-3.32 13.96 0 6.64 1.33 11.96 5.32 16.6l5.3 5.33 5.33-5.32c3.32-3.98 5.32-9.96 5.32-16.6s-.67-10.64-3.32-13.3z"/><path d="M298.02 139.2c0 7.3 2 13.3 5.98 17.94l5.32 6.65h3.32l5.98-6.66c3.33-4.65 6-10.64 6-17.95 0-7.32-1.34-11.97-3.34-15.3-2.66-2-5.98-3.32-9.97-3.32s-7.3 1.33-9.3 3.32c-2.65 3.33-3.32 7.98-3.98 15.3zm21.27 0c0 7.97-2.67 13.95-8 18.6-5.3-3.98-7.96-9.96-7.96-18.6.66-5.33 1.32-9.98 2.65-11.97 1.32-.67 2.65-1.33 5.3-1.33s4.66.66 6 1.33c1.32 2 2 5.98 2 11.96z"/><path fill="#858585" d="M271.43 212.3l7.3 8c6.66 5.3 13.3 7.97 20.62 8.63 7.97 0 14.62-2.66 19.94-8.64l6.64-8-6.65-8.63c-5.33-5.3-11.98-7.98-19.95-7.98-7.3 0-13.96 2.66-20.6 7.97l-7.32 8.64z"/><path d="M299.35 193.03c-7.3 0-14.63 2.66-21.94 8.65l-8.63 8.64c-.67 1.33-.67 2 0 3.32l8.64 8.64c7.32 6 14.64 9.3 21.95 9.3 8.64 0 15.3-3.3 21.93-8.63l7.32-9.3v-2.66l-7.32-9.32c-6.64-6-13.3-8.65-21.93-8.65zm0 33.24c-8.65-.66-17.3-4.65-24.6-13.96 6.65-9.3 15.3-13.95 24.6-13.95s17.28 4.65 23.26 13.96c-5.97 9.32-13.95 13.97-23.25 13.97z"/><path d="M341.9 211.65c0-2-.67-2.66-2.67-2.66l-13.3.65c-1.32 0-2.65.67-2.65 2.66 0 1.34 1.33 2.67 2.66 2.67h13.3c2-.66 2.65-1.33 2.65-3.32z"/><path fill="#858585" d="M318.63 253.53l9.97 6.64c7.3 3.33 15.28 4.66 21.93 2.66 7.32-1.33 13.3-5.98 17.3-12.63l3.98-9.97c-1.33-2-4.65-4.65-7.97-6.65-6.65-3.32-13.3-4.65-21.27-3.32-6.65 2-13.3 6.65-17.95 13.3l-5.98 9.97z"/><path d="M365.16 231.6c-7.98-4.66-15.3-5.33-23.27-3.33-7.32 2-13.97 6.65-19.95 13.3l-5.98 10.63 1.32 3.32 9.97 6.65c7.98 3.98 16.6 4.65 23.93 2.66 7.3-1.33 13.96-6 18.6-13.3l5.33-10.63-1.33-2.66-8.64-6.65zm-21.94 2c9.97-2.67 18.6 0 25.93 7.96-2.66 9.98-9.3 16.62-19.28 18.62-9.3 2-18.6 0-27.92-7.98 5.32-10.64 11.96-16.62 21.27-18.6z"/><path d="M387.76 235.58c-.67-1.33-1.33-2-3.33-1.33l-12.63 4c-2 0-2.65 1.3-2 3.3 0 2 1.34 2 3.33 1.34l12.63-4c1.33 0 2.66-1.32 2-3.32z"/><path fill="#858585" d="M346.55 147.17l-8.65 7.98c-5.98 5.98-8.64 13.3-9.3 19.94 0 7.96 2.65 14.6 7.97 20.6l8.64 6.64 8-6.65c5.3-5.32 8.63-11.97 8.63-19.3.67-7.3-2-14.6-7.3-21.25l-7.98-7.98z"/><path d="M347.87 145.18c-.66-1.34-2-1.34-2.66 0l-9.96 8.64c-5.98 6.64-8.64 13.3-9.3 21.27 0 8.63 2.65 15.28 8.64 21.92 3.32 3.33 5.98 5.98 9.3 7.98h2l9.3-7.3c6.65-6 9.3-12.64 9.98-20.62 0-8.64-2.66-15.95-7.98-23.26l-9.3-8.64zm11.97 30.57v.66c-.66 9.98-5.98 17.3-14.62 22.62l-7.98-6.65c-3.33-5.32-5.32-10.63-5.32-15.96v-.65c0-9.97 4.65-17.94 13.96-25.26 9.3 7.3 13.96 15.28 13.96 25.25z"/><path d="M347.87 201.68l-3.32-2c-2 0-2.66.67-2.66 2.66v13.3c0 1.33 1.32 2.66 3.32 2.66 1.33 0 2.65-1.33 2.65-2.66v-13.96zM28.8 456.27c0-2-1.33-2-3.33-2-1.33 1.34-1.33 2-1.33 3.34l9.3 19.95c7.98 15.95 17.3 30.57 27.93 44.53 33.9 43.2 75.12 69.8 123.64 79.77l3.33-2c0-1.32-.66-3.3-2.65-3.3-47.2-9.98-87.1-35.9-120.32-77.8-9.98-13.3-19.95-27.9-27.26-43.2l-9.3-19.28z"/><path fill="#D96038" d="M13.5 427.7c-3.32 2-5.3 3.32-5.97 5.3-.67 3.33 0 7.32 3.32 13.97 2 5.98 5.98 9.97 11.3 12.63l6.65 3.32 2.65-7.3c1.34-6 .67-11.3-1.32-16.63-2.66-6.66-5.32-10-8.65-11.97l-7.97.66z"/><path d="M4.86 435.66c0 4 .67 7.32 3.33 11.97 3.98 10.64 11.3 15.96 20.6 17.95l2.65-2c4.66-7.3 5.32-16.6.67-26.58-3.32-6.65-6.65-10.64-9.97-12.63l-9.97 1.32c-3.33 1.33-5.32 3.32-6.65 5.98l-.67 3.98zm7.98 10.64c-1.33-4-2.66-7.3-2.66-10.64l.67-1.98 4-3.33 5.3-.66c2 .65 4.66 3.98 7.32 9.96l2.66 9.97-2.66 9.97c-6.65-2-11.97-6.65-14.63-13.3zM26.8 488.18c-1.33-1.32-2.65-.66-3.32 1.33-.67 1.34 0 3.34 1.33 3.34l23.27 9.97c2 .67 3.33 0 3.33-2 .66-1.32.66-2-1.33-3.3l-23.27-9.32z"/><path fill="#D96038" d="M23.48 483.53c-3.33-4.66-7.98-9.3-13.3-11.3-6.64-2.66-11.3-3.33-13.96-2.66-2 .67-4 2.65-5.3 5.98-1.34 3.32-2 5.98-.68 7.98 1.33 2.66 5.32 5.98 11.3 8.64l17.28 1.33 6.65-3.32-2-6.65z"/><path d="M25.47 482.2c-3.32-5.98-7.97-9.3-14.62-12.63-6.65-2.66-11.97-3.32-15.96-2-3.33 1.33-4.66 3.33-6.65 6.65-1.33 4.65-1.33 7.98 0 10.64 1.33 3.32 5.98 5.98 12.63 9.3l26.6-1.32 1.32-2.66-3.33-8zm-3.32 7.3c-5.32 3.34-11.97 3.34-19.95 0-6.64-3.3-9.97-6.63-9.97-9.3l1.33-3.98 3.33-4c1.98-1.32 6.64 0 11.95 2.67 6.65 2.65 11.97 7.97 13.3 14.6zM53.4 478.87c-1.34-.66-2 .67-2.66 2l-.67 25.26c0 1.33 1.33 2.65 3.32 2.65l2-1.98.65-25.93c.67-1.33-.66-2-2.66-2z"/><path fill="#D96038" d="M62.03 446.3c-1.32-2-3.32-3.32-6.64-3.32-4 0-6.66.67-8 2.65-2 2-3.3 6.65-3.98 13.3 0 6.65 2 11.97 5.32 17.3l4.65 4.64 5.3-4.65c4-4.66 6-9.97 6.66-16.62 0-6.65-.67-11.3-3.33-13.3z"/><path d="M64.03 443.65c-2-2-5.32-3.33-8.64-3.33-4.67 0-8 1.33-10 3.33-2.64 2.65-3.98 7.97-3.98 15.28-.66 7.3.67 13.3 4.66 17.95l5.98 5.98 2.66.67c8.64-4.66 12.63-12.63 13.3-23.93v-2c0-6.64-1.33-11.3-4-13.95zm-14.63 3.32c.67-.67 2.66-1.34 5.32-.67l5.32.67c2 2.66 2 5.98 2 10.64v2c0 7.3-2.67 13.3-8.65 17.95-4.66-4.66-6.65-9.97-6.65-17.28v-.67c0-6.65 1.32-9.97 2.65-12.63zM81.3 516.77c0-2.66-1.32-3.32-2.65-2.66-2 0-3.32 1.33-2.66 2.67l3.32 25.25c.66 1.34 1.33 2 2.65 2 2.66 0 3.33-.66 2.66-2.66l-3.32-24.6z"/><path fill="#D96038" d="M81.97 480.2c-2-1.33-3.98-1.33-7.97-1.33-3.32.67-5.32 1.34-7.3 3.32-1.34 2.66-2 7.3-1.34 13.96 1.33 6.65 3.32 11.3 7.3 15.95l6 4.67 4.65-6c3.33-5.3 4-10.62 3.33-17.27-1.33-6.64-2.66-10.63-4.66-13.3z"/><path d="M83.3 478.2l-9.96-1.98c-3.33.67-6.65 2-7.98 4-2 2.64-3.33 5.97-3.33 9.96l.67 6.65c.66 6.64 4 12.62 7.98 17.28l6.64 4.66h2.66l5.32-6.65c3.32-5.3 4.65-11.95 3.32-18.6-.66-7.3-2.66-13.3-5.3-15.3zm-13.95 5.33l5.3-2 5.33 1.34c2 .66 3.33 4.65 3.33 11.3l.67 3.32c0 6.64-2 11.95-5.98 15.95-6-4.67-9.32-9.98-9.98-17.3v-5.97c0-2.66.66-4.66 1.33-6.65zM50.07 527.4c-2 0-3.32 1.33-3.32 2.67 0 1.98.66 3.32 2.65 3.32l25.26 3.3c1.33 0 2-.66 2.66-2.65.67-2-.66-2.66-2-3.32l-25.25-3.33z"/><path fill="#D96038" d="M15.5 517.43c-1.33 1.33-2.66 3.33-3.32 7.3 0 4 0 6 1.33 7.32 2 2.66 6.65 4.66 13.3 5.33 6.65 1.32 11.97 0 16.62-2l6.65-5.3-4.66-6c-3.98-4-9.3-6.65-15.28-7.3l-14.62.65z"/><path d="M52.06 529.4l-5.32-6.65c-3.98-4.66-9.97-7.32-16.6-8.64l-15.3 1.33c-2.66 1.34-4.66 4.66-5.32 8.65-.67 4.65 0 7.97 2.66 9.97 2 3.32 6.64 5.32 14.62 6 9.97 1.97 18.6-1.35 25.26-8v-2.65zm-34.56-9.3l11.96-.67c8.64 1.33 13.96 4.65 17.3 10.64-6.66 3.98-12.64 5.97-19.3 5.3-8.64-1.98-12.62-3.98-12.62-7.97v-2c.66-3.32 1.33-4.64 2.66-5.3zM104.58 559.98c0-2.66-1.33-3.32-2.66-2.66l-25.26 2.66c-1.33 0-2.66.66-2 2.65 0 1.33.67 2.66 2.66 2.66l24.6-3.33c2.66 0 3.32-.67 2.66-2z"/><path fill="#D96038" d="M41.42 557.98c-2 1.33-2.65 4-2.65 7.3.66 3.33 2 6 3.32 7.33l14.62 2c5.98-.66 11.3-2.66 15.28-6.65l4.66-5.98-5.32-4.65c-4.65-2.66-10.63-4-16.62-4-7.3.67-11.3 2-13.3 4.66z"/><path d="M78.65 560.64l-5.98-5.32c-5.32-3.33-11.3-4.65-17.95-4.65-7.97 1.32-12.63 2.66-15.3 5.32-2.65 1.98-3.3 5.3-2.65 9.3 0 4.65 2 7.97 4 9.96l15.95 2c6.64-.66 11.96-3.32 17.28-7.3l5.32-6.66-.67-2.66zM42.1 563.3c0-4 3.98-6.64 12.62-6.64 7.3-1.34 13.96.66 18.62 5.97-3.33 5.98-9.98 8.65-17.3 9.3l-11.95-1.32c-1.34-.65-2-2.65-2-5.3v-2zM115.88 545.35c-.67-2-1.33-2-2.66-2-2 0-2.66 1.33-2.66 3.33l4 24.6c.65 2 1.98 2.66 3.3 2 2 0 2-1.34 2-2.67l-3.98-25.25z"/><path fill="#D96038" d="M115.2 510.12l-7.3-1.33c-3.32 0-5.98 1.32-6.65 3.3-2 2.67-2.66 7.33-1.33 13.97.67 5.98 3.33 11.3 7.32 15.95l5.98 4 4.65-5.98c2.66-4.66 4-10.64 2.66-16.62-.66-6.65-2.66-11.3-5.32-13.3z"/><path d="M123.2 522.75c-1.34-7.32-3.33-12.63-5.33-14.63-2.66-2-5.98-2.66-9.97-2.66-4.65 1.34-7.98 2.66-9.3 5.33-2 3.3-2 8.63-1.33 15.94 1.32 10.63 6.64 17.94 14.62 21.93l3.3-.66c6.66-5.98 9.98-14.6 8-25.25zm-9.3-10.64c1.3 1.35 2.64 5.33 3.97 11.32l.67 3.98c0 6-2 11.3-5.32 15.3-5.98-2.66-9.97-8.65-11.3-17.3v-5.97c0-3.33.67-5.98 2-6.65 1.32-.67 2.65-1.33 4.65-2 2.65 0 4.65 0 5.32 1.33z"/><path fill="#858585" d="M72 603.2l9.98 5.3 22.6 1.34c6.64-1.34 11.96-6.65 15.95-13.3l4-9.97c-2.67-2-4.66-4-8.65-6-7.3-3.3-13.96-3.97-21.27-2-6.64 2-12.62 6.66-17.94 14.65-2 3.32-4 6.64-4.66 9.97z"/><path d="M105.24 613.16c7.3-2.66 13.3-8 17.95-14.63 1.98-5.3 3.3-8.64 3.3-11.3v-2c-1.32-2-4.64-4.65-9.96-6.65-7.3-3.98-15.3-5.3-23.26-2.65-7.32 2.65-13.3 7.32-17.95 14.63-3.33 3.98-5.32 7.97-6 11.3l.68 3.3 11.3 6c8 3.32 15.97 4 23.94 2zm16.62-25.27c-3.32 10.63-9.97 17.27-18.6 19.94-8.66 2.66-17.96.66-27.93-6 4-11.3 10.64-17.93 19.94-20.6 9.3-2.66 17.95-.66 26.6 6.65z"/><path d="M139.8 581.9c-.66-1.98-2-1.98-3.3-1.98l-13.3 4c-1.34 1.3-2 2.65-1.34 3.97 0 2 1.33 2 3.32 2l13.3-4.67c1.33-.66 1.33-2 1.33-3.32z"/><g><path fill="#858585" d="M143.8 522.08l-7.32 9.3c-4.65 7.32-5.98 14.64-4.65 21.95.67 7.3 4.66 13.3 10.64 18.6l9.3 4.67 7.32-8c4.64-5.97 6.63-13.28 5.3-19.93-1.33-7.97-5.3-14.62-11.3-19.94l-9.3-6.65z"/></g><g><path d="M134.5 530.07c-4.66 7.3-6.66 15.28-6 23.26 1.34 8.64 6 15.28 12.64 19.94 3.32 3.33 6.64 5.3 9.97 5.98l2-.67 8.65-7.97c4.65-7.3 6.64-14.6 5.32-22.6-1.34-7.96-5.32-14.6-11.97-21.26-4-3.32-7.32-5.98-9.97-6.65h-3.33l-7.3 9.97zm0 23.26l-.67-4.66c0-7.3 3.32-15.28 10.63-23.27 9.97 6 15.3 13.3 17.28 23.27l.67 4c0 7.97-3.98 14.62-10.63 20.6-10.63-3.32-16.62-10.64-17.28-19.94z"/></g><g><path d="M154.43 576.6c0-2-1.33-2.66-2.66-2.66-2.66 0-2.66 1.32-2.66 3.32l2.67 13.3.67 1.32 2.66.67c1.33 0 2-.67 1.33-2.66l-2-13.3z"/></g><path stroke-miterlimit="100" d="M364.58 579.58H7.42V7.42h357.16v572.16z" fill="none" stroke="#000" stroke-width="14.84"/></svg>