<svg xmlns="http://www.w3.org/2000/svg" width="372" height="587" viewBox="0 0 372 587"><path fill="#fff" d="M0 0h372v587H0z"/><path fill="#858585" d="M187.2 284.83c-37.17 0-73.04 6.52-107.6 18.9a301.32 301.32 0 0 0-90 53.5v258.24h394.55V357.22c-26.74-23.48-57.4-41.1-90-53.48-34.56-12.4-70.43-18.9-106.95-18.9z"/><path d="M187.2 281.57c-36.52 0-72.4 5.87-106.3 18.9-34.57 12.4-65.22 30.66-93.27 54.13l-1.3.66v263.47H387.4V355.26l-1.3-.65a296.25 296.25 0 0 0-93.25-54.1c-33.92-13.04-69.13-18.9-105.65-18.9zM84.16 306.35c32.6-12.4 67.17-18.26 103.04-18.26 35.2 0 69.13 5.84 102.4 18.23 33.9 12.4 64.55 29.35 91.3 52.17v253.7H-7.16V358.5c27.4-22.82 57.4-39.78 91.3-52.17z"/><path d="M41.1 599.16c7.2-11.08 15.66-21.5 24.8-31.3 33.25-37.82 72.38-65.2 117.38-82.17 43.05-17 90-22.85 141.52-18.3l43.7 6.53 15.65 2.6c-15-4.56-34.57-9.12-59.35-11.73-50.2-5.86-98.47-.64-143.47 17.6-45.65 16.98-84.78 45-118.05 84.14a152.5 152.5 0 0 0-22.17 32.62z"/><path d="M13.07 479.17c11.1-4.57 22.17-9.13 33.9-12.4 50.88-11.73 100.44-11.08 149.36.66 45.65 12.4 91.3 32.6 136.3 61.3 21.52 13.7 39.13 25.44 51.52 35.88l-12.4-11.1-37.16-27.35c-45.7-29.35-91.34-50.22-137.64-61.96-48.9-13.05-98.48-13.05-150 0-13.7 3.9-24.78 9.13-33.9 15zm52.83 90.65a51.16 51.16 0 0 0-15.66 18.26 70.66 70.66 0 0 1 17.6-16.3c11.1-8.48 24.8-15 41.75-19.56a139.4 139.4 0 0 1 56.7-3.92c30.66 3.92 61.96 17.6 95.2 40.43 14.37 10.44 26.1 19.57 33.94 26.74l-7.18-8.47-25.43-20.88c-31.96-22.82-64.57-37.17-95.87-41.73-20.22-2.64-39.13-.7-58.04 4.53-17.6 4.56-31.3 11.74-43.05 20.87z"/><path d="M51.55 527.43c-14.35 3.9-26.1 9.78-35.87 16.96-7.83 5.83-14.35 11.06-17.6 16.93 5.86-4.57 11.73-9.78 18.9-14.36 10.44-6.53 21.52-11.74 35.22-16.3 15.65-5.22 30.65-7.18 46.95-7.83 27.4 0 55.44 6.52 83.48 19.56 13.7 6.53 24.13 12.4 31.96 17.6l-7.2-6.5-23.48-13.05c-28.7-15-56.74-21.5-84.8-21.5-16.3.64-32.6 3.25-47.6 8.46zm-27.4-185.2c11.1-3.93 22.18-6.53 33.9-9.14 47.6-7.86 97.84-3.95 151.3 12.36 47.63 15 91.3 40.43 131.76 77.6l30 31.3c-7.15-11.08-16.3-21.5-28.02-33.9-38.48-36.53-82.82-62.6-132.4-78.26-26.73-8.47-55.42-13.7-84.1-15.64l-69.14 3.9c-12.4 1.96-23.48 5.88-33.26 11.75z"/><path d="M208.72 394.4c-29.35 4.56-59.35 16.95-88.7 37.17a233.5 233.5 0 0 0-22.82 18.26l-7.83 7.82 9.13-6.52 22.83-17.6c30.65-18.92 60-31.3 88.04-35.88l52.83-1.3a175.7 175.7 0 0 1 41.73 9.13c8.48 3.26 17.6 6.52 26.74 11.08l9.78 3.92c-8.47-5.87-20.2-11.74-35.86-16.96-13.08-5.87-27.4-9.13-42.4-11.08a182.97 182.97 0 0 0-53.5 1.95z"/><path d="M140.24 402.22l26.1 5.87c0-.7-8.5-3.95-25.45-7.86-19.6-5.87-41.1-7.82-64.6-7.17-23.47 1.3-44.34 4.55-63.25 12.38-6.52 2.6-12.4 5.22-17.6 8.48l-5.88 3.9 24.77-9.77a216.96 216.96 0 0 1 62-11.06c22.16-.65 43.03 1.3 63.9 5.22zM79.6 306.35l18.9-.66 61.96 4.55c22.82 3.9 43.04 9.12 60 15.64l18.26 6.52 7.17 1.3-6.55-3.25-17.6-7.17c-17.62-7.16-37.83-13.03-60.66-16.94l-62.6-3.26-18.9 1.94-6.54 1.96 6.52-.65zm143.46-1.95c-18.9-7.18-38.47-11.75-58.04-15l-17.6-1.3h-6.53L165 292a483.38 483.38 0 0 1 56.1 15.65 667.3 667.3 0 0 1 54.77 24.13l21.5 10.44-20.86-13.05c-15-9.12-33.24-16.96-53.46-24.78zm1.3-15c-12.4-3.92-18.25-5.22-18.25-3.92l17.64 5.87c16.95 5.87 31.3 11.74 43.04 17.6 11.1 4.58 24.78 11.75 41.1 20.88 10.42 7.17 16.3 9.78 16.94 9.78 0-.62-4.55-3.9-15.64-11.7-11.74-8.5-25.43-15.67-40.43-22.84s-29.35-12.4-44.35-15.65z"/><path d="M202.2 372.87a235.24 235.24 0 0 0-50.22 15.65l-13.7 7.83c-3.26 1.96-4.56 3.26-3.9 3.9l19.56-9.12c16.3-6.52 32.6-11.74 48.9-13.7l50.88-4.56 22.17-.65-22.2-2.6-51.5 3.25zM233.5 352l-15.65-.66-37.17 5.23c-13.7 4.56-25.44 8.47-35.22 13.7-9.78 4.56-13.7 7.82-13.7 7.82l14.35-5.25c11.77-4.57 22.86-9.13 35.25-11.74 11.74-3.26 23.48-5.86 36.52-7.17L233.5 352zm15.65 107.6a357.8 357.8 0 0 0-92.6-23.48l-28.7-1.94-11.1 1.3 11.1.64 28.04 2.62a429.93 429.93 0 0 1 91.93 24.78c31.3 12.4 60 26.74 84.78 42.4l33.27 21.5-8.5-7.16-23.47-16.96c-24.12-16.3-52.16-30.65-84.77-43.7zm-1.95-19.56a379.82 379.82 0 0 0-41.1-13.7c-13.03-3.26-27.38-6.52-42.38-8.47h-18.26l17.6 3.26 41.75 9.13c14.37 3.26 28.07 7.83 41.76 13.04l16.3 4.57c.66-.65-4.56-3.26-15.64-7.83zm-2.6-21.52l-25.45-9.78a137.22 137.22 0 0 0-28.04-5.22c-7.15-1.3-11.06-1.3-11.06 0l11.1 1.96 26.08 7.17 26.1 8.48 11.1 3.26c.63-.68-2.63-2.64-9.8-5.9zm-60.66-76.3l12.4-2.6-13.06-.66c-11.08 1.3-20.86 3.26-30.65 6.52-9.78 3.26-19.56 7.18-28.04 13.04-7.2 4.57-11.1 7.18-10.46 7.83l11.73-5.22a157.9 157.9 0 0 1 28.04-11.73c9.8-3.27 19.57-5.88 30-7.18zm131.08 129.12l45.65 30 9.78 5.22-7.82-7.17-22.18-17-23.47-13.03c-6.53-3.93-10.44-5.23-11.1-5.23l9.14 7.17zM28.07 518.96c13.7-5.88 28.7-9.8 46.3-11.75 18.9-2.6 38.48-2.6 57.4-.62 18.26 2.6 36.5 7.82 56.08 15.66 10.44 5.2 24.78 11.73 42.4 22.17l36.5 23.48c-7.82-7.18-20.2-15.66-35.86-26.1-15-9.77-29.38-17.6-41.77-22.8-18.9-8.5-37.82-14.37-56.73-16.32-20.2-2.6-39.8-1.96-59.34.65-16.96 2.6-32.6 7.18-45.65 13.05C17 520.9 7.2 526.15-1.3 532l-9.1 7.83L0 533.95c8.5-6.52 17.6-11.08 28.05-15zm215.2 7.17a460.17 460.17 0 0 0-30-18.27c-9.12-4.56-19.55-9.12-31.94-14.34l-14.35-3.26 13.04 5.87 31.3 15 30 17.6c8.48 5.22 12.4 7.18 12.4 6.53l-10.44-9.13zm-41.73-42.4l35.22 17.6 8.48 3.27-6.52-5.2c-3.26-1.97-8.48-5.23-17.6-9.8l-18.27-7.82-8.48-2.6 7.17 4.56z"/><path fill="none" stroke="#000" stroke-width="3" stroke-miterlimit="100" d="M370.6 585.26H3.9V2.74h366.7v582.52z"/><path stroke-miterlimit="100" d="M367 582H5V5h362v577z" fill="none" stroke="#000" stroke-width="10"/></svg>