<svg xmlns="http://www.w3.org/2000/svg" width="372" height="587" viewBox="0 0 372 587"><path fill="#fff" d="M0 0h372v587H0z"/><path fill="#858585" d="M186.9 263.93c-36.8 0-71.66 6.46-105.87 18.73-32.93 12.26-62.63 29.7-89.1 52.94v255.67H381.9V335.6c-26.47-23.24-56.82-40.68-89.1-52.94-34.22-12.27-69.73-18.73-105.9-18.73z"/><path d="M186.9 260.7c-36.14 0-71 5.82-105.23 18.73A308.56 308.56 0 0 0-10.65 333l-.65.66V594.5h396.43V333.66l-.65-.65c-27.76-23.2-58.75-41.3-92.97-53.55-33.55-12.9-68.4-18.73-104.6-18.73zm-102 24.54c32.28-12.27 66.5-18.08 102-18.08 34.88 0 68.45 5.8 102.03 18.08 33.57 12.26 63.27 29.05 89.74 51.65V588H-4.83V336.9c26.46-22.6 56.16-39.4 89.73-51.66z"/><path d="M11.94 521.55c8.4-4.53 18.08-7.76 27.77-10.34a268.9 268.9 0 0 1 56.84-7.72c23.24-.64 45.84 1.95 68.44 7.1 34.22 8.4 72.96 25.83 114.92 51.66l43.25 29.05-10.33-9.04a371.24 371.24 0 0 0-31.63-22.6c-41.34-26.48-80.07-44.55-115.58-52.95-22.6-5.16-45.84-7.74-69.73-6.45-20 .64-38.74 3.87-56.17 8.4-10.97 3.22-20.66 7.1-27.76 12.9zm227.26-78.78c-19.36.65-38.73 4.53-57.45 10.98-16.14 5.8-30.35 12.27-43.26 20.02-10.36 6.45-19.4 13.55-25.2 20.65l26.46-18.07c30.34-17.44 63.92-27.77 99.43-29.7 33.57-2.58 67.8 3.23 103.3 16.8L371.57 477l10.33 5.16c-8.4-7.1-21.3-13.56-38.72-21.3-34.22-14.2-69.1-20.67-103.95-18.1z"/><path d="M210.16 440.84c-6.46-3.88-14.2-7.75-22.6-12.27-25.83-13.55-52.3-21.95-79.42-26.47-29.7-5.17-58.1-4.52-83.3.65-14.2 2.58-25.17 5.8-32.9 9.68l9.03-1.3 24.53-5.8c25.83-4.53 53.6-3.88 82 .64 24.53 4.52 51 12.27 79.4 24.54l30.36 16.17-7.1-5.8z"/><path d="M183.04 455.04l-7.1-3.87-19.37-7.75c-20.02-8.4-41.97-14.2-67.15-17.43-25.83-2.6-49.07-2.6-70.37 1.26l-20.02 3.88c-5.16 1.93-7.75 2.58-7.1 3.22l27.76-4.52c20-2.58 42.6-2.58 68.4 0 22.6 3.23 45.2 7.75 67.16 16.14l27.76 9.03zm-57.46 10.33l23.24 3.88s-7.1-2.58-21.95-6.46c-16.14-5.2-34.87-8.4-56.17-10.36-18.08-2.58-36.16-1.93-56.17.64l-16.8 3.87-5.8 2.58 22.6-3.23c22.6-1.93 41.32-1.93 56.17 0 21.3 1.94 40.03 4.52 54.88 9.04zm93.62 41.96c-34.22 10.34-68.44 27.77-103.3 52.96a330.92 330.92 0 0 0-27.12 21.9l-9.05 9.05c9.05-7.74 21.3-18.07 37.45-29.06 36.16-24.5 70.38-41.3 103.3-51.65 38.74-12.9 76.84-18.07 113.64-16.14l35.5 3.24 12.28 1.3a202.47 202.47 0 0 0-47.14-7.1c-38.1-2.6-76.18 2.57-115.57 15.48z"/><path d="M242.44 521.55c-12.92 3.87-18.73 7.1-18.08 8.38l18.73-5.8 47.1-9.04 47.77-1.97 19.36-.64-19.37-1.95c-12.92-1.28-29.06-1.28-47.78 1.3-14.2 1.3-29.7 4.52-47.8 9.7zm20 14.85c-9.67 2.58-14.2 4.52-14.2 5.16l15.5-1.94 36.8-5.8 36.16-3.24 15.5-1.93-15.5-.65-36.8 1.93c-13.56 1.3-25.83 3.88-37.45 6.46zm-237.58-5.17a202.44 202.44 0 0 1 81.35 3.23 199.3 199.3 0 0 1 73.6 35.5c5.84 5.17 12.3 9.7 19.4 16.15l7.1 5.2a186.38 186.38 0 0 0-25.2-23.25c-22.6-18.73-47.1-31-74.23-36.8-28.4-7.75-55.52-7.75-82.64-2.58C10.67 531.9-.3 535.1-8.05 539.63c7.75-3.23 18.72-5.8 32.93-8.4zM203.7 405.98a249 249 0 0 0-19.37 13.55c-3.87 3.87-6.46 5.8-5.8 5.8l7.1-4.5 20-12.27a185.82 185.82 0 0 1 72.32-22.6c23.24-2.58 48.42.64 75.54 9.7l21.3 9.02 7.72 3.23-7.1-5.13-21.3-9.7c-26.48-9.67-51.66-13.55-76.84-10.97-26.48 3.22-51 10.97-73.6 23.9zm22.6-79.42A313.65 313.65 0 0 0 166.9 344c-16.8 7.74-31.64 15.5-44.55 25.17-9.7 7.75-18.08 15.5-23.9 22.6 7.76-6.46 16.15-13.56 25.2-20.02 28.4-20 63.26-34.2 102.65-41.97 38.1-7.1 74.9-6.45 111.7 1.94l32.27 9.05 11.63 3.87c-10.33-5.82-24.54-10.98-43.26-16.14-37.45-8.4-74.9-9.7-112.34-1.94z"/><path d="M210.8 404.03l-7.1-4.5-22.6-10.34c-21.95-10.36-47.77-16.8-77.48-21.98-29.7-3.23-56.8-3.23-80.06 1.93l-23.9 5.8c-5.15 1.95-8.38 3.9-7.73 3.9l32.28-7.12c23.9-3.87 49.74-3.87 78.8 0 28.4 3.88 54.23 10.34 77.47 20.02L210.82 404z"/><path d="M225.65 345.93c-21.3 4.52-39.38 10.98-55.52 20l-15.5 9.7-5.8 3.88 6.45-3.2c5.16-2.6 10.33-5.8 16.14-7.76a220.74 220.74 0 0 1 54.88-18.72c20-5.15 39.38-7.1 58.1-7.1h24.54l-5.8-1.92-18.74-.65c-18.72-1.3-38.73.65-58.75 5.8zm.65 17.43c-13.56 2.58-26.48 7.75-38.74 14.2a55.03 55.03 0 0 0-10.98 6.46l-3.87 3.23 15.5-7.1c15.5-6.46 28.4-10.98 38.76-13.56l41.32-7.1 16.8-2.6c-.66-.66-6.47-.66-17.44 0-12.27 0-25.83 2.6-41.32 6.44zm-77.48-67.14c-20.02-5.18-39.4-8.4-57.46-9.7l-18.08.65-6.46 1.3h7.1l17.44.65a299.7 299.7 0 0 1 56.17 11.6c23.24 6.47 41.32 12.92 54.88 19.38l22.6 7.75-21.93-10.33c-12.26-6.46-31-13.56-54.23-21.3z"/><path d="M297.32 285.24l-19.37-3.88-47.78.65c-17.43 3.26-32.93 7.14-45.84 12.94-5.16 1.94-9.7 3.88-12.9 6.46l-4.53 2.57 18.08-6.46c16.14-5.8 31.63-9 45.84-11.6l47.13-1.93 19.37 1.3z"/><path d="M202.4 295.57L192.1 293l9.04 5.15 22.6 10.34 21.95 11.6 9.66 3.86-7.75-6.46-21.94-12.9c-6.46-3.23-14.85-6.46-23.24-9.04zm56.83 5.16c-7.75-5.16-16.8-9.04-26.48-12.27l-10.97-3.22 10.33 5.8 25.2 12.92 24.54 13.56c6.46 4.52 9.7 6.46 10.33 6.46.65-.65-2.58-3.23-8.4-8.4l-24.52-14.85zm1.93-17.43l-8.4-1.3 7.1 3.9 17.44 9.02 16.8 10.34c5.15 3.23 7.1 4.5 7.1 3.87l-5.17-6.46a150.53 150.53 0 0 0-16.8-10.98c-5.8-3.25-12.26-6.48-18.07-8.4zm-200.8 17.43l-18.72.65 18.08 1.3 43.26 7.73c10.33 1.3 23.9 5.2 41.97 10.37l17.43 5.16-16.8-7.73c-11.6-4.54-25.8-8.4-42.6-12.28l-42.62-5.17zM72 320.1l-39.4-4.5-16.78 1.27 16.14 1.3 39.38 5.8 38.1 7.76 16.14 3.87c0-.65-5.17-2.6-14.85-5.82L72 320.1z"/><path fill="none" stroke="#000" stroke-width="3" stroke-miterlimit="100" d="M370.6 585.26H3.9V2.74h366.7v582.52z"/><path stroke-miterlimit="100" d="M367 582H5V5h362v577z" fill="none" stroke="#000" stroke-width="10"/></svg>