<svg xmlns="http://www.w3.org/2000/svg" width="372" height="587" viewBox="0 0 372 587"><path fill="#fffaf0" d="M0 0h372v587H0z"/><path d="M187.7 285.4c-37.74 0-74.17 6.64-109.28 19.23-33.12 12.58-63.6 30.46-91.4 54.3v262.3h400.07v-262.3c-27.17-23.84-57.64-41.72-91.42-54.3-34.44-12.6-70.88-19.22-107.97-19.22z" fill="#858585"/><path d="M187.7 282.1c-37.08 0-73.5 5.96-107.95 19.2-35.1 12.6-66.24 31.14-94.73 54.98l-1.32.67v267.6h406.7v-267.6l-.66-.67c-27.82-23.84-59.62-42.4-94.72-54.97-34.45-13.24-70.88-19.2-107.3-19.2zM82.4 307.27c33.77-12.58 68.88-18.55 105.3-18.55 35.78 0 70.22 5.97 104 18.55 34.45 12.58 64.92 29.8 92.08 53V617.9H-9.68V360.26c27.82-23.18 58.3-40.4 92.08-53z"/><path d="M195 586.13c-7.95 13.25-13.25 25.17-15.9 35.1l4.64-9.27c3.97-8.6 8.6-17.22 13.9-25.17 15.9-25.18 37.1-47.7 65.58-66.9 25.84-17.23 54.32-29.8 86.1-36.43l27.83-4.65 9.94-2.64-39.1 4.63c-31.13 5.98-60.27 17.9-87.43 35.78-28.48 19.2-49.67 42.4-65.57 69.55z"/><path d="M233.4 594.74c-5.28 6.62-8.6 12.6-11.9 18.55-2 5.3-2.66 7.93-1.33 7.93 2.65-6.62 7.95-15.23 15.23-25.16 14.57-19.2 32.46-34.45 54.32-46.37 21.2-12.58 44.38-19.87 67.56-22.52l21.86-2 7.95-1.3-7.97-.67-21.85.67c-24.5 2.65-47.7 9.94-69.55 22.52-23.18 12.57-41.07 28.47-54.32 48.34zM42.65 540.43c22.52-7.28 47.7-10.6 73.52-9.28 25.17.66 49.02 5.3 72.87 14.58 11.92 3.97 21.85 7.95 29.14 11.26l-7.3-3.98-20.52-9.94c-23.84-9.94-48.35-14.58-74.2-15.9-26.48-.66-51 2.65-74.17 10.6-7.96 2-14.58 5.3-21.2 8.6l-7.3 4 7.95-3.33 21.2-6.62zM30.07 557c19.87-2 41.06 0 60.93 5.28 19.87 4.64 38.42 13.92 55.65 25.83l15.23 10.62 5.96 3.97-5.3-4.65-13.9-12.58c-17.23-12.58-35.78-21.86-56.97-27.16-21.86-5.28-42.4-6.62-61.6-3.96C18.8 555 10.87 557 4.9 560.3l25.17-3.3zM196.98 468.9c-31.13 4.63-58.28 16.55-80.8 34.44-7.96 6.62-14.58 13.25-18.55 19.87l20.53-17.88c22.52-16.56 49.68-27.82 79.48-32.46 29.15-5.95 57.63-3.97 86.78 4.64 8.6 2 16.56 5.3 24.5 9.28l8.6 3.97c-7.27-5.3-17.87-11.26-33.1-15.9-27.82-9.28-56.97-11.92-87.44-5.96z"/><path d="M234.74 450.35l-15.9 12.58-5.3 5.3c5.3-4.63 13.25-9.28 23.2-15.24 18.54-12.6 38.4-21.86 59.6-29.15 19.87-7.3 41.07-13.25 64.25-15.9l26.5-4.63-27.17 1.98c-21.86 1.33-43.06 6.62-65.57 14.57-19.88 7.3-39.75 17.23-59.62 30.48zM157.9 474.2l-17.22-9.95c-19.2-8.6-39.74-13.9-63.6-15.24-22.5-1.3-43.7 1.35-64.9 8.63l-18.55 6.62-6.62 3.32 25.84-7.3c20.54-5.95 41.73-7.94 63.6-7.28 23.17.66 44.37 5.95 62.92 13.9 9.93 4.64 18.54 9.28 23.84 12.6l-5.3-5.3zM186.4 472.86c-4.65-7.3-11.94-15.23-21.87-23.85-19.2-18.52-41.73-31.77-67.56-41.05-25.17-8.62-51-11.93-78.17-11.26l-31.8 4.63 8.62-.66L18.8 400c27.82 0 53.66 3.98 76.84 12.58 24.5 7.96 46.37 20.54 66.9 37.77l17.88 15.9 5.97 6.6zM206.26 380.13c-13.9 7.3-25.17 15.9-34.45 25.17-7.94 7.95-13.9 15.24-17.87 22.52 5.3-7.28 11.92-13.9 19.87-20.53 21.2-19.88 49.02-33.8 82.8-43.06 31.13-7.96 61.6-9.28 93.4-3.98 15.9 3.3 28.48 6.62 37.1 10.6.65-.66-2.66-2.65-9.28-4.64l-27.16-8.6-95.38 2.64c-17.23 4.64-33.8 11.26-49.02 19.87z"/><path d="M228.12 371.52c0-.66-2.65-1.32-7.3-3.3l-20.53-5.32-71.54-2.64c-24.5 3.3-47.03 9.94-67.56 21.2-6.63 3.97-12.6 7.94-17.9 11.92l-5.95 5.3c5.96-4.64 14.57-9.28 25.17-14.57 20.54-10.6 43.72-17.22 66.9-20.53l69.55 2.65 21.2 3.98 7.95 1.32zM227.45 404.64c-16.56-.66-33.1 1.32-48.35 5.97l-13.9 4.64-3.98 2.65 19.2-4.65 47.03-4.64c16.56.67 32.46 2.66 47.03 7.96l18.55 5.96-4.64-2.65-13.92-5.95c-14.57-5.97-29.8-9.28-47.03-9.28zM204.27 390.07l-14.57 3.3c-3.97 1.34-5.3 2.66-4.64 2.66l5.3-1.32 14.57-2c13.9-2.63 29.8-1.96 47.7.68 16.56 2 31.8 6.62 46.36 13.25l18.54 7.95c-3.98-3.3-9.94-7.3-17.23-10.6-13.9-7.3-29.8-12.6-47-14.58-16.57-2.64-33.13-2.64-49.03.67zM238.05 371.52l-16.56 2.65h16.55l39.08 5.3c13.25 3.3 25.83 7.28 36.43 11.92l15.24 5.96c.66-.67-4.64-3.32-13.9-8.62-11.27-5.96-23.86-10.6-37.1-13.25l-39.75-3.98zM88.35 333.76c-19.87-3.3-39.74-3.3-57.62.67l-17.22 5.3-5.3 3.3c5.3-2.64 13.25-4.63 23.2-5.95 17.2-3.32 36.42-2.65 56.95.66 17.9 2.65 36.44 7.3 55.64 13.9l22.52 8.62c.66-.67-6.63-3.98-21.2-10.6-18.55-7.95-37.1-12.58-56.97-15.9zM58.55 313.9l19.2-2 45.05 5.3c19.2 4.65 34.44 9.94 45.04 13.92l17.9 5.96-17.24-8.6c-10.6-5.32-25.83-10.6-44.38-14.58l-46.36-4.64-14.58 2c-3.3 1.3-4.63 1.97-4.63 2.63zM114.85 294.02l-5.3 1.33 20.54 1.98c17.2 2.65 32.44 6.63 47.67 12.6 20.54 7.27 35.1 13.9 45.7 18.54l18.56 8.6c0-.66-5.3-3.97-17.23-10.6-11.26-6.62-26.5-13.24-45.7-21.2-16.56-5.3-32.46-9.26-48.35-11.25h-15.9zM274.48 325.8l-13.9-8.6c-7.3-4.63-19.22-10.6-36.44-17.88-15.9-5.96-28.48-9.94-38.4-11.92l-16.57-1.33 15.9 3.97 37.75 13.25 36.43 16.55c10.6 3.98 15.23 6.63 15.23 5.97zM248 504c-18.56-4.64-39.76-6.63-62.28-4.64-22.52 1.33-43.05 7.3-59.6 15.9-6.63 2.64-11.27 5.96-16.57 9.27l-4.64 4.64 5.97-3.32c5.3-2.64 10.6-5.95 16.56-8.6 17.23-7.3 37.1-12.6 58.96-13.9l61.6 3.3 25.16 5.3-6.63-3.32L248 504zM142.67 488.76l-5.3-3.32-16.56-5.95c-17.2-6.64-35.76-9.95-56.3-9.28-19.86.66-39.07 3.97-56.3 9.93l-15.9 7.3-5.3 3.3 5.97-2 15.9-5.95c17.88-5.3 36.43-7.95 55.64-8.6 18.56 0 37.1 2.64 55.65 7.93l22.52 6.63z"/><g><path d="M68.35 197.98c6.63 1.33 17.23 4.64 33.12 11.92l31.13-25.17c-7.94-5.3-21.85-8.6-41.73-10.6-11.92-1.32-23.84.66-35.76 3.98l-13.24 4.64 19.2 3.98h.67-.66c-7.95-1.32-16.56 0-25.84 4.63l-10.6 7.96L51.8 196l16.55 1.98z" fill="#fcce00"/><path d="M99.5 212.55h3.3l31.8-25.83 1.32-2.66-1.33-2.64c-9.28-5.3-23.85-8.6-43.06-10.6-13.25-1.32-25.17.66-36.43 3.97-7.28 1.32-11.92 3.3-15.23 5.3l-1.32 2.64v.66l2.65 2.65c-7.3 2-13.25 6.63-19.2 11.26l-.68 2 .67 2c0 1.3 1.3 1.97 3.3 1.3l37.76-1.98 5.3.67c6.62 1.32 16.55 4.63 31.13 11.25zm-35.12-24.5l.66-1.34c0-1.3-.66-1.97-2.65-2.64l-7.96-2.64c11.93-3.32 23.85-5.3 36.43-3.98 13.92.67 25.18 3.3 35.1 7.3l-25.16 21.2c-16.55-6.64-27.14-9.95-31.78-11.28l-4.64-.66-22.52-1.32c6.62-2.65 12.58-3.3 18.55-2.65 2.66.66 3.98 0 3.98-2z"/><path d="M105.45 219.18l7.95.65h25.17l29.14 8.62c21.2 7.94 35.78 17.22 43.73 29.14l-.66-11.93c-2-9.94-5.96-17.9-11.93-23.18l5.3 2.64 10.6 11.9c0-5.94-1.32-11.24-5.96-17.87-7.95-13.24-23.18-21.2-43.72-24.5l9.27-7.3c5.96-6.62 10.6-14.56 13.25-22.5-7.3 4.63-14.57 7.94-20.53 8.6 4.64-2.65 7.28-6.63 7.28-11.92l-29.8 7.95c-13.9 4.63-24.5 9.93-31.8 15.23-7.95 5.96-12.58 13.25-14.57 21.86-15.9 9.26-25.83 14.56-30.47 16.55l-11.93-.66-10.6.65c-3.3 1.32-5.3 3.97-6.62 7.95l-2 5.3c-2.64 2-4.63 5.3-7.28 9.27-1.98 5.3-3.3 9.27-3.97 13.25l7.28-4.64c5.3-3.98 9.28-6.63 11.93-6.63l10.6-.66c4.64-.67 7.96-1.33 11.27-4.64 3.3-3.32 9.93-7.95 18.54-13.25 9.3-5.95 15.9-9.27 20.55-9.92z" fill="#fcce00"/><path d="M67.7 223.15l-11.93-.66-10.6.65c-3.3 1.32-5.3 3.97-6.62 7.95l-2 5.3c-2.64 2-4.63 5.3-7.27 9.27-2 5.3-3.32 9.27-3.98 13.25l7.3-4.64c5.28-3.98 9.26-6.63 11.9-6.63l10.6-.66c4.65-.67 7.96-1.33 11.27-4.64l1.98-2c4.64-7.28 6.63-13.9 7.95-21.2l-8.6 4z" fill="#d96038"/><path d="M176.32 159.56l-2.65-1.32-29.8 8.6c-14.58 4.64-25.84 9.28-33.12 15.9-7.95 5.3-13.25 13.25-15.9 21.86-13.9 8.6-23.18 13.25-28.48 15.23l-9.27-.65-13.9.65c-4.65 2.66-7.96 7.95-9.95 14.58l-7.3 11.27c-1.97 4.63-3.3 9.28-3.96 13.25l1.98 3.3h3.97l17.22-11.92h5.96l8.62-.66c3.3-.66 6.62-1.98 8.6-4.63 3.32-3.97 9.94-7.95 17.9-12.58 8.6-5.96 15.22-9.27 19.2-9.93l33.12.65 29.14 9.27c19.88 7.3 33.8 16.56 41.08 27.16l3.98 1.32c1.98-.66 1.98-1.98 1.98-3.3l.66-1.34-3.3-17.22c1.32 1.32 2.64 2 3.97 1.32 1.98-.66 1.98-1.32 1.98-3.3 0-5.97-1.98-11.26-5.96-17.9-7.96-13.24-21.2-21.2-39.75-26.48 9.27-6.63 15.23-15.9 18.54-26.5v-1.32l-2-2.65c-.65-.66-1.98-.66-3.97 0l-8.6 4.64 1.32-5.3-1.33-1.98zM55.77 225.8c5.96 1.32 10.6 1.32 12.58 0 4.64-1.33 15.9-6.62 31.14-15.9l1.97-2c1.33-8.6 5.96-15.22 13.25-19.86 6.62-5.95 17.22-10.6 30.47-15.23l23.84-6.62-3.98 5.3c-.66 0-1.32 1.33-1.32 2v1.32c.66 1.98 1.32 2.64 3.3 1.98l13.92-3.97c-4.64 7.95-10.6 14.58-17.22 18.55-1.33 1.33-2 2-2 3.32 0 1.98.67 3.3 2.66 3.3 17.9 3.32 29.8 9.95 35.1 21.2h1.33l7.3 5.3c-1.34-2.64-4-4.63-8.62-5.3l-2.64.67-1.33 2.65c0 .65.67 1.3 1.33 1.97 5.3 5.3 8.6 13.25 11.26 23.85-9.94-9.27-24.5-17.22-43.06-23.85l-26.5-7.95h-24.5l-7.95-.66h-1.3c-5.3.66-12.6 3.97-21.87 10.6-8.6 5.3-14.57 9.94-19.2 13.9-2 2-6.63 3.32-12.6 3.32l-7.94.67c-2 0-6.64 1.98-11.94 6.62 2-5.3 3.98-9.94 7.3-11.92l1.32-2c1.32-5.95 3.3-9.26 6.62-11.25 1.98-.66 4.63-.66 9.27 0zm145.06-6.62h-1.32c4.64.65 7.3 2.65 8.62 5.3l-7.3-5.3z"/><path d="M153.14 193.34c-8.6 2-16.56 6.62-21.86 13.25-1.32 1.3-.66 1.98 0 2.64.66 1.32 1.33 1.32 2.65 0 5.3-5.97 11.92-9.94 19.87-11.93l11.26-.65 2-1.98c0-1.33 0-2-2-2l-11.92.67zM53.78 234.4c-.66-1.98-2-3.3-3.97-3.3-1.98 0-2.64 1.32-1.98 3.98 0 2.64.66 3.3 3.3 3.3 2 0 3.32-1.33 2.67-3.97z"/><path d="M131.94 46.96c-1.98-2-5.3-3.32-9.93-5.3-8.6-3.98-19.2-5.96-30.46-7.95L55.1 35.04l-13.24 4.64c6.62.66 13.25 2.65 19.2 5.3-7.94-2.65-16.55-1.32-26.5 3.3l-11.25 7.3 27.83-2.65L67.7 56.9c5.95.65 16.55 5.3 31.8 13.24l32.44-23.18z" fill="#fcce00"/><path d="M135.25 46.96l-1.32-3.32c-8.6-5.96-22.52-9.93-42.4-13.24-19.86-2.65-36.42 0-51.66 6.62-1.32 0-1.32.66-1.32 2.65v.66c0 .66 0 1.32 2 2-5.32 1.3-9.3 3.3-13.93 5.95l-5.3 4.64L20 55.57v1.32c.67 1.98 2 1.98 3.98 1.98 12.58-3.3 24.5-3.3 37.75 0l4.64 1.33c5.96.66 16.56 5.3 31.13 13.25l3.3-.66 33.13-23.86 1.32-1.98zm-66.9 6.62l-5.3-1.33-22.52-2.64 19.2-1.32c2 0 3.33-.66 4-2.65l.65-.67-2.65-3.3-7.3-2.65 36.44-1.98c13.9 2 25.18 5.3 34.45 9.94l-26.5 19.2C82.26 58.9 71.67 54.25 68.35 53.6z"/><path d="M167.05 37.68c4.64-2.65 7.95-6.62 7.95-11.25l-30.47 5.95c-13.9 3.32-25.17 7.95-32.46 13.25-7.95 5.3-13.9 12.58-15.9 21.2-16.55 8.6-26.5 13.25-31.8 14.57l-11.25-1.32H41.86c-2.65 1.32-5.3 3.3-6.63 7.28l-1.98 5.3c-3.3 1.32-5.3 4.64-7.95 9.27-1.98 4.64-3.98 8.6-4.63 13.25l7.28-5.3c5.3-3.3 9.94-5.96 11.92-5.96h11.26c3.98 0 7.95-.66 10.6-3.3C66.37 96.63 73 93.3 81.6 88.68c9.27-5.3 16.56-8.62 21.2-8.62l7.95 1.32 24.5 1.33 29.15 10.6c20.53 8.6 34.44 19.2 42.4 31.12v-12.58c-2-9.93-5.3-17.88-10.6-23.85l4.63 3.98 10.6 11.92c0-5.3-1.33-11.25-5.96-17.88-7.3-13.25-21.2-22.52-41.73-27.16l9.93-6.62c6.63-6.63 11.27-13.92 13.92-21.86-7.3 4.63-14.6 7.28-20.55 7.28z" fill="#fcce00"/><path d="M27.95 109.88c5.3-3.3 9.93-5.96 11.92-5.96h11.26c3.98 0 7.95-.66 10.6-3.3l3.3-2C69.7 92 71.68 85.37 73 77.42l-8.62 3.98-11.26-1.32H41.86c-2.65 1.32-5.3 3.3-6.63 7.28l-1.98 5.3c-3.3 1.32-5.3 4.63-7.95 9.27-1.98 4.64-3.98 8.6-4.63 13.25l7.28-5.3z" fill="#d96038"/><path d="M190.9 31.06v-.66l-.67-2.65-4.63-.66-8.62 4.62 1.33-5.3L177 23.8l-2.64-.66-30.47 5.95c-14.57 3.98-25.84 8.6-33.78 14.58-7.96 5.3-13.92 11.92-16.57 20.53l-29.8 13.9-9.3-1.32c-5.94-1.32-10.58-1.32-13.23 0-5.96 2.66-9.28 7.3-11.26 13.9-3.3 2.66-5.3 5.98-7.95 10.6-2 3.98-4 8.62-4.65 13.25v.68c0 1.33.66 2 1.33 2.65l3.97-.66c8.6-5.97 13.9-9.28 17.9-9.94h5.95c7.94 1.33 13.25-.66 17.88-3.97l18.55-11.93c8.6-4.63 15.23-7.94 19.87-7.94l32.46 2.64 29.14 10.6c19.2 8.6 32.46 18.54 39.74 29.8.67.66 1.33 1.32 3.32.66l2.64-1.98v-4.64l-1.98-13.9 3.97.65 2.64-3.3c0-6.63-2.65-12.6-6.62-19.88-6.63-11.92-19.2-20.53-36.43-26.5 9.26-6.62 15.88-15.23 19.2-26.5zm-21.2-.66l-4.64 4.63c-.66.67-1.32 2-1.32 2.65V39c.66 2 1.32 2.65 3.3 2l13.92-3.32-12.6 13.25-6.6 4.64c-.67.66-1.34 1.32-1.34 3.3 0 1.34.67 2.65 2 3.32 17.88 3.97 29.14 11.9 34.43 23.17h1.33L204.8 92c-.66-3.3-3.97-5.3-7.95-6.63l-2.64.67-1.32 1.98 1.33 2c4.64 6.62 7.96 14.56 9.28 25.16-9.27-9.93-23.2-19.2-41.07-26.5-11.25-5.3-20.52-8.6-25.82-9.26h-1.33l-23.84-1.34-7.28-1.3h-1.32c-5.3 0-13.25 3.3-23.18 8.6C71 90 64.38 94.63 59.75 98.6c-2.65 2-6.63 3.32-13.25 2h-6.63c-3.3 0-7.28 2.64-13.24 5.95 2.65-5.3 5.3-9.27 7.94-11.26l1.33-1.98c1.98-5.3 3.97-8.6 7.28-9.93h9.94l11.92.65c5.3-.66 16.56-5.3 32.46-13.9l2-2c1.97-7.95 6.6-14.57 14.56-19.87 7.28-4.64 17.88-9.27 31.13-12.6l24.5-5.28zm28.48 54.97h-1.32c3.97 1.33 7.28 3.32 7.95 6.63l-6.62-6.63z"/><path d="M151.8 56.9c-9.26 1.3-16.55 5.3-23.17 11.92v3.3l3.3-.66c5.97-5.96 12.6-9.27 20.55-11.25h11.26c.66.66 1.32 0 1.98-1.32l-1.32-2h-12.6zM50.47 92c-.66-2.65-1.98-3.98-3.97-3.98-1.33.67-2.65 2-2.65 3.98s1.32 3.3 3.3 3.3c2.66 0 3.32-1.32 3.32-3.3z"/><path d="M244.55 80.08c-11.26-3.32-23.2-4.64-35.1-3.32l-14.58 2c6.62 1.32 13.25 4.63 18.55 7.94l-26.5-1.33-12.58 5.3 27.82 2.65c4.63.66 9.93 3.32 15.9 5.3 5.95 2 15.9 7.95 29.14 18.55l36.43-18.55C277 92 263.76 85.37 244.55 80.08z" fill="#fcce00"/><path d="M286.94 99.3l-.66-2.66c-7.95-7.95-21.86-13.9-40.4-19.88-11.93-3.3-24.52-4.63-36.44-3.97l-15.23 2.64c-1.98 0-2.64 1.32-2.64 3.3 0 1.34.66 2 2.65 2-5.3 1.32-9.93 2.65-15.23 4.63l-6.62 3.32-1.33 1.97.67 1.33c0 2 1.3 2.65 3.3 2l22.52 1.3 13.9 4.65 5.97 2c4.63 1.97 13.9 7.94 27.8 17.87h3.32l36.44-17.88 1.98-2.65zm-39.08 13.9c-13.25-9.94-22.52-15.25-28.48-17.22l-4.64-2c-7.3-3.3-13.9-5.3-20.53-5.3l-1.32-.66 1.33.67 17.23 1.3c2 0 3.3 0 4.64-1.98l.66-1.32-2-3.3-7.27-3.32c13.24-1.33 24.5 0 36.43 3.3 14.56 3.98 25.82 9.28 33.77 15.24l-29.8 14.57z"/><path d="M281.64 135.05l26.5 14.58c19.2 11.92 32.45 24.5 37.75 37.1l1.32-11.93c0-9.94-2-18.55-6.63-25.17l3.97 3.97 8.6 13.9c.67-5.95.67-11.9-2.64-19.2-5.3-13.9-17.9-25.17-37.1-33.12l9.94-5.3c7.3-4.63 13.9-11.26 17.22-19.2-7.96 3.96-15.24 5.3-21.2 4.63 5.3-1.98 8.6-5.3 9.93-9.93l-31.8 1.33c-13.9 1.32-25.16 3.97-33.1 8.6-9.28 4-15.9 9.95-19.88 18.55l-33.12 9.28-10.6-2.65-10.6-2c-3.3 1.34-5.96 3.32-8.6 6.64l-3.32 4.63c-2.64 1.32-5.95 3.98-8.6 7.95-2.65 3.98-5.3 7.3-5.96 11.93l7.94-3.98c5.97-2.65 9.94-3.98 12.6-3.98l9.93 2 11.93-2c5.3-2.64 11.92-5.95 21.2-9.26 9.93-3.97 17.22-5.96 22.52-5.3l7.95 2.65 23.84 5.3z" fill="#fcce00"/><path d="M163.74 149.63l7.94-3.98c5.97-2.65 9.94-3.98 12.6-3.98l9.93 2 11.93-2 3.3-1.98c5.3-5.3 8.62-11.94 11.94-19.22l-9.94 2.65-10.6-2.65-10.6-2c-3.3 1.34-5.96 3.32-8.6 6.64l-3.32 4.64c-2.64 1.3-5.95 3.97-8.6 7.94-2.65 3.97-5.3 7.3-5.96 11.93z" fill="#d96038"/><path d="M297.54 83.4c-14.58 1.97-26.5 4.62-35.77 8.6-7.95 4.64-14.57 10.6-18.55 18.54l-31.8 9.28-9.26-2.65c-5.3-2-9.94-3.31-13.25-2-5.3 1.34-9.93 5.3-13.24 11.93-3.3 2.66-5.96 5.3-8.6 9.28l-6.64 12.6v.65c0 .65 0 1.98.67 2.65l3.96.66c9.28-5.3 15.9-7.95 19.2-7.95l5.3 1.3 18.56-1.3c3.97-3.33 10.6-5.97 19.87-9.28l20.52-5.3c6.63 2.64 17.23 5.96 32.46 7.94l26.5 14.58c18.54 11.25 29.8 23.18 35.1 35.1l3.3 2 3.32-2 1.33-13.9-.66-5.97.66 1.33c.66.66 1.98 1.98 3.3 1.32l2.66-2.65.65-4.64c0-7.28-1.98-15.23-6.62-21.86-5.96-10.6-15.9-19.2-29.8-26.5 10.6-5.3 18.54-13.24 23.17-22.5v-3.98l-4.63-.68-9.28 2.65 1.98-4.63.66-.67-1.32-1.98-2.65-1.34-31.13 1.33zm14.57 28.47c-1.32 1.32-1.98 2-1.98 3.3 0 2 .67 3.32 1.33 3.32 16.56 6.62 27.16 16.55 30.47 28.48.66-.66.66-.66.66 0l6.62 7.28c-.66-2.65-3.3-5.96-7.28-7.28-1.33-.66-2-.66-2.65 0l-2 2.65.67 1.98c3.98 6.64 5.97 13.93 5.97 22.53v2.65c-7.94-10.6-19.87-21.86-36.43-31.8-10.6-6.6-19.2-11.25-24.5-13.24h-.66l-23.84-5.3-7.3-2.65h-1.3c-5.3-.67-13.26 1.32-24.52 5.95-8.6 3.32-15.24 6.63-20.53 9.28l-13.24.66-7.3-1.34-13.9 4.64c3.3-5.3 6.62-9.27 9.94-10.6l1.32-2c2.65-5.28 5.96-7.93 9.28-8.6l9.27 1.33c3.97 2.65 7.95 3.3 11.26 3.3 5.96-.65 16.56-3.96 34.44-9.92l2-1.32c6.6-14.57 23.17-22.52 50.33-25.17l25.17-1.3-5.96 3.96c-.65.66-1.32 1.32-1.32 2.65V96c0 1.98 1.33 2.64 2.65 2.64l13.9-1.32c-3.3 4.63-7.93 8.6-13.24 11.26l-7.3 3.3zm30.48 35.1c0-.66 0-.66-.66 0 3.97 1.33 6.62 4.64 7.28 7.3l-6.62-7.3z"/><path d="M301.5 111.87c-8.6 0-17.2 3.3-24.5 8.6-.66 1.33-.66 2 0 2.66h2.65c6.63-4.64 13.9-6.62 21.86-7.28l11.27 1.32c.66.66 1.33 0 2-.66 0-1.32 0-2.64-.67-3.3l-12.6-1.33zM195.53 131.74c.67-2.65 0-4.64-2-4.64-1.97 0-3.3 1.33-3.96 3.3-.66 2.67.66 4 2.65 4 2.65.65 3.3-.67 3.3-2.66z"/></g><path stroke-miterlimit="100" d="M364.58 579.58H7.42V7.42h357.16v572.16z" fill="none" stroke="#000" stroke-width="14.84"/></svg>