<svg xmlns="http://www.w3.org/2000/svg" width="372" height="587" viewBox="0 0 372 587"><path fill="#fff" d="M0 0h372v587H0z"/><path fill="#858585" d="M42.05 314.63l-9.53-2.03-27.94 6.12v55.87l20.44 8.82 8.18 1.37 6.13 1.36c5.45 4.1 8.18 7.5 7.5 9.54l-3.4 6.83-2.73 6.8c0 1.38 2.72 4.1 7.5 5.47l12.25 1.34c5.45-1.35 12.26-4.08 19.07-7.5 10.22-4.76 15.68-10.88 17.04-17.02 1.36-4.77 6.8-11.58 15.67-18.4l12.94-8.85 4.1-35.43-17.04-8.17h-3.4l-7.5 2.72-8.18-.7-6.8-7.5c-8.18-6.8-12.95-10.9-15-14.3-.68-2.05-4.1-3.4-9.54-4.78l-11.55 2.04c-2.04.7-2.72 3.4-.68 7.5 1.37 4.77 1.37 6.82.68 8.17l-8.17.68z"/><path d="M40.7 311.9l-8.18-2.03c-4.77 0-14.3 2.04-28.62 6.13-1.36.68-2.04 2.04-2.04 2.73v55.86l1.37 2.7 20.43 9.53 9.54.7 4.1.67 1.35 1.36 5.45 5.46-2.72 5.45c-2.73 4.1-3.4 6.8-3.4 8.85l2.72 4.77c2.04 1.35 4.76 3.4 9.53 4.1l10.9.65 19.76-8.17c10.2-5.46 16.32-11.6 17.7-17.73 2.7-8.17 11.56-16.35 27.92-26.57l.67-2.03 4.8-35.43-2.07-2.72-17.7-8.18-3.4.7-8.87 2.7-3.4.7-4.78-4.1-4.1-4.77-13.63-13.62c-1.37-2.05-4.77-4.1-10.22-5.46l-15.67 1.35c-2.74 2.73-3.42 6.13-.7 12.26l.7 4.1h-7.5zm10.22-11.57l11.57-.68 6.8 2.73 15 14.98 3.4 4.08 6.12 4.78H102l9.55-2.73 14.3 6.8-3.4 32.7c-17.03 9.52-25.9 19.06-28.6 27.92-1.38 5.44-6.15 10.22-15 14.98-6.14 4.1-12.95 6.15-19.08 7.5l-9.54-1.35-6.8-3.4 2.72-5.46 3.4-6.84c.68-3.4-2.04-6.8-7.5-11.57l-1.35-1.37a9.48 9.48 0 0 0-7.5-1.36l-7.5-1.35-18.4-7.5v-51.8l25.22-6.1 6.8 1.35 11.6-.68 2.72-4.78-1.37-6.13c-1.35-2.74-1.35-4.1-1.35-4.78z"/><path d="M110.18 356.88l-25.9-3.4-35.4-4.78-42.25-6.13c-2.05 0-2.73.68-2.73 2.04 0 1.4.68 2.08 2.05 2.08l41.56 5.44 36.14 5.47 25.2 3.4c2.05 0 2.73 0 2.73-1.37.68-1.35 0-2.7-1.37-2.7z"/><path d="M63.86 305.78h-2.72c-1.37.68-2.05 2.04-.7 2.72l8.87 13.63c6.84 10.9 12.3 22.48 17.74 34.75.68.68 1.37 1.36 2.72.68 1.37 0 2.05-1.36 1.37-2.05-4.76-12.9-11.58-24.5-18.4-36.1l-8.84-13.6z"/><path d="M60.45 323.5h-2.72c-1.36 1.35-1.36 2.04-.7 2.72 4.1 4.77 10.92 8.17 21.14 10.22l2.72-1.37c.66-2.03 0-2.72-1.4-2.72-10.2-2.04-17.03-5.45-19.07-8.86zm-25.2-2.06c0-1.35-1.37-2.03-2.73-.67-.7.67-.7 1.36-.7 2.72l8.88 12.24c6.8 8.85 13.62 14.3 18.4 18.4l3.4-.7c1.36-.67.68-2.04-.68-2.72-4.77-3.4-10.9-8.86-17.72-17.7l-8.86-11.6z"/><path d="M22.3 325.54c-.68-1.37-2.04-.7-2.73 0-.68 1.36-.68 2.72.7 3.4 5.44 3.4 13.62 6.82 24.5 10.9l2.74-1.36c0-1.36 0-2.04-2.02-2.73-9.53-3.4-17.03-6.8-23.16-10.2zm30.66 24.53c-.7-.7-1.36-1.37-2.04-.7-17.72 6.82-32.02 10.9-44.3 11.6-1.35 0-2.04 1.35-2.04 2.72l2.05 2c12.94-1.35 27.93-5.43 45.64-12.93 1.37 0 2.05-1.38.7-2.73zm34.74 4.76c-1.36-1.36-2.04-1.36-2.72-1.36-20.44 10.22-34.06 16.35-42.24 17.7-.68 0-2.04 1.37-2.04 2.74l2.72 2.07c8.85-2.04 22.48-8.17 42.92-18.4l1.36-2.72zm15 1.37h-2.74l-16.33 13.6-26.58 20.44c-1.36.68-1.36 1.36-.67 2.72l2.72.68c6.12-4.1 14.98-10.9 27.24-21.12L102 359.6l.7-3.4z"/><path d="M78.85 373.9c-.68 0-2.04.7-2.73 2.05l-1.36 10.22c-2.05 6.8-4.77 12.27-8.86 15-.68 1.35-.68 2.72 0 2.72l3.4.65c3.4-4.1 6.82-9.54 8.87-17.03l2.72-10.9c0-2.05 0-2.73-2.07-2.73z"/><path fill="#858585" d="M322.07 194.73c-2.05 0-4.77 2.73-8.18 8.86l-6.84 9.5c-4.1.7-7.5-2.04-10.9-6.8-1.36-2.05-4.77-2.05-9.54 2.03a22.58 22.58 0 0 0-9.54 12.27c-.7 2.73 0 6.83 1.35 10.9l2.73 8.87c0 6.12-2.74 8.17-8.2 7.5-2.72-.7-4.07-2.06-5.44-5.46l-1.36-10.9c0-3.4-2.73-4.75-6.8-3.4-4.1.7-7.5 2.74-10.9 5.46-2.74 2.04-4.1 5.45-4.78 10.22-.7 5.45 0 10.22 1.36 15.67 2.04 6.8-.68 18.4-9.54 35.43 0 8.18 3.4 15 8.86 20.44 4.77 4.1 11.58 8.2 21.8 11.6 7.5 2.72 21.12 2.03 40.2-3.4 16.34-4.1 26.56-8.2 29.97-10.9 2.04-1.38 3.4-6.83 4.77-15 0-9.54 0-14.3-1.36-15.67l-8.86-2.73c-4.77-.67-7.5-1.35-7.5-2.72-.67-1.35 1.37-3.4 6.14-5.45l9.54-4.1c2.04-1.35 2.72-4.75 2.72-10.9l-.68-10.88-6.8-2.73c-3.42 0-5.46-.68-6.14-2.04 0-1.37.68-3.4 2.72-4.77l6.14-5.43c.68-2.05 1.36-6.82.68-14.3l-2.73-15c0-4.08-4.1-6.13-12.94-6.13z"/><path d="M306.4 210.4c-2.73.68-5.46-1.37-7.5-5.45-1.36-2.05-3.4-3.4-6.13-2.05-3.4 0-6.8 2.05-10.9 5.45-3.4 4.1-6.13 8.18-6.8 11.6-1.38 4.08-.7 8.84 1.35 14.97l2.04 5.45-1.36 4.77H273c-1.35 0-3.4-3.4-3.4-10.9l-.67-2.72c0-2.73-2.05-4.77-3.4-6.14l-10.23 1.37-8.86 4.77c-3.4 2.04-4.76 6.8-5.45 12.26 0 5.45 0 10.9 1.34 17.03 1.36 2.75 0 8.2-2.73 16.38l-6.8 15.67v2.05c0 9.52 3.4 17.02 10.2 23.83 5.47 3.4 12.96 7.5 22.5 10.9 7.5 2.73 21.8 2.04 41.56-3.4 16.35-4.1 27.25-7.5 30.66-10.9 2.72-2.05 4.77-8.86 6.13-20.44v-5.47c0-4.77-.68-8.18-2.05-8.86l-9.52-3.4-5.46-1.37c.68-.67 4.1-2.04 9.53-4.76l4.1-2.04c3.4-1.37 4.08-6.14 4.08-13.64l-1.36-11.58c-1.38-2.04-3.42-3.4-8.87-3.4l-3.4-1.37 3.4-2 5.45-5.46 1.36-6.8-2.02-15-1.36-8.86c0-6.13-4.76-8.86-15.66-8.86-2.73 0-6.8 4.1-10.9 10.9l-4.77 7.5zm-16.35-1.37l4.08-1.36c3.4 6.82 8.18 8.86 12.95 7.5 2.73 0 5.45-3.4 8.85-8.86 3.4-6.1 4.77-8.82 6.14-8.82 7.5 0 10.9.67 10.9 3.4l.68 8.86 1.36 15-.65 3.4-3.4 4.76c-3.4 2.7-4.78 5.44-4.78 6.8v1.37c.7 2.72 3.4 4.1 8.18 4.1l4.1.66 1.35 8.18-2.05 10.24-3.4 2.04c-9.55 3.4-13.64 6.82-13.64 10.22v.67c0 2.73 3.4 4.1 10.9 5.46l6.16 1.35.68 4.78-.68 12.94-3.4 9.53c-3.42 2.04-12.96 5.45-28.63 10.22-18.38 4.77-31.32 5.45-38.82 3.4-8.85-3.4-15.66-7.5-20.43-11.58-4.76-4.77-7.5-10.9-8.17-18.4l6.12-12.93c2.73-7.5 4.1-14.3 4.1-19.08l-.7-4.1-2.04-10.9c0-6.12 2.04-10.2 4.1-12.26 2.72-2.04 4.76-3.4 7.5-4.08l5.43-.68.7.68v3.4l2.04 10.23c1.36 3.4 3.4 5.44 6.82 5.44 3.4.66 6.12 0 8.17-2.07 2.74-1.36 3.4-4.08 3.4-8.18l-2.03-8.17c-2.05-4.1-2.05-8.18-2.05-10.9s2.04-4.78 4.08-6.8l6.15-5.48z"/><path d="M296.18 220.62c0-2.05-1.36-2.05-2.73-2.05-1.36 0-1.36 1.37-1.36 2.73 1.33 10.22 4.74 20.44 8.82 31.34.7 1.36 2.05 1.36 2.73 1.36 1.36-.7 2.04-2.04 1.36-3.4a106.14 106.14 0 0 1-8.84-29.98zM333.65 254c-.68-2.04-2.05-2.04-2.73-2.04l-21.12 4.08-10.2 1.37c-2.06 0-2.74 0-2.74 1.4 0 2.03.68 2.03 2.73 2.03l10.86-.67 21.12-4.1c2.04 0 2.04-.67 2.04-2.03zm-19.75 18.4c0-1.37-.7-1.37-2.05-1.37l-14.3 2.72-8.87.7c-1.36.68-2.04 1.35-2.04 2.7 0 1.38.68 2.06 2.73 1.38l9.53-.68 14.3-2.73c.7-.68 1.37-1.37.7-2.72zm16.35 27.93c0-1.36-1.37-2.04-2.73-1.36l-60.64 7.5c-1.36 0-2.04.67-2.04 2.03l2.04 2.05 27.25-2.73 34.06-5.44 2.03-2.05z"/><path d="M328.88 289.43c-.7-1.37-1.36-1.37-2.73-1.37-3.4 1.37-8.85 4.1-15.67 8.18l-9.54 6.14c-.68 1.35-1.35 2.72-.68 3.4h3.4l8.87-5.45a87.1 87.1 0 0 1 14.98-8.17c1.4-.7 2.08-1.37 1.4-2.73zm-49.73 4.77l.68-2.73a115 115 0 0 1-17.03-32.7l-3.4-15-2.05-2.03c-1.37 0-2.05.68-1.37 2.73 0 2.72.68 8.17 3.4 15.66 3.42 12.27 9.55 23.16 17.04 34.06h2.73zm6.8-37.48c0-1.36-1.35-1.36-2.72-1.36-.68 0-1.36 1.36-.68 2.73 2.73 9.5 4.77 14.95 6.82 16.32h3.4c.68-.7.68-1.37 0-2.04-2.72-2.74-4.1-7.5-6.8-15.7z"/><path d="M324.1 207c-1.35-.7-2.72 0-2.72 1.35-6.13 15-14.3 31.34-23.16 49.06-19.07 34.1-37.47 55.9-55.2 66.8-1.34.67-1.34 1.36-.66 2.72.67 1.37 2.04 1.37 2.72.7 18.4-10.9 37.48-33.4 55.86-67.46l23.85-50.4c.66-1.38 0-2.06-.7-2.73z"/><path fill="#858585" d="M119.05 142.27l-15.68 1.36 8.86 9.54c6.82 5.45 13.63 8.86 20.44 8.86l27.93 1.36c4.1.65 10.9 3.4 19.08 9.5l-8.18-15c-4.1-2.02-8.17-4.07-12.26-5.43l-10.22-6.14c-4.77-2.05-8.18-3.4-11.6-3.4l-18.37-.7z"/><path d="M153.1 146.36c-6.12-4.1-11.57-6.14-15.66-6.14l-8.17-.68-27.25 2.05-1.37 1.33.68 2.04 9.54 10.2c7.5 6.14 15 8.87 21.8 8.87l26.57 2.05h1.36c4.77.67 10.22 4.07 17.04 8.83h3.4l.68-3.4-7.5-14.98-.67-1.37-13.62-5.45-6.82-3.4zM108.15 145h20.44l8.84.68c3.4 0 7.5 1.36 12.94 4.76l19.75 9.54 2.73 5.45c-5.45-3.4-9.54-4.77-12.27-4.77h-.68l-27.25-2.04c-7.5 0-15.67-4.1-24.53-13.63z"/><path fill="#858585" d="M273.7 139.54c6.13-8.17 8.85-15 6.13-18.4-.68-2.03-4.1-3.4-9.54-3.4l-12.3 3.4-10.9 4.78-10.9 3.4c-7.5 0-14.98 1.36-22.48 4.77-2.72 2.02-5.45 5.43-6.8 10.9l-5.46 10.2c-6.8 5.44-12.95 15-17.03 29.3l6.8 1.35 4.1-7.5c3.4-5.44 6.8-9.53 10.9-10.9l14.3.68 15 2.05c3.4-1.37 6.13-3.4 8.85-6.8 3.4-4.8 6.8-7.5 9.53-9.56l12.27-7.5 7.5-6.8z"/><path d="M275.74 140.9c7.5-9.53 9.54-16.35 6.82-21.12-2.05-3.4-6.14-4.76-12.27-4.08-4.8 0-8.9.68-13.66 3.4l-4.1 2.05-16.34 4.77c-8.16 0-16.33 2.04-23.83 5.45-4.1 2.04-6.82 6.8-8.17 13.62l-4.76 8.15c-6.14 4.76-12.27 14.98-18.4 30.66v2.05l2.04 1.36 7.5 2.06c1.36 0 2.72 0 2.72-2.05 4.1-8.85 8.86-15 14.3-17.02l12.28.67 15.66 1.36a20.46 20.46 0 0 0 11.6-8.16l8.16-8.17 10.22-6.15 10.22-8.86zm-60.64-4.76c6.82-2.73 13.63-4.77 21.12-4.77l18.4-5.45 4.1-2.05 11.56-2.72c4.1-.7 6.14 0 7.5 1.36 1.37 2.76-.68 7.5-6.13 15l-8.86 7.5-10.25 6.8-10.2 8.88-8.2 6.82-12.93-2.06h-16.36c-6.13 2.05-10.9 8.18-14.98 17.72l-2.06-.68c4.77-12.27 9.54-21.13 14.3-25.2 2.74-1.37 5.46-5.46 6.82-10.9 2.05-4.78 3.4-8.2 6.13-10.23z"/><path d="M268.93 128.65l-2.73-.7c-8.18 5.46-16.35 9.54-25.2 12.27-10.23 3.4-19.76 9.54-29.3 17.7l-12.95 12.28c-.68.68-.68 2.04.7 2.73l2.7-.7 11.6-10.9c9.53-8.16 19.07-14.3 28.6-17.02 9.55-2.7 17.72-7.46 25.9-12.9l.68-2.73z"/><path fill="#FFE000" d="M222.6 55.06c6.8-10.22 12.26-19.07 15.67-27.93-9.54 3.4-19.08 9.54-28.6 17.04-19.1 15.66-30.67 32.7-32.7 51.1 17.02-6.82 32.7-20.45 45.63-40.2z"/><path d="M239.63 25.08h-2.72c-10.2 4.1-19.73 10.22-29.95 17.72-19.08 15.67-29.97 32.7-32.7 52.46 0 .68 0 1.36.68 2.04h2.74c17.7-6.8 33.38-20.44 47-39.5a136.7 136.7 0 0 0 15-30v-2.7zM204.9 51.66a137.8 137.8 0 0 1 27.9-19.76c-13.63 29.3-31.34 48.37-52.46 58.6 3.4-13.64 10.9-26.58 24.53-38.84z"/><path fill="#D96038" d="M118.36 60.52l-32.02-10.9 23.84 25.88c20.44 17.03 39.52 25.2 57.9 24.52-10.2-16.34-26.55-29.28-49.72-39.5z"/><path d="M168.1 102.07l2.72-1.36-.68-2c-10.22-16.37-26.57-30-49.74-40.2L87.02 47.6l-2.72.67.68 2.73 25.2 27.24c19.08 17.03 38.84 25.2 57.9 23.84zm-49.05-21.8a155.26 155.26 0 0 1-25.9-25.9c32.02 8.87 55.87 23.18 70.18 42.93-14.3-.68-29.3-6.8-44.3-17.03z"/><path fill="#D96038" d="M91.8 102.75c-14.32 4.77-25.9 9.54-36.12 15l42.24 1.36c30.66-2.02 51.78-10.2 63.36-25.2-18.4-3.4-42.23 0-69.5 8.87z"/><path d="M163.33 95.26V93.2l-2.05-1.35c-18.4-3.4-41.56-.67-69.5 8.17-13.6 4.78-25.88 9.55-37.46 15.68l-1.36 2.73L55 119.8l44.3 1.35c29.96-2.04 51.76-10.22 64.03-25.9zm-54.5 20.44c-14.3 2.04-29.3 2.04-44.3.68 36.12-16.36 66.78-23.17 91.3-20.44-10.22 9.54-25.9 16.35-47 19.76z"/><path fill="#D96038" d="M173.55 41.44c-2.73-10.22-6.14-19.76-10.22-26.58a80 80 0 0 0-6.8 27.94c-2.74 21.8 1.34 40.2 11.56 55.87 8.84-17.03 10.2-35.43 5.43-57.23z"/><path d="M164.7 13.5l-1.37-1.36-2.73 2.04a92.5 92.5 0 0 0-6.8 29.3c-2.74 21.8 2.03 40.2 12.93 56.55l1.36.68 2.7-1.33c5.45-10.22 6.13-21.12 2.73-33.4.68 8.87-2.05 17.73-6.14 26.58-6.13-10.9-9.54-24.52-9.54-38.14 0-10.22 2.05-21.8 5.46-33.4 7.5 15 10.9 29.3 10.9 43.6 3.4-6.8 3.4-14.3 2.04-22.47-2.72-10.9-6.13-20.44-11.58-28.6z"/><path fill="#D96038" d="M236.9 80.27c10.9-6.8 19.76-13.62 26.57-20.44l-33.38 4.1c-24.56 6.12-42.27 16.34-53.16 31.33 18.38 2.04 38.14-2.73 59.95-15z"/><path d="M263.47 57.8l-34.74 4.08C204.2 68 185.8 78.23 174.23 93.9v2.04l2.04 1.36c19.08 2.73 39.5-2.04 61.32-14.98l27.9-20.44.7-2.73-2.75-1.36zm-41.55 10.9a142.33 142.33 0 0 1 34.74-6.15l-28.6 19.76c-16.36 8.2-32.03 11.6-46.34 10.9 9.54-10.9 23.17-18.36 40.2-24.5z"/><path fill="#FFE000" d="M196.7 46.2c1.37-8.85 1.37-17.03-.67-23.84a81.65 81.65 0 0 0-16.35 19.76c-9.54 16.35-12.27 33.38-6.82 51.78C185.8 80.96 194 65.28 196.7 46.2z"/><path d="M194.67 21c-6.82 4.77-11.6 11.58-17.04 19.76-6.8 11.58-8.17 23.84-4.77 35.42 0-18.4 7.5-34.74 21.8-49.05V36c0 19.74-6.8 37.46-20.43 52.45l-1.37-11.6c-2.72 6.14-3.4 11.6-2.72 17.73l1.36 1.36h2.73c13.62-13.63 22.48-29.3 24.52-48.37 1.36-10.22 1.36-18.4-.68-25.2l-1.36-2.05-2 .68z"/><path fill="#FFE000" d="M140.16 44.84L117 23.74a167.5 167.5 0 0 0 10.22 31.32c9.54 23.17 23.16 37.47 40.87 44.96-2.07-18.38-11.6-36.78-27.96-55.18z"/><path d="M170.82 99.35c-2.73-19.08-11.58-37.47-27.25-55.18L119.05 21c-.7-.68-2.05-.68-3.4 0 0 .68-.7 1.36-.7 2.73a174.95 174.95 0 0 0 10.22 34.06c10.22 22.45 24.53 37.44 42.24 44.26h2.76l.68-2.73zm-38.15-37.47c-5.45-10.22-8.86-21.12-11.58-32.7 24.5 20.43 38.8 42.24 43.6 66.08-12.3-6.8-23.2-17.03-32.05-33.4z"/><path fill="#FFE000" d="M103.37 77.55l-31.34-1.37 29.3 18.4c22.48 10.9 42.24 12.94 59.95 4.77-14.98-10.9-34.06-19.08-57.9-21.8z"/><path d="M161.97 102.07l1.36-2.05-.7-2.03c-14.98-12.3-34.05-19.8-57.9-23.2l-32.7-1.36c-.68 0-1.36.68-2.04 1.36l.65 3.4 30.66 19.1c22.5 10.2 42.93 12.26 60.65 4.76zm-51.8-6.13a119.58 119.58 0 0 1-31.32-17.7c31.33 0 56.54 6.8 76.98 20.43-13.62 4.76-28.62 3.4-45.65-2.73z"/><path fill="#858585" d="M183.77 131.37c.68-8.86 1.35-17.72 3.4-25.9l2.05-10.2-8.18-1.37c-6.13 0-10.22 2.04-12.95 6.8l-7.5-1.35c-6.15 0-11.6 1.36-16.37 4.77l8.86 10.9 12.94 17.7c1.36 3.42 7.5 31.35 17.72 83.8 10.9 57.92 17.7 92.67 21.8 106.3l33.38 116.5c17.7 60.63 30.66 98.1 38.15 113.08l-11.6 34.07h23.17c18.4-42.24 29.98-73.58 35.43-93.33 3.43-9.54 10.24-30.66 23.2-65.4l23.83-70.18-4.1-59.27c-39.5 126-66.76 203.7-81.75 233-22.48-56.6-42.24-117.2-59.28-181.94a3243.54 3243.54 0 0 1-30.65-138.3c-8.16-43.6-11.57-69.5-11.57-79.7z"/><path d="M367.72 295.56L365 298.3c-37.48 115.8-64.06 191.43-79.72 226.17-22.48-59.27-40.88-117.86-56.55-175.1-10.9-42.9-20.44-87.87-29.98-134.88-8.17-43.64-12.26-70.9-12.26-81.8v-1.35c.66-8.86 1.33-17.03 3.4-25.2l2.02-10.23v-.68l-1.36-2.73-11.58-.66c-4.78 0-8.87 2.04-11.6 5.44-8.85-2.05-17.03-.7-24.5 4.77l-1.38 2.04.68 1.36 8.18 10.9 12.95 18.4c1.37 2.04 6.8 28.6 17.04 78.34 10.9 57.9 18.4 95.4 23.16 110.4l7.5 27.92c31.34 112.4 52.45 179.18 62.67 200.98l-10.9 32.7v2.74l2.7 1.37h23.17l2.04-2.03c18.4-42.92 30.67-73.57 36.8-93.34l19.77-57.9c13.62-38.14 22.48-63.36 26.56-76.98v-1.36l-3.4-59.28-2.7-2.73zm-196.9-193.5c3.4-4.76 7.5-6.8 15-4.76-2.05 11.6-4.1 22.48-4.78 34.07v1.36c0 12.26 4.1 39.5 12.26 81.76 8.86 47 19.08 91.94 30.66 135.55 10.22 40.2 23.17 81.75 38.83 126.7l19.74 55.87c.68 1.37 1.35 1.37 2.72 1.37l2.04-1.37c13.64-27.25 40.2-100.82 78.36-219.37l2.73 44.3-26.6 76.97-20.44 57.9-34.74 91.3H269.6l10.23-30.66v-2.03c-10.22-18.4-30.66-85.85-64.05-200.98l-7.5-27.94c-4.07-16.35-12.25-52.46-23.15-109.7-9.54-50.4-15-77.66-17.03-81.06l-19.1-25.9c5.45-3.4 11.58-4.07 18.4-2.72l3.4-.68z"/><path fill="#858585" d="M119.05 204.27c-10.22 3.4-15 7.5-13.63 13.62 2.72 8.83 2.72 14.96-.7 17.7-2.7 2.03-3.4 4.76-4.07 6.8-.7 2.73 1.36 6.13 4.08 8.17 9.54 8.17 12.95 14.3 10.9 19.07-2.04 2.73-4.76 4.77-8.85 6.13-5.45.68-8.17 2.05-8.86 2.73-1.36 2.05-1.36 5.45 0 9.54.7 4.78 3.4 8.18 5.45 10.23 3.4 2.7 12.27 6.1 25.9 10.2 16.34 4.77 31.33 6.82 44.28 6.82 12.26 0 20.44-3.4 23.16-12.28l.7-11.6c5.46-8.84 8.18-17.02 8.18-23.83l-2.04-9.55c-.68-2.74 0-6.14 1.37-9.55 5.44-17.02 3.4-26.56-6.82-30.65-4.08-1.37-8.17.67-11.58 6.8l-8.2 10.23-8.17-6.82-9.54-10.2-10.24-1.37c-4.08 0-8.17-.7-10.9-2.06l-10.2-8.2c-3.42-2.03-6.83-3.4-10.23-2.03z"/><path d="M127.9 202.9l-9.54-1.36c-5.45 2.05-9.53 3.4-11.58 4.77-3.4 3.44-4.77 7.5-3.4 12.3 2.04 8.17 2.04 12.94 0 15-3.42 2.7-5.46 6.1-5.46 10.2 0 3.4 2.04 6.8 5.45 9.53 8.18 6.15 11.58 12.28 9.54 15.7-.65 2.03-4.05 3.4-9.5 4.07-3.4 1.36-6.8 2.72-7.5 4.1-1.36 2.03-2.04 4.76-1.36 9.52 2.04 6.8 4.1 11.58 7.5 13.63 4.08 2.72 12.93 6.8 26.56 10.9 17.02 4.77 31.33 7.5 44.96 7.5 10.9 0 17.7-3.42 22.48-8.86 2.72-4.1 4.77-8.2 4.77-14.3l-.7-4.1c5.48-8.2 8.2-16.37 8.2-23.87l-1.35-9.53-1.37-3.4 1.37-5.46c2.04-6.14 3.4-11.58 3.4-16.35 0-8.2-3.4-14.3-10.9-17.06-6.8-2.72-12.26.7-17.7 10.9l-3.42 5.46-6.8-6.8-10.22-9.55-10.2-1.35-10.23-2.74-4.76-3.4-8.17-5.46zm-8.18 4.1c2.73-.7 7.5.67 12.95 5.44l5.45 4.1c2.72 2.03 7.5 3.4 12.94 3.4l8.18.68 8.17 7.5c4.1 6.8 8.9 9.53 11.6 9.53 2.74-.68 5.47-2.72 8.2-8.86l4.1-7.5h6.1c8.17 2.7 9.54 11.56 4.1 25.9-1.38 5.42-1.38 9.5 0 12.23l1.35 8.18c0 6.8-2.73 13.63-8.18 21.8v7.5c0 4.08-.67 7.5-3.4 9.54-3.4 4.77-9.54 6.14-17.7 6.14-12.96 0-27.26-2.06-42.94-6.83-13.62-4.1-21.8-7.5-25.88-10.22-2.73-1.37-4.1-4.1-4.77-9.54v-5.46l5.45-2.03c6.8-2.04 10.22-4.1 12.26-7.5 2.04-3.4 1.36-8.17-2.05-12.93l-8.86-9.55c-2.05-1.36-3.4-3.4-3.4-4.77a8.12 8.12 0 0 1 3.4-6.13c3.4-3.4 4.1-10.22 2.04-20.44-1.37-4.1 2.72-7.5 10.9-10.2z"/><path d="M122.45 216.53c-.68-1.37-2.05-1.37-3.4 0-.7 0-.7 1.36 0 2.04l22.48 30.66c19.07 23.84 40.2 43.6 62.68 59.27l2.75-.68v-2.72c-22.48-15.67-42.92-34.75-62-57.92l-22.48-30.65z"/><path d="M183.08 285.35l14.3-50.42c.7-1.37.02-2.05-1.35-2.73-1.36 0-2.04 0-2.73 1.36l-15 51.1c.7-1.37 2.06-2.04 2.74-1.37 1.36.65 2.04 1.34 2.04 2.03zM153.8 228.1c0-2.04-.7-2.72-2.05-2.04-1.37.7-2.05 1.37-1.37 2.05l2.05 14.34 2.04 21.8c0 .68.68 1.36 2.05 1.36.68.67 1.35 0 2.04-.7l.68-.67a144.9 144.9 0 0 0 8.18-25.9l-2.05-2.04c-1.36-.7-2.04 0-2.04 2.03l-5.45 17.03-4.1-27.25zm-32.7 14.32c-.7-1.36-2.06-1.36-2.74 0-1.36 1.36-1.36 1.36 0 2.73l8.85 6.8c6.85 3.42 15 6.14 23.2 6.82 1.37.68 2.04 0 2.04-1.36.7-1.34 0-2-2.04-2-7.5-1.38-14.3-3.4-21.13-7.5l-8.17-5.46zm6.12 28.6c-.68 0-1.36 0-2.05 1.38 0 1.35 0 2.04 1.37 2.72l15 3.4 33.37 4.1 2.75-2.06-2.72-2.03-32.7-4.1-14.98-3.4z"/><path fill="#858585" d="M155.15 424.32l-12.26 7.5c-8.9 6.8-13.66 11.58-15.7 14.3-2.05 3.4-2.7 7.5-1.36 12.27l3.4 9.5-.68 7.5c-.68 3.4 0 6.13 2.04 6.8l11.6.7 8.17 1.35-10.22 7.5c-7.5 6.13-9.54 12.27-7.5 19.76 1.37 2.73 3.42 4.1 5.46 4.1s4.8 1.37 5.47 4.8l3.4 14.3c.68 5.43 2.73 8.84 4.78 9.52l5.44 4.1c2.03 1.35 4.07 0 6.8-2.06l7.5-7.5c2.72-2.72 4.76-4.08 6.8-4.08l8.86 2.7c2.73 0 4.77-1.36 7.5-3.4 7.5-10.2 12.26-19.76 13.62-27.25V493.8c0-3.4 2.03-4.76 4.08-4.76 2.72 0 4.77 2.72 6.13 6.8.7 5.46 3.4 8.86 6.8 10.9l16.37 5.46 14.3-2.03c4.1-3.4 7.5-8.18 10.22-14.3 2.04-6.14 2.04-10.23 0-12.95-6.14-4.78-9.55-10.22-10.23-14.3l-.68-10.23-2.73-10.25c-5.45-10.22-10.22-17.03-15-20.44-8.17-6.12-20.43-9.52-37.46-10.2-17.7-1.36-32.7.7-44.96 6.8z"/><path d="M200.12 414.1c-18.4-.68-33.38 1.37-46.33 7.5-3.44 2.73-8.2 5.44-13.66 9.54-8.17 6.12-12.94 10.22-15 13.62-3.4 5.45-3.4 11.6 0 19.76l.7 4.1v4.08c-.7 6.13 0 10.22 4.08 12.25l11.6.7h1.35c-8.87 6.8-13.64 12.93-13.64 21.1l1.36 5.46c1.35 4.8 3.4 6.84 6.8 6.84 2.05 0 2.73.68 3.4 2.05l2.74 11.56 2.04 8.87c1.37 2.74 2.73 4.77 4.77 5.46l3.4 2.7 5.46 2.06c1.37 0 4.1-.68 6.8-3.4l6.83-6.82c1.37-2.72 4.1-4.08 5.45-4.08l4.78 1.36 6.82.7 6.8-3.4c8.2-10.24 12.96-20.46 14.32-29.3v-8.2l.68-6.12.68-.68 2.73 4.77c2.73 6.8 5.45 10.9 9.55 12.25 14.3 7.5 25.2 8.86 32 3.4 7.5-4.76 11.6-11.57 12.96-20.43 1.38-4.1.7-7.5-.66-9.54l-2.73-3.4-7.5-10.22-.67-6.8c0-6.82-2.04-12.27-3.4-15-5.45-10.22-10.22-17.7-15.67-21.1-8.18-6.83-21.12-10.23-38.83-11.6zm-43.6 12.94c10.9-6.12 25.2-8.17 42.92-6.8 16.34.68 28.6 4.08 36.1 10.2 4.1 2.06 9.54 8.87 14.3 18.4 1.37 2.73 2.74 6.83 2.74 12.95l.68 6.8c.68 4.1 3.4 8.84 9.54 14.3l1.36 2.03.68 5.46c-1.36 7.5-5.45 12.95-10.9 17.7-4.77 4.1-14.3 2.06-27.25-4.07-2.07-.68-4.8-4.1-6.16-8.87-2.05-6.12-4.78-8.84-8.18-8.84l-4.77 2.03c-2.05 1.37-2.7 4.78-2.7 10.22v8.18c-.7 7.5-4.8 16.35-12.97 25.2l-3.4 2.06-4.1-.7-5.44-.67c-4.1-1.35-7.5 1.37-10.9 5.46l-5.47 6.12-2.72 2.04-2.7-1.36-4.1-2.7c-2.05-.68-2.73-4.1-3.4-10.9l-3.4-12.27c-2.06-3.4-4.1-5.44-8.2-5.44-1.35 0-2.03-1.4-2.03-2.75-2.05-5.46 0-11.6 6.13-17.7l9.56-6.15 1.36-2.04v-2.03c-2.7-2.73-6.12-3.4-12.26-2.73h-8.17l-2.07-2.06.7-4.1.67-6.8-1.37-4.76a18.64 18.64 0 0 1-2.72-9.54l1.4-4.77c2.7-4.1 11.56-11.6 27.24-21.13z"/><path d="M199.44 415.47l-1.37-2.05c-1.36 0-2.72.68-2.72 1.37-4.1 32-8.17 51.1-14.3 57.9-8.87 10.9-16.36 30.63-21.8 58.6-.7 1.32 0 2.7 1.35 2.7l2.73-1.38c4.76-27.25 12.26-46.3 21.12-57.22 4.08-4.1 7.5-15.66 10.9-33.37l4.1-26.57z"/><path d="M175.6 489.05c-.7-1.37-1.37-2.05-2.05-1.37l-12.95 4.77c-8.85 4.1-14.3 8.18-17.03 12.94 0 1.34 0 2.02.68 2.7l2.73-.68c2.04-3.4 6.8-6.8 12.94-10.22l14.3-5.44c1.37 0 2.05-1.36 1.37-2.72zm4.08-8.18c-.68-1.36-2.05-2.04-2.72-.68-2.05 0-2.05 1.33-.7 2.7l4.78 10.9c3.4 9.54 6.13 18.4 7.5 28.6l2.72 1.37 1.36-2.73c-1.36-9.55-4.77-19.1-8.17-28.62l-4.77-11.58z"/><path d="M187.18 499.95c-1.37-.7-2.73 0-2.73.68l-3.4 6.13c-1.37 5.45-3.42 10.22-3.42 15.67 0 1.37.68 2.04 2.05 2.04 1.36 0 2.04-.68 2.04-2.05 0-4.76 1.36-9.53 2.73-13.62l3.4-6.13c.68-.7 0-2.04-.67-2.72zm7.5-57.9c0-.7 0-1.38-2.06-1.38-8.17 1.37-19.07 5.45-34.06 11.6l-19.76 7.48c-1.36 1.36-1.36 2.04-1.36 2.73.68 2.04 2.05 2.72 2.72 1.36l19.76-8.17c14.3-5.46 25.9-9.55 34.07-10.9.65-.7 1.32-2.05.65-2.73z"/><path d="M184.45 444.08c-1.37-1.36-2.73-.68-3.4.68-8.87 15-16.36 24.53-23.18 27.94-.68.68-.68 2.03-.68 2.72.65 1.36 2.02 2.04 3.4.68 6.8-4.1 15-13.62 23.83-29.3 1.36-1.35.68-2.04 0-2.72zm32.02-19.76c-.7-1.36-1.37-2.04-2.73-.68-1.36.68-1.36 1.37-1.36 2.73l36.1 72.2c.7 1.38 1.37 1.38 2.73 1.38 1.4-.7 1.4-1.37 1.4-3.4l-25.2-49.07-10.9-23.16z"/><path d="M226 442.04c-1.35 0-2.04 0-2.04 2.04l-.68 14.3a126.8 126.8 0 0 0 3.4 28.62c.7 2.05 1.37 2.05 2.73 2.05l1.4-2.72a126.9 126.9 0 0 1-3.4-28.63l.67-12.94c0-2.04-.68-2.72-2.05-2.72zm-21.8-17.72c0-2.04-.68-2.72-2.72-2.04-.68 0-1.37.68-1.37 2.04l1.4 21.13c0 16.34 0 30.65-2.73 43.6-.68 1.36 0 2.72 2.05 2.72l2.05-2.04c2.04-12.94 2.72-27.94 2.72-44.97l-1.36-20.44z"/><path fill="#FFE000" d="M146.98 360.96C106.1 367.78 87.7 378 91.78 392.3c3.42 15 23.86 15 62 1.36 38.16-14.3 57.24-24.53 55.2-31.34-.7-7.5-21.8-7.5-62-1.36z"/><path d="M183.77 383.44c19.75-10.2 28.6-17.03 27.93-21.8l-4.77-4.08c-10.22-3.4-28.62-3.4-54.5 0-29.3 4.08-48.37 10.22-57.9 19.76-4.78 4.76-6.83 9.53-5.46 15.66 2.73 11.6 17.03 15 42.24 9.54 15.7-3.4 33.4-9.54 52.5-19.07zm-17.72-22.48L207.6 363c-1.35 3.4-13.6 10.23-36.78 20.44-24.52 11.6-44.96 17.04-59.95 17.04-9.54 0-15.67-2.73-17.72-8.86v-2.05c0-5.44 4.77-9.53 12.27-14.3 13.63-7.5 34.06-12.26 60.63-14.3z"/><path fill="#FFE000" d="M208.97 362.32c2.05-6.13-17.7-15.66-57.9-25.88-40.9-10.9-61.32-9.54-64.05 3.4-2.04 13.63 16.35 22.48 57.9 26.57 41.57 4.1 62.7 2.75 64.05-4.06z"/><path d="M176.96 369.82c21.8 0 33.37-2.72 34.74-6.8 0-2.06-.68-3.42-2.73-5.46-7.5-6.82-24.52-14.3-51.78-21.8-29.3-8.86-50.44-10.22-62-6.82-6.8 2.72-10.24 6.13-10.24 10.9-2.05 10.9 9.54 19.76 35.42 24.53l56.55 5.45zm-9.55-26.57c24.56 8.85 38.18 14.3 39.55 19.07L164 365.05c-28.6-1.36-49.73-4.76-64.04-11.58-6.8-3.4-10.9-7.5-10.9-11.6v-1.34c.68-4.78 6.14-7.5 15.67-8.18 15-.7 36.1 2.72 62.68 10.9z"/><path fill="#FFE000" d="M215.1 311.9c-3.4-33.37-10.9-49.04-24.52-47-12.95 1.36-15 18.4-5.45 50.42 9.54 32.7 17.03 47.7 23.84 47 6.8-1.36 8.86-18.4 6.13-50.4z"/><path d="M215.78 303.06c-3.4-28.62-12.26-42.25-25.2-40.88-5.46.68-9.54 4.08-10.9 8.85-4.1 9.54-2.72 25.2 3.4 47 5.45 19.1 11.58 32.72 19.08 42.26 2.73 2.7 5.45 4.73 6.8 4.05 4.78-.68 7.5-8.18 8.87-21.8.68-13.63 0-26.57-2.05-39.5zm-24.52-35.43c6.13-1.37 11.58 4.77 15.67 16.34 4.77 12.27 6.8 27.94 6.13 47.02-.68 17.7-1.36 27.22-4.77 28.6-3.4-.7-8.2-9.55-15-27.27-7.5-18.4-11.6-34.06-11.6-47.7v-2.7c.7-8.88 3.4-14.32 9.54-14.32z"/><path fill="#D96038" d="M268.24 267.63c-8.17-6.82-21.1 6.8-39.5 40.2-18.4 32.7-25.22 51.77-20.45 55.18 5.42 4.1 18.4-9.5 40.2-40.2 21.1-29.95 27.9-48.34 19.72-55.15z"/><path d="M257.35 272.4c4.08-3.4 7.5-4.77 9.53-2.73l1.36 3.4c3.4-2.04 4.1-4.76 1.37-7.5-3.4-2.7-7.46-.67-12.23 6.83z"/><path d="M261.43 307.82c4.1-6.8 4.77-12.94 4.1-19.76-5.46 13.63-15 28.62-29.3 47-14.3 17.73-22.5 25.9-26.57 25.9-1.37-4.08 3.4-17.03 15-40.2 11.56-24.52 23.15-40.87 32.7-48.36-4.78 0-8.2 2.04-11.6 5.45-10.22 12.26-20.44 28.6-29.98 49.05-10.22 22.48-12.94 34.74-8.85 38.15 4.77 3.4 15-4.76 31.34-24.52l23.16-32.7z"/><path fill="#FFE000" d="M232.14 309.87c9.54-37.47 8.17-57.23-4.1-58.6-12.26-2.04-19.75 16.36-23.83 53.83-3.4 36.78-2.02 56.54 4.1 57.9 6.8 2.05 14.3-15.66 23.86-53.13z"/><path d="M228.73 248.55c-10.9-1.36-18.4 10.22-23.84 33.4-3.44 15.65-4.8 32.68-4.1 51.76 0 19.8 2.7 30.7 7.5 32.05 1.33.68 3.4 0 5.42-2.72 6.13-6.8 12.95-23.15 19.76-47.68 7.5-27.25 8.85-45.65 5.44-56.55-2.04-6.14-5.45-8.87-10.22-10.23zm6.8 19.08v5.44c0 15-3.4 32.7-10.88 55.2-7.5 21.1-12.95 31.33-16.36 32.7-2.76-2.05-3.4-15-2.76-38.15.7-24.53 3.4-43.6 9.54-57.24 3.4-8.17 8.17-12.94 12.94-11.58 4.1 0 6.8 4.77 7.5 13.63z"/><path fill="#D96038" d="M196.03 311.9c-14.3-32-25.9-45.64-35.43-42.23-10.22 4.08-5.45 21.12 12.95 51.77 17.7 29.98 29.97 43.6 35.42 41.57 6.13-2.7 2.05-19.73-12.94-51.1z"/><path d="M159.24 267.63c-2.72 1.36-5.45 3.4-5.45 8.17-1.4 8.86 4.05 25.2 17 46.33 12.26 20.44 23.17 33.38 31.34 40.2 2.73 2.72 6.13 3.4 8.17 2.04 1.38 0 2.06-1.36 2.74-4.08 1.37-8.2-2.73-23.2-12.26-45-10.23-22.5-19.77-37.48-28.63-44.3-4.77-3.4-8.85-4.76-12.94-3.4zm-.68 15.66l-.7-5.47c0-2.73 1.38-4.78 2.74-5.45 4.1-1.38 9.54 1.34 15.67 8.84 8.18 11.6 16.35 27.25 23.84 47 7.5 18.4 10.25 29.3 8.2 32.04-4.1 0-12.94-9.56-25.2-27.95-13.62-20.43-22.5-36.8-24.52-49.05z"/><path fill="#FFE000" d="M208.97 362.32c3.4-5.44-8.17-20.44-36.1-46.32-27.26-25.9-44.97-34.75-51.1-27.25-6.82 8.17 5.45 23.16 35.43 46.32 30.65 22.5 47.7 31.34 51.77 27.25z"/><path d="M129.94 284.66c-4.08-.7-8.17 0-10.9 3.4-6.13 7.5 2.73 21.13 25.9 40.88l36.1 25.2c17.03 9.55 26.57 12.96 29.98 8.87.68-1.34.68-3.4 0-5.42-2.73-8.86-14.3-22.5-33.4-40.88-21.1-19.1-36.78-30.67-47.68-32.03zm-6.8 6.13l12.94.65c12.94 6.13 27.93 17.72 46.32 36.8 17.04 17.7 25.2 28.6 24.53 32.02-3.4 1.34-15.67-4.8-36.1-17.73-21.13-15-36.12-27.94-44.3-39.52-2.72-4.08-4.08-7.5-4.08-9.54l.68-2.7z"/><path fill="#D96038" d="M208.3 361.64c3.4-5.45-13.63-16.35-50.43-32.7-36.78-17.03-57.9-20.44-62.67-10.9-4.1 8.86 12.94 20.44 51.78 32.7 38.15 12.27 58.58 16.36 61.3 10.9z"/><path d="M204.2 365.73c4.1 0 6.13-1.36 6.82-2.72l-.7-5.42c-4.76-6.82-19.74-17.03-46.3-28.62-27.27-12.94-47.02-19.07-59.3-17.7-6.1 0-9.52 1.36-11.57 5.44-1.36 2.72-1.36 6.12 1.37 8.85 5.44 8.85 22.48 17.7 51.78 27.25 26.56 9.52 45.64 13.6 57.9 12.93zm-34.06-28.6c21.8 11.57 34.07 19.06 35.42 23.16-4.76 2-20.43-.7-46.32-8.2-28.62-8.2-47-16.37-57.23-25.2-3.4-2.07-4.74-4.8-4.74-6.8l.68-1.4c1.37-2.7 6.82-3.4 14.3-2.7 15 2.7 34.76 9.52 57.92 21.1z"/><path fill="#FFE000" d="M145.6 350.07c-42.23-2.05-64.7 2.03-66.07 12.25-.68 10.22 20.44 14.3 63.36 12.27 42.9-1.4 64.7-5.5 65.4-11.6.65-6.8-20.47-10.9-62.7-12.95z"/><path d="M208.3 358.92c-6.14-5.45-25.22-8.85-55.88-10.22-32.7-2.73-54.5-1.36-66.08 4.1-5.45 2.7-8.17 5.44-8.86 9.52 0 2.73.7 4.78 4.1 7.5 8.16 6.8 28.6 8.85 61.3 7.5 30.67-1.37 51.8-4.1 62.68-9.54l5.46-4.78-2.73-4.08zm-49.06-5.45c26.57 2.72 42.24 5.45 45.65 8.85-4.1 4.1-21.15 6.82-50.45 8.86l-66.08-3.4c-4.1-1.37-6.83-3.4-6.15-5.46.68-2.72 4.1-5.44 12.27-7.5 14.3-4.07 36.1-4.07 64.7-1.35z"/><path fill="#D96038" d="M149.02 377.32c-38.15 16.34-55.18 28.6-52.46 38.15 3.4 10.22 23.84 5.45 60.64-14.3 36.1-19.77 53.14-32.7 51.1-38.17-2.05-6.12-21.8-1.36-59.28 14.32z"/><path d="M211.02 362.32c-2.05-5.44-16.35-3.4-41.56 4.78-19.76 6.8-36.1 14.3-50.42 22.47-5.45 3.4-8.86 7.5-10.9 12.95 11.58-9.54 29.98-19.07 55.2-27.93 23.84-8.2 37.46-12.3 42.22-10.9-2.04 5.4-14.98 14.95-39.5 29.26-25.9 15-44.97 23.84-57.92 24.53 4.1 3.4 9.54 3.4 15.67 1.36 15.7-5.45 33.4-15 55.2-27.93 22.5-14.3 33.4-23.84 32.04-28.62zM95.2 416.82c1.36 4.1 5.45 4.78 12.26.7-4.77.68-7.5 0-8.17-2.73-.7-2.76 2-7.5 8.82-12.3-10.22 4.77-15 8.86-12.94 14.3z"/><path fill="#FFE000" d="M208.3 363c3.4 6.82 21.1.7 54.5-17.02 32.7-17.04 45.64-32.7 38.14-45.65-6.8-12.95-24.52-7.5-53.8 16.35-28.63 24.52-42.25 39.5-38.85 46.33z"/><path d="M303.67 298.97c-2.73-4.1-6.8-7.5-12.95-7.5-10.9 0-26.56 7.5-45.64 24.53-17.03 14.3-29.3 27.25-36.1 38.15-3.42 4.77-4.1 8.17-2.05 10.22l23.84-1.36c11.6-4.06 23.17-9.5 34.75-15.64 15.67-8.18 27.25-17.03 33.38-25.2 6.8-8.87 8.18-16.36 4.77-23.17zm-4.08 2.72l.65 4.74c0 5.45-3.4 11.58-10.22 18.4-10.9 10.2-26.58 19.07-47.02 27.93-18.37 7.48-29.3 10.9-32.7 8.84 0-4.07 8.2-14.3 25.2-30.65 18.4-18.4 34.1-29.3 47.04-32.7 8.17-3.4 14.3-2.04 17.03 3.4z"/><path fill="#FFE000" d="M208.3 363.7l55.86 2.03c36.78-6.13 54.5-16.35 53.14-29.3-.68-13.62-19.76-14.3-55.87-1.36-36.1 12.27-53.82 21.8-53.14 28.62z"/><path d="M205.56 363.7c1.37 6.12 15.68 8.84 44.3 6.12 20.42-2.72 36.78-6.13 49.04-10.9 15-6.13 21.8-13.63 21.12-22.48 0-4.78-2.72-8.18-6.8-10.22-9.55-4.1-26.58-2.73-51.1 6.13-21.8 6.8-38.16 14.3-49.74 23.16-4.1 3.44-6.82 5.48-6.82 8.2zm37.47 1.35l-32.7-2.04c1.37-3.4 13.63-10.2 36.8-20.4 25.2-10.23 43.6-14.3 57.22-13.64 6.8.7 10.9 3.4 10.9 7.5v.68c0 6.8-6.13 12.26-18.4 17.03-14.3 6.14-32 9.54-53.82 10.9z"/><path fill="#FFE000" d="M208.3 363.7c-1.37 6.12 17.02 12.93 55.17 20.43 38.84 7.5 58.6 6.13 60.64-4.1 2.76-9.53-16.32-16.34-55.15-20.43-39.52-3.4-59.96-2.04-60.64 4.1z"/><path d="M248.5 378c-23.85-5.46-36.8-10.9-38.17-14.3l44.3-2.74c27.93 2.05 47 5.45 59.26 10.9-2.76-4.76-6.84-8.17-15-9.54-15.7-4.1-34.08-6.13-55.9-6.13-23.83 0-36.1 1.34-37.46 6.8-1.35 6.8 15 13.6 49.74 21.8l40.2 5.44c19.06 1.36 29.3-2.05 31.33-9.54.7-4.1-2.72-6.12-9.53-6.12 3.4 1.34 4.76 2.03 4.76 4.75v.7c-.7 3.4-4.77 4.76-13.63 6.12-15 .68-34.75-2.04-59.95-8.17z"/><path fill="#D96038" d="M208.3 363.7c-3.4 6.12 11.58 17.03 44.95 34.06 34.07 17.03 53.83 20.43 59.96 10.22 6.16-10.9-8.83-21.8-44.94-34.75-36.78-12.27-56.54-15.67-59.95-9.54z"/><path d="M206.25 362.32c-3.4 5.46 8.85 17.03 35.43 32.03 13.62 7.5 25.2 12.94 36.78 17.03 19.76 6.82 32.02 6.13 36.8-2.05 1.36-2.04-.7-3.4-3.4-5.45l-.7 3.4c-2.04 4.1-8.85 4.78-20.44 2.73-14.3-3.4-31.33-10.9-51.77-23.13-18.4-10.9-27.93-19.07-28.62-22.48 3.4-2.06 17.72-.7 42.25 6.8 25.88 7.5 43.6 15.67 53.82 23.85 0-4.1-2.05-7.5-6.8-10.22-14.33-8.17-32.72-14.98-54.52-20.43-23.16-5.46-36.8-6.8-38.83-2.06z"/><path fill="#FFE000" d="M208.3 363.7c-4.78 3.4 3.4 18.38 25.88 43.6 21.8 25.88 37.47 34.74 44.97 27.93 7.5-6.14-.7-21.13-26.57-43.6-24.53-22.5-39.52-32.03-44.3-27.94z"/><path d="M253.94 389.57c-16.36-15.66-29.98-25.2-39.5-27.93-3.42-2.04-6.15-2.04-7.5 0-4.1 2.73-1.38 11.6 8.16 25.9l16.36 20.44c23.16 27.25 40.2 37.47 49.05 29.97 2.75-2.72 4.1-6.13 2.75-10.22-1.36-9.54-10.9-22.48-29.3-38.16zm-43.6-24.52c3.4-1.36 13.62 5.45 29.97 18.4 17.74 14.3 29.3 27.25 36.14 37.47l2.73 9.53-2.05 3.4c-2.7 2.73-8.16 1.38-16.34-4.76-11.58-7.5-22.48-19.1-35.43-35.46-10.9-15.66-16.35-25.2-15-28.6z"/><path fill="#D96038" d="M206.93 412.06c4.77 32.02 12.95 46.33 23.16 44.3 9.5-1.38 10.2-17.73 1.34-49.07-9.54-30.7-17.03-45-23.17-44.3-6.82 1.35-6.82 17.7-1.37 49.04z"/><path d="M225.32 384.13c-6.8-16.35-12.94-24.53-17.7-23.17-4.1.68-6.14 8.17-6.14 21.8 0 10.9 1.36 21.12 3.4 32.7 6.14 31.35 14.3 45.65 25.9 43.6 5.44-.67 6.8-6.8 3.4-16.34.68 7.5-1.36 11.57-4.77 11.57-4.06.66-7.46-2.75-11.55-12.28-5.45-11.6-9.54-27.25-10.9-46.33-2.04-18.4-1.37-28.6 1.36-29.98 3.4.68 8.86 10.22 15.67 27.93 7.5 19.76 10.9 34.75 10.9 47 4.1-3.4 4.77-8.84 3.4-14.97a207.35 207.35 0 0 0-12.94-41.58z"/><path fill="#D96038" d="M157.2 392.98c-29.98 23.84-40.2 40.88-32.03 49.06 8.18 9.53 25.2-.7 51.1-28.62 25.2-28.6 36.1-45.64 32.02-50.4-4.8-4.78-21.15 4.76-51.1 29.96z"/><path d="M182.4 371.18c-12.26 8.17-24.53 17.03-35.42 26.58-23.85 22.47-31.34 37.47-23.17 46.32 2.76 3.4 6.84 4.1 12.3 3.4 10.9-2.72 25.9-14.3 44.28-35.42 17.03-19.08 26.57-34.06 29.97-43.6 1.37-2.73 1.37-5.45-.67-6.82-2.73-2.72-11.6 0-27.26 9.54zm24.53-6.13c.68 4.08-6.13 15-21.8 33.4-15.67 20.42-30.66 34.05-42.92 40.86-7.46 4.8-12.9 4.8-14.96 2.07l-2.05-5.44c0-2.72 2.04-6.8 4.77-11.57 7.5-12.27 21.8-25.9 41.55-40.2 19.77-14.3 30.67-20.44 35.44-19.08z"/><path fill="#FFE000" d="M173.55 405.25c-17.72 32-22.5 50.42-12.95 55.86 8.86 4.8 20.44-9.5 34.07-43.6 14.3-33.35 19.07-51.75 13.62-54.5-5.48-3.4-17.06 10.9-34.77 42.27z"/><path d="M206.25 393.66c6.13-19.75 7.5-30.65 2.72-33.37-4.08-2.08-10.9 4.05-21.8 19.72-9.54 13.62-14.98 21.12-14.98 23.16-7.5 11.6-12.3 22.5-15 32.02-4.8 14.98-4.1 23.84 2.02 27.25 4.1 2.72 6.8 0 8.85-7.5-2.05 3.4-4.1 4.77-6.82 3.4-1.36-.68-2.72-3.4-2.72-6.8l1.36-8.18c3.4-12.96 10.9-30 23.84-49.75 11.57-19.07 19.75-28.6 23.84-29.3 1.36 3.4-1.36 16.36-9.54 39.52-7.5 22.48-16.35 38.16-24.52 47.7 4.76 0 9.53-3.4 12.94-10.23a238.7 238.7 0 0 0 19.75-47.7z"/><path d="M172.2 453.62c.67-.68 1.35-1.36 1.35-2.05-1.37 2.73-2.73 3.4-5.46 3.4 2.02.7 2.7 0 4.1-1.35z"/><path fill="#FFE000" d="M208.97 360.96c4.77 4.77 17.72-2.04 40.2-20.43 21.8-17.72 29.98-30.66 22.48-38.15-6.8-7.5-20.44-.7-39.5 20.43-19.77 20.47-27.26 33.4-23.18 38.18z"/><path d="M259.4 298.97c-6.83 2.72-13.64 6.8-21.8 14.98a137.13 137.13 0 0 0-22.5 26.58c-8.17 12.26-10.2 19.07-7.5 22.48 3.42 3.4 10.9.7 23.17-6.1 10.22-6.8 19.76-13.63 28.62-21.8a18.6 18.6 0 0 0 5.42-12.95c-6.82 8.85-17.02 17.7-30.65 26.55-12.26 8.2-20.44 12.27-23.16 10.9-.7-2.7 2.74-10.2 11.6-22.47 10.2-13.63 19.76-22.5 29.97-29.3 8.18-6.13 13.63-6.82 17.04-3.4l.7 2.72c4.77-2.04 5.45-4.1 2.7-6.14-3.4-3.4-7.47-4.74-13.6-2z"/><path fill="#FFE000" d="M208.3 361.64c0 6.14 13.62 11.6 41.55 16.36 28.6 4.76 42.93 2.04 43.6-8.18 1.37-10.22-12.94-16.35-40.87-16.35-28.62-.68-43.6 2.04-44.3 8.17z"/><path d="M228.05 352.1c-14.3 1.37-21.12 4.78-21.8 9.54-.7 4.77 6.13 8.86 19.75 12.95 12.27 3.4 23.17 6.1 35.43 6.8 21.8 2.03 34.07-1.38 34.75-11.6.68-10.2-10.22-16.35-33.4-18.4-11.57-1.35-23.83-1.35-34.73.7zm6.8 20.44c-15.66-4.08-23.15-7.5-23.83-10.22.68-2.72 9.53-5.44 24.52-6.13l41.56 2.7c9.54 2.04 15 5.45 14.3 10.9-.68 4.1-5.44 6.8-15.66 7.5-11.58.7-25.2-.7-40.88-4.78z"/><path fill="#FFE000" d="M217.15 398.44c10.9 21.8 21.12 29.98 29.3 24.52 8.85-5.45 6.13-18.4-8.86-36.8-15-19.75-25.24-27.24-30-24.52-5.46 2.73-2.06 15.68 9.53 36.8z"/><path d="M245.76 392.98a97.43 97.43 0 0 0-20.44-23.85c-8.17-8.84-14.98-12.25-18.4-9.53-4.08 2.72-4.76 9.53-.67 20.44 2.72 9.53 7.5 18.4 12.26 27.25 10.9 17 21.15 23.13 30 17 8.18-4.77 7.5-15.67-2.72-31.34zm-21.8-19.75a125.3 125.3 0 0 1 20.44 26.56c5.45 10.9 6.13 17.7 1.36 21.1-5.45 3.4-11.58-.7-19.76-10.9-5.45-8.86-10.9-18.4-14.3-29.3-3.4-10.2-4.1-15.67-2.73-17.03 2.05-.7 6.8 2.7 15 9.53z"/><path fill="#FFE000" d="M187.18 407.3c-7.5 31.33-6.14 48.37 3.4 51.1 10.22 3.4 17.03-12.28 21.12-44.98 3.4-33.38 2.04-50.4-4.1-51.78-6.12-2.04-12.93 13.63-20.42 45.65z"/><path d="M213.06 365.73c-1.36-3.4-2.73-6.13-4.77-6.13-1.4-.68-3.4 0-5.48 1.36-5.45 6.14-11.58 19.77-16.35 40.88-6.14 22.48-8.2 39.52-4.78 49.73 1.35 5.45 4.1 8.18 8.17 9.54 4.1.7 6.8 0 10.22-3.4 6.12-6.1 10.9-21.8 13.6-44.26 2.05-21.8 2.05-37.47-.67-47.7zm-5.45-2.04c2.75 2.7 3.44 13.6 2.75 34.72-1.36 22.48-4.77 38.82-9.53 49.73-3.4 6.8-6.12 9.53-9.53 8.17-4.1-1.36-6.14-6.8-6.14-17.03-.68-12.94 2.72-28.6 8.86-47.7 6.12-17.7 10.2-27.24 13.6-27.92z"/><path fill="#FFE000" d="M163.33 374.6c-27.94 13.6-39.52 25.88-34.75 34.73 4.77 8.87 20.44 4.77 45.65-12.26 26.57-17.72 38.15-29.97 34.74-34.75-2.72-6.13-17.7-2.03-45.64 12.27z"/><path d="M139.48 392.3c9.54-8.17 22.5-15.67 40.2-22.48 15.66-6.13 25.2-8.85 27.93-6.8.7 3.4-6.8 10.9-21.8 22.47-14.96 12.24-28.6 19.73-40.2 23.8 4.1 2.06 8.9 2.06 14.34-1.34 10.9-5.46 23.16-13.63 34.75-23.85 13.6-10.9 19.75-18.4 17.02-23.15-2.03-4.1-9.53-4.1-21.8 0-10.2 3.4-19.75 8.16-29.97 12.94-9.54 4.77-17.7 9.54-23.84 15.66-9.54 7.5-12.27 15-9.54 21.13 2.72 4.76 7.5 4.1 15.66-1.38-6.1 2.05-9.52 2.05-11.57-1.35l-.68-2.73c0-3.4 2.73-8.18 9.54-12.95z"/><path fill="#FFE000" d="M208.97 360.96c5.46-4.77-.68-16.35-17.03-34.06-15.67-18.4-27.93-22.5-35.42-14.3-8.18 8.84-2.73 20.43 17.03 34.74 19.07 14.3 31.34 19.07 35.42 13.63z"/><path d="M168.1 307.82c-5.46-2.04-10.23 0-13.63 3.4-4.1 4.1-4.1 8.2-2.72 14.32 2.04 6.12 6.12 11.58 12.94 17.7 8.15 7.5 16.32 12.95 26.54 17.05 10.22 5.4 17.03 6.1 19.76 2.7 3.4-3.4 1.37-10.2-4.1-20.45-5.43-8.86-11.56-17.03-19.06-23.84-7.5-6.8-13.62-10.22-19.76-10.9zm-10.23 6.8c2.73-3.4 8.18-4.07 13.63-1.35l12.95 8.86a94.95 94.95 0 0 1 19.07 23.85c4.1 7.5 5.45 11.58 4.1 13.62-1.37 1.36-6.14.7-14.32-3.4-8.85-4.1-17.03-9.54-25.2-16.35-8.18-7.5-12.27-13.63-12.27-19.76 0-2.08.7-4.1 2.04-5.5z"/><path fill="#D96038" d="M208.97 360.96c6.8 1.36 12.95-9.54 18.4-32.02 5.45-23.16 4.1-35.43-4.77-37.47-8.17-1.36-14.3 9.53-17.7 33.38-3.42 22.5-1.38 34.75 4.07 36.1z"/><path d="M221.92 294.2c2.04 0 3.4 1.36 4.08 4.1 2.73 6.8 2.73 17.02-1.35 30.64-3.4 13.63-7.5 23.16-12.27 27.94l-2.05 2.04c-2.04 0-3.4-4.77-4.08-12.26-.7-8.2 0-17.72 2.04-27.94.65-5.45 2.7-10.22 4.06-13.62-4.1 2.04-7.5 6.8-8.86 12.94-2.03 10.2-2.7 19.75-2.03 28.62.68 10.22 3.4 16.34 7.5 17.03 2.72 0 5.45-.7 7.5-4.1 4.07-4.1 7.48-11.6 10.9-22.5 3.4-10.9 4.76-21.1 4.76-29.3l-.68-10.2c-2.05-5.47-4.77-8.2-8.86-8.2-3.4-.67-5.47 2.05-4.8 8.2.7-2.74 2.73-3.4 4.1-3.4z"/><path fill="#D96038" d="M242.36 360.3c20.43-6.15 29.97-12.96 27.25-20.45-3.4-7.5-14.3-7.5-34.04.68-19.07 8.85-27.93 15.66-26.57 20.43l33.4-.67z"/><path d="M271.65 339.16c-1.36-3.4-4.1-5.45-8.18-6.13-7.5-1.37-17.03.68-29.3 6.13-12.25 4.77-20.43 10.22-25.2 15-2.04 3.4-2.72 6.13-1.36 8.16.7 2.05 2.75 3.4 6.16 4.1 6.8.68 16.35 0 28.62-3.4 13.62-3.42 22.48-8.87 26.57-13.64l3.4-6.8-.68-3.42zm-8.85-1.36c2.72.68 4.08 1.36 4.08 2.73 1.36 1.35.7 2.73-1.36 5.45-4.1 4.77-12.27 8.85-24.53 12.26-11.6 3.4-20.47 4.77-26.6 3.4-2.04-.67-2.72-.67-2.72-1.35l1.35-2.76c4.1-4.77 11.6-8.86 22.48-14.3 12.28-4.78 20.45-6.82 27.27-5.46z"/><path fill="#FFE000" d="M232.8 390.26c19.77 14.3 32.04 17.03 37.5 8.18 6.12-8.18-2.06-18.4-23.86-28.62-21.12-10.22-33.38-13.63-37.47-8.85-3.4 5.44 4.77 14.98 23.84 29.3z"/><path d="M207.6 367.1c3.42 6.8 10.9 14.98 21.8 23.16 12.28 9.53 21.8 14.3 30 15 6.12.67 10.2-1.38 12.93-4.78 4.77-8.18.68-17.03-12.94-25.9-8.2-5.45-18.4-10.9-30-14.3-11.6-4.1-19.1-4.1-21.8-.68-1.37 2.04-1.37 4.1 0 7.5zm12.95 8.85c-6.8-6.82-10.22-11.58-8.85-12.94 1.36-2 6.8-1.34 17.7 2.07 11.6 3.4 20.45 8.18 29.3 14.3 9.55 7.5 12.95 13.63 9.55 17.72-2.05 3.4-5.45 4.1-10.9 3.4-4.1-.7-8.18-2.7-12.27-5.45-9.54-4.77-17.7-11.58-24.53-19.08z"/><path fill="#FFE000" d="M195.34 391.62c-3.4 20.44-1.35 32.02 6.14 32.7 8.18.7 12.95-9.53 14.3-30.66 2.05-20.43-.68-31.34-6.8-32.7-5.46-.67-10.23 9.54-13.63 30.66z"/><path d="M213.06 373.9c1.37 7.5 1.37 16.36 0 25.2l-4.1 15c5.47-2.04 8.2-6.8 8.87-14.3.68-8.86.68-17.04 0-25.2-.68-10.23-3.4-15-8.17-15.7-2.05 0-4.77.7-6.82 4.1-2.72 3.4-4.77 10.23-7.5 18.4-2.04 8.86-4.08 17.03-4.08 25.2 0 5.46.68 10.22 2.73 13.63 1.33 4.1 4.05 6.13 7.46 6.8 4.08.7 6.13-2.7 5.45-9.52-1.36 3.44-2.03 4.8-4.76 4.1-1.36 0-2.72-.66-4.1-3.4-2.72-6.12-2.72-14.3 0-27.24 2.74-11.6 5.46-20.44 8.87-25.2l2.05-2.05c2.05 0 2.73 3.4 4.1 10.2z"/><path fill="#FFE000" d="M169.46 343.93c-25.9-4.77-38.84-1.36-38.84 10.22 0 12.26 13.63 17.7 40.2 17.03 25.9 0 38.84-3.4 38.15-10.22 0-6.13-13.63-11.58-39.5-17.03z"/><path d="M208.3 366.4a5.6 5.6 0 0 0 3.4-5.43c0-4.78-7.5-8.87-23.17-14.3-14.3-4.8-27.93-6.82-39.5-6.82-15 1.35-21.82 6.12-20.45 14.98 0 5.46 2.73 9.54 8.85 12.95 8.87 4.76 21.13 6.8 37.48 5.45 15.7 0 26.6-2.73 33.4-6.82zm-17.72.7a85.8 85.8 0 0 1-34.75.68c-15-1.37-22.48-6.14-23.16-13.63 0-4.77 4.1-8.17 12.94-8.86 10.94-1.4 23.88.66 38.87 4.75 14.3 4.76 21.8 8.17 22.48 10.9-.68 2.04-6.13 4.76-16.35 6.13z"/><path fill="#D96038" d="M177.63 371.18c-17.7 11.58-24.52 19.76-20.44 26.58 4.75 6.12 15.64 2.72 32-10.22 16.34-12.95 23.16-21.13 19.75-26.58-2.72-4.77-13.63-1.36-31.34 10.22z"/><path d="M204.9 376.63c6.8-7.5 8.84-13.62 6.8-17.03l-18.4.7c-7.5 3.4-15 6.8-21.8 12.24-12.26 8.2-17.03 15.68-12.94 21.12 0-4.1 5.45-10.2 15.67-17.7 7.5-5.45 15-9.55 22.48-11.6 6.16-2.04 10.25-3.4 10.9-1.35.7.7-.65 4.1-5.42 9.56l-18.4 17.03c-6.13 4.1-11.57 6.8-16.35 7.5l-8.16-.7-.68-2.73c-2.74 2.73-4.1 4.1-2.74 5.45 2.04 2.75 5.45 4.8 11.58 3.43 5.46-1.36 11.6-4.76 19.1-9.54 6.8-5.44 12.94-10.22 18.4-16.35z"/><path fill="#FFE000" d="M224.65 360.96c0-2.72-1.37-5.45-4.1-8.17-3.4-2.75-6.8-3.44-11.58-3.44-4.08 0-7.5.7-10.22 3.4-3.4 2.73-4.08 5.46-4.08 8.18 0 3.4.67 6.14 4.08 8.86a16.76 16.76 0 0 0 10.22 3.4l11.58-3.4c2.73-2.7 4.1-5.44 4.1-8.85z"/><path d="M221.92 350.75c-3.4-2.05-7.5-4.1-12.95-4.1-4.08 0-8.17 2.05-11.57 4.1-3.4 3.4-5.46 6.8-5.46 10.22 0 4.08 2.05 7.5 5.46 10.2 3.4 2.74 7.5 4.1 11.57 4.1 5.46 0 9.54-1.36 12.95-4.1 3.4-2.7 5.45-6.12 5.45-10.2 0-3.4-2.05-6.82-5.45-10.23zm-3.4 17.03c-2.74 2.04-5.46 2.72-9.55 2.72-3.4 0-6.13-.68-8.17-2.72a7.5 7.5 0 0 1-4.1-6.82c0-2.04 1.37-4.77 4.1-6.8 2.04-1.37 4.76-2.06 8.17-2.06 4.1 0 6.8.7 9.54 2.05a8.27 8.27 0 0 1 3.44 6.8c0 2.74-.68 5.46-3.4 6.83z"/><path fill="none" stroke="#000" stroke-width="3" stroke-miterlimit="100" d="M370.6 585.26H3.9V2.74h366.7v582.52z"/><path stroke-miterlimit="100" d="M367 582H5V5h362v577z" fill="none" stroke="#000" stroke-width="10"/></svg>