<svg xmlns="http://www.w3.org/2000/svg" width="372" height="587" viewBox="0 0 372 587"><path fill="#fffaf0" d="M0 0h372v587H0z"/><path fill="#858585" d="M128.54 166.4l-9.96-4.66c-4.65-2-7.97-3.32-11.3-2-2 0-5.3 2-9.96 4.65l-9.96 5.3-28.55 5.32c-3.3 1.33-.66 3.32 6.65 8.63l11.3 2.66c5.3 2 9.3 3.33 10.6 5.32l6 6.64 7.3 4.65 9.3.67 6.63 1.33 6.64 5.32c2.66 2.65 7.3 4.65 11.96 5.3 5.3.68 9.96-.65 15.94-4.64l5.97-5.98 12.6 15.28 4.66-10.63c-6.64-7.3-9.96-13.28-12.62-17.93l-5.3-14.6c-2.67-6-5.32-9.3-7.98-10.63h-19.92z"/><path d="M123.22 161.07c-6.64-3.98-12.6-5.3-15.94-4.64-3.3.66-7.3 3.32-11.95 5.97l-7.97 4-29.22 5.96c-2 .67-2.65 1.33-2.65 3.33-.68 2.64 1.98 5.96 8.62 10.6l9.3 2c5.98 1.33 10.62 3.32 11.95 5.3l2.66 2.67c3.98 4.64 7.3 7.3 11.95 9.3l9.96.66 5.3.66 2.67 2.65c5.32 4.65 10.64 7.3 17.28 8.63 7.3 1.33 14.6-2 21.9-9.3l10.64 13.3 2 .65 1.98-1.33 5.3-11.3-.65-2.65c-5.98-7.3-9.96-12.6-11.95-17.26l-2-5.32c-4.64-12.6-8.63-19.92-12.62-20.6l-12.6-.65h-8.64l-5.32-2.66zm4 8.64h20.57c2.65 0 5.97 6.65 9.96 17.27l2 5.32 11.28 17.25-2.66 5.98-9.3-12.62c-.66 0-1.32-.65-2-.65l-2.64.66c-5.32 7.98-11.96 10.64-19.26 9.97-4.65-1.33-9.96-3.32-13.28-6.64l-4.65-3.32-7.3-1.32-7.97-1.33c-3.33-.66-6.65-3.32-9.97-7.3l-1.98-3.32c-2.66-2-7.97-4.65-15.94-5.98l-6.64-2-5.98-4.64 27.23-5.3 9.95-5.3c4-2.67 7.3-4 9.96-4.66 2 0 6 1.33 11.3 3.98l7.3 4z"/><path d="M109.28 177l-16.6 1.34c-1.33 0-2 0-2 2l2.66 1.32h15.27c11.3 0 19.94 2 24.58 5.3l21.92 19.27c1.32.66 2.65.66 3.32 0 1.32-1.33 1.32-1.33 0-2.66-6.64-7.3-13.95-13.94-23.24-19.92-5.32-3.98-14.6-5.98-25.9-6.64z"/><path d="M136.5 184.98c-.66-1.33-1.32-2-2.65-2l-9.96 3.33-15.3 3.33c-1.3.66-1.3 2-1.3 2.66l2.64 1.3 25.24-6.63c1.32 0 1.32-.66 1.32-2zM144.47 176.35c0-1.33-.66-2-2-1.33-1.32 0-1.98.67-1.98 2l5.97 19.9c0 1.34 1.32 1.34 2 1.34 1.98 0 1.98-1.33 1.98-2l-5.98-19.9z"/><path fill="#858585" d="M276.62 212.87l10.63-5.98-17.27-13.95c-5.97-3.98-11.95-6.64-16.6-8.64l-11.3.68-9.3 4.65h-9.95c-5.3 0-8.63.66-11.95 2-2.66 1.98-6.64 6.63-11.95 13.94l-6.64 10.62L175 229.47l-2 15.27 24.58-18.6c3.98 5.32 8.63 7.97 12.6 8.64 4 1.32 7.98 0 10.64-3.33 5.3-4 9.96-7.97 15.94-10.63 5.97-2.66 11.3-4.65 15.93-4 8 1.34 15.3 0 23.92-3.97z"/><path d="M288.58 208.9c1.32-1.34 1.32-2.67.66-4-4.65-4.65-9.96-9.3-17.93-13.95-5.96-3.98-11.28-7.3-17.25-9.3-4-1.32-9.97 0-16.6 3.33l-5.98 1.33-5.98.67c-6-.66-11.3 0-15.28 2.66-5.32 2.66-11.96 10.62-19.93 25.23l-16.6 13.28-1.34 1.33-2 13.95v1.33l.67 1.33c1.33 1.32 2 1.32 3.32 0l23.25-16.6c5.3 5.3 9.96 8.63 14.6 8.63 4 0 7.3-1.98 11.3-4.64 3.98-3.98 9.3-7.97 13.94-10.62 5.98-2.66 10.63-3.32 14.6-3.32 7.98 2 15.95.66 25.24-3.32l11.3-7.3zm-35.86-21.93c3.98 1.33 8.63 3.32 14.6 7.3 6.65 4 11.96 7.98 15.95 11.96-11.3 7.3-21.25 9.96-29.9 8.63-5.3-1.33-11.28 0-17.92 3.32-5.3 3.32-11.3 6.64-15.94 11.3l-6.63 3.32c-4.64 0-8.63-3.33-13.28-7.98h-3.33l-19.92 13.3 1.33-6.65 16.6-13.3v-.65c7.3-12.62 13.28-21.25 18.6-23.25 2.65-1.32 7.3-2.65 12.6-1.98l7.32-.68 6.64-2c6.64-3.3 10.62-3.3 13.28-2.65z"/><path d="M269.98 203.57l-2-2-33.86 3.33c-5.97.67-13.94 4.65-23.9 10.63l-13.95 9.3c-1.33 1.32-1.33 1.98 0 3.3h2.66l12.62-8.62c9.96-6.63 17.92-9.95 22.57-11.28l33.87-2 1.98-2.65z"/><path d="M222.83 198.26h-2.65c-5.98 4-9.3 9.96-11.3 18.6-.65 1.32 0 2.65 1.34 2.65l2.65-1.32c1.33-7.97 4.65-13.28 9.96-16.6v-3.32zM256.04 192.95c-1.33-1.33-2-1.33-2.66-.66-6.64 3.97-11.95 7.95-15.94 12.6-.66.67 0 1.33.67 2 1.33 1.32 2 1.32 2.66 0l13.95-11.3 1.34-2.65z"/><path fill="#858585" d="M297.88 268h-10.63c-1.33 0-3.32 1.32-4.65 3.98l-6.64 7.3-11.3.66-12.6 1.33c-5.32 4-9.3 9.3-12.62 15.27-12.62 8.64-18.6 18.6-17.93 29.23 1.33 5.97 2.66 9.96 5.98 13.94l15.94 2.67 20.6 5.3c3.3 1.34 5.96 4 6.63 7.98l2 11.95c1.32 2.65 5.3 4.65 11.95 5.97l12.6.67 7.98-5.3 7.97-6.65 6.64-1.34h6.63c2.66-1.33 4-3.32 5.98-6.64.67-3.32 2-5.3 3.33-5.3l6.64 1.3c3.32 1.34 6.64 2.67 9.96 2.67 5.98 0 12.62-4 19.26-11.96v-51.8l-14.62-5.98c-6.64-3.32-10.62-5.3-13.94-5.3-3.33 0-5.98 1.32-8.64 3.3l-7.3 6.65c-2 3.33-4.65 4-7.97 3.33l-11.3-3.32c-2.65-1.32-3.98-3.3-3.98-4.64l.67-8.63c0-3.32-2-5.3-6.64-6.64z"/><path d="M303.85 268c-3.98-3.33-9.96-4.66-16.6-3.33-2.66.67-4.65 2.65-7.3 6.64l-5.98 5.32-7.97 1.33-15.28 1.33c-4.64 2.66-9.3 7.97-13.28 15.27-11.3 7.97-17.26 16.6-18.6 25.9v3.32c0 6.64 2 13.28 7.3 17.94l1.34.67 15.27 2.66 20.6 5.97 3.3 2.65 1.34 5.98 1.98 8.64c1.33 3.98 6.64 6.64 13.95 7.96l13.94.66 9.96-6.65 6.65-5.97 4.64-.67 7.97-.65c3.3-1.32 5.97-3.98 7.3-8.63l2-3.32 3.97 1.33 11.96 3.32c6.64 0 13.28-4.65 21.25-12.62v-53.8l-1.33-2.65-11.95-4.64c-8.64-4-13.95-5.98-17.27-5.98-3.32 0-6.64.66-9.96 2.66l-7.3 7.3c-2 2-3.33 2.66-5.32 2.66l-7.3-2.66-6.65-2 .67-1.98v-7.3c0-2.66-.66-5.32-3.32-6.65zm-3.32 3.98l2 2.65-1.33 5.97c0 2 0 4 .66 5.32l5.3 3.98 4 1.33 9.3 2.65c3.3.67 6.63-1.32 9.3-3.98l5.97-6.64c2-2 4.64-2 7.3-2s7.3 1.34 15.28 5.32l10.63 4.65v49.14c-6.64 6.64-11.95 9.96-16.6 9.96l-9.3-2.65-8.63-1.33c-1.33 1.33-3.32 2.66-4.65 5.98l-4 5.3-5.3.68-8.63 2-7.97 5.3-6.64 5.32h-12.6c-5.32-.67-8.64-2.65-9.97-5.3l-1.33-6.65-2-7.97c-.65-2.66-3.3-4-6.63-5.32-7.3-3.32-18.6-5.98-35.2-7.97-3.32-4.64-5.3-9.28-5.3-13.93v-2.66c.66-7.3 6.63-15.26 16.6-22.56l.66-.67c3.32-6.64 6.64-10.63 11.95-13.95l11.3-1.32 12.6-1.33 6.65-7.3 3.98-4c6-.65 9.98-.65 12.63 2z"/><path d="M375.57 313.15c-.66-1.33-2-2-2.66-1.33-21.9 4-50.46 4.65-85.65.66-15.94-1.32-30.55.67-46.5 5.32l-19.9 9.3c-.67.66-1.34 1.33 0 2.65 0 1.33 1.32 1.33 2.65.66l17.93-8.62c15.94-4.65 30.55-6.64 45.16-4.65 36.5 3.32 65.07 3.32 86.98-2l2-1.98z"/><path d="M292.56 277.28c-1.33-1.32-2-.66-2.66.67-9.3 16.6-17.92 27.9-26.56 35.86-1.32.67-1.32 1.34 0 2l2.66.66c8.63-7.96 17.93-19.26 27.23-36.52.66-.66.66-2-.67-2.66zM264 291.23c-.66 0-1.32 0-2.65.67-2.65 4.64-5.98 12.6-9.96 23.9 0 2 0 2.66 1.98 2.66.67.66 2 0 2.66-.67 3.32-11.96 6.64-19.26 8.63-23.25 1.33-2 1.33-2.65-.66-3.32zM310.5 298.54c0-.67-.67-.67-2.66-.67-3.32 1.33-7.3 4-13.95 8.63l-7.98 6.65c-1.33.66-2 1.33-.66 2.66 1.32 1.33 2 1.33 2.65 0l8.65-5.3c5.3-4.66 9.96-7.98 13.28-9.3.66 0 1.33-.68.66-2.66zM349.67 290.56c0-1.32-1.32-1.32-2.65-1.32-6.64 3.32-14.6 8.63-23.25 15.94l-11.95 9.96c-1.33 1.32-1.33 2-.66 2.65 2 1.32 2.65 1.32 3.32 0l11.28-9.3c8.64-7.3 17.27-12.62 23.25-15.28 1.34-.66 1.34-1.32.67-2.66z"/><path d="M363.62 297.2c-.67-1.32-1.33-1.98-2-.66-7.96 4.65-20.58 7.3-37.18 7.97-1.33 0-2 .68-1.33 2.67l1.34 1.33 15.94-1.33 22.57-7.3.67-2.67zM271.98 312.48c-1.33 0-2 1.33-1.33 2l5.3 15.93c4 11.3 8.64 21.93 14.62 31.9.66 1.3 2 1.98 2.66.65l.66-2.66c-4.66-9.3-9.97-19.93-14.62-31.88l-5.3-14.6c0-1.34-.68-2-2-1.34z"/><path d="M281.27 334.4l-2 .66c-1.32.67-1.32 2 0 2.66l11.3 8.63c7.3 5.3 13.95 8.64 18.6 9.3l1.32-1.33c.66-1.33 0-2.65-1.34-2.65-3.98-.67-9.3-3.32-17.26-9.3l-10.63-7.97zM297.88 314.48h-2c-1.33 0-1.33 1.33-1.33 2.65l7.97 8.64 19.26 17.92h2.66c1.32-1.33 1.32-2.66 0-3.33-7.3-5.3-13.28-10.62-18.6-17.26l-7.96-8.63zM326.43 315.8c-.67-1.33-2-1.33-2.66 0-1.32 1.33-1.32 2-.66 2.66l10.63 9.3c7.97 6.64 17.27 10.63 27.23 13.28l2.66-2-2-2c-9.3-2.64-17.92-6.63-25.9-12.6l-9.3-8.63z"/><path fill="#858585" d="M247.4 400.8l-16.6 1.33c-12.6-4.65-22.58-7.3-30.55-8.63-15.27-2.66-22.57 3.98-22.57 20.6l-3.32 19.24-7.3 27.9c-5.32 11.28-6.65 20.58-4 27.9.67 3.3 2.66 5.96 5.32 7.96l7.97 2.65 6.64-5.3c1.98-2.67 4.64-3.33 7.96-2 2.65 1.32 6.64 5.3 11.3 13.94l11.28 15.93 12.6 2 11.3-1.34 9.3 8.63c3.98 3.32 7.3 4.64 9.3 3.98l9.96-2.65 7.97-5.3 1.33-13.3c0-6.63.66-10.62 1.32-12.6l6.65-7.3c2.65-3.33 3.98-6.65 4.64-9.3l-.65-10.63-2.66-8.64 2-8.63c.65-3.32.65-5.98-.68-8.63-1.33-1.33-3.32-4-7.97-5.98-3.98-2-6.64-3.98-7.3-5.98-.67-2 0-4.65 3.32-6.64 2.65-2.66 3.98-5.98 3.32-9.3 0-3.32-1.34-5.3-4.66-5.97-3.98-.67-6.64-3.32-8.63-5.32-4.64-5.97-9.95-8.63-16.6-8.63z"/><path d="M239.44 398.8l-8.64 1.33-11.3-3.98-19.24-5.3c-7.3-1.34-13.3-.68-17.27 2.64-5.32 3.32-8.64 10.62-8.64 19.92l-2.66 19.92-7.3 27.23c-5.32 11.3-6.65 21.25-4 29.88 1.34 3.32 3.33 5.98 6.65 8.64 3.32 2.64 6.64 3.97 9.96 2.64 1.34 0 4-1.33 6.65-3.98 2-2.66 4-3.32 5.98-3.32 2 1.32 5.98 6.64 11.3 15.27 5.3 8 8.62 13.3 10.62 14.63 3.32 3.32 9.3 3.32 16.6 1.98l7.97-.65 6.64 5.32 6.64 5.97 7.3 1.33 4.65-1.33c7.97-1.33 12.62-4 14.6-8.63l1.34-13.94c0-5.97.65-9.96 1.98-11.3l4.65-5.3c3.98-4.65 6.64-8.64 6.64-12.62 0-3.98 0-7.97-1.33-12.62l-2-6.64 1.34-5.3c2-5.98 1.33-9.97-.66-13.3-.67-1.98-4-4.64-8.64-6.63-3.32-2-5.98-3.32-5.98-5.3-.66-.68 0-1.34 1.33-3.33 4.65-4 5.98-7.97 5.98-11.3-.66-4.64-3.3-7.3-7.96-8.63l-6.64-4.66c-4.65-5.3-8.63-7.97-13.94-9.3l-12.63.67zm-59.1 15.3c0-8.65 1.32-13.96 5.3-16.62 5.32-3.32 15.28-2 31.88 3.32 6.64 3.32 10.63 4 13.28 4l9.3-.68h10.62c3.32 0 7.3 2.66 10.63 6.64 2.66 3.33 5.98 5.98 9.96 6.65l2.67.67.66 2.66c.67 2.65-.66 4.65-3.32 7.3-3.3 2.66-3.97 5.98-3.3 9.3.66 2.65 3.3 4.65 9.3 7.97 3.3 2 5.97 2.66 6.63 4.64.66 1.34.66 4 0 8.64l-1.33 7.3 1.33 7.97c1.33 4.65 2 7.97 1.33 10.63-.67 3.32-2 5.98-5.32 9.3l-5.97 6.64c-.67 2.65-1.33 7.3-1.33 13.95l-1.33 11.94c-1.32 2-4.64 4.67-10.6 5.33l-6 1.32c-1.32.67-3.97-1.32-7.96-5.3L238.1 521c-1.98-1.33-5.97-1.33-10.62 0l-12.6-.66-9.3-13.95c-6-9.97-10.64-15.28-13.96-16.6-3.98-2-7.97 0-11.95 4.64l-3.98 2.65c-1.34.66-4-.67-6-2.66l-4.64-5.98c-2-6.64-.66-15.27 4.65-26.56 2-4.65 4.66-13.94 7.32-27.9l3.3-19.9z"/><path d="M191.62 396.15l-3.32.67c-.66.66-.66 1.33.67 2l16.6 17.92c11.95 13.95 19.26 25.9 24.57 37.2 11.3 29.2 20.6 51.12 27.9 66.4 1.32.66 1.98 1.32 3.3.66 1.34 0 1.34-1.33.68-2.65-7.97-15.28-17.27-37.2-28.56-66.4-4.65-11.3-12.62-23.9-24.57-37.86l-17.28-17.95z"/><path d="M185.65 477.84l2-.67c5.96-19.92 12.6-39.84 19.9-61.1 20.6 0 38.53 4 53.14 11.3.65.67 1.98 0 2.64-.67.67-2 .67-2.65-.66-2.65-9.97-5.32-22.58-9.3-36.53-10.63l-19.92-1.32-2 1.32-7.96 23.9-11.95 38.52 1.33 2z"/><path d="M220.18 429.36c-1.33-.66-2.66 0-2.66 1.33 0 .66 0 1.98.67 2.64l19.24 7.3c13.95 5.98 25.24 10.64 33.87 15.28 1.34.66 2 .66 2.67-1.32.66-.67 0-1.34-.67-2.66l-34.53-15.28-18.6-7.3z"/><path d="M250.73 441.98c-.67-.66-2-.66-3.32 0-.66 1.32-.66 2 0 2.66l9.97 10.62 18.6 16.6h2.65c1.32-1.33.66-1.33-.67-2.66l-17.26-16.6-9.97-10.62zM237.44 463.22c-1.33-1.32-2.65-1.32-3.32.67-.66.66 0 1.98.67 2.64 1.3 0 5.3 2 12.6 7.3 8.64 6 15.28 12.63 19.93 19.27l3.32.67c.66-1.32.66-2 0-3.3-4.65-6.66-12.62-13.3-21.25-19.94l-11.96-7.3zM226.15 437.33l-3.32.67-6.64 12.6c-4.65 9.97-7.3 21.26-8.64 33.2 0 .68 0 2 2 2.66l1.32-2.65c2-11.28 4.65-21.9 9.3-31.86l5.97-11.3c.67-.66.67-1.98 0-3.3z"/><path d="M216.86 457.92c-.67-.67-2-1.34-2.66-.67-.66 0-1.33 1.33-.66 2.65l2.65 11.3c1.32 9.96.66 20.58-3.33 30.54 0 1.33 0 2.66 1.33 2.66 1.33.66 2.66 0 2.66-1.33 3.98-11.3 4.65-21.9 3.98-32.54l-3.98-12.6zM241.43 475.18c-.67 0-1.33 0-2 2l-2 11.28c-.65 8.64-1.3 15.94-1.3 21.25l1.98 1.34 2-1.33c0-5.3.66-12.6 1.33-21.24l2-10.62c.66-1.34 0-2.66-2-2.66z"/><path fill="#D96038" d="M147.13 57.48l-37.2-18.6 22.6 31.22c19.25 21.9 41.83 33.2 65.73 35.2-7.97-16.6-25.23-31.88-51.13-47.82z"/><path d="M200.92 106.62v-2.66c-8.63-16.6-25.9-31.87-51.14-47.8L110.6 36.88c-.66 0-1.32 0-2 .65-1.32.67-1.32 1.33-.65 2.66l22.58 31.9c20.58 21.9 43.16 33.2 67.73 35.18l2.66-.66zm-6.64-4.65c-19.26-2.65-36.53-11.3-53.13-25.9-9.96-9.3-18.6-19.9-25.9-32.53 39.19 17.92 65.75 37.18 79.03 58.43z"/><path fill="#D96038" d="M169.7 56.15l-22.57-17.27 7.3 28.56c9.3 19.92 23.25 33.2 43.17 39.18-2.66-18.6-11.95-35.2-27.9-50.47z"/><path d="M147.8 36.9h-2.66l-.67 1.98 7.97 29.9c9.3 20.58 24.57 33.86 44.5 39.83h2l1.32-2.64c-3.32-18.6-12.62-35.86-28.56-50.47l-23.9-18.6zm46.48 65.07c-14.6-5.3-26.56-15.27-34.53-29.2-5.32-9.3-8.64-19.27-9.97-29.24 24.58 16.6 39.2 35.87 44.5 58.44z"/><path fill="#D96038" d="M208.9 99.32c18.58-.67 37.18-8.64 57.1-23.24 9.3-7.3 17.26-14.62 23.24-21.92-9.96 1.33-21.25 3.32-32.54 7.97-23.9 7.97-39.18 21.25-47.8 37.2z"/><path d="M291.23 53.5l-2-1.33c-11.28 1.33-22.57 3.32-35.18 7.97-23.25 8.63-39.18 20.58-47.15 37.84v2l2 2c18.58-1.34 37.84-8.64 57.1-23.25 9.96-7.3 17.93-15.27 24.57-22.58l.66-2.65zM214.2 96c6.64-11.96 18.6-21.26 35.2-28.56 10.62-4.65 21.25-7.97 33.86-9.96C260.02 80.72 237.44 93.34 214.2 96z"/><path fill="#D96038" d="M222.83 60.8c.67-8.63 0-16.6-2-23.25-6.63 4.65-12.6 10.63-16.6 19.26-9.95 15.3-9.95 33.22-1.32 51.8 11.97-13.27 18.6-29.2 19.93-47.8z"/><path d="M220.84 35.56h-1.33c-6.63 4.65-12.6 11.3-17.9 19.93-9.3 16.6-9.98 34.52-1.34 54.44l2 1.33 1.98-1.33c12.62-13.28 19.26-29.88 20.6-48.48.65-9.3 0-17.26-2-24.57l-2-1.34zm-1.33 5.98l.68 14.6c0 17.94-5.98 33.88-16.6 47.82-3.32-7.3-4.65-13.94-4.65-21.24 0-16.6 6.64-30.55 20.58-41.18z"/><path fill="#FFE000" d="M214.2 95.33c11.3 14.6 25.9 23.24 43.17 27.9l23.24 1.98c-3.3-6.63-9.3-11.94-16.6-17.92-15.27-10.62-31.87-14.6-49.8-11.95z"/><path d="M283.26 125.88v-2.66c-4.64-5.98-10.62-11.96-18.6-17.93C249.4 94 232.14 90 213.55 93.33c-.67 0-2 0-2 1.32l.67 2c11.96 15.27 26.57 23.9 45.17 28.55l23.9 2 2-1.32zm-64.4-28.56c13.93-1.32 25.9 1.33 38.5 8.64 7.3 3.98 13.3 9.96 19.27 16.6l-25.24-4c-12.63-3.98-23.92-11.28-32.55-21.24z"/><path fill="#D96038" d="M125.88 112.6c-7.3 4.64-13.94 9.96-17.93 15.27l24.57.66c18.6-3.32 33.2-11.95 43.83-27.23-18.6-1.98-35.2 2-50.47 11.3z"/><path d="M177.68 102.64l.66-2.66c-.66-.66-.66-1.33-1.33-1.33-19.25-2-36.5 2-51.78 11.95-7.97 4.65-14.6 9.96-18.6 15.94-1.33 0-1.33.66-.66 2l1.32 1.32h25.9c18.6-2.66 33.87-11.96 44.5-27.22zm-5.98.66c-8.63 9.96-19.92 17.26-33.2 20.58l-25.24 2.66c5.3-6.64 11.96-11.3 19.92-15.28 11.96-5.97 24.57-8.62 38.52-7.96z"/><path fill="#FFE000" d="M275.96 96.66c13.94-3.32 25.24-7.97 35.2-13.28l-39.18-3.32c-28.56.66-49.8 7.3-62.43 19.92 17.27 5.3 39.85 3.98 66.4-3.32z"/><path d="M313.8 83.38l-1.98-2.66-41.17-2.66c-28.56.67-49.8 7.3-63.1 20.6l-.65 1.98 1.33 2c17.93 5.97 40.5 3.98 67.73-3.32 13.28-4 25.24-8.64 36.52-13.95l1.33-2zm-98.93 15.94c11.28-9.3 26.56-13.95 47.15-15.94l41.17 1.32c-35.87 15.28-65.76 19.26-88.33 14.62z"/><path fill="#FFE000" d="M252.06 64.12c5.3-8.63 9.3-17.27 11.95-24.57-7.96 2.65-16.6 7.3-24.56 13.94-17.27 13.28-27.23 28.55-29.9 46.48 17.28-5.98 31.22-17.93 42.52-35.86z"/><path d="M265.34 37.55h-2c-9.3 3.33-17.93 7.98-26.56 14.62-16.6 13.28-26.56 29.2-29.88 47.8 0 .67 0 2 .66 2l2.66.67c17.26-5.98 31.87-18.6 43.16-35.86C259.36 57.48 264 48.84 266 40.2l-.66-2.65zm-30.55 22.6c7.3-6.65 15.93-11.97 25.22-16.62-3.32 9.3-8.63 17.93-14.6 25.9-8.64 12.62-19.93 20.6-32.55 26.57 3.32-13.28 10.63-25.24 21.92-35.86z"/><path fill="#FFE000" d="M194.28 48.85c-4-9.97-8.63-18.6-13.28-25.24-2.66 8.64-3.32 18.6-3.32 29.9 0 21.9 6.64 39.84 19.92 53.12 5.3-17.93 4-36.52-3.32-57.77z"/><path d="M180.33 50.84c0-7.3.67-14.6 1.33-21.25 11.3 19.24 16.6 37.18 16.6 54.44 3.33-10.62 2.66-21.9-1.32-34.53L183 22.3l-2.66-1.33c-.67.66-2 .66-2 2-2 9.3-3.32 19.92-3.32 31.2 1.33 22.6 7.97 39.85 21.25 53.8 0 .66.67.66 1.33.66l2-1.32c2-7.3 2-15.27-1.33-23.24l-2 16.6c-11.3-13.28-15.94-29.88-15.94-49.8z"/><path fill="#FFE000" d="M131.86 76.74H99.98l30.55 19.92c23.9 11.28 43.83 13.28 60.43 6.64-15.27-14.6-34.53-23.24-59.1-26.56z"/><path d="M193.6 103.3l-.65-2c-15.27-14.6-35.2-23.24-59.77-25.9l-33.2-1.32-2.66 2c0 .66 0 1.98 1.33 2.65l31.88 19.92c23.9 11.3 44.5 13.28 61.76 6.64l1.3-2zm-7.3-1.33c-13.27 4.65-29.2 2.65-47.14-4.65-11.3-3.98-21.9-10.62-33.2-18.6l34.53 2c17.92 3.98 33.86 11.3 45.8 21.25z"/><path fill="#858585" d="M183 101.97l-1.34 11.95 2.66 14.6.66 17.95c-11.3 43.16-22.57 89.64-33.87 139.45-21.9 98.95-32.52 181.3-32.52 245.05-21.26-13.3-33.2-22.6-34.54-27.9-.66-3.98-2-12.62-2.65-25.9l-1.34-18.6-11.95 8.64-.66 13.96c-.66 10.62.67 18.6 3.32 25.23 2.66 4.64 6.64 9.95 11.96 15.93 5.97 5.3 9.3 9.3 10.62 12.62l13.28 21.9c7.3 11.3 10.63 21.26 10.63 30.56h21.25c-3.32-37.18-5.32-70.38-4.65-100.27 1.33-22.57 9.96-79.68 27.23-170 17.26-92.3 29.2-145.43 36.52-160.7l11.3-21.25 8.62-14.62c5.98-11.28 7.3-18.6 5.3-21.9-8.62 0-15.26 1.32-18.58 3.3l-19.92-6.63-1.33 6.64z"/><path d="M183 93.34l-2 2-.67 5.96-1.32 12.62 2 11.96 2 15.93v4.66L175 177.02c-15.27 60.44-27.23 111.58-35.86 154.08-15.27 76.36-22.58 142.1-23.24 195.23-18.6-11.94-27.9-19.9-28.56-24.56-1.32-3.32-2-11.3-3.32-24.57l-2-18.6c0-1.32 0-2-1.32-2h-2l-11.94 8.65-1.33 2-1.33 14.6c0 11.28 1.33 19.26 4 25.9 2.64 4.65 7.3 10.62 13.93 17.27l8.63 11.27 6.65 11.3c11.3 16.6 17.26 29.88 17.93 39.84 0 1.33.66 2 2 2h21.24c1.33 0 2 0 2-.67l.66-2c-4-37.18-5.32-70.38-4-99.6 0-22.57 9.3-79.02 26.57-169.34 16.6-91.65 29.22-144.77 35.86-160.05 3.98-7.96 7.96-15.93 14.6-25.9l5.3-9.96c4-7.32 6.66-13.3 6.66-18.6l-1.33-5.98-2-.66-18.6 2.66-19.9-5.98h-1.34zm3.3 5.3l16.6 5.98h2c3.33-1.98 8.64-2.65 15.94-2.65 0 4-2 9.96-5.97 17.93l-5.32 9.3c-6.64 10.63-11.95 19.26-14.6 25.9-7.3 15.27-19.26 69.06-37.2 162.03-16.6 90.3-25.9 146.76-25.9 170l-.65 13.95c0 24.57 1.32 52.46 3.98 83H119.9c-1.32-9.95-7.3-23.23-17.92-39.83l-6.64-9.96-9.97-13.3c-5.3-5.3-9.96-10.62-11.95-15.94-2.66-5.3-3.98-11.95-3.98-20.58l1.32-15.94 6.65-4.65c1.33 21.24 3.33 34.52 4.66 39.17 1.32 6.64 13.28 16.6 35.2 29.88h2.64l1.33-1.98v-2c0-52.46 7.3-118.2 23.25-195.24 7.97-42.5 19.92-94.3 35.86-155.4l7.3-31.86v-4.65l-1.33-16.6-1.98-11.3 2-15.27z"/><path fill="#858585" d="M51.5 401.47c-3.98 2-7.97 4.65-12.6 9.3l-7.98 5.97-8.64-1.32c-3.32 0-5.97 2-8.63 3.98-2.65 2.66-3.98 7.3-4.65 12.62-.66 5.3 0 8.63.67 10.62l7.3 5.98c4 3.32 5.98 5.98 5.32 9.3l-6 12.6c-3.98 5.98-5.97 9.97-5.97 11.96-.66 2.66 2 5.32 7.3 7.97l13.3 3.32c3.3.67 6.63-.66 11.28-3.32 4-2.65 7.3-3.32 9.97-2.65l8.63 2 7.3-3.33 7.3-8.63c2-4 4-5.32 6.65-4.65 2 0 4.65 1.98 6.64 5.96 3.3 4.65 5.3 7.3 7.96 7.97l11.96-.66 9.96-9.3c3.32-3.98 5.3-14.6 6.64-31.2 1.32-18.6.66-31.88-2-41.18-3.32-2.67-7.3-4.66-12.6-6.65-9.97-3.32-18.6-2.66-27.24 2.66l-11.95-2c-8.64 0-15.28.68-19.93 2.67z"/><path d="M111.94 396.15c-10.63-3.98-19.93-2.65-29.22 1.33l-31.88 1.33c-5.3 2-9.3 5.32-13.28 10.63l-6.64 4.65H27.6c-7.3-1.33-11.96 0-15.94 3.32-2.66 3.32-4 7.3-5.3 13.95-.68 5.98 0 9.96.65 12.62l5.32 4.65c5.3 3.32 7.97 6.64 7.97 8.63-.67 3.32-2.67 6.64-6.65 12.6-3.32 5.33-5.98 9.97-5.98 11.97L9 487.8c3.32 3.98 10.63 7.3 21.92 8.62 3.32 0 7.3-.66 12.6-3.32 3.33-2.65 6-2.65 8.65-2.65h1.32l7.96 1.33 7.97-3.32 7.3-7.97c2-3.33 4-5.32 4.66-5.32l5.3 5.3c2.66 4.66 5.3 7.98 8.63 9.3l14.6-1.32c4.66-2 8.64-5.32 11.3-9.96 2.66-4.65 5.3-15.94 5.98-33.2 1.34-17.94 1.34-31.22-1.98-41.18l-.67-.67c-3.32-3.3-7.3-5.97-12.6-7.3zm-59.77 7.97l18.6-2.65 11.28 2 2-.68c7.96-4.65 15.93-5.32 24.56-2.66 4.66 1.33 8.65 3.32 11.97 6.64 1.32 5.32 2.65 13.28 2.65 23.24l-2.65 27.9c-.67 9.3-2 15.93-3.32 17.92l-9.3 7.97-10.63.68-5.97-6.64c-4-4.65-6.64-7.3-9.3-7.3-3.32-.68-6.64 1.32-9.96 6.63l-5.32 6.64-5.98 3.33-5.98-1.33-2-.66c-3.97-1.33-7.3 0-11.94 3.32-4 2-7.3 2.66-9.3 2.66-9.96-1.33-15.94-4-17.93-6.64l-.66-1.33c0-2.66 1.3-5.98 5.3-10.63l6.64-14.6c.66-4-2-7.98-9.3-13.95l-3.32-2.65c-1.33-1.34-1.33-4.66-.66-9.3.66-4.65 2-8.64 3.98-10.63 2-2.67 5.32-3.33 11.3-2.67l3.98.67c3.32 0 6.64-2 9.96-6.64 4.65-4.65 7.97-7.3 11.3-8.64z"/><path d="M115.25 411.43c-.66-1.33-1.33-1.33-3.3-1.33-14.63 5.98-29.9 12.62-45.17 20.6-30.55 14.6-50.47 27.88-60.43 39.83-.67.67-.67 1.33 0 2.66h3.32c9.3-11.3 29.22-24.58 60.43-39.2 25.9-13.27 40.5-19.9 43.82-19.9l1.33-2.67z"/><path d="M107.28 415.42l-2-2c-1.3 0-1.98.67-1.98 2l-.66 21.24c-.67 14.62-2 27.23-4 35.2 0 1.32 0 2 2 2 .67.66 1.33 0 2-1.34 2-8.63 3.32-20.58 3.98-35.86l.66-21.25zM83.38 423.38c-1.33-.66-2 0-2.66.67l-9.3 21.9L55.5 475.2c-1.34 1.32-1.34 2 0 2.66h2.64c4-4.65 9.3-14.62 16.6-29.88l9.97-22.58c.67-.67 0-1.33-1.32-2z"/><path d="M73.42 450.6c-.67-1.32-1.33-1.98-2.66-1.32l-13.28 5.32c-9.3 5.3-15.94 10.62-19.92 16.6-1.33 1.32-.67 1.98 0 2.65h3.32c3.32-5.97 9.96-10.63 19.26-15.93l11.95-4.66c1.32-.66 1.32-1.98 1.32-2.65zM11 432.02l-2 2c0 1.32.67 2.64 2 2.64 9.96 0 20.58 3.32 33.2 9.3 1.33.66 1.33.66 2.65-1.32.67-.67 0-1.34-1.32-2.66-12.62-5.98-24.57-9.3-34.54-9.96zM60.8 420.06l-15.27 1.33c-1.33.66-2 1.98-1.33 2.65l2 1.33 14.6-1.33c9.96-.67 16.6 0 21.25 2.65h2c1.32-1.32 1.32-2.65 0-3.32-5.32-2.65-12.62-4.65-23.25-3.32z"/><path fill="#D96038" d="M125.88 315.8c-22.58-23.24-37.85-31.2-45.16-23.9-7.3 7.96 2 22.57 27.9 43.83 26.56 21.24 41.83 29.22 45.8 23.9 3.34-5.3-5.96-19.92-28.54-43.82z"/><path d="M111.94 299.86c-15.94-11.95-26.57-15.27-33.2-9.3-1.34 2-2 4.66-2 7.3l.66 5.32c3.32 9.3 14.6 21.92 33.2 37.2 17.94 13.94 31.22 21.25 39.85 22.57 2.66.66 4-.66 5.98-2 2-3.98-2-13.27-12.62-27.22-9.95-13.28-20.58-25.23-31.86-33.87zm-29.9-5.98c3.33-3.32 9.97-2.65 17.94 3.32 11.96 7.3 23.9 18.6 36.52 34.54 11.3 14.6 17.27 23.25 15.28 26.57-2.66 1.33-11.96-3.3-27.9-13.94-16.6-11.95-28.55-23.24-36.52-33.87-5.97-7.98-7.3-13.3-5.3-16.62z"/><path fill="#FFE000" d="M151.1 306.5c-7.3-33.2-15.92-47.8-25.22-43.82-8.63 3.32-7.97 21.24 2.66 52.46 11.28 31.87 19.25 46.5 25.9 44.5 5.3-2 3.98-19.93-3.33-53.14z"/><path d="M125.22 260.02c-3.32 1.33-5.98 5.32-6.65 11.3-2 10.62 2 27.22 9.97 49.8 7.96 21.25 14.6 34.53 21.24 39.84 1.33.67 4 1.33 5.32.67 4.65-1.34 5.98-13.28 2.65-33.87-3.32-18.6-6.64-34.54-12.6-47.82-6-15.94-13.3-22.58-19.93-19.92zm-2.66 15.94c0-6.64 1.33-9.96 4.65-11.3 2-1.32 5.32 1.34 9.3 7.32 6.65 10.62 11.3 27.88 15.28 50.46 3.32 21.25 3.98 32.55 1.33 35.2-2.65 0-8.63-9.3-15.27-25.9-7.97-17.27-12.6-33.87-14.6-47.82l-.67-7.96z"/><path fill="#D96038" d="M181 311.15c10.62-33.2 10.62-50.47-.67-51.8-11.95-1.32-19.92 15.28-26.56 48.48-5.98 33.88-5.98 50.48.67 51.8 6.64 1.33 15.27-15.27 26.56-48.48z"/><path d="M188.97 263.34c-1.33-3.32-4.65-5.3-7.97-6.64-8.63-.66-15.94 6.64-22.58 23.24-3.98 11.96-7.3 27.23-9.96 43.83-2 24.58-.67 37.2 5.3 37.86 2.67.66 5.32-1.34 8.65-5.98 7.97-9.96 14.6-25.24 21.25-45.83 7.3-21.9 9.3-37.84 5.32-46.48zm-8.64-2c4 1.34 5.98 4.66 5.98 11.96v1.33c0 12.6-4.64 29.88-13.27 51.14-8.63 19.92-15.27 31.2-18.6 31.87-2.65-2-3.32-11.95-1.32-29.22 1.34-17.93 5.32-33.87 10.63-47.15 4.65-13.28 10.63-19.92 16.6-19.92z"/><path fill="#FFE000" d="M210.88 266.66c-9.96-3.98-23.24 9.3-39.84 41.17-17.27 31.88-23.25 49.14-16.6 51.8 5.97 2.66 19.25-11.28 39.84-41.17 20.6-30.55 26.56-47.15 16.6-51.8z"/><path d="M211.55 264.67c-7.3-3.32-16.6 3.32-27.9 18.6-8.63 11.28-16.6 25.9-23.9 41.83-9.3 22.58-11.96 34.53-6.65 36.53 2 .66 5.32 0 8.64-2.66 9.96-7.3 21.9-20.6 34.53-39.18 13.95-20.6 21.25-35.2 21.25-45.17v-2c-.66-3.3-2.65-6.63-5.97-7.96zm-1.33 4.65c2.65.66 3.32 4.64 1.33 10.62-3.32 12.62-12.62 29.22-27.9 49.15-15.27 19.25-25.23 28.54-29.22 28.54-1.32-3.32 2-13.28 9.97-30.55 7.97-19.26 17.26-35.2 26.56-46.5 8.63-9.3 14.6-13.94 19.26-11.28z"/><path fill="#D96038" d="M154.44 359.63c3.32 5.32 22.57.66 55.78-14.6 33.86-15.28 47.15-27.9 40.5-37.2-5.97-9.96-24.57-5.3-55.78 13.95-31.2 19.93-44.5 32.54-40.5 37.85z"/><path d="M253.38 305.84c-2.65-3.32-7.3-5.3-13.94-4.65-12.62.66-29.9 7.96-51.8 22.57-19.92 13.95-31.88 23.9-35.86 31.88-.67 2-.67 3.32 0 5.3 3.32 4 15.94 2.66 36.52-5.3 20.6-6.64 36.53-14.6 49.14-23.24 11.3-7.96 16.6-14.6 16.6-21.24l-.66-5.32zm-25.23 2l21.25.66c2 3.98 0 8.63-5.98 13.28-9.96 9.3-26.56 18.6-49.8 27.23-21.92 8.64-34.54 11.96-37.86 9.3 0-3.98 8.64-11.3 25.24-23.9 17.93-13.28 33.87-21.92 47.15-26.57z"/><path fill="#FFE000" d="M260.7 333.07c-2.67-10.63-21.26-10.63-57.12 1.33-35.86 10.63-51.8 19.25-49.14 25.23 2 5.98 21.25 5.98 56.44-.66 36.53-7.3 53.13-15.28 49.8-25.9z"/><path d="M263.34 332.4c-1.32-4.64-4.64-7.3-9.96-7.97-11.95-2.65-30.55 0-55.78 9.3-23.9 7.97-39.18 15.28-43.83 21.26-2 2.64-2.65 3.97-2 5.96 2.66 4 13.3 5.97 34.54 3.32 19.93-1.33 37.2-5.3 51.8-9.96 16.6-5.98 25.24-11.95 25.24-19.26v-2.66zm-19.92-4.64c9.3 0 13.95 2.65 15.28 5.97 1.32 3.32-2.66 7.3-10.63 11.3-11.96 6.64-30.55 11.28-54.46 13.94-22.56 2.66-35.18 2.66-37.17-.66.66-3.3 11.3-9.3 31.87-17.26 22.58-7.97 40.5-12.62 55.12-13.28z"/><path fill="#D96038" d="M198.26 392.83c31.2 15.94 48.48 18.6 51.14 7.98 3.32-9.96-11.96-20.6-44.5-33.2-31.87-11.3-49.14-13.95-50.47-7.97-2 5.98 12.62 17.93 43.83 33.2z"/><path d="M252.06 398.8c0-7.3-7.97-14.6-22.6-23.23-11.94-5.98-25.22-11.3-40.5-15.28l-37.18-1.33c-.66 2 .66 5.3 4.65 8.63 7.97 9.3 22.58 17.93 42.5 27.9 21.9 11.28 37.2 15.27 45.16 13.28 3.97-1.33 6.63-3.32 7.3-7.3l.66-2.67zm-95.63-38.5c2-2 11.95-.67 29.22 3.98 18.6 4.65 33.86 10.63 45.82 18.6 11.95 7.3 16.6 12.6 15.94 17.92-.66 3.32-4.64 4-11.95 3.32-12.62-2-29.22-8.63-49.8-20.6-19.26-11.93-29.22-19.24-29.22-23.23z"/><path fill="#FFE000" d="M141.15 391.5c-3.98 21.92-2 32.55 6.64 33.2 7.96.68 13.28-9.95 15.27-31.2 1.33-22.58-.67-33.2-6.65-34.53-5.97 0-11.28 10.62-15.27 32.54z"/><path d="M164.4 370.25c-1.33-8.62-4-12.6-7.98-13.28-2 0-5.3 1.34-7.3 4.66-2.66 5.3-5.98 11.94-8.63 20.58-2 9.3-3.33 17.94-3.33 25.24 0 6.65.66 10.63 2.65 13.95 1.33 3.3 4 5.97 7.97 5.97 4.64 0 9.3-3.32 11.94-10.63 3.33-5.98 4.65-14.6 5.32-24.57.67-7.97 0-15.28-.66-21.92zm-7.97-8.62c1.32 0 2 2.65 3.32 8.62 1.33 5.98 1.33 13.95.66 21.92-.65 8.63-2.65 16.6-4.64 21.92-2 5.96-4.65 9.28-7.97 8.62l-4-3.32c-2.65-5.3-2.65-14.6 0-27.9 2-11.95 5.32-21.25 9.3-27.22l3.33-2.65z"/><path fill="#FFE000" d="M103.97 364.95c34.53 2.65 52.46.66 52.46-5.98s-17.93-13.94-52.46-21.25c-35.2-8.63-51.8-6.64-52.47 5.3-.66 11.3 17.27 18.6 52.47 21.93z"/><path d="M158.42 358.97c0-2-2-4.65-6.64-7.3-11.3-6.64-27.23-12.62-48.48-17.27-24.57-5.3-39.84-5.3-48.48-.67-3.98 2-5.97 4.65-5.97 9.3 0 7.97 8.63 14.6 25.23 19.26l45.82 5.3c25.24.67 38.52-2 38.52-8.63zm-33.87 4.64c-19.25 0-36.52-1.97-50.47-5.96s-20.6-9.3-19.92-14.6c0-4 3.32-6 9.96-7.32 13.28-1.32 31.2 1.33 54.45 7.97 22.58 6.63 34.54 11.95 35.86 15.27-2 2.66-11.95 4.64-29.88 4.64z"/><path fill="#FFE000" d="M156.43 358.97c4.65-3.32 1.32-17.27-11.3-40.5-11.95-23.25-22.57-32.55-31.2-27.24-8.64 4.65-4.65 17.93 11.3 40.52 15.26 22.57 25.88 31.2 31.2 27.22z"/><path d="M141.15 307.17c-10.62-16.6-19.92-22.58-27.9-18.6-3.3 2.66-5.3 5.98-5.3 9.97v.66c.66 9.3 5.97 21.25 16.6 35.2 10.63 13.95 19.26 23.24 26.56 26.56h6.65c3.33-2.65 3.33-9.96-1.32-23.24-4-10.63-8.64-21.26-15.28-30.55zm-25.9-14.6c5.32-2.67 12.62 2.65 21.92 15.93 5.97 9.3 11.3 19.92 15.27 31.2 3.98 10.63 4.65 15.95 2.66 17.94-2 .67-7.97-3.32-16.6-13.28-9.3-9.96-16.6-19.92-21.26-30.55-5.3-11.28-5.97-18.58-1.98-21.24z"/><path fill="#FFE000" d="M156.43 358.97c4.65 3.98 17.93-4.65 40.5-27.23 22.58-22.58 30.55-36.52 23.9-41.18-5.96-5.97-19.9 4-39.83 27.23-21.25 23.9-29.22 37.85-24.57 41.17z"/><path d="M222.83 287.9c-5.3-3.3-12.6-.66-24.57 9.3-7.3 5.32-14.6 13.3-21.9 22.6l-15.95 21.24c-6.63 10.63-8.62 17.27-5.97 19.92h7.3c9.3-3.32 21.26-12.6 36.53-27.23 16.6-15.93 25.24-28.55 26.57-37.2l.66-1.98c0-3.32-1.34-5.3-2.67-6.64zm-2.65 4c1.33 1.98.66 5.97-2.66 11.95-6.64 10.62-17.26 23.24-33.2 36.52-13.95 13.28-23.24 18.6-26.56 17.27-1.33-3.32 3.32-11.3 13.94-25.24 11.3-14.6 22.58-26.56 32.54-34.53 7.97-5.97 13.28-7.97 15.94-5.97z"/><path fill="#FFE000" d="M204.24 373.57c30.55 2 45.82-1.98 45.16-11.94-.67-10.63-16.6-14.62-47.82-13.95-30.54 1.33-45.82 5.3-45.16 11.3.67 6.63 16.6 11.27 47.82 14.6z"/><path d="M251.4 361.63c0-4-2.67-7.98-7.98-10.63-9.96-5.3-25.9-6.64-46.48-5.3-19.93 1.3-33.2 4.63-39.85 8.62-2.66 1.33-3.33 3.32-2.66 5.3 0 4.66 9.96 8.65 27.9 12.63l45.8 3.32c15.95-1.33 23.92-5.32 23.92-13.28l-.67-.67zm-4 0c0 3.98-3.98 6.64-12.6 8.62l-47.16-1.98c-17.93-3.32-27.9-6.64-29.22-9.3 1.33-2 9.3-4.65 24.57-7.3 15.93-2 30.54-2 43.82-.67 13.28 2 20.6 5.97 20.6 10.63z"/><path fill="#FFE000" d="M180.33 406.1c20.6 25.92 35.2 35.22 44.5 27.24 9.3-8.63 1.32-24.56-23.9-47.15-24.58-22.6-39.85-31.88-44.5-27.23-5.32 5.3 3.32 21.24 23.9 47.14z"/><path d="M161.74 356.97l-7.3.67c-3.33 3.32 0 12.6 8.63 27.23 7.97 13.28 16.6 25.23 26.56 35.85 15.94 16.6 27.9 21.26 36.52 13.95 3.32-2.65 4.65-5.98 4.65-9.3l-.66-3.98c-2.66-10.64-12.62-23.92-29.88-39.2-16.6-14.6-29.22-23.23-38.52-25.23zm-4 4c3.34-1.34 13.3 3.3 27.9 15.26 15.95 11.96 27.9 24.57 35.2 35.86 5.3 8.62 6.64 15.27 2.66 19.25-4.65 4-11.95 2.66-21.25-5.3-11.3-8.64-21.25-21.26-31.88-37.86-9.3-15.3-13.94-23.92-12.62-27.24z"/><path fill="#D96038" d="M137.17 406.78c-6.64 31.88-6.64 48.48 2 49.8 8.62.67 14.6-15.93 18.6-48.47 4.63-31.87 3.3-48.47-2.67-49.13-5.32-.66-11.95 15.27-17.93 47.8z"/><path d="M138.5 458.58c7.96.66 13.28-9.3 18.6-30.54 3.3-13.95 4.64-25.24 4.64-33.2 2-24.6 0-37.87-5.98-37.87-2 0-4.65.67-5.98 4-4.64 6.63-9.3 17.92-12.6 34.52-4.66 16.6-6.65 31.2-6.65 43.16 0 6.64.66 11.95 2.65 15.27l5.32 4.65zm16.6-97.62c2.66 2 3.32 12.6 2.66 30.55-1.33 19.26-4.65 35.2-9.3 48.48-2.66 9.96-5.98 13.95-8.64 13.95-2.65 0-3.98-3.32-4.64-9.96-1.33-11.95 1.32-28.56 6.64-49.8 5.97-21.26 9.96-31.88 13.28-33.2z"/><path fill="#D96038" d="M103.97 392.17c-29.9 26.56-40.5 42.5-33.2 48.48 7.96 6.64 25.23-4.65 52.45-33.2 26.57-28.56 37.2-44.5 31.88-48.48-4.65-3.98-21.92 7.3-51.13 33.2z"/><path d="M141.15 390.18c15.27-19.26 20.6-29.9 15.94-32.54-4-3.32-16.6 2.65-36.53 17.93-19.92 15.27-33.87 28.56-44.5 41.84-5.97 7.98-9.3 13.96-9.3 19.26 0 2.66.67 4.66 2.67 6.64 4.64 3.32 11.28.67 20.58-9.3-9.3 5.98-14.6 7.32-17.93 5.32-1.34-2-1.34-5.3 1.32-9.3 6.64-12.6 20.58-27.22 43.16-45.15 21.25-17.27 33.87-24.58 37.85-23.9.67 3.3-5.97 13.94-20.58 31.2-15.94 19.26-30.55 32.55-43.83 41.84 5.3 0 10.63-2.64 15.94-6.63 12.62-10.63 24.57-23.25 35.2-37.2z"/><path fill="#FFE000" d="M119.24 401.47c-18.6 30.55-22.58 47.15-12.62 51.13 9.3 3.98 21.92-10.62 36.52-41.84 13.95-32.53 17.94-49.8 11.96-51.8-5.32-2-17.93 11.96-35.86 42.5z"/><path d="M156.43 356.97c-2-1.32-5.32 0-8.64 3.32-8.64 7.3-18.6 19.9-29.9 38.5C105.3 418.74 100 434 100 443.98v3.32c.66 3.98 2.66 6.63 5.3 7.3 7.98 2.65 16.6-3.32 25.9-17.94 7.32-11.3 13.96-25.23 19.93-41.17 9.3-23.9 10.64-36.53 5.33-38.53zm-2 4c2.66 2.64 0 13.27-6.64 30.54-6.65 19.26-13.95 33.88-22.58 45.83-7.97 10.63-13.95 14.6-17.93 13.28-3.33-1.32-4-5.3-2.67-11.94 2.66-12.62 10.63-28.56 25.23-49.15 12.62-18.58 21.25-28.54 24.57-28.54z"/><path fill="#D96038" d="M96 358.3c-38.52 5.98-55.8 13.95-52.47 23.9 2.66 10.63 23.25 10.63 60.44.67 37.18-9.96 54.45-17.92 52.46-23.9-2.66-6.64-22.58-6.64-60.43-.66z"/><path d="M157.1 362.95c1.32-2 1.32-3.32 1.32-5.3-1.33-4.66-14.6-5.98-38.52-4-23.24 1.34-42.5 4.66-57.1 9.96-17.27 5.33-23.9 11.97-21.92 19.93 1.33 4 4.65 6.65 11.3 7.3 11.94 3.33 31.2 0 58.43-7.3 25.24-7.3 40.5-14.6 46.5-20.58zm-111.57 18.6c-1.33-3.32 2-5.98 7.96-9.3 11.95-5.98 31.87-10.62 58.44-13.94l42.5 1.33c-1.34 3.98-13.3 8.64-34.54 15.94-23.24 7.96-42.5 11.95-57.77 11.95-9.96 0-15.28-2-16.6-5.97z"/><path fill="#FFE000" d="M101.97 373.57C70.1 388.2 56.81 400.14 62.8 408.1c5.97 8.64 23.9 3.33 54.45-13.94 29.88-18.6 42.5-29.88 39.18-35.2-4.65-5.3-22.58-.65-54.46 14.6z"/><path d="M157.75 357.64c-1.32-2-3.98-2.65-9.3-2.65-11.95 1.97-27.88 7.3-49.13 16.6-21.92 10.6-35.2 19.9-39.18 28.54-1.33 4-1.33 6.64.66 9.3l33.2-1.32c13.28-5.32 26.57-13.3 41.18-23.92 18.6-13.28 25.9-22.57 22.57-26.56zm-93.63 49.14v-2.66c0-2 1.33-4.64 4.65-7.97 8.63-8.63 25.23-17.92 48.48-26.56 21.25-8.64 33.86-11.96 37.18-9.3 0 3.3-7.3 9.95-22.57 20.58-16.6 11.95-31.22 19.93-44.5 25.24l-23.24.66z"/><path fill="#FFE000" d="M150.45 413.42c2.65 34.54 9.3 51.14 20.6 50.47 10.6-.68 12.6-19.26 5.3-53.8-6.64-35.2-13.94-52.46-19.92-51.13-6.65 1.32-8.64 19.26-5.98 54.45z"/><path d="M161.08 360.3c-1.33-2.66-3.33-3.33-5.32-3.33-4.65.67-7.3 9.96-7.97 27.23-.67 13.95 0 29.22 1.98 43.17 4 26.56 10.63 39.84 21.26 39.17 3.98-.66 6.64-3.32 8.63-7.96 4.65-9.3 3.98-27.22-2-52.46-4.64-23.9-9.95-38.52-16.6-45.83zm-4 .66c3.33 1.33 7.32 12.6 13.3 33.2 5.97 23.24 7.96 40.5 7.3 54.46-.67 8.63-3.32 12.62-7.3 12.62-4.65.66-8.64-4.66-11.96-15.28-3.98-13.94-6.64-31.2-6.64-51.8 0-19.92 2-30.55 5.3-33.2z"/><path fill="#FFE000" d="M179.67 378.9c16.6 6.63 25.9 6.63 27.9-1.34 2.65-7.97-4.66-14.6-22.6-19.92-17.25-4.65-27.2-4-28.54 1.33-2 5.98 5.97 12.62 23.24 19.92z"/><path d="M210.22 378.23l.66-3.32c0-7.3-7.97-13.94-24.57-19.25L167.06 353c-7.3.65-11.95 2-12.62 5.3-.66 3.33 0 5.98 3.32 9.3 4.65 5.3 11.96 9.96 20.6 13.28 9.95 4 18.58 5.97 23.9 4 4.65-.68 7.3-3.33 7.97-6.65zm-49.14-13.28l-2.66-4.66c.67-2 3.32-2.66 8.63-2.66l17.93 3.32c5.98 1.33 11.96 3.32 15.28 6.64 3.98 3.32 6.64 6.64 5.3 9.3l-4.64 3.98c-4.65.67-11.3 0-19.92-4-8.63-3.3-15.27-7.95-19.92-11.93z"/><path fill="#FFE000" d="M133.18 377.56c-11.28 14.6-12.6 23.9-5.3 27.9 7.3 4.64 15.26-1.33 23.9-17.94 8.63-15.93 9.96-25.23 4.64-28.55-5.3-2-13.27 3.32-23.24 18.6z"/><path d="M157.75 357.64c-2.65-2-5.97-.67-9.96 1.33-5.98 3.32-11.3 9.3-17.27 17.26-5.98 8.64-8.64 15.94-8.64 21.92v.66c0 4 1.32 6.65 5.3 9.3 4 2.66 8.64 1.34 13.95-3.3 4-3.33 8.63-8.65 12.62-15.95l6.64-17.93c1.34-7.3.68-11.95-2.65-13.28zm-2.65 3.32c2 .67 2 3.32 1.33 8.63l-6.65 17.26c-7.96 13.94-14.6 19.92-21.24 17.26-1.33-1.32-2-3.3-2-5.3-.66-4.66 2-11.3 7.3-19.27 5.98-7.96 10.63-13.28 16.6-16.6 2-2 4-2 4.66-2z"/><path fill="#D96038" d="M159.75 358.97c5.3 2 13.28-6.64 21.25-24.57 8.63-18.6 8.63-29.22.66-31.88-7.97-2-14.6 5.98-21.25 25.24-5.97 19.25-5.97 29.88-.65 31.2z"/><path d="M181 304.5l3.32 4.66c.66 5.3-.67 13.28-5.3 23.9-4.66 9.97-9.3 17.27-14.62 21.26l-3.32 2.65c-1.33-.66-2.66-3.32-2-9.3 0-5.97 1.33-12.6 4-19.9 1.32-5.33 3.97-9.3 5.97-13.3-4.65 1.33-7.98 5.32-10.63 11.3-2 7.96-4 15.27-4 21.9 0 7.98.68 12.62 4.66 13.3 2.66.66 5.32 0 8.64-2.66 5.3-3.98 9.96-11.3 13.94-20.58 5.3-9.96 7.97-18.6 7.97-25.24l-.66-3.98c-.67-4-2.66-6.64-6.64-7.97-4-1.33-5.98 1.33-7.3 7.3 1.98-2.65 3.98-3.32 5.97-3.32z"/><path fill="#FFE000" d="M159.75 358.97c5.98-1.33 7.3-13.28 2.66-34.53-4.65-21.92-10.62-31.88-18.6-29.9-7.96 2-8.62 13.3-2.65 34.55 6.64 21.9 13.28 31.86 18.6 29.87z"/><path d="M153.1 295.88c-2.65-3.32-5.97-4.65-9.3-3.98-5.97 2-8.62 6.64-8.62 15.94 0 3.98 1.32 9.96 2.65 16.6 2.66 9.96 5.98 17.93 9.96 25.9 3.98 7.97 8.62 11.95 12.6 10.62 2.67 0 4-2.65 4.66-5.97 2.65-6.65 2-16.6-.67-29.9-2.66-13.95-6.65-23.9-11.3-29.22zm-8.63 1.32c2-1.32 3.32 0 5.3 1.34 4.66 5.3 8 13.94 10.64 27.23 2 11.95 2.67 21.9.68 28.55l-1.33 2.65c-2 .67-4.65-2.65-8.64-9.3-3.3-6.63-6.63-15.26-9.28-23.9-1.33-7.97-2-13.94-1.33-18.6 0-4.65 1.32-7.3 3.97-7.97z"/><path fill="#FFE000" d="M207.56 330.4c-4.65-6.63-14.6-5.3-29.88 5.33-14.6 9.96-20.6 18.6-17.93 23.24 3.32 5.3 13.28 3.32 29.88-5.32 15.94-8.62 21.92-15.93 17.93-23.24z"/><path d="M210.88 334.4l-2-5.3c-1.98-4-5.97-4.66-11.28-4.66-5.3.66-11.3 3.32-17.93 7.3-7.3 4.65-12.62 9.3-17.26 14.6-5.3 6-7.3 10.63-4.65 13.95 2 2 4.65 3.3 9.3 3.3 6.64 0 13.95-2.64 23.24-7.95 9.96-4.65 15.93-9.96 19.25-15.28l1.33-5.97zm-29.22 1.33c12.62-7.97 19.93-8.64 23.24-3.98 1.33 1.98 1.33 3.98 0 5.97-2 4.65-7.97 9.3-16.6 13.95-8.63 3.98-15.94 6.64-21.9 7.3l-4.66-1.33c-.66-.67.67-4 4.65-8.63l15.26-13.27z"/><path fill="#D96038" d="M165.06 398.8c9.3 23.25 17.93 33.22 25.9 29.9 8.63-4 6.64-17.27-4.65-39.85-11.94-23.24-21.24-33.2-26.55-30.54-5.3 3.33-3.32 16.6 5.3 40.5z"/><path d="M165.73 357.64c-2.66-2-4.65-2-7.3-.67-4 2-4 9.3-1.34 21.92 1.98 11.28 5.97 21.24 10.62 31.2 8.63 17.27 16.6 23.9 24.57 20.6 3.97-1.34 5.3-4.66 5.96-9.97v-1.33c0-8.63-3.98-20.6-11.95-34.53-7.96-13.95-14.6-23.24-20.57-27.23zm-4.65 19.25c-2-9.97-2-15.27 0-15.94 1.32-.67 5.3 3.32 11.3 10.63 5.96 8.6 11.94 18.57 15.92 28.54 6.64 15.27 7.3 23.9 2 26.56-5.32 2-11.96-3.98-18.6-19.26-4.65-9.96-8.63-19.92-10.62-30.55z"/><path fill="#D96038" d="M125.88 360.96c-19.92 7.3-27.9 13.95-23.9 21.9 3.3 7.98 14.6 6.65 33.2-1.98 19.25-9.3 27.23-16.6 24.57-21.9-2.66-5.33-13.95-4.66-33.87 1.98z"/><path d="M161.74 357.64c-.66-2-3.98-3.32-7.97-3.32-7.97-.67-17.27.67-29.22 4.65-12.6 4.64-20.58 9.3-23.9 15.27-1.33 1.33-2 3.32-2 5.97 0 1.35 0 2.67 1.33 4 2 4 7.3 6.64 14.6 5.3 6.65-.65 13.96-2.64 22.6-7.3l17.92-11.28c5.98-5.3 8.63-9.3 6.64-13.28zm-8.64.67l4.65 2-4.65 6.63c-4.64 4-10.62 7.3-17.92 10.63-7.97 4-14.6 6.64-20.6 7.3-5.97.67-9.3 0-10.62-3.3-.66-1.34-.66-3.33 0-4.66 3.32-4.65 11.3-9.3 21.92-12.62 11.3-4 20.6-5.97 27.22-5.97z"/><path fill="#FFE000" d="M131.86 333.73c-21.26-11.95-33.2-13.28-36.53-5.97-3.32 7.3 6.65 16.6 28.56 25.9 21.24 9.3 33.85 10.62 35.85 5.3 2-5.3-6.65-13.93-27.9-25.23z"/><path d="M146.47 362.95c8.63 1.33 13.94.66 15.27-2.66 1.33-2.66 0-5.3-2-8.63-5.3-6.64-14.6-13.28-27.22-20.6-13.94-6.63-23.9-9.95-31.88-9.3-3.98.67-6.64 2.67-7.3 5.32l-.66 3.3c0 4.66 4.64 10.64 12.6 15.95l18.6 9.3 22.6 7.3zm9.96-8.63l1.32 4h-9.3l-23.23-6.65c-8.64-4-16.6-7.98-21.25-12.62-5.32-4-7.3-7.3-6.65-10.63.67-.66 2-2 4.65-2.65 5.98-.67 15.94 2.65 28.56 9.96 12.62 6.64 20.58 12.62 25.9 18.6z"/><path fill="#FFE000" d="M173.03 353c-2-2.67-3.98-4.65-7.3-5.32L155.1 349c-4 2-5.98 4-7.3 6.65-2 3.32-2 5.98-.67 9.3.66 2.65 3.32 4.64 7.3 5.3l9.97-1.32c3.32-1.33 6.64-3.98 7.97-7.3 2-2.66 2-5.98.66-8.64z"/><path d="M166.4 345.7l-11.96 1.3c-5.32 2-7.97 5.33-9.97 9.97-.66 3.32-.66 6.64 0 8.64 2 3.33 4 5.32 7.3 6.65l13.3-1.33c5.3-2 8.62-5.3 9.95-9.96 1.33-2.65 1.33-5.97-.66-8.63-1.33-3.98-4-5.32-7.97-6.64zm-17.28 12.6c1.33-3.3 3.32-5.97 7.3-7.3l8.64-.67c2.66 0 4.65 1.34 5.98 4v5.96c-1.33 3.3-4 5.3-7.3 6.63l-9.97.67c-2.66 0-3.32-2-4.65-3.32-1.33-2-1.33-4 0-5.97z"/><path stroke-miterlimit="100" d="M364.58 579.58H7.42V7.42h357.16v572.16z" fill="none" stroke="#000" stroke-width="14.84"/></svg>