<svg xmlns="http://www.w3.org/2000/svg" width="372" height="587" viewBox="0 0 372 587"><path fill="#fff" d="M0 0h372v587H0z"/><path fill="#DA8E55" d="M237.65 166.92a139.57 139.57 0 0 0 20.47 5.95c-3.3-5.95-7.92-11.23-13.2-16.5-11.9-11.24-24.45-17.2-38.32-16.53 5.28 11.9 15.85 21.13 31.05 27.08z"/><path d="M206.6 137.2c-1.32 0-1.32.66-1.98 1.32v1.98c5.94 12.55 15.85 22.46 30.38 28.4 7.94 3.3 15.86 5.3 22.46 5.95l2.65-1.32v-1.98c-3.93-6.6-8.56-11.9-14.5-17.84-11.9-10.53-24.45-16.5-39-16.5z"/><path fill="#FFE000" d="M201.97 143.15c13.22 8.58 30.4 13.2 52.2 15.2l28.4-1.34c-6.6-5.25-14.54-9.9-25.1-13.83-19.82-7.27-38.98-7.93-55.5 0z"/><path d="M284.54 157.67l-.66-2.64c-7.26-5.28-15.85-10.57-26.42-14.53-20.47-7.26-38.97-7.26-56.14 0l-1.98 2.64c0 .66.66 1.32 1.32 1.98 13.87 8.6 31.04 13.88 52.2 15.2l29.7-.66 1.98-2zm-75.96-14.52c11.9-3.97 25.76-3.97 39.63 0 9.94 2.64 19.2 6.6 27.78 11.88h-30.4c-14.52-1.98-27.07-5.94-36.98-11.88z"/><path fill="#FFE000" d="M150.46 112.1l-25.1-1.98 19.8 15.2c15.86 9.9 33.03 11.88 50.87 7.26-11.23-10.58-27.1-17.18-45.57-20.48z"/><path d="M144.5 127.3c16.52 9.9 34.35 12.54 52.2 7.92l1.97-1.98-.66-2.65c-12.52-10.6-27.7-17.2-46.2-21.16l-26.43-2c-.65 0-1.3 0-1.98 1.34 0 1.3 0 1.97.66 1.97l20.47 16.5zm45.6 3.95a67.8 67.8 0 0 1-37.67-4.62c-7.92-3.3-15.18-8.6-21.13-14.53 23.78.66 43.6 6.6 58.8 19.15z"/><path fill="#858585" d="M184.14 133.24l1.32 13.2-1.98 13.88-26.42 54.16 16.52-1.32 11.22-23.78c7.27-16.5 12.56-26.42 14.54-29.06 3.96-3.97 11.22-7.27 21.8-11.9-2.65-2.63-7.27-4.62-14.53-5.28l-9.22-1.32a20.83 20.83 0 0 0-7.93-6.6l-5.3-1.98z"/><path d="M198.67 139.84c-1.97-3.3-4.62-5.3-8.58-6.6l-5.3-2.65-2.66 1.3-.66 2 .65 12.53-1.32 13.2c-2 6.6-9.9 23.8-26.4 53.5l.66 2.66 1.98 2 16.52-2c1.3 0 1.97 0 1.97-1.33 13.88-30.4 22.46-48.22 26.42-51.52 2.65-3.96 9.9-7.93 19.82-11.23l1.97-1.98v-1.32l-1.32-1.32c-3.3-3.94-11.22-6.6-23.78-7.25zm-3.3 3.3l1.98 2c7.27 0 13.2 1.3 17.83 3.3-8.58 3.3-14.52 7.26-17.17 10.56-4.6 5.28-13.2 22.46-26.4 52.18l-9.9.67c14.53-29.07 23.1-46.9 23.78-50.87l2.64-15.85-.65-7.93c3.97 1.98 6.6 3.96 7.93 5.95z"/><path fill="#D96038" d="M221.8 102.85V83.7c-4.63 2.64-9.25 7.26-13.22 13.2-8.58 12.56-10.57 27.74-6.6 45.6 10.57-11.9 17.84-25.12 19.8-39.65z"/><path d="M200 143.15l1.97 1.98 2-1.33c11.22-11.22 17.82-25.1 20.47-40.3V83.7l-1.32-2h-2c-5.93 2.65-9.9 7.28-14.5 13.88-5.3 9.25-7.28 18.5-3.98 29.73 0-16.5 5.94-28.4 17.84-37.63v4.63c0 16.5-5.3 31.04-16.52 44.25l-1.98-9.9c-1.98 5.27-3.3 10.56-1.98 16.5z"/><path fill="#D96038" d="M244.9 116.72l13.9-17.82a72.02 72.02 0 0 0-23.78 6.6c-16.5 6.6-27.08 19.8-32.36 37 15.85-5.3 29.06-13.9 42.27-25.78z"/><path d="M200.66 141.82l.65 1.98 2.68 1.32c15.2-5.28 29.07-14.53 41.6-26.42l15.2-18.5v-2.64c0-.66-.65-.66-1.98-.66-7.93 0-16.5 1.98-25.1 6.6-3.97 2-6.6 5.3-8.6 9.92 7.94-5.95 17.2-9.9 29.07-11.23-12.56 16.5-28.4 28.4-46.9 36.3 3.96-9.25 8.6-16.5 15.2-21.8-10.58 3.96-17.84 13.2-21.8 25.1z"/><path fill="#D96038" d="M176.22 91.62l-15.2-17.83L163 98.9c5.3 17.82 15.85 31.03 32.37 38.3-2.64-15.2-8.58-30.4-19.16-45.58z"/><path d="M162.34 72.46l-2.64-.66-1.32 2 2.64 25.75c4.62 18.5 16.52 31.7 33.03 40.3h1.98l1.32-2.65c-1.98-16.52-8.6-31.7-18.5-46.24l-16.5-18.5zm5.3 32.37c-3.3-7.92-5.3-15.85-5.3-25.1 16.5 15.85 25.77 33.7 29.73 53.5a56.93 56.93 0 0 1-24.44-28.4z"/><path fill="#FFE000" d="M161.68 100.2l-22.46-11.9 11.9 21.82c11.22 15.85 25.76 25.1 44.25 27.08-6.6-13.87-17.83-27.08-33.7-37z"/><path d="M137.9 88.98l11.23 23.12c11.9 15.2 27.08 24.44 45.58 27.74.7 0 1.35 0 2-1.32l.67-1.98c-6.6-14.53-18.5-27.74-34.35-38.32-9.9-7.26-17.17-11.22-22.44-11.88l-2 .66c-1.3.66-1.3 1.3-.65 1.98zm52.2 44.9c-21.15-5.27-37-18.48-46.25-41.6 21.8 9.9 37 24.44 46.24 41.6z"/><path fill="#FFE000" d="M198.67 95.58l-9.24-16.5-5.94 17.83c-2 15.2 2.6 29.1 14.5 42.96 4.62-14.53 4.62-29.72.65-44.26z"/><path d="M191.4 77.1l-1.97-.67-1.32.66-6.6 19.8c-1.96 15.2 3.3 30.4 14.55 44.9l2.64.67 2-2c4.6-15.2 4.6-30.38 0-44.92l-9.27-18.5zm7.94 40.94l-1.98 16.5c-8.6-10.55-11.9-21.12-11.9-32.35 0-6.64 1.33-13.24 3.97-19.18a65.28 65.28 0 0 1 9.9 35z"/><path fill="#FFE000" d="M201.97 142.5c15.86 3.95 31.72 2.62 48.9-2.66l19.8-9.9a54.03 54.03 0 0 0-22.46-4.63c-17.14-1.3-32.33 4.65-46.2 17.2z"/><path d="M273.32 129.93l-2-1.32c-5.93-3.3-13.86-5.25-23.1-5.25-17.84-1.32-33.7 4.62-47.56 17.17l-.66 2.66 1.97 1.98c15.86 3.3 31.72 3.3 48.9-2.64 7.92-2.66 15.18-5.96 21.13-10.6l1.32-1.97z"/><path fill="#858585" d="M55.34 76.43l-15.2-.66c-2.64 1.32-4.62 6.6-5.94 18.5-.67 7.92-.67 15.85 0 23.1 0 3.3 1.98 7.94 4.62 11.24l7.27 7.3c1.95.66 3.93 2.64 5.9 5.94 1.33 3.97 1.33 6.6.67 7.93l-8.6 1.98-11.23 1.98c-3.3 1.33-6.6 4.63-9.9 9.92-3.3 4.62-4.62 9.25-4.62 12.55 0 3.3 4.62 7.9 15.85 13.86 7.93 5.3 15.2 9.25 21.8 11.23 40.3 17.8 64.73 7.9 73.3-29.75.68-9.9 2.66-17.83 4.65-21.8 1.3-3.3.65-6.6-2.65-11.22-3.96-3.97-6.6-5.3-9.25-5.3l-7.26.67-9.26 2.65c-3.3 1.98-5.3.65-6.6-3.3-2-3.3-1.3-6.6 0-9.92 6.6-13.2 9.9-21.13 9.25-22.46-.66-1.98-5.3-3.96-14.53-6.6l-6.6 1.32-7.94.65c-1.3-.67-3.3-3.3-5.27-8.6-1.96-4.62-3.95-7.26-5.26-8.58l-13.2-2.64z"/><path d="M55.34 73.8H39.48c-6.6.64-9.9 15.18-7.92 43.58.66 4.63 1.3 9.25 4.62 13.2 3.3 4.64 5.94 6.62 8.6 7.94 1.96.66 3.95 1.98 4.6 4.62l1.33 5.3-6.6.65-12.52 2.6c-3.3 1.33-6.6 4.64-10.57 10.58-3.3 5.93-5.3 10.56-5.3 13.86 0 3.96 5.96 9.9 18.5 17.83a197.3 197.3 0 0 0 20.5 10.57c22.44 9.24 40.3 10.57 53.5 3.3 11.9-5.94 19.8-17.84 23.77-35v-.67c1.32-10.56 2.64-17.17 4.62-21.8 1.3-3.95.66-7.25-2-11.88-4.6-5.95-9.24-8.6-13.2-7.94h-2.64c-5.3.64-9.9 1.97-13.87 3.3h-2.66c-1.98-2-1.98-5.3-.66-9.9l1.98-3.33c5.3-11.88 7.93-18.5 6.6-20.47 0-3.3-5.27-5.94-15.18-7.92l-9.25.67-5.28.66L75.8 87c-1.97-5.95-3.95-9.25-6.6-9.9l-13.87-3.3zm0 5.27l11.88 2.64 4.63 7.3c1.32 4.63 3.3 7.93 6.6 9.9l9.9-1.3 5.3-.66c6.6 2 11.23 3.3 11.9 5.3l-7.28 16.5-1.32 3.3c-1.32 2.64-1.98 5.3-1.32 8.6 0 2.64 1.32 5.28 2.64 6.6 1.98 2.64 5.3 3.3 8.6 1.98l11.88-2.63 3.3-.67c2.65 0 4.63 1.98 7.93 5.95l1.98 4.63v2c-2.65 4.6-3.96 11.87-5.3 23.1-3.3 16.52-11.2 27.1-21.12 31.7-11.9 5.96-27.74 4.64-48.22-3.95L32.87 186.8 21 176.15c0-2.63 1.97-6.6 4.6-11.22 3.3-4.62 5.96-7.27 8.6-8.6l9.9-2.63c5.3 0 9.25-.63 10.58-2.62 1.3-1.97 1.3-4.6 0-7.92-2-5.3-4.63-8.6-8.6-9.9l-5.28-5.95c-2.64-3.3-3.3-6.6-3.97-9.9-.65-10.58-.65-20.5.67-28.4.66-6.6 1.98-9.9 3.3-9.9h14.54z"/><path d="M51.38 86.34c-.67-1.33-2-2-2.65-.67-1.32 1.33-1.32 1.98-.66 3.3l17.83 31.05c13.2 24.44 21.14 48.22 24.44 71.34 0 1.32 1.33 1.98 1.98 1.98 1.33-.66 2-1.3 1.33-1.98-3.3-23.78-11.23-48.22-23.8-73.32L51.4 86.34z"/><path d="M46.1 106.8c-.68-1.3-1.34-1.3-2 0-1.33.67-1.33 2 0 2.66l9.24 9.24c7.27 6.6 13.87 11.23 19.82 14.54.66 1.3 1.98.65 2.64 0v-3.3L56 115.4l-9.9-8.6zm46.88 0c-1.3-1.3-2.64-1.3-2.64.67L75.8 139.84c.67-1.32 1.33-1.32 3.3-1.32.67.66 1.33 1.32.67 2.64l13.88-32.37-.67-2zm-27.74 39l-3.3-.68c-1.32 1.33-1.32 1.98 0 3.3l6.6 7.94 19.16 20.47 2.64-.66c1.32-.65 1.32-1.32 0-2.64l-18.5-19.82-6.6-7.9z"/><path fill="#858585" d="M319.56 235.62c-1.32-1.32-2.65-1.98-5.95-1.32h-9.22l-9.9-4.63c-3.97-1.97-7.27-3.96-9.92-3.96-3.96 0-7.92 1.35-12.54 3.34-3.96 1.98-7.26 3.3-8.6 5.28-1.3 1.33-2.62 0-5.93-1.97l-5.95-5.95c0-.66 0-2.64.66-6.6l1.3-8.6c0-1.97-1.96-3.3-6.6-3.3l-10.55 3.3c-1.98 1.33-4.63 3.32-9.25 6.62l-5.3 3.95c-11.88 6.6-19.8 17.83-25.1 33.7-4.62 15.18-4.62 28.4 0 38.97 3.97 8.58 15.86 15.18 36.34 19.8l39.63 5.95 22.46-2a67 67 0 0 0 17.84-7.27c3.96-2.65 5.28-7.27 5.28-14.54-.67-7.94-1.98-10.6-5.28-9.27l-11.9 3.97c-4.62 1.32-8.58 1.32-9.9 0-2.65-1.33-3.3-3.97-3.3-5.95.65-2.64 2.63-4.62 4.62-5.94l13.2-3.3c7.26-2 11.22-5.3 13.2-7.9 2-3.3 3.3-9.27 3.3-17.2-.66-6.6-1.33-11.9-2.64-15.2z"/><path d="M284.54 223.07c-3.96 0-8.58 1.32-13.87 3.96l-9.25 5.3-7.26-6.62.66-6.6 1.33-7.9a6 6 0 0 0-2-4.62l-9.9-.66c-3.96.67-6.6 2-9.25 3.3-2.64.67-5.27 2.66-9.9 5.96l-5.28 4.62h-.67c-11.23 6.6-20.48 18.5-25.1 35-5.3 15.86-5.3 29.07 0 40.96 3.96 7.93 13.2 14.53 29.73 18.5l38.3 7.27 9.92 1.3 23.78-1.95c7.92-2.65 14.53-4.64 18.5-7.27 3.3-2.63 5.28-6.6 6.6-12.54 0-5.3 0-9.9-1.32-13.2-2-2.66-4.63-3.98-7.93-3.32l-1.32.67c-10.54 3.97-15.83 5.3-17.8 3.97-1.33-1.3-2-1.98-1.33-3.96 0-1.3.66-2.63 2.65-3.3l6.6-2c10.58-2.62 17.85-5.92 20.5-10.54 2.63-3.96 3.95-9.9 3.3-18.5 0-7.92-.67-13.2-2.65-16.5-.66-1.98-1.98-3.3-3.97-3.3h-5.94l-7.27.66-7.93-3.97c-5.3-2.63-8.6-4.62-11.9-4.62zm-11.22 8.6a24.9 24.9 0 0 1 11.22-2.65c2 0 5.3.65 9.25 3.3a45.5 45.5 0 0 0 9.9 4.62l9.23-.66 4.62.66c.67 2.64 2 7.27 2 13.87 0 7.96-1.34 13.24-2.66 15.88-2.65 2.65-8.6 5.3-18.5 8.6l-7.27 1.98c-3.3 1.32-5.27 4.62-5.94 7.92 0 2.65 1.32 5.95 3.96 8.6l9.25.65 13.2-3.95 2.66-.67 1.32 5.96c.64 5.95-1.34 10.57-3.98 13.2-3.97 2.66-10.58 5.3-17.84 7.28l-20.5 1.33-10.55-1.32-36.32-5.94c-15.2-4.6-24.45-9.9-27.75-16.5-3.96-10.57-3.96-23.12.66-37.65 4.63-15.2 12.55-25.77 23.12-31.7l.67-.67 14.5-10.57 7.28-1.97h5.94l-1.98 13.2.67 3.98c4.63 5.95 8.6 8.6 11.9 9.25l3.97-1.98 7.92-3.96z"/><path d="M311.63 245.53c-.66-1.32-1.32-1.32-2.64-1.32l-27.1 9.94c-20.5 5.94-36.35 7.92-47.58 4.62-1.98 0-2.64 0-2.64 1.98 0 1.32 0 1.98 1.97 1.98 11.9 2.66 27.74 1.33 48.22-3.95l29.05-10.57c.67-.66.67-1.32.67-2.64z"/><path d="M289.18 235.62c-.67-1.32-1.33-1.32-2-1.32-1.97 0-3.95 1.32-5.94 4.63-3.96 3.96-7.92 10.56-11.88 19.8-.67.67 0 2 1.3 2 .67 1.3 2 .66 2.66-1.33 2.64-7.26 6.6-13.87 9.9-17.17l4.63-3.96c1.32-.67 1.98-1.33 1.32-2.65zm-4.64 18.5c-.66-.67-1.3-.67-2.64 0-.66 1.32-.66 1.98 0 3.3 5.3 4.63 13.88 7.93 25.76 7.93l2.65-1.32-2.62-1.98c-10.56-1.33-19.15-3.3-23.12-7.93zm-42.94-33.7l-2.63.67-9.25 11.86a72.47 72.47 0 0 0-8.6 29.72c0 1.32.67 2 2 2l1.97-2c0-8.6 3.3-18.5 8.56-27.74l7.92-11.9c.66-.66.66-1.98 0-2.65z"/><path fill="#858585" d="M98.27 374.34l-9.25-8.6L65.9 420.6c-11.9-14.56-20.47-25.8-25.1-34.37-3.3-5.3-8.6-17.18-16.5-35.67l-11.24-26.42-13.22 17.83 5.95 15.2 23.1 48.87 20.5 33.7c9.9 13.86 16.5 29.06 22.43 45.57l27.08 11.26c-9.9-28.4-18.5-48.9-24.43-60.77a650.9 650.9 0 0 0 23.77-61.44z"/><path d="M13.7 321.5c-.63 0-1.95 0-1.95 1.3L-2.15 340l-.65 2.63 5.95 16.5 23.12 48.24 15.85 25.1c11.9 17.83 21.8 36.33 27.08 53.5l1.33 1.98L97.6 499.2h2.65l1.32-2.66v-.65c-9.9-27.78-17.83-47.6-24.44-60.15l23.12-60.1v-1.33L99.6 373l-9.27-9.23-1.98-.67-1.98 1.34-21.14 51.52C54 402.08 46.1 391.52 42.78 384.9l-15.85-35-11.23-26.42-1.98-2zm76 48.88l5.3 5.27-22.5 59.45-.65.67.66 1.32c5.98 11.86 13.24 29.7 21.8 54.8l-20.45-9.25a259.35 259.35 0 0 0-27.74-53.5l-15.2-23.8C19.68 382.25 9.77 361.1 2.5 342.6l10.57-13.2c13.2 33.7 22.46 52.84 25.1 58.13 4.62 8.6 13.22 19.82 25.76 35 0 .67 1.32.67 1.98.67l2.66-1.32 21.13-51.52z"/><path fill="#858585" d="M99.6 287.8c-4.63 0-7.93 3.97-10.58 11.23-2.64 7.27-6.6 11.23-11.9 14.54l-13.86 6.6c-5.94 3.3-10.57 6.6-12.55 9.25-2.6 3.96-4.6 7.93-5.25 13.87-1.33 5.9-.66 9.9.65 12.52 1.32 1.33 3.3 3.3 6.6 3.3l8.6-1.97 4.6-2.65 3.97-.65c3.97 1.98 5.3 5.28 3.97 9.25l-3.3 5.95c-2.64 3.3-4.63 5.3-4.63 8.6-.64 4.6 0 9.24.68 16.5.66 6.6 2.64 10.57 3.97 11.23l7.27 2.65c2.65.65 5.95-.66 7.93-1.98l5.95-8.6c1.98-2.64 3.3-3.95 3.96-3.3l1.32 5.95a12.37 12.37 0 0 0 0 8.58l8.58 7.94 7.27 9.24c.67 1.98 2.65 0 5.96-4.62 3.3-5.3 4.6-9.9 5.27-13.87l-1.98-13.87c-2-5.95-2-9.9-.67-10.57l6.6-.67 7.26 1.33 4.62-7.3 3.94-9.9c.66-.67-2.64-3.98-8.6-9.25-5.27-5.3-6.6-9.25-5.27-11.24 1.97-3.3 4.6-5.26 6.6-5.93l8.6-2c6.6-1.97 7.24-7.92 2.62-17.82-1.3-2.64-9.24-8.6-22.45-17.18l-19.8-12.55c-2-1.98-3.32-2.64-5.96-2.64z"/><path d="M96.95 285.82c-4.63 1.33-7.93 5.3-10.57 11.9-2.64 6.6-5.94 10.56-10.57 13.2l-5.25 2.65c-11.23 5.94-18.5 9.9-21.8 13.87-3.3 3.97-4.62 9.25-5.95 15.85-.66 5.9-.66 9.9 1.32 13.2 1.33 3.3 3.97 4.6 8.6 5.3l9.9-2 3.3-2.65c1.32-.66 2.65-.66 3.3-.66 2 .66 3.3 3.3 2.65 6.6l-2.64 2.64c-3.3 3.97-5.28 7.93-5.94 11.24-.68 3.94-.68 9.9.64 16.5 1.32 8.57 3.3 13.2 6.6 14.52l2 .65 6.6 2c3.3 0 5.94-.67 7.92-2.66l6.6-7.9v-.68 4.63c0 1.97.67 4.6 2 5.94l6.6 7.27 7.92 8.58c.65 2.64 1.97 3.3 4.6 3.3 2-.66 4.63-3.3 7.28-9.24 3.3-4.62 4.62-8.6 4.62-12.54l-1.98-13.2-1.33-9.92 5.27 1.3 7.93.68 5.94-9.25 3.98-9.9c0-1.33-2-4.64-7.27-9.9-5.27-5.3-7.9-9.26-7.25-10.58a9.43 9.43 0 0 1 7.92-3.98l5.93-1.98 6.6-4.63c2-4.6.67-9.9-2.63-16.5-2-5.94-16.52-15.85-42.95-31.7-3.3-2.65-6.6-2.65-9.9-2zm-18.5 29.73c5.3-2.65 9.9-8.6 13.22-15.86 1.98-5.3 3.96-7.95 6.6-9.27 1.98 0 3.96 0 5.28 1.98l26.43 15.86c9.24 6.6 14.53 11.23 15.85 13.22 1.98 5.27 2.64 9.24 1.98 11.87l-3.3 2.64-5.26.67c-4.62.65-7.92 3.3-11.22 7.26-2 2.64-2 5.94.66 9.24l7.93 7.93 4.63 5.3-3.3 9.25-3.96 5.3-3.97-1.34-5.95-.64a7.5 7.5 0 0 0-5.3 2c-.64 1.3-.64 2.63-.64 4.6l2 9.9 1.3 10.58v1.33l-2.65 8.58-4.62 6.6-8.6-9.24-5.93-6.6-.68-2.63.66-7.26c0-2-.67-3.96-2.65-4.62l-4.63.66-3.3 3.97-5.28 6.6c-1.98 2-5.3 2-9.9 0l-2-.65c-1.32-.66-1.98-3.97-2.64-9.9-1.3-5.95-1.3-10.58-.66-14.54a21.25 21.25 0 0 1 5.3-8.6l3.3-5.92c1.3-5.94-1.33-9.9-5.95-12.55-2.66-.66-5.3-.66-8.6 1.98l-2.65 2-6.6 1.3-4.62-2.63c-1.32-1.33-1.32-4.63-.66-9.9 1.32-5.95 2.64-9.92 4.62-13.22 2.63-3.3 9.24-7.27 19.8-12.55l5.95-2.66z"/><path d="M92.98 322.15c-.66-1.3-1.3-1.3-2.64-1.3-1.32.64-1.32 1.96-1.32 2.62l6.6 22.46c5.95 17.84 9.9 37 13.22 57.48l2.64 2 1.98-2.64c-3.97-19.8-7.93-39.63-13.2-58.12l-7.28-22.47z"/><path d="M98.93 348.57l-1.98.66c-3.3 2.65-6.6 7.27-11.23 13.88-6.6 11.26-10.57 21.17-11.9 30.4 0 2 0 2.66 1.33 2.66 1.98 0 1.98-.67 1.98-1.98 1.98-8.6 5.3-17.84 12.55-29.07 5.95-8.6 9.25-13.87 9.9-13.87.67-1.32.67-2-.65-2.65z"/><path d="M90.34 356.5l-1.32 25.76c0 1.33 0 2 1.32 2l2.64-1.34 2-25.75-2.66 1.97c-.65 0-1.98-1.3-1.98-2.64z"/><path fill="#FFE000" d="M146.5 224.4c29.05-21.8 39.62-37 33.68-44.27-5.95-6.6-22.46 2-48.88 26.42-26.42 25.1-37.65 39.64-33.7 44.26 4.63 4.66 20.5-3.93 48.9-26.4z"/><path d="M95.63 252.8l6.6 1.32c8.6-1.98 23.12-9.9 43.6-25.76 21.8-16.52 33.7-29.73 37-39.63l1.3-3.97-1.97-5.94c-2.64-2.65-5.94-3.3-9.9-2.65-10.58 1.98-25.1 11.9-44.26 31.04-19.16 17.88-29.73 31.1-32.37 39.67-.66 2.64-.66 5.3 0 5.94zm37-20.48c-19.17 13.2-29.74 18.5-33.7 17.17 0-3.3 6.6-13.24 22.46-29.75 17.14-17.18 31-29.73 43.56-36.34 7.27-3.3 11.23-3.95 13.87-1.97 2 3.3 0 7.28-3.96 13.22-8.6 11.23-22.47 24.44-42.28 37.65z"/><path fill="#FFE000" d="M159.04 237.6c37-15.2 52.84-27.74 46.9-37.65-5.28-9.9-26.42-5.28-60.77 14.53-35 19.16-50.86 31.7-47.56 37.66 3.34 5.28 23.8.65 61.46-14.54z"/><path d="M96.28 247.5c-1.3 2-1.3 4.64-.65 5.3 1.32 1.32 3.3 2.64 7.26 2.64 11.9 0 29.7-4.63 54.8-14.54 27.74-11.23 44.25-21.8 50.2-31.04l1.32-5.95-1.32-4.6c-2.63-3.95-6.6-5.94-12.54-5.94-13.2 0-32.37 7.27-56.8 22.46-23.78 13.23-37.65 23.8-42.3 31.7zm3.3 3.3c.67-3.95 10.58-12.53 31.06-25.1 21.8-13.85 40.3-23.1 54.82-26.4 9.9-2.65 16.5-1.33 18.5 1.97 1.3 3.3 0 7.27-5.3 11.9-10.55 9.24-29.05 19.15-56.14 27.74-25.1 8.6-38.97 11.9-42.93 9.9z"/><path fill="#D96038" d="M159.04 253.45c38.3-4.62 56.14-12.54 54.17-23.12-1.95-10.56-21.8-11.22-60.1-1.3-37.64 8.57-56.13 16.5-54.8 23.1l60.76 1.32z"/><path d="M98.93 247.5c-2.65 1.33-3.3 3.3-2.65 4.64l5.3 3.96c9.9 3.3 28.4 3.3 54.82 0 29.06-3.3 46.9-8.6 55.48-16.52a10.3 10.3 0 0 0 3.97-7.92l-.67-2c-.65-3.95-3.3-6.6-7.92-7.9-11.9-3.97-31.7-2-58.8 5.93-26.4 6.6-42.93 13.2-49.53 19.8zm38.32-11.88c25.1-7.93 44.9-11.23 59.45-10.56 8.58 0 13.2 1.97 14.52 5.94.66 3.3-2.64 6.6-9.25 9.9-13.2 5.95-33.03 9.9-59.45 11.9l-42.27-2c1.98-3.3 13.88-8.57 37-15.18z"/><path fill="#FFE000" d="M148.47 277.9c35.67 12.55 54.83 15.2 56.8 7.26 2.65-7.92-14.52-17.17-50.85-27.74-37-9.9-56.15-12.55-58.14-6.6-1.3 5.28 15.86 14.53 52.2 27.08z"/><path d="M98.27 246.2c-2.64.65-3.96 1.97-4.62 3.3 0 1.98.66 3.95 2.63 5.94 5.95 6.6 22.47 14.53 49.55 23.78 28.4 10.56 46.23 13.87 56.14 11.23 3.3-.67 5.95-2.64 5.95-4.63l.66-1.98c0-1.98-1.32-3.96-3.3-5.94-7.93-7.27-25.76-15.85-54.17-23.78-27.04-7.27-44.22-9.9-52.8-7.93zm41.6 9.9c26.44 6.6 45.6 13.87 56.16 21.14 5.94 2.63 7.93 5.28 7.93 7.27-1.32 2-3.96 2.66-9.25 2.66-13.2-.66-32.34-5.28-58.1-15.85-24.44-9.25-37.65-16.5-37.65-20.5 2.64-1.96 16.5-.64 40.95 5.3z"/><path fill="#FFE000" d="M96.95 247.5c-4.63 3.98 2.64 20.5 21.8 49.55 19.8 29.06 33.02 40.3 38.97 35.67 6.6-5.28-.66-21.13-22.46-48.88-20.47-27.74-33.7-39.63-38.3-36.33z"/><path d="M98.27 249.5c3.96-.67 11.9 7.92 26.42 24.43 14.5 17.18 25.1 32.37 30.36 44.26 2.64 7.23 3.3 11.86 1.32 12.52-1.33 1.32-3.3 0-6.6-2.64 3.3 7.25 6.6 9.24 9.23 6.6 2-1.33 3.3-3.97 3.3-6.6l-.65-2c-1.3-10.56-9.9-25.76-26.42-46.24-15.2-19.8-26.42-31.04-34.34-34.34h-5.3c-3.95 3.3-1.3 13.2 7.94 30.38 7.92 13.88 15.2 26.43 24.44 37.67 5.27 6.6 11.2 10.57 17.82 11.88-9.9-8.58-20.48-21.8-32.37-41.6-11.9-19.83-16.5-31.06-15.2-34.36z"/><path fill="#FFE000" d="M143.2 265.35c31.7 3.96 46.9 1.98 47.55-6.6 0-7.94-15.86-13.22-47.56-14.54-31.08-1.3-46.27 1.35-46.27 7.3-.67 5.94 15.2 10.56 46.24 13.87z"/><path d="M94.3 251.48c0 2.64 1.33 4.62 4.63 5.94 7.93 4.62 23.12 7.93 44.26 10.57l44.9-2.67a6.88 6.88 0 0 0 4.6-6.6c0-3.3-1.97-5.96-5.93-7.94-7.95-5.28-23.8-7.9-45.6-8.58-22.45-.66-36.98.66-43.6 4.62-1.97 1.33-3.3 2.64-3.3 4.63zm35.68 9.9c-19.82-3.3-29.73-6.6-31.05-9.9 1.32-2.65 11.23-3.97 29.07-4.63l46.23 3.96c9.26 2 13.87 4.66 13.87 7.96 0 1.98-3.3 3.96-9.9 5.3l-48.22-2.65z"/><path fill="#FFE000" d="M135.26 286.48c29.73 19.82 46.24 25.1 50.2 18.5 3.3-7.26-9.9-19.82-39.63-37-30.4-17.17-46.9-23.77-49.55-19.15-2.63 5.3 10.58 18.5 38.98 37.65z"/><path d="M125.35 276.57c-18.5-13.87-27.08-22.45-27.08-26.42 3.3-1.32 14.53 2.65 33.7 12.55 20.46 11.23 35.66 21.14 44.9 30.4-4.62-9.26-14.53-18.5-31.7-27.75-8.6-5.3-16.5-9.9-26.42-13.87-13.87-5.95-21.8-7.27-24.44-3.3-1.95 3.96 4 12.54 19.18 24.43a266.93 266.93 0 0 0 37 25.8c7.92 4.6 14.52 5.94 21.13 4.6-12.55-4.6-27.74-12.53-46.24-26.4z"/><path d="M175.55 303.66c-1.32 0-3.3 0-3.96-.67.63.64.63.64 1.3.64h2.63z"/><path d="M182.82 303.66c-.66 1.32-3.3 1.32-7.27 0 5.95 5.28 9.9 5.94 11.9 2.64l.65-3.3c0-3.97-3.96-7.27-11.22-9.9 5.28 4.62 7.92 8.58 5.94 10.56z"/><path fill="#FFE000" d="M88.36 231c-12.55-11.23-21.14-14.54-27.08-8.6-5.3 5.96-1.98 13.88 11.88 23.8 13.88 9.9 22.47 12.54 26.43 8.58 3.94-3.97.63-11.9-11.26-23.78z"/><path d="M90.34 231c-5.94-6.6-11.9-11.23-18.5-12.55-4.62-1.33-9.24-.66-12.54 2.64a12.8 12.8 0 0 0-1.98 6.6v3.3c1.32 5.26 5.94 11.2 13.2 16.5 7.28 4.62 13.22 7.92 19.82 9.9l11.23-1.3c1.32-1.34 1.98-3.98.66-7.3-1.3-5.93-5.28-11.9-11.9-17.82zm-19.8-8.6a37.12 37.12 0 0 1 16.5 11.9c6.6 5.28 9.9 11.23 11.23 15.2v3.3c-1.32 1.32-3.3 1.32-6.6 0a38.6 38.6 0 0 1-17.84-9.26c-6.6-4.6-11.23-9.24-11.9-13.86-.65-1.98 0-3.97.67-5.3 2-1.97 4.62-1.97 7.93-1.97z"/><path fill="#FFE000" d="M104.22 221.1c-2.65-21.8-8.6-31.72-16.52-30.4-7.93 1.33-9.25 12.55-3.96 33.7 4.62 21.13 9.9 31.04 15.85 30.38 5.92-.66 7.24-12.55 4.6-33.7z"/><path d="M84.4 219.1l-1.33-13.2c-2.63 3.96-3.96 8.58-3.3 13.2 2 9.92 3.97 18.5 7.94 25.77 4.64 9.25 7.95 12.55 12.57 12.55 3.97-1.32 6.6-6.6 6.6-16.5 1.33-7.94 0-16.53-1.3-26.44-3.98-19.15-9.92-27.74-18.5-26.42-5.3 1.32-6.6 6.6-3.3 16.52 0-7.27 1.3-11.23 4.6-11.9 5.3-.65 9.26 6.6 12.57 23.13 1.3 8.6 2.64 17.2 1.3 25.1 0 7.3-1.3 11.26-3.3 11.26-1.3.66-3.95-2.65-6.6-9.25-3.3-7.27-6.6-15.2-7.92-23.8z"/><path fill="#D96038" d="M136.58 236.28c19.82-16.5 27.75-27.08 21.8-33.7-5.95-5.93-17.83.67-36.33 18.5-19.16 18.5-26.42 29.73-23.12 34.36 4.63 3.96 16.5-2 37.65-19.16z"/><path d="M120.07 245.53c-10.57 6.6-16.52 9.9-18.5 7.92-1.32-1.97 1.98-7.26 8.6-15.85 7.92-9.9 16.5-18.5 25.75-25.1-5.94 0-10.57 1.98-14.53 6.6l-14.56 15.86c-9.25 10.57-11.9 17.83-9.25 21.8 2.64 3.3 10.57 1.98 22.46-5.28 9.24-5.95 18.5-12.56 26.42-21.15 10.55-9.24 15.83-17.83 15.83-23.78 0-1.98-.65-3.96-2.63-5.28-3.97-5.28-11.9-1.32-23.8 11.23 10.58-8.6 17.85-11.23 20.5-7.93 2.63 1.98.65 7.93-6.6 16.52-7.3 8.56-17.85 16.5-29.74 24.4z"/><path fill="#FFE000" d="M97.6 281.2c4.63 15.85 10.58 22.46 17.84 19.82 7.93-2 8.6-10.57 2.65-25.77-6.64-15.85-12.6-22.46-18.5-20.47-5.97 1.32-5.97 10.57-2 26.42z"/><path d="M122.05 279.22c-2.65-7.27-5.95-13.87-9.9-19.16-5.3-5.94-9.92-9.25-13.22-7.92-2.65 1.3-3.96 3.3-5.28 7.26-1.33 5.95-.67 13.2 1.98 21.8 1.98 9.25 5.3 15.85 9.9 19.16 3.3 3.3 6.6 3.96 11.24 3.3 4.62-1.98 7.27-5.94 7.27-12.55l-2-11.86zm-13.2-16.52c3.3 5.3 6.6 11.23 8.58 17.84 2.64 10.57 1.32 17.18-2.65 18.5-1.98.65-4.62 0-6.6-2-3.3-3.3-5.95-9.23-8.6-17.16-1.97-7.93-2.63-14.53-1.3-19.16l1.97-3.96c1.98-.66 4.63 1.98 8.6 5.94z"/><path fill="#D96038" d="M98.93 255.44c-5.95 0-9.9 15.2-11.22 47.55-1.96 31.03 1.34 47.54 9.27 48.2 8.6.66 11.9-14.53 11.9-46.9-.67-32.37-3.97-48.2-9.92-48.88z"/><path d="M85.72 295.07l-.66 19.82c0 7.9 1.98 14.5 5.95 19.13-1.96-13.22-1.96-28.4.7-46.9 1.97-18.5 3.95-27.75 7.25-29.07 3.3 1.32 5.3 12.55 6.6 32.37 1.33 20.48.66 37-1.98 48.87a18.9 18.9 0 0 0 6.6-14.5 199.6 199.6 0 0 0-.65-44.27c-2.63-17.84-5.94-26.42-10.56-27.1-3.3-.65-6.6 5.3-9.25 15.87l-3.96 25.77zm11.23 58.13c5.28.66 6.6-3.97 6.6-13.88-1.32 6.6-3.3 9.9-6.6 9.9-1.98-.64-4.63-4.6-5.28-12.54-1.33 10.58.65 16.52 5.28 16.52z"/><path fill="#FFE000" d="M98.93 254.78c-1.98-5.95-20.48-2-54.83 11.23-35 13.9-51.52 24.47-48.2 31.74 2.63 7.92 20.46 3.96 54.8-11.24 34.36-15.86 49.55-25.77 48.23-31.7z"/><path d="M60.62 278.56c-23.8 12.55-42.27 19.16-54.83 20.47 5.92 2.65 12.53 2.65 19.8 0 15.2-5.28 30.4-11.88 48.2-21.8 19.83-10.57 28.4-18.5 27.1-23.1-.67-2-2-2.65-3.97-3.3-7.93-2-24.44 2.62-50.87 11.87-26.42 9.9-42.93 19.16-49.54 27.1l-3.3 7.26v1.98c1.32 3.96 5.95 3.96 12.55 0-4.63.65-7.27 0-7.93-1.98-1.33-1.98 1.98-5.3 7.92-9.25 11.22-8.56 29.06-16.5 52.84-23.75 21.8-7.93 35-10.58 38.3-8.6-.65 3.97-12.53 11.9-36.3 23.13z"/><path fill="#FFE000" d="M98.27 255.44c.66-6.6-15.85-13.2-50.2-19.16-34.35-6.6-52.2-3.96-52.84 5.95-1.33 9.9 15.85 16.5 50.2 18.5 33.68 2.63 51.52.66 52.84-5.3z"/><path d="M12.4 252.8c-2.65 0-3.96-.66-5.95-2.65 1.32 1.33 2.65 2 3.3 2.64 1.33 0 2 .63 2.65 0z"/><path d="M62.6 258.74c-20.48 0-37-1.32-50.2-5.95a23.84 23.84 0 0 0 16.5 8.6l44.27 1.94c17.17-.66 26.42-3.3 27.08-7.92.67-1.32 0-3.3-1.98-5.3-6.6-5.93-22.46-10.56-45.58-15.17l-52.87-1.33c-3.96 1.98-7.27 4.63-7.27 8.6v.65c0 5.28 4.62 7.9 13.87 7.25-6.6-1.32-9.9-3.96-9.25-7.92.66-3.3 4.62-5.3 12.54-6.6 13.22-1.32 31.05.66 53.5 6.6 20.5 5.3 31.72 9.26 32.38 12.56-1.32 2.64-12.56 3.96-33.03 3.96z"/><path fill="#FFE000" d="M123.37 205.9c9.9-34.35 9.9-52.85-1.32-55.5-9.9-1.97-18.5 14.54-23.78 49.55-5.95 34.35-5.95 52.84.66 55.5 5.95 1.3 13.87-14.54 24.44-49.55z"/><path d="M131.3 157a12.97 12.97 0 0 0-7.93-8.57c-9.9-1.98-17.83 8.58-24.44 33.03-3.3 14.53-5.28 29.72-6.6 46.23-.66 17.8 1.32 27.72 5.94 29.7 1.32 0 3.3 0 5.3-1.98 5.27-5.95 11.22-17.84 18.48-37.65 6.6-20.5 9.9-37.67 9.9-50.22L131.3 157zm-3.3 10.6c0 13.88-4.63 31.7-12.56 53.5-7.26 20.5-13.2 31.06-16.5 31.7-3.3-1.97-3.3-13.86-1.33-35 2.67-22.45 5.97-40.3 12.58-52.84 3.3-8.6 7.93-13.2 11.9-11.9 3.3.67 5.94 5.3 5.94 14.54z"/><path fill="#FFE000" d="M93.65 205.9c-9.9-27.75-18.5-40.96-27.1-37.66-9.23 3.3-7.25 18.5 5.3 46.24 11.9 27.75 20.47 40.3 26.42 37.66 5.3-2 3.96-17.84-4.62-46.24z"/><path d="M91.67 195.33c-2-5.3-5.95-9.25-10.57-11.9a148.05 148.05 0 0 1 14.53 40.96c3.3 15.16 3.96 24.4 1.32 25.73-2.64.67-7.93-7.26-16.52-21.8-7.92-15.85-13.2-29.72-15.85-42.27-1.98-9.25-.66-14.53 2.64-15.85 3.3-.65 7.27 2.65 11.9 11.24-2.65-11.9-7.27-16.52-13.22-15.2-3.96 2-5.95 3.97-6.6 8.6v3.3c0 10.57 3.96 24.44 12.55 41.6 7.26 17.18 14.53 27.75 20.48 33.04 2.64 2.63 4.62 2.63 6.6 1.3 4.63-1.3 4.63-9.24 2.65-23.1a158.6 158.6 0 0 0-9.9-35.68z"/><path fill="#D96038" d="M75.15 202.6c-19.82-29.07-34.35-39.64-42.28-33.03-7.92 7.26-.65 23.12 22.46 49.54 23.78 25.1 37 36.36 42.28 31.74 4.65-3.3-1.95-19.82-22.43-48.22z"/><path d="M27.6 176.17c0 8.6 6.6 21.13 19.8 37 8.6 9.9 17.84 19.8 28.4 28.4 11.9 10.56 19.83 14.53 23.13 11.22 1.98-.7 2.64-3.3 1.32-6.6-1.32-9.94-8.58-23.8-21.8-42.97-14.53-20.47-26.42-33.03-35.67-36.33a10.92 10.92 0 0 0-11.22 1.33c-2.65 1.33-3.97 4.63-3.97 7.93zm6.6-4.62c3.3-1.98 7.92-.67 15.2 4.62 9.9 8.6 21.13 22.46 33.02 41.62 10.56 17.8 15.2 28.4 13.2 31.7-3.3 1.3-11.88-5.3-26.42-19.85-15.85-15.2-26.42-28.4-33.03-40.94-3.95-8.6-4.6-13.87-1.98-17.17z"/><path fill="#FFE000" d="M69.2 210.52c-23.12-21.14-37.64-27.08-44.25-17.18-6.6 10.57 3.3 24.45 29.06 40.96 25.1 16.5 39.67 22.45 43.6 16.5 4-5.27-5.9-18.48-28.4-40.28z"/><path d="M32.87 221.1a99.6 99.6 0 0 0 20.48 15.84c7.27 5.3 15.85 9.9 25.1 13.87 11.9 4.66 18.5 5.3 21.14 1.36 1.3-2 .63-5.3-1.35-9.9-5.95-9.92-15.2-21.82-28.4-34.36-14.53-13.9-27.1-21.15-35.67-21.15-4.64-.66-8.6 1.32-11.24 5.95a11.2 11.2 0 0 0-1.98 6.6c-.02 6.6 3.95 13.86 11.87 21.8zm-5.94-26.43h16.5c11.25 5.28 23.13 15.2 35.68 29.72 12.6 14.5 17.87 23.1 16.55 25.73-1.98 2-9.9-1.32-23.12-7.26-13.86-7.28-25.76-15.2-35-23.8C26.3 208.5 23 200.57 26.96 194.64z"/><path fill="#D96038" d="M97.6 250.8c1.33-5.27-13.86-15.18-46.9-29.7-33.02-14.54-50.85-17.85-53.5-8.6-1.97 7.92 13.2 18.5 46.9 29.73 34.35 11.9 51.53 15.2 53.5 8.58z"/><path d="M96.95 245.53c-7.27-7.93-22.46-16.5-44.92-26.42-25.1-11.2-42.28-15.83-50.86-13.2a8.12 8.12 0 0 0-5.94 5.3v1.98c0 7.93 9.9 15.86 31.04 24.44l33.03 11.9c25.76 7.27 38.97 7.93 40.95 2.65 0-2.65-1.32-4.63-3.3-6.6zm-36.33 0c-21.14-6.6-38.3-13.2-50.87-21.14-7.92-5.3-11.22-8.6-9.9-11.9 0-2.66 3.3-3.3 9.25-2.66 12.55 1.32 29.72 7.93 52.84 19.16 21.8 10.57 33.03 17.84 33.7 21.8-2.66 1.98-13.88 0-35.02-5.3z"/><path fill="#D96038" d="M97.6 250.8c-1.97-5.27-19.14-5.93-52.83 0-33.7 5.3-49.54 12.56-48.23 21.8 2 9.26 19.82 9.26 52.85.67 34.32-9.25 50.2-15.85 48.2-22.46z"/><path d="M70.53 245.53c-15.2.66-29.73 2.65-44.26 6.6-21.14 5.3-31.7 11.9-31.7 19.16v1.3c0 3.95 2.63 5.94 7.26 7.92 9.9 2.64 27.08 1.32 51.52-5.94 23.78-5.96 38.32-12.57 44.92-18.5l1.98-5.3c-1.32-4.6-11.23-6.6-29.72-5.28zm-6.6 21.8c-22.46 6.6-39.64 9.9-52.85 9.9-7.93 0-11.23-1.97-11.9-5.28-.65-3.3 2.65-6.6 10.57-9.9 13.2-5.95 30.4-9.9 52.2-11.24l33.68 1.36c-.66 3.3-11.9 7.92-31.7 15.2z"/><path fill="#D96038" d="M98.27 251.48c-5.95-2.65-19.16 9.24-40.3 36.33-21.8 27.77-27.74 43.6-18.5 48.9 8.6 4.6 21.8-7.26 39.64-36.32 17.87-29.73 24.48-46.24 19.2-48.88z"/><path d="M98.93 249.5a7.72 7.72 0 0 0-7.26 1.3c-9.9 5.3-21.14 17.85-35.68 35.68-15.2 19.82-22.5 33.7-22.5 43.6 0 3.97 2 6.6 4.64 7.93 3.96 2 7.93 2 12.55-1.3 9.9-5.3 21.14-18.5 33.03-39.63 11.9-19.8 17.83-34.35 17.83-42.93 0-1.98-.65-3.3-2.64-4.63zm-1.98 3.95c1.98 2.65-1.98 12.56-11.23 29.73-9.25 17.84-18.5 32.37-28.4 42.93-7.93 7.3-13.22 10.6-16.52 7.97-3.3-1.33-3.3-5.3-1.32-11.9 4.62-11.9 14.53-27.08 29.72-44.9 15.2-16.53 24.45-24.46 27.75-23.8z"/><path fill="#FFE000" d="M46.1 278.56c-29.75 22.46-40.3 37.65-33.05 44.92 7.93 6.6 24.44-2.64 51.53-27.75 27.07-25.1 37.63-40.3 33-44.92-4.62-3.93-21.8 4.66-51.5 27.78z"/><path d="M20.98 297.05c-7.92 9.25-12.54 16.52-12.54 21.14 0 1.95 1.3 4.6 3.3 6.6 9.24 8.56 30.38-3.3 64.07-37.67 20.5-20.5 28.44-33.03 23.15-37.66-3.3-3.97-15.2 1.32-34.35 13.2A227.8 227.8 0 0 0 21 297.05zm11.9 20.48c-9.26 5.94-15.2 6.6-18.5 3.96-1.98-2-1.32-5.97 1.98-11.26 7.26-11.23 21.8-24.44 43.6-38.3 20.48-14.54 32.36-20.48 36.32-19.17.67 3.3-5.94 13.2-20.47 29.06-15.83 15.86-29.7 28.4-42.9 35.67z"/><path fill="#FFE000" d="M97.6 250.8c-5.93-.65-15.84 16.53-28.4 51.54-13.2 35-13.2 53.5-2.64 55.5 10.57 1.96 20.48-14.55 29.07-50.88 7.93-36.33 7.93-54.82 1.98-56.15z"/><path d="M98.27 248.83c-5.3-1.32-12.55 9.25-22.46 30.4-8.56 20.46-15.16 37.64-17.14 52.17l-1.33 12.56c.02 9.9 2.65 15.18 8.6 15.85 9.25 2 16.52-6.6 23.78-26.4 3.98-10.57 7.28-23.1 9.9-37 5.96-30.4 5.3-45.57-1.3-47.55zm-1.32 4.62c3.3 2 2.64 13.88 0 34.36-3.3 22.48-8.6 39.66-15.2 53.5-5.28 9.94-9.9 15.2-14.53 14.56-3.96-1.32-5.28-5.28-5.28-11.9 0-13.2 5.28-31.7 15.2-55.47 9.9-22.48 16.5-34.36 19.8-35.03z"/><path fill="#FFE000" d="M135.26 211.84c19.82-29.06 24.44-45.58 15.2-50.87-9.25-4.6-21.8 8.6-37.66 38.98C96.95 231 92.32 248.18 97.6 250.8c5.96 3.32 17.84-9.9 37.66-38.96z"/><path d="M108.84 203.25c-10.57 21.14-15.2 35.68-15.2 44.26 0 3.3 1.33 4.66 3.3 5.97l6.6-1.3c8.6-5.96 19.83-17.85 32.38-37 13.87-20.48 20.48-35.67 20.48-45.58v-1.34c0-4.62-1.32-7.27-4.63-9.24-3.96-2-7.92-1.32-12.55 1.33-9.24 6.6-19.82 21.14-30.38 42.93zm-1.32 14.54c7.92-19.85 17.17-35.04 25.76-46.27 7.27-7.27 12.55-9.9 15.85-8.6 3.3 2 3.97 6.62 1.98 13.88-3.93 13.2-12.52 29.08-27.05 47.57-13.2 16.5-21.8 25.1-25.1 24.43-1.98-2.63.66-13.2 8.6-31.03z"/><path fill="#D96038" d="M106.2 198.63c-.67-32.37-5.95-48.88-15.86-46.9-8.58.67-11.23 17.84-7.27 49.54 3.97 32.37 9.25 48.22 15.2 47.56 6.6-1.32 8.6-17.83 7.92-50.2z"/><path d="M90.34 149.1c-3.3.65-6.6 2.63-7.92 7.26-1.98 5.28-3.3 12.55-3.3 21.8 0 13.2 1.3 26.4 4.62 40.95 3.3 15.2 6.6 25.1 9.9 29.1 2 1.97 3.3 2.63 5.3 2.63 4.6-.65 7.25-9.9 9.24-27.73.66-15.87.66-30.4-1.32-44.93a20.4 20.4 0 0 0-7.27-13.2c3.93 12.54 5.26 29.05 3.93 49.53-.66 19.82-2.63 29.73-5.28 31.7-3.3-.65-6.6-10.56-9.9-28.4-4.63-19.8-5.95-35.66-4.63-49.54 1.32-9.24 3.3-14.53 7.27-14.53 2.64-.65 5.94 2.66 7.26 9.26.66-9.9-2-14.55-7.93-13.9z"/><path d="M99.6 164.94c.65 0 .65 0 0 0 0-1.32-.67-1.98-1.33-1.98a9.5 9.5 0 0 1 1.32 1.98z"/><path fill="#FFE000" d="M98.93 255.44c-6.6.66-6.6 17.17-.66 48.88 5.3 32.37 13.87 46.9 23.78 45.58 11.23-1.98 11.23-18.5 1.32-49.54-10.57-31.7-18.5-46.24-24.44-44.92z"/><path d="M104.88 256.1c-2.65-2.65-4.63-3.96-6.6-3.3-4.63 1.32-5.96 7.92-5.96 21.13 0 9.25 1.33 19.16 3.3 29.73 6.6 33.7 15.86 50.2 27.1 48.87 3.95-1.3 7.26-3.95 8.58-7.92l.66-9.9c0-11.2-3.3-25.1-9.9-43.6-5.96-16.5-11.9-28.4-17.18-35zm-5.95 1.32c3.3 0 9.25 9.9 16.5 28.4C123.38 306.3 128 322.15 128 334.7c0 7.93-2.65 11.9-5.95 12.56-5.28 1.3-9.9-3.97-14.53-16.52-5.3-12.55-8.6-27.75-10.57-45.58-1.32-16.5 0-26.42 1.98-27.74z"/><path fill="#FFE000" d="M120.07 270.63c16.5 3.97 25.76 1.98 28.4-5.28 2.65-7.93-5.28-13.2-21.8-15.86-17.18-2-26.42 0-27.74 5.92-1.98 5.28 5.3 10.56 21.14 15.2z"/><path d="M96.28 254.12c-.65 3.3.67 6.6 5.95 10.57l16.52 7.23 19.8 2.65c6.62-.68 10.58-3.98 12.56-8.6v-3.3c0-5.96-5.25-10.57-15.16-13.2l-23.78-2c-9.25 0-14.53 2.64-15.86 6.6zm9.25 7.27c-3.96-2.68-5.28-4-5.28-5.98 1.32-2 5.28-3.3 11.9-3.3l22.45 1.98c8.6 2 13.2 5.95 11.23 10.58-.66 2.63-3.3 4.6-9.25 5.26l-16.5-2.63c-5.95-1.3-11.24-3.3-14.55-5.92z"/><path fill="#FFE000" d="M117.43 285.16c15.85 16.52 27.74 22.46 34.34 17.18 5.95-5.3 0-15.2-18.5-30.4-17.83-15.84-28.4-21.13-33.02-17.82-4.62 3.96 1.32 14.53 17.18 31.04z"/><path d="M98.27 252.14c-1.32 1.98-2 3.3-1.32 6.6.66 6.6 6.6 15.2 16.5 25.76 9.92 10.57 19.83 17.83 27.76 20.48l11.25-1.32c2.65-1.32 3.3-3.3 3.3-5.94 0-3.97-2.63-9.9-7.92-15.86-6.6-7.93-15.84-15.85-25.75-22.46-11.9-7.26-19.82-9.9-23.78-7.26zm3.3 5.28v-1.32c1.32-1.98 7.27.65 17.18 6.6 9.9 6.6 18.5 13.87 25.76 22.46 6.6 7.92 7.95 12.56 5.3 15.2h-7.26c-7.26-2.65-15.85-9.25-25.76-19.82-9.24-9.9-14.53-17.84-15.2-23.12z"/><path fill="#FFE000" d="M133.28 257.42c23.12-3.97 34.35-9.9 33.03-18.5-.64-7.92-11.86-8.6-35-2.64-22.44 5.95-33.7 12.55-33 17.84.65 6.6 11.9 7.27 35 3.3z"/><path d="M95.63 254.78c0 1.98 1.32 3.96 3.96 4.62l30.36.66c15.2-1.98 25.76-5.94 32.36-10.57 4.63-3.3 6.6-5.98 6.6-9.94v-.65c-.65-6.6-7.92-9.9-21.13-7.92a90.86 90.86 0 0 0-33.03 8.57c-13.2 5.95-19.15 10.57-19.15 15.2zm33.68.66h-27.7l-1.32-1.32c0-1.98 5.3-5.3 15.2-9.9a90.75 90.75 0 0 1 33.02-8.6c9.9-1.32 15.86 0 15.86 3.96l-4.63 5.95c-5.93 5.28-16.5 8.6-30.4 9.9z"/><path fill="#D96038" d="M73.17 276.57c-12.55 18.5-15.85 31.7-7.93 37.66 7.27 6.6 16.52-.66 26.43-22.46 9.9-21.14 12.55-33.68 7.26-37.65-3.96-3.97-13.2 3.3-25.77 22.45z"/><path d="M59.95 300.36c-1.3 6.6 0 12.54 3.97 16.5 5.28 4.63 11.9 2.65 18.5-5.93 6.6-7.27 12.55-18.5 17.17-32.37 4.6-14.53 5.26-23.12 1.3-26.42h-5.95c-5.95 1.98-12.55 7.92-20.48 18.5-8.6 11.22-12.56 20.47-14.55 29.72zm3.97 4.62l.67-3.96c1.3-7.94 5.9-17.18 13.84-27.75 7.26-9.9 13.2-15.85 17.82-17.17l2-.66c1.97 1.98.65 9.9-3.3 21.8-4.64 13.2-9.26 23.78-15.87 31.04-5.28 5.3-9.25 7.27-11.9 4.62-1.97-1.97-3.3-3.96-3.3-7.92z"/><path fill="#FFE000" d="M67.22 240.9c-21.8-2.63-33.02 1.33-33.7 11.9-.65 10.56 9.92 15.2 32.38 13.2 21.8-.65 33.03-5.28 33.7-11.22.65-5.95-9.92-10.57-32.38-13.88z"/><path d="M31.56 254.12c0 8.58 7.26 13.2 22.45 14.53l30.4-3.3c11.25-2.65 17.2-6.6 17.85-10.57 0-2.64-1.98-4.63-5.28-7.27-5.28-3.94-14.53-6.6-27.1-8.56L39.5 240.9c-5.28 3.3-7.92 6.6-7.92 11.9v1.32zm22.45 9.9c-11.86-.66-18.46-4.62-17.8-11.23 0-3.3 1.98-5.3 5.94-7.3l27.08-1.3c11.9 1.32 19.83 3.96 25.78 7.93l1.98 1.98c0 2.64-4.63 4.63-13.2 7.28L54 264z"/><path fill="#FFE000" d="M112.14 249.5c-.66-3.3-2.64-4.63-5.95-5.3H95.6c-3.3 1.33-6.6 3.98-7.92 6.6-1.98 3.32-1.98 5.96-.66 8.6.66 3.3 3.3 4.63 6.6 5.95h9.9l7.94-6.6c1.98-3.3 1.98-6.6.66-9.26z"/><path d="M104.22 267.33c4.62-1.98 7.26-4.63 9.24-8.6 1.98-3.3 2.64-6.6 1.33-9.9-1.36-3.3-4-5.94-7.96-6.6h-11.9a19.4 19.4 0 0 0-9.9 9.25c-1.32 2.64-1.32 5.94-.66 9.24 1.3 3.3 3.95 5.3 6.6 6.6a22.5 22.5 0 0 0 13.2 0zm.66-21.14c2.64.63 4.62 1.95 5.28 4.6l.66 2c0 4.6-2.64 7.9-8.6 9.9a12.87 12.87 0 0 1-9.9 0l-3.3-3.98c-.66-2-.66-3.3 0-5.3 1.32-2.63 3.3-5.27 7.26-6.6l8.6-.65z"/><path fill="#D96038" d="M208.58 403.4l-44.9-50.2-44.93 15.2a137 137 0 0 0 28.4 44.9c12.55 13.88 27.08 25.1 42.28 33.04l19.15-42.93z"/><path d="M211.88 404.72c.67-1.3.67-1.98 0-3.96l-46.24-50.2-3.3-.66-44.25 15.2-2.68 1.3v3.3c6.6 17.2 16.52 33.04 29.73 46.25a152.1 152.1 0 0 0 42.94 33.03l2.64.66 1.98-1.98 19.15-42.94zm-23.78 37a178.3 178.3 0 0 1-38.97-29.74 168.75 168.75 0 0 1-25.76-41.6l38.97-13.2 42.94 46.23-17.18 38.3z"/><path fill="#D96038" d="M143.2 219.77l-5.3 17.83c-3.3 14.54-5.94 29.06-7.26 44.26-2.64 46.24 8.58 84.55 35.67 114.28 27.1 29.72 64.1 45.57 111.66 46.9 23.12.66 43.6-1.33 62.1-7.27l-196.85-216z"/><path d="M145.83 217.8c-.66-1.34-1.32-1.34-3.3-1.34l-1.98 2-5.95 18.48c-3.3 15.2-5.95 30.4-6.6 44.92-3.3 48.22 8.58 86.53 36.33 116.9 27.08 29.74 64.06 45.6 112.3 46.92 23.77.66 44.9-1.32 64.06-6.6l2.6-2-.64-3.3-196.85-216zm-12.55 77.27c0-24.44 3.97-47.56 11.9-69.36l188.9 208.1a231.87 231.87 0 0 1-70.67 4.6c-39.6-3.3-71.32-18.46-94.44-44.22-23.1-25.77-35.66-58.8-35.66-99.1z"/><path fill="#D96038" d="M198 231l-54.8-11.23 5.93 54.83c8.6 41.6 23.12 73.32 44.92 96.44 21.14 23.77 51.52 41.6 91.82 54.16 20.48 5.94 38.3 9.9 54.16 10.57 0-15.85-1.98-33.7-5.95-54.83-8.57-40.95-23.1-73.3-44.25-97.1C268.7 260.72 238.3 242.9 198 231z"/><path d="M143.85 216.46l-2.64 1.33c-.63 0-1.3 1.3-1.3 1.95l6.6 57.46c8.6 40.3 23.1 72.68 44.9 96.46 21.17 23.12 52.2 41.6 91.85 53.5 20.47 6.6 38.97 10.57 56.8 11.9l2-.67 1.3-2.64c0-17.18-1.98-36.33-5.95-56.8-9.25-40.96-23.78-73.33-45.58-97.1-21.13-23.13-51.5-40.97-91.14-53.5l-56.8-11.9zm2.64 6.6c20.45 2.65 40.93 7.94 60.74 14.54 34.35 11.9 60.77 28.4 79.93 48.88 19.15 20.48 32.36 48.88 40.94 84.55a280.7 280.7 0 0 1 8.6 61.44 328.93 328.93 0 0 1-60.1-13.88c-35.03-12.58-61.45-29.1-80.6-48.9-18.5-21.15-32.36-49.55-40.95-84.56-4.62-20.47-7.27-40.95-8.6-62.1z"/><path d="M192.73 258.74l-7.27-8.6-9.9-.65 8.58 3.3 4.62 8.6 5.95 8.55-19.8 11.23-8.6 3.96c9.27.65 19.84-3.3 32.4-10.57l6.6 8.57v7.93c2 2.65 3.96 4.63 6.6 4.63l3.3-.65 11.9 15.2 1.3 2.63 9.25-1.3.66-5.3 2-12.54-1.32-13.87c-7.28-1.33-12.55 0-16.52 2l-5.28 3.94-3.3-3.95 3.96-21.8c-5.3-2.65-7.27-4.63-7.93-3.3l-1.3 1.98-9.26 7.26-6.6-7.27zm15.85 8.6l-1.32 6.6-3.3-3.3 4.62-3.3zm22.46 34.34l-8.6-9.25 5.3-1.98 3.96-2.64-.66 13.9z"/><path d="M192.73 293.75c-.66 5.94-.66 11.23-.66 17.18 5.28 2.64 10.57 3.3 16.5 3.96l13.22-.7c7.24-.65 11.9-1.32 11.9-3.3l-11.9.67-26.45-3.32 3.3-26.42c.67-7.93 1.33-11.23.67-11.23-.67-.66-1.98 3.3-3.97 11.24l-2.64 11.9z"/><path d="M251.52 285.82l-3.97 5.3-17.83 19.8-29.06 25.1-12.55 7.27c.68 1.3 4.65 0 13.9-4 10.57-5.94 21.8-13.2 32.36-23.1l17.18-18.5c0 5.94 0 9.9.66 13.2l2.63 13.9-5.94 6.6-7.3 17.16-2.62 9.25c-.68 3.3 0 7.93 1.97 12.56 2.64 2.64 6.6 3.96 9.9 5.28l10.57 1.32h5.95c2.63 0 4.6-2.64 6.6-6.6l-5.95-27.75-3.3-14.52 1.32-.67c10.57-1.3 17.17 2.65 20.48 10.58 2.64 5.96 3.3 15.2 1.3 25.1 2.66 15.2 7.28 27.1 15.2 37 3.97 5.28 7.27 8.58 10.57 9.9l-7.93-11.22c-6.6-11.23-10.57-22.46-11.23-35.67l.66-12.54a37.5 37.5 0 0 0-1.3-15.2c-2-5.28-5.96-9.24-11.9-12.55-5.28-2.62-11.23-3.94-17.18-2.62h-2.64l-1.97-10.58c-1.3-5.28-1.3-9.9-1.3-15.2-.66-.65-.66-1.3.66-3.95.67-1.32-1.98-3.3-7.92-4.63zm-1.98 64.74c1.98-7.27 5.28-13.2 7.92-16.5l2.65 9.9 4 18.48c1.3 7.27.65 9.9-2.66 6.6-6.6-.65-11.88-1.97-14.52-4.6.67-5.96 1.3-10.58 2.65-13.88zm1.32-85.2c-3.3-2-5.95-3.3-9.9-2.66-2.66 0-5.96 1.32-9.26 2.65l-3.3 2.64 3.96 1.3 8.6 1.3h7.25l4.66-1.3c1.32-.66.66-1.98-1.98-3.96z"/><path fill="#FFE000" d="M188.1 487.3c1.33 10.56 14.54 24.43 39.64 41.6 27.08 19.16 52.84 29.74 77.28 31.7l13.88.67c9.24-1.98 14.53-7.27 15.2-15.85.65-11.23-10.58-25.1-33.7-42.27-22.46-16.52-42.94-27.08-62.75-32.37-18.5-5.3-31.7-5.3-39.64-2.65-7.9 3.3-11.2 9.9-9.9 19.16z"/><path d="M147.15 452.28c1.98 0 5.94 1.32 10.57 3.3l9.9 3.3h21.14l-5.94-.65-13.88-2.64-9.9-3.34-11.23-3.96a20.2 20.2 0 0 0-13.2 4.64l-11.2 9.9 3.3 2.64c8.6-9.25 15.2-13.22 20.47-13.22zm40.3 33.7l1.97 2.64c5.3-3.97 13.22-5.95 25.1-4.63 10.57 1.3 17.84.63 21.8-3.3 11.9-7.95 17.84-11.9 16.52-12.6L235 478.7c-2.64 2.64-9.9 3.3-20.47 1.33-11.9-1.32-21.13 0-27.1 5.95zm26.42 19.82l2.64 3.3c5.3-7.94 13.9-10.58 25.8-7.94 12.54 3.3 21.8 3.3 25.75-1.98l13.2-10.57 4.64-5.25c-.67 0-6.6 4.62-19.17 13.2-5.93 4.63-13.2 4.63-23.1 2-4.63-3.3-9.26-3.3-15.86-2-5.95 2-10.57 4.63-13.87 9.26zm35 17.82l2.65 2.65a32.06 32.06 0 0 1 19.15-7.93c9.25-1.98 15.2-2.64 17.18-4.63l13.87-9.22-14.53 6.6-17.2 3.3c-8.6 1.34-15.86 4.64-21.14 9.26zm27.1 13.88c4.6-3.3 10.56-4.63 18.5-4.63h16.5c3.96-.66 5.94-1.98 5.94-5.3-1.3 1.34-3.3 2-5.9 2.66l-16.53-.66c-7.92-.66-14.53 1.32-20.47 4.62l1.97 3.3zm12.53 10.56l.67 3.97 19.16.66 16.5 1.95 11.24-2.64 3.3-2-15.2 2-15.18-3.3-20.5-.66z"/><path fill="#858585" d="M178.85 479.37c-3.96-3.3-12.54-5.95-24.43-7.94l-25.77-5.94-19.8-2.66-13.22 1.3-11.9-10.56c-6.6-5.3-11.88-7.93-17.17-7.93l-61.43 11.9L6.45 587h317.73c-4.62-3.3-13.2-11.22-24.44-24.43l-18.5-21.15c-4.62-5.94-16.52-11.9-35.67-18.5-11.23-3.96-24.44-11.23-40.3-21.8l-26.42-21.8z"/><path d="M186.12 482l-5.28-5.28c-4.62-3.3-15.2-6.6-33.03-10.56L130 462.2l-33.03-1.33-6.6-5.28c-8.6-9.28-17.18-13.24-24.45-13.24-8.58.66-29.06 4.62-61.43 12.54-2 0-2.66 1.34-2.66 3.3L3.17 587c0 2 .66 3.33 3.3 3.33H324.2l3.3-1.98c0-1.98 0-3.3-1.3-3.96-5.3-3.3-17.2-15.87-35.7-38.34l-6.6-7.26c-5.94-5.94-18.5-11.9-36.98-18.5-9.9-3.3-21.8-9.24-34.35-17.82L186.12 482zm-9.9 0l5.94 4.63c25.76 21.14 46.24 34.35 62.75 39.64 17.2 6.6 29.1 12.55 34.38 17.83l5.28 6.6 30.4 33.03H9.1L8.44 460.2c29.06-6.6 48.2-9.9 58.12-11.22 5.3 0 11.9 3.3 19.16 11.23l8.6 6.64 1.96.65 15.2-1.3 16.52 1.95 18.5 4.63c16.5 3.3 26.4 6.6 29.72 9.25z"/><path d="M126.67 475.4l-21.8-3.3 110.32 91.8-4-11.2-7.26-10.58c-4.63-4.63-7.26-9.25-8.6-11.24l-7.26-21.13-9.9-6.6-11.24-5.3-7.93-9.24-6.6-8.55-25.76-4.63zm88.53 88.5v1.34l4.62 9.25 23.12 12.5-27.74-23.1z" fill="#858585"/><path d="M124.7 472.76l-21.15-3.3-5.28-5.95-1.32 2-1.32.68 6.6 6.6 21.14 3.96 28.4 5.3 6.6 7.92 7.27 9.25 7.94 3.96c7.92 3.96 11.88 5.94 12.54 7.92l5.3 12.55 2.63 7.93a85.76 85.76 0 0 0 7.92 12.55l7.27 9.9 1.98 3.98c2.65 9.9 4.63 15.85 7.27 17.84l23.75 13.23 2.64-.66v-1.34l-.66-1.97c-12.55-5.3-20.47-9.9-22.46-11.9-1.33-1.3-3.98-6.6-7.28-15.86l-1.32-5.27-7.92-11.23-7.27-10.57-2.63-7.92-5.94-13.2c-1.32-2.65-5.94-5.95-13.88-9.25l-7.26-3.96L161 488l-7.92-9.25-28.4-5.94z"/><path d="M38.82 491.92l-23.12-.67 74.64 14.54-23.12-10.6-28.4-3.3zm51.52 13.88l3.3 1.97c2.64 1.98 9.25 3.96 19.82 5.3l20.48 2.63 10.57 1.32-54.14-11.23zm64.08 10.56l-9.9.65 50.2 9.94-22.47-9.9-17.83-.66z" fill="#858585"/><path d="M120.73 515.7l12.55 1.98 22.45 1.32h16.52l21.14 9.9c1.3.67 1.95 0 2.6-1.32.68-1.3 0-1.97-.65-2.64l-22.46-9.9-17.83-.67H134.6l-13.2-1.97c-15.2-2-24.45-3.97-26.43-5.95l-26.42-13.2-52.85-3.97c-1.32 0-1.98.66-1.98 1.97 0 1.33.66 2 1.98 2l50.86 3.3 25.76 13.2c3.3 2.65 12.56 4.62 28.4 5.95z"/><path d="M127.34 515.04l5.94 5.94 9.9 8.6 2.65 1.3-18.5-15.84zm26.42 17.16l-7.93-1.3 54.83 46.22-5.3-7.92-6.6-9.9-9.9-10.57-13.22-11.9c-1.97-1.3-6.6-2.64-11.88-4.62z" fill="#858585"/><path d="M126 513.06c-.65 1.3-.65 2.64 0 3.3l7.28 6.6 9.24 7.93 9.25 3.3 13.2 4.6c3.98 2 9.92 7.92 19.17 18.5l5.95 7.92c5.25 9.25 9.9 15.2 15.16 18.5 1.33.66 2.64 0 2.64-1.32.67-.65.67-2-.64-2-4.63-2.62-8.6-8.56-13.87-17.15l-3.3-5.3-3.3-3.95-19.85-19.14c-3.96-1.98-8.6-3.97-14.54-4.63l-7.9-2.64-15.85-13.9-2.65-.66z"/><path fill="#858585" d="M124.7 552.7l-9.26-5.3h-11.9l-11.22.66-9.9-3.3-9.9-5.94-8.6-5.95-4.62-3.3H44.1l-7.93-2H30.9c-11.24 3.32-17.84 4.64-17.2 5.96l153.27 50.2c-2.64-3.96-7.93-8.58-15.85-13.2l-15.86-9.92-10.57-7.9z"/><path d="M79.1 540.8l-5.93-3.3c-1.98-1.33-4.62-3.3-9.25-6.6l-3.97-3.32H44.1l-5.28-1.3-8.6-.67h-1.3c-10.57 3.3-15.86 5.3-16.52 6.6-.66.7-.66 2 .66 2.67l2.64-.66c.66 0 5.95-2 14.53-4.62l1.33-.66 5.94.68 6.6 1.98h14.54l3.3 2.64 9.25 6.6 5.9 3.3c6.6 3.96 11.9 5.94 15.2 5.94l9.9-.65 12.56-.67 11.9 8.58 13.2 8.6c13.88 7.93 22.46 14.54 25.76 19.17h2.65l.64-2.65c-3.95-5.27-12.53-11.87-26.4-19.8l-6.6-3.95-6.6-4.64c-7.28-5.26-11.24-8.56-13.9-8.56h-13.86l-9.25.65c-2.65 0-6.6-2-13.2-5.3z"/><path fill="#D96038" d="M272.66 73.8l1.32 3.3c1.32 2.63 4.62 5.27 9.25 8.58 6.6 4.62 13.86 6.6 21.13 5.28l-9.25 5.95c-5.25 5.97-8.55 11.9-9.2 19.18-1.34 8.58 1.3 15.85 6.6 20.48 5.94 5.95 15.2 8.6 27.73 7.92l-4.6 7.27c-2 5.28-2 9.9.65 15.2 2.65 4.62 11.9 7.92 27.74 9.9l23.78 1.32V7.07L89.02 5.1c-7.26 7.25-10.56 13.86-9.9 20.46 0 3.97 2.64 7.27 6.6 9.25l17.83 3.3 62.76-3.3 22.48.7c7.94 2 11.9 3.96 11.24 6.6-.66 2-2 2.64-5.3 3.96-2.63 1.98-5.26 4.63-5.26 7.93-.67 3.3 2.64 6.6 7.92 8.57l14.53 2.64 19.8-3.96-.64 3.96c-.66 2.63.66 5.27 3.3 7.25 3.3 3.3 7.93 4.63 15.86 5.3a64.4 64.4 0 0 0 22.47-3.97z"/><path d="M371.08 7.07c0-2.64-.66-3.3-2.64-3.3l-279.42-2c-.66 0-1.98 0-1.98.67-8.58 8.6-11.9 15.86-11.23 23.12.7 10.57 9.94 15.86 27.78 15.86l63.4-3.3 19.16.65c5.94.67 9.25 2 10.58 3.3l-2 .67c-5.26 2.64-7.9 5.94-8.57 10.57-.66 2.67.67 5.97 2.64 7.95 3.96 4.63 12.55 7.27 23.1 7.27l15.86-2.63c0 3.3.65 6.6 3.96 9.23 3.3 2.66 9.26 5.3 16.5 5.3l22.48-2.64c1.33 2.63 5.3 6.6 10.57 10.56a32.75 32.75 0 0 0 13.2 5.3c-7.25 6.6-11.2 13.85-11.87 21.78l-.67 4.64c0 7.26 2.65 13.2 7.3 17.83 5.26 5.96 13.85 9.26 25.1 9.9a17.9 17.9 0 0 0-3.3 10.6c0 3.3.64 6.6 2.62 9.9 3.97 8.6 22.47 13.2 54.84 13.2 1.97 0 2.63-1.32 2.63-3.3V7.06zm-96.44 63.4h-3.3c-6.6 3.32-13.88 3.97-21.14 3.97-6.6-.65-11.23-1.98-14.54-3.96-1.97-2.64-2.63-4.62-.66-6.6.67-1.32.67-2.65 0-4.63-1.3-.66-2.64-1.32-3.96-1.32l-19.16 3.96c-9.24 0-15.18-1.35-17.83-4.65l-1.32-3.3c0-2 1.98-3.3 4.63-4.63 3.3-1.98 5.28-3.96 5.94-6.6l-1.98-5.28c-2.65-2.65-7.27-4.63-15.2-5.95h-20.48l-62.08 3.3c-13.88 0-21.14-3.3-21.14-9.9v-.66c0-4.63 2.64-9.9 7.93-15.86l274.13 1.97v164.47l-27.75-2.64c-9.9-1.98-15.85-3.96-17.17-7.26a11.2 11.2 0 0 1-2-6.6c0-1.98.68-5.3 2.66-7.93l1.98-3.95 1.32-2-.66-1.3c-1.32-1.33-1.98-2-2.64-2-12.56.67-20.48-1.97-26.42-7.9-3.97-3.98-5.95-9.92-5.3-16.53 1.33-6.6 3.98-11.9 9.26-16.5l7.93-6.62 1.95-3.3c-.66-2-2.64-2.64-3.97-2.64-6.6 1.33-12.56-.65-19.16-5.28l-7.27-6.6-1.3-1.98-1.35-3.32z"/><path d="M313.6 110.12c-3.95-.66-5.94.65-6.6 4.62-.65 2.64.66 5.3 2 7.27a17.95 17.95 0 0 0 8.57 4.65c6.6 1.32 12.55-.66 17.18-5.95 5.94-6.6 7.27-13.88 5.28-21.8-2.64-6.6-8.58-9.9-19.16-11.23L303.7 89c-1.3 0-1.98 1.3-1.3 1.97 0 1.98.64 2.64 1.96 1.98l17.18-.66c8.6 0 12.55 3.3 14.53 7.25 1.32 7.26.66 12.55-4.62 18.5-3.3 3.95-7.93 5.28-13.2 4.62-4.64-.67-7.28-3.97-7.28-7.94 0-1.97.66-3.95 2.64-4.6z"/><path d="M322.2 107.47c1.98 0 1.98-.66 1.98-1.98l-2.64-2c-3.97 0-7.27 2-7.93 6.6 2.67-2 4.65-2.65 8.6-2.65zm46.9-49.54h-2c-11.87 9.25-23.76 11.23-36.97 4.63l-17.18-13.88-1.98-.66-1.32 1.32c-4.63 8.6-11.9 15.2-21.8 19.16l-15.2 2.64c-1.32 0-1.98 1.32-1.98 2.65l2.65 1.95 14.53-3.3c10.57-3.97 19.15-9.9 23.78-18.5 6.6 6.6 13.87 11.22 21.8 13.87 12.55 4.62 24.44 2.64 35.67-7.27V57.9zm-138.72 4.63c1.32 1.32 1.98 1.32 3.3.66l8.6-9.25c2.63-5.3 2.63-9.25.66-13.2-2-5.3-7.27-7.27-13.88-7.27-5.28 0-9.9 1.97-11.9 5.27-1.97 2.65-1.97 5.95.67 9.25.66 1.32 2 1.32 3.3.66l.66-2.64c-1.35-1.98-2-3.96-1.35-5.28 1.32-2 4.62-3.3 8.6-3.3 5.27 0 8.58 1.3 9.9 4.62 2.64 3.96 1.98 8.6-1.98 12.55l-5.96 5.3c-.65.65-1.3 1.3-.65 2.63z"/><path d="M369.1 22.26c-.66-1.32-2-.66-2.65.66-13.86 16.52-27.73 25.1-42.27 25.1-9.25 0-18.5-3.3-27.08-9.9l-11.9-10.57-1.3-.66-2 1.3c-3.96 9.24-9.24 15.2-16.5 17.82l-15.2 1.32-6.6-1.98c-2-1.32-2.65-.66-2.65.66-.66 1.32 0 1.98.66 2.64l8.6 2.65L267.4 50c6.6-2.64 12.56-9.24 17.18-17.83 11.9 13.2 25.1 20.48 39.63 20.48 15.85 0 31.04-9.25 44.9-27.75 1.3-.65 1.3-1.98 0-2.64zm-15.86 43.6c-.66-.67-1.98 0-2.64 1.32l-5.28 8.6c-5.3 6.6-12.55 10.56-21.8 12.53-1.32 0-1.98.7-1.98 2 0 2 1.32 2 2.63 2 9.9-2.64 18.5-7.27 24.45-14.53l5.94-9.9c.67-.67 0-2-1.32-2zm-35.67 79.27c.67 1.32 2 1.32 3.3 1.32l13.2-3.3c9.27-.66 17.2 0 23.13 3.3 4.64 3.3 7.94 7.26 8.6 13.2 0 2 1.3 2 2.64 2 1.32-.68 1.98-2 1.32-2.65-1.32-7.27-4.62-12.55-10.57-15.86-6.6-3.3-15.2-4.62-25.1-3.3l-14.56 3.3c-2 0-2 .66-2 2z"/><path fill="none" stroke="#000" stroke-width="3" stroke-miterlimit="100" d="M370.6 585.26H3.9V2.74h366.7v582.52z"/><path stroke-miterlimit="100" d="M367 582H5V5h362v577z" fill="none" stroke="#000" stroke-width="10"/></svg>