<svg xmlns="http://www.w3.org/2000/svg" width="372" height="587" viewBox="0 0 372 587"><defs><filter id="a"><feGaussianBlur stdDeviation=".85"/></filter></defs><path fill="#a40" d="M0 0h372v587H0z"/><path stroke-miterlimit="100" d="M367 582H5V5h362v577z" fill="none" stroke="#000" stroke-width="10"/><path d="M477 3352.6c-12.03.85-23.06 6.46-33.06 12.87-1 5.24 3.17 14.33-4.8 14.42-16.55 4.18-31.84 15.35-37.34 31.97-4.58 10.94-6.07 22.7-5.64 34.5.37 20.73.13 42.7 9.87 61.47 6.44 10.96 14.54 21.26 26.25 26.97 14.45 7.56 30.93 10.14 46.9 12.45 14.25-2.16 29.4-3.93 40.8-13.7 12.17-8.35 20.66-21.05 24.7-35.17 7.12-25 7.53-52.07 1.48-77.32-4-12.84-8.9-27.16-21.88-33.47-5.5-3.1-11.77-5.05-17.47-7.6-2.98-8.12-3.84-18.13-12-22.8-5.14-3.58-11.54-4.98-17.8-4.6z" color="#000" overflow="visible" fill="#f4eede" filter="url(#a)" enable-background="accumulate" transform="matrix(1.55912 0 0 1.5712 -550.52 -5138.94)"/><path d="M184.4 95.1c-2.75 0-6.16.38-11.2.38l-4.82 1.33.44 2.22c5.25.58 7 2.36 5.26 5.3l-49 5.3c-1.18 2.35-27.5 2.77-37.63 33.5-.3 32.97-.58 36.76-.87 55.08l-1.76 5.74-1.7 7.07-5.3 11.8-6.1 19.93c-3.67 4.17-1.92 32.6-1.32 47.33.94 22.93 2.66 46.33 3.66 52 .56 7.06 3.24 14.78 6.72 22.2-.58 27.6 1.83 53.7-4.4 84.15-3.82 8.1-2.5 23-32.04 25-4.25-1.83-4.9-.02-2.93 4.42 4.52 3.1 4.76 5.44 17.8 9.97 5.03-1.9 7.88 4.93 23.04-20.88 6-13.04 8.62-26.7 10.77-40.5 1.2-7.3 4.02-3.35 6.73 0 30.05 26.98 40.1 25.13 49.26 29.94h6.7l3.52 4.13-4.1 9.37-1.45 3.83.3 3.24-4.4 1.47-5.84-.28-4.34 2.35-1.76 1.77 1.17 2.65 5.22 3.48 3.22 3.53 3.8-2.93 3.2-.6 2.64-7 .88-8.26 2.34-5.3 2.58-5.84 4.97 2.06 2.92-3.53 2.34-2.96 6.15 1.77 4.92 4.13 3.8 1.18 3.8-3.23 2.05-1.18 4.68.88 1.46-.6 4.92 3.25 4.4-3.24 5.54-2.66 5.8-2.36 4.38.6 2.63 4.1-.3 2.67 3.23 2.94 3.5 2.9.88 8.83v3.24l4.1 3.83 5.8.6 8.76-.6 4.97-2.65 5.5-2.36-2.62-2.66-4.05-4.42-3.5.6-9.36.28-.3-5.3-1.75-3.5-4.93-5.58-3.8-5-4.38-2.66 4.08-1.48 4.97.3 1.4-2.36.6-3.78-1.17-3.53.88-6.77-.3-5.9.25-4.3a101.84 101.84 0 0 0 21.35-15.1l7.3-5.24c28-26.03 31.48-56.2 34.8-81.8 4.4-34.03 4.72-69.76-12.33-110.1-10.47-11.5-2.45-18.94-52.2-39.08l-1.35.74c.08-4.23-.57-9.02-.4-16.65-1.48-3.5-4.25-5.1-7.44-6.02a5.76 5.76 0 0 0 1.5-1.97c1.72-1.85 3.2-3.83.7-7.4-1.1-17.84-1.07-22.2-19.7-30.84-3.98-.18-9.06-.7-14.66-.83a25 25 0 0 0 .24-7.12c-5.82-5.93-8.68-7.02-13.3-7zm-25.8 18.5a92 92 0 0 1 8.8.34c-8.44 3.63-16.3 9.83-22.2 20.33-3.8 8.74-2.45 13.6-1.76 18.95l.4-.34-1.28 3c.05 4.76.47 9.4 1.3 14.58l-.86-.9-14.86 4.38-3.07 1.33 1.3 3.1 6.15-3.1h2.2l7.4-1.77 2.2-.8c.83 4.62 1.96 9.72 3.5 15.82.47 3.35 4.46 3.18 8.33 3.1 12.73 1.18 16.05-.1 24.5 0 12.38 2.38 22.35.08 31.05-.9a394.74 394.74 0 0 0 21-3.52c3-4.7 4.17-8.12 4.58-11.6l.68.4c35.75 10.5 42.3 23.34 49.26 36.14 12.5 27.63 16.67 50.25 16.03 69.97-1.54 47.4-.16 83.13-38.2 121.97-13.54 11.38-27.38 17.8-41.6 20.97a164.28 164.28 0 0 1-23.98 2.5c-.25 0-.5.05-.73.05h-2.6a204 204 0 0 1-24.4-2.07c-1.9-.26-3.68-.54-5.45-.84-3.9-.7-8.03-1.6-12.4-2.6-21.54-5.62-33.83-14.95-49.54-26.08L88.1 373.4l-1.23-1.98-5.5-11.14-.88-8.25-1.77-7.02-3.5-31.47v-9.38l-.88-6.77.3-7.6-.9-6.2-2.33-19.1-.58-7.95 2.92-9.38 1.76-8.84 2.34-9.07 1.75-8.84 5.8-7.67 4.1-9.97 5.85-5 5.55-6.44 6.38-2.35 6.14-3.54.6-3.83-4.7 1.47c-4.22 2.34-8.47 3.8-12.7 9.1l-4.68.28-.1-.83c3.54-1.27 2.3-9.02 2.63-14.58 5.47-18.84-8.15-35.1 28.84-58.2 11.34-2.32 22.3-5.14 35.3-5.24zm32.34 3c5.22-.05 11.08.4 17.7 1.37 13.14 3.83 10.2 10.14 12.22 14.58l2.77 6-1.46-1.2c-5.78-2.22-5.88-5.38-17.93-6.57-7.95.24-23.8-2.12-52.03 11.44l-.48.35-.83-4.77c6.96-11.92 17.44-21.02 40.04-21.2zm8.67 16.54c1.4.03 2.8.1 4.2.25 7.45 1.58 7.88 5.3 16.62 8.38l6.14 6.63 1.17 1.38-.3-.04c-7.58 9.73-54.7 14.36-77.85 3.92l-3.37-2.1 7.76-5.36c5.32-2.76 24.63-13.57 45.65-13.06zm-95.24 265.73c16 11.56 30.82 19.8 44.48 25.38l-.43.7 2.05 1.76.3 19.1c-18-6.5-35.3-15.53-46.4-46.74v-.2z"/><path d="M71.14 262.7l2.04.3 52.2-39.67 6.7-5.3 7-2.63 2.63 2.05 79.9 94.63-4.08 2.94s-3.5 5-4.95 5.3c-1.46.28-4.1.87-4.1.87l-4.94 5.57-30.9 25.57-34.13 30.26-7 4.4-2.92 1.2-9.03-8.24-28.87-30.56-14.58-14.7-3.2-22.33 1.74-.6 25.66 25.3 29.45 28.5 4.96 4.7 58.33-48.8 12.25-11.74-.3-.9-34.1-39.95-26.26-28.8-9.33-10.58h-1.47L107 251.25l-20.7 17.92-11.95 12.05H72.6l-1.75-12.34z"/><path d="M87.76 266.23l1.17 5.3 69.98 73.17 6.43.3-3.8 9.4-11.95 3.8-2.33-5.86-69.7-71.12-3.8-1.76 4.68-9.7zM95.05 259.18l5.83 1.18 15.17 13.8 4.08 4.12 3.8-1.47 1.74-5.28 4.37-1.17 11.67-8.23 16.05-10-2.92-7.92-7.58-1.77-11.96 10-8.76 7.93-4.95-1.18-10.8-14.7-9.04 3.54z"/><path d="M117.8 301.5l35.86-23.22 3.5-1.47 15.17 19.4 7.58 6.47-.58 2.65-8.45 6.76-14.3 14.7-5.53 6.46-.58 2.64-9.92-6.46-3.8-7.94 3.8.6 5.25-2.66 17.2-15.86-.3-2.94-10.5-9.1-2.9-.6-9.34 6.76-10.8 9.1-.87 2.65 1.45 7.64-11.37-8.8z"/><g><path d="M219.56 216.87v5c-3.93 18.16-24.1 39.47-26.53 39.37l-.58 2.35 3.2-.6c15.7-15.45 17.84-20.96 25.96-30.85l1.46-.6c.98-2.06 2.33-5.26 4.1-9.7l1.44-4.7c-1.93-4.43-5.6-1.85-9.04-.28z"/><path d="M223.36 225.68c6.62 2.86 13.62 2.6 19.53 11.17 1.58 5.1 2.87 9.93-4.67 7.35-3.62-3.3-6.87-5.47-11.96-13.23l-4.37-3.23z"/><path d="M212.27 242.14c6.32.2 12.64.93 18.96-6.47l6.7 2.65-2.04 5.3-2.63 1.16-1.17 2.35.6 7.35 7.86-.3 5.25-1.46s-2.62 6.76-3.78 6.76c-1.17 0-3.5-1.18-3.5-1.18l-4.67 4.1-.58 1.48.88 2.35 2.33-3.23h4.66l2.34 1.18 2.33 3.82-2.32.88s-2.63 1.18-3.8.88c-1.16-.3-2.9-.3-2.9-.3l-1.18 3.83-2.33 2.04.3 3.24s0 1.17 3.5-.6c3.5-1.75 5.82-2.34 5.82-2.34l4.66 1.47.87 1.48-3.2 2.64-6.7 1.77-3.8 3.22-4.08.6s1.75-.9-.3 2.34c-2.04 3.23-1.45 3.52-2.62 3.82-1.17.3 2.62 2.05-3.2 0-5.84-2.06-4.38-2.65-7.88-3.82-3.5-1.18-3.5 2.35-5.25-2.35s-3.8-10.28-3.8-10.28v-4.7l3.5.6 7.3 3.8 7.58 5.6 2.04-3.54-1.46-5.58-.58-9.7-4.67 2.35-4.94 1.18-3.8-2.06-1.45-4.1 3.5-.9 5.84.6 3.8-2.06v-3.52l.87-2.35-2.33-1.18-4.08 1.77-4.1-.6-5.24-1.75v-3.82zM244.35 208.93l9.04 1.47 8.16-.6 3.8-1.75 1.74 3.23-1.75 5 .3 3.23-1.76.6s-3.8-3.82-4.68-2.35c-.87 1.47-1.46 4.1-1.46 4.1l-6.7 6.18-6.42 2.94-3.5-.88v-2.36l3.2-2.65 2.34-4.7 5.84-5-6.7-3.24-1.76-1.47z"/><path d="M248.43 229.2c1.17.3 6.42 1.48 6.42 1.48l4.08-.88 8.46-2.06 7.86-2.06 3.5-.6 3.5 3.83 2.92 4.13 2.9 1.47-2.03 4.4-5.25 4.12-2.9 6.76s-.9 3.53-2.06 3.53h-5.24v2.94l2.9 1.47 5.84-1.75 2.34.6 4.08 5.57 3.8 3.82-1.47 5.88-3.8 7.93-2.92 7.94-5.24.28-5.54 8.23-1.75 5.3-6.7-.6-4.97-5.87.3-2.35 3.5 1.77 7.87-2.94 4.95-5.58 2.92-7.93.87-6.18v-4.7-3.53s-.3-.9-2.05-1.2c-1.75-.28-1.16-.57-2.9.6-1.76 1.18-4.68 2.65-4.68 2.65l-6.12 1.17s-2.04-1.17-4.38-1.47c-2.33-.3-2.9 1.18-2.9 1.18l1.45 6.76-1.46 1.75 3.2 7.35.6 2.35-4.4 7.05s-4.07-5-6.1-7.05c-2.05-2.06-2.63-3.23-2.63-3.23l-.88-7.64-.3-4.12s.88-2.64 2.05-4.4c1.17-1.77 3.2-3.24 3.2-3.24l3.22-2.06 6.4 2.94 1.18-.6 6.4-6.16-.57-5.87s5.83-.6 5.25-1.77c-.58-1.17-.88-6.46-.88-6.46l2.34-5-.3-4.4s-4.37 1.76-6.4 2.64c-2.05.88-5.26 1.47-5.26 1.47h-4.66l-4.1-2.35-2.32.3-4.67-1.77-2.04-3.82 3.5-1.17z"/><path d="M242.02 229.8l-1.46 4.7 1.46 6.17 1.16 6.17.3 5 4.08 3.23 3.8 2.94 3.78.9 3.2-2.36 3.8-2.65 5.83.3 1.17-2.95-4.08-.6-4.67-.28-3.5 1.76-2.34 1.76-.3-5.6-1.74-5.28-1.46-4.4.58-4.42-4.08-5.3z"/><path d="M253.1 245.66c1.17-.3 3.8-2.05 3.8-2.05s2.32.9 4.07.3c1.75-.6 4.38-1.17 4.38-1.17l4.66-.9 4.68 1.78-4.38 4.12-3.5-.6-3.2.3-2.34.3-2.62 1.47h-3.5l-3.8-1.48zM259.5 256.54l.3 4.4 2.34 9.4-.58 12.35.3 8.5 1.74 3.25s6.4-1.47 5.54-2.65c-.88-1.17-.88-10.58-.88-10.58l1.17-9.7.87-8.52-1.75-8.23-4.66-2.93-4.1.88zM217.52 326.18l-1.75 1.77 3.8 5 2.04 1.46-1.74 4.42-.88 6.76v6.46l1.17 3.53 4.37 3.23.6-4.7.86-5 2.62-4.7.3-7.64-2.63-5.3 2.04-4.1-3.78-4.4-4.96 2.93z"/><path d="M204.4 339.4l-2.33 2.65 4.96 3.53 1.75 5.3 6.12 1.75 4.08-2.64 8.75-4.42 7-4.12 6.7-2.35 3.2-3.22-2.9-5.58-3.5-.3-2.34 3.53s-2.34 2.06-3.5 2.35c-1.17.3-4.1.6-4.1.6l-9.03 3.22-2.62-1.17-7.3 1.17-3.5-1.17zM214.6 356.45l4.96.88 8.17-2.94 5.25-1.48 4.66-1.76 3.8 2.35 2.9 3.83-.28 4.4-4.37 8.24-3.8 6.17-1.75.6-2.05-3.54.88-2.64 1.46-9.1-.88-2.95s-1.75-.58-2.9-.3c-1.18.3-5.85 2.07-5.85 2.07l-2.03 2.35-4.37-.6-2.33-1.16-2.92-2.06z"/><path d="M204.4 359.4l4.67-.9 5.25 4.7-.3 6.47-2.33 5.3.57 5.87 3.8-2.64h11.08l4.08-2.94 4.96.3-3.5 5.58-4.68.3-4.96 2.93-8.74 1.47-3.5.3-4.1-7.65-2.6-4.7.57-6.77-.6-5z"/><path d="M214.32 367.62l5.24 1.17 3.5-2.95 6.13-.88 5.53-2.64-1.17 5s-1.16 1.17-2.33 1.17h-4.96l-5.83 4.1-2.62.3-6.7-2.93-.3-1.76zM220.15 384.66l-.6 4.12.6 1.76-7.3.88-7.87 2.06-5.83 2.05-3.2.6 1.45 2.05 4.67 3.82 3.5-.3 1.46.9 4.66-3.25 6.4-1.46 3.8-1.2-2.04 7.06-4.1-.3 1.76 2.07 4.38 5 2.04-2.95 2.62-7.05 2.04-6.46h5.84l3.5-.6 3.8-3.52 4.36-3.23-9.33-.6-4.67.9-2.04-2.65-3.8-3.53-3.78 1.47zM240.27 337.06l6.7.88 3.5-3.53 3.5 3.24 10.2-6.46 4.97-2.35 4.08 3.52 4.96.6.58 3.52-1.17 5.58-1.76 18.8.3 15-1.17 11.75-.3 6.17-7.28 7.94-2.34-1.17-1.17-1.76-7-2.35-6.72-2.65-.3-5 5.26 1.77 7-1.18 1.75 1.18 1.74-11.17.87-10.87.9-6.47-.3-11.75-.3-7.64-5.54-.3-4.66 2.36-9.33.58-4.38-3.52-7.88-2.94.87-2.06z"/><path d="M246.68 345l1.17 16.74.3 12.64-2.63 7.93-.3 8.83-.87 5.58-3.5 1.48-3.8-.3v2.36l2.34 3.52 2.62-1.17 4.96-2.66 3.8-5 2.03-6.75 1.17-6.77 1.46-11.17.3-7.64 1.74-5.58v-7.94l1.46-5.87-3.8-3.53-5.82 2.35z"/><path d="M257.18 357.33l6.13-1.76 4.38-2.35 2.92 10.28-4.1 4.12-3.78-2.06-4.37-1.76-4.96-1.47v-3.82zM254.27 375.26c1.45-.3 5.54-.88 5.54-.88l4.38-2.94 4.67-2.06 2.62 6.76-3.8 7.05h-2.9l-4.38-2.36-8.18 2.94-2.33-3.53z"/></g></svg>