<svg xmlns="http://www.w3.org/2000/svg" width="372" height="587" viewBox="0 0 371.99999 587.00004"><defs><filter id="a"><feGaussianBlur stdDeviation=".85"/></filter></defs><path fill="#a40" d="M0 0h372v587H0z"/><path d="M477 3352.6c-12.03.85-23.06 6.46-33.06 12.87-1 5.24 3.17 14.33-4.8 14.42-16.55 4.18-31.84 15.35-37.34 31.97-4.58 10.94-6.07 22.7-5.64 34.5.37 20.73.13 42.7 9.87 61.47 6.44 10.96 14.54 21.26 26.25 26.97 14.45 7.56 30.93 10.14 46.9 12.45 14.25-2.16 29.4-3.93 40.8-13.7 12.17-8.35 20.66-21.05 24.7-35.17 7.12-25 7.53-52.07 1.48-77.32-4-12.84-8.9-27.16-21.88-33.47-5.5-3.1-11.77-5.05-17.47-7.6-2.98-8.12-3.84-18.13-12-22.8-5.14-3.58-11.54-4.98-17.8-4.6z" color="#000" overflow="visible" fill="#f4eede" filter="url(#a)" enable-background="accumulate" transform="translate(-286.4 -3164.02)"/><path d="M184.98 167.22c-1.77 0-3.96.25-7.2.25l-3.08.84.28 1.42c3.37.37 4.5 1.5 3.38 3.37l-31.44 3.37c-.75 1.5-17.64 1.76-24.13 21.3-.2 21-.38 23.42-.57 35.07l-1.12 3.66-1.1 4.5-3.4 7.5-3.9 12.7c-2.35 2.64-1.23 20.73-.84 30.1.6 14.6 1.7 29.5 2.34 33.1.36 4.5 2.08 9.4 4.3 14.13-.36 17.58 1.18 34.18-2.8 53.56-2.46 5.14-1.6 14.63-20.56 15.9-2.72-1.16-3.14 0-1.88 2.8 2.9 1.98 3.05 3.48 11.4 6.36 3.24-1.2 5.07 3.14 14.8-13.28 3.83-8.3 5.52-17 6.9-25.8.77-4.63 2.57-2.1 4.3 0 19.28 17.2 25.73 16 31.6 19.08h4.32l2.25 2.62-2.63 5.97-.94 2.44.2 2.05-2.82.94-3.75-.2-2.8 1.5-1.12 1.13.75 1.68 3.35 2.23 2.06 2.25 2.44-1.87 2.06-.37 1.7-4.47.55-5.25 1.5-3.36 1.64-3.72 3.2 1.3 1.87-2.24 1.5-1.87 3.94 1.13 3.16 2.63 2.44.75 2.44-2.06 1.3-.75 3 .56.95-.38 3.15 2.06 2.8-2.06 3.58-1.7 3.72-1.5 2.8.4 1.7 2.6-.2 1.7 2.07 1.88 2.25 1.84.56 5.63v2.06l2.63 2.43 3.7.37 5.63-.37 3.2-1.7 3.52-1.5-1.7-1.68-2.58-2.8-2.25.36-6 .2-.2-3.37-1.1-2.22-3.17-3.56-2.44-3.18-2.8-1.7 2.63-.93 3.18.2.92-1.5.37-2.42-.76-2.24.57-4.3-.18-3.76.16-2.75c5.8-3.03 10.37-6.6 13.68-9.6l4.7-3.34c17.95-16.55 20.18-35.75 22.3-52.05 2.83-21.65 3.03-44.4-7.9-70.06-6.72-7.33-1.57-12.07-33.47-24.9l-.9.48c.06-2.7-.36-5.74-.24-10.6-.95-2.23-2.73-3.25-4.78-3.84.4-.34.75-.74.97-1.25 1.1-1.2 2.04-2.45.44-4.72-.7-11.36-.7-14.14-12.64-19.63-2.55-.12-5.8-.44-9.4-.53.2-1.03.33-2.35.15-4.53-3.73-3.8-5.56-4.5-8.52-4.48zM168.42 179c1.8 0 3.7.05 5.66.22-5.42 2.3-10.47 6.26-14.25 12.94-2.44 5.56-1.57 8.65-1.13 12.06l.25-.22-.8 1.9c.02 3.04.3 6 .83 9.3l-.56-.57-9.53 2.78-1.98.85.84 1.97 3.94-1.97h1.4l4.76-1.12 1.4-.5c.54 2.92 1.26 6.17 2.25 10.06.3 2.12 2.87 2 5.36 1.96 8.16.75 10.3-.07 15.72 0 7.93 1.5 14.32.05 19.9-.57 5.02-.75 9.92-1.5 13.47-2.26 1.93-3 2.68-5.16 2.94-7.37l.43.25c22.93 6.7 27.13 14.85 31.6 23 8 17.6 10.68 31.98 10.27 44.53-1 30.16-.1 52.9-24.5 77.63-8.68 7.24-17.56 11.32-26.7 13.34-4.72.8-9.62 1.45-15.36 1.6l-.47.02h-1.66c-5.12-.08-10.33-.6-15.64-1.3-1.22-.17-2.37-.35-3.5-.54-2.5-.45-5.15-1-7.94-1.66-13.83-3.57-21.7-9.5-31.78-16.6l-10.44-14.4-.78-1.25-3.53-7.1-.57-5.25-1.13-4.47-2.25-20.03v-5.97l-.56-4.3.18-4.85-.57-3.94-1.5-12.17-.36-5.06L114 264l1.14-5.62 1.5-5.8 1.12-5.6 3.72-4.9 2.63-6.33 3.76-3.2 3.56-4.08 4.1-1.5 3.93-2.25.38-2.44-3 .94c-2.72 1.48-5.45 2.42-8.16 5.78l-3 .2-.06-.54c2.28-.8 1.47-5.75 1.7-9.28 3.5-12-5.24-22.35 18.5-37.04 7.26-1.48 14.3-3.28 22.62-3.34zm20.75 1.9c3.34-.02 7.1.26 11.34.88 8.45 2.44 6.56 6.45 7.86 9.28l1.78 3.82-.94-.75c-3.7-1.43-3.77-3.44-11.5-4.2-5.1.16-15.27-1.34-33.37 7.3l-.32.2-.52-3.02c4.47-7.58 11.2-13.37 25.7-13.5zm5.56 10.54c.9.02 1.78.06 2.7.15 4.77 1 5.04 3.38 10.65 5.34l3.93 4.22.76.87-.18-.03c-4.87 6.2-35.1 9.14-49.94 2.5l-2.16-1.34 4.97-3.4c3.4-1.76 15.8-8.65 29.28-8.32zm-61.1 169.12c10.28 7.36 19.77 12.6 28.54 16.16l-.28.44 1.3 1.12.2 12.16c-11.55-4.15-22.65-9.9-29.76-29.75v-.14z"/><path d="M112.33 273.9l1.3.2 33.5-25.26 4.3-3.37 4.48-1.68 1.7 1.3 51.24 60.22-2.62 1.87s-2.25 3.17-3.18 3.36l-2.62.56-3.18 3.56-19.82 16.27-21.9 19.26-4.48 2.82-1.87.74-5.8-5.23-18.5-19.45-9.36-9.35-2.05-14.22 1.12-.36 16.46 16.08 18.9 18.14 3.17 3 37.4-31.05 7.86-7.47-.18-.56-21.9-25.44-16.82-18.33-5.98-6.73h-.94l-17.2 13.84-13.28 11.42-7.67 7.67h-1.14l-1.12-7.87z"/><path d="M123 276.15l.74 3.36 44.9 46.58 4.1.2-2.43 5.98-7.66 2.43-1.5-3.75-44.7-45.26-2.43-1.14 3-6.17zM127.67 271.66l3.74.75 9.73 8.8 2.62 2.62 2.43-.94 1.12-3.37 2.8-.73 7.5-5.24 10.28-6.36-1.87-5.05-4.86-1.12-7.66 6.36-5.6 5.05-3.2-.74-6.9-9.35-5.8 2.25z"/><path d="M142.25 298.6l23-14.78 2.25-.94 9.73 12.34 4.86 4.12-.38 1.68-5.43 4.3-9.17 9.36-3.55 4.1-.38 1.7-6.36-4.12-2.43-5.05 2.44.38 3.37-1.68 11.04-10.1-.18-1.87-6.74-5.8-1.87-.37-5.98 4.3-6.92 5.8-.56 1.68.92 4.86-7.3-5.6z"/><g><path d="M207.53 244.73v3.18c-2.52 11.57-15.46 25.13-17.02 25.07l-.37 1.5 2.06-.38c10.06-9.84 11.43-13.35 16.64-19.65l.93-.37c.63-1.32 1.5-3.36 2.62-6.17l.93-3c-1.25-2.8-3.6-1.17-5.8-.17z"/><path d="M209.96 250.34c4.25 1.82 8.74 1.66 12.53 7.1 1 3.24 1.84 6.32-3 4.68-2.32-2.1-4.4-3.48-7.67-8.42l-2.8-2.05z"/><path d="M202.85 260.8c4.05.14 8.1.6 12.16-4.1l4.3 1.68-1.3 3.37-1.68.74-.75 1.5.37 4.67 5.05-.2 3.36-.93s-1.68 4.3-2.43 4.3c-.75 0-2.24-.74-2.24-.74l-3 2.62-.38.93.56 1.5 1.5-2.06h3l1.48.74 1.5 2.43-1.5.56s-1.68.75-2.43.56c-.74-.2-1.87-.2-1.87-.2l-.75 2.44-1.48 1.3.2 2.06s0 .75 2.23-.37c2.24-1.12 3.74-1.5 3.74-1.5l2.98.94.56.93-2.05 1.7-4.3 1.1-2.45 2.07-2.6.37s1.1-.56-.2 1.5c-1.3 2.05-.94 2.24-1.68 2.43-.75.18 1.68 1.3-2.06 0-3.73-1.3-2.8-1.7-5.04-2.43-2.25-.75-2.25 1.5-3.37-1.5-1.13-3-2.44-6.55-2.44-6.55v-3l2.24.37 4.68 2.44 4.86 3.56 1.3-2.24-.92-3.56-.38-6.17-3 1.5-3.17.73-2.43-1.3-.94-2.62 2.25-.55 3.74.37 2.42-1.3v-2.25l.56-1.5-1.5-.75-2.6 1.12-2.63-.37-3.37-1.12v-2.43zM223.43 239.68l5.8.93 5.23-.36 2.43-1.13 1.1 2.07-1.1 3.18.18 2.06-1.12.38s-2.43-2.43-3-1.5c-.56.94-.93 2.63-.93 2.63l-4.3 3.93-4.12 1.87-2.23-.56v-1.5l2.06-1.68 1.5-3 3.73-3.17-4.3-2.07-1.12-.93z"/><path d="M226.04 252.58c.75.2 4.12.94 4.12.94l2.62-.56 5.42-1.3 5.05-1.32 2.25-.38 2.24 2.43 1.87 2.6 1.88.95-1.3 2.8-3.38 2.62-1.87 4.3s-.56 2.25-1.3 2.25h-3.37v1.87l1.87.92 3.74-1.12 1.5.38 2.6 3.55 2.45 2.43-.94 3.74-2.43 5.05-1.87 5.05-3.37.2-3.54 5.22-1.12 3.37-4.3-.38-3.18-3.74.18-1.5 2.25 1.12 5.04-1.87 3.18-3.55 1.87-5.05.55-3.93v-3-2.24s-.2-.56-1.3-.74c-1.13-.2-.76-.38-1.88.37-1.12.74-3 1.67-3 1.67l-3.92.75s-1.3-.75-2.8-.93c-1.5-.2-1.88.73-1.88.73l.94 4.3-.93 1.13 2.06 4.67.37 1.5-2.8 4.5s-2.62-3.2-3.93-4.5c-1.3-1.3-1.68-2.06-1.68-2.06l-.57-4.86-.2-2.6s.57-1.7 1.32-2.8c.75-1.14 2.06-2.07 2.06-2.07l2.06-1.3 4.12 1.86.75-.38 4.1-3.93-.36-3.75s3.74-.38 3.36-1.12c-.37-.75-.56-4.12-.56-4.12l1.5-3.17-.2-2.8s-2.8 1.12-4.1 1.68c-1.3.57-3.37.94-3.37.94h-3l-2.6-1.5-1.5.2-3-1.13-1.3-2.42 2.24-.75z"/><path d="M221.93 252.96l-.94 3 .93 3.92.75 3.92.18 3.18 2.62 2.06 2.43 1.87 2.45.57 2.05-1.5 2.43-1.68 3.75.18.74-1.87-2.6-.37-3-.18-2.25 1.12-1.5 1.12-.2-3.56-1.1-3.37-.94-2.8.37-2.8-2.62-3.38z"/><path d="M229.04 263.05c.74-.18 2.43-1.3 2.43-1.3s1.5.56 2.62.18c1.1-.37 2.8-.75 2.8-.75l2.98-.56 3 1.13-2.8 2.6-2.25-.36-2.06.18-1.5.18-1.68.94h-2.25l-2.44-.94zM233.15 269.98l.2 2.8 1.48 6-.37 7.84.2 5.42 1.1 2.06s4.12-.93 3.56-1.68c-.56-.75-.56-6.73-.56-6.73l.75-6.2.57-5.4-1.12-5.25-3-1.87-2.6.56zM206.22 314.3l-1.12 1.12 2.43 3.18 1.3.94-1.1 2.8-.58 4.3v4.12l.75 2.24 2.8 2.06.38-3 .56-3.17 1.7-3 .17-4.87-1.67-3.36 1.3-2.62-2.42-2.8-3.17 1.86z"/><path d="M197.8 322.72l-1.5 1.68 3.2 2.25 1.1 3.36 3.94 1.13 2.6-1.68 5.63-2.8 4.48-2.62 4.3-1.5 2.06-2.06-1.86-3.55-2.24-.2L218 319s-1.5 1.3-2.24 1.5c-.75.18-2.62.37-2.62.37l-5.8 2.05-1.68-.74-4.68.74-2.24-.74zM204.35 333.57l3.18.56 5.24-1.87 3.36-.94 3-1.12 2.43 1.5 1.87 2.43-.2 2.8-2.8 5.24-2.43 3.93-1.12.37-1.3-2.24.55-1.7.94-5.78-.56-1.88s-1.12-.37-1.86-.18c-.75.17-3.75 1.3-3.75 1.3l-1.3 1.5-2.82-.38-1.5-.75-1.87-1.3z"/><path d="M197.8 335.44l3-.57 3.36 3-.2 4.1-1.48 3.38.37 3.74 2.43-1.7h7.1l2.63-1.86 3.2.18-2.26 3.56-3 .18-3.17 1.87-5.6.94-2.25.2-2.62-4.88-1.68-3 .37-4.3-.38-3.18z"/><path d="M204.16 340.67l3.37.75 2.24-1.87 3.93-.56 3.55-1.7-.74 3.2s-.74.73-1.5.73h-3.17l-3.74 2.62-1.7.2-4.3-1.88-.18-1.12zM207.9 351.52l-.37 2.62.37 1.12-4.67.56-5.05 1.3-3.74 1.32-2.06.37.93 1.32 3 2.44 2.25-.2.94.57 2.98-2.06 4.1-.93 2.44-.75-1.3 4.48-2.62-.2 1.12 1.32 2.8 3.18 1.3-1.87 1.7-4.48 1.3-4.1h3.75l2.24-.4 2.44-2.23 2.8-2.07-5.98-.37-3 .56-1.3-1.7-2.43-2.23-2.43.92zM220.8 321.22l4.3.56 2.25-2.24 2.25 2.06 6.54-4.12 3.18-1.5 2.62 2.25 3.18.37.38 2.25-.75 3.55-1.12 11.97.18 9.54-.74 7.5-.18 3.92-4.68 5.05-1.5-.75-.74-1.12-4.5-1.5-4.3-1.68-.18-3.18 3.37 1.12 4.48-.75 1.13.76 1.12-7.1.56-6.93.56-4.1-.2-7.5-.17-4.85-3.56-.2-3 1.5-5.97.38-2.8-2.25-5.06-1.86.56-1.3z"/><path d="M224.92 326.27l.75 10.66.2 8.04-1.7 5.05-.18 5.62-.57 3.55-2.25.92-2.43-.18v1.5l1.5 2.24 1.68-.75 3.18-1.68 2.44-3.18 1.3-4.3.76-4.3.93-7.1.2-4.88 1.1-3.56v-5.05l.95-3.75-2.43-2.25-3.74 1.5z"/><path d="M231.66 334.13l3.92-1.13 2.8-1.5 1.88 6.55-2.62 2.62-2.43-1.3-2.8-1.13-3.18-.93v-2.43zM229.78 345.54c.94-.2 3.56-.57 3.56-.57l2.8-1.87 3-1.3 1.68 4.3-2.43 4.5h-1.88l-2.8-1.5-5.24 1.86-1.5-2.24z"/></g><path stroke-miterlimit="100" d="M364.58 579.58H7.42V7.42h357.16v572.16z" fill="none" stroke="#000" stroke-width="14.84"/></svg>